<svg width="190" height="77" viewBox="0 0 190 77" fill="none" xmlns="http://www.w3.org/2000/svg">
<path d="M2.25586 60.6786L12.6622 57.2344L42.8301 52.7383L32.4109 56.6931L14.8397 59.5632L2.25586 60.6786Z" fill="#1F1F86"/>
<path d="M45.5858 68.8866L35.1712 71.7861L32.3379 56.653L42.7525 52.75L45.5858 68.8866Z" fill="#1F1F86"/>
<path d="M16.1085 7.25182L26.8809 3.47266L11.5084 46.7661L12.908 58.3925L2.24822 60.739L0.726562 48.7954L16.1085 7.25182Z" fill="#30309C"/>
<path d="M30.6595 45.157L28.4551 31.552L37.1908 9.24609C37.1908 9.24609 43.8018 46.1062 43.566 46.1062C43.3302 46.1062 30.6595 45.157 30.6595 45.157Z" fill="#1F1F86"/>
<path d="M61.5973 49.9375L55.2138 52.4868L54.375 50.9575L61.5973 49.9375Z" fill="#1F1F86"/>
<path d="M58.5696 67.0898L46.7131 70.4127L35.1699 71.7828L45.6373 68.7253L58.5696 67.0898Z" fill="#1F1F86"/>
<path d="M58.5697 67.0924L45.5588 68.7797L34.0156 2.70754L46.9749 0.914062L58.5697 67.0924Z" fill="#5161CC"/>
<path d="M61.5947 49.9372L59.3562 39.1445L11.2793 47.0542L12.8713 58.3917L61.5947 49.9372Z" fill="#5161CC"/>
<path d="M46.975 0.914062L26.8873 3.38555L11.2461 47.054L23.3653 48.8734L25.7258 44.3384L35.5374 13.8599L46.975 0.914062Z" fill="#5161CC"/>
<path d="M102.93 9.08495C95.9703 7.94 89.8884 9.25593 85.3387 12.8889C80.9532 16.3921 78.0202 22.0202 76.8576 29.1611L73.6676 48.7514C71.2485 63.6086 78.107 73.8483 92.0131 76.1358C93.5873 76.4 95.1803 76.5352 96.7763 76.5403C108.126 76.5403 115.952 69.1553 118.085 56.0562L121.275 36.4659C123.694 21.6086 116.836 11.3713 102.93 9.08495ZM108.484 33.5604L105.039 54.7179C104.39 58.701 103.058 61.6194 101.08 63.3916C99.2025 65.0719 96.7528 65.678 93.7952 65.191C86.1165 63.9281 85.5675 57.1374 86.4591 51.6627L89.9037 30.5053C90.5524 26.521 91.884 23.6026 93.8632 21.8303C95.3204 20.525 97.1236 19.8682 99.2436 19.8682C99.8817 19.8705 100.518 19.9253 101.148 20.0321C108.825 21.2938 109.374 28.0857 108.484 33.5604V33.5604Z" fill="#1F1F86"/>
<path d="M102.93 1.49118C95.9703 0.346234 89.8884 1.66216 85.3387 5.29629C80.9532 8.79953 78.0202 14.4264 76.8576 21.5685L73.6676 41.1576C71.2485 56.0149 78.107 66.2546 92.0131 68.5421C93.5873 68.8062 95.1803 68.9415 96.7763 68.9465C108.126 68.9465 115.952 61.5616 118.085 48.4624L121.275 28.8733C123.694 14.0149 116.836 3.77755 102.93 1.49118ZM108.484 25.9632L105.039 47.1206C104.389 51.1084 103.058 54.0268 101.08 55.7955C99.2025 57.4758 96.7528 58.0807 93.7952 57.5937C86.1165 56.3309 85.5675 49.5402 86.4591 44.0654L89.9037 22.908C90.5524 18.9237 91.884 16.0053 93.8632 14.233C95.3204 12.9277 97.1236 12.2721 99.2436 12.2721C99.8816 12.2746 100.518 12.329 101.148 12.4348C108.825 13.7001 109.374 20.4919 108.484 25.9632Z" fill="#5161CC"/>
<path d="M159.594 32.8633C156.76 32.8633 153.465 33.6321 150.999 34.6591L155.712 44.1347C156.757 43.7374 157.853 44.6689 159.004 44.6689C161.43 44.6709 163.762 45.618 165.508 47.3113C167.254 49.0046 168.279 51.3121 168.368 53.7492C168.457 56.1863 167.603 58.5632 165.985 60.3806C164.367 62.198 162.111 63.3143 159.691 63.4951C159.708 64.047 159.71 64.4255 159.691 64.5646C159.574 65.5905 154.708 66.7378 154.708 66.7378L151.934 64.7993C150.996 65.5952 150.141 66.3039 150.141 66.3039L145.368 66.4088L143.006 52.6458C143.006 52.6458 139.972 51.7567 138.245 51.4077C138.132 52.299 138.076 53.1965 138.076 54.095C138.076 58.664 139.557 63.1088 142.293 66.7574C145.029 70.406 148.873 73.0601 153.243 74.3185L150.302 74.842C157.845 75.7948 157.841 75.7853 162.805 74.7807C167.613 73.8855 171.956 71.327 175.083 67.5492C178.21 63.7713 179.922 59.0125 179.922 54.0985C179.928 42.4804 171.151 32.8633 159.594 32.8633Z" fill="#2C2D99"/>
<path d="M146.092 51.241L136.859 47.2449L129.787 45.7969L140.542 50.142L146.092 51.241Z" fill="#2C2D99"/>
<path d="M140.614 50.0078L146.092 51.2424C146.092 51.2424 144.037 58.6191 148.067 63.3392L141.928 63.8486L136.297 60.2275L137.578 54.0322L140.614 50.0078Z" fill="#1F1F86"/>
<path d="M149.184 32.8164C146.348 32.8164 144.18 34.4672 141.714 35.4978L145.869 45.0253C147.893 44.2582 150.12 44.2197 152.17 44.9162C154.22 45.6128 155.967 47.0013 157.113 48.8459C158.26 50.6905 158.735 52.8772 158.459 55.0343C158.183 57.1914 157.172 59.1857 155.598 60.6783C154.024 62.1708 151.984 63.0695 149.825 63.2214C147.667 63.3733 145.522 62.7692 143.757 61.5117C141.991 60.2542 140.713 58.421 140.141 56.3236C139.568 54.2263 139.735 51.9943 140.615 50.0071L129.787 45.7976L129.381 47.044C127.947 51.2596 127.882 55.8241 129.195 60.0795C130.508 64.3348 133.132 68.061 136.688 70.7211C140.244 73.3811 144.549 74.8375 148.982 74.8803C153.414 74.923 157.746 73.5499 161.352 70.959C164.958 68.368 167.653 64.6931 169.047 60.4639C170.441 56.2347 170.463 51.6698 169.11 47.4272C167.756 43.1847 165.097 39.4836 161.516 36.8577C157.935 34.2318 153.617 32.8168 149.184 32.8164V32.8164Z" fill="#4E5ECA"/>
<path d="M184.653 30.5701L171.965 37.9186L161.059 35.3504L177.148 26.6672L177.637 18.5476L189.075 17.1055L184.653 30.5701Z" fill="#2C2D99"/>
<path d="M147.021 9.46212C147.201 9.52226 145.52 5.78084 145.52 5.78084L152.664 3.25391L189.129 17.1042L177.642 20.2631L147.021 9.46212Z" fill="#7284FA"/>
<path d="M141.611 35.4561L164.102 24.1717L142.626 15.6288L145.52 5.88672L180.944 19.3726L178.164 27.8624L162.056 37.5126L147.801 38.5938L141.611 35.4561Z" fill="#4E5ECA"/>
</svg>
