<svg width="266" height="323" viewBox="0 0 266 323" fill="none" xmlns="http://www.w3.org/2000/svg">
<g style="mix-blend-mode:multiply" opacity="0.6">
<path d="M123.723 322.48C191.911 322.48 247.189 318.287 247.189 313.115C247.189 307.943 191.911 303.75 123.723 303.75C55.5352 303.75 0.257812 307.943 0.257812 313.115C0.257812 318.287 55.5352 322.48 123.723 322.48Z" fill="#DCE7F5"/>
</g>
<path d="M154.738 1.35156C139.874 1.35156 125.618 7.24115 115.107 17.7247C104.596 28.2083 98.6914 42.4271 98.6914 57.2531V67.4126H210.78V57.2531C210.78 42.4279 204.876 28.2098 194.366 17.7264C183.857 7.24297 169.602 1.35282 154.738 1.35156Z" fill="#EEEEEE"/>
<path d="M104.041 52.1703C105.308 39.6382 111.197 28.0221 120.564 19.5743C129.931 11.1266 142.109 6.44922 154.738 6.44922C167.366 6.44922 179.545 11.1266 188.912 19.5743C198.279 28.0221 204.167 39.6382 205.434 52.1703H104.041Z" fill="url(#paint0_linear_437_7049)"/>
<path d="M98.6922 296.086H210.781L210.781 57.2454H98.6922L98.6922 296.086Z" fill="#E2E2E2"/>
<path opacity="0.4" d="M135.887 26.7617V52.1702H205.445C204.518 42.9494 201.069 34.1599 195.473 26.7617H135.887Z" fill="#212121"/>
<path d="M103.785 296.09H205.684L205.684 72.4981H103.785L103.785 296.09Z" fill="#F05673"/>
<g style="mix-blend-mode:multiply">
<path d="M103.785 296.09H104.805L104.805 72.4981H103.785L103.785 296.09Z" fill="#B71C1C"/>
</g>
<path d="M147.097 128.395H113.98V199.54H147.097V128.395Z" fill="#A91D37"/>
<path opacity="0.1" d="M147.097 128.395H113.98V199.54H147.097V128.395Z" fill="url(#paint1_linear_437_7049)"/>
<g style="mix-blend-mode:multiply">
<path d="M113.98 199.535L116.015 197.506L145.058 130.428L147.097 128.395H113.98V199.535Z" fill="#E8294D"/>
</g>
<path d="M145.059 130.43H116.016V197.508H145.059V130.43Z" fill="#FC879D"/>
<path opacity="0.1" d="M145.059 130.43H116.016V197.508H145.059V130.43Z" fill="#FF859C"/>
<g style="mix-blend-mode:multiply">
<path d="M116.016 197.508L119.074 194.457L142 133.476L145.059 130.43V197.508H116.016Z" fill="#DB677D"/>
</g>
<path d="M142 133.477H119.074V194.458H142V133.477Z" fill="#F05673"/>
<path d="M195.736 128.395H162.619V199.54H195.736V128.395Z" fill="#A91D37"/>
<path opacity="0.1" d="M195.736 128.395H162.619V199.54H195.736V128.395Z" fill="url(#paint2_linear_437_7049)"/>
<g style="mix-blend-mode:multiply">
<path d="M162.619 199.535L164.653 197.506L193.696 130.428L195.736 128.395H162.619V199.535Z" fill="#E8294D"/>
</g>
<path d="M193.697 130.43H164.654V197.508H193.697V130.43Z" fill="#FC879D"/>
<path opacity="0.1" d="M193.697 130.43H164.654V197.508H193.697V130.43Z" fill="#FF859C"/>
<g style="mix-blend-mode:multiply">
<path d="M164.654 197.508L167.713 194.457L190.639 133.476L193.697 130.43V197.508H164.654Z" fill="#DB677D"/>
</g>
<path d="M190.639 133.477H167.713V194.458H190.639V133.477Z" fill="#F05673"/>
<path d="M147.097 209.043H113.98V280.189H147.097V209.043Z" fill="#A91D37"/>
<path opacity="0.1" d="M147.097 209.043H113.98V280.189H147.097V209.043Z" fill="url(#paint3_linear_437_7049)"/>
<g style="mix-blend-mode:multiply">
<path d="M113.98 280.184L116.015 278.155L145.058 211.077L147.097 209.043H113.98V280.184Z" fill="#E8294D"/>
</g>
<path d="M145.059 211.078H116.016V278.156H145.059V211.078Z" fill="#FC879D"/>
<path opacity="0.1" d="M145.059 211.078H116.016V278.156H145.059V211.078Z" fill="#FF859C"/>
<g style="mix-blend-mode:multiply">
<path d="M116.016 278.156L119.074 275.105L142 214.124L145.059 211.078V278.156H116.016Z" fill="#DB677D"/>
</g>
<path d="M142 214.125H119.074V275.106H142V214.125Z" fill="#F05673"/>
<path d="M195.736 209.043H162.619V280.189H195.736V209.043Z" fill="#A91D37"/>
<path opacity="0.1" d="M195.736 209.043H162.619V280.189H195.736V209.043Z" fill="url(#paint4_linear_437_7049)"/>
<g style="mix-blend-mode:multiply">
<path d="M162.619 280.184L164.653 278.155L193.696 211.077L195.736 209.043H162.619V280.184Z" fill="#E8294D"/>
</g>
<path d="M193.697 211.078H164.654V278.156H193.697V211.078Z" fill="#FC879D"/>
<path opacity="0.1" d="M193.697 211.078H164.654V278.156H193.697V211.078Z" fill="#FF859C"/>
<g style="mix-blend-mode:multiply">
<path d="M164.654 278.156L167.713 275.105L190.639 214.124L193.697 211.078V278.156H164.654Z" fill="#DB677D"/>
</g>
<path d="M190.639 214.125H167.713V275.106H190.639V214.125Z" fill="#F05673"/>
<path d="M147.097 82.6602H113.98V118.233H147.097V82.6602Z" fill="#A20817"/>
<path opacity="0.1" d="M147.095 81.7461H113.979V117.319H147.095V81.7461Z" fill="#A20817"/>
<g style="mix-blend-mode:multiply">
<path d="M113.98 118.233L116.015 116.199L145.058 84.694L147.097 82.6602H113.98V118.233Z" fill="#F05673"/>
</g>
<path d="M145.059 84.6914H116.016V116.197H145.059V84.6914Z" fill="#FC879E"/>
<path opacity="0.1" d="M145.059 84.6914H116.016V116.197H145.059V84.6914Z" fill="#FC879E"/>
<g style="mix-blend-mode:multiply">
<path d="M118.053 117.865L121.111 114.819L144.037 89.4101L147.096 86.3594V117.865H118.053Z" fill="#D8364D"/>
</g>
<path d="M142 87.7422H119.074V113.151H142V87.7422Z" fill="#F05673"/>
<path d="M195.738 82.6602H162.621V118.233H195.738V82.6602Z" fill="#A20817"/>
<path opacity="0.1" d="M195.736 81.7461H162.619V117.319H195.736V81.7461Z" fill="#A20817"/>
<g style="mix-blend-mode:multiply">
<path d="M162.621 118.233L164.655 116.199L193.698 84.694L195.738 82.6602H162.621V118.233Z" fill="#F05673"/>
</g>
<path d="M193.699 84.6914H164.656V116.197H193.699V84.6914Z" fill="#FC879E"/>
<path opacity="0.1" d="M193.699 84.6914H164.656V116.197H193.699V84.6914Z" fill="#FC879E"/>
<g style="mix-blend-mode:multiply">
<path d="M166.693 117.865L169.752 114.819L192.678 89.4101L195.736 86.3594V117.865H166.693Z" fill="#D8364D"/>
</g>
<path d="M190.641 87.7422H167.715V113.151H190.641V87.7422Z" fill="#F05673"/>
<g style="mix-blend-mode:multiply">
<path d="M112.961 192.435C112.96 191.838 112.783 191.255 112.451 190.758V184.813L111.942 184.305L106.334 184.813L105.824 204.633L106.334 205.142H112.456V194.117C112.787 193.618 112.962 193.033 112.961 192.435V192.435Z" fill="#BDBDBD"/>
</g>
<path d="M111.941 184.293H105.828V204.622H111.941V184.293Z" fill="#9E9E9E"/>
<path d="M111.942 204.622H105.824L106.844 203.605L110.922 185.31L111.942 184.293V204.622Z" fill="#616161"/>
<path d="M110.922 203.603V185.309H106.844V203.603H110.922Z" fill="url(#paint5_linear_437_7049)"/>
<g style="mix-blend-mode:multiply">
<path d="M111.942 190.166C111.503 189.769 110.958 189.508 110.374 189.414C109.789 189.32 109.189 189.397 108.648 189.636C108.106 189.876 107.646 190.267 107.323 190.762C107 191.257 106.828 191.835 106.828 192.426C106.828 193.016 107 193.595 107.323 194.09C107.646 194.585 108.106 194.976 108.648 195.215C109.189 195.454 109.789 195.532 110.374 195.438C110.958 195.344 111.503 195.082 111.942 194.685V190.166Z" fill="#BDBDBD"/>
</g>
<path d="M108.883 194.457C110.572 194.457 111.942 193.091 111.942 191.406C111.942 189.721 110.572 188.355 108.883 188.355C107.194 188.355 105.824 189.721 105.824 191.406C105.824 193.091 107.194 194.457 108.883 194.457Z" fill="url(#paint6_radial_437_7049)"/>
<g style="mix-blend-mode:multiply">
<path d="M110.764 189.02C111.251 189.602 111.502 190.344 111.468 191.101C111.433 191.858 111.116 192.575 110.579 193.111C110.042 193.647 109.323 193.963 108.564 193.998C107.805 194.032 107.06 193.782 106.477 193.296C106.745 193.628 107.081 193.9 107.462 194.094C107.843 194.288 108.26 194.4 108.687 194.423C109.114 194.445 109.541 194.378 109.941 194.225C110.34 194.073 110.703 193.838 111.005 193.536C111.307 193.235 111.543 192.873 111.696 192.475C111.849 192.076 111.916 191.65 111.894 191.224C111.871 190.798 111.759 190.382 111.564 190.002C111.37 189.622 111.097 189.287 110.764 189.02V189.02Z" fill="#EEEEEE"/>
</g>
<path d="M109.393 197.508C109.393 197.374 109.339 197.244 109.243 197.149C109.148 197.054 109.018 197 108.883 197C108.748 197 108.618 197.054 108.522 197.149C108.427 197.244 108.373 197.374 108.373 197.508C108.372 197.583 108.389 197.657 108.422 197.724C108.455 197.791 108.504 197.849 108.564 197.893L108.373 200.046H109.393L109.202 197.893C109.262 197.849 109.31 197.791 109.343 197.724C109.376 197.657 109.393 197.583 109.393 197.508Z" fill="#212121"/>
<g style="mix-blend-mode:multiply">
<path d="M111.941 184.293H105.828V204.622H111.941V184.293Z" fill="#FFE0B2"/>
</g>
<path d="M205.684 296.09H206.703L206.703 72.4981H205.684L205.684 296.09Z" fill="white"/>
<g style="mix-blend-mode:multiply">
<path d="M203.707 43.228C203.427 42.2459 203.109 41.2765 202.754 40.3198L171.057 48.8115C170.478 47.2633 169.651 45.819 168.608 44.5347L191.219 21.9822C191.577 22.2911 191.939 22.5952 192.287 22.9326C191.967 22.5857 191.629 22.253 191.3 21.9156C191.266 21.8784 191.23 21.8435 191.191 21.8111C190.629 21.2314 190.052 20.6706 189.461 20.1194C189.342 20.0101 189.233 19.8913 189.114 19.782C188.356 19.0883 187.57 18.4277 186.77 17.7814H186.808C186.517 17.5439 186.217 17.3063 185.921 17.0877L185.445 16.7123C184.969 16.3654 184.526 16.0327 184.054 15.7049L183.63 15.4007C183.087 15.0253 182.539 14.6642 181.981 14.3126L181.758 14.17C180.487 13.3653 179.172 12.6193 177.813 11.9319L177.336 11.699C176.827 11.4472 176.321 11.2238 175.807 10.9625L175.097 10.6536C174.649 10.4588 174.197 10.2639 173.744 10.0834L172.925 9.76498C172.496 9.60341 172.067 9.44185 171.633 9.28978C171.343 9.18524 171.047 9.08545 170.752 8.99041C170.328 8.85261 169.909 8.71481 169.48 8.58651C169.175 8.49147 168.865 8.40596 168.556 8.31568C168.132 8.19688 167.708 8.08279 167.284 7.97825L166.331 7.74066C165.902 7.64087 165.468 7.5506 165.035 7.46031C164.716 7.39378 164.397 7.32724 164.082 7.27022C163.644 7.18944 163.196 7.11342 162.748 7.0469C162.434 6.99463 162.114 6.94238 161.795 6.89962C161.319 6.83309 160.842 6.78077 160.366 6.7285C160.061 6.69523 159.761 6.65724 159.456 6.62873C158.937 6.58121 158.408 6.54795 157.884 6.51468C157.626 6.51468 157.369 6.47668 157.112 6.46718C156.321 6.42916 155.535 6.41016 154.73 6.41016C142.104 6.42532 129.932 11.1093 120.568 19.5566C111.204 28.0038 105.312 39.6141 104.033 52.1425H115.029C115.831 49.8232 116.785 47.5594 117.888 45.3663L141.685 51.7244C141.685 51.8622 141.652 52.0047 141.633 52.1425H144.715C145.194 49.3025 146.667 46.7237 148.871 44.8638C151.076 43.0039 153.87 41.9834 156.757 41.9834C159.644 41.9834 162.438 43.0039 164.643 44.8638C166.847 46.7237 168.32 49.3025 168.799 52.1425H171.881C171.881 52.0047 171.848 51.8622 171.824 51.7244L203.707 43.228ZM142.495 48.7972L119.393 42.6197C122.209 37.7479 125.742 33.3253 129.875 29.4997L144.958 44.5442C143.91 45.8234 143.078 47.2648 142.495 48.8115V48.7972ZM147.102 42.3869L132.161 27.4801C136.276 24.0618 140.859 21.2486 145.773 19.1263L151.366 39.9444C149.822 40.5289 148.382 41.3585 147.102 42.4011V42.3869ZM156.764 38.9512C155.942 38.9573 155.121 39.0288 154.311 39.165L148.622 17.9858C154.141 15.9633 159.945 14.8215 165.821 14.6024L159.223 39.165C158.41 39.0286 157.588 38.9571 156.764 38.9512ZM162.176 39.9491L168.989 14.5787C174.239 14.6695 179.449 15.4949 184.468 17.0307C185.978 17.9588 187.437 18.9644 188.842 20.0434L166.45 42.3773C165.168 41.3477 163.728 40.531 162.186 39.9586L162.176 39.9491Z" fill="#757575"/>
</g>
<path opacity="0.2" d="M154.738 6.4377C142.112 6.45287 129.94 11.137 120.576 19.5842C111.211 28.0314 105.32 39.6417 104.041 52.1701H141.655L162.618 7.02694C160.01 6.62726 157.376 6.43026 154.738 6.4377Z" fill="url(#paint7_linear_437_7049)"/>
<path d="M149.617 38.9133C150.57 38.5445 151.561 38.2816 152.571 38.1292L144.081 6.51953C143.074 6.72862 142.082 6.96303 141.104 7.2228L149.617 38.9133Z" fill="url(#paint8_linear_437_7049)"/>
<path d="M106.562 37.7188C106.18 38.6691 105.828 39.6195 105.504 40.5699L140.655 49.9644C140.813 48.9576 141.076 47.9701 141.441 47.0182L106.562 37.7188Z" fill="url(#paint9_linear_437_7049)"/>
<path d="M143.634 43.2518C144.273 42.4577 144.997 41.7344 145.792 41.0945L121.756 17.1211C120.965 17.7626 120.198 18.4374 119.445 19.1264L143.634 43.2518Z" fill="url(#paint10_linear_437_7049)"/>
<path d="M168.393 7.2228C167.412 6.96303 166.421 6.72862 165.42 6.51953L156.926 38.1292C157.936 38.2808 158.927 38.5438 159.88 38.9133L168.393 7.2228Z" fill="url(#paint11_linear_437_7049)"/>
<path d="M163.682 41.0945C164.477 41.7355 165.202 42.4587 165.845 43.2518L190.028 19.1264C189.282 18.4389 188.511 17.7705 187.717 17.1211L163.682 41.0945Z" fill="url(#paint12_linear_437_7049)"/>
<path d="M168.031 47.0299C168.4 47.9804 168.664 48.9683 168.817 49.9761L203.973 40.5816C203.644 39.6312 203.292 38.6523 202.91 37.7305L168.031 47.0299Z" fill="url(#paint13_linear_437_7049)"/>
<path d="M154.738 39.9777C157.979 39.9815 161.086 41.2673 163.378 43.5532C165.67 45.8391 166.959 48.9383 166.963 52.1711H170.022C169.951 48.1741 168.309 44.3646 165.45 41.5629C162.591 38.7612 158.743 37.1914 154.735 37.1914C150.727 37.1914 146.88 38.7612 144.021 41.5629C141.162 44.3646 139.52 48.1741 139.449 52.1711H142.508C142.513 48.9379 143.803 45.8387 146.096 43.5529C148.388 41.2672 151.496 39.9815 154.738 39.9777Z" fill="#EEEEEE"/>
<g style="mix-blend-mode:multiply">
<path d="M169.556 46.6289L168.031 47.0376C168.4 47.988 168.664 48.976 168.817 49.9837L170.59 49.5085C170.344 48.5162 169.997 47.5514 169.556 46.6289V46.6289Z" fill="#BDBDBD"/>
</g>
<path d="M154.738 37.9439C158.519 37.9514 162.142 39.4528 164.816 42.1193C167.489 44.7857 168.994 48.4001 169.002 52.1711H170.022C169.951 48.1741 168.309 44.3646 165.45 41.5629C162.591 38.7612 158.743 37.1914 154.735 37.1914C150.727 37.1914 146.88 38.7612 144.021 41.5629C141.162 44.3646 139.52 48.1741 139.449 52.1711H140.469C140.476 48.3993 141.982 44.7842 144.657 42.1176C147.331 39.4509 150.956 37.9501 154.738 37.9439Z" fill="white"/>
<g style="mix-blend-mode:multiply">
<path d="M146.592 15.9616L144.058 6.51953C143.051 6.72862 142.058 6.96303 141.08 7.2228L143.734 17.1068C144.677 16.7029 145.625 16.3132 146.592 15.9616Z" fill="#BDBDBD"/>
</g>
<g style="mix-blend-mode:multiply">
<path d="M165.943 12.5358C166.286 12.5358 166.62 12.5358 166.958 12.5358L168.387 7.19943C167.406 6.93965 166.415 6.70518 165.415 6.49609L163.785 12.5643C164.505 12.5643 165.219 12.5358 165.943 12.5358Z" fill="#BDBDBD"/>
</g>
<g style="mix-blend-mode:multiply">
<path d="M130.113 25.4559L121.756 17.1211C120.965 17.7626 120.198 18.4374 119.445 19.1264L127.821 27.4802C128.569 26.7864 129.331 26.1212 130.113 25.4559Z" fill="#BDBDBD"/>
</g>
<g style="mix-blend-mode:multiply">
<path d="M117.348 40.5984L106.562 37.7188C106.18 38.6691 105.828 39.6195 105.504 40.5699L115.857 43.3402C116.328 42.4231 116.829 41.506 117.348 40.5984Z" fill="#BDBDBD"/>
</g>
<path d="M206.446 52.069C205.159 39.2819 199.156 27.4275 189.602 18.8058C180.047 10.1842 167.621 5.41016 154.737 5.41016C141.852 5.41016 129.427 10.1842 119.872 18.8058C110.317 27.4275 104.314 39.2819 103.028 52.069L102.928 53.2047H206.57L206.446 52.069ZM104.043 52.1687C105.31 39.6367 111.198 28.0205 120.565 19.5728C129.932 11.125 142.111 6.44766 154.739 6.44766C167.368 6.44766 179.546 11.125 188.913 19.5728C198.28 28.0205 204.168 39.6367 205.436 52.1687H104.043Z" fill="url(#paint14_linear_437_7049)"/>
<path d="M154.739 2.36043C169.327 2.37678 183.314 8.16466 193.629 18.4541C203.944 28.7436 209.746 42.6942 209.761 57.245H210.781C210.849 49.8609 209.45 42.5364 206.664 35.6947C203.878 28.853 199.761 22.6296 194.55 17.3839C189.339 12.1383 183.137 7.97443 176.304 5.13281C169.47 2.29118 162.14 0.828125 154.736 0.828125C147.333 0.828125 140.002 2.29118 133.169 5.13281C126.335 7.97443 120.134 12.1383 114.923 17.3839C109.712 22.6296 105.595 28.853 102.809 35.6947C100.023 42.5364 98.6236 49.8609 98.6918 57.245H99.7114C99.7278 42.6937 105.531 28.7431 115.847 18.4538C126.163 8.16451 140.15 2.37678 154.739 2.36043V2.36043Z" fill="url(#paint15_linear_437_7049)"/>
<g style="mix-blend-mode:multiply">
<path d="M210.78 70.4648V67.4141H98.6914V296.09H103.789H106.843H108.882V75.5446H205.687V72.4986H106.843V70.4648H210.78Z" fill="#EAF1F9"/>
</g>
<g style="mix-blend-mode:multiply">
<path d="M104.042 52.1696C104.902 43.6017 107.932 35.3927 112.847 28.3136C117.761 21.2345 124.4 15.5179 132.138 11.7008C139.877 7.88363 148.461 6.09135 157.085 6.49228C165.708 6.8932 174.088 9.47417 181.437 13.9927C187.834 15.9623 193.824 19.0622 199.122 23.1449C191.984 13.8973 182.122 7.11075 170.92 3.73725C159.719 0.363741 147.739 0.572595 136.663 4.33454C125.586 8.09649 115.968 15.2228 109.158 24.7135C102.348 34.2043 98.6882 45.5833 98.6914 57.2541V67.4137H108.882C108.883 62.2587 109.6 57.1286 111.012 52.1696H104.042Z" fill="#EAF1F9"/>
</g>
<path d="M210.78 57.25H98.6914V67.4143H210.78V57.25Z" fill="#EEEEEE"/>
<path d="M210.78 66.3984H98.6914V67.4153H210.78V66.3984Z" fill="#E0E0E0"/>
<path d="M210.78 57.25H98.6914V58.2669H210.78V57.25Z" fill="white"/>
<g style="mix-blend-mode:multiply">
<path d="M210.78 64.3636H105.824V57.25H98.6914V64.3636V65.3805V67.4143H105.824V65.3805H210.78V64.3636Z" fill="#CFD6DD"/>
</g>
<path d="M210.78 60.3008H98.6914V64.3684H210.78V60.3008Z" fill="#EEEEEE"/>
<path d="M210.78 60.3008H98.6914V61.3177H210.78V60.3008Z" fill="white"/>
<g style="mix-blend-mode:multiply">
<path d="M104.804 60.3008H98.6914V64.3684H104.804V60.3008Z" fill="#CFD6DD"/>
</g>
<path style="mix-blend-mode:multiply" opacity="0.4" d="M231.398 92.6983L232.132 113.345L249.26 130.429H265.482V104.217L243.314 82.1063L232.227 82.1016L231.398 92.6983Z" fill="url(#paint16_linear_437_7049)"/>
<g style="mix-blend-mode:multiply">
<path d="M238.638 79.5463C241.451 79.5463 243.731 77.272 243.731 74.4665C243.731 71.661 241.451 69.3867 238.638 69.3867C235.825 69.3867 233.545 71.661 233.545 74.4665C233.545 77.272 235.825 79.5463 238.638 79.5463Z" fill="#EAF1F9"/>
</g>
<path d="M237.618 78.5307C240.431 78.5307 242.711 76.2564 242.711 73.4509C242.711 70.6454 240.431 68.3711 237.618 68.3711C234.806 68.3711 232.525 70.6454 232.525 73.4509C232.525 76.2564 234.806 78.5307 237.618 78.5307Z" fill="#232323"/>
<path d="M237.617 77.5181C239.87 77.5181 241.695 75.6969 241.695 73.4504C241.695 71.204 239.87 69.3828 237.617 69.3828C235.365 69.3828 233.539 71.204 233.539 73.4504C233.539 75.6969 235.365 77.5181 237.617 77.5181Z" fill="#4F4F4F"/>
<path d="M236.604 64.3029V79.5518H238.638V64.3029C238.62 64.0458 238.505 63.805 238.317 63.6291C238.128 63.4533 237.879 63.3555 237.621 63.3555C237.362 63.3555 237.114 63.4533 236.925 63.6291C236.736 63.805 236.621 64.0458 236.604 64.3029Z" fill="#232323"/>
<path d="M238.636 117.154V101.91H236.602V117.154C236.592 117.293 236.612 117.433 236.658 117.564C236.705 117.696 236.779 117.816 236.874 117.918C236.969 118.02 237.085 118.101 237.213 118.157C237.341 118.212 237.479 118.241 237.619 118.241C237.759 118.241 237.897 118.212 238.025 118.157C238.154 118.101 238.269 118.02 238.364 117.918C238.46 117.816 238.533 117.696 238.58 117.564C238.627 117.433 238.646 117.293 238.636 117.154Z" fill="#4F4F4F"/>
<path d="M240.677 79.5469H234.564V81.5807H240.677V79.5469Z" fill="#232323"/>
<path d="M240.677 114.102H234.564V116.135H240.677V114.102Z" fill="#232323"/>
<path d="M247.808 91.7424H227.432L231.505 81.5781H243.735L247.808 91.7424Z" fill="#232323"/>
<path opacity="0.2" d="M232.015 82.0866L243.735 81.5781H231.505L227.432 91.7424H228.142L232.015 82.0866Z" fill="white"/>
<path d="M231.924 113.592L228.051 94.2852H247.189L243.316 113.592H231.924Z" fill="url(#paint17_linear_437_7049)"/>
<g style="mix-blend-mode:multiply">
<path d="M229.186 95.3023H246.466L246.566 94.7891H228.676L232.344 113.084H232.749L229.186 95.3023Z" fill="#BDBDBD"/>
</g>
<path d="M227.432 93.7773L231.505 114.101H243.735L247.808 93.7773H227.432ZM242.897 113.089H232.344L228.675 94.7943H246.565L242.897 113.089Z" fill="#232323"/>
<path d="M247.809 93.776H237.622H227.432L225.393 92.7591L227.432 91.7422H237.622H247.809L249.848 92.7591L247.809 93.776Z" fill="#4F4F4F"/>
<g style="mix-blend-mode:multiply">
<path d="M247.809 93.7786H227.432L225.393 92.7617H249.848L247.809 93.7786Z" fill="#9E9E9E"/>
</g>
<path d="M213.849 295.047H101.76V309.478H213.849V295.047Z" fill="#EEEEEE"/>
<path d="M213.849 295.047H101.76V296.491H213.849V295.047Z" fill="white"/>
<g style="mix-blend-mode:multiply">
<path d="M213.844 305.149H108.892V295.047H101.76V305.149V306.594V309.478H108.892V309.426H213.844V305.149Z" fill="#EAF1F9"/>
</g>
<path d="M213.849 299.375H101.76V305.149H213.849V299.375Z" fill="#EEEEEE"/>
<path d="M213.849 299.375H101.76V300.82H213.849V299.375Z" fill="white"/>
<path d="M31.8958 281.117L28.4274 300.819C28.3131 302.8 30.1283 304.706 31.7624 305.822C32.7133 306.456 33.739 306.97 34.8163 307.352L36.0074 310.204H32.7724L22.4102 303.746L22.7722 300.952L23.8871 282.932L31.8958 281.117Z" fill="#FBCCC9"/>
<path d="M22.4102 303.75C22.4102 303.75 19.6517 307.718 19.8328 312.46H44.2639C44.5224 312.461 44.7738 312.376 44.9783 312.218C45.1828 312.061 45.3289 311.84 45.3934 311.59C45.4579 311.34 45.4371 311.076 45.3344 310.84C45.2316 310.603 45.0528 310.408 44.8261 310.284C44.0066 309.809 42.8061 309.581 41.0576 309.908C40.5206 310.011 39.9647 309.934 39.4758 309.69L34.8307 307.352L33.9159 308.811L22.4102 303.75Z" fill="#1F2272"/>
<path d="M52.2686 181.48L49.3719 197.889L48.5001 202.821L41.3251 243.459C41.0614 244.929 40.7835 246.396 40.4913 247.86L29.9575 300.482H21.2246C22.3347 289.325 22.8206 276.248 24.0832 264.586C25.036 255.662 26.4272 247.598 28.8808 241.939L31.9299 191.678C29.3954 186.097 29.1055 179.76 31.12 173.972C32.107 170.948 33.602 168.114 35.5412 165.59L50.7345 169.867L52.2686 181.48Z" fill="#3D40B0"/>
<g style="mix-blend-mode:multiply" opacity="0.5">
<path d="M49.3723 197.889L48.5004 202.822C45.9611 201.966 40.9776 201.196 36.6231 205.887C34.949 207.689 33.8986 209.979 33.6263 212.42C32.5639 221.763 31.9398 231.233 31.6825 240.932L36.0085 240.975L33.2643 242.248C31.8636 242.904 30.2485 245.209 29.6244 246.62C27.0812 252.374 25.2154 258.404 24.0645 264.587C25.0173 255.663 26.4085 247.599 28.8621 241.939L31.9112 191.678C29.3767 186.098 29.0868 179.76 31.1013 173.973L38.2763 175.503L40.5393 181.956L46.7329 191.061L46.2326 196.715L49.3723 197.889Z" fill="#182F57"/>
</g>
<path d="M52.9024 104.875C52.9024 104.875 53.0548 105.113 53.3359 105.597C53.617 106.082 54.0125 106.776 54.5127 107.669C55.013 108.562 55.5847 109.665 56.2088 110.943C56.8329 112.221 57.5285 113.666 58.2717 115.253C58.6386 116.051 58.9911 116.893 59.3723 117.757C59.7534 118.622 60.1441 119.52 60.5109 120.457L61.6687 123.308C62.0355 124.296 62.4119 125.308 62.7978 126.335C63.5887 128.387 64.2699 130.55 65.0132 132.74C65.3991 133.833 65.704 134.955 66.0518 136.067L67.0666 139.44C67.6764 141.707 68.2862 143.983 68.8675 146.226L70.392 152.879C70.8113 155.05 71.221 157.156 71.6022 159.142C71.8118 160.135 71.9547 161.114 72.0786 162.055C72.2025 162.996 72.3692 163.913 72.5074 164.787C72.7694 166.541 73.0552 168.147 73.1982 169.582C73.3411 171.017 73.5174 172.267 73.6413 173.293L74.0224 176.534L69.0152 181.238L64.2509 177C64.2509 177 64.2509 175.864 64.2223 173.882C64.2223 172.889 64.1985 171.687 64.189 170.304C64.1794 168.921 64.0937 167.363 64.0222 165.661C63.9841 164.811 63.946 163.922 63.9031 163.005C63.8602 162.088 63.8269 161.138 63.7316 160.154C63.5696 158.206 63.3981 156.153 63.2266 154.024C62.9741 151.905 62.7168 149.714 62.4547 147.485C62.1927 145.257 61.7782 143.014 61.4352 140.757C61.2319 139.635 61.0239 138.515 60.8111 137.397C60.5967 136.28 60.4204 135.159 60.1631 134.071C59.6867 131.875 59.2436 129.699 58.691 127.632C58.429 126.591 58.1717 125.565 57.9192 124.567C57.6667 123.569 57.3665 122.6 57.0997 121.654C56.8329 120.708 56.5613 119.791 56.285 118.907C56.0087 118.024 55.7466 117.168 55.4798 116.351C54.9224 114.73 54.4317 113.234 53.9315 111.932C53.4312 110.63 52.9786 109.499 52.6261 108.567C52.2735 107.636 51.9352 106.918 51.7161 106.448C51.4969 105.977 51.373 105.707 51.373 105.707L52.9024 104.875Z" fill="#F05673"/>
<path d="M103.761 262.157V267.517H101.526V262.166C101.53 261.916 101.483 261.667 101.389 261.435C101.295 261.202 101.154 260.991 100.977 260.814C100.799 260.637 100.587 260.497 100.354 260.403C100.121 260.308 99.8719 260.262 99.6205 260.266H90.2826C89.7843 260.269 89.3071 260.467 88.9533 260.817C88.7785 260.991 88.6401 261.197 88.546 261.425C88.4519 261.653 88.4042 261.897 88.4055 262.143V267.517H86.1758V262.162C86.1752 261.623 86.2811 261.09 86.4877 260.593C86.6942 260.096 86.9971 259.644 87.3792 259.264C87.7612 258.884 88.2148 258.583 88.7139 258.378C89.213 258.173 89.7477 258.068 90.2873 258.07H99.6253C100.715 258.074 101.76 258.508 102.53 259.277C103.301 260.047 103.734 261.089 103.737 262.176L103.761 262.157Z" fill="#233166"/>
<path d="M124.899 307.907C124.894 309.101 124.414 310.245 123.565 311.087C122.715 311.929 121.566 312.4 120.368 312.397H110.84L67.3943 312.44C66.1921 312.427 65.0436 311.941 64.1974 311.089C63.3512 310.237 62.8755 309.087 62.873 307.888V282.902H124.885L124.899 307.907Z" fill="#2A2B8B"/>
<path d="M124.886 282.912H62.8691V269.488C62.8779 268.291 63.3608 267.147 64.2124 266.305C65.064 265.463 66.215 264.991 67.4143 264.992H86.2046H103.766H120.379C121.58 265.005 122.728 265.49 123.572 266.343C124.416 267.195 124.888 268.346 124.886 269.545V282.912Z" fill="#3939AA"/>
<g style="mix-blend-mode:multiply">
<path d="M98.0203 284.031C98.0203 284.922 97.6655 285.777 97.0338 286.407C96.4021 287.037 95.5453 287.391 94.652 287.391C93.7586 287.391 92.9019 287.037 92.2702 286.407C91.6385 285.777 91.2836 284.922 91.2836 284.031V280.396C91.2666 279.945 91.3411 279.494 91.5025 279.072C91.664 278.65 91.9092 278.265 92.2235 277.939C92.5377 277.614 92.9145 277.355 93.3314 277.178C93.7483 277.001 94.1966 276.91 94.6496 276.91C95.1026 276.91 95.5509 277.001 95.9678 277.178C96.3847 277.355 96.7615 277.614 97.0757 277.939C97.39 278.265 97.6352 278.65 97.7967 279.072C97.9581 279.494 98.0326 279.945 98.0156 280.396L98.0203 284.031Z" fill="#233166"/>
</g>
<path d="M97.2566 284.028C97.2566 284.919 96.9017 285.774 96.2701 286.404C95.6384 287.034 94.7816 287.388 93.8883 287.388C92.995 287.388 92.1382 287.034 91.5065 286.404C90.8748 285.774 90.52 284.919 90.52 284.028V280.388C90.5029 279.937 90.5774 279.486 90.7388 279.064C90.9003 278.642 91.1455 278.257 91.4598 277.931C91.774 277.606 92.1508 277.347 92.5677 277.17C92.9846 276.993 93.4329 276.902 93.8859 276.902C94.3389 276.902 94.7872 276.993 95.2041 277.17C95.621 277.347 95.9978 277.606 96.312 277.931C96.6263 278.257 96.8715 278.642 97.033 279.064C97.1945 279.486 97.2689 279.937 97.2519 280.388L97.2566 284.028Z" fill="#233166"/>
<path d="M95.1518 281.107C95.1565 281.356 95.0868 281.601 94.9516 281.811C94.8164 282.021 94.6218 282.186 94.3924 282.285C94.163 282.385 93.9091 282.414 93.6631 282.369C93.417 282.325 93.1899 282.208 93.0104 282.034C92.8309 281.861 92.7071 281.638 92.6548 281.394C92.6026 281.15 92.6241 280.896 92.7167 280.664C92.8093 280.432 92.9689 280.233 93.1751 280.092C93.3813 279.951 93.6249 279.874 93.875 279.871C94.0401 279.869 94.2042 279.899 94.3578 279.959C94.5113 280.02 94.6514 280.11 94.7699 280.225C94.8885 280.34 94.9833 280.477 95.0488 280.628C95.1143 280.779 95.1493 280.942 95.1518 281.107V281.107Z" fill="white"/>
<path d="M94.4085 281.895H93.3985V284.052C93.3978 284.12 93.4107 284.187 93.4363 284.25C93.4618 284.313 93.4996 284.37 93.5475 284.418C93.5953 284.466 93.6522 284.504 93.715 284.53C93.7777 284.556 93.845 284.57 93.913 284.57V284.57C94.0506 284.569 94.1823 284.515 94.2798 284.418C94.376 284.32 94.4306 284.189 94.4323 284.052L94.4085 281.895Z" fill="white"/>
<path d="M56.8655 78.5898C56.8655 78.5898 57.8756 83.7742 53.9784 86.421L51.8535 80.847L56.8655 78.5898Z" fill="#323C71"/>
<path d="M54.8467 89.7938C55.6045 89.7938 56.2188 88.6577 56.2188 87.2563C56.2188 85.8548 55.6045 84.7188 54.8467 84.7188C54.0889 84.7188 53.4746 85.8548 53.4746 87.2563C53.4746 88.6577 54.0889 89.7938 54.8467 89.7938Z" fill="#1C2C53"/>
<path d="M55.8517 280.188L53.7697 300.82C53.6554 302.802 55.4706 304.707 57.1047 305.824C58.055 306.459 59.0808 306.973 60.1586 307.354L61.3497 310.205H58.1433L47.7715 303.728L48.1336 300.934L49.0245 283.485L55.8517 280.188Z" fill="#FBCCC9"/>
<path d="M47.752 303.75C47.752 303.75 44.9935 307.718 45.1746 312.46H69.6057C69.8642 312.461 70.1156 312.376 70.3201 312.218C70.5246 312.061 70.6707 311.84 70.7352 311.59C70.7997 311.34 70.7789 311.076 70.6762 310.84C70.5734 310.603 70.3946 310.408 70.1679 310.284C69.3484 309.809 68.1479 309.581 66.3994 309.908C65.8624 310.011 65.3063 309.935 64.8176 309.69L60.1725 307.352L59.2577 308.811L47.752 303.75Z" fill="#1F2272"/>
<path d="M62.2778 235.063C60.2911 256.066 57.6517 278.572 55.4173 300.098H46.3223C47.4514 285.258 46.9321 273.919 46.7129 264.53C46.5081 255.715 46.57 248.611 48.5091 241.934L46.8416 221.42L45.7791 208.286L44.5166 192.738V192.595C43.1049 191.196 41.8711 189.629 40.8434 187.929C39.9828 186.496 39.2875 184.97 38.7709 183.381C37.4628 179.373 37.3109 175.079 38.3326 170.988H64.8458C64.922 172.005 64.9871 173.046 65.0411 174.11C65.8796 190.348 64.4789 211.788 62.2778 235.063Z" fill="#3939AA"/>
<g style="mix-blend-mode:screen" opacity="0.2">
<path d="M62.2779 235.06C61.325 229.206 59.1335 214.798 59.4193 209.647C59.7814 203.113 67.7854 196.223 58.6904 191.865C49.5954 187.508 49.3477 179.51 49.3477 179.51L65.0316 174.098C65.8797 190.344 64.479 211.785 62.2779 235.06Z" fill="#182F57"/>
</g>
<path d="M40.2346 107.535L33.3693 131.266L31.6303 135.605L27.3425 146.344L26.7708 147.77L26.6755 148.059L25.8799 178.885H19.6148L17.3804 150.184C17.1396 148.204 17.2542 146.197 17.7187 144.258L19.0765 138.741L25.3558 112.8L28.6908 108.794L40.2346 107.535Z" fill="#252581"/>
<path d="M92.2549 158.698L101.498 160.266C102.555 160.741 103.594 159.909 103.594 159.909C104.204 160.385 105.123 159.748 105.123 159.748L106.309 159.078L109.335 157.367C108.83 156.122 107.377 156.892 107.377 156.892C105.852 155.846 103.565 157.742 103.565 157.742C103.565 157.742 102.803 157.082 100.893 156.821C100.592 156.784 100.296 156.714 100.011 156.612C99.7816 156.54 99.561 156.443 99.3537 156.322C98.9841 156.136 98.6751 155.849 98.4628 155.495C100.307 155.257 101.04 152.843 101.04 152.843C101.061 152.705 101.069 152.565 101.064 152.425C101.058 152.305 101.015 152.189 100.941 152.094C100.867 151.999 100.765 151.929 100.65 151.893C100.535 151.858 100.411 151.859 100.297 151.896C100.183 151.934 100.083 152.005 100.011 152.102C98.5199 154.098 96.7714 153.965 96.0711 153.808C95.5812 153.699 95.0693 153.747 94.6084 153.946V153.946C93.96 154.233 93.3654 154.628 92.8504 155.115L87.3001 153.071L85.9375 156.745L92.2549 158.698Z" fill="#FBCCC9"/>
<path d="M55.2466 89.7966C55.101 88.768 54.8926 87.7492 54.6225 86.7459C54.6225 84.8451 54.189 82.607 53.117 79.2997C52.6084 78.8456 52.067 78.4295 51.4971 78.0547L47.781 79.5183L42.9548 81.419L39.8866 86.6461L39.7056 86.955L38.0524 89.8489L37.0566 100.636L46.5852 101.586L46.8853 98.6114C46.9997 98.5687 47.114 98.5212 47.2331 98.4879L50.9016 97.4947C51.2442 97.4991 51.577 97.3806 51.8393 97.1608C52.1017 96.941 52.2761 96.6346 52.3309 96.2973L52.6787 94.1921C53.3219 93.085 53.5077 92.6573 53.9174 90.8183C54.5653 90.747 55.5087 90.652 55.2466 89.7966Z" fill="#FBCCC9"/>
<path d="M51.2684 82.5486L50.1583 93.5255C50.1322 93.707 50.1488 93.892 50.2067 94.066C50.2645 94.24 50.3622 94.3982 50.4918 94.5282C50.6211 94.6552 50.7788 94.7499 50.9519 94.8044C51.125 94.859 51.3086 94.8717 51.4876 94.8418C51.9113 94.7053 52.3033 94.4856 52.6405 94.1955V94.1955C52.8397 94.4656 52.9665 94.7819 53.009 95.1145C53.0515 95.4471 53.0084 95.785 52.8835 96.0963C52.7025 96.6856 53.1836 97.2985 53.1884 97.921C53.2012 98.2205 53.1519 98.5194 53.0437 98.799C52.9355 99.0786 52.7707 99.333 52.5595 99.5462C51.6496 100.411 50.1774 100.278 49.0864 99.9311C48.4526 99.756 47.8476 99.4904 47.2902 99.1423C47.1223 99.0293 46.9755 98.8878 46.8567 98.7241C46.8353 98.6999 46.8177 98.6727 46.8043 98.6433C46.6835 98.4674 46.5918 98.2733 46.5327 98.0684C46.3152 97.1913 46.4147 96.2659 46.8138 95.4548C47.6641 93.6112 48.3404 91.6927 48.8339 89.724L49.5914 86.6638C49.5691 86.4981 49.49 86.3453 49.3675 86.2313C49.2766 86.1527 49.1684 86.0967 49.0516 86.0678C48.9348 86.0389 48.8129 86.0379 48.6957 86.065C46.6375 86.5877 47.0282 90.5176 46.0087 91.8434C45.8252 92.0841 45.6141 92.3026 45.3798 92.4944C44.7376 93.0296 43.9891 93.4231 43.1834 93.6491C42.7699 93.7788 42.3459 93.8726 41.9162 93.9294C40.9776 94.0565 40.0252 94.0421 39.0909 93.8867C38.6327 93.8154 38.1898 93.6676 37.7808 93.4495C36.1752 92.5276 36.6373 90.5461 35.9036 88.3745C35.6511 87.6046 34.9079 86.7113 34.1647 85.7561C32.9577 85.4482 31.9115 84.6975 31.2349 83.6541C30.5584 82.6107 30.3011 81.3511 30.5146 80.1269C30.7281 78.9026 31.3966 77.8037 32.3867 77.0494C33.3768 76.2951 34.6156 75.9409 35.856 76.0575C36.1231 76.088 36.3875 76.1389 36.6469 76.2096C36.9932 74.4838 37.9719 72.9487 39.392 71.904C40.812 70.8592 42.5715 70.3799 44.3269 70.5595C45.2177 70.6496 46.083 70.9093 46.8757 71.3246C47.5688 70.5634 48.4276 69.9709 49.3862 69.5926C50.3448 69.2144 51.3776 69.0604 52.4052 69.1426C53.4328 69.2248 54.4278 69.5409 55.3137 70.0667C56.1996 70.5925 56.9528 71.314 57.5154 72.1756C58.078 73.0372 58.435 74.016 58.5589 75.0367C58.6828 76.0575 58.5704 77.093 58.2303 78.0636C57.8901 79.0343 57.3314 79.9142 56.5969 80.6357C55.8624 81.3572 54.9718 81.901 53.9936 82.2255C53.1177 82.5214 52.1895 82.6314 51.2684 82.5486Z" fill="#172F57"/>
<g style="mix-blend-mode:multiply">
<path d="M43.1919 93.597L42.5821 99.6557L37.208 99.1188L37.7797 93.4497C36.1741 92.5278 36.6363 90.5463 35.9026 88.3747C35.6501 87.6049 34.9068 86.7115 34.1636 85.7564C34.1636 85.7564 33.1536 81.3371 37.3986 81.3086C38.1698 81.3065 38.9207 81.5551 39.5377 82.0166C40.2741 82.5724 40.9173 83.2412 41.4434 83.9982C42.7536 85.8467 43.8494 88.8784 43.1919 93.597Z" fill="#F4B9B6"/>
</g>
<g style="mix-blend-mode:multiply" opacity="0.5">
<path d="M41.4688 83.9904C40.9427 83.2334 40.2995 82.5646 39.5631 82.0088C38.9461 81.5473 38.1952 81.2987 37.4239 81.3008C33.179 81.3293 34.189 85.7486 34.189 85.7486C34.9322 86.699 35.6755 87.5971 35.928 88.3669C36.6617 90.5385 36.1995 92.5201 37.8051 93.4419C38.2141 93.6601 38.657 93.8078 39.1153 93.8791C40.0495 94.0345 41.0019 94.049 41.9405 93.9219C42.3702 93.8651 42.7943 93.7713 43.2078 93.6415V93.5892C43.851 88.8801 42.7552 85.8484 41.4688 83.9904Z" fill="#273370"/>
</g>
<path d="M67.939 174.692C62.1486 177.57 55.8208 179.215 49.3584 179.52C47.9624 179.587 46.5903 179.587 45.242 179.52H43.4269C42.6598 179.463 41.9166 179.392 41.1924 179.306L40.1633 179.173L39.1581 179.021C32.0736 177.876 27.781 175.605 27.781 175.605C27.9433 173.305 28.3246 171.027 28.9196 168.8C31.2589 159.709 36.2614 150.743 36.2614 150.743L25.3036 123.5C23.2359 114.295 26.7328 107.885 30.2346 104.017C31.8098 102.248 33.6519 100.734 35.6945 99.5312L47.1763 99.8544C48.9541 100.671 50.6076 101.733 52.0883 103.01C53.8062 104.504 55.3028 106.233 56.5334 108.146V108.146C62.4458 117.175 63.9085 130.761 64.2277 143.073C64.2277 143.947 64.2658 144.822 64.2801 145.687C64.2991 147.15 64.3087 148.585 64.3087 149.992C64.3087 150.833 64.3087 151.66 64.342 152.468C64.7136 165.692 67.939 174.692 67.939 174.692Z" fill="#3939AA"/>
<path d="M32.0488 102.24C32.0488 102.24 33.9164 98.1016 38.0661 98.1016C38.0661 98.1016 45.1172 98.3106 49.2669 101C44.4169 104.873 32.3013 103.942 32.0488 102.24Z" fill="#292B88"/>
<g style="mix-blend-mode:multiply" opacity="0.5">
<path d="M43.6882 152.044L38.5952 152.286C38.5952 152.286 31.4488 160.84 28.8903 168.818C31.2296 159.728 36.2321 150.761 36.2321 150.761L25.2743 123.518C23.2066 114.314 26.7036 107.903 30.2053 104.035C28.9237 106.155 24.0927 115.601 30.3339 128.897L39.0859 149.863L43.6882 152.044Z" fill="#182F57"/>
</g>
<g style="mix-blend-mode:multiply" opacity="0.3">
<path d="M64.337 152.52C64.7134 165.716 67.9388 174.716 67.9388 174.716C62.1484 177.594 55.8206 179.238 49.3582 179.544C54.4321 175.875 59.8015 170.334 60.7924 164.138C61.4737 159.894 58.6152 158.113 55.709 155.789C52.374 153.104 51.8689 149.54 50.3968 145.534C45.2466 131.459 43.7792 123.761 40.9492 112.922L64.2942 145.739L68.4438 151.579L68.9489 153.612L64.337 152.52Z" fill="#182F57"/>
</g>
<g style="mix-blend-mode:multiply" opacity="0.3">
<path d="M55.4509 241.293C53.8268 241.915 52.4012 242.963 51.3245 244.327C50.2478 245.69 49.56 247.318 49.3336 249.038C48.5714 253.947 47.2802 258.352 46.7133 264.529C46.5084 255.715 46.5704 248.611 48.5094 241.934L46.8419 221.42L45.7795 208.286L44.5074 192.605C43.0957 191.205 41.862 189.638 40.8342 187.938C39.9736 186.505 39.2784 184.98 38.7617 183.391C39.5335 185.073 42.9638 191.863 48.7667 192.205H51.2108C51.2108 192.205 47.5375 197.466 49.0287 221.472L50.8487 241.302L55.4509 241.293Z" fill="#182F57"/>
</g>
<path d="M55.5708 86.707H49.1724C49.0756 86.7177 48.9862 86.7636 48.9212 86.8359C48.8562 86.9083 48.8203 87.0019 48.8203 87.099C48.8203 87.1962 48.8562 87.2899 48.9212 87.3622C48.9862 87.4346 49.0756 87.4805 49.1724 87.4911H55.5708V86.707Z" fill="#1C2C53"/>
<g style="mix-blend-mode:multiply" opacity="0.5">
<path d="M124.899 307.91C124.894 309.104 124.414 310.247 123.565 311.089C122.715 311.931 121.566 312.403 120.368 312.4H110.84C115.637 312.02 115.637 307.872 115.637 307.872V282.914H105.051V279.004C104.494 275.202 102.097 269.333 93.3691 264.971H101.526V262.163C101.529 261.912 101.483 261.663 101.388 261.431C101.294 261.199 101.154 260.988 100.976 260.81C100.798 260.633 100.587 260.493 100.354 260.399C100.121 260.305 99.8712 260.258 99.6199 260.262H93.3691V258.043H99.6484C100.739 258.047 101.783 258.481 102.553 259.25C103.324 260.019 103.758 261.061 103.76 262.149V264.952H120.373C121.574 264.965 122.722 265.45 123.566 266.303C124.41 267.155 124.883 268.306 124.88 269.505V282.919L124.899 307.91Z" fill="#233166"/>
</g>
<path d="M90.0901 153.817L88.7129 157.992L90.8445 158.692L92.2217 154.516L90.0901 153.817Z" fill="white"/>
<path d="M91.3363 153.761L89.6688 158.569L68.625 153.589L64.037 152.497L57.9673 151.071C57.0605 150.856 56.22 150.423 55.5192 149.811C54.8183 149.198 54.2784 148.423 53.9463 147.555L40.6492 112.923C40.2632 111.945 40.0763 110.901 40.0996 109.85C40.1228 108.8 40.3557 107.765 40.7847 106.805C41.2136 105.845 41.8299 104.981 42.5977 104.261C43.3655 103.542 44.2692 102.983 45.2563 102.616C45.6958 102.452 46.1484 102.327 46.6093 102.24C48.2471 101.944 49.9369 102.169 51.4398 102.883C52.9427 103.596 54.1828 104.763 54.9849 106.218L54.9563 106.108C55.431 106.768 55.8532 107.464 56.2188 108.19V108.19C57.8196 111.24 60.3161 117.594 59.873 126.903L61.3023 133.418L61.5215 134.42L63.3986 142.912L63.9036 143.116L91.3363 153.761Z" fill="#3939AA"/>
<g style="mix-blend-mode:screen" opacity="0.3">
<path d="M61.2977 133.403C60.9118 134.03 60.2162 134.353 59.2729 133.878C53.1698 130.951 55.7854 121.922 52.7077 117.246C51.5734 115.49 50.2384 113.872 48.7295 112.423C46.5237 111.04 44.4131 109.144 44.4417 106.441C44.4417 103.589 46.4665 102.221 48.8105 102.121C50.0967 102.246 51.3329 102.681 52.4122 103.39C53.4914 104.099 54.3811 105.06 55.0041 106.189L54.9755 106.079C55.4502 106.739 55.8724 107.435 56.238 108.161V108.161C57.8388 111.212 60.3353 117.565 59.8922 126.874L61.2977 133.403Z" fill="#182F57"/>
</g>
<path d="M26.5899 187.487L26.2897 186.399C26.2504 186.25 26.1945 186.107 26.123 185.971L24.6937 183.391C24.4745 182.954 23.9552 182.331 23.9124 181.851V181.376V179H20.3868V181.376C20.0914 182.588 18.8622 184.702 19.7865 185.848C19.5149 185.51 18.9528 187.154 18.9337 187.211C18.8575 187.487 18.8003 187.748 18.7669 187.924C18.7214 188.13 18.759 188.345 18.8718 188.523C18.9004 188.577 18.941 188.624 18.9905 188.66C19.04 188.696 19.0972 188.721 19.1576 188.732C19.3251 188.754 19.4947 188.713 19.634 188.618C19.4911 189.093 19.3577 189.644 19.6865 190.015C19.7987 190.152 19.9487 190.254 20.118 190.307C20.2873 190.36 20.4685 190.363 20.6393 190.314L20.706 190.276C20.7402 190.249 20.7721 190.219 20.8013 190.186L20.9013 190.091L21.1205 190.894C21.1378 190.947 21.1601 190.998 21.1872 191.046L21.5588 191.669C21.6078 191.749 21.6728 191.819 21.7498 191.874C21.8268 191.929 21.9142 191.967 22.0067 191.987H22.0495C22.1965 192.014 22.3481 191.994 22.4831 191.93L22.5355 192.03L22.6117 192.182C22.8785 192.714 24.041 192.695 24.4698 192.529C25.2464 192.234 25.556 191.512 25.7752 190.756C25.8609 190.481 25.9419 190.21 26.0229 189.939C26.1897 189.392 26.3564 188.846 26.528 188.3C26.6297 188.041 26.6513 187.758 26.5899 187.487V187.487Z" fill="#FBCCC9"/>
<path opacity="0.2" d="M199.168 311.305C175.206 311.305 168.334 313.706 168.334 315.01C168.334 316.314 175.206 319 199.168 319C223.041 319 230 316.314 230 315.01C230 313.706 223.041 311.305 199.168 311.305Z" fill="#A0B5CD"/>
<path d="M227.924 275.383H172.477V314.151C172.477 315.377 178.655 317.634 200.206 317.634C221.675 317.634 227.936 315.377 227.936 314.151L227.924 275.383Z" fill="#FFCC27"/>
<path d="M227.924 275.383C227.924 274.157 221.578 273.164 200.195 273.164C178.559 273.164 172.465 274.157 172.465 275.383C172.465 276.61 175.424 278.108 200.195 278.108C225.217 278.108 227.924 276.609 227.924 275.383Z" fill="#FDE27F"/>
<path d="M200.198 277.603C215.51 277.603 227.923 276.609 227.923 275.383C227.923 274.158 215.51 273.164 200.198 273.164C184.886 273.164 172.473 274.158 172.473 275.383C172.473 276.609 184.886 277.603 200.198 277.603Z" fill="#FFD85C"/>
<g opacity="0.3">
<path opacity="0.3" d="M222.109 275.542C222.109 275.875 220.679 276.146 218.914 276.146C217.149 276.146 215.719 275.875 215.719 275.542C215.719 275.208 217.15 274.938 218.914 274.938C220.678 274.938 222.109 275.21 222.109 275.542Z" fill="#222222"/>
</g>
<g opacity="0.3">
<path opacity="0.3" d="M184.867 275.542C184.867 275.875 183.437 276.146 181.672 276.146C179.907 276.146 178.477 275.875 178.477 275.542C178.477 275.208 179.908 274.938 181.672 274.938C183.436 274.938 184.867 275.21 184.867 275.542Z" fill="#222222"/>
</g>
<path d="M219.716 252.649C217.608 247.693 213.669 243.746 208.723 241.634C206.186 240.552 203.457 239.996 200.7 240H199.695C196.938 239.996 194.208 240.552 191.671 241.634C186.726 243.747 182.787 247.694 180.68 252.65C179.6 255.192 179.045 257.926 179.049 260.689V275.384C179.049 275.646 180.176 275.858 181.566 275.858C182.957 275.858 184.084 275.644 184.084 275.384V260.688C184.084 252.063 191.087 245.045 199.695 245.045H200.7C209.312 245.045 216.316 252.063 216.316 260.688V275.383C216.316 275.645 217.443 275.857 218.834 275.857C220.225 275.857 221.351 275.643 221.351 275.383V260.688C221.354 257.925 220.797 255.19 219.716 252.649V252.649Z" fill="#090909"/>
<g opacity="0.8">
<path opacity="0.8" d="M181.55 267.748C181.383 267.748 181.223 267.681 181.105 267.563C180.986 267.444 180.92 267.283 180.92 267.116V260.211C180.961 257.965 181.429 255.748 182.299 253.678C183.138 251.691 184.311 249.862 185.766 248.272C185.879 248.148 186.037 248.075 186.204 248.067C186.371 248.059 186.535 248.119 186.658 248.232C186.782 248.345 186.856 248.503 186.863 248.671C186.871 248.838 186.812 249.002 186.699 249.126C183.82 252.291 182.258 256.133 182.181 260.235V267.123C182.179 267.289 182.112 267.448 181.994 267.565C181.876 267.682 181.716 267.748 181.55 267.748Z" fill="white"/>
</g>
<g opacity="0.8">
<path opacity="0.8" d="M190.042 246.092C189.906 246.092 189.773 246.049 189.664 245.967C189.555 245.886 189.475 245.771 189.436 245.64C189.397 245.51 189.402 245.37 189.449 245.242C189.497 245.114 189.584 245.005 189.699 244.931C192.802 242.914 196.418 241.801 199.87 241.801C199.954 241.798 200.039 241.812 200.118 241.842C200.198 241.872 200.27 241.918 200.331 241.977C200.392 242.036 200.441 242.107 200.474 242.185C200.507 242.263 200.524 242.347 200.524 242.432C200.524 242.517 200.507 242.602 200.474 242.68C200.441 242.758 200.392 242.829 200.331 242.888C200.27 242.947 200.198 242.992 200.118 243.023C200.039 243.053 199.954 243.067 199.87 243.064C196.652 243.064 193.286 244.107 190.384 245.988C190.283 246.056 190.164 246.092 190.042 246.092V246.092Z" fill="white"/>
</g>
<path d="M205.438 291.086C205.437 290.157 205.191 289.244 204.724 288.441C204.256 287.638 203.584 286.974 202.777 286.516C201.969 286.059 201.055 285.824 200.127 285.836C199.2 285.849 198.292 286.108 197.497 286.587C196.702 287.066 196.048 287.748 195.602 288.563C195.156 289.378 194.934 290.298 194.959 291.227C194.984 292.156 195.254 293.062 195.742 293.853C196.231 294.643 196.92 295.289 197.739 295.725V304.754C197.739 306.176 198.846 307.343 200.2 307.343C201.554 307.343 202.661 306.177 202.661 304.754V295.725C203.5 295.277 204.202 294.609 204.691 293.792C205.18 292.974 205.438 292.039 205.438 291.086Z" fill="#352D20"/>
<path d="M204.843 291.064C204.843 288.459 202.798 286.473 200.199 286.473C197.599 286.473 195.555 288.459 195.555 291.064C195.555 292.866 196.82 294.5 198.307 295.293V304.602C198.307 305.881 198.984 306.801 200.2 306.801C201.415 306.801 202.092 305.881 202.092 304.602V295.293C203.576 294.5 204.843 292.869 204.843 291.064Z" fill="#1C1B1A"/>
<g opacity="0.7">
<path opacity="0.7" d="M177.071 311.129C176.864 311.129 176.659 311.088 176.468 311.009C176.277 310.929 176.103 310.813 175.957 310.666C175.811 310.52 175.695 310.346 175.616 310.154C175.537 309.963 175.496 309.757 175.496 309.55V295.408C175.506 294.996 175.677 294.604 175.971 294.316C176.265 294.028 176.66 293.867 177.071 293.867C177.483 293.867 177.878 294.028 178.172 294.316C178.466 294.604 178.637 294.996 178.647 295.408V309.553C178.646 309.971 178.48 310.372 178.184 310.668C177.889 310.963 177.488 311.129 177.071 311.129V311.129Z" fill="white"/>
</g>
<g opacity="0.7">
<path opacity="0.7" d="M177.071 291.3C176.653 291.3 176.253 291.134 175.957 290.838C175.662 290.542 175.496 290.141 175.496 289.722V283.849C175.506 283.437 175.677 283.045 175.971 282.758C176.265 282.47 176.66 282.309 177.071 282.309C177.483 282.309 177.878 282.47 178.172 282.758C178.466 283.045 178.637 283.437 178.647 283.849V289.722C178.647 289.93 178.606 290.135 178.527 290.327C178.448 290.518 178.331 290.692 178.185 290.839C178.039 290.985 177.865 291.101 177.674 291.181C177.483 291.26 177.278 291.301 177.071 291.3V291.3Z" fill="white"/>
</g>
<defs>
<linearGradient id="paint0_linear_437_7049" x1="136.934" y1="11.6888" x2="158.491" y2="56.7046" gradientUnits="userSpaceOnUse">
<stop stop-color="#424242"/>
<stop offset="1" stop-color="#212121"/>
</linearGradient>
<linearGradient id="paint1_linear_437_7049" x1="128.159" y1="141.358" x2="132.467" y2="182.521" gradientUnits="userSpaceOnUse">
<stop stop-color="white"/>
<stop offset="1" stop-color="#37474F"/>
</linearGradient>
<linearGradient id="paint2_linear_437_7049" x1="176.798" y1="141.358" x2="181.106" y2="182.521" gradientUnits="userSpaceOnUse">
<stop stop-color="white"/>
<stop offset="1" stop-color="#37474F"/>
</linearGradient>
<linearGradient id="paint3_linear_437_7049" x1="128.159" y1="222.006" x2="132.467" y2="263.17" gradientUnits="userSpaceOnUse">
<stop stop-color="white"/>
<stop offset="1" stop-color="#37474F"/>
</linearGradient>
<linearGradient id="paint4_linear_437_7049" x1="176.798" y1="222.006" x2="181.106" y2="263.17" gradientUnits="userSpaceOnUse">
<stop stop-color="white"/>
<stop offset="1" stop-color="#37474F"/>
</linearGradient>
<linearGradient id="paint5_linear_437_7049" x1="104.876" y1="185.366" x2="113.31" y2="204.599" gradientUnits="userSpaceOnUse">
<stop stop-color="#BDBDBD"/>
<stop offset="0.4" stop-color="#E0E0E0"/>
<stop offset="1" stop-color="#616161"/>
</linearGradient>
<radialGradient id="paint6_radial_437_7049" cx="0" cy="0" r="1" gradientUnits="userSpaceOnUse" gradientTransform="translate(107.93 190.076) scale(3.66373 3.65421)">
<stop stop-color="#E0E0E0"/>
<stop offset="1" stop-color="#616161"/>
</radialGradient>
<linearGradient id="paint7_linear_437_7049" x1="157.001" y1="-23.9318" x2="131.136" y2="31.4274" gradientUnits="userSpaceOnUse">
<stop stop-color="white"/>
<stop offset="1"/>
</linearGradient>
<linearGradient id="paint8_linear_437_7049" x1="142.971" y1="7.46516" x2="148.039" y2="27.629" gradientUnits="userSpaceOnUse">
<stop stop-color="#BDBDBD"/>
<stop offset="1" stop-color="#EEEEEE"/>
</linearGradient>
<linearGradient id="paint9_linear_437_7049" x1="103.998" y1="38.3032" x2="135.407" y2="47.2369" gradientUnits="userSpaceOnUse">
<stop stop-color="#BDBDBD"/>
<stop offset="1" stop-color="#EEEEEE"/>
</linearGradient>
<linearGradient id="paint10_linear_437_7049" x1="120.46" y1="17.7626" x2="134.43" y2="32.0261" gradientUnits="userSpaceOnUse">
<stop stop-color="#BDBDBD"/>
<stop offset="1" stop-color="#EEEEEE"/>
</linearGradient>
<linearGradient id="paint11_linear_437_7049" x1="168.136" y1="6.03484" x2="164.67" y2="16.6227" gradientUnits="userSpaceOnUse">
<stop stop-color="#BDBDBD"/>
<stop offset="1" stop-color="#EEEEEE"/>
</linearGradient>
<linearGradient id="paint12_linear_437_7049" x1="137.145" y1="48.2081" x2="177.529" y2="29.7485" gradientUnits="userSpaceOnUse">
<stop stop-color="#BDBDBD"/>
<stop offset="1" stop-color="#EEEEEE"/>
</linearGradient>
<linearGradient id="paint13_linear_437_7049" x1="156.206" y1="48.4412" x2="195.602" y2="42.3135" gradientUnits="userSpaceOnUse">
<stop stop-color="#BDBDBD"/>
<stop offset="1" stop-color="#EEEEEE"/>
</linearGradient>
<linearGradient id="paint14_linear_437_7049" x1="163.02" y1="56.0131" x2="101.296" y2="-20.0225" gradientUnits="userSpaceOnUse">
<stop offset="0.27" stop-color="white"/>
<stop offset="0.5" stop-color="#BDBDBD"/>
</linearGradient>
<linearGradient id="paint15_linear_437_7049" x1="114.119" y1="11.5079" x2="194.116" y2="75.4003" gradientUnits="userSpaceOnUse">
<stop offset="0.27" stop-color="white"/>
<stop offset="0.46" stop-color="#E0E0E0"/>
</linearGradient>
<linearGradient id="paint16_linear_437_7049" x1="227.667" y1="87.665" x2="265.483" y2="124.701" gradientUnits="userSpaceOnUse">
<stop stop-color="#8DA6E2"/>
<stop offset="1" stop-color="white"/>
</linearGradient>
<linearGradient id="paint17_linear_437_7049" x1="235.731" y1="95.4921" x2="240.427" y2="105.913" gradientUnits="userSpaceOnUse">
<stop stop-color="#EEEEEE"/>
<stop offset="0.53" stop-color="#F4F4F4"/>
<stop offset="1" stop-color="white"/>
</linearGradient>
</defs>
</svg>
