<svg width="197" height="79" viewBox="0 0 197 79" fill="none" xmlns="http://www.w3.org/2000/svg">
<path d="M1.94141 62.4372L12.6531 58.8943L43.706 54.2695L32.981 58.3376L14.8944 61.2898L1.94141 62.4372Z" fill="#1F1F86"/>
<path d="M46.5428 70.8799L35.8227 73.8624L32.9062 58.296L43.6264 54.2812L46.5428 70.8799Z" fill="#1F1F86"/>
<path d="M16.2004 7.48111L27.2888 3.59375L11.4653 48.1268L12.906 60.086L1.93348 62.4997L0.367188 50.2142L16.2004 7.48111Z" fill="#30309C"/>
<path d="M31.1773 46.4766L28.9082 32.4797L37.9002 9.53516C37.9002 9.53516 44.7052 47.4506 44.4624 47.4506C44.2197 47.4506 31.1773 46.4766 31.1773 46.4766Z" fill="#1F1F86"/>
<path d="M63.022 51.3906L56.4513 54.0129L55.5879 52.4398L63.022 51.3906Z" fill="#1F1F86"/>
<path d="M59.9084 69.0391L47.7041 72.457L35.8223 73.8664L46.5967 70.7214L59.9084 69.0391Z" fill="#1F1F86"/>
<path d="M59.9092 69.038L46.5166 70.7736L34.6348 2.80967L47.9742 0.964844L59.9092 69.038Z" fill="#5161CC"/>
<path d="M63.0239 51.3908L60.7198 40.2891L11.2324 48.4252L12.8712 60.0873L63.0239 51.3908Z" fill="#5161CC"/>
<path d="M47.9724 0.964844L27.2954 3.50709L11.1953 48.4258L23.6701 50.2974L26.0998 45.6325L36.1992 14.2813L47.9724 0.964844Z" fill="#5161CC"/>
<path d="M105.568 9.36596C98.4043 8.18822 92.1439 9.54183 87.4607 13.28C82.9466 16.8835 79.9276 22.6715 78.7308 30.0181L75.4473 50.1705C72.9571 65.4531 80.0169 75.986 94.3309 78.339C95.9513 78.6108 97.5911 78.7499 99.2339 78.7551C110.916 78.7551 118.973 71.1586 121.168 57.6845L124.452 37.5333C126.942 22.2482 119.882 11.7178 105.568 9.36596ZM111.285 34.5422L107.739 56.3054C107.071 60.4026 105.7 63.4045 103.663 65.2287C101.731 66.9559 99.2097 67.5794 96.1653 67.0784C88.2614 65.7794 87.6962 58.7943 88.614 53.1628L92.1596 31.3996C92.8274 27.3012 94.1981 24.2992 96.2354 22.4762C97.7352 21.1336 99.5914 20.4592 101.774 20.4592C102.43 20.4617 103.086 20.5177 103.734 20.6266C111.636 21.9219 112.201 28.9107 111.285 34.5422Z" fill="#1F1F86"/>
<path d="M105.568 1.55686C98.4043 0.380344 92.1439 1.73274 87.4607 5.47091C82.9466 9.07445 79.9276 14.8637 78.7308 22.209L75.4473 42.3614C72.9571 57.6441 80.0169 68.1781 94.3309 70.53C95.9513 70.8017 97.5911 70.9408 99.2339 70.946C110.916 70.946 118.973 63.3496 121.168 49.8766L124.452 29.7254C126.942 14.4391 119.882 3.9099 105.568 1.55686ZM111.285 26.7332L107.739 48.4963C107.071 52.5947 105.7 55.5967 103.663 57.4197C101.731 59.1481 99.2097 59.7703 96.1653 59.2693C88.2614 57.9703 87.6962 50.9852 88.614 45.3537L92.1596 23.5905C92.8274 19.4933 94.1981 16.4902 96.2354 14.6672C97.7352 13.3245 99.5914 12.6501 101.774 12.6501C102.43 12.6526 103.086 12.7086 103.734 12.8175C111.636 14.1165 112.201 21.1016 111.285 26.7332V26.7332Z" fill="#5161CC"/>
<path d="M145.17 43.254L160.805 42.8477L164.235 43.932L163.667 50.2245L145.17 43.254Z" fill="#222296"/>
<path d="M167.016 6.61328L136.125 40.1356L148.06 45.0709L169.769 18.4379L171.687 7.96931L167.016 6.61328Z" fill="#5161CC"/>
<path d="M196.177 10.9531L184.026 11.6045L168.58 75.5549L169.93 78.7012L181.811 78.159L196.177 10.9531Z" fill="#30309C"/>
<path d="M176.168 50.9555L183.486 52.9895L194.88 52.3394L187.779 50.332L176.168 50.9555Z" fill="#222296"/>
<path d="M169.159 19.1367L149.516 43.3366L160.803 42.849L165.393 37.9671L169.159 19.1367Z" fill="#1F1F88"/>
<path d="M167.016 6.6166L178.734 6.18359L196.179 10.9564L184.675 11.7702L167.016 6.6166Z" fill="#222296"/>
<path d="M183.216 52.8831L180.57 64.6532L133.477 51.31L136.124 40.1367L183.216 52.8831Z" fill="#5161CC"/>
<path d="M184.647 11.5532L170.147 78.7578L156.375 74.9348L171.685 7.97266L184.647 11.5532Z" fill="#5161CC"/>
<path d="M194.881 52.3398L183.216 52.882L180.57 64.652L192.343 63.6757L194.881 52.3398Z" fill="#30309C"/>
</svg>
