<svg width="273" height="250" viewBox="0 0 273 250" fill="none" xmlns="http://www.w3.org/2000/svg">
<path d="M12.189 123.816L15.5998 126.159L16.4022 129.036L14.9309 128.232C13.5713 126.961 10.9056 124.298 11.1196 123.816C11.3336 123.335 11.9217 123.616 12.189 123.816Z" fill="#FBCCC9"/>
<g style="mix-blend-mode:multiply" opacity="0.4">
<path d="M131.201 208.469C169.653 208.469 200.825 199.924 200.825 189.383C200.825 178.842 169.653 170.297 131.201 170.297C92.7481 170.297 61.5762 178.842 61.5762 189.383C61.5762 199.924 92.7481 208.469 131.201 208.469Z" fill="#A8C4E5"/>
</g>
<path d="M121.008 202.757C156.704 202.757 185.641 194.821 185.641 185.031C185.641 175.241 156.704 167.305 121.008 167.305C85.3122 167.305 56.375 175.241 56.375 185.031C56.375 194.821 85.3122 202.757 121.008 202.757Z" fill="#2D2D2D"/>
<path d="M121.008 171.451C154.079 171.451 181.348 178.263 185.175 187.051C185.476 186.382 185.634 185.659 185.641 184.925C185.641 175.123 156.702 167.199 121.008 167.199C85.3129 167.199 56.3809 175.136 56.3809 184.925C56.386 185.659 56.5446 186.383 56.8466 187.051C60.6707 178.263 87.942 171.451 121.008 171.451Z" fill="#656567"/>
<path d="M160.649 196.798L156.565 198.082L151.555 198.762V106.012H160.707L160.649 196.798Z" fill="#37498C"/>
<path d="M160.707 106.039H151.518V109.225H160.707V106.039Z" fill="#242850"/>
<path d="M209.726 31.532V75.4167L178.683 106.449H134.782L103.742 75.4167V31.532L134.782 0.5H178.683L209.726 31.532Z" fill="#F05673"/>
<path d="M209.725 31.5369V75.4186L178.685 106.451H134.784L114.012 85.6891C192.075 97.1879 192.884 14.6992 192.884 14.6992L209.725 31.5369Z" fill="#DC3A58"/>
<path d="M209.724 53.4805C209.724 53.4805 194.802 108.873 134.783 106.453H178.684L209.724 75.4213V53.4805Z" fill="#B82641"/>
<path fill-rule="evenodd" clip-rule="evenodd" d="M136.453 4.52734H177.018L205.701 33.1999V73.7513L177.018 102.424H136.453L107.77 73.7513V33.1999L136.453 4.52734ZM137.383 6.77318L110.015 34.1304V72.8208L137.383 100.178H176.088L203.455 72.8208V34.1304L176.088 6.77318H137.383Z" fill="white"/>
<path d="M160.707 196.748L157.033 198.107V106.496H160.707V196.748Z" fill="#242850"/>
<path d="M145.016 57.0002C144.319 56.7247 143.573 56.5965 142.825 56.6234H142.252V43.4951C142.252 41.403 141.333 40.3401 139.473 40.3401C138.916 40.3318 138.379 40.5431 137.977 40.9282C137.434 41.4747 136.936 42.0648 136.488 42.6925L127.384 54.8683L126.747 55.7106C126.572 55.9434 126.404 56.1854 126.242 56.4335C126.088 56.6646 125.962 56.9122 125.865 57.1717C125.781 57.4014 125.737 57.6439 125.736 57.8885C125.716 58.2877 125.783 58.6865 125.933 59.057C126.084 59.4274 126.313 59.7604 126.606 60.0326C127.179 60.5503 128.04 60.8137 129.165 60.8137H137.625V63.8339C137.625 64.7314 137.839 65.4237 138.259 65.8954C138.477 66.1215 138.738 66.3016 139.027 66.4252C139.316 66.5489 139.627 66.6134 139.941 66.6151C140.255 66.6168 140.566 66.5557 140.856 66.4352C141.146 66.3147 141.409 66.1374 141.63 65.9137C142.047 65.4543 142.243 64.7559 142.243 63.8339V60.8015H143.125C144.026 60.8015 144.716 60.6391 145.178 60.3175C145.423 60.1357 145.618 59.8948 145.744 59.6173C145.871 59.3398 145.925 59.0348 145.901 58.7308C145.911 57.8517 145.61 57.2667 145.016 57.0002ZM137.625 47.3117V56.6234H130.731L137.625 47.3117Z" fill="white"/>
<path d="M162.591 42.7889C161.857 42.0398 160.973 41.4533 159.998 41.0674C158.953 40.6655 157.842 40.466 156.723 40.4793C155.054 40.4107 153.407 40.8752 152.02 41.8054C150.633 42.7356 149.579 44.0833 149.01 45.6528C148.578 46.8178 148.285 48.0301 148.14 49.2642C147.946 50.8208 147.854 52.3883 147.864 53.9568C147.859 55.214 147.943 56.4699 148.115 57.7152C148.264 58.8043 148.529 59.8743 148.906 60.9069C149.54 62.5698 150.644 64.0128 152.083 65.0605C153.475 66.0583 155.148 66.5863 156.86 66.5675C158.34 66.5826 159.795 66.1951 161.071 65.4464C162.358 64.6689 163.42 63.57 164.153 62.2577C164.796 61.0992 165.232 59.8379 165.443 58.53C165.692 56.9188 165.808 55.2899 165.79 53.6597C165.79 50.1923 165.345 47.4723 164.469 45.5671C164.005 44.5409 163.37 43.6013 162.591 42.7889ZM153.297 58.7168C153.017 56.9772 152.891 55.2163 152.92 53.4545C152.92 50.3179 153.226 47.9685 153.793 46.4737C154.36 44.979 155.344 44.2959 156.793 44.2959C157.232 44.2731 157.67 44.3478 158.076 44.5146C158.483 44.6815 158.847 44.9363 159.143 45.2608C159.716 45.9163 160.13 46.9056 160.369 48.2044C160.647 49.8948 160.773 51.6068 160.746 53.3197C160.774 55.1031 160.654 56.8859 160.387 58.6495C160.151 59.9758 159.741 61.008 159.162 61.7125C158.869 62.0362 158.513 62.2956 158.114 62.4744C157.716 62.6532 157.286 62.7474 156.849 62.7511C156.413 62.7549 155.981 62.668 155.58 62.4961C155.179 62.3242 154.818 62.0709 154.519 61.7524C153.956 61.0785 153.542 60.0585 153.297 58.7199V58.7168Z" fill="white"/>
<path d="M186.836 57.0002C186.14 56.7247 185.395 56.5964 184.648 56.6234H184.072V43.495C184.072 41.403 183.153 40.3401 181.296 40.3401C180.739 40.3318 180.202 40.5431 179.8 40.9282C179.256 41.4739 178.758 42.0641 178.311 42.6925L169.204 54.8683L168.57 55.7106C168.395 55.9434 168.224 56.1854 168.064 56.4335C167.91 56.6638 167.784 56.9116 167.688 57.1717C167.603 57.4013 167.559 57.6438 167.556 57.8885C167.537 58.2875 167.605 58.686 167.755 59.0562C167.905 59.4264 168.134 59.7596 168.426 60.0326C168.999 60.5503 169.86 60.8137 170.988 60.8137H179.448V63.8339C179.448 64.7314 179.659 65.4236 180.082 65.8953C180.292 66.1309 180.551 66.3173 180.842 66.4412C181.132 66.5651 181.446 66.6235 181.761 66.6121C182.076 66.6244 182.39 66.5683 182.681 66.4477C182.972 66.3272 183.233 66.145 183.447 65.9137C183.863 65.4542 184.06 64.7559 184.06 63.8339V60.8014H184.945C185.846 60.8014 186.535 60.6391 186.998 60.3175C187.242 60.1351 187.437 59.894 187.563 59.6167C187.689 59.3394 187.744 59.0347 187.721 58.7308C187.734 57.8517 187.43 57.2666 186.836 57.0002ZM179.448 47.3116V56.6234H172.551L179.448 47.3116Z" fill="white"/>
<path d="M60.2995 118.514C58.2894 118.208 56.2792 118.25 55.2374 117.574C54.5201 117.067 53.8354 116.515 53.1875 115.923L56.8645 108.246C57.0729 107.986 61.8867 112.011 61.9786 112.556C62.1043 113.34 62.1073 114.7 62.1533 115.347C62.16 115.434 62.1527 115.522 62.1318 115.607L58.1208 132.282L53.5001 131.128L57.7347 117.083L60.2995 118.514Z" fill="#FBCCC9"/>
<path d="M56.3078 119.291L55.6074 122.008L60.7913 123.343L61.4917 120.626L56.3078 119.291Z" fill="white"/>
<path d="M88.1354 125.74L87.9424 150.364L79.0165 154.895L57.9011 165.615L54.4018 167.389C53.0884 168.055 51.6083 168.32 50.1454 168.152C48.6824 167.984 47.3012 167.39 46.1732 166.443C45.0453 165.497 44.2204 164.24 43.8012 162.829C43.3819 161.418 43.3867 159.914 43.815 158.506L55.1066 120.625L61.6701 122.181L57.3434 149.789L88.1354 125.74Z" fill="#1E3565"/>
<path d="M88.1354 125.74L87.9424 150.364L79.0165 154.895L57.9011 165.615L54.4018 167.389C53.0884 168.055 51.6083 168.32 50.1454 168.152C48.6824 167.984 47.3012 167.39 46.1732 166.443C45.0453 165.497 44.2204 164.24 43.8012 162.829C43.3819 161.418 43.3867 159.914 43.815 158.506L55.1066 120.625L61.6701 122.181L57.3434 149.789L88.1354 125.74Z" fill="#252581"/>
<path d="M88.3424 188.033L89.522 194.413H78.8434C79.113 191.715 79.6002 188.927 79.9986 186.229C80.5716 182.379 80.9668 178.709 80.3233 175.744C78.874 169.039 78.0099 162.128 78.2428 155.289C78.445 149.285 79.4899 143.343 81.7267 137.636C82.572 135.492 83.7899 133.515 85.3241 131.795C85.6305 131.446 85.9554 131.106 86.2924 130.781C87.3881 129.704 88.608 128.761 89.9265 127.972C90.5028 127.62 91.0993 127.302 91.713 127.02L91.7926 127.663L91.9121 128.582L91.9274 128.71L87.3496 160.848L87.3128 161.099L86.8225 164.545L87.2668 172.439L87.3005 172.929L87.8245 182.118L87.9899 185.034C88.0439 186.04 88.1617 187.042 88.3424 188.033Z" fill="#1E3565"/>
<g style="mix-blend-mode:multiply" opacity="0.4">
<path d="M89.2161 163.356L87.825 182.121L86.9057 194.413H80.4434L84.8435 165.66C82.3554 162.021 81.9571 156.672 81.8988 154.485C81.8835 153.873 81.8988 153.496 81.8988 153.496L87.35 160.847L89.2161 163.356Z" fill="#1E3565"/>
</g>
<path d="M126.426 202.034L109.41 194.416L112.87 182.687L113.602 180.2L113.865 179.309L115.011 180.849L126.426 202.034Z" fill="#375682"/>
<path d="M85.7509 104.965L84.9082 111.912L86.4985 126.216L92.5258 125.527L99.9473 117.775L99.503 111.443L98.7155 105.501L85.7509 104.965Z" fill="#FBCCC9"/>
<path d="M120.982 157.608C120.982 157.914 120.982 158.22 120.982 158.542C120.912 161.715 120.32 164.735 119.6 167.823C118.969 170.543 118.301 173.337 117.624 176.093C117.273 177.523 116.925 178.952 116.582 180.382C116.021 182.737 115.482 185.053 115.016 187.283C114.906 187.782 114.808 188.275 114.71 188.759C114.486 189.862 114.284 190.934 114.097 191.985C113.91 193.035 113.754 194.098 113.631 195.106C113.318 196.566 113.233 198.067 113.38 199.553C113.38 199.621 113.38 199.688 113.401 199.753C113.444 200.191 113.509 200.671 113.604 201.131C113.604 201.22 113.64 201.312 113.659 201.404C113.717 201.679 113.788 201.961 113.864 202.246H82.2876C83.1058 197.673 83.3172 192.257 84.1261 188.211C84.5153 186.312 85.6582 177.018 86.0351 175.135C86.4556 172.961 86.6008 170.743 86.4671 168.534C85.4244 167.412 84.552 166.144 83.8779 164.769C82.8769 162.703 82.2108 160.492 81.9046 158.217C81.8556 157.856 81.8157 157.488 81.7851 157.121C81.736 156.585 81.7115 156.049 81.7023 155.512C81.6296 152.338 81.8656 149.164 82.4071 146.035C82.4561 145.729 82.5144 145.392 82.5756 145.055C83.0156 142.692 83.6395 140.368 84.4418 138.102C84.7482 137.183 85.0974 136.316 85.4529 135.474C85.5019 135.364 85.5479 135.256 85.6 135.146C85.6736 134.975 85.7532 134.794 85.839 134.613L85.9401 134.396C86.0045 134.252 86.0719 134.111 86.1363 133.979C86.1638 133.915 86.1944 133.85 86.2251 133.786C86.2925 133.651 86.3569 133.529 86.4151 133.409C86.4733 133.29 86.5315 133.183 86.5898 133.072C86.7062 132.858 86.8226 132.644 86.9636 132.405C87.2988 131.83 87.681 131.284 88.1065 130.772C88.6534 130.115 89.2641 129.514 89.9297 128.977C90.2361 128.707 90.5732 128.456 90.9102 128.22C91.5323 127.756 92.0889 127.21 92.5649 126.597C93.1778 125.853 93.7906 124.983 94.431 124.091C95.6904 122.299 96.9712 120.416 98.2857 119.387C98.4685 119.238 98.662 119.104 98.8648 118.985C99.1168 118.83 99.3891 118.711 99.6738 118.63C100.507 118.406 100.593 118.128 101.632 118.394L102.22 118.581C108.061 120.557 112.455 127.482 115.307 133.042C117.613 137.477 119.178 142.259 119.94 147.199C120.449 150.642 120.942 154.11 120.982 157.608Z" fill="url(#paint0_linear_437_6873)"/>
<path d="M82.4062 143.439C82.8762 141.745 83.4734 140.088 84.1927 138.483C85.2915 136.041 86.8097 133.81 88.6786 131.891L99.4493 120.84L92.5641 125.811C92.0799 126.373 91.5234 126.868 90.9094 127.285C89.334 128.247 87.9873 129.541 86.9627 131.077C86.6839 131.515 86.4908 131.839 86.2242 132.336C85.9883 132.774 85.6819 133.383 85.4582 133.867C85.1027 134.633 84.7627 135.432 84.4471 136.25C83.6461 138.295 83.0218 140.405 82.5809 142.557C82.5135 142.86 82.4553 143.167 82.4062 143.439Z" fill="#CDE0EB"/>
<path d="M111.767 187.94C111.454 189.259 111.37 190.623 111.519 191.971C111.521 192.033 111.528 192.094 111.54 192.155C111.585 192.574 111.652 192.99 111.742 193.401C111.742 193.481 111.779 193.567 111.797 193.649C111.856 193.901 113.593 201.564 113.673 201.825H97.1812C97.8952 200.854 100.696 191.882 101.842 189.193C106.077 179.302 95.2416 167.616 95.2416 167.616C90.0325 161.251 88.7853 154.751 88.8313 149.814C88.8474 147.855 89.0745 145.904 89.5085 143.994C89.6939 143.142 89.9397 142.305 90.2439 141.488L91.252 143.305L111.733 180.212L112.836 182.2C112.616 183.198 112.413 184.172 112.223 185.122C112.033 186.071 111.892 187.024 111.767 187.94Z" fill="#CDE0EB"/>
<path d="M143.952 201.617L120.306 202.03C118.235 198.725 115.572 188.103 114.101 185.107C113.706 184.301 113.298 183.493 112.875 182.687C111.644 180.341 110.201 178.112 108.564 176.028C106.726 173.7 104.565 171.571 102.534 169.403C101.905 168.735 101.305 168.069 100.735 167.405C99.1833 165.643 97.757 163.774 96.4666 161.812C95.9457 161.01 95.4646 160.216 95.0234 159.423C94.8855 159.175 94.7537 158.927 94.625 158.676C94.3584 158.176 94.1163 157.662 93.8896 157.166C91.9331 153.064 91.0697 148.527 91.3831 143.994C91.7968 138.129 94.1409 132.22 97.8547 125.922C99.2305 123.582 100.796 121.187 102.521 118.715L102.901 118.791C104.267 119.063 105.574 119.573 106.762 120.298L106.934 120.403C108.835 121.583 110.61 122.956 112.232 124.498C112.886 125.111 113.545 125.794 114.211 126.547C114.315 126.664 114.417 126.783 114.518 126.899C114.929 127.368 115.267 127.897 115.52 128.468C115.792 129.08 116.019 129.711 116.277 130.397C118.115 135.277 118.67 137.62 119.843 141.207C121.121 145.1 121.602 151.432 121.66 155.622C121.714 160.849 121.31 166.071 120.453 171.228L120.419 171.4C120.331 171.856 120.285 172.107 120.285 172.11C120.15 172.824 124.654 176.904 125.15 177.452C130.053 182.914 140.392 195.09 143.952 201.617Z" fill="#3939AA"/>
<path d="M85.8966 86.9081L85.9671 86.8346C92.1353 80.88 104.901 85.5849 108.86 91.4966C112.65 97.1572 107.312 109.226 101.548 111.367L90.5939 99.8894L85.1611 97.9076L84.7138 96.0973C84.6831 95.9748 84.6494 95.8492 84.6126 95.7267C84.3369 94.8017 83.004 89.7353 85.8966 86.9081Z" fill="#172F57"/>
<path d="M81.5221 99.0626C80.5722 101.547 80.4894 103.826 81.3382 104.15C82.187 104.475 83.6487 102.723 84.6017 100.239C85.5546 97.7547 85.6342 95.4727 84.7824 95.148C83.9305 94.8233 82.4751 96.5815 81.5221 99.0626Z" fill="white"/>
<path d="M81.1139 104.221C81.1139 104.221 79.1284 110.093 79.9833 113.716C79.9833 113.716 86.9696 115.964 93.8671 108.601C93.8671 108.601 93.4626 110.132 95.2827 110.641C95.2827 110.641 99.2141 112.224 100.339 105.434C100.406 105.075 100.375 104.705 100.247 104.363C100.12 104.022 99.9014 103.721 99.6155 103.495C99.0395 103.063 98.1876 102.925 97.1182 104.187L97.731 102.214L103.813 99.0838C103.813 99.0838 102.018 93.1752 92.3626 92.0388C92.3626 92.0388 85.8481 91.4261 83.7828 99.1757C83.7828 99.1757 83.5101 100.052 82.2507 100.894L80.9331 101.599C80.9331 101.599 78.635 102.998 81.1139 104.221Z" fill="#FBCCC9"/>
<path d="M115.776 103.786C116.743 101.341 115.552 98.5795 113.117 97.6178C110.682 96.6561 107.925 97.8585 106.959 100.303C105.992 102.748 107.183 105.51 109.618 106.472C112.052 107.433 114.81 106.231 115.776 103.786Z" fill="#172F57"/>
<path d="M84.0508 99.9558C83.0886 102.471 83.0059 104.78 83.8669 105.108C84.7279 105.436 86.2049 103.662 87.167 101.144C88.1292 98.6264 88.212 96.3199 87.3509 95.9921C86.4899 95.6644 85.0129 97.4379 84.0508 99.9558Z" fill="white"/>
<path d="M87.4935 116.921C87.6959 115.281 88.529 113.785 89.8162 112.749L93.8854 109.477C95.7852 102.987 99.6155 103.498 99.6155 103.498L101.696 102.009L95.8281 97.5312L94.1704 99.3323C95.6504 102.717 92.9447 106.843 92.9447 106.843C91.9029 108.724 90.2359 109.437 88.4464 109.539C87.5476 109.589 86.648 109.457 85.801 109.153C84.954 108.848 84.177 108.376 83.5162 107.765L81.2027 105.621C81.0941 105.532 80.9667 105.47 80.8302 105.438C80.6937 105.406 80.5518 105.406 80.4152 105.437C80.2706 105.472 80.1345 105.535 80.015 105.624C79.8954 105.712 79.795 105.824 79.7196 105.952C79.6402 106.081 79.5878 106.226 79.5651 106.376C79.5425 106.527 79.5502 106.68 79.5879 106.828C79.6229 106.967 79.6887 107.097 79.7804 107.208C79.8721 107.319 79.9875 107.407 80.118 107.468C80.4244 107.814 77.4919 111.098 77.1794 111.45C75.4083 113.413 70.1042 114.302 70.5148 117.601C70.8212 120.128 73.7904 122.195 75.9997 122.891C80.8565 124.428 86.8194 122.4 87.4935 116.921Z" fill="#3266A1"/>
<path d="M99.7995 115.654L95.5709 109.599L97.4094 109.501L98.2643 105.359C98.4736 104.473 98.4216 103.545 98.1143 102.688C97.807 101.83 97.2578 101.081 96.5331 100.529C95.8129 100.016 95.0209 99.6126 94.1828 99.3312C94.1828 99.3312 91.6916 98.6114 92.7365 96.553C93.5822 94.8836 93.8182 94.8315 93.0123 93.1836C93.0123 93.1836 111.266 95.1103 104.019 108.94C103.444 110.048 102.601 110.996 101.568 111.697C100.376 112.484 101.448 114.111 99.7995 115.654Z" fill="#172F57"/>
<path d="M95.2957 110.644C95.2957 110.644 99.3466 112.277 100.505 105.278C100.575 104.908 100.542 104.526 100.411 104.174C100.28 103.821 100.055 103.511 99.7602 103.278C99.2209 102.873 98.4487 102.72 97.4896 103.66C97.4896 103.66 96.1108 104.708 95.452 107.1C95.4612 107.1 94.3764 109.278 95.2957 110.644Z" fill="#FBCCC9"/>
<path d="M82.942 99.0635C82.9167 99.122 82.9033 99.1849 82.9024 99.2486C82.9015 99.3124 82.9132 99.3757 82.9368 99.4349C82.9604 99.4941 82.9955 99.548 83.04 99.5936C83.0846 99.6392 83.1378 99.6756 83.1964 99.7006L96.1916 105.294C96.3089 105.337 96.4385 105.334 96.5536 105.285C96.6686 105.236 96.7602 105.144 96.8095 105.029C96.8587 104.914 96.8618 104.784 96.8181 104.667C96.7744 104.55 96.6872 104.454 96.5747 104.399L83.5794 98.8093C83.5209 98.784 83.4579 98.7705 83.3942 98.7696C83.3304 98.7687 83.2671 98.7804 83.2079 98.804C83.1487 98.8276 83.0947 98.8627 83.0491 98.9072C83.0035 98.9518 82.9671 99.0049 82.942 99.0635Z" fill="white"/>
<path d="M50.427 118.052C50.4017 117.777 50.4444 117.499 50.5512 117.244C50.6581 116.989 50.8258 116.764 51.0398 116.588C51.3898 116.305 51.7803 116.076 52.1981 115.908L52.4034 115.663C54.6249 113.004 55.9057 110.68 56.5952 108.71C56.7435 108.309 56.8683 107.9 56.969 107.485C56.9892 107.424 57.0057 107.361 57.0181 107.298C57.0771 107.08 57.1221 106.859 57.1529 106.636C57.1746 106.535 57.19 106.433 57.1988 106.33C57.7473 102.728 56.2367 100.816 56.2367 100.816L67.9878 103.267L61.9974 111.451L60.1589 113.969L60.0608 114.098L56.0191 119.611L55.7893 119.918C55.508 120.302 55.0957 120.569 54.6304 120.67C54.1652 120.77 53.6791 120.697 53.2644 120.463L51.2941 119.357C51.0556 119.225 50.8524 119.037 50.7015 118.81C50.5506 118.583 50.4565 118.323 50.427 118.052Z" fill="#172F57"/>
<path d="M66.6367 103.252L70.8346 105.616C71.0276 105.725 71.2401 105.794 71.4598 105.82C71.6796 105.847 71.9023 105.829 72.1155 105.77C72.3286 105.71 72.5279 105.609 72.7019 105.472C72.8759 105.335 73.0213 105.166 73.1297 104.973L75.3819 100.991C75.6014 100.601 75.6572 100.141 75.5371 99.7099C75.417 99.2792 75.1309 98.9137 74.7415 98.6936L70.5436 96.332L66.6367 103.252Z" fill="#4757A1"/>
<path d="M70.8529 104.196C70.5192 104.77 69.9892 105.205 69.3603 105.42C68.7314 105.635 68.046 105.616 67.4302 105.366L46.75 97.2027L55.0539 82.457L72.7619 95.9039C73.2946 96.3009 73.6661 96.8767 73.808 97.5256C73.9498 98.1745 73.8526 98.8527 73.5341 99.4357L70.8529 104.196Z" fill="#172F57"/>
<path d="M54.2661 83.7461L71.2815 96.9173C71.4176 97.0223 71.5159 97.1689 71.5612 97.3347C71.6065 97.5005 71.5966 97.6766 71.5328 97.8363C71.4886 97.9436 71.4216 98.04 71.3364 98.1188C71.2512 98.1976 71.1499 98.2569 71.0395 98.2926C70.9296 98.3277 70.8133 98.3381 70.6989 98.3233C70.5846 98.3085 70.4749 98.2688 70.3776 98.2069L52.2988 86.7969L54.2661 83.7461Z" fill="#68829B"/>
<path d="M33.1626 54.8906C33.4389 54.9433 33.6912 55.0828 33.8827 55.2888L59.6525 83.1016C60.489 84.0205 60.5871 85.4785 59.8946 86.7098L52.8899 99.1459C52.1974 100.371 50.8828 101.054 49.6786 100.809L12.5621 93.2127C12.3551 93.1696 12.1614 93.0779 11.9968 92.9453C11.8322 92.8127 11.7014 92.643 11.6152 92.45L33.1626 54.8906Z" fill="#4757A1"/>
<g style="mix-blend-mode:multiply">
<path d="M66.6759 105.067L64.7332 104.565C62.8518 104.09 59.9928 103.815 57.1922 106.348C57.6549 103.306 56.6499 101.478 56.3281 100.984L66.6759 105.067Z" fill="#172F57"/>
</g>
<path d="M25.8917 75.7179C31.8057 65.2218 35.0902 55.863 33.2279 54.8145C31.3656 53.7659 25.0617 61.4247 19.1477 71.9208C13.2337 82.417 9.94915 91.7758 11.8114 92.8243C13.6737 93.8729 19.9777 86.2141 25.8917 75.7179Z" fill="white"/>
<path d="M12.1429 91.8664C12.1509 91.9061 12.1673 91.9436 12.1911 91.9764C12.2149 92.0092 12.2455 92.0364 12.2808 92.0563C12.3161 92.077 12.3556 92.0897 12.3964 92.0934C12.4372 92.0971 12.4783 92.0918 12.5167 92.0778C14.294 91.4315 19.4602 85.5381 25.1994 75.3534C31.2788 64.5683 33.3287 57.4221 32.9457 55.811C32.9365 55.772 32.9191 55.7354 32.8946 55.7036C32.8702 55.6719 32.8392 55.6457 32.8039 55.6268C32.7685 55.608 32.7295 55.5969 32.6895 55.5943C32.6495 55.5918 32.6094 55.5977 32.5719 55.6119C30.8498 56.2245 25.6621 62.1362 19.8953 72.3669C13.8711 83.0601 11.8028 90.1787 12.1429 91.8664Z" fill="#242850"/>
<path d="M53.5031 112.69C52.924 112.077 53.0159 111.158 53.5521 110.876C53.7724 110.765 54.0228 110.727 54.2661 110.769C53.5644 110.481 53.5 109.59 53.6686 109.204C53.772 108.979 53.9303 108.783 54.1289 108.635C54.3275 108.487 54.5601 108.391 54.8054 108.355C54.7166 108.216 54.6629 108.058 54.649 107.894C54.6351 107.729 54.6615 107.564 54.7258 107.412C55.2651 106.475 56.077 106.64 56.4723 106.931C56.843 107.193 57.198 107.476 57.5356 107.78C58.0994 108.218 58.657 108.665 58.7214 109.066C58.7511 109.376 58.6594 109.685 58.4656 109.928C58.2719 110.172 57.9912 110.33 57.6827 110.371C58.2955 110.965 58.2189 111.903 57.6827 112.209C57.463 112.329 57.2105 112.375 56.9626 112.341C57.4712 112.993 57.7715 113.505 57.6091 113.897C57.5103 114.127 57.3558 114.329 57.1595 114.484C56.9632 114.64 56.7313 114.744 56.4846 114.788C56.5779 114.925 56.6362 115.083 56.6543 115.248C56.6725 115.413 56.65 115.58 56.5887 115.734C56.0678 116.696 55.2436 116.555 54.836 116.267C54.3379 115.947 53.8729 115.577 53.4479 115.165C52.9485 114.751 52.4888 114.335 52.4367 113.97C52.4143 113.66 52.5128 113.354 52.7117 113.115C52.9105 112.876 53.1942 112.724 53.5031 112.69Z" fill="#FBCCC9"/>
<path d="M62.8785 106.738C63.5159 109.802 64.5148 112.27 62.6947 115.208C62.0819 116.185 61.1626 116.681 60.703 117.352C59.2229 116.225 59.2627 114.372 59.2627 114.372C59.1034 111.241 61.7724 110.714 61.7724 110.714L61.5915 107.915C61.5228 107.624 61.5627 107.318 61.7038 107.055C61.8448 106.791 62.0774 106.588 62.3576 106.484C62.4061 106.464 62.4582 106.453 62.5108 106.453C62.5635 106.453 62.6156 106.464 62.664 106.484C62.716 106.509 62.762 106.544 62.7991 106.588C62.8361 106.632 62.8632 106.683 62.8785 106.738Z" fill="#FBCCC9"/>
<path d="M86.4982 126.219L84.3594 131.016L86.2254 132.336L88.9005 128.213L86.4982 126.219Z" fill="#F9C2D0"/>
<path d="M4.03107 135.435L10.8795 136.697C10.8795 136.697 11.3974 136.811 12.1818 136.946C13.959 137.252 17.1059 137.662 18.7514 137.086L24.3804 138.903L25.6704 135.227L19.8882 133.343C19.8882 133.343 20.1027 132.614 18.6442 130.026C18.6442 130.026 16.8302 127.076 15.5034 126.09L15.0475 125.889L14.6332 128.418C14.6349 128.504 14.6092 128.589 14.5596 128.66C14.4831 128.746 14.3883 128.813 14.2823 128.858C14.1763 128.902 14.0617 128.923 13.9468 128.917C13.1081 128.873 12.285 128.673 11.5199 128.326C11.2472 128.207 10.9439 128.087 10.6282 127.983C10.4364 127.923 10.2507 127.845 10.0736 127.75L4.14751 124.601C4.01038 124.557 3.86841 124.529 3.72465 124.519C3.61626 124.508 3.50694 124.526 3.40795 124.572C3.30895 124.617 3.22384 124.688 3.16141 124.777C3.09899 124.866 3.06147 124.971 3.05275 125.079C3.04403 125.188 3.06443 125.297 3.11181 125.395C3.30661 125.761 3.63617 126.038 4.03107 126.167L9.43324 129.842C9.47113 129.868 9.4981 129.907 9.50902 129.952C9.51994 129.997 9.51402 130.044 9.49241 130.084C9.47081 130.125 9.43504 130.156 9.3919 130.172C9.34877 130.188 9.30128 130.187 9.25856 130.17L1.83097 127.361C1.83097 127.361 1.03123 127.055 0.773836 127.781C0.773836 127.781 0.43676 128.565 1.60115 128.963L8.58138 131.928C8.62272 131.948 8.65464 131.983 8.67026 132.026C8.68011 132.047 8.68522 132.07 8.68522 132.094C8.68522 132.117 8.68011 132.14 8.67026 132.161C8.65388 132.2 8.6233 132.232 8.58467 132.249C8.54605 132.267 8.50219 132.269 8.46188 132.256L1.99644 130.32C1.99644 130.32 1.16909 130.106 1.01588 130.752C1.0097 130.806 1.0097 130.86 1.01588 130.914C1.02863 131.113 1.11029 131.301 1.24678 131.446C1.38327 131.59 1.56604 131.683 1.76356 131.708L8.8694 134.109L9.20649 134.259C9.23466 134.27 9.25867 134.29 9.27516 134.315C9.29166 134.34 9.29978 134.37 9.29839 134.4C9.29783 134.42 9.29318 134.439 9.28474 134.457C9.2763 134.475 9.26425 134.491 9.24936 134.504C9.21962 134.53 9.18125 134.543 9.14212 134.541L3.98817 134.189C3.98817 134.189 3.04746 133.987 2.98924 134.713C2.95247 134.713 2.82684 135.301 4.03107 135.435Z" fill="#FBCCC9"/>
<g style="mix-blend-mode:multiply" opacity="0.3">
<path d="M84.0207 132.586L79.0138 154.894L57.8984 165.615L73.5902 152.989C76.5042 141.104 84.0207 132.586 84.0207 132.586Z" fill="#1E3565"/>
</g>
<path d="M99.9388 116.125L102.513 118.673L86.2266 132.335L86.4993 126.218L99.9388 116.125Z" fill="url(#paint1_linear_437_6873)"/>
<g style="mix-blend-mode:multiply" opacity="0.3">
<path d="M125.137 177.453C124.641 176.905 120.136 172.825 120.271 172.111C120.271 172.111 120.317 171.857 120.406 171.401L120.44 171.229C121.297 166.072 121.701 160.85 121.647 155.623C121.589 151.433 121.108 145.101 119.83 141.208C118.656 137.621 118.114 135.278 116.263 130.399C116.006 129.712 115.779 129.069 115.506 128.469L103.311 128.885C103.311 128.885 103.642 134.962 108.52 139.235L92.7148 145.251L113.968 145.444C116.036 151.877 119.723 165.321 117.1 172.586L113.202 175.181L116.573 174.586L118.105 174.317C118.105 174.317 125.836 192.266 127.647 202.029L143.948 201.615C140.391 195.088 130.052 182.912 125.137 177.453Z" fill="#1E3565"/>
</g>
<path d="M20.0025 132.442L18.248 137.816L20.1722 138.444L21.9266 133.069L20.0025 132.442Z" fill="white"/>
<g style="mix-blend-mode:multiply" opacity="0.3">
<path d="M91.8849 118.28C89.2742 118.5 89.5836 115.557 90.2823 113.992C91.1208 112.23 92.3539 110.685 93.8858 109.477L89.8196 112.739C88.5324 113.775 87.6994 115.271 87.4969 116.911C87.3488 118.242 86.8164 119.501 85.9648 120.534L86.5011 126.213L95.231 119.655C94.3332 117.925 91.8849 118.28 91.8849 118.28Z" fill="#E8B0AF"/>
</g>
<path d="M144.574 199.336C144.574 199.336 129.538 206.074 76.2422 197.887C76.2422 197.887 87.8064 202.653 120.783 203.379C129.034 203.405 137.272 202.747 145.413 201.409L144.574 199.336Z" fill="#2D2D2D"/>
<path d="M77.5685 167.366L77.9271 169.489L78.399 171.557C78.5553 172.215 78.8096 172.984 79.0118 173.701C79.8913 176.485 80.9637 179.04 81.9473 181.481C82.898 183.711 83.6996 186.001 84.3466 188.336C84.8643 190.242 85.0773 192.218 84.9778 194.19C84.9257 194.628 84.8736 195.06 84.8246 195.486C84.7756 195.911 84.6346 196.322 84.5549 196.711C84.5089 196.913 84.463 197.112 84.4201 197.323C84.3772 197.535 84.2792 197.715 84.2087 197.908C84.0984 198.233 83.988 198.549 83.8808 198.861C83.4763 199.78 83.0902 200.668 82.7195 201.507C82.6459 201.642 82.5754 201.765 82.5019 201.897C86.0686 201.897 87.9623 201.897 91.529 201.897C95.1172 197.728 94.2163 191.108 92.1664 185.788C91.1315 183.232 89.9277 180.747 88.5629 178.351C87.2882 176.02 86.0165 173.738 85.0084 171.495C84.7786 170.941 84.5304 170.46 84.3006 169.835L83.6632 168.043C83.4886 167.449 83.3139 166.858 83.1424 166.264C82.9708 165.67 82.8604 165.06 82.7164 164.457C82.2199 162.053 81.9126 159.615 81.7971 157.163C81.7049 154.832 81.7509 152.497 81.935 150.17C82.1113 148.066 82.3987 145.972 82.7961 143.897C82.9646 142.926 83.176 142.007 83.3844 141.14C83.5927 140.274 83.8195 139.443 84.0279 138.665C84.2362 137.887 84.4753 137.177 84.6806 136.521C84.8859 135.866 85.1004 135.256 85.2934 134.717C85.6642 133.639 86.0257 132.781 86.2709 132.202C86.516 131.623 86.6386 131.308 86.6386 131.308L85.3822 130.695C85.3822 130.695 85.2168 131.002 84.9135 131.541C84.6101 132.08 84.1504 132.888 83.6234 133.991C83.3476 134.53 83.0504 135.128 82.7655 135.786C82.4805 136.445 82.1312 137.149 81.8462 137.93C81.5612 138.711 81.1874 139.523 80.884 140.408C80.5807 141.294 80.2344 142.222 79.9371 143.208C78.5046 147.73 77.6028 152.403 77.2499 157.133C77.0664 159.853 77.095 162.583 77.3356 165.299C77.4061 165.961 77.4674 166.665 77.5685 167.366Z" fill="#F05673"/>
<path d="M82.3397 201.874C82.3397 201.874 76.2818 200.193 76.1133 193.298L79.6402 188.59L85.7042 193.129C85.7042 193.129 84.6931 198.337 90.4139 201.874H82.3397Z" fill="#D92A4B"/>
<path d="M115.037 136.077C114.429 137.308 113.574 138.399 112.524 139.284C111.474 140.168 110.253 140.827 108.936 141.217L64.0032 154.501C61.741 155.168 59.321 155.06 57.1271 154.195L20.8809 139.695L23.0687 133.136L60.0258 141.768L74.6206 135.354L80.0319 132.977L81.7816 132.15L81.8368 132.129L82.0451 132.028L101.873 122.679C103.892 121.729 106.171 121.484 108.346 121.984C110.52 122.484 112.464 123.699 113.864 125.436C114.512 126.239 115.029 127.139 115.396 128.104C115.892 129.385 116.116 130.756 116.054 132.128C115.992 133.501 115.646 134.845 115.037 136.077Z" fill="#3939AA"/>
<g style="mix-blend-mode:multiply" opacity="0.2">
<path d="M113.883 130.994C113.363 132.967 111.987 134.835 108.763 135.319C107.272 135.485 105.763 135.35 104.325 134.921C102.888 134.492 101.551 133.778 100.395 132.823C96.5217 129.576 88.0279 129.077 79.7821 138.566C79.0927 139.36 77.5483 139.975 76.5371 140.052C74.5914 140.193 73.0409 138.398 73.7794 136.539C73.973 136.094 74.2555 135.694 74.6097 135.362L80.0211 132.985L81.7708 132.158L81.8259 132.137L82.0343 132.036L101.863 122.687C103.057 122.124 104.352 121.805 105.671 121.75C106.923 121.802 108.156 122.067 109.318 122.534C109.676 122.681 110.029 122.84 110.369 123.024C111.769 123.76 112.879 124.949 113.517 126.396C114.156 127.844 114.285 129.464 113.883 130.994Z" fill="#303398"/>
</g>
<path d="M209.684 191.675C209.396 191.616 208.896 191.963 208.896 191.963V195.54L211.523 197.099L258.827 197.556L263.39 195.51L263.372 191.877L209.81 191.901" fill="#38488C"/>
<path d="M236.132 203.105C251.18 203.105 263.378 199.705 263.378 195.511C263.378 191.318 251.18 187.918 236.132 187.918C221.084 187.918 208.885 191.318 208.885 195.511C208.885 199.705 221.084 203.105 236.132 203.105Z" fill="#38488C"/>
<g style="mix-blend-mode:multiply" opacity="0.4">
<path d="M242.777 205.386C258.997 205.386 272.147 200.971 272.147 195.523C272.147 190.076 258.997 185.66 242.777 185.66C226.556 185.66 213.406 190.076 213.406 195.523C213.406 200.971 226.556 205.386 242.777 205.386Z" fill="#A8C4E5"/>
</g>
<path d="M236.132 199.566C251.18 199.566 263.378 196.166 263.378 191.972C263.378 187.779 251.18 184.379 236.132 184.379C221.084 184.379 208.885 187.779 208.885 191.972C208.885 196.166 221.084 199.566 236.132 199.566Z" fill="#2B3872"/>
<path d="M214.122 188.754C214.122 188.754 212.927 192.825 220.603 194.794C228.279 196.764 238.335 197.698 258.504 190.855L214.122 188.754Z" fill="#1D2C63"/>
<path d="M257.962 188.624H214.123L214.92 185.738H257.166L257.962 188.624Z" fill="#232851"/>
<path d="M257.962 188.832C257.962 188.832 251.895 194.876 236.106 194.695C221.379 194.523 214.123 188.832 214.123 188.832L214.92 185.947L216.476 180.308L217.42 176.895L218.811 171.863L221.492 162.165L222.884 157.132L232.661 121.754H239.424L243.006 134.72L249.202 157.132L250.59 162.165L253.271 171.863L254.662 176.895L257.166 185.947L257.962 188.832Z" fill="#4656A1"/>
<path d="M257.962 188.753H214.123L214.92 185.864L216.476 180.228C247.026 178.424 243.006 134.641 243.006 134.641L257.166 185.864L257.962 188.753Z" fill="#38488C"/>
<path d="M250.588 161.953C250.588 161.953 244.107 188.213 221.846 192.642C221.846 192.642 225.811 195.442 242.535 194.82C254.547 194.373 258.012 188.755 258.012 188.755L250.588 161.953Z" fill="#2B3872"/>
<path d="M235.634 167.253C230.549 167.278 225.472 166.843 220.466 165.951L219.164 170.662C224.042 171.667 229.913 172.193 235.634 172.193C241.677 172.193 247.891 171.615 252.913 170.497L251.617 165.801C246.349 166.803 240.996 167.29 235.634 167.253Z" fill="white"/>
<path d="M247.12 149.602L245.796 144.82C239.305 145.534 232.757 145.563 226.259 144.906L224.936 149.703C228.485 150.111 232.054 150.316 235.626 150.315C239.469 150.318 243.308 150.08 247.12 149.602Z" fill="white"/>
<path d="M236.03 122.754C237.901 122.754 239.419 122.332 239.419 121.811C239.419 121.29 237.901 120.867 236.03 120.867C234.158 120.867 232.641 121.29 232.641 121.811C232.641 122.332 234.158 122.754 236.03 122.754Z" fill="#1D2C63"/>
<g style="mix-blend-mode:multiply" opacity="0.4">
<path d="M107.696 224.888C97.8911 219.069 81.8807 218.863 71.9343 224.438C61.988 230.013 61.8684 239.254 71.6738 245.08C81.4793 250.906 97.3119 251.108 107.445 245.647C118.584 239.64 117.499 230.711 107.696 224.888Z" fill="#A8C4E5"/>
</g>
<path d="M99.6221 223.628C90.3131 218.096 75.1085 217.906 65.6586 223.202C56.2086 228.499 56.0983 237.271 65.4103 242.806C74.7224 248.341 89.7615 248.534 99.3861 243.345C109.964 237.639 108.934 229.16 99.6221 223.628Z" fill="#37498C"/>
<path d="M59.0296 227.291C59.1338 227.315 58.2422 228.274 58.2422 228.274L58.472 233.371L78.0399 243.785L106.886 233.677L106.58 227.141L59.0296 227.291Z" fill="#37498C"/>
<path d="M99.2771 217.856C89.9681 212.324 74.7636 212.131 65.3136 217.428C55.8637 222.724 55.7565 231.499 65.0655 237.031C74.3745 242.563 89.4166 242.756 99.0412 237.567C109.613 231.864 108.583 223.385 99.2771 217.856Z" fill="#4757A1"/>
<path d="M84.9525 237.016C84.5231 237.047 84.0958 236.932 83.7394 236.691C83.383 236.449 83.1183 236.095 82.9878 235.685L78.1267 220.392C78.0506 220.152 78.0226 219.899 78.0442 219.648C78.0658 219.397 78.1366 219.153 78.2526 218.929C78.3687 218.706 78.5276 218.507 78.7204 218.345C78.9132 218.183 79.1361 218.06 79.3763 217.984C79.6165 217.908 79.8693 217.88 80.1203 217.902C80.3714 217.923 80.6157 217.994 80.8393 218.11C81.063 218.226 81.2616 218.385 81.4238 218.578C81.5861 218.77 81.7087 218.993 81.7848 219.233L86.6432 234.523C86.7972 235.008 86.7523 235.534 86.5185 235.985C86.2847 236.437 85.8811 236.777 85.3964 236.931C85.2526 236.978 85.1034 237.006 84.9525 237.016Z" fill="white"/>
<path d="M73.0186 230.746C72.5008 230.781 71.9892 230.616 71.5888 230.286C71.1884 229.955 70.9295 229.484 70.8652 228.969C70.801 228.454 70.9362 227.933 71.2432 227.515C71.5503 227.096 72.0058 226.811 72.5164 226.717L90.1389 223.563C90.6698 223.468 91.2166 223.588 91.659 223.897C92.1013 224.205 92.403 224.677 92.4977 225.208C92.5925 225.739 92.4724 226.287 92.164 226.729C91.8555 227.172 91.384 227.474 90.8531 227.568L73.2335 230.72L73.0186 230.746Z" fill="white"/>
<defs>
<linearGradient id="paint0_linear_437_6873" x1="81.6962" y1="160.263" x2="120.982" y2="160.263" gradientUnits="userSpaceOnUse">
<stop stop-color="white"/>
<stop offset="1" stop-color="#EDEDED"/>
</linearGradient>
<linearGradient id="paint1_linear_437_6873" x1="102.407" y1="127.46" x2="87.8399" y2="125.252" gradientUnits="userSpaceOnUse">
<stop stop-color="white"/>
<stop offset="1" stop-color="#EDEDED"/>
</linearGradient>
</defs>
</svg>
