<svg width="94" height="85" viewBox="0 0 94 85" fill="none" xmlns="http://www.w3.org/2000/svg">
<path d="M29.9782 61.4483L14.8242 63.5586L16.9486 78.6119L32.1026 76.5017L29.9782 61.4483Z" fill="#1F1F86"/>
<path d="M23.5681 67.753L8.41406 69.8633L10.5384 84.9166L25.6924 82.8064L23.5681 67.753Z" fill="#5161CC"/>
<path d="M32.0735 76.5141L25.6625 82.8187L23.2949 67.8888L29.9498 61.4609L32.0735 76.5141Z" fill="#2C2D99"/>
<path d="M8.38477 69.8751L8.46036 69.8071L15.6415 63.3906L29.9496 61.4609L23.2092 68.0787" fill="#1F1F86"/>
<path d="M28.1916 58.3284L21.4712 3.57031L6.92773 5.59488L15.6193 60.0781L20.8065 59.357L21.7821 64.6331L28.1916 58.3284Z" fill="#2C2D99"/>
<path d="M21.7815 64.637L15.061 9.87891L0.517578 11.9035L9.20769 66.3867L21.7815 64.637Z" fill="#5161CC"/>
<path d="M21.3793 3.59375L15.061 9.87712L0.517578 11.9017L6.92712 5.59706L21.3793 3.59375Z" fill="#7284FA"/>
<path d="M59.76 60.9609L58.3966 63.1994L51.1726 61.3052L47.2676 76.0042L62.0634 79.8819L65.9685 65.1843L59.76 60.9609Z" fill="#2C2D99"/>
<path d="M93.303 24.0466C92.9049 21.1521 91.9048 18.3716 90.3664 15.8818C88.8217 13.3798 86.7095 11.147 84.0909 9.24854C81.4723 7.35007 78.2789 5.90494 74.5878 4.93728C72.1965 4.31476 69.714 4.1129 67.2526 4.34083C64.8066 4.55919 62.4049 5.12602 60.1214 6.02393C57.8279 6.93352 55.6727 8.15512 53.7176 9.65371C51.7452 11.1541 49.996 12.9236 48.5218 14.9099L47.666 16.066L56.8582 25.523L58.0705 23.9858C60.1015 21.4115 62.3877 19.496 64.8623 18.2932C67.2241 17.147 69.3236 16.8396 71.2804 17.3539C74.3525 18.1586 76.469 19.6207 77.7541 21.804C79.0391 23.9872 79.303 26.4084 78.5656 29.1867C78.1934 30.6507 77.4444 31.9933 76.392 33.0828C75.195 34.2933 73.7894 35.2808 72.2416 35.9986C70.5302 36.816 68.5334 37.455 66.2757 37.897C63.8005 38.3662 61.2864 38.6034 58.7665 38.6054L57.4572 38.6139L52.2685 58.1413L66.4083 61.8475L69.4462 50.4142C71.6326 50.1433 73.7942 49.7027 75.9114 49.0966C78.46 48.3718 80.8905 47.2868 83.1282 45.8749C85.3759 44.4456 87.3601 42.6437 88.9943 40.5478C90.6787 38.3971 91.9281 35.8229 92.7025 32.8972C93.4903 30.0156 93.6944 27.0072 93.303 24.0466V24.0466Z" fill="#2C2D99"/>
<path d="M44.9623 57.0446L41.0586 71.7422L55.8545 75.62L59.7582 60.9224L44.9623 57.0446Z" fill="#5161CC"/>
<path d="M87.094 19.8244C86.6959 16.9299 85.6958 14.1493 84.1574 11.6596C82.6142 9.15612 80.5019 6.92474 77.8819 5.02627C75.2619 3.1278 72.0699 1.68267 68.3802 0.715015C65.9886 0.0918358 63.5055 -0.110034 61.0436 0.118561C58.5975 0.336416 56.1958 0.903266 53.9124 1.80167C51.6191 2.71161 49.464 3.93319 47.5086 5.43144C45.5362 6.9318 43.787 8.70136 42.3128 10.6877L41.457 11.8438L50.6492 21.2993L51.8615 19.7635C53.8939 17.1892 56.1787 15.2737 58.6533 14.0709C61.0151 12.9247 63.1145 12.6173 65.0713 13.1302C68.1435 13.9364 70.2615 15.397 71.5451 17.5817C72.8287 19.7663 73.094 22.1861 72.3566 24.963C71.9851 26.4272 71.2359 27.77 70.183 28.8591C68.9865 30.0704 67.5807 31.0585 66.0326 31.7763C64.3211 32.5938 62.3244 33.2327 60.0667 33.6734C57.5916 34.1433 55.0774 34.3805 52.5575 34.3817L51.2482 34.3888L46.0595 53.9175L60.1993 57.6238L63.2372 46.1891C65.4238 45.9195 67.5856 45.4789 69.7024 44.8714C72.2512 44.148 74.6818 43.0635 76.9192 41.6511C79.1666 40.2209 81.1507 38.4187 82.7853 36.3227C84.4697 34.172 85.7191 31.5978 86.4935 28.6721C87.2808 25.7914 87.4849 22.7841 87.094 19.8244V19.8244Z" fill="#5161CC"/>
<path d="M62.0629 79.8838L55.8545 75.6604L41.0586 71.7812L47.267 76.0061L62.0629 79.8838Z" fill="#1F1F86"/>
<path d="M66.4152 61.8451L60.2067 57.6203L46.0684 53.9141L52.2754 58.1389L66.4152 61.8451Z" fill="#1F1F86"/>
<path d="M56.8627 25.5267L50.6543 21.3033L52.1889 19.4219L56.8627 25.5267Z" fill="#2C2D99"/>
</svg>
