<svg width="352" height="281" viewBox="0 0 352 281" fill="none" xmlns="http://www.w3.org/2000/svg">
<g clip-path="url(#clip0_444_16520)">
<path d="M263.964 195.43C263.283 193.067 262.164 190.852 260.666 188.901L258.997 186.819C258.45 186.2 257.872 185.615 257.28 185.044C256.323 184.061 255.302 183.142 254.224 182.293C252.847 181.108 251.463 179.929 250.179 178.645C249.688 178.148 249.226 177.623 248.795 177.073C247.408 175.314 247.259 173.388 248.099 171.36C248.598 170.156 249.374 169.124 250.22 168.151C251.161 167.069 252.142 166.018 253.103 164.955C255.189 162.642 257.061 160.171 257.987 157.158C259.954 150.759 259.205 144.736 255.179 139.25C254.067 137.732 252.773 136.372 251.51 134.984C250.468 133.842 249.445 132.686 248.629 131.362C247.54 129.593 247.36 127.714 247.839 125.738C248.227 124.148 248.982 122.717 249.764 121.3C250.971 119.108 252.241 116.954 253.095 114.588C256.7 104.592 251.591 92.4824 240.344 89.4147C233.293 87.4988 226.896 88.9667 221.523 94.0123C218.273 97.0626 216.492 100.931 215.863 105.343C215.209 109.936 216.267 114.171 218.434 118.199C219.375 119.944 220.417 121.641 221.247 123.448C221.726 124.444 222.064 125.501 222.254 126.59C222.582 128.676 221.962 130.514 220.745 132.188C219.748 133.563 218.584 134.792 217.435 136.035C215.984 137.606 214.538 139.196 213.519 141.077C209.726 148.098 209.924 155.013 214.263 161.75C215.485 163.644 217.078 165.24 218.591 166.896C219.508 167.857 220.34 168.895 221.079 169.999C221.527 170.673 221.872 171.411 222.099 172.188C222.532 173.765 222.365 175.234 221.44 176.613C220.549 177.943 219.406 179.031 218.223 180.084C216.022 182.039 213.721 183.881 211.674 186.006C208.737 189.06 206.532 192.522 205.607 196.714C205.522 197.102 205.45 197.503 205.388 197.899C203.999 202.619 203.757 207.602 204.681 212.435C205.605 217.268 207.669 221.81 210.701 225.687C213.732 229.563 217.645 232.661 222.115 234.724C226.584 236.786 231.481 237.754 236.4 237.547C241.319 237.341 246.117 235.965 250.397 233.534C254.677 231.103 258.316 227.687 261.011 223.57C263.706 219.453 265.381 214.753 265.895 209.86C266.409 204.966 265.749 200.021 263.968 195.434L263.964 195.43Z" fill="#BFC5E1"/>
<path d="M236.312 231.848H233.877V255.14H236.312V231.848Z" fill="#BFC5E1"/>
<path d="M299.382 231.411C298.988 230.044 298.342 228.763 297.477 227.634L296.507 226.428C296.19 226.071 295.855 225.732 295.513 225.402C294.959 224.833 294.367 224.301 293.742 223.81C292.946 223.123 292.145 222.452 291.402 221.698C291.117 221.411 290.851 221.107 290.602 220.789C289.799 219.773 289.712 218.656 290.199 217.492C290.504 216.811 290.919 216.184 291.425 215.635C291.97 215.008 292.537 214.403 293.094 213.787C294.301 212.447 295.383 211.017 295.919 209.274C297.058 205.569 296.623 202.088 294.295 198.913C293.631 198.054 292.923 197.23 292.172 196.445C291.551 195.801 290.993 195.1 290.505 194.351C289.875 193.327 289.77 192.239 290.047 191.095C290.271 190.174 290.709 189.35 291.161 188.526C291.86 187.259 292.595 186.005 293.09 184.647C295.176 178.863 292.219 171.849 285.717 170.081C281.642 168.973 277.936 169.823 274.824 172.741C272.944 174.506 271.914 176.745 271.549 179.297C271.161 181.956 271.784 184.405 273.037 186.736C273.58 187.746 274.184 188.727 274.665 189.772C274.942 190.349 275.138 190.961 275.247 191.591C275.441 192.798 275.078 193.86 274.374 194.83C273.779 195.608 273.14 196.352 272.459 197.056C271.619 197.963 270.783 198.884 270.193 199.976C267.998 204.039 268.113 208.039 270.623 211.937C271.33 213.034 272.253 213.957 273.128 214.915C273.658 215.469 274.139 216.068 274.566 216.705C274.826 217.096 275.025 217.523 275.158 217.973C275.291 218.401 275.326 218.854 275.258 219.298C275.191 219.741 275.024 220.163 274.77 220.533C274.237 221.278 273.612 221.954 272.909 222.542C271.636 223.672 270.303 224.737 269.12 225.968C267.42 227.735 266.145 229.738 265.61 232.162C265.559 232.39 265.519 232.619 265.482 232.848C264.679 235.579 264.54 238.462 265.075 241.257C265.61 244.053 266.804 246.68 268.558 248.922C270.312 251.165 272.576 252.956 275.162 254.15C277.747 255.343 280.58 255.903 283.425 255.783C286.271 255.663 289.047 254.868 291.523 253.462C293.999 252.056 296.104 250.08 297.664 247.699C299.223 245.317 300.192 242.599 300.49 239.768C300.789 236.938 300.407 234.077 299.378 231.423L299.382 231.411Z" fill="#BFC5E1"/>
<path d="M284.054 251.09H281.299V265.959H284.054V251.09Z" fill="#BFC5E1"/>
<g style="mix-blend-mode:multiply" opacity="0.6">
<path d="M176 281.003C273.202 281.003 352 278.199 352 274.74C352 271.281 273.202 268.477 176 268.477C78.7979 268.477 0 271.281 0 274.74C0 278.199 78.7979 281.003 176 281.003Z" fill="#DCE7F5"/>
</g>
<path d="M194.111 86.4209C198.887 80.3437 201.484 72.8397 201.484 65.1119V24.0781H92.584V65.1119C92.5841 72.8397 95.1805 80.3437 99.957 86.4209L123.822 116.776C128.484 122.705 131.019 130.028 131.019 137.569C131.019 145.11 128.484 152.433 123.822 158.362L99.957 188.719C95.1803 194.795 92.5838 202.299 92.584 210.026V251.06H201.486V210.022C201.486 202.295 198.889 194.792 194.113 188.715L170.247 158.358C165.585 152.429 163.051 145.106 163.051 137.565C163.051 130.024 165.585 122.701 170.247 116.772L194.111 86.4209Z" fill="#EBEDFF"/>
<path d="M98.7812 220.564V248.511H195.219V221.198L164.229 215.712L157.412 212.41L131.593 215.197L107.117 221.198L98.7812 220.564Z" fill="#F05673"/>
<path d="M257.114 215.619L257.563 215.14C257.563 215.14 258.372 213.704 260.436 213.494C260.436 213.494 262.143 213.135 262.623 213.015C262.623 213.015 263.554 212.786 264.029 212.883C264.074 212.892 264.117 212.91 264.154 212.937C264.19 212.964 264.221 212.998 264.243 213.038C264.265 213.078 264.278 213.122 264.281 213.167C264.284 213.212 264.278 213.258 264.262 213.3C264.177 213.523 263.913 213.853 263.098 214.002L261.721 214.272C263.076 214.684 264.524 214.684 265.88 214.272C265.88 214.272 266.121 213.735 266.391 213.674C266.391 213.674 266.608 212.978 267.213 213.093C267.213 213.093 267.438 213.137 267.371 213.428C267.371 213.428 267.865 213.362 267.819 213.721C267.726 213.924 267.589 214.103 267.418 214.247C267.247 214.39 267.047 214.494 266.831 214.551C266.831 214.551 265.754 216.323 264.833 216.637C264.833 216.637 264.251 217.198 263.643 217.153C263.643 217.153 260.162 217.064 259.266 217.467C258.696 217.549 258.179 217.844 257.819 218.293L256.391 216.525L257.114 215.619Z" fill="#FBCCC9"/>
<path d="M256.176 216.175L254.998 217.18L256.952 219.467L258.13 218.462L256.176 216.175Z" fill="white"/>
<path d="M257.486 219.43L242.036 234.665C241.642 235.054 241.164 235.348 240.639 235.525C240.115 235.701 239.556 235.756 239.007 235.685L237.599 235.503L219.459 233.147L218.702 231.759L211.492 218.491L217.701 220.89C219.835 221.049 223.112 221.836 227.482 224.444C228.15 224.845 228.852 225.187 229.579 225.466L238.755 228.999L255.104 216.746L257.486 219.43Z" fill="#3939AA"/>
<path d="M257.106 250.461L265.405 267.814C265.706 268.445 266.186 268.973 266.784 269.334L271.014 271.882L271.903 274.031H269.489L261.742 269.183L252.219 252.929L257.106 250.461Z" fill="#FBCCC9"/>
<path d="M261.74 269.191C261.74 269.191 259.682 272.174 259.821 275.722L278.409 275.699C278.565 275.698 278.717 275.65 278.845 275.56C278.973 275.47 279.07 275.343 279.123 275.196C279.176 275.049 279.183 274.89 279.142 274.739C279.102 274.588 279.016 274.454 278.896 274.353C278.287 273.847 277.27 273.467 275.598 273.807C275.25 273.876 274.89 273.828 274.573 273.669L271.022 271.883L270.339 272.975L261.74 269.191Z" fill="#3939AA"/>
<path d="M265.439 265.532L260.068 268.076C254.905 260.707 248.572 250.412 246.158 244.269L220.294 270.606L216.829 274.132L204.576 264.63L204.712 264.494L214.883 256.369L222.873 249.986L243.768 233.292C244.347 232.828 245.024 232.503 245.748 232.339C246.472 232.176 247.224 232.179 247.946 232.348C248.669 232.518 249.343 232.849 249.919 233.317C250.494 233.785 250.956 234.378 251.269 235.051L264.313 263.121L265.439 265.532Z" fill="#3939AA"/>
<g style="mix-blend-mode:multiply" opacity="0.4">
<path d="M265.439 265.532L260.068 268.076C254.905 260.707 248.572 250.412 246.158 244.269L220.294 270.606L214.883 256.368L222.873 249.984C223.47 251.995 225.713 257.056 232.597 253.757L245.952 242.47L247.332 239.102V242.677C247.332 242.677 252.695 261.772 264.319 263.114L265.439 265.532Z" fill="#1E3565"/>
</g>
<path d="M221.434 254.343C221.102 252.101 220.871 249.964 221.24 248.239C222.825 240.916 223.21 233.162 220.423 226.063C219.342 223.337 217.26 221.126 214.602 219.883L214.478 220.862L217.166 239.71L217.451 241.717L217.193 246.311L217.173 246.596L216.777 253.651C216.746 254.236 216.677 254.819 216.572 255.396L215.157 263.026C213.838 265.547 213.122 267.781 214.121 268.617L214.032 269.1C214.062 268.943 214.101 268.788 214.148 268.636C214.597 268.993 215.373 269.08 216.574 268.805C223.937 267.104 222.327 260.345 221.434 254.343Z" fill="#1E3565"/>
<g style="mix-blend-mode:multiply" opacity="0.4">
<path d="M220.327 235.293C220.327 235.293 220.475 239.652 218.614 242.371L221.239 259.468C221.239 259.468 221.738 264.865 217.865 265.078L216.08 241.033L220.327 235.293Z" fill="#252781"/>
</g>
<path d="M89.3809 257.976V251.519C89.4042 250.489 89.8304 249.509 90.5681 248.789C91.3058 248.069 92.2963 247.667 93.3274 247.668H200.747C201.777 247.668 202.767 248.07 203.504 248.79C204.241 249.51 204.667 250.489 204.691 251.519V257.976H89.3809Z" fill="#212676"/>
<g style="mix-blend-mode:multiply" opacity="0.5">
<path d="M204.691 251.52H89.3809V257.977H204.691V251.52Z" fill="#321E57"/>
</g>
<path d="M79.252 264.403C79.252 261.575 80.3763 258.862 82.3776 256.862C84.3789 254.862 87.0932 253.738 89.9235 253.738H204.13C206.962 253.738 209.678 254.863 211.681 256.864C213.684 258.866 214.809 261.581 214.809 264.411C214.809 267.242 213.684 269.957 211.681 271.958C209.678 273.96 206.962 275.084 204.13 275.084H89.9312C88.5278 275.085 87.1381 274.81 85.8414 274.273C84.5448 273.737 83.3668 272.95 82.3748 271.958C81.3828 270.966 80.5964 269.788 80.0606 268.491C79.5247 267.195 79.2499 265.806 79.252 264.403Z" fill="#3939AA"/>
<g style="mix-blend-mode:multiply" opacity="0.5">
<path d="M89.9311 258.695H204.137C206.244 258.698 208.283 259.436 209.902 260.781C211.522 262.127 212.622 263.995 213.01 266.064C213.252 264.762 213.205 263.423 212.871 262.142C212.537 260.861 211.924 259.669 211.077 258.651C210.231 257.633 209.17 256.813 207.97 256.251C206.771 255.689 205.462 255.398 204.137 255.398H89.9311C88.6064 255.398 87.2978 255.689 86.0983 256.251C84.8989 256.813 83.838 257.633 82.991 258.651C82.144 259.669 81.5318 260.861 81.1978 262.142C80.8637 263.423 80.8161 264.762 81.0583 266.064C81.447 263.995 82.5461 262.127 84.166 260.781C85.7859 259.436 87.8249 258.698 89.9311 258.695Z" fill="#321E57"/>
</g>
<path d="M186.844 270.295C186.844 270.295 191.943 265.465 195.426 267.448C198.908 269.432 204.13 267.931 205.321 262.525L201.72 250.309L186.844 270.295Z" fill="#375682"/>
<path d="M281.147 263.79L294.779 267.433C295.417 267.604 296.09 267.594 296.723 267.406C297.356 267.218 297.924 266.858 298.365 266.367L300.913 263.528L303.19 263.059L302.74 265.43L296.531 272.128L279.758 269.025L281.147 263.79Z" fill="#FBCCC9"/>
<path d="M296.531 272.13C296.531 272.13 299.075 274.711 302.589 275.232L306.052 256.981C306.081 256.828 306.062 256.669 305.998 256.526C305.933 256.384 305.827 256.265 305.692 256.185C305.558 256.105 305.402 256.069 305.246 256.08C305.09 256.092 304.941 256.151 304.82 256.25C304.211 256.753 303.656 257.679 303.656 259.392C303.659 259.746 303.544 260.092 303.328 260.373L300.907 263.524L301.851 264.398L296.531 272.13Z" fill="#3939AA"/>
<path d="M204.689 17.1016V23.5588C204.666 24.5892 204.24 25.5694 203.502 26.2896C202.764 27.0098 201.774 27.4126 200.743 27.4119H93.3235C92.2927 27.4116 91.303 27.0084 90.5659 26.2884C89.8287 25.5683 89.4027 24.5887 89.3789 23.5588V17.1016H204.689Z" fill="#172F57"/>
<g style="mix-blend-mode:multiply" opacity="0.5">
<path d="M204.689 17.1016H89.3789V23.5588H204.689V17.1016Z" fill="#172F57"/>
</g>
<path d="M214.817 10.6807C214.817 13.5093 213.692 16.222 211.691 18.2221C209.69 20.2222 206.976 21.3459 204.145 21.3459H89.9312C87.0989 21.3459 84.3826 20.2214 82.3798 18.2198C80.3771 16.2183 79.252 13.5036 79.252 10.6729C79.252 7.8423 80.3771 5.12759 82.3798 3.12603C84.3826 1.12447 87.0989 2.82895e-06 89.9312 2.82895e-06H204.138C205.541 -0.00101868 206.931 0.274611 208.227 0.811099C209.524 1.34759 210.702 2.13439 211.694 3.12649C212.686 4.11859 213.472 5.29649 214.008 6.59274C214.544 7.889 214.819 9.27816 214.817 10.6807Z" fill="#3939AA"/>
<g style="mix-blend-mode:multiply" opacity="0.3">
<path d="M204.137 16.3921H89.9311C87.8248 16.3893 85.7856 15.6516 84.1656 14.3062C82.5457 12.9609 81.4466 11.0924 81.0583 9.02344C80.8161 10.3251 80.8637 11.6641 81.1978 12.9453C81.5318 14.2265 82.144 15.4184 82.991 16.4365C83.838 17.4545 84.8989 18.2737 86.0983 18.8357C87.2978 19.3978 88.6064 19.689 89.9311 19.6886H204.137C205.462 19.689 206.771 19.3978 207.97 18.8357C209.17 18.2737 210.231 17.4545 211.077 16.4365C211.924 15.4184 212.537 14.2265 212.871 12.9453C213.205 11.6641 213.252 10.3251 213.01 9.02344C212.622 11.0924 211.523 12.9609 209.903 14.3062C208.283 15.6516 206.244 16.3893 204.137 16.3921Z" fill="#1E3565"/>
</g>
<path opacity="0.3" d="M204.092 1.54297H90.049C88.3077 1.54539 86.6041 2.05026 85.1431 2.99692C83.682 3.94358 82.5254 5.29175 81.8125 6.87943C82.6551 5.97736 83.6744 5.25812 84.8069 4.76641C85.9394 4.27471 87.1611 4.02104 88.3958 4.02117H205.743C206.978 4.02069 208.2 4.2742 209.333 4.76593C210.465 5.25766 211.484 5.97708 212.327 6.87943C211.615 5.29161 210.458 3.94324 208.998 2.99652C207.537 2.0498 205.833 1.54504 204.092 1.54297Z" fill="white"/>
<path opacity="0.3" d="M204.092 273.043H90.049C88.3077 273.041 86.6041 272.536 85.1431 271.59C83.682 270.643 82.5254 269.295 81.8125 267.707C82.6549 268.609 83.6741 269.329 84.8067 269.821C85.9393 270.312 87.161 270.566 88.3958 270.565H205.743C206.978 270.566 208.2 270.313 209.333 269.821C210.465 269.329 211.485 268.61 212.327 267.707C211.615 269.295 210.458 270.643 208.998 271.59C207.537 272.537 205.833 273.041 204.092 273.043Z" fill="white"/>
<path d="M293.834 266.451L292.458 272.367C288.207 271.369 283.533 270.568 278.921 269.846C268.285 268.192 257.966 266.982 253.903 264.805C253.903 264.805 220.166 274.849 213.833 275.262C207.5 275.675 205.158 273.752 205.158 273.752C197.859 269.071 201.547 261.766 201.547 261.766L208.004 261.07L220.133 259.755L250.595 254.713C252.361 254.425 254.169 254.541 255.882 255.053L293.834 266.451Z" fill="#3939AA"/>
<g style="mix-blend-mode:multiply" opacity="0.4">
<path d="M237.598 235.504L219.459 233.148L218.702 231.76L218.268 223.09C218.268 223.09 224.752 225.473 226.308 231.8L237.598 235.504Z" fill="#1E3565"/>
</g>
<path d="M219.944 208.062L218.797 212.873L218.173 215.493L217.253 219.354L217.109 219.959L216.89 220.886L211.981 219.974L210.33 213.953L210.902 211.731L214.366 208.012L219.944 208.062Z" fill="#FBCCC9"/>
<path d="M211.57 261.665C208.707 261.223 206.017 262.475 203.173 262.598C202.853 262.61 202.536 262.54 202.251 262.394C201.967 262.248 201.725 262.031 201.549 261.764C201.368 261.502 201.259 261.198 201.233 260.881C201.206 260.565 201.263 260.246 201.398 259.958C202.049 258.51 202.211 256.888 201.857 255.339C201.712 254.286 201.495 253.166 201.235 251.991C200.769 249.877 200.154 247.6 199.537 245.304C199.149 243.846 198.761 242.378 198.386 240.943C198.089 239.762 197.804 238.616 197.593 237.498C197.059 234.944 197.002 232.315 197.422 229.741C197.788 227.505 198.53 225.346 199.616 223.357C200.346 222.017 201.43 220.061 202.806 218.496C204.323 216.766 207.874 214.468 209.985 214.978C211.421 215.329 212.783 217.722 214.122 219.182C214.405 219.51 214.732 219.799 215.092 220.04C216.008 220.601 216.792 221.354 217.389 222.246C217.552 222.502 217.663 222.688 217.818 222.977C217.925 223.171 218.078 223.478 218.183 223.693L218.268 223.867C218.476 224.311 218.674 224.777 218.85 225.254C219.316 226.445 219.679 227.673 219.937 228.925C219.972 229.103 220.007 229.274 220.036 229.44C220.351 231.089 220.487 232.766 220.443 234.443C220.418 236.148 219.985 237.823 219.18 239.326C218.781 240.061 218.273 240.731 217.673 241.314C217.593 242.483 217.678 243.658 217.925 244.804C218.138 245.799 218.808 250.703 219.035 251.704C219.5 253.827 219.617 256.664 220.094 259.072C220.159 259.403 220.101 259.746 219.931 260.037C219.76 260.329 219.489 260.547 219.168 260.653C217.281 261.267 213.613 262.293 211.57 261.665Z" fill="url(#paint0_linear_444_16520)"/>
<path d="M220.036 229.44C219.762 228.454 219.413 227.49 218.994 226.557C218.354 225.136 217.471 223.837 216.384 222.719L210.113 216.289L214.122 219.182C214.405 219.51 214.732 219.798 215.092 220.039C216.008 220.601 216.792 221.354 217.389 222.246C217.552 222.502 217.663 222.69 217.818 222.979C217.956 223.233 218.134 223.588 218.264 223.869C218.472 224.313 218.67 224.779 218.846 225.256C219.312 226.446 219.675 227.674 219.933 228.926C219.972 229.103 220.007 229.273 220.036 229.44Z" fill="#CDE0EB"/>
<path d="M217.645 219.418L218.977 222.28L217.811 222.978L217.645 219.418Z" fill="#F05673"/>
<path d="M209.828 213.543L208.33 215.026L217.81 222.977L217.643 219.417L209.828 213.543Z" fill="url(#paint1_linear_444_16520)"/>
<g style="mix-blend-mode:multiply">
<path d="M218.537 211.895V211.883C218.538 211.885 218.539 211.887 218.539 211.889C218.539 211.891 218.538 211.894 218.537 211.895Z" fill="#F4D3AF"/>
</g>
<g style="mix-blend-mode:multiply" opacity="0.5">
<path d="M215.285 217.644C215.392 217.397 215.522 217.162 215.673 216.94C216.208 216.163 216.417 215.207 216.255 214.278L215.751 211.344C215.751 211.344 216.176 214.72 214.317 214.906C214.317 214.906 213.929 215.053 213.31 214.749C212.691 214.444 212.037 214.227 211.436 214.749L215.285 217.644Z" fill="#F4B9B6"/>
</g>
<g style="mix-blend-mode:multiply" opacity="0.4">
<path d="M278.921 269.851C268.285 268.197 257.966 266.987 253.903 264.81C253.903 264.81 220.166 274.854 213.833 275.267C207.5 275.68 205.158 273.757 205.158 273.757C197.859 269.076 201.547 261.771 201.547 261.771L208.004 261.075L211.569 261.672C211.569 261.672 211.54 261.723 211.495 261.818C211.017 262.737 210.808 263.773 210.893 264.805C210.978 265.838 211.353 266.825 211.975 267.654C212.597 268.483 213.441 269.119 214.409 269.49C215.377 269.861 216.431 269.95 217.448 269.749L253.595 262.605V259.555L255.246 262.717C255.246 262.717 267.264 267.482 278.921 269.851Z" fill="#1E3565"/>
</g>
<path d="M211.477 243.507C211.477 243.507 205.169 250.31 207.634 256.067C210.016 261.628 210.393 258.954 211.57 261.661C211.328 261.625 211.076 261.607 210.835 261.576C210.709 261.562 210.589 261.549 210.459 261.541C210.418 261.541 210.381 261.541 210.338 261.541C209.32 261.461 208.297 261.593 207.333 261.929C206.091 262.363 204.558 262.532 203.173 262.592C202.853 262.605 202.536 262.534 202.251 262.388C201.967 262.242 201.725 262.025 201.549 261.758C201.368 261.497 201.259 261.192 201.233 260.876C201.206 260.559 201.263 260.241 201.398 259.953C202.049 258.504 202.211 256.883 201.857 255.334C201.712 254.281 201.495 253.16 201.235 251.985L214.384 228.293C214.384 228.293 217.552 236.071 211.477 243.507Z" fill="#CDE0EB"/>
<path d="M213.353 237.428C213.225 237.719 213.08 238.01 212.926 238.306C212.599 238.933 212.241 239.543 211.852 240.133C211.102 241.275 210.274 242.362 209.372 243.387C209.036 243.775 208.691 244.163 208.32 244.55C207.141 245.813 205.879 247.052 204.816 248.403C199.315 255.384 201.531 260.232 186.347 271.351C185.121 268.124 184.972 264.586 185.924 261.268C186.329 259.862 187.119 258.553 187.957 257.329C188.087 257.135 188.217 256.963 188.345 256.779C188.957 255.951 189.637 255.177 190.379 254.463C190.72 254.114 191.056 253.763 191.395 253.383C191.45 253.321 191.506 253.261 191.56 253.189L191.667 253.069C192.154 252.516 193.275 251.277 194.443 250.001C196.164 248.115 197.984 246.123 197.984 246.123C197.312 242.513 196.832 238.87 196.545 235.21C196.49 234.419 196.442 233.62 196.413 232.817C196.659 226.6 199.054 222.346 201.516 219.582C201.904 219.15 202.292 218.752 202.666 218.388C203.639 217.463 204.706 216.644 205.85 215.943C206.543 215.522 207.303 215.226 208.097 215.066L208.322 215.023C214.06 223.23 216.764 230.034 213.353 237.428Z" fill="#3939AA"/>
<path d="M218.625 222.012L218.899 222.502C219.079 222.822 219.343 223.288 219.65 223.922C219.809 224.234 219.984 224.583 220.151 224.965C220.317 225.347 220.519 225.758 220.692 226.212C220.865 226.666 221.08 227.139 221.253 227.655C221.425 228.17 221.641 228.709 221.804 229.283C222.193 230.521 222.517 231.778 222.774 233.049C223.055 234.482 223.249 235.931 223.356 237.387C223.464 238.97 223.448 240.559 223.307 242.14C223.259 242.547 223.224 242.958 223.166 243.369C223.108 243.78 223.026 244.191 222.956 244.604L222.681 245.807C222.589 246.195 222.442 246.637 222.322 247.05C221.809 248.671 221.185 250.152 220.612 251.578C220.059 252.876 219.593 254.209 219.215 255.568C218.914 256.677 218.79 257.827 218.847 258.975C218.878 259.229 218.909 259.481 218.938 259.73C218.967 259.978 219.048 260.214 219.095 260.449C219.122 260.567 219.147 260.684 219.173 260.798C219.198 260.912 219.256 261.027 219.297 261.139C219.361 261.333 219.425 261.512 219.491 261.692L220.166 263.243L220.771 264.323L220.909 264.573L221.074 264.828L221.385 265.308C221.579 265.615 221.759 265.902 221.934 266.152L223.098 267.703L222.636 272.598L217.677 271.512L216.487 269.464C216.307 269.13 216.128 268.746 215.925 268.335C215.824 268.13 215.719 267.917 215.612 267.694L215.447 267.354L215.288 266.966C215.079 266.442 214.857 265.884 214.623 265.295C214.465 264.778 214.301 264.241 214.13 263.683C214.13 263.703 214.058 263.474 214.089 263.563V263.546V263.513L214.075 263.447L214.044 263.315L213.984 263.047C213.945 262.869 213.907 262.689 213.868 262.506L213.751 261.956C213.73 261.762 213.707 261.568 213.685 261.374C213.651 260.986 213.588 260.598 213.583 260.189C213.577 259.78 213.583 259.377 213.583 258.962C213.691 257.292 214.06 255.649 214.677 254.093C215.28 252.602 215.981 251.153 216.776 249.755C217.519 248.397 218.259 247.069 218.847 245.766C218.981 245.442 219.124 245.163 219.258 244.796L219.629 243.753C219.731 243.407 219.832 243.062 219.933 242.718C220.024 242.369 220.096 242.016 220.18 241.665C220.47 240.266 220.651 238.847 220.721 237.42C220.774 236.062 220.747 234.702 220.639 233.348C220.537 232.123 220.37 230.905 220.139 229.698C220.04 229.132 219.918 228.597 219.795 228.089C219.673 227.581 219.543 227.1 219.423 226.648C219.303 226.196 219.161 225.781 219.035 225.394C218.909 225.006 218.79 224.657 218.674 224.344C218.457 223.716 218.247 223.218 218.105 222.879C217.964 222.539 217.89 222.359 217.89 222.359L218.625 222.012Z" fill="#F05673"/>
<path d="M227.711 204.709C227.711 204.691 227.711 204.672 227.711 204.652C227.323 199.774 220.084 196.962 216.153 197.993C212.392 198.982 210.109 206.161 211.764 209.256L220.794 208.48L223.867 209.686L224.742 209.081L224.936 208.961C225.39 208.676 227.878 207.012 227.711 204.709Z" fill="#172F57"/>
<path d="M224.979 211.515C224.639 212.994 223.953 214.102 223.448 213.985C222.944 213.869 222.806 212.576 223.145 211.094C223.485 209.613 224.172 208.505 224.678 208.622C225.185 208.738 225.315 210.033 224.979 211.515Z" fill="white"/>
<path d="M223.205 213.921C223.205 213.921 221.833 217.183 220.1 218.41C220.1 218.41 216.262 216.733 216.095 210.976C216.095 210.976 215.69 211.786 214.718 211.313C214.718 211.313 212.438 210.504 214.524 207.179C214.63 207 214.783 206.853 214.967 206.755C215.151 206.657 215.358 206.611 215.566 206.622C215.977 206.655 216.394 206.917 216.373 207.861L216.858 206.787L215.44 203.149C215.44 203.149 218.445 201.301 223.007 204.468C223.007 204.468 226.026 206.667 223.977 210.764C223.977 210.764 223.761 211.241 223.977 212.075L224.274 212.874C224.274 212.874 224.732 214.336 223.205 213.921Z" fill="#FBCCC9"/>
<path d="M213.611 202.478C214.122 201.068 213.397 199.512 211.991 199.003C210.586 198.495 209.032 199.226 208.521 200.637C208.01 202.048 208.735 203.604 210.141 204.112C211.546 204.621 213.1 203.889 213.611 202.478Z" fill="#172F57"/>
<path d="M223.587 210.98C223.242 212.479 222.547 213.599 222.035 213.481C221.523 213.363 221.387 212.054 221.731 210.553C222.074 209.052 222.769 207.933 223.283 208.052C223.797 208.17 223.931 209.481 223.587 210.98Z" fill="white"/>
<path d="M215.671 216.943C216.205 216.165 216.414 215.21 216.253 214.28L215.749 211.346C217.361 206.63 215.632 206.477 215.632 206.477L215.232 205.199L219.437 205.5L219.466 206.896C217.553 207.784 217.149 210.58 217.149 210.58C216.711 212.548 218.191 213.809 219.695 214.565L222.635 214.495C222.714 214.498 222.793 214.52 222.863 214.558C222.933 214.596 222.994 214.649 223.04 214.714C223.089 214.784 223.124 214.862 223.142 214.945C223.159 215.028 223.16 215.114 223.143 215.197C223.128 215.283 223.097 215.365 223.05 215.438C223.003 215.511 222.941 215.573 222.869 215.622C222.801 215.668 222.724 215.699 222.643 215.711C222.562 215.724 222.479 215.719 222.4 215.696L222.171 217.474L222.198 217.464C222.111 218.07 222.091 218.683 222.138 219.293C222.248 220.619 224.065 222.432 222.677 223.656C221.587 224.625 219.54 224.383 218.329 223.85C215.673 222.661 213.888 219.541 215.671 216.943Z" fill="#172F57"/>
<path d="M210.902 211.732L214.977 210.762L214.234 210.029L215.433 207.933C215.68 207.475 216.053 207.099 216.509 206.848C216.965 206.598 217.483 206.484 218.002 206.521C218.504 206.576 218.995 206.702 219.461 206.897C219.461 206.897 220.8 207.533 221.131 206.255C221.399 205.222 221.325 205.111 222.296 204.704C222.296 204.704 213.758 198.631 211.624 207.283C211.453 207.985 211.124 210.215 210.902 211.732Z" fill="#3B4670"/>
<path d="M214.707 211.306C214.707 211.306 212.355 210.472 214.513 207.04C214.621 206.854 214.779 206.701 214.969 206.599C215.158 206.496 215.372 206.448 215.588 206.459C215.976 206.49 216.364 206.714 216.414 207.48C216.414 207.48 216.608 208.45 215.983 209.722C215.978 209.73 215.624 211.077 214.707 211.306Z" fill="#FBCCC9"/>
<path d="M224.398 210.902C224.384 210.974 224.342 211.038 224.282 211.08C224.221 211.122 224.146 211.138 224.074 211.125L216.132 209.645C216.062 209.63 216.001 209.587 215.962 209.527C215.922 209.468 215.908 209.395 215.921 209.324C215.934 209.254 215.974 209.191 216.032 209.15C216.09 209.108 216.162 209.09 216.233 209.1L224.175 210.578C224.247 210.592 224.311 210.633 224.353 210.694C224.395 210.755 224.411 210.829 224.398 210.902Z" fill="white"/>
<path d="M254.469 253.364C254.5 253.55 254.456 253.74 254.347 253.893C254.238 254.047 254.073 254.151 253.887 254.182L228.992 258.295C228.898 258.313 228.802 258.312 228.709 258.293C228.616 258.273 228.528 258.235 228.45 258.18C228.371 258.126 228.305 258.057 228.254 257.976C228.204 257.896 228.169 257.806 228.154 257.712C228.139 257.618 228.142 257.522 228.164 257.43C228.187 257.337 228.227 257.25 228.284 257.174C228.341 257.097 228.412 257.033 228.494 256.984C228.576 256.936 228.666 256.904 228.761 256.891L253.654 252.778C253.84 252.749 254.03 252.794 254.183 252.903C254.335 253.013 254.438 253.179 254.469 253.364Z" fill="#E3E5F2"/>
<path d="M261.561 228.716C261.651 228.744 261.733 228.79 261.805 228.85C261.876 228.91 261.936 228.984 261.979 229.067C262.022 229.15 262.048 229.241 262.056 229.334C262.064 229.427 262.053 229.521 262.025 229.61L254.458 253.655C254.398 253.831 254.271 253.976 254.106 254.06C253.94 254.143 253.748 254.159 253.571 254.103C253.394 254.048 253.245 253.925 253.157 253.762C253.069 253.598 253.049 253.407 253.1 253.229L260.667 229.183C260.724 229.003 260.85 228.852 261.017 228.765C261.185 228.677 261.381 228.66 261.561 228.716Z" fill="#E3E5F2"/>
<path d="M208.328 215.027L206.861 217.62L209.201 218.605L208.093 219.59C208.093 219.59 217.651 227.816 212.686 238.751C212.686 238.751 221.373 228.683 208.328 215.027Z" fill="#252781"/>
<path d="M234.854 251.166C234.854 251.166 235.461 252.717 239.004 253.087L239.443 253.593C239.443 253.593 238.801 253.526 238.768 254.065C238.768 254.065 238.463 254.301 238.632 254.571L239.476 254.873C239.476 254.873 240.058 255.067 240.219 254.941C240.58 254.954 240.935 254.848 241.23 254.639C241.608 254.612 241.965 254.458 242.243 254.2C242.243 254.2 243.019 253.929 242.782 253.324L242.377 252.211L244.654 253.019C244.654 253.019 246.325 254.032 246.476 253.019C246.476 253.019 246.603 252.69 241.694 250.743C241.694 250.743 241.568 250.567 241.112 250.466C241.112 250.466 237.873 249.176 235.648 248.771L232.813 248.418L232.586 250.871L234.854 251.166Z" fill="#FBCCC9"/>
<path d="M233.234 248.316L232.967 251.242L234.047 251.341L234.314 248.415L233.234 248.316Z" fill="white"/>
<g style="mix-blend-mode:multiply" opacity="0.4">
<path d="M199.8 245.742L202.051 247.413L199.373 247.047C196.513 248.886 193.842 251.006 191.402 253.374C191.457 253.312 191.513 253.252 191.567 253.18L191.674 253.06C192.161 252.507 193.282 251.268 194.451 249.992C196.172 248.105 197.992 246.114 197.992 246.114C197.319 242.504 196.839 238.861 196.552 235.201C196.498 234.409 196.449 233.61 196.42 232.808C196.602 228.196 197.972 224.663 199.666 222.018C200.248 221.097 200.737 222.307 201.372 221.596C201.76 221.161 202.73 221.142 203.106 220.777L205.281 244.435L199.55 230.576C199.55 230.576 197.375 238.625 199.8 245.742Z" fill="#1E3565"/>
</g>
<path d="M233.836 248.122L233.528 251.527L210.757 251.081C209.695 251.061 208.667 250.702 207.825 250.054C206.983 249.407 206.372 248.507 206.081 247.486L199.722 225.283C199.376 224.086 199.467 222.805 199.981 221.67C200.494 220.534 201.396 219.619 202.524 219.089C202.959 218.878 203.422 218.73 203.9 218.651C204.552 218.541 205.22 218.563 205.864 218.715C206.508 218.868 207.115 219.147 207.649 219.538C208.183 219.928 208.634 220.422 208.974 220.989C209.314 221.557 209.537 222.186 209.629 222.841L211.649 237.167L212.769 245.118L233.836 248.122Z" fill="#3939AA"/>
<g style="mix-blend-mode:screen" opacity="0.3">
<path d="M211.612 236.912C211.653 237.197 211.645 237.488 211.587 237.771C211.508 238.172 211.282 238.53 210.954 238.774C210.626 239.018 210.218 239.132 209.811 239.093C209.403 239.054 209.025 238.865 208.749 238.562C208.474 238.26 208.32 237.866 208.319 237.456C208.328 236.965 208.393 236.477 208.513 236C208.696 235.246 208.715 234.462 208.568 233.7C207.815 229.81 205.023 228.255 205.023 228.255C201.168 224.833 201.22 222.038 201.765 220.462C201.926 219.997 202.209 219.584 202.585 219.265C202.96 218.946 203.414 218.734 203.899 218.651C204.552 218.541 205.22 218.563 205.864 218.715C206.508 218.868 207.115 219.147 207.649 219.538C208.183 219.928 208.633 220.422 208.973 220.989C209.313 221.557 209.536 222.186 209.629 222.841L211.612 236.912Z" fill="#3F44B3"/>
</g>
<path d="M99.3574 70.7472C99.3574 70.7472 100.669 64.9298 116.529 64.4062C121.056 64.5109 125.555 65.1342 129.94 66.2639C137.032 68.1236 139.352 68.2263 143.349 68.7421L136.826 75.1412L111.114 79.0641L102.215 75.5543L99.3574 70.7472Z" fill="#E23A59"/>
<path d="M140.482 137.965C140.842 137.513 141.294 137.143 141.808 136.877C142.322 136.611 142.886 136.457 143.464 136.424C144.041 136.391 144.62 136.48 145.16 136.685C145.701 136.89 146.193 137.207 146.603 137.614C146.603 137.614 148.53 140.091 150.734 137.614C152.48 135.662 155.226 135.429 156.859 137.298C156.93 128.466 159.924 119.905 165.373 112.951L189.239 82.5957C192.521 78.4028 194.561 73.3734 195.125 68.0794C174.785 52.8961 146.743 66.501 140.286 69.9972C138.969 70.7091 137.615 71.3505 136.23 71.9189C115.056 80.5965 104.187 75.1883 99.3652 70.7554C100.242 75.0715 102.111 79.1248 104.823 82.5957L128.689 112.951C134.198 119.98 137.197 128.649 137.208 137.578C137.208 138.318 137.179 139.057 137.138 139.796C138.239 139.742 139.43 139.286 140.482 137.965Z" fill="#F05673"/>
<path opacity="0.4" d="M164.072 111.93L187.938 81.5731C191.621 76.8749 193.626 71.0805 193.634 65.1119V31.9219H177.86V59.2422C177.861 71.9187 175.379 84.4729 170.553 96.196L164.072 111.93Z" fill="white"/>
<path opacity="0.4" d="M161.801 111.93L168.281 96.1882C173.107 84.4682 175.588 72.7384 175.588 60.0643V31.9219H172.076V65.0188C172.076 65.0188 170.21 90.8227 161.801 111.93Z" fill="white"/>
<path d="M98.9616 221.024C98.8565 220.9 98.7944 220.745 98.7846 220.583C98.7747 220.421 98.8177 220.26 98.907 220.124C98.9963 219.988 99.1272 219.885 99.2801 219.83C99.433 219.775 99.5997 219.77 99.7552 219.818C102.666 220.708 108.273 221.544 115.308 218.249C117.579 217.186 119.667 215.771 121.496 214.057C125.794 210.039 137.72 199.666 146.475 199.513H146.797C154.38 199.319 159.917 204.433 165.55 208.751C171.673 213.442 178.369 216.585 186.095 217.617C189.561 218.08 196.241 219.312 195.135 221.842C195.135 221.842 193.045 225.808 176.631 220.892C176.38 220.818 176.116 220.747 175.855 220.686L158.569 216.55C154.711 215.629 151.223 214.223 147.185 214.163C140.833 214.07 135.06 216.752 129.164 218.732C121.812 221.2 105.491 228.648 98.9616 221.024Z" fill="#E23959"/>
<path d="M141.989 143.046C142.766 143.046 143.395 142.417 143.395 141.64C143.395 140.864 142.766 140.234 141.989 140.234C141.212 140.234 140.582 140.864 140.582 141.64C140.582 142.417 141.212 143.046 141.989 143.046Z" fill="#F05673"/>
<path d="M149.449 141.887C149.449 142.478 149.214 143.045 148.795 143.464C148.377 143.882 147.809 144.117 147.218 144.117C146.626 144.117 146.058 143.882 145.64 143.464C145.221 143.045 144.986 142.478 144.986 141.887V134.59H149.449V141.887Z" fill="#F05673"/>
<path d="M152.615 140.365C152.615 140.924 152.838 141.461 153.234 141.856C153.629 142.252 154.166 142.474 154.726 142.474C155.286 142.474 155.823 142.252 156.219 141.856C156.615 141.461 156.837 140.924 156.837 140.365V135.618L152.615 134.59V140.365Z" fill="#F05673"/>
<path d="M151.563 144.351C151.563 144.581 151.494 144.806 151.367 144.997C151.239 145.189 151.057 145.338 150.844 145.426C150.631 145.514 150.397 145.537 150.171 145.492C149.946 145.447 149.738 145.336 149.575 145.174C149.413 145.011 149.302 144.804 149.257 144.578C149.212 144.352 149.235 144.118 149.323 143.906C149.411 143.693 149.56 143.511 149.752 143.384C149.943 143.256 150.168 143.188 150.399 143.188C150.707 143.188 151.003 143.31 151.222 143.528C151.44 143.746 151.563 144.042 151.563 144.351Z" fill="#F05673"/>
<path d="M154.847 145.757C154.847 145.943 154.793 146.124 154.689 146.279C154.586 146.434 154.44 146.554 154.268 146.626C154.096 146.697 153.907 146.716 153.725 146.679C153.543 146.643 153.375 146.554 153.244 146.422C153.112 146.291 153.023 146.124 152.987 145.941C152.951 145.759 152.969 145.57 153.041 145.399C153.112 145.227 153.233 145.081 153.387 144.978C153.542 144.875 153.724 144.82 153.91 144.82C154.158 144.821 154.396 144.92 154.572 145.095C154.748 145.271 154.846 145.509 154.847 145.757Z" fill="#F05673"/>
<path d="M149.71 149.531C150.305 148.936 150.305 147.971 149.71 147.375C149.114 146.78 148.149 146.78 147.553 147.375C146.957 147.971 146.957 148.936 147.553 149.531C148.149 150.126 149.114 150.126 149.71 149.531Z" fill="#F05673"/>
<path d="M139.942 143.601C139.929 143.965 139.775 144.31 139.512 144.563C139.25 144.816 138.899 144.957 138.535 144.957C138.17 144.957 137.82 144.816 137.557 144.563C137.295 144.31 137.14 143.965 137.127 143.601V139.273L139.942 136.531V143.601Z" fill="#F05673"/>
<path d="M143.351 146.108C143.351 146.316 143.289 146.52 143.172 146.693C143.056 146.866 142.891 147.001 142.698 147.081C142.505 147.16 142.293 147.181 142.089 147.14C141.884 147.099 141.696 146.998 141.549 146.851C141.401 146.703 141.301 146.515 141.26 146.311C141.22 146.106 141.241 145.894 141.321 145.702C141.401 145.509 141.536 145.344 141.71 145.228C141.883 145.113 142.087 145.051 142.296 145.051C142.435 145.051 142.572 145.078 142.7 145.131C142.828 145.184 142.945 145.262 143.043 145.36C143.141 145.459 143.219 145.575 143.271 145.703C143.324 145.832 143.351 145.969 143.351 146.108Z" fill="#F05673"/>
<path d="M141.794 138.559C141.794 138.677 141.818 138.794 141.863 138.904C141.908 139.013 141.974 139.112 142.058 139.196C142.142 139.279 142.241 139.345 142.35 139.391C142.459 139.436 142.576 139.459 142.695 139.459C142.813 139.459 142.93 139.436 143.039 139.391C143.148 139.345 143.248 139.279 143.331 139.196C143.415 139.112 143.481 139.013 143.526 138.904C143.572 138.794 143.595 138.677 143.595 138.559V135.41H141.713L141.794 138.559Z" fill="#F05673"/>
<path d="M148.991 160.285C150.544 159.635 151.276 157.849 150.625 156.296C149.974 154.743 148.187 154.012 146.634 154.662C145.08 155.313 144.348 157.099 144.999 158.651C145.65 160.204 147.437 160.936 148.991 160.285Z" fill="#F05673"/>
<path d="M144.055 163.339C144.832 163.339 145.462 162.71 145.462 161.933C145.462 161.157 144.832 160.527 144.055 160.527C143.278 160.527 142.648 161.157 142.648 161.933C142.648 162.71 143.278 163.339 144.055 163.339Z" fill="#F05673"/>
<path d="M142.655 152.988C143.432 152.988 144.061 152.358 144.061 151.582C144.061 150.805 143.432 150.176 142.655 150.176C141.878 150.176 141.248 150.805 141.248 151.582C141.248 152.358 141.878 152.988 142.655 152.988Z" fill="#F05673"/>
<path d="M149.905 166.853C150.03 166.087 149.509 165.364 148.743 165.24C147.976 165.115 147.253 165.635 147.128 166.401C147.003 167.168 147.524 167.89 148.291 168.015C149.058 168.139 149.78 167.619 149.905 166.853Z" fill="#F05673"/>
<path d="M140.118 158.267C140.118 158.4 140.078 158.531 140.004 158.643C139.929 158.754 139.824 158.841 139.7 158.892C139.576 158.943 139.44 158.956 139.309 158.93C139.177 158.904 139.057 158.84 138.962 158.745C138.867 158.65 138.803 158.53 138.777 158.399C138.751 158.267 138.764 158.131 138.815 158.008C138.866 157.884 138.953 157.778 139.065 157.704C139.176 157.63 139.307 157.59 139.441 157.59C139.62 157.59 139.793 157.661 139.92 157.788C140.047 157.915 140.118 158.087 140.118 158.267Z" fill="#F05673"/>
<path d="M145.464 174.008C145.465 174.217 145.403 174.422 145.287 174.596C145.171 174.77 145.006 174.906 144.813 174.986C144.619 175.066 144.407 175.087 144.201 175.047C143.996 175.006 143.807 174.905 143.659 174.757C143.511 174.609 143.411 174.421 143.37 174.216C143.329 174.01 143.35 173.798 143.43 173.605C143.511 173.411 143.647 173.246 143.821 173.13C143.995 173.014 144.2 172.953 144.409 172.953C144.689 172.953 144.957 173.064 145.155 173.262C145.353 173.46 145.464 173.728 145.464 174.008Z" fill="#F05673"/>
<path d="M147.811 181.277C147.811 181.392 147.777 181.505 147.713 181.6C147.649 181.696 147.558 181.77 147.451 181.814C147.345 181.858 147.228 181.87 147.115 181.848C147.002 181.825 146.898 181.77 146.817 181.688C146.736 181.607 146.68 181.503 146.658 181.39C146.635 181.278 146.647 181.161 146.691 181.054C146.735 180.948 146.809 180.857 146.905 180.793C147.001 180.729 147.113 180.695 147.229 180.695C147.383 180.695 147.531 180.757 147.64 180.866C147.749 180.975 147.811 181.123 147.811 181.277Z" fill="#F05673"/>
<path d="M149.1 189.249C149.423 189.249 149.686 188.987 149.686 188.664C149.686 188.34 149.423 188.078 149.1 188.078C148.776 188.078 148.514 188.34 148.514 188.664C148.514 188.987 148.776 189.249 149.1 189.249Z" fill="#F05673"/>
<path d="M144.986 192.144C144.986 192.259 144.952 192.372 144.888 192.467C144.824 192.563 144.733 192.638 144.627 192.682C144.521 192.726 144.404 192.737 144.291 192.715C144.178 192.692 144.074 192.637 143.993 192.555C143.911 192.474 143.856 192.371 143.833 192.258C143.811 192.145 143.823 192.028 143.867 191.922C143.911 191.815 143.985 191.724 144.081 191.661C144.177 191.597 144.289 191.562 144.404 191.562C144.559 191.562 144.707 191.624 144.816 191.733C144.925 191.842 144.986 191.99 144.986 192.144Z" fill="#F05673"/>
<path d="M151.797 141.765C151.797 141.88 151.763 141.993 151.699 142.088C151.635 142.184 151.544 142.259 151.438 142.303C151.331 142.347 151.214 142.358 151.101 142.336C150.988 142.313 150.885 142.258 150.803 142.177C150.722 142.095 150.666 141.992 150.644 141.879C150.622 141.766 150.633 141.649 150.677 141.543C150.721 141.436 150.796 141.346 150.891 141.282C150.987 141.218 151.1 141.184 151.215 141.184C151.369 141.184 151.517 141.245 151.626 141.354C151.736 141.463 151.797 141.611 151.797 141.765Z" fill="#F05673"/>
<path d="M146.52 146.461C146.52 146.576 146.486 146.688 146.422 146.784C146.358 146.879 146.267 146.954 146.16 146.998C146.054 147.042 145.937 147.054 145.824 147.031C145.711 147.009 145.607 146.953 145.526 146.872C145.445 146.791 145.389 146.687 145.367 146.574C145.344 146.461 145.356 146.344 145.4 146.238C145.444 146.132 145.518 146.041 145.614 145.977C145.71 145.913 145.822 145.879 145.938 145.879C146.092 145.879 146.24 145.94 146.349 146.049C146.458 146.158 146.52 146.306 146.52 146.461Z" fill="#F05673"/>
<path d="M153.179 137.065C153.179 137.33 153.101 137.589 152.953 137.81C152.806 138.031 152.596 138.203 152.351 138.304C152.105 138.406 151.835 138.432 151.575 138.381C151.314 138.329 151.075 138.201 150.887 138.013C150.7 137.826 150.572 137.587 150.52 137.326C150.468 137.066 150.495 136.796 150.596 136.551C150.698 136.306 150.87 136.096 151.091 135.949C151.312 135.801 151.571 135.723 151.837 135.723C152.193 135.723 152.534 135.864 152.786 136.116C153.038 136.367 153.179 136.709 153.179 137.065Z" fill="#F05673"/>
<path d="M70.6738 230.191L84.1878 239.163C85.1871 239.628 85.6353 241.032 85.8468 242.097C85.9809 242.816 86.0161 243.55 85.9515 244.278L87.2282 245.649L88.0354 243.923C88.0354 243.923 91.0544 239.9 87.0788 236.727C79.3953 230.594 72.9362 225.48 72.9362 225.48L70.6738 230.191Z" fill="#FBCCC9"/>
<path d="M87.0809 236.722C87.0809 236.722 90.0805 236.334 92.6339 237.643L86.3901 250.615C86.3256 250.756 86.2156 250.87 86.078 250.941C85.9404 251.011 85.7831 251.033 85.6315 251.003C85.4778 250.976 85.3373 250.899 85.232 250.784C85.1267 250.669 85.0625 250.523 85.0494 250.367C85.0067 249.813 85.1678 249.109 85.7848 248.261C85.9749 248 86.0719 247.683 86.0603 247.36L85.94 244.282L86.9683 244.168L87.0809 236.722Z" fill="#F05673"/>
<path d="M86.7012 230.577C86.7621 230.772 86.7732 230.98 86.7336 231.181C86.6939 231.382 86.6048 231.571 86.4741 231.729L86.4528 231.754C86.2177 232.041 86.0386 232.37 85.925 232.723C85.2595 234.75 83.9207 238.085 80.6611 240.707C80.6611 240.707 79.8598 242.977 78.2649 240.307C78.2649 240.307 77.1589 238.987 75.1721 237.038C74.0079 235.898 72.5488 234.538 70.8259 233.111C67.314 230.396 63.8894 227.528 60.9848 225.097C58.0802 222.665 55.6937 220.672 54.2637 219.692C53.8047 219.379 53.4209 218.969 53.1398 218.49C52.8587 218.011 52.6873 217.475 52.6379 216.922C52.5886 216.369 52.6625 215.812 52.8544 215.291C53.0462 214.769 53.3513 214.297 53.7476 213.908L81.0259 187.105L96.4801 191.178L82.8264 201.455L63.1754 216.243C66.4738 218.182 68.6896 219.822 72.6827 222.39L74.2078 223.381L74.231 223.394C75.2477 224.063 76.2606 224.73 77.2443 225.399C77.2443 225.399 83.3658 229.38 85.8649 229.859C86.0563 229.892 86.2353 229.976 86.3827 230.102C86.53 230.228 86.6401 230.393 86.7012 230.577Z" fill="#3939AA"/>
<path d="M82.9248 158.547C82.9248 158.547 83.0489 159.98 83.1945 161.739C83.2701 162.669 83.3516 163.689 83.4215 164.647C83.4331 164.785 83.4428 164.919 83.4525 165.053L78.5262 184.31C78.5262 184.31 71.45 197.029 84.4343 197.316L86.8228 167.731L87.0944 164.362L85.6334 163.449L82.9248 158.547Z" fill="#14274D"/>
<g style="mix-blend-mode:multiply" opacity="0.3">
<path d="M86.4738 231.719L86.4524 231.744C86.2173 232.031 86.0383 232.36 85.9247 232.713C85.2591 234.74 83.9204 238.075 80.6607 240.697C80.6607 240.697 79.8594 242.967 78.2645 240.297C78.2645 240.297 77.1585 238.977 75.1717 237.028C76.1127 225.975 61.9138 217.169 61.9138 217.169L58.3379 215.517H61.3608L74.0308 204.507L80.7771 188.957L82.8222 201.435L63.1711 216.223C66.4696 218.162 68.6854 219.803 72.6784 222.37L74.2035 223.361L74.2268 223.375C75.2435 224.044 76.2563 224.711 77.24 225.38C77.24 225.38 83.3616 229.361 85.8606 229.84C86.0542 229.874 86.2346 229.961 86.3818 230.092C86.529 230.222 86.6373 230.39 86.6949 230.578C86.7546 230.772 86.7656 230.977 86.7271 231.176C86.6885 231.375 86.6015 231.561 86.4738 231.719Z" fill="#1E3465"/>
</g>
<path d="M89.1536 137.273L84.0391 138.355C84.0391 138.355 85.7193 143.808 86.086 149.149C86.1346 149.869 86.0491 150.592 85.8338 151.282C85.4512 152.443 84.9976 153.579 84.4756 154.685C84.091 155.515 83.9815 156.446 84.1629 157.342C84.3443 158.239 84.8072 159.054 85.4842 159.669C86.1613 160.285 87.0171 160.668 87.9273 160.764C88.8374 160.86 89.7544 160.663 90.5448 160.202C94.4894 158.055 97.491 146.015 89.1536 137.273Z" fill="#382849"/>
<g style="mix-blend-mode:multiply" opacity="0.5">
<path d="M84.9658 163.677L84.7718 165.131L77.1504 171.213L81.5044 165.034L81.2269 163.095C80.575 159.657 81.9176 157.902 81.9176 157.902L84.9658 163.677Z" fill="#1E3465"/>
</g>
<path d="M86.5319 151.582L84.9661 163.682L84.772 165.136L77.1507 171.218L71.4657 175.751C71.1125 176.033 70.6976 176.227 70.2549 176.317C69.8123 176.407 69.3545 176.392 68.9191 176.271C68.4837 176.151 68.0831 175.929 67.7501 175.624C67.417 175.319 67.161 174.939 67.0031 174.516L65.4004 170.227C66.2755 170.186 67.8044 169.839 69.2169 168.179C69.539 168.774 69.6923 169.054 70.026 169.664C70.026 169.664 70.026 169.664 70.0396 169.664L86.5319 151.582Z" fill="#3939AA"/>
<path d="M69.2204 168.178C67.3616 164.777 62.9746 156.757 62.9727 156.737C62.9319 156.402 63.1434 155.531 63.2307 154.532C63.254 154.244 63.3006 153.871 63.3142 153.538C63.3278 153.204 63.3142 152.888 63.2055 152.762C62.9979 152.494 61.9948 151.919 61.6533 151.68C61.5867 151.623 61.5017 151.591 61.4137 151.591C61.3257 151.591 61.2406 151.623 61.174 151.68C61.174 151.68 59.0165 148.102 58.9874 148.06C58.8457 147.821 58.4499 147.749 58.2811 147.982C58.1123 148.215 58.3102 148.614 58.4247 148.847L59.5889 151.41C59.5889 151.424 59.5889 151.43 59.5889 151.443C59.4585 151.43 59.3268 151.449 59.206 151.5C59.0852 151.551 58.9793 151.632 58.8981 151.734C58.7623 151.909 58.8399 152.207 59.0029 152.609C58.8813 152.553 58.7447 152.54 58.6148 152.572C58.3044 152.648 58.1395 153.113 58.3568 153.495C58.1959 153.471 58.0321 153.511 57.9003 153.606C57.7686 153.702 57.6796 153.845 57.6525 154.005C57.6175 154.292 58.0308 154.748 58.2986 155.136C58.4926 155.434 58.7545 155.795 58.9815 156.07C59.032 156.13 59.0824 156.187 59.129 156.237C59.6121 156.764 60.6308 157.594 60.7957 157.941C60.7957 157.941 60.8073 157.963 60.8151 157.974L65.3941 170.23C66.2828 170.183 67.8117 169.834 69.2204 168.178Z" fill="#FBCCC9"/>
<path d="M94.629 166.582L93.8398 171.152L95.7461 171.481L96.5353 166.91L94.629 166.582Z" fill="white"/>
<path d="M65.9805 251.871L63.7434 267.931C63.757 269.032 62.684 270.045 61.8167 270.696C61.2262 271.129 60.5793 271.478 59.8939 271.736L59.2109 273.481L61.1182 273.461C61.1182 273.461 66.0543 274.431 67.1932 269.482C69.3954 259.903 71.2037 251.873 71.2037 251.873L65.9805 251.871Z" fill="#FBCCC9"/>
<path d="M67.193 269.484C67.193 269.484 68.8461 272.017 68.7685 274.885H54.3756C54.222 274.885 54.0727 274.834 53.9514 274.74C53.8301 274.646 53.7438 274.514 53.7062 274.365C53.6657 274.216 53.6755 274.057 53.734 273.914C53.7926 273.771 53.8967 273.65 54.0302 273.572C54.5114 273.293 55.2177 273.134 56.2479 273.322C56.5663 273.381 56.8954 273.33 57.1812 273.178L59.8976 271.74L60.4467 272.616L67.193 269.484Z" fill="#F05673"/>
<path d="M94.2675 146.585C94.2675 146.585 87.1932 145.586 83.6367 158.413L85.8797 156.897L94.2675 146.585Z" fill="#14274D"/>
<path d="M98.7639 191.319C98.7408 191.675 98.6909 192.029 98.6145 192.378C98.5777 192.553 98.533 192.721 98.4826 192.886C98.4321 193.051 98.3798 193.2 98.3177 193.353C98.3137 193.374 98.3065 193.394 98.2963 193.412C98.2401 193.559 98.178 193.704 98.1023 193.84C97.4562 195.244 96.4084 196.462 95.2462 197.639L94.4701 198.415C94.3382 198.539 94.2062 198.671 94.0685 198.802L93.271 199.578C93.0072 199.838 92.7433 200.102 92.4949 200.365C91.5955 201.262 90.809 202.264 90.153 203.352C89.6777 204.168 89.2275 205.002 88.7812 205.836C88.3098 206.72 87.8557 207.616 87.4231 208.512C87.3086 208.742 87.1922 208.975 87.0796 209.206C85.6089 212.256 84.2876 215.37 83.0574 218.514C82.9779 218.707 82.9042 218.901 82.8304 219.095C81.7012 222.016 80.1859 225.081 79.5087 228.155C79.5087 228.155 77.2114 239.086 74.2292 249.821C74.0585 250.424 73.8897 251.031 73.717 251.63C73.717 251.63 73.717 251.645 73.717 251.653C73.3697 252.863 73.0185 254.065 72.6595 255.242C72.6595 255.242 70.6009 262.499 70.8939 265.109C70.9184 265.311 70.8873 265.515 70.8038 265.701C70.7204 265.887 70.5878 266.046 70.4205 266.162C70.2458 266.282 70.044 266.356 69.8333 266.378C69.6225 266.401 69.4096 266.37 69.2136 266.29L69.1845 266.278C68.8304 266.132 68.4518 266.055 68.0689 266.051C65.8628 266.012 62.1627 265.716 58.5615 263.305C58.5615 263.305 56.076 263.21 58.2239 260.815C58.2239 260.815 60.6531 257.054 63.0571 251.273C66.2663 242.687 70.4302 232.157 71.4799 228.74C77.0737 210.55 81.1308 186.855 81.1308 186.855L87.5822 187.631L91.7712 188.139L95.1919 188.556L98.5583 188.961C98.7427 189.733 98.812 190.528 98.7639 191.319Z" fill="#3939AA"/>
<path d="M98.548 188.962C95.7909 189.776 92.116 190.172 87.8765 189.35C85.5083 188.888 83.2087 188.126 81.0332 187.083C82.7406 180.125 83.2761 179.817 82.9405 173.042C82.8189 170.038 83.2497 167.037 84.2114 164.188C83.9216 163.898 83.647 163.593 83.3887 163.274C83.3751 163.253 83.3538 163.228 83.3421 163.206C82.339 161.733 81.6075 160.003 81.7142 158.842C81.9393 156.375 84.9196 154.325 86.2079 153.204C88.0725 151.585 89.0446 150.73 90.2611 149.171C92.0074 146.939 94.4618 146.082 97.0521 145.778C99.0816 145.541 101.061 145.25 101.338 145.44C101.373 145.465 113.106 153.585 103.666 171.25C101.961 173.336 100.327 177.007 99.2718 179.319C98.5325 180.932 98.321 182.384 97.8359 184.095C97.6148 184.87 97.6788 186.722 97.8554 187.052C97.9854 187.841 98.2259 188.564 98.548 188.962Z" fill="url(#paint2_linear_444_16520)"/>
<g style="mix-blend-mode:multiply" opacity="0.3">
<path d="M98.4009 193.082C98.3718 193.168 98.3466 193.259 98.3136 193.342C98.3097 193.363 98.3025 193.382 98.2923 193.4C98.236 193.548 98.1739 193.693 98.0982 193.829C97.4521 195.233 96.4044 196.451 95.2422 197.628L94.466 198.403C94.3341 198.528 94.2022 198.659 94.0644 198.791L93.267 199.567C93.0031 199.827 92.7392 200.09 92.4909 200.354C91.5914 201.25 90.8049 202.253 90.1489 203.34C89.6736 204.157 89.2234 204.991 88.7772 205.824C88.3057 206.709 87.8517 207.605 87.419 208.5C87.3045 208.731 87.1881 208.964 87.0756 209.195C85.6048 212.245 84.2835 215.359 83.0534 218.502C82.9738 218.696 82.9001 218.89 82.8264 219.084C81.6971 222.004 80.1818 225.07 79.5046 228.144C79.5046 228.144 77.2073 239.075 74.2251 249.81C74.0544 250.413 73.8856 251.02 73.7129 251.619C76.0257 240.544 76.3982 230.025 76.3982 230.025L74.2639 227.581L76.9396 228.566L87.06 200.325C90.8028 196.321 89.1516 194.785 89.1516 194.785C88.5366 194.038 88.1013 193.16 87.8793 192.219C87.6572 191.278 87.6544 190.298 87.8711 189.355C90.5019 189.875 93.2023 189.941 95.8553 189.549L98.4009 193.082Z" fill="#1E3465"/>
</g>
<path d="M104.4 195.614H104.39C104.687 194.731 104.737 193.784 104.534 192.874C104.229 191.517 103.399 190.323 102.458 189.165C100.447 186.679 97.9386 184.369 99.0484 181.065C100.116 177.887 101.41 175.636 103.063 172.799C103.432 172.166 103.778 171.539 104.101 170.918C109.908 159.799 108.907 150.285 101.33 145.449C101.974 145.862 102.054 148.185 101.994 148.8C101.714 151.676 97.7931 151.532 95.6433 151.943C94.7042 152.123 93.8638 152.641 93.282 153.4C85.1697 163.96 86.1204 177.2 90.0398 189.357C90.1931 189.834 90.3619 190.303 90.5442 190.757C91.9393 193.534 94.3782 195.281 96.9937 196.442L103.203 198.793L104.4 195.614Z" fill="#3939AA"/>
<g style="mix-blend-mode:multiply" opacity="0.5">
<path d="M97.7177 164.999L98.6995 173.457C98.6995 173.457 95.0266 178.947 97.0697 183.787C98.6374 187.499 101.301 188.775 102.458 189.166C100.448 186.68 97.9389 184.371 99.0488 181.067C100.116 177.888 101.41 175.637 103.063 172.8C103.432 172.168 103.778 171.541 104.101 170.919L99.625 152.691C99.625 152.691 95.5097 152.624 97.7177 164.999Z" fill="#1E3465"/>
</g>
<g style="mix-blend-mode:multiply">
<path d="M98.5473 188.961C95.7902 189.775 92.1153 190.171 87.8758 189.349L87.5227 187.778C86.5526 183.853 86.3062 179.506 86.5215 175.502C86.6015 174.134 86.772 172.774 87.0318 171.429C87.0726 171.206 87.4199 170.266 87.2976 170.035C87.4412 170.283 95.1926 182.754 97.8604 187.043C97.9846 187.84 98.2252 188.563 98.5473 188.961Z" fill="#D0DCEC"/>
</g>
<path d="M101.331 145.449C101.331 145.449 92.2546 150.037 88.083 158.829C88.083 158.829 87.7473 153.704 94.2647 146.599L101.331 145.449Z" fill="#FBCCC9"/>
<path d="M98.6808 146.835L92.6951 150.072L92.2372 148.078L91.3195 144.06L90.6016 140.931L97.0161 139.445L98.6808 146.835Z" fill="#FBCCC9"/>
<path d="M102.87 136.919C102.855 137.14 102.837 137.268 102.837 137.268C102.144 137.503 101.438 137.702 100.725 137.866C97.3213 138.641 95.6488 138.06 95.6488 138.06L94.7446 138.186L93.3864 138.38L86.1531 140.288C85.9918 140.517 85.7695 140.696 85.5115 140.804C85.2534 140.913 84.9699 140.948 84.6933 140.903C84.4167 140.859 84.1581 140.738 83.9469 140.554C83.7357 140.37 83.5804 140.131 83.4988 139.863C83.3952 139.523 83.4144 139.158 83.5531 138.831C83.3536 138.795 83.1649 138.713 83.0012 138.593C82.8376 138.474 82.7032 138.318 82.6082 138.139C81.6846 136.756 83.4425 132.826 84.8861 130.964C84.9559 130.873 85.0258 130.786 85.0976 130.699C90.1714 124.445 96.1028 127.439 96.1028 127.439C96.1629 127.429 96.2211 127.425 96.2793 127.42C96.4051 127.359 96.5347 127.307 96.6674 127.264C97.1629 127.113 97.6904 127.1 98.1928 127.227C98.6952 127.353 99.1536 127.614 99.5186 127.982C99.8835 128.349 100.141 128.809 100.264 129.312C100.386 129.815 100.369 130.342 100.214 130.836C103.016 131.887 102.958 135.744 102.87 136.919Z" fill="#4A3649"/>
<g style="mix-blend-mode:multiply" opacity="0.7">
<path d="M92.6242 145.596L92.2361 148.076L91.3184 144.06L93.7941 142.43C93.7941 142.43 94.2074 144.423 92.6242 145.596Z" fill="#472734"/>
</g>
<path d="M89.0616 137.592C89.0616 137.592 87.5094 138.135 87.4978 138.135C86.9913 138.173 86.8303 137.774 86.97 137.529C86.9916 137.492 87.0234 137.462 87.0616 137.443C87.0997 137.423 87.1427 137.415 87.1854 137.419L89.0616 137.592Z" fill="#30102E"/>
<path d="M87.2355 137.727C87.478 139.063 87.1559 140.247 86.5157 140.356C85.8754 140.465 85.1575 139.482 84.9188 138.145C84.6802 136.809 85.0003 135.625 85.6387 135.516C86.277 135.407 86.993 136.389 87.2355 137.727Z" fill="white"/>
<path d="M87.5545 132.312C87.4407 132.288 87.3223 132.302 87.2172 132.352C87.1122 132.402 87.0262 132.484 86.9724 132.587L86.0547 134.333C85.8752 134.735 85.7787 135.17 85.771 135.611C85.7634 136.052 85.8447 136.489 86.0101 136.898L86.0333 136.956C86.0839 137.081 86.1064 137.215 86.0994 137.349C86.0923 137.483 86.0559 137.613 85.9926 137.732L84.6014 140.28C84.5674 140.344 84.5478 140.414 84.5437 140.487C84.5397 140.559 84.5515 140.631 84.5781 140.699C84.6033 140.766 84.643 140.826 84.6943 140.876C84.7457 140.925 84.8074 140.963 84.875 140.986L85.8723 141.306L86.1537 141.694C86.0764 141.72 86.0089 141.77 85.9596 141.835C85.8864 141.939 85.8548 142.066 85.8709 142.192C85.8871 142.318 85.9499 142.434 86.0469 142.516C86.0996 142.561 86.1622 142.593 86.2296 142.609C86.297 142.626 86.3674 142.626 86.435 142.611C86.3943 142.71 86.3859 142.82 86.411 142.924C86.436 143.028 86.4933 143.122 86.5747 143.192C86.6199 143.232 86.673 143.263 86.7305 143.281C86.788 143.299 86.8488 143.306 86.9088 143.299C86.9689 143.293 87.027 143.274 87.0794 143.244C87.1317 143.214 87.1773 143.173 87.213 143.125L87.6535 143.722C87.6535 143.722 87.7136 144.024 87.8262 144.468C87.9206 144.848 88.1548 145.177 88.482 145.391C88.482 145.391 89.6073 146.361 91.6776 144.47L93.6644 142.882C94.0908 142.469 94.3962 141.947 94.5477 141.373C94.6991 140.799 94.6909 140.194 94.524 139.624C94.4503 139.351 94.4851 139.06 94.621 138.812C95.0808 137.97 95.9423 135.983 94.4988 134.92C94.3148 134.785 94.1012 134.694 93.8757 134.657C93.6501 134.62 93.4189 134.637 93.201 134.706C92.9832 134.775 92.7848 134.895 92.6222 135.055C92.4596 135.216 92.3373 135.413 92.2655 135.63C92.1559 136.001 92.1412 136.394 92.2228 136.772L91.4972 136.995C91.4972 136.995 90.7637 132.952 87.5545 132.312Z" fill="#FBCCC9"/>
<path d="M89.2316 137.727C89.4741 139.063 89.152 140.247 88.5117 140.356C87.8715 140.465 87.1536 139.482 86.9149 138.145C86.6762 136.809 86.9964 135.625 87.6347 135.516C88.2731 135.407 88.9891 136.389 89.2316 137.727Z" fill="white"/>
<path d="M87.3229 138.245L85.4388 137.81C85.3843 137.8 85.3325 137.778 85.2864 137.748C85.2404 137.717 85.201 137.677 85.1707 137.63C85.1403 137.584 85.1197 137.532 85.1099 137.477C85.1002 137.423 85.1016 137.367 85.1139 137.312C85.1263 137.258 85.1495 137.207 85.182 137.162C85.2146 137.118 85.2558 137.08 85.3034 137.051C85.3509 137.022 85.4037 137.004 85.4586 136.996C85.5136 136.988 85.5695 136.991 85.6232 137.005L87.3209 137.393L92.5286 136.176C92.5815 136.163 92.6363 136.161 92.6901 136.169C92.7438 136.178 92.7953 136.197 92.8417 136.225C92.8881 136.253 92.9284 136.29 92.9605 136.334C92.9925 136.378 93.0155 136.428 93.0282 136.481C93.041 136.534 93.0432 136.589 93.0347 136.642C93.0262 136.696 93.0073 136.748 92.9789 136.794C92.9505 136.84 92.9133 136.881 92.8693 136.913C92.8253 136.945 92.7755 136.968 92.7226 136.98L87.3229 138.245Z" fill="white"/>
<path d="M103.272 150.663C101.537 150.433 100.577 150.786 99.4143 152.093C98.8424 152.737 98.4372 153.511 98.2342 154.348C98.0313 155.185 98.0367 156.059 98.2501 156.894L102.107 178.73C102.237 179.464 102.298 180.208 102.288 180.953V181.34L100.986 181.404C101.24 182.122 101.531 183.629 100.743 185.752L100.877 185.763L104.145 186.097C104.471 186.126 104.799 186.089 105.11 185.987C105.421 185.885 105.708 185.72 105.953 185.504C106.206 185.29 106.413 185.028 106.561 184.732C106.709 184.436 106.796 184.114 106.816 183.784V182.294L106.962 181.325C107.069 180.607 107.134 179.883 107.156 179.157L107.738 155.568C107.695 154.354 107.222 153.195 106.404 152.297C105.587 151.399 104.476 150.82 103.272 150.663Z" fill="#3939AA"/>
<path d="M109.674 161.1C108.36 161.505 106.955 161.512 105.638 161.119C105.307 161.548 104.865 161.878 104.359 162.072C103.853 162.266 103.303 162.317 102.77 162.22C102.237 162.123 101.741 161.881 101.336 161.52C100.932 161.16 100.635 160.695 100.477 160.177L99.1556 155.887C95.6088 152.026 92.6576 146.554 94.7376 138.191C94.9355 137.391 95.1819 136.561 95.4768 135.703L99.9957 135.685L102.873 135.676C102.851 136.092 102.851 136.509 102.873 136.925C102.968 139.445 103.781 145.088 109.032 146.882C110.857 147.504 112.136 148.482 112.98 149.651C113.56 150.24 113.989 150.961 114.231 151.751C114.353 152.148 114.427 152.557 114.453 152.971C114.814 154.677 114.524 156.457 113.64 157.961C112.755 159.465 111.341 160.584 109.674 161.1Z" fill="#4A3649"/>
<path style="mix-blend-mode:multiply" d="M109.673 161.1C109.075 161.286 108.455 161.389 107.83 161.407C113.719 155.71 106.747 150.34 106.747 150.34C98.9569 144.835 102.193 143.625 100.717 137.872C100.524 137.128 100.283 136.398 99.995 135.686C99.8281 135.275 99.6399 134.841 99.4245 134.387C95.1559 125.368 87.5734 129.134 85.084 130.703C90.1578 124.449 96.0892 127.443 96.0892 127.443C96.1493 127.433 96.2076 127.429 96.2658 127.424C96.3915 127.363 96.5211 127.311 96.6538 127.268C97.1494 127.117 97.6768 127.104 98.1792 127.231C98.6816 127.357 99.14 127.618 99.505 127.985C99.8699 128.353 100.128 128.813 100.25 129.316C100.373 129.819 100.356 130.346 100.201 130.84C103.008 131.887 102.95 135.744 102.863 136.925C102.958 139.446 103.771 145.089 109.021 146.883C110.847 147.505 112.126 148.482 112.97 149.652C113.55 150.241 113.979 150.961 114.221 151.752C114.343 152.148 114.417 152.558 114.442 152.971C114.804 154.677 114.515 156.455 113.633 157.959C112.751 159.463 111.339 160.583 109.673 161.1Z" fill="url(#paint3_linear_444_16520)"/>
<g style="mix-blend-mode:multiply" opacity="0.5">
<path d="M100.735 185.762L96.4297 185.18C99.6816 184.296 99.7281 182.24 99.635 181.48L100.97 181.414C101.097 181.791 101.179 182.181 101.214 182.578C101.297 183.661 101.133 184.75 100.735 185.762Z" fill="#F8D2AB"/>
</g>
<path d="M101.222 182.578C101.187 182.181 101.102 181.79 100.97 181.414H85.5332C85.5332 181.414 84.9628 181.414 84.2895 181.43V181.41H76.6506V181.172H74.0352C74.1678 181.476 74.3908 181.732 74.674 181.906C74.9572 182.079 75.2869 182.162 75.6184 182.141H76.1074C76.2121 182.142 76.3128 182.182 76.3887 182.254L77.7779 183.592C78.147 183.89 78.5918 184.079 79.0624 184.138C79.5331 184.196 80.0108 184.123 80.4419 183.925L83.8025 183.243C84.0306 183.196 84.2652 183.191 84.4952 183.227L100.727 185.768C101.132 184.755 101.301 183.665 101.222 182.578Z" fill="#FBCCC9"/>
<path d="M96.1541 180.716C96.1543 180.623 96.1362 180.53 96.1007 180.444C96.0652 180.358 96.013 180.28 95.9472 180.215C95.8814 180.149 95.8032 180.097 95.7172 180.061C95.6311 180.026 95.5389 180.008 95.4459 180.008H80.2012V181.423H95.4459C95.5389 181.424 95.6311 181.405 95.7172 181.37C95.8032 181.335 95.8814 181.282 95.9472 181.217C96.013 181.151 96.0652 181.073 96.1007 180.987C96.1362 180.901 96.1543 180.809 96.1541 180.716Z" fill="#455A79"/>
<path d="M85.9447 179.656L82.7044 162.568C82.606 162.118 82.361 161.714 82.0077 161.418C81.6545 161.122 81.213 160.952 80.7525 160.934H56.2935C55.9445 160.928 55.6068 161.058 55.3505 161.294L54.6035 161.956L54.9916 162.619L58.2241 179.66C58.3226 180.11 58.5679 180.515 58.9215 180.811C59.2752 181.107 59.7171 181.277 60.1779 181.295H84.6253C85.5314 181.291 86.1213 180.56 85.9447 179.656Z" fill="#455A79"/>
<path d="M83.9086 181.421H59.4476C58.9875 181.403 58.5463 181.233 58.1929 180.938C57.8395 180.643 57.5937 180.24 57.4938 179.79L54.2691 163.193C54.0944 162.29 54.6804 161.559 55.5865 161.559H80.3754C81.2815 161.559 81.7336 161.917 81.9082 162.821L85.2261 179.79C85.3988 180.69 84.8089 181.421 83.9086 181.421Z" fill="#A1ADD3"/>
<path d="M71.6536 173.252C72.4444 172.382 72.2274 170.897 71.169 169.937C70.1105 168.977 68.6113 168.904 67.8205 169.775C67.0297 170.646 67.2467 172.13 68.3052 173.09C69.3637 174.05 70.8628 174.123 71.6536 173.252Z" fill="white"/>
<g style="mix-blend-mode:multiply" opacity="0.3">
<path d="M71.3492 181.421H59.4476C58.9875 181.403 58.5463 181.233 58.1929 180.938C57.8395 180.643 57.5937 180.24 57.4938 179.79L54.2691 163.193C54.0944 162.29 54.6804 161.559 55.5865 161.559H57.6315C57.7674 165.076 59.304 174.605 71.3492 181.421Z" fill="#A1ADD3"/>
</g>
<path opacity="0.4" d="M129.814 162.379L105.949 192.736C102.266 197.434 100.261 203.229 100.252 209.197V242.387H116.026V215.065C116.027 202.391 118.51 189.839 123.335 178.119L129.814 162.379Z" fill="white"/>
<path opacity="0.4" d="M132.086 162.379L125.606 178.121C120.782 189.843 118.299 201.57 118.299 214.245V242.387H121.811V209.29C121.811 209.29 123.669 183.486 132.086 162.379Z" fill="white"/>
<path d="M286.013 245.73C286.054 245.751 286.1 245.761 286.147 245.757C286.218 245.757 286.327 245.74 286.397 245.73C288.337 245.474 289.823 244.256 290.772 242.61C291.329 241.64 291.401 240.622 291.232 239.544C291.073 238.54 290.65 237.553 290.786 236.523C290.885 235.765 291.265 235.071 291.387 234.318V234.285C291.387 234.285 287.243 235.278 285.206 238.96C284.535 240.17 284.27 241.562 284.449 242.934C284.594 244 284.99 245.189 286.013 245.73Z" fill="#3B1D55"/>
<path d="M285.024 267.444H285.55C285.528 266.899 285.562 266.353 285.65 265.815C285.698 265.491 285.824 265.182 286.017 264.916C286.21 264.651 286.464 264.436 286.758 264.289C287.281 264.02 287.819 263.781 288.369 263.574C289.413 263.205 289.289 261.635 290.332 260.874C291.376 260.114 291.46 259.567 291.326 259.255C291.279 259.147 291.194 259.059 291.086 259.009C290.979 258.96 290.857 258.951 290.744 258.986C289.638 259.301 288.624 259.875 287.786 260.661C286.948 261.447 286.309 262.422 285.924 263.504C285.48 264.483 284.968 265.959 285.024 267.444Z" fill="#3B1D55"/>
<path d="M279.774 253.265C279.774 253.265 276.154 250.322 272.595 251.181C271.237 251.508 269.582 252.732 269.572 254.262C269.563 255.792 271.033 255.499 272.023 255.074C273.269 254.541 274.277 253.595 275.601 253.234C276.234 253.067 276.887 252.99 277.541 253.005C278.047 253.013 279.373 252.941 279.774 253.265Z" fill="#3B1D55"/>
<path d="M269.217 245.842C269.217 249.333 271.968 249.878 273.837 249.992C274.758 250.046 275.644 250.364 276.39 250.907L276.739 251.159C277.531 251.741 278.34 252.307 279.13 252.905C279.231 252.98 279.324 253.058 279.411 253.135C279.505 253.211 279.595 253.293 279.679 253.38L279.927 253.642C280.009 253.731 280.076 253.835 280.152 253.925L280.265 254.068C280.3 254.117 280.331 254.169 280.364 254.219L280.558 254.524L280.732 254.84C280.793 254.944 280.848 255.052 280.897 255.162C281.3 256.019 281.613 256.916 281.829 257.838C282.154 259.236 282.368 260.658 282.471 262.09C282.49 262.35 282.508 262.602 282.523 262.849C282.61 264.328 282.605 265.563 282.585 266.434C282.585 266.87 282.56 267.21 282.548 267.44H282.919C282.919 267.208 282.942 266.859 282.95 266.44C282.962 265.569 282.962 264.32 282.865 262.827C282.78 261.394 282.595 259.969 282.312 258.561C282.257 258.297 282.197 258.034 282.131 257.768C281.906 256.825 281.581 255.91 281.161 255.036C281.11 254.922 281.053 254.811 280.99 254.704L280.796 254.376L280.591 254.06C280.554 254.008 280.521 253.956 280.484 253.905L280.368 253.754C280.286 253.657 280.214 253.56 280.129 253.459L279.865 253.182C279.775 253.092 279.679 253.006 279.58 252.926C279.485 252.841 279.386 252.762 279.283 252.688C278.487 252.086 277.671 251.524 276.877 250.942C276.083 250.361 275.301 249.81 274.576 249.232C273.874 248.682 273.207 248.089 272.577 247.458C272.015 246.893 271.506 246.278 271.056 245.621C270.113 244.208 269.715 242.666 269.232 241.059L269.217 245.842Z" fill="#3B1D55"/>
<path d="M281.017 260.905C281.017 260.905 282.352 257.317 279.635 255.522C279.635 255.522 278.578 254.647 276.644 254.188C276.644 254.188 274.894 259.664 281.017 260.905Z" fill="#3B1D55"/>
<path d="M280.676 260.052C280.676 260.052 280.711 260.173 280.763 260.384C280.786 260.487 280.821 260.615 280.854 260.772C280.887 260.929 280.922 261.084 280.965 261.266C281.008 261.448 281.041 261.654 281.083 261.848C281.126 262.042 281.172 262.276 281.207 262.507L281.328 263.213C281.37 263.455 281.4 263.7 281.434 263.946C281.469 264.192 281.502 264.437 281.535 264.677C281.568 264.918 281.586 265.16 281.611 265.389C281.611 265.414 281.611 265.439 281.611 265.464C281.632 265.658 281.65 265.868 281.669 266.046C281.669 266.131 281.687 266.213 281.692 266.294C281.702 266.415 281.708 266.533 281.714 266.643C281.735 266.959 281.751 267.225 281.762 267.436H282.304C282.28 267.225 282.249 266.936 282.212 266.597C282.193 266.403 282.176 266.209 282.139 265.994C282.102 265.779 282.075 265.557 282.038 265.325C282.001 265.092 281.972 264.852 281.927 264.611C281.883 264.371 281.836 264.123 281.791 263.876C281.747 263.63 281.702 263.384 281.646 263.145C281.59 262.907 281.541 262.668 281.491 262.437C281.44 262.207 281.384 261.99 281.335 261.782C281.287 261.575 281.235 261.377 281.186 261.2C281.138 261.024 281.091 260.855 281.05 260.708C281.01 260.56 280.969 260.434 280.94 260.32C280.878 260.109 280.837 259.992 280.837 259.992L280.676 260.052Z" fill="#3B1D55"/>
<path d="M281.97 266.425C281.97 266.425 281.442 263.998 279.475 263.439C279.432 263.427 279.388 263.427 279.345 263.437C279.302 263.448 279.263 263.47 279.231 263.501C279.2 263.532 279.177 263.571 279.165 263.613C279.153 263.656 279.153 263.701 279.165 263.744C279.314 264.341 279.884 265.524 281.97 266.425Z" fill="#3B1D55"/>
<path d="M280.108 250.037C280.302 250.032 280.493 250.088 280.653 250.198C280.814 250.307 280.935 250.465 281 250.648C281.427 251.839 282.021 254.202 282.318 258.561C282.389 259.618 282.444 260.791 282.477 262.095C282.512 263.613 282.516 265.306 282.477 267.193V267.445H283.447C283.447 267.251 283.447 267.057 283.46 266.849C283.515 264.041 283.507 259.832 283.086 257.377C282.45 253.673 283.505 247.571 283.986 246.013C283.997 245.983 284 245.951 283.997 245.919C283.994 245.888 283.985 245.857 283.969 245.829C283.937 245.774 283.885 245.734 283.823 245.717C283.765 245.702 283.704 245.711 283.653 245.742C283.601 245.772 283.564 245.822 283.55 245.88C283.272 247.008 282.042 252.199 282.287 254.257C282.108 252.932 281.813 251.625 281.406 250.351C281.241 249.868 281.223 249.347 281.351 248.852C283.561 240.349 272.533 239.219 272.533 239.219C272.186 249.271 277.863 250.101 280.108 250.037ZM282.289 254.284C282.288 254.292 282.288 254.301 282.289 254.309C282.288 254.301 282.288 254.292 282.289 254.284Z" fill="#3B1D55"/>
<path d="M284.993 248.848C284.264 249.56 283.692 250.418 283.316 251.365C282.939 252.313 282.766 253.328 282.807 254.347C282.793 253.891 283.334 253.133 283.583 252.796C285.263 250.502 287.555 250.957 289.986 251.493L284.993 248.848Z" fill="#3B1D55"/>
<path d="M286.802 259.365C286.808 259.33 286.805 259.295 286.794 259.261C286.783 259.227 286.765 259.197 286.74 259.171C286.717 259.147 286.688 259.129 286.656 259.118C286.624 259.106 286.59 259.103 286.556 259.107C285.78 259.198 283.607 259.736 282.904 262.892C282.904 262.902 286.211 263.786 286.802 259.365Z" fill="#3B1D55"/>
<path d="M285.445 255.398C285.445 255.398 283.051 256.38 283.051 258.711C283.051 258.714 284.892 259.277 285.445 255.398Z" fill="#3B1D55"/>
<path d="M293.585 252.775C293.585 252.775 287.295 251.452 286.406 256.886C286.406 256.886 288.655 257.956 290.826 256.886C292.997 255.815 293.585 252.775 293.585 252.775Z" fill="#3B1D55"/>
<path d="M287.714 255.766L287.654 255.795L287.491 255.886C287.302 255.999 287.12 256.123 286.946 256.256C286.839 256.342 286.721 256.431 286.604 256.534C286.488 256.636 286.364 256.747 286.241 256.867C286.119 256.987 286.001 257.115 285.877 257.255C285.752 257.394 285.642 257.528 285.525 257.668C285.409 257.808 285.302 257.957 285.199 258.102C285.097 258.248 285.005 258.395 284.905 258.539L284.652 258.961C284.573 259.097 284.509 259.231 284.443 259.349C284.377 259.467 284.32 259.58 284.276 259.683C284.231 259.785 284.191 259.877 284.158 259.944L284.053 260.173L284.515 260.354L284.602 260.129C284.629 260.057 284.664 259.972 284.701 259.871C284.738 259.77 284.79 259.661 284.844 259.543C284.899 259.425 284.955 259.293 285.023 259.155L285.244 258.736L285.502 258.302C285.593 258.157 285.696 258.013 285.793 257.866C285.89 257.718 286.001 257.585 286.109 257.449C286.218 257.313 286.327 257.183 286.441 257.061C286.556 256.939 286.662 256.824 286.771 256.722C286.88 256.619 286.988 256.528 287.085 256.435C287.247 256.296 287.416 256.167 287.592 256.047C287.656 256.006 287.706 255.971 287.739 255.954L287.794 255.921L287.714 255.766Z" fill="#3B1D55"/>
<path d="M298.074 250.383C298.074 250.383 293.285 242.532 284.998 248.849C284.992 248.849 290.763 254.372 298.074 250.383Z" fill="#3B1D55"/>
<path d="M283.232 267.446H284.686C283.564 255.66 286.527 244.459 286.527 244.459L286.213 244.238C284.521 250.994 284.045 259.27 283.915 264.017C283.9 264.579 283.842 265.139 283.743 265.693C283.676 266.086 283.586 266.474 283.473 266.856C283.409 267.059 283.329 267.256 283.232 267.446Z" fill="#3B1D55"/>
<path d="M281.193 259.11C281.969 259.253 282.71 259.453 283.478 259.556C282.784 259.168 282.041 258.8 281.305 258.458C281.348 258.235 281.396 258.01 281.449 257.782C282.488 258.219 283.556 258.583 284.646 258.869C283.663 258.152 282.706 257.4 281.736 256.694C281.93 256.034 282.151 255.362 282.413 254.689C282.714 254.747 283.018 254.785 283.323 254.801C283.061 254.642 282.809 254.481 282.559 254.32C282.632 254.138 282.708 253.958 282.786 253.775C283.373 254.064 283.984 254.3 284.614 254.479C284.074 254.009 283.597 253.47 283.197 252.876C283.753 251.711 284.402 250.593 285.137 249.533V249.445L285.166 249.49L285.198 249.445V249.533C285.549 250.034 285.88 250.551 286.189 251.084C285.952 251.561 285.708 252.042 285.452 252.509C285.776 252.185 286.1 251.84 286.439 251.52C286.765 252.102 287.066 252.699 287.34 253.296C287.061 253.826 286.736 254.33 286.369 254.803C286.798 254.508 287.173 254.157 287.582 253.863C287.66 254.045 287.735 254.227 287.809 254.409C287.161 255.131 286.408 255.767 285.805 256.542C286.537 256.029 287.297 255.556 288.081 255.125C288.441 256.099 288.733 257.098 288.954 258.113C288.312 258.774 287.596 259.368 286.977 260.052C287.706 259.74 288.407 259.368 289.129 259.063C289.169 259.327 289.202 259.583 289.229 259.839C288.065 260.543 286.886 261.173 285.809 261.989L289.301 260.979C289.327 261.741 289.234 262.502 289.028 263.236C288.087 263.7 287.217 264.314 286.251 264.689C287.072 264.555 287.854 264.289 288.647 264.088C288.589 264.184 288.524 264.277 288.453 264.365C287.38 265.685 286.154 265.938 285.543 265.976V267.464H284.707V265.97C284.08 265.918 282.904 265.637 281.868 264.365C281.464 263.82 281.208 263.18 281.123 262.507C281.998 262.845 282.91 263.076 283.839 263.198C282.869 262.631 281.973 261.986 281.032 261.414C281.017 260.642 281.071 259.871 281.193 259.11Z" fill="#9860A3"/>
<path d="M286.299 257.695C286.25 258.436 286.269 259.18 286.357 259.918C286.502 260.796 286.664 261.002 286.551 262.155C286.438 263.309 285.969 265.989 285.936 266.09C285.903 266.191 285.701 261.746 285.701 261.746C285.81 261.467 285.86 261.169 285.849 260.87C285.851 260.298 285.8 258.632 286.299 257.695Z" fill="#F2D9E9"/>
<path d="M286.311 267.446H287.329C287.536 267.184 287.669 266.872 287.717 266.542C287.742 266.31 287.801 266.084 287.894 265.87L288.129 265.21L288.142 265.168C288.313 264.75 288.397 264.302 288.39 263.851C288.377 262.602 288.674 262.191 288.709 262.145C288.303 262.616 288.041 263.193 287.952 263.808C287.875 264.125 287.768 264.434 287.63 264.729L287.372 265.261L286.311 267.446Z" fill="#64306C"/>
<path d="M287.002 267.447H287.638C287.792 267.205 287.856 266.916 287.819 266.631C287.805 266.106 287.995 266.15 288.127 265.989C288.259 265.828 288.321 265.945 288.376 265.549C288.43 265.154 288.931 264.773 288.931 264.773C288.626 264.836 288.346 264.988 288.127 265.21C287.454 265.85 287.118 266.984 287.002 267.447Z" fill="#2F213D"/>
<path d="M287.402 263.736C287.402 263.736 287.623 259.858 287.703 259.121C287.703 259.121 286.911 261.495 286.938 263.694L287.402 263.736Z" fill="#F2D9E9"/>
<path d="M287.001 264.78C287.127 263.937 287.127 263.08 287.001 262.236L287.103 261.307C287.103 261.307 287.088 260.254 287.03 259.273C286.973 258.724 286.968 258.171 287.014 257.621C287.014 257.621 286.591 258.28 286.531 259.684C286.471 261.088 286.517 261.205 286.356 261.848C286.106 262.74 285.963 263.659 285.932 264.584L285.757 265.519C285.757 265.519 285.435 266.661 285.596 267.435L287.001 264.78Z" fill="#E98DB4"/>
<path d="M285.463 267.447H286.666C286.953 266.931 287.351 266.089 287.368 265.387V265.261C287.379 264.796 287.491 264.339 287.696 263.921C287.794 263.728 287.86 263.521 287.89 263.307C287.926 263.091 287.932 262.871 287.91 262.653C287.844 262.06 287.91 260.809 288.084 260.437C288.216 260.161 287.78 260.728 287.502 261.726V261.753C287.392 262.154 287.327 262.566 287.308 262.981C287.301 263.177 287.241 263.367 287.133 263.531C287.109 263.566 287.087 263.603 287.067 263.64L287.034 263.7C286.877 264.005 286.646 264.555 286.495 264.904C286.415 265.097 286.322 265.285 286.216 265.465C286.173 265.539 286.125 265.624 286.072 265.721C286.02 265.818 285.979 265.895 285.93 265.99C285.93 266.01 285.913 266.029 285.903 266.05C285.793 266.273 285.695 266.503 285.61 266.737C285.581 266.822 285.554 266.909 285.529 266.995C285.495 267.143 285.473 267.294 285.463 267.447Z" fill="#FACBD5"/>
<path d="M281.438 265.518C281.438 265.518 282.301 265.324 282.477 265.679C282.654 266.034 282.77 265.768 282.945 266.542C283.075 267.112 283.069 267.225 283.244 267.446H284.02L283.201 265.518C283.129 265.431 283.046 265.354 282.955 265.288C282.905 265.253 282.853 265.222 282.798 265.196C282.664 265.138 282.513 265.133 282.375 265.181L281.438 265.518Z" fill="#2F213D"/>
<path d="M282.553 263.63C282.537 264.017 282.537 264.64 282.747 264.917C282.828 265.031 282.893 265.155 282.941 265.286C283.018 265.496 283.083 265.71 283.135 265.928C283.234 266.447 283.386 266.955 283.587 267.444H284.32L283.851 265.429C283.757 265.36 283.669 265.283 283.589 265.198C283.278 264.87 283.087 264.446 283.047 263.996C282.902 262.639 282.248 262.125 282.227 262.109C282.479 262.476 282.566 263.234 282.553 263.63Z" fill="#64306C"/>
<path d="M284.924 262.527C284.831 263.653 285.073 266.347 285.182 267.444H286.094V264.413C286.094 264.056 286.068 263.705 286.033 263.368C285.97 262.776 285.874 262.189 285.746 261.607C285.647 261.134 285.552 260.741 285.494 260.463C285.347 259.732 285.568 259.587 285.479 258.46C285.452 257.859 285.298 257.271 285.027 256.734C285.153 257.189 285.153 257.669 285.027 258.123C284.833 258.943 285.007 259.368 284.897 259.996C284.796 260.562 285.011 261.03 284.943 262.265C284.937 262.347 284.93 262.435 284.924 262.527Z" fill="#E98DB4"/>
<path d="M284.131 263.543C284.411 264.069 284.351 264.29 284.351 264.29C284.351 264.4 284.339 264.511 284.337 264.621C284.337 264.771 284.337 264.92 284.337 265.065C284.338 265.862 284.403 266.658 284.531 267.445H285.726C285.713 267.385 285.703 267.321 285.693 267.251C285.668 267.094 285.649 266.921 285.633 266.733C285.621 266.591 285.612 266.44 285.604 266.277C285.577 265.826 285.561 265.29 285.538 264.652C285.482 263.051 285.2 263.225 284.942 262.263L284.925 262.195C284.766 261.574 284.678 260.936 284.661 260.295C284.777 258.641 284.252 257.617 284.252 257.617C284.31 258.116 284.339 258.364 284.207 259.446C284.131 259.959 284.097 260.478 284.104 260.997L284.153 261.678C284.17 261.918 284.149 262.159 284.092 262.393C284.092 262.403 284.092 262.413 284.092 262.422C283.974 262.861 283.91 263.132 284.131 263.543Z" fill="#64306C"/>
<path d="M283.502 261.129C283.502 261.129 284.014 261.73 284.189 262.973L284.497 264.464L284.35 265.094L283.737 264.332C283.737 264.332 283.824 261.796 283.502 261.129Z" fill="#2F213D"/>
<path d="M282.995 262.222C282.971 262.732 283.028 263.243 283.166 263.734C283.282 264.122 283.502 264.056 283.605 265.197C283.707 266.335 283.882 266.583 283.882 266.583L284.249 267.442H284.809L284.643 266.364C284.538 265.705 284.497 265.253 284.404 264.863C284.383 264.78 284.361 264.698 284.336 264.619C284.26 264.382 284.151 264.157 284.014 263.95C283.911 263.801 283.821 263.644 283.746 263.48C283.641 263.219 283.692 263.032 283.552 262.166C283.469 261.609 282.91 260.42 282.582 259.949C282.726 260.502 283.003 261.663 282.995 262.222Z" fill="#FACBD5"/>
<path d="M283.507 241.75C283.507 241.75 282.417 245.206 283.752 246.342C283.967 246.522 284.528 245.491 284.516 245.328C284.501 244.888 284.037 244.333 283.899 243.912C283.668 243.213 283.536 242.486 283.507 241.75Z" fill="#3B1D55"/>
<path d="M290.956 268.254V273.788C290.956 274.302 290.752 274.796 290.388 275.159C290.024 275.523 289.53 275.727 289.016 275.727H281.255C280.74 275.727 280.247 275.523 279.883 275.159C279.519 274.796 279.314 274.302 279.314 273.788V268.254H290.956Z" fill="white"/>
<path d="M286.802 268.254V273.788C286.802 274.302 286.598 274.796 286.234 275.159C285.87 275.523 285.376 275.727 284.862 275.727H281.263C280.748 275.727 280.254 275.523 279.891 275.159C279.527 274.796 279.322 274.302 279.322 273.788V268.254H286.802Z" fill="#FAD5E1"/>
<path d="M291.957 266.648H278.324V268.475H291.957V266.648Z" fill="white"/>
<path d="M290.45 266.648H287.986V268.475H290.45V266.648Z" fill="#FAD5E1"/>
</g>
<defs>
<linearGradient id="paint0_linear_444_16520" x1="198.032" y1="240.426" x2="221.211" y2="236.939" gradientUnits="userSpaceOnUse">
<stop stop-color="white"/>
<stop offset="1" stop-color="#EDEDED"/>
</linearGradient>
<linearGradient id="paint1_linear_444_16520" x1="208.961" y1="219.01" x2="217.422" y2="217.737" gradientUnits="userSpaceOnUse">
<stop stop-color="white"/>
<stop offset="1" stop-color="#EDEDED"/>
</linearGradient>
<linearGradient id="paint2_linear_444_16520" x1="82.092" y1="195.096" x2="94.9987" y2="160.829" gradientUnits="userSpaceOnUse">
<stop offset="0.01" stop-color="#DFF2F8"/>
<stop offset="0.09" stop-color="#E9F6FA"/>
<stop offset="0.27" stop-color="#F5FBFD"/>
<stop offset="0.5" stop-color="#FDFEFF"/>
<stop offset="1" stop-color="white"/>
</linearGradient>
<linearGradient id="paint3_linear_444_16520" x1="90.7483" y1="127.136" x2="112.597" y2="157.322" gradientUnits="userSpaceOnUse">
<stop stop-color="white"/>
<stop offset="0.13" stop-color="#EBF0F3"/>
<stop offset="0.37" stop-color="#CAD7E0"/>
<stop offset="0.6" stop-color="#B2C5D1"/>
<stop offset="0.82" stop-color="#A4BAC9"/>
<stop offset="1" stop-color="#9FB6C6"/>
</linearGradient>
<clipPath id="clip0_444_16520">
<rect width="352" height="281" fill="white"/>
</clipPath>
</defs>
</svg>
