<svg width="463" height="168" viewBox="0 0 463 168" fill="none" xmlns="http://www.w3.org/2000/svg">
<path d="M11.4686 12.0614C11.4686 12.7792 11.3363 13.4592 11.0719 14.1015C10.8074 14.7438 10.4296 15.3105 9.93845 15.8016C9.48508 16.255 8.93726 16.6139 8.29499 16.8784C7.65272 17.1429 6.95378 17.2751 6.19816 17.2751C4.68694 17.2751 3.42129 16.7839 2.40121 15.8016C1.38113 14.7816 0.871094 13.2703 0.871094 11.268C0.871094 9.49228 1.4378 7.6977 2.57122 5.88423C3.70464 4.03298 5.51811 2.38952 8.01163 0.953857L8.97504 2.0306C7.53938 3.12624 6.80265 4.12743 6.76487 5.03417C6.72709 5.9409 7.33158 6.7154 8.57834 7.35768C9.37174 7.77326 10.0518 8.35886 10.6185 9.11447C11.1852 9.83231 11.4686 10.8146 11.4686 12.0614Z" fill="#1443BC"/>
<path d="M25.199 12.0614C25.199 12.7792 25.0668 13.4592 24.8023 14.1015C24.5379 14.7438 24.1601 15.3105 23.6689 15.8016C23.2155 16.255 22.6677 16.6139 22.0255 16.8784C21.3832 17.1429 20.6842 17.2751 19.9286 17.2751C18.4174 17.2751 17.1518 16.7839 16.1317 15.8016C15.1116 14.7816 14.6016 13.2703 14.6016 11.268C14.6016 9.49228 15.1683 7.6977 16.3017 5.88423C17.4351 4.03298 19.2486 2.38952 21.7421 0.953857L22.7055 2.0306C21.2698 3.12624 20.5331 4.12743 20.4953 5.03417C20.4576 5.9409 21.0621 6.7154 22.3088 7.35768C23.1022 7.77326 23.7823 8.35886 24.349 9.11447C24.9157 9.83231 25.199 10.8146 25.199 12.0614Z" fill="#1443BC"/>
<g clip-path="url(#clip0_1161_1268)">
<path d="M54.7309 63.9181L53.6524 72.696C53.556 73.3609 53.402 73.5632 52.7856 73.5632H25.6376C25.5393 73.5712 25.4404 73.5587 25.3472 73.5265C25.2539 73.4942 25.1684 73.443 25.0959 73.376C25.0235 73.3089 24.9658 73.2276 24.9264 73.1371C24.887 73.0466 24.8669 72.9489 24.8672 72.8502C24.871 72.6396 24.9438 72.4361 25.0742 72.2708C25.2047 72.1054 25.3856 71.9875 25.5895 71.9348L27.7756 70.8074V39.7621L25.5895 38.6058C25.3856 38.5532 25.2047 38.4352 25.0742 38.2699C24.9438 38.1046 24.871 37.901 24.8672 37.6905C24.8669 37.5918 24.887 37.4941 24.9264 37.4036C24.9658 37.3131 25.0235 37.2317 25.0959 37.1647C25.1684 37.0977 25.2539 37.0464 25.3472 37.0142C25.4404 36.9819 25.5393 36.9694 25.6376 36.9774H52.227C52.8338 36.9774 53.0457 37.1798 53.0938 37.7387L53.556 46.6225C53.561 46.8143 53.5035 47.0026 53.3924 47.1589C53.2813 47.3153 53.1224 47.4314 52.9397 47.4897C52.8916 47.4897 52.7375 47.5475 52.6893 47.5475C52.533 47.5394 52.3822 47.4871 52.2544 47.3967C52.1265 47.3063 52.0269 47.1816 51.967 47.0368L48.346 39.6272H35.8265V53.3673H45.5436L47.2771 49.5132C47.3314 49.311 47.4501 49.1321 47.6152 49.0034C47.7803 48.8748 47.9827 48.8034 48.1919 48.8001C48.2901 48.7984 48.3876 48.8174 48.478 48.8557C48.5685 48.894 48.6499 48.9508 48.717 49.0226C48.7842 49.0943 48.8356 49.1793 48.8679 49.2721C48.9002 49.3649 48.9127 49.4634 48.9046 49.5613V59.9291C48.9126 60.0274 48.9001 60.1264 48.8679 60.2197C48.8356 60.313 48.7844 60.3986 48.7174 60.4711C48.6504 60.5435 48.5691 60.6013 48.4787 60.6407C48.3882 60.6801 48.2906 60.7002 48.1919 60.6999C47.9814 60.696 47.778 60.6233 47.6128 60.4928C47.4476 60.3622 47.3297 60.1812 47.2771 59.9772L45.5436 56.1231H35.8458V70.8749H48.8564L53.1997 63.4267C53.2798 63.2976 53.392 63.1915 53.5254 63.1189C53.6588 63.0463 53.8087 63.0096 53.9605 63.0124C53.9605 63.0124 54.1146 63.0606 54.1628 63.0606C54.3422 63.1154 54.4969 63.2309 54.6006 63.3874C54.7042 63.5438 54.7503 63.7315 54.7309 63.9181V63.9181Z" fill="#284EB7"/>
<path d="M84.6917 49.5129C84.6991 49.7305 84.6327 49.9441 84.5033 50.1191C84.3739 50.294 84.1891 50.42 83.979 50.4765L81.0129 51.7965L73.9249 70.1039C73.5108 71.0674 73.0486 72.0309 72.6922 72.8114C72.0855 74.0351 71.5751 74.3916 70.7662 74.3916C69.9572 74.3916 69.4372 74.0351 68.8401 72.8114C68.4741 72.0406 68.0215 71.0674 67.6074 70.1039L60.2113 51.7965L58.1697 50.4765C57.9766 50.3929 57.809 50.2598 57.6838 50.0906C57.5587 49.9214 57.4805 49.7221 57.457 49.5129C57.4595 49.4159 57.4812 49.3204 57.5209 49.2318C57.5606 49.1433 57.6175 49.0635 57.6883 48.9972C57.7591 48.9308 57.8424 48.8792 57.9333 48.8454C58.0242 48.8115 58.1209 48.796 58.2178 48.7999H70.0632C70.1601 48.796 70.2568 48.8115 70.3477 48.8454C70.4386 48.8792 70.5219 48.9308 70.5927 48.9972C70.6634 49.0635 70.7203 49.1433 70.7601 49.2318C70.7998 49.3204 70.8215 49.4159 70.8239 49.5129C70.8005 49.7221 70.7223 49.9214 70.5971 50.0906C70.472 50.2598 70.3044 50.3929 70.1113 50.4765L68.3297 51.6424L72.7982 64.6213L77.6134 51.652L75.0613 50.4861C74.8512 50.4296 74.6664 50.3037 74.537 50.1287C74.4076 49.9537 74.3412 49.7401 74.3487 49.5226C74.347 49.4243 74.3659 49.3268 74.4042 49.2363C74.4425 49.1458 74.4993 49.0644 74.571 48.9972C74.6426 48.93 74.7276 48.8786 74.8204 48.8463C74.9131 48.814 75.0116 48.8015 75.1095 48.8095H83.9405C84.0365 48.8043 84.1325 48.8186 84.2228 48.8515C84.3132 48.8844 84.3959 48.9352 84.466 49.0009C84.5362 49.0666 84.5924 49.1459 84.6311 49.2339C84.6699 49.3218 84.6905 49.4168 84.6917 49.5129V49.5129Z" fill="#284EB7"/>
<path d="M93.8862 61.2105C94.0885 67.0784 97.4109 70.3448 100.974 70.3448C103.44 70.3885 105.831 69.4969 107.667 67.8492C107.783 67.7289 107.935 67.649 108.099 67.6213C108.264 67.5935 108.433 67.6194 108.582 67.6951C108.938 67.8974 108.938 68.3021 108.784 68.8128C107.918 71.5685 104.297 74.3821 98.6821 74.3821C97.0372 74.3747 95.4101 74.0403 93.8955 73.3983C92.3809 72.7563 91.0089 71.8195 89.8592 70.6424C88.7096 69.4652 87.8053 68.0712 87.1988 66.5414C86.5923 65.0115 86.2957 63.3763 86.3264 61.7308C86.3264 53.4539 91.9313 48.0388 98.9807 48.0388C105.462 48.0388 109.699 52.6349 109.699 59.0714C109.699 60.8058 109.285 61.2201 106.637 61.2201L93.8862 61.2105ZM102.717 58.5029C102.717 53.7526 101.032 50.438 98.1717 50.438C95.5138 50.438 94.1944 52.9818 93.9344 58.5029H102.717Z" fill="#284EB7"/>
<path d="M135.067 52.1724C135.07 53.2026 134.667 54.1924 133.947 54.928C133.226 55.6637 132.245 56.0859 131.215 56.1037C130.604 56.082 130.005 55.9288 129.458 55.6544C128.911 55.3801 128.43 54.991 128.047 54.5138C127.657 54.0813 127.114 53.818 126.533 53.7802C125.952 53.7425 125.379 53.933 124.936 54.3115C124.248 54.8183 123.699 55.4918 123.342 56.2687C122.985 57.0457 122.831 57.9006 122.895 58.7534V70.9134L124.888 71.9347C125.09 71.9891 125.269 72.1078 125.398 72.273C125.526 72.4382 125.597 72.6407 125.601 72.85C125.602 72.9483 125.584 73.0458 125.545 73.1363C125.507 73.2268 125.45 73.3083 125.378 73.3755C125.307 73.4426 125.222 73.494 125.129 73.5264C125.036 73.5587 124.938 73.5712 124.84 73.5631H113.37C113.273 73.5697 113.175 73.5562 113.083 73.5233C112.991 73.4904 112.906 73.439 112.835 73.3721C112.763 73.3052 112.707 73.2243 112.668 73.1345C112.629 73.0447 112.609 72.9479 112.609 72.85C112.613 72.6407 112.684 72.4382 112.813 72.273C112.941 72.1078 113.12 71.9891 113.322 71.9347L115.316 70.9134V52.0953H113.524C113.414 52.1073 113.302 52.0969 113.196 52.0648C113.09 52.0327 112.991 51.9796 112.906 51.9086C112.82 51.8376 112.75 51.7502 112.699 51.6515C112.648 51.5528 112.618 51.4449 112.609 51.3342C112.609 50.8235 112.812 50.5633 113.428 50.3706L121.643 48.0773C121.776 48.0074 121.926 47.9748 122.076 47.9829C122.227 47.991 122.372 48.0395 122.497 48.1233C122.623 48.2072 122.723 48.3232 122.788 48.4592C122.852 48.5953 122.879 48.7463 122.866 48.8964V53.4925C124.599 50.2743 127.613 48.0195 130.368 48.0195C133.276 48.0292 135.067 49.8214 135.067 52.1724Z" fill="#284EB7"/>
<path d="M162.927 49.5129C162.934 49.7305 162.868 49.9441 162.738 50.1191C162.609 50.294 162.424 50.42 162.214 50.4765L159.258 51.7965L149.203 76.7716C148.645 78.1976 148.077 79.3249 147.874 79.8356C145.736 84.4799 144.302 86.2625 140.835 86.2625C139.901 86.2625 139.006 85.8923 138.346 85.233C137.685 84.5737 137.312 83.6792 137.31 82.7455C137.311 82.285 137.404 81.8293 137.582 81.4047C137.76 80.9801 138.02 80.595 138.348 80.2716C138.676 79.9483 139.064 79.693 139.491 79.5206C139.918 79.3482 140.374 79.2621 140.835 79.2672C141.608 79.2613 142.361 79.5158 142.973 79.9898C143.483 80.3945 144.302 80.9534 145.428 78.1977L147.056 74.1122L138.08 51.7965L136.039 50.4765C135.682 50.2645 135.316 49.9658 135.316 49.5129C135.32 49.4155 135.343 49.3197 135.384 49.2311C135.425 49.1425 135.482 49.0628 135.554 48.9966C135.625 48.9304 135.709 48.8789 135.801 48.8452C135.892 48.8114 135.989 48.796 136.087 48.7999H147.817C147.914 48.796 148.01 48.8115 148.101 48.8454C148.192 48.8792 148.275 48.9308 148.346 48.9972C148.417 49.0635 148.474 49.1433 148.514 49.2318C148.553 49.3204 148.575 49.4159 148.577 49.5129C148.564 49.7187 148.496 49.9171 148.379 50.0868C148.262 50.2566 148.101 50.3913 147.913 50.4765L146.131 51.6424L150.889 64.6213L156.147 51.652L153.537 50.4861C153.327 50.4296 153.142 50.3037 153.013 50.1287C152.883 49.9537 152.817 49.7401 152.824 49.5226C152.824 49.4239 152.844 49.3262 152.884 49.2357C152.923 49.1451 152.981 49.0638 153.053 48.9968C153.126 48.9298 153.211 48.8785 153.304 48.8463C153.398 48.814 153.497 48.8015 153.595 48.8095H162.166C162.263 48.8015 162.361 48.8138 162.453 48.8455C162.545 48.8773 162.629 48.9278 162.701 48.9939C162.772 49.0601 162.829 49.1404 162.868 49.2297C162.907 49.3191 162.927 49.4155 162.927 49.5129V49.5129Z" fill="#284EB7"/>
<path d="M181.409 70.5471C180.032 72.5898 176.411 74.4013 172.838 74.4013C168.707 74.4013 167.224 72.4742 167.224 68.9862V51.5075H163.699V48.7999H167.224V43.8473L173.445 40.9567C174.061 40.6484 174.726 40.8507 174.726 41.7179V48.8192H181.159V51.5267H174.726V67.907C174.726 69.5932 175.13 70.3544 176.305 70.3544C177.76 70.2898 179.186 69.9257 180.495 69.2849C180.899 69.0825 181.255 68.9765 181.515 69.2367C181.775 69.4968 181.766 69.9883 181.409 70.5471Z" fill="#284EB7"/>
<path d="M212.139 72.8502C212.14 72.9489 212.119 73.0466 212.08 73.1371C212.041 73.2276 211.983 73.309 211.911 73.376C211.838 73.443 211.753 73.4942 211.659 73.5265C211.566 73.5587 211.467 73.5712 211.369 73.5632H199.938C199.84 73.5713 199.741 73.5588 199.648 73.5265C199.556 73.4942 199.471 73.4427 199.399 73.3756C199.327 73.3084 199.271 73.2269 199.232 73.1364C199.194 73.046 199.175 72.9484 199.177 72.8502C199.18 72.6408 199.251 72.4383 199.38 72.2731C199.509 72.108 199.687 71.9892 199.889 71.9348L201.873 70.9135V58.0405C201.873 53.2902 200.91 51.7582 198.455 51.7582C196.528 51.7582 195.036 53.5023 194.121 54.7741V70.9135L196.114 71.9348C196.316 71.9892 196.495 72.108 196.624 72.2731C196.752 72.4383 196.824 72.6408 196.827 72.8502C196.827 72.9489 196.807 73.0466 196.768 73.1371C196.728 73.2276 196.671 73.309 196.598 73.376C196.526 73.443 196.44 73.4942 196.347 73.5265C196.254 73.5587 196.155 73.5712 196.057 73.5632H184.625C184.527 73.5713 184.429 73.5588 184.336 73.5265C184.244 73.4942 184.159 73.4427 184.087 73.3756C184.015 73.3084 183.958 73.2269 183.92 73.1364C183.882 73.046 183.863 72.9484 183.865 72.8502C183.868 72.6408 183.939 72.4383 184.068 72.2731C184.196 72.108 184.375 71.9892 184.577 71.9348L186.571 70.9135V38.0759H184.779C184.665 38.095 184.549 38.09 184.437 38.0612C184.325 38.0324 184.22 37.9805 184.129 37.9088C184.039 37.8371 183.964 37.7472 183.91 37.6449C183.856 37.5426 183.824 37.4301 183.816 37.3147C183.816 36.804 184.019 36.5439 184.625 36.3512L192.85 34.0001C193.456 33.8556 194.073 34.1061 194.073 34.8769V51.3631C194.899 50.3373 195.938 49.5042 197.119 48.9217C198.3 48.3393 199.594 48.0216 200.91 47.9907C206.477 47.9907 209.385 50.496 209.385 56.1134V70.8749L211.369 71.8963C211.588 71.941 211.785 72.0607 211.925 72.2348C212.066 72.4088 212.142 72.6264 212.139 72.8502Z" fill="#284EB7"/>
<path d="M227.751 72.85C227.753 72.9482 227.734 73.0458 227.695 73.1362C227.657 73.2267 227.6 73.3082 227.529 73.3754C227.457 73.4425 227.372 73.494 227.279 73.5263C227.187 73.5586 227.088 73.5711 226.99 73.563H215.559C215.461 73.571 215.362 73.5585 215.268 73.5263C215.175 73.494 215.09 73.4428 215.017 73.3758C214.945 73.3088 214.887 73.2274 214.848 73.1369C214.808 73.0464 214.788 72.9487 214.789 72.85C214.792 72.6394 214.865 72.4359 214.996 72.2706C215.126 72.1052 215.307 71.9873 215.511 71.9346L217.495 70.9133V52.0953H215.713C215.599 52.1144 215.482 52.1093 215.37 52.0806C215.258 52.0518 215.154 51.9999 215.063 51.9282C214.972 51.8565 214.897 51.7666 214.844 51.6643C214.79 51.562 214.758 51.4495 214.75 51.3341C214.75 50.8234 214.962 50.5632 215.569 50.3705L223.783 48.0773C224.4 47.9231 225.016 48.1254 225.016 48.8963V70.9036L227 71.925C227.211 71.9725 227.399 72.0896 227.535 72.2573C227.672 72.4251 227.748 72.6338 227.751 72.85V72.85ZM216.83 39.2512C216.83 38.1396 217.272 37.0735 218.057 36.2874C218.843 35.5014 219.908 35.0598 221.019 35.0598C222.13 35.0598 223.196 35.5014 223.982 36.2874C224.767 37.0735 225.209 38.1396 225.209 39.2512C225.209 40.3629 224.767 41.429 223.982 42.215C223.196 43.001 222.13 43.4426 221.019 43.4426C219.908 43.4426 218.843 43.001 218.057 42.215C217.272 41.429 216.83 40.3629 216.83 39.2512V39.2512Z" fill="#284EB7"/>
<path d="M258.68 72.85C258.682 72.9483 258.663 73.0458 258.625 73.1363C258.587 73.2268 258.53 73.3083 258.458 73.3755C258.387 73.4426 258.302 73.494 258.209 73.5264C258.116 73.5587 258.018 73.5712 257.92 73.5631H246.488C246.39 73.5711 246.291 73.5586 246.198 73.5264C246.105 73.4941 246.019 73.4429 245.947 73.3759C245.874 73.3088 245.817 73.2275 245.777 73.137C245.738 73.0465 245.718 72.9488 245.718 72.85C245.721 72.6407 245.793 72.4382 245.921 72.273C246.05 72.1078 246.229 71.9891 246.431 71.9347L248.424 70.9134V58.0404C248.424 53.2901 247.461 51.7581 245.005 51.7581C243.079 51.7581 241.587 53.5021 240.662 54.774V70.9134L242.656 71.9347C242.852 71.9993 243.024 72.1207 243.151 72.2838C243.278 72.4468 243.354 72.6439 243.368 72.85C243.37 72.9483 243.351 73.0458 243.313 73.1363C243.274 73.2268 243.218 73.3083 243.146 73.3755C243.074 73.4426 242.989 73.494 242.897 73.5264C242.804 73.5587 242.705 73.5712 242.607 73.5631H231.176C231.078 73.5711 230.979 73.5586 230.886 73.5264C230.792 73.4941 230.707 73.4429 230.634 73.3759C230.562 73.3088 230.504 73.2275 230.465 73.137C230.426 73.0465 230.405 72.9488 230.406 72.85C230.409 72.6407 230.48 72.4382 230.609 72.273C230.737 72.1078 230.916 71.9891 231.118 71.9347L233.112 70.9134V52.0953H231.33C231.216 52.1144 231.1 52.1094 230.988 52.0806C230.876 52.0519 230.771 52 230.68 51.9283C230.589 51.8566 230.515 51.7667 230.461 51.6644C230.407 51.562 230.375 51.4496 230.367 51.3342C230.367 50.8235 230.569 50.5633 231.186 50.3706L239.4 48.0773C239.534 48.0074 239.684 47.9748 239.834 47.9829C239.985 47.991 240.13 48.0395 240.255 48.1233C240.38 48.2072 240.481 48.3232 240.545 48.4592C240.61 48.5953 240.637 48.7463 240.624 48.8964V51.392C241.447 50.3605 242.487 49.5234 243.671 48.9404C244.854 48.3575 246.152 48.043 247.471 48.0195C253.027 48.0195 255.936 50.5248 255.936 56.1422V70.9037L257.929 71.9251C258.14 71.9726 258.329 72.0896 258.465 72.2574C258.601 72.4252 258.677 72.6339 258.68 72.85Z" fill="#284EB7"/>
<path d="M282.576 51.604C283.715 53.1142 284.291 54.9751 284.204 56.865C284.204 63.0991 279.254 65.7489 273.081 65.7489C271.299 65.7688 269.525 65.5121 267.822 64.9877C267.521 65.1985 267.27 65.4724 267.085 65.7901C266.901 66.1079 266.788 66.4621 266.753 66.828C266.753 68.5142 270.124 68.9189 275.122 69.3236C283.491 69.9885 287.266 72.4455 287.266 77.6968C287.266 82.8036 283.414 86.2242 272.821 86.2242C265.675 86.2242 260.879 84.1815 260.879 79.6432C260.879 76.3768 264.654 74.6327 265.877 74.1799C263.537 73.2163 262.208 71.9348 262.208 69.8343C262.208 66.8762 264.654 64.6793 265.627 63.9663C264.442 63.2121 263.478 62.158 262.832 60.9109C262.186 59.6638 261.881 58.2681 261.948 56.865C261.948 50.6405 266.956 48.0293 273.129 48.0293C276.547 48.0293 279.562 48.8483 281.603 50.5827C282.038 49.5399 282.756 48.6393 283.674 47.9822C284.593 47.3251 285.677 46.9377 286.804 46.8634C287.19 46.84 287.578 46.8946 287.943 47.024C288.308 47.1533 288.643 47.3547 288.929 47.6163C289.214 47.8778 289.445 48.1942 289.606 48.5465C289.767 48.8989 289.855 49.2801 289.866 49.6673C289.871 50.037 289.803 50.4039 289.664 50.7465C289.525 51.089 289.318 51.4002 289.057 51.6616C288.796 51.923 288.485 52.1293 288.142 52.2684C287.8 52.4074 287.433 52.4765 287.064 52.4713C284.868 52.4713 284.868 51.1319 282.576 51.604ZM273.235 75.6926C271.621 75.6169 270.013 75.4464 268.419 75.182C267.855 75.6632 267.409 76.2683 267.117 76.9502C266.824 77.6321 266.693 78.3723 266.734 79.1132C266.734 81.6666 269.084 83.7575 273.475 83.7575C278.291 83.7575 281.382 82.1773 281.382 79.6239C281.449 76.7815 279.1 76.0684 273.235 75.7119V75.6926ZM276.702 56.8457C276.702 52.5098 275.681 50.4189 273.081 50.4189C270.48 50.4189 269.46 52.5098 269.46 56.8457C269.46 61.1817 270.48 63.3304 273.081 63.3304C275.681 63.3304 276.702 61.2106 276.702 56.9132V56.8457Z" fill="#284EB7"/>
<path d="M50.7901 127.156C50.7901 127.666 50.5879 127.917 49.9812 128.119L41.7665 130.47C41.1501 130.624 40.5338 130.364 40.5338 129.603V127.869C38.9374 129.394 36.828 130.267 34.6207 130.316C28.8425 130.316 24.0273 125.498 24.0273 117.857C24.0273 108.713 28.0143 103.963 35.0059 103.963C39.2915 103.963 40.5627 106.372 40.5627 106.372V93.9614H38.7811C38.667 93.9805 38.5503 93.9755 38.4383 93.9467C38.3264 93.918 38.2216 93.8661 38.1309 93.7944C38.0402 93.7226 37.9655 93.6327 37.9116 93.5304C37.8577 93.4281 37.8259 93.3156 37.818 93.2002C37.818 92.6895 38.0299 92.4294 38.6366 92.2366L46.8513 89.8856C47.4677 89.7411 48.084 89.9916 48.084 90.7625V126.385H49.8656C49.9775 126.371 50.0909 126.381 50.1989 126.413C50.3069 126.445 50.4072 126.499 50.4938 126.571C50.5803 126.643 50.6512 126.732 50.7022 126.833C50.7531 126.933 50.7831 127.043 50.7901 127.156V127.156ZM40.5338 124.698V112.596C40.5338 109.33 39.4167 107.191 36.6046 107.191C32.9354 107.191 31.5583 111.835 31.5583 117.79C31.5583 123.745 33.8985 126.462 36.6046 126.462C37.3498 126.482 38.0899 126.333 38.77 126.028C39.4502 125.723 40.053 125.268 40.5338 124.698Z" fill="#284EB7"/>
<path d="M61.519 117.096C61.7213 122.964 65.0341 126.23 68.607 126.23C71.0704 126.276 73.4594 125.384 75.2904 123.735C75.4105 123.605 75.5707 123.519 75.7453 123.491C75.9199 123.463 76.0989 123.495 76.2535 123.581C76.6098 123.783 76.6098 124.188 76.4557 124.698C75.589 127.454 71.968 130.268 66.3535 130.268C64.7053 130.265 63.074 129.935 61.5549 129.295C60.0358 128.655 58.6593 127.719 57.5055 126.542C56.3518 125.364 55.444 123.968 54.8351 122.436C54.2263 120.903 53.9285 119.265 53.9592 117.616C53.9592 109.339 59.5737 103.924 66.6231 103.924C73.1043 103.924 77.3321 108.52 77.3321 114.957C77.3321 116.691 76.9276 117.106 74.2793 117.106L61.519 117.096ZM70.3404 114.388C70.3404 109.638 68.6647 106.324 65.8045 106.324C63.1465 106.324 61.8176 108.867 61.5672 114.388H70.3404Z" fill="#284EB7"/>
<path d="M107.043 116.373C107.043 125.517 103.066 130.268 96.0739 130.268C91.7788 130.268 90.5076 127.82 90.5076 127.82V139.383L92.5011 140.346C92.7025 140.417 92.878 140.547 93.005 140.719C93.132 140.89 93.2047 141.096 93.2137 141.31C93.214 141.409 93.1939 141.506 93.1545 141.597C93.1152 141.687 93.0574 141.769 92.985 141.836C92.9126 141.903 92.827 141.954 92.7338 141.986C92.6405 142.018 92.5416 142.031 92.4433 142.023H81.0121C80.9142 142.031 80.8157 142.018 80.723 141.986C80.6302 141.954 80.5452 141.902 80.4736 141.835C80.4019 141.768 80.3451 141.687 80.3068 141.596C80.2685 141.506 80.2496 141.408 80.2513 141.31C80.2603 141.096 80.333 140.89 80.46 140.719C80.587 140.547 80.7625 140.417 80.9639 140.346L82.9574 139.383V107.981H81.1662C81.0521 108 80.9354 107.995 80.8234 107.966C80.7115 107.937 80.6067 107.885 80.516 107.814C80.4253 107.742 80.3506 107.652 80.2967 107.55C80.2428 107.448 80.2109 107.335 80.2031 107.22C80.2031 106.709 80.4054 106.449 81.0217 106.256L89.2364 103.963C89.3698 103.893 89.5196 103.86 89.67 103.868C89.8205 103.876 89.9659 103.925 90.0911 104.009C90.2163 104.093 90.3166 104.209 90.3814 104.345C90.4462 104.481 90.4732 104.632 90.4595 104.782V106.314C92.0693 104.808 94.1786 103.95 96.3821 103.905C102.199 103.915 107.043 108.771 107.043 116.373ZM99.4927 116.325C99.4927 110.457 97.1429 107.653 94.4368 107.653C93.6855 107.643 92.9418 107.804 92.2613 108.123C91.5809 108.441 90.9813 108.91 90.5076 109.494V121.548C90.5076 124.814 91.6344 127.011 94.4368 127.011C98.1156 127.001 99.4927 122.299 99.4927 116.325V116.325Z" fill="#284EB7"/>
<path d="M118.318 117.096C118.53 122.964 121.843 126.23 125.416 126.23C127.879 126.276 130.268 125.384 132.099 123.735C132.219 123.605 132.379 123.519 132.554 123.491C132.729 123.463 132.907 123.495 133.062 123.581C133.418 123.783 133.418 124.188 133.264 124.698C132.398 127.454 128.777 130.268 123.162 130.268C121.514 130.265 119.883 129.935 118.364 129.295C116.844 128.655 115.468 127.719 114.314 126.542C113.16 125.364 112.253 123.968 111.644 122.436C111.035 120.903 110.737 119.265 110.768 117.616C110.768 109.339 116.382 103.924 123.422 103.924C129.903 103.924 134.141 108.52 134.141 114.957C134.141 116.691 133.736 117.106 131.078 117.106L118.318 117.096ZM127.149 114.388C127.149 109.638 125.464 106.324 122.613 106.324C119.955 106.324 118.626 108.867 118.376 114.388H127.149Z" fill="#284EB7"/>
<path d="M165.333 128.736C165.334 128.834 165.314 128.932 165.274 129.023C165.235 129.113 165.177 129.194 165.105 129.261C165.032 129.328 164.947 129.38 164.854 129.412C164.76 129.444 164.661 129.457 164.563 129.449H153.132C153.033 129.457 152.935 129.444 152.841 129.412C152.748 129.38 152.663 129.328 152.59 129.261C152.518 129.194 152.46 129.113 152.421 129.023C152.381 128.932 152.361 128.834 152.361 128.736C152.365 128.525 152.438 128.321 152.568 128.156C152.699 127.991 152.88 127.873 153.084 127.82L155.068 126.799V113.926C155.068 109.176 154.153 107.644 151.649 107.644C149.723 107.644 148.23 109.388 147.315 110.66V126.799L149.299 127.82C149.496 127.884 149.67 128.005 149.799 128.168C149.927 128.331 150.005 128.529 150.021 128.736C150.022 128.834 150.001 128.932 149.962 129.023C149.923 129.113 149.865 129.194 149.792 129.261C149.72 129.328 149.634 129.38 149.541 129.412C149.448 129.444 149.349 129.457 149.251 129.449H137.82C137.722 129.457 137.623 129.444 137.53 129.412C137.438 129.38 137.353 129.328 137.281 129.261C137.209 129.194 137.153 129.112 137.114 129.022C137.076 128.931 137.057 128.834 137.059 128.736C137.062 128.526 137.133 128.324 137.262 128.159C137.39 127.993 137.569 127.875 137.771 127.82L139.765 126.799V107.981H137.974C137.863 107.994 137.751 107.985 137.644 107.953C137.537 107.922 137.438 107.869 137.352 107.797C137.267 107.726 137.196 107.638 137.146 107.539C137.095 107.439 137.066 107.331 137.059 107.22C137.059 106.709 137.261 106.449 137.868 106.256L146.092 103.963C146.225 103.893 146.375 103.86 146.526 103.868C146.676 103.876 146.822 103.925 146.947 104.009C147.072 104.093 147.172 104.209 147.237 104.345C147.302 104.481 147.329 104.632 147.315 104.782V107.277C148.137 106.247 149.176 105.411 150.358 104.828C151.54 104.245 152.835 103.93 154.153 103.905C159.719 103.905 162.627 106.41 162.627 112.028V126.789L164.611 127.811C164.817 127.864 164.999 127.983 165.129 128.15C165.26 128.318 165.332 128.523 165.333 128.736V128.736Z" fill="#284EB7"/>
<path d="M195.345 127.156C195.345 127.666 195.143 127.917 194.526 128.119L186.341 130.422C185.724 130.576 185.118 130.316 185.118 129.555V127.82C183.517 129.345 181.405 130.218 179.195 130.268C173.417 130.268 168.602 125.45 168.602 117.809C168.602 108.665 172.579 103.915 179.571 103.915C183.856 103.915 185.137 106.324 185.137 106.324V93.9614H183.346C183.232 93.9805 183.115 93.9755 183.003 93.9467C182.891 93.918 182.786 93.8661 182.695 93.7943C182.605 93.7226 182.53 93.6327 182.476 93.5304C182.422 93.4281 182.39 93.3156 182.383 93.2002C182.383 92.6895 182.585 92.4294 183.201 92.2366L191.416 89.8856C192.023 89.7411 192.639 89.9916 192.639 90.7625V126.385H194.43C194.541 126.373 194.654 126.383 194.761 126.416C194.867 126.449 194.967 126.503 195.052 126.575C195.138 126.647 195.208 126.735 195.258 126.835C195.308 126.935 195.338 127.044 195.345 127.156V127.156ZM185.089 124.698V112.596C185.089 109.33 183.962 107.191 181.16 107.191C177.481 107.191 176.104 111.835 176.104 117.79C176.104 123.745 178.453 126.462 181.16 126.462C181.904 126.479 182.644 126.329 183.323 126.024C184.003 125.719 184.606 125.266 185.089 124.698Z" fill="#284EB7"/>
<path d="M217.157 122.357C217.157 127.56 213.536 130.268 207.874 130.268C205.582 130.312 203.327 129.69 201.383 128.476C200.776 128.476 200.006 128.476 199.553 128.379C198.84 128.379 198.59 127.965 198.59 127.416L198.85 121.634C198.85 120.873 198.994 120.459 199.457 120.459C199.919 120.459 200.015 120.825 200.169 121.336C200.441 122.259 200.783 123.161 201.19 124.034C201.829 125.204 202.776 126.176 203.929 126.843C205.083 127.511 206.397 127.849 207.729 127.82C210.618 127.82 211.755 126.799 211.755 124.804C211.755 122.097 208.336 121.076 204.917 119.235C201.344 117.308 198.994 114.996 198.994 111.064C198.994 107.133 202.115 103.915 207.931 103.915C209.48 103.91 211.001 104.316 212.342 105.09C212.901 105.042 213.671 104.936 214.075 104.888C214.74 104.888 215.039 105.042 215.039 105.553L215.597 110.862C215.645 111.527 215.703 111.777 215.289 111.883C214.875 111.989 214.682 111.681 214.47 111.267C213.997 110.319 213.415 109.43 212.737 108.617C212.131 107.933 211.39 107.381 210.562 106.994C209.734 106.608 208.835 106.396 207.922 106.372C205.678 106.372 204.349 107.335 204.349 109.07C204.349 111.421 207.151 112.24 210.724 113.772C215.299 115.689 217.157 118.32 217.157 122.357Z" fill="#284EB7"/>
<path d="M258.221 117.096C258.221 125.363 252.096 130.268 245.413 130.268C238.729 130.268 232.652 125.363 232.652 117.096C232.652 108.829 238.729 103.915 245.413 103.915C252.096 103.915 258.221 108.819 258.221 117.096ZM250.671 117.096C250.671 110.255 248.745 106.324 245.413 106.324C242.08 106.324 240.212 110.255 240.212 117.096C240.212 123.937 242.138 127.82 245.413 127.82C248.687 127.82 250.671 123.937 250.671 117.096Z" fill="#284EB7"/>
<path d="M289.665 128.736C289.666 128.834 289.648 128.931 289.609 129.022C289.571 129.112 289.514 129.194 289.442 129.261C289.371 129.328 289.286 129.38 289.193 129.412C289.1 129.444 289.002 129.457 288.904 129.449H277.473C277.374 129.457 277.276 129.444 277.182 129.412C277.089 129.38 277.003 129.328 276.931 129.261C276.859 129.194 276.801 129.113 276.762 129.023C276.722 128.932 276.702 128.834 276.702 128.736C276.706 128.526 276.777 128.324 276.905 128.159C277.034 127.993 277.213 127.875 277.415 127.82L279.408 126.799V113.926C279.408 109.176 278.494 107.644 275.99 107.644C274.064 107.644 272.571 109.388 271.646 110.66V126.799L273.64 127.82C273.836 127.885 274.009 128.006 274.136 128.169C274.262 128.332 274.338 128.529 274.353 128.736C274.354 128.834 274.335 128.931 274.297 129.022C274.259 129.112 274.202 129.194 274.13 129.261C274.059 129.328 273.974 129.38 273.881 129.412C273.788 129.444 273.69 129.457 273.592 129.449H262.16C262.062 129.457 261.963 129.444 261.87 129.412C261.777 129.38 261.691 129.328 261.619 129.261C261.546 129.194 261.489 129.113 261.449 129.023C261.41 128.932 261.39 128.834 261.39 128.736C261.393 128.526 261.465 128.324 261.593 128.159C261.722 127.993 261.901 127.875 262.103 127.82L264.096 126.799V107.981H262.315C262.201 108 262.084 107.995 261.972 107.966C261.86 107.937 261.755 107.885 261.664 107.814C261.574 107.742 261.499 107.652 261.445 107.55C261.391 107.448 261.359 107.335 261.352 107.22C261.352 106.709 261.554 106.449 262.17 106.256L270.385 103.963C270.518 103.893 270.668 103.86 270.819 103.868C270.969 103.876 271.114 103.925 271.24 104.009C271.365 104.093 271.465 104.209 271.53 104.345C271.595 104.481 271.622 104.632 271.608 104.782V107.277C272.431 106.246 273.471 105.409 274.655 104.826C275.838 104.243 277.136 103.929 278.455 103.905C284.012 103.905 286.92 106.41 286.92 112.028V126.789L288.914 127.811C289.124 127.858 289.313 127.975 289.449 128.143C289.586 128.311 289.661 128.519 289.665 128.736Z" fill="#284EB7"/>
<path d="M346.926 128.736C346.928 128.834 346.909 128.931 346.871 129.022C346.833 129.112 346.776 129.194 346.704 129.261C346.632 129.328 346.547 129.38 346.455 129.412C346.362 129.444 346.264 129.457 346.166 129.449H334.734C334.636 129.457 334.537 129.444 334.444 129.412C334.351 129.38 334.265 129.328 334.193 129.261C334.12 129.194 334.063 129.113 334.023 129.022C333.984 128.932 333.964 128.834 333.964 128.736C333.964 128.532 334.028 128.334 334.148 128.17C334.267 128.006 334.435 127.883 334.628 127.82L336.67 126.799V113.926C336.67 109.176 336.006 107.644 333.511 107.644C331.672 107.644 330.247 109.127 329.322 110.351C329.388 110.911 329.423 111.474 329.428 112.037V126.799L331.412 127.82C331.616 127.873 331.797 127.991 331.927 128.156C332.058 128.321 332.13 128.525 332.134 128.736C332.135 128.834 332.114 128.932 332.075 129.022C332.036 129.113 331.978 129.194 331.905 129.261C331.833 129.328 331.748 129.38 331.654 129.412C331.561 129.444 331.462 129.457 331.364 129.449H319.932C319.835 129.457 319.736 129.444 319.643 129.412C319.551 129.38 319.466 129.328 319.394 129.261C319.322 129.194 319.266 129.112 319.227 129.022C319.189 128.931 319.17 128.834 319.172 128.736C319.175 128.526 319.246 128.324 319.375 128.159C319.503 127.993 319.682 127.875 319.884 127.82L321.926 126.799V113.926C321.926 109.176 321.213 107.644 318.709 107.644C316.918 107.644 315.541 109.233 314.674 110.534V126.828L316.668 127.849C316.864 127.914 317.037 128.035 317.163 128.198C317.29 128.361 317.366 128.558 317.38 128.764C317.382 128.863 317.363 128.96 317.325 129.051C317.287 129.141 317.23 129.223 317.158 129.29C317.086 129.357 317.002 129.408 316.909 129.441C316.816 129.473 316.718 129.486 316.62 129.478H305.188C305.09 129.486 304.991 129.473 304.898 129.441C304.805 129.409 304.719 129.357 304.647 129.29C304.574 129.223 304.517 129.142 304.477 129.051C304.438 128.961 304.418 128.863 304.418 128.764C304.421 128.555 304.493 128.353 304.621 128.187C304.75 128.022 304.929 127.904 305.131 127.849L307.124 126.828V107.981H305.333C305.223 107.993 305.111 107.982 305.005 107.95C304.898 107.918 304.8 107.865 304.714 107.794C304.629 107.723 304.559 107.636 304.508 107.537C304.457 107.438 304.426 107.33 304.418 107.22C304.418 106.709 304.62 106.449 305.237 106.256L313.451 103.963C313.585 103.893 313.735 103.86 313.885 103.868C314.035 103.876 314.181 103.925 314.306 104.009C314.431 104.093 314.531 104.209 314.596 104.345C314.661 104.481 314.688 104.632 314.674 104.782V107.181C315.443 106.173 316.432 105.354 317.565 104.787C318.698 104.219 319.946 103.918 321.213 103.905C324.94 103.905 327.386 104.984 328.561 107.432C329.473 106.339 330.61 105.458 331.896 104.849C333.181 104.24 334.583 103.918 336.006 103.905C341.572 103.905 344.172 106.41 344.172 112.028V126.789L346.214 127.811C346.417 127.865 346.597 127.986 346.726 128.153C346.855 128.32 346.925 128.525 346.926 128.736Z" fill="#284EB7"/>
<path d="M376.384 105.399C376.391 105.616 376.325 105.83 376.195 106.005C376.066 106.18 375.881 106.306 375.671 106.362L372.705 107.682L362.651 132.657C362.092 134.083 361.534 135.211 361.331 135.721C359.184 140.366 357.759 142.148 354.282 142.148C353.351 142.146 352.458 141.774 351.799 141.115C351.141 140.456 350.769 139.563 350.767 138.631C350.776 137.978 350.966 137.34 351.316 136.788C351.666 136.237 352.162 135.794 352.75 135.508C353.337 135.222 353.992 135.105 354.642 135.17C355.291 135.235 355.91 135.479 356.43 135.876C356.94 136.28 357.759 136.839 358.876 134.083L360.513 129.998L351.528 107.682L349.486 106.362C349.293 106.279 349.125 106.145 349 105.976C348.875 105.807 348.797 105.608 348.773 105.399C348.776 105.302 348.798 105.206 348.837 105.118C348.877 105.029 348.934 104.949 349.005 104.883C349.076 104.817 349.159 104.765 349.25 104.731C349.341 104.697 349.437 104.682 349.534 104.686H361.274C361.371 104.682 361.468 104.697 361.56 104.731C361.651 104.765 361.735 104.816 361.807 104.882C361.878 104.949 361.936 105.028 361.977 105.117C362.017 105.205 362.04 105.301 362.044 105.399C362.031 105.604 361.962 105.803 361.845 105.973C361.728 106.142 361.567 106.277 361.38 106.362L359.588 107.528L364.336 120.507L369.594 107.538L366.994 106.372C366.782 106.317 366.595 106.192 366.464 106.017C366.333 105.842 366.265 105.627 366.272 105.408C366.272 105.31 366.292 105.212 366.331 105.121C366.37 105.031 366.428 104.95 366.501 104.882C366.573 104.815 366.659 104.764 366.752 104.732C366.845 104.7 366.944 104.687 367.042 104.695H375.613C375.711 104.687 375.809 104.7 375.901 104.731C375.994 104.763 376.079 104.813 376.151 104.879C376.224 104.945 376.282 105.025 376.322 105.115C376.362 105.204 376.383 105.301 376.384 105.399V105.399Z" fill="#284EB7"/>
<path d="M396.6 122.357C396.6 127.56 392.97 130.268 387.307 130.268C385.019 130.313 382.767 129.69 380.826 128.476C380.219 128.476 379.449 128.475 378.986 128.379C378.274 128.379 378.023 127.965 378.023 127.416L378.274 121.634C378.322 120.873 378.428 120.459 378.89 120.459C379.352 120.459 379.449 120.825 379.603 121.336C379.871 122.261 380.212 123.163 380.624 124.034C381.26 125.204 382.206 126.176 383.357 126.844C384.509 127.512 385.822 127.85 387.153 127.82C390.042 127.82 391.188 126.799 391.188 124.804C391.188 122.097 387.769 121.075 384.351 119.235C380.778 117.308 378.428 114.996 378.428 111.064C378.428 107.133 381.539 103.915 387.355 103.915C388.909 103.889 390.442 104.278 391.795 105.042C392.363 104.994 393.124 104.888 393.538 104.84C394.202 104.84 394.501 104.994 394.501 105.505L395.069 110.814C395.069 111.479 395.165 111.729 394.761 111.835C394.357 111.941 394.145 111.633 393.942 111.218C393.465 110.273 392.884 109.384 392.209 108.569C391.6 107.888 390.859 107.337 390.032 106.952C389.204 106.566 388.307 106.352 387.394 106.324C385.15 106.324 383.821 107.287 383.821 109.022C383.821 111.373 386.633 112.192 390.206 113.724C394.761 115.689 396.6 118.32 396.6 122.357Z" fill="#284EB7"/>
<path d="M407.568 117.096C407.77 122.964 411.093 126.23 414.666 126.23C417.129 126.274 419.517 125.383 421.349 123.735C421.468 123.603 421.628 123.517 421.803 123.489C421.979 123.461 422.158 123.493 422.312 123.581C422.678 123.783 422.678 124.188 422.524 124.698C421.657 127.454 418.027 130.268 412.412 130.268C410.764 130.265 409.133 129.935 407.614 129.295C406.094 128.655 404.718 127.719 403.564 126.542C402.41 125.364 401.503 123.968 400.894 122.436C400.285 120.903 399.987 119.265 400.018 117.616C400.018 109.339 405.632 103.924 412.672 103.924C419.153 103.924 423.391 108.52 423.391 114.957C423.391 116.691 422.986 117.106 420.328 117.106L407.568 117.096ZM416.399 114.388C416.399 109.638 414.714 106.324 411.853 106.324C409.205 106.324 407.876 108.867 407.626 114.388H416.399Z" fill="#284EB7"/>
<path d="M439.261 128.736C439.263 128.834 439.244 128.931 439.206 129.022C439.167 129.112 439.111 129.194 439.039 129.261C438.967 129.328 438.882 129.38 438.789 129.412C438.697 129.444 438.598 129.457 438.5 129.449H427.098C427 129.457 426.901 129.444 426.808 129.412C426.714 129.38 426.629 129.329 426.556 129.262C426.484 129.194 426.426 129.113 426.387 129.023C426.347 128.932 426.327 128.834 426.328 128.736C426.331 128.525 426.404 128.322 426.535 128.156C426.665 127.991 426.846 127.873 427.05 127.82L429.034 126.799V93.9614H427.252C427.138 93.9805 427.021 93.9755 426.909 93.9467C426.797 93.918 426.693 93.8661 426.602 93.7943C426.511 93.7226 426.437 93.6327 426.383 93.5304C426.329 93.4281 426.297 93.3156 426.289 93.2002C426.289 92.6895 426.501 92.4294 427.108 92.2366L435.322 89.8856C435.939 89.7411 436.555 89.9916 436.555 90.7625V126.76L438.539 127.782C438.749 127.836 438.935 127.96 439.066 128.133C439.197 128.306 439.266 128.518 439.261 128.736Z" fill="#284EB7"/>
<path d="M462.999 93.8072C462.999 94.6607 462.66 95.4793 462.057 96.0828C461.454 96.6864 460.636 97.0255 459.783 97.0255C458.93 97.0255 458.111 96.6864 457.508 96.0828C456.905 95.4793 456.566 94.6607 456.566 93.8072C456.591 93.5991 456.569 93.3881 456.5 93.1901C456.431 92.9921 456.318 92.8124 456.17 92.6647C456.021 92.517 455.841 92.4051 455.642 92.3376C455.444 92.2701 455.233 92.2488 455.025 92.2752C453.186 92.2752 452.675 93.4507 452.675 98.2492V104.686H459.109V107.393H452.675V126.799L454.717 127.82C454.921 127.873 455.102 127.991 455.232 128.156C455.363 128.322 455.436 128.525 455.439 128.736C455.44 128.834 455.42 128.932 455.38 129.023C455.341 129.113 455.283 129.194 455.211 129.261C455.138 129.328 455.053 129.38 454.959 129.412C454.866 129.444 454.767 129.457 454.669 129.449H443.199C443.103 129.456 443.007 129.442 442.917 129.409C442.827 129.376 442.745 129.324 442.676 129.256C442.608 129.189 442.555 129.107 442.52 129.017C442.486 128.928 442.471 128.832 442.477 128.736C442.477 128.532 442.541 128.335 442.661 128.17C442.78 128.006 442.948 127.883 443.141 127.82L445.183 126.799V107.393H441.668V104.686H445.183V101.573C445.183 93.8072 448.756 89.876 456.104 89.876C460.399 89.876 462.999 91.3116 462.999 93.8072Z" fill="#284EB7"/>
<path d="M291.764 167.72C291.71 167.724 291.656 167.715 291.607 167.695C291.557 167.675 291.512 167.644 291.475 167.605C291.44 167.575 291.412 167.538 291.392 167.496C291.372 167.455 291.361 167.41 291.359 167.364C291.36 167.315 291.37 167.267 291.39 167.222C291.41 167.177 291.439 167.137 291.475 167.104C291.512 167.064 291.557 167.034 291.607 167.014C291.656 166.994 291.71 166.985 291.764 166.988H292.062C292.185 166.999 292.308 166.984 292.424 166.944C292.54 166.904 292.647 166.841 292.737 166.757C292.893 166.568 292.973 166.327 292.958 166.082V155.426C292.973 155.181 292.893 154.94 292.737 154.751C292.647 154.666 292.541 154.601 292.425 154.56C292.309 154.518 292.185 154.501 292.062 154.51H291.764C291.71 154.513 291.656 154.505 291.607 154.485C291.557 154.465 291.512 154.434 291.475 154.395C291.44 154.363 291.412 154.324 291.392 154.281C291.372 154.238 291.361 154.191 291.359 154.144C291.359 154.096 291.37 154.049 291.39 154.006C291.409 153.963 291.439 153.924 291.475 153.894C291.514 153.857 291.559 153.829 291.609 153.811C291.658 153.793 291.711 153.785 291.764 153.788H297.34C297.687 153.788 298.043 153.788 298.399 153.836C298.753 153.865 299.103 153.92 299.449 154C299.718 154.067 299.982 154.154 300.239 154.26C300.488 154.35 300.727 154.466 300.951 154.607C301.162 154.729 301.356 154.878 301.529 155.05C301.703 155.226 301.849 155.427 301.962 155.647C302.075 155.861 302.163 156.087 302.222 156.322C302.289 156.586 302.322 156.858 302.319 157.131C302.324 157.397 302.298 157.662 302.242 157.921C302.192 158.156 302.111 158.383 302.001 158.596C301.915 158.793 301.798 158.975 301.654 159.135C301.344 159.457 300.987 159.73 300.595 159.945C300.379 160.053 300.157 160.149 299.93 160.234C300.235 160.325 300.534 160.434 300.826 160.561C301.091 160.673 301.341 160.818 301.568 160.995C301.785 161.147 301.985 161.321 302.165 161.515C302.335 161.7 302.475 161.912 302.579 162.142C302.692 162.394 302.776 162.66 302.829 162.932C302.889 163.249 302.918 163.572 302.916 163.895C302.917 164.22 302.879 164.544 302.8 164.859C302.733 165.146 302.64 165.427 302.521 165.697C302.417 165.908 302.288 166.105 302.136 166.285C301.971 166.461 301.794 166.625 301.606 166.776C301.411 166.923 301.205 167.055 300.99 167.171C300.758 167.294 300.516 167.397 300.267 167.48C299.467 167.675 298.646 167.776 297.821 167.778H291.764V167.72ZM296.945 159.829C297.183 159.831 297.422 159.815 297.658 159.781C297.895 159.753 298.13 159.708 298.361 159.646C298.545 159.579 298.725 159.502 298.9 159.415C299.052 159.33 299.197 159.233 299.333 159.126C299.467 159.012 299.586 158.882 299.69 158.74C299.791 158.598 299.878 158.446 299.95 158.287C300.022 158.131 300.074 157.966 300.104 157.796C300.144 157.593 300.167 157.386 300.171 157.179C300.18 157.028 300.18 156.877 300.171 156.726C300.154 156.562 300.115 156.4 300.056 156.245C300.01 156.096 299.945 155.953 299.863 155.821C299.768 155.678 299.662 155.542 299.545 155.416C299.417 155.274 299.268 155.154 299.102 155.059C298.93 154.964 298.749 154.883 298.563 154.819C298.323 154.732 298.074 154.67 297.821 154.636C297.522 154.586 297.219 154.56 296.916 154.558H295.067V159.829H296.945ZM297.003 166.921C297.282 166.921 297.571 166.921 297.87 166.873C298.151 166.847 298.429 166.789 298.698 166.699C298.912 166.625 299.115 166.525 299.304 166.4C299.485 166.282 299.655 166.15 299.815 166.005C299.954 165.86 300.08 165.702 300.19 165.533C300.298 165.374 300.385 165.203 300.45 165.023C300.525 164.833 300.579 164.636 300.614 164.435C300.665 164.207 300.69 163.974 300.691 163.741C300.691 163.524 300.665 163.307 300.614 163.095C300.573 162.899 300.518 162.706 300.45 162.517C300.376 162.334 300.283 162.16 300.171 161.997C300.06 161.832 299.927 161.683 299.776 161.554C299.631 161.421 299.469 161.307 299.295 161.217C299.103 161.107 298.903 161.01 298.698 160.927C298.431 160.824 298.153 160.752 297.87 160.715C297.551 160.66 297.229 160.631 296.906 160.629H295.067V166.921H297.003Z" fill="#282828"/>
<path d="M309.974 160.976C309.987 160.65 309.945 160.324 309.849 160.012C309.781 159.767 309.659 159.54 309.492 159.347C309.339 159.177 309.147 159.045 308.934 158.962C308.704 158.857 308.454 158.804 308.202 158.808C307.906 158.804 307.612 158.856 307.335 158.962C307.101 159.035 306.887 159.16 306.709 159.328C306.616 159.44 306.558 159.578 306.546 159.723C306.539 159.79 306.548 159.858 306.572 159.921C306.595 159.985 306.632 160.042 306.68 160.089C306.77 160.192 306.842 160.309 306.892 160.436C306.936 160.537 306.959 160.645 306.96 160.754C306.962 160.883 306.94 161.01 306.892 161.13C306.842 161.242 306.781 161.348 306.709 161.448C306.608 161.559 306.483 161.644 306.343 161.698C306.185 161.75 306.019 161.777 305.852 161.775C305.682 161.779 305.513 161.753 305.351 161.698C305.218 161.639 305.097 161.554 304.995 161.448C304.891 161.324 304.816 161.18 304.774 161.024C304.723 160.885 304.697 160.738 304.697 160.59C304.697 160.362 304.742 160.136 304.831 159.925C304.92 159.69 305.054 159.474 305.226 159.29C305.398 159.124 305.585 158.976 305.785 158.846C305.994 158.711 306.217 158.598 306.449 158.509C306.761 158.386 307.083 158.292 307.412 158.23C307.73 158.172 308.052 158.143 308.375 158.143C308.855 158.138 309.333 158.19 309.801 158.297C310.218 158.392 310.613 158.565 310.966 158.808C311.315 159.053 311.593 159.385 311.775 159.771C311.982 160.241 312.081 160.752 312.064 161.265V165.928C312.057 166.019 312.069 166.111 312.099 166.197C312.129 166.283 312.176 166.362 312.237 166.429C312.339 166.535 312.476 166.6 312.622 166.612C312.705 166.626 312.79 166.626 312.873 166.612C312.961 166.589 313.045 166.553 313.123 166.506C313.277 166.4 313.373 166.41 313.402 166.506C313.42 166.629 313.396 166.755 313.335 166.863C313.169 167.166 312.939 167.429 312.661 167.634C312.381 167.836 312.043 167.944 311.698 167.942C311.487 167.943 311.278 167.904 311.082 167.826C310.899 167.759 310.73 167.662 310.581 167.537C310.449 167.397 310.338 167.238 310.253 167.065C310.158 166.879 310.087 166.682 310.041 166.478C309.9 166.705 309.725 166.91 309.521 167.085C309.322 167.256 309.11 167.41 308.886 167.547C308.585 167.716 308.26 167.839 307.923 167.913C307.572 167.99 307.213 168.029 306.854 168.029C306.547 168.035 306.242 167.992 305.949 167.904C305.686 167.823 305.439 167.699 305.217 167.537C304.979 167.349 304.788 167.108 304.658 166.834C304.524 166.531 304.458 166.202 304.465 165.871C304.461 165.48 304.547 165.095 304.716 164.743C304.892 164.373 305.145 164.045 305.457 163.78C305.747 163.524 306.072 163.31 306.42 163.144C306.814 162.952 307.219 162.785 307.634 162.643C307.971 162.537 308.366 162.431 308.799 162.325C309.209 162.229 309.624 162.155 310.041 162.103L309.974 160.976ZM309.3 162.903C309.055 162.973 308.814 163.057 308.578 163.153C308.329 163.24 308.09 163.353 307.865 163.491C307.648 163.619 307.439 163.761 307.239 163.914C307.041 164.104 306.872 164.321 306.738 164.56C306.593 164.822 306.52 165.118 306.526 165.418C306.522 165.66 306.561 165.902 306.642 166.131C306.721 166.328 306.846 166.503 307.008 166.641C307.129 166.75 307.27 166.834 307.422 166.892C307.563 166.949 307.713 166.979 307.865 166.979C308.099 166.976 308.331 166.93 308.549 166.844C308.781 166.754 308.998 166.631 309.194 166.478C309.405 166.33 309.582 166.14 309.714 165.919C309.86 165.682 309.949 165.415 309.974 165.138V162.71L309.3 162.903Z" fill="#282828"/>
<path d="M316.349 163.067C316.349 163.365 316.349 163.674 316.397 164.03C316.427 164.33 316.485 164.627 316.57 164.917C316.656 165.2 316.769 165.474 316.907 165.736C317.03 165.981 317.2 166.201 317.408 166.381C317.618 166.574 317.859 166.731 318.121 166.844C318.425 166.973 318.753 167.035 319.084 167.027C319.297 167.029 319.511 167.006 319.719 166.959C319.921 166.911 320.118 166.843 320.307 166.757C320.49 166.667 320.667 166.564 320.836 166.449C321 166.333 321.154 166.208 321.299 166.082L321.636 165.697C321.746 165.57 321.846 165.435 321.934 165.292C321.965 165.231 322.019 165.185 322.084 165.163C322.149 165.142 322.219 165.147 322.281 165.177C322.396 165.235 322.416 165.36 322.339 165.533C322.244 165.76 322.131 165.979 322.002 166.188C321.866 166.393 321.718 166.589 321.559 166.776C321.384 166.972 321.186 167.146 320.971 167.297C320.751 167.455 320.516 167.591 320.268 167.701C320.01 167.809 319.742 167.893 319.469 167.952C319.18 168.007 318.886 168.033 318.592 168.029C318.199 168.033 317.806 167.981 317.427 167.875C317.095 167.771 316.773 167.639 316.464 167.48C316.099 167.263 315.773 166.986 315.501 166.661C315.235 166.345 315.003 166.003 314.808 165.639C314.621 165.253 314.482 164.845 314.394 164.425C314.207 163.536 314.207 162.617 314.394 161.727C314.481 161.313 314.614 160.909 314.788 160.523C314.963 160.169 315.19 159.844 315.463 159.559C315.719 159.282 316.01 159.039 316.329 158.837C316.635 158.661 316.958 158.516 317.292 158.403C317.662 158.283 318.049 158.224 318.438 158.23C318.844 158.225 319.247 158.287 319.632 158.413C319.969 158.523 320.292 158.672 320.596 158.856C320.884 159.057 321.143 159.297 321.366 159.569C321.6 159.86 321.788 160.185 321.925 160.532C322.076 160.874 322.183 161.233 322.242 161.602C322.314 162.032 322.349 162.467 322.348 162.903V163.144L316.349 163.067ZM320.258 162.363C320.257 162.073 320.238 161.784 320.201 161.496C320.174 161.207 320.125 160.92 320.056 160.638C319.991 160.379 319.897 160.126 319.777 159.887C319.662 159.668 319.512 159.47 319.334 159.299C319.204 159.178 319.054 159.08 318.891 159.01C318.703 158.941 318.504 158.908 318.304 158.914C318.101 158.907 317.9 158.941 317.711 159.014C317.523 159.087 317.351 159.197 317.206 159.338C317.024 159.533 316.878 159.758 316.772 160.003C316.66 160.26 316.573 160.528 316.512 160.802C316.455 161.06 316.413 161.32 316.387 161.583C316.373 161.843 316.373 162.103 316.387 162.363H320.258Z" fill="#282828"/>
<path d="M330.611 160.08C330.71 160.003 330.791 159.905 330.85 159.794C330.908 159.682 330.941 159.56 330.948 159.434C330.948 159.213 330.784 159.097 330.438 159.097H329.937C329.891 159.1 329.844 159.093 329.801 159.077C329.758 159.06 329.719 159.034 329.686 159.001C329.632 158.94 329.601 158.861 329.6 158.779C329.607 158.696 329.647 158.62 329.709 158.566C329.772 158.512 329.854 158.485 329.937 158.49H333.683C333.731 158.488 333.779 158.497 333.822 158.517C333.866 158.537 333.904 158.568 333.933 158.606C333.986 158.672 334.016 158.753 334.02 158.837C334.019 158.928 333.989 159.016 333.933 159.087C333.905 159.126 333.867 159.158 333.823 159.18C333.78 159.202 333.732 159.213 333.683 159.213H333.442C333.177 159.206 332.914 159.258 332.672 159.367C332.416 159.489 332.179 159.648 331.969 159.839L329.956 161.641L332.845 166.458C332.965 166.671 333.133 166.853 333.336 166.988C333.531 167.083 333.746 167.13 333.962 167.123H334.126C334.173 167.123 334.219 167.132 334.262 167.15C334.305 167.168 334.344 167.195 334.376 167.229C334.431 167.287 334.462 167.362 334.463 167.441C334.464 167.482 334.457 167.523 334.442 167.561C334.427 167.599 334.405 167.633 334.376 167.663C334.308 167.726 334.219 167.76 334.126 167.759H329.841C329.794 167.761 329.749 167.753 329.706 167.736C329.663 167.72 329.623 167.695 329.59 167.663C329.562 167.633 329.539 167.599 329.525 167.561C329.51 167.523 329.502 167.482 329.503 167.441C329.505 167.362 329.536 167.287 329.59 167.229C329.621 167.194 329.66 167.166 329.703 167.148C329.747 167.13 329.794 167.121 329.841 167.123H330.023C330.127 167.131 330.231 167.115 330.328 167.076C330.425 167.038 330.512 166.978 330.582 166.902C330.698 166.757 330.678 166.564 330.534 166.323L328.483 162.835L327.134 163.992V166.323C327.127 166.434 327.142 166.544 327.178 166.649C327.215 166.753 327.272 166.849 327.346 166.931C327.43 167.005 327.527 167.063 327.633 167.099C327.739 167.135 327.851 167.15 327.963 167.143H328.165C328.212 167.141 328.259 167.149 328.302 167.167C328.345 167.186 328.384 167.213 328.415 167.249C328.467 167.3 328.498 167.368 328.502 167.441C328.503 167.482 328.496 167.523 328.481 167.561C328.466 167.599 328.444 167.633 328.415 167.663C328.382 167.695 328.343 167.72 328.3 167.736C328.257 167.753 328.211 167.761 328.165 167.759H324.062C324.016 167.761 323.97 167.753 323.927 167.736C323.884 167.72 323.845 167.695 323.812 167.663C323.783 167.633 323.761 167.599 323.746 167.561C323.731 167.523 323.724 167.482 323.725 167.441C323.729 167.368 323.76 167.3 323.812 167.249C323.843 167.213 323.882 167.186 323.925 167.167C323.968 167.149 324.015 167.141 324.062 167.143H324.303C324.415 167.15 324.527 167.135 324.633 167.099C324.739 167.063 324.836 167.005 324.919 166.931C324.996 166.85 325.054 166.754 325.093 166.65C325.131 166.545 325.147 166.434 325.141 166.323V155.647C325.149 155.532 325.134 155.416 325.096 155.307C325.058 155.197 324.998 155.097 324.919 155.012C324.747 154.868 324.527 154.795 324.303 154.809H324.053C323.831 154.809 323.706 154.722 323.667 154.53C323.629 154.337 323.744 154.231 323.995 154.183L326.566 153.846C326.717 153.836 326.868 153.836 327.019 153.846C327.173 153.846 327.25 153.913 327.25 154.038V162.999L330.611 160.08Z" fill="#282828"/>
<path d="M339.258 158.991C339.457 158.846 339.67 158.72 339.894 158.615C340.088 158.532 340.292 158.474 340.5 158.442C340.754 158.392 341.012 158.37 341.271 158.374C341.638 158.376 342.002 158.438 342.349 158.557C342.708 158.659 343.038 158.844 343.312 159.097C343.545 159.321 343.749 159.574 343.919 159.848C344.11 160.147 344.256 160.471 344.353 160.812C344.462 161.171 344.542 161.538 344.593 161.91C344.645 162.342 344.671 162.777 344.67 163.211C344.672 163.66 344.633 164.109 344.555 164.551C344.492 164.957 344.382 165.355 344.227 165.736C344.103 166.039 343.945 166.326 343.755 166.593C343.568 166.849 343.352 167.082 343.11 167.287C342.828 167.534 342.501 167.724 342.147 167.846C341.746 167.973 341.326 168.035 340.905 168.029C340.56 168.036 340.215 167.991 339.884 167.894C339.349 167.724 338.866 167.423 338.478 167.017C338.307 166.832 338.152 166.632 338.016 166.42L337.813 166.844C337.73 167.014 337.63 167.175 337.515 167.326C337.352 167.55 337.145 167.74 336.908 167.884C336.658 168.029 336.484 168.068 336.379 167.981C336.356 167.956 336.343 167.923 336.343 167.889C336.343 167.855 336.356 167.823 336.379 167.798C336.421 167.715 336.454 167.628 336.475 167.538C336.549 167.337 336.607 167.131 336.648 166.921C336.698 166.651 336.72 166.376 336.716 166.102V155.696C336.731 155.581 336.72 155.465 336.684 155.355C336.647 155.245 336.586 155.145 336.506 155.063C336.425 154.98 336.326 154.917 336.218 154.878C336.109 154.839 335.993 154.825 335.878 154.838H335.541C335.329 154.838 335.213 154.742 335.204 154.539C335.194 154.337 335.31 154.231 335.56 154.212L338.093 153.894H338.497C338.661 153.894 338.748 153.961 338.748 154.115V159.704C338.874 159.438 339.047 159.196 339.258 158.991ZM340.048 159.627C339.878 159.699 339.724 159.804 339.595 159.935C339.428 160.112 339.294 160.318 339.2 160.542C339.092 160.801 339.005 161.069 338.94 161.342C338.86 161.658 338.808 161.98 338.786 162.306C338.786 162.662 338.786 162.999 338.786 163.337C338.786 163.674 338.786 164.069 338.786 164.464C338.817 165.072 338.958 165.669 339.2 166.227C339.28 166.419 339.395 166.596 339.537 166.747C339.675 166.894 339.838 167.015 340.019 167.104C340.205 167.193 340.41 167.235 340.616 167.229C340.824 167.232 341.03 167.192 341.223 167.114C341.408 167.032 341.57 166.906 341.695 166.747C341.833 166.596 341.947 166.424 342.032 166.237C342.123 166.025 342.197 165.806 342.253 165.582C342.345 165.221 342.406 164.854 342.436 164.483C342.436 164.088 342.436 163.712 342.436 163.337C342.436 162.961 342.436 162.633 342.436 162.267C342.414 161.915 342.356 161.566 342.263 161.226C342.214 160.956 342.13 160.694 342.012 160.446C341.904 160.217 341.758 160.008 341.579 159.829C341.456 159.718 341.312 159.633 341.155 159.579C340.979 159.519 340.793 159.489 340.606 159.492C340.413 159.5 340.223 159.546 340.048 159.627Z" fill="#282828"/>
<path d="M348.293 163.067C348.289 163.389 348.305 163.71 348.341 164.03C348.368 164.33 348.422 164.627 348.505 164.917C348.599 165.197 348.712 165.47 348.842 165.736C348.965 165.981 349.135 166.201 349.342 166.381C349.557 166.572 349.801 166.729 350.065 166.844C350.369 166.973 350.697 167.035 351.028 167.027C351.238 167.029 351.448 167.006 351.654 166.959C351.856 166.914 352.053 166.846 352.241 166.757C352.427 166.672 352.605 166.568 352.771 166.449C352.935 166.333 353.089 166.208 353.243 166.083L353.58 165.697C353.687 165.568 353.787 165.433 353.878 165.292C353.984 165.148 354.1 165.119 354.215 165.177C354.331 165.235 354.36 165.36 354.273 165.533C354.186 165.764 354.073 165.984 353.936 166.189C353.801 166.391 353.657 166.584 353.503 166.776C353.325 166.97 353.129 167.144 352.915 167.297C352.692 167.456 352.453 167.591 352.203 167.701C351.674 167.93 351.103 168.042 350.527 168.029C350.133 168.033 349.741 167.981 349.362 167.875C349.029 167.773 348.707 167.641 348.399 167.48C348.034 167.263 347.708 166.986 347.436 166.661C347.17 166.345 346.938 166.003 346.742 165.639C346.559 165.253 346.423 164.845 346.338 164.425C346.235 163.99 346.183 163.543 346.184 163.096C346.182 162.636 346.231 162.177 346.328 161.727C346.407 161.311 346.54 160.906 346.723 160.523C346.897 160.171 347.121 159.847 347.387 159.559C347.648 159.286 347.939 159.044 348.254 158.837C348.561 158.662 348.883 158.517 349.217 158.403C349.587 158.282 349.974 158.223 350.363 158.23C350.769 158.226 351.172 158.287 351.557 158.413C351.894 158.525 352.217 158.673 352.52 158.856C352.809 159.06 353.071 159.299 353.3 159.569C353.531 159.863 353.719 160.187 353.859 160.533C354.01 160.874 354.117 161.233 354.177 161.602C354.245 162.032 354.277 162.467 354.273 162.903V163.144L348.293 163.067ZM352.193 162.363C352.193 162.094 352.193 161.804 352.145 161.496C352.11 161.208 352.059 160.921 351.991 160.639C351.93 160.377 351.836 160.125 351.711 159.887C351.603 159.667 351.456 159.468 351.278 159.299C351.145 159.178 350.992 159.08 350.825 159.01C350.638 158.94 350.438 158.907 350.238 158.914C350.031 158.913 349.826 158.949 349.631 159.02C349.452 159.1 349.287 159.207 349.14 159.338C348.965 159.536 348.822 159.76 348.716 160.003C348.601 160.26 348.51 160.528 348.447 160.802C348.393 161.06 348.354 161.321 348.331 161.583C348.317 161.843 348.317 162.103 348.331 162.363H352.193Z" fill="#282828"/>
<path d="M355.969 161.641C356.058 161.194 356.211 160.763 356.421 160.359C356.594 160.034 356.804 159.73 357.047 159.453C357.29 159.162 357.584 158.917 357.914 158.731C358.236 158.552 358.579 158.413 358.935 158.316C359.695 158.137 360.486 158.137 361.246 158.316C361.582 158.399 361.906 158.525 362.209 158.692C362.576 158.902 362.902 159.176 363.172 159.501C363.451 159.83 363.688 160.193 363.875 160.581C364.055 160.963 364.181 161.368 364.251 161.785C364.327 162.221 364.365 162.663 364.366 163.105C364.367 163.564 364.325 164.022 364.241 164.473C364.104 165.3 363.737 166.072 363.182 166.699C362.922 167.001 362.616 167.261 362.276 167.47C361.978 167.656 361.653 167.796 361.313 167.884C360.919 167.979 360.515 168.024 360.11 168.019C359.71 168.023 359.311 167.971 358.925 167.865C358.577 167.764 358.238 167.632 357.914 167.47C357.598 167.298 357.315 167.074 357.076 166.805C356.832 166.538 356.619 166.244 356.44 165.928C356.218 165.51 356.056 165.062 355.959 164.599C355.854 164.108 355.802 163.607 355.805 163.105C355.809 162.613 355.864 162.122 355.969 161.641ZM359.58 158.962C359.41 159.001 359.25 159.073 359.108 159.174C358.865 159.337 358.664 159.555 358.521 159.81C358.356 160.111 358.239 160.436 358.174 160.773C358.079 161.195 358.017 161.624 357.991 162.055C357.991 162.479 357.991 162.845 357.991 163.124C357.991 163.404 357.991 163.731 357.991 164.088C358.008 164.484 358.06 164.877 358.145 165.264C358.203 165.558 358.3 165.843 358.434 166.111C358.56 166.373 358.729 166.611 358.935 166.815C359.098 166.947 359.279 167.054 359.474 167.133C359.685 167.218 359.911 167.26 360.138 167.258C360.42 167.263 360.698 167.197 360.947 167.065C361.184 166.953 361.389 166.784 361.545 166.574C361.698 166.383 361.824 166.172 361.92 165.948C362.02 165.702 362.094 165.447 362.142 165.186C362.213 164.814 362.258 164.438 362.276 164.059C362.276 163.674 362.276 163.346 362.276 163.096C362.276 162.845 362.276 162.46 362.276 162.026C362.257 161.609 362.192 161.196 362.084 160.793C362.014 160.473 361.901 160.165 361.747 159.877C361.612 159.62 361.421 159.396 361.188 159.222C361.045 159.112 360.881 159.03 360.707 158.981C360.524 158.916 360.332 158.883 360.138 158.885C359.949 158.883 359.761 158.909 359.58 158.962V158.962Z" fill="#282828"/>
<path d="M369.315 159.405C369.418 159.263 369.534 159.131 369.662 159.01C369.785 158.894 369.921 158.79 370.066 158.702C370.218 158.603 370.376 158.513 370.538 158.432C370.731 158.344 370.935 158.283 371.145 158.249C371.382 158.195 371.624 158.169 371.867 158.172C372.149 158.175 372.427 158.234 372.686 158.345C372.937 158.444 373.166 158.591 373.36 158.779C373.539 158.929 373.683 159.117 373.783 159.328C373.872 159.532 373.946 159.741 374.005 159.954C374.114 159.8 374.23 159.646 374.352 159.492C374.471 159.334 374.607 159.189 374.756 159.058C374.91 158.93 375.07 158.811 375.238 158.702C375.396 158.597 375.564 158.507 375.738 158.432C375.928 158.354 376.125 158.293 376.326 158.249C376.53 158.194 376.741 158.168 376.952 158.172C377.281 158.169 377.608 158.228 377.915 158.345C378.179 158.449 378.421 158.603 378.627 158.798C378.852 159 379.016 159.26 379.099 159.55C379.169 159.827 379.205 160.112 379.205 160.398V166.295C379.186 166.513 379.251 166.731 379.388 166.902C379.551 167.041 379.762 167.11 379.976 167.094H380.178C380.225 167.092 380.272 167.101 380.315 167.119C380.358 167.138 380.397 167.165 380.428 167.2C380.483 167.258 380.513 167.333 380.515 167.412C380.512 167.494 380.482 167.572 380.428 167.634C380.399 167.672 380.361 167.702 380.317 167.722C380.274 167.743 380.226 167.752 380.178 167.75H376.441C376.393 167.752 376.346 167.743 376.302 167.722C376.258 167.702 376.22 167.672 376.191 167.634C376.138 167.572 376.107 167.494 376.104 167.412C376.106 167.333 376.137 167.258 376.191 167.2C376.222 167.165 376.261 167.138 376.304 167.119C376.348 167.101 376.394 167.092 376.441 167.094H376.538C376.644 167.103 376.75 167.09 376.851 167.057C376.952 167.024 377.045 166.971 377.125 166.902C377.266 166.732 377.335 166.514 377.318 166.295V160.976C377.322 160.784 377.299 160.593 377.25 160.407C377.198 160.263 377.12 160.129 377.019 160.012C376.9 159.869 376.748 159.757 376.576 159.685C376.389 159.6 376.185 159.557 375.979 159.559C375.751 159.562 375.527 159.618 375.324 159.723C375.107 159.831 374.916 159.986 374.766 160.176C374.563 160.381 374.403 160.623 374.294 160.889C374.181 161.124 374.118 161.38 374.111 161.641V166.314C374.1 166.423 374.112 166.533 374.145 166.637C374.178 166.741 374.232 166.838 374.303 166.921C374.384 166.99 374.477 167.043 374.578 167.076C374.679 167.109 374.785 167.122 374.891 167.114H374.987C375.034 167.112 375.081 167.12 375.124 167.138C375.168 167.157 375.206 167.184 375.238 167.22C375.292 167.277 375.323 167.353 375.324 167.432C375.322 167.513 375.291 167.591 375.238 167.653C375.208 167.691 375.17 167.722 375.127 167.742C375.083 167.762 375.035 167.771 374.987 167.769H371.299C371.251 167.77 371.203 167.761 371.16 167.741C371.116 167.721 371.078 167.691 371.048 167.653C370.995 167.591 370.964 167.513 370.962 167.432C370.963 167.353 370.994 167.277 371.048 167.22C371.08 167.185 371.119 167.158 371.162 167.14C371.206 167.122 371.252 167.113 371.299 167.114H371.405C371.618 167.128 371.829 167.059 371.992 166.921C372.129 166.75 372.195 166.532 372.175 166.314V160.937C372.178 160.749 372.156 160.561 372.108 160.378C372.062 160.21 371.984 160.053 371.877 159.916C371.772 159.81 371.648 159.725 371.511 159.665C371.343 159.593 371.163 159.557 370.981 159.559C370.734 159.56 370.491 159.616 370.268 159.723C370.037 159.825 369.832 159.98 369.671 160.176C369.47 160.371 369.31 160.603 369.199 160.86C369.091 161.093 369.031 161.345 369.026 161.602V166.314C369.009 166.534 369.078 166.751 369.219 166.921C369.299 166.99 369.392 167.043 369.493 167.076C369.594 167.109 369.7 167.122 369.806 167.114H369.902C369.949 167.112 369.996 167.12 370.04 167.138C370.083 167.157 370.121 167.184 370.153 167.22C370.207 167.277 370.238 167.353 370.239 167.432C370.237 167.513 370.206 167.591 370.153 167.653C370.123 167.691 370.085 167.722 370.042 167.742C369.998 167.762 369.95 167.771 369.902 167.769H366.262C366.021 167.769 365.896 167.653 365.887 167.441C365.877 167.229 365.992 167.114 366.224 167.114H366.32C366.426 167.122 366.532 167.109 366.633 167.076C366.734 167.043 366.827 166.99 366.907 166.921C367.048 166.751 367.117 166.534 367.1 166.314V160.012C367.108 159.908 367.095 159.803 367.062 159.704C367.029 159.605 366.976 159.513 366.907 159.434C366.826 159.366 366.733 159.315 366.632 159.284C366.531 159.252 366.425 159.241 366.32 159.251H365.944C365.732 159.251 365.607 159.164 365.588 158.991C365.569 158.818 365.684 158.711 365.944 158.673L368.275 158.374C368.461 158.355 368.648 158.355 368.833 158.374C368.959 158.374 369.026 158.5 369.026 158.673V159.81C369.13 159.681 369.226 159.546 369.315 159.405Z" fill="#282828"/>
<path d="M399.239 166.111C399.351 166.257 399.477 166.393 399.614 166.516C399.721 166.609 399.834 166.696 399.951 166.776C400.09 166.866 400.243 166.931 400.404 166.969C400.538 166.98 400.674 166.98 400.808 166.969H400.972C401.021 166.967 401.07 166.977 401.115 166.997C401.16 167.017 401.2 167.047 401.232 167.085C401.296 167.156 401.331 167.249 401.328 167.345C401.329 167.434 401.294 167.521 401.232 167.586C401.2 167.623 401.16 167.653 401.115 167.673C401.07 167.693 401.021 167.703 400.972 167.701H396.012C395.963 167.703 395.914 167.693 395.869 167.673C395.824 167.653 395.784 167.623 395.752 167.586C395.688 167.521 395.651 167.435 395.646 167.345C395.648 167.248 395.686 167.155 395.752 167.085C395.784 167.047 395.824 167.017 395.869 166.997C395.914 166.977 395.963 166.967 396.012 166.969H396.282C396.393 166.985 396.505 166.976 396.612 166.942C396.719 166.909 396.816 166.852 396.898 166.776C396.995 166.648 396.975 166.465 396.841 166.227L393.056 160.667L391.563 162.257V166.111C391.548 166.233 391.56 166.357 391.6 166.473C391.639 166.589 391.704 166.695 391.791 166.782C391.877 166.87 391.982 166.936 392.098 166.977C392.213 167.017 392.337 167.031 392.459 167.017H392.757C392.813 167.013 392.868 167.021 392.92 167.041C392.971 167.061 393.018 167.093 393.056 167.133C393.123 167.203 393.16 167.296 393.162 167.393C393.158 167.484 393.12 167.569 393.056 167.634C393.018 167.674 392.971 167.705 392.92 167.725C392.868 167.745 392.813 167.753 392.757 167.749H388.26C388.205 167.753 388.149 167.745 388.098 167.725C388.046 167.705 388 167.674 387.961 167.634C387.897 167.569 387.86 167.484 387.855 167.393C387.857 167.296 387.895 167.203 387.961 167.133C388 167.093 388.046 167.061 388.098 167.041C388.149 167.021 388.205 167.013 388.26 167.017H388.558C388.681 167.027 388.804 167.011 388.92 166.971C389.036 166.932 389.142 166.869 389.233 166.786C389.39 166.597 389.469 166.356 389.454 166.111V155.426C389.469 155.181 389.39 154.94 389.233 154.751C389.143 154.667 389.037 154.602 388.921 154.56C388.805 154.519 388.681 154.502 388.558 154.51H388.26C388.205 154.514 388.149 154.506 388.098 154.486C388.046 154.466 388 154.435 387.961 154.395C387.897 154.327 387.859 154.238 387.855 154.144C387.855 154.097 387.865 154.051 387.883 154.008C387.901 153.965 387.928 153.926 387.961 153.894C388.001 153.857 388.049 153.828 388.1 153.81C388.151 153.792 388.206 153.784 388.26 153.788H392.757C392.812 153.784 392.866 153.792 392.917 153.81C392.969 153.828 393.016 153.857 393.056 153.894C393.09 153.926 393.116 153.965 393.134 154.008C393.153 154.051 393.162 154.097 393.162 154.144C393.158 154.238 393.12 154.327 393.056 154.395C393.018 154.435 392.971 154.466 392.92 154.486C392.868 154.506 392.813 154.514 392.757 154.51H392.43C392.303 154.496 392.174 154.512 392.054 154.556C391.934 154.601 391.827 154.673 391.74 154.767C391.653 154.86 391.589 154.973 391.553 155.096C391.517 155.219 391.511 155.348 391.534 155.474V161.149L396.792 155.532C396.883 155.416 396.945 155.281 396.975 155.137C396.991 155.078 396.994 155.017 396.984 154.957C396.974 154.897 396.952 154.84 396.918 154.79C396.852 154.72 396.774 154.664 396.687 154.626C396.563 154.58 396.433 154.557 396.301 154.559H396.118C396.069 154.56 396.02 154.55 395.975 154.53C395.93 154.51 395.89 154.48 395.858 154.443C395.796 154.374 395.762 154.285 395.762 154.192C395.76 154.146 395.768 154.1 395.784 154.057C395.801 154.014 395.826 153.975 395.858 153.942C395.892 153.907 395.933 153.88 395.977 153.862C396.022 153.844 396.07 153.835 396.118 153.836H400.279C400.327 153.835 400.375 153.844 400.42 153.862C400.464 153.88 400.505 153.907 400.539 153.942C400.572 153.974 400.599 154.013 400.617 154.056C400.635 154.099 400.645 154.146 400.645 154.192C400.641 154.286 400.603 154.375 400.539 154.443C400.507 154.48 400.467 154.51 400.422 154.53C400.377 154.55 400.328 154.56 400.279 154.559H400.067C399.864 154.559 399.661 154.575 399.46 154.607C399.285 154.635 399.114 154.683 398.95 154.751C398.767 154.827 398.598 154.931 398.449 155.06C398.295 155.204 398.141 155.339 398.016 155.474L394.549 159.164L399.239 166.111Z" fill="#282828"/>
<path d="M405.574 166.314C405.566 166.425 405.582 166.536 405.62 166.641C405.658 166.746 405.718 166.841 405.796 166.921C405.879 166.996 405.976 167.054 406.082 167.09C406.188 167.126 406.3 167.141 406.412 167.133H406.749C406.796 167.131 406.843 167.139 406.886 167.158C406.929 167.176 406.968 167.204 406.999 167.239C407.054 167.296 407.084 167.372 407.086 167.451C407.085 167.527 407.054 167.6 406.999 167.653C406.966 167.685 406.927 167.71 406.884 167.726C406.841 167.743 406.795 167.751 406.749 167.749H402.367C402.321 167.751 402.275 167.743 402.232 167.726C402.189 167.71 402.15 167.685 402.117 167.653C402.06 167.6 402.026 167.528 402.021 167.451C402.026 167.371 402.06 167.295 402.117 167.239C402.148 167.204 402.187 167.176 402.23 167.158C402.273 167.139 402.32 167.131 402.367 167.133H402.704C402.816 167.14 402.928 167.126 403.034 167.089C403.14 167.053 403.237 166.996 403.321 166.921C403.397 166.84 403.456 166.744 403.494 166.64C403.532 166.536 403.548 166.425 403.542 166.314V160.08C403.551 159.97 403.535 159.86 403.497 159.757C403.459 159.654 403.398 159.56 403.321 159.482C403.149 159.338 402.928 159.266 402.704 159.28H402.348C402.257 159.294 402.165 159.271 402.091 159.217C402.017 159.163 401.967 159.081 401.953 158.991C401.953 158.789 402.03 158.673 402.281 158.634L404.89 158.278C405.041 158.268 405.192 158.268 405.343 158.278C405.497 158.278 405.574 158.345 405.574 158.48V166.314ZM405.449 154.231C405.585 154.352 405.693 154.5 405.766 154.666C405.839 154.833 405.876 155.013 405.873 155.194C405.872 155.376 405.834 155.555 405.761 155.72C405.688 155.886 405.582 156.035 405.449 156.158C405.315 156.294 405.154 156.402 404.977 156.473C404.8 156.544 404.61 156.578 404.418 156.572C404.226 156.578 404.034 156.545 403.855 156.473C403.677 156.402 403.514 156.295 403.378 156.158C403.247 156.035 403.142 155.885 403.071 155.72C403 155.554 402.963 155.375 402.964 155.194C402.96 155.013 402.994 154.834 403.066 154.667C403.137 154.501 403.244 154.352 403.378 154.231C403.516 154.097 403.679 153.993 403.858 153.923C404.036 153.854 404.227 153.821 404.418 153.826C404.609 153.821 404.798 153.854 404.975 153.924C405.152 153.993 405.313 154.098 405.449 154.231Z" fill="#282828"/>
<path d="M411.969 159.405C412.071 159.265 412.184 159.133 412.306 159.01C412.432 158.891 412.571 158.788 412.72 158.702C412.884 158.596 413.038 158.509 413.183 158.432C413.377 158.347 413.58 158.286 413.789 158.249C414.029 158.195 414.275 158.169 414.521 158.172C414.803 158.176 415.081 158.235 415.34 158.345C415.591 158.444 415.82 158.591 416.014 158.779C416.19 158.929 416.332 159.117 416.428 159.328C416.524 159.528 416.599 159.738 416.65 159.954C416.759 159.8 416.874 159.646 416.996 159.492C417.119 159.334 417.258 159.188 417.41 159.058C417.56 158.93 417.718 158.811 417.882 158.702C418.042 158.599 418.209 158.509 418.383 158.432C418.574 158.355 418.77 158.294 418.97 158.249C419.175 158.195 419.385 158.169 419.596 158.172C419.925 158.171 420.252 158.23 420.559 158.345C420.822 158.447 421.061 158.601 421.262 158.798C421.489 158.999 421.656 159.259 421.744 159.55C421.811 159.827 421.843 160.112 421.84 160.398V166.295C421.823 166.514 421.892 166.732 422.033 166.902C422.113 166.971 422.206 167.024 422.307 167.057C422.408 167.09 422.514 167.103 422.62 167.094H422.823C422.869 167.094 422.916 167.103 422.959 167.121C423.002 167.139 423.041 167.166 423.073 167.2C423.127 167.258 423.158 167.333 423.16 167.412C423.157 167.494 423.126 167.572 423.073 167.634C423.043 167.671 423.005 167.701 422.961 167.721C422.918 167.741 422.87 167.751 422.823 167.749H419.038C418.99 167.752 418.942 167.742 418.898 167.722C418.855 167.702 418.817 167.672 418.787 167.634C418.732 167.573 418.698 167.495 418.691 167.412C418.696 167.332 418.73 167.257 418.787 167.2C418.819 167.165 418.857 167.137 418.901 167.119C418.944 167.101 418.991 167.092 419.038 167.094H419.134C419.24 167.103 419.346 167.09 419.447 167.057C419.548 167.024 419.641 166.971 419.722 166.902C419.862 166.732 419.931 166.514 419.914 166.295V160.976C419.916 160.784 419.89 160.592 419.837 160.407C419.799 160.241 419.723 160.086 419.616 159.954C419.495 159.813 419.343 159.701 419.173 159.627C418.978 159.532 418.763 159.483 418.547 159.483C418.33 159.483 418.116 159.532 417.921 159.627C417.702 159.732 417.511 159.887 417.362 160.08C417.157 160.284 416.993 160.526 416.881 160.793C416.772 161.029 416.71 161.284 416.698 161.544V166.217C416.681 166.437 416.75 166.655 416.89 166.824C417.053 166.964 417.264 167.033 417.478 167.017H417.584C417.629 167.015 417.675 167.024 417.716 167.042C417.758 167.061 417.795 167.088 417.824 167.123C417.854 167.15 417.878 167.183 417.895 167.219C417.911 167.255 417.92 167.295 417.921 167.335C417.918 167.419 417.884 167.498 417.824 167.557C417.797 167.595 417.761 167.625 417.719 167.645C417.677 167.665 417.63 167.675 417.584 167.672H413.895C413.847 167.675 413.799 167.665 413.756 167.645C413.712 167.625 413.674 167.595 413.645 167.557C413.591 167.495 413.561 167.417 413.558 167.335C413.56 167.256 413.591 167.181 413.645 167.123C413.676 167.088 413.715 167.06 413.758 167.042C413.801 167.024 413.848 167.015 413.895 167.017H413.992C414.097 167.026 414.204 167.013 414.305 166.98C414.405 166.947 414.499 166.894 414.579 166.824C414.72 166.655 414.789 166.437 414.772 166.217V160.841C414.77 160.653 414.747 160.465 414.704 160.282C414.673 160.122 414.602 159.973 414.497 159.849C414.393 159.724 414.259 159.628 414.107 159.569C413.94 159.498 413.759 159.462 413.577 159.463C413.328 159.465 413.081 159.52 412.855 159.627C412.626 159.734 412.423 159.888 412.258 160.08C412.056 160.272 411.899 160.505 411.796 160.764C411.687 160.996 411.628 161.249 411.622 161.506V166.217C411.612 166.326 411.623 166.436 411.657 166.541C411.69 166.645 411.744 166.742 411.815 166.824C411.895 166.894 411.989 166.947 412.089 166.98C412.19 167.013 412.297 167.026 412.402 167.017H412.499C412.546 167.015 412.593 167.024 412.636 167.042C412.679 167.06 412.718 167.088 412.749 167.123C412.803 167.181 412.834 167.256 412.836 167.335C412.833 167.417 412.803 167.495 412.749 167.557C412.72 167.595 412.682 167.625 412.638 167.645C412.595 167.665 412.547 167.675 412.499 167.672H408.897C408.851 167.68 408.803 167.676 408.758 167.663C408.713 167.65 408.672 167.626 408.637 167.595C408.602 167.564 408.574 167.525 408.556 167.482C408.538 167.438 408.529 167.392 408.531 167.345C408.531 167.123 408.637 167.017 408.859 167.017H408.964C409.178 167.031 409.388 166.962 409.552 166.824C409.689 166.653 409.755 166.436 409.735 166.217V160.012C409.744 159.909 409.732 159.804 409.701 159.705C409.67 159.606 409.619 159.514 409.552 159.434C409.387 159.3 409.176 159.234 408.964 159.251H408.579C408.367 159.251 408.252 159.164 408.233 158.991C408.213 158.817 408.329 158.711 408.579 158.673L410.91 158.374C411.095 158.354 411.283 158.354 411.468 158.374C411.603 158.374 411.671 158.499 411.671 158.673V159.81C411.778 159.681 411.877 159.546 411.969 159.405V159.405Z" fill="#282828"/>
<path d="M441.869 166.111C441.988 166.255 442.116 166.391 442.255 166.516C442.36 166.612 442.473 166.699 442.592 166.776C442.727 166.866 442.877 166.931 443.035 166.969C443.172 166.979 443.311 166.979 443.449 166.969H443.603C443.652 166.967 443.701 166.977 443.746 166.997C443.791 167.017 443.831 167.047 443.863 167.085C443.93 167.155 443.967 167.248 443.969 167.345C443.964 167.435 443.927 167.521 443.863 167.586C443.831 167.623 443.791 167.653 443.746 167.673C443.701 167.693 443.652 167.703 443.603 167.701H438.653C438.604 167.703 438.555 167.693 438.51 167.673C438.465 167.653 438.425 167.623 438.393 167.586C438.331 167.521 438.296 167.434 438.296 167.345C438.294 167.249 438.329 167.156 438.393 167.085C438.425 167.047 438.465 167.017 438.51 166.997C438.555 166.977 438.604 166.967 438.653 166.969H438.894C439.202 166.969 439.404 166.911 439.5 166.776C439.597 166.641 439.587 166.468 439.5 166.227L435.716 160.667L434.223 162.257V166.111C434.214 166.234 434.23 166.356 434.269 166.472C434.309 166.588 434.372 166.695 434.454 166.786C434.542 166.869 434.647 166.932 434.762 166.972C434.876 167.012 434.998 167.027 435.118 167.017H435.417C435.472 167.013 435.528 167.021 435.579 167.041C435.631 167.061 435.677 167.093 435.716 167.133C435.78 167.204 435.814 167.297 435.812 167.393C435.812 167.483 435.778 167.569 435.716 167.634C435.677 167.674 435.631 167.705 435.579 167.725C435.528 167.745 435.472 167.753 435.417 167.749H430.852C430.797 167.753 430.742 167.745 430.69 167.725C430.638 167.705 430.592 167.674 430.554 167.634C430.492 167.569 430.457 167.483 430.457 167.393C430.455 167.297 430.49 167.204 430.554 167.133C430.592 167.093 430.638 167.061 430.69 167.041C430.742 167.021 430.797 167.013 430.852 167.017H431.151C431.4 167.032 431.645 166.949 431.834 166.786C431.988 166.596 432.064 166.355 432.046 166.111V155.426C432.064 155.182 431.988 154.941 431.834 154.751C431.647 154.585 431.401 154.498 431.151 154.51H430.852C430.802 154.514 430.751 154.508 430.703 154.491C430.655 154.475 430.612 154.448 430.575 154.414C430.537 154.379 430.508 154.338 430.488 154.291C430.467 154.245 430.457 154.195 430.457 154.144C430.455 154.098 430.463 154.052 430.479 154.009C430.496 153.966 430.521 153.927 430.554 153.894C430.594 153.857 430.641 153.828 430.692 153.81C430.743 153.792 430.798 153.784 430.852 153.788H435.359C435.414 153.784 435.468 153.792 435.519 153.81C435.571 153.828 435.618 153.857 435.658 153.894C435.69 153.927 435.715 153.966 435.732 154.009C435.748 154.052 435.756 154.098 435.754 154.144C435.754 154.195 435.744 154.245 435.724 154.291C435.704 154.338 435.674 154.379 435.637 154.414C435.6 154.448 435.556 154.475 435.508 154.491C435.46 154.508 435.41 154.514 435.359 154.51H435.061C434.939 154.502 434.817 154.519 434.703 154.561C434.589 154.602 434.484 154.667 434.396 154.751C434.314 154.842 434.251 154.949 434.211 155.065C434.172 155.181 434.156 155.303 434.165 155.426V161.101L439.423 155.483C439.514 155.367 439.576 155.232 439.606 155.088C439.63 154.968 439.606 154.844 439.539 154.742C439.479 154.67 439.403 154.614 439.317 154.578C439.191 154.532 439.057 154.509 438.922 154.51H438.749C438.7 154.512 438.651 154.502 438.606 154.482C438.561 154.462 438.521 154.432 438.489 154.395C438.425 154.327 438.387 154.238 438.383 154.144C438.383 154.097 438.392 154.051 438.411 154.008C438.429 153.965 438.455 153.926 438.489 153.894C438.523 153.859 438.564 153.832 438.608 153.814C438.653 153.796 438.701 153.787 438.749 153.788H442.909C442.958 153.787 443.006 153.796 443.05 153.814C443.095 153.832 443.136 153.859 443.169 153.894C443.202 153.927 443.227 153.966 443.244 154.009C443.26 154.052 443.268 154.098 443.266 154.144C443.266 154.237 443.231 154.326 443.169 154.395C443.138 154.432 443.098 154.462 443.053 154.482C443.008 154.502 442.959 154.512 442.909 154.51H442.688C442.485 154.511 442.282 154.527 442.081 154.559C441.906 154.588 441.735 154.637 441.571 154.703C441.39 154.776 441.224 154.881 441.08 155.011L440.637 155.426L437.17 159.116L441.869 166.111Z" fill="#282828"/>
<path d="M444.634 161.641C444.723 161.194 444.876 160.763 445.086 160.359C445.256 160.032 445.466 159.728 445.712 159.453C445.956 159.162 446.249 158.917 446.579 158.731C446.901 158.551 447.244 158.412 447.6 158.316C448.36 158.137 449.151 158.137 449.911 158.316C450.247 158.399 450.571 158.525 450.874 158.692C451.241 158.902 451.568 159.176 451.837 159.501C452.117 159.83 452.353 160.193 452.54 160.581C452.72 160.963 452.846 161.368 452.916 161.785C452.992 162.221 453.03 162.663 453.031 163.105C453.032 163.564 452.99 164.022 452.906 164.473C452.83 164.909 452.69 165.331 452.492 165.726C452.316 166.072 452.1 166.395 451.847 166.69C451.587 166.992 451.282 167.252 450.942 167.46C450.643 167.646 450.319 167.786 449.979 167.875C449.581 167.97 449.174 168.015 448.765 168.01C448.368 168.012 447.973 167.961 447.59 167.855C447.258 167.752 446.936 167.62 446.627 167.46C446.312 167.289 446.028 167.064 445.789 166.796C445.545 166.528 445.332 166.234 445.154 165.919C444.932 165.5 444.77 165.053 444.672 164.589C444.564 164.099 444.509 163.598 444.509 163.096C444.501 162.608 444.543 162.12 444.634 161.641V161.641ZM448.245 158.962C448.075 158.999 447.914 159.071 447.773 159.174C447.53 159.337 447.329 159.555 447.186 159.81C447.021 160.111 446.904 160.436 446.839 160.773C446.744 161.195 446.683 161.624 446.656 162.055C446.656 162.479 446.656 162.845 446.656 163.124C446.656 163.404 446.656 163.731 446.656 164.088C446.674 164.484 446.725 164.877 446.81 165.264C446.865 165.557 446.959 165.842 447.09 166.111C447.222 166.371 447.394 166.608 447.6 166.815C447.761 166.95 447.943 167.057 448.139 167.133C448.347 167.217 448.57 167.259 448.794 167.258C449.079 167.264 449.361 167.198 449.613 167.065C449.849 166.953 450.054 166.784 450.21 166.574C450.359 166.381 450.485 166.171 450.585 165.948C450.685 165.702 450.759 165.447 450.807 165.186C450.878 164.814 450.923 164.438 450.942 164.059C450.942 163.674 450.942 163.346 450.942 163.096C450.942 162.845 450.942 162.46 450.942 162.026C450.922 161.609 450.858 161.196 450.749 160.793C450.68 160.473 450.566 160.165 450.412 159.877C450.278 159.62 450.087 159.396 449.853 159.222C449.71 159.112 449.546 159.03 449.372 158.981C449.187 158.915 448.991 158.882 448.794 158.885C448.621 158.887 448.449 158.912 448.284 158.962H448.245Z" fill="#282828"/>
<path d="M454.592 161.641C454.685 161.195 454.838 160.765 455.044 160.359C455.22 160.036 455.43 159.732 455.67 159.453C455.918 159.167 456.211 158.923 456.537 158.731C456.863 158.552 457.209 158.413 457.567 158.316C457.955 158.219 458.353 158.17 458.752 158.172C459.131 158.17 459.509 158.212 459.879 158.297C460.216 158.377 460.54 158.503 460.842 158.673C461.208 158.883 461.534 159.158 461.805 159.482C462.084 159.809 462.317 160.172 462.498 160.562C462.678 160.944 462.804 161.349 462.874 161.766C462.957 162.201 462.999 162.643 462.999 163.086C462.996 163.545 462.951 164.003 462.864 164.454C462.725 165.278 462.362 166.048 461.814 166.68C461.552 166.98 461.247 167.239 460.909 167.451C460.61 167.634 460.285 167.774 459.946 167.865C459.552 167.961 459.148 168.006 458.742 168C458.345 168.004 457.95 167.952 457.567 167.846C457.215 167.747 456.874 167.615 456.547 167.451C456.231 167.279 455.948 167.054 455.709 166.786C455.468 166.516 455.255 166.222 455.073 165.909C454.854 165.49 454.695 165.043 454.601 164.579C454.493 164.089 454.438 163.588 454.438 163.086C454.44 162.6 454.492 162.116 454.592 161.641ZM458.203 158.962C458.034 159.003 457.874 159.075 457.731 159.174C457.49 159.339 457.289 159.556 457.144 159.81C456.979 160.111 456.862 160.436 456.797 160.773C456.7 161.194 456.642 161.623 456.624 162.055C456.624 162.479 456.624 162.845 456.624 163.125C456.624 163.404 456.624 163.732 456.624 164.088C456.651 164.483 456.702 164.875 456.778 165.264C456.841 165.557 456.938 165.841 457.067 166.112C457.196 166.373 457.368 166.611 457.577 166.815C457.737 166.951 457.919 167.059 458.116 167.133C458.324 167.218 458.547 167.26 458.771 167.258C459.056 167.263 459.337 167.197 459.59 167.065C459.826 166.953 460.031 166.785 460.187 166.574C460.337 166.383 460.46 166.172 460.553 165.948C460.651 165.701 460.729 165.446 460.784 165.187C460.851 164.814 460.893 164.437 460.909 164.059C460.909 163.674 460.909 163.346 460.909 163.096C460.909 162.845 460.909 162.46 460.909 162.026C460.893 161.61 460.831 161.196 460.726 160.793C460.653 160.473 460.537 160.165 460.379 159.877C460.245 159.623 460.058 159.399 459.83 159.222C459.686 159.114 459.523 159.032 459.349 158.981C459.164 158.915 458.968 158.882 458.771 158.885C458.579 158.882 458.387 158.908 458.203 158.962V158.962Z" fill="#282828"/>
</g>
<defs>
<clipPath id="clip0_1161_1268">
<rect width="439" height="134" fill="white" transform="translate(24 34)"/>
</clipPath>
</defs>
</svg>
