<svg width="186" height="36" viewBox="0 0 186 36" fill="none" xmlns="http://www.w3.org/2000/svg">
<g clip-path="url(#clip0_201_2548)">
<path d="M40.0066 9.41602H34.2441V27.95H40.0066V9.41602Z" fill="#0E4E95"/>
<path d="M37.1287 0.329621C36.2859 0.329619 35.4775 0.663649 34.8809 1.25846C34.2843 1.85328 33.9482 2.66028 33.9463 3.50241C33.9463 3.50241 33.9463 3.50245 33.9463 3.54495C33.9538 4.25583 34.2039 4.94287 34.6551 5.49254L35.1441 5.98117L37.1358 7.97129L39.1346 5.97408L39.6095 5.49963C40.0602 4.94693 40.3101 4.25786 40.3183 3.54495V3.50241C40.3183 3.08456 40.2357 2.67086 40.0752 2.28499C39.9147 1.89913 39.6796 1.54869 39.3832 1.25388C39.0869 0.959073 38.7351 0.725632 38.3482 0.567019C37.9613 0.408406 37.5469 0.327756 37.1287 0.329621V0.329621Z" fill="#0E4E95"/>
<path d="M9.91113 9.34521H15.6806V25.4926C15.6806 32.773 12.1863 35.3084 6.57275 35.3084C5.24732 35.3084 1.77427 34.7772 0.789062 34.2036L3.00756 30.0392C3.96421 30.3498 4.96445 30.5052 5.97029 30.4996C8.39433 30.4996 9.91113 29.4019 9.91113 25.4218V9.34521Z" fill="#0E4E95"/>
<path d="M53.0546 27.9499L52.5513 26.0944H52.4379C51.7798 26.8462 50.9611 27.4408 50.0423 27.8343C49.1234 28.2278 48.1279 28.41 47.1291 28.3677C43.3726 28.3677 41.1328 25.6411 41.1328 22.702C41.1328 17.8861 45.4564 15.5702 52.0197 15.6198V15.3507C52.0197 14.3663 51.4882 12.964 48.6459 12.964C46.7464 12.964 45.0453 13.4244 45.2225 13.7714L43.8545 10.2303C43.7482 9.9187 46.2928 9.01221 49.6666 9.01221C55.8543 9.01221 57.8247 12.6454 57.8247 17.008V23.4527C57.7994 25.0202 58.1751 26.5681 58.9162 27.9499H53.0546ZM52.2111 19.1963C49.1775 19.1609 46.8244 19.9046 46.8244 22.1213C46.8042 22.4215 46.8499 22.7226 46.9583 23.0033C47.0666 23.2841 47.235 23.538 47.4516 23.747C47.6683 23.9561 47.928 24.1154 48.2126 24.2138C48.4972 24.3122 48.7999 24.3473 49.0995 24.3167C49.7586 24.3191 50.4019 24.1155 50.9394 23.7346C51.477 23.3536 51.882 22.8143 52.0977 22.1921C52.1724 21.8692 52.2104 21.539 52.2111 21.2077V19.1963Z" fill="#0E4E95"/>
<path d="M29.2969 10.3508C30.1411 10.8862 30.8297 11.6338 31.2937 12.5188C31.7577 13.4038 31.9808 14.395 31.9407 15.3933C31.9394 15.9571 31.868 16.5185 31.728 17.0647C31.6448 17.3947 31.5334 17.7169 31.3949 18.0279C31.3326 18.1805 31.2616 18.3295 31.1822 18.474C31.1251 18.6153 31.0462 18.7468 30.9483 18.8636C30.8042 19.0229 30.6257 19.1474 30.4264 19.2276C30.227 19.3079 30.012 19.3417 29.7976 19.3267C29.5832 19.3117 29.375 19.2483 29.1888 19.141C29.0026 19.0338 28.8432 18.8856 28.7228 18.7077C28.6592 18.6136 28.6091 18.5112 28.5739 18.4032C28.1344 17.5594 27.4241 16.8872 26.5569 16.4945C25.6897 16.1019 24.7157 16.0114 23.7909 16.2374C22.8661 16.4635 22.044 16.9931 21.4561 17.7414C20.8683 18.4898 20.5488 19.4137 20.5488 20.365C20.5488 21.3163 20.8683 22.2401 21.4561 22.9885C22.044 23.7368 22.8661 24.2665 23.7909 24.4926C24.7157 24.7186 25.6897 24.6281 26.5569 24.2354C27.4241 23.8427 28.1344 23.1707 28.5739 22.3268C28.6136 22.1912 28.6733 22.0622 28.7511 21.9443C28.8772 21.7537 29.0489 21.5976 29.2507 21.49C29.4524 21.3824 29.6778 21.3268 29.9064 21.3282C30.2824 21.3282 30.643 21.4774 30.9088 21.7431C31.1747 22.0087 31.324 22.3689 31.324 22.7446C31.3229 22.8943 31.2966 23.0427 31.246 23.1837C31.2162 23.2777 31.1758 23.3679 31.1255 23.4528C30.6833 24.3526 30.0535 25.1473 29.2784 25.7837C28.5034 26.4202 27.601 26.8835 26.6318 27.1426C26.4712 27.1851 26.3082 27.2205 26.1428 27.2488C25.7836 27.379 25.4689 27.6086 25.2354 27.9108C25.002 28.213 24.8594 28.5755 24.8244 28.9557C24.828 29.0146 24.828 29.0737 24.8244 29.1327C24.8281 29.1917 24.8281 29.2508 24.8244 29.3098C24.8686 29.8076 25.0974 30.271 25.4659 30.6091C25.8343 30.9471 26.3159 31.1354 26.8161 31.1369H27.0146C27.1776 31.1369 27.3335 31.0732 27.4966 31.0307L27.9218 30.9173C30.0802 30.2914 31.9942 29.0184 33.4049 27.2703C34.8156 25.5221 35.655 23.3833 35.8096 21.143C35.9643 18.9027 35.4266 16.669 34.2695 14.7439C33.1123 12.8188 31.3914 11.2952 29.3394 10.3791L29.2969 10.3508Z" fill="url(#paint0_linear_201_2548)"/>
<path d="M29.2969 10.3509C28.9992 10.2164 28.7015 10.096 28.3896 9.98973C26.0104 9.17747 23.4242 9.20631 21.0638 10.0714C18.7033 10.9365 16.7118 12.5854 15.4226 14.7422C14.1333 16.8989 13.6244 19.4327 13.9811 21.9195C14.3379 24.4063 15.5385 26.6953 17.3822 28.4033C16.2793 27.1357 15.5465 25.5893 15.2641 23.9335C14.9818 22.2777 15.1606 20.5761 15.7812 19.0151C16.4017 17.454 17.44 16.0935 18.7825 15.0825C20.125 14.0715 21.7199 13.449 23.3927 13.2829V13.2829C24.1462 13.2015 24.9076 13.2277 25.6537 13.3608V13.3608C26.7947 13.4994 27.884 13.9161 28.8259 14.5744C29.7677 15.2326 30.5331 16.1122 31.0547 17.1356C31.1394 17.2592 31.204 17.3955 31.246 17.5393C31.2823 17.6636 31.3014 17.7922 31.3027 17.9217C31.3033 18.0965 31.2696 18.2698 31.2035 18.4317C31.2828 18.2871 31.3538 18.1382 31.4161 17.9855C31.5546 17.6746 31.6661 17.3523 31.7493 17.0223C31.8892 16.4761 31.9606 15.9147 31.9619 15.3509C31.9923 14.3577 31.7624 13.3738 31.2949 12.4967C30.8274 11.6197 30.1386 10.88 29.2969 10.3509V10.3509Z" fill="url(#paint1_linear_201_2548)"/>
<path d="M23.3926 13.3252C21.7197 13.4912 20.1248 14.1138 18.7824 15.1248C17.4399 16.1358 16.4016 17.4962 15.781 19.0573C15.1605 20.6184 14.9816 22.32 15.264 23.9758C15.5464 25.6317 16.2791 27.1779 17.3821 28.4456C18.7159 29.6657 20.3298 30.5389 22.0813 30.9881L22.62 31.1085H22.7688C23.2691 31.1069 23.7506 30.9186 24.1191 30.5806C24.4876 30.2426 24.7163 29.7792 24.7605 29.2813C24.7568 29.2224 24.7568 29.1632 24.7605 29.1043C24.757 29.0453 24.757 28.9862 24.7605 28.9272C24.7239 28.5551 24.5846 28.2005 24.3581 27.9028C24.1315 27.6052 23.8267 27.3763 23.4776 27.2417C23.3217 27.2417 23.1728 27.185 23.024 27.1425C21.3804 26.7071 19.9515 25.6889 19.004 24.2782C18.0565 22.8674 17.655 21.1604 17.8746 19.4756C18.0941 17.7908 18.9197 16.2434 20.1972 15.1221C21.4747 14.0008 23.1168 13.3823 24.8172 13.3819C25.0991 13.3806 25.3809 13.3971 25.6607 13.4315C24.9136 13.2882 24.1498 13.2524 23.3926 13.3252Z" fill="url(#paint2_linear_201_2548)"/>
<path d="M29.892 21.3281C29.6633 21.3267 29.4379 21.3824 29.2362 21.4899C29.0344 21.5975 28.8627 21.7537 28.7366 21.9442C28.6848 22.0749 28.6256 22.2027 28.5594 22.3267C28.1199 23.1706 27.4096 23.8426 26.5424 24.2353C25.6752 24.628 24.7013 24.7186 23.7764 24.4925C22.8516 24.2664 22.0295 23.7368 21.4417 22.9884C20.8538 22.2401 20.5343 21.3163 20.5343 20.3649C20.5343 19.4136 20.8538 18.4897 21.4417 17.7414C22.0295 16.993 22.8516 16.4634 23.7764 16.2374C24.7013 16.0113 25.6752 16.1018 26.5424 16.4945C27.4096 16.8872 28.1199 17.5593 28.5594 18.4032C28.6161 18.5011 28.6658 18.6028 28.7083 18.7077C28.8288 18.8855 28.9881 19.0337 29.1743 19.141C29.3606 19.2482 29.5687 19.3116 29.7831 19.3267C29.9975 19.3417 30.2125 19.3078 30.4119 19.2276C30.6113 19.1473 30.7897 19.0228 30.9339 18.8635C31.0186 18.7378 31.0966 18.6078 31.1678 18.474C31.2339 18.3121 31.2676 18.1389 31.267 17.9641C31.2657 17.8346 31.2466 17.7059 31.2103 17.5816C31.1536 17.4494 31.0898 17.3149 31.0189 17.178C30.4974 16.1546 29.732 15.275 28.7902 14.6167C27.8483 13.9585 26.759 13.5417 25.618 13.4031C25.3382 13.3688 25.0564 13.3522 24.7745 13.3536C24.2982 13.355 23.8232 13.4048 23.357 13.5023L22.96 13.6014C21.4747 14.0078 20.1648 14.8921 19.2332 16.1175C18.3016 17.3428 17.8002 18.8408 17.8067 20.3796C17.8132 21.9183 18.3271 23.4121 19.2689 24.6295C20.2108 25.847 21.528 26.7202 23.0167 27.1142C23.1713 27.1295 23.3235 27.1628 23.4704 27.2133C23.8328 27.3425 24.1507 27.5725 24.3868 27.8762C24.6228 28.1798 24.7672 28.5444 24.8029 28.9272C24.8378 28.5471 24.9804 28.1847 25.2138 27.8825C25.4473 27.5802 25.762 27.3506 26.1212 27.2204C26.2788 27.1634 26.4432 27.1276 26.6103 27.1142C27.5794 26.8551 28.4818 26.3917 29.2569 25.7553C30.0319 25.1189 30.6617 24.3241 31.104 23.4244C31.1465 23.3323 31.189 23.2473 31.2245 23.1553C31.275 23.0143 31.3013 22.8659 31.3024 22.7162C31.295 22.3467 31.1434 21.9947 30.8799 21.7354C30.6164 21.476 30.2618 21.3299 29.892 21.3281Z" fill="white"/>
<path d="M15.5245 14.6709C14.5333 16.3949 14.0117 18.3484 14.0117 20.3366C14.0117 22.3249 14.5333 24.2783 15.5245 26.0023C14.5067 22.2937 14.5067 18.3796 15.5245 14.6709V14.6709Z" fill="url(#paint3_linear_201_2548)"/>
<path d="M34.0312 14.6709C35.0177 16.3965 35.5365 18.3494 35.5365 20.3366C35.5365 22.3239 35.0177 24.2767 34.0312 26.0023C35.0491 22.2937 35.0491 18.3796 34.0312 14.6709V14.6709Z" fill="url(#paint4_linear_201_2548)"/>
<path d="M68.705 19.508L67.9962 20.2162C67.5673 19.8874 67.2062 19.4785 66.933 19.0123C66.5873 18.472 66.3468 17.8713 66.2243 17.2418C66.122 17.8771 65.8799 18.4818 65.5155 19.0123C65.213 19.5073 64.8213 19.9419 64.3602 20.2941L63.6514 19.5859C64.3391 18.9894 64.8615 18.2261 65.1682 17.3693C65.462 16.4158 65.5961 15.4203 65.5651 14.4231V13.9698H64.0483V13.0775H68.2656V13.9769H66.7346V14.4302C66.7984 16.6965 67.4221 18.389 68.705 19.508ZM72.8656 22.5392H71.7103V16.7319H70.4841V22.3976H69.3571V12.8862H70.4841V15.8112H71.7103V12.8862H72.8656V22.5392Z" fill="#231F20"/>
<path d="M83.2212 17.6738L82.6755 18.467C82.1465 18.2475 81.665 17.9277 81.2579 17.5251C80.8634 17.1512 80.5498 16.7005 80.3365 16.2007C80.1493 16.7213 79.8407 17.1898 79.4363 17.5675C79.0119 18.0053 78.5064 18.3566 77.9479 18.6016L77.3809 17.78C78.926 17.0152 79.6986 15.9103 79.6986 14.4655V13.9486H77.6998V13.0775H82.959V13.9698H80.939V14.4655C80.9373 15.1345 81.1483 15.7867 81.5414 16.3281C81.973 16.9166 82.5525 17.3809 83.2212 17.6738V17.6738ZM86.3612 22.3763H79.9112C79.7238 22.3942 79.5359 22.3466 79.3796 22.2417C79.3237 22.1756 79.2817 22.0988 79.2561 22.0161C79.2306 21.9333 79.2219 21.8463 79.2308 21.7602V19.246H80.4003V21.1157C80.4003 21.3636 80.5349 21.484 80.8114 21.484H86.3612V22.3763ZM86.0351 19.4301H84.8727V15.8891H82.6755V15.0109H84.8727V12.8862H86.0351V19.4301Z" fill="#231F20"/>
<path d="M93.555 16.7814C93.1495 17.1166 92.6587 17.3324 92.1374 17.4046C91.1774 17.5647 90.2044 17.6335 89.2314 17.61C88.848 17.6155 88.4647 17.5989 88.0832 17.5604C87.9473 17.5554 87.814 17.5219 87.6919 17.4621C87.5698 17.4023 87.4616 17.3176 87.3744 17.2134C87.2386 16.9851 87.1767 16.7205 87.1972 16.4556V13.0774H88.3454V16.1511C88.3375 16.2073 88.3413 16.2645 88.3566 16.3191C88.3719 16.3738 88.3984 16.4247 88.4343 16.4686C88.4703 16.5125 88.515 16.5485 88.5655 16.5743C88.6161 16.6001 88.6715 16.6152 88.7282 16.6185C89.1142 16.6593 89.5025 16.6759 89.8906 16.6681C90.6771 16.6867 91.4639 16.6441 92.2438 16.5406C93.073 16.3919 93.5125 16.0661 93.5692 15.5633V12.9004H94.7458V14.8692H96.4823V15.7616H94.7528V18.3749H93.5763L93.555 16.7814ZM94.8379 19.3098L94.7103 22.6667H89.1747C88.9574 22.6883 88.7399 22.6277 88.5652 22.4967C88.4995 22.4162 88.4506 22.3233 88.4214 22.2236C88.3922 22.1238 88.3832 22.0192 88.395 21.916V18.814H94.3559C94.6961 18.814 94.8521 18.9769 94.8379 19.3098ZM93.6188 21.7673V20.0251C93.6257 19.9829 93.6226 19.9397 93.61 19.8989C93.5973 19.8581 93.5753 19.8207 93.5458 19.7898C93.5163 19.759 93.48 19.7353 93.4397 19.7209C93.3995 19.7064 93.3565 19.7014 93.314 19.7063H89.5504V21.3777C89.5421 21.4301 89.5463 21.4837 89.5625 21.5343C89.5787 21.5848 89.6065 21.6308 89.6437 21.6687C89.6809 21.7066 89.7264 21.7352 89.7767 21.7523C89.827 21.7694 89.8805 21.7745 89.9331 21.7673H93.6188Z" fill="#231F20"/>
<path d="M102.471 17.086L101.932 17.8721C101.444 17.6859 100.991 17.4176 100.593 17.0789C100.195 16.7387 99.8742 16.3189 99.6499 15.8466C99.4534 16.3669 99.1293 16.8296 98.7073 17.1922C98.2931 17.5825 97.8132 17.8965 97.2897 18.1199L96.7227 17.2984C98.2678 16.5335 99.0404 15.4735 99.0404 14.1185V13.9414H97.0274V13.0774H102.265V13.9769H100.252V14.1327C100.229 15.3933 100.968 16.3777 102.471 17.086ZM105.228 20.5916C105.237 20.8978 105.174 21.2018 105.045 21.4795C104.916 21.7573 104.724 22.0013 104.484 22.1922C103.862 22.6081 103.131 22.8302 102.382 22.8302C101.634 22.8302 100.903 22.6081 100.281 22.1922C100.05 21.9927 99.8644 21.7459 99.7374 21.4685C99.6104 21.1911 99.5446 20.8896 99.5446 20.5845C99.5446 20.2794 99.6104 19.9779 99.7374 19.7005C99.8644 19.4231 100.05 19.1763 100.281 18.9768C100.899 18.566 101.625 18.3469 102.368 18.3469C103.111 18.3469 103.837 18.566 104.456 18.9768C104.702 19.1666 104.9 19.4117 105.034 19.6922C105.169 19.9727 105.235 20.2808 105.228 20.5916V20.5916ZM104.059 20.5916C104.063 20.4004 104.023 20.2107 103.942 20.0374C103.861 19.8642 103.741 19.7121 103.591 19.593C103.246 19.3286 102.82 19.1933 102.386 19.2106C101.95 19.1935 101.521 19.3286 101.174 19.593C101.023 19.7117 100.902 19.8636 100.82 20.0368C100.737 20.21 100.696 20.3999 100.699 20.5916C100.696 20.7823 100.737 20.9711 100.82 21.1432C100.902 21.3152 101.023 21.4658 101.174 21.5831C101.52 21.8494 101.949 21.9872 102.386 21.9727C102.821 21.9873 103.247 21.8495 103.591 21.5831C103.74 21.4655 103.861 21.3146 103.942 21.1425C104.023 20.9704 104.063 20.7818 104.059 20.5916V20.5916ZM105.285 18.1199H104.122V15.7049H101.996V14.848H104.122V12.9075H105.285V18.1199Z" fill="#231F20"/>
<path d="M115.917 20.5562H106.497V19.6638H110.658V17.9499H108.531C108.415 17.9625 108.298 17.952 108.186 17.9192C108.074 17.8864 107.97 17.8319 107.879 17.7587C107.809 17.6748 107.755 17.5778 107.722 17.4733C107.69 17.3687 107.678 17.2587 107.688 17.1496V13.0208H108.843V14.3805H113.585V13.0208H114.74V17.9783H111.792V19.6921H115.924L115.917 20.5562ZM113.578 17.0575V15.2728H108.836V16.6185C108.836 16.8876 108.985 17.0292 109.283 17.0292L113.578 17.0575Z" fill="#231F20"/>
<path d="M125.84 18.3395H121.907V20.4074H120.744V18.3395H116.428V17.4683H125.84V18.3395ZM124.749 22.4825H118.37C118.182 22.5028 117.994 22.455 117.838 22.3479C117.781 22.2823 117.738 22.2058 117.711 22.123C117.684 22.0403 117.674 21.953 117.682 21.8664V19.4513H118.852V21.2219C118.852 21.4697 118.994 21.5902 119.263 21.5902H124.763L124.749 22.4825ZM124.678 13.6581L124.536 16.4414H118.554C118.338 16.4605 118.122 16.4028 117.945 16.2785C117.876 16.1938 117.825 16.0963 117.795 15.9918C117.764 15.8872 117.755 15.7777 117.767 15.6695V12.9429H123.976C124.465 12.9429 124.699 13.1765 124.678 13.6581ZM123.452 15.5491V14.2034C123.453 14.1548 123.444 14.1065 123.426 14.0614C123.408 14.0163 123.38 13.9753 123.346 13.9409C123.312 13.9065 123.271 13.8794 123.225 13.8613C123.18 13.8431 123.132 13.8342 123.083 13.8351H118.923V15.1595C118.923 15.4215 119.064 15.5491 119.348 15.5491H123.452Z" fill="#231F20"/>
<path d="M133.445 19.7701C133.013 20.1248 132.485 20.342 131.928 20.3933C130.93 20.492 129.926 20.5299 128.923 20.5067H126.145V19.6143H128.788V18.3254C128.249 18.2558 127.75 18.0062 127.371 17.6172C127.19 17.4289 127.049 17.2067 126.956 16.9636C126.862 16.7205 126.818 16.4612 126.825 16.2008C126.803 15.6814 126.984 15.1737 127.328 14.7843H126.251V13.892H128.824V12.6526H129.972V13.892H132.467V14.7843H131.425C131.767 15.1748 131.945 15.6823 131.921 16.2008C131.931 16.4597 131.89 16.7181 131.8 16.9612C131.71 17.2043 131.573 17.4272 131.397 17.6172C131.016 18.0035 130.517 18.2526 129.979 18.3254V19.6214C130.689 19.625 131.399 19.5919 132.105 19.5222C132.956 19.416 133.417 19.0761 133.473 18.4954V12.9146H134.629V16.307H136.145V17.1993H134.629V22.5463H133.473L133.445 19.7701ZM130.737 16.229C130.744 16.0633 130.713 15.8981 130.647 15.746C130.581 15.5939 130.481 15.4588 130.355 15.3508C130.066 15.1348 129.716 15.018 129.355 15.018C128.995 15.018 128.644 15.1348 128.356 15.3508C128.233 15.4617 128.135 15.5972 128.067 15.7485C128 15.8998 127.965 16.0635 127.965 16.229C127.965 16.3946 128 16.5583 128.067 16.7096C128.135 16.8609 128.233 16.9963 128.356 17.1072C128.644 17.3233 128.995 17.4401 129.355 17.4401C129.716 17.4401 130.066 17.3233 130.355 17.1072C130.482 16.9974 130.583 16.8599 130.649 16.7053C130.716 16.5506 130.746 16.383 130.737 16.2149V16.229Z" fill="#231F20"/>
<path d="M142.099 17.5463L141.561 18.3395C141.029 18.1126 140.547 17.7829 140.143 17.3693C139.714 16.9828 139.388 16.4961 139.193 15.9528C139.008 16.5116 138.687 17.0154 138.258 17.4188C137.823 17.8458 137.317 18.1933 136.762 18.4457L136.202 17.6383C136.941 17.2887 137.567 16.7391 138.01 16.0519C138.409 15.3345 138.603 14.521 138.569 13.7007V12.9925H139.76V13.7007C139.723 14.5014 139.926 15.295 140.342 15.9801C140.759 16.6651 141.371 17.2105 142.099 17.5463ZM144.835 22.3763H138.839C138.651 22.3941 138.464 22.3466 138.307 22.2417C138.251 22.1755 138.209 22.0988 138.184 22.0161C138.158 21.9333 138.15 21.8463 138.158 21.7602V19.161H139.328V21.1157C139.328 21.3635 139.463 21.4839 139.739 21.4839H144.835V22.3763ZM146.09 16.0448H144.445V19.4514H143.29V12.9075H144.445V15.1525H146.097L146.09 16.0448Z" fill="#231F20"/>
<path d="M155.524 18.0349H154.362V15.7687H152.476C152.431 16.0595 152.328 16.3383 152.174 16.5888C152.019 16.8394 151.816 17.0565 151.576 17.2275C151.046 17.6005 150.41 17.7919 149.762 17.7729C149.034 17.7953 148.326 17.5424 147.777 17.0647C147.523 16.8449 147.321 16.5713 147.186 16.2638C147.052 15.9563 146.987 15.6226 146.997 15.287C146.986 14.9534 147.05 14.6215 147.185 14.3162C147.32 14.0108 147.523 13.7399 147.777 13.5236C148.325 13.0453 149.034 12.7922 149.762 12.8154C150.409 12.7938 151.046 12.9827 151.576 13.3536C151.816 13.5247 152.019 13.7418 152.174 13.9923C152.328 14.2429 152.431 14.5217 152.476 14.8125H154.369V12.8649H155.531L155.524 18.0349ZM151.356 15.3225C151.363 15.1153 151.327 14.9089 151.25 14.7163C151.174 14.5237 151.058 14.3491 150.91 14.2035C150.588 13.9254 150.177 13.7723 149.751 13.7723C149.325 13.7723 148.914 13.9254 148.592 14.2035C148.447 14.3504 148.333 14.5255 148.257 14.7178C148.182 14.9102 148.146 15.1159 148.153 15.3225C148.145 15.5292 148.18 15.7353 148.255 15.9278C148.331 16.1204 148.446 16.2952 148.592 16.4414C148.914 16.7195 149.325 16.8726 149.751 16.8726C150.177 16.8726 150.588 16.7195 150.91 16.4414C151.061 16.2942 151.18 16.1163 151.257 15.9196C151.334 15.7229 151.368 15.5121 151.356 15.3012V15.3225ZM155.524 22.6879H149.712C149.494 22.7075 149.276 22.6443 149.102 22.5108C148.971 22.3391 148.91 22.1238 148.932 21.9088V18.6865H150.102V19.7205H154.355V18.6865H155.517L155.524 22.6879ZM154.362 21.7885V20.6128H150.109V21.406C150.109 21.661 150.244 21.7885 150.52 21.7885H154.362Z" fill="#231F20"/>
<path d="M162.931 17.61L162.421 18.4457C161.894 18.2441 161.412 17.9409 161.003 17.5533C160.571 17.1834 160.221 16.7276 159.975 16.2149C159.768 16.7501 159.426 17.2231 158.983 17.5888C158.533 18.0112 157.999 18.3345 157.417 18.5377L156.878 17.7092C157.615 17.4234 158.255 16.9317 158.721 16.2928C159.11 15.7761 159.321 15.1475 159.323 14.501V13.9202H157.225V13.0774H162.605V13.9698H160.521V14.5647C160.534 15.189 160.754 15.7916 161.145 16.2786C161.607 16.8769 162.225 17.3374 162.931 17.61ZM165.766 22.3763H159.458C159.27 22.3966 159.082 22.3488 158.926 22.2417C158.868 22.177 158.823 22.1007 158.797 22.0177C158.77 21.9347 158.761 21.8469 158.77 21.7602V19.1822H159.94V21.1157C159.94 21.3635 160.075 21.4839 160.351 21.4839H165.766V22.3763ZM165.433 19.4301H164.278V12.9075H165.433V19.4301Z" fill="#231F20"/>
<path d="M176.086 18.5096H166.652V17.688H176.072L176.086 18.5096ZM173.917 15.3155C173.929 15.5623 173.88 15.8081 173.777 16.0324C173.673 16.2567 173.517 16.4529 173.322 16.6045C172.73 16.943 172.059 17.121 171.376 17.121C170.694 17.121 170.023 16.943 169.431 16.6045C169.236 16.4529 169.08 16.2567 168.976 16.0324C168.872 15.8081 168.824 15.5623 168.835 15.3155C168.824 14.9237 168.96 14.5418 169.218 14.2461H167.68V13.4175H170.806V12.5393H171.968V13.4175H175.051V14.2461H173.535C173.792 14.5418 173.929 14.9237 173.917 15.3155V15.3155ZM174.286 21.045C174.296 21.3042 174.24 21.5618 174.125 21.7943C174.01 22.0268 173.839 22.2269 173.627 22.3764C172.932 22.7394 172.16 22.929 171.376 22.929C170.593 22.929 169.82 22.7394 169.126 22.3764C168.914 22.2269 168.743 22.0268 168.627 21.7943C168.512 21.5618 168.457 21.3042 168.467 21.045C168.458 20.7849 168.513 20.5265 168.628 20.293C168.743 20.0595 168.914 19.858 169.126 19.7064C169.819 19.3393 170.592 19.1474 171.376 19.1474C172.161 19.1474 172.934 19.3393 173.627 19.7064C173.839 19.858 174.009 20.0595 174.124 20.293C174.239 20.5265 174.295 20.7849 174.286 21.045V21.045ZM173.159 21.045C173.157 20.8908 173.114 20.7399 173.035 20.6079C172.955 20.4759 172.841 20.3675 172.705 20.2942C172.295 20.0814 171.835 19.9813 171.373 20.0039C170.917 19.9765 170.463 20.0771 170.062 20.2942C169.919 20.361 169.798 20.467 169.713 20.6C169.628 20.733 169.583 20.8874 169.583 21.045C169.583 21.2026 169.628 21.357 169.713 21.4899C169.798 21.6229 169.919 21.729 170.062 21.7957C170.464 22.0094 170.918 22.1097 171.373 22.086C171.836 22.11 172.297 22.0072 172.705 21.7886C172.84 21.7159 172.953 21.6088 173.033 21.4781C173.112 21.3475 173.156 21.198 173.159 21.045V21.045ZM172.776 15.3155C172.779 15.1753 172.746 15.0365 172.681 14.9125C172.615 14.7885 172.519 14.6835 172.401 14.6073C172.09 14.4263 171.736 14.3309 171.376 14.3309C171.017 14.3309 170.663 14.4263 170.352 14.6073C170.23 14.6812 170.13 14.7852 170.06 14.9092C169.99 15.0333 169.953 15.1732 169.953 15.3155C169.953 15.4579 169.99 15.5978 170.06 15.7219C170.13 15.8459 170.23 15.9499 170.352 16.0238C170.662 16.2091 171.016 16.3071 171.376 16.3071C171.737 16.3071 172.091 16.2091 172.401 16.0238C172.518 15.9471 172.614 15.8419 172.68 15.7181C172.746 15.5942 172.779 15.4557 172.776 15.3155V15.3155Z" fill="#231F20"/>
<path d="M180.501 19.5506H179.353V18.035H176.844V17.2135H180.388C181.096 17.2135 181.692 17.2135 182.153 17.164C182.471 17.164 182.783 17.1002 183.095 17.0506L183.202 17.6809C182.853 17.7824 182.498 17.8605 182.138 17.9146C181.602 17.9836 181.063 18.0214 180.522 18.028L180.501 19.5506ZM182.5 14.6356C182.509 14.8937 182.459 15.1506 182.354 15.3864C182.248 15.6222 182.089 15.8306 181.89 15.9954C181.348 16.4048 180.676 16.6059 179.998 16.562C179.318 16.6026 178.645 16.402 178.098 15.9954C177.904 15.8259 177.749 15.6169 177.642 15.3823C177.535 15.1478 177.48 14.8932 177.48 14.6356C177.48 14.378 177.535 14.1234 177.642 13.8889C177.749 13.6544 177.904 13.4454 178.098 13.2759C178.647 12.8751 179.319 12.6773 179.998 12.7163C180.675 12.6759 181.344 12.8739 181.89 13.2759C182.089 13.4407 182.248 13.649 182.354 13.8847C182.459 14.1205 182.509 14.3774 182.5 14.6356V14.6356ZM185.789 22.5039H179.268C179.08 22.5242 178.892 22.4764 178.736 22.3693C178.628 22.2277 178.578 22.0508 178.594 21.8736V20.1597H179.743V21.3283C179.743 21.5832 179.87 21.7036 180.133 21.7036H185.803L185.789 22.5039ZM181.345 14.6356C181.35 14.4758 181.32 14.3168 181.254 14.1707C181.189 14.0246 181.092 13.8954 180.969 13.7928C180.686 13.5862 180.345 13.4749 179.994 13.4749C179.644 13.4749 179.303 13.5862 179.02 13.7928C178.903 13.9003 178.81 14.0306 178.747 14.1756C178.683 14.3207 178.651 14.4773 178.651 14.6356C178.651 14.7939 178.683 14.9505 178.747 15.0956C178.81 15.2406 178.903 15.371 179.02 15.4784C179.301 15.6893 179.643 15.8033 179.994 15.8033C180.346 15.8033 180.688 15.6893 180.969 15.4784C181.091 15.3752 181.188 15.2458 181.253 15.0999C181.318 14.954 181.349 14.7952 181.345 14.6356ZM184.18 19.4657H181.975V18.6725H184.18V12.9076H185.335V20.2092H184.18V19.4657Z" fill="#231F20"/>
<path d="M75.8569 20.5066V14.416L74.8008 12.1284L73.8936 12.4684L74.8717 14.5718V20.3508L73.8936 22.4542L74.8008 22.7941L75.8569 20.5066Z" fill="#333333"/>
<path d="M61.248 14.416V20.5066L62.3041 22.7941L63.2114 22.4542L62.2333 20.3508V14.5718L63.2114 12.4684L62.3041 12.1284L61.248 14.4089V14.416Z" fill="#333333"/>
<path d="M63.1692 27.1142C63.0923 27.2119 62.9927 27.2894 62.8791 27.34C62.7654 27.3906 62.6412 27.4128 62.5171 27.4046C62.3993 27.4169 62.2805 27.4169 62.1627 27.4046C62.106 27.4046 62.0918 27.4046 62.0918 27.2984V26.8805C62.0918 26.7956 62.0918 26.7814 62.191 26.8168C62.2877 26.8256 62.385 26.8256 62.4816 26.8168C62.6234 26.8168 62.7014 26.7177 62.7014 26.3919V23.9769C62.7014 23.9202 62.7014 23.8848 62.7793 23.8848H63.1692C63.1821 23.8826 63.1953 23.8833 63.2079 23.887C63.2205 23.8908 63.232 23.8973 63.2416 23.9062C63.2512 23.9152 63.2586 23.9262 63.2633 23.9384C63.2679 23.9507 63.2697 23.9638 63.2684 23.9769V26.3636C63.3041 26.6182 63.2698 26.8776 63.1692 27.1142Z" fill="#231F20"/>
<path d="M65.9336 26.1865C65.9336 26.2573 65.9336 26.2998 65.8344 26.2998H64.4168C64.4149 26.377 64.4283 26.4538 64.4561 26.5258C64.4839 26.5978 64.5257 26.6637 64.579 26.7196C64.6323 26.7755 64.6962 26.8204 64.7668 26.8516C64.8375 26.8829 64.9136 26.8999 64.9909 26.9018C65.2249 26.9147 65.4567 26.8499 65.6501 26.7176C65.7351 26.6681 65.7635 26.7176 65.7635 26.7884V27.1284C65.7635 27.1992 65.7635 27.2063 65.6997 27.2488C65.483 27.3687 65.2386 27.4297 64.9909 27.4259C64.2821 27.4259 63.8214 26.9443 63.8214 26.0944C63.8018 25.934 63.8147 25.7712 63.8593 25.6158C63.904 25.4604 63.9795 25.3157 64.0814 25.1901C64.1832 25.0645 64.3093 24.9608 64.4522 24.8849C64.5951 24.8091 64.7518 24.7628 64.9129 24.7488C65.6713 24.7488 65.9478 25.3437 65.9478 26.0378L65.9336 26.1865ZM64.9129 25.2729C64.7836 25.2923 64.665 25.3558 64.5772 25.4526C64.4893 25.5494 64.4377 25.6735 64.431 25.804H65.3453C65.3572 25.6765 65.3186 25.5495 65.2378 25.4502C65.1569 25.3508 65.0403 25.2871 64.9129 25.2729V25.2729Z" fill="#231F20"/>
<path d="M68.3856 27.0152C68.2774 27.153 68.1382 27.2632 67.9793 27.3371C67.8205 27.4109 67.6464 27.4462 67.4712 27.4401C67.3007 27.4402 67.132 27.4043 66.9763 27.3347C66.8206 27.2652 66.6813 27.1636 66.5676 27.0366C66.4538 26.9096 66.3682 26.76 66.3163 26.5977C66.2644 26.4353 66.2473 26.2639 66.2663 26.0945C66.2479 25.9254 66.2654 25.7544 66.3176 25.5925C66.3697 25.4306 66.4554 25.2815 66.5691 25.1549C66.6828 25.0284 66.8219 24.9271 66.9773 24.8578C67.1327 24.7885 67.301 24.7527 67.4712 24.7527C67.6414 24.7527 67.8097 24.7885 67.9652 24.8578C68.1206 24.9271 68.2597 25.0284 68.3734 25.1549C68.487 25.2815 68.5727 25.4306 68.6249 25.5925C68.6771 25.7544 68.6946 25.9254 68.6762 26.0945C68.6834 26.425 68.5812 26.7487 68.3856 27.0152V27.0152ZM67.4712 25.2871C67.0672 25.2871 66.8688 25.6908 66.8688 26.0945C66.8688 26.4982 67.0672 26.909 67.4712 26.909C67.8752 26.909 68.0666 26.5053 68.0666 26.0945C68.0666 25.6837 67.8823 25.2871 67.4712 25.2871V25.2871Z" fill="#231F20"/>
<path d="M69.7682 27.2771C69.7682 27.3479 69.7682 27.3621 69.6832 27.3621H69.265C69.1941 27.3621 69.1729 27.3621 69.1729 27.27V25.5066C69.1729 25.2729 69.1729 25.0108 69.1729 24.8904C69.1729 24.77 69.1729 24.8125 69.265 24.8125H69.6903C69.7611 24.8125 69.7682 24.8125 69.7682 24.8692V25.0462C69.9138 24.8886 70.1141 24.7923 70.3282 24.7771C70.9236 24.7771 71.2 25.1312 71.2 25.7827V27.2771C71.2 27.3479 71.2 27.3621 71.1078 27.3621H70.6897C70.6773 27.3632 70.6648 27.3615 70.6532 27.3573C70.6415 27.353 70.6309 27.3462 70.6221 27.3375C70.6133 27.3287 70.6066 27.3182 70.6023 27.3065C70.5981 27.2949 70.5964 27.2824 70.5975 27.27V25.8536C70.5975 25.4853 70.4912 25.3083 70.2715 25.3083C70.2009 25.3066 70.1308 25.3203 70.0661 25.3483C70.0013 25.3763 69.9433 25.4179 69.8962 25.4704C69.8491 25.5228 69.8139 25.585 69.793 25.6523C69.7721 25.7197 69.7661 25.7908 69.7753 25.8607L69.7682 27.2771Z" fill="#231F20"/>
<path d="M72.5114 27.2771C72.5114 27.3479 72.5114 27.3621 72.4263 27.3621H72.0082C71.9302 27.3621 71.916 27.3621 71.916 27.27V25.5066C71.916 25.2729 71.916 25.0108 71.916 24.8904C71.916 24.77 71.916 24.8125 72.0011 24.8125H72.4334C72.5043 24.8125 72.5114 24.8125 72.5114 24.8692V25.0462C72.6539 24.8884 72.8521 24.792 73.0643 24.7771C73.6667 24.7771 73.9361 25.1312 73.9361 25.7827V27.2771C73.9361 27.3479 73.9361 27.3621 73.851 27.3621H73.4328C73.4204 27.3632 73.408 27.3615 73.3963 27.3573C73.3846 27.353 73.374 27.3462 73.3653 27.3375C73.3565 27.3287 73.3497 27.3182 73.3455 27.3065C73.3412 27.2949 73.3396 27.2824 73.3407 27.27V25.8536C73.3407 25.4853 73.2344 25.3083 73.0146 25.3083C72.9441 25.3066 72.874 25.3203 72.8092 25.3483C72.7445 25.3763 72.6865 25.4179 72.6394 25.4704C72.5922 25.5228 72.557 25.585 72.5362 25.6523C72.5153 25.7197 72.5093 25.7908 72.5185 25.8607L72.5114 27.2771Z" fill="#231F20"/>
<path d="M75.998 27.3762C75.9413 27.3762 75.9342 27.3762 75.9342 27.3125V27.1142C75.8635 27.2049 75.7733 27.2788 75.6703 27.3303C75.5672 27.3818 75.454 27.4095 75.3389 27.4116C75.2238 27.4255 75.107 27.4138 74.997 27.3773C74.887 27.3408 74.7864 27.2805 74.7024 27.2006C74.6184 27.1208 74.5532 27.0234 74.5112 26.9154C74.4693 26.8074 74.4518 26.6915 74.46 26.576C74.4605 26.4323 74.4988 26.2913 74.5709 26.167C74.643 26.0427 74.7465 25.9396 74.871 25.8678C75.1878 25.7137 75.541 25.65 75.8917 25.6836C75.8917 25.4428 75.7641 25.3153 75.5798 25.2941C75.3412 25.2881 75.1063 25.3548 74.9065 25.4853C74.7789 25.5703 74.7293 25.5845 74.7293 25.4853V25.1099C74.7293 25.0391 74.7293 25.0108 74.8073 24.9754C75.0362 24.8534 75.292 24.7901 75.5515 24.7913C76.1681 24.7913 76.4729 25.0958 76.4729 25.7544V26.7813C76.4729 26.9371 76.4729 27.1779 76.4729 27.3054C76.4729 27.4329 76.4729 27.4187 76.402 27.4187L75.998 27.3762ZM75.9342 26.1298C75.2254 26.1298 75.0695 26.314 75.0695 26.576C75.0658 26.6188 75.0718 26.6618 75.0872 26.702C75.1026 26.7421 75.1269 26.7782 75.1583 26.8075C75.1898 26.8368 75.2274 26.8587 75.2685 26.8713C75.3096 26.884 75.3531 26.8871 75.3956 26.8805C75.7145 26.8805 75.9271 26.6539 75.9271 26.1298H75.9342Z" fill="#231F20"/>
<path d="M80.0103 27.3622C79.9465 27.3622 79.9182 27.3622 79.9182 27.2701V25.7545C79.9241 25.7048 79.9196 25.6544 79.905 25.6065C79.8904 25.5586 79.866 25.5143 79.8333 25.4764C79.8007 25.4384 79.7605 25.4077 79.7153 25.386C79.6701 25.3644 79.6209 25.3524 79.5708 25.3508C79.2661 25.3508 79.0818 25.6553 79.0818 25.9953V27.2772C79.0829 27.2886 79.0814 27.3001 79.0775 27.3109C79.0737 27.3217 79.0674 27.3316 79.0593 27.3397C79.0512 27.3478 79.0413 27.354 79.0305 27.3579C79.0197 27.3618 79.0082 27.3633 78.9967 27.3622H78.5715C78.5006 27.3622 78.4793 27.3622 78.4793 27.2701V25.7545C78.4793 25.4641 78.3659 25.3508 78.1533 25.3508C78.0888 25.3497 78.0248 25.3619 77.9652 25.3867C77.9057 25.4115 77.852 25.4484 77.8074 25.495C77.7628 25.5415 77.7283 25.5967 77.7061 25.6572C77.6839 25.7177 77.6745 25.7822 77.6784 25.8466V27.263C77.6784 27.3338 77.6784 27.348 77.5933 27.348H77.1751C77.1043 27.348 77.083 27.348 77.083 27.2559V25.4925C77.083 25.2588 77.083 25.0109 77.083 24.8905C77.083 24.7701 77.083 24.7984 77.1822 24.7984H77.6004C77.6713 24.7984 77.6784 24.7984 77.6784 24.8551V25.0392C77.753 24.9364 77.8538 24.8555 77.9705 24.805C78.0871 24.7545 78.2151 24.7362 78.3412 24.7522C78.4673 24.7681 78.5868 24.8176 78.6871 24.8955C78.7875 24.9734 78.8651 25.0768 78.9117 25.195C78.9873 25.0727 79.091 24.9704 79.2144 24.8965C79.3377 24.8225 79.4769 24.7792 79.6205 24.7701C79.7407 24.7584 79.862 24.7731 79.9759 24.8131C80.0898 24.8532 80.1936 24.9176 80.28 25.0019C80.3664 25.0862 80.4334 25.1885 80.4762 25.3013C80.5189 25.4142 80.5365 25.535 80.5277 25.6553V27.263C80.5277 27.3338 80.5277 27.348 80.4426 27.348L80.0103 27.3622Z" fill="#231F20"/>
<path d="M82.5046 27.3622C82.4337 27.3622 82.4124 27.3622 82.4124 27.2772V23.9769C82.4114 23.9646 82.413 23.9521 82.4172 23.9404C82.4215 23.9288 82.4282 23.9182 82.437 23.9094C82.4458 23.9006 82.4564 23.8938 82.4681 23.8896C82.4797 23.8854 82.4922 23.8838 82.5046 23.8848H82.9369C82.9493 23.8838 82.9618 23.8854 82.9734 23.8896C82.9851 23.8938 82.9957 23.9006 83.0045 23.9094C83.0133 23.9182 83.02 23.9288 83.0243 23.9404C83.0285 23.9521 83.0302 23.9646 83.0291 23.9769V27.2772C83.0291 27.348 83.0291 27.3622 82.9369 27.3622H82.5046Z" fill="#231F20"/>
<path d="M84.1842 27.2771C84.1842 27.3479 84.1842 27.3621 84.0992 27.3621H83.6739C83.603 27.3621 83.5889 27.3621 83.5889 27.27V25.5066C83.601 25.3014 83.601 25.0956 83.5889 24.8904C83.5889 24.8196 83.5889 24.8125 83.681 24.8125H84.1134C84.1772 24.8125 84.1913 24.8125 84.1913 24.8692V25.0462C84.3329 24.8872 84.5316 24.7905 84.7442 24.7771C85.3466 24.7771 85.616 25.1312 85.616 25.7827V27.2771C85.616 27.3479 85.616 27.3621 85.5309 27.3621H85.1128C85.049 27.3621 85.0206 27.3621 85.0206 27.27V25.8536C85.0206 25.4853 84.9143 25.3083 84.6875 25.3083C84.6172 25.3065 84.5473 25.3201 84.4828 25.3481C84.4183 25.3762 84.3607 25.418 84.3141 25.4706C84.2675 25.5233 84.233 25.5854 84.213 25.6528C84.193 25.7202 84.1881 25.7912 84.1984 25.8607L84.1842 27.2771Z" fill="#231F20"/>
<path d="M87.5588 24.1328C87.5588 24.1965 87.5588 24.1965 87.4808 24.1753C87.406 24.139 87.3219 24.1266 87.2398 24.1398C87.1989 24.149 87.1616 24.1699 87.1326 24.2002C87.1036 24.2304 87.0842 24.2686 87.0768 24.3098C87.0675 24.3993 87.0675 24.4895 87.0768 24.5789V24.8056H87.4524C87.5233 24.8056 87.5375 24.8055 87.5375 24.8976V25.273C87.5375 25.3438 87.5375 25.365 87.4524 25.365H87.0768V27.2773C87.0768 27.3481 87.0768 27.3623 86.9917 27.3623H86.5594C86.4956 27.3623 86.4743 27.3623 86.4743 27.2773V25.365H86.1554C86.0987 25.365 86.0703 25.365 86.0703 25.273V24.8976C86.0703 24.8409 86.0703 24.8056 86.1554 24.8056H86.4743V24.6144C86.4743 24.0974 86.609 23.6016 87.1831 23.5945C87.3051 23.5881 87.4274 23.6025 87.5446 23.637C87.561 23.6434 87.5744 23.6557 87.5822 23.6714C87.5901 23.6871 87.5918 23.7051 87.5871 23.722L87.5588 24.1328Z" fill="#231F20"/>
<path d="M89.9188 27.0152C89.8114 27.1539 89.6724 27.2647 89.5133 27.3386C89.3542 27.4126 89.1797 27.4474 89.0044 27.4401C88.8339 27.4402 88.6652 27.4043 88.5095 27.3347C88.3538 27.2652 88.2145 27.1636 88.1008 27.0366C87.987 26.9096 87.9014 26.76 87.8495 26.5977C87.7976 26.4353 87.7805 26.2639 87.7995 26.0945C87.7811 25.9254 87.7986 25.7544 87.8508 25.5925C87.9029 25.4306 87.9886 25.2815 88.1023 25.1549C88.216 25.0284 88.3551 24.9271 88.5105 24.8578C88.6659 24.7885 88.8342 24.7527 89.0044 24.7527C89.1746 24.7527 89.3429 24.7885 89.4984 24.8578C89.6538 24.9271 89.7929 25.0284 89.9066 25.1549C90.0202 25.2815 90.1059 25.4306 90.1581 25.5925C90.2103 25.7544 90.2278 25.9254 90.2094 26.0945C90.2199 26.4255 90.1174 26.7502 89.9188 27.0152V27.0152ZM89.0044 25.2871C88.6075 25.2871 88.402 25.6908 88.402 26.0945C88.402 26.4982 88.6075 26.909 89.0044 26.909C89.4014 26.909 89.6069 26.5053 89.6069 26.0945C89.6069 25.6837 89.3943 25.2871 89.0044 25.2871V25.2871Z" fill="#231F20"/>
<path d="M91.918 25.3791C91.8263 25.3467 91.7263 25.3467 91.6345 25.3791C91.3368 25.4782 91.3085 25.8536 91.3085 26.1368V27.2417C91.3085 27.3125 91.3085 27.3338 91.2234 27.3338H90.8123C90.7486 27.3338 90.7344 27.3338 90.7344 27.2346V25.4499C90.7344 25.2516 90.7344 25.025 90.7344 24.8834C90.7344 24.7417 90.7344 24.7913 90.8194 24.7913H91.2518C91.3014 24.7913 91.3227 24.7913 91.3227 24.8621V25.0321C91.4011 24.9054 91.5215 24.8102 91.6629 24.7629C91.768 24.7239 91.8838 24.7239 91.9889 24.7629C91.9889 24.7629 91.9889 24.7984 91.9889 24.8479V25.2446C91.996 25.372 91.9747 25.4074 91.918 25.3791Z" fill="#231F20"/>
<path d="M95.2417 27.3622C95.178 27.3622 95.1496 27.3622 95.1496 27.2701V25.7545C95.1555 25.7048 95.151 25.6544 95.1364 25.6065C95.1218 25.5586 95.0974 25.5143 95.0648 25.4764C95.0321 25.4384 94.9919 25.4077 94.9467 25.386C94.9016 25.3644 94.8524 25.3524 94.8023 25.3508C94.4975 25.3508 94.3132 25.6553 94.3132 25.9953V27.2772C94.3143 27.2886 94.3129 27.3001 94.309 27.3109C94.3051 27.3217 94.2989 27.3316 94.2907 27.3397C94.2826 27.3478 94.2728 27.354 94.262 27.3579C94.2512 27.3618 94.2396 27.3633 94.2282 27.3622H93.8029C93.732 27.3622 93.7108 27.3622 93.7108 27.2701V25.7545C93.7108 25.4641 93.5974 25.3508 93.3847 25.3508C93.3202 25.3497 93.2562 25.3619 93.1967 25.3867C93.1372 25.4115 93.0834 25.4484 93.0388 25.495C92.9942 25.5415 92.9597 25.5967 92.9375 25.6572C92.9154 25.7177 92.9059 25.7822 92.9098 25.8466V27.263C92.9098 27.3338 92.9098 27.348 92.8248 27.348H92.4066C92.3357 27.348 92.3145 27.348 92.3145 27.2559V25.4925C92.3145 25.2588 92.3145 25.0109 92.3145 24.8905C92.3145 24.7701 92.3145 24.7984 92.4137 24.7984H92.8319C92.9028 24.7984 92.9098 24.7984 92.9098 24.8551V25.0392C92.9844 24.9364 93.0853 24.8555 93.2019 24.805C93.3185 24.7545 93.4466 24.7362 93.5727 24.7522C93.6987 24.7681 93.8182 24.8176 93.9186 24.8955C94.0189 24.9734 94.0965 25.0768 94.1431 25.195C94.2187 25.0727 94.3225 24.9704 94.4458 24.8965C94.5691 24.8225 94.7084 24.7792 94.8519 24.7701C94.9721 24.7584 95.0934 24.7731 95.2074 24.8131C95.3213 24.8532 95.4251 24.9176 95.5115 25.0019C95.5979 25.0862 95.6648 25.1885 95.7076 25.3013C95.7504 25.4142 95.768 25.535 95.7592 25.6553V27.263C95.7592 27.3338 95.7592 27.348 95.6741 27.348L95.2417 27.3622Z" fill="#231F20"/>
<path d="M97.8002 27.3762C97.7435 27.3762 97.7364 27.3763 97.7364 27.3125V27.1142C97.6656 27.205 97.5754 27.2789 97.4724 27.3303C97.3694 27.3818 97.2562 27.4096 97.141 27.4117C97.0262 27.4242 96.91 27.4116 96.8005 27.3747C96.6911 27.3377 96.591 27.2774 96.5073 27.1978C96.4237 27.1182 96.3583 27.0214 96.316 26.914C96.2736 26.8066 96.2553 26.6913 96.2621 26.576C96.2627 26.4324 96.301 26.2913 96.3731 26.167C96.4452 26.0428 96.5487 25.9396 96.6732 25.8678C96.99 25.7137 97.3432 25.65 97.6939 25.6837C97.6939 25.4429 97.5734 25.3154 97.382 25.2941C97.1315 25.2817 96.8835 25.3486 96.6732 25.4853C96.5457 25.5703 96.4961 25.5845 96.4961 25.4853V25.11C96.4961 25.0391 96.4961 25.0109 96.574 24.9755C96.8052 24.8526 97.0635 24.7893 97.3253 24.7913C97.9349 24.7913 98.2397 25.0958 98.2397 25.7545V26.7813C98.2397 26.9372 98.2397 27.1779 98.2397 27.3054C98.2397 27.4329 98.2397 27.4188 98.1688 27.4188L97.8002 27.3762ZM97.7364 26.1298C97.0276 26.1298 96.8717 26.314 96.8717 26.576C96.868 26.6188 96.874 26.6619 96.8894 26.702C96.9048 26.7421 96.9291 26.7782 96.9605 26.8075C96.992 26.8369 97.0296 26.8587 97.0707 26.8713C97.1118 26.884 97.1553 26.8871 97.1977 26.8805C97.5238 26.8805 97.7293 26.6539 97.7364 26.1298Z" fill="#231F20"/>
<path d="M100.161 27.3338C100.003 27.4036 99.8302 27.4352 99.6576 27.4259C99.5571 27.4266 99.458 27.4016 99.37 27.3532C99.2819 27.3049 99.2076 27.2348 99.1544 27.1496C99.0716 26.9233 99.0401 26.6814 99.0622 26.4414V25.3791H98.7433C98.6866 25.3791 98.6582 25.3791 98.6582 25.287V24.9117C98.6582 24.855 98.6582 24.8196 98.7433 24.8196H99.0622V24.2247C99.0611 24.2124 99.0628 24.1999 99.067 24.1882C99.0713 24.1766 99.078 24.166 99.0868 24.1572C99.0956 24.1484 99.1062 24.1417 99.1178 24.1375C99.1295 24.1332 99.142 24.1316 99.1544 24.1326H99.5725C99.6292 24.1326 99.6576 24.1326 99.6576 24.2247V24.8196H100.026C100.097 24.8196 100.111 24.8196 100.111 24.9117V25.287C100.111 25.3579 100.111 25.3791 100.026 25.3791H99.6434V26.3919C99.6338 26.5239 99.6338 26.6564 99.6434 26.7885C99.6859 27.008 99.9907 26.8806 100.076 26.8381C100.161 26.7956 100.147 26.838 100.154 26.9018L100.196 27.2417C100.218 27.2771 100.218 27.3125 100.161 27.3338Z" fill="#231F20"/>
<path d="M100.785 24.4443C100.739 24.4443 100.693 24.435 100.65 24.4172C100.608 24.3993 100.569 24.3731 100.537 24.3401C100.504 24.3071 100.479 24.2681 100.462 24.2251C100.445 24.1822 100.437 24.1364 100.438 24.0902C100.438 23.9963 100.475 23.9061 100.541 23.8397C100.608 23.7733 100.698 23.7361 100.792 23.7361C100.886 23.7361 100.976 23.7733 101.043 23.8397C101.109 23.9061 101.146 23.9963 101.146 24.0902C101.147 24.1376 101.139 24.1846 101.121 24.2285C101.103 24.2724 101.076 24.3121 101.042 24.3453C101.008 24.3785 100.968 24.4044 100.924 24.4214C100.88 24.4384 100.832 24.4462 100.785 24.4443V24.4443ZM100.558 27.3621C100.501 27.3621 100.48 27.3621 100.48 27.2772V24.9187C100.48 24.8479 100.48 24.8338 100.558 24.8338H101.005C101.061 24.8338 101.083 24.8338 101.083 24.9187V27.2772C101.083 27.348 101.083 27.3621 101.005 27.3621H100.558Z" fill="#231F20"/>
<path d="M103.612 27.0151C103.503 27.1539 103.363 27.2648 103.203 27.3386C103.042 27.4125 102.867 27.4473 102.691 27.4401C102.521 27.4391 102.353 27.4025 102.198 27.3325C102.043 27.2625 101.905 27.1608 101.792 27.0339C101.679 26.907 101.594 26.7578 101.542 26.5959C101.491 26.4341 101.474 26.2632 101.493 26.0944C101.473 25.9258 101.489 25.7548 101.54 25.5928C101.591 25.4309 101.676 25.2816 101.789 25.155C101.903 25.0283 102.042 24.9273 102.197 24.8585C102.352 24.7897 102.521 24.7547 102.691 24.7559C102.861 24.7549 103.03 24.7899 103.186 24.8586C103.342 24.9273 103.482 25.0281 103.596 25.1544C103.711 25.2808 103.797 25.4297 103.85 25.5917C103.903 25.7537 103.921 25.925 103.903 26.0944C103.91 26.4249 103.808 26.7486 103.612 27.0151V27.0151ZM102.691 25.2871C102.294 25.2871 102.095 25.6907 102.095 26.0944C102.095 26.4981 102.294 26.9089 102.691 26.9089C103.088 26.9089 103.293 26.5052 103.293 26.0944C103.293 25.6837 103.102 25.2871 102.691 25.2871Z" fill="#231F20"/>
<path d="M104.988 27.2771C104.988 27.3479 104.988 27.3621 104.903 27.3621H104.485C104.414 27.3621 104.393 27.3621 104.393 27.27V25.5066C104.393 25.2729 104.393 25.0108 104.393 24.8904C104.393 24.77 104.393 24.8125 104.485 24.8125H104.91C104.981 24.8125 104.988 24.8125 104.988 24.8692V25.0462C105.13 24.8884 105.329 24.792 105.541 24.7771C106.143 24.7771 106.413 25.1312 106.413 25.7827V27.2771C106.413 27.3479 106.413 27.3621 106.328 27.3621H105.909C105.897 27.3632 105.885 27.3615 105.873 27.3573C105.861 27.353 105.851 27.3462 105.842 27.3375C105.833 27.3287 105.826 27.3182 105.822 27.3065C105.818 27.2949 105.816 27.2824 105.817 27.27V25.8536C105.817 25.4853 105.711 25.3083 105.491 25.3083C105.421 25.3066 105.351 25.3203 105.286 25.3483C105.221 25.3763 105.163 25.4179 105.116 25.4704C105.069 25.5228 105.034 25.585 105.013 25.6523C104.992 25.7197 104.986 25.7908 104.995 25.8607L104.988 27.2771Z" fill="#231F20"/>
<path d="M110.708 27.3268C110.644 27.3268 110.63 27.3268 110.587 27.2631L110.375 27.0293C110.108 27.2678 109.761 27.3969 109.404 27.3905C109.262 27.4075 109.118 27.3944 108.982 27.352C108.846 27.3097 108.72 27.2391 108.613 27.1448C108.506 27.0506 108.42 26.9347 108.361 26.805C108.302 26.6752 108.271 26.5346 108.27 26.392C108.281 26.1813 108.349 25.9775 108.466 25.802C108.584 25.6264 108.746 25.4853 108.936 25.3934C108.754 25.1985 108.639 24.9501 108.61 24.6852C108.63 24.4439 108.745 24.2203 108.929 24.0636C109.114 23.9069 109.353 23.8298 109.595 23.8494C109.705 23.8406 109.816 23.8548 109.92 23.8911C110.024 23.9274 110.12 23.9851 110.201 24.0604C110.281 24.1357 110.345 24.227 110.389 24.3285C110.432 24.4299 110.454 24.5394 110.453 24.6497C110.442 24.8471 110.376 25.0376 110.264 25.2002C110.151 25.3627 109.996 25.4909 109.815 25.5704L110.353 26.1724C110.437 25.9752 110.48 25.7633 110.481 25.5492C110.481 25.4571 110.481 25.4358 110.573 25.4358H110.956C111.055 25.4358 111.055 25.4358 111.055 25.5421C111.051 25.9162 110.948 26.2827 110.757 26.6044L111.317 27.2418C111.367 27.3056 111.317 27.3552 111.268 27.3552L110.708 27.3268ZM109.29 25.8183C109.179 25.8653 109.081 25.9402 109.006 26.0356C108.932 26.1311 108.883 26.244 108.865 26.3636C108.867 26.4313 108.884 26.4977 108.913 26.5588C108.942 26.6199 108.984 26.6744 109.035 26.7189C109.086 26.7633 109.146 26.7969 109.21 26.8174C109.275 26.8379 109.343 26.845 109.411 26.8382C109.622 26.8308 109.823 26.7478 109.978 26.6044L109.29 25.8183ZM109.567 24.3311C109.521 24.3251 109.475 24.3287 109.43 24.3419C109.386 24.3552 109.346 24.3775 109.311 24.4077C109.276 24.4378 109.248 24.4749 109.228 24.5167C109.209 24.5584 109.199 24.6037 109.198 24.6497C109.222 24.8285 109.307 24.9936 109.439 25.1172C109.616 25.0393 109.843 24.8763 109.843 24.6426C109.849 24.5667 109.825 24.4915 109.776 24.4332C109.727 24.375 109.657 24.3383 109.581 24.3311H109.567Z" fill="#231F20"/>
<path d="M115.35 27.3197C115.121 27.3918 114.881 27.4276 114.641 27.426C114.164 27.426 113.706 27.2364 113.368 26.8991C113.03 26.5617 112.841 26.1042 112.841 25.6271C112.841 25.15 113.03 24.6925 113.368 24.3551C113.706 24.0178 114.164 23.8283 114.641 23.8283C114.893 23.8225 115.144 23.8559 115.385 23.9273C115.47 23.9273 115.456 23.9982 115.456 24.062V24.4444C115.456 24.5507 115.407 24.5506 115.3 24.5223C115.071 24.4527 114.831 24.4192 114.592 24.4232C114.438 24.4211 114.286 24.4518 114.145 24.5132C114.005 24.5747 113.879 24.6654 113.776 24.7794C113.673 24.8934 113.596 25.028 113.55 25.1742C113.503 25.3204 113.489 25.4748 113.507 25.6271C113.489 25.9333 113.592 26.2342 113.793 26.4658C113.995 26.6973 114.279 26.8411 114.584 26.8665C114.837 26.884 115.09 26.8503 115.329 26.7673C115.4 26.7673 115.421 26.7673 115.428 26.8098V27.2135C115.435 27.2843 115.421 27.2985 115.35 27.3197Z" fill="#231F20"/>
<path d="M117.548 27.3762C117.477 27.3762 117.463 27.3763 117.463 27.3125V27.1355C117.398 27.2238 117.314 27.2959 117.217 27.3463C117.12 27.3967 117.012 27.4239 116.903 27.4259C116.314 27.4259 116.017 27.0646 116.017 26.4131V24.9187C116.017 24.8479 116.017 24.8196 116.102 24.8196H116.52C116.533 24.8183 116.546 24.82 116.558 24.8247C116.571 24.8293 116.582 24.8368 116.591 24.8464C116.599 24.856 116.606 24.8675 116.61 24.88C116.613 24.8926 116.614 24.9058 116.612 24.9187V26.3352C116.612 26.7459 116.747 26.8663 116.966 26.8663C117.186 26.8663 117.441 26.661 117.441 26.2219V24.9117C117.441 24.8408 117.441 24.8125 117.526 24.8125H117.944C118.015 24.8125 118.03 24.8621 118.03 24.9187V26.7318C118.03 26.9089 118.03 27.1213 118.03 27.2701C118.03 27.4188 118.03 27.3692 117.944 27.3692L117.548 27.3762Z" fill="#231F20"/>
<path d="M118.745 27.3622C118.688 27.3622 118.674 27.3622 118.674 27.2701V23.729C118.674 23.6582 118.674 23.637 118.745 23.637H119.163C119.22 23.637 119.241 23.637 119.241 23.729V27.2701C119.241 27.3409 119.241 27.3622 119.163 27.3622H118.745Z" fill="#231F20"/>
<path d="M121.077 27.334C120.916 27.4036 120.742 27.4351 120.567 27.426C120.466 27.4261 120.368 27.4008 120.28 27.3525C120.192 27.3043 120.117 27.2345 120.064 27.1498C119.984 26.9228 119.955 26.681 119.978 26.4416V25.3793H119.652C119.596 25.3793 119.567 25.3793 119.567 25.2872V24.9118C119.567 24.8552 119.567 24.8198 119.652 24.8198H119.978V24.2249C119.978 24.1611 119.978 24.1328 120.064 24.1328H120.482C120.538 24.1328 120.567 24.1328 120.567 24.2249V24.8198H120.95C121.027 24.8198 121.035 24.8198 121.035 24.9118V25.2872C121.035 25.358 121.035 25.3793 120.95 25.3793H120.581V26.3921C120.581 26.6045 120.581 26.7461 120.581 26.7886C120.631 27.0082 120.935 26.8807 121.02 26.8382C121.105 26.7958 121.091 26.8382 121.091 26.902L121.134 27.2419C121.134 27.2773 121.127 27.3127 121.077 27.334Z" fill="#231F20"/>
<path d="M123.026 27.3762C122.955 27.3762 122.941 27.3763 122.941 27.3125V27.1355C122.876 27.2238 122.792 27.2959 122.695 27.3463C122.598 27.3967 122.491 27.4239 122.381 27.4259C121.786 27.4259 121.495 27.0646 121.495 26.4131V24.9187C121.495 24.8479 121.495 24.8196 121.58 24.8196H121.998C122.011 24.8183 122.025 24.82 122.037 24.8247C122.049 24.8293 122.06 24.8368 122.069 24.8464C122.078 24.856 122.085 24.8675 122.088 24.88C122.092 24.8926 122.093 24.9058 122.09 24.9187V26.3352C122.09 26.7459 122.225 26.8663 122.438 26.8663C122.65 26.8663 122.913 26.661 122.913 26.2219V24.9117C122.913 24.8408 122.913 24.8125 122.998 24.8125H123.423C123.494 24.8125 123.508 24.8621 123.508 24.9187V26.7318C123.508 26.9089 123.508 27.1213 123.508 27.2701C123.508 27.4188 123.508 27.3692 123.423 27.3692L123.026 27.3762Z" fill="#231F20"/>
<path d="M125.421 25.379C125.33 25.3466 125.23 25.3466 125.138 25.379C124.847 25.4782 124.812 25.8535 124.812 26.1368V27.2417C124.812 27.3125 124.812 27.3337 124.734 27.3337H124.302C124.231 27.3337 124.224 27.3337 124.224 27.2346V25.4499C124.224 25.2516 124.224 25.025 124.224 24.8833C124.224 24.7417 124.224 24.7913 124.316 24.7913H124.748C124.791 24.7913 124.812 24.7912 124.812 24.8621V25.032C124.892 24.9065 125.012 24.8117 125.152 24.7629C125.26 24.7245 125.378 24.7245 125.485 24.7629C125.485 24.7629 125.521 24.7983 125.521 24.8479V25.2445C125.542 25.372 125.485 25.4074 125.421 25.379Z" fill="#231F20"/>
<path d="M127.712 26.1865C127.712 26.2573 127.712 26.2998 127.612 26.2998H126.195C126.193 26.4552 126.252 26.6051 126.359 26.7176C126.466 26.8301 126.614 26.8962 126.769 26.9018C127.005 26.9157 127.24 26.851 127.435 26.7176C127.52 26.6681 127.549 26.7176 127.549 26.7884V27.1284C127.549 27.1992 127.549 27.2063 127.485 27.2488C127.268 27.3687 127.024 27.4297 126.776 27.4259C126.067 27.4259 125.607 26.9443 125.607 26.0944C125.587 25.934 125.6 25.7712 125.644 25.6158C125.689 25.4604 125.765 25.3157 125.867 25.1901C125.968 25.0645 126.095 24.9608 126.237 24.8849C126.38 24.8091 126.537 24.7628 126.698 24.7488C127.456 24.7488 127.733 25.3437 127.733 26.0378L127.712 26.1865ZM126.691 25.2729C126.562 25.2923 126.443 25.3558 126.355 25.4526C126.267 25.5494 126.216 25.6735 126.209 25.804H127.123C127.135 25.6765 127.097 25.5495 127.016 25.4502C126.935 25.3508 126.818 25.2871 126.691 25.2729V25.2729Z" fill="#231F20"/>
<path d="M129.483 27.3621C129.42 27.3621 129.398 27.3621 129.398 27.2771V23.9768C129.398 23.9202 129.398 23.8848 129.483 23.8848H129.923C129.98 23.8848 130.008 23.8848 130.008 23.9768V27.2771C130.008 27.348 130.008 27.3621 129.923 27.3621H129.483Z" fill="#231F20"/>
<path d="M131.17 27.2771C131.17 27.3479 131.17 27.3621 131.085 27.3621H130.659C130.588 27.3621 130.574 27.3621 130.574 27.27V25.5066C130.586 25.3014 130.586 25.0956 130.574 24.8904C130.574 24.8196 130.574 24.8125 130.666 24.8125H131.099C131.162 24.8125 131.17 24.8125 131.17 24.8692V25.0462C131.315 24.8886 131.515 24.7923 131.73 24.7771C132.332 24.7771 132.601 25.1312 132.601 25.7827V27.2771C132.601 27.3479 132.601 27.3621 132.516 27.3621H132.098C132.034 27.3621 132.006 27.3621 132.006 27.27V25.8536C132.006 25.4853 131.893 25.3083 131.673 25.3083C131.603 25.3065 131.533 25.3201 131.468 25.3481C131.404 25.3762 131.346 25.418 131.299 25.4706C131.253 25.5233 131.218 25.5854 131.198 25.6528C131.178 25.7202 131.173 25.7912 131.184 25.8607L131.17 27.2771Z" fill="#231F20"/>
<path d="M134.806 27.1356C134.737 27.2174 134.651 27.2837 134.555 27.3301C134.458 27.3765 134.353 27.4019 134.246 27.4047C133.58 27.4047 133.211 26.8947 133.211 26.059C133.211 25.2234 133.608 24.7347 134.253 24.7347C134.46 24.7436 134.656 24.8325 134.799 24.9826V23.7007C134.799 23.6157 134.799 23.6016 134.884 23.6016H135.309C135.38 23.6016 135.394 23.6016 135.394 23.7007V27.2418C135.394 27.3268 135.394 27.3339 135.302 27.3339H134.884C134.82 27.3339 134.806 27.3339 134.806 27.256V27.1356ZM134.317 25.2729C134.012 25.2729 133.82 25.5208 133.82 26.059C133.82 26.5973 134.026 26.8593 134.317 26.8593C134.607 26.8593 134.806 26.6115 134.806 26.059C134.806 25.5066 134.586 25.2729 134.317 25.2729V25.2729Z" fill="#231F20"/>
<path d="M137.592 27.3762C137.521 27.3762 137.514 27.3763 137.514 27.3125V27.1355C137.446 27.2221 137.36 27.2929 137.262 27.343C137.164 27.3932 137.056 27.4215 136.947 27.4259C136.358 27.4259 136.061 27.0646 136.061 26.4131V24.9187C136.061 24.8479 136.061 24.8196 136.153 24.8196H136.564C136.577 24.8183 136.59 24.82 136.602 24.8247C136.615 24.8293 136.626 24.8368 136.634 24.8464C136.643 24.856 136.65 24.8675 136.654 24.88C136.657 24.8926 136.658 24.9058 136.656 24.9187V26.3352C136.656 26.7459 136.791 26.8663 137.01 26.8663C137.23 26.8663 137.485 26.661 137.485 26.2219V24.9117C137.485 24.8408 137.485 24.8125 137.57 24.8125H137.988C138.059 24.8125 138.074 24.8621 138.074 24.9187V26.7318C138.074 26.9089 138.074 27.1213 138.074 27.2701C138.074 27.4188 138.073 27.3692 137.981 27.3692L137.592 27.3762Z" fill="#231F20"/>
<path d="M139.931 27.2419C139.757 27.3582 139.552 27.4176 139.343 27.4118C139.118 27.4068 138.895 27.3661 138.683 27.2914C138.62 27.2914 138.605 27.2915 138.605 27.1852L138.648 26.8594C138.648 26.7886 138.648 26.7744 138.733 26.7957C138.928 26.8696 139.134 26.9103 139.343 26.9161C139.382 26.9213 139.423 26.9177 139.461 26.9056C139.499 26.8936 139.534 26.8735 139.564 26.8465C139.594 26.8196 139.617 26.7865 139.633 26.7496C139.648 26.7127 139.656 26.6728 139.654 26.6328C139.654 26.3991 139.173 26.1795 138.988 26.0733C138.884 26.0184 138.797 25.9371 138.735 25.8376C138.672 25.7381 138.638 25.624 138.634 25.5068C138.631 25.3989 138.652 25.2917 138.694 25.1923C138.736 25.0928 138.798 25.0034 138.877 24.9298C138.956 24.8562 139.05 24.8002 139.152 24.7654C139.254 24.7305 139.363 24.7176 139.47 24.7277C139.681 24.735 139.89 24.7782 140.087 24.8552C140.144 24.8552 140.144 24.8977 140.144 24.9473L140.101 25.2872C140.101 25.3651 140.066 25.3651 139.995 25.3368C139.838 25.2624 139.665 25.2259 139.491 25.2306C139.3 25.2306 139.222 25.3297 139.222 25.4855C139.222 25.6413 139.286 25.6484 139.484 25.7617C139.631 25.8386 139.773 25.9237 139.91 26.0167C140.011 26.0798 140.094 26.1674 140.153 26.2714C140.211 26.3754 140.242 26.4924 140.243 26.6115C140.25 26.7346 140.225 26.8575 140.171 26.9681C140.116 27.0786 140.033 27.173 139.931 27.2419Z" fill="#231F20"/>
<path d="M141.95 27.334C141.79 27.4044 141.615 27.4359 141.44 27.426C141.341 27.4256 141.243 27.4 141.156 27.3517C141.07 27.3034 140.997 27.234 140.944 27.1498C140.858 26.9243 140.826 26.6816 140.852 26.4416V25.3793H140.533C140.521 25.3804 140.508 25.3787 140.496 25.3744C140.485 25.3702 140.474 25.3635 140.465 25.3547C140.457 25.346 140.45 25.3353 140.446 25.3237C140.441 25.312 140.44 25.2996 140.441 25.2872V24.9118C140.44 24.8995 140.441 24.887 140.446 24.8753C140.45 24.8637 140.457 24.8532 140.465 24.8444C140.474 24.8356 140.485 24.8288 140.496 24.8246C140.508 24.8204 140.521 24.8187 140.533 24.8198H140.852V24.2249C140.852 24.1611 140.852 24.1328 140.944 24.1328H141.355C141.419 24.1328 141.44 24.1328 141.44 24.2249V24.8198H141.844C141.915 24.8198 141.929 24.8198 141.929 24.9118V25.2872C141.929 25.358 141.929 25.3793 141.844 25.3793H141.454V26.3921C141.443 26.524 141.443 26.6567 141.454 26.7886C141.497 27.0082 141.802 26.8807 141.887 26.8382C141.972 26.7957 141.958 26.8382 141.965 26.902L142 27.2419C142.007 27.2773 142 27.3127 141.95 27.334Z" fill="#231F20"/>
<path d="M143.559 25.3791C143.468 25.3467 143.368 25.3467 143.276 25.3791C142.978 25.4782 142.95 25.8536 142.95 26.1368V27.2417C142.95 27.3125 142.95 27.3338 142.865 27.3338H142.432C142.369 27.3338 142.354 27.3338 142.354 27.2346V25.4499C142.354 25.2516 142.354 25.025 142.354 24.8834C142.354 24.7417 142.354 24.7913 142.44 24.7913H142.872C142.922 24.7913 142.943 24.7913 142.943 24.8621V25.0321C143.021 24.9054 143.142 24.8102 143.283 24.7629C143.388 24.7239 143.504 24.7239 143.609 24.7629C143.609 24.7629 143.609 24.7984 143.609 24.8479V25.2446C143.637 25.372 143.616 25.4074 143.559 25.3791Z" fill="#231F20"/>
<path d="M144.857 27.4613C144.701 27.9075 144.467 28.0844 144.148 28.0844C144.037 28.0884 143.927 28.0717 143.822 28.0349C143.751 28.0349 143.737 28.0349 143.744 27.9357V27.5604C143.744 27.5108 143.787 27.5037 143.836 27.5604C143.923 27.5781 144.012 27.5781 144.099 27.5604C144.123 27.5616 144.148 27.5556 144.169 27.543C144.191 27.5304 144.208 27.5118 144.219 27.4896C144.287 27.3495 144.346 27.2052 144.396 27.0576L143.645 24.9329C143.609 24.8408 143.645 24.8267 143.709 24.8267H144.141C144.198 24.8267 144.212 24.8266 144.226 24.8975L144.673 26.3139L145.119 24.8975C145.119 24.8337 145.155 24.8267 145.204 24.8267H145.644C145.729 24.8267 145.743 24.8267 145.707 24.94L144.857 27.4613Z" fill="#231F20"/>
<path d="M148.011 26.0166V27.2772C148.011 27.3622 148.011 27.3693 147.919 27.3693H147.515C147.458 27.3693 147.423 27.3693 147.423 27.2772V23.984C147.423 23.9061 147.458 23.8919 147.508 23.8919H148.415C148.561 23.8722 148.709 23.8854 148.849 23.9308C148.988 23.9761 149.116 24.0523 149.222 24.1536C149.328 24.255 149.41 24.379 149.462 24.5164C149.514 24.6537 149.534 24.801 149.521 24.9472C149.527 25.0953 149.501 25.243 149.444 25.3802C149.388 25.5174 149.303 25.6409 149.195 25.7424C149.087 25.8438 148.958 25.9208 148.817 25.9681C148.676 26.0154 148.527 26.0319 148.38 26.0166H148.011ZM148.011 24.4515V25.4571H148.309C148.67 25.4571 148.869 25.3013 148.869 24.9401C148.869 24.5789 148.699 24.4515 148.451 24.4515H148.011Z" fill="#231F20"/>
<path d="M151.18 25.379C151.085 25.3461 150.983 25.3461 150.889 25.379C150.598 25.4782 150.563 25.8535 150.563 26.1368V27.2417C150.563 27.3125 150.563 27.3337 150.485 27.3337H150.053C149.982 27.3337 149.975 27.3337 149.975 27.2346V25.4499C149.975 25.2516 149.975 25.025 149.975 24.8833C149.975 24.7417 149.975 24.7913 150.06 24.7913H150.492C150.502 24.7901 150.511 24.7911 150.52 24.7943C150.53 24.7974 150.538 24.8026 150.545 24.8094C150.551 24.8162 150.557 24.8245 150.56 24.8336C150.563 24.8427 150.564 24.8525 150.563 24.8621V25.032C150.638 24.9054 150.756 24.8099 150.896 24.7629C151.004 24.7245 151.121 24.7245 151.229 24.7629C151.229 24.7629 151.229 24.7983 151.229 24.8479V25.2445C151.257 25.372 151.236 25.4074 151.18 25.379Z" fill="#231F20"/>
<path d="M153.397 27.0151C153.288 27.1539 153.148 27.2648 152.988 27.3386C152.828 27.4125 152.652 27.4473 152.476 27.4401C152.306 27.4391 152.138 27.4025 151.983 27.3325C151.828 27.2625 151.69 27.1608 151.577 27.0339C151.464 26.907 151.379 26.7578 151.327 26.5959C151.276 26.4341 151.259 26.2632 151.278 26.0944C151.258 25.9258 151.274 25.7548 151.325 25.5928C151.376 25.4309 151.461 25.2816 151.574 25.155C151.688 25.0283 151.827 24.9273 151.982 24.8585C152.138 24.7897 152.306 24.7547 152.476 24.7559C152.646 24.7549 152.815 24.7899 152.971 24.8586C153.127 24.9273 153.267 25.0281 153.381 25.1544C153.496 25.2808 153.582 25.4297 153.635 25.5917C153.688 25.7537 153.706 25.925 153.688 26.0944C153.695 26.4249 153.593 26.7486 153.397 27.0151V27.0151ZM152.476 25.2871C152.079 25.2871 151.873 25.6907 151.873 26.0944C151.873 26.4981 152.079 26.9089 152.476 26.9089C152.873 26.9089 153.078 26.5052 153.078 26.0944C153.078 25.6837 152.887 25.2871 152.476 25.2871Z" fill="#231F20"/>
<path d="M157.076 27.3621C157.012 27.3621 156.984 27.3621 156.984 27.27V25.7544C156.99 25.7047 156.985 25.6543 156.97 25.6064C156.956 25.5585 156.931 25.5143 156.899 25.4763C156.866 25.4384 156.826 25.4076 156.781 25.386C156.736 25.3644 156.686 25.3523 156.636 25.3507C156.332 25.3507 156.147 25.6553 156.147 25.9952V27.2771C156.148 27.2885 156.147 27.3 156.143 27.3108C156.139 27.3216 156.133 27.3315 156.125 27.3396C156.117 27.3477 156.107 27.354 156.096 27.3579C156.085 27.3617 156.074 27.3632 156.062 27.3621H155.637C155.566 27.3621 155.538 27.3621 155.538 27.27V25.7544C155.538 25.4641 155.424 25.3507 155.212 25.3507C155.148 25.3506 155.084 25.3636 155.026 25.3888C154.967 25.4141 154.914 25.451 154.87 25.4975C154.827 25.5439 154.793 25.5989 154.771 25.6589C154.749 25.7189 154.74 25.7828 154.744 25.8465V27.2629C154.744 27.3338 154.744 27.3479 154.659 27.3479H154.241C154.163 27.3479 154.148 27.3479 154.148 27.2558V25.4924C154.148 25.2587 154.148 25.0108 154.148 24.8904C154.148 24.77 154.148 24.7984 154.248 24.7984H154.666C154.73 24.7984 154.744 24.7983 154.744 24.855V25.0391C154.879 24.8881 155.066 24.7943 155.268 24.7771C155.413 24.7784 155.554 24.8177 155.679 24.891C155.803 24.9644 155.906 25.0692 155.977 25.1949C156.053 25.0727 156.156 24.9703 156.28 24.8964C156.403 24.8225 156.542 24.7791 156.686 24.77C156.806 24.7583 156.927 24.773 157.041 24.8131C157.155 24.8531 157.259 24.9176 157.345 25.0019C157.432 25.0862 157.499 25.1884 157.542 25.3012C157.584 25.4141 157.602 25.5349 157.593 25.6553V27.2629C157.593 27.3338 157.593 27.3479 157.501 27.3479L157.076 27.3621Z" fill="#231F20"/>
<path d="M160.273 27.0151C160.164 27.1539 160.024 27.2648 159.864 27.3386C159.704 27.4125 159.528 27.4473 159.352 27.4401C159.182 27.4391 159.014 27.4025 158.859 27.3325C158.704 27.2625 158.566 27.1608 158.453 27.0339C158.34 26.907 158.255 26.7578 158.203 26.5959C158.152 26.4341 158.135 26.2632 158.154 26.0944C158.134 25.9258 158.15 25.7548 158.201 25.5928C158.252 25.4309 158.337 25.2816 158.45 25.155C158.564 25.0283 158.703 24.9273 158.858 24.8585C159.014 24.7897 159.182 24.7547 159.352 24.7559C159.522 24.7549 159.691 24.7899 159.847 24.8586C160.003 24.9273 160.143 25.0281 160.257 25.1544C160.372 25.2808 160.458 25.4297 160.511 25.5917C160.564 25.7537 160.582 25.925 160.564 26.0944C160.571 26.4249 160.469 26.7486 160.273 27.0151V27.0151ZM159.352 25.2871C158.955 25.2871 158.749 25.6907 158.749 26.0944C158.749 26.4981 158.955 26.9089 159.352 26.9089C159.749 26.9089 159.954 26.5052 159.954 26.0944C159.954 25.6837 159.735 25.2871 159.323 25.2871H159.352Z" fill="#231F20"/>
<path d="M162.271 27.334C162.111 27.4036 161.936 27.4351 161.761 27.426C161.661 27.4248 161.563 27.399 161.475 27.3508C161.387 27.3026 161.313 27.2336 161.258 27.1498C161.178 26.9228 161.149 26.681 161.173 26.4416V25.3793H160.847C160.79 25.3793 160.762 25.3793 160.762 25.2872V24.9118C160.762 24.8552 160.762 24.8198 160.847 24.8198H161.173V24.2249C161.173 24.1611 161.173 24.1328 161.258 24.1328H161.69C161.747 24.1328 161.775 24.1328 161.775 24.2249V24.8198H162.158C162.236 24.8198 162.25 24.8198 162.25 24.9118V25.2872C162.25 25.358 162.25 25.3793 162.158 25.3793H161.775V26.3921C161.775 26.6045 161.775 26.7461 161.775 26.7886C161.825 27.0082 162.13 26.8807 162.215 26.8382C162.3 26.7958 162.286 26.8382 162.293 26.902L162.328 27.2419C162.328 27.2773 162.321 27.3127 162.271 27.334Z" fill="#231F20"/>
<path d="M162.896 24.4443C162.814 24.4279 162.74 24.3836 162.687 24.319C162.634 24.2545 162.605 24.1736 162.605 24.0902C162.605 24.0068 162.634 23.9258 162.687 23.8613C162.74 23.7967 162.814 23.7525 162.896 23.7361C162.943 23.7361 162.989 23.7454 163.033 23.7637C163.076 23.7819 163.116 23.8086 163.149 23.8422C163.182 23.8759 163.208 23.9158 163.225 23.9596C163.242 24.0033 163.251 24.0502 163.25 24.0973C163.25 24.1435 163.241 24.1891 163.223 24.2317C163.205 24.2743 163.179 24.3128 163.146 24.3451C163.113 24.3775 163.074 24.4029 163.031 24.4199C162.988 24.4369 162.942 24.4452 162.896 24.4443ZM162.662 27.3621C162.612 27.3621 162.591 27.3621 162.591 27.2772V24.9187C162.591 24.8479 162.591 24.8338 162.662 24.8338H163.108C163.172 24.8338 163.186 24.8338 163.186 24.9187V27.2772C163.186 27.348 163.186 27.3621 163.108 27.3621H162.662Z" fill="#231F20"/>
<path d="M165.724 27.0152C165.614 27.1531 165.474 27.2634 165.314 27.3372C165.154 27.411 164.978 27.4462 164.802 27.4401C164.632 27.4402 164.463 27.4043 164.307 27.3348C164.152 27.2652 164.012 27.1636 163.899 27.0366C163.785 26.9096 163.699 26.76 163.647 26.5977C163.595 26.4353 163.578 26.2639 163.597 26.0945C163.579 25.9254 163.596 25.7544 163.649 25.5925C163.701 25.4306 163.786 25.2815 163.9 25.1549C164.014 25.0284 164.153 24.9271 164.308 24.8578C164.464 24.7885 164.632 24.7527 164.802 24.7527C164.973 24.7527 165.141 24.7885 165.296 24.8578C165.452 24.9271 165.591 25.0284 165.704 25.1549C165.818 25.2815 165.904 25.4306 165.956 25.5925C166.008 25.7544 166.026 25.9254 166.007 26.0945C166.016 26.4242 165.917 26.7478 165.724 27.0152ZM164.802 25.2871C164.405 25.2871 164.2 25.6908 164.2 26.0945C164.2 26.4982 164.405 26.909 164.802 26.909C165.199 26.909 165.405 26.5053 165.405 26.0945C165.405 25.6837 165.235 25.2871 164.802 25.2871Z" fill="#231F20"/>
<path d="M167.105 27.2771C167.105 27.3479 167.105 27.3621 167.02 27.3621H166.595C166.524 27.3621 166.51 27.3621 166.51 27.27V25.5066C166.522 25.3014 166.522 25.0956 166.51 24.8904C166.51 24.8196 166.51 24.8125 166.602 24.8125H167.034C167.098 24.8125 167.112 24.8125 167.112 24.8692V25.0462C167.254 24.8872 167.452 24.7905 167.665 24.7771C168.268 24.7771 168.537 25.1312 168.537 25.7827V27.2771C168.537 27.3479 168.537 27.3621 168.452 27.3621H168.034C167.97 27.3621 167.942 27.3621 167.942 27.27V25.8536C167.942 25.4853 167.835 25.3083 167.608 25.3083C167.538 25.3065 167.468 25.3201 167.404 25.3481C167.339 25.3762 167.282 25.418 167.235 25.4706C167.188 25.5233 167.154 25.5854 167.134 25.6528C167.114 25.7202 167.109 25.7912 167.119 25.8607L167.105 27.2771Z" fill="#231F20"/>
<path d="M172.939 27.3621C172.868 27.3621 172.84 27.3621 172.811 27.2912L172.528 26.5406H171.11L170.827 27.2912C170.827 27.3621 170.777 27.3621 170.706 27.3621H170.267C170.175 27.3621 170.139 27.3621 170.175 27.2488L171.493 23.9627C171.5 23.9402 171.515 23.9207 171.534 23.9067C171.553 23.8928 171.576 23.8851 171.599 23.8848H172.039C172.117 23.8848 172.124 23.8848 172.159 23.9697L173.463 27.2488C173.499 27.3409 173.463 27.3621 173.371 27.3621H172.939ZM171.33 25.9881H172.322L171.833 24.7063L171.33 25.9881Z" fill="#231F20"/>
<path d="M174.704 28.127C174.461 28.1193 174.222 28.0715 173.995 27.9853C173.938 27.9853 173.924 27.9428 173.931 27.872V27.4825C173.931 27.4116 173.931 27.3763 174.045 27.4258C174.264 27.5378 174.508 27.5891 174.754 27.5745C174.832 27.5755 174.91 27.5608 174.983 27.5312C175.055 27.5017 175.121 27.4578 175.177 27.4024C175.232 27.347 175.276 27.281 175.306 27.2084C175.335 27.1358 175.35 27.058 175.349 26.9796C175.272 27.0618 175.178 27.1269 175.075 27.1708C174.971 27.2147 174.859 27.2364 174.747 27.2346C174.599 27.2287 174.453 27.1925 174.32 27.128C174.187 27.0635 174.068 26.9722 173.972 26.8599C173.875 26.7476 173.803 26.6166 173.759 26.4751C173.716 26.3336 173.702 26.1848 173.719 26.0378C173.719 25.2446 174.094 24.77 174.754 24.77C174.979 24.7751 175.193 24.8693 175.349 25.0321V24.8621C175.348 24.8516 175.349 24.8409 175.353 24.831C175.356 24.821 175.362 24.812 175.369 24.8045C175.377 24.797 175.386 24.7913 175.396 24.7878C175.406 24.7843 175.416 24.7831 175.427 24.7842H175.838C175.909 24.7842 175.923 24.7842 175.923 24.8834V26.7247C175.902 27.6241 175.448 28.127 174.704 28.127ZM174.817 25.2941C174.52 25.2941 174.314 25.4853 174.314 26.0023C174.314 26.4131 174.562 26.661 174.803 26.661C175.044 26.661 175.306 26.4131 175.306 25.9952C175.306 25.5774 175.094 25.3154 174.817 25.3154V25.2941Z" fill="#231F20"/>
<path d="M178.51 26.1865C178.51 26.2573 178.51 26.2998 178.411 26.2998H176.993C176.991 26.4552 177.05 26.6051 177.157 26.7176C177.265 26.8301 177.412 26.8962 177.567 26.9018C177.803 26.9157 178.038 26.851 178.233 26.7176C178.318 26.6681 178.34 26.7176 178.34 26.7884V27.1284C178.34 27.1992 178.34 27.2063 178.276 27.2488C178.06 27.3709 177.815 27.4321 177.567 27.4259C176.858 27.4259 176.398 26.9443 176.398 26.0944C176.378 25.934 176.391 25.7712 176.436 25.6158C176.48 25.4604 176.556 25.3157 176.658 25.1901C176.759 25.0645 176.886 24.9608 177.028 24.8849C177.171 24.8091 177.328 24.7628 177.489 24.7488C178.248 24.7488 178.524 25.3437 178.524 26.0378L178.51 26.1865ZM177.489 25.2729C177.359 25.291 177.24 25.3541 177.152 25.4512C177.064 25.5483 177.013 25.6731 177.007 25.804H177.921C177.933 25.6765 177.895 25.5495 177.814 25.4502C177.733 25.3508 177.616 25.2871 177.489 25.2729V25.2729Z" fill="#231F20"/>
<path d="M179.601 27.2771C179.601 27.3479 179.601 27.3621 179.516 27.3621H179.098C179.027 27.3621 179.006 27.3621 179.006 27.27V25.5066C179.017 25.3014 179.017 25.0957 179.006 24.8904C179.006 24.8196 179.006 24.8125 179.098 24.8125H179.523C179.594 24.8125 179.601 24.8125 179.601 24.8692V25.0462C179.747 24.8886 179.947 24.7923 180.161 24.7771C180.757 24.7771 181.033 25.1312 181.033 25.7827V27.2771C181.033 27.3479 181.033 27.3621 180.948 27.3621H180.523C180.466 27.3621 180.438 27.3621 180.438 27.27V25.8536C180.438 25.4853 180.324 25.3083 180.104 25.3083C180.034 25.3066 179.964 25.3203 179.899 25.3483C179.834 25.3763 179.776 25.4179 179.729 25.4704C179.682 25.5228 179.647 25.585 179.626 25.6523C179.605 25.7197 179.599 25.7908 179.608 25.8607L179.601 27.2771Z" fill="#231F20"/>
<path d="M183.429 27.3481C183.219 27.419 182.997 27.4455 182.777 27.426C182.44 27.3931 182.129 27.2334 181.905 26.9795C181.682 26.7255 181.564 26.3962 181.575 26.0583C181.586 25.7205 181.725 25.3994 181.964 25.1602C182.203 24.921 182.524 24.7815 182.862 24.7702C183.056 24.7677 183.25 24.794 183.436 24.8481C183.493 24.8481 183.493 24.8835 183.486 24.9472L183.443 25.2942C183.443 25.3651 183.443 25.3934 183.323 25.3651C183.172 25.3147 183.013 25.2932 182.855 25.3013C182.437 25.3013 182.203 25.62 182.203 26.0945C182.183 26.2782 182.235 26.4624 182.349 26.608C182.463 26.7535 182.629 26.8488 182.812 26.8736C182.993 26.9044 183.178 26.8899 183.351 26.8311C183.45 26.8311 183.457 26.8311 183.464 26.8806V27.2277C183.493 27.2985 183.486 27.3127 183.429 27.3481Z" fill="#231F20"/>
<path d="M184.804 27.4613C184.641 27.9075 184.414 28.0844 184.095 28.0844C183.982 28.089 183.869 28.0722 183.762 28.0349C183.698 28.0349 183.684 28.0349 183.684 27.9357L183.72 27.5604C183.72 27.5108 183.755 27.5037 183.805 27.5604C183.891 27.5781 183.98 27.5781 184.067 27.5604C184.092 27.5625 184.117 27.5569 184.138 27.5442C184.16 27.5315 184.177 27.5124 184.187 27.4896C184.259 27.3508 184.318 27.2063 184.365 27.0576L183.613 24.9329C183.613 24.8408 183.613 24.8267 183.684 24.8267H184.109C184.166 24.8267 184.18 24.8266 184.194 24.8975L184.648 26.3139L185.095 24.8975C185.095 24.8337 185.095 24.8267 185.18 24.8267H185.619C185.704 24.8267 185.711 24.8267 185.683 24.94L184.804 27.4613Z" fill="#231F20"/>
</g>
<defs>
<linearGradient id="paint0_linear_201_2548" x1="35.8673" y1="20.7262" x2="20.2315" y2="20.7262" gradientUnits="userSpaceOnUse">
<stop stop-color="#F9A11B"/>
<stop offset="0.2" stop-color="#F79D1B"/>
<stop offset="0.39" stop-color="#F2921B"/>
<stop offset="0.56" stop-color="#E9801C"/>
<stop offset="0.73" stop-color="#DC661C"/>
<stop offset="0.9" stop-color="#CC441D"/>
<stop offset="0.91" stop-color="#CB421D"/>
</linearGradient>
<linearGradient id="paint1_linear_201_2548" x1="13.817" y1="18.9062" x2="31.9406" y2="18.9062" gradientUnits="userSpaceOnUse">
<stop offset="0.05" stop-color="#00B7D5"/>
<stop offset="0.43" stop-color="#0073A4"/>
<stop offset="0.66" stop-color="#004B88"/>
<stop offset="0.76" stop-color="#004782"/>
<stop offset="0.9" stop-color="#003B71"/>
<stop offset="1" stop-color="#002F5F"/>
</linearGradient>
<linearGradient id="paint2_linear_201_2548" x1="21.1103" y1="31.7459" x2="20.1974" y2="14.2387" gradientUnits="userSpaceOnUse">
<stop stop-color="#7FB439"/>
<stop offset="0.54" stop-color="#002600"/>
</linearGradient>
<linearGradient id="paint3_linear_201_2548" x1="14.0432" y1="20.3225" x2="15.404" y2="20.3225" gradientUnits="userSpaceOnUse">
<stop offset="0.09" stop-color="white"/>
<stop offset="0.32" stop-color="#A5E6F0" stop-opacity="0.65"/>
<stop offset="0.55" stop-color="#4DCDE2" stop-opacity="0.3"/>
<stop offset="0.72" stop-color="#16BDD9" stop-opacity="0.08"/>
<stop offset="0.8" stop-color="#00B7D5" stop-opacity="0"/>
</linearGradient>
<linearGradient id="paint4_linear_201_2548" x1="35.5126" y1="20.3225" x2="34.1447" y2="20.3225" gradientUnits="userSpaceOnUse">
<stop offset="0.19" stop-color="white"/>
<stop offset="0.38" stop-color="#FCD5A2" stop-opacity="0.59"/>
<stop offset="0.55" stop-color="#F9B45A" stop-opacity="0.27"/>
<stop offset="0.66" stop-color="#F8A02E" stop-opacity="0.08"/>
<stop offset="0.72" stop-color="#F7981D" stop-opacity="0"/>
</linearGradient>
<clipPath id="clip0_201_2548">
<rect width="185" height="35" fill="white" transform="translate(0.789062 0.31543)"/>
</clipPath>
</defs>
</svg>
