<svg width="187" height="61" viewBox="0 0 187 61" fill="none" xmlns="http://www.w3.org/2000/svg">
<g clip-path="url(#clip0_201_2203)">
<path d="M71.5293 53.6032H73.3277V56.9568C72.9081 57.2441 72.4132 57.3987 71.9061 57.4011C71.4983 57.41 71.0945 57.318 70.7302 57.1332C70.3659 56.9483 70.0521 56.6761 69.8162 56.3406C69.2649 55.2321 69.0194 53.9946 69.1054 52.7576C69.0406 51.6094 69.2225 50.4606 69.6385 49.3897C69.7777 48.9428 70.0579 48.554 70.4364 48.2823C70.8149 48.0107 71.271 47.8711 71.7355 47.8848C72.5187 47.8927 73.2672 48.212 73.8182 48.7734L74.465 47.7487C74.1132 47.3677 73.6859 47.0655 73.2107 46.8618C72.7356 46.6581 72.2233 46.5574 71.707 46.5663C71.2522 46.5544 70.7999 46.6381 70.3789 46.812C69.9579 46.986 69.5775 47.2464 69.2618 47.5767C68.1458 48.6874 67.5772 50.3141 67.5772 52.6717C67.4754 54.2271 67.8716 55.7743 68.7074 57.0858C69.0471 57.5914 69.508 58.0024 70.0473 58.2805C70.5866 58.5586 71.1868 58.6949 71.7923 58.6767C72.8295 58.6783 73.8403 58.347 74.6782 57.7308V52.2274H71.3161L71.5293 53.6032Z" fill="#1D1D1B"/>
<path d="M84.7371 46.7527L83.6993 52.7147C83.4932 53.9114 83.2231 55.8319 83.1378 56.4983H83.0525C83.0098 55.9895 82.7824 54.3485 82.5407 53.03L81.4247 46.7742H79.8538L78.7236 52.9942C78.4819 54.3485 78.2971 55.7316 78.1834 56.5771H78.0981C77.9986 55.8605 77.8706 54.5563 77.5721 52.8509L76.4987 46.7814H75.0273L77.3375 58.5836H79.015L80.067 52.5857C80.2803 51.3675 80.4935 49.8483 80.5575 49.2464H80.6428C80.7139 49.963 80.8703 51.1955 81.1404 52.6287L82.2137 58.5621H83.8842L86.1517 46.7527H84.7371Z" fill="#1D1D1B"/>
<path d="M88.4047 46.7312L85.2061 58.5334H86.6277L87.4736 55.1941H90.8571L91.7243 58.5334H93.2525L90.1107 46.7312H88.4047ZM87.8077 53.8254C87.9783 53.2665 89.0089 49.0386 89.1511 48.3722H89.2364C89.3644 49.0888 90.3879 53.2808 90.5514 53.8254H87.8077Z" fill="#1D1D1B"/>
<path d="M98.8466 52.5284C98.8466 53.8254 98.9603 55.6957 98.9888 56.0325H98.9035C98.6359 55.0742 98.3155 54.1316 97.9439 53.2092L95.2072 46.7527H93.6221V58.5334H94.9939L94.9442 52.3421C94.9442 51.2457 94.9015 50.0634 94.8305 49.0601H94.9158C95.254 50.158 95.6503 51.2367 96.1028 52.2919L98.6618 58.5549H100.119V46.7527H98.8039L98.8466 52.5284Z" fill="#1D1D1B"/>
<path d="M105.23 53.6032H107.021V56.9569C106.602 57.2453 106.107 57.4001 105.599 57.4012C105.192 57.4101 104.788 57.3181 104.424 57.1332C104.059 56.9483 103.745 56.6761 103.51 56.3406C102.958 55.2321 102.713 53.9946 102.799 52.7577C102.733 51.6087 102.917 50.4591 103.339 49.3897C103.478 48.9428 103.758 48.554 104.137 48.2824C104.515 48.0107 104.972 47.8712 105.436 47.8849C106.217 47.8923 106.964 48.2118 107.512 48.7734L108.165 47.7487C107.813 47.3684 107.386 47.0667 106.911 46.8631C106.436 46.6594 105.924 46.5583 105.408 46.5663C104.952 46.5543 104.498 46.6378 104.076 46.8118C103.654 46.9857 103.272 47.2462 102.955 47.5767C101.839 48.6875 101.271 50.3141 101.271 52.6717C101.169 54.2271 101.565 55.7744 102.401 57.0859C102.742 57.592 103.204 58.0033 103.744 58.2814C104.285 58.5595 104.886 58.6954 105.493 58.6767C106.53 58.6764 107.54 58.3453 108.379 57.7308V52.2274H105.009L105.23 53.6032Z" fill="#1D1D1B"/>
<path d="M109.793 56.5628C109.856 57.3073 109.774 58.0571 109.552 58.7699C109.31 59.2931 108.922 59.7339 108.436 60.0383L109.075 60.9411C109.747 60.6429 110.311 60.1422 110.689 59.508C111.051 58.8415 111.165 58.1608 111.165 56.4696V46.7527H109.793V56.5628Z" fill="#1D1D1B"/>
<path d="M118.074 54.5993C118.13 55.2694 118.007 55.9423 117.719 56.5484C117.544 56.8054 117.306 57.0117 117.028 57.1463C116.75 57.2809 116.441 57.3391 116.133 57.3152C115.842 57.3395 115.549 57.2915 115.28 57.1754C115.011 57.0592 114.775 56.8784 114.591 56.6488C114.296 55.9229 114.175 55.1375 114.236 54.3557V46.7527H112.864V55.0006C112.782 55.7184 112.889 56.4453 113.176 57.1074C113.674 58.1823 114.648 58.7484 116.119 58.7484C116.665 58.7865 117.212 58.6787 117.704 58.4359C118.195 58.1931 118.615 57.8238 118.92 57.3654C119.361 56.7133 119.432 56.355 119.432 54.8645V46.7527H118.074V54.5993Z" fill="#1D1D1B"/>
<path d="M129.326 54.5993C129.382 55.2694 129.259 55.9423 128.971 56.5484C128.797 56.806 128.559 57.0126 128.281 57.1473C128.002 57.282 127.693 57.3399 127.385 57.3152C127.094 57.3395 126.801 57.2915 126.532 57.1754C126.263 57.0592 126.027 56.8784 125.843 56.6488C125.548 55.9229 125.427 55.1375 125.488 54.3557V46.7527H124.137V55.0006C124.055 55.7184 124.163 56.4453 124.45 57.1074C124.947 58.1823 125.921 58.7484 127.393 58.7484C127.946 58.792 128.5 58.687 129 58.4441C129.499 58.2011 129.926 57.8289 130.236 57.3654C130.669 56.7133 130.741 56.355 130.741 54.8645V46.7527H129.326V54.5993Z" fill="#1D1D1B"/>
<path d="M137.658 52.5283C137.658 53.8253 137.764 55.6957 137.8 56.0325H137.714C137.447 55.0732 137.124 54.1304 136.748 53.2091L134.032 46.7168H132.447V58.4975H133.819L133.762 52.3062C133.762 51.2098 133.72 50.0274 133.649 49.0242H133.734C133.919 49.7408 134.445 51.045 134.921 52.256L137.487 58.519H138.909V46.7526H137.594L137.658 52.5283Z" fill="#1D1D1B"/>
<path d="M142.085 46.7527H140.699V58.5334H142.085V46.7527Z" fill="#1D1D1B"/>
<path d="M147.097 53.7752C146.927 54.4273 146.813 54.8716 146.706 55.3518C146.6 55.8319 146.55 55.9967 146.507 56.2403H146.386C146.386 55.9967 146.301 55.7244 146.23 55.3518C146.131 54.8358 145.974 54.2052 145.861 53.7968L143.991 46.7527H142.491L145.761 58.5836H147.097L150.41 46.7742H148.988L147.097 53.7752Z" fill="#1D1D1B"/>
<path d="M152.3 53.0802H155.428V51.69H152.286V48.0999H156.032L156.217 46.7527H150.914V58.5334H156.373V57.1146H152.3V53.0802Z" fill="#1D1D1B"/>
<path d="M161.371 54.3556C161.136 53.9578 160.851 53.5918 160.525 53.2664C162.145 53.3309 163.126 51.8332 163.126 50.0346C163.149 49.1453 162.842 48.2793 162.266 47.6053C161.969 47.2979 161.607 47.0616 161.207 46.914C160.808 46.7664 160.38 46.7112 159.956 46.7526H157.227V58.5333H158.584V53.3165C158.763 53.3208 158.938 53.372 159.091 53.4649C159.244 53.5579 159.371 53.6895 159.459 53.8468C160.123 54.7625 160.688 55.7475 161.143 56.7848C161.541 57.5874 161.669 57.8669 161.946 58.5333H163.603C163.411 58.1535 162.615 56.6128 162.181 55.8103C161.868 55.194 161.57 54.6852 161.371 54.3556ZM158.584 52.2058V48.0998H159.601C160.008 48.0845 160.413 48.1604 160.788 48.3219C161.086 48.494 161.329 48.7474 161.49 49.053C161.651 49.3586 161.723 49.7038 161.698 50.0489C161.727 50.6199 161.556 51.183 161.214 51.6397C160.995 51.8577 160.729 52.0221 160.437 52.1203C160.145 52.2184 159.835 52.2477 159.53 52.2058H158.584Z" fill="#1D1D1B"/>
<path d="M168.052 51.7758L166.9 51.3674C165.855 50.9876 165.479 50.5075 165.479 49.6691C165.46 49.4304 165.494 49.1905 165.576 48.9661C165.659 48.7416 165.789 48.5379 165.957 48.369C166.125 48.2 166.328 48.0699 166.551 47.9875C166.774 47.9052 167.012 47.8726 167.249 47.8919C168.107 47.9169 168.929 48.2439 169.573 48.8163L170.177 47.6554C169.346 46.9372 168.287 46.5431 167.192 46.5447C166.746 46.5278 166.303 46.6065 165.89 46.7757C165.477 46.9448 165.105 47.2005 164.798 47.5258C164.491 47.8511 164.255 48.2385 164.108 48.6624C163.961 49.0863 163.905 49.5369 163.943 49.9844C163.943 51.6612 164.782 52.5139 166.253 53.0299L167.27 53.3882C167.725 53.4849 168.134 53.7362 168.427 54.1001C168.721 54.4639 168.882 54.9183 168.883 55.3874C168.9 55.6701 168.856 55.9531 168.754 56.2167C168.651 56.4804 168.493 56.7183 168.29 56.9141C168.087 57.1098 167.844 57.2586 167.578 57.3502C167.313 57.4417 167.03 57.4737 166.751 57.444C165.798 57.409 164.885 57.0533 164.156 56.4337L163.616 57.6949C164.524 58.3757 165.626 58.7426 166.758 58.7411C167.242 58.7588 167.725 58.6766 168.176 58.4994C168.627 58.3223 169.038 58.0541 169.383 57.7112C169.728 57.3683 169.999 56.9579 170.181 56.5053C170.363 56.0528 170.451 55.5675 170.44 55.0793C170.462 54.3394 170.24 53.6132 169.807 53.015C169.375 52.4168 168.757 51.9808 168.052 51.7758Z" fill="#1D1D1B"/>
<path d="M172.793 46.7527H171.407V58.5334H172.793V46.7527Z" fill="#1D1D1B"/>
<path d="M185.197 46.7527L183.562 50.7871C183.349 51.3174 183.164 51.8118 182.993 52.2919C182.837 51.7616 182.652 51.2601 182.453 50.7656L180.839 46.7527H173.61V48.1142H176.141V58.5334H177.491V48.1142H179.794L182.282 53.8469V58.5692H183.704V53.8828L186.817 46.7885L185.197 46.7527Z" fill="#1D1D1B"/>
<path d="M133.627 18.7627V23.958H130.784V18.7627H127.165V31.9479H120.342V22.5534H124.486V19.3288H116.674V32.2274C116.674 33.4169 117.043 35.4377 119.752 35.4306H127.194V40.2317H130.748V27.3331H133.627V40.5327H137.252V18.7627H133.627Z" fill="#1D1D1B"/>
<path d="M88.0275 18.7627H84.3952V29.0959C83.4355 28.5513 82.3765 28.2076 81.2819 28.0855V22.4746C81.2819 19.9092 79.5972 19.293 78.2893 19.336H67.1579V22.532H77.6709V28.0425H73.2354V24.5599H69.6813V28.0425H66.9873V31.1812H74.0528C73.3787 32.1659 72.9988 33.3248 72.9582 34.5205C72.7734 38.4402 76.2066 41.6362 80.4431 41.6362C84.2673 41.6362 88.1199 38.9347 88.0204 33.4241V27.3331H90.8637V23.9508H88.0204L88.0275 18.7627ZM80.4218 38.1679C78.2893 38.1679 76.2422 36.4768 76.2635 34.6782C76.2635 32.5284 78.2324 31.0952 80.4076 31.131C82.7675 31.174 84.381 32.8652 84.3952 34.6782C84.4095 36.4911 82.5756 38.1536 80.4218 38.1679V38.1679Z" fill="#1D1D1B"/>
<path d="M161.229 18.7339H157.618V32.65H142.463V36.018H157.618C157.618 35.803 157.618 40.9911 157.618 40.9911H161.229V27.333H164.072V23.9578H161.229V18.7339Z" fill="#1D1D1B"/>
<path d="M155.427 19.1711H149.627V17.5659H146.073V19.1711H140.266V22.2524H142.121C141.301 23.0964 140.814 24.2118 140.749 25.3911C140.749 28.8665 143.919 31.697 147.807 31.7114C151.703 31.7114 154.873 28.845 154.873 25.3911C154.811 24.2126 154.326 23.0971 153.508 22.2524H155.392L155.427 19.1711ZM147.85 28.5871C145.91 28.5871 144.331 27.1539 144.331 25.4556C144.331 23.7573 145.91 22.3241 147.85 22.3169C148.727 22.2697 149.587 22.5726 150.244 23.16C150.902 23.7474 151.303 24.5721 151.361 25.4556C151.361 27.1539 149.783 28.5584 147.85 28.5655V28.5871Z" fill="#1D1D1B"/>
<path d="M181.671 33.5387H185.73V22.9834C185.673 21.1346 185.31 19.3574 182.041 19.3359H165.812V23.0837H181.671V33.5387Z" fill="#1D1D1B"/>
<path d="M178.764 35.6671V27.1253L175.025 27.1182V35.6671H172.004V27.1253H168.272V35.6671H165.138V39.2429H186.441V35.6671H178.764Z" fill="#1D1D1B"/>
<path d="M113.504 27.0894C113.504 27.0894 108.606 26.2869 105.337 22.7469H113.269V19.3359H92.8049V22.7541H100.738C97.4679 26.294 92.5703 27.0966 92.5703 27.0966V30.2353C96.4774 29.7855 100.14 28.091 103.026 25.3983C105.917 28.0912 109.586 29.7833 113.497 30.2281L113.504 27.0894Z" fill="#1D1D1B"/>
<path d="M113.503 31.7759H92.5625V35.2657H101.078V40.9912H104.973V35.2657H113.503V31.7759Z" fill="#1D1D1B"/>
<path d="M14.7783 22.1879C14.7783 22.1879 19.0432 18.9991 23.2442 18.1034C23.2442 18.1034 23.3721 18.1034 23.4148 18.1034C23.4574 18.1034 24.3673 19.1281 26.0235 18.0174C27.6797 16.9067 28.3123 16.6917 28.7957 16.8064C29.3481 17.0808 29.8542 17.4411 30.2955 17.8741C30.5169 18.1011 30.807 18.2473 31.12 18.2897C31.5394 18.2897 32.2645 18.2897 32.2929 18.2897C32.3494 18.2803 32.407 18.2803 32.4635 18.2897C32.5275 18.2897 34.731 18.7483 34.9514 18.7483C35.1717 18.7483 37.0838 19.0994 37.8586 19.2929C37.9433 19.3192 38.0214 19.3635 38.0876 19.4228C38.1538 19.4822 38.2067 19.5552 38.2425 19.6369C38.7831 20.5911 39.5379 21.4044 40.4463 22.0116C41.3548 22.6189 42.3918 23.0032 43.4741 23.1339V0.948242H14.7783V22.1879Z" fill="#76BDE9"/>
<path d="M14.7783 24.4309C17.4379 22.3833 20.4645 20.8723 23.692 19.9809C23.692 19.9809 23.7986 19.9809 23.8413 19.9809C23.8839 19.9809 24.6729 21.0199 26.3718 19.9809C28.0706 18.9418 28.4332 18.7197 28.8596 18.6838C29.4592 18.7504 30.0109 19.0451 30.4021 19.5079C30.7312 19.914 31.2067 20.1717 31.7242 20.2245C32.4351 20.1672 32.5772 20.1744 32.5772 20.1744C32.7725 20.1659 32.9681 20.1803 33.1601 20.2173C33.3591 20.2675 35.2286 20.5828 35.2286 20.5828C36.1216 20.814 37.0323 20.9698 37.951 21.0486C38.0846 21.0612 38.213 21.1071 38.3247 21.1822C38.4364 21.2572 38.5278 21.359 38.5908 21.4785C39.1308 22.3608 39.8415 23.1245 40.6804 23.724C41.5194 24.3236 42.4695 24.7468 43.4741 24.9683V59.0134H14.7783V24.4309Z" fill="#A1B93A"/>
<path d="M5.35933 46.9819C4.82803 47.0326 4.29676 46.8847 3.86661 46.5662C3.58103 46.1714 3.45177 45.6834 3.50409 45.1976V41.0342H2.53027V45.5415C2.53027 46.2581 2.58003 46.3871 2.79327 46.6594C3.21976 47.2398 4.07986 47.5336 5.34512 47.5336C6.22069 47.6145 7.09419 47.3585 7.79033 46.8171C8.15995 46.4803 8.21682 46.3083 8.21682 45.4985V41.0628H7.25011V45.3624C7.27274 45.5723 7.2529 45.7847 7.19182 45.9867C7.13073 46.1887 7.02966 46.3761 6.8947 46.5376C6.457 46.876 5.90842 47.0347 5.35933 46.9819V46.9819Z" fill="#1D1D1B"/>
<path d="M14.4792 46.1292V46.2223L14.1664 46.3012L14.1309 46.1937C13.8862 45.6506 13.5986 45.1282 13.2708 44.6315L10.8469 41.0486H9.61719V47.4405H10.6194C10.6194 47.3761 10.5626 44.0797 10.5626 44.0797C10.5626 43.2987 10.5199 42.7182 10.4631 42.2453V42.1019H10.7687V42.1879C11.0845 42.8119 11.4432 43.413 11.8421 43.9866L14.1167 47.4477H15.2327V41.0557H14.3015C14.3015 41.1202 14.3015 44.1872 14.3015 44.1872C14.3512 44.911 14.4579 45.9572 14.4792 46.1292Z" fill="#1D1D1B"/>
<path d="M17.6856 41.0342H16.6904V47.4261H17.6856V41.0342Z" fill="#1D1D1B"/>
<path d="M21.872 45.943L21.7227 46.3729H21.4384L21.3246 45.943V45.814C21.2322 45.5273 21.0901 45.1762 20.9906 44.9541L19.3272 41.063H18.2539C18.2966 41.149 21.0972 47.4335 21.0972 47.5123H22.1208C22.1208 47.4693 24.964 41.1848 25.0138 41.063H24.0186C23.9334 41.2708 22.3198 44.9398 22.3198 44.9398L21.9644 45.8211L21.872 45.943Z" fill="#1D1D1B"/>
<path d="M26.5349 44.3592H29.3782V43.8145H26.5349V41.5644H29.9539C29.9539 41.5215 30.0606 41.0987 30.0677 41.0342H25.5469V47.4261H30.2312V46.8601H26.542L26.5349 44.3592Z" fill="#1D1D1B"/>
<path d="M34.4961 45.2764C34.2863 45.0534 34.0471 44.8605 33.7853 44.7031L33.4157 44.4738H33.8635C34.4623 44.5171 35.0562 44.3387 35.5339 43.9722C35.709 43.8269 35.8496 43.6441 35.9455 43.4371C36.0414 43.23 36.0902 43.004 36.0884 42.7755C36.0822 42.5205 36.0141 42.271 35.8902 42.0486C35.7663 41.8263 35.5903 41.6379 35.3776 41.4999C34.7682 41.1462 34.067 40.9864 33.3659 41.0413H31.0273V47.4333H31.9443V44.4953H32.0794C32.4044 44.4862 32.7202 44.6043 32.9608 44.8249C33.5166 45.2968 34.0152 45.8332 34.4464 46.4229L34.5032 46.4946C34.8515 46.9317 34.9795 47.1037 35.2141 47.4261H36.3798L35.2567 46.0861C34.8871 45.6848 34.6028 45.3838 34.4961 45.2764ZM32.9252 44.1011H31.9443V41.5644H32.9963C33.3748 41.555 33.7527 41.5984 34.1194 41.6934C34.3689 41.7459 34.594 41.8808 34.7588 42.0768C34.9236 42.2728 35.0188 42.5187 35.0292 42.7755C35.0332 42.9673 34.9914 43.1573 34.9073 43.3294C34.8231 43.5015 34.6992 43.6507 34.5459 43.7644C34.0536 44.0439 33.4871 44.1616 32.9252 44.1011V44.1011Z" fill="#1D1D1B"/>
<path d="M40.2966 43.8576C39.3938 43.6569 39.273 43.6354 39.2517 43.6211C38.2565 43.399 37.83 43.0908 37.83 42.5606C37.83 41.844 38.4982 41.4427 39.5644 41.4427C40.2796 41.4428 40.9851 41.6096 41.6258 41.93C41.6258 41.93 41.9812 41.5143 42.0168 41.4642C41.2348 41.092 40.3793 40.9034 39.5147 40.9124C37.8443 40.9124 36.7212 41.629 36.7212 42.7182C36.7212 43.5351 37.3183 44.0152 38.7115 44.3162L39.6355 44.5168C40.6733 44.739 41.1993 45.1546 41.1993 45.7565C41.1993 46.5304 40.3961 47.0321 39.1593 47.0321C38.3523 47.0293 37.5551 46.8534 36.8207 46.5161L36.4795 47.0177C37.3174 47.3773 38.2202 47.5578 39.1308 47.548C41.4836 47.548 42.3366 46.3871 42.3366 45.6061C42.358 44.481 41.0643 44.0296 40.2966 43.8576Z" fill="#1D1D1B"/>
<path d="M44.277 41.0342H43.3174V47.4261H44.3054L44.277 41.0342Z" fill="#1D1D1B"/>
<path d="M55.2306 41.0271L53.8089 43.2342L53.1692 44.2947L53.0626 44.0654C52.9209 43.775 52.7594 43.4949 52.5792 43.227L51.1576 41.0271H49.8994L50.2761 41.5574H50.333V41.6075L52.6147 44.8465V47.4119H53.6312V44.8608L56.3465 41.0271H55.2306Z" fill="#1D1D1B"/>
<path d="M45.0586 41.0271V41.5574H47.3545V47.4119H48.2928V41.5574H50.2262L49.8495 41.0271H45.0586Z" fill="#1D1D1B"/>
<path d="M2.87889 30.2566C2.33135 30.6376 1.8676 31.1283 1.51659 31.6981C1.16558 32.2679 0.934847 32.9045 0.838796 33.5682C0.742746 34.2319 0.783442 34.9084 0.958338 35.5555C1.13323 36.2026 1.43858 36.8065 1.85531 37.3294C2.29348 37.7906 2.82687 38.149 3.41771 38.3793C4.00854 38.6096 4.64238 38.7062 5.27435 38.6622C6.4155 38.6747 7.54335 38.4144 8.56544 37.9026V37.9026V33.7751H4.7981L5.03267 35.0577H6.60358V37.2433H6.55382C6.17357 37.4025 5.76406 37.4783 5.35253 37.4655C4.75664 37.4928 4.17025 37.3076 3.69633 36.9424C3.16322 36.4766 2.90021 35.6167 2.90021 34.3197C2.90021 33.1803 3.01394 32.0338 3.80295 31.3673C4.23982 31.0358 4.77787 30.8685 5.32411 30.8944C6.07217 30.8869 6.80349 31.1177 7.41391 31.5537V31.5537L8.38062 30.5648C7.47455 29.9416 6.39948 29.6162 5.30278 29.6332C4.45315 29.6108 3.61405 29.8266 2.87889 30.2566V30.2566Z" fill="#1D1D1B"/>
<path d="M10.6201 29.8054H8.70801V29.8555C8.70801 29.9271 11.0466 38.5119 11.0679 38.5836H13.2004L14.032 35.0006C14.3093 33.8183 14.4799 32.6574 14.5154 32.4352H14.7358C14.8443 33.3072 15.0082 34.1712 15.2262 35.0221L16.1147 38.6051H18.1903L20.5929 29.7982H18.6737L17.8562 33.116C17.6501 34.0046 17.3231 35.8175 17.3018 36.0755H17.0815C17.0815 36.0755 16.8327 34.5491 16.6407 33.7107L15.7238 29.791H13.6482L12.7526 33.3381C12.5242 34.2829 12.3486 35.2399 12.2266 36.2045H12.0418C11.919 35.2177 11.7386 34.239 11.5015 33.2736L10.6201 29.8054Z" fill="#1D1D1B"/>
<path d="M24.8365 29.7551H22.7041C22.7041 29.8196 19.4841 38.3542 19.4414 38.4903V38.5405H21.4033C21.4033 38.5405 22.1141 36.4624 22.1141 36.3907H25.2417C25.2417 36.4409 25.9525 38.5405 25.9525 38.5405H27.9712L24.8365 29.7551ZM22.6401 34.9934C22.8391 34.4559 22.9671 34.0475 23.1803 33.3381L23.6637 31.6111L23.7561 31.2958C24.1755 32.9368 24.2394 33.1804 24.2608 33.2162C24.4811 34.069 24.8152 35.0005 24.8223 35.0149L24.8578 35.1295H22.6045L22.6401 34.9934Z" fill="#1D1D1B"/>
<path d="M35.3133 29.7839H33.5718L33.6145 33.1662C33.6089 33.2282 33.6089 33.2905 33.6145 33.3525V33.3525C33.6145 33.9831 33.7069 35.1296 33.778 35.8032H33.6074C33.3073 34.9319 32.934 34.088 32.4914 33.2808L30.5651 29.748H28.4326V38.5263H30.2381L30.1812 34.7856V34.5994C30.1812 33.8111 30.1812 32.9154 30.0888 32.2561H30.2523C30.6579 33.2545 31.1159 34.2304 31.6242 35.1798L33.3515 38.5621H35.356V29.7839H35.3133Z" fill="#1D1D1B"/>
<path d="M38.5908 30.2568C37.9035 30.6564 37.3424 31.244 36.9726 31.9516C36.6028 32.6592 36.4393 33.458 36.501 34.2554C36.4428 35.3814 36.8257 36.4855 37.5673 37.3296C38.006 37.79 38.5395 38.1479 39.1302 38.3782C39.7209 38.6084 40.3544 38.7055 40.9863 38.6624C42.1275 38.6758 43.2556 38.4154 44.2774 37.9029V37.9029V33.7753H40.5101L40.7446 35.0652H42.3155V37.2507H42.2658C41.8882 37.4106 41.4809 37.4864 41.0716 37.4729C40.4734 37.5013 39.8844 37.316 39.4083 36.9498C38.8752 36.4768 38.6122 35.617 38.6122 34.3271C38.6122 33.1877 38.7259 32.0412 39.5149 31.3747C39.954 31.0421 40.4946 30.8748 41.0432 30.9018C41.7907 30.8977 42.5211 31.1281 43.133 31.561V31.561L44.0926 30.5721C43.1869 29.9481 42.1116 29.6227 41.0147 29.6406C40.1658 29.6161 39.3267 29.8294 38.5908 30.2568V30.2568Z" fill="#1D1D1B"/>
<path d="M47.3193 29.7838H45.4499V37.0858C45.5148 37.6586 45.4417 38.2387 45.2366 38.777C44.9687 39.2099 44.594 39.5654 44.1491 39.8088H44.1064L44.9452 40.6258C45.3859 40.4681 46.8644 39.859 47.1985 38.6122C47.34 38.0459 47.3881 37.46 47.3407 36.878V29.7551L47.3193 29.7838Z" fill="#1D1D1B"/>
<path d="M56.0619 29.7837H54.1853V35.4304C54.2061 35.6975 54.2061 35.9659 54.1853 36.233C54.0929 36.9496 53.4745 37.358 52.5434 37.358C52.2611 37.3897 51.9756 37.3454 51.7159 37.2296C51.4561 37.1138 51.2315 36.9306 51.0649 36.6988C50.9069 36.3489 50.8408 35.964 50.8729 35.5809V29.7837H48.9537V35.932C48.8853 36.5104 49.035 37.0935 49.3731 37.5658C49.9276 38.3254 51.0364 38.7267 52.5789 38.7267C54.6332 38.7267 55.6923 37.8453 55.9695 37.0929C56.1272 36.6553 56.1808 36.1865 56.1259 35.7242V29.7837H56.0619Z" fill="#1D1D1B"/>
</g>
<defs>
<clipPath id="clip0_201_2203">
<rect width="186" height="60" fill="white" transform="translate(0.789062 0.948242)"/>
</clipPath>
</defs>
</svg>
