<svg width="188" height="69" viewBox="0 0 188 69" fill="none" xmlns="http://www.w3.org/2000/svg">
<g clip-path="url(#clip0_201_2081)">
<path d="M38.9951 49.5708H26.9756V51.4942H38.9951V49.5708Z" fill="#231F20"/>
<path d="M34.5067 47.877H31.5645V50.9199H34.5067V47.877Z" fill="#231F20"/>
<path d="M79.5205 49.5708H67.501V51.4942H79.5205V49.5708Z" fill="#231F20"/>
<path d="M75.0252 47.877H72.083V50.9199H75.0252V47.877Z" fill="#231F20"/>
<path d="M120.576 49.5708H108.557V51.4942H120.576V49.5708Z" fill="#231F20"/>
<path d="M116.08 47.877H113.138V50.9199H116.08V47.877Z" fill="#231F20"/>
<path d="M160.508 59.0151H157.565V68.8114H160.508V59.0151Z" fill="#231F20"/>
<path d="M168.096 58.5273H149.884V60.4435H168.096V58.5273Z" fill="#231F20"/>
<path d="M46.5193 53.439H43.4268V55.3623H46.5193V53.439Z" fill="#231F20"/>
<path d="M44.1275 48.8599H41.1924V62.3881H44.1275V48.8599Z" fill="#231F20"/>
<path d="M33.103 49.7715C29.9246 49.7715 27.5908 51.9891 27.5908 54.7952C27.5908 57.6014 29.9246 59.819 33.103 59.819C36.2815 59.819 38.6152 57.587 38.6152 54.7952C38.6152 52.0035 36.2887 49.7715 33.103 49.7715ZM33.103 58.0894C31.614 58.0894 30.4973 56.654 30.4973 54.7952C30.4973 52.9364 31.614 51.4939 33.103 51.4939C34.592 51.4939 35.7088 52.9293 35.7088 54.7952C35.7088 56.6612 34.592 58.0894 33.103 58.0894Z" fill="#231F20"/>
<path d="M87.0369 53.439H83.9443V55.3623H87.0369V53.439Z" fill="#231F20"/>
<path d="M84.661 48.8599H81.7188V62.3881H84.661V48.8599Z" fill="#231F20"/>
<path d="M73.6222 49.7715C70.4438 49.7715 68.1172 51.9891 68.1172 54.7952C68.1172 57.6014 70.4438 59.819 73.6222 59.819C76.8007 59.819 79.1416 57.587 79.1416 54.7952C79.1416 52.0035 76.8079 49.7715 73.6222 49.7715ZM73.6222 58.0894C72.1332 58.0894 71.0165 56.654 71.0165 54.7952C71.0165 52.9364 72.1332 51.4939 73.6222 51.4939C75.1113 51.4939 76.228 52.9293 76.228 54.7952C76.228 56.6612 75.1184 58.0894 73.6222 58.0894Z" fill="#231F20"/>
<path d="M57.8514 56.8838H54.9092V62.5104H57.8514V56.8838Z" fill="#231F20"/>
<path d="M65.7969 56.3955H47.2129V58.3189H65.7969V56.3955Z" fill="#231F20"/>
<path d="M105.135 62.4312H88.627V64.3545H105.135V62.4312Z" fill="#231F20"/>
<path d="M105.822 48.6807H102.93V68.8115H105.822V48.6807Z" fill="#231F20"/>
<path d="M94.8906 48.7163C91.6907 48.7163 88.9561 50.8694 88.9561 54.02C88.9561 57.1706 91.6907 59.3308 94.8906 59.3308C98.0906 59.3308 100.825 57.1777 100.825 54.02C100.825 50.8622 98.0834 48.7163 94.8906 48.7163ZM94.8906 57.5724C93.1725 57.5724 91.9341 56.1371 91.9341 54.02C91.9341 51.9028 93.1725 50.4316 94.8906 50.4316C96.6087 50.4316 97.8472 51.8669 97.8472 54.02C97.8472 56.173 96.6087 57.5652 94.8906 57.5652V57.5724Z" fill="#231F20"/>
<path d="M127.914 52.6924H124.821V54.6158H127.914V52.6924Z" fill="#231F20"/>
<path d="M125.716 48.6519H122.773V60.0414H125.716V48.6519Z" fill="#231F20"/>
<path d="M114.677 49.7715C111.498 49.7715 109.215 51.8312 109.215 54.5081C109.215 57.1851 111.498 59.2377 114.677 59.2377C117.855 59.2377 120.146 57.1851 120.146 54.5081C120.146 51.8312 117.87 49.7715 114.677 49.7715ZM114.677 57.5153C113.188 57.5153 112.121 56.0799 112.121 54.5081C112.121 52.9364 113.188 51.4939 114.677 51.4939C116.166 51.4939 117.247 52.9293 117.247 54.5081C117.247 56.087 116.18 57.5153 114.677 57.5153Z" fill="#231F20"/>
<path d="M147.17 48.8599H144.278V62.5819H147.17V48.8599Z" fill="#231F20"/>
<path d="M146.204 51.5225H140.098V53.3812H146.204V51.5225Z" fill="#231F20"/>
<path d="M146.204 55.4414H140.098V57.3002H146.204V55.4414Z" fill="#231F20"/>
<path d="M135.43 48.8813C132.101 48.8813 129.488 51.1349 129.488 54.1922C129.488 57.2495 132.101 59.503 135.43 59.503C138.759 59.503 141.322 57.2495 141.322 54.1922C141.322 51.1349 138.752 48.8813 135.43 48.8813ZM135.43 57.7447C133.59 57.7447 132.473 56.1586 132.473 54.1922C132.473 52.2257 133.59 50.6038 135.43 50.6038C137.27 50.6038 138.387 52.197 138.387 54.1922C138.387 56.1873 137.263 57.7447 135.43 57.7447Z" fill="#231F20"/>
<path d="M177.459 58.5703H174.567V62.496H177.459V58.5703Z" fill="#231F20"/>
<path d="M187.789 48.8599H184.896V64.2254H187.789V48.8599Z" fill="#231F20"/>
<path d="M183.257 57.8311H170.229V59.6898H183.257V57.8311Z" fill="#231F20"/>
<path d="M186.822 60.8813H180.716V62.7473H186.822V60.8813Z" fill="#231F20"/>
<path d="M176.178 48.5659C172.877 48.5659 170.744 50.3888 170.744 52.7356C170.744 55.0824 172.892 56.9053 176.178 56.9053C179.463 56.9053 181.604 55.0824 181.604 52.7356C181.604 50.3888 179.499 48.5659 176.178 48.5659ZM176.178 55.1829C175.697 55.173 175.23 55.0211 174.835 54.7463C174.441 54.4714 174.135 54.0858 173.958 53.6378C173.781 53.1899 173.74 52.6994 173.84 52.2281C173.94 51.7567 174.176 51.3254 174.519 50.9882C174.863 50.6509 175.297 50.4228 175.77 50.3323C176.242 50.2419 176.73 50.2932 177.173 50.4798C177.616 50.6664 177.995 50.9801 178.261 51.3814C178.527 51.7826 178.669 52.2537 178.669 52.7356C178.671 53.0615 178.607 53.3845 178.482 53.6852C178.357 53.986 178.173 54.2584 177.94 54.4861C177.708 54.7139 177.432 54.8923 177.129 55.0107C176.826 55.1292 176.503 55.1854 176.178 55.1757V55.1829Z" fill="#231F20"/>
<path d="M33.6332 66.888C33.547 66.8944 33.4603 66.8822 33.3792 66.852C33.2982 66.8218 33.2245 66.7745 33.1634 66.7131C33.1022 66.6518 33.055 66.578 33.0249 66.4968C32.9948 66.4155 32.9825 66.3286 32.9889 66.2422V61.8643H30.0467V66.479C30.0313 66.7893 30.0809 67.0995 30.1924 67.3895C30.3039 67.6794 30.4748 67.9428 30.6939 68.1625C30.9131 68.3823 31.1758 68.5535 31.465 68.6653C31.7543 68.7771 32.0637 68.8268 32.3733 68.8114H44.1064V66.888H33.6332Z" fill="#231F20"/>
<path d="M60.3138 51.164C60.4006 51.1565 60.488 51.168 60.57 51.1977C60.6519 51.2274 60.7265 51.2746 60.7884 51.336C60.8504 51.3975 60.8983 51.4716 60.9288 51.5535C60.9593 51.6353 60.9718 51.7229 60.9652 51.81V56.6471H63.9074V51.5875C63.924 51.2762 63.875 50.9649 63.7635 50.6739C63.652 50.3829 63.4805 50.1187 63.2603 49.8986C63.0401 49.6785 62.7761 49.5074 62.4854 49.3965C62.1948 49.2856 61.8842 49.2374 61.5737 49.255H49.1748V51.1784L60.3138 51.164Z" fill="#231F20"/>
<path d="M60.3138 63.623C60.401 63.6165 60.4885 63.629 60.5705 63.6596C60.6524 63.6901 60.7268 63.738 60.7886 63.8C60.8504 63.862 60.8982 63.9365 60.9287 64.0187C60.9592 64.1008 60.9716 64.1887 60.9652 64.2761V68.8118H63.9074V64.0392C63.9229 63.7282 63.8731 63.4174 63.7612 63.1269C63.6493 62.8364 63.4778 62.5727 63.2578 62.3528C63.0378 62.133 62.7743 61.9619 62.4842 61.8506C62.1941 61.7393 61.8839 61.6903 61.5737 61.7067H49.1748V63.623H60.3138Z" fill="#231F20"/>
<path d="M122.158 63.0268C122.245 63.0202 122.332 63.0327 122.413 63.0633C122.495 63.0939 122.569 63.1419 122.63 63.204C122.692 63.2661 122.739 63.3409 122.768 63.423C122.798 63.5052 122.809 63.5929 122.802 63.6799V68.8113H125.744V63.4431C125.76 63.1327 125.71 62.8226 125.598 62.5326C125.487 62.2426 125.316 61.9793 125.097 61.7596C124.878 61.5398 124.615 61.3685 124.326 61.2568C124.037 61.145 123.727 61.0952 123.418 61.1107H111.384V63.0268H122.158Z" fill="#231F20"/>
<path d="M74.1586 66.888C74.072 66.8943 73.9851 66.882 73.9037 66.8519C73.8223 66.8218 73.7483 66.7745 73.6866 66.7133C73.6249 66.6521 73.577 66.5785 73.546 66.4972C73.5151 66.4159 73.5018 66.329 73.5071 66.2422V61.8643H70.5721V66.479C70.5567 66.7893 70.6063 67.0995 70.7178 67.3895C70.8293 67.6794 71.0001 67.9428 71.2193 68.1625C71.4385 68.3823 71.7012 68.5535 71.9904 68.6653C72.2797 68.7771 72.5891 68.8268 72.8987 68.8114H84.6318V66.888H74.1586Z" fill="#231F20"/>
<path d="M136.604 66.8881C136.518 66.8945 136.431 66.8823 136.35 66.8521C136.269 66.8219 136.195 66.7745 136.134 66.7132C136.073 66.6519 136.026 66.5781 135.996 66.4968C135.966 66.4156 135.953 66.3287 135.96 66.2423V61.728H133.017V66.4791C133.002 66.792 133.052 67.1047 133.165 67.3967C133.278 67.6888 133.452 67.9536 133.674 68.1738C133.897 68.394 134.163 68.5647 134.456 68.6746C134.748 68.7845 135.061 68.8311 135.373 68.8115H147.113V66.8881H136.604Z" fill="#231F20"/>
<path d="M177.223 66.888C177.136 66.8943 177.05 66.882 176.968 66.8519C176.887 66.8218 176.813 66.7745 176.751 66.7133C176.689 66.6521 176.641 66.5784 176.61 66.4972C176.58 66.4159 176.566 66.329 176.572 66.2421V63.9312H173.637V66.4789C173.621 66.7893 173.671 67.0995 173.782 67.3894C173.894 67.6794 174.065 67.9428 174.284 68.1625C174.503 68.3822 174.766 68.5535 175.055 68.6653C175.344 68.777 175.654 68.8268 175.963 68.8114H187.696V66.888H177.223Z" fill="#231F20"/>
<path d="M162.619 51.0488C162.706 51.0424 162.794 51.0549 162.876 51.0854C162.958 51.116 163.032 51.1639 163.094 51.2258C163.156 51.2878 163.203 51.3624 163.234 51.4445C163.264 51.5267 163.277 51.6145 163.27 51.7019V58.7638H166.213V51.4866C166.228 51.1762 166.178 50.866 166.067 50.5761C165.955 50.2861 165.785 50.0228 165.565 49.803C165.346 49.5833 165.083 49.412 164.794 49.3002C164.505 49.1885 164.196 49.1387 163.886 49.1541H151.838V51.0703L162.619 51.0488Z" fill="#231F20"/>
<path d="M43.9494 28.4205C38.6305 27.1645 36.5688 20.849 35.4377 15.2727C33.1541 3.93334 24.4133 0.825792 18.3785 0.825792C15.3028 0.772738 12.2693 1.54852 9.59473 3.07213C12.1626 1.99792 15.0202 1.83834 17.6912 2.61999C22.4303 3.99793 25.4441 7.92364 26.2817 14.3827C27.513 23.935 31.7867 30.43 38.4515 31.607C39.1607 31.7312 39.8792 31.7936 40.5991 31.7936C42.153 31.7009 43.6718 31.2916 45.0626 30.5907C46.4534 29.8898 47.6872 28.9121 48.6885 27.7172C47.2087 28.402 45.5637 28.6461 43.9494 28.4205V28.4205Z" fill="#005CB9"/>
<path d="M68.8467 8.39751L57.5359 0.962372C57.0634 0.639417 56.82 0.847568 56.9059 1.43606C57.3653 3.67666 57.5884 5.95945 57.5717 8.24682C57.5717 27.5093 43.2543 34.399 39.1452 36.4013C35.4083 38.2386 24.3696 41.6332 16.1084 38.5903C20.6468 40.2113 25.4365 41.0108 30.254 40.9515C52.761 40.8725 67.2646 26.117 69.3478 9.30179C69.3598 9.11872 69.3189 8.93608 69.23 8.77571C69.1411 8.61533 69.0081 8.48401 68.8467 8.39751V8.39751Z" fill="#CE0E2D"/>
<path d="M28.4647 38.6691C16.9177 38.6691 9.52269 28.8943 9.52269 16.4712C9.52269 8.75621 13.1021 3.02197 18.3494 3.02197C18.514 3.02197 18.6787 3.02197 18.8362 3.02197C18.463 2.86448 18.0805 2.7303 17.6908 2.62011C15.0198 1.83846 12.1622 1.99804 9.59429 3.07225L10.1527 2.7708C7.36752 4.1436 5.01733 6.26477 3.36404 8.89795C1.71075 11.5311 0.819309 14.5729 0.789062 17.6842C0.789062 28.1192 6.98135 35.1812 16.1087 38.5901C24.3699 41.6331 35.4015 38.2384 39.1455 36.4012C35.822 38.0162 32.1559 38.7946 28.4647 38.6691Z" fill="#FFA400"/>
</g>
<defs>
<clipPath id="clip0_201_2081">
<rect width="187" height="68" fill="white" transform="translate(0.789062 0.811523)"/>
</clipPath>
</defs>
</svg>
