<svg width="194" height="31" viewBox="0 0 194 31" fill="none" xmlns="http://www.w3.org/2000/svg">
<g clip-path="url(#clip0_434_1706)">
<path d="M85.7601 7.99488V6.79002H80.1836V5.14614H93.6496V6.79002H88.0639V7.99488H85.7601ZM88.137 0.335938C88.137 1.00843 88.6124 1.53147 89.5632 1.90508C90.8421 2.28112 92.1636 2.48523 93.4942 2.51221L93.1925 4.16544C91.9782 4.15611 90.768 4.01838 89.5815 3.75447C88.594 3.59985 87.6707 3.15894 86.9212 2.48416C86.1632 3.1569 85.2347 3.59726 84.2426 3.75447C83.0634 4.02586 81.8586 4.16368 80.6498 4.16544L80.3481 2.52156C81.6746 2.50088 82.9917 2.29025 84.2609 1.89579C85.1751 1.52218 85.687 0.961728 85.687 0.335938H88.137ZM90.2671 8.31247C90.719 8.47824 91.1098 8.7825 91.386 9.18372C91.6623 9.58495 91.8105 10.0635 91.8105 10.5541C91.8105 11.0446 91.6623 11.5232 91.386 11.9244C91.1098 12.3257 90.719 12.63 90.2671 12.7957C89.2414 13.3651 88.0882 13.6516 86.9212 13.627C85.7277 13.6534 84.5475 13.3672 83.493 12.7957C83.0411 12.63 82.6503 12.3257 82.374 11.9244C82.0978 11.5232 81.9495 11.0446 81.9495 10.5541C81.9495 10.0635 82.0978 9.58495 82.374 9.18372C82.6503 8.7825 83.0411 8.47824 83.493 8.31247C84.5482 7.74385 85.7285 7.46087 86.9212 7.49053C88.0874 7.46269 89.2407 7.74599 90.2671 8.31247V8.31247ZM85.0196 9.46129C84.4894 9.72905 84.2243 10.0653 84.2243 10.47C84.2243 10.8623 84.4894 11.1986 85.0196 11.4695C85.5911 11.7434 86.217 11.8776 86.848 11.8617C87.4792 11.8801 88.1057 11.7457 88.6764 11.4695C89.2158 11.1986 89.49 10.8623 89.49 10.47C89.49 10.0778 89.2158 9.73216 88.6764 9.46129C88.1035 9.19285 87.4781 9.06183 86.848 9.07832C86.2182 9.06411 85.5932 9.19503 85.0196 9.46129V9.46129Z" fill="#5A5A59"/>
<path d="M100.881 0.607422C100.837 1.40902 101.052 2.20299 101.493 2.86773C102.238 3.74107 103.274 4.30032 104.4 4.43687L104.108 5.96867C103.199 5.95509 102.303 5.75164 101.475 5.37088C100.757 4.95645 100.16 4.35343 99.747 3.62428C99.2701 4.37374 98.6036 4.97729 97.818 5.37088C97.0517 5.72667 96.2269 5.93262 95.3863 5.97802L95.0938 4.46491C96.2008 4.32225 97.2185 3.77074 97.9552 2.91441C98.3837 2.24172 98.5889 1.44589 98.5402 0.644762L100.881 0.607422ZM105.973 8.34105H96.9038V6.64113H108.203V10.6667H99.0613V11.4887H108.203V13.1792H97.946C97.6647 13.2027 97.3839 13.1269 97.1507 12.9644C97.0475 12.8493 96.9689 12.7134 96.9201 12.5654C96.8713 12.4174 96.8533 12.2607 96.8673 12.1052V9.10695H106.009L105.973 8.34105ZM105.973 0.607422H108.167V6.01536H105.973V0.607422Z" fill="#5A5A59"/>
<path d="M115.251 0.701172C115.142 2.65531 115.419 4.61172 116.064 6.45469C116.258 6.94775 116.575 7.37997 116.985 7.70789C117.394 8.03581 117.88 8.24785 118.395 8.32272L118.103 10.2935C117.267 10.1985 116.471 9.8759 115.799 9.35952C115.046 8.74568 114.473 7.93112 114.144 7.00578C113.739 7.93555 113.11 8.74533 112.316 9.35952C111.69 9.87096 110.936 10.1943 110.14 10.2935L109.848 8.34142C110.36 8.25949 110.843 8.04477 111.251 7.71775C111.66 7.39073 111.979 6.96231 112.179 6.47339C112.844 4.64179 113.131 2.68899 113.02 0.738512L115.251 0.701172ZM121.833 6.57611V13.3384H119.684V0.701172H121.833V4.82016H123.57V6.57611H121.833Z" fill="#5A5A59"/>
<path d="M132.693 2.28808C133.385 3.15616 133.763 4.24143 133.763 5.36097C133.763 6.48051 133.385 7.56584 132.693 8.43392C132.281 8.87704 131.784 9.22981 131.234 9.47089C130.684 9.71198 130.092 9.83631 129.493 9.83631C128.895 9.83631 128.303 9.71198 127.753 9.47089C127.202 9.22981 126.706 8.87704 126.294 8.43392C125.608 7.5629 125.234 6.47869 125.234 5.36097C125.234 4.24325 125.608 3.1591 126.294 2.28808C126.703 1.8401 127.199 1.48293 127.749 1.23873C128.3 0.99454 128.893 0.868524 129.493 0.868524C130.093 0.868524 130.687 0.99454 131.237 1.23873C131.788 1.48293 132.283 1.8401 132.693 2.28808V2.28808ZM127.939 3.56767C127.585 4.09765 127.406 4.7291 127.427 5.37032C127.405 6.00297 127.584 6.62595 127.939 7.14497C128.121 7.39428 128.358 7.59669 128.63 7.73614C128.902 7.87559 129.203 7.94821 129.507 7.94821C129.812 7.94821 130.112 7.87559 130.384 7.73614C130.656 7.59669 130.893 7.39428 131.075 7.14497C131.452 6.63458 131.652 6.00989 131.642 5.37032C131.661 4.72659 131.475 4.09394 131.111 3.56767C130.931 3.31665 130.694 3.11257 130.422 2.97194C130.15 2.83131 129.849 2.75805 129.544 2.75805C129.238 2.75805 128.938 2.83131 128.665 2.97194C128.393 3.11257 128.157 3.31665 127.976 3.56767H127.939ZM134.978 0.765625H137.127V13.3561H134.978V0.765625Z" fill="#5A5A59"/>
<path d="M147.387 9.04197C147.387 9.4436 147.013 9.71446 146.857 9.85456C146.626 10.0232 146.344 10.1026 146.062 10.0787H140.577C140.314 10.0987 140.053 10.0262 139.836 9.87326C139.74 9.76005 139.668 9.62781 139.624 9.48481C139.579 9.3418 139.565 9.19106 139.58 9.04197V0.916016H141.701V4.18507H145.029V0.916016H147.415L147.387 9.04197ZM141.701 8.36016H145.029V5.82895H141.701V8.36016ZM149.801 4.3439V0.916016H151.913V13.2917H149.801V6.06245H147.003V4.3439H149.801Z" fill="#5A5A59"/>
<path d="M156.326 8.36039H160.166V10.0416H155.22C154.952 10.0622 154.684 9.98979 154.461 9.83615C154.365 9.72294 154.293 9.59071 154.249 9.4477C154.204 9.30469 154.19 9.15395 154.205 9.00486V0.878906H160.166V2.59752H156.326V8.36039ZM164.024 6.28684H163.155V13.292H161.18V0.916246H163.155V4.54023H164.024V0.916246H166.035V13.292H164.024V6.28684Z" fill="#5A5A59"/>
<path d="M175.168 2.95992C175.295 3.13185 175.4 3.32034 175.479 3.52036C175.568 3.72969 175.614 3.95524 175.616 4.18348C175.617 4.59702 175.519 5.0046 175.331 5.37084C175.143 5.73707 174.871 6.05088 174.537 6.28501C173.854 6.81316 173.017 7.0897 172.16 7.06961C171.296 7.08947 170.449 6.81327 169.756 6.28501C169.421 6.05135 169.147 5.73792 168.958 5.37175C168.768 5.00558 168.669 4.5977 168.668 4.18348C168.667 3.96373 168.704 3.74556 168.778 3.539C168.856 3.3308 168.963 3.13562 169.098 2.95992H168.211V1.35344H171.018V0.279297H173.257V1.35344H176V2.95992H175.168ZM179.894 13.2901H177.782V9.64751H168.97V7.92889H179.894V13.2901ZM171.164 3.31485C171.032 3.41829 170.926 3.55131 170.853 3.70359C170.78 3.85586 170.743 4.0233 170.743 4.19283C170.742 4.35839 170.78 4.52177 170.853 4.66953C170.926 4.81729 171.033 4.94525 171.164 5.04281C171.44 5.28423 171.792 5.41684 172.156 5.41684C172.519 5.41684 172.871 5.28423 173.148 5.04281C173.278 4.94525 173.385 4.81729 173.458 4.66953C173.531 4.52177 173.569 4.35839 173.568 4.19283C173.569 4.0233 173.531 3.85586 173.458 3.70359C173.385 3.55131 173.279 3.41829 173.148 3.31485C172.863 3.09142 172.514 2.97029 172.156 2.97029C171.797 2.97029 171.448 3.09142 171.164 3.31485ZM179.894 4.47302V7.00423H177.782V0.914421H179.894V2.78245H181.595V4.43568L179.894 4.47302Z" fill="#5A5A59"/>
<path d="M186.385 11.2744H187.719V6.12796H189.813V11.2744H194V12.993H182.289V11.2744H184.291V6.12796H186.385V11.2744ZM191.175 10.4058V2.93364H183.039V1.26172H193.278V10.4058H191.175Z" fill="#5A5A59"/>
<path d="M26.1374 31.0007H17.9097C18.0011 31.0007 18.3028 30.5897 18.3851 30.5056C18.5443 30.3241 18.6939 30.1339 18.833 29.9359C19.1862 29.4369 19.4693 28.8899 19.6741 28.3107C20.3864 26.3557 20.3373 24.196 19.537 22.2769C18.6184 20.5561 17.5988 18.8936 16.4836 17.2987C14.8883 14.8748 14.0821 11.9985 14.1798 9.07929C14.348 7.10584 15.126 5.23818 16.4013 3.74609H24.3365C23.259 4.81135 22.4913 6.16068 22.1186 7.64446C21.7458 9.12824 21.7825 10.6885 22.2247 12.1522C22.7759 13.8269 23.581 15.4028 24.6107 16.8223C25.5547 18.2012 26.3863 19.6569 27.0973 21.1748C27.7053 22.5675 27.9957 24.0832 27.9466 25.6073C27.8975 27.1315 27.5102 28.6244 26.8139 29.9733C26.7134 30.1227 26.3111 31.0007 26.1374 31.0007Z" fill="#0097C3"/>
<path d="M30.7162 23.0422H44.429V0H26.4195C25.6477 0.798126 25.0945 1.78929 24.8154 2.87439C24.5362 3.95949 24.5409 5.10048 24.8288 6.18318C25.295 8.14462 26.6572 9.91924 27.9279 11.6005C29.8934 14.2718 32.0509 17.2699 31.4475 20.8286C31.32 21.6013 31.0732 22.3485 30.7162 23.0422V23.0422Z" fill="#65C2C4"/>
<path d="M0 0V23.0422H13.4751C14.0142 21.6694 14.0142 20.1372 13.4751 18.7644C12.177 15.5234 10.0652 13.7674 8.9042 10.9374C7.78889 8.25672 7.6609 5.80024 8.6208 2.279C8.87901 1.50072 9.18433 0.739578 9.53499 0H0Z" fill="#006189"/>
<path d="M72.0365 0H60.856V18.2787C60.856 18.3628 60.856 18.8111 60.856 19.2127C60.728 22.0802 60.0698 22.6499 59.375 22.9488H72.0365V0Z" fill="#0097C3"/>
<path d="M47.4377 3.76367V26.974C47.428 27.976 47.8083 28.9409 48.4949 29.6564C49.1815 30.3719 50.1183 30.7795 51.099 30.7894C52.0798 30.7993 53.0242 30.4108 53.7245 29.7092C54.4249 29.0077 54.8238 28.0507 54.8335 27.0487V3.76367H47.4377Z" fill="#006189"/>
<path d="M80.7031 17.2598H81.9099V19.436L83.272 17.2598H84.7255L83.0526 19.7443L84.881 22.593H83.336L81.9281 20.1739V22.593H80.7214L80.7031 17.2598Z" fill="#65C2C4"/>
<path d="M86.5182 22.538C86.3037 22.457 86.1054 22.3367 85.9331 22.1831C85.7546 21.9918 85.6148 21.7665 85.5217 21.5199C85.4192 21.2425 85.3696 20.9477 85.3755 20.6513C85.3695 20.3518 85.4192 20.0539 85.5217 19.7733C85.6125 19.5283 85.7527 19.3055 85.9331 19.1195C86.1147 18.9412 86.3291 18.8015 86.5639 18.7086C87.069 18.5216 87.6222 18.5216 88.1272 18.7086C88.3597 18.8008 88.5712 18.9406 88.7488 19.1195C88.9349 19.3027 89.0785 19.5261 89.1694 19.7733C89.2676 20.0551 89.3171 20.3522 89.3156 20.6513C89.3172 20.9474 89.2676 21.2414 89.1694 21.5199C89.0763 21.7665 88.9365 21.9918 88.758 22.1831C88.5759 22.3584 88.3615 22.495 88.1272 22.5847C87.6222 22.7716 87.069 22.7716 86.5639 22.5847L86.5182 22.538ZM87.8712 21.4078C87.9914 21.1579 88.0539 20.8831 88.0539 20.6046C88.0539 20.3261 87.9914 20.0513 87.8712 19.8013C87.8128 19.6997 87.7283 19.6163 87.6267 19.5603C87.5252 19.5043 87.4105 19.4778 87.2953 19.4838C87.1811 19.4763 87.0671 19.5022 86.9667 19.5584C86.8664 19.6147 86.7837 19.6989 86.7285 19.8013C86.6026 20.0496 86.537 20.325 86.537 20.6046C86.537 20.8841 86.6026 21.1596 86.7285 21.4078C86.7858 21.5078 86.8691 21.5895 86.9692 21.6439C87.0692 21.6983 87.1821 21.7233 87.2953 21.7161C87.4095 21.722 87.5231 21.6965 87.6244 21.6422C87.7257 21.588 87.8109 21.5071 87.8712 21.4078V21.4078Z" fill="#65C2C4"/>
<path d="M92.4148 19.7174C92.2843 19.6782 92.1483 19.6624 92.0125 19.6707C91.8885 19.6635 91.7648 19.6899 91.654 19.7473C91.5432 19.8047 91.4493 19.8911 91.3818 19.9976C91.2166 20.2785 91.1399 20.6046 91.1623 20.9316V22.6129H89.9922V18.6339H91.0618V19.3811C91.1474 19.1493 91.2852 18.9413 91.464 18.774C91.6309 18.6327 91.8415 18.5566 92.0582 18.5592C92.1921 18.548 92.3266 18.548 92.4605 18.5592L92.4148 19.7174Z" fill="#65C2C4"/>
<path d="M93.9416 21.0058C93.9461 21.1192 93.9756 21.2302 94.0278 21.3305C94.0801 21.4307 94.1537 21.5176 94.2433 21.5848C94.4515 21.7156 94.6942 21.7775 94.9381 21.7623C95.1108 21.7631 95.2829 21.7411 95.45 21.6969C95.6316 21.6389 95.8064 21.5606 95.9711 21.4634V22.3974C95.5791 22.5713 95.1551 22.6573 94.7278 22.6496C94.4625 22.6526 94.1991 22.605 93.9508 22.5095C93.7134 22.4146 93.498 22.27 93.3185 22.085C93.1391 21.9 92.9994 21.6788 92.9086 21.4354C92.8052 21.1583 92.7555 20.8633 92.7623 20.5668C92.76 20.2722 92.8032 19.979 92.8903 19.6982C92.9739 19.4532 93.1044 19.2278 93.2743 19.035C93.4409 18.8561 93.6427 18.7152 93.8665 18.6219C94.0903 18.5285 94.3309 18.4846 94.5724 18.4932C94.8449 18.4846 95.1151 18.5456 95.3586 18.6707C95.5698 18.7885 95.7513 18.9548 95.8889 19.1564C96.0326 19.3679 96.1351 19.6058 96.1905 19.8569C96.2505 20.1424 96.2812 20.4336 96.282 20.7256V20.9778L93.9416 21.0058ZM95.2306 20.2212C95.2406 20.009 95.1829 19.7992 95.0661 19.6234C95.0129 19.5441 94.94 19.4806 94.8548 19.4396C94.7697 19.3985 94.6754 19.3814 94.5816 19.3899C94.4911 19.3873 94.4015 19.4072 94.3202 19.4478C94.239 19.4885 94.1687 19.5488 94.1153 19.6234C93.9981 19.8 93.9345 20.0079 93.9325 20.2212H95.2306Z" fill="#65C2C4"/>
<path d="M99.2727 22.594C99.2727 22.5473 99.2727 22.4632 99.2727 22.3325C99.2727 22.2017 99.2727 22.0523 99.2727 21.9589C99.1704 22.1805 99.0128 22.3705 98.8156 22.5099C98.6321 22.6264 98.419 22.6849 98.2031 22.6781C97.8704 22.6916 97.5446 22.5784 97.2889 22.3605C97.1658 22.2412 97.07 22.0957 97.0084 21.9342C96.9468 21.7727 96.9208 21.5994 96.9324 21.4265C96.9238 21.182 96.9807 20.9399 97.0969 20.726C97.2089 20.5517 97.3633 20.4101 97.5449 20.315C97.7204 20.2221 97.9082 20.156 98.1025 20.1188C98.2943 20.105 98.4867 20.105 98.6785 20.1188H98.9527H99.2178C99.2285 20.0193 99.2149 19.9185 99.1782 19.8257C99.1415 19.7328 99.0829 19.6506 99.0076 19.5864C98.8434 19.4732 98.6477 19.4175 98.4499 19.4277C98.2587 19.4289 98.0684 19.454 97.8831 19.5024C97.7016 19.5479 97.5286 19.6236 97.3712 19.7266V18.7926C97.7965 18.5985 98.2585 18.5028 98.7242 18.5124C98.935 18.5092 99.1448 18.5408 99.3458 18.6057C99.5346 18.6593 99.7095 18.755 99.8578 18.8859C100.014 19.025 100.133 19.2016 100.205 19.3997C100.294 19.6445 100.338 19.9044 100.333 20.1656V21.6413C100.329 21.9539 100.35 22.2664 100.397 22.5753L99.2727 22.594ZM98.1208 21.66C98.2192 21.7396 98.3429 21.7795 98.4682 21.7721C98.5697 21.7731 98.6699 21.748 98.7593 21.699C98.8488 21.6501 98.9248 21.5788 98.9802 21.4919C99.1147 21.3019 99.1852 21.0725 99.1813 20.8381H99.0533H98.6876C98.5084 20.8324 98.3312 20.8777 98.1757 20.9688C98.1114 21.0121 98.0597 21.0722 98.0259 21.1428C97.9921 21.2135 97.9775 21.2921 97.9837 21.3705C97.987 21.4242 98.0008 21.4766 98.0244 21.5248C98.048 21.5729 98.0807 21.6157 98.1208 21.6506V21.66Z" fill="#65C2C4"/>
<path d="M103.405 21.2488C103.583 21.3628 103.778 21.4479 103.981 21.501C104.201 21.569 104.429 21.6037 104.658 21.6037C104.845 21.6131 105.031 21.5712 105.197 21.4823C105.265 21.4427 105.321 21.3836 105.356 21.3122C105.392 21.2408 105.407 21.1604 105.398 21.0807C105.402 21.0013 105.387 20.922 105.353 20.8503C105.32 20.7785 105.269 20.7164 105.206 20.6697C105.015 20.5465 104.809 20.4492 104.594 20.3802L104.073 20.1747C103.93 20.1031 103.798 20.0119 103.68 19.9038C103.545 19.7817 103.441 19.6278 103.378 19.4555C103.291 19.2397 103.25 19.007 103.259 18.7736C103.25 18.5042 103.31 18.2372 103.433 17.9984C103.537 17.7909 103.695 17.6164 103.89 17.494C104.085 17.3699 104.298 17.2785 104.521 17.2232C104.755 17.1745 104.994 17.1494 105.234 17.1485C105.445 17.1477 105.656 17.1665 105.865 17.2045C106.049 17.2278 106.231 17.2749 106.404 17.3446L106.322 18.4468C106.013 18.2772 105.667 18.1904 105.316 18.1946H105.042C104.953 18.202 104.867 18.2241 104.786 18.2599C104.707 18.2906 104.638 18.3422 104.585 18.4094C104.528 18.484 104.499 18.5766 104.502 18.6709C104.5 18.7413 104.515 18.8111 104.547 18.8733C104.579 18.9356 104.627 18.9882 104.685 19.0258C104.867 19.1295 105.061 19.211 105.261 19.2687L105.791 19.4649C105.943 19.5304 106.082 19.622 106.203 19.7357C106.346 19.8595 106.459 20.0164 106.532 20.1934C106.705 20.6885 106.689 21.2324 106.486 21.7158C106.387 21.9337 106.236 22.123 106.047 22.2669C105.853 22.3996 105.636 22.4945 105.407 22.5471C105.162 22.6048 104.91 22.633 104.658 22.6311C104.425 22.6305 104.193 22.6118 103.963 22.5751C103.74 22.5345 103.52 22.4784 103.305 22.407L103.405 21.2488Z" fill="#65C2C4"/>
<path d="M108.485 22.5379C108.247 22.4477 108.03 22.3058 107.85 22.122C107.67 21.9382 107.531 21.7168 107.443 21.4731C107.345 21.1946 107.295 20.9005 107.297 20.6045C107.295 20.3053 107.345 20.0083 107.443 19.7265C107.534 19.4793 107.678 19.2559 107.864 19.0727C108.041 18.8938 108.253 18.7539 108.485 18.6617C108.737 18.5661 109.003 18.5186 109.272 18.5216C109.537 18.5187 109.8 18.5662 110.049 18.6617C110.281 18.7539 110.493 18.8938 110.67 19.0727C110.856 19.2559 111 19.4793 111.091 19.7265C111.193 20.0071 111.243 20.305 111.237 20.6045C111.243 20.9009 111.193 21.1957 111.091 21.4731C110.998 21.7196 110.858 21.945 110.679 22.1363C110.498 22.3128 110.284 22.4495 110.049 22.5379C109.8 22.6334 109.537 22.6809 109.272 22.678C109.003 22.681 108.737 22.6335 108.485 22.5379V22.5379ZM109.838 21.4077C109.964 21.1595 110.03 20.884 110.03 20.6045C110.03 20.3249 109.964 20.0495 109.838 19.8012C109.782 19.6996 109.699 19.6159 109.599 19.5598C109.499 19.5037 109.386 19.4773 109.272 19.4836C109.156 19.4777 109.042 19.5041 108.94 19.5601C108.839 19.6161 108.754 19.6995 108.696 19.8012C108.575 20.0512 108.513 20.326 108.513 20.6045C108.513 20.883 108.575 21.1577 108.696 21.4077C108.756 21.507 108.841 21.5879 108.942 21.6421C109.044 21.6963 109.157 21.7218 109.272 21.7159C109.385 21.7221 109.497 21.6967 109.597 21.6424C109.697 21.5881 109.78 21.5069 109.838 21.4077V21.4077Z" fill="#65C2C4"/>
<path d="M112.994 22.538C112.759 22.4482 112.545 22.3117 112.363 22.1364C112.181 21.9476 112.041 21.7215 111.951 21.4732C111.849 21.1958 111.799 20.901 111.805 20.6046C111.799 20.3051 111.849 20.0072 111.951 19.7266C112.039 19.48 112.18 19.2566 112.363 19.0728C112.544 18.8944 112.759 18.7547 112.994 18.6618C113.495 18.4747 114.046 18.4747 114.548 18.6618C114.783 18.7547 114.997 18.8944 115.179 19.0728C115.365 19.254 115.506 19.4782 115.59 19.7266C115.692 20.0072 115.742 20.3051 115.736 20.6046C115.742 20.901 115.692 21.1958 115.59 21.4732C115.504 21.7233 115.363 21.9501 115.179 22.1364C115.001 22.3136 114.79 22.4505 114.557 22.538C114.305 22.6328 114.039 22.6803 113.771 22.6781C113.505 22.681 113.242 22.6335 112.994 22.538V22.538ZM114.347 21.4078C114.467 21.1578 114.529 20.8831 114.529 20.6046C114.529 20.3261 114.467 20.0513 114.347 19.8013C114.288 19.6996 114.204 19.6162 114.102 19.5602C114.001 19.5042 113.886 19.4778 113.771 19.4837C113.656 19.4763 113.542 19.5022 113.442 19.5584C113.342 19.6146 113.259 19.6989 113.204 19.8013C113.078 20.0496 113.012 20.325 113.012 20.6046C113.012 20.8841 113.078 21.1596 113.204 21.4078C113.261 21.5077 113.344 21.5894 113.445 21.6439C113.545 21.6983 113.658 21.7233 113.771 21.716C113.885 21.7219 113.999 21.6964 114.1 21.6422C114.201 21.588 114.286 21.5071 114.347 21.4078V21.4078Z" fill="#65C2C4"/>
<path d="M116.469 18.6148H117.529V19.3807C117.625 19.1268 117.798 18.9108 118.023 18.7642C118.247 18.6279 118.503 18.5568 118.763 18.5587C118.966 18.5558 119.166 18.6006 119.348 18.6895C119.508 18.77 119.646 18.8885 119.751 19.0351C119.856 19.1879 119.933 19.3587 119.979 19.5394C120.027 19.7381 120.052 19.9419 120.052 20.1466V22.631H118.882V20.707C118.901 20.4439 118.854 20.1802 118.745 19.9411C118.705 19.8684 118.647 19.8083 118.576 19.7672C118.505 19.726 118.424 19.7054 118.343 19.7075C117.858 19.7075 117.621 20.1185 117.621 20.9498V22.631H116.469V18.6148Z" fill="#65C2C4"/>
<path d="M124.551 22.1268C124.581 22.425 124.553 22.7264 124.468 23.0134C124.383 23.3004 124.244 23.5673 124.057 23.7986C123.622 24.1564 123.069 24.3302 122.512 24.2843C122.068 24.2837 121.627 24.1981 121.214 24.0321L121.278 22.9487C121.447 23.0516 121.628 23.1332 121.817 23.1916C122.013 23.2508 122.216 23.2792 122.42 23.2756C123.106 23.2756 123.453 22.8927 123.453 22.1268V21.912C123.342 22.1078 123.185 22.2722 122.996 22.3904C122.807 22.5086 122.592 22.5768 122.37 22.5888C122.149 22.6009 121.928 22.5564 121.728 22.4594C121.527 22.3624 121.354 22.216 121.223 22.0334C120.933 21.614 120.788 21.1078 120.811 20.595C120.787 20.0655 120.921 19.5409 121.195 19.0912C121.323 18.9047 121.494 18.7545 121.694 18.6548C121.894 18.5551 122.116 18.5092 122.338 18.5215C122.576 18.5215 122.807 18.6001 122.996 18.7456C123.206 18.8942 123.374 19.0974 123.481 19.3341V19.3341V18.6148H124.541L124.551 22.1268ZM122.201 21.2768C122.253 21.355 122.322 21.4194 122.403 21.4648C122.484 21.5103 122.575 21.5355 122.667 21.5383C122.774 21.5397 122.879 21.5139 122.973 21.4634C123.067 21.4128 123.147 21.339 123.207 21.2488C123.354 21.0332 123.428 20.7738 123.417 20.5109C123.421 20.2779 123.354 20.0493 123.225 19.8571C123.164 19.7652 123.08 19.6911 122.982 19.642C122.885 19.5929 122.776 19.5705 122.667 19.5769C122.57 19.5762 122.473 19.6016 122.388 19.6508C122.303 19.7 122.232 19.7711 122.183 19.8571C122.059 20.0716 121.999 20.3182 122.009 20.567C122.002 20.8091 122.069 21.0474 122.201 21.2488V21.2768Z" fill="#65C2C4"/>
<path d="M125.397 21.4917C125.566 21.5712 125.74 21.6368 125.918 21.6878C126.107 21.7362 126.3 21.7613 126.494 21.7625C126.614 21.7679 126.732 21.7455 126.842 21.6971C126.885 21.6721 126.92 21.6351 126.942 21.5903C126.965 21.5456 126.974 21.4951 126.97 21.445C126.972 21.3905 126.959 21.3364 126.934 21.2886C126.908 21.2409 126.87 21.2013 126.823 21.1741C126.678 21.0963 126.525 21.0337 126.366 20.9872L125.964 20.8472C125.848 20.8002 125.74 20.7339 125.644 20.651C125.539 20.5622 125.455 20.4505 125.397 20.3241C125.258 19.977 125.258 19.5878 125.397 19.2406C125.476 19.0779 125.592 18.9369 125.736 18.8297C125.877 18.7261 126.035 18.6472 126.202 18.5962C126.371 18.5472 126.547 18.5221 126.723 18.5215C126.931 18.5212 127.139 18.5399 127.345 18.5775C127.54 18.6138 127.73 18.6734 127.911 18.755L127.82 19.689C127.691 19.593 127.545 19.5232 127.39 19.4835C127.232 19.444 127.069 19.4221 126.906 19.4181C126.775 19.4139 126.644 19.4361 126.522 19.4835C126.476 19.4961 126.436 19.5242 126.407 19.5632C126.379 19.6023 126.365 19.6499 126.366 19.6984C126.364 19.7468 126.375 19.7949 126.4 19.8365C126.424 19.8782 126.46 19.9114 126.504 19.9319C126.649 20.006 126.802 20.0624 126.961 20.1L127.399 20.24C127.52 20.291 127.633 20.3569 127.738 20.4362C127.853 20.5298 127.946 20.6477 128.012 20.7818C128.09 20.971 128.13 21.1743 128.13 21.3796C128.13 21.5849 128.09 21.7881 128.012 21.9774C127.931 22.1443 127.808 22.2862 127.655 22.3883C127.504 22.4867 127.337 22.5564 127.162 22.5938C126.967 22.6396 126.767 22.6615 126.568 22.6592C126.342 22.68 126.116 22.68 125.891 22.6592C125.704 22.6324 125.52 22.5854 125.343 22.519L125.397 21.4917Z" fill="#65C2C4"/>
<path d="M130.182 17.9697H129.012V16.9609H130.182V17.9697ZM129.012 18.6142H130.182V22.5931H129.012V18.6142Z" fill="#65C2C4"/>
<path d="M131.34 16.8691H132.556V22.5947H131.386L131.34 16.8691Z" fill="#65C2C4"/>
<path d="M139.522 22.464C139.284 22.5294 139.074 22.5854 138.882 22.6228C138.654 22.6393 138.425 22.6393 138.196 22.6228C137.886 22.6212 137.578 22.5708 137.282 22.4734C136.974 22.3783 136.69 22.2157 136.45 21.997C136.186 21.767 135.979 21.4756 135.847 21.1471C135.685 20.7512 135.607 20.3245 135.618 19.8955C135.612 19.4854 135.677 19.0775 135.81 18.6906C135.917 18.3653 136.096 18.07 136.334 17.8283C136.572 17.5866 136.862 17.4053 137.182 17.299C137.512 17.1758 137.863 17.1156 138.215 17.1215C138.674 17.1348 139.128 17.2263 139.558 17.3923L139.467 18.5412C139.112 18.3068 138.701 18.1775 138.279 18.1676C138.079 18.1667 137.883 18.2114 137.703 18.2984C137.528 18.3839 137.375 18.5084 137.255 18.6626C137.125 18.8266 137.026 19.0134 136.962 19.2137C136.895 19.4344 136.861 19.6643 136.862 19.8955C136.841 20.3437 136.992 20.7824 137.282 21.119C137.424 21.2693 137.594 21.3876 137.783 21.4665C137.972 21.5453 138.175 21.5828 138.379 21.5767C138.571 21.5756 138.762 21.5473 138.946 21.4927C139.14 21.4456 139.33 21.3799 139.513 21.2965L139.522 22.464Z" fill="#65C2C4"/>
<path d="M140.182 23.1172C140.331 23.1738 140.489 23.2023 140.648 23.2013C140.783 23.2048 140.914 23.1545 141.014 23.0612C141.129 22.9521 141.206 22.8079 141.233 22.6502L139.871 18.6152H141.124L141.855 21.2118L142.55 18.6152H143.72L142.486 22.3513C142.464 22.4063 142.446 22.4624 142.431 22.5194C142.354 22.7739 142.263 23.0234 142.157 23.2666C142.086 23.4534 141.991 23.6293 141.873 23.7897C141.764 23.9552 141.617 24.0902 141.443 24.182C141.254 24.2807 141.043 24.3288 140.831 24.3221C140.585 24.3192 140.339 24.2879 140.1 24.2287L140.182 23.1172Z" fill="#65C2C4"/>
<path d="M144.286 16.8691H145.457V19.1294C145.579 18.9294 145.753 18.7678 145.959 18.6624C146.166 18.566 146.391 18.5182 146.618 18.5224C146.835 18.5178 147.048 18.5796 147.23 18.6998C147.414 18.815 147.571 18.9715 147.687 19.1575C147.811 19.3576 147.906 19.5746 147.971 19.802C148.032 20.0397 148.063 20.2846 148.062 20.5305C148.067 20.811 148.033 21.0909 147.962 21.3618C147.902 21.6069 147.803 21.8404 147.669 22.0529C147.539 22.2406 147.371 22.3968 147.175 22.5106C146.974 22.6248 146.747 22.6829 146.517 22.6788C146.258 22.6815 146.005 22.5997 145.795 22.4452C145.595 22.3097 145.442 22.1137 145.356 21.8848V21.8848V22.5947H144.277L144.286 16.8691ZM146.691 19.8674C146.636 19.7767 146.56 19.7022 146.468 19.6514C146.377 19.6006 146.274 19.5752 146.17 19.5778C146.066 19.5795 145.965 19.6067 145.874 19.6572C145.784 19.7076 145.706 19.7797 145.649 19.8674C145.513 20.0914 145.447 20.3515 145.457 20.6146C145.447 20.87 145.518 21.1219 145.658 21.3338C145.713 21.4224 145.788 21.496 145.877 21.5481C145.967 21.6001 146.067 21.6292 146.17 21.6326C146.273 21.6326 146.375 21.605 146.465 21.5526C146.554 21.5002 146.629 21.4248 146.682 21.3338C146.82 21.1008 146.887 20.8307 146.874 20.5585C146.88 20.3148 146.816 20.0746 146.691 19.8674Z" fill="#65C2C4"/>
<path d="M149.828 21.0057C149.837 21.1182 149.868 21.2277 149.92 21.3274C149.972 21.427 150.043 21.5146 150.13 21.5848C150.338 21.7144 150.581 21.7763 150.824 21.7623C151 21.763 151.175 21.741 151.345 21.6969C151.525 21.6406 151.697 21.5621 151.857 21.4634V22.3974C151.466 22.5733 151.042 22.6594 150.614 22.6496C150.349 22.6519 150.086 22.6044 149.837 22.5095C149.605 22.4172 149.393 22.2774 149.215 22.0985C149.032 21.9112 148.892 21.6848 148.804 21.4354C148.698 21.1589 148.645 20.8639 148.649 20.5668C148.645 20.2713 148.691 19.9775 148.786 19.6981C148.863 19.4521 148.99 19.2259 149.161 19.035C149.328 18.8565 149.529 18.716 149.753 18.6227C149.977 18.5293 150.217 18.4852 150.459 18.4932C150.731 18.4833 151.002 18.5444 151.245 18.6707C151.458 18.7861 151.64 18.9528 151.775 19.1564C151.919 19.3679 152.021 19.6057 152.077 19.8569C152.141 20.1417 152.172 20.4333 152.168 20.7255V20.9777L149.828 21.0057ZM151.117 20.2212C151.125 20.0105 151.071 19.8023 150.962 19.6234C150.903 19.551 150.83 19.4927 150.747 19.4527C150.664 19.4127 150.573 19.3919 150.482 19.3919C150.39 19.3919 150.299 19.4127 150.216 19.4527C150.133 19.4927 150.06 19.551 150.002 19.6234C149.884 19.7999 149.821 20.0079 149.819 20.2212H151.117Z" fill="#65C2C4"/>
<path d="M155.359 19.7173C155.232 19.6775 155.098 19.6617 154.966 19.6706C154.842 19.6634 154.718 19.6898 154.607 19.7473C154.496 19.8047 154.402 19.891 154.335 19.9975C154.17 20.2785 154.093 20.6046 154.115 20.9315V22.6128H152.945V18.6339H154.006V19.3811C154.092 19.1518 154.226 18.9446 154.399 18.774C154.568 18.6305 154.782 18.5543 155.002 18.5592C155.133 18.548 155.265 18.548 155.395 18.5592L155.359 19.7173Z" fill="#65C2C4"/>
<path d="M162.103 20.5673C162.125 20.8548 162.089 21.1438 161.998 21.4168C161.906 21.6897 161.762 21.9409 161.573 22.1551C161.161 22.4931 160.648 22.6774 160.119 22.6774C159.591 22.6774 159.078 22.4931 158.666 22.1551C158.475 21.9416 158.329 21.6908 158.236 21.4178C158.144 21.1449 158.106 20.8555 158.126 20.5673V17.2608H159.333V20.3151C159.323 20.4862 159.323 20.6577 159.333 20.8288C159.358 20.968 159.401 21.1031 159.461 21.2304C159.518 21.3441 159.603 21.4407 159.708 21.5106C159.822 21.5779 159.951 21.6132 160.083 21.6132C160.214 21.6132 160.344 21.5779 160.458 21.5106C160.562 21.4407 160.647 21.3441 160.704 21.2304C160.766 21.1042 160.806 20.9685 160.823 20.8288C160.838 20.6579 160.838 20.486 160.823 20.3151V17.2422H162.03L162.103 20.5673Z" fill="#65C2C4"/>
<path d="M162.992 18.6148H164.053V19.3807C164.149 19.1268 164.322 18.9108 164.546 18.7642C164.77 18.6266 165.026 18.5554 165.287 18.5587C165.489 18.5558 165.689 18.6006 165.872 18.6895C166.031 18.77 166.169 18.8885 166.274 19.0351C166.379 19.1879 166.457 19.3587 166.503 19.5394C166.551 19.7381 166.575 19.9419 166.576 20.1466V22.631H165.47V20.707C165.489 20.4439 165.442 20.1802 165.333 19.9411C165.293 19.8684 165.234 19.8083 165.163 19.7672C165.092 19.726 165.012 19.7054 164.93 19.7075C164.446 19.7075 164.208 20.1185 164.208 20.9498V22.631H163.038L162.992 18.6148Z" fill="#65C2C4"/>
<path d="M168.787 17.9697H167.617V16.9609H168.787V17.9697ZM167.617 18.6142H168.787V22.5931H167.617V18.6142Z" fill="#65C2C4"/>
<path d="M169.52 18.6152H170.772L171.476 21.4173L172.189 18.6152H173.35L172.098 22.5942H170.772L169.52 18.6152Z" fill="#65C2C4"/>
<path d="M174.965 21.0058C174.97 21.1181 174.999 21.2279 175.05 21.3278C175.1 21.4277 175.171 21.5154 175.258 21.5848C175.466 21.7145 175.709 21.7763 175.952 21.7623C176.128 21.7637 176.303 21.7417 176.473 21.6969C176.655 21.6389 176.83 21.5606 176.995 21.4634V22.3974C176.603 22.5713 176.179 22.6573 175.751 22.6496C175.483 22.6518 175.217 22.6043 174.965 22.5095C174.727 22.4171 174.512 22.2733 174.334 22.0879C174.155 21.9025 174.018 21.68 173.932 21.4354C173.829 21.1583 173.779 20.8633 173.786 20.5668C173.779 20.2719 173.823 19.9781 173.914 19.6982C173.997 19.4532 174.128 19.2278 174.298 19.035C174.464 18.8561 174.666 18.7152 174.89 18.6219C175.114 18.5285 175.354 18.4846 175.596 18.4932C175.865 18.4833 176.133 18.5444 176.373 18.6707C176.588 18.7858 176.773 18.9525 176.912 19.1564C177.056 19.3669 177.155 19.6054 177.205 19.8569C177.272 20.1413 177.306 20.4329 177.305 20.7256V20.9778L174.965 21.0058ZM176.245 20.2212C176.258 20.01 176.203 19.8003 176.09 19.6234C176.032 19.5576 175.962 19.5049 175.883 19.4689C175.804 19.4328 175.719 19.4142 175.632 19.4142C175.546 19.4142 175.461 19.4328 175.382 19.4689C175.303 19.5049 175.233 19.5576 175.175 19.6234C175.058 19.8 174.995 20.0079 174.993 20.2212H176.245Z" fill="#65C2C4"/>
<path d="M180.488 19.7174C180.361 19.6767 180.227 19.6609 180.095 19.6707C179.971 19.6635 179.847 19.6899 179.736 19.7473C179.625 19.8047 179.531 19.8911 179.464 19.9976C179.299 20.2785 179.222 20.6046 179.244 20.9316V22.6129H178.074V18.6339H179.18V19.3811C179.266 19.1493 179.404 18.9413 179.583 18.774C179.75 18.6327 179.96 18.5566 180.177 18.5592C180.311 18.548 180.445 18.548 180.579 18.5592L180.488 19.7174Z" fill="#65C2C4"/>
<path d="M181.054 21.4917C181.222 21.5713 181.397 21.6368 181.575 21.6878C181.764 21.7356 181.957 21.7607 182.151 21.7625C182.27 21.7689 182.389 21.7465 182.499 21.6971C182.541 21.6722 182.576 21.6351 182.599 21.5903C182.622 21.5456 182.631 21.4951 182.627 21.445C182.63 21.3903 182.618 21.3359 182.592 21.2879C182.566 21.24 182.527 21.2005 182.48 21.1741C182.338 21.096 182.188 21.0334 182.032 20.9873L181.621 20.8472C181.506 20.798 181.398 20.7319 181.301 20.651C181.195 20.565 181.113 20.4524 181.063 20.3241C180.988 20.1539 180.949 19.9692 180.949 19.7824C180.949 19.5956 180.988 19.4109 181.063 19.2407C181.142 19.0804 181.254 18.94 181.392 18.8297C181.536 18.7296 181.693 18.651 181.859 18.5962C182.028 18.5485 182.204 18.5234 182.38 18.5215C182.588 18.5208 182.796 18.5395 183.001 18.5775C183.197 18.6125 183.387 18.6721 183.568 18.755L183.477 19.689C183.349 19.5913 183.203 19.5213 183.047 19.4835C182.891 19.444 182.732 19.4221 182.572 19.4181C182.441 19.4115 182.31 19.4338 182.188 19.4835C182.141 19.4945 182.1 19.5222 182.071 19.5616C182.043 19.601 182.029 19.6495 182.032 19.6984C182.03 19.7468 182.041 19.7949 182.066 19.8366C182.09 19.8782 182.126 19.9114 182.169 19.9319C182.312 20.0063 182.462 20.0627 182.617 20.1C182.767 20.1359 182.913 20.1826 183.056 20.2401C183.177 20.289 183.291 20.3551 183.394 20.4362C183.514 20.5245 183.609 20.6438 183.669 20.7818C183.747 20.971 183.787 21.1743 183.787 21.3796C183.787 21.5849 183.747 21.7881 183.669 21.9774C183.595 22.1465 183.474 22.2895 183.321 22.3883C183.167 22.4868 182.997 22.5565 182.819 22.5938C182.624 22.6401 182.424 22.6621 182.224 22.6592C181.999 22.68 181.773 22.68 181.548 22.6592C181.361 22.6302 181.177 22.5833 180.999 22.5191L181.054 21.4917Z" fill="#65C2C4"/>
<path d="M185.838 17.9697H184.668V16.9609H185.838V17.9697ZM184.668 18.6142H185.838V22.5931H184.668V18.6142Z" fill="#65C2C4"/>
<path d="M186.566 18.6142H187.252V17.7269L188.404 17.3066V18.6142H189.236V19.5482H188.422V21.0147C188.406 21.2043 188.441 21.3948 188.523 21.5658C188.563 21.6255 188.618 21.6728 188.682 21.7025C188.747 21.7321 188.818 21.743 188.889 21.7339C188.986 21.7439 189.084 21.7439 189.181 21.7339H189.236V22.6679H189.099C188.901 22.6783 188.703 22.6783 188.505 22.6679C188.288 22.6758 188.071 22.6442 187.865 22.5745C187.71 22.5158 187.575 22.4158 187.472 22.2849C187.369 22.15 187.298 21.9938 187.261 21.8272C187.222 21.6149 187.203 21.3989 187.206 21.1828V19.5669H186.539L186.566 18.6142Z" fill="#65C2C4"/>
<path d="M189.914 23.1178C190.063 23.1744 190.221 23.2029 190.38 23.2019C190.515 23.2035 190.645 23.1535 190.746 23.0618C190.86 22.9528 190.938 22.8085 190.965 22.6508L189.594 18.5879H190.855L191.587 21.1844L192.281 18.5879H193.452L192.217 22.324L192.163 22.4921C192.053 22.8096 191.971 23.0618 191.888 23.2393C191.818 23.426 191.722 23.602 191.605 23.7623C191.494 23.9259 191.347 24.0603 191.175 24.1546C190.983 24.2533 190.769 24.3015 190.554 24.2947C190.31 24.2913 190.068 24.2599 189.831 24.2013L189.914 23.1178Z" fill="#65C2C4"/>
</g>
<defs>
<clipPath id="clip0_434_1706">
<rect width="194" height="31" fill="white"/>
</clipPath>
</defs>
</svg>
