<svg width="164" height="81" viewBox="0 0 164 81" fill="none" xmlns="http://www.w3.org/2000/svg">
<g clip-path="url(#clip0_201_2706)">
<path d="M131.101 9.58623L132.676 41.483H135.095C136.385 41.483 137.117 40.6621 137.117 39.3126V25.2952H141.136V40.8985C141.136 43.9457 138.792 45.1273 135.095 45.1024H132.868L133.079 49.238H136.026C141.85 49.238 145.23 46.5887 145.23 41.7256V25.2952H149.237V41.7193C149.237 48.6285 145.72 52.9755 136.026 52.9755H133.234L133.396 56.085L160.067 61.8002L163.789 0.898438L131.101 9.58623Z" fill="url(#paint0_linear_201_2706)"/>
<path d="M157.369 6.63855C157.417 7.89098 157.211 9.14025 156.762 10.31C156.313 11.4797 155.631 12.5455 154.757 13.4421C154.555 13.6306 154.372 13.8389 154.212 14.064C154.919 14.2443 155.713 14.3873 156.469 14.5304C157.226 14.6734 157.995 14.6858 158.808 14.7605C158.864 14.8289 159.05 14.8661 159.012 15.0216C158.926 15.2766 158.591 15.3326 158.392 15.5254C157.052 16.5515 155.291 16.7194 153.765 17.2667C153.515 17.947 153.23 18.6133 152.909 19.263C151.698 20.7548 150.153 21.9394 148.4 22.7206C148.237 22.7324 148.073 22.7324 147.91 22.7206C147.717 22.3972 148.052 22.0987 148.077 21.7878C148.219 20.4071 148.456 19.0379 148.784 17.6896C148.892 17.4165 148.979 17.1359 149.045 16.85C146.855 16.85 144.784 16.6946 142.557 16.6199C142.364 16.7381 141.602 16.3961 141.602 16.3339V16.2716C142.48 15.5909 143.451 15.0401 144.486 14.6361C144.957 14.4495 145.416 14.2194 145.888 14.0515C146.204 13.9396 147.364 13.7841 147.538 13.4918L147.587 13.4047C147.587 13.4047 147.587 11.7194 147.587 11.5391C147.624 10.2144 147.463 8.77166 147.823 7.52166C147.817 7.29685 147.889 7.07702 148.028 6.89977C148.362 6.89977 148.58 7.35371 148.902 7.47809C149.793 8.82745 150.559 10.2555 151.191 11.7443C153.132 10.5005 154.695 8.67217 156.488 7.14232L157.065 6.43335C157.276 6.3836 157.263 6.55149 157.369 6.63855Z" fill="#F7CD00"/>
<path d="M112.3 60.2954V51.0977H109.627V60.2954H106.997V51.0977H104.324V60.2954H98.7412C98.3442 60.2954 98.7412 60.9173 98.9707 61.135C99.1047 61.2953 99.2703 61.4261 99.4571 61.5193C99.6439 61.6124 99.8478 61.6657 100.056 61.676H119.998V60.2954H112.3Z" fill="#1D1D1B"/>
<path d="M93.4382 56.0664H78.0928C77.6958 56.0664 78.0928 56.6884 78.3223 56.906C78.4567 57.0658 78.6224 57.1962 78.8091 57.2892C78.9958 57.3823 79.1995 57.436 79.4077 57.4471H90.7834V64.6797C90.7834 65.7617 91.8565 65.2393 92.2287 64.9844C92.6119 64.785 92.9314 64.4816 93.1508 64.1088C93.3701 63.736 93.4805 63.3088 93.4692 62.8762L93.4382 56.0664Z" fill="#1D1D1B"/>
<path d="M88.6065 43.1933H83.1234V40.7368H80.878V43.1933H75.1777C74.7808 43.1933 75.1777 43.8151 75.4072 44.0266C75.5412 44.1869 75.7068 44.3177 75.8936 44.4108C76.0804 44.504 76.2844 44.5573 76.4927 44.5676H79.3645C77.6278 45.3823 76.3004 47.0117 76.3004 48.8711C76.3004 51.5639 78.8993 53.7467 81.9324 53.7467C84.9655 53.7467 87.5707 51.5639 87.5707 48.8711C87.5707 47.0054 86.2433 45.3823 84.5066 44.5676H88.6065V43.1933ZM84.9345 48.8711C84.9345 50.7368 83.5948 52.304 81.9324 52.304C80.2701 52.304 78.9366 50.7679 78.9366 48.8711C78.9366 46.9744 80.2763 45.4445 81.9324 45.4445C83.5885 45.4445 84.9345 46.9806 84.9345 48.8711V48.8711Z" fill="#1D1D1B"/>
<path d="M115.352 58.5538L114.732 58.0501C115.705 56.1098 115.817 51.3212 115.736 44.667H103.008C102.79 44.6475 102.578 44.5821 102.387 44.4749C102.196 44.3678 102.029 44.2213 101.898 44.0451C101.694 43.815 101.278 43.2056 101.694 43.2056H118.348C118.478 51.3275 117.554 56.3088 115.352 58.5538Z" fill="#1D1D1B"/>
<path d="M52.2214 46.7753C52.2333 46.5444 52.1952 46.3135 52.1095 46.0988C52.0238 45.8841 51.8927 45.6905 51.7251 45.5316C51.4582 45.2553 51.1183 45.0611 50.7451 44.9718L50.9498 44.4744C51.322 44.5303 52.5687 44.5676 53.0339 44.58H60.1546V46.0726H54.8823V55.1895C54.8823 55.7306 55.0684 56.1099 55.4592 56.1099C56.5092 56.0849 57.5516 55.9239 58.5605 55.6311C59.9091 55.3516 61.2391 54.9881 62.5426 54.5428V43.7343C62.5545 43.5039 62.517 43.2736 62.4324 43.059C62.3479 42.8444 62.2184 42.6505 62.0526 42.4905C61.7816 42.1878 61.4279 41.9716 61.0354 41.8686L61.2338 41.3649L65.0981 42.2231C65.0981 42.4097 65.0547 42.733 65.0113 43.1808C64.9678 43.6286 64.9492 44.039 64.9492 44.4246V49.636H67.604V41.3525C67.6181 41.1213 67.5809 40.8898 67.4951 40.6747C67.4093 40.4596 67.277 40.2664 67.1078 40.1087C66.8367 39.806 66.483 39.5898 66.0905 39.4868L66.289 38.9893L70.2277 39.8475C70.2277 40.0154 70.1905 40.3201 70.1595 40.7803C70.1285 41.2405 70.1037 41.6385 70.1037 42.0241V62.7828C70.1037 63.5664 70.1037 65.6746 69.0368 66.4208C68.6646 66.682 67.5978 67.2044 67.5978 66.1224V51.197H64.943V62.2418C64.9805 62.6629 64.8942 63.0858 64.6947 63.4582C64.4951 63.8307 64.1912 64.1363 63.8203 64.3375C63.4544 64.6049 62.5798 65.1211 62.5798 64.0453V55.6497C61.1933 56.241 59.7748 56.7538 58.331 57.1858C57.0267 57.6514 55.6582 57.9116 54.2744 57.9569C53.7345 58.0035 53.1951 57.8606 52.7486 57.5527C52.4356 57.2019 52.273 56.7417 52.2958 56.2716V56.2716L52.2214 46.7753Z" fill="#1D1D1B"/>
<path d="M90.8142 41.3339C90.8283 41.1027 90.7912 40.8712 90.7054 40.6562C90.6196 40.4411 90.4873 40.2478 90.318 40.0901C90.0482 39.786 89.694 39.5695 89.3008 39.4682L89.5055 38.9707L93.5806 39.8289C93.5806 39.9968 93.5372 40.3016 93.5062 40.7618C93.4752 41.2219 93.4566 41.62 93.4566 42.0055V46.564H96.1609V48.0504H93.4566V52.2046C93.4566 52.8949 93.3139 53.5478 92.216 54.2941C91.8439 54.5615 90.7708 55.0777 90.7708 54.0018L90.8142 41.3339Z" fill="#1D1D1B"/>
<path d="M38.1967 43.585C36.4041 46.6945 28.5329 50.3201 26.8086 50.743L27.1249 51.5391C30.2401 50.7515 33.2555 49.6101 36.1126 48.1373C37.8804 48.5353 40.6716 49.8413 43.3759 51.5391L45.0693 49.5304C42.6881 48.3559 40.1287 47.5866 37.4958 47.2542C38.1719 46.8127 41.5151 44.4806 42.706 42.7268C42.9231 42.2666 42.1726 42.1982 41.7942 42.1982H28.4089C28.0615 42.1982 28.4089 42.7517 28.5888 42.9569C28.7686 43.1622 29.0788 43.5788 29.544 43.5788H38.2277L38.1967 43.585Z" fill="#1D1D1B"/>
<path d="M47.0169 53.355H24.6873C24.2718 53.3177 24.7183 53.9769 24.9354 54.2008C25.0786 54.362 25.2532 54.4921 25.4484 54.583C25.6436 54.6739 25.8553 54.7238 26.0705 54.7295H34.8473V64.6299C34.8473 65.7617 35.8956 65.2145 36.2863 64.9409C36.6784 64.7295 37.0004 64.408 37.2131 64.0159C37.4257 63.6238 37.5197 63.178 37.4834 62.7332V54.7295H47.0169V53.355Z" fill="#1D1D1B"/>
<path d="M1.88039 43.187C1.48342 43.187 1.88039 43.8089 2.10989 44.0203C2.24386 44.1806 2.40944 44.3115 2.59623 44.4046C2.78303 44.4977 2.987 44.5511 3.19535 44.5614H9.27397C7.41188 48.6895 4.48485 52.2446 0.794922 54.8599L1.09885 55.6124C3.95901 54.295 6.51002 52.3879 8.58548 50.0154C10.4463 51.1285 11.755 53.8897 12.0962 55.146L14.3912 53.5602C13.1105 51.6726 11.3819 50.1339 9.36081 49.0825C10.7983 47.4864 11.9861 45.6811 12.8839 43.7281C13.0886 43.2741 12.7661 43.2057 12.3815 43.2057L1.88039 43.187Z" fill="#1D1D1B"/>
<path d="M17.5789 41.3339C17.593 41.1027 17.5559 40.8712 17.4701 40.6562C17.3843 40.4411 17.252 40.2478 17.0827 40.0901C16.8117 39.7874 16.458 39.5712 16.0655 39.4682L16.264 38.9707L20.3453 39.8538C20.3453 40.0197 20.3205 40.3306 20.2709 40.7867C20.2399 41.2406 20.2213 41.6449 20.2213 42.0304V56.8936C20.2381 57.3212 20.134 57.7447 19.9211 58.1156C19.7082 58.4864 19.3951 58.7893 19.018 58.9894C18.6458 59.2568 17.5727 59.773 17.5727 58.6909V49.2755H14.7629C14.5539 49.2655 14.3492 49.2117 14.1622 49.1174C13.9752 49.0231 13.8101 48.8905 13.6775 48.7282C13.4666 48.5292 13.0572 47.8949 13.4418 47.8949H17.5789V44.4558V41.3339Z" fill="#1D1D1B"/>
<path d="M7.35134 58.8211C7.36537 58.5905 7.32876 58.3595 7.24409 58.1446C7.15943 57.9297 7.02877 57.7361 6.86133 57.5773C6.58701 57.2756 6.23164 57.0596 5.83789 56.9554L6.04258 56.4517L10.1177 57.3161C10.1177 57.4778 10.0743 57.7949 10.0433 58.2427C10.0123 58.6905 9.99368 59.1071 9.99368 59.4865V62.5524C9.9803 62.6692 9.9966 62.7875 10.0411 62.8962C10.0855 63.0049 10.1567 63.1006 10.248 63.1743C10.4035 63.2918 10.5929 63.3552 10.7876 63.3547H20.2157V64.7291H9.97507C9.35948 64.7578 8.74519 64.6494 8.1763 64.4119C7.90294 64.2605 7.67767 64.0349 7.52628 63.761C7.37489 63.4871 7.30352 63.1761 7.32033 62.8634L7.35134 58.8211Z" fill="#1D1D1B"/>
<path d="M9.12478 73.4731V73.6846C8.43009 73.7405 8.35565 73.8089 8.35565 74.8288V78.1497C8.35565 79.182 8.24401 79.835 7.57412 80.4196C7.31057 80.6399 7.00432 80.8029 6.67473 80.8985L6.58789 80.6808C6.83092 80.5865 7.04459 80.4291 7.20698 80.2247C7.36938 80.0204 7.47468 79.7765 7.51209 79.5179C7.59557 78.9498 7.62879 78.3754 7.61133 77.8015V74.8288C7.61133 73.8089 7.5369 73.7405 6.77397 73.6846V73.4731H9.12478Z" fill="#1D1D1B"/>
<path d="M10.8927 74.8288C10.8927 73.8089 10.8245 73.7405 10.1112 73.6846V73.4731H14.0065C14.0065 73.6286 14.0623 74.3127 14.1057 74.8413H13.8824C13.8542 74.5304 13.7451 74.2323 13.5661 73.9768C13.4234 73.8151 13.1257 73.7467 12.5861 73.7467H11.91C11.6619 73.7467 11.6433 73.7467 11.6433 74.039V76.1784H12.5426C13.3056 76.1784 13.3304 76.1223 13.4234 75.432H13.6467V77.2977H13.4234C13.38 76.9495 13.349 76.7629 13.2373 76.6758C13.1257 76.5888 12.921 76.5515 12.5426 76.5515H11.6619V78.2181C11.6619 78.7529 11.7115 79.0328 11.8852 79.1448C12.1737 79.2544 12.4843 79.2928 12.7908 79.2567C13.1863 79.3172 13.5897 79.2189 13.9134 78.9831C14.1128 78.7061 14.258 78.3938 14.3414 78.0626H14.5585C14.5151 78.3238 14.3228 79.3065 14.2484 79.5366H10.043V79.3189C10.8431 79.2629 10.9113 79.2007 10.9113 78.1746L10.8927 74.8288Z" fill="#1D1D1B"/>
<path d="M20.5323 76.7878C20.5323 78.5291 19.6577 79.406 18.5908 79.406C17.2945 79.406 16.3951 78.1622 16.3951 76.2965C16.3951 74.4308 17.2821 73.6224 18.3365 73.6224C19.6081 73.6411 20.5323 74.7542 20.5323 76.7878ZM18.566 73.3301C18.1517 73.3387 17.7433 73.4306 17.3649 73.6002C16.9866 73.7698 16.646 74.0136 16.3632 74.3174C16.0805 74.6212 15.8613 74.9787 15.7187 75.3688C15.5761 75.759 15.5129 76.1738 15.5329 76.5888C15.5329 78.3612 16.7238 79.6982 18.4047 79.6982C20.0857 79.6982 21.3944 78.3737 21.3944 76.4209C21.4179 76.0302 21.3626 75.6388 21.232 75.2699C21.1014 74.9011 20.8981 74.5623 20.6342 74.2739C20.3702 73.9855 20.0511 73.7534 19.6958 73.5912C19.3405 73.4291 18.9563 73.3402 18.566 73.3301Z" fill="#1D1D1B"/>
<path d="M27.7889 79.6545H27.5594L23.7013 74.6793V77.0736C23.6894 77.6694 23.7122 78.2653 23.7696 78.8584C23.813 79.188 24.0549 79.3186 24.6441 79.3435V79.5612H22.5042V79.3435C22.9942 79.3435 23.2299 79.188 23.2734 78.8584C23.3274 78.2651 23.3501 77.6693 23.3416 77.0736V75.0338C23.3416 74.3559 23.3416 74.2067 23.1741 73.9953C23.0776 73.8845 22.9568 73.7976 22.8212 73.7415C22.6856 73.6854 22.5389 73.6615 22.3926 73.6719V73.4604H23.6889L27.4105 78.193V75.948C27.4193 75.3523 27.3965 74.7565 27.3423 74.1632C27.2927 73.8336 27.057 73.703 26.4677 73.6719V73.4604H28.6015V73.6719C28.1114 73.6719 27.8819 73.8336 27.8385 74.1632C27.7776 74.7561 27.7527 75.3521 27.7641 75.948L27.7889 79.6545Z" fill="#1D1D1B"/>
<path d="M31.9939 73.4731V73.6846C31.2992 73.7405 31.2248 73.8089 31.2248 74.8288V78.1497C31.2248 79.182 31.1131 79.835 30.4433 80.4196C30.1797 80.6399 29.8735 80.8029 29.5439 80.8985L29.457 80.6808C29.7001 80.5865 29.9137 80.4291 30.0761 80.2247C30.2385 80.0204 30.3438 79.7765 30.3812 79.5179C30.4647 78.9498 30.4979 78.3754 30.4805 77.8015V74.8288C30.4805 73.8089 30.406 73.7405 29.6431 73.6846V73.4731H31.9939Z" fill="#1D1D1B"/>
<path d="M35.2323 73.473V73.6844C34.5252 73.7404 34.4508 73.8088 34.4508 74.8287V76.7939C34.4023 77.4242 34.5312 78.0555 34.8229 78.616C34.965 78.8221 35.158 78.9877 35.3831 79.0967C35.6081 79.2057 35.8575 79.2544 36.1069 79.2379C36.3671 79.2446 36.6245 79.1833 36.854 79.0601C37.0834 78.9369 37.277 78.756 37.4156 78.5351C37.7173 77.8841 37.8536 77.1685 37.8126 76.4518V75.9419C37.8245 75.3441 37.8017 74.746 37.7444 74.1509C37.701 73.8213 37.4591 73.6906 36.8698 73.6595V73.4481H39.0097V73.6595C38.5197 73.6595 38.284 73.8213 38.2406 74.1509C38.1867 74.7463 38.1639 75.3441 38.1724 75.9419V76.5638C38.2627 77.4348 38.0211 78.3078 37.4963 79.0078C37.2813 79.2269 37.0243 79.4 36.7407 79.5165C36.4571 79.633 36.1528 79.6906 35.8464 79.6857C35.3194 79.7031 34.8032 79.5335 34.3887 79.2068C33.9173 78.8026 33.7064 78.162 33.7064 77.0924V74.7976C33.7064 73.7777 33.632 73.7093 32.8877 73.6533V73.4419L35.2323 73.473Z" fill="#1D1D1B"/>
<path d="M44.6473 73.473V73.6844C43.934 73.7404 43.8596 73.8088 43.8596 74.8287V76.7939C43.8096 77.425 43.9409 78.0573 44.238 78.616C44.3782 78.8225 44.57 78.9886 44.7942 79.0977C45.0183 79.2068 45.2671 79.2551 45.5157 79.2379C45.776 79.2452 46.0337 79.1842 46.2633 79.0609C46.4928 78.9377 46.6863 78.7564 46.8245 78.5351C47.1282 77.8847 47.2667 77.169 47.2277 76.4518V75.9419C47.2387 75.3439 47.2138 74.7458 47.1532 74.1509C47.1098 73.8213 46.8679 73.6906 46.2849 73.6595V73.4481H48.4186V73.6595C47.9286 73.6595 47.6991 73.8213 47.6494 74.1509C47.5955 74.7463 47.5727 75.3441 47.5812 75.9419V76.5638C47.6715 77.4348 47.43 78.3078 46.9051 79.0078C46.4957 79.4042 45.959 79.642 45.3909 79.6784C44.8228 79.7149 44.2603 79.5477 43.8038 79.2068C43.3324 78.8026 43.1215 78.162 43.1215 77.0924V74.7976C43.1215 73.7777 43.0471 73.7093 42.3027 73.6533V73.4419L44.6473 73.473Z" fill="#1D1D1B"/>
<path d="M54.5842 79.6545H54.3547L50.4904 74.6793V77.0736C50.4792 77.6695 50.5041 78.2655 50.5648 78.8584C50.6083 79.188 50.8502 79.3186 51.4332 79.3435V79.5612H49.2995V79.3435C49.7895 79.3435 50.019 79.188 50.0624 78.8584C50.1232 78.2655 50.148 77.6695 50.1368 77.0736V75.0338C50.1368 74.3559 50.1368 74.2067 49.9694 73.9953C49.8713 73.8847 49.7494 73.7981 49.6129 73.742C49.4764 73.686 49.3288 73.662 49.1816 73.6719V73.4604H50.4842L54.2058 78.193V75.948C54.2172 75.3521 54.1923 74.7561 54.1314 74.1632C54.088 73.8336 53.8461 73.703 53.263 73.6719V73.4604H55.3967V73.6719C54.9067 73.6719 54.6772 73.8336 54.6276 74.1632C54.5734 74.7565 54.5506 75.3523 54.5594 75.948L54.5842 79.6545Z" fill="#1D1D1B"/>
<path d="M57.9032 78.2119C57.9032 79.2381 57.9776 79.3002 58.7034 79.3562V79.5739H56.3525V79.3562C57.0845 79.3002 57.1589 79.2381 57.1589 78.2119V74.8288C57.1589 73.8089 57.0845 73.7405 56.3525 73.6846V73.4731H58.7034V73.6846C57.9776 73.7405 57.9032 73.8089 57.9032 74.8288V78.2119Z" fill="#1D1D1B"/>
<path d="M62.2567 79.6548C61.6365 77.9757 60.7929 75.656 60.3959 74.6113C60.1106 73.8339 59.9866 73.7654 59.4531 73.7095V73.498H61.6116V73.7095L61.3263 73.7468C60.9976 73.7966 60.948 73.8898 61.041 74.1821C61.2767 74.8724 61.959 76.7257 62.6103 78.4794C63.0693 77.1859 63.8508 75.0528 64.0307 74.4433C64.2106 73.8339 64.1113 73.7841 63.7144 73.7406H63.4476V73.5292H65.3953V73.7406C64.775 73.809 64.7192 73.8712 64.3904 74.6983C64.2726 74.9906 63.1499 77.8078 62.5296 79.6735L62.2567 79.6548Z" fill="#1D1D1B"/>
<path d="M66.9777 74.8288C66.9777 73.8089 66.9095 73.7405 66.1962 73.6846V73.4731H70.0915C70.0915 73.6286 70.1473 74.3127 70.1907 74.8413H69.9674C69.9392 74.5304 69.8301 74.2323 69.6511 73.9768C69.5084 73.8151 69.2107 73.7467 68.6711 73.7467H67.995C67.7469 73.7467 67.7283 73.7467 67.7283 74.039V76.1784H68.6277C69.3906 76.1784 69.4154 76.1223 69.5084 75.432H69.7317V77.2977H69.5084C69.465 76.9495 69.434 76.7629 69.3224 76.6758C69.2107 76.5888 69.006 76.5515 68.6277 76.5515H67.7283V78.2181C67.7283 78.7529 67.7779 79.0328 67.9516 79.1448C68.2401 79.2544 68.5507 79.2928 68.8572 79.2567C69.2527 79.3172 69.6561 79.2189 69.9798 78.9831C70.1792 78.7061 70.3244 78.3938 70.4078 78.0626H70.6311C70.5815 78.3238 70.3892 79.3065 70.3148 79.5366H66.1094V79.3189C66.9095 79.2629 66.9777 79.2007 66.9777 78.1746V74.8288Z" fill="#1D1D1B"/>
<path d="M73.0993 74.0578C73.0993 73.865 73.0993 73.8214 73.1799 73.8028C73.3431 73.7564 73.5132 73.7395 73.6823 73.753C73.8642 73.7426 74.0462 73.7714 74.216 73.8376C74.3858 73.9038 74.5394 74.0059 74.6665 74.1368C74.7935 74.2677 74.891 74.4245 74.9524 74.5964C75.0137 74.7684 75.0375 74.9516 75.0221 75.1336C75.0348 75.3664 74.9951 75.599 74.906 75.8143C74.8168 76.0296 74.6806 76.222 74.5073 76.3774C74.2527 76.568 73.9365 76.6567 73.6203 76.6262H73.0993V74.0578ZM73.0993 76.8998H73.5831C73.7 76.8916 73.8166 76.9202 73.9167 76.9814C74.0167 77.0427 74.0952 77.1338 74.1413 77.2418C74.3894 77.6834 74.7616 78.3737 75.0407 78.7966C75.2026 79.0919 75.448 79.3327 75.7459 79.4887C76.0439 79.6447 76.3812 79.709 76.7154 79.6734H76.8395V79.4931C76.5679 79.4261 76.3299 79.2626 76.1696 79.0329C75.8943 78.7093 75.6454 78.364 75.4253 78.0005C75.1586 77.5901 74.805 76.9434 74.6313 76.6573C74.9727 76.5397 75.269 76.3183 75.4791 76.0241C75.6892 75.7299 75.8026 75.3774 75.8036 75.0155C75.8145 74.7825 75.7667 74.5505 75.6649 74.3408C75.563 74.1311 75.4102 73.9503 75.2206 73.8152C74.793 73.5719 74.3029 73.4615 73.8126 73.498H71.5548V73.7095C72.2619 73.7654 72.3363 73.8339 72.3363 74.8538V78.2368C72.3363 79.263 72.2619 79.3252 71.5176 79.3812V79.5988H73.8808V79.3812C73.1551 79.3252 73.0807 79.263 73.0807 78.2368L73.0993 76.8998Z" fill="#1D1D1B"/>
<path d="M77.7883 77.9194C77.931 78.3609 78.4086 79.4057 79.3328 79.4057C79.4877 79.4096 79.6417 79.3799 79.7842 79.3187C79.9266 79.2576 80.0543 79.1664 80.1585 79.0513C80.2626 78.9362 80.3409 78.8 80.3878 78.6519C80.4348 78.5038 80.4494 78.3473 80.4307 78.1931C80.4307 77.3971 79.8538 77.0674 79.2832 76.7751C78.9917 76.6259 77.7883 76.1843 77.7883 75.0587C77.7847 74.8189 77.8315 74.5809 77.9256 74.3604C78.0197 74.1398 78.159 73.9416 78.3345 73.7786C78.51 73.6155 78.7177 73.4913 78.9442 73.414C79.1707 73.3367 79.4109 73.308 79.6491 73.3298C79.8995 73.3338 80.1481 73.3736 80.3873 73.448C80.4963 73.491 80.6082 73.5263 80.7222 73.5537C80.7594 73.8833 80.8152 74.2565 80.8835 74.7975H80.6602C80.5113 74.244 80.2632 73.5911 79.4506 73.5911C79.3173 73.5888 79.185 73.6147 79.0623 73.6671C78.9397 73.7194 78.8294 73.7971 78.7387 73.8951C78.648 73.9931 78.5789 74.1092 78.5359 74.2357C78.4929 74.3623 78.477 74.4965 78.4892 74.6297C78.4892 75.3262 78.9606 75.6371 79.6367 75.9543C80.3128 76.2714 81.1626 76.6134 81.1626 77.7764C81.1631 78.0317 81.1114 78.2843 81.0106 78.5188C80.9098 78.7532 80.7621 78.9643 80.5766 79.1392C80.3911 79.3141 80.1718 79.449 79.9323 79.5355C79.6927 79.622 79.438 79.6582 79.1839 79.6421C78.897 79.6388 78.6124 79.5906 78.3404 79.499C78.1731 79.4429 78.0094 79.3765 77.8504 79.3001C77.7821 79.0575 77.6829 78.3921 77.5898 77.8821L77.7883 77.9194Z" fill="#1D1D1B"/>
<path d="M83.7616 78.2119C83.7616 79.2381 83.8298 79.3002 84.5617 79.3562V79.5739H82.2109V79.3562C82.9429 79.3002 83.0111 79.2381 83.0111 78.2119V74.8288C83.0111 73.8089 82.9429 73.7405 82.2109 73.6846V73.4731H84.5617V73.6846C83.8298 73.7405 83.7616 73.8089 83.7616 74.8288V78.2119Z" fill="#1D1D1B"/>
<path d="M88.4076 78.2119C88.4076 79.2381 88.4759 79.3002 89.3504 79.3562V79.5738H86.7515V79.3562C87.5889 79.3002 87.6571 79.2381 87.6571 78.2119V73.7779H87.2415C86.4476 73.7779 86.2057 73.9022 86.0754 74.0826C85.9257 74.3318 85.8207 74.6054 85.7653 74.891H85.542C85.5792 74.3126 85.6288 73.7157 85.6474 73.2368H85.7715C85.8122 73.3221 85.8799 73.3915 85.964 73.4342C86.0482 73.4769 86.144 73.4906 86.2367 73.4731H89.8839C90.1134 73.4731 90.1568 73.4109 90.2994 73.2368H90.4235C90.4235 73.6286 90.4793 74.3127 90.5227 74.8599H90.2994C90.2677 74.5498 90.1589 74.2526 89.9831 73.9955C89.828 73.8152 89.5551 73.7467 89.0031 73.7467H88.3828L88.4076 78.2119Z" fill="#1D1D1B"/>
<path d="M94.1577 78.212C94.1577 79.2381 94.2321 79.3003 95.0881 79.3563V79.5739H92.5202V79.3563C93.339 79.3003 93.4134 79.2381 93.4134 78.212V77.1672C93.4073 76.9625 93.3379 76.7648 93.2149 76.6013C92.8179 75.8737 92.4706 75.1958 92.086 74.4993C91.7015 73.8028 91.6704 73.7779 91.1494 73.7095V73.498H93.2955V73.7095L92.8862 73.7655C92.6629 73.8028 92.6008 73.8898 92.7559 74.1821C93.1529 74.9719 93.5623 75.7493 93.9964 76.5204C94.3686 75.7679 94.7656 74.9968 95.0943 74.2257C95.2494 73.8899 95.175 73.7966 94.84 73.7593L94.4803 73.7095V73.498H96.4403V73.7095C95.82 73.7654 95.82 73.8898 95.4293 74.5117C95.0385 75.1336 94.6849 75.8177 94.3066 76.564C94.2006 76.7124 94.1461 76.8915 94.1515 77.0739L94.1577 78.212Z" fill="#1D1D1B"/>
</g>
<defs>
<linearGradient id="paint0_linear_201_2706" x1="144.635" y1="-4.00337" x2="144.635" y2="59.2993" gradientUnits="userSpaceOnUse">
<stop stop-color="#00ABE8"/>
<stop offset="1" stop-color="#004984"/>
</linearGradient>
<clipPath id="clip0_201_2706">
<rect width="163" height="80" fill="white" transform="translate(0.794922 0.898438)"/>
</clipPath>
</defs>
</svg>
