<svg width="187" height="29" viewBox="0 0 187 29" fill="none" xmlns="http://www.w3.org/2000/svg">
<path d="M21.9453 14.423H23.8361V12.2243H25.3274V14.423C26.1265 14.423 26.7901 14.423 27.3181 14.3644C27.8461 14.3057 28.317 14.2911 28.7451 14.2398L28.8522 15.5296C28.5525 15.5736 28.1957 15.6102 27.789 15.6396C27.3823 15.6689 26.9043 15.6909 26.362 15.7055L24.4498 15.7495H21.9596L21.9453 14.423ZM28.0459 9.63728V11.2643C28.0459 11.4035 28.0459 11.5721 28.0459 11.77C28.0459 11.9678 28.0459 12.173 27.9959 12.3856C27.946 12.5981 27.9531 12.8253 27.9246 13.0452C27.8945 13.2524 27.854 13.4578 27.8033 13.6608L26.3763 13.4776C26.4619 13.0452 26.5261 12.6567 26.5618 12.2976C26.5928 12.008 26.6095 11.7169 26.6117 11.4255V10.9565H22.616V9.63728H28.0459ZM27.261 20.909C26.7669 20.9159 26.2737 20.8643 25.7912 20.7551C25.4011 20.6728 25.0257 20.5295 24.6781 20.33C24.3911 20.1671 24.1464 19.9359 23.9646 19.6557C23.8064 19.3992 23.7222 19.1019 23.722 18.7983V18.4025C23.723 18.099 23.8071 17.8019 23.9646 17.545C24.1491 17.2672 24.3932 17.0365 24.6781 16.8708C25.0257 16.6713 25.4011 16.5279 25.7912 16.4457C26.7633 16.2406 27.7659 16.2406 28.738 16.4457C29.1277 16.5291 29.503 16.6724 29.8511 16.8708C30.1369 17.0352 30.3813 17.2662 30.5646 17.545C30.7221 17.8019 30.8062 18.099 30.8072 18.4025V18.7983C30.8069 19.1019 30.7228 19.3992 30.5646 19.6557C30.3834 19.9365 30.1386 20.1678 29.8511 20.33C29.503 20.5283 29.1277 20.6716 28.738 20.7551C28.2531 20.8648 27.7575 20.9165 27.261 20.909ZM27.261 19.6704C27.5535 19.6742 27.8454 19.6447 28.1315 19.5824C28.3554 19.54 28.5719 19.4634 28.7737 19.3553C28.9241 19.2787 29.0596 19.1743 29.1733 19.0474C29.2527 18.9502 29.3002 18.8296 29.3088 18.703V18.5051C29.3017 18.3781 29.2541 18.2571 29.1733 18.1607C29.0618 18.0294 28.9259 17.9223 28.7737 17.8455C28.5705 17.7405 28.3545 17.6641 28.1315 17.6183C27.5568 17.501 26.9652 17.501 26.3905 17.6183C26.1678 17.6653 25.952 17.7416 25.7484 17.8455C25.5971 17.9204 25.4632 18.0279 25.3559 18.1607C25.2701 18.2544 25.2195 18.3765 25.2132 18.5051V18.7103C25.2213 18.8385 25.2716 18.96 25.3559 19.0548C25.4655 19.1832 25.5989 19.2878 25.7484 19.3626C25.9507 19.4697 26.1669 19.5462 26.3905 19.5898C26.677 19.6493 26.9689 19.6763 27.261 19.6704V19.6704ZM30.7644 11.9825H32.1914V13.3383H30.7644V16.0573H29.2874V9.13159H30.7644V11.9825Z" fill="#00823A"/>
<path d="M42.1876 15.5371V16.8562H37.9064V20.5646H36.4081V16.8562H32.127V15.5371H42.1876ZM33.3613 9.76929H40.9532V11.0885H37.9279V11.1838C37.9245 11.4448 37.9992 11.7006 38.1419 11.9166C38.3297 12.1652 38.575 12.3617 38.8554 12.4883C39.2407 12.6862 39.6617 12.884 40.1398 13.0892L41.5097 13.6682L40.9318 14.8848C40.4965 14.7016 40.0684 14.5183 39.6474 14.3278C39.2265 14.1372 38.8269 13.954 38.4487 13.7781C38.1579 13.6446 37.8766 13.4903 37.6068 13.3164C37.4409 13.2196 37.2973 13.087 37.1858 12.928V12.928C37.0697 13.0975 36.9155 13.2358 36.7363 13.3311C36.4561 13.5062 36.1653 13.6628 35.8658 13.8001C35.4876 13.9833 35.0952 14.1666 34.6671 14.3571C34.239 14.5477 33.8251 14.7309 33.3827 14.9068L32.8048 13.6682C33.2543 13.485 33.711 13.2944 34.1747 13.0892C34.6385 12.884 35.0666 12.6788 35.4591 12.4883C35.7391 12.3609 35.9841 12.1645 36.1726 11.9166C36.3121 11.6991 36.3865 11.4443 36.3867 11.1838V11.0885H33.3613V9.76929Z" fill="#00823A"/>
<path d="M42.8014 9.84983H48.5095V11.1837H46.4546V12.1144C46.444 12.251 46.444 12.3882 46.4546 12.5248C46.4753 12.6496 46.5137 12.7706 46.5688 12.8839C46.639 13.004 46.7202 13.1169 46.8114 13.2211C46.926 13.3534 47.0553 13.4715 47.1967 13.5728C47.4535 13.7707 47.7104 13.9759 47.9958 14.1811C48.2812 14.3864 48.5737 14.5842 48.8734 14.7821L48.0814 15.8887C47.8246 15.7202 47.5677 15.537 47.3251 15.3538L46.6116 14.8407C46.407 14.6893 46.2072 14.528 46.0122 14.357C45.908 14.2724 45.8208 14.1679 45.7553 14.0492V14.0492C45.6871 14.1828 45.5952 14.3021 45.4842 14.401C45.2781 14.6035 45.0613 14.7944 44.8349 14.9726L44.0643 15.6102C43.8074 15.8155 43.5149 16.028 43.2152 16.2405L42.3447 15.0972C42.7229 14.8261 43.0582 14.5622 43.4079 14.2984C43.7575 14.0346 44.0429 13.7781 44.2926 13.5655C44.4905 13.3895 44.6529 13.1754 44.7707 12.9352C44.8905 12.6873 44.9493 12.4131 44.9419 12.1364V11.1763H42.8014V9.84983ZM45.9195 19.1281H51.6276V20.4619H44.4139V16.607H45.9195V19.1281ZM49.9223 13.375H48.1599V12.0411H49.9223V9.10962H51.4207V17.2446H49.9294L49.9223 13.375Z" fill="#00823A"/>
<path d="M52.9261 9.7399H54.4316V13.4483C55.2379 13.4483 56.0013 13.4482 56.7077 13.3896C57.4141 13.331 58.1348 13.2797 58.8055 13.1917L58.9482 14.4963C58.62 14.5402 58.2347 14.5842 57.885 14.6209C57.5354 14.6575 57.0788 14.6941 56.5936 14.7161C56.1084 14.7381 55.5875 14.7601 54.9881 14.7674H52.9189L52.9261 9.7399ZM54.3531 15.9913H61.1886V20.5645H54.3531V15.9913ZM55.8301 19.2746H59.7116V17.2885H55.8301V19.2746ZM61.1886 11.5281H62.6157V12.8473H61.1886V15.4563H59.6974V9.10229H61.1886V11.5281Z" fill="#00823A"/>
<path d="M62.7793 13.331H65.2909C66.0044 13.331 66.6466 13.331 67.2103 13.287C67.2749 12.9606 67.3178 12.63 67.3387 12.2976C67.3672 11.9703 67.3815 11.6332 67.3815 11.2863V10.9711H63.6284V9.65927H68.8585V11.0371C68.8647 11.3992 68.8505 11.7614 68.8157 12.1217C68.7729 12.5028 68.7515 12.8546 68.7015 13.2137L69.2152 13.1698L69.729 13.1258L69.836 14.423C69.4578 14.4743 69.0297 14.5183 68.5517 14.5476C68.0736 14.5769 67.4957 14.5915 66.8464 14.6135V16.5776H65.3622V14.6355H64.1493H62.7864L62.7793 13.331ZM66.0686 19.1574H72.0693V20.4912H64.5631V17.164H66.0686V19.1574ZM68.2092 15.1925H70.3497V9.13159H71.8909V17.9261H70.3997V16.4604H68.2591L68.2092 15.1925Z" fill="#00823A"/>
<path d="M75.8012 15.2438C75.3961 15.2519 74.9935 15.1772 74.6168 15.0239C74.2884 14.8911 73.988 14.6945 73.732 14.445C73.4977 14.2115 73.3109 13.9325 73.1826 13.6241C73.0602 13.3145 72.9972 12.9836 72.9971 12.6494V12.1144C72.9973 11.785 73.0603 11.4588 73.1826 11.1543C73.3072 10.8418 73.4944 10.5597 73.732 10.3262C73.988 10.0766 74.2884 9.88003 74.6168 9.74721C75.3744 9.44669 76.2138 9.44669 76.9714 9.74721C77.2998 9.88003 77.6002 10.0766 77.8561 10.3262C78.0981 10.5573 78.2881 10.84 78.4127 11.1543C78.5339 11.4594 78.5992 11.7849 78.6053 12.1144V12.6494C78.6027 12.984 78.5373 13.315 78.4127 13.6241C78.2862 13.9353 78.0964 14.2152 77.8561 14.445C77.6002 14.6945 77.2998 14.8911 76.9714 15.0239C76.5994 15.1764 76.2016 15.2512 75.8012 15.2438V15.2438ZM75.8012 10.8465C75.6004 10.8444 75.4014 10.8843 75.2161 10.9638C75.0536 11.0377 74.906 11.1421 74.7809 11.2716C74.6643 11.3909 74.5721 11.5329 74.5097 11.6894C74.4469 11.8346 74.4152 11.9921 74.417 12.151V12.6201C74.4153 12.7814 74.4469 12.9413 74.5097 13.0891C74.5738 13.2446 74.6658 13.3863 74.7809 13.5069C74.9077 13.6324 75.055 13.7341 75.2161 13.8074C75.5917 13.9615 76.0107 13.9615 76.3863 13.8074C76.5452 13.7341 76.6901 13.6323 76.8144 13.5069C76.9294 13.3863 77.0214 13.2446 77.0855 13.0891C77.1473 12.9406 77.1812 12.7815 77.1854 12.6201V12.1144C77.1811 11.9554 77.1472 11.7986 77.0855 11.6527C77.0232 11.4963 76.931 11.3542 76.8144 11.235C76.6922 11.1051 76.5469 11.0006 76.3863 10.9272C76.2009 10.8482 76.0019 10.8083 75.8012 10.8099V10.8465ZM74.6524 16.3211H81.9375V20.7184H80.4533V17.6476H74.6596L74.6524 16.3211ZM80.4605 10.4581V9.10229H81.9446V15.7788H80.4533V14.357H78.9692V13.0671H80.4533V11.7919H78.9692V10.4874L80.4605 10.4581Z" fill="#00823A"/>
<path d="M90.5357 10.2163V11.5501H87.7672V16.1892H88.1097C88.5878 16.1892 89.073 16.1892 89.5368 16.1526C90.0314 16.1246 90.5244 16.0708 91.0137 15.9913L91.1707 17.3252C90.6638 17.4179 90.1512 17.4742 89.6367 17.4937C89.0944 17.4937 88.5807 17.5377 88.0812 17.5377H86.2617V10.2089L90.5357 10.2163ZM93.1043 13.0305H94.0819V9.13159H95.5089V20.5645H94.0819V14.3717H93.1186V20.0148H91.6916V9.36612H93.1186L93.1043 13.0305Z" fill="#00823A"/>
<path d="M100.125 10.2163H102.501V11.5209H96.208V10.2163H98.634V8.98511H100.125V10.2163ZM99.4117 16.1893C99.0354 16.1937 98.6604 16.1419 98.2986 16.0354C98.0048 15.9486 97.7291 15.807 97.4852 15.6176C97.2715 15.4512 97.0961 15.2386 96.9715 14.9947C96.8568 14.7682 96.7957 14.5171 96.7931 14.2618V13.8661C96.7957 13.6108 96.8568 13.3597 96.9715 13.1332C97.0943 12.8902 97.2702 12.6795 97.4852 12.5176C97.7287 12.3259 98.0044 12.1818 98.2986 12.0925C99.0257 11.8946 99.7905 11.8946 100.518 12.0925C100.813 12.1834 101.091 12.3273 101.338 12.5176C101.551 12.6815 101.727 12.8917 101.852 13.1332C101.967 13.3597 102.028 13.6108 102.03 13.8661V14.2618C102.028 14.5171 101.967 14.7682 101.852 14.9947C101.725 15.237 101.55 15.4492 101.338 15.6176C101.091 15.8057 100.813 15.9472 100.518 16.0354C100.157 16.1373 99.7854 16.1891 99.4117 16.1893V16.1893ZM97.8348 16.8122H104.849V20.7258H103.365V18.1168H97.8348V16.8122ZM99.4117 13.1039C99.0906 13.0748 98.7704 13.1688 98.5127 13.3677C98.4224 13.425 98.3485 13.506 98.2986 13.6022C98.2442 13.699 98.2102 13.8063 98.1987 13.9174V14.1592C98.2136 14.2672 98.2475 14.3715 98.2986 14.467C98.3548 14.5564 98.4275 14.6336 98.5127 14.6942C98.7818 14.8683 99.0937 14.9599 99.4117 14.9581C99.7296 14.9591 100.041 14.8676 100.311 14.6942C100.395 14.6346 100.465 14.5571 100.518 14.467C100.575 14.3744 100.609 14.2687 100.618 14.1592V13.9174C100.608 13.8068 100.577 13.6994 100.525 13.6022C100.471 13.5088 100.398 13.4286 100.311 13.3677C100.05 13.1734 99.7334 13.0752 99.4117 13.0892V13.1039ZM104.849 12.0046H106.276V13.3604H104.849V16.2919H103.365V9.12436H104.856L104.849 12.0046Z" fill="#00823A"/>
<path d="M106.418 14.1884H108.815C109.529 14.1884 110.121 14.1885 110.671 14.1518C111.22 14.1152 111.698 14.1518 112.148 14.0859C112.597 14.0199 112.989 14.0346 113.375 13.9906L113.482 15.2805C113.104 15.3318 112.668 15.3757 112.197 15.3977C111.727 15.4197 111.141 15.449 110.485 15.4637V16.9661H108.994V15.5003H106.418V14.1884ZM109.9 13.7048C109.529 13.7112 109.158 13.6618 108.801 13.5582C108.491 13.47 108.198 13.3314 107.931 13.1478C107.689 12.9863 107.488 12.7677 107.346 12.5102C107.204 12.2613 107.13 11.9777 107.131 11.6894V11.3815C107.131 11.0956 107.205 10.8147 107.346 10.568C107.488 10.3106 107.689 10.0919 107.931 9.93043C108.196 9.74165 108.49 9.60042 108.801 9.5127C109.517 9.32216 110.269 9.32216 110.984 9.5127C111.292 9.59806 111.583 9.73419 111.848 9.91578C112.086 10.0796 112.284 10.2979 112.426 10.5534C112.571 10.7982 112.645 11.0803 112.64 11.3669V11.7113C112.645 12.0002 112.571 12.2848 112.426 12.5322C112.282 12.7862 112.084 13.004 111.848 13.1698C111.576 13.3535 111.277 13.492 110.963 13.5802C110.608 13.6838 110.24 13.7332 109.871 13.7268L109.9 13.7048ZM109.707 19.1574H115.701V20.4912H108.202V17.3985H109.707V19.1574ZM109.9 10.6047C109.557 10.5862 109.215 10.6675 108.915 10.8392C108.807 10.8958 108.715 10.982 108.651 11.0884C108.582 11.1924 108.542 11.3142 108.537 11.4402V11.6087C108.541 11.7349 108.581 11.8571 108.651 11.9605C108.715 12.0669 108.807 12.1531 108.915 12.2097C109.221 12.3662 109.558 12.4489 109.9 12.4515C110.24 12.4488 110.574 12.3661 110.877 12.2097C110.989 12.1552 111.083 12.0687 111.149 11.9605C111.217 11.8564 111.254 11.7342 111.256 11.6087V11.4402C111.253 11.3149 111.216 11.193 111.149 11.0884C111.083 10.9802 110.989 10.8937 110.877 10.8392C110.578 10.6653 110.237 10.5815 109.893 10.5973L109.9 10.6047ZM111.862 15.8667H114.003V9.13159H115.487V17.9261H114.003V17.076H111.862V15.8667Z" fill="#00823A"/>
<path d="M116.571 14.6941C117.435 14.357 118.105 14.0639 118.605 13.822C119.013 13.6269 119.397 13.3808 119.746 13.0891C119.981 12.9144 120.16 12.6721 120.26 12.3929C120.347 12.121 120.388 11.8361 120.381 11.5501V11.0664H117.042V9.74721H121.837V11.6967C121.838 11.9949 121.807 12.2923 121.744 12.5835C121.686 12.8424 121.587 13.0899 121.452 13.3163C121.298 13.5601 121.11 13.7798 120.895 13.9686C120.622 14.1988 120.328 14.4025 120.018 14.5769C119.612 14.8065 119.195 15.0144 118.769 15.1998C118.284 15.4197 117.72 15.6542 117.085 15.8961L116.571 14.6941ZM118.277 16.3871H125.562V20.7038H124.07V17.7063H118.269L118.277 16.3871ZM124.085 10.7219V9.13159H125.562V15.8741H124.085V14.4083H122.237V13.1038H124.085V11.9971H122.429V10.7219H124.085Z" fill="#00823A"/>
<path d="M128.751 17.8237V14.0273H130.178V17.8237H131.234V14.0273H132.661V17.8237H136.621V19.1282H126.604V17.8237H128.751ZM133.567 16.4239C133.639 16.0428 133.696 15.691 133.732 15.3099C133.767 14.9288 133.803 14.577 133.817 14.2619C133.831 13.9467 133.817 13.573 133.86 13.2212C133.903 12.8694 133.86 12.4883 133.86 12.1512V11.4183H127.795V10.0845H135.323V11.7408C135.323 12.6642 135.323 13.5143 135.258 14.2985C135.216 15.0725 135.13 15.8433 135.002 16.6071L133.567 16.4239Z" fill="#00823A"/>
<path d="M139.39 16.9002V15.6909H136.771V14.4084H146.846V15.6909H144.235V16.9002H145.484V20.7038H143.999V18.1827H138.084V16.9002H139.39ZM141.809 13.8661C141.33 13.8687 140.852 13.822 140.382 13.7268C139.984 13.645 139.599 13.5042 139.24 13.3091C138.955 13.1412 138.71 12.908 138.527 12.6275C138.353 12.3476 138.264 12.0213 138.27 11.6894V11.4256C138.265 11.0938 138.354 10.7677 138.527 10.4875C138.71 10.207 138.955 9.97374 139.24 9.80591C139.599 9.61074 139.984 9.47003 140.382 9.38816C141.344 9.20492 142.331 9.20492 143.293 9.38816C143.692 9.46764 144.077 9.60847 144.435 9.80591C144.732 9.97175 144.988 10.2048 145.184 10.4875C145.357 10.7677 145.446 11.0938 145.441 11.4256V11.6894C145.447 12.0213 145.358 12.3476 145.184 12.6275C144.99 12.9123 144.733 13.1459 144.435 13.3091C144.077 13.5065 143.692 13.6473 143.293 13.7268C142.823 13.8227 142.345 13.8693 141.866 13.8661H141.809ZM141.809 10.5021C141.274 10.4797 140.74 10.5695 140.239 10.766C139.868 10.9419 139.683 11.1691 139.683 11.4549V11.6821C139.683 11.9655 139.868 12.1926 140.239 12.3636C141.258 12.7103 142.359 12.7103 143.379 12.3636C143.75 12.1975 143.935 11.9703 143.935 11.6821V11.4549C143.935 11.1691 143.75 10.9419 143.379 10.766C142.881 10.5699 142.349 10.4801 141.816 10.5021H141.809ZM140.853 16.9148H142.772V15.6983H140.86L140.853 16.9148Z" fill="#00823A"/>
<path d="M147.481 10.121H153.339V11.4548H151.198V12.7593C151.196 12.9749 151.208 13.1904 151.234 13.4043C151.257 13.5888 151.297 13.7705 151.355 13.9466C151.419 14.1305 151.506 14.3053 151.612 14.4669C151.744 14.6611 151.889 14.8449 152.048 15.0166C152.304 15.3024 152.568 15.6029 152.875 15.9034C153.182 16.2039 153.467 16.497 153.767 16.7755L152.804 17.7942C152.547 17.545 152.29 17.2959 152.048 17.0613L151.334 16.3285C151.113 16.0866 150.913 15.8741 150.756 15.6835C150.636 15.5529 150.535 15.4047 150.456 15.2438V15.2438C150.359 15.419 150.244 15.5835 150.114 15.7348C149.943 15.9547 149.757 16.1672 149.557 16.3798C149.358 16.5923 149.108 16.8635 148.844 17.1126C148.58 17.3618 148.33 17.6476 147.988 17.9555L147.003 16.9221C147.609 16.3578 148.195 15.7642 148.751 15.1412C148.906 14.9614 149.051 14.773 149.186 14.5769C149.299 14.4092 149.395 14.2299 149.472 14.0419C149.543 13.858 149.594 13.6661 149.622 13.4702C149.639 13.2434 149.639 13.0155 149.622 12.7887V11.4841H147.402L147.481 10.121ZM156.2 20.5645H154.702V9.13159H156.2V20.5645Z" fill="#00823A"/>
<path d="M157.271 14.1884H159.654C160.367 14.1884 160.967 14.1885 161.509 14.1518C162.051 14.1152 162.536 14.1518 162.986 14.0859C163.435 14.0199 163.828 14.0346 164.213 13.9906L164.32 15.2805C163.942 15.3318 163.514 15.3757 163.036 15.3977C162.558 15.4197 161.98 15.449 161.323 15.4637V16.9661H159.846V15.5003H157.271V14.1884ZM160.745 13.7048C160.377 13.7183 160.01 13.6764 159.654 13.5802C159.342 13.492 159.046 13.3534 158.776 13.1698C158.539 13.0023 158.34 12.7849 158.191 12.5322C158.049 12.2833 157.975 11.9997 157.977 11.7113V11.3815C157.976 11.0956 158.05 10.8147 158.191 10.568C158.338 10.3137 158.538 10.0959 158.776 9.93043C159.044 9.74152 159.34 9.60031 159.654 9.5127C160.367 9.32213 161.116 9.32213 161.83 9.5127C162.145 9.60033 162.444 9.74151 162.715 9.93043C162.953 10.0959 163.153 10.3137 163.3 10.568C163.442 10.8138 163.514 11.0958 163.507 11.3815V11.726C163.515 12.0142 163.443 12.2988 163.3 12.5468C163.151 12.7996 162.952 13.0169 162.715 13.1844C162.443 13.3681 162.144 13.5066 161.83 13.5948C161.477 13.6983 161.112 13.7477 160.745 13.7414V13.7048ZM160.553 19.1574H166.561V20.4912H159.054V17.3985H160.553V19.1574ZM160.745 10.6047C160.402 10.5862 160.061 10.6675 159.761 10.8392C159.652 10.8958 159.561 10.982 159.497 11.0884C159.427 11.1924 159.388 11.3142 159.383 11.4402V11.6087C159.387 11.7349 159.426 11.8571 159.497 11.9605C159.561 12.0669 159.652 12.1531 159.761 12.2097C160.067 12.3662 160.403 12.4489 160.745 12.4515C161.085 12.4499 161.42 12.3671 161.723 12.2097C161.835 12.1552 161.929 12.0687 161.994 11.9605C162.062 11.8564 162.099 11.7342 162.101 11.6087V11.4402C162.098 11.3149 162.061 11.193 161.994 11.0884C161.929 10.9802 161.835 10.8937 161.723 10.8392C161.425 10.6684 161.087 10.5848 160.745 10.5973V10.6047ZM162.708 15.8594H164.884V9.13159H166.368V17.9261H164.884V17.076H162.708V15.8594Z" fill="#00823A"/>
<path d="M171.841 15.7788L171.235 15.2291L170.671 14.6941C170.522 14.5568 170.381 14.41 170.25 14.2544C170.166 14.1634 170.096 14.0596 170.043 13.9466C169.993 14.0685 169.926 14.1821 169.843 14.2837C169.758 14.401 169.629 14.5476 169.465 14.7308C169.301 14.914 169.101 15.1046 168.851 15.3611C168.602 15.6176 168.323 15.8961 168.024 16.1672L167.061 15.1339C167.317 14.8993 167.574 14.6648 167.81 14.401C168.045 14.1372 168.302 13.9026 168.523 13.6681C168.656 13.5285 168.775 13.3764 168.88 13.2137C168.975 13.0741 169.049 12.921 169.101 12.7593C169.161 12.6043 169.199 12.4415 169.215 12.2756C169.238 12.0909 169.25 11.9049 169.251 11.7187V9.72522H170.678V11.6454C170.678 11.8506 170.678 12.0338 170.678 12.195C170.694 12.3548 170.727 12.5122 170.778 12.6641C170.835 12.8176 170.907 12.9649 170.992 13.1038C171.095 13.2593 171.212 13.4041 171.342 13.5362C171.757 13.9783 172.195 14.3967 172.655 14.7894L171.841 15.7788ZM170.871 19.1134H176.814V20.4472H169.365V16.6583H170.864L170.871 19.1134ZM173.104 12.9059H171.784V11.5501H173.083V9.27818H174.51V16.9734H173.083L173.104 12.9059ZM176.672 17.2446H175.245V9.13159H176.672V17.2446Z" fill="#00823A"/>
<path d="M178.063 10.0184H183.2V11.3376H179.554V13.1771H182.822V14.4963H179.554V16.4384H180.346C180.912 16.4384 181.519 16.4237 182.165 16.3944C182.767 16.371 183.367 16.3147 183.964 16.2259L184.113 17.5304C183.842 17.5817 183.535 17.6183 183.207 17.6476C182.879 17.677 182.494 17.699 182.18 17.7136C181.866 17.7283 181.466 17.7136 181.088 17.7136H178.034L178.063 10.0184ZM183.428 13.1331H185.226V9.13159H186.725V20.5645H185.226V14.4596H183.428V13.1331Z" fill="#00823A"/>
<path d="M0.789062 27.6954H2.2161V16.0793L0.789062 15.7568V27.6954Z" fill="url(#paint0_linear_201_2795)"/>
<path d="M2.67969 27.6954H4.42781V4.89554L2.67969 4.05273V27.6954Z" fill="url(#paint1_linear_201_2795)"/>
<path d="M5.04845 27.6955H8.65885V25.0351L7.23181 24.9545V3.41522L13.0042 6.48598V12.1145L14.3456 12.6422V5.39398L5.03418 0L5.04845 27.6955Z" fill="url(#paint2_linear_201_2795)"/>
<path d="M9.27246 11.4988V27.6954H19.6185V15.2365L9.27246 11.4988ZM18.2628 25.592L11.3417 25.1889V14.7674L18.2628 16.9147V25.592Z" fill="url(#paint3_linear_201_2795)"/>
<path d="M25.1274 22.9758C25.3879 22.9762 25.6472 23.0132 25.898 23.0858C26.1582 23.1698 26.4004 23.3041 26.6115 23.4815L26.1977 24.0898C26.0487 23.9539 25.8737 23.8515 25.6839 23.7893C25.5058 23.7322 25.321 23.7001 25.1345 23.694C24.9801 23.6943 24.8264 23.7165 24.6779 23.76C24.5405 23.7967 24.4149 23.87 24.314 23.9725C24.2012 24.0922 24.118 24.238 24.0714 24.3976C24.0074 24.6236 23.9785 24.8586 23.9858 25.0938V25.5556C23.977 25.7674 24.0085 25.979 24.0785 26.1785C24.1294 26.3352 24.2178 26.4763 24.3354 26.5889C24.4383 26.6957 24.566 26.7739 24.7064 26.8161C24.8635 26.866 25.0272 26.8908 25.1916 26.8894C25.3176 26.8969 25.4438 26.8969 25.5698 26.8894C25.6822 26.8664 25.7921 26.832 25.898 26.7868V25.7168H24.9918V25.0352H26.6615V27.2339C26.5608 27.3039 26.4531 27.3629 26.3404 27.4097C26.218 27.4622 26.0915 27.5039 25.9622 27.5343C25.8288 27.5718 25.6929 27.5987 25.5555 27.6149C25.4225 27.6258 25.2889 27.6258 25.1559 27.6149C24.8951 27.6186 24.6353 27.5815 24.3853 27.505C24.1585 27.4423 23.9487 27.3271 23.7719 27.1683C23.595 27.0096 23.4559 26.8114 23.365 26.5889C23.2647 26.3125 23.2163 26.0191 23.2223 25.7241V24.9253C23.2156 24.6279 23.264 24.3319 23.365 24.0532C23.4513 23.8218 23.588 23.6137 23.7646 23.4449C23.94 23.2846 24.1468 23.1646 24.3711 23.0931C24.6169 23.0202 24.8715 22.9831 25.1274 22.9831V22.9758Z" fill="#00823A"/>
<path d="M27.9172 27.5417L27.0967 24.1045H27.903L28.3667 26.7722L28.9661 24.0972H29.6796L30.2504 26.7722L30.7784 24.0972H31.5348L30.7214 27.5344H29.8366L29.3014 25.1159L28.7592 27.5344L27.9172 27.5417Z" fill="#00823A"/>
<path d="M33.1325 27.593C32.8361 27.6077 32.5439 27.5171 32.3049 27.3365C32.2095 27.2493 32.134 27.1418 32.0837 27.0213C32.0286 26.9 32.004 26.7665 32.0123 26.6329V26.435C32.0116 26.3003 32.0333 26.1665 32.0765 26.0393C32.1184 25.92 32.1897 25.814 32.2835 25.7315C32.3983 25.6347 32.5322 25.5647 32.6759 25.5263C32.8664 25.4727 33.0635 25.448 33.261 25.453H34.0173V25.3064C34.0353 25.2268 34.0353 25.1441 34.0173 25.0646C34.0038 25.0034 33.9787 24.9455 33.9434 24.8943C33.9081 24.8432 33.8634 24.7996 33.8116 24.7663C33.7599 24.7329 33.7023 24.7104 33.6421 24.6999C33.5819 24.6895 33.5203 24.6914 33.4608 24.7054C33.1199 24.7066 32.7899 24.8282 32.526 25.0499L32.1479 24.4782C32.3261 24.3496 32.5175 24.2414 32.7187 24.1558C33.1271 23.9963 33.574 23.9732 33.9959 24.0898C34.1483 24.132 34.2912 24.2042 34.4169 24.3024C34.534 24.3938 34.6292 24.5117 34.6951 24.6468C34.7636 24.793 34.7978 24.9536 34.795 25.1159V27.505H34.0744V27.08C34.0367 27.159 33.9832 27.2289 33.9174 27.2852C33.846 27.3451 33.7667 27.3945 33.6819 27.4317C33.5953 27.472 33.5043 27.5015 33.4108 27.5197C33.3159 27.5487 33.2173 27.5635 33.1183 27.5637L33.1325 27.593ZM34.0173 26.0613H33.3038C33.1566 26.0486 33.0099 26.0901 32.8899 26.1785C32.8522 26.2211 32.8231 26.2709 32.8043 26.3251C32.7907 26.3829 32.7907 26.4432 32.8043 26.501V26.5743C32.7934 26.6225 32.7934 26.6726 32.8043 26.7209C32.8245 26.7698 32.8564 26.8126 32.8971 26.8455C32.9953 26.9143 33.1141 26.9454 33.2324 26.9334C33.3554 26.9479 33.48 26.9328 33.5963 26.8894C33.7139 26.8504 33.823 26.7882 33.9174 26.7062C33.9773 26.6443 34.0171 26.565 34.0316 26.479C34.0384 26.3741 34.0384 26.2688 34.0316 26.1639L34.0173 26.0613Z" fill="#00823A"/>
<path d="M37.3212 24.0311C37.4664 24.0306 37.6107 24.0529 37.7493 24.0971C37.8931 24.1431 38.0245 24.2226 38.1335 24.3294C38.2424 24.4362 38.3258 24.5674 38.3772 24.7127C38.4455 24.9001 38.4794 25.0989 38.4771 25.299V27.5416H37.7208V25.4676C37.7208 24.9692 37.5067 24.7347 37.0858 24.7347H36.8788C36.7945 24.7563 36.7147 24.7936 36.6434 24.8446C36.563 24.9101 36.4973 24.9926 36.4507 25.0865C36.3966 25.2161 36.3699 25.3559 36.3722 25.4969V27.5343H35.623V24.0971H36.3366V24.4929C36.44 24.3292 36.5893 24.2014 36.7647 24.1264C36.9388 24.053 37.126 24.018 37.3141 24.0238L37.3212 24.0311Z" fill="#00823A"/>
<path d="M41.3744 27.0799C41.2913 27.2382 41.1578 27.3624 40.9962 27.4316C40.821 27.5002 40.6343 27.5325 40.4468 27.5269C40.2724 27.5428 40.0967 27.5177 39.9331 27.4536C39.7693 27.3822 39.6212 27.2775 39.4978 27.1458C39.2751 26.8376 39.1641 26.4591 39.1839 26.0758V25.5408C39.1791 25.3292 39.2105 25.1183 39.2766 24.9179C39.3334 24.7466 39.4204 24.5875 39.5335 24.4488C39.6522 24.3218 39.7957 24.2219 39.9545 24.1557C40.1259 24.0815 40.3109 24.0465 40.4968 24.0531C40.6103 24.035 40.7258 24.035 40.8393 24.0531L41.0961 24.141C41.1621 24.1756 41.2243 24.2174 41.2816 24.2656L41.3887 24.3902V24.0897H42.1022V27.5049C42.1176 27.7009 42.0933 27.8981 42.0308 28.0839C41.9649 28.2687 41.8601 28.4364 41.724 28.5749C41.3823 28.8384 40.9582 28.9636 40.5324 28.9267C40.3209 28.9265 40.111 28.8894 39.9117 28.8168C39.7273 28.7588 39.5537 28.6696 39.398 28.5529L39.7476 27.9153C39.7881 27.9536 39.8337 27.9857 39.8831 28.0106L40.0829 28.1132C40.1567 28.1429 40.2332 28.165 40.3113 28.1792C40.3894 28.19 40.4686 28.19 40.5467 28.1792C40.7632 28.2004 40.9795 28.1377 41.1532 28.0033C41.2305 27.934 41.2894 27.8458 41.3245 27.7468C41.359 27.6508 41.3736 27.5484 41.3673 27.4463L41.3744 27.0799ZM39.9474 25.9439C39.9343 26.1815 39.9942 26.4174 40.1186 26.6181C40.1765 26.6988 40.2524 26.7641 40.3398 26.8087C40.4277 26.8468 40.5227 26.8643 40.6181 26.86C40.7333 26.8643 40.8479 26.8417 40.9534 26.794C41.0463 26.7552 41.1293 26.695 41.196 26.6181C41.2657 26.5396 41.3191 26.4474 41.353 26.347C41.3897 26.2436 41.409 26.1346 41.4101 26.0245V25.3869C41.4069 25.304 41.39 25.2222 41.3601 25.1451C41.3315 25.0623 41.2852 24.9871 41.2246 24.9252C41.1576 24.8573 41.0773 24.8049 40.9891 24.7713C40.8824 24.7277 40.7686 24.7053 40.6537 24.7053C40.5513 24.6967 40.4483 24.7143 40.3541 24.7566C40.2625 24.8009 40.1819 24.8661 40.1186 24.9472C39.9983 25.1498 39.9388 25.3843 39.9474 25.6214V25.9439Z" fill="#00823A"/>
<path d="M43.9351 27.8567C43.9342 28.0028 43.915 28.1481 43.878 28.2891C43.8442 28.4214 43.7778 28.5425 43.6854 28.6409C43.5958 28.7398 43.4827 28.8131 43.3571 28.8534C43.2012 28.9089 43.037 28.9362 42.872 28.934C42.7509 28.9449 42.6291 28.9449 42.5081 28.934C42.4114 28.9198 42.3159 28.8978 42.2227 28.8681L42.3368 28.2305L42.5723 28.2818H42.7721C42.8798 28.2874 42.9859 28.2536 43.0717 28.1865C43.1442 28.0852 43.1772 27.9598 43.1645 27.8347V24.119H43.9208L43.9351 27.8567ZM43.1645 22.7266H43.9565V23.5767H43.1645V22.7266Z" fill="#00823A"/>
<path d="M45.9688 27.6003C45.8158 27.6058 45.6632 27.5809 45.5193 27.527C45.3759 27.4714 45.2449 27.3866 45.134 27.2778C44.911 27.0153 44.7981 26.6728 44.8201 26.3251V24.1265H45.5764V26.1785C45.572 26.3051 45.5889 26.4316 45.6264 26.5523C45.6507 26.6376 45.6947 26.7155 45.7548 26.7795C45.8109 26.8349 45.8796 26.8752 45.9546 26.8967C46.0377 26.9232 46.1244 26.9356 46.2114 26.9334C46.2912 26.9319 46.3703 26.9196 46.4469 26.8967C46.5309 26.869 46.6085 26.8241 46.6752 26.7648C46.7487 26.695 46.807 26.6101 46.8465 26.5156C46.896 26.3927 46.9179 26.26 46.9107 26.1272V24.1265H47.667V27.5636H46.9535V27.1532C46.9079 27.2352 46.8474 27.3074 46.7751 27.3658C46.7034 27.4234 46.6242 27.4703 46.5397 27.505C46.4518 27.542 46.3611 27.5714 46.2685 27.593C46.1759 27.6002 46.0829 27.6002 45.9902 27.593L45.9688 27.6003Z" fill="#00823A"/>
<path d="M48.3447 24.9692H50.3783V25.6215H48.3447V24.9692Z" fill="#00823A"/>
<path d="M52.2548 23.0417H53.0254V26.2664C53.0301 26.4804 52.9987 26.6937 52.9326 26.8967C52.8755 27.0559 52.7826 27.1991 52.6615 27.3144C52.5374 27.4226 52.391 27.5003 52.2333 27.5416C52.0491 27.5892 51.8596 27.6114 51.6697 27.6076C51.4825 27.6094 51.2965 27.5772 51.1203 27.5123C50.9393 27.4481 50.7721 27.3486 50.6279 27.2191L50.9847 26.6035C51.0848 26.6922 51.198 26.7639 51.32 26.8161C51.4337 26.861 51.5552 26.881 51.6768 26.8747C51.757 26.8806 51.8374 26.868 51.9123 26.8381C51.9855 26.8099 52.0515 26.7648 52.1049 26.7061C52.224 26.5173 52.2768 26.2924 52.2548 26.0685V23.0417Z" fill="#00823A"/>
<path d="M56.6437 27.2265C56.4701 27.3437 56.28 27.4327 56.08 27.4903C55.8221 27.5626 55.5551 27.5947 55.288 27.5856C55.1001 27.587 54.9129 27.5623 54.7314 27.5123C54.5493 27.4607 54.3806 27.3681 54.2374 27.2414C54.0943 27.1147 53.9803 26.9569 53.9038 26.7795C53.8111 26.5344 53.7674 26.2727 53.7753 26.0099V25.6508C53.7708 25.4009 53.812 25.1523 53.8966 24.9179C53.9632 24.7278 54.0733 24.5569 54.2177 24.4196C54.3556 24.2889 54.5184 24.1891 54.6958 24.1264C54.8847 24.064 55.0824 24.0343 55.2809 24.0385C55.4769 24.0343 55.6723 24.064 55.8588 24.1264C56.0307 24.1884 56.1885 24.2856 56.3226 24.4123C56.4553 24.5465 56.5576 24.7092 56.6223 24.8886C56.6936 25.1008 56.7298 25.3237 56.7293 25.5482V26.1125H54.5031C54.4963 26.2267 54.5108 26.3411 54.5459 26.4497C54.5821 26.5566 54.6405 26.6542 54.7172 26.7355C54.7985 26.8094 54.8935 26.8656 54.9965 26.9009C55.0995 26.9361 55.2083 26.9497 55.3165 26.9407C55.4925 26.9482 55.6685 26.9259 55.8374 26.8747C56.005 26.8254 56.1657 26.7539 56.3155 26.6622L56.6437 27.2265ZM56.0015 25.5116V25.365C56.0159 25.2777 56.0159 25.1885 56.0015 25.1012C55.9762 25.0185 55.9322 24.9432 55.8731 24.8813C55.8062 24.8168 55.729 24.7647 55.6447 24.7274C55.5372 24.6884 55.4233 24.671 55.3094 24.6761C55.2057 24.6652 55.101 24.6777 55.0026 24.7127C54.9045 24.7503 54.8148 24.8076 54.7386 24.8813C54.6766 24.9464 54.628 25.0236 54.5959 25.1085C54.5638 25.195 54.5493 25.2872 54.5531 25.3797V25.5116H56.0015Z" fill="#00823A"/>
<path d="M58.8119 27.5928C58.5957 27.5926 58.3811 27.5555 58.1768 27.4829C57.9931 27.4224 57.8265 27.3168 57.6916 27.1751C57.5512 27.0387 57.4437 26.8706 57.3777 26.6841C57.2989 26.4688 57.2625 26.2396 57.2706 26.0098V25.6067C57.2638 25.377 57.3002 25.1481 57.3777 24.9325C57.4437 24.7459 57.5512 24.5778 57.6916 24.4415C57.8284 24.3022 57.9944 24.1969 58.1768 24.1336C58.5931 23.9874 59.0449 23.9874 59.4612 24.1336C59.6449 24.1986 59.8129 24.3036 59.9535 24.4415C60.0926 24.5775 60.1978 24.7459 60.2603 24.9325C60.3408 25.1474 60.3796 25.3765 60.3745 25.6067V26.0391C60.3759 26.2667 60.3373 26.4927 60.2603 26.7061C60.1962 26.8939 60.0913 27.0644 59.9535 27.2044C59.8129 27.3423 59.6449 27.4473 59.4612 27.5122C59.2521 27.5855 59.0327 27.6226 58.8119 27.6222V27.5928ZM58.8119 26.9039C58.918 26.9042 59.0236 26.8894 59.1258 26.86C59.2216 26.8256 59.3092 26.7706 59.3827 26.6987C59.4594 26.6216 59.5159 26.5258 59.5468 26.4202C59.589 26.2852 59.6106 26.1443 59.611 26.0025V25.6214C59.6325 25.4978 59.6325 25.3712 59.611 25.2476C59.5717 25.1296 59.5112 25.0202 59.4326 24.9252C59.2724 24.7879 59.0704 24.7127 58.8618 24.7126C58.651 24.7129 58.4468 24.788 58.2838 24.9252C58.2049 25.0188 58.1465 25.1288 58.1126 25.2476C58.0876 25.3709 58.0876 25.4981 58.1126 25.6214V26.0391C58.107 26.1808 58.1264 26.3223 58.1697 26.4569C58.2034 26.5612 58.2595 26.6564 58.3338 26.7354C58.4073 26.8073 58.4949 26.8622 58.5907 26.8966C58.6855 26.9261 58.7841 26.9409 58.8832 26.9406L58.8119 26.9039Z" fill="#00823A"/>
<path d="M62.7942 24.0311C62.9393 24.0306 63.0837 24.0528 63.2223 24.097C63.359 24.1441 63.4852 24.2188 63.5933 24.3169C63.7036 24.43 63.7909 24.5645 63.8502 24.7126C63.9162 24.9005 63.9476 25.0993 63.9429 25.2989V27.5415H63.1866V25.4675C63.1866 24.9691 62.9797 24.7346 62.5587 24.7346H62.3447C62.2603 24.7562 62.1805 24.7935 62.1092 24.8445C62.0301 24.9113 61.9646 24.9935 61.9166 25.0864C61.8647 25.2164 61.8403 25.3564 61.8452 25.4968V27.5342H61.0889V24.097H61.8024V24.4928C61.9041 24.3275 62.0539 24.1993 62.2305 24.1263C62.4094 24.0522 62.6014 24.0172 62.7942 24.0237V24.0311Z" fill="#00823A"/>
<path d="M66.5184 24.0311C66.6635 24.0306 66.8079 24.0528 66.9465 24.0971C67.0903 24.1431 67.2217 24.2226 67.3306 24.3294C67.4396 24.4361 67.523 24.5673 67.5744 24.7127C67.6404 24.9005 67.6719 25.0993 67.6672 25.299V27.5416H66.8966V25.4675C66.8966 24.9692 66.6896 24.7347 66.2687 24.7347H66.0546C65.9703 24.7563 65.8905 24.7935 65.8192 24.8446C65.7402 24.9096 65.6767 24.9924 65.6336 25.0865C65.5795 25.216 65.5528 25.3559 65.5552 25.4969V27.5343H64.7988V24.0971H65.5123V24.4928C65.6158 24.3291 65.765 24.2014 65.9405 24.1264C66.1155 24.0564 66.302 24.0216 66.4899 24.0238L66.5184 24.0311Z" fill="#00823A"/>
<path d="M69.4936 27.5929C69.1971 27.6088 68.9044 27.5181 68.6659 27.3363C68.5663 27.2516 68.488 27.1435 68.4376 27.0212C68.3881 26.8983 68.3662 26.7656 68.3734 26.6328V26.4349C68.3727 26.3002 68.3944 26.1663 68.4376 26.0392C68.4795 25.9199 68.5508 25.8138 68.6445 25.7313C68.7585 25.6375 68.8895 25.5677 69.0299 25.5261C69.2228 25.4725 69.4223 25.4478 69.6221 25.4529H70.3784V25.3063C70.3928 25.2263 70.3928 25.1444 70.3784 25.0644C70.3548 24.9842 70.316 24.9094 70.2642 24.8446C70.1372 24.7409 69.9764 24.691 69.8147 24.7053C69.4739 24.7065 69.1438 24.8281 68.88 25.0498L68.509 24.4781C68.6888 24.3522 68.8799 24.2442 69.0798 24.1557C69.3065 24.062 69.5489 24.0147 69.7933 24.0164C69.9741 24.0155 70.1542 24.0401 70.3285 24.0897C70.4797 24.135 70.6221 24.2069 70.7494 24.3022C70.8646 24.3958 70.9594 24.5131 71.0277 24.6467C71.0927 24.7941 71.1268 24.9539 71.1276 25.1157V27.5049H70.4141V27.0799C70.3764 27.1589 70.323 27.2288 70.2571 27.2851C70.1857 27.345 70.1064 27.3943 70.0216 27.4316C69.9329 27.4729 69.8394 27.5025 69.7434 27.5196C69.6525 27.5449 69.5592 27.5596 69.4651 27.5635L69.4936 27.5929ZM70.3784 26.0611H69.6649C69.5177 26.0478 69.3707 26.0894 69.251 26.1784C69.2113 26.2208 69.1798 26.2705 69.1583 26.325C69.148 26.3831 69.148 26.4427 69.1583 26.5009V26.5742C69.1476 26.6224 69.1476 26.6725 69.1583 26.7207C69.1784 26.7678 69.2075 26.8101 69.2439 26.8453C69.3424 26.9136 69.4609 26.9447 69.5793 26.9333C69.7022 26.9486 69.827 26.9335 69.9432 26.8893C70.0615 26.852 70.1709 26.7896 70.2642 26.7061C70.3288 26.6468 70.3716 26.5666 70.3855 26.4789C70.3924 26.374 70.3924 26.2687 70.3855 26.1638L70.3784 26.0611Z" fill="#00823A"/>
<path d="M75.5161 24.031C75.6649 24.0279 75.8129 24.0553 75.9513 24.1116C76.0879 24.1649 76.2119 24.2474 76.3152 24.3535C76.4242 24.4705 76.5113 24.6071 76.5721 24.7565C76.6352 24.9401 76.6666 25.1335 76.6648 25.3282V27.5268H75.9085V25.4748C75.9135 25.3457 75.8966 25.2168 75.8586 25.0937C75.8345 25.0061 75.7905 24.9257 75.7301 24.8592C75.6748 24.8064 75.6091 24.7664 75.5375 24.7419C75.4615 24.7347 75.3851 24.7347 75.3091 24.7419C75.2341 24.7428 75.1595 24.7551 75.088 24.7785C75.0143 24.7983 74.9476 24.839 74.8953 24.8958C74.8331 24.9593 74.7866 25.0372 74.7597 25.123C74.7194 25.2381 74.7001 25.3598 74.7027 25.4821V27.5561H73.9463V25.4894C73.9473 25.3678 73.9304 25.2468 73.8964 25.1303C73.8707 25.0435 73.8269 24.9634 73.768 24.8958C73.7164 24.8417 73.6527 24.8014 73.5824 24.7785C73.5059 24.7556 73.4267 24.7433 73.347 24.7419C73.2665 24.7416 73.1867 24.7565 73.1115 24.7859C73.0361 24.8139 72.9679 24.859 72.9117 24.9178C72.8493 24.9908 72.8008 25.0754 72.769 25.167C72.7508 25.2613 72.7508 25.3584 72.769 25.4528V27.5635H72.0127V24.1189H72.7262V24.5587C72.8016 24.3995 72.924 24.2687 73.0758 24.1849C73.2438 24.0886 73.4329 24.0381 73.6252 24.0381C73.8176 24.0381 74.0067 24.0886 74.1747 24.1849C74.3263 24.2644 74.4452 24.397 74.51 24.5587C74.6153 24.3967 74.7573 24.2634 74.9238 24.1702C75.1118 24.0746 75.321 24.0316 75.5303 24.0456L75.5161 24.031Z" fill="#00823A"/>
<path d="M80.6599 26.8747C80.8001 26.881 80.9404 26.8611 81.0737 26.8161C81.1848 26.7784 81.2836 26.7099 81.3591 26.6182C81.4379 26.509 81.4938 26.3843 81.5232 26.2518C81.5614 26.0688 81.5782 25.8818 81.5732 25.6948V23.0198H82.3438V25.6655C82.3525 25.9775 82.314 26.289 82.2296 26.5889C82.1731 26.8114 82.0626 27.0156 81.9085 27.1825C81.7654 27.3297 81.5889 27.438 81.3948 27.4977C80.9266 27.6199 80.436 27.6199 79.9678 27.4977C79.7737 27.438 79.5972 27.3297 79.454 27.1825C79.3032 27.0132 79.1933 26.8099 79.133 26.5889C79.0485 26.289 79.01 25.9775 79.0188 25.6655V23.0198H79.7894V25.6948C79.7868 25.8821 79.806 26.0691 79.8465 26.2518C79.8759 26.3843 79.9318 26.509 80.0106 26.6182C80.0836 26.7128 80.1833 26.7819 80.296 26.8161C80.4126 26.8591 80.5361 26.879 80.6599 26.8747Z" fill="#00823A"/>
<path d="M84.9055 24.031C85.0506 24.0314 85.1948 24.0536 85.3336 24.0969C85.4774 24.143 85.6088 24.2224 85.7177 24.3292C85.8267 24.436 85.9101 24.5672 85.9615 24.7126C86.0275 24.9004 86.059 25.0992 86.0543 25.2989V27.5415H85.2979V25.4674C85.2979 24.9691 85.091 24.7345 84.67 24.7345H84.456C84.3716 24.7561 84.2918 24.7934 84.2205 24.8445C84.1415 24.9095 84.0781 24.9922 84.035 25.0863C83.9776 25.2148 83.9507 25.3555 83.9565 25.4967V27.5341H83.2002V24.0969H83.9137V24.4927C84.0139 24.326 84.1641 24.1974 84.3418 24.1263C84.5166 24.0552 84.7033 24.0204 84.8912 24.0237L84.9055 24.031Z" fill="#00823A"/>
<path d="M86.9248 22.7485H87.7168V23.5987H86.9248V22.7485ZM86.9248 24.1043H87.6811V27.5415H86.9462L86.9248 24.1043Z" fill="#00823A"/>
<path d="M89.2867 27.5417L88.2021 24.1045H89.0156L89.7291 26.8088L90.4854 24.1045H91.2703L90.1857 27.5417H89.2867Z" fill="#00823A"/>
<path d="M94.5235 27.2265C94.35 27.3437 94.1599 27.4327 93.9599 27.4904C93.702 27.5626 93.435 27.5947 93.1679 27.5856C92.98 27.587 92.7928 27.5623 92.6113 27.5123C92.434 27.4604 92.2705 27.3677 92.1333 27.2412C91.9815 27.1073 91.8618 26.9393 91.7837 26.7501C91.691 26.5051 91.6473 26.2434 91.6552 25.9806V25.6215C91.6507 25.3716 91.6919 25.123 91.7765 24.8886C91.8478 24.7049 91.9546 24.5378 92.0905 24.3976C92.2295 24.2631 92.3949 24.1607 92.5757 24.0971C92.7646 24.0347 92.9623 24.005 93.1607 24.0092C93.3568 24.005 93.5522 24.0347 93.7387 24.0971C93.9106 24.1591 94.0684 24.2563 94.2025 24.3829C94.3352 24.5172 94.4375 24.6799 94.5021 24.8593C94.5803 25.0696 94.6167 25.2939 94.6092 25.5189V26.0832H92.3973C92.3904 26.1974 92.405 26.3118 92.4401 26.4203C92.4763 26.5256 92.532 26.6227 92.6042 26.7062C92.687 26.7799 92.7833 26.836 92.8874 26.8713C92.9915 26.9065 93.1014 26.9201 93.2107 26.9114C93.3843 26.9193 93.558 26.897 93.7244 26.8454C93.8943 26.7961 94.0574 26.7247 94.2096 26.6329L94.5235 27.2265ZM93.8814 25.5116V25.365C93.8958 25.2777 93.8958 25.1885 93.8814 25.1012C93.8561 25.0185 93.812 24.9432 93.753 24.8813C93.6872 24.8154 93.6097 24.7631 93.5246 24.7274C93.4171 24.6884 93.3032 24.671 93.1893 24.6761C93.0856 24.6628 92.9804 24.6753 92.8825 24.7127C92.7852 24.7519 92.6957 24.809 92.6185 24.8813C92.5588 24.9482 92.5105 25.0251 92.4758 25.1085C92.4472 25.1959 92.4327 25.2875 92.4329 25.3797V25.5116H93.8814Z" fill="#00823A"/>
<path d="M97.2355 24.808C97.1784 24.783 97.1185 24.7658 97.0571 24.7567H96.8216C96.7212 24.7549 96.6215 24.7749 96.5291 24.8154C96.4408 24.8522 96.3606 24.9069 96.2932 24.9761C96.2258 25.0453 96.1725 25.1277 96.1367 25.2184C96.0992 25.3165 96.0799 25.4209 96.0796 25.5262V27.5636H95.3232V24.1265H96.0368V24.5735C96.1169 24.406 96.2372 24.2623 96.3864 24.1558C96.5583 24.0429 96.7607 23.989 96.9643 24.0019H97.2212L97.4353 24.0532L97.2355 24.808Z" fill="#00823A"/>
<path d="M99.0691 26.926C99.2079 26.9273 99.3457 26.9025 99.4758 26.8527C99.527 26.8309 99.5697 26.7922 99.5971 26.7428C99.611 26.69 99.611 26.6343 99.5971 26.5815V26.5449C99.604 26.4963 99.604 26.4469 99.5971 26.3983C99.5784 26.3543 99.5457 26.3182 99.5043 26.2957C99.4384 26.2613 99.369 26.2343 99.2974 26.2151L98.9264 26.1272C98.7509 26.0954 98.5789 26.0464 98.4127 25.9806C98.2835 25.9344 98.1646 25.8621 98.063 25.7681C97.9765 25.688 97.9103 25.5873 97.8704 25.4749C97.8214 25.3416 97.7995 25.1995 97.8062 25.0572V24.9912C97.8061 24.8732 97.8279 24.7563 97.8704 24.6467C97.921 24.5266 97.9994 24.421 98.0987 24.3389C98.2127 24.2377 98.3466 24.1628 98.4911 24.1191C98.6818 24.0535 98.8824 24.0237 99.0834 24.0311C99.2868 24.0325 99.4897 24.0521 99.6899 24.0898C99.9093 24.1279 100.117 24.2183 100.296 24.3536L99.9824 24.9106C99.8683 24.8294 99.7398 24.7722 99.6042 24.742C99.4666 24.7065 99.3251 24.6892 99.1833 24.6907C99.0176 24.6775 98.8512 24.7051 98.6981 24.7713C98.6604 24.7953 98.6286 24.8279 98.6053 24.8666C98.5826 24.9072 98.5681 24.9521 98.5625 24.9985V25.0352C98.5518 25.0834 98.5518 25.1335 98.5625 25.1817C98.5816 25.2237 98.6144 25.2574 98.6553 25.277C98.712 25.3133 98.775 25.3382 98.8408 25.3503L99.1476 25.4236C99.3307 25.4596 99.5118 25.5061 99.6899 25.5628C99.8265 25.6049 99.9546 25.6719 100.068 25.7607C100.169 25.8395 100.246 25.9463 100.289 26.0685C100.341 26.2139 100.365 26.3682 100.361 26.5229V26.5889C100.361 26.7233 100.332 26.8562 100.275 26.9773C100.212 27.0995 100.124 27.2069 100.018 27.2924C99.8919 27.3871 99.7524 27.4613 99.6042 27.5123C99.4238 27.5683 99.2361 27.5955 99.0477 27.5929C98.7929 27.5992 98.5384 27.5696 98.2914 27.505C98.0706 27.4373 97.8629 27.3307 97.6777 27.1898L98.0131 26.5889C98.1619 26.6977 98.3223 26.7886 98.4911 26.86C98.6688 26.9183 98.8541 26.948 99.0406 26.948L99.0691 26.926Z" fill="#00823A"/>
<path d="M101.053 22.7485H101.859V23.5987H101.067L101.053 22.7485ZM101.053 24.1043H101.859V27.5415H101.103L101.053 24.1043Z" fill="#00823A"/>
<path d="M102.951 24.7566H102.43V24.1043H102.951V23.2249H103.707V24.1043H104.542V24.7566H103.707V26.5594C103.696 26.6101 103.696 26.6627 103.707 26.7134C103.722 26.7635 103.749 26.8089 103.785 26.8453C103.854 26.8955 103.937 26.9212 104.021 26.9186C104.094 26.9258 104.168 26.9258 104.242 26.9186C104.326 26.9029 104.408 26.8757 104.485 26.8379L104.606 27.4682C104.517 27.5119 104.424 27.5439 104.328 27.5635C104.043 27.6458 103.742 27.6458 103.457 27.5635C103.342 27.5249 103.239 27.4569 103.156 27.3659C103.074 27.2748 103.015 27.1638 102.986 27.0431C102.952 26.9018 102.935 26.7565 102.936 26.6108L102.951 24.7566Z" fill="#00823A"/>
<path d="M105.79 24.1045L106.539 26.6403L107.288 24.1045H108.095L106.418 28.9708L105.704 28.707L106.132 27.5784L104.955 24.1045H105.79Z" fill="#00823A"/>
<path d="M111.706 23.0417C111.964 23.0185 112.225 23.0508 112.47 23.1366C112.716 23.2224 112.942 23.3598 113.133 23.5401C113.3 23.7409 113.427 23.974 113.505 24.2257C113.583 24.4774 113.612 24.7426 113.589 25.0058V25.6508C113.595 25.9303 113.562 26.2093 113.49 26.4789C113.432 26.7048 113.319 26.9117 113.161 27.0799C113.005 27.2474 112.812 27.3732 112.598 27.4463C112.322 27.5407 112.032 27.5854 111.741 27.5782H110.222V23.0784L111.706 23.0417ZM110.992 26.8747H111.634C111.808 26.8817 111.982 26.8594 112.148 26.8087C112.29 26.7694 112.42 26.6938 112.526 26.5889C112.634 26.4778 112.715 26.3422 112.762 26.1931C112.82 25.9986 112.847 25.7956 112.84 25.5921V25.0058C112.858 24.827 112.84 24.6462 112.788 24.4747C112.735 24.3033 112.648 24.1448 112.533 24.0091C112.282 23.7971 111.959 23.6945 111.634 23.7233H110.992V26.8747Z" fill="#00823A"/>
<path d="M114.367 22.7485H115.159V23.5987H114.367V22.7485ZM114.367 24.1043H115.124V27.5415H114.374L114.367 24.1043Z" fill="#00823A"/>
<path d="M117.15 26.926C117.289 26.9273 117.427 26.9025 117.557 26.8527C117.608 26.8309 117.651 26.7922 117.678 26.7428C117.704 26.6934 117.716 26.6376 117.714 26.5815V26.5449C117.721 26.4963 117.721 26.4469 117.714 26.3983C117.695 26.3543 117.662 26.3182 117.621 26.2957C117.555 26.2613 117.486 26.2343 117.414 26.2151L117.043 26.1272C116.867 26.0954 116.695 26.0464 116.529 25.9806C116.402 25.9358 116.285 25.8633 116.187 25.7681C116.095 25.6909 116.026 25.5895 115.987 25.4749C115.938 25.3416 115.916 25.1995 115.923 25.0572V24.9912C115.921 24.8724 115.946 24.7548 115.994 24.6467C116.038 24.5267 116.112 24.4205 116.208 24.3389C116.326 24.2389 116.462 24.1642 116.608 24.1191C116.798 24.0535 116.999 24.0237 117.2 24.0311C117.403 24.0325 117.606 24.0521 117.806 24.0898C118.027 24.1327 118.236 24.2226 118.42 24.3536L118.092 24.9252C117.98 24.8454 117.854 24.7882 117.721 24.7567C117.581 24.7216 117.437 24.7043 117.293 24.7054C117.127 24.6921 116.961 24.7198 116.807 24.786C116.768 24.8081 116.736 24.8411 116.715 24.8813C116.691 24.9211 116.679 24.9667 116.679 25.0132V25.0132C116.668 25.0614 116.668 25.1115 116.679 25.1598C116.698 25.2017 116.731 25.2354 116.772 25.255C116.829 25.2901 116.892 25.3149 116.957 25.3283L117.264 25.4016C117.45 25.4377 117.633 25.4842 117.813 25.5409C117.95 25.5844 118.077 25.6513 118.192 25.7387C118.287 25.8183 118.361 25.9218 118.406 26.0392C118.461 26.1862 118.485 26.3436 118.477 26.5009V26.5669C118.483 26.6995 118.453 26.8313 118.391 26.948C118.328 27.0725 118.241 27.1823 118.135 27.2704C118.009 27.3665 117.869 27.4408 117.721 27.4903C117.54 27.5427 117.352 27.5698 117.164 27.5709C116.903 27.5725 116.643 27.533 116.394 27.4537C116.174 27.3931 115.968 27.2885 115.787 27.1459L116.122 26.5449C116.267 26.654 116.426 26.7428 116.593 26.8087C116.771 26.8812 116.959 26.9209 117.15 26.926V26.926Z" fill="#00823A"/>
<path d="M119.34 24.7566H118.826V24.1043H119.34V23.2249H120.096V24.1043H120.931V24.7566H120.096V26.5594C120.085 26.6101 120.085 26.6627 120.096 26.7134C120.111 26.7635 120.138 26.8089 120.175 26.8453C120.242 26.8988 120.326 26.9249 120.41 26.9186C120.484 26.9258 120.558 26.9258 120.631 26.9186C120.715 26.9029 120.797 26.8757 120.874 26.8379L120.995 27.4682C120.906 27.5109 120.813 27.5428 120.717 27.5635C120.432 27.6458 120.131 27.6458 119.846 27.5635C119.731 27.5249 119.628 27.4569 119.546 27.3659C119.463 27.2748 119.405 27.1638 119.376 27.0431C119.341 26.9018 119.324 26.7565 119.326 26.6108L119.34 24.7566Z" fill="#00823A"/>
<path d="M122.551 27.5929C122.255 27.61 121.962 27.5192 121.724 27.3363C121.624 27.2516 121.546 27.1435 121.495 27.0212C121.446 26.8983 121.424 26.7656 121.431 26.6328V26.4349C121.428 26.3006 121.447 26.1668 121.488 26.0392C121.536 25.9212 121.609 25.816 121.702 25.7313C121.814 25.6348 121.946 25.5647 122.087 25.5261C122.278 25.473 122.475 25.4483 122.673 25.4529H123.429V25.3063C123.443 25.2263 123.443 25.1444 123.429 25.0644C123.402 24.9854 123.364 24.9112 123.315 24.8446C123.188 24.7409 123.027 24.691 122.865 24.7053C122.524 24.7065 122.194 24.8281 121.931 25.0498L121.559 24.4781C121.738 24.3494 121.929 24.2413 122.13 24.1557C122.357 24.062 122.599 24.0147 122.844 24.0164C123.025 24.0155 123.205 24.0401 123.379 24.0897C123.53 24.135 123.673 24.2069 123.8 24.3022C123.913 24.3978 124.008 24.5147 124.078 24.6467C124.144 24.7934 124.176 24.9541 124.171 25.1157V27.5049H123.493V27.0799C123.458 27.1584 123.407 27.2284 123.343 27.2851C123.272 27.345 123.193 27.3943 123.108 27.4316C123.018 27.4709 122.925 27.5004 122.83 27.5196C122.737 27.5484 122.641 27.5632 122.544 27.5635L122.551 27.5929ZM123.429 26.0611H122.715C122.568 26.0464 122.421 26.0882 122.302 26.1784C122.262 26.2208 122.23 26.2705 122.209 26.325C122.198 26.3831 122.198 26.4427 122.209 26.5009V26.5742C122.198 26.6224 122.198 26.6725 122.209 26.7207C122.229 26.7678 122.258 26.8101 122.294 26.8453C122.393 26.9136 122.511 26.9447 122.63 26.9333C122.753 26.9486 122.877 26.9335 122.994 26.8893C123.112 26.852 123.221 26.7895 123.315 26.7061C123.379 26.6468 123.422 26.5666 123.436 26.4789C123.447 26.3741 123.447 26.2685 123.436 26.1638L123.429 26.0611Z" fill="#00823A"/>
<path d="M126.754 24.0311C126.899 24.0314 127.043 24.0537 127.182 24.097C127.319 24.1441 127.445 24.2188 127.553 24.3169C127.664 24.43 127.751 24.5645 127.81 24.7126C127.876 24.9005 127.908 25.0993 127.903 25.2989V27.5415H127.147V25.4675C127.147 24.9691 126.94 24.7346 126.519 24.7346H126.305C126.22 24.7562 126.14 24.7935 126.069 24.8445C125.99 24.9096 125.927 24.9923 125.884 25.0864C125.826 25.2149 125.799 25.3556 125.805 25.4968V27.5342H125.049V24.097H125.762V24.4928C125.862 24.3261 126.013 24.1975 126.19 24.1263C126.369 24.0522 126.561 24.0172 126.754 24.0237V24.0311Z" fill="#00823A"/>
<path d="M130.093 24.031C130.23 24.0162 130.369 24.0162 130.507 24.031C130.618 24.055 130.728 24.0868 130.835 24.1263L131.092 24.2582L131.299 24.4048L130.935 24.9764C130.814 24.8731 130.677 24.7936 130.528 24.7419C130.386 24.704 130.24 24.6843 130.093 24.6833C129.998 24.6835 129.905 24.6984 129.815 24.7273C129.728 24.7644 129.648 24.8164 129.579 24.8812C129.512 24.9589 129.459 25.0482 129.422 25.145C129.378 25.2744 129.359 25.4112 129.365 25.5481V25.9658C129.358 26.1153 129.38 26.2648 129.429 26.4055C129.471 26.5048 129.532 26.5945 129.608 26.6694C129.676 26.7375 129.759 26.7878 129.85 26.816C129.935 26.8276 130.022 26.8276 130.107 26.816C130.281 26.8204 130.455 26.7957 130.621 26.7427C130.757 26.6884 130.884 26.6143 130.999 26.5228L131.356 27.0945C131.215 27.2243 131.05 27.3239 130.871 27.3876C130.622 27.4723 130.362 27.5144 130.1 27.5122C129.894 27.5283 129.687 27.4983 129.493 27.4243C129.302 27.349 129.127 27.2343 128.98 27.0871C128.709 26.7677 128.571 26.3521 128.594 25.9292V25.4968C128.584 25.2878 128.613 25.0787 128.68 24.8812C128.753 24.6871 128.859 24.5083 128.994 24.3535C129.142 24.215 129.317 24.1101 129.508 24.0457C129.699 23.9971 129.899 23.9921 130.093 24.031Z" fill="#00823A"/>
<path d="M134.631 27.2264C134.456 27.342 134.267 27.4309 134.067 27.4903C133.809 27.5616 133.542 27.5937 133.275 27.5855C133.085 27.5869 132.895 27.5623 132.712 27.5122C132.531 27.4592 132.364 27.366 132.222 27.2394C132.08 27.1128 131.967 26.9557 131.891 26.7794C131.795 26.5353 131.751 26.2728 131.763 26.0098V25.6507C131.756 25.4013 131.794 25.1526 131.877 24.9179C131.948 24.7341 132.055 24.5671 132.191 24.4268C132.33 24.2923 132.495 24.1899 132.676 24.1264C132.867 24.0644 133.067 24.0347 133.268 24.0384C133.464 24.0347 133.659 24.0645 133.846 24.1264C134.017 24.1866 134.172 24.2841 134.303 24.4122C134.438 24.5445 134.54 24.7077 134.602 24.8885C134.681 25.0988 134.717 25.3231 134.709 25.5481V26.1124H132.497C132.491 26.2266 132.505 26.341 132.54 26.4496C132.577 26.5548 132.632 26.6519 132.704 26.7354C132.872 26.8837 133.09 26.9575 133.311 26.9406C133.487 26.9481 133.663 26.9258 133.832 26.8746C133.999 26.8253 134.16 26.7539 134.31 26.6621L134.631 27.2264ZM133.989 25.5115V25.3649C133.989 25.2751 133.975 25.1859 133.946 25.1011C133.923 25.0171 133.879 24.9411 133.817 24.8812C133.752 24.8153 133.674 24.763 133.589 24.7273C133.482 24.6883 133.368 24.6709 133.254 24.676C133.153 24.6661 133.05 24.6786 132.954 24.7126C132.855 24.7482 132.765 24.8058 132.69 24.8812C132.626 24.9443 132.577 25.0222 132.547 25.1084C132.513 25.1944 132.496 25.2866 132.497 25.3796V25.5115H133.989Z" fill="#00823A"/>
<path d="M139.746 23.0417V23.7087H137.72V24.9179H139.618V25.5629H137.72V26.8747H139.775V27.5416H136.921V23.0417H139.746Z" fill="#00823A"/>
<path d="M142.63 27.1457C142.543 27.3062 142.404 27.4306 142.237 27.4975C142.059 27.5641 141.871 27.5988 141.681 27.6001C141.503 27.614 141.325 27.5864 141.16 27.5195C140.994 27.4551 140.847 27.3493 140.732 27.2117C140.5 26.9052 140.385 26.5218 140.411 26.1344V25.5261C140.408 25.314 140.442 25.1031 140.511 24.9031C140.562 24.7375 140.65 24.5858 140.766 24.4591C140.882 24.3323 141.024 24.2337 141.181 24.1702C141.353 24.0961 141.538 24.0611 141.724 24.0676C141.841 24.065 141.959 24.0773 142.073 24.1043L142.33 24.1922C142.439 24.2478 142.532 24.331 142.601 24.4341V22.8657H143.357V27.5781H142.644L142.63 27.1457ZM141.146 26.0391C141.13 26.277 141.19 26.5136 141.317 26.7133C141.375 26.794 141.451 26.8593 141.538 26.9039C141.631 26.9418 141.731 26.9593 141.831 26.9552C141.943 26.9546 142.054 26.9323 142.159 26.8892C142.258 26.8508 142.346 26.7879 142.416 26.706C142.486 26.6305 142.539 26.5406 142.573 26.4421C142.609 26.3361 142.628 26.2247 142.63 26.1124V25.4161C142.628 25.333 142.611 25.2508 142.58 25.1743C142.55 25.092 142.504 25.0171 142.444 24.9544C142.375 24.8875 142.295 24.833 142.209 24.7932C142.103 24.7485 141.988 24.7284 141.873 24.7346C141.771 24.7253 141.668 24.7429 141.574 24.7859C141.482 24.8301 141.402 24.8953 141.338 24.9764C141.214 25.1772 141.154 25.413 141.167 25.6507L141.146 26.0391Z" fill="#00823A"/>
<path d="M145.384 27.6003C145.231 27.6058 145.078 27.5809 144.934 27.527C144.791 27.4714 144.66 27.3866 144.549 27.2778C144.326 27.0153 144.213 26.6728 144.235 26.3251V24.1265H144.991V26.1785C144.99 26.3049 145.007 26.4308 145.041 26.5523C145.068 26.6381 145.115 26.716 145.177 26.7795C145.229 26.8363 145.296 26.8769 145.37 26.8967C145.453 26.9232 145.539 26.9356 145.626 26.9334C145.709 26.9325 145.79 26.9202 145.869 26.8967C145.952 26.8698 146.029 26.8276 146.097 26.7721C146.171 26.7023 146.229 26.6174 146.269 26.523C146.317 26.3995 146.341 26.2676 146.34 26.1345V24.1338H147.096V27.571H146.383V27.1606C146.333 27.2394 146.273 27.3109 146.204 27.3731C146.129 27.4293 146.048 27.4761 145.962 27.5124C145.879 27.5504 145.793 27.5799 145.705 27.6003C145.603 27.6111 145.5 27.6111 145.398 27.6003H145.384Z" fill="#00823A"/>
<path d="M149.273 24.031C149.41 24.0167 149.549 24.0167 149.686 24.031C149.796 24.0515 149.904 24.0834 150.007 24.1262C150.097 24.1612 150.183 24.2054 150.264 24.2581L150.478 24.4047L150.114 24.9764C149.994 24.8731 149.856 24.7936 149.708 24.7419C149.566 24.7039 149.419 24.6842 149.273 24.6832C149.178 24.6835 149.084 24.6983 148.994 24.7272C148.909 24.7629 148.832 24.8152 148.766 24.8811C148.694 24.9566 148.638 25.0464 148.602 25.1449C148.558 25.2743 148.539 25.4111 148.545 25.548V25.9657C148.538 26.1152 148.559 26.2647 148.609 26.4055C148.651 26.5047 148.711 26.5944 148.787 26.6693C148.857 26.736 148.939 26.7861 149.03 26.8159C149.115 26.8266 149.201 26.8266 149.287 26.8159C149.461 26.8204 149.634 26.7956 149.801 26.7426C149.936 26.6883 150.064 26.6143 150.179 26.5227L150.543 27.0944C150.397 27.2224 150.231 27.3217 150.05 27.3875C149.802 27.4723 149.541 27.5144 149.28 27.5121C149.076 27.5272 148.872 27.4972 148.68 27.4242C148.486 27.3491 148.309 27.2344 148.159 27.087C147.889 26.7677 147.75 26.352 147.774 25.9291V25.4967C147.766 25.2903 147.795 25.0842 147.86 24.8884C147.93 24.6912 148.037 24.5097 148.174 24.3534C148.322 24.2149 148.497 24.11 148.687 24.0456C148.875 23.9784 149.074 23.951 149.273 23.965V24.031Z" fill="#00823A"/>
<path d="M152.062 27.5928C151.767 27.6089 151.477 27.5181 151.241 27.3363C151.141 27.2516 151.063 27.1435 151.013 27.0212C150.965 26.8977 150.94 26.7658 150.941 26.6328V26.4349C150.941 26.3002 150.962 26.1663 151.006 26.0391C151.05 25.9191 151.123 25.8129 151.22 25.7313C151.334 25.6374 151.465 25.5677 151.605 25.5261C151.796 25.4725 151.993 25.4478 152.19 25.4528H152.904V25.3063C152.913 25.1395 152.863 24.975 152.761 24.8445C152.636 24.7413 152.478 24.6914 152.319 24.7053C151.976 24.7066 151.643 24.8281 151.377 25.0497L151.013 24.4781C151.189 24.3507 151.378 24.2426 151.576 24.1556C151.803 24.0628 152.046 24.0156 152.29 24.0164C152.471 24.0155 152.651 24.0401 152.825 24.0897C152.976 24.135 153.119 24.2069 153.246 24.3022C153.365 24.3989 153.461 24.5228 153.525 24.664C153.59 24.8052 153.621 24.9598 153.617 25.1157V27.5049H152.939V27.0798C152.904 27.1603 152.85 27.2308 152.782 27.285C152.712 27.3465 152.632 27.396 152.547 27.4316C152.458 27.4729 152.365 27.5025 152.269 27.5195C152.178 27.546 152.084 27.5608 151.99 27.5635L152.062 27.5928ZM152.939 26.0758H152.226C152.076 26.0619 151.927 26.1035 151.805 26.193C151.767 26.2372 151.736 26.2866 151.712 26.3396C151.702 26.3953 151.702 26.4525 151.712 26.5082V26.5888C151.698 26.6365 151.698 26.6876 151.712 26.7354C151.732 26.7843 151.764 26.8271 151.805 26.86C151.904 26.9256 152.022 26.9565 152.14 26.9479C152.263 26.9624 152.388 26.9473 152.504 26.9039C152.622 26.8649 152.731 26.8027 152.825 26.7207C152.885 26.6588 152.925 26.5795 152.939 26.4935C152.946 26.3886 152.946 26.2833 152.939 26.1784V26.0758Z" fill="#00823A"/>
<path d="M154.76 24.7566H154.225V24.1043H154.753V23.2249H155.509V24.1043H156.344V24.7566H155.509V26.5594C155.498 26.6101 155.498 26.6627 155.509 26.7134C155.524 26.7832 155.566 26.844 155.625 26.8824C155.684 26.9209 155.755 26.9339 155.823 26.9186C155.896 26.9258 155.97 26.9258 156.044 26.9186C156.128 26.9029 156.21 26.8757 156.287 26.8379L156.408 27.4682C156.319 27.5109 156.226 27.5428 156.13 27.5635C155.999 27.5985 155.865 27.6158 155.73 27.6148C155.57 27.6167 155.411 27.5919 155.259 27.5415C155.141 27.506 155.035 27.4375 154.952 27.3436C154.872 27.252 154.816 27.1411 154.788 27.0212C154.754 26.8798 154.737 26.7345 154.738 26.5888L154.76 24.7566Z" fill="#00823A"/>
<path d="M157.028 22.7485H157.82V23.5987H157.028V22.7485ZM157.028 24.1043H157.785V27.5415H157.071L157.028 24.1043Z" fill="#00823A"/>
<path d="M160.096 27.5928C159.878 27.5933 159.661 27.5561 159.454 27.4829C159.273 27.4193 159.108 27.3169 158.969 27.1824C158.828 27.0434 158.721 26.8728 158.655 26.684C158.576 26.4688 158.54 26.2396 158.548 26.0098V25.6067C158.541 25.377 158.577 25.148 158.655 24.9324C158.724 24.7473 158.831 24.5797 158.969 24.4414C159.106 24.3022 159.272 24.1969 159.454 24.1336C159.872 23.9942 160.321 23.9942 160.738 24.1336C160.922 24.1986 161.09 24.3036 161.231 24.4414C161.369 24.5815 161.474 24.7519 161.538 24.9398C161.615 25.1555 161.654 25.384 161.652 25.614V26.0391C161.653 26.2667 161.615 26.4926 161.538 26.706C161.474 26.8939 161.369 27.0643 161.231 27.2044C161.09 27.3422 160.922 27.4472 160.738 27.5122C160.532 27.586 160.315 27.6208 160.096 27.6148V27.5928ZM160.096 26.9039C160.2 26.9037 160.303 26.8889 160.403 26.8599C160.499 26.8256 160.587 26.7706 160.66 26.6987C160.737 26.6216 160.793 26.5258 160.824 26.4202C160.866 26.2852 160.888 26.1443 160.888 26.0025V25.6214C160.899 25.4951 160.885 25.3679 160.846 25.2476C160.812 25.1288 160.753 25.0188 160.674 24.9251C160.513 24.7875 160.31 24.7121 160.1 24.7121C159.89 24.7121 159.687 24.7875 159.526 24.9251C159.447 25.0202 159.386 25.1296 159.347 25.2476C159.31 25.3683 159.298 25.4956 159.311 25.6214V26.0391C159.312 26.1809 159.333 26.3218 159.376 26.4568C159.407 26.5624 159.463 26.6583 159.54 26.7353C159.613 26.8072 159.701 26.8622 159.797 26.8966C159.894 26.9266 159.995 26.9414 160.096 26.9406V26.9039Z" fill="#00823A"/>
<path d="M164.071 24.0311C164.216 24.0314 164.36 24.0537 164.499 24.097C164.642 24.143 164.774 24.2225 164.883 24.3293C164.992 24.4361 165.075 24.5673 165.127 24.7126C165.193 24.9005 165.224 25.0993 165.219 25.2989V27.5415H164.463V25.4675C164.463 24.9691 164.256 24.7346 163.835 24.7346H163.621C163.53 24.7572 163.444 24.8005 163.372 24.8614C163.299 24.9223 163.24 24.9992 163.2 25.0864C163.143 25.2149 163.116 25.3556 163.122 25.4968V27.5342H162.365V24.097H163.079V24.4928C163.182 24.3291 163.331 24.2013 163.507 24.1263C163.686 24.0522 163.878 24.0172 164.071 24.0237V24.0311Z" fill="#00823A"/>
<path d="M169.272 22.9757C169.547 22.9719 169.821 23.0089 170.086 23.0856C170.333 23.1716 170.563 23.3032 170.764 23.474L170.35 24.0823C170.199 23.9487 170.025 23.8467 169.836 23.7818C169.657 23.7319 169.472 23.7072 169.287 23.7085C169.156 23.7099 169.027 23.7296 168.901 23.7672C168.777 23.8104 168.667 23.8862 168.58 23.987C168.471 24.1082 168.39 24.2536 168.345 24.4121C168.279 24.6329 168.248 24.8629 168.252 25.0937V25.5554C168.245 25.7618 168.274 25.9678 168.338 26.1637C168.383 26.3126 168.458 26.45 168.559 26.5668C168.649 26.6684 168.762 26.7463 168.887 26.794C169.012 26.8443 169.145 26.8692 169.28 26.8672C169.487 26.8649 169.694 26.8328 169.893 26.772C170.112 26.7011 170.309 26.5722 170.464 26.3982L170.878 27.0138C170.757 27.1371 170.62 27.2431 170.471 27.329C170.335 27.4026 170.191 27.4615 170.043 27.5049C169.909 27.5496 169.77 27.5791 169.629 27.5928C169.501 27.5999 169.372 27.5999 169.244 27.5928C169.016 27.5988 168.789 27.5641 168.573 27.4902C168.364 27.4215 168.171 27.3064 168.009 27.1531C167.84 26.9897 167.708 26.7893 167.624 26.5668C167.523 26.2931 167.475 26.0019 167.481 25.7093V24.9031C167.473 24.6063 167.519 24.3104 167.617 24.031C167.704 23.8055 167.835 23.6008 168.002 23.43C168.167 23.2704 168.365 23.1502 168.58 23.0783C168.81 22.9965 169.051 22.9568 169.294 22.961L169.272 22.9757Z" fill="#00823A"/>
<path d="M174.174 27.2264C174 27.342 173.81 27.4309 173.61 27.4903C173.352 27.5616 173.085 27.5937 172.818 27.5855C172.628 27.5869 172.438 27.5623 172.255 27.5122C172.078 27.4588 171.915 27.3662 171.777 27.2411C171.625 27.109 171.507 26.9402 171.434 26.75C171.341 26.505 171.298 26.2433 171.306 25.9805V25.6214C171.299 25.3719 171.337 25.1233 171.42 24.8885C171.491 24.7048 171.598 24.5378 171.734 24.3975C171.874 24.2651 172.039 24.1629 172.219 24.097C172.41 24.0351 172.61 24.0054 172.811 24.0091C173.007 24.0054 173.202 24.0352 173.389 24.097C173.56 24.1573 173.715 24.2548 173.846 24.3828C173.981 24.5152 174.083 24.6784 174.145 24.8592C174.224 25.0695 174.26 25.2938 174.252 25.5188V26.0831H172.041C172.034 26.1973 172.048 26.3117 172.083 26.4202C172.119 26.5272 172.178 26.6248 172.255 26.7061C172.336 26.78 172.431 26.8362 172.534 26.8715C172.637 26.9068 172.746 26.9203 172.854 26.9113C173.028 26.9192 173.201 26.8969 173.368 26.8453C173.538 26.7974 173.701 26.7259 173.853 26.6328L174.174 27.2264ZM173.532 25.5115V25.3649C173.532 25.2751 173.518 25.1859 173.489 25.1011C173.467 25.0171 173.422 24.9411 173.361 24.8812C173.295 24.8153 173.217 24.763 173.132 24.7273C173.025 24.6883 172.911 24.6709 172.797 24.676C172.696 24.6661 172.593 24.6786 172.497 24.7126C172.398 24.7482 172.308 24.8058 172.233 24.8812C172.169 24.9443 172.12 25.0222 172.09 25.1084C172.056 25.1944 172.039 25.2866 172.041 25.3796V25.5115H173.532Z" fill="#00823A"/>
<path d="M176.671 24.0311C176.816 24.0306 176.961 24.0528 177.099 24.097C177.243 24.143 177.374 24.2225 177.483 24.3293C177.592 24.4361 177.676 24.5673 177.727 24.7126C177.797 24.8995 177.828 25.099 177.82 25.2989V27.5415H177.064V25.4675C177.064 24.9691 176.857 24.7346 176.436 24.7346H176.222C176.139 24.7561 176.062 24.7934 175.993 24.8446C175.91 24.9073 175.844 24.9905 175.801 25.0864C175.745 25.2155 175.721 25.3561 175.729 25.4968V27.5342H174.966V24.097H175.679V24.4928C175.784 24.3273 175.936 24.1992 176.115 24.1263C176.291 24.0521 176.481 24.0172 176.671 24.0237V24.0311Z" fill="#00823A"/>
<path d="M178.919 24.7566H178.405V24.1043H178.919V23.2249H179.69V24.1043H180.524V24.7566H179.69V26.5594C179.679 26.6101 179.679 26.6627 179.69 26.7134C179.702 26.763 179.726 26.8085 179.761 26.8453C179.829 26.897 179.912 26.923 179.996 26.9186C180.072 26.9258 180.149 26.9258 180.225 26.9186C180.309 26.9029 180.39 26.8757 180.467 26.8379L180.589 27.4682C180.499 27.5097 180.406 27.5416 180.31 27.5635C180.18 27.5985 180.046 27.6158 179.911 27.6148C179.749 27.6161 179.587 27.5914 179.433 27.5415C179.316 27.5037 179.21 27.4356 179.126 27.3436C179.048 27.2512 178.994 27.1404 178.969 27.0212C178.934 26.8798 178.918 26.7345 178.919 26.5888V24.7566Z" fill="#00823A"/>
<path d="M183.863 27.2265C183.69 27.3437 183.5 27.4327 183.3 27.4903C183.042 27.5626 182.775 27.5947 182.508 27.5856C182.32 27.587 182.133 27.5623 181.951 27.5123C181.769 27.4607 181.6 27.3681 181.457 27.2414C181.314 27.1147 181.2 26.9569 181.123 26.7795C181.031 26.5344 180.987 26.2727 180.995 26.0099V25.6508C180.991 25.4009 181.032 25.1523 181.116 24.9179C181.186 24.7292 181.295 24.5589 181.437 24.4196C181.575 24.2889 181.738 24.1891 181.916 24.1264C182.104 24.064 182.302 24.0343 182.501 24.0385C182.697 24.0343 182.892 24.064 183.079 24.1264C183.257 24.1836 183.42 24.2813 183.557 24.4123C183.689 24.5465 183.792 24.7092 183.856 24.8886C183.928 25.1008 183.964 25.3237 183.963 25.5482V26.1125H181.723C181.716 26.2267 181.731 26.3411 181.766 26.4497C181.802 26.5566 181.86 26.6542 181.937 26.7355C182.019 26.8099 182.115 26.8665 182.22 26.9018C182.324 26.937 182.434 26.9503 182.543 26.9407C182.717 26.9477 182.891 26.9254 183.057 26.8747C183.225 26.8254 183.385 26.7539 183.535 26.6622L183.863 27.2265ZM183.221 25.5116V25.365C183.232 25.2774 183.232 25.1887 183.221 25.1012C183.196 25.0185 183.152 24.9432 183.093 24.8813C183.027 24.8154 182.95 24.7631 182.864 24.7274C182.757 24.6884 182.643 24.671 182.529 24.6761C182.425 24.6625 182.32 24.6751 182.222 24.7127C182.13 24.7438 182.046 24.7954 181.976 24.8638C181.905 24.9322 181.851 25.0158 181.816 25.1085C181.784 25.195 181.769 25.2872 181.773 25.3797V25.5116H183.221Z" fill="#00823A"/>
<path d="M186.575 24.808C186.518 24.783 186.458 24.7658 186.397 24.7567C186.316 24.7492 186.235 24.7492 186.154 24.7567C186.056 24.7541 185.959 24.7741 185.869 24.8154C185.781 24.8522 185.7 24.9069 185.633 24.9761C185.566 25.0453 185.512 25.1277 185.477 25.2184C185.436 25.3156 185.417 25.4206 185.419 25.5262V27.5636H184.663V24.1265H185.377V24.5735C185.457 24.406 185.577 24.2623 185.726 24.1558C185.898 24.0429 186.101 23.989 186.304 24.0019H186.561L186.775 24.0532L186.575 24.808Z" fill="#00823A"/>
<defs>
<linearGradient id="paint0_linear_201_2795" x1="4.68487" y1="25.123" x2="-2.0164" y2="18.6772" gradientUnits="userSpaceOnUse">
<stop stop-color="#C22929"/>
<stop offset="1" stop-color="#D55351"/>
</linearGradient>
<linearGradient id="paint1_linear_201_2795" x1="9.558" y1="22.3747" x2="-3.14875" y2="10.1534" gradientUnits="userSpaceOnUse">
<stop offset="0.05" stop-color="#F4B015"/>
<stop offset="1" stop-color="#FFDC00"/>
</linearGradient>
<linearGradient id="paint2_linear_201_2795" x1="13.1255" y1="26.0612" x2="1.88524" y2="-3.65977" gradientUnits="userSpaceOnUse">
<stop stop-color="#0972AF"/>
<stop offset="1" stop-color="#1DADE5"/>
</linearGradient>
<linearGradient id="paint3_linear_201_2795" x1="20.0965" y1="27.197" x2="6.62826" y2="14.2485" gradientUnits="userSpaceOnUse">
<stop stop-color="#006535"/>
<stop offset="0.97" stop-color="#008B3E"/>
</linearGradient>
</defs>
</svg>
