<svg width="188" height="59" viewBox="0 0 188 59" fill="none" xmlns="http://www.w3.org/2000/svg">
<g clip-path="url(#clip0_201_1736)">
<path d="M4.83008 33.2893V0.97168H15.9561C16.6725 0.97168 28.6081 1.25771 28.6081 14.3206V30.2076C20.5557 28.6751 12.2232 29.755 4.83008 33.2893V33.2893Z" fill="#006282"/>
<path d="M0.803711 40.1031C11.8008 31.7091 27.8128 31.5804 39.7483 38.1297V14.3206C39.7483 1.25771 51.6552 0.97883 52.4003 0.97168H63.5263V35.2912C63.5263 54.5959 51.777 58.9788 43.2301 58.9788C36.9399 44.4717 19.1584 35.5915 0.803711 40.1031Z" fill="#006282"/>
<path d="M84.5097 40.11H81.8589V36.6853H80.5264V44.879H81.8589V41.2611H84.5097V44.879H85.8494V36.6853H84.5097V40.11ZM90.6995 36.5351C90.3293 36.4949 89.9548 36.5377 89.6033 36.6604C89.2519 36.7831 88.9323 36.9826 88.6679 37.2444C88.4036 37.5061 88.2012 37.8236 88.0755 38.1734C87.9498 38.5232 87.9039 38.8966 87.9413 39.2664V41.869C87.9413 44.0783 88.7939 45.0649 90.6995 45.0649C92.6052 45.0649 93.4578 44.0783 93.4578 41.869V39.2449C93.4952 38.8752 93.4493 38.5017 93.3236 38.1519C93.1979 37.8021 92.9955 37.4848 92.7311 37.223C92.4668 36.9612 92.1472 36.7617 91.7957 36.6389C91.4442 36.5162 91.0697 36.4735 90.6995 36.5137V36.5351ZM92.1324 41.9118C92.1324 43.6206 91.6166 43.9495 90.6995 43.9495C89.7825 43.9495 89.2667 43.6206 89.2667 41.9118V39.2449C89.2667 37.9436 90.0333 37.672 90.6995 37.672C91.3658 37.672 92.1324 37.9436 92.1324 39.2449V41.9118ZM100.357 43.0772L97.3121 36.7067H95.5927V44.9005H96.8034V38.4656L99.8912 44.9005H101.575V36.7067H100.35L100.357 43.0772ZM105.623 36.7067L102.886 44.9005H104.247L104.87 43.0129H107.894C107.951 43.1845 108.495 44.9005 108.495 44.9005H109.978L107.17 36.7067H105.623ZM105.221 41.8618C105.307 41.5758 106.174 38.7873 106.353 38.1867C106.54 38.7873 107.428 41.5758 107.521 41.8618H105.221ZM115.208 43.0844C114.993 42.4195 113.188 36.7067 113.188 36.7067H111.203V44.9005H112.464V38.4656C112.858 39.6596 114.549 44.9005 114.549 44.9005H115.746L117.895 38.4656V44.9005H119.227V36.7067H117.236C117.236 36.7067 115.387 42.398 115.18 43.0629L115.208 43.0844ZM128.484 41.9118C128.484 43.6206 127.961 43.9495 127.051 43.9495C126.141 43.9495 125.618 43.6206 125.618 41.9118V36.7067H124.285V41.869C124.285 44.0783 125.138 45.0649 127.044 45.0649C128.949 45.0649 129.802 44.0783 129.802 41.869V36.7067H128.469L128.484 41.9118ZM136.694 43.0772C136.285 42.2336 133.642 36.7067 133.642 36.7067H131.908V44.9005H133.126V38.4656C133.534 39.3093 136.221 44.9005 136.221 44.9005H137.897V36.7067H136.687L136.694 43.0772ZM140.168 44.9005H141.501V36.7067H140.168V44.9005ZM146.129 43.3489L144.316 36.7067H142.884L145.384 44.9005H146.853L149.374 36.7067H147.956C147.956 36.7067 146.308 42.5696 146.1 43.3275L146.129 43.3489ZM151.925 41.2826H154.934V40.1315H151.925V37.8149H155.156V36.671H150.535V44.8647H155.17V43.7208H151.896L151.925 41.2826ZM161.79 42.7126C161.747 41.3899 161.475 40.8822 160.715 40.6463C161.089 40.5176 161.412 40.2722 161.635 39.9464C161.858 39.6206 161.97 39.2318 161.955 38.8374C161.977 38.5517 161.936 38.2646 161.835 37.9962C161.735 37.7278 161.577 37.4847 161.372 37.2838C161.167 37.0828 160.921 36.9289 160.65 36.833C160.38 36.737 160.091 36.7012 159.805 36.7281H156.789V44.9219H158.129V41.2755H159.239C159.691 41.2755 160.3 41.3684 160.364 42.162L160.414 43.0629C160.392 43.674 160.489 44.2836 160.701 44.8576L160.744 44.9219H162.119L162.062 44.7431C161.899 44.0626 161.798 43.3686 161.761 42.6697L161.79 42.7126ZM159.598 40.1315H158.165V37.8149H159.634C159.772 37.811 159.909 37.8367 160.037 37.8904C160.165 37.9441 160.279 38.0246 160.373 38.1263C160.467 38.2279 160.537 38.3485 160.58 38.4798C160.623 38.6111 160.638 38.7501 160.622 38.8874C160.565 39.4523 160.307 40.0886 159.569 40.0886L159.598 40.1315ZM166.568 40.2101C165.745 39.7954 165.028 39.4451 165.028 38.7373C165.027 38.5919 165.057 38.448 165.116 38.315C165.175 38.1819 165.261 38.0628 165.37 37.9656C165.478 37.8683 165.606 37.7951 165.744 37.7506C165.883 37.7062 166.03 37.6915 166.174 37.7077C166.329 37.6942 166.484 37.7113 166.631 37.7579C166.779 37.8046 166.916 37.8798 167.034 37.9794C167.259 38.2727 167.362 38.6417 167.321 39.009V39.1448H168.696V39.0162C168.733 38.6936 168.703 38.3669 168.61 38.056C168.516 37.7451 168.36 37.4564 168.152 37.2072C167.895 36.975 167.594 36.7974 167.266 36.6855C166.938 36.5737 166.591 36.5298 166.246 36.5565C164.677 36.5565 163.667 37.4574 163.667 38.8445C163.667 40.2316 164.813 40.7821 165.816 41.2826C166.662 41.6973 167.392 42.0619 167.392 42.7912C167.392 43.5205 166.934 43.9424 166.038 43.9424C165.867 43.9571 165.694 43.9337 165.532 43.8738C165.37 43.814 165.224 43.7191 165.103 43.596C164.983 43.473 164.891 43.3248 164.835 43.1622C164.778 42.9995 164.759 42.8265 164.777 42.6554V42.2908H163.431V42.4266C163.39 42.7841 163.422 43.1463 163.524 43.4914C163.626 43.8365 163.796 44.1576 164.025 44.4357C164.293 44.6748 164.608 44.8561 164.949 44.9681C165.291 45.08 165.652 45.1203 166.01 45.0864C167.758 45.0864 168.732 44.257 168.732 42.7484C168.732 41.2398 167.571 40.6749 166.54 40.1673L166.568 40.2101ZM170.745 44.9219H172.028V36.7281H170.695L170.745 44.9219ZM173.46 37.8149H175.66V44.8647H177.043V37.8149H179.192V36.671H173.46V37.8149ZM184.207 36.671L182.609 40.2959C182.401 39.7954 181.069 36.671 181.069 36.671H179.579L181.907 41.7688V44.8647H183.24V41.7116L185.503 36.8569L185.589 36.671H184.207Z" fill="#006282"/>
<path d="M116.864 8.093H112.687V8.90801H112.902C113.289 8.90801 113.511 9.53724 113.511 10.6455V17.874C112.194 18.149 110.851 18.2833 109.506 18.2745H103.094V9.69457H98.8959V10.5167H99.1108C99.4977 10.5167 99.727 11.146 99.727 12.2542V19.6186C99.7424 19.7909 99.8198 19.9517 99.945 20.0714C100.07 20.191 100.234 20.2613 100.408 20.2692H109.191C110.643 20.2652 112.089 20.0681 113.489 19.683V21.9495H116.864V15.2643H120.145V13.2481H116.864V8.093ZM148.916 25.5745H160.379V32.2024H163.66L163.703 23.5653H148.916V25.5745ZM163.854 8.093H159.706V8.90801H159.921C160.315 8.90801 160.53 9.53724 160.53 10.6455V22.6859H163.854V15.2858H167.092V13.2695H163.854V8.093ZM181.915 24.5378V24.7737H184.501L184.551 24.6236C185.11 22.9147 185.554 14.2991 185.576 9.32992V9.11539H169.363V11.1531H182.165C182.165 15.7362 182.058 22.9862 181.915 24.5592V24.5378ZM180.382 27.8196V19.3683H176.47V20.1763H176.685C177.072 20.1763 177.294 20.8126 177.294 21.9209V27.841H174.844V19.3683H170.925V20.1763H171.14C171.534 20.1763 171.756 20.8126 171.756 21.9209V27.841H167.207V29.8859H187.789V27.841L180.382 27.8196ZM102.335 23.7227H102.55C102.937 23.7227 103.166 24.359 103.166 25.46V31.3802C103.166 31.5698 103.241 31.7517 103.376 31.8858C103.51 32.0199 103.692 32.0952 103.882 32.0952H116.778V22.9576H102.335V23.7227ZM106.483 24.9238H113.382V30.036H106.483V24.9238ZM137.64 8.90801H137.855C138.249 8.90801 138.471 9.53724 138.471 10.6455V16.3654H136.207V8.08584H132.317V8.90094H132.532C132.826 8.90094 133.026 9.25837 133.105 9.90902C133.105 10.0878 133.105 10.2737 133.105 10.4596V22.4858C131.788 22.7578 130.445 22.892 129.1 22.8861H125.762V11.7466H130.118V9.72311H121.585V10.5382H121.8C122.187 10.5382 122.409 11.1746 122.409 12.2757V24.2303C122.409 24.4199 122.484 24.6018 122.619 24.7359C122.753 24.87 122.935 24.9453 123.125 24.9453H128.857C130.309 24.949 131.755 24.7541 133.155 24.3661V32.3669H136.207V18.4246H138.464V32.3669H141.523V8.10007H137.64V8.90801ZM89.0523 24.1159C90.5481 23.7658 91.8831 22.9255 92.8442 21.7292C93.8052 20.5329 94.3367 19.0497 94.3538 17.5165C94.3589 16.5686 94.148 15.632 93.7372 14.7774C93.3264 13.9227 92.7264 13.1724 91.9825 12.5831H96.2093V10.5382H89.1025V7.72119H84.8039V8.53629H85.0189C85.4057 8.53629 85.6278 9.17258 85.6278 10.2737V10.5382H78.5209V12.5831H82.6403C81.8964 13.1724 81.2964 13.9227 80.8856 14.7774C80.4748 15.632 80.2639 16.5686 80.269 17.5165C80.2866 19.069 80.8311 20.5696 81.8135 21.7734C82.7959 22.9772 84.1582 23.8131 85.678 24.1445V27.841H76.5938V29.8859H98.158V27.841H89.0523V24.1159ZM83.4571 17.5165C83.4571 14.8282 85.1908 12.6475 87.3257 12.6475C89.4607 12.6475 91.1872 14.7924 91.1872 17.5165C91.1872 20.2406 89.4535 22.3856 87.3257 22.3856C85.198 22.3856 83.4571 20.2049 83.4571 17.5165ZM157.564 16.3654C157.565 15.6224 157.39 14.8896 157.051 14.228C156.712 13.5664 156.22 12.9952 155.615 12.5617H158.044V10.5454H153.143V7.99289H148.845V8.80799H149.06C149.447 8.80799 149.676 9.43713 149.676 10.5454H144.747V12.5617H147.197C146.592 12.9952 146.1 13.5664 145.761 14.228C145.422 14.8896 145.246 15.6224 145.248 16.3654C145.248 19.4041 147.999 21.8708 151.402 21.8708C154.805 21.8708 157.564 19.3755 157.564 16.3654ZM148.608 16.3654C148.608 14.392 149.862 12.7904 151.417 12.7904C152.971 12.7904 154.218 14.3777 154.218 16.3654C154.218 18.3531 152.964 19.9403 151.417 19.9403C149.869 19.9403 148.608 18.2959 148.608 16.3654Z" fill="#006282"/>
</g>
<defs>
<clipPath id="clip0_201_1736">
<rect width="187" height="58" fill="white" transform="translate(0.789062 0.97168)"/>
</clipPath>
</defs>
</svg>
