<svg width="183" height="36" viewBox="0 0 183 36" fill="none" xmlns="http://www.w3.org/2000/svg">
<g clip-path="url(#clip0_201_2247)">
<path d="M70.0987 23.0327V24.5612L71.0649 23.0327H71.8851L70.8633 24.6719L72.0033 26.8506H71.1483L70.3698 25.2875L70.0918 25.7163V26.8506H69.3271V23.0327H70.0987Z" fill="#1D1D1B"/>
<path d="M72.7885 25.4119C72.7885 24.824 72.7885 24.4021 73.1777 24.4021C73.567 24.4021 73.5739 24.6995 73.5739 25.4119C73.5739 26.1243 73.4766 26.4217 73.1777 26.4217C72.8788 26.4217 72.7885 25.9998 72.7885 25.4119ZM72.0586 25.4119C72.0586 26.4148 72.3019 26.9405 73.1777 26.9266C74.0536 26.9128 74.3038 26.394 74.3038 25.4119C74.3038 24.4298 74.0605 23.8834 73.1777 23.8972C72.2949 23.9111 72.0586 24.4298 72.0586 25.4119Z" fill="#1D1D1B"/>
<path d="M74.6926 23.9735H75.3877V24.3608C75.4412 24.2285 75.532 24.1143 75.6491 24.0321C75.7663 23.9499 75.9048 23.9032 76.0481 23.8975H76.1801V24.5891H75.9508C75.8792 24.583 75.8072 24.5923 75.7396 24.6164C75.6719 24.6404 75.6103 24.6787 75.5589 24.7286C75.5075 24.7784 75.4674 24.8387 75.4415 24.9054C75.4155 24.972 75.4043 25.0434 75.4086 25.1148V26.8369H74.6787L74.6926 23.9735Z" fill="#1D1D1B"/>
<path d="M77.0775 25.0871V24.9764C77.0775 24.7066 77.1679 24.4023 77.4598 24.4023C77.7518 24.4023 77.8143 24.6513 77.8282 25.094L77.0775 25.0871ZM78.5233 25.5228V25.3568C78.5233 24.4784 78.3357 23.8975 77.4807 23.8975C76.5006 23.8975 76.3477 24.5891 76.3477 25.3845C76.3477 26.1799 76.3894 26.9269 77.4529 26.9269C78.148 26.9269 78.4538 26.5534 78.4816 25.8825H77.8282C77.7865 26.2352 77.6823 26.422 77.439 26.422C77.1957 26.422 77.0775 26.09 77.0775 25.7303V25.4951L78.5233 25.5228Z" fill="#1D1D1B"/>
<path d="M80.2326 25.9793C80.2345 26.0386 80.2242 26.0976 80.2021 26.1526C80.18 26.2077 80.1467 26.2576 80.1042 26.2992C80.0617 26.3408 80.0111 26.3732 79.9554 26.3943C79.8997 26.4154 79.8403 26.4249 79.7807 26.422C79.5861 26.422 79.5096 26.2421 79.5096 26.0208C79.5096 25.7994 79.6278 25.6197 79.9198 25.5574C80.033 25.531 80.1395 25.4815 80.2326 25.4121V25.9793ZM79.5374 24.8589V24.7759C79.5303 24.7287 79.5336 24.6805 79.5473 24.6348C79.5609 24.5891 79.5845 24.5469 79.6163 24.5113C79.6481 24.4756 79.6875 24.4474 79.7315 24.4286C79.7755 24.4098 79.8232 24.4008 79.8711 24.4023C80.1213 24.4023 80.2117 24.5338 80.2117 24.7551C80.2117 24.9764 80.1422 25.0317 79.9198 25.094L79.5096 25.2047C79.2985 25.234 79.1073 25.3446 78.9773 25.5128C78.8472 25.6809 78.7888 25.8931 78.8145 26.1038C78.8145 26.4911 78.9953 26.9269 79.5096 26.9269C79.6554 26.9497 79.8047 26.9259 79.9359 26.8587C80.0671 26.7916 80.1734 26.6846 80.2395 26.5533C80.2558 26.6561 80.2862 26.7562 80.3299 26.8508H81.025C80.9499 26.6765 80.9189 26.4865 80.9346 26.2974V24.7828C80.9346 24.2641 80.7678 23.8975 79.8989 23.8975C79.3498 23.8975 78.8979 24.1256 78.8979 24.7896V24.8589H79.5374Z" fill="#1D1D1B"/>
<path d="M82.8115 26.8506V23.0327H83.5761V26.8506H82.8115Z" fill="#1D1D1B"/>
<path d="M84.0841 23.9735H84.7792V24.3124C84.8501 24.1826 84.956 24.075 85.0849 24.0017C85.2138 23.9284 85.3607 23.8923 85.5091 23.8974C85.9609 23.8974 86.2042 24.1533 86.2042 24.7205V26.8508H85.4743V24.8658C85.4743 24.5753 85.377 24.4646 85.1615 24.4646C84.946 24.4646 84.7723 24.6237 84.7723 24.9418V26.8508H84.0771L84.0841 23.9735Z" fill="#1D1D1B"/>
<path d="M87.2677 25.9102V26.0069C87.2605 26.0601 87.2651 26.1143 87.2813 26.1656C87.2975 26.2168 87.3247 26.2638 87.3612 26.3034C87.3977 26.343 87.4425 26.3741 87.4923 26.3946C87.5422 26.4151 87.5961 26.4245 87.65 26.422C87.6977 26.4294 87.7464 26.426 87.7926 26.412C87.8388 26.398 87.8812 26.3739 87.9167 26.3413C87.9521 26.3087 87.9797 26.2685 87.9973 26.2237C88.0149 26.179 88.0221 26.131 88.0184 26.0831C88.0185 26.007 87.9923 25.9331 87.9442 25.8739C87.8961 25.8148 87.829 25.7738 87.7542 25.7579L87.2399 25.5712C87.0618 25.5269 86.9045 25.423 86.7944 25.2769C86.6843 25.1308 86.628 24.9514 86.6351 24.7689C86.6351 24.2917 86.9271 23.8975 87.6778 23.8975C88.4285 23.8975 88.6509 24.2017 88.6509 24.7205V24.8381H87.9975C87.9975 24.5476 87.9141 24.4023 87.6778 24.4023C87.6339 24.3975 87.5894 24.4019 87.5474 24.4153C87.5053 24.4288 87.4666 24.4509 87.4338 24.4803C87.4009 24.5097 87.3747 24.5457 87.3569 24.5859C87.339 24.6261 87.3299 24.6696 87.3302 24.7136C87.3302 24.8519 87.4067 24.9695 87.65 25.0525L88.0879 25.1978C88.2768 25.233 88.446 25.3366 88.5628 25.4885C88.6796 25.6405 88.7357 25.8301 88.7204 26.0208C88.7204 26.6294 88.2756 26.9269 87.6569 26.9269C86.8367 26.9269 86.6143 26.5602 86.6143 26.0138V25.9102H87.2677Z" fill="#1D1D1B"/>
<path d="M89.2418 23.1504H89.9717V23.9735H90.3957V24.4784H89.9717V26.0346C89.9717 26.2559 90.0203 26.3458 90.2288 26.3458H90.3957V26.8577C90.2358 26.8577 90.0898 26.8577 89.9161 26.8577C89.3461 26.8577 89.2209 26.6778 89.2209 26.0968V24.4853H88.8525V23.9804H89.2209L89.2418 23.1504Z" fill="#1D1D1B"/>
<path d="M90.6738 23.9734H91.4037V26.8506H90.6738V23.9734ZM90.6738 22.9912H91.4037V23.6206H90.6738V22.9912Z" fill="#1D1D1B"/>
<path d="M92.0776 23.1504H92.7727V23.9735H93.2384V24.4784H92.8144V26.0346C92.8144 26.2559 92.8631 26.3458 93.0716 26.3458H93.2384V26.8577C93.0786 26.8577 92.9326 26.8577 92.7588 26.8577C92.1888 26.8577 92.0637 26.6778 92.0637 26.0968V24.4853H91.6953V23.9804H92.0637L92.0776 23.1504Z" fill="#1D1D1B"/>
<path d="M94.9488 26.5115C94.8824 26.6375 94.7824 26.7428 94.6598 26.816C94.5372 26.8892 94.3967 26.9275 94.2537 26.9265C93.7949 26.9265 93.5586 26.6774 93.5586 26.1103V23.9731H94.2537V25.9582C94.2537 26.2486 94.3441 26.3593 94.5595 26.3593C94.775 26.3593 94.9488 26.2072 94.9488 25.8821V23.9731H95.6787V26.8504H94.9836L94.9488 26.5115Z" fill="#1D1D1B"/>
<path d="M96.2896 23.1504H97.0195V23.9735H97.4435V24.4784H97.0195V26.0346C97.0195 26.2559 97.0682 26.3458 97.2767 26.3458H97.4435V26.8577C97.2837 26.8577 97.1377 26.8577 96.9639 26.8577C96.3939 26.8577 96.2688 26.6778 96.2688 26.0968V24.4853H95.9004V23.9804H96.2688L96.2896 23.1504Z" fill="#1D1D1B"/>
<path d="M98.3197 25.0871V24.9764C98.3197 24.7066 98.4101 24.4023 98.6951 24.4023C98.9801 24.4023 99.0496 24.6513 99.0704 25.094L98.3197 25.0871ZM99.7655 25.5228V25.3568C99.7655 24.4784 99.5779 23.8975 98.7229 23.8975C97.7428 23.8975 97.5898 24.5891 97.5898 25.3845C97.5898 26.1799 97.6316 26.9269 98.6951 26.9269C99.3902 26.9269 99.696 26.5534 99.7238 25.8825H99.0704C99.0287 26.2352 98.9245 26.422 98.6812 26.422C98.4379 26.422 98.3197 26.09 98.3197 25.7303V25.4951L99.7655 25.5228Z" fill="#1D1D1B"/>
<path d="M102.052 25.4119C102.052 24.824 102.052 24.4021 102.441 24.4021C102.831 24.4021 102.838 24.6995 102.838 25.4119C102.838 26.1243 102.74 26.4217 102.441 26.4217C102.142 26.4217 102.052 25.9998 102.052 25.4119ZM101.322 25.4119C101.322 26.4148 101.566 26.9405 102.441 26.9266C103.317 26.9128 103.567 26.394 103.567 25.4119C103.567 24.4298 103.324 23.8834 102.441 23.8972C101.559 23.9111 101.322 24.4298 101.322 25.4119Z" fill="#1D1D1B"/>
<path d="M104.116 24.4852H103.748V23.9804H104.116V23.6553C104.116 23.1366 104.408 22.9637 104.881 22.9637C105.011 22.9568 105.141 22.9568 105.27 22.9637V23.4824H105.124C104.923 23.4824 104.846 23.5446 104.846 23.7106V23.9596H105.27V24.4645H104.846V26.8368H104.151L104.116 24.4852Z" fill="#1D1D1B"/>
<path d="M107.433 25.6611V25.7717C107.433 26.1314 107.53 26.3596 107.933 26.3596C107.995 26.3618 108.056 26.351 108.114 26.3278C108.171 26.3046 108.222 26.2697 108.265 26.2253C108.308 26.1809 108.341 26.1279 108.361 26.07C108.382 26.0121 108.39 25.9506 108.385 25.8894C108.385 25.5435 108.211 25.4121 107.69 25.2392C106.995 25.004 106.703 24.7205 106.703 24.0842C106.688 23.9295 106.709 23.7733 106.763 23.6275C106.817 23.4817 106.903 23.3498 107.015 23.2416C107.127 23.1334 107.262 23.0516 107.41 23.0023C107.558 22.953 107.716 22.9375 107.871 22.9568C108.566 22.9568 109.039 23.2542 109.039 23.9873V24.0911H108.343C108.343 23.7384 108.218 23.5239 107.933 23.5239C107.874 23.5171 107.813 23.524 107.756 23.5439C107.7 23.5639 107.648 23.5964 107.606 23.6391C107.564 23.6817 107.532 23.7334 107.513 23.7901C107.494 23.8469 107.488 23.9072 107.495 23.9666C107.495 24.2086 107.565 24.347 107.885 24.4922L108.475 24.7481C108.69 24.8122 108.876 24.9473 109.002 25.131C109.129 25.3147 109.188 25.5359 109.171 25.7579C109.171 26.5602 108.684 26.9268 107.857 26.9268C107.03 26.9268 106.654 26.5188 106.654 25.8133V25.6611H107.433Z" fill="#1D1D1B"/>
<path d="M110.915 25.0107C110.915 24.734 110.86 24.4366 110.581 24.4366C110.303 24.4366 110.164 24.7547 110.164 25.4187C110.164 26.0827 110.227 26.4216 110.561 26.4216C110.894 26.4216 110.915 26.2142 110.915 25.73H111.61C111.61 26.4839 111.297 26.9058 110.526 26.9058C109.754 26.9058 109.435 26.5461 109.435 25.3911C109.435 24.2361 109.914 23.8764 110.588 23.8764C110.733 23.8687 110.878 23.8932 111.012 23.9479C111.146 24.0026 111.266 24.0861 111.364 24.1926C111.462 24.2991 111.535 24.4259 111.577 24.5638C111.62 24.7016 111.631 24.8472 111.61 24.9899L110.915 25.0107Z" fill="#1D1D1B"/>
<path d="M112.006 23.9734H112.701V26.8506H112.006V23.9734ZM112.006 22.9912H112.701V23.6206H112.006V22.9912Z" fill="#1D1D1B"/>
<path d="M113.883 25.0871V24.9764C113.883 24.7066 113.974 24.4023 114.259 24.4023C114.544 24.4023 114.613 24.6513 114.634 25.094L113.883 25.0871ZM115.329 25.5228V25.3568C115.329 24.4784 115.141 23.8975 114.286 23.8975C113.306 23.8975 113.153 24.5891 113.153 25.3845C113.153 26.1799 113.195 26.9269 114.259 26.9269C114.954 26.9269 115.26 26.5534 115.287 25.8825H114.634C114.592 26.2352 114.488 26.422 114.245 26.422C114.001 26.422 113.883 26.09 113.883 25.7303V25.4951L115.329 25.5228Z" fill="#1D1D1B"/>
<path d="M115.712 23.9736H116.407V24.3124C116.473 24.1864 116.573 24.081 116.696 24.0078C116.818 23.9346 116.959 23.8965 117.102 23.8975C117.561 23.8975 117.832 24.1533 117.832 24.7205V26.8508H117.095V24.8658C117.095 24.5753 117.005 24.4646 116.789 24.4646C116.574 24.4646 116.4 24.6237 116.4 24.9419V26.8508H115.67L115.712 23.9736Z" fill="#1D1D1B"/>
<path d="M119.729 25.0108C119.729 24.7341 119.673 24.4367 119.402 24.4367C119.131 24.4367 118.985 24.7548 118.985 25.4188C118.985 26.0828 119.047 26.4217 119.374 26.4217C119.701 26.4217 119.729 26.2143 119.729 25.7301H120.424C120.424 26.484 120.111 26.9059 119.339 26.9059C118.568 26.9059 118.248 26.5462 118.248 25.3912C118.248 24.2362 118.735 23.8765 119.409 23.8765C120.083 23.8765 120.424 24.3122 120.424 24.99L119.729 25.0108Z" fill="#1D1D1B"/>
<path d="M121.432 25.0871V24.9764C121.432 24.7066 121.515 24.4023 121.807 24.4023C122.099 24.4023 122.162 24.6513 122.176 25.094L121.432 25.0871ZM122.878 25.5228V25.3568C122.878 24.4784 122.683 23.8975 121.835 23.8975C120.848 23.8975 120.702 24.5891 120.702 25.3845C120.702 26.1799 120.744 26.9269 121.8 26.9269C122.496 26.9269 122.808 26.5534 122.836 25.8825H122.176C122.134 26.2352 122.037 26.422 121.793 26.422C121.55 26.422 121.432 26.09 121.432 25.7303V25.4951L122.878 25.5228Z" fill="#1D1D1B"/>
<path d="M125.853 25.9793C125.855 26.038 125.844 26.0964 125.823 26.151C125.801 26.2055 125.768 26.2551 125.727 26.2966C125.685 26.3381 125.635 26.3706 125.58 26.3922C125.525 26.4137 125.467 26.4239 125.408 26.422C125.213 26.422 125.13 26.2421 125.13 26.0208C125.13 25.7994 125.248 25.6197 125.547 25.5574C125.658 25.5309 125.762 25.4814 125.853 25.4121V25.9793ZM125.158 24.8589V24.7759C125.152 24.7283 125.156 24.6801 125.17 24.6344C125.185 24.5887 125.209 24.5466 125.241 24.5111C125.274 24.4756 125.314 24.4475 125.358 24.4288C125.402 24.41 125.45 24.401 125.498 24.4023C125.741 24.4023 125.832 24.5338 125.832 24.7551C125.832 24.9764 125.762 25.0317 125.547 25.094L125.13 25.2047C124.919 25.234 124.727 25.3446 124.597 25.5128C124.467 25.6809 124.409 25.8931 124.435 26.1038C124.435 26.4911 124.615 26.9269 125.13 26.9269C125.27 26.9422 125.412 26.9146 125.536 26.8479C125.66 26.7812 125.761 26.6784 125.825 26.5533C125.848 26.6545 125.878 26.754 125.915 26.8508H126.61C126.535 26.6764 126.504 26.4864 126.52 26.2974V24.7828C126.52 24.2641 126.353 23.8975 125.484 23.8975C124.935 23.8975 124.49 24.1256 124.49 24.7896V24.8589H125.158Z" fill="#1D1D1B"/>
<path d="M127.076 23.9736H127.771V24.3124C127.837 24.1864 127.937 24.081 128.06 24.0078C128.182 23.9346 128.323 23.8965 128.466 23.8975C128.918 23.8975 129.161 24.1533 129.161 24.7205V26.8508H128.466V24.8658C128.466 24.5753 128.369 24.4646 128.153 24.4646C127.938 24.4646 127.771 24.6237 127.771 24.9419V26.8508H127.041L127.076 23.9736Z" fill="#1D1D1B"/>
<path d="M130.378 25.4119C130.378 24.7894 130.44 24.4644 130.76 24.4644C131.08 24.4644 131.149 24.7894 131.149 25.4119C131.149 26.0344 131.087 26.3595 130.76 26.3595C130.433 26.3595 130.378 26.0344 130.378 25.4119ZM131.177 26.8506H131.872V23.0327H131.177V24.2431C131.115 24.1365 131.026 24.0482 130.918 23.9874C130.811 23.9266 130.689 23.8956 130.565 23.8973C129.968 23.8973 129.689 24.3468 129.689 25.4119C129.689 26.4771 129.968 26.9267 130.565 26.9267C130.698 26.9315 130.83 26.8982 130.945 26.8308C131.059 26.7633 131.152 26.6646 131.212 26.5462V26.5462L131.177 26.8506Z" fill="#1D1D1B"/>
<path d="M135.869 23.0327V23.669H135.042V26.8506H134.284V23.669H133.457V23.0327H135.869Z" fill="#1D1D1B"/>
<path d="M136.412 25.0871V24.9764C136.412 24.7066 136.495 24.4023 136.787 24.4023C137.079 24.4023 137.141 24.6513 137.155 25.094L136.412 25.0871ZM137.85 25.5228V25.3568C137.85 24.4784 137.663 23.8975 136.808 23.8975C135.828 23.8975 135.675 24.5891 135.675 25.3845C135.675 26.1799 135.723 26.9269 136.78 26.9269C137.475 26.9269 137.788 26.5534 137.809 25.8825H137.155C137.114 26.2352 137.009 26.422 136.766 26.422C136.523 26.422 136.412 26.09 136.412 25.7303V25.4951L137.85 25.5228Z" fill="#1D1D1B"/>
<path d="M139.602 25.0107C139.602 24.734 139.553 24.4366 139.275 24.4366C138.997 24.4366 138.858 24.7547 138.858 25.4187C138.858 26.0827 138.92 26.4216 139.247 26.4216C139.574 26.4216 139.602 26.2142 139.602 25.73H140.297C140.297 26.4839 139.984 26.9058 139.212 26.9058C138.441 26.9058 138.121 26.5461 138.121 25.3911C138.121 24.2361 138.601 23.8764 139.275 23.8764C139.42 23.8687 139.564 23.8932 139.698 23.9479C139.833 24.0026 139.953 24.0861 140.051 24.1926C140.148 24.2991 140.221 24.4259 140.264 24.5638C140.306 24.7016 140.318 24.8472 140.297 24.9899L139.602 25.0107Z" fill="#1D1D1B"/>
<path d="M140.686 23.0327H141.416V24.2707C141.486 24.1503 141.587 24.0516 141.71 23.9857C141.833 23.9197 141.972 23.8891 142.111 23.8973C142.57 23.8973 142.806 24.1531 142.806 24.7203V26.8506H142.076V24.8656C142.076 24.5751 141.986 24.4644 141.764 24.4644C141.541 24.4644 141.381 24.6235 141.381 24.9417V26.8506H140.651L140.686 23.0327Z" fill="#1D1D1B"/>
<path d="M143.328 23.9732H144.023V24.3121C144.093 24.1818 144.199 24.0738 144.328 24.0004C144.457 23.927 144.604 23.8912 144.753 23.8971C145.205 23.8971 145.448 24.153 145.448 24.7201V26.8504H144.718V24.8654C144.718 24.5749 144.621 24.4642 144.405 24.4642C144.19 24.4642 144.016 24.6233 144.016 24.9415V26.8504H143.286L143.328 23.9732Z" fill="#1D1D1B"/>
<path d="M146.609 25.4119C146.609 24.824 146.644 24.4021 147.005 24.4021C147.366 24.4021 147.394 24.6995 147.394 25.4119C147.394 26.1243 147.297 26.4217 147.005 26.4217C146.713 26.4217 146.609 25.9998 146.609 25.4119ZM145.914 25.4119C145.914 26.4148 146.157 26.9405 147.04 26.9266C147.923 26.9128 148.159 26.394 148.159 25.4119C148.159 24.4298 147.916 23.8834 147.04 23.8972C146.164 23.9111 145.879 24.4298 145.879 25.4119H145.914Z" fill="#1D1D1B"/>
<path d="M148.541 23.0327H149.271V26.8506H148.541V23.0327Z" fill="#1D1D1B"/>
<path d="M150.425 25.4119C150.425 24.824 150.425 24.4021 150.815 24.4021C151.204 24.4021 151.204 24.6995 151.204 25.4119C151.204 26.1243 151.113 26.4217 150.815 26.4217C150.516 26.4217 150.425 25.9998 150.425 25.4119ZM149.688 25.4119C149.688 26.4148 149.939 26.9405 150.815 26.9266C151.69 26.9128 151.934 26.394 151.934 25.4119C151.934 24.4298 151.69 23.8834 150.815 23.8972C149.939 23.9111 149.688 24.4298 149.688 25.4119Z" fill="#1D1D1B"/>
<path d="M153.018 25.502C153.018 24.7274 153.08 24.4646 153.4 24.4646C153.72 24.4646 153.782 24.7274 153.782 25.426C153.782 25.917 153.692 26.256 153.386 26.256C153.08 26.256 153.018 25.8686 153.018 25.502ZM153.782 23.9735V24.2986C153.736 24.1813 153.656 24.0804 153.552 24.0089C153.448 23.9374 153.325 23.8986 153.198 23.8975C152.406 23.8975 152.302 24.6928 152.302 25.3637C152.302 26.422 152.594 26.8162 153.178 26.8162C153.3 26.8102 153.418 26.775 153.523 26.7136C153.629 26.6522 153.718 26.5663 153.782 26.4634V26.8439C153.782 27.1413 153.678 27.3626 153.379 27.3626C153.292 27.3627 153.207 27.3361 153.136 27.2865C153.101 27.2616 153.072 27.2283 153.052 27.1897C153.033 27.1511 153.024 27.1083 153.025 27.0652H152.33C152.33 27.5562 152.677 27.8329 153.296 27.8329C154.144 27.8329 154.477 27.4663 154.477 26.7055V23.9389L153.782 23.9735Z" fill="#1D1D1B"/>
<path d="M155.026 27.2516H155.214C155.485 27.2516 155.582 27.0995 155.61 26.8436L154.804 23.9663H155.568L155.992 25.9582L156.368 23.9663H157.098L156.402 26.6499C156.145 27.6458 155.985 27.7842 155.304 27.7842H155.012L155.026 27.2516Z" fill="#1D1D1B"/>
<path d="M158.703 26.8506V23.0327H159.461V26.8506H158.703Z" fill="#1D1D1B"/>
<path d="M160.01 23.9736H160.706V24.3124C160.772 24.1864 160.872 24.081 160.995 24.0078C161.117 23.9346 161.258 23.8965 161.401 23.8975C161.859 23.8975 162.131 24.1533 162.131 24.7205V26.8508H161.394V24.8658C161.394 24.5753 161.303 24.4646 161.088 24.4646C160.872 24.4646 160.699 24.6237 160.699 24.9419V26.8508H159.969L160.01 23.9736Z" fill="#1D1D1B"/>
<path d="M162.812 24.4852H162.443V23.9804H162.812V23.6553C162.812 23.1366 163.104 22.9637 163.576 22.9637C163.706 22.9568 163.836 22.9568 163.966 22.9637V23.4824H163.827C163.618 23.4824 163.542 23.5446 163.542 23.7106V23.9596H163.966V24.4645H163.542V26.8368H162.812V24.4852Z" fill="#1D1D1B"/>
<path d="M164.835 25.4119C164.835 24.824 164.87 24.4021 165.231 24.4021C165.592 24.4021 165.62 24.6995 165.62 25.4119C165.62 26.1243 165.523 26.4217 165.231 26.4217C164.939 26.4217 164.835 25.9998 164.835 25.4119ZM164.14 25.4119C164.14 26.4148 164.383 26.9405 165.266 26.9266C166.148 26.9128 166.385 26.394 166.385 25.4119C166.385 24.4298 166.142 23.8834 165.266 23.8972C164.39 23.9111 164.14 24.4298 164.14 25.4119Z" fill="#1D1D1B"/>
<path d="M166.76 23.9735H167.455V24.3608C167.509 24.229 167.6 24.1153 167.717 24.0332C167.834 23.9511 167.972 23.904 168.115 23.8975H168.248V24.5891H168.018C167.947 24.583 167.875 24.5923 167.807 24.6164C167.739 24.6404 167.678 24.6787 167.626 24.7286C167.575 24.7784 167.535 24.8387 167.509 24.9054C167.483 24.972 167.472 25.0434 167.476 25.1148V26.8369H166.746L166.76 23.9735Z" fill="#1D1D1B"/>
<path d="M168.526 23.9735H169.221V24.2709C169.294 24.1541 169.397 24.0582 169.519 23.9928C169.641 23.9273 169.778 23.8945 169.916 23.8975C170.063 23.8859 170.21 23.9259 170.33 24.0105C170.451 24.0951 170.538 24.219 170.576 24.3608C170.626 24.2189 170.721 24.0971 170.846 24.0135C170.971 23.9299 171.121 23.8891 171.271 23.8975C171.751 23.8975 171.967 24.2087 171.967 24.762V26.8369H171.237V24.8242C171.237 24.5891 171.153 24.4507 170.952 24.4507C170.75 24.4507 170.569 24.6168 170.569 24.9418V26.8369H169.84V24.8242C169.84 24.5891 169.756 24.4507 169.555 24.4507C169.353 24.4507 169.172 24.6168 169.172 24.9418V26.8369H168.442L168.526 23.9735Z" fill="#1D1D1B"/>
<path d="M173.871 25.9792C173.873 26.0385 173.863 26.0975 173.841 26.1526C173.819 26.2076 173.785 26.2575 173.743 26.2991C173.7 26.3407 173.65 26.3731 173.594 26.3942C173.538 26.4153 173.479 26.4248 173.419 26.4219C173.225 26.4219 173.148 26.242 173.148 26.0207C173.148 25.7994 173.26 25.6196 173.558 25.5573C173.672 25.531 173.778 25.4814 173.871 25.412V25.9792ZM173.176 24.8588V24.7758C173.176 24.5544 173.287 24.4023 173.51 24.4023C173.732 24.4023 173.85 24.5337 173.85 24.755C173.85 24.9763 173.774 25.0317 173.558 25.0939L173.148 25.2046C172.937 25.2339 172.746 25.3445 172.616 25.5127C172.486 25.6808 172.427 25.8931 172.453 26.1037C172.453 26.491 172.634 26.9268 173.148 26.9268C173.292 26.9487 173.439 26.9251 173.569 26.8593C173.699 26.7935 173.804 26.6889 173.871 26.5602V26.5602C173.888 26.663 173.918 26.7631 173.962 26.8576H174.657C174.585 26.6824 174.554 26.4931 174.566 26.3043V24.7895C174.566 24.2708 174.406 23.9043 173.538 23.9043C172.988 23.9043 172.537 24.1325 172.537 24.7965V24.8657L173.176 24.8588Z" fill="#1D1D1B"/>
<path d="M175.261 23.1504H175.956V23.9735H176.38V24.4784H175.956V26.0346C175.956 26.2559 176.005 26.3458 176.213 26.3458H176.38V26.8577C176.22 26.8577 176.074 26.8577 175.9 26.8577C175.33 26.8577 175.205 26.6778 175.205 26.0968V24.4853H174.837V23.9804H175.261V23.1504Z" fill="#1D1D1B"/>
<path d="M176.651 23.9734H177.381V26.8506H176.651V23.9734ZM176.651 22.9912H177.381V23.6206H176.651V22.9912Z" fill="#1D1D1B"/>
<path d="M178.549 25.4119C178.549 24.824 178.549 24.4021 178.945 24.4021C179.342 24.4021 179.335 24.6995 179.335 25.4119C179.335 26.1243 179.237 26.4217 178.945 26.4217C178.653 26.4217 178.549 25.9998 178.549 25.4119ZM177.819 25.4119C177.819 26.4148 178.063 26.9405 178.945 26.9266C179.828 26.9128 180.065 26.394 180.065 25.4119C180.065 24.4298 179.821 23.8834 178.945 23.8972C178.07 23.9111 177.819 24.4298 177.819 25.4119Z" fill="#1D1D1B"/>
<path d="M180.461 23.9736H181.156V24.3124C181.222 24.1864 181.322 24.081 181.445 24.0078C181.567 23.9346 181.708 23.8965 181.851 23.8975C182.303 23.8975 182.546 24.1533 182.546 24.7205V26.8508H181.816V24.8658C181.816 24.5753 181.719 24.4646 181.503 24.4646C181.288 24.4646 181.121 24.6237 181.121 24.9419V26.8508H180.426L180.461 23.9736Z" fill="#1D1D1B"/>
<path d="M129.057 12.5199C129.442 12.7141 129.845 12.8716 130.259 12.9902C130.385 13.0246 130.513 13.0523 130.642 13.0732L130.016 14.0069C130.016 14.0069 129.815 13.9586 129.467 13.8894C129.091 13.8131 128.721 13.7067 128.362 13.5712C127.695 13.3308 127.069 12.9903 126.506 12.5614C126.314 12.4127 126.137 12.246 125.978 12.0635C125.824 12.2422 125.657 12.4087 125.477 12.5614C124.911 12.9969 124.277 13.3379 123.6 13.5712C123.246 13.715 122.878 13.8239 122.502 13.8962C122.321 13.9216 122.143 13.9586 121.967 14.0069L121.32 13.0732C121.32 13.0732 121.543 13.0733 121.89 12.9419C122.227 12.8376 122.555 12.7057 122.87 12.5476C123.358 12.3299 123.803 12.0278 124.184 11.6553C124.58 11.2408 124.812 10.698 124.838 10.1268V9.67725H127.124V10.1407C127.16 10.7423 127.423 11.3081 127.861 11.7246C128.215 12.0511 128.618 12.3196 129.057 12.5199V12.5199Z" fill="#1D1D1B"/>
<path d="M133.464 12.727C133.196 13.1665 132.847 13.5514 132.435 13.8613C132.202 14.0395 131.953 14.1968 131.692 14.3316L131.268 14.5737L131.872 15.6112C132.292 15.4452 132.698 15.2486 133.089 15.0232C133.57 14.7692 134.018 14.458 134.423 14.0965C134.623 13.9074 134.811 13.7064 134.986 13.4947C135.14 13.7016 135.314 13.8918 135.508 14.0619C135.933 14.4399 136.399 14.7692 136.898 15.044C137.277 15.2585 137.669 15.448 138.073 15.6112L138.67 14.5875L138.219 14.3524C137.82 14.1316 137.451 13.862 137.12 13.55C136.788 13.2635 136.52 12.9098 136.335 12.5126C136.164 12.0258 136.077 11.5137 136.078 10.9979H138.059V9.96045H131.886V10.9771H133.867C133.894 11.5859 133.754 12.1905 133.464 12.727V12.727Z" fill="#1D1D1B"/>
<path d="M74.6092 11.1919C74.908 11.414 75.1468 11.7062 75.3044 12.0426C75.4953 12.4029 75.5955 12.804 75.5963 13.2114C75.5955 13.5888 75.5065 13.9608 75.3364 14.2981C75.1663 14.6354 74.9198 14.9287 74.6162 15.155C73.9274 15.6844 73.0815 15.9716 72.2111 15.9716C71.3407 15.9716 70.4949 15.6844 69.806 15.155C69.505 14.9273 69.2611 14.6333 69.0935 14.2961C68.9259 13.9589 68.839 13.5876 68.8398 13.2114C68.841 12.8093 68.9388 12.4133 69.1248 12.0564C69.2873 11.7092 69.5391 11.411 69.8547 11.1919H68.9094V10.1613H71.3214V9.1377H73.2746V10.1613H75.645V11.1919H74.6092ZM72.2528 11.1919C72.037 11.1892 71.8235 11.2365 71.6293 11.3301C71.435 11.4238 71.2654 11.5612 71.1337 11.7314C70.8608 12.0886 70.7186 12.5277 70.7305 12.9763C70.7188 13.4368 70.8743 13.8862 71.1685 14.2419C71.2987 14.4047 71.4641 14.5363 71.6524 14.6267C71.8408 14.7171 72.0472 14.764 72.2563 14.764C72.4654 14.764 72.6718 14.7171 72.8602 14.6267C73.0485 14.5363 73.214 14.4047 73.3442 14.2419C73.6485 13.8911 73.8097 13.4395 73.796 12.9763C73.8098 12.5252 73.662 12.084 73.3789 11.7314C73.2473 11.5612 73.0776 11.4238 72.8833 11.3301C72.6891 11.2365 72.4756 11.1892 72.2598 11.1919H72.2528ZM76.3401 9.67019H78.2655V12.1947H79.6974V13.3636H78.2655V17.4028H76.3401V9.67019ZM70.6124 16.5866H72.5031V19.5054H78.3211V20.5774H70.6124V16.5866Z" fill="#1D1D1B"/>
<path d="M88.505 9.85693V11.9941C88.5673 12.6774 88.3797 13.3601 87.9767 13.9169H89.214V14.989H85.3075V16.9117H88.505V20.8471H86.5795V17.9837H80.0316V16.9117H83.3681V14.989H79.4199V13.9169H86.0374C86.1918 13.4542 86.2807 12.9723 86.3015 12.4852V10.9982H80.0455V9.85693H88.505Z" fill="#1D1D1B"/>
<path d="M96.2689 13.2945C96.2689 15.6669 95.8171 16.1926 95.8171 16.1926H93.9333C94.2589 15.2737 94.4121 14.3031 94.3852 13.3291V11.026H89.8531V9.96084H96.262L96.2689 13.2945ZM92.9532 17.5205H97.0335V9.67725H98.959V14.8023H100.384V15.9643H98.959V20.8542H97.0335V18.5856H89.7627V17.5205H91.1529V13.4951H92.9463L92.9532 17.5205Z" fill="#1D1D1B"/>
<path d="M105.89 11.1919C106.19 11.4123 106.429 11.705 106.585 12.0426C106.776 12.4029 106.876 12.804 106.877 13.2114C106.876 13.5888 106.787 13.9608 106.617 14.2981C106.447 14.6354 106.2 14.9287 105.896 15.155C105.208 15.6844 104.362 15.9716 103.491 15.9716C102.621 15.9716 101.775 15.6844 101.086 15.155C100.786 14.9262 100.543 14.632 100.376 14.295C100.208 13.9581 100.121 13.5873 100.12 13.2114C100.121 12.8093 100.219 12.4133 100.405 12.0564C100.572 11.7121 100.823 11.4149 101.135 11.1919H100.19V10.1613H102.602V9.1377H104.555V10.1613H106.925V11.1919H105.89ZM103.533 11.1919C103.317 11.1892 103.104 11.2365 102.91 11.3301C102.715 11.4238 102.546 11.5612 102.414 11.7314C102.141 12.0886 101.999 12.5277 102.011 12.9763C101.999 13.4368 102.155 13.8862 102.449 14.2419C102.58 14.4068 102.747 14.5398 102.937 14.6309C103.127 14.722 103.336 14.7687 103.547 14.7676C103.755 14.7656 103.959 14.7174 104.146 14.6264C104.332 14.5355 104.496 14.4041 104.624 14.2419C104.929 13.8911 105.09 13.4395 105.076 12.9763C105.09 12.5252 104.942 12.084 104.659 11.7314C104.531 11.5596 104.362 11.421 104.169 11.3272C103.975 11.2333 103.762 11.1869 103.547 11.1919V11.1919H103.533ZM107.62 9.67019H109.546V12.0772H110.978V13.3912H109.546V15.9227H107.62V9.67019ZM109.546 20.8333H107.62V17.5688H101.677V16.5036H109.546V20.8333Z" fill="#1D1D1B"/>
<path d="M115.433 11.0259H111.165V9.96071H117.518C117.503 10.6154 117.452 11.2688 117.365 11.918C116.99 15.314 114.369 17.5342 111.513 18.5993L110.755 17.6103C110.755 17.6103 115.433 15.8259 115.433 11.6207V11.0259ZM118.429 9.64258H120.347V20.8125H118.422L118.429 9.64258Z" fill="#1D1D1B"/>
<path d="M121.043 15.4456V14.3735H130.844V15.4456H126.937V16.1856H130.142V18.9522H123.664V19.5539H130.225V20.6191H121.773V17.8525H128.216V17.2508H121.773V16.1856H125.012V15.4179L121.043 15.4456Z" fill="#1D1D1B"/>
<path d="M142.48 9.96045H144.398V11.5927H148.916V9.96045H150.842V15.6803H147.637V17.7553H151.544V18.8273H141.771V17.7553H145.712V15.6803H142.48V9.96045ZM148.916 12.6579H144.398V14.6152H148.916V12.6579Z" fill="#1D1D1B"/>
<path d="M159.969 14.3456H158.016V14.1727C157.708 14.5886 157.302 14.9234 156.834 15.1479C156.331 15.3972 155.776 15.5251 155.215 15.5214C154.334 15.5386 153.479 15.2222 152.823 14.6361C152.513 14.3706 152.264 14.0416 152.094 13.6715C151.923 13.3015 151.835 12.8992 151.835 12.492C151.835 12.0849 151.923 11.6826 152.094 11.3126C152.264 10.9425 152.513 10.6135 152.823 10.348C153.48 9.76443 154.335 9.45049 155.215 9.46957C155.767 9.4656 156.314 9.5862 156.813 9.82232C157.286 10.0482 157.698 10.3824 158.016 10.7975V10.6039H159.969V9.67009H161.895V17.4027H159.969V14.3456ZM154.13 11.2332C153.844 11.5978 153.689 12.047 153.689 12.5094C153.689 12.9717 153.844 13.4208 154.13 13.7854C154.256 13.9529 154.419 14.0888 154.606 14.1825C154.794 14.2761 155.001 14.3249 155.211 14.3249C155.421 14.3249 155.628 14.2761 155.816 14.1825C156.003 14.0888 156.166 13.9529 156.292 13.7854C156.588 13.4256 156.751 12.9747 156.751 12.5094C156.751 12.044 156.588 11.593 156.292 11.2332C156.162 11.0729 155.997 10.9436 155.81 10.8548C155.623 10.766 155.418 10.7199 155.211 10.7199C155.004 10.7199 154.799 10.766 154.612 10.8548C154.425 10.9436 154.261 11.0729 154.13 11.2332ZM158.572 12.1047C158.594 12.235 158.605 12.3669 158.607 12.499C158.605 12.615 158.594 12.7308 158.572 12.8448C158.559 12.9665 158.536 13.0868 158.502 13.2044H159.969V11.7313H158.496C158.579 11.8627 158.579 11.9871 158.579 12.1047H158.572ZM153.894 16.6004H155.798V19.4707H161.929V20.5428H153.915L153.894 16.6004Z" fill="#1D1D1B"/>
<path d="M171.549 9.96045V12.8031C171.605 13.5445 171.42 14.2843 171.021 14.9126H172.258V15.9985H168.31V20.84H166.384V15.9985H162.471V14.9126H169.095C169.443 14.2626 169.632 13.5396 169.644 12.8031C169.644 12.0008 169.644 11.0256 169.644 11.0256H163.11V9.96045H171.549Z" fill="#1D1D1B"/>
<path d="M137.822 12.9694H139.289V15.9296H141.214V9.68408H139.289V11.9043H137.822V12.9694Z" fill="#1D1D1B"/>
<path d="M140.262 16.5245C139.372 15.9267 138.31 15.6352 137.238 15.6946C136.16 15.6352 135.091 15.9265 134.194 16.5245C133.892 16.7379 133.647 17.02 133.477 17.3474C133.308 17.6747 133.22 18.0376 133.221 18.4058C133.22 18.769 133.309 19.1269 133.478 19.4486C133.648 19.7703 133.893 20.0462 134.194 20.2525C135.109 20.8044 136.158 21.0961 137.228 21.0961C138.298 21.0961 139.347 20.8044 140.262 20.2525C140.568 20.0498 140.82 19.7754 140.994 19.4534C141.169 19.1314 141.261 18.7716 141.263 18.4058C141.261 18.0351 141.169 17.6704 140.995 17.3428C140.821 17.0152 140.569 16.7344 140.262 16.5245V16.5245ZM138.733 19.5262C138.308 19.8658 137.78 20.051 137.235 20.051C136.69 20.051 136.162 19.8658 135.737 19.5262C135.576 19.3871 135.447 19.215 135.36 19.0215C135.272 18.8281 135.228 18.6179 135.23 18.4058C135.227 18.1905 135.271 17.9771 135.358 17.7802C135.446 17.5833 135.575 17.4075 135.737 17.2646C136.162 16.925 136.69 16.7399 137.235 16.7399C137.78 16.7399 138.308 16.925 138.733 17.2646C138.9 17.4043 139.034 17.5791 139.125 17.7764C139.217 17.9736 139.263 18.1886 139.261 18.4058C139.262 18.6199 139.216 18.8316 139.124 19.0255C139.033 19.2193 138.899 19.3904 138.733 19.5262V19.5262Z" fill="#1D1D1B"/>
<path d="M180.69 18.5095H182.615V9.67725H180.69V16.1441H178.834V17.2162H180.69V18.5095Z" fill="#1D1D1B"/>
<path d="M176.373 19.4776V17.6655H174.482V20.5428H182.789V19.4776H176.373Z" fill="#1D1D1B"/>
<path d="M173.683 13.4188C174.45 13.9158 175.355 14.158 176.269 14.1104C177.118 14.1476 177.96 13.9412 178.695 13.5156C178.957 13.3725 179.185 13.1748 179.364 12.9361C179.543 12.6974 179.668 12.4233 179.731 12.1324C179.793 11.8896 179.793 11.635 179.731 11.3923C179.669 11.1688 179.568 10.9582 179.432 10.7698C179.128 10.3637 178.719 10.046 178.25 9.8499C177.629 9.60663 176.965 9.48907 176.297 9.50408C175.383 9.45167 174.476 9.69424 173.711 10.1957C173.437 10.3754 173.213 10.6199 173.058 10.9072C172.902 11.1945 172.821 11.5156 172.821 11.8418C172.822 12.1552 172.901 12.4634 173.052 12.7387C173.202 13.014 173.419 13.2478 173.683 13.4188ZM175.073 10.9081C175.417 10.6446 175.842 10.5077 176.276 10.5209C176.706 10.5075 177.126 10.6445 177.465 10.9081C177.612 11.011 177.733 11.1477 177.816 11.3066C177.9 11.4654 177.944 11.6418 177.944 11.8211C177.94 11.9938 177.894 12.1631 177.81 12.3146C177.727 12.4662 177.608 12.5957 177.465 12.6925C177.13 12.9638 176.708 13.1062 176.276 13.0937C175.84 13.1065 175.414 12.9642 175.073 12.6925C174.934 12.5927 174.82 12.462 174.741 12.3108C174.661 12.1595 174.618 11.9918 174.615 11.8211C174.612 11.6439 174.651 11.4686 174.728 11.3089C174.805 11.1493 174.919 11.0097 175.06 10.9012L175.073 10.9081Z" fill="#1D1D1B"/>
<path d="M175.366 17.202H177.222V15.5143H180.051V14.4492H172.981V15.5143H175.366V17.202Z" fill="#1D1D1B"/>
<path d="M31.1168 26.8507H26.6611V15.3486H31.1168V26.8507Z" fill="#0075BF"/>
<path d="M51.1425 14.0208V26.8508H46.666V14.0208H43.1904V9.67725H54.6806V14.0208H51.1425Z" fill="#0075BF"/>
<path d="M60.6451 26.8507H56.1895V15.3486H60.6451V26.8507Z" fill="#0075BF"/>
<path d="M31.7002 11.7935C31.7015 12.3505 31.5368 12.8955 31.2267 13.3593C30.9167 13.8231 30.4754 14.185 29.9585 14.3991C29.4417 14.6132 28.8727 14.6699 28.3234 14.5621C27.7742 14.4542 27.2694 14.1867 26.8731 13.7933C26.4767 13.3999 26.2066 12.8984 26.0969 12.3521C25.9871 11.8059 26.0428 11.2394 26.2567 10.7247C26.4706 10.2099 26.8332 9.76989 27.2986 9.46026C27.764 9.15064 28.3112 8.98535 28.8711 8.98535C29.6202 8.98535 30.3387 9.28102 30.8691 9.80744C31.3994 10.3339 31.6983 11.0481 31.7002 11.7935V11.7935Z" fill="#0075BF"/>
<path d="M26.8555 29.9769C35.7528 26.4357 44.1428 21.7187 44.1428 18.219C44.1428 16.4414 42.982 15.3901 39.9721 15.0236C38.0328 14.7884 35.8015 15.0236 36.2186 13.2461C36.6356 11.4686 40.9383 9.98153 43.1349 9.69796V6.23975C37.2821 8.23859 32.0132 10.8184 32.0132 14.5878C32.0132 16.393 33.0975 18.2813 36.1838 18.551C39.138 18.8138 39.7567 19.623 39.7567 20.7435C39.7845 22.8945 34.2514 26.4357 26.8555 29.9769Z" fill="#D51317"/>
<path d="M61.2011 11.7935C61.2025 12.3508 61.0376 12.896 60.7272 13.36C60.4169 13.8239 59.9751 14.1858 59.4579 14.3997C58.9407 14.6136 58.3713 14.67 57.8218 14.5616C57.2724 14.4532 56.7677 14.185 56.3716 13.7909C55.9755 13.3968 55.7059 12.8945 55.597 12.3478C55.4881 11.8011 55.5447 11.2346 55.7597 10.72C55.9746 10.2053 56.3383 9.76568 56.8046 9.4569C57.2709 9.14811 57.8189 8.98399 58.379 8.98536C59.1269 8.98719 59.8437 9.28367 60.3725 9.80989C60.9014 10.3361 61.1993 11.0493 61.2011 11.7935V11.7935Z" fill="#0075BF"/>
<path d="M4.14686 32.8884C2.34653 29.6307 10.5696 22.3408 10.5696 22.3408C2.78444 27.9985 -0.197565 32.4181 1.07448 34.5483C2.54116 37.0175 11.3343 36.6647 24.6247 30.8757C13.9409 35.0117 5.47451 35.2884 4.14686 32.8884Z" fill="#0075BF"/>
<path d="M64.9684 1.75076C62.6051 -2.10169 49.6761 0.367475 32.208 9.35883C46.979 2.67756 60.0957 -0.0959423 62.612 3.3761C63.4322 4.51731 63.1333 6.75824 61.2218 9.60089C62.8692 7.96861 66.164 3.73577 64.9684 1.75076Z" fill="#0075BF"/>
<path d="M11.8135 26.8508V9.67725H16.2691V17.2853L20.0157 9.67725H25.1804L21.0097 17.4998L25.2986 26.8508H20.3355L16.2969 17.7003V26.8508H11.8135Z" fill="#0075BF"/>
<path d="M29.1562 30.4746H29.8514L30.185 32.4596L30.5395 30.4746H31.3736L31.742 32.4596L32.0827 30.4746H32.7778L32.173 33.2412H31.3736L30.9983 31.2492L30.6438 33.2412H29.8027L29.1562 30.4746Z" fill="#1D1D1B"/>
<path d="M32.8477 30.4746H33.5428L33.8695 32.4596L34.217 30.4746H35.0025L35.3778 32.4596L35.7185 30.4746H36.4136L35.8019 33.2412H34.9816L34.6063 31.2492L34.2518 33.2412H33.4594L32.8477 30.4746Z" fill="#1D1D1B"/>
<path d="M36.5312 30.4746H37.2264L37.56 32.4596L37.9076 30.4746H38.7L39.0684 32.4596L39.402 30.4746H40.0972L39.4855 33.2412H38.6652L38.2968 31.2492L37.9493 33.2412H37.1429L36.5312 30.4746Z" fill="#1D1D1B"/>
<path d="M40.9598 32.46V33.2761H40.2646V32.46H40.9598Z" fill="#1D1D1B"/>
<path d="M42.238 29.555V31.5193L42.9678 30.4749H43.7603L42.9539 31.5746L43.8854 33.276H43.086L42.4952 32.0933L42.2449 32.4322V33.2484H41.5498V29.5273L42.238 29.555Z" fill="#1D1D1B"/>
<path d="M44.1289 30.4746H44.824V33.2411H44.1289V30.4746ZM44.1289 29.5132H44.824V30.1288H44.1289V29.5132Z" fill="#1D1D1B"/>
<path d="M45.8877 32.3562V32.4531C45.8816 32.5058 45.887 32.5592 45.9037 32.6095C45.9204 32.6599 45.9478 32.7061 45.9842 32.7449C46.0205 32.7837 46.0649 32.8141 46.1142 32.8342C46.1636 32.8543 46.2167 32.8635 46.27 32.8611C46.3171 32.8674 46.3651 32.8632 46.4104 32.8487C46.4557 32.8342 46.4972 32.8098 46.5318 32.7774C46.5665 32.7449 46.5934 32.7052 46.6106 32.661C46.6278 32.6169 46.635 32.5695 46.6314 32.5222C46.6303 32.4483 46.6044 32.3768 46.5578 32.3192C46.5112 32.2615 46.4466 32.221 46.3742 32.2041L45.8668 32.0243C45.6905 31.9842 45.5336 31.8842 45.4233 31.7416C45.3129 31.599 45.2559 31.4226 45.2621 31.2427C45.2621 30.7793 45.554 30.3989 46.2978 30.3989C47.0415 30.3989 47.264 30.6893 47.264 31.1942V31.3119H46.6106C46.6106 31.0283 46.5272 30.89 46.2908 30.89C46.2478 30.8851 46.2043 30.8893 46.1631 30.9024C46.1219 30.9155 46.0839 30.9371 46.0517 30.9659C46.0195 30.9946 45.9938 31.0298 45.9763 31.0692C45.9588 31.1086 45.9499 31.1512 45.9502 31.1942C45.9502 31.3257 46.0267 31.4433 46.27 31.5194L46.7009 31.6646C46.8869 31.6968 47.0541 31.7968 47.1699 31.9452C47.2856 32.0936 47.3414 32.2797 47.3265 32.4669C47.3265 33.0548 46.8817 33.3453 46.2769 33.3453C45.4636 33.3453 45.2412 32.9926 45.2412 32.46V32.3562H45.8877Z" fill="#1D1D1B"/>
<path d="M47.8408 29.6724H48.5359V30.4747H48.9599V30.9588H48.5359V32.4805C48.5359 32.6949 48.5845 32.7848 48.7931 32.7848H48.9599V33.2827C48.8 33.2827 48.654 33.2827 48.4872 33.2827C47.9172 33.2827 47.7921 33.1168 47.7921 32.5427V30.938H47.4307V30.4539H47.7921L47.8408 29.6724Z" fill="#1D1D1B"/>
<path d="M49.2588 30.4746H49.9887V33.2411H49.2588V30.4746ZM49.2588 29.5132H49.9887V30.1288H49.2588V29.5132Z" fill="#1D1D1B"/>
<path d="M51.2264 32.46V33.2761H50.5312V32.46H51.2264Z" fill="#1D1D1B"/>
<path d="M51.7471 30.475H52.4422V30.8484C52.4965 30.7192 52.587 30.6082 52.7028 30.5285C52.8186 30.4489 52.9549 30.4039 53.0956 30.3989H53.2276V31.0906H52.9983C52.9282 31.0846 52.8577 31.0935 52.7915 31.1168C52.7252 31.1401 52.6647 31.1773 52.6141 31.2257C52.5634 31.2742 52.5237 31.3329 52.4977 31.3978C52.4716 31.4628 52.4598 31.5325 52.463 31.6024V33.283H51.7679L51.7471 30.475Z" fill="#1D1D1B"/>
<path d="M54.1106 31.5539V31.4433C54.1106 31.1874 54.194 30.89 54.486 30.89C54.7779 30.89 54.8335 31.1251 54.8474 31.5816L54.1106 31.5539ZM55.5425 31.9827V31.8237C55.5425 30.9591 55.3549 30.3989 54.5068 30.3989C53.5337 30.3989 53.3877 31.0905 53.3877 31.8444C53.3877 32.5983 53.4294 33.3453 54.479 33.3453C54.6163 33.3605 54.7553 33.3449 54.8857 33.2996C55.0162 33.2544 55.1348 33.1806 55.2328 33.0838C55.3308 32.9869 55.4058 32.8694 55.4522 32.7399C55.4986 32.6104 55.5152 32.4722 55.5008 32.3355H54.8474C54.8057 32.6744 54.7084 32.8611 54.4651 32.8611C54.2218 32.8611 54.1106 32.5361 54.1106 32.2041V31.9827H55.5425Z" fill="#1D1D1B"/>
<path d="M56.6551 32.46V33.2761H55.96V32.46H56.6551Z" fill="#1D1D1B"/>
<path d="M57.9272 29.5547V31.519L58.6223 30.4746H59.4148L58.6084 31.5743L59.5399 33.2757H58.7405L58.1358 32.1207L57.8855 32.4596V33.2757H57.1904V29.5547H57.9272Z" fill="#1D1D1B"/>
<path d="M59.79 30.475H60.4851V30.8484C60.5402 30.7197 60.6308 30.6092 60.7465 30.5296C60.8621 30.4501 60.9981 30.4047 61.1385 30.3989H61.2706V31.0906H61.0412C60.9712 31.0846 60.9007 31.0935 60.8345 31.1168C60.7682 31.1401 60.7077 31.1773 60.657 31.2257C60.6064 31.2742 60.5667 31.3329 60.5406 31.3978C60.5146 31.4628 60.5028 31.5325 60.506 31.6024V33.283H59.8109L59.79 30.475Z" fill="#1D1D1B"/>
</g>
<defs>
<clipPath id="clip0_201_2247">
<rect width="182" height="36" fill="white" transform="translate(0.789062 0.000976562)"/>
</clipPath>
</defs>
</svg>
