<svg width="187" height="32" viewBox="0 0 187 32" fill="none" xmlns="http://www.w3.org/2000/svg">
<g clip-path="url(#clip0_201_2026)">
<path d="M28.9472 0.587646L28.8905 0.692539C28.7298 0.99189 28.4885 1.24171 28.1931 1.41449C27.8977 1.58727 27.5596 1.67633 27.2161 1.67179H21.6397V0.587646H13.8356V1.67179H8.30893C7.9565 1.67107 7.6107 1.57724 7.30751 1.4001C7.00432 1.22297 6.75481 0.969006 6.58493 0.664576L6.54237 0.587646H1.36328V1.86762C1.36328 1.86762 3.35687 2.47617 3.35687 4.16885V6.12031H32.1398V4.16184C32.1398 2.51813 34.1263 1.88162 34.1263 1.88162V0.587646H28.9472Z" fill="#014898"/>
<path d="M17.7738 24.3061H3.471C3.41424 24.0473 3.59161 26.0197 6.1102 27.4186C8.29121 28.5916 10.676 29.3508 13.141 29.6569L13.3467 29.6919C15.1984 29.9786 16.894 30.3913 17.7951 31.0908L17.7738 24.3061Z" fill="#014898"/>
<path d="M17.816 24.3061H32.1258C32.1826 24.0473 32.0052 26.0197 29.4866 27.4186C27.3056 28.5916 24.9208 29.3508 22.4558 29.6569L22.2501 29.6919C20.3984 29.9786 18.7028 30.3913 17.8018 31.0908" fill="#014898"/>
<path d="M16.454 17.0386C16.6199 17.3074 16.8464 17.5349 17.1158 17.7035C17.3852 17.8721 17.6904 17.9772 18.0077 18.0108C18.1741 18.0146 18.3395 17.9855 18.4943 17.9253C18.6491 17.8651 18.7901 17.775 18.9091 17.6603C19.028 17.5456 19.1226 17.4087 19.1871 17.2575C19.2516 17.1063 19.2848 16.9438 19.2848 16.7798C19.2209 16.6119 18.9655 16.6189 18.9655 16.6189H14.808C14.2121 16.6189 13.758 17.3184 13.531 17.8919C13.304 18.4655 14.4746 19.2909 14.4746 19.2909L14.8364 18.5914H15.4111L13.531 22.4734H4.24414C4.4286 22.8721 5.25158 23.1728 5.25158 23.1728H14.127L16.2554 18.1787H14.2547C14.1908 18.1787 14.0773 17.9968 14.0631 17.9619C14.0579 17.9294 14.0579 17.8964 14.0631 17.8639C14.0631 17.8639 14.4533 17.0036 14.7726 16.9617L16.454 17.0386ZM17.9723 17.5003C17.9723 17.5003 17.575 17.5912 17.2628 17.0386H18.6462C18.6462 17.0386 18.5824 17.4303 17.9723 17.5003Z" fill="#014898"/>
<path d="M21.9385 22.5224H31.2466C31.0622 22.9211 30.2463 23.2219 30.2463 23.2219H21.3L20.1081 16.612C20.1081 16.612 20.0158 15.7377 19.3348 15.6468H15.2695L15.8087 15.2131H19.4625C19.7811 15.2397 20.0813 15.3716 20.3144 15.5874C20.5475 15.8032 20.6998 16.0904 20.7466 16.4022C21.0233 17.5703 21.9385 22.5224 21.9385 22.5224Z" fill="#014898"/>
<path d="M15.2197 10.9255H18.2846L18.6819 10.1421H15.6312L15.2197 10.9255Z" fill="#014898"/>
<path d="M14.4248 12.688H17.4755L17.8302 11.9116H14.7795L14.4248 12.688Z" fill="#014898"/>
<path d="M24.4566 6.66577H17.3123L16.9434 7.38621H24.7971L24.4566 6.66577Z" fill="#014898"/>
<path d="M25.6278 9.15579L25.273 8.37939H16.4544L16.0713 9.11382L25.6278 9.15579Z" fill="#014898"/>
<path d="M26.074 10.1421H19.8945L20.2918 10.9255H26.4713L26.074 10.1421Z" fill="#014898"/>
<path d="M26.9253 11.9116H20.7246L21.1219 12.688H27.2517L26.9253 11.9116Z" fill="#014898"/>
<path d="M31.1043 20.7527H24.8682L25.2655 21.5291H31.452L31.1043 20.7527Z" fill="#014898"/>
<path d="M30.2816 19.0181H24.0596L24.4356 19.8015H30.6363L30.2816 19.0181Z" fill="#014898"/>
<path d="M29.3732 17.2205H23.208L23.6053 17.9899H29.7705L29.3732 17.2205Z" fill="#014898"/>
<path d="M28.55 15.4509H22.3848L22.7821 16.2273H28.9118L28.55 15.4509Z" fill="#014898"/>
<path d="M4.46457 20.7527H10.6511L10.2964 21.5291H4.12402L4.46457 20.7527Z" fill="#014898"/>
<path d="M5.2727 19.0181H11.4805L11.1258 19.8015H4.91797L5.2727 19.0181Z" fill="#014898"/>
<path d="M6.15999 17.2205H12.311L11.9137 17.9899H5.7627L6.15999 17.2205Z" fill="#014898"/>
<path d="M6.9822 15.4509H13.1545L12.7572 16.2273H6.61328L6.9822 15.4509Z" fill="#014898"/>
<path d="M27.7201 13.7092H21.5762L21.9664 14.4856H28.1174L27.7201 13.7092Z" fill="#014898"/>
<path d="M7.77707 13.7092L7.43652 14.4856H16.617L17.0143 13.7092H7.77707Z" fill="#014898"/>
<path d="M16.092 6.66577H11.1328L8.2666 12.6881H13.2258L16.092 6.66577Z" fill="#014898"/>
<path fill-rule="evenodd" clip-rule="evenodd" d="M15.5107 21.3054V21.5432H15.8655V23.2429H16.0996V21.3054H15.5107Z" fill="#014898"/>
<path fill-rule="evenodd" clip-rule="evenodd" d="M19.4121 21.3193V21.5502H20.2564V21.704L19.476 23.2428H19.7456L20.526 21.704V21.3193H19.4121Z" fill="#014898"/>
<path fill-rule="evenodd" clip-rule="evenodd" d="M17.7734 21.9697C17.7734 21.8314 17.7318 21.6962 17.6539 21.5811C17.5759 21.4661 17.4651 21.3765 17.3355 21.3235C17.2058 21.2706 17.0632 21.2567 16.9255 21.2837C16.7879 21.3107 16.6615 21.3773 16.5623 21.4751C16.4631 21.5729 16.3955 21.6976 16.3681 21.8333C16.3407 21.9689 16.3548 22.1096 16.4085 22.2374C16.4622 22.3652 16.5531 22.4744 16.6698 22.5513C16.7865 22.6281 16.9236 22.6692 17.064 22.6692H17.1562L16.7589 23.2777H17.0285L17.6102 22.4104C17.7183 22.2886 17.7765 22.1315 17.7734 21.9697V21.9697ZM16.6596 21.9697C16.6596 21.8853 16.6849 21.8028 16.7325 21.7327C16.78 21.6625 16.8476 21.6078 16.9267 21.5755C17.0058 21.5432 17.0928 21.5348 17.1768 21.5512C17.2607 21.5677 17.3378 21.6083 17.3983 21.668C17.4589 21.7277 17.5001 21.8037 17.5168 21.8865C17.5335 21.9693 17.5249 22.055 17.4922 22.133C17.4594 22.211 17.4039 22.2776 17.3328 22.3245C17.2616 22.3713 17.1779 22.3964 17.0923 22.3964C16.9776 22.3964 16.8675 22.3514 16.7863 22.2714C16.7052 22.1914 16.6596 22.0829 16.6596 21.9697Z" fill="#014898"/>
<path fill-rule="evenodd" clip-rule="evenodd" d="M18.9652 22.2076C19.0273 22.1577 19.0774 22.0948 19.1118 22.0234C19.1461 21.952 19.1639 21.8739 19.1638 21.7949C19.1484 21.66 19.083 21.5354 18.9803 21.4449C18.8776 21.3545 18.7446 21.3044 18.6069 21.3044C18.4692 21.3044 18.3362 21.3545 18.2335 21.4449C18.1308 21.5354 18.0654 21.66 18.05 21.7949C18.0497 21.8747 18.0681 21.9534 18.1038 22.025C18.1395 22.0966 18.1915 22.1591 18.2557 22.2076C18.1742 22.258 18.1073 22.3283 18.0613 22.4116C18.0153 22.4949 17.9919 22.5884 17.9932 22.6832C17.9969 22.8416 18.0638 22.992 18.1794 23.102C18.2949 23.212 18.4498 23.2727 18.6104 23.2708C18.6896 23.2717 18.7682 23.2573 18.8418 23.2282C18.9153 23.1992 18.9823 23.1562 19.039 23.1016C19.0956 23.0471 19.1408 22.982 19.172 22.9102C19.2031 22.8384 19.2197 22.7613 19.2206 22.6832C19.2214 22.5893 19.1984 22.4967 19.1538 22.4136C19.1092 22.3306 19.0444 22.2598 18.9652 22.2076V22.2076ZM18.6104 21.5082C18.6539 21.5016 18.6983 21.5043 18.7406 21.5162C18.7829 21.5281 18.8221 21.5489 18.8555 21.5772C18.8889 21.6054 18.9157 21.6404 18.934 21.6798C18.9524 21.7192 18.9619 21.7621 18.9619 21.8054C18.9619 21.8488 18.9524 21.8917 18.934 21.9311C18.9157 21.9705 18.8889 22.0055 18.8555 22.0337C18.8221 22.0619 18.7829 22.0827 18.7406 22.0946C18.6983 22.1065 18.6539 22.1093 18.6104 22.1027C18.567 22.1093 18.5226 22.1065 18.4803 22.0946C18.438 22.0827 18.3988 22.0619 18.3654 22.0337C18.332 22.0055 18.3052 21.9705 18.2869 21.9311C18.2685 21.8917 18.259 21.8488 18.259 21.8054C18.259 21.7621 18.2685 21.7192 18.2869 21.6798C18.3052 21.6404 18.332 21.6054 18.3654 21.5772C18.3988 21.5489 18.438 21.5281 18.4803 21.5162C18.5226 21.5043 18.567 21.5016 18.6104 21.5082V21.5082ZM18.6104 23.04C18.5164 23.04 18.4261 23.0031 18.3596 22.9376C18.2931 22.872 18.2557 22.783 18.2557 22.6902C18.2557 22.5975 18.2931 22.5085 18.3596 22.4429C18.4261 22.3773 18.5164 22.3405 18.6104 22.3405C18.7045 22.3405 18.7948 22.3773 18.8613 22.4429C18.9278 22.5085 18.9652 22.5975 18.9652 22.6902C18.9652 22.783 18.9278 22.872 18.8613 22.9376C18.7948 23.0031 18.7045 23.04 18.6104 23.04Z" fill="#014898"/>
<path d="M28.5787 0L28.5362 0.0909324C28.5362 0.0909324 28.0183 1.11912 27.1172 1.08414H22.2716V0H13.2614V1.08414H8.4087C7.50058 1.11912 6.98977 0.0979269 6.98977 0.0909324L6.9472 0H0.789062V2.35715H0.916766C0.916766 2.35715 2.76137 2.74885 2.78975 4.18972V23.8164C2.78511 23.8816 2.78511 23.947 2.78975 24.0123C2.83941 24.4529 3.2438 26.4883 5.8972 27.9641C8.55059 29.44 10.7145 29.7268 12.9918 30.1255H13.1976C15.1415 30.4262 17.0145 30.9928 17.7452 31.937C18.4547 30.9928 20.3419 30.4262 22.2858 30.1255H22.4915C24.7973 29.7268 26.8476 29.5029 29.5862 27.9641C32.3247 26.4253 32.6511 24.4669 32.7007 24.0123V4.21773C32.7007 2.77685 34.5524 2.39211 34.5737 2.38512H34.7014V0.0279628L28.5787 0ZM34.4389 2.01443V2.12632C33.9707 2.25223 32.4808 2.77682 32.4524 4.22468V23.8094C32.4524 23.8094 32.4524 23.9213 32.4524 23.9842C32.3957 24.4948 32.0196 26.3135 29.6146 27.6424C27.3939 28.8183 24.9673 29.5683 22.4632 29.8527H22.2645C20.3419 30.1534 18.5398 30.699 17.7736 31.4264C17.0074 30.727 15.2054 30.1534 13.2898 29.8527H13.0841C10.58 29.5683 8.1533 28.8183 5.93267 27.6424C3.54178 26.3135 3.16576 24.4948 3.09482 23.9842C3.09482 23.9213 3.09482 23.8094 3.09482 23.8094V4.22468C3.09482 2.82578 1.57657 2.26621 1.11541 2.12632V2.01443V0.286757H6.79112C6.94456 0.596481 7.1796 0.8599 7.47165 1.04939C7.7637 1.23889 8.10204 1.34752 8.45126 1.36394H13.5878V0.279798H21.9949V1.36394H27.1314C27.4809 1.34826 27.8195 1.23991 28.1117 1.05033C28.4039 0.860756 28.6388 0.596945 28.7916 0.286757V0.286757H34.4673L34.4389 2.01443Z" fill="#014898"/>
<path d="M7.81993 25.3692C7.72192 25.2361 7.59297 25.1282 7.44391 25.0544L7.05371 24.8306L6.22363 26.2295L6.64222 26.4743C6.77886 26.5641 6.93912 26.6128 7.10337 26.6142C7.23079 26.6082 7.35279 26.5615 7.45101 26.4813C7.57008 26.3948 7.66721 26.2823 7.73479 26.1525C7.8186 26.0237 7.87194 25.8778 7.89087 25.7259C7.90464 25.6026 7.87989 25.4782 7.81993 25.3692V25.3692ZM7.67094 25.7189C7.64756 25.8403 7.60187 25.9564 7.53614 26.0616C7.47701 26.1668 7.39746 26.2595 7.30202 26.3344C7.22851 26.3901 7.13925 26.4219 7.04661 26.4253C6.9295 26.413 6.81735 26.3721 6.72026 26.3064L6.50032 26.1805L7.15303 25.0754L7.36587 25.2013C7.47972 25.2522 7.57593 25.3348 7.64256 25.4391C7.68166 25.5221 7.69165 25.6156 7.67094 25.7049V25.7189Z" fill="white"/>
<path d="M9.29589 26.2155C9.27206 26.124 9.22787 26.0389 9.16651 25.9663C9.10515 25.8937 9.02817 25.8355 8.94115 25.7959C8.85497 25.7545 8.76035 25.7329 8.66446 25.7329C8.56858 25.7329 8.47396 25.7545 8.38777 25.7959C8.18288 25.9016 8.02216 26.0749 7.93372 26.2855C7.81475 26.4833 7.77431 26.7175 7.8202 26.943C7.84402 27.0345 7.88822 27.1196 7.94958 27.1922C8.01093 27.2648 8.08791 27.323 8.17493 27.3626C8.26167 27.4022 8.35608 27.4226 8.45162 27.4226C8.54717 27.4226 8.64157 27.4022 8.72831 27.3626C8.93654 27.2625 9.10053 27.0909 9.18946 26.88C9.30461 26.6783 9.34238 26.4424 9.29589 26.2155ZM8.99082 26.7751C8.91816 26.9373 8.80001 27.0756 8.65028 27.1738C8.58857 27.2081 8.51892 27.2262 8.44808 27.2262C8.37723 27.2262 8.30758 27.2081 8.24588 27.1738C8.18271 27.1445 8.12846 27.0994 8.08861 27.0429C8.04875 26.9865 8.02469 26.9206 8.01885 26.8521C8.00158 26.6743 8.04128 26.4957 8.13237 26.3414C8.20456 26.1771 8.32267 26.0364 8.47291 25.9358C8.53281 25.9 8.60151 25.881 8.67156 25.881C8.74161 25.881 8.81031 25.9 8.87021 25.9358C8.93471 25.9641 8.9904 26.0088 9.03155 26.0653C9.0727 26.1219 9.09782 26.1882 9.10433 26.2575C9.1158 26.4371 9.0765 26.6163 8.99082 26.7751V26.7751Z" fill="white"/>
<path d="M10.0693 28.104L9.8139 26.7541L9.79971 26.6072L9.75005 26.7331L9.31018 27.8033L9.13281 27.7263L9.75005 26.2295L9.9416 26.3064L10.2041 27.6494L10.2183 27.7963L10.2609 27.6774L10.7007 26.6072L10.8852 26.6841L10.268 28.188L10.0693 28.104Z" fill="white"/>
<path d="M11.7716 28.6077C11.6033 28.6439 11.4291 28.6439 11.2608 28.6077C11.1248 28.5686 11.0021 28.4936 10.906 28.3909C10.8319 28.2894 10.7833 28.1719 10.7642 28.0481C10.7457 27.8891 10.7676 27.7281 10.828 27.5795C10.8738 27.4145 10.9562 27.2616 11.0692 27.1319C11.1567 27.042 11.2669 26.9769 11.3885 26.943C11.5127 26.9015 11.6474 26.9015 11.7716 26.943C11.8601 26.9678 11.9423 27.0107 12.0128 27.0689C12.0763 27.1183 12.1253 27.1835 12.1547 27.2578C12.1758 27.3214 12.1758 27.39 12.1547 27.4536V27.4536L11.9632 27.3907C11.9718 27.3745 11.9764 27.3565 11.9764 27.3382C11.9764 27.3199 11.9718 27.3019 11.9632 27.2858C11.9461 27.2413 11.9165 27.2025 11.878 27.1738C11.835 27.1412 11.7871 27.1153 11.7361 27.0969C11.6678 27.0718 11.5941 27.0644 11.522 27.0754C11.45 27.0864 11.382 27.1155 11.3246 27.1599C11.1884 27.2763 11.0897 27.4295 11.0408 27.6005C10.9896 27.7741 10.9896 27.9585 11.0408 28.1321C11.0578 28.2013 11.093 28.2649 11.1428 28.3165C11.1926 28.368 11.2553 28.4058 11.3246 28.4259C11.4328 28.4416 11.5428 28.4416 11.651 28.4259L11.8 27.9852L11.4452 27.8733L11.4949 27.7194L12.0412 27.8943L11.7716 28.6077Z" fill="white"/>
<path d="M13.4033 27.7054L13.1975 27.6495C13.2079 27.6224 13.2079 27.5926 13.1975 27.5655C13.1817 27.5297 13.1542 27.5002 13.1195 27.4816C13.0767 27.46 13.0314 27.4435 12.9847 27.4326C12.9051 27.4004 12.8159 27.4004 12.7364 27.4326C12.6806 27.4683 12.6401 27.5232 12.6228 27.5865C12.6158 27.6305 12.6158 27.6754 12.6228 27.7194C12.6366 27.764 12.6609 27.8048 12.6938 27.8383L12.8712 27.9922L12.9634 28.0621C13.0706 28.1362 13.1582 28.2345 13.2188 28.3489C13.2434 28.4335 13.2434 28.5232 13.2188 28.6077C13.196 28.6897 13.152 28.7644 13.0911 28.8246C13.0337 28.8879 12.9561 28.9298 12.8712 28.9435C12.7689 28.9701 12.6613 28.9701 12.559 28.9435C12.4576 28.922 12.3613 28.8816 12.2752 28.8246C12.2066 28.7818 12.1542 28.7178 12.1262 28.6427C12.1051 28.5672 12.1051 28.4874 12.1262 28.4119V28.4119L12.332 28.4678C12.3162 28.5017 12.3118 28.5397 12.3195 28.5761C12.3272 28.6126 12.3464 28.6457 12.3745 28.6707C12.4401 28.7306 12.5211 28.7718 12.6086 28.7896C12.689 28.8173 12.7766 28.8173 12.857 28.7896C12.8929 28.7716 12.9243 28.746 12.9488 28.7145C12.9734 28.683 12.9905 28.6466 12.9989 28.6077C13.0092 28.5758 13.0114 28.5419 13.0052 28.5089C12.999 28.476 12.9847 28.445 12.9634 28.4189C12.907 28.3442 12.8372 28.2802 12.7576 28.23L12.6867 28.1741C12.6075 28.1154 12.536 28.0473 12.4739 27.9712C12.434 27.9165 12.4052 27.8547 12.3887 27.7893C12.3713 27.7252 12.3713 27.6577 12.3887 27.5935C12.4023 27.5375 12.4276 27.4849 12.4631 27.4392C12.4985 27.3934 12.5433 27.3554 12.5945 27.3277C12.7335 27.2736 12.8882 27.2736 13.0272 27.3277C13.153 27.3477 13.2681 27.4094 13.3536 27.5026C13.3948 27.5619 13.4124 27.6341 13.4033 27.7054V27.7054Z" fill="white"/>
<path d="M14.5737 29.3281L14.3608 29.2861L14.5027 28.5587L13.7578 28.4188L13.6159 29.1462L13.4102 29.1043L13.7223 27.5095L13.9281 27.5515L13.7933 28.2579L14.5382 28.4048L14.673 27.6914L14.8858 27.7333L14.5737 29.3281Z" fill="white"/>
<path d="M15.1685 27.7309L14.9346 29.3372L15.1453 29.367L15.3792 27.7607L15.1685 27.7309Z" fill="white"/>
<path d="M16.731 29.5729L16.5182 29.5589L15.8797 28.3278L15.8229 28.1949L15.8158 28.3208L15.7023 29.4819L15.5107 29.461L15.6597 27.8452L15.8726 27.8592L16.5111 29.0832L16.5678 29.2161L16.5749 29.0902L16.6885 27.9361L16.8871 27.9571L16.731 29.5729Z" fill="white"/>
<path d="M18.9726 29.405C18.9273 29.4821 18.8609 29.5451 18.7811 29.5868C18.6854 29.6378 18.5775 29.662 18.4689 29.6568C18.3581 29.6592 18.2476 29.6427 18.1426 29.6078C18.0525 29.5811 17.9747 29.5241 17.9226 29.4469C17.8654 29.3268 17.8386 29.1948 17.8446 29.0622V27.9921H18.0574V29.0413C18.0498 29.1457 18.0643 29.2505 18.1 29.349C18.1336 29.4007 18.1834 29.44 18.2419 29.4609C18.3115 29.4896 18.3864 29.5038 18.4618 29.5029C18.5304 29.5039 18.5983 29.4895 18.6605 29.4609C18.7166 29.4316 18.7615 29.3849 18.7882 29.328C18.8248 29.208 18.8369 29.082 18.8236 28.9574V27.9851H19.0152V29.0063C19.0303 29.1406 19.0158 29.2767 18.9726 29.405V29.405Z" fill="white"/>
<path d="M20.4201 29.4958L19.5616 28.4047L19.4836 28.2788L19.4978 28.4117L19.5971 29.5658L19.4056 29.5868L19.2637 27.964L19.4765 27.9501L20.3279 29.0342L20.4059 29.1601L20.3917 29.0272L20.2853 27.8801L20.4839 27.8591L20.6258 29.4819L20.4201 29.4958Z" fill="white"/>
<path d="M20.9306 27.8042L20.7197 27.8325L20.9417 29.4404L21.1526 29.4121L20.9306 27.8042Z" fill="white"/>
<path d="M22.2648 29.2232L22.0519 29.2651L21.1367 27.7823L21.3708 27.7403L22.13 28.9854L22.4279 27.5445L22.6266 27.5095L22.2648 29.2232Z" fill="white"/>
<path d="M23.18 29.0412L22.7686 27.4675L23.6696 27.2437L23.7192 27.4115L23.024 27.5864L23.1517 28.083L23.7547 27.9291L23.7973 28.09L23.1942 28.2369L23.3432 28.8174L24.0882 28.6216L24.1378 28.7964L23.18 29.0412Z" fill="white"/>
<path d="M25.1168 27.9922L25.0246 27.9083C24.998 27.8837 24.9666 27.8646 24.9324 27.8523C24.9046 27.8341 24.8731 27.8222 24.8401 27.8174C24.9019 27.7772 24.9533 27.7235 24.9902 27.6603C25.0272 27.5972 25.0486 27.5264 25.053 27.4536C25.0669 27.3938 25.0669 27.3316 25.053 27.2718C25.0311 27.1991 24.9894 27.1337 24.9324 27.0829C24.8808 27.0296 24.814 26.9931 24.7408 26.978C24.6475 26.9565 24.5504 26.9565 24.457 26.978L23.9746 27.1319L24.4712 28.6777L24.677 28.6078L24.4641 27.9083L24.6699 27.8453C24.7755 27.8935 24.8716 27.9598 24.9537 28.0412L25.3084 28.3769L25.5354 28.307L25.1168 27.9922ZM24.8401 27.5166C24.8297 27.5708 24.8052 27.6213 24.7692 27.6635C24.7203 27.7115 24.659 27.7454 24.5918 27.7614L24.3932 27.8244L24.2087 27.2578L24.4216 27.1878C24.4912 27.1688 24.5648 27.1688 24.6344 27.1878C24.6797 27.2014 24.721 27.2254 24.755 27.2578C24.7884 27.291 24.8128 27.3319 24.826 27.3767C24.8389 27.4222 24.8437 27.4695 24.8401 27.5166V27.5166Z" fill="white"/>
<path d="M26.6348 27.7613C26.6217 27.8444 26.5848 27.9221 26.5284 27.9852C26.4546 28.0597 26.365 28.117 26.2659 28.153C26.1676 28.1891 26.0651 28.2126 25.9608 28.2229C25.8791 28.2267 25.7988 28.2019 25.7338 28.153C25.6694 28.1074 25.6201 28.0442 25.5919 27.9712L25.7905 27.8942C25.8015 27.9311 25.8225 27.9643 25.8513 27.9902C25.88 28.0161 25.9155 28.0337 25.9537 28.0411C26.0409 28.0455 26.1281 28.0312 26.2091 27.9992C26.2915 27.9716 26.36 27.914 26.4007 27.8383C26.4183 27.8023 26.4274 27.7628 26.4274 27.7229C26.4274 27.6829 26.4183 27.6434 26.4007 27.6074C26.3913 27.5759 26.3741 27.5472 26.3505 27.524C26.327 27.5008 26.2979 27.4838 26.2659 27.4746C26.1766 27.4459 26.0831 27.4317 25.9892 27.4326H25.897C25.7961 27.4331 25.6957 27.4189 25.599 27.3906C25.5339 27.3732 25.4734 27.3423 25.4216 27.2997C25.3741 27.2521 25.3377 27.1948 25.3152 27.1318C25.2909 27.0791 25.2783 27.0219 25.2783 26.9639C25.2783 26.906 25.2909 26.8488 25.3152 26.7961C25.3519 26.733 25.4009 26.6776 25.4593 26.6332C25.5177 26.5888 25.5845 26.5562 25.6557 26.5373C25.769 26.4782 25.9007 26.4632 26.0247 26.4953C26.0651 26.5084 26.102 26.5303 26.1327 26.5593C26.1634 26.5884 26.1871 26.6239 26.202 26.6632L26.0034 26.7331C25.9993 26.7191 25.992 26.7062 25.9822 26.6953C25.9724 26.6844 25.9602 26.6759 25.9466 26.6702C25.9092 26.6622 25.8705 26.6622 25.8331 26.6702H25.6983C25.6574 26.6816 25.6194 26.7012 25.5864 26.7276C25.5535 26.7541 25.5264 26.7869 25.5068 26.824C25.4926 26.8548 25.4853 26.8882 25.4853 26.922C25.4853 26.9557 25.4926 26.9891 25.5068 27.0199C25.522 27.0615 25.5491 27.098 25.5848 27.1248C25.6214 27.1545 25.6656 27.1738 25.7125 27.1808H25.9466H26.0601C26.1916 27.1761 26.3218 27.2076 26.4361 27.2717C26.5104 27.3181 26.5676 27.3868 26.5993 27.4676C26.6421 27.5594 26.6545 27.6622 26.6348 27.7613Z" fill="white"/>
<path d="M27.0177 27.8032L26.3721 26.3063L26.5707 26.2224L27.2163 27.7192L27.0177 27.8032Z" fill="white"/>
<path d="M27.9121 27.4117L27.2807 26.0897L26.777 26.3275L26.7061 26.1807L27.905 25.6211L27.976 25.768L27.4794 25.9988L28.1037 27.3278L27.9121 27.4117Z" fill="white"/>
<path d="M29.1822 26.7961L28.8133 26.1247L27.9336 25.6141L28.1535 25.4952L28.8275 25.8869L28.8772 25.1175L29.0616 25.0195L29.0049 26.0267L29.3667 26.6982L29.1822 26.7961Z" fill="white"/>
<path d="M122.937 4.33659V9.72239H121.156V4.33659H116.85V16.3952H105.676V8.09965H113.714V4.32959H101.305V17.0386C101.283 17.7677 101.483 18.4866 101.88 19.102C102.163 19.4535 102.526 19.733 102.941 19.9168C103.356 20.1006 103.81 20.1834 104.264 20.1582H116.829V28.7615H121.135V13.4855H122.937V28.7615H127.314V4.33659H122.937Z" fill="#014898"/>
<path d="M152.926 5.42069C153.205 5.06557 153.569 4.78352 153.984 4.59935C154.4 4.41519 154.855 4.33453 155.31 4.36451H158.857V8.12757H156.729V19.081H152.359V7.45608C152.34 6.73721 152.537 6.02893 152.926 5.42069Z" fill="#014898"/>
<path d="M149.897 5.25288H142.504V3.11255H138.134V5.25288H130.741V9.01594H133.891C133.303 10.1095 133.012 11.3344 133.046 12.5717C133.08 13.809 133.438 15.0166 134.085 16.0771C134.733 17.1377 135.647 18.0151 136.74 18.6243C137.833 19.2334 139.067 19.5536 140.323 19.5536C141.578 19.5536 142.812 19.2334 143.905 18.6243C144.998 18.0151 145.912 17.1377 146.56 16.0771C147.207 15.0166 147.565 13.809 147.599 12.5717C147.633 11.3344 147.342 10.1095 146.754 9.01594H149.897V5.25288ZM140.184 15.6957C139.516 15.6957 138.863 15.5003 138.307 15.1341C137.752 14.768 137.319 14.2476 137.063 13.6388C136.808 13.03 136.742 12.3602 136.873 11.7142C137.003 11.0682 137.326 10.4749 137.799 10.0096C138.272 9.54423 138.874 9.22772 139.53 9.10004C140.185 8.97237 140.864 9.0393 141.481 9.29236C142.098 9.54543 142.625 9.97327 142.996 10.5217C143.366 11.0701 143.563 11.7145 143.561 12.3733C143.561 13.2545 143.206 14.0995 142.574 14.7226C141.942 15.3457 141.085 15.6957 140.191 15.6957H140.184Z" fill="#014898"/>
<path d="M152.344 28.7614H156.715V20.2141H131.976V23.9492H152.344V28.7614Z" fill="#014898"/>
<path d="M49.9691 19.0742C49.2962 20.1622 48.9293 21.4072 48.9061 22.6813C48.8829 23.9554 49.2042 25.2126 49.837 26.3237C50.4698 27.4349 51.3913 28.3598 52.5068 29.0035C53.6223 29.6473 54.8915 29.9866 56.184 29.9866C57.4766 29.9866 58.7458 29.6473 59.8613 29.0035C60.9767 28.3598 61.8982 27.4349 62.531 26.3237C63.1639 25.2126 63.4852 23.9554 63.462 22.6813C63.4387 21.4072 63.0718 20.1622 62.3989 19.0742H49.9691ZM56.184 26.3345C55.4739 26.3345 54.7798 26.1264 54.1899 25.7367C53.6 25.347 53.1408 24.7933 52.8707 24.1458C52.6006 23.4983 52.5318 22.7863 52.6729 22.1002C52.814 21.4141 53.1588 20.7848 53.6634 20.2922C54.168 19.7996 54.8097 19.466 55.5071 19.3337C56.2044 19.2014 56.9258 19.2763 57.5799 19.5491C58.2339 19.8218 58.791 20.2799 59.1803 20.8654C59.5697 21.4508 59.7739 22.1372 59.7668 22.8373C59.7669 23.2995 59.6739 23.7571 59.4935 24.1837C59.313 24.6103 59.0485 24.9974 58.7153 25.3226C58.3822 25.6478 57.9869 25.9047 57.5524 26.0784C57.1179 26.2521 56.6529 26.3391 56.184 26.3345V26.3345ZM63.0729 19.1232H69.2311V15.3601H58.4188V13.5135H67.9895V9.75047H48.834V8.12073H67.9895V4.35767H44.4708V10.401C44.448 11.141 44.6479 11.8712 45.0455 12.4993C45.2439 12.8435 45.5371 13.1254 45.8911 13.3122C46.2451 13.4991 46.6456 13.5835 47.0461 13.5555H54.0485V15.4021H43.2363V19.1651H49.2951" fill="#014898"/>
<path d="M185.554 20.1652V7.44914C185.569 6.72231 185.366 6.0073 184.973 5.39274C184.691 5.03997 184.327 4.75918 183.912 4.57414C183.497 4.38909 183.044 4.30521 182.589 4.32956H162.064V8.09962H181.22V20.1652H177.353V13.4854H173.025V20.1652H169.052V13.4854H164.703V20.1652H160.844V23.9073H186.789V20.1652H185.554Z" fill="#014898"/>
<path d="M97.9855 4.32959H93.6152V19.137H97.9855V4.32959Z" fill="#014898"/>
<path d="M87.2512 10.3868C85.5059 8.55427 84.4133 4.32959 84.4133 4.32959H80.1566C80.1566 4.32959 79.0356 8.52629 77.3187 10.3868C75.8621 11.9075 74.0462 13.049 72.0332 13.7092V17.6961C72.0332 17.6961 79.6954 15.7377 82.2991 10.7925C84.91 15.7377 92.5651 17.6961 92.5651 17.6961V13.7092C90.5426 13.0515 88.7169 11.9101 87.2512 10.3868V10.3868Z" fill="#014898"/>
<path d="M74.4385 27.7123C74.7216 28.0648 75.0867 28.3448 75.5029 28.5287C75.9191 28.7125 76.3741 28.7948 76.8294 28.7685H97.9927V25.0054H78.2412V20.1582H73.8709V25.6489C73.8479 26.377 74.0455 27.0954 74.4385 27.7123V27.7123Z" fill="#014898"/>
</g>
<defs>
<clipPath id="clip0_201_2026">
<rect width="186" height="32" fill="white" transform="translate(0.789062)"/>
</clipPath>
</defs>
</svg>
