<svg width="187" height="18" viewBox="0 0 187 18" fill="none" xmlns="http://www.w3.org/2000/svg">
<g clip-path="url(#clip0_201_1741)">
<path d="M95.7426 11.6716H101.19V17.2515H99.2157V13.3435H88.3986V11.6789H93.7468V9.43539H87.6387V7.76357H98.5978C98.6424 7.69127 98.6827 7.6164 98.7186 7.53927C98.7983 7.37609 98.8579 7.20353 98.8961 7.02546C98.9627 6.78981 99.0008 6.54679 99.0098 6.30175C99.0224 6.06068 99.0224 5.8191 99.0098 5.57803V3.65293H88.356V1.99561H100.963V4.10888C100.963 4.39836 100.963 4.57924 100.963 5.04965C100.961 5.46444 100.925 5.87841 100.856 6.28726C100.815 6.63607 100.741 6.98007 100.636 7.31487C100.558 7.5537 100.508 7.67676 100.501 7.70571H101.922V9.37028H95.7142L95.7426 11.6716Z" fill="#363637"/>
<path d="M114.578 8.89252C114.032 8.57163 113.518 8.19581 113.044 7.77074C112.529 7.32577 112.092 6.79476 111.752 6.20034C111.41 5.60948 111.24 4.93176 111.262 4.24626V3.58775H114.536V1.95215H106.013V3.5805H109.287V4.23902C109.308 4.92575 109.14 5.60485 108.804 6.20034C108.457 6.79197 108.018 7.32228 107.504 7.77074C107.031 8.19302 106.52 8.56865 105.977 8.89252L105.359 9.2254L105.928 10.7814C105.928 10.7814 106.112 10.7018 106.446 10.5643C106.838 10.4107 107.211 10.2141 107.561 9.97809C108.271 9.52622 108.926 8.99195 109.514 8.38596L110.281 7.54643C110.281 7.54643 110.587 7.8866 111.056 8.38596C111.642 8.99365 112.298 9.52808 113.009 9.97809C113.357 10.2126 113.728 10.4091 114.117 10.5643C114.458 10.6946 114.628 10.7597 114.642 10.7742L115.211 9.2254L114.578 8.89252Z" fill="#363637"/>
<path d="M122.866 3.84108H128.96V7.33658C128.955 8.72934 128.544 10.0893 127.781 11.2446C127.134 12.0095 126.368 12.6621 125.515 13.177C124.915 13.5755 124.265 13.8918 123.584 14.1178C123.058 14.2625 122.802 14.371 122.788 14.371L123.356 15.9633L124.443 15.5724C125.088 15.337 125.718 15.0639 126.332 14.7546C127.666 14.0958 128.824 13.1175 129.706 11.9032C130.586 10.456 131.013 8.76941 130.928 7.06881V2.19824H122.866V3.84108Z" fill="#363637"/>
<path d="M170.383 9.14586V10.8104H164.104V17.2008H162.137V10.8104H155.922V9.14586H166.796C166.796 9.14586 166.86 8.9867 166.966 8.74787C167.066 8.49586 167.14 8.23385 167.186 7.96621C167.24 7.69691 167.268 7.42312 167.272 7.14841C167.272 6.8734 167.272 6.56226 167.272 6.21488V3.82659H156.874V2.19824H169.239V5.21615C169.239 5.65038 169.239 6.06288 169.239 6.46816C169.246 6.86321 169.218 7.25811 169.154 7.64782C169.097 7.998 169.016 8.34374 168.912 8.68268C168.806 8.98663 168.749 9.16037 168.742 9.18208L170.383 9.14586Z" fill="#363637"/>
<path d="M181.221 2.49501C180.346 1.95908 179.343 1.681 178.323 1.6917C175.801 1.6917 173.749 3.28379 173.756 5.23058C173.763 7.17737 175.801 8.76954 178.33 8.76954C180.858 8.76954 182.904 7.17745 182.897 5.22342C182.872 4.65999 182.705 4.11262 182.411 3.63456C182.117 3.1565 181.707 2.76397 181.221 2.49501V2.49501ZM178.33 7.35834C176.909 7.35834 175.794 6.41023 175.794 5.23058C175.794 4.05093 176.931 3.10291 178.323 3.10291C179.715 3.10291 180.858 4.05825 180.858 5.22342C180.858 6.3886 179.722 7.35834 178.33 7.35834V7.35834Z" fill="#363637"/>
<path d="M135.649 1.91636L133.682 1.91846L133.697 17.2322L135.665 17.2301L135.649 1.91636Z" fill="#363637"/>
<path d="M150.729 1.89422V4.06536H147.725C147.457 3.56811 147.101 3.12633 146.674 2.76273C145.88 2.07798 144.872 1.70561 143.833 1.71329C143.066 1.69798 142.307 1.88015 141.628 2.24283C140.948 2.6055 140.369 3.13698 139.945 3.78814C139.521 4.43929 139.264 5.18902 139.2 5.96793C139.135 6.74685 139.265 7.52978 139.576 8.2442C139.887 8.95862 140.37 9.58147 140.981 10.0551C141.591 10.5287 142.309 10.8376 143.067 10.9535C143.826 11.0694 144.601 10.9884 145.321 10.718C146.041 10.4476 146.682 9.99637 147.185 9.40636H150.736V12.8802H152.697V1.89422H150.729ZM143.833 9.29787C143.244 9.38948 142.641 9.29514 142.106 9.02754C141.571 8.75994 141.129 8.33185 140.84 7.80089C140.551 7.26992 140.428 6.66151 140.488 6.05733C140.548 5.45316 140.788 4.8822 141.176 4.42121C141.564 3.96022 142.082 3.63129 142.658 3.47858C143.235 3.32587 143.844 3.35666 144.403 3.56692C144.962 3.77718 145.445 4.15677 145.786 4.6547C146.127 5.15263 146.311 5.74505 146.312 6.35231C146.363 7.07702 146.131 7.793 145.667 8.34456C145.202 8.89611 144.543 9.23871 143.833 9.29787V9.29787ZM150.729 7.73463H148.073C148.21 7.28477 148.28 6.81621 148.279 6.34507C148.279 6.13683 148.265 5.92884 148.236 5.72269H150.729V7.73463Z" fill="#363637"/>
<path d="M83.4901 1.92334H81.5156L81.5227 12.9093H83.4901V7.59724H85.1166V5.93271H83.4901V1.92334Z" fill="#363637"/>
<path d="M184.814 1.85791L184.821 11.6208H181.355V13.2998H184.814L184.821 14.2985H186.789V1.85791H184.814Z" fill="#363637"/>
<path d="M177.364 13.2782H179.331V10.9551H183.77V9.29053L172.981 9.29776V10.9623L177.364 10.9551V13.2782Z" fill="#363637"/>
<path d="M116.951 12.8873H118.918V1.90137H116.951V4.99886H114.209V6.66339H116.951V12.8873Z" fill="#363637"/>
<path d="M73.5758 12.3301H71.6084L71.6155 17.2803L83.5974 17.2658V15.6013L73.5829 15.6085L73.5758 12.3301Z" fill="#363637"/>
<path d="M109.038 12.3086H107.063L107.071 17.2588L119.06 17.2443V15.5798L109.045 15.587L109.038 12.3086Z" fill="#363637"/>
<path d="M142.761 12.2866L140.786 12.2939V17.2368L152.775 17.2296V15.565H142.761V12.2866Z" fill="#363637"/>
<path d="M176.547 12.2725H174.58V17.2154H186.782V15.5436L176.547 15.5509V12.2725Z" fill="#363637"/>
<path d="M70.6636 7.26431C70.6636 9.31965 72.6381 10.9914 75.0743 10.9914C77.5104 10.9914 79.4778 9.31241 79.4778 7.25706C79.4627 6.67682 79.3077 6.10924 79.0265 5.60442C78.7454 5.09959 78.3467 4.67301 77.8655 4.36221C77.7512 4.28534 77.6327 4.21523 77.5104 4.15231H79.6412V2.47334H76.0899V1.47461H74.1225V2.47334H70.5713V4.13791H72.6594C72.0795 4.4253 71.5874 4.8681 71.2358 5.41889C70.8842 5.96969 70.6864 6.60765 70.6636 7.26431V7.26431ZM75.0672 4.80367C75.5195 4.8305 75.9543 4.99163 76.3179 5.26712C76.6816 5.54261 76.9582 5.92042 77.1137 6.3541C77.2692 6.78779 77.2968 7.25842 77.1931 7.70788C77.0894 8.15735 76.8589 8.56608 76.53 8.88374C76.2012 9.20139 75.7883 9.41408 75.3423 9.49561C74.8963 9.57714 74.4366 9.52387 74.0199 9.34251C73.6032 9.16114 73.2477 8.85959 72.9971 8.47488C72.7465 8.09018 72.6119 7.63918 72.6097 7.17747C72.6356 6.53629 72.9077 5.93111 73.3674 5.49248C73.8271 5.05386 74.4376 4.81691 75.0672 4.83264V4.80367Z" fill="#363637"/>
<path d="M6.91851 0.895508C6.56789 0.909479 6.22995 1.03297 5.95046 1.24915C5.67097 1.46533 5.46344 1.76378 5.35596 2.10414L0.789062 17.9027H4.77356L9.68848 0.895508H6.91851Z" fill="#006BAD"/>
<path d="M60.7766 0.895508C60.4278 0.909388 60.0916 1.03209 59.8134 1.24694C59.5352 1.46179 59.3285 1.75846 59.2211 2.09689L54.6826 17.9027H57.4597C57.8094 17.8883 58.1462 17.7647 58.4245 17.5485C58.7028 17.3323 58.909 17.034 59.0151 16.6942L63.5891 0.895508H60.7766Z" fill="#006BAD"/>
<path d="M11.4571 9.32685C11.4128 9.27592 11.3792 9.21631 11.3584 9.15167C11.3375 9.08702 11.3299 9.01872 11.3358 8.95095C11.3418 8.88318 11.3614 8.81737 11.3932 8.75757C11.425 8.69776 11.4686 8.6452 11.5211 8.60314L20.2287 0.866699H17.0397L8.19709 8.71171C7.98226 8.91029 7.85008 9.18511 7.82763 9.47978C7.80518 9.77444 7.89416 10.0666 8.07635 10.2966L13.7157 17.9101H17.7002L11.4571 9.3341V9.32685Z" fill="#006BAD"/>
<path d="M52.8144 6.19313C53.0018 5.65282 53.0704 5.07713 53.0151 4.50682C52.9599 3.93652 52.7822 3.38551 52.4948 2.89296C52.439 2.79562 52.3749 2.70358 52.303 2.61795C51.846 2.03353 51.2387 1.59011 50.5487 1.33705C49.5753 1.04522 48.5661 0.896484 47.5514 0.895508H40.2004L35.2783 17.9027H39.2628L43.6024 2.92194H46.8696C47.4255 2.91906 47.9787 3.002 48.5103 3.16797C48.8661 3.31183 49.1676 3.56774 49.3707 3.8984C49.5739 4.22906 49.6681 4.61721 49.6396 5.00623C49.6244 5.50212 49.5259 5.99168 49.3484 6.45366C49.0539 7.29751 48.4783 8.00946 47.7219 8.4656C46.5588 9.0947 45.2601 9.41802 43.9434 9.40637H42.4021L48.6949 17.91H52.6865L47.5301 10.8755C49.7887 10.4413 52.0118 9.3847 52.8144 6.19313Z" fill="#006BAD"/>
<path d="M25.7474 0.895508C25.3989 0.906803 25.0624 1.02769 24.7839 1.24146C24.5054 1.45524 24.2987 1.75146 24.1919 2.08965L22.1748 9.05176C23.3354 8.90425 24.4734 8.61012 25.5627 8.1761L25.8752 8.06752L26.5073 7.85762L27.8355 3.26931C27.8713 3.16272 27.938 3.06969 28.0268 3.00251C28.1155 2.93532 28.2222 2.89713 28.3327 2.89296H35.4351C35.7822 2.88013 36.1171 2.75965 36.3951 2.54754C36.6731 2.33542 36.8808 2.04179 36.9906 1.70606L37.225 0.895508H25.7474Z" fill="#006BAD"/>
<path d="M34.086 9.91999C33.9701 9.87382 33.8515 9.83512 33.7308 9.80417V9.80417C31.87 9.33376 28.5389 10.5279 27.4736 10.8897C26.4082 11.2516 25.3002 11.4687 25.08 11.5194C24.2203 11.7048 23.3449 11.8042 22.4663 11.8161C22.239 11.8161 22.0188 11.8161 21.8058 11.8161H21.5004C20.8019 11.72 20.1421 11.4331 19.5906 10.9859C19.0392 10.5387 18.6168 9.94781 18.3682 9.27588C18.4328 10.0927 18.7123 10.8766 19.1773 11.5453C19.6422 12.2139 20.2754 12.7424 21.0103 13.0754L19.5898 17.9604H31.0816C31.4455 17.9444 31.795 17.811 32.0797 17.5795C32.3644 17.348 32.5695 17.0302 32.6655 16.6722V16.6722L32.8928 15.8834H24.5544C24.4479 15.8834 24.1993 15.8327 24.2987 15.4636L25.0942 12.7208C25.5417 12.5688 26.0602 12.3733 26.6568 12.1128L27.1042 11.9174C27.8926 11.5556 29.4694 10.8536 29.8103 10.7378C31.167 10.1749 32.6213 9.89674 34.086 9.91999V9.91999Z" fill="#006BAD"/>
<path d="M34.668 9.78268C34.668 9.39911 33.5742 7.26414 30.6338 7.14111C29.0049 7.14651 27.3913 7.46066 25.8751 8.06749L25.5626 8.17606C24.21 8.74614 22.7646 9.05298 21.3011 9.0807C20.2597 9.06683 19.234 8.81976 18.2968 8.35699C18.2968 8.35699 18.2968 8.35699 18.2968 8.35699C18.2471 8.66818 19.1846 10.7597 21.9404 10.9623C23.6048 11.0071 25.2645 10.7624 26.8482 10.2386H26.9831C28.5156 9.72149 30.1039 9.39587 31.7134 9.26887C34.0004 9.26887 34.6893 9.85503 34.6893 9.85503L34.668 9.78268Z" fill="#F4A000"/>
</g>
<defs>
<clipPath id="clip0_201_1741">
<rect width="186" height="17" fill="white" transform="translate(0.789062 0.895508)"/>
</clipPath>
</defs>
</svg>
