<svg width="180" height="41" viewBox="0 0 180 41" fill="none" xmlns="http://www.w3.org/2000/svg">
<path d="M61.666 13.9446H58.623C58.8333 13.4498 58.988 12.8746 59.0869 12.219C59.1735 11.65 59.2168 10.9758 59.2168 10.1965V6.6897H49.8096V8.71216H56.4893V10.8088C56.4893 11.5387 56.4583 12.1077 56.3965 12.5159C56.3223 13.0107 56.1862 13.4869 55.9883 13.9446H54.1328V10.8088H51.3867V13.9446H49.1602V15.9485H61.666V16.8206H64.4121V12.6086H66.2861V10.4934H64.4121V6.3186H61.666V13.9446ZM57.5469 18.7688C58.9694 18.7688 60.0703 18.9605 60.8496 19.344C61.5547 19.7027 61.9072 20.1604 61.9072 20.717C61.9072 21.2489 61.5547 21.6881 60.8496 22.0344C60.0703 22.4303 58.9694 22.6282 57.5469 22.6282C56.1738 22.6282 55.11 22.4303 54.3555 22.0344C53.6875 21.6881 53.3535 21.2489 53.3535 20.717C53.3535 20.1604 53.6875 19.7027 54.3555 19.344C55.11 18.9605 56.1738 18.7688 57.5469 18.7688ZM57.6582 16.7463C55.3945 16.7463 53.6257 17.1484 52.3516 17.9524C51.2135 18.6822 50.6445 19.6038 50.6445 20.717C50.6445 21.8056 51.2135 22.7086 52.3516 23.426C53.6257 24.2424 55.3945 24.6506 57.6582 24.6506C59.9095 24.6506 61.6722 24.2424 62.9463 23.426C64.109 22.7086 64.6904 21.8056 64.6904 20.717C64.6904 19.6038 64.109 18.6822 62.9463 17.9524C61.6722 17.1484 59.9095 16.7463 57.6582 16.7463Z" fill="black"/>
<path d="M69.5332 6.6897V8.6936H74.9326C74.9326 9.73267 74.3451 10.6233 73.1699 11.3655C72.0443 12.0829 70.5166 12.5901 68.5869 12.887L69.6074 14.4641C71.2402 14.1672 72.6071 13.7776 73.708 13.2952C74.8584 12.788 75.7181 12.1757 76.2871 11.4583C76.8438 12.1881 77.6973 12.8004 78.8477 13.2952C79.9733 13.79 81.4082 14.1796 83.1523 14.4641L84.21 12.9055C82.2184 12.5963 80.6475 12.0891 79.4971 11.384C78.2725 10.6295 77.6602 9.73267 77.6602 8.6936H83.3564V6.6897H69.5332ZM84.4512 16.4495H68.3643V18.4719H75.0068V24.1682H77.7344V18.4719H84.4512V16.4495Z" fill="black"/>
<path d="M88.2734 6.6897V8.87915H99.7773V14.4084C99.7773 15.6331 99.6969 16.7896 99.5361 17.8782C99.3753 18.9049 99.1465 19.9068 98.8496 20.884H101.503C101.837 19.7708 102.09 18.5894 102.264 17.3401C102.437 16.1155 102.523 14.829 102.523 13.4807V6.6897H88.2734ZM103.34 20.9211H97.124V12.8684H94.3779V20.9211H92.2256V12.8684H89.4795V20.9211H87.457V22.8879H103.34V20.9211Z" fill="black"/>
<path d="M114.398 6.22583C112.11 6.22583 110.31 6.59692 108.999 7.33911C107.812 8.03182 107.218 8.89152 107.218 9.91821C107.218 10.9325 107.812 11.7861 108.999 12.4788C110.31 13.2333 112.11 13.6106 114.398 13.6106C116.674 13.6106 118.474 13.2333 119.798 12.4788C120.998 11.7861 121.598 10.9325 121.598 9.91821C121.598 8.89152 120.998 8.03182 119.798 7.33911C118.474 6.59692 116.674 6.22583 114.398 6.22583ZM114.361 8.30396C115.734 8.30396 116.817 8.45858 117.608 8.76782C118.326 9.0647 118.685 9.44816 118.685 9.91821C118.685 10.3759 118.326 10.7532 117.608 11.05C116.817 11.3717 115.734 11.5325 114.361 11.5325C112.988 11.5325 111.912 11.3717 111.133 11.05C110.415 10.7532 110.057 10.3759 110.057 9.91821C110.057 9.44816 110.415 9.0647 111.133 8.76782C111.912 8.45858 112.988 8.30396 114.361 8.30396ZM106.364 14.2229V16.2268H109.166V18.2307H107.273V20.2532H118.777V24.1497H121.523V18.2307H119.742V16.2268H122.433V14.2229H106.364ZM111.912 18.2307V16.2268H116.996V18.2307H111.912Z" fill="black"/>
<path d="M131.71 6.6897H125.791V19.8635C125.791 20.5933 125.97 21.1376 126.329 21.4963C126.725 21.8922 127.331 22.0901 128.147 22.0901H133.398V24.1682H136.145V15.4475H138.204V24.1682H140.95V6.3186H138.204V13.4065H136.145V6.3186H133.398V20.1047H128.537V8.63794H131.71V6.6897Z" fill="black"/>
<path d="M144.327 7.37622V9.2688H147.129C145.954 9.57804 145.125 10.1099 144.643 10.8645C144.21 11.5572 144.111 12.3798 144.346 13.3323C144.581 14.1363 145.119 14.8167 145.96 15.3733C146.925 16.0042 148.118 16.3196 149.541 16.3196C150.951 16.3196 152.139 16.0103 153.104 15.3918C153.957 14.8476 154.507 14.1611 154.755 13.3323C154.978 12.3798 154.866 11.5572 154.421 10.8645C153.938 10.1099 153.11 9.57804 151.935 9.2688H154.755V7.37622H150.97V6.22583H148.224V7.37622H144.327ZM149.541 10.4563C150.345 10.4563 150.988 10.6604 151.471 11.0686C151.904 11.4273 152.12 11.8726 152.12 12.4045C152.12 12.9117 151.904 13.3632 151.471 13.759C150.976 14.2043 150.333 14.427 149.541 14.427C148.749 14.427 148.112 14.2043 147.63 13.759C147.222 13.3632 147.018 12.9117 147.018 12.4045C147.018 11.8726 147.222 11.4273 147.63 11.0686C148.1 10.6604 148.737 10.4563 149.541 10.4563ZM156.666 6.3186V16.4495H159.412V12.5715H161.286V10.5305H159.412V6.3186H156.666ZM145.589 17.637V19.6409H156.666V24.1497H159.412V17.637H145.589Z" fill="black"/>
<path d="M164.273 6.6897V8.87915H175.777V14.4084C175.777 15.6331 175.697 16.7896 175.536 17.8782C175.375 18.9049 175.146 19.9068 174.85 20.884H177.503C177.837 19.7708 178.09 18.5894 178.264 17.3401C178.437 16.1155 178.523 14.829 178.523 13.4807V6.6897H164.273ZM179.34 20.9211H173.124V12.8684H170.378V20.9211H168.226V12.8684H165.479V20.9211H163.457V22.8879H179.34V20.9211Z" fill="black"/>
<path d="M52.8277 34.4941C52.3215 34.7801 51.759 34.923 51.1402 34.923C50.4207 34.923 49.8383 34.691 49.393 34.227C48.95 33.7629 48.7285 33.1488 48.7285 32.3848C48.7285 31.6043 48.9746 30.9645 49.4668 30.4652C49.9613 29.9637 50.5871 29.7129 51.3441 29.7129C51.8926 29.7129 52.3531 29.802 52.7258 29.9801V30.634C52.318 30.3762 51.8352 30.2473 51.2773 30.2473C50.7125 30.2473 50.2496 30.4418 49.8887 30.8309C49.5277 31.2199 49.3473 31.7238 49.3473 32.3426C49.3473 32.9801 49.5148 33.4816 49.85 33.8473C50.1852 34.2105 50.6398 34.3922 51.2141 34.3922C51.6078 34.3922 51.9488 34.3137 52.2371 34.1566V32.7434H51.1332V32.209H52.8277V34.4941Z" fill="black"/>
<path d="M58.4598 31.2387L57.3805 34.8387H56.7828L56.041 32.2617C56.0129 32.1633 55.9941 32.052 55.9848 31.9277H55.9707C55.9637 32.0121 55.9391 32.1211 55.8969 32.2547L55.0918 34.8387H54.5152L53.4254 31.2387H54.0301L54.7754 33.9457C54.7988 34.0277 54.8152 34.1355 54.8246 34.2691H54.8527C54.8598 34.166 54.8809 34.0559 54.916 33.9387L55.7457 31.2387H56.273L57.0184 33.9527C57.0418 34.0395 57.0594 34.1473 57.0711 34.2762H57.0992C57.1039 34.1848 57.1238 34.077 57.159 33.9527L57.8902 31.2387H58.4598Z" fill="black"/>
<path d="M61.7047 34.8387H61.1281V34.2762H61.1141C60.8633 34.7074 60.4941 34.923 60.0066 34.923C59.648 34.923 59.3668 34.8281 59.1629 34.6383C58.9613 34.4484 58.8605 34.1965 58.8605 33.8824C58.8605 33.2098 59.2566 32.8184 60.0488 32.7082L61.1281 32.557C61.1281 31.9453 60.8809 31.6395 60.3863 31.6395C59.9527 31.6395 59.5613 31.7871 59.2121 32.0824V31.4918C59.566 31.2668 59.9738 31.1543 60.4355 31.1543C61.2816 31.1543 61.7047 31.602 61.7047 32.4973V34.8387ZM61.1281 33.0176L60.2598 33.1371C59.9926 33.1746 59.791 33.2414 59.6551 33.3375C59.5191 33.4312 59.4512 33.5988 59.4512 33.8402C59.4512 34.016 59.5133 34.1602 59.6375 34.2727C59.7641 34.3828 59.9316 34.4379 60.1402 34.4379C60.4262 34.4379 60.6617 34.3383 60.8469 34.1391C61.0344 33.9375 61.1281 33.6832 61.1281 33.3762V33.0176Z" fill="black"/>
<path d="M65.7793 34.8387H65.2027V32.7855C65.2027 32.0215 64.9238 31.6395 64.366 31.6395C64.0777 31.6395 63.8387 31.7484 63.6488 31.9664C63.4613 32.182 63.3676 32.4551 63.3676 32.7855V34.8387H62.791V31.2387H63.3676V31.8363H63.3816C63.6535 31.3816 64.0473 31.1543 64.5629 31.1543C64.9566 31.1543 65.2578 31.282 65.4664 31.5375C65.675 31.7906 65.7793 32.1574 65.7793 32.6379V34.8387Z" fill="black"/>
<path d="M69.9418 34.5504C69.9418 35.8723 69.309 36.5332 68.0434 36.5332C67.598 36.5332 67.209 36.4488 66.8762 36.2801V35.7035C67.2816 35.9285 67.6684 36.041 68.0363 36.041C68.9223 36.041 69.3652 35.5699 69.3652 34.6277V34.234H69.3512C69.077 34.6934 68.6645 34.923 68.1137 34.923C67.666 34.923 67.3051 34.7637 67.0309 34.4449C66.759 34.1238 66.623 33.6937 66.623 33.1547C66.623 32.543 66.7695 32.0566 67.0625 31.6957C67.3578 31.3348 67.7609 31.1543 68.2719 31.1543C68.757 31.1543 69.1168 31.3488 69.3512 31.7379H69.3652V31.2387H69.9418V34.5504ZM69.3652 33.2109V32.6801C69.3652 32.3941 69.268 32.1492 69.0734 31.9453C68.8813 31.7414 68.641 31.6395 68.3527 31.6395C67.9965 31.6395 67.7176 31.7695 67.516 32.0297C67.3145 32.2875 67.2137 32.6496 67.2137 33.116C67.2137 33.5168 67.3098 33.8379 67.502 34.0793C67.6965 34.3184 67.9531 34.4379 68.2719 34.4379C68.5953 34.4379 68.8578 34.323 69.0594 34.0934C69.2633 33.8637 69.3652 33.5695 69.3652 33.2109Z" fill="black"/>
<path d="M71.6855 34.6875C71.6855 35.2781 71.566 35.7328 71.327 36.0516C71.0902 36.3727 70.7504 36.5332 70.3074 36.5332C70.1434 36.5332 69.984 36.4957 69.8293 36.4207V35.8828C70.0027 35.9883 70.1668 36.041 70.3215 36.041C70.8465 36.041 71.109 35.6215 71.109 34.7824V31.2387H71.6855V34.6875ZM71.4043 30.3246C71.3012 30.3246 71.2133 30.2895 71.1406 30.2191C71.068 30.1488 71.0316 30.0598 71.0316 29.952C71.0316 29.8441 71.068 29.7551 71.1406 29.6848C71.2133 29.6121 71.3012 29.5758 71.4043 29.5758C71.5098 29.5758 71.5988 29.6121 71.6715 29.6848C71.7465 29.7551 71.784 29.8441 71.784 29.952C71.784 30.0551 71.7465 30.143 71.6715 30.2156C71.5988 30.2883 71.5098 30.3246 71.4043 30.3246Z" fill="black"/>
<path d="M75.7637 34.8387H75.1871V34.2691H75.173C74.934 34.7051 74.5637 34.923 74.0621 34.923C73.2043 34.923 72.7754 34.4121 72.7754 33.3902V31.2387H73.3484V33.2988C73.3484 34.0582 73.6391 34.4379 74.2203 34.4379C74.5016 34.4379 74.7324 34.3348 74.9129 34.1285C75.0957 33.9199 75.1871 33.648 75.1871 33.3129V31.2387H75.7637V34.8387Z" fill="black"/>
<path d="M83.048 34.8387H82.3238L79.7293 30.8203C79.6637 30.7195 79.6098 30.6141 79.5676 30.5039H79.5465C79.5652 30.6117 79.5746 30.8426 79.5746 31.1965V34.8387H78.984V29.7973H79.7504L82.2746 33.7523C82.3801 33.9164 82.448 34.0289 82.4785 34.0898H82.4926C82.4691 33.9445 82.4574 33.6973 82.4574 33.348V29.7973H83.048V34.8387Z" fill="black"/>
<path d="M86.8695 34.8387H86.293V34.2762H86.2789C86.0281 34.7074 85.659 34.923 85.1715 34.923C84.8129 34.923 84.5316 34.8281 84.3277 34.6383C84.1262 34.4484 84.0254 34.1965 84.0254 33.8824C84.0254 33.2098 84.4215 32.8184 85.2137 32.7082L86.293 32.557C86.293 31.9453 86.0457 31.6395 85.5512 31.6395C85.1176 31.6395 84.7262 31.7871 84.377 32.0824V31.4918C84.7309 31.2668 85.1387 31.1543 85.6004 31.1543C86.4465 31.1543 86.8695 31.602 86.8695 32.4973V34.8387ZM86.293 33.0176L85.4246 33.1371C85.1574 33.1746 84.9559 33.2414 84.8199 33.3375C84.684 33.4312 84.616 33.5988 84.616 33.8402C84.616 34.016 84.6781 34.1602 84.8023 34.2727C84.9289 34.3828 85.0965 34.4379 85.3051 34.4379C85.591 34.4379 85.8266 34.3383 86.0117 34.1391C86.1992 33.9375 86.293 33.6832 86.293 33.3762V33.0176Z" fill="black"/>
<path d="M89.6258 34.8035C89.4898 34.8785 89.3106 34.916 89.0879 34.916C88.4574 34.916 88.1422 34.5645 88.1422 33.8613V31.7309H87.5234V31.2387H88.1422V30.3598L88.7188 30.1734V31.2387H89.6258V31.7309H88.7188V33.7594C88.7188 34.0008 88.7598 34.173 88.8418 34.2762C88.9238 34.3793 89.0598 34.4309 89.2496 34.4309C89.3949 34.4309 89.5203 34.391 89.6258 34.3113V34.8035Z" fill="black"/>
<path d="M90.691 30.3246C90.5879 30.3246 90.5 30.2895 90.4273 30.2191C90.3547 30.1488 90.3184 30.0598 90.3184 29.952C90.3184 29.8441 90.3547 29.7551 90.4273 29.6848C90.5 29.6121 90.5879 29.5758 90.691 29.5758C90.7965 29.5758 90.8855 29.6121 90.9582 29.6848C91.0332 29.7551 91.0707 29.8441 91.0707 29.952C91.0707 30.0551 91.0332 30.143 90.9582 30.2156C90.8855 30.2883 90.7965 30.3246 90.691 30.3246ZM90.9723 34.8387H90.3957V31.2387H90.9723V34.8387Z" fill="black"/>
<path d="M93.6441 34.923C93.1121 34.923 92.6867 34.7555 92.368 34.4203C92.0516 34.0828 91.8934 33.6363 91.8934 33.0809C91.8934 32.4762 92.0586 32.0039 92.3891 31.6641C92.7195 31.3242 93.166 31.1543 93.7285 31.1543C94.2652 31.1543 94.6836 31.3195 94.9836 31.65C95.2859 31.9805 95.4371 32.4387 95.4371 33.0246C95.4371 33.5988 95.2742 34.0594 94.9484 34.4062C94.625 34.7508 94.1902 34.923 93.6441 34.923ZM93.6863 31.6395C93.316 31.6395 93.0231 31.766 92.8074 32.0191C92.5918 32.2699 92.484 32.6168 92.484 33.0598C92.484 33.4863 92.593 33.8227 92.8109 34.0687C93.0289 34.3148 93.3207 34.4379 93.6863 34.4379C94.059 34.4379 94.3449 34.3172 94.5441 34.0758C94.7457 33.8344 94.8465 33.491 94.8465 33.0457C94.8465 32.5957 94.7457 32.2488 94.5441 32.0051C94.3449 31.7613 94.059 31.6395 93.6863 31.6395Z" fill="black"/>
<path d="M99.3465 34.8387H98.7699V32.7855C98.7699 32.0215 98.491 31.6395 97.9332 31.6395C97.6449 31.6395 97.4059 31.7484 97.216 31.9664C97.0285 32.182 96.9348 32.4551 96.9348 32.7855V34.8387H96.3582V31.2387H96.9348V31.8363H96.9488C97.2207 31.3816 97.6145 31.1543 98.1301 31.1543C98.5238 31.1543 98.825 31.282 99.0336 31.5375C99.2422 31.7906 99.3465 32.1574 99.3465 32.6379V34.8387Z" fill="black"/>
<path d="M103.013 34.8387H102.437V34.2762H102.423C102.172 34.7074 101.803 34.923 101.315 34.923C100.957 34.923 100.675 34.8281 100.471 34.6383C100.27 34.4484 100.169 34.1965 100.169 33.8824C100.169 33.2098 100.565 32.8184 101.357 32.7082L102.437 32.557C102.437 31.9453 102.189 31.6395 101.695 31.6395C101.261 31.6395 100.87 31.7871 100.521 32.0824V31.4918C100.875 31.2668 101.282 31.1543 101.744 31.1543C102.59 31.1543 103.013 31.602 103.013 32.4973V34.8387ZM102.437 33.0176L101.568 33.1371C101.301 33.1746 101.1 33.2414 100.964 33.3375C100.828 33.4312 100.76 33.5988 100.76 33.8402C100.76 34.016 100.822 34.1602 100.946 34.2727C101.073 34.3828 101.24 34.4379 101.449 34.4379C101.735 34.4379 101.97 34.3383 102.155 34.1391C102.343 33.9375 102.437 33.6832 102.437 33.3762V33.0176Z" fill="black"/>
<path d="M104.676 34.8387H104.1V29.509H104.676V34.8387Z" fill="black"/>
<path d="M111.584 32.7996C111.584 34.2152 110.946 34.923 109.668 34.923C108.445 34.923 107.833 34.2422 107.833 32.8805V29.7973H108.424V32.8418C108.424 33.8754 108.86 34.3922 109.732 34.3922C110.573 34.3922 110.994 33.893 110.994 32.8945V29.7973H111.584V32.7996Z" fill="black"/>
<path d="M115.757 34.8387H115.181V32.7855C115.181 32.0215 114.902 31.6395 114.344 31.6395C114.056 31.6395 113.817 31.7484 113.627 31.9664C113.439 32.182 113.346 32.4551 113.346 32.7855V34.8387H112.769V31.2387H113.346V31.8363H113.36C113.632 31.3816 114.025 31.1543 114.541 31.1543C114.935 31.1543 115.236 31.282 115.445 31.5375C115.653 31.7906 115.757 32.1574 115.757 32.6379V34.8387Z" fill="black"/>
<path d="M117.143 30.3246C117.039 30.3246 116.952 30.2895 116.879 30.2191C116.806 30.1488 116.77 30.0598 116.77 29.952C116.77 29.8441 116.806 29.7551 116.879 29.6848C116.952 29.6121 117.039 29.5758 117.143 29.5758C117.248 29.5758 117.337 29.6121 117.41 29.6848C117.485 29.7551 117.522 29.8441 117.522 29.952C117.522 30.0551 117.485 30.143 117.41 30.2156C117.337 30.2883 117.248 30.3246 117.143 30.3246ZM117.424 34.8387H116.847V31.2387H117.424V34.8387Z" fill="black"/>
<path d="M121.421 31.2387L119.987 34.8387H119.421L118.057 31.2387H118.689L119.604 33.8543C119.671 34.0465 119.714 34.2141 119.73 34.357H119.744C119.768 34.1766 119.805 34.0137 119.857 33.8684L120.813 31.2387H121.421Z" fill="black"/>
<path d="M124.937 33.1828H122.395C122.404 33.5836 122.512 33.893 122.718 34.1109C122.925 34.3289 123.208 34.4379 123.569 34.4379C123.975 34.4379 124.347 34.3043 124.687 34.0371V34.5785C124.371 34.8082 123.952 34.923 123.432 34.923C122.923 34.923 122.524 34.7602 122.233 34.4344C121.943 34.1062 121.797 33.6457 121.797 33.0527C121.797 32.4926 121.955 32.0367 122.272 31.6852C122.591 31.3312 122.986 31.1543 123.457 31.1543C123.928 31.1543 124.292 31.3066 124.55 31.6113C124.808 31.916 124.937 32.3391 124.937 32.8805V33.1828ZM124.346 32.6941C124.344 32.3613 124.263 32.1023 124.104 31.9172C123.946 31.732 123.727 31.6395 123.446 31.6395C123.174 31.6395 122.943 31.7367 122.754 31.9312C122.564 32.1258 122.446 32.3801 122.402 32.6941H124.346Z" fill="black"/>
<path d="M127.689 31.8223C127.589 31.7449 127.443 31.7062 127.254 31.7062C127.007 31.7062 126.801 31.8223 126.635 32.0543C126.471 32.2863 126.389 32.6027 126.389 33.0035V34.8387H125.812V31.2387H126.389V31.9805H126.403C126.485 31.7273 126.61 31.5305 126.779 31.3898C126.948 31.2469 127.136 31.1754 127.345 31.1754C127.495 31.1754 127.61 31.1918 127.689 31.2246V31.8223Z" fill="black"/>
<path d="M128.097 34.7086V34.0898C128.411 34.3219 128.757 34.4379 129.134 34.4379C129.641 34.4379 129.894 34.2691 129.894 33.9316C129.894 33.8355 129.871 33.7547 129.827 33.6891C129.785 33.6211 129.726 33.5613 129.651 33.5098C129.579 33.4582 129.492 33.4125 129.391 33.3727C129.293 33.3305 129.186 33.2871 129.071 33.2426C128.912 33.1793 128.771 33.116 128.649 33.0527C128.53 32.9871 128.429 32.9145 128.347 32.8348C128.267 32.7527 128.206 32.6602 128.164 32.557C128.124 32.4539 128.104 32.3332 128.104 32.1949C128.104 32.0262 128.143 31.8773 128.22 31.7484C128.298 31.6172 128.401 31.5082 128.53 31.4215C128.659 31.3324 128.805 31.2656 128.969 31.2211C129.136 31.1766 129.307 31.1543 129.482 31.1543C129.794 31.1543 130.073 31.2082 130.319 31.316V31.8996C130.054 31.7262 129.75 31.6395 129.405 31.6395C129.297 31.6395 129.2 31.6523 129.113 31.6781C129.027 31.7016 128.952 31.7355 128.888 31.7801C128.827 31.8246 128.779 31.8785 128.744 31.9418C128.711 32.0027 128.695 32.0707 128.695 32.1457C128.695 32.2395 128.711 32.318 128.744 32.3812C128.779 32.4445 128.83 32.5008 128.895 32.55C128.961 32.5992 129.041 32.6437 129.134 32.6836C129.228 32.7234 129.335 32.7668 129.454 32.8137C129.614 32.8746 129.757 32.9379 129.883 33.0035C130.01 33.0668 130.118 33.1395 130.207 33.2215C130.296 33.3012 130.364 33.3937 130.411 33.4992C130.46 33.6047 130.484 33.7301 130.484 33.8754C130.484 34.0535 130.445 34.2082 130.365 34.3395C130.288 34.4707 130.183 34.5797 130.052 34.6664C129.921 34.7531 129.77 34.8176 129.598 34.8598C129.427 34.902 129.248 34.923 129.061 34.923C128.69 34.923 128.369 34.8516 128.097 34.7086Z" fill="black"/>
<path d="M131.669 30.3246C131.566 30.3246 131.478 30.2895 131.405 30.2191C131.333 30.1488 131.296 30.0598 131.296 29.952C131.296 29.8441 131.333 29.7551 131.405 29.6848C131.478 29.6121 131.566 29.5758 131.669 29.5758C131.775 29.5758 131.864 29.6121 131.936 29.6848C132.011 29.7551 132.049 29.8441 132.049 29.952C132.049 30.0551 132.011 30.143 131.936 30.2156C131.864 30.2883 131.775 30.3246 131.669 30.3246ZM131.95 34.8387H131.374V31.2387H131.95V34.8387Z" fill="black"/>
<path d="M134.787 34.8035C134.652 34.8785 134.472 34.916 134.25 34.916C133.619 34.916 133.304 34.5645 133.304 33.8613V31.7309H132.685V31.2387H133.304V30.3598L133.88 30.1734V31.2387H134.787V31.7309H133.88V33.7594C133.88 34.0008 133.921 34.173 134.004 34.2762C134.086 34.3793 134.221 34.4309 134.411 34.4309C134.557 34.4309 134.682 34.391 134.787 34.3113V34.8035Z" fill="black"/>
<path d="M138.423 31.2387L136.767 35.4152C136.471 36.1605 136.057 36.5332 135.522 36.5332C135.372 36.5332 135.247 36.518 135.146 36.4875V35.9707C135.27 36.0129 135.384 36.034 135.487 36.034C135.778 36.034 135.996 35.8605 136.141 35.5137L136.429 34.8316L135.023 31.2387H135.663L136.637 34.009C136.648 34.0441 136.673 34.1355 136.711 34.2832H136.732C136.743 34.227 136.767 34.1379 136.802 34.016L137.825 31.2387H138.423Z" fill="black"/>
<path d="M142.525 34.923C141.993 34.923 141.568 34.7555 141.249 34.4203C140.933 34.0828 140.775 33.6363 140.775 33.0809C140.775 32.4762 140.94 32.0039 141.27 31.6641C141.601 31.3242 142.047 31.1543 142.61 31.1543C143.146 31.1543 143.565 31.3195 143.865 31.65C144.167 31.9805 144.318 32.4387 144.318 33.0246C144.318 33.5988 144.155 34.0594 143.83 34.4062C143.506 34.7508 143.071 34.923 142.525 34.923ZM142.568 31.6395C142.197 31.6395 141.904 31.766 141.689 32.0191C141.473 32.2699 141.365 32.6168 141.365 33.0598C141.365 33.4863 141.474 33.8227 141.692 34.0687C141.91 34.3148 142.202 34.4379 142.568 34.4379C142.94 34.4379 143.226 34.3172 143.425 34.0758C143.627 33.8344 143.728 33.491 143.728 33.0457C143.728 32.5957 143.627 32.2488 143.425 32.0051C143.226 31.7613 142.94 31.6395 142.568 31.6395Z" fill="black"/>
<path d="M147.018 30.0152C146.906 29.952 146.778 29.9203 146.635 29.9203C146.232 29.9203 146.03 30.1746 146.03 30.6832V31.2387H146.874V31.7309H146.03V34.8387H145.457V31.7309H144.842V31.2387H145.457V30.6551C145.457 30.2777 145.566 29.9801 145.784 29.7621C146.002 29.5418 146.274 29.4316 146.6 29.4316C146.776 29.4316 146.915 29.4527 147.018 29.4949V30.0152Z" fill="black"/>
<path d="M152.221 34.8387H149.55V29.7973H152.109V30.3316H150.14V32.0086H151.961V32.5395H150.14V34.3043H152.221V34.8387Z" fill="black"/>
<path d="M156.187 34.8387H155.611V34.227H155.596C155.329 34.691 154.917 34.923 154.359 34.923C153.907 34.923 153.545 34.7625 153.273 34.4414C153.003 34.118 152.868 33.6785 152.868 33.123C152.868 32.5277 153.018 32.0508 153.318 31.6922C153.618 31.3336 154.018 31.1543 154.517 31.1543C155.012 31.1543 155.371 31.3488 155.596 31.7379H155.611V29.509H156.187V34.8387ZM155.611 33.2109V32.6801C155.611 32.3895 155.514 32.1434 155.322 31.9418C155.13 31.7402 154.886 31.6395 154.591 31.6395C154.239 31.6395 153.963 31.7684 153.761 32.0262C153.56 32.284 153.459 32.6402 153.459 33.0949C153.459 33.5098 153.555 33.8379 153.747 34.0793C153.942 34.3184 154.202 34.4379 154.528 34.4379C154.849 34.4379 155.109 34.3219 155.308 34.0898C155.51 33.8578 155.611 33.5648 155.611 33.2109Z" fill="black"/>
<path d="M160.265 34.8387H159.689V34.2691H159.675C159.436 34.7051 159.065 34.923 158.564 34.923C157.706 34.923 157.277 34.4121 157.277 33.3902V31.2387H157.85V33.2988C157.85 34.0582 158.141 34.4379 158.722 34.4379C159.003 34.4379 159.234 34.3348 159.414 34.1285C159.597 33.9199 159.689 33.648 159.689 33.3129V31.2387H160.265V34.8387Z" fill="black"/>
<path d="M163.886 34.6734C163.61 34.8398 163.282 34.923 162.902 34.923C162.389 34.923 161.974 34.7566 161.657 34.4238C161.343 34.0887 161.186 33.6551 161.186 33.123C161.186 32.5301 161.356 32.0543 161.696 31.6957C162.036 31.3348 162.489 31.1543 163.057 31.1543C163.373 31.1543 163.652 31.2129 163.893 31.3301V31.9207C163.626 31.7332 163.34 31.6395 163.036 31.6395C162.668 31.6395 162.365 31.7719 162.129 32.0367C161.894 32.2992 161.777 32.6449 161.777 33.0738C161.777 33.4957 161.887 33.8285 162.107 34.0723C162.33 34.316 162.628 34.4379 163 34.4379C163.314 34.4379 163.61 34.3336 163.886 34.125V34.6734Z" fill="black"/>
<path d="M167.335 34.8387H166.759V34.2762H166.745C166.494 34.7074 166.125 34.923 165.637 34.923C165.279 34.923 164.997 34.8281 164.793 34.6383C164.592 34.4484 164.491 34.1965 164.491 33.8824C164.491 33.2098 164.887 32.8184 165.679 32.7082L166.759 32.557C166.759 31.9453 166.511 31.6395 166.017 31.6395C165.583 31.6395 165.192 31.7871 164.843 32.0824V31.4918C165.196 31.2668 165.604 31.1543 166.066 31.1543C166.912 31.1543 167.335 31.602 167.335 32.4973V34.8387ZM166.759 33.0176L165.89 33.1371C165.623 33.1746 165.421 33.2414 165.286 33.3375C165.15 33.4312 165.082 33.5988 165.082 33.8402C165.082 34.016 165.144 34.1602 165.268 34.2727C165.395 34.3828 165.562 34.4379 165.771 34.4379C166.057 34.4379 166.292 34.3383 166.477 34.1391C166.665 33.9375 166.759 33.6832 166.759 33.3762V33.0176Z" fill="black"/>
<path d="M170.091 34.8035C169.955 34.8785 169.776 34.916 169.554 34.916C168.923 34.916 168.608 34.5645 168.608 33.8613V31.7309H167.989V31.2387H168.608V30.3598L169.184 30.1734V31.2387H170.091V31.7309H169.184V33.7594C169.184 34.0008 169.225 34.173 169.307 34.2762C169.389 34.3793 169.525 34.4309 169.715 34.4309C169.861 34.4309 169.986 34.391 170.091 34.3113V34.8035Z" fill="black"/>
<path d="M171.157 30.3246C171.054 30.3246 170.966 30.2895 170.893 30.2191C170.82 30.1488 170.784 30.0598 170.784 29.952C170.784 29.8441 170.82 29.7551 170.893 29.6848C170.966 29.6121 171.054 29.5758 171.157 29.5758C171.262 29.5758 171.351 29.6121 171.424 29.6848C171.499 29.7551 171.536 29.8441 171.536 29.952C171.536 30.0551 171.499 30.143 171.424 30.2156C171.351 30.2883 171.262 30.3246 171.157 30.3246ZM171.438 34.8387H170.861V31.2387H171.438V34.8387Z" fill="black"/>
<path d="M174.11 34.923C173.578 34.923 173.152 34.7555 172.834 34.4203C172.517 34.0828 172.359 33.6363 172.359 33.0809C172.359 32.4762 172.524 32.0039 172.855 31.6641C173.185 31.3242 173.632 31.1543 174.194 31.1543C174.731 31.1543 175.149 31.3195 175.449 31.65C175.752 31.9805 175.903 32.4387 175.903 33.0246C175.903 33.5988 175.74 34.0594 175.414 34.4062C175.091 34.7508 174.656 34.923 174.11 34.923ZM174.152 31.6395C173.782 31.6395 173.489 31.766 173.273 32.0191C173.057 32.2699 172.95 32.6168 172.95 33.0598C172.95 33.4863 173.059 33.8227 173.277 34.0687C173.495 34.3148 173.786 34.4379 174.152 34.4379C174.525 34.4379 174.811 34.3172 175.01 34.0758C175.211 33.8344 175.312 33.491 175.312 33.0457C175.312 32.5957 175.211 32.2488 175.01 32.0051C174.811 31.7613 174.525 31.6395 174.152 31.6395Z" fill="black"/>
<path d="M179.812 34.8387H179.236V32.7855C179.236 32.0215 178.957 31.6395 178.399 31.6395C178.111 31.6395 177.871 31.7484 177.682 31.9664C177.494 32.182 177.4 32.4551 177.4 32.7855V34.8387H176.824V31.2387H177.4V31.8363H177.414C177.686 31.3816 178.08 31.1543 178.596 31.1543C178.989 31.1543 179.291 31.282 179.499 31.5375C179.708 31.7906 179.812 32.1574 179.812 32.6379V34.8387Z" fill="black"/>
<g clip-path="url(#clip0_201_2736)">
<path d="M0.0722656 20.5C0.0722656 31.8001 9.27219 41 20.5723 41C31.8723 41 41.0723 31.8001 41.0723 20.5C41.0723 9.19992 31.8723 0 20.5723 0C9.27219 0 0.0722656 9.19992 0.0722656 20.5ZM0.370048 20.5C0.370048 9.35665 9.42892 0.297783 20.5723 0.297783C31.7156 0.297783 40.7745 9.35665 40.7745 20.5C40.7745 31.6433 31.7156 40.7022 20.5723 40.7022C9.42892 40.7022 0.370048 31.6433 0.370048 20.5Z" fill="#00942F"/>
<path d="M3.61426 20.4999C3.61426 29.8566 11.2156 37.4579 20.5722 37.4579C29.9289 37.4579 37.5302 29.8566 37.5302 20.4999C37.5302 11.1433 29.9289 3.54199 20.5722 3.54199C11.2156 3.54199 3.61426 11.1433 3.61426 20.4999ZM3.91204 20.4999C3.91204 11.3157 11.388 3.83978 20.5722 3.83978C29.7565 3.83978 37.2324 11.3157 37.2324 20.4999C37.2324 29.6842 29.7565 37.1601 20.5722 37.1601C11.388 37.1601 3.91204 29.6842 3.91204 20.4999Z" fill="#00942F"/>
<path d="M34.74 18.3059C34.0347 18.0551 33.5175 17.3028 32.6712 17.3499C32.5928 17.0364 32.969 17.0364 33.11 16.8797C33.11 16.5349 33.5959 16.4722 33.5019 16.1431C32.8436 16.2684 32.4518 15.7512 31.8249 15.8296C31.0412 14.9989 32.7496 15.7042 32.6555 14.9206C32.8436 14.7795 33.1727 14.9206 33.3608 14.7795C33.4548 14.3093 33.972 14.4661 34.2385 14.2153C34.4109 13.6824 33.7056 13.9959 33.4548 13.8078C33.4862 13.2749 33.6429 12.5853 33.3138 12.1778C32.9533 11.9584 32.922 12.5383 32.5772 12.4443C32.2324 12.2249 32.3891 11.7704 32.2794 11.4256C31.9189 11.1121 31.5741 11.5509 31.1666 11.5039C30.8532 11.5353 30.9942 11.1434 30.9158 10.924C30.9472 10.783 31.0412 10.5635 31.2293 10.5792C31.4801 10.6576 31.5428 10.8927 31.6211 11.0964C31.7465 10.7986 31.7622 10.3441 31.5898 10.0777C30.8375 10.3285 31.292 9.37242 30.7121 9.29405C30.1009 9.12165 30.3673 10.0307 29.9285 10.2658C29.615 10.2658 29.2702 10.3128 29.0508 10.0777C28.8314 9.18435 28.3925 8.35369 27.7656 7.61707C27.5932 7.22525 27.076 6.99016 27.1857 6.5043C27.1074 6.20652 26.3551 6.01844 26.4021 6.55132C27.1544 7.50736 27.3738 8.69849 27.6402 9.85827C27.7656 10.0777 27.938 10.5165 27.6402 10.7046L25.8849 10.0463C23.722 9.24704 21.1674 9.29405 18.7224 9.26271C18.0485 9.70155 17.1708 9.29405 16.5126 9.74856C16.3872 9.93664 16.3402 10.3285 16.5439 10.5009C17.2962 10.9397 17.2178 9.8426 17.9074 10.0463C18.0485 10.0777 18.0955 10.2187 18.0798 10.3441C17.9074 10.783 17.4686 11.0024 17.0611 11.0964C16.4029 11.4412 16.0424 10.6262 15.4468 10.783V11.0494C15.4468 11.4412 15.8856 11.2688 16.1207 11.3629C16.1207 11.5039 16.0894 11.6293 15.9954 11.7077C15.1177 11.7547 14.2714 11.8801 13.4877 12.2249C13.5661 12.6324 14.146 12.3973 14.3184 12.7421C14.0206 13.1339 13.9579 13.5884 13.7855 14.0272C13.2683 14.3877 12.8138 14.9049 12.9548 15.6102C12.9078 15.8609 12.4847 15.8609 12.61 16.1744L12.9078 16.2057C13.2213 16.2528 13.425 16.0333 13.5347 15.7983C13.8952 15.6729 13.9266 16.1431 14.0676 16.2528L14.3184 15.9393C14.6318 15.8139 14.8512 16.1587 15.0236 16.3781C15.2117 15.8609 15.6506 16.5035 16.0267 16.2998C15.8543 15.8296 15.9013 15.2811 15.8386 14.7639C15.7132 14.4974 15.3998 14.5444 15.1804 14.372C15.149 14.0586 15.6192 14.1996 15.6349 13.9645C16.1521 13.6197 16.2931 13.0869 16.2618 12.4756C16.3872 12.1152 16.9984 12.3816 17.3119 12.2405C17.9388 12.0211 17.4373 11.0651 17.9701 10.8457C18.1895 10.015 19.2083 10.5322 19.459 9.70155C20.6032 9.46645 21.8413 9.6702 23.0324 9.6702C23.2519 9.76424 23.5967 9.85827 23.5183 10.2031C23.4399 10.2971 23.3459 10.3441 23.2205 10.3285C22.7347 10.3755 22.1704 10.4068 21.7629 10.1561C21.4965 10.015 21.183 10.1247 20.9323 10.2031C20.5248 10.83 19.7568 10.736 19.3023 11.1748C19.5217 11.3942 19.8665 11.4412 20.0076 11.692C19.5531 11.8644 19.1142 11.5196 18.597 11.6136C18.503 11.692 18.2836 11.739 18.3306 11.9114C18.7851 12.5226 17.8134 12.4286 17.9388 12.9772C18.0171 13.1496 18.1739 13.0712 18.3306 13.0712C19.0359 12.7734 19.4277 11.9271 20.274 11.8957L20.3524 11.2375C20.8696 10.6106 20.7912 11.5509 21.136 11.6763C20.8382 12.1622 20.2584 12.3346 19.9606 12.7734C19.9606 13.1182 19.7412 13.6041 20.1486 13.7765L19.8979 14.0899C19.1142 14.3564 18.3619 14.6541 17.6097 14.9833C16.8574 15.2497 17.3119 16.049 17.1708 16.6132C15.8386 18.0708 18.2836 18.5096 18.4403 19.7478C18.7538 20.1553 18.9262 20.8449 19.5531 20.8919C19.412 20.312 18.9262 19.8418 18.6284 19.3403C18.3776 18.7761 18.3306 18.1648 17.8447 17.7417L17.7194 18.1805C17.6253 18.1648 17.4999 18.2275 17.4529 18.1022C17.2649 17.8044 16.9827 17.4752 17.2022 17.1304L17.6567 17.5223L17.6253 16.864C18.8478 15.2027 20.9166 14.9206 22.3272 13.3846C22.813 13.0869 23.3929 13.2593 23.9571 13.2593C24.4743 13.4787 24.396 14.0429 24.7094 14.4034C24.9288 14.7482 25.6655 14.5915 25.4931 15.187C24.9288 15.0146 24.396 14.7012 23.7691 14.9363C23.1108 14.9833 23.4713 16.049 22.6563 15.7199C22.3585 15.8139 22.4212 16.1274 22.3899 16.3781C22.3428 16.7386 21.951 16.6446 21.7316 16.6916C20.9323 17.2558 21.1047 18.494 21.2928 19.2933C21.7629 19.1209 22.1861 18.682 22.5152 18.2432C22.766 17.9924 22.5623 17.5693 22.9071 17.3499C22.9854 16.5505 24.0041 16.6603 24.3646 15.9863C25.211 16.0333 26.4804 15.4691 27.0133 16.3468C27.2798 16.6916 27.891 16.5662 27.985 17.0521C27.3268 17.3185 26.4491 17.1304 25.7752 17.3499C24.8505 17.6633 24.3803 18.7134 23.7534 19.3403C23.5653 19.6851 22.6093 19.4343 23.0011 19.9986C24.0512 19.9672 24.6781 18.7134 25.7282 18.5567C27.2641 17.8514 28.7687 18.9015 30.2576 18.682C30.2576 18.9485 30.2889 19.309 30.0068 19.5284C29.8188 19.6224 29.5993 19.497 29.4896 19.3403C29.1291 19.0739 28.8314 19.4657 28.4395 19.4657C27.6559 19.497 27.5149 20.5158 26.8879 20.8292L26.9663 20.9076C27.8126 20.7195 29.2075 21.2681 29.5993 20.1239C29.8501 20.0769 30.2106 20.0299 30.383 20.312C31.2136 19.9672 31.8876 20.5314 32.5458 20.8449C32.7339 20.7509 32.8593 20.5471 32.9376 20.3747C33.1571 19.8105 32.7652 19.3246 32.5301 18.8701C33.2197 18.6037 34.0661 18.7447 34.7713 18.5723C34.8654 18.5253 34.8184 18.3843 34.74 18.3059ZM33.11 14.372H32.7966C32.7496 14.184 33.016 14.1526 33.11 14.231V14.372ZM32.9847 12.6794C33.2824 12.695 33.2511 13.0242 33.2981 13.2436C33.2981 13.369 33.1257 13.4944 33.0317 13.557C32.8593 13.6041 32.7339 13.4787 32.6712 13.369C32.7182 13.1025 32.7182 12.8048 32.9847 12.6794ZM15.7603 15.2184C15.7916 15.3908 15.7132 15.4848 15.5722 15.5161C15.4311 15.5632 15.2744 15.4378 15.2744 15.3281C15.1647 14.9676 15.6506 15.0146 15.7603 15.2184ZM14.287 12.2719C14.3654 12.0525 14.6475 12.1465 14.8042 12.1935C14.7572 12.3346 14.5064 12.3659 14.3967 12.3346L14.287 12.2719ZM14.146 13.4473C14.2714 13.1966 14.8356 13.0869 14.6162 13.5257C14.5221 13.6981 14.3497 13.6981 14.2087 13.6668C14.1303 13.6041 14.146 13.51 14.146 13.4473ZM13.7542 15.0146C13.6601 14.9833 13.4877 15.093 13.4407 14.9363C13.3937 14.7168 13.6915 14.3564 13.8795 14.6698C13.8795 14.8109 13.9109 14.9519 13.7542 15.0146ZM14.2243 15.5318C14.146 15.5632 14.0833 15.5318 14.0363 15.4535L14.1146 15.2654C14.193 15.3124 14.2557 15.2654 14.3027 15.3437C14.3184 15.4064 14.287 15.4848 14.2243 15.5318ZM14.8042 14.9206C14.5535 14.9989 14.4124 14.7952 14.287 14.6228L14.334 14.4817C14.5064 14.5288 14.6788 14.5758 14.8042 14.7482V14.9206ZM14.9766 14.1526H14.8512C14.8042 14.0272 14.7572 13.8078 14.8826 13.7138C15.055 13.7138 15.2274 13.6824 15.2744 13.8548C15.3214 14.0743 15.1647 14.1996 14.9766 14.1526ZM15.1647 12.9301C15.0863 12.9615 14.9453 12.9301 14.9923 12.8048C14.961 12.5853 15.2117 12.5383 15.3841 12.5383C15.3841 12.7107 15.2744 12.8048 15.1647 12.9301ZM15.9483 13.1652C15.917 13.2593 15.8073 13.2906 15.6976 13.2593C15.6192 13.1182 15.6506 12.8674 15.823 12.8048C16.0267 12.7891 15.9954 13.0555 15.9483 13.1652ZM16.3402 12.1935C16.2148 12.1935 16.1051 12.1622 16.1051 12.0681C16.0581 11.8174 16.3402 11.8487 16.4499 11.8957C16.4342 12.0211 16.4655 12.1778 16.3402 12.1935ZM18.9732 9.93664C18.8791 9.90529 18.7538 9.98366 18.7067 9.85827C18.6284 9.56049 19.0202 9.4978 19.1456 9.68587C19.1926 9.81126 19.0672 9.88962 18.9732 9.93664ZM21.6846 18.7761C21.5905 18.8231 21.5905 18.6977 21.5435 18.6507C21.5122 18.5096 21.6376 18.3529 21.7316 18.3372C21.7943 18.447 21.8413 18.6664 21.6846 18.7761ZM22.2801 17.8671H21.6689C21.5749 17.6947 21.7629 17.5693 21.9353 17.5536L22.2801 17.6006V17.8671V17.8671ZM22.5152 17.0678C22.4682 17.0207 22.3899 16.9424 22.4682 16.8954C22.6406 16.864 22.7817 16.817 22.9541 16.817C23.0324 17.0678 22.719 17.1618 22.5152 17.0678ZM23.6907 16.049C23.5496 16.0804 23.4243 16.002 23.2989 15.9707C23.5183 15.9236 23.7847 15.5632 24.0825 15.7983C24.1295 16.096 23.8161 15.955 23.6907 16.049ZM24.2236 15.3908C24.1922 15.3437 24.1452 15.3437 24.0982 15.3437C23.9571 14.9519 24.5057 15.093 24.6154 15.2184C24.6624 15.4535 24.3646 15.4378 24.2236 15.3908ZM28.0477 20.359C27.9537 20.359 27.8597 20.3904 27.797 20.2807C27.797 19.9359 28.1888 20.0299 28.4239 20.0142C28.5336 20.2963 28.2828 20.4217 28.0477 20.359ZM29.0665 20.1553C28.9411 20.2023 28.847 20.1083 28.8784 20.0142C28.7843 19.7635 29.1448 19.7478 29.1448 19.5597C29.3642 19.5284 29.1918 19.7948 29.2859 19.9045C29.2702 20.0299 29.2389 20.1866 29.0665 20.1553ZM32.1383 11.9114C32.2794 11.9114 32.3264 12.1622 32.2637 12.2719C32.1697 12.4129 31.9659 12.46 31.8249 12.3973C31.7152 12.1935 31.9659 11.9741 32.1383 11.9114ZM32.0913 13.6668C32.1227 13.4003 31.6995 13.2593 31.9032 12.9301C32.3577 12.8048 32.4361 13.2436 32.4831 13.557C32.5145 13.8548 32.3577 14.1213 32.0756 14.1683C31.7778 14.2153 31.5114 14.1369 31.3233 13.9802V13.7921C31.5741 13.7608 31.9346 13.8705 32.0913 13.6668ZM30.9002 12.1465C31.1509 12.0995 31.3547 12.3346 31.433 12.5383C31.386 12.7107 31.0882 12.7264 30.9158 12.6167C30.8688 12.4913 30.7278 12.2719 30.9002 12.1465ZM30.6494 10.2501H30.524L30.4927 9.88962C30.5554 9.98366 30.7278 10.1247 30.6494 10.2501ZM30.1792 10.7203C30.3673 10.8927 30.7591 11.0181 30.7121 11.3315C30.6808 11.4099 30.6181 11.4256 30.524 11.4256C30.43 11.1748 30.0695 11.0494 30.1792 10.7203ZM30.3046 11.9584C30.4927 12.0995 30.3986 12.3973 30.524 12.5853C30.6494 12.9928 31.5428 12.9301 31.0882 13.369C30.8688 13.463 30.571 13.322 30.383 13.463C30.383 13.9489 30.9472 14.0899 31.1196 14.4347C31.4174 14.4817 31.7935 14.3093 31.9973 14.6071C31.9189 15.046 31.1666 14.9519 31.4174 15.5318C31.3704 15.6572 31.198 15.6259 31.1196 15.5788C30.6337 15.0616 30.4927 14.3407 29.9441 13.9019C29.7561 13.3376 29.8501 12.6324 29.8658 12.0211C29.9912 11.9584 30.1322 11.9584 30.3046 11.9584ZM31.0412 16.77C30.477 16.8483 30.6494 15.9863 30.0695 15.9236C29.8501 15.6729 29.8501 15.3124 29.9285 14.9989C30.0068 14.8579 30.1792 14.9049 30.2733 14.9519C30.4457 15.2184 30.4143 15.5788 30.5867 15.8609L31.0412 16.77ZM29.5993 10.783C29.7874 10.924 29.9598 11.1748 29.9128 11.4882C29.6934 11.4569 29.6464 11.1905 29.5523 11.0181L29.5993 10.783ZM29.474 14.4817C29.615 14.5131 29.521 14.6698 29.5523 14.7952C29.521 14.8422 29.474 14.8265 29.4583 14.8265C29.3799 14.7325 29.3799 14.5601 29.474 14.4817ZM28.6746 10.1561C29.1135 10.6733 29.4113 11.3785 29.3486 12.0838C28.7687 11.8957 28.7687 11.1121 28.6119 10.5479L28.6746 10.1561ZM29.1605 12.8518L28.9411 13.6511C28.753 13.463 28.6746 13.0712 28.6903 12.6794C28.8 12.3659 29.1918 12.6324 29.1605 12.8518ZM27.844 9.09031L28.0947 9.30973C28.0947 9.92097 28.3925 10.4538 28.2828 11.0651C28.3142 10.4538 27.5775 9.81126 27.844 9.09031ZM22.5152 10.9397C22.86 10.7986 23.2675 10.7203 23.628 10.7516C24.2079 10.4068 24.9915 10.2344 25.6498 10.4852C24.6781 11.4882 23.0481 11.0651 21.857 11.6293C21.904 11.3785 22.2488 11.0337 22.5152 10.9397ZM21.6689 10.83C21.81 10.783 22.0607 10.83 21.9824 11.0494C22.0137 11.2375 21.7943 11.2688 21.6846 11.3629C21.5592 11.3315 21.2928 11.4412 21.2928 11.2218C21.2301 10.9397 21.5749 11.0024 21.6689 10.83ZM20.1173 13.2436C20.0703 13.0555 20.2897 12.9772 20.3837 12.8518C20.5091 12.8204 20.6815 12.8518 20.6502 12.9928C20.7442 13.2122 20.4778 13.2279 20.3837 13.3063C20.274 13.2906 20.1643 13.369 20.1173 13.2436ZM17.7977 16.002C17.7037 16.002 17.4999 16.049 17.4999 15.908C17.6253 15.2967 18.3306 15.2967 18.7381 15.0146L20.948 13.9645C20.0546 14.7012 18.8948 15.4064 17.7977 16.002ZM20.8853 13.1966C21.0106 12.8831 21.3398 12.7421 21.5905 12.5383C21.4495 12.3502 21.1047 12.4443 20.8853 12.3502C22.2645 12.0838 23.7377 11.786 25.1639 11.5039C25.9632 11.3158 27.4208 10.6262 27.9694 11.7704C28.3769 12.46 28.4552 13.2593 28.5022 14.0586C28.3142 14.2467 28.0164 14.0586 27.797 13.9645C26.6058 13.1652 25.5871 11.4412 24.0041 12.0211C22.9854 12.4443 21.9667 12.8831 20.8853 13.1966ZM23.8318 12.8518C23.7064 12.7734 23.5653 12.7734 23.4399 12.7264C23.6123 12.5383 24.0042 12.601 24.2236 12.6794C25.6811 13.416 26.9193 14.7952 27.9223 16.1117C26.5118 15.1713 25.1169 14.0429 23.8318 12.8518ZM27.7029 17.9454C27.7813 17.726 28.1418 17.726 28.3769 17.679C28.8941 17.82 29.615 17.632 29.9128 18.1492C29.1135 18.0865 28.3455 18.3059 27.7029 17.9454ZM31.3077 19.6694C31.1823 19.8889 30.9002 19.8889 30.6964 19.8105C30.5084 19.7165 30.571 19.4187 30.6181 19.2776C30.7905 18.9798 30.9629 19.3716 31.198 19.309C31.3547 19.3716 31.3077 19.5284 31.3077 19.6694ZM31.6054 18.8388C29.4113 16.864 27.123 14.8265 25.1796 12.5383C27.4678 14.2467 30.0695 16.0647 31.6838 18.5253L31.6054 18.8388ZM31.4801 16.2371C31.7465 16.911 32.5301 16.3155 32.8436 16.7073C32.5301 16.8954 32.0129 16.8483 31.6681 16.7543C31.4957 16.6603 31.2606 16.4408 31.4801 16.2371ZM32.5928 19.5754C32.5458 19.7478 32.5458 19.9359 32.4675 20.0926C32.1697 20.0926 31.9032 19.8262 31.8562 19.5597C31.8249 19.4187 31.9032 19.3403 31.9973 19.2463C32.248 19.1052 32.5772 19.3246 32.5928 19.5754ZM32.3264 18.5723C32.1853 18.6037 32.0129 18.5253 32.0129 18.3843C31.9816 18.2589 32.06 18.1648 32.1853 18.1335C32.3264 18.1022 32.4518 18.1648 32.5772 18.2589C32.5301 18.3843 32.4988 18.5723 32.3264 18.5723Z" fill="#00942F"/>
<path d="M13.5193 17.7259C13.7387 17.3654 14.0522 17.7259 14.3029 17.7259C14.6007 17.6789 14.5537 17.3811 14.5537 17.1617C14.5537 16.5975 13.9268 16.6758 13.535 16.7542C13.1745 17.099 13.2685 17.7259 13.3155 18.2118C13.8484 18.6819 13.6603 19.4029 14.3656 19.7634C14.5067 19.9358 14.7574 19.8417 14.8828 19.685C15.0709 19.2462 14.8828 18.6819 14.5223 18.3215C14.1775 18.1177 13.582 18.2118 13.5193 17.7259ZM13.9581 16.9736C14.0522 17.099 14.3186 16.8952 14.3499 17.146C14.3499 17.2401 14.3029 17.3184 14.2246 17.3654L13.9111 17.2871L13.9581 16.9736ZM14.2716 19.2775C14.0835 19.1051 14.1932 18.87 14.2716 18.6976C14.397 18.6506 14.4597 18.776 14.491 18.8387C14.5067 19.0424 14.491 19.3245 14.2716 19.2775Z" fill="#00942F"/>
<path d="M15.1961 16.7073C15.0237 16.7543 15.0237 16.958 15.055 17.0991C15.1804 17.3342 15.4938 17.2872 15.7603 17.2872C15.9484 17.2558 16.1208 17.0678 16.1051 16.8797C15.823 16.6289 15.5095 16.817 15.1961 16.7073Z" fill="#00942F"/>
<path d="M3.66113 21.8479H21.7318C23.2208 21.7069 23.3148 22.4278 22.7036 23.4622C22.3274 24.1832 18.5816 30.4366 18.5816 30.4366H16.8419L20.7601 23.8541C20.9796 23.5249 21.0266 23.3369 20.4153 23.3369H3.95892C3.97459 23.3369 3.70815 22.6629 3.66113 21.8479Z" fill="#00942F"/>
<path d="M33.4396 21.7852H24.7412L20.7133 28.7752C20.1647 29.5902 20.2431 30.4052 21.6536 30.4052H34.1448L35.2419 28.8066H22.9388C22.3119 28.8066 22.7507 28.1326 22.7507 28.1326L25.6345 23.3524H32.6403L33.4396 21.7852Z" fill="#00942F"/>
<path d="M2.61093 28.9164L2.6893 28.885C2.73631 28.9791 2.75199 29.0261 2.78333 29.0574C2.81468 29.0888 2.8617 29.0888 2.92439 29.0418L4.02148 28.1641L2.70497 28.2895L2.59526 28.3835C2.56391 28.4148 2.54824 28.4462 2.53257 28.4775C2.53257 28.5246 2.54824 28.5716 2.57959 28.6499L2.50122 28.6813L2.15642 27.882L2.23478 27.8506C2.2818 27.9447 2.31315 28.0074 2.34449 28.023C2.37584 28.0387 2.42286 28.0387 2.46988 27.9917L3.56697 27.114L2.20344 27.2551C2.12507 27.2707 2.07806 27.2864 2.06238 27.3334C2.04671 27.3804 2.06238 27.4588 2.1094 27.5842L2.03104 27.6155L1.78027 27.0356L1.85864 27.0043C1.88998 27.0827 1.937 27.1297 1.96835 27.1453C2.01537 27.161 2.07806 27.161 2.17209 27.161L4.25657 26.9573L4.28792 27.02L2.84602 28.1798L4.71108 27.9917L4.74243 28.0544L3.06544 29.4022C3.01842 29.4492 2.98708 29.4806 2.98708 29.5276C2.98708 29.5746 2.98708 29.6216 3.01842 29.6843L2.94006 29.7157L2.61093 28.9164Z" fill="#00942F"/>
<path d="M3.15974 24.324C3.20676 24.2927 3.22243 24.2457 3.23811 24.1987C3.25378 24.1516 3.23811 24.089 3.22243 24.0106L3.31647 23.9792L3.58291 24.9353L3.48887 24.9666C3.45753 24.8413 3.42618 24.7472 3.39484 24.7159C3.36349 24.6689 3.3008 24.6845 3.22243 24.7315L2.76792 25.045L3.00302 25.8913L3.45753 25.9227C3.58291 25.9383 3.66127 25.907 3.69262 25.86C3.70829 25.813 3.70829 25.7346 3.67694 25.6249L3.77098 25.5935L3.95905 26.2675L3.86502 26.2988C3.83367 26.2048 3.80233 26.1421 3.75531 26.1107C3.70829 26.0794 3.61425 26.0481 3.45753 26.0324L1.52977 25.8757L1.37305 25.5935L3.15974 24.324ZM2.87763 25.8757L2.67389 25.1077L1.71785 25.7816L2.87763 25.8757Z" fill="#00942F"/>
<path d="M3.23797 24.1047C3.2223 23.9794 3.20662 23.901 3.17528 23.854C3.14393 23.7913 3.08124 23.7599 3.00288 23.7599L1.34156 23.9794C1.27887 23.995 1.23185 24.0107 1.20051 24.0577C1.16916 24.1204 1.16916 24.2144 1.18484 24.3555L1.0908 24.3712L0.996763 23.6816L2.42299 22.1613L1.02811 22.3494C0.98109 22.3494 0.949744 22.3807 0.949744 22.4278C0.934072 22.4748 0.949744 22.5531 0.965417 22.6785L0.87138 22.6942L0.777344 21.9576L0.87138 21.9419C0.887053 22.0359 0.902726 22.1143 0.918399 22.1613C0.949744 22.224 0.98109 22.2397 1.02811 22.2397L3.08124 21.9576L3.09692 22.0203L1.31022 23.8696L2.98721 23.6502C3.06557 23.6346 3.11259 23.6032 3.12826 23.5248C3.14393 23.4778 3.14393 23.3838 3.12826 23.2584L3.23797 23.2427L3.34768 24.0891L3.23797 24.1047Z" fill="#00942F"/>
<path d="M2.12549 19.3872C2.12549 19.5126 2.14116 19.591 2.15684 19.6223C2.17251 19.6536 2.20385 19.6693 2.26654 19.6693H3.06586V19.7634L2.84644 19.9984C2.90913 20.0455 2.97182 20.1238 3.00317 20.2335C3.05018 20.3432 3.06586 20.453 3.06586 20.5627C3.06586 20.8761 2.97182 21.1269 2.78375 21.3306C2.58 21.5657 2.28222 21.6754 1.8904 21.6754C1.51425 21.6754 1.21647 21.5657 0.997049 21.3306C0.793303 21.1112 0.683594 20.8448 0.683594 20.5313C0.683594 20.453 0.683594 20.3746 0.699267 20.2962C0.714939 20.2492 0.730612 20.2022 0.746285 20.1395C0.761958 20.0768 0.77763 20.0298 0.77763 19.9984C0.77763 19.9514 0.746285 19.9044 0.683594 19.8417L0.699267 19.779L1.27916 19.5753L1.31051 19.638L1.29483 19.6536C1.15378 19.779 1.04407 19.8887 0.981377 19.9828C0.855994 20.1552 0.793303 20.3276 0.793303 20.5156C0.793303 20.7037 0.903013 20.8604 1.10676 21.0172C1.32618 21.1739 1.57694 21.2366 1.85905 21.2366C2.2352 21.2366 2.51731 21.1582 2.72106 21.0172C2.89346 20.8918 2.97182 20.7351 2.97182 20.547C2.97182 20.4216 2.94047 20.3276 2.89346 20.2335C2.83077 20.1395 2.7524 20.0768 2.67404 20.0455H2.26654C2.21953 20.0455 2.17251 20.0768 2.15684 20.1238C2.12549 20.1708 2.12549 20.2649 2.12549 20.4059H2.01578V19.4029L2.12549 19.3872Z" fill="#00942F"/>
<path d="M4.35081 29.1984C4.4135 29.3081 4.46052 29.3708 4.49186 29.3865C4.52321 29.4022 4.57023 29.4022 4.60157 29.3865L5.29118 28.979L5.33819 29.073L5.2755 29.3865C5.35387 29.4022 5.4479 29.4492 5.52627 29.5119C5.6203 29.5746 5.69867 29.6686 5.74569 29.7626C5.90242 30.0291 5.94943 30.2955 5.88674 30.562C5.82405 30.8597 5.6203 31.1105 5.29118 31.2986C4.97772 31.4867 4.64859 31.5337 4.33514 31.4396C4.05303 31.3613 3.81794 31.1732 3.66121 30.9068C3.61419 30.8284 3.58284 30.7657 3.56717 30.6873C3.5515 30.6403 3.53583 30.5933 3.53583 30.5306C3.52015 30.4679 3.50448 30.4209 3.48881 30.3896C3.45746 30.3582 3.41044 30.3269 3.33208 30.2955L3.31641 30.2328L3.70823 29.7626L3.75524 29.8097V29.8253C3.69255 29.9977 3.66121 30.1545 3.64553 30.2642C3.62986 30.4679 3.66121 30.656 3.75524 30.8127C3.84928 30.9695 4.02168 31.0635 4.27245 31.0948C4.53888 31.1262 4.78965 31.0635 5.04041 30.9068C5.36954 30.7187 5.57329 30.5149 5.66732 30.2798C5.74569 30.0918 5.74569 29.9194 5.65165 29.747C5.58896 29.6373 5.5106 29.5589 5.41656 29.5119C5.32252 29.4492 5.21281 29.4335 5.13445 29.4649L4.78965 29.6686C4.74263 29.7 4.72696 29.7313 4.72696 29.794C4.72696 29.8567 4.77397 29.935 4.83667 30.0448L4.74263 30.0918L4.2411 29.2298L4.35081 29.1984Z" fill="#00942F"/>
<path d="M1.04369 17.6946C1.02801 17.8357 1.02801 17.9297 1.04369 17.9924C1.05936 18.0551 1.12205 18.0864 1.20041 18.1021L2.5326 18.2432C2.76769 18.2745 2.94009 18.3529 3.03413 18.5096C3.11249 18.635 3.14384 18.8231 3.12817 19.0425C3.11249 19.1365 3.08115 19.2149 3.01846 19.2933C2.94009 19.3873 2.84606 19.4186 2.73635 19.4186C2.67365 19.4186 2.61096 19.3873 2.57962 19.3403C2.54827 19.2933 2.5326 19.2462 2.54827 19.1835C2.54827 19.1209 2.57962 19.0738 2.61096 19.0425C2.65798 18.9955 2.705 18.9798 2.76769 18.9955C2.86173 19.0111 2.92442 18.9955 2.95576 18.9641C3.00278 18.9328 3.00278 18.8701 2.97144 18.7761C2.94009 18.729 2.90875 18.682 2.84606 18.6663C2.79904 18.6507 2.705 18.6193 2.57962 18.6193L1.15339 18.4626C1.05936 18.4469 1.01234 18.4626 0.980994 18.4939C0.949649 18.5253 0.933976 18.635 0.918303 18.7917L0.808594 18.7761L0.918303 17.679L1.04369 17.6946Z" fill="#00942F"/>
<path d="M1.16957 16.4094L1.2636 16.4251C1.23226 16.5348 1.23226 16.6289 1.24793 16.6759C1.2636 16.7229 1.29495 16.7699 1.35764 16.7699L2.7055 17.0677C2.86223 17.099 3.01895 17.0677 3.14434 16.9737C3.26972 16.8796 3.36376 16.7229 3.41077 16.5191C3.44212 16.3781 3.42645 16.237 3.34808 16.096C3.26972 15.9236 3.14434 15.8295 2.97194 15.7825L1.63975 15.5161C1.57706 15.5004 1.53004 15.5161 1.49869 15.5788C1.46735 15.6258 1.436 15.7042 1.40466 15.8139L1.31062 15.7982L1.48302 15.0459L1.57706 15.0616C1.56139 15.1556 1.54571 15.234 1.56139 15.281C1.57706 15.328 1.6084 15.375 1.6711 15.375L3.03463 15.6728C3.2227 15.7198 3.34808 15.8295 3.44212 16.0176C3.53616 16.2057 3.55183 16.3938 3.50481 16.6132C3.44212 16.911 3.31674 17.1304 3.16001 17.2871C3.00328 17.4282 2.81521 17.4752 2.61146 17.4282L1.27928 17.1304C1.21658 17.1147 1.16957 17.1304 1.13822 17.1617C1.10688 17.1931 1.07553 17.2558 1.05986 17.3498L0.96582 17.3341L1.16957 16.4094Z" fill="#00942F"/>
<path d="M3.75514 14.9518C3.80216 14.8421 3.81783 14.7637 3.81783 14.701C3.81783 14.6227 3.78649 14.5757 3.72379 14.5443L2.17219 13.9017C2.1095 13.8704 2.06248 13.8704 2.01546 13.9017C1.95277 13.9331 1.90575 14.0271 1.84306 14.1525L1.74902 14.1211L2.01546 13.4786L4.0059 12.8673L2.70506 12.3344C2.65804 12.3188 2.6267 12.3344 2.59535 12.3658C2.56401 12.3971 2.53266 12.4755 2.48564 12.5852L2.39161 12.5539L2.67372 11.8643L2.76775 11.8956C2.73641 11.9896 2.70506 12.068 2.70506 12.115C2.70506 12.1777 2.72074 12.2247 2.76775 12.2404L4.67983 13.024L4.64849 13.0867L2.20353 13.792L3.77081 14.4346C3.84918 14.4659 3.89619 14.4503 3.95889 14.4033C3.99023 14.3719 4.03725 14.2935 4.08427 14.1682L4.1783 14.2152L3.86485 14.9988L3.75514 14.9518Z" fill="#00942F"/>
<path d="M5.47958 11.0023C5.5266 11.0023 5.57362 11.0023 5.62064 10.9709C5.66766 10.9396 5.699 10.8926 5.74602 10.8299L5.84006 10.8769L5.3542 11.7389L5.26017 11.6919C5.32286 11.5665 5.3542 11.4881 5.36988 11.4411C5.36988 11.3784 5.32286 11.3471 5.24449 11.3314L4.69595 11.253L4.27278 12.021L4.57056 12.3658C4.64893 12.4598 4.72729 12.4912 4.77431 12.4755C4.82133 12.4598 4.86835 12.3971 4.93104 12.2874L5.02507 12.3345L4.68027 12.9457L4.58624 12.8987C4.63325 12.8203 4.64893 12.742 4.64893 12.6949C4.63325 12.6322 4.58624 12.5539 4.4922 12.4442L3.20703 10.9709L3.30107 10.6575L5.47958 11.0023ZM4.19442 11.9113L4.58624 11.2217L3.42645 11.0336L4.19442 11.9113Z" fill="#00942F"/>
<path d="M6.0276 10.4694C6.12164 10.344 6.16865 10.2656 6.18433 10.2186C6.2 10.1559 6.18433 10.1089 6.13731 10.0775L4.74243 9.04314C4.69541 9.01179 4.66407 9.01179 4.60138 9.02747C4.55436 9.04314 4.50734 9.07449 4.46032 9.13718C4.36629 9.26256 4.31927 9.41929 4.31927 9.60736C4.31927 9.74841 4.35061 9.88947 4.39763 10.0462L4.35061 10.0775L4.02148 9.56034L5.21262 7.94604L5.82385 8.11845L5.80818 8.18114C5.63578 8.16546 5.47905 8.18114 5.35367 8.21248C5.18127 8.2595 5.05589 8.33786 4.97752 8.44757C4.93051 8.51027 4.91483 8.57296 4.89916 8.63565C4.89916 8.69834 4.91483 8.74536 4.94618 8.7767L6.34106 9.81111C6.38807 9.84245 6.45077 9.84245 6.49778 9.81111C6.5448 9.77976 6.60749 9.71707 6.68586 9.60736L6.76422 9.67005L6.10596 10.5634L6.0276 10.4694Z" fill="#00942F"/>
<path d="M6.12217 6.92749L6.20054 6.99018C6.1065 7.08422 6.05948 7.16258 6.04381 7.2096C6.02814 7.25662 6.05948 7.30364 6.1065 7.35066L7.37599 8.4791C7.42301 8.52611 7.4857 8.54179 7.53272 8.52611C7.57974 8.51044 7.64243 8.44775 7.73647 8.35371L7.81483 8.41641L7.12523 9.20004L7.04687 9.13735C7.12523 9.04332 7.18792 8.96495 7.18792 8.91793C7.20359 8.85524 7.18792 8.80823 7.12523 8.76121L5.87141 7.63277C5.80872 7.58575 5.7617 7.57007 5.73035 7.58575C5.68333 7.60142 5.62064 7.66411 5.52661 7.77382L5.44824 7.71113L6.12217 6.92749Z" fill="#00942F"/>
<path d="M7.89347 5.64217C8.17558 5.67351 8.44202 5.79889 8.67711 6.04966C8.9122 6.30042 9.03758 6.56686 9.03758 6.86464C9.03758 7.1781 8.9122 7.46021 8.64576 7.71097C8.37933 7.96174 8.08154 8.08712 7.76809 8.05577C7.47031 8.02443 7.21954 7.89905 6.98445 7.64828C6.74936 7.39752 6.63965 7.13108 6.63965 6.84897C6.63965 6.53551 6.76503 6.23773 7.04714 5.98697C7.28223 5.72053 7.58002 5.61082 7.89347 5.64217ZM6.90609 6.69224C6.9531 6.91166 7.07849 7.13108 7.28223 7.3505C7.48598 7.56992 7.68972 7.71097 7.90914 7.77366C8.15991 7.85203 8.37933 7.80501 8.55173 7.63261C8.72413 7.46021 8.78682 7.25646 8.7398 7.0057C8.69278 6.78628 8.5674 6.56686 8.36365 6.34744C8.15991 6.12802 7.95616 5.98697 7.73674 5.92428C7.48598 5.84591 7.26656 5.89293 7.09416 6.06533C6.90609 6.22206 6.84339 6.42581 6.90609 6.69224Z" fill="#00942F"/>
<path d="M9.27243 6.86468C9.36646 6.80199 9.42915 6.7393 9.4605 6.69228C9.50752 6.62959 9.50752 6.5669 9.4605 6.50421L8.47311 5.14067C8.44177 5.09366 8.39475 5.06231 8.34773 5.06231C8.28504 5.06231 8.191 5.10933 8.06562 5.18769L8.00293 5.10933L8.56715 4.70184L10.5733 5.25038L9.75828 4.10627C9.72694 4.07493 9.69559 4.05925 9.64857 4.07493C9.60155 4.0906 9.53886 4.13762 9.42915 4.20031L9.36646 4.12194L9.9777 3.68311L10.0404 3.76147C9.96203 3.82416 9.89934 3.87118 9.86799 3.9182C9.83665 3.96522 9.82097 4.01223 9.85232 4.04358L11.0591 5.72057L11.0121 5.76759L8.56715 5.06231L9.55454 6.44152C9.60155 6.50421 9.64857 6.51988 9.72694 6.50421C9.77396 6.48853 9.85232 6.44152 9.96203 6.37882L10.0247 6.45719L9.33512 6.95872L9.27243 6.86468Z" fill="#00942F"/>
<path d="M12.83 4.4353C12.8771 4.46665 12.9241 4.48232 12.9711 4.48232C13.0181 4.48232 13.0808 4.46665 13.1592 4.41963L13.2062 4.51367L12.3442 4.98385L12.2972 4.88981C12.4226 4.82712 12.4852 4.78011 12.5166 4.73309C12.5479 4.68607 12.5323 4.63905 12.4696 4.57636L12.0621 4.21588L11.2941 4.63905L11.3568 5.09356C11.3725 5.21894 11.4195 5.28163 11.4665 5.29731C11.5135 5.31298 11.5919 5.28163 11.6859 5.21894L11.733 5.31298L11.106 5.65778L11.059 5.56374C11.1374 5.51673 11.2001 5.46971 11.2158 5.42269C11.2314 5.36 11.2471 5.26596 11.2158 5.12491L10.918 3.21283L11.1687 2.99341L12.83 4.4353ZM11.2628 4.51367L11.968 4.13752L11.0904 3.36955L11.2628 4.51367Z" fill="#00942F"/>
<path d="M12.9555 4.52933C13.0339 4.49799 13.1122 4.45097 13.1436 4.41962C13.2063 4.3726 13.222 4.32559 13.1906 4.26289L12.5167 2.61725C12.501 2.57023 12.4697 2.53889 12.4383 2.53889C12.3913 2.53889 12.3129 2.55456 12.2032 2.61725L12.1719 2.50754L13.1436 2.11572L13.1749 2.20976C13.0496 2.25678 12.9555 2.3038 12.9085 2.33514C12.8615 2.38216 12.8458 2.41351 12.8615 2.46052L13.5354 4.10617C13.5511 4.15318 13.5981 4.18453 13.6294 4.2002C13.6765 4.2002 13.7235 4.2002 13.8018 4.16886L14.2093 3.99646C14.3034 3.94944 14.3974 3.87107 14.4914 3.74569C14.5855 3.60464 14.6482 3.44791 14.6795 3.29118H14.7422V3.91809L13.0025 4.62337L12.9555 4.52933Z" fill="#00942F"/>
<path d="M16.2626 1.14422L16.2783 1.23826C16.1685 1.2696 16.0745 1.28527 16.0432 1.31662C15.9961 1.34796 15.9805 1.39498 15.9961 1.45767L16.2783 2.80553C16.3096 2.96226 16.4036 3.08764 16.5447 3.16601C16.6857 3.24437 16.8582 3.26004 17.0776 3.21303C17.2186 3.18168 17.3283 3.10332 17.438 2.99361C17.5634 2.85255 17.5948 2.69582 17.5634 2.52342L17.2813 1.19124C17.2656 1.12855 17.2343 1.0972 17.1716 1.08153C17.1089 1.06585 17.0306 1.08153 16.9208 1.0972L16.9052 1.00316L17.6575 0.846436L17.6731 0.940472C17.5791 0.956145 17.5007 0.987491 17.4537 1.01884C17.4067 1.05018 17.391 1.0972 17.4067 1.15989L17.6888 2.52342C17.7202 2.7115 17.6731 2.8839 17.5478 3.04062C17.4224 3.19735 17.25 3.29139 17.0306 3.33841C16.7328 3.4011 16.482 3.38543 16.2783 3.29139C16.0902 3.19735 15.9648 3.0563 15.9178 2.85255L15.6357 1.52037C15.62 1.45767 15.5887 1.42633 15.5573 1.41066C15.5103 1.39498 15.4476 1.39498 15.3536 1.42633L15.3379 1.33229L16.2626 1.14422Z" fill="#00942F"/>
<path d="M17.939 2.9935C18.0643 2.97782 18.1427 2.96215 18.1897 2.94648C18.2524 2.91513 18.2994 2.85244 18.2838 2.78975L18.1427 1.11276C18.1427 1.05007 18.1114 1.00305 18.08 0.971707C18.0173 0.940361 17.9233 0.924688 17.7822 0.940361V0.846324L18.4718 0.783633L19.9137 2.28822L19.804 0.893343C19.804 0.846324 19.7727 0.814979 19.7257 0.799306C19.6786 0.783633 19.6003 0.783633 19.4749 0.799306L19.4592 0.705269L20.2115 0.642578L20.2272 0.736615C20.1331 0.752288 20.0548 0.752288 20.0078 0.783633C19.9451 0.814979 19.9294 0.846324 19.9294 0.893343L20.1018 2.94648H20.0391L18.3151 1.08142L18.4562 2.7584C18.4562 2.83677 18.5032 2.88379 18.5659 2.89946C18.6129 2.91513 18.7069 2.91513 18.8323 2.91513L18.848 3.02484L18.0016 3.08753L17.939 2.9935Z" fill="#00942F"/>
<path d="M21.434 0.689549V0.799258C21.2929 0.799258 21.2145 0.799258 21.1675 0.830604C21.1205 0.861949 21.1048 0.908968 21.1048 0.971659L21.0578 2.66432C21.0578 2.74268 21.0735 2.7897 21.1205 2.80537C21.1675 2.82105 21.2459 2.83672 21.3869 2.83672V2.94643L20.3525 2.93076V2.82105C20.4779 2.82105 20.572 2.82105 20.619 2.7897C20.666 2.75836 20.6973 2.71134 20.6973 2.64865L20.7287 0.940313C20.7287 0.861949 20.713 0.814931 20.666 0.799258C20.619 0.783585 20.5406 0.767913 20.3839 0.767913V0.658203L21.434 0.689549Z" fill="#00942F"/>
<path d="M23.7852 0.908968L23.7695 1.01868C23.6755 1.003 23.5971 1.01868 23.5501 1.03435C23.5031 1.05002 23.4561 1.11271 23.4091 1.19108L22.4373 3.11883L22.312 3.10316L21.7791 0.940313C21.7634 0.877622 21.7321 0.830604 21.7007 0.814931C21.6694 0.799258 21.6067 0.783585 21.5283 0.767913L21.544 0.658203L22.5 0.75224L22.4844 0.877622C22.3433 0.861949 22.2493 0.861949 22.2179 0.877622C22.1709 0.893295 22.1396 0.92464 22.1552 0.971659L22.5784 2.60163L23.315 1.12839C23.3464 1.0657 23.3307 1.01868 23.315 0.987332C23.2837 0.955986 23.1896 0.940313 23.0486 0.92464L23.0643 0.814931L23.7852 0.908968Z" fill="#00942F"/>
<path d="M23.3779 3.02496C23.472 3.04063 23.5503 3.0563 23.5973 3.04063C23.66 3.02496 23.6914 2.99361 23.7071 2.93092L24.0832 1.25393C24.0989 1.19124 24.0832 1.14422 24.0675 1.11288C24.0362 1.08153 23.9578 1.05019 23.8324 1.01884L23.8481 0.924805L25.6191 1.30095L25.7132 1.86517L25.6662 1.88084C25.6035 1.72412 25.5094 1.59873 25.384 1.48902C25.243 1.34797 25.0706 1.26961 24.8668 1.22259C24.7258 1.19124 24.6318 1.17557 24.5847 1.19124C24.5064 1.20691 24.4594 1.25393 24.4437 1.3323L24.287 2.06892L24.6631 2.14728C24.7728 2.17863 24.8668 2.16295 24.9295 2.11594C24.9922 2.06892 25.0392 1.97488 25.1019 1.81815L25.196 1.83383L24.9922 2.74285L24.8982 2.72717C24.9139 2.57045 24.9139 2.46074 24.8825 2.39805C24.8512 2.31968 24.7728 2.27266 24.6631 2.24132L24.287 2.16295L24.1145 2.97794C24.0989 3.04063 24.1146 3.08765 24.1459 3.11899C24.1772 3.15034 24.2556 3.18169 24.381 3.21303L24.5691 3.26005C24.6944 3.2914 24.8355 3.27572 24.9922 3.24438C25.1646 3.19736 25.337 3.10332 25.4938 2.97794L25.5564 3.02496L25.196 3.51081L23.3936 3.11899L23.3779 3.02496Z" fill="#00942F"/>
<path d="M25.3058 3.44811C25.3998 3.47945 25.4625 3.49512 25.5096 3.47945C25.5722 3.47945 25.6193 3.43243 25.6349 3.36974L26.1992 1.75545C26.2148 1.69275 26.2148 1.64574 26.1835 1.61439C26.1521 1.58305 26.0894 1.53603 25.9954 1.50468L26.0268 1.41064L27.2022 1.81814C27.4216 1.8965 27.5784 2.00621 27.6724 2.14727C27.7508 2.27265 27.7821 2.4137 27.7194 2.55476C27.6567 2.71149 27.5784 2.83687 27.4373 2.88389C27.3119 2.94658 27.1709 2.94658 26.9828 2.91523C27.0925 2.9936 27.1552 3.1033 27.1865 3.26003C27.2022 3.35407 27.2022 3.49512 27.1709 3.6832C27.1552 3.74589 27.1552 3.79291 27.1552 3.82425C27.1552 3.87127 27.1552 3.91829 27.1552 3.94964C27.1552 4.01233 27.1865 4.04367 27.2336 4.05934C27.2806 4.05934 27.3276 4.04367 27.3903 3.99665C27.4216 3.98098 27.4373 3.96531 27.453 3.98098C27.4687 3.99665 27.453 4.028 27.4373 4.05934C27.3903 4.12204 27.3276 4.16905 27.2492 4.2004C27.1865 4.23175 27.1239 4.23175 27.0455 4.23175C26.9828 4.21607 26.9201 4.2004 26.8731 4.15338C26.8261 4.10636 26.7947 4.05934 26.7791 4.01233C26.7634 3.96531 26.7634 3.91829 26.7634 3.8556C26.7634 3.80858 26.7634 3.74589 26.7791 3.65185C26.7947 3.46378 26.7947 3.30705 26.7947 3.21301C26.7791 3.04061 26.732 2.91523 26.6693 2.83687L26.2462 2.66447L25.9641 3.47945C25.9484 3.54214 25.9484 3.60483 25.9954 3.65185C26.0268 3.6832 26.1051 3.73022 26.2305 3.76156L26.1992 3.8556L25.2588 3.52647L25.3058 3.44811ZM26.7164 2.72716C26.8417 2.77418 26.9671 2.7585 27.0768 2.69581C27.1865 2.63312 27.2649 2.53908 27.3119 2.38236C27.3589 2.2413 27.3433 2.13159 27.2649 2.03756C27.1865 1.94352 27.0612 1.86516 26.8888 1.80246C26.7791 1.77112 26.685 1.75545 26.638 1.75545C26.591 1.77112 26.544 1.80246 26.5283 1.86516L26.2932 2.57043L26.7164 2.72716Z" fill="#00942F"/>
<path d="M27.7507 4.16884C27.8448 4.32557 28.0015 4.4823 28.2209 4.62336C28.3306 4.68605 28.456 4.71739 28.5657 4.68605C28.6911 4.6547 28.8008 4.56066 28.8792 4.40394C28.9418 4.29423 28.9262 4.16884 28.8321 4.04346C28.7851 3.9651 28.6754 3.85539 28.503 3.71433C28.2993 3.54193 28.1582 3.40088 28.0955 3.29117C27.9858 3.11877 27.9858 2.93069 28.0798 2.72695C28.1582 2.55455 28.2836 2.44484 28.456 2.41349C28.6284 2.36647 28.8165 2.39782 29.0516 2.50753C29.0986 2.5232 29.1456 2.55455 29.1926 2.58589C29.224 2.60157 29.2553 2.63291 29.3023 2.67993C29.3493 2.72695 29.3807 2.75829 29.412 2.75829C29.4434 2.77397 29.4904 2.78964 29.5374 2.77397L29.6314 2.74262L29.6628 2.75829L29.5688 3.41655L29.5061 3.40088C29.4747 3.19713 29.4277 3.0404 29.3493 2.91502C29.2553 2.75829 29.1456 2.64858 28.9889 2.57022C28.8635 2.50753 28.7538 2.49186 28.6441 2.5232C28.5344 2.55455 28.4403 2.63291 28.3933 2.77397C28.3463 2.88368 28.362 2.99339 28.4403 3.11877C28.4873 3.19713 28.597 3.29117 28.7538 3.43222C28.9732 3.60462 29.0986 3.76135 29.1769 3.85539C29.2866 4.02779 29.3023 4.23154 29.2083 4.41961C29.1142 4.60768 28.9732 4.71739 28.7694 4.78008C28.5814 4.8271 28.409 4.81143 28.2366 4.71739C28.1739 4.68605 28.1112 4.63903 28.0328 4.59201C27.9858 4.56066 27.9388 4.51365 27.8604 4.45095L27.7821 4.38826C27.735 4.37259 27.688 4.35692 27.6567 4.35692C27.6253 4.35692 27.594 4.37259 27.5626 4.38826H27.547H27.5156L27.5783 3.68299H27.641C27.641 3.90241 27.688 4.05913 27.7507 4.16884Z" fill="#00942F"/>
<path d="M30.9476 3.58903L30.9006 3.68306C30.7909 3.62037 30.6969 3.58903 30.6498 3.57335C30.6028 3.57335 30.5558 3.6047 30.5245 3.66739L29.6625 5.14063C29.6311 5.20332 29.6154 5.25034 29.6468 5.29736C29.6781 5.34438 29.7408 5.3914 29.8505 5.45409L29.8035 5.54812L28.9102 5.03092L28.9572 4.93689C29.0669 4.99958 29.1452 5.03092 29.1923 5.0466C29.255 5.0466 29.302 5.01525 29.3333 4.95256L30.1953 3.47932C30.2267 3.41663 30.2423 3.36961 30.211 3.32259C30.1797 3.27557 30.117 3.22855 29.9916 3.15019L30.0386 3.05615L30.9476 3.58903Z" fill="#00942F"/>
<path d="M30.3831 5.79889C30.5084 5.87725 30.5868 5.93994 30.6338 5.95562C30.6965 5.97129 30.7435 5.95562 30.7749 5.89293L31.7936 4.48237C31.8249 4.43536 31.8249 4.40401 31.8093 4.34132C31.7936 4.2943 31.7623 4.24728 31.6996 4.20026C31.5742 4.10623 31.4175 4.05921 31.2294 4.07488C31.0883 4.07488 30.9473 4.10623 30.8062 4.16892L30.7749 4.1219L31.2921 3.7771L32.922 4.95256L32.7496 5.5638L32.6869 5.54812C32.7026 5.37572 32.6869 5.219 32.6556 5.09361C32.6086 4.92121 32.5302 4.79583 32.4048 4.71747C32.3421 4.67045 32.2795 4.65478 32.2168 4.6391C32.1541 4.6391 32.1071 4.65478 32.0757 4.68612L31.0727 6.09667C31.0413 6.14369 31.0413 6.20638 31.0727 6.2534C31.104 6.30042 31.1667 6.36311 31.2764 6.44147L31.2137 6.51984L30.3047 5.87725L30.3831 5.79889Z" fill="#00942F"/>
<path d="M32.1076 7.11544C32.2016 7.20948 32.2957 7.27217 32.3584 7.28784C32.4367 7.31919 32.4838 7.31919 32.5308 7.27217L32.9853 6.78631L33.2361 5.4698C33.2361 5.42278 33.2361 5.37576 33.2204 5.34442C33.2047 5.31307 33.1577 5.26606 33.095 5.20336L33.1577 5.125L33.8943 5.79893L33.8316 5.87729C33.7219 5.78326 33.6592 5.72057 33.6279 5.70489C33.5809 5.68922 33.5495 5.70489 33.5495 5.76758L33.3301 6.88035L34.3645 6.53555C34.4115 6.51988 34.4272 6.48853 34.4115 6.44151C34.3958 6.3945 34.3331 6.3318 34.2234 6.23777L34.2861 6.1594L34.8347 6.67661L34.772 6.75497C34.6936 6.67661 34.6309 6.64526 34.5839 6.62959C34.5369 6.61391 34.4899 6.62959 34.4115 6.64526L33.2517 7.02141L32.7972 7.52294C32.7502 7.56995 32.7502 7.61697 32.7815 7.67966C32.8129 7.74235 32.8756 7.82072 32.9853 7.91476L32.9226 7.99312L32.0449 7.19381L32.1076 7.11544Z" fill="#00942F"/>
<path d="M36.7938 9.60736C36.7311 9.88947 36.5744 10.1402 36.2923 10.3283C36.0102 10.5321 35.7281 10.6261 35.446 10.5947C35.1325 10.5634 34.8817 10.4067 34.6623 10.1089C34.4429 9.8111 34.3645 9.49765 34.4116 9.19987C34.4743 8.91776 34.631 8.66699 34.9131 8.46325C35.1795 8.2595 35.4616 8.18114 35.7594 8.21248C36.0729 8.24383 36.3393 8.41623 36.5744 8.71401C36.7938 8.99612 36.8722 9.2939 36.7938 9.60736ZM35.8691 8.51026C35.6497 8.54161 35.4146 8.63565 35.1795 8.80805C34.9444 8.98045 34.772 9.18419 34.678 9.38794C34.5683 9.62303 34.5996 9.84245 34.7407 10.0462C34.8817 10.2499 35.0855 10.3283 35.3519 10.297C35.5713 10.2656 35.8064 10.1716 36.0415 9.99918C36.2766 9.82678 36.449 9.62303 36.5431 9.41929C36.6528 9.18419 36.6214 8.96478 36.4804 8.76103C36.3393 8.55728 36.1356 8.47892 35.8691 8.51026Z" fill="#00942F"/>
<path d="M35.383 10.83C35.4457 10.9397 35.4927 11.0024 35.5241 11.018C35.5554 11.0494 35.6181 11.0337 35.6808 11.0024L37.154 10.156C37.2167 10.109 37.2637 10.0777 37.2637 10.0306C37.2637 9.98363 37.2324 9.90526 37.1697 9.79555L37.2637 9.74854L38.1728 11.3158L37.7966 11.7703L37.7339 11.739C37.8123 11.6136 37.8593 11.4725 37.875 11.3001C37.8906 11.1277 37.8436 10.971 37.7809 10.8456L37.6556 10.6105C37.6085 10.5165 37.5615 10.4695 37.5145 10.4381C37.4675 10.4225 37.4205 10.4225 37.3578 10.4695L36.7152 10.8456L36.9189 11.2061C36.9816 11.3001 37.0286 11.3628 37.0913 11.3785C37.1697 11.4099 37.2794 11.3942 37.4205 11.3315L37.4675 11.3942L36.6838 11.8487L36.6368 11.7703C36.7622 11.6763 36.8562 11.5823 36.8719 11.5039C36.9033 11.4255 36.8876 11.3472 36.8249 11.2531L36.6055 10.877L35.8845 11.3001C35.8218 11.3315 35.7905 11.3785 35.8062 11.4412C35.8062 11.5039 35.8532 11.5979 35.9472 11.7547L35.8532 11.8017L35.3203 10.877L35.383 10.83Z" fill="#00942F"/>
<path d="M36.7622 13.3533C36.7935 13.4474 36.8405 13.51 36.8719 13.5571C36.9189 13.6041 36.9659 13.6041 37.0286 13.5884L38.6272 12.9928C38.6899 12.9615 38.7212 12.9302 38.7369 12.8988C38.7526 12.8518 38.7369 12.7734 38.6899 12.648L38.7839 12.6167L39.4108 14.325L38.972 14.7012L38.925 14.6698C39.019 14.5288 39.066 14.3877 39.0974 14.231C39.1287 14.0429 39.1131 13.8392 39.0347 13.6511C38.9877 13.5257 38.9407 13.4317 38.9093 13.4003C38.8623 13.3376 38.7839 13.3376 38.7056 13.369L38.0003 13.6354L38.1414 13.9959C38.1884 14.1056 38.2354 14.1683 38.3138 14.1997C38.3764 14.231 38.5018 14.2153 38.6429 14.184L38.6742 14.278L37.8122 14.6071L37.7809 14.5131C37.9219 14.4504 38.016 14.3721 38.0473 14.325C38.0943 14.2623 38.0943 14.1683 38.0473 14.0586L37.9063 13.6981L37.1226 13.9959C37.0599 14.0116 37.0286 14.0586 37.0129 14.1056C37.0129 14.1526 37.0286 14.231 37.0599 14.3407L37.1226 14.5288C37.1696 14.6542 37.248 14.7639 37.3734 14.8736C37.5144 14.999 37.6712 15.093 37.8749 15.1557V15.2341L37.2637 15.187L36.6211 13.463L36.7622 13.3533Z" fill="#00942F"/>
<path d="M37.4516 15.1556C37.4829 15.281 37.5142 15.3593 37.5299 15.3907C37.5613 15.4377 37.6083 15.4534 37.671 15.4377L39.3793 15.0302C39.4263 15.0145 39.4577 14.9832 39.4733 14.9518C39.489 14.9048 39.4733 14.8108 39.442 14.6854L39.536 14.6541L39.8181 15.7982C39.8808 16.0803 39.8495 16.331 39.7241 16.5818C39.583 16.8639 39.3323 17.0363 39.0032 17.1147C38.6427 17.2087 38.3292 17.1617 38.0785 17.005C37.8434 16.8639 37.6866 16.6288 37.6083 16.3154L37.3262 15.1713L37.4516 15.1556ZM37.6866 15.8922C37.671 15.9392 37.671 16.0019 37.6866 16.0803L37.7337 16.2684C37.7964 16.5034 37.9217 16.6445 38.1255 16.7229C38.3292 16.7856 38.6113 16.7856 38.9718 16.6915C39.2853 16.6132 39.5047 16.4878 39.6301 16.3154C39.7398 16.143 39.7711 15.9549 39.7241 15.7198L39.7084 15.6414C39.6771 15.5317 39.6614 15.469 39.6301 15.4377C39.5987 15.4063 39.5517 15.3907 39.489 15.4063L37.8277 15.8138C37.7337 15.7982 37.7023 15.8295 37.6866 15.8922Z" fill="#00942F"/>
<path d="M40.2412 18.0081L40.1315 18.0238C40.1158 17.8984 40.1001 17.82 40.0688 17.773C40.0374 17.726 39.9904 17.7103 39.9277 17.7103L38.5642 17.867C38.3918 17.8827 38.2664 17.9611 38.188 18.0865C38.094 18.2275 38.0626 18.3999 38.094 18.6037C38.1097 18.7447 38.1723 18.8701 38.2821 18.9798C38.4074 19.1209 38.5642 19.1679 38.7366 19.1522L40.0844 18.9955C40.1471 18.9955 40.1785 18.9485 40.1941 18.8858C40.2098 18.8231 40.2098 18.7447 40.1941 18.635L40.3039 18.6193L40.3979 19.3873L40.2882 19.403C40.2725 19.2933 40.2568 19.2306 40.2255 19.1835C40.1941 19.1365 40.1471 19.1209 40.0844 19.1209L38.7052 19.2776C38.5172 19.2933 38.3604 19.2306 38.2037 19.0895C38.0626 18.9485 37.9843 18.7604 37.9529 18.541C37.9216 18.2432 37.9529 17.9924 38.0626 17.8043C38.1723 17.6163 38.3291 17.5222 38.5328 17.4909L39.8807 17.3342C39.9434 17.3342 39.9747 17.3028 40.0061 17.2558C40.0217 17.2088 40.0217 17.1461 40.0217 17.0521L40.1315 17.0364L40.2412 18.0081Z" fill="#00942F"/>
<path d="M38.2828 21.3307C38.1575 21.1426 38.0791 20.9232 38.0791 20.6567C38.0791 20.3589 38.1888 20.1238 38.3769 19.9358C38.5963 19.7164 38.8941 19.6223 39.2546 19.6223C39.3799 19.6223 39.521 19.638 39.6464 19.685C39.7874 19.732 39.9128 19.7947 40.0225 19.8888C40.1479 19.9828 40.2419 20.1082 40.3046 20.2336C40.383 20.3903 40.4143 20.5627 40.4143 20.7508C40.4143 20.8134 40.4143 20.8761 40.3987 20.9388C40.383 20.9702 40.383 21.0172 40.3673 21.0642L40.3517 21.1112C40.3203 21.1739 40.3203 21.2209 40.336 21.268C40.3517 21.315 40.383 21.3463 40.4457 21.3777V21.4404L39.8501 21.6441L39.8188 21.5657C39.9442 21.4874 40.0695 21.3777 40.1636 21.2523C40.2733 21.0956 40.336 20.9388 40.336 20.7821C40.336 20.6097 40.2419 20.453 40.0539 20.3119C39.8501 20.1709 39.615 20.0925 39.3172 20.0925C38.9881 20.0925 38.7374 20.1552 38.5493 20.2962C38.3769 20.4216 38.2828 20.594 38.2828 20.8134C38.2828 20.9702 38.3142 21.1112 38.3769 21.2366C38.4552 21.3933 38.5963 21.5344 38.7844 21.6598L38.753 21.7381C38.5493 21.6128 38.3926 21.4874 38.2828 21.3307Z" fill="#00942F"/>
<path d="M38.1259 23.6659C38.0788 23.6815 38.0318 23.7129 38.0005 23.7599C37.9691 23.8069 37.9535 23.8696 37.9378 23.948L37.8438 23.9323L37.9691 22.9606L38.0632 22.9763C38.0475 23.1173 38.0475 23.1957 38.0632 23.2427C38.0788 23.2897 38.1415 23.3211 38.2199 23.2897L38.7528 23.1643L38.8625 22.2867L38.455 22.0829C38.3453 22.0202 38.2669 22.0202 38.2199 22.0516C38.1885 22.0829 38.1572 22.1613 38.1415 22.271L38.0318 22.2553L38.1259 21.55L38.2356 21.5657C38.2199 21.6598 38.2356 21.7381 38.2669 21.7851C38.2983 21.8322 38.3766 21.8948 38.502 21.9732L40.226 22.8509L40.2574 23.18L38.1259 23.6659ZM38.9879 22.3337L38.8938 23.1173L40.0379 22.8509L38.9879 22.3337Z" fill="#00942F"/>
<path d="M37.8126 24.4182C37.7812 24.5593 37.7656 24.6533 37.7656 24.716C37.7656 24.7787 37.8126 24.8101 37.8753 24.8257L39.5523 25.2646C39.5993 25.2802 39.6463 25.2646 39.6776 25.2332C39.7247 25.2019 39.7403 25.1549 39.7717 25.0765C39.8187 24.9198 39.803 24.763 39.7247 24.5906C39.6776 24.4653 39.5993 24.3399 39.4896 24.2145L39.5209 24.1675L40.0224 24.528L39.5209 26.4714L38.8783 26.5341V26.4714C39.0507 26.4244 39.1918 26.346 39.3015 26.2676C39.4425 26.1579 39.5366 26.0482 39.5679 25.9072C39.5836 25.8445 39.5836 25.7661 39.5679 25.7034C39.5523 25.6407 39.5209 25.6094 39.4739 25.5937L37.7969 25.1549C37.7342 25.1392 37.6872 25.1549 37.6558 25.2176C37.6245 25.2646 37.5932 25.3429 37.5618 25.484L37.4678 25.4526L37.7499 24.3869L37.8126 24.4182Z" fill="#00942F"/>
<path d="M39.0191 27.8034L38.9251 27.7721C38.9721 27.6467 38.9878 27.5526 38.9878 27.5056C38.9878 27.4586 38.9408 27.4116 38.8781 27.3959L37.2795 26.816C37.2168 26.7847 37.1541 26.8003 37.1227 26.8317C37.0914 26.863 37.0444 26.9414 36.9974 27.0668L36.9033 27.0354L37.2638 26.0637L37.3578 26.0951C37.3108 26.2204 37.2951 26.2988 37.2951 26.3458C37.2951 26.4085 37.3422 26.4399 37.4048 26.4712L39.0035 27.0511C39.0662 27.0825 39.1289 27.0825 39.1602 27.0511C39.1915 27.0198 39.2386 26.9414 39.2856 26.8003L39.3796 26.8317L39.0191 27.8034Z" fill="#00942F"/>
<path d="M37.8124 29.7157C37.5303 29.7941 37.2482 29.7627 36.9347 29.6217C36.6213 29.4649 36.4175 29.2612 36.3078 28.9948C36.1825 28.7126 36.2138 28.3992 36.3705 28.0701C36.5273 27.7409 36.7623 27.5215 37.0601 27.4275C37.3422 27.3491 37.64 27.3805 37.9378 27.5215C38.2356 27.6626 38.455 27.882 38.5647 28.1484C38.6901 28.4462 38.6588 28.7597 38.502 29.0888C38.3453 29.4179 38.1102 29.6373 37.8124 29.7157ZM38.3453 28.3835C38.2199 28.1954 38.0162 28.0387 37.7497 27.9133C37.4833 27.788 37.2325 27.7253 37.0131 27.7409C36.7467 27.7566 36.5743 27.882 36.4646 28.1014C36.3549 28.3208 36.3862 28.5402 36.5273 28.7597C36.6526 28.9477 36.8564 29.1045 37.1228 29.2298C37.3893 29.3552 37.64 29.4179 37.8594 29.4022C38.1259 29.3866 38.2983 29.2612 38.408 29.0418C38.5177 28.8224 38.502 28.6029 38.3453 28.3835Z" fill="#00942F"/>
<path d="M36.0408 29.12C35.9781 29.2141 35.9311 29.2924 35.9311 29.3551C35.9155 29.4335 35.9311 29.4962 35.9938 29.5275L37.4044 30.4522C37.4514 30.4835 37.5141 30.4992 37.5611 30.4835C37.6238 30.4522 37.6865 30.3895 37.7805 30.2641L37.8589 30.3268L37.4827 30.9067L35.4139 31.1261L36.5894 31.8941C36.6207 31.9254 36.6678 31.9098 36.7148 31.8941C36.7461 31.8627 36.8088 31.8001 36.8715 31.6903L36.9499 31.7374L36.5424 32.3643L36.464 32.3173C36.511 32.2389 36.558 32.1605 36.5737 32.1135C36.5894 32.0508 36.5737 32.0038 36.5424 31.9881L34.8184 30.8597L34.8497 30.797L37.373 30.5619L35.9625 29.6372C35.8998 29.5902 35.8371 29.5902 35.7744 29.6372C35.7274 29.6686 35.6804 29.7313 35.602 29.841L35.4923 29.7783L35.9625 29.073L36.0408 29.12Z" fill="#00942F"/>
<path d="M10.0397 34.4957C9.9613 34.6054 9.85159 34.7151 9.74189 34.8562C9.63218 34.9816 9.53814 35.0756 9.47545 35.1383C9.4441 35.1069 9.41276 35.0756 9.38141 35.0442C9.35007 35.0129 9.31872 34.9972 9.28737 34.9659C9.35007 34.9189 9.42843 34.8405 9.52247 34.7308C9.6165 34.6368 9.67919 34.5584 9.71054 34.5114L8.94257 33.9001L9.06796 33.7434L10.0397 34.4957ZM9.30305 34.5114C9.30305 34.527 9.28737 34.527 9.25603 34.5427C9.24036 34.5427 9.24036 34.5427 9.24036 34.5584L9.22468 34.5741L8.95825 34.9032C9.05228 34.9659 9.16199 35.0442 9.30305 35.1383C9.45978 35.248 9.60083 35.342 9.71054 35.4047L9.60083 35.5771C9.47545 35.4988 9.2717 35.3577 8.98959 35.1696C8.80152 35.0442 8.5821 34.8875 8.36268 34.7308C8.34701 34.7151 8.31566 34.6994 8.29999 34.6994C8.28432 34.6994 8.26864 34.6838 8.2373 34.6838C8.20595 34.6681 8.19028 34.6681 8.17461 34.6524C8.17461 34.6368 8.17461 34.6054 8.20595 34.5584L8.28432 34.4173C8.34701 34.4644 8.4097 34.5114 8.48806 34.5741C8.53508 34.6054 8.59777 34.6524 8.67614 34.7151L8.73883 34.7621L9.08363 34.3233L9.22468 34.433C9.28737 34.4644 9.31872 34.48 9.30305 34.5114ZM10.6666 34.8562C10.6666 34.8718 10.6509 34.8718 10.6196 34.8875C10.6039 34.8875 10.6039 34.9032 10.5882 34.9032C10.5725 34.9032 10.5725 34.9189 10.5725 34.9189L10.1964 35.4047L10.4785 35.6241L10.3531 35.7809L10.0867 35.5614L9.72621 36.016L9.52247 35.8592L10.4628 34.6524L10.6196 34.7778C10.6509 34.8092 10.6666 34.8405 10.6666 34.8562ZM8.48806 35.389C8.37835 35.3577 8.29999 35.3734 8.2373 35.4361C8.19028 35.4988 8.20595 35.5771 8.25297 35.6712C8.31566 35.7809 8.42537 35.9062 8.59777 36.0316C8.7545 36.157 8.91123 36.2354 9.02094 36.2667C9.13065 36.2981 9.20901 36.2824 9.25603 36.2197C9.30305 36.157 9.30305 36.0786 9.24036 35.9689C9.17767 35.8592 9.06796 35.7338 8.91123 35.6085C8.73883 35.4988 8.59777 35.4204 8.48806 35.389ZM9.49112 36.0003C9.55381 36.157 9.55381 36.2981 9.45978 36.4078C9.38141 36.5018 9.25603 36.5488 9.08363 36.5175C8.89555 36.4861 8.69181 36.3921 8.47239 36.2197C8.25297 36.0473 8.09624 35.8592 8.01788 35.6868C7.95519 35.5301 7.95519 35.389 8.03355 35.295C8.11192 35.1853 8.2373 35.154 8.4097 35.1696C8.59777 35.201 8.80152 35.295 9.02094 35.4831C9.25603 35.6398 9.41276 35.8279 9.49112 36.0003Z" fill="#00942F"/>
<path d="M13.8798 36.69L13.7858 36.8624L13.0805 36.5333C13.0335 36.7057 13.0648 36.8781 13.1745 37.0661C13.2686 37.2072 13.4096 37.3639 13.6134 37.505C13.5664 37.5206 13.5193 37.5363 13.488 37.552C13.4566 37.5677 13.4253 37.5833 13.3783 37.599C13.2216 37.4736 13.0962 37.3326 12.9865 37.1758C12.8768 37.0191 12.8141 36.8624 12.8141 36.737C12.72 36.8154 12.579 36.8624 12.3909 36.8781C12.1871 36.8937 11.9991 36.8781 11.811 36.831C11.7953 36.784 11.7953 36.737 11.7797 36.69C11.764 36.643 11.7483 36.596 11.7326 36.5646C11.9677 36.643 12.1715 36.6743 12.3439 36.6586C12.5476 36.643 12.7044 36.5489 12.8141 36.3922L12.1088 36.0474L12.2028 35.875L13.8798 36.69ZM13.4723 38.1319L12.5163 37.6774L12.1558 38.4297L11.9364 38.32L12.2969 37.5677L11.3408 37.1132L11.4349 36.9251L13.582 37.9595L13.4723 38.1319Z" fill="#00942F"/>
<path d="M17.406 37.8656C17.359 38.085 17.2806 38.3201 17.2022 38.5865C17.1239 38.8216 17.0455 39.0253 16.9828 39.1977C16.9201 39.1821 16.8888 39.1664 16.8574 39.1507C16.8104 39.135 16.7791 39.1194 16.7477 39.1194C16.8104 38.9783 16.8731 38.8059 16.9515 38.5708C17.0298 38.3357 17.0925 38.1477 17.1239 38.0223L15.5409 37.6461L15.5879 37.4424L17.406 37.8656ZM15.9798 38.3828C15.9798 38.3984 15.9798 38.4141 15.9484 38.4298L15.9327 38.4454C15.9327 38.4611 15.9327 38.4611 15.9327 38.4611L15.7603 39.1977L16.1522 39.2918L16.3559 38.4298L16.5283 38.4768C16.591 38.4925 16.6223 38.5081 16.6223 38.5238C16.6223 38.5395 16.6223 38.5552 16.591 38.5708L16.5753 38.5865V38.6022L16.4029 39.3388L17.2963 39.5582L17.2493 39.7463L14.9297 39.1977L14.961 39.0253L15.5096 39.1507L15.7133 38.2887L15.8701 38.3201C15.9327 38.3514 15.9641 38.3671 15.9798 38.3828Z" fill="#00942F"/>
<path d="M20.9013 38.0534C21.058 38.1318 21.1207 38.2415 21.1207 38.3669C21.1207 38.4923 21.0423 38.5863 20.8856 38.6647C20.7132 38.743 20.4938 38.7901 20.2117 38.7901C19.9296 38.7901 19.6945 38.743 19.5378 38.649C19.381 38.5706 19.3183 38.4609 19.3183 38.3355C19.3183 38.2102 19.3967 38.1005 19.5534 38.0378C19.7102 37.9594 19.9452 37.9124 20.243 37.9281C20.5251 37.9124 20.7446 37.9594 20.9013 38.0534ZM19.7258 38.1631C19.6161 38.2102 19.5691 38.2572 19.5691 38.3355C19.5691 38.3982 19.6161 38.4609 19.7258 38.5079C19.8355 38.555 20.0079 38.5863 20.2274 38.5863C20.4311 38.5863 20.6035 38.5706 20.7132 38.5236C20.8229 38.4766 20.8856 38.4296 20.8856 38.3669C20.8856 38.2885 20.8386 38.2415 20.7289 38.1945C20.6192 38.1475 20.4468 38.1318 20.243 38.1161C20.0079 38.1005 19.8512 38.1161 19.7258 38.1631ZM19.6318 39.1035L19.0049 39.0878V38.8841L21.3871 38.9311V39.1349L20.7602 39.1192V39.464H21.011L20.9953 40.2946H20.7446L20.7602 39.6677L19.3027 39.6364V39.4326H19.6318V39.1035ZM20.5251 39.1349L19.8982 39.1192V39.464L20.5251 39.4797V39.1349Z" fill="#00942F"/>
<path d="M23.2363 38.2102L23.4714 39.37C23.5967 39.3386 23.7221 39.3073 23.8632 39.2603C24.0042 39.2132 24.1453 39.1662 24.2707 39.1035L24.3334 39.3073C24.1923 39.37 24.0356 39.4327 23.8632 39.4797C23.6751 39.5424 23.4714 39.5894 23.2519 39.6364L22.9385 38.0691L23.8005 37.8967L23.8318 38.1005L23.2363 38.2102ZM24.3334 37.5676C24.3334 37.5833 24.3334 37.599 24.3334 37.6303C24.3334 37.646 24.3334 37.646 24.3334 37.6616C24.3334 37.6773 24.3334 37.6773 24.3334 37.6773L24.5214 38.5863L24.8035 38.5236L24.5998 37.4579L24.7722 37.4265C24.8192 37.4109 24.8662 37.4109 24.8662 37.4265C24.8662 37.4422 24.8662 37.4579 24.8662 37.4892C24.8662 37.5049 24.8662 37.5049 24.8662 37.5206C24.8662 37.5363 24.8662 37.5363 24.8662 37.5519L25.3051 39.7618L25.0543 39.8088L24.8349 38.7274L24.5528 38.7901L24.7565 39.8088L24.5214 39.8558L24.0826 37.5989L24.255 37.5676C24.2863 37.5519 24.3334 37.5519 24.3334 37.5676Z" fill="#00942F"/>
<path d="M27.406 36.5332L27.4844 36.7056L26.8262 36.9877L26.7478 36.8153L27.406 36.5332ZM27.8762 36.6899L27.9546 36.8623L26.5911 37.4579L26.5127 37.2855L27.8762 36.6899ZM27.7665 37.1758C27.8919 37.2071 27.9703 37.2698 28.0173 37.3639C28.0643 37.4579 28.0486 37.5676 27.9859 37.6617C27.9232 37.787 27.7979 37.8811 27.6411 37.9594C27.4687 38.0378 27.312 38.0535 27.1866 38.0221C27.0612 37.9908 26.9829 37.9281 26.9515 37.8341C26.9045 37.74 26.9202 37.6303 26.9829 37.5206C27.0456 37.3952 27.171 37.3012 27.3434 37.2228C27.4844 37.1758 27.6255 37.1445 27.7665 37.1758ZM27.171 37.5833C27.1396 37.646 27.1239 37.693 27.1553 37.74C27.171 37.787 27.218 37.8184 27.2807 37.8341C27.359 37.8497 27.4374 37.8341 27.5471 37.787C27.6411 37.74 27.7038 37.693 27.7508 37.6303C27.7822 37.5676 27.7979 37.5206 27.7665 37.4736C27.7508 37.4266 27.7038 37.3952 27.6255 37.3795C27.5471 37.3639 27.4687 37.3796 27.3747 37.4266C27.2807 37.4579 27.218 37.5206 27.171 37.5833ZM28.3464 36.1414C28.3621 36.1571 28.3621 36.1727 28.3621 36.2041C28.3621 36.2198 28.3621 36.2354 28.3621 36.2354C28.3621 36.2511 28.3621 36.2511 28.3621 36.2668L28.5815 36.7526L28.9106 36.6116L28.989 36.7997L28.6599 36.9407L28.8479 37.3952L28.6128 37.4893L28.0643 36.2354L28.2367 36.1571C28.2994 36.1257 28.3307 36.1257 28.3464 36.1414ZM29.2711 38.3199L29.036 38.414L28.8009 37.8654L27.3904 38.4766L27.312 38.2886L28.9576 37.5833L29.2711 38.3199Z" fill="#00942F"/>
<path d="M31.5593 34.292C31.6847 34.4644 31.8258 34.6838 31.9668 34.9189C32.0922 35.1383 32.2019 35.3264 32.2803 35.4831C32.2333 35.5145 32.1862 35.5301 32.1706 35.5458C32.1235 35.5772 32.0922 35.5928 32.0765 35.6085C32.0138 35.4831 31.9198 35.2951 31.7944 35.0913C31.669 34.8719 31.5593 34.6995 31.481 34.6054L30.1644 35.5615L30.0391 35.4048L31.5593 34.292ZM31.0264 35.7182C31.0421 35.7182 31.0421 35.7339 31.0421 35.7652C31.0421 35.7809 31.0421 35.7809 31.0421 35.7809C31.0421 35.7809 31.0421 35.7966 31.0578 35.7966L31.4966 36.4078L31.8101 36.1727L31.2929 35.4518L31.4339 35.3577C31.481 35.3264 31.5123 35.3107 31.5437 35.3107C31.5593 35.3107 31.5593 35.3421 31.5593 35.3734C31.5593 35.3891 31.5593 35.3891 31.5593 35.4048C31.5593 35.4048 31.5593 35.4204 31.575 35.4204L32.0138 36.0473L32.7661 35.5145L32.8758 35.6712L30.9481 37.0661L30.8384 36.9094L31.2929 36.5802L30.7757 35.8593L30.9167 35.7652C30.9638 35.7182 30.9951 35.7025 31.0264 35.7182Z" fill="#00942F"/>
<path d="M16.5918 32.239V32.2547V34.2138C16.5918 34.2921 16.6231 34.3548 16.6702 34.3705C16.7172 34.3862 16.8112 34.4019 16.9366 34.4175V34.4645H15.9649V34.4175C16.1059 34.4175 16.2 34.3862 16.2313 34.3705C16.2783 34.3392 16.294 34.2765 16.294 34.1824V32.6779C16.294 32.6308 16.294 32.5838 16.2783 32.5525C16.2627 32.5211 16.2313 32.5055 16.1843 32.5055C16.153 32.5055 16.1216 32.5211 16.0746 32.5368C16.0276 32.5525 15.9806 32.5681 15.9492 32.5838V32.5368L16.5761 32.239H16.5918Z" fill="#00942F"/>
<path d="M18.1899 33.5397C18.0175 33.5397 17.9078 33.477 17.8294 33.3359C17.7667 33.1949 17.7354 33.0538 17.7354 32.8971C17.7354 32.709 17.7667 32.5679 17.8451 32.4582C17.9078 32.3642 18.0018 32.3172 18.1272 32.3172C18.2839 32.3172 18.3936 32.3955 18.4877 32.5366C18.566 32.6777 18.6131 32.8657 18.6131 33.0851C18.6131 33.1322 18.6131 33.1792 18.6131 33.2575C18.6131 33.3202 18.6131 33.3673 18.5974 33.3829C18.5817 33.4143 18.5347 33.4456 18.4563 33.4926C18.3466 33.5083 18.2683 33.5397 18.1899 33.5397ZM18.1272 32.2231C17.9078 32.2231 17.7354 32.3015 17.61 32.4426C17.4689 32.5993 17.4062 32.7874 17.4062 33.0225C17.4062 33.2105 17.4689 33.3673 17.5787 33.4926C17.6884 33.618 17.8451 33.6964 18.0488 33.6964C18.0959 33.6964 18.1585 33.6964 18.2056 33.6807C18.3153 33.665 18.425 33.618 18.5033 33.5553L18.566 33.5083C18.5504 33.6023 18.5033 33.7121 18.425 33.8531C18.3466 33.9942 18.2526 34.1039 18.1272 34.2293C18.0332 34.3076 17.9235 34.3703 17.7824 34.433C17.704 34.4643 17.61 34.4957 17.4846 34.5114L17.5003 34.5741C17.6884 34.5584 17.8451 34.5114 17.9705 34.48C18.1899 34.4017 18.378 34.2919 18.519 34.1352C18.6444 33.9942 18.7384 33.8531 18.8011 33.6807C18.8638 33.5083 18.8952 33.3359 18.8952 33.1792C18.8952 32.9441 18.8325 32.7247 18.6914 32.5366C18.5817 32.3172 18.3936 32.2231 18.1272 32.2231Z" fill="#00942F"/>
<path d="M19.5851 34.2764C19.6948 34.3391 19.7732 34.3704 19.8515 34.3704C20.0082 34.3704 20.1336 34.3234 20.212 34.2137C20.2904 34.104 20.3217 33.9943 20.3217 33.8846C20.3217 33.7748 20.2904 33.6651 20.2277 33.5711C20.118 33.4144 19.9456 33.3517 19.6791 33.3517C19.6634 33.3517 19.6478 33.3517 19.6321 33.3517C19.6164 33.3517 19.6008 33.3517 19.5851 33.3517V33.3047C19.7732 33.242 19.9142 33.1636 20.0239 33.0852C20.1336 33.0069 20.1807 32.8972 20.1807 32.7561C20.1807 32.6307 20.1336 32.5524 20.0553 32.4897C19.9769 32.427 19.8829 32.3956 19.7732 32.3956C19.6478 32.3956 19.5381 32.4427 19.444 32.521C19.397 32.568 19.3343 32.6464 19.2716 32.7404L19.2246 32.7248C19.2716 32.5524 19.35 32.427 19.4754 32.333C19.6008 32.2389 19.7418 32.1919 19.9142 32.1919C20.0866 32.1919 20.2277 32.2389 20.3217 32.333C20.4157 32.427 20.4628 32.5367 20.4628 32.6464C20.4628 32.7561 20.4157 32.8502 20.3374 32.9442C20.2904 32.9912 20.2277 33.0539 20.1336 33.1166C20.2433 33.1636 20.3374 33.2106 20.4001 33.2733C20.5255 33.383 20.5881 33.5241 20.5881 33.7122C20.5881 33.9159 20.5098 34.104 20.3374 34.2607C20.165 34.4174 19.9142 34.4958 19.6008 34.4958C19.4597 34.4958 19.3657 34.4801 19.303 34.4331C19.2403 34.3861 19.2246 34.3547 19.2246 34.3077C19.2246 34.2764 19.2403 34.245 19.256 34.2294C19.2716 34.198 19.303 34.198 19.35 34.198C19.397 34.1823 19.491 34.2137 19.5851 34.2764Z" fill="#00942F"/>
<path d="M21.716 34.4174C21.5906 34.4174 21.4809 34.3704 21.4025 34.292C21.3242 34.198 21.2771 34.0883 21.2771 33.9315C21.2771 33.8375 21.2928 33.7591 21.3398 33.6651C21.3868 33.5711 21.4495 33.4927 21.5592 33.43C21.7787 33.5711 21.9354 33.6964 21.9981 33.7591C22.0764 33.8375 22.1078 33.9315 22.1078 34.0412C22.1078 34.1509 22.0764 34.2293 22.0138 34.3077C21.9511 34.3704 21.857 34.4174 21.716 34.4174ZM21.7473 33.1636C21.6219 33.0852 21.5122 33.0068 21.4339 32.9128C21.3555 32.8188 21.3085 32.7247 21.3085 32.6307C21.3085 32.5366 21.3398 32.4583 21.4182 32.3956C21.4809 32.3329 21.5749 32.3016 21.6846 32.3016C21.8257 32.3016 21.9197 32.3329 21.9824 32.4113C22.0451 32.4896 22.0764 32.568 22.0764 32.6777C22.0764 32.8031 22.0451 32.8971 21.9667 32.9755C21.9197 33.0382 21.857 33.1009 21.7473 33.1636ZM21.4809 33.3516C21.3242 33.4457 21.2301 33.524 21.1674 33.6024C21.0734 33.7121 21.0264 33.8375 21.0264 33.9629C21.0264 34.1196 21.0891 34.2607 21.2301 34.3547C21.3712 34.4487 21.5279 34.4958 21.716 34.4958C21.9197 34.4958 22.0921 34.4487 22.2175 34.339C22.3429 34.2293 22.4056 34.1039 22.4056 33.9472C22.4056 33.8061 22.3586 33.6964 22.2802 33.5867C22.2018 33.4927 22.0608 33.3673 21.857 33.2263C21.9981 33.1479 22.1078 33.0852 22.1705 33.0225C22.2802 32.9285 22.3429 32.8031 22.3429 32.6777C22.3429 32.5523 22.2959 32.4426 22.1862 32.3486C22.0764 32.2545 21.9354 32.2075 21.7473 32.2075C21.5436 32.2075 21.3868 32.2545 21.2615 32.3642C21.1361 32.4583 21.0734 32.5837 21.0734 32.7247C21.0734 32.8501 21.1204 32.9598 21.1988 33.0695C21.2144 33.1479 21.3242 33.2419 21.4809 33.3516Z" fill="#00942F"/>
</g>
<defs>
<clipPath id="clip0_201_2736">
<rect width="41" height="41" fill="white" transform="translate(0.0722656)"/>
</clipPath>
</defs>
</svg>
