<svg width="188" height="39" viewBox="0 0 188 39" fill="none" xmlns="http://www.w3.org/2000/svg">
<g clip-path="url(#clip0_201_1765)">
<path d="M39.0254 0.81543H0.789062V38.8154H39.0254V0.81543Z" fill="#0056A3"/>
<path d="M4.48962 3.71659C4.57363 3.71007 4.65802 3.72277 4.73635 3.75366C4.81467 3.78454 4.88484 3.8328 4.94149 3.89479C5.00778 3.97852 5.05435 4.07597 5.07776 4.17993H5.63721C5.62372 4.00162 5.55899 3.83087 5.45073 3.68805C5.22432 3.4329 4.90522 3.27759 4.56359 3.2562C4.22196 3.23481 3.88576 3.34916 3.62893 3.57406C3.39132 3.86718 3.25762 4.23 3.24854 4.6063C3.23946 4.9826 3.35552 5.35132 3.57872 5.65542C3.69496 5.77801 3.83664 5.87404 3.99392 5.93682C4.15121 5.99959 4.32035 6.02761 4.48962 6.01896C4.77139 6.03288 5.04726 5.9355 5.25707 5.74808C5.46173 5.56136 5.59376 5.30902 5.63004 5.03527H5.07059C5.04621 5.14674 4.99722 5.25147 4.92714 5.34182C4.87374 5.40671 4.80554 5.45801 4.72821 5.49148C4.65087 5.52495 4.56663 5.53964 4.48245 5.53429C4.39277 5.53624 4.30388 5.51724 4.22291 5.47887C4.14195 5.44049 4.07116 5.38377 4.01624 5.31328C3.87863 5.11778 3.8128 4.88127 3.82976 4.64328C3.80876 4.39348 3.8691 4.14358 4.0019 3.93047C4.05972 3.85826 4.1343 3.80108 4.21926 3.76384C4.30421 3.72659 4.39698 3.71036 4.48962 3.71659V3.71659Z" fill="white"/>
<path d="M7.50931 4.30096H6.45496V3.2959H5.89551V5.94756H6.45496V4.75716H7.50931V5.94756H8.07593V3.2959H7.50931V4.30096Z" fill="white"/>
<path d="M10.5866 3.53119C10.3334 3.3323 10.02 3.22412 9.69726 3.22412C9.37447 3.22412 9.06112 3.3323 8.80787 3.53119C8.66197 3.6713 8.54903 3.84168 8.47712 4.03021C8.4052 4.21874 8.37609 4.4208 8.39186 4.62181C8.37992 4.82247 8.41082 5.02337 8.48251 5.21133C8.55421 5.39928 8.66508 5.57007 8.80787 5.71244C9.06112 5.91132 9.37447 6.01951 9.69726 6.01951C10.02 6.01951 10.3334 5.91132 10.5866 5.71244C10.7281 5.56945 10.8377 5.39839 10.9081 5.21046C10.9786 5.02253 11.0083 4.82195 10.9955 4.62181C11.0083 4.42168 10.9786 4.2211 10.9081 4.03317C10.8377 3.84524 10.7281 3.67417 10.5866 3.53119V3.53119ZM10.2352 5.31322C10.1706 5.39237 10.0884 5.45545 9.99503 5.49751C9.90165 5.53958 9.7997 5.55946 9.69726 5.55555C9.59542 5.55542 9.49477 5.53373 9.40202 5.49194C9.30926 5.45016 9.22653 5.38925 9.15932 5.31322C9.0281 5.10618 8.95847 4.8665 8.95847 4.62181C8.95847 4.37713 9.0281 4.13745 9.15932 3.93041C9.22388 3.85126 9.3061 3.78809 9.39948 3.74603C9.49285 3.70396 9.59481 3.68408 9.69726 3.68799C9.79986 3.68293 9.90218 3.70231 9.99574 3.74446C10.0893 3.78661 10.1714 3.85039 10.2352 3.93041C10.3664 4.13745 10.436 4.37713 10.436 4.62181C10.436 4.8665 10.3664 5.10618 10.2352 5.31322V5.31322Z" fill="white"/>
<path d="M13.2902 4.60053C13.1463 4.5068 12.9856 4.44144 12.8168 4.40806L12.3435 4.30112C12.2203 4.27866 12.1001 4.24287 11.9848 4.19427C11.9434 4.17598 11.9084 4.14584 11.8841 4.10778C11.8599 4.06972 11.8475 4.02543 11.8486 3.98039C11.8477 3.93259 11.8599 3.88548 11.8839 3.84404C11.9079 3.80261 11.9428 3.76845 11.9848 3.74519C12.0935 3.68263 12.2181 3.65291 12.3435 3.65966C12.4592 3.65596 12.5744 3.67785 12.6806 3.72379C12.7456 3.75323 12.8009 3.80028 12.8402 3.85953C12.8795 3.91878 12.9013 3.98783 12.9029 4.05879H13.4408C13.444 3.93276 13.4163 3.80782 13.3601 3.69481C13.3039 3.5818 13.2208 3.48409 13.1181 3.41011C12.9073 3.26544 12.657 3.18837 12.4008 3.18918C12.1178 3.16921 11.8371 3.25285 11.6119 3.42438C11.5263 3.49727 11.4581 3.58823 11.4122 3.69055C11.3663 3.79288 11.3438 3.90407 11.3465 4.01607C11.3379 4.12649 11.3585 4.23719 11.4063 4.33723C11.4541 4.43728 11.5275 4.52313 11.619 4.58626C11.8034 4.69 12.0051 4.76004 12.2144 4.79301L12.5084 4.85714C12.6401 4.88017 12.768 4.92097 12.8886 4.97835C12.9249 4.99912 12.9547 5.02936 12.975 5.06579C12.9952 5.10223 13.005 5.14342 13.0033 5.185C13.0053 5.25533 12.9828 5.32419 12.9397 5.38C12.8966 5.43581 12.8355 5.47521 12.7666 5.49155C12.6572 5.52312 12.5435 5.53759 12.4295 5.53436C12.3423 5.54298 12.2542 5.53272 12.1713 5.50443C12.0883 5.47613 12.0125 5.4304 11.949 5.37034C11.8898 5.29099 11.8527 5.19757 11.8414 5.09947H11.3035C11.298 5.22435 11.3233 5.34869 11.377 5.4617C11.4307 5.57472 11.5113 5.67304 11.6119 5.74815C11.857 5.91827 12.1526 6.00112 12.4511 5.98335C12.742 6.00394 13.0304 5.91773 13.2615 5.74102C13.3546 5.67179 13.4293 5.58115 13.4793 5.47684C13.5293 5.37254 13.553 5.25772 13.5484 5.14228C13.5524 5.038 13.531 4.93431 13.4861 4.83999C13.4411 4.74568 13.3739 4.66353 13.2902 4.60053V4.60053Z" fill="white"/>
<path d="M15.4715 4.92129C15.4826 5.05826 15.4578 5.1958 15.3998 5.3205C15.3494 5.39111 15.2827 5.4487 15.2054 5.48844C15.128 5.52818 15.0422 5.54891 14.9551 5.54891C14.868 5.54891 14.7822 5.52818 14.7048 5.48844C14.6274 5.4487 14.5608 5.39111 14.5104 5.3205C14.4523 5.1958 14.4276 5.05826 14.4387 4.92129V3.29614H13.8649V4.92129C13.8504 5.14807 13.8975 5.37458 14.0011 5.57711C14.1037 5.73056 14.2474 5.85253 14.4159 5.92934C14.5844 6.00614 14.7711 6.03475 14.9551 6.01191C15.14 6.03447 15.3277 6.0058 15.4973 5.92907C15.6669 5.85234 15.8118 5.73055 15.9162 5.57711C16.0137 5.37266 16.058 5.14717 16.0453 4.92129V3.29614H15.4715V4.92129Z" fill="white"/>
<path d="M18.2399 5.14208L17.1568 3.2959H16.5615V5.94756H17.0851V4.06574L18.1968 5.94756H18.7563V3.2959H18.2399V5.14208Z" fill="white"/>
<path d="M5.02032 8.7705C5.02887 8.90667 5.00682 9.04306 4.95577 9.16971C4.91254 9.24832 4.84592 9.31167 4.76504 9.35122C4.68416 9.39077 4.59296 9.40455 4.50391 9.39064C4.27439 9.39064 4.12377 9.3194 4.05922 9.16971C4.00817 9.04306 3.98612 8.90667 3.99466 8.7705V7.14526H3.4137V8.7705C3.39921 8.99728 3.44627 9.22379 3.54997 9.42631C3.66914 9.56235 3.81627 9.67144 3.98145 9.74617C4.14662 9.82091 4.32601 9.85955 4.5075 9.85955C4.68899 9.85955 4.86836 9.82091 5.03354 9.74617C5.19871 9.67144 5.34585 9.56235 5.46502 9.42631C5.56525 9.2226 5.61212 8.99701 5.60129 8.7705V7.14526H5.02032V8.7705Z" fill="white"/>
<path d="M7.78934 8.98432L6.7063 7.14526H6.11816V9.79692H6.64175V7.90797L7.74631 9.79692H8.31293V7.14526H7.78934V8.98432Z" fill="white"/>
<path d="M9.47483 7.14526H8.9082V9.79692H9.47483V7.14526Z" fill="white"/>
<path d="M10.9449 9.15539L10.3567 7.14526H9.74707L10.6651 9.79692H11.1959L12.1211 7.14526H11.5402L10.9449 9.15539Z" fill="white"/>
<path d="M12.8677 8.63504H14.1587V8.17171H12.8677V7.60859H14.2807V7.14526H12.3154V9.79692H14.3452V9.31934H12.8677V8.63504Z" fill="white"/>
<path d="M16.7262 9.59008C16.7201 9.50703 16.7201 9.42366 16.7262 9.34061V9.16241C16.7372 9.02008 16.71 8.87735 16.6473 8.74892C16.5886 8.65175 16.4971 8.57854 16.3891 8.54226C16.5237 8.50052 16.6368 8.40855 16.7047 8.28566C16.7677 8.17196 16.8022 8.04478 16.8051 7.91499C16.8084 7.81983 16.7913 7.72505 16.7549 7.63698C16.7208 7.5548 16.6749 7.47792 16.6186 7.40883C16.5476 7.3286 16.4593 7.26534 16.3604 7.22358C16.224 7.17868 16.0809 7.15693 15.9372 7.15936H14.6318V9.81109H15.1913V8.77033H15.7436C15.802 8.75349 15.8639 8.75268 15.9228 8.76798C15.9816 8.78328 16.0352 8.81414 16.0778 8.85725C16.1205 8.90036 16.1506 8.95418 16.165 9.01292C16.1794 9.07166 16.1775 9.13309 16.1596 9.19086V9.44041C16.1528 9.5163 16.1528 9.59259 16.1596 9.66848C16.1596 9.70412 16.1596 9.74694 16.1596 9.81109H16.7836V9.73974C16.7463 9.69873 16.7258 9.64535 16.7262 9.59008V9.59008ZM16.0592 8.28566C15.9724 8.31906 15.8795 8.3336 15.7866 8.32839H15.1769V7.61557H15.8009C15.8923 7.60816 15.984 7.62545 16.0663 7.66552C16.1204 7.69876 16.1639 7.74651 16.1918 7.80326C16.2197 7.86002 16.2309 7.92344 16.2241 7.98625C16.2276 8.04459 16.2139 8.10265 16.1846 8.15332C16.1552 8.20398 16.1117 8.24506 16.0592 8.27139V8.28566Z" fill="white"/>
<path d="M18.9929 8.47822C18.8524 8.38317 18.6937 8.31775 18.5267 8.28583L18.0533 8.17889C17.9268 8.15731 17.8038 8.11893 17.6876 8.06482C17.648 8.0467 17.6147 8.01742 17.5918 7.98068C17.5689 7.94393 17.5573 7.90131 17.5585 7.85807C17.5576 7.81111 17.5691 7.76479 17.5917 7.72355C17.6143 7.68231 17.6474 7.64759 17.6876 7.62288C17.7997 7.56256 17.9259 7.53304 18.0533 7.53734C18.169 7.53457 18.284 7.55642 18.3905 7.60147C18.4552 7.63053 18.51 7.67772 18.5482 7.73721C18.5864 7.7967 18.6064 7.86599 18.6056 7.93656H19.1507C19.1539 7.81053 19.1262 7.68559 19.07 7.57258C19.0137 7.45958 18.9307 7.36186 18.828 7.28788C18.6187 7.14018 18.3674 7.06272 18.1107 7.06686C17.8277 7.04689 17.547 7.13062 17.3218 7.30215C17.2362 7.37504 17.1679 7.46591 17.122 7.56823C17.0761 7.67056 17.0537 7.78175 17.0564 7.89375C17.0492 8.004 17.0704 8.11425 17.1181 8.21405C17.1658 8.31384 17.2384 8.39992 17.3289 8.46403C17.5133 8.56777 17.715 8.63772 17.9242 8.67069L18.2183 8.73491C18.35 8.75794 18.4779 8.79865 18.5985 8.85603C18.6347 8.8768 18.6646 8.90704 18.6848 8.94348C18.7051 8.97991 18.7149 9.02119 18.7132 9.06277C18.7148 9.13408 18.6913 9.20373 18.6468 9.25968C18.6023 9.31563 18.5395 9.35432 18.4694 9.36923C18.3625 9.40137 18.251 9.41586 18.1394 9.41204C18.0522 9.42067 17.9641 9.41049 17.8811 9.3822C17.7982 9.3539 17.7224 9.30817 17.6589 9.24811C17.5951 9.1714 17.5574 9.07656 17.5513 8.97724H17.0133C17.0083 9.10134 17.0329 9.22487 17.0853 9.33765C17.1377 9.45042 17.2163 9.54924 17.3146 9.62592C17.5628 9.79506 17.8604 9.87774 18.1609 9.86112C18.4517 9.88039 18.7396 9.79431 18.9714 9.61879C19.0645 9.54956 19.1392 9.45883 19.1892 9.35453C19.2392 9.25022 19.2629 9.1354 19.2583 9.01996C19.2627 8.91488 19.2408 8.81042 19.1945 8.71585C19.1482 8.62129 19.0789 8.53958 18.9929 8.47822V8.47822Z" fill="white"/>
<path d="M20.1692 7.14526H19.6025V9.79692H20.1692V7.14526Z" fill="white"/>
<path d="M24.1356 7.14526L23.5977 8.30002L23.0382 7.14526H22.615H22.3712H20.4131V7.60859H21.2307V9.79692H21.8045V7.60859H22.615V7.58721L23.3108 8.80612V9.79692H23.8702V8.79899L24.7811 7.14526H24.1356Z" fill="white"/>
<path d="M3.48633 11.7286V11.365C3.60807 11.3746 3.73038 11.3746 3.85212 11.365C3.95625 11.3485 4.05202 11.2985 4.12468 11.2225C4.1767 11.1675 4.21589 11.1018 4.23944 11.03C4.24365 10.9945 4.24365 10.9586 4.23944 10.9231H4.69847V13.6817H4.13185V11.7286H3.48633Z" fill="white"/>
<path d="M6.20398 12.306C6.14572 12.3093 6.08741 12.3002 6.03298 12.2793C5.97855 12.2584 5.92924 12.2262 5.88839 12.1848C5.81442 12.0784 5.77901 11.9502 5.78798 11.8212C5.78112 11.746 5.79179 11.6702 5.81916 11.5998C5.84652 11.5293 5.88984 11.4661 5.94577 11.415C6.02986 11.3547 6.13328 11.3272 6.23641 11.3377C6.33953 11.3482 6.43518 11.396 6.50522 11.4719C6.58226 11.5771 6.62028 11.7056 6.61281 11.8355C6.62084 11.9143 6.60705 11.9939 6.57292 12.0655C6.53879 12.1371 6.48561 12.198 6.41915 12.2418C6.35557 12.2842 6.28057 12.3066 6.20398 12.306V12.306ZM5.22135 11.8711C5.21374 11.9914 5.23294 12.112 5.27757 12.2241C5.3222 12.3362 5.39117 12.4372 5.47956 12.5198C5.64534 12.6668 5.85983 12.7481 6.08205 12.7479C6.21496 12.7526 6.34657 12.7206 6.46219 12.6552C6.52704 12.6203 6.58337 12.5716 6.62715 12.5126C6.62415 12.6748 6.59758 12.8357 6.54825 12.9902C6.52583 13.075 6.4755 13.1498 6.4053 13.2027C6.3351 13.2557 6.24908 13.2838 6.16095 13.2825C6.07822 13.2876 5.99652 13.2622 5.93143 13.2112C5.87235 13.1598 5.8341 13.089 5.82384 13.0116H5.27156C5.27778 13.1168 5.30738 13.2193 5.35823 13.3118C5.40907 13.4042 5.47991 13.4843 5.56563 13.5463C5.7321 13.6665 5.93368 13.7291 6.13942 13.7245C6.34164 13.7352 6.54168 13.6785 6.70794 13.5637C6.87419 13.4488 6.9972 13.2822 7.0575 13.09C7.15068 12.8245 7.19443 12.5443 7.18661 12.2632C7.19866 11.9812 7.15227 11.6997 7.05033 11.4363C6.98298 11.2616 6.86079 11.1133 6.70187 11.0131C6.54295 10.913 6.35577 10.8664 6.16811 10.8803C6.04185 10.8761 5.91607 10.8979 5.79876 10.9446C5.68146 10.9912 5.5752 11.0615 5.48673 11.1511C5.39626 11.2474 5.32614 11.3607 5.28055 11.4844C5.23497 11.6081 5.21484 11.7395 5.22135 11.8711Z" fill="white"/>
<path d="M7.85347 12.6411L8.57071 11.4578V12.6411H7.85347ZM9.42423 12.6411H9.10148V10.916H8.50616L7.45898 12.5911V13.0616H8.58506V13.6603H9.12299V13.0616H9.44575L9.42423 12.6411Z" fill="white"/>
<path d="M10.2212 12.7907C10.214 12.7169 10.2253 12.6425 10.2541 12.5741C10.2829 12.5057 10.3283 12.4454 10.3862 12.3987C10.4574 12.3422 10.5461 12.312 10.6372 12.3131C10.6926 12.3124 10.7476 12.3235 10.7983 12.3456C10.849 12.3677 10.8944 12.4004 10.9313 12.4415C11.0144 12.5439 11.0554 12.6738 11.0461 12.805C11.0535 12.9294 11.0181 13.0526 10.9457 13.1543C10.9097 13.1965 10.8645 13.23 10.8136 13.2523C10.7626 13.2745 10.7072 13.2849 10.6516 13.2826C10.5934 13.2836 10.5356 13.272 10.4824 13.2486C10.4291 13.2252 10.3816 13.1906 10.3432 13.1472C10.261 13.0467 10.2177 12.9202 10.2212 12.7907ZM11.5553 11.6003C11.5505 11.4999 11.5244 11.4016 11.4786 11.312C11.4329 11.2223 11.3686 11.1432 11.2899 11.08C11.133 10.9655 10.9468 10.8974 10.7526 10.8835C10.5585 10.8696 10.3643 10.9105 10.1926 11.0016C10.0619 11.0805 9.95342 11.1909 9.87697 11.3224C9.77288 11.5015 9.70925 11.7009 9.69048 11.9069C9.67739 12.0753 9.67739 12.2445 9.69048 12.4129C9.6774 12.7169 9.74413 13.0191 9.88414 13.2897C9.96165 13.4282 10.0766 13.5423 10.2161 13.6192C10.3555 13.696 10.5139 13.7326 10.6731 13.7246C10.8072 13.7339 10.9417 13.7123 11.0661 13.6617C11.1905 13.611 11.3014 13.5325 11.3903 13.4323C11.5502 13.2296 11.6316 12.9767 11.6199 12.7195C11.6243 12.6035 11.6056 12.4878 11.565 12.3789C11.5244 12.2701 11.4626 12.1702 11.3832 12.0851C11.3035 12.0032 11.2074 11.9387 11.1012 11.8957C10.995 11.8528 10.881 11.8323 10.7663 11.8356C10.6609 11.8353 10.5563 11.8547 10.4579 11.8926C10.3634 11.9281 10.2812 11.9899 10.2212 12.0708C10.228 11.9067 10.2545 11.744 10.3001 11.5861C10.3223 11.5007 10.3724 11.4249 10.4424 11.3708C10.5125 11.3166 10.5987 11.2871 10.6875 11.2867C10.739 11.2837 10.7906 11.2939 10.837 11.3164C10.8835 11.3389 10.9234 11.3729 10.9528 11.4151C10.9834 11.4593 11.0008 11.5111 11.003 11.5647L11.5553 11.6003Z" fill="white"/>
<path d="M35.5684 15.4139V19.4128H32.9863V15.0717H29.0128L31.7383 19.4412H28.8119L26.8682 16.3262L25.0034 19.4412H22.0698L24.7523 15.0717H20.6497V19.4128H18.125V15.0075C18.2182 13.7459 19.6456 13.5819 19.6456 13.5819H25.7565L26.9041 11.6716L28.0517 13.5819H33.9402C34.3878 13.6419 34.7987 13.86 35.0977 14.1964C35.3967 14.5328 35.5638 14.9651 35.5684 15.4139V15.4139Z" fill="white"/>
<path d="M18.1388 21.7935V27.2679H22.6933V25.7995H20.6492V24.5592H22.6933V23.0837H20.6492V21.929H22.6933V20.5033H19.3797C19.2106 20.4989 19.0424 20.5297 18.886 20.5938C18.7297 20.6578 18.5885 20.7536 18.4716 20.8752C18.3548 20.9967 18.2648 21.1412 18.2075 21.2993C18.1501 21.4575 18.1268 21.6258 18.1388 21.7935V21.7935Z" fill="white"/>
<path d="M35.575 21.6582V27.268H31.0205V25.8424H33.0647V24.5593H31.0205V23.0838H33.0647V21.929H31.0205V20.5034H34.284C34.5892 20.5493 34.8743 20.6831 35.1038 20.8884C35.3332 21.0936 35.4971 21.3613 35.575 21.6582V21.6582Z" fill="white"/>
<path d="M35.5684 29.3064V35.6505H33.0365V29.8125H20.6497V35.6505H18.125V29.4134C18.125 28.394 19.4017 28.2443 19.4017 28.2443H25.5915V26.6975H28.3099V28.2657H34.3921C34.3921 28.2657 35.554 28.5009 35.5684 29.3064Z" fill="white"/>
<path d="M29.3932 31.3736H28.1523V32.5498H29.3932V33.6689H31.5091V30.4541H29.3932V31.3736Z" fill="white"/>
<path d="M23.5687 35.6933H31.5301V34.4174H24.5872V33.5906H22.4785V34.7596C22.4792 34.8952 22.5091 35.0289 22.5662 35.152C22.6233 35.2751 22.7063 35.3847 22.8097 35.4732C22.913 35.5617 23.0342 35.6271 23.1652 35.6651C23.2961 35.703 23.4337 35.7127 23.5687 35.6933Z" fill="white"/>
<path d="M30.0811 26.5765V24.4381C29.4943 24.3256 28.9651 24.0137 28.5843 23.5559C28.2035 23.0981 27.9948 22.523 27.9939 21.929H30.0739V20.5034H23.7192V21.929H25.6629C25.6629 21.929 25.9713 23.5898 23.6689 24.4381V26.5765C23.6689 26.5765 26.1076 25.9136 26.9252 24.3241C27.2715 24.8914 27.7295 25.3833 28.2718 25.7704C28.8141 26.1575 29.4295 26.4317 30.0811 26.5765V26.5765Z" fill="white"/>
<path d="M25.6702 30.4968H23.6189C23.5647 30.9644 23.3322 31.3935 22.9693 31.6958C22.6064 31.9981 22.1406 32.1507 21.668 32.1221V33.5477C21.668 33.5477 23.7695 33.5476 24.6445 32.3573C25.0122 32.7766 25.4736 33.1047 25.9917 33.3151C26.5098 33.5255 27.0703 33.6125 27.6283 33.5691V32.1435C27.1756 32.0894 26.7489 31.9046 26.4009 31.6119C26.0528 31.3192 25.7988 30.9315 25.6702 30.4968Z" fill="white"/>
<path d="M101.275 7.71533H96.5128V12.3843H92.5536V14.7151H96.5128V29.0356H83.0071V23.5825H78.3378V28.6863C78.3378 28.6863 78.1298 31.231 81.2785 31.3665H101.282L101.275 7.71533Z" fill="#1D1D1B"/>
<path d="M84.2975 17.0176C86.7713 19.3976 89.7885 21.1462 93.0909 22.1142L94.6115 19.7334C90.7025 18.2365 86.8293 15.3924 86.8293 11.7285V8.68481H81.8086V11.7285C81.8086 15.6846 77.9068 17.9657 73.9189 19.6764L75.5112 22.1142C78.8222 21.1709 81.8428 19.4189 84.2975 17.0176V17.0176Z" fill="#1D1D1B"/>
<path d="M185.157 28.5153C186.261 26.2343 185.974 18.4717 185.974 18.4717V8.68481H163.74V11.0157H181.277V20.7955C181.277 20.7955 181.334 27.0113 180.559 28.5153H177.518V17.5878H172.849V28.5153H170.188V17.5878H165.39V28.5153H162.248V30.8461H187.818V28.5153H185.157Z" fill="#1D1D1B"/>
<path d="M62.078 22.6702H57.3585V28.3869H46.4277V30.7178H73.0088V28.3869H62.078V22.6702Z" fill="#1D1D1B"/>
<path d="M46.6357 19.6551L48.5221 22.1001C52.7395 20.9596 57.3944 18.8426 59.7183 15.863C62.3936 19.142 66.5464 20.7957 70.9073 22.1001L72.8008 19.6551C67.1202 18.0584 62.5944 16.0198 62.2358 10.9232H71.9401V8.59229H47.4964V10.9232H57.2008C56.8063 16.0055 52.3522 18.0299 46.6357 19.6551Z" fill="#1D1D1B"/>
<path d="M151.095 16.0055C151.095 13.8671 149.474 12.4415 147.344 11.8499C146.846 11.6921 146.314 11.6751 145.807 11.8011C145.301 11.927 144.839 12.1907 144.475 12.5627C144.475 12.5627 143.32 13.8528 145.034 15.257C145.034 15.257 146.555 16.4404 145.515 17.809C145.286 18.1634 144.966 18.4502 144.587 18.6395C144.209 18.8288 143.786 18.9137 143.363 18.8853C141.441 18.8853 139.382 18.1725 139.289 15.3997C139.217 13.1828 140.53 11.693 143.306 11.3723H151.167V9.11261H144.783V7.07397H139.763V9.11261H133.458V11.3723H136.592C135.93 11.8482 135.387 12.4693 135.005 13.1875C134.623 13.9057 134.413 14.7017 134.39 15.5137C134.441 22.7702 151.095 22.5064 151.095 16.0055Z" fill="#1D1D1B"/>
<path d="M106.984 24.6804H112.084C114.249 24.7441 116.415 24.56 118.539 24.1315V31.3808H123.266V17.8374H125.912V31.3808H130.51V7.72974H125.912V15.5707H123.266V7.72974H118.575V21.7721C116.585 22.3033 114.52 22.5057 112.464 22.3709H109.523V11.1869H115.892V8.87735H104.847V22.5349C104.856 23.0974 105.083 23.6347 105.481 24.0345C105.88 24.4343 106.418 24.6658 106.984 24.6804V24.6804Z" fill="#1D1D1B"/>
<path d="M158.769 7.64429H154.014V22.6133H136.176V24.9442H154.014V31.3168H158.769V24.2457V22.6133V14.6655H162.24V12.3346H158.769V7.64429Z" fill="#1D1D1B"/>
</g>
<defs>
<clipPath id="clip0_201_1765">
<rect width="187" height="38" fill="white" transform="translate(0.789062 0.81543)"/>
</clipPath>
</defs>
</svg>
