<svg width="188" height="38" viewBox="0 0 188 38" fill="none" xmlns="http://www.w3.org/2000/svg">
<g clip-path="url(#clip0_201_2153)">
<path d="M55.9686 14.7446C54.7731 14.1379 53.7234 13.2888 52.8892 12.2537C52.1562 13.2891 51.1748 14.1325 50.0313 14.7097C48.4001 15.512 46.598 15.9244 44.7727 15.9132V12.5056C46.3608 12.5513 47.9161 12.0568 49.1739 11.1062C50.2956 10.2106 50.8601 8.74824 50.8815 6.71912V5.38972H44.7441V2.01017H60.9699V5.38972H54.8969V6.71912C54.935 8.80421 55.5947 10.2619 56.876 11.0922C58.2546 11.9528 59.8497 12.4226 61.4843 12.4497V15.8572C59.5782 15.9632 57.6768 15.5796 55.9686 14.7446V14.7446ZM66.007 10.7914H61.0556V7.41181H66.007V1.96118H70.1009V19.1458H66.007V10.7914ZM47.7021 25.5969C47.1516 24.9858 46.8447 24.2008 46.8376 23.386V16.9068H50.9387V23.4139H70.1009V26.6255H50.5171C49.999 26.674 49.4764 26.6067 48.9887 26.4285C48.5011 26.2503 48.0611 25.966 47.7021 25.5969V25.5969Z" fill="#231916"/>
<path d="M74.4798 13.2263C73.9321 12.6108 73.6257 11.8246 73.6152 11.0083V1.96118H77.7163V10.8473H90.6912V14.2479H77.2948C76.7773 14.2967 76.2552 14.2302 75.7676 14.0533C75.2801 13.8764 74.8398 13.5937 74.4798 13.2263V13.2263ZM96.8857 14.3598H92.7632V1.96118H96.8643V7.41181H100.001V10.7914H96.8643L96.8857 14.3598ZM75.53 25.7369C74.994 25.1657 74.7047 24.4134 74.7227 23.6378V15.8572H96.8715V26.6255H77.8878C77.4527 26.6518 77.0169 26.586 76.6101 26.4327C76.2032 26.2794 75.8349 26.0421 75.53 25.7369V25.7369ZM78.8166 19.1528V23.274H92.8704V19.1457L78.8166 19.1528Z" fill="#231916"/>
<path d="M104.231 18.1802C103.934 17.8965 103.699 17.5567 103.541 17.1814C103.382 16.8061 103.303 16.4032 103.309 15.9971V1.96118H116.005V5.33373H107.431V15.7172H116.055V19.0968H106.703C106.248 19.1182 105.795 19.0479 105.369 18.8902C104.944 18.7325 104.556 18.4908 104.231 18.1802V18.1802ZM124.536 10.7914H122.535V26.5975H118.434V1.96118H122.535V7.41181H124.536V1.96118H128.637V26.5975H124.536V10.7914Z" fill="#231916"/>
<path d="M147.5 8.55932C147.68 9.16628 147.772 9.79535 147.771 10.4275C147.79 11.3462 147.608 12.2582 147.239 13.1027C146.869 13.9473 146.32 14.7051 145.628 15.3254C144.256 16.6037 142.434 17.3166 140.541 17.3166C138.647 17.3166 136.826 16.6037 135.454 15.3254C134.764 14.7028 134.217 13.9446 133.848 13.1006C133.478 12.2566 133.295 11.3457 133.31 10.4275C133.308 9.78959 133.404 9.15491 133.596 8.54531C133.776 7.95342 134.033 7.38664 134.36 6.85902H132.324V3.36057H138.597V0.953613H142.527V3.38855H148.772V6.88703H146.707C147.045 7.40776 147.312 7.97008 147.5 8.55932V8.55932ZM156.959 16.7108H152.858V1.96118H156.959V7.41181H160.096V10.7914H156.959V16.7108ZM152.944 21.6087H133.525V18.2361H156.959V26.5695H152.944V21.6087ZM142.991 8.09049C142.336 7.47963 141.467 7.13892 140.562 7.13892C139.658 7.13892 138.788 7.47963 138.133 8.09049C137.81 8.39231 137.554 8.75503 137.378 9.1567C137.203 9.55836 137.113 9.99071 137.113 10.4275C137.113 10.8644 137.203 11.2966 137.378 11.6983C137.554 12.1 137.81 12.4627 138.133 12.7645C138.785 13.3802 139.656 13.7242 140.562 13.7242C141.468 13.7242 142.339 13.3802 142.991 12.7645C143.321 12.4678 143.582 12.1062 143.758 11.7033C143.934 11.3005 144.021 10.8657 144.013 10.4275V10.4275C144.02 9.98954 143.933 9.55496 143.757 9.15225C143.581 8.74955 143.32 8.38773 142.991 8.09049V8.09049Z" fill="#231916"/>
<path d="M162.468 21.084H165.519V9.35009H169.534V21.112H173.264V9.35009H177.279V21.112H181.359V5.3618H163.404V1.98926H185.338V21.112H187.232V24.4915H162.468V21.084Z" fill="#231916"/>
<path d="M49.6093 32.503C49.3452 32.4032 49.0635 32.3557 48.7805 32.3631C48.2095 32.3573 47.6542 32.5452 47.2086 32.8949C46.9834 33.0547 46.8008 33.2653 46.6764 33.5089C46.5521 33.7525 46.4895 34.0219 46.4942 34.2943C46.4877 34.5669 46.5494 34.8369 46.674 35.0808C46.7985 35.3248 46.9821 35.5351 47.2086 35.6937C47.6517 36.0485 48.2082 36.2392 48.7805 36.2325C49.0635 36.2399 49.3452 36.1923 49.6093 36.0925C49.8073 36.0142 49.9871 35.8976 50.138 35.7496V37.226L50.0665 37.163H49.9879C49.9621 37.1568 49.9352 37.1568 49.9094 37.163H49.8236C49.6982 37.1702 49.5739 37.1889 49.4521 37.219C49.2312 37.2638 49.006 37.2849 48.7805 37.282C47.8901 37.3115 47.0191 37.023 46.3298 36.4703C46.0116 36.2164 45.7552 35.8963 45.579 35.5332C45.4029 35.1701 45.3115 34.7732 45.3115 34.3712C45.3115 33.9693 45.4029 33.5724 45.579 33.2093C45.7552 32.8462 46.0116 32.5261 46.3298 32.2721C47.0191 31.7194 47.8901 31.431 48.7805 31.4605C48.8993 31.4491 49.0189 31.4491 49.1377 31.4605C49.2364 31.4661 49.3345 31.4802 49.4307 31.5025L49.6521 31.5444C49.7091 31.5503 49.7666 31.5503 49.8236 31.5444C49.8859 31.5463 49.9476 31.5318 50.0022 31.5025L50.138 31.4255V32.9019C49.9926 32.7337 49.8124 32.5977 49.6093 32.503V32.503Z" fill="#231916"/>
<path d="M54.5108 31.8034C54.5127 31.7371 54.4898 31.6724 54.4465 31.6214C54.3981 31.5701 54.3428 31.5254 54.2822 31.4885H55.9326C55.8756 31.5273 55.8229 31.5718 55.7754 31.6214C55.7514 31.6453 55.7327 31.6738 55.7204 31.7051C55.7081 31.7364 55.7025 31.7699 55.704 31.8034V36.7012C55.7027 36.7337 55.7083 36.7661 55.7207 36.7962C55.733 36.8264 55.7516 36.8536 55.7754 36.8762C55.8204 36.9302 55.8734 36.9774 55.9326 37.0162H54.2822C54.3447 36.979 54.4002 36.9316 54.4465 36.8762C54.4893 36.8277 54.5122 36.7653 54.5108 36.7012V34.6721H52.4817V36.7012C52.4803 36.7653 52.5032 36.8277 52.546 36.8762C52.5923 36.9316 52.6478 36.979 52.7103 37.0162H51.0527C51.1139 36.9772 51.1692 36.9301 51.2171 36.8762C51.2599 36.8277 51.2828 36.7653 51.2814 36.7012V31.8034C51.2832 31.7371 51.2604 31.6724 51.2171 31.6214C51.1671 31.5717 51.112 31.5272 51.0527 31.4885H52.7103C52.6497 31.5254 52.5944 31.5701 52.546 31.6214C52.5027 31.6724 52.4798 31.7371 52.4817 31.8034V33.7836H54.5108V31.8034Z" fill="#231916"/>
<path d="M57.79 36.3233C57.472 36.0785 57.2149 35.766 57.0382 35.4097C56.8614 35.0533 56.7695 34.6624 56.7695 34.2662C56.7695 33.87 56.8614 33.479 57.0382 33.1227C57.2149 32.7663 57.472 32.454 57.79 32.2091C58.4783 31.6662 59.3355 31.3701 60.2192 31.3701C61.103 31.3701 61.9602 31.6662 62.6485 32.2091C62.9665 32.454 63.2235 32.7663 63.4003 33.1227C63.5771 33.479 63.6689 33.87 63.6689 34.2662C63.6689 34.6624 63.5771 35.0533 63.4003 35.4097C63.2235 35.766 62.9665 36.0785 62.6485 36.3233C61.9666 36.8823 61.1011 37.1806 60.2121 37.1629V37.1629C59.3275 37.1797 58.4668 36.8814 57.79 36.3233V36.3233ZM58.6474 32.9088C58.4366 33.0698 58.2661 33.2757 58.1488 33.5109C58.0315 33.7461 57.9705 34.0044 57.9705 34.2662C57.9705 34.528 58.0315 34.7863 58.1488 35.0215C58.2661 35.2567 58.4366 35.4627 58.6474 35.6236C59.0854 35.9832 59.6406 36.1768 60.2121 36.1693C60.7881 36.1783 61.3484 35.9847 61.7911 35.6236C62.0019 35.4627 62.1724 35.2567 62.2897 35.0215C62.407 34.7863 62.468 34.528 62.468 34.2662C62.468 34.0044 62.407 33.7461 62.2897 33.5109C62.1724 33.2757 62.0019 33.0698 61.7911 32.9088C61.3484 32.5478 60.7881 32.3541 60.2121 32.363C59.6406 32.3556 59.0854 32.5493 58.6474 32.9088V32.9088Z" fill="#231916"/>
<path d="M65.957 33.3775V36.7291C65.9556 36.7615 65.9613 36.7938 65.9736 36.824C65.9859 36.8541 66.0046 36.8814 66.0284 36.904C66.072 36.9593 66.1252 37.0067 66.1856 37.0439H64.5352C64.5944 37.0052 64.6474 36.958 64.6923 36.904C64.7377 36.8565 64.7632 36.7941 64.7638 36.7291V31.8312C64.763 31.7641 64.7376 31.6996 64.6923 31.6493C64.6449 31.5996 64.5922 31.5551 64.5352 31.5164H65.9641L68.3933 35.0778V31.8312C68.3952 31.7649 68.3723 31.7002 68.329 31.6493C68.2806 31.5979 68.2253 31.5532 68.1647 31.5164H69.9009C69.8402 31.5532 69.785 31.5979 69.7365 31.6493C69.6933 31.7002 69.6704 31.7649 69.6722 31.8312V36.7291C69.6708 36.7932 69.6937 36.8555 69.7365 36.904C69.7828 36.9594 69.8384 37.0067 69.9009 37.0439H68.4719L65.9641 33.3775H65.957Z" fill="#231916"/>
<path d="M72.1868 33.3775V36.7291C72.1853 36.7932 72.2083 36.8555 72.2511 36.904C72.2973 36.9594 72.3529 37.0067 72.4154 37.0439H70.7578C70.8203 37.0067 70.8759 36.9594 70.9221 36.904C70.965 36.8555 70.9879 36.7932 70.9865 36.7291V31.8312C70.9883 31.7649 70.9654 31.7002 70.9221 31.6493C70.8737 31.5979 70.8184 31.5532 70.7578 31.5164H72.2296L74.6517 35.0778V31.8312C74.6532 31.7977 74.6476 31.7643 74.6353 31.733C74.623 31.7017 74.6043 31.6732 74.5803 31.6493C74.5348 31.5977 74.4818 31.5529 74.4231 31.5164H76.0807C76.0187 31.5514 75.9632 31.5963 75.9163 31.6493C75.871 31.6996 75.8457 31.7641 75.8449 31.8312V36.7291C75.8454 36.7941 75.8709 36.8565 75.9163 36.904C75.9609 36.961 76.0168 37.0086 76.0807 37.0439H74.6946L72.1796 33.3775H72.1868Z" fill="#231916"/>
<path d="M78.274 36.1624L78.1383 36.4913C78.0988 36.585 78.0747 36.6841 78.0668 36.7851C78.0667 36.8349 78.0816 36.8836 78.1097 36.9251C78.1348 36.967 78.1635 37.0067 78.1954 37.044H76.5664C76.6335 36.9761 76.6956 36.9037 76.7522 36.8271C76.8144 36.7545 76.8628 36.6716 76.8951 36.5822L78.7384 32.3841C78.7884 32.2791 78.8313 32.1671 78.8813 32.0481C78.9224 31.9574 78.9466 31.8604 78.9528 31.7613C78.9539 31.7092 78.939 31.658 78.9099 31.6143C78.9099 31.5723 78.8456 31.5374 78.817 31.5024H80.1388L82.4323 36.5962C82.4701 36.6829 82.5181 36.7652 82.5752 36.8411C82.6341 36.9179 82.6985 36.9903 82.7681 37.058H81.1105C81.1424 37.0207 81.1711 36.981 81.1962 36.9391C81.2188 36.8957 81.231 36.8478 81.2319 36.7991C81.227 36.6984 81.2053 36.5992 81.1676 36.5053C81.1248 36.3793 81.0748 36.2743 81.0319 36.1764L80.889 35.8685H78.4169L78.274 36.1624ZM79.6315 32.7548V32.6849L78.8242 34.9379H80.5532L79.6315 32.7548Z" fill="#231916"/>
<path d="M86.333 34.7281L87.7262 31.4885H89.0694C89.0018 31.5299 88.9493 31.5911 88.9194 31.6634C88.91 31.7261 88.91 31.7897 88.9194 31.8524C88.9249 31.9814 88.9392 32.11 88.9622 32.2372C88.9622 32.4191 89.0123 32.559 89.0337 32.664L89.7124 36.5753C89.7261 36.6755 89.7575 36.7726 89.8053 36.8622C89.8352 36.9274 89.8737 36.9885 89.9196 37.0441H88.3692C88.4267 37.0105 88.4737 36.9622 88.505 36.9042C88.5286 36.8512 88.5407 36.794 88.5407 36.7363C88.5488 36.6478 88.5488 36.5588 88.5407 36.4704C88.5407 36.3514 88.5407 36.2325 88.4907 36.1205L88.0906 33.5177L86.3973 37.1981L84.7397 33.5177L84.3467 36.0436L84.261 36.5054C84.2521 36.5985 84.2521 36.6921 84.261 36.7852C84.2634 36.8337 84.2756 36.8813 84.2967 36.9252C84.3261 36.9679 84.3596 37.0077 84.3967 37.0441H82.9678C83.0189 36.9894 83.0621 36.9282 83.0964 36.8622C83.1378 36.7701 83.1689 36.674 83.1893 36.5753L83.8537 32.664C83.8537 32.559 83.8966 32.4191 83.9252 32.2372C83.9482 32.11 83.9625 31.9814 83.968 31.8524C83.9774 31.7897 83.9774 31.7261 83.968 31.6634C83.9415 31.5933 83.8942 31.5324 83.8323 31.4885H85.1469L86.333 34.7281Z" fill="#231916"/>
<path d="M95.5712 33.3775V36.7291C95.5699 36.7615 95.5756 36.7938 95.5879 36.824C95.6002 36.8541 95.6189 36.8814 95.6427 36.904C95.6863 36.9593 95.7395 37.0067 95.7999 37.0439H94.1494C94.2098 37.0067 94.263 36.9593 94.3066 36.904C94.3304 36.8814 94.3491 36.8541 94.3614 36.824C94.3737 36.7938 94.3794 36.7615 94.378 36.7291V31.8312C94.3795 31.7977 94.3739 31.7643 94.3616 31.733C94.3493 31.7017 94.3306 31.6732 94.3066 31.6493C94.2611 31.5977 94.2081 31.5529 94.1494 31.5164H95.6212L98.0433 35.0778V31.8312C98.0452 31.7649 98.0223 31.7002 97.979 31.6493C97.9306 31.5979 97.8753 31.5532 97.8147 31.5164H99.4723C99.4116 31.5532 99.3564 31.5979 99.3079 31.6493C99.2647 31.7002 99.2418 31.7649 99.2436 31.8312V36.7291C99.2422 36.7932 99.2651 36.8555 99.3079 36.904C99.3542 36.9594 99.4098 37.0067 99.4723 37.0439H98.0862L95.5784 33.3775H95.5712Z" fill="#231916"/>
<path d="M101.659 36.1624C101.659 36.2603 101.573 36.3653 101.53 36.4913C101.487 36.5839 101.463 36.6836 101.459 36.7851C101.46 36.8338 101.472 36.8817 101.494 36.9251C101.52 36.967 101.548 37.0067 101.58 37.044H99.9512C100.021 36.9763 100.085 36.9039 100.144 36.8271C100.201 36.7512 100.249 36.669 100.287 36.5822L102.13 32.3841C102.173 32.2791 102.223 32.1671 102.266 32.0481C102.307 31.9574 102.331 31.8604 102.338 31.7613C102.339 31.7092 102.324 31.658 102.295 31.6143L102.209 31.5024H103.531L105.817 36.5962C105.855 36.6845 105.905 36.7671 105.967 36.8411C106.021 36.9194 106.084 36.992 106.153 37.058H104.495C104.532 37.0244 104.561 36.984 104.581 36.9391C104.609 36.8976 104.624 36.8489 104.624 36.7991C104.619 36.6984 104.597 36.5992 104.56 36.5053C104.51 36.3793 104.467 36.2743 104.417 36.1764L104.281 35.8685H101.802L101.659 36.1624ZM103.016 32.7548V32.6849L102.202 34.9379H103.931L103.016 32.7548Z" fill="#231916"/>
<path d="M110.239 32.7338C110.2 32.6356 110.127 32.554 110.032 32.5029C109.816 32.4236 109.584 32.3925 109.354 32.4119H108.868V36.7291C108.866 36.7932 108.889 36.8555 108.932 36.904C108.977 36.958 109.03 37.0052 109.089 37.0439H107.439C107.501 37.0067 107.557 36.9594 107.603 36.904C107.646 36.8555 107.669 36.7932 107.667 36.7291V32.4399H107.174C106.946 32.4202 106.717 32.4513 106.503 32.5309C106.403 32.5794 106.324 32.6613 106.281 32.7618V31.5164H110.239V32.7338Z" fill="#231916"/>
<path d="M111.047 36.904C111.09 36.8555 111.113 36.7932 111.111 36.7291V31.8312C111.113 31.7649 111.09 31.7002 111.047 31.6493C110.999 31.5979 110.943 31.5532 110.883 31.5164H112.54C112.48 31.5532 112.424 31.5979 112.376 31.6493C112.333 31.7002 112.31 31.7649 112.312 31.8312V36.7291C112.31 36.7932 112.333 36.8555 112.376 36.904C112.422 36.9594 112.478 37.0067 112.54 37.0439H110.883C110.945 37.0067 111.001 36.9594 111.047 36.904V36.904Z" fill="#231916"/>
<path d="M114.491 36.3233C114.173 36.0785 113.916 35.766 113.739 35.4097C113.563 35.0533 113.471 34.6624 113.471 34.2662C113.471 33.87 113.563 33.479 113.739 33.1227C113.916 32.7663 114.173 32.454 114.491 32.2091C115.179 31.6662 116.037 31.3701 116.92 31.3701C117.804 31.3701 118.661 31.6662 119.35 32.2091C119.668 32.454 119.925 32.7663 120.101 33.1227C120.278 33.479 120.37 33.87 120.37 34.2662C120.37 34.6624 120.278 35.0533 120.101 35.4097C119.925 35.766 119.668 36.0785 119.35 36.3233C118.671 36.8824 117.807 37.1808 116.92 37.1629V37.1629C116.034 37.1795 115.171 36.8813 114.491 36.3233V36.3233ZM115.349 32.9088C115.138 33.0698 114.967 33.2757 114.85 33.5109C114.733 33.7461 114.672 34.0044 114.672 34.2662C114.672 34.528 114.733 34.7863 114.85 35.0215C114.967 35.2567 115.138 35.4627 115.349 35.6236C115.793 35.977 116.348 36.1699 116.92 36.1699C117.493 36.1699 118.048 35.977 118.492 35.6236C118.703 35.4627 118.874 35.2567 118.991 35.0215C119.108 34.7863 119.169 34.528 119.169 34.2662C119.169 34.0044 119.108 33.7461 118.991 33.5109C118.874 33.2757 118.703 33.0698 118.492 32.9088C118.052 32.5482 117.494 32.3545 116.92 32.363C116.347 32.3558 115.789 32.5493 115.349 32.9088V32.9088Z" fill="#231916"/>
<path d="M122.664 33.3775V36.7291C122.663 36.7932 122.686 36.8555 122.729 36.904C122.775 36.9594 122.83 37.0067 122.893 37.0439H121.235C121.298 37.0067 121.353 36.9594 121.4 36.904C121.442 36.8555 121.465 36.7932 121.464 36.7291V31.8312C121.466 31.7649 121.443 31.7002 121.4 31.6493C121.351 31.5979 121.296 31.5532 121.235 31.5164H122.707L125.129 35.0778V31.8312C125.131 31.7649 125.108 31.7002 125.065 31.6493C125.017 31.5979 124.961 31.5532 124.901 31.5164H126.558C126.499 31.555 126.444 31.5995 126.394 31.6493C126.351 31.7002 126.328 31.7649 126.33 31.8312V36.7291C126.328 36.7932 126.351 36.8555 126.394 36.904C126.442 36.9579 126.497 37.0049 126.558 37.0439H125.179L122.664 33.3775V33.3775Z" fill="#231916"/>
<path d="M128.752 36.1624L128.616 36.4913C128.573 36.5839 128.549 36.6836 128.545 36.7851C128.545 36.8349 128.559 36.8836 128.588 36.9251C128.608 36.97 128.637 37.0104 128.673 37.044H127.059C127.13 36.9781 127.195 36.9055 127.251 36.8271C127.311 36.7528 127.359 36.6703 127.394 36.5822L129.238 32.3841C129.288 32.2791 129.331 32.1671 129.381 32.0481C129.418 31.9563 129.442 31.8598 129.452 31.7613C129.45 31.7097 129.435 31.6593 129.409 31.6143L129.316 31.5024H130.631L132.924 36.5962C132.962 36.6829 133.01 36.7652 133.067 36.8411C133.126 36.9179 133.191 36.9903 133.26 37.058H131.603C131.635 37.0207 131.663 36.981 131.688 36.9391C131.711 36.8957 131.723 36.8478 131.724 36.7991C131.719 36.6984 131.698 36.5992 131.66 36.5053C131.617 36.3793 131.567 36.2743 131.524 36.1764L131.381 35.8685H128.902L128.752 36.1624ZM130.109 32.7548V32.6849L129.302 34.9379H131.024L130.109 32.7548Z" fill="#231916"/>
<path d="M135.14 31.6212C135.096 31.6722 135.074 31.7369 135.075 31.8032V36.1203H136.633C136.765 36.1276 136.898 36.1036 137.019 36.0504C137.115 36.0125 137.199 35.9496 137.262 35.8685V37.0439H133.646C133.709 37.0067 133.765 36.9594 133.811 36.904C133.854 36.8555 133.877 36.7932 133.875 36.7291V31.8312C133.877 31.7649 133.854 31.7002 133.811 31.6493C133.762 31.5979 133.707 31.5532 133.646 31.5164H135.297C135.241 31.5463 135.189 31.5813 135.14 31.6212V31.6212Z" fill="#231916"/>
<path d="M142.348 36.5543C142.003 36.2391 141.796 35.8054 141.77 35.3439V31.8034C141.771 31.7371 141.749 31.6724 141.705 31.6214C141.655 31.5717 141.6 31.5272 141.541 31.4885H143.184C143.129 31.5273 143.079 31.5719 143.034 31.6214C142.991 31.6724 142.968 31.7371 142.97 31.8034V35.05C142.949 35.3469 143.047 35.6402 143.241 35.8686C143.338 35.9714 143.457 36.0516 143.589 36.1037C143.721 36.1557 143.864 36.1782 144.006 36.1695C144.149 36.1778 144.293 36.1552 144.426 36.1032C144.559 36.0512 144.679 35.9711 144.778 35.8686C144.975 35.6413 145.075 35.3479 145.056 35.05V31.8034C145.058 31.7371 145.035 31.6724 144.992 31.6214C144.942 31.5717 144.887 31.5272 144.828 31.4885H146.471C146.416 31.5273 146.366 31.5719 146.321 31.6214C146.278 31.6724 146.255 31.7371 146.257 31.8034V35.3439C146.227 35.806 146.017 36.2394 145.671 36.5543C145.452 36.7643 145.191 36.9269 144.904 37.0318C144.618 37.1366 144.312 37.1814 144.006 37.1631V37.1631C143.701 37.1831 143.396 37.1391 143.11 37.0341C142.824 36.9291 142.564 36.7656 142.348 36.5543V36.5543Z" fill="#231916"/>
<path d="M148.736 33.3775V36.7291C148.734 36.7932 148.757 36.8555 148.8 36.904C148.848 36.9579 148.903 37.0049 148.964 37.0439H147.307C147.371 37.0086 147.426 36.961 147.471 36.904C147.516 36.8565 147.542 36.7941 147.542 36.7291V31.8312C147.542 31.7641 147.516 31.6996 147.471 31.6493C147.424 31.5963 147.369 31.5514 147.307 31.5164H148.786L151.208 35.0778V31.8312C151.21 31.7649 151.187 31.7002 151.143 31.6493C151.095 31.5979 151.04 31.5532 150.979 31.5164H152.637C152.576 31.5532 152.521 31.5979 152.472 31.6493C152.429 31.7002 152.406 31.7649 152.408 31.8312V36.7291C152.407 36.7932 152.43 36.8555 152.472 36.904C152.519 36.9594 152.574 37.0067 152.637 37.0439H151.251L148.743 33.3775H148.736Z" fill="#231916"/>
<path d="M153.78 36.904C153.822 36.8555 153.845 36.7932 153.844 36.7291V31.8312C153.846 31.7649 153.823 31.7002 153.78 31.6493C153.731 31.5979 153.676 31.5532 153.615 31.5164H155.273C155.212 31.5532 155.157 31.5979 155.108 31.6493C155.065 31.7002 155.042 31.7649 155.044 31.8312V36.7291C155.043 36.7932 155.066 36.8555 155.108 36.904C155.155 36.9594 155.21 37.0067 155.273 37.0439H153.615C153.678 37.0067 153.733 36.9594 153.78 36.904V36.904Z" fill="#231916"/>
<path d="M161.532 31.6982C161.47 31.774 161.422 31.8592 161.389 31.9502L159.545 36.1484L159.41 36.4772C159.367 36.5698 159.343 36.6695 159.338 36.771C159.335 36.8212 159.35 36.8709 159.381 36.911C159.406 36.9529 159.435 36.9928 159.467 37.03H158.159L155.916 31.9362C155.88 31.8465 155.832 31.7618 155.773 31.6843C155.711 31.605 155.647 31.535 155.58 31.4744H157.273C157.239 31.5084 157.207 31.546 157.18 31.5863C157.151 31.63 157.136 31.6812 157.138 31.7333C157.147 31.8326 157.174 31.9296 157.216 32.0202L157.352 32.356L158.652 35.5397L159.974 32.356L160.103 32.0202C160.144 31.9295 160.168 31.8323 160.174 31.7333C160.174 31.6822 160.162 31.6319 160.138 31.5863L160.053 31.4744H161.703C161.655 31.549 161.598 31.6236 161.532 31.6982Z" fill="#231916"/>
<path d="M162.068 36.904C162.11 36.8555 162.133 36.7932 162.132 36.7291V31.8312C162.134 31.7649 162.111 31.7002 162.068 31.6493C162.019 31.5979 161.964 31.5532 161.903 31.5164H165.769V32.6918C165.702 32.6154 165.622 32.5514 165.533 32.5029C165.41 32.4557 165.279 32.4343 165.147 32.4399H163.354V33.8393H164.454C164.563 33.8421 164.671 33.8278 164.776 33.7973C164.861 33.7712 164.94 33.7257 165.004 33.6644V34.9309C164.939 34.8717 164.861 34.8285 164.776 34.8049C164.673 34.7683 164.563 34.7517 164.454 34.756H163.354V36.1554H165.168C165.301 36.1626 165.433 36.1385 165.554 36.0853C165.645 36.0417 165.726 35.9797 165.79 35.9034V37.0789H161.925C161.983 37.0294 162.031 36.9702 162.068 36.904V36.904Z" fill="#231916"/>
<path d="M169.984 36.8831C170.014 36.8169 170.028 36.7454 170.027 36.6733C170.009 36.2438 169.822 35.8379 169.506 35.5398C169.119 35.1615 168.618 34.916 168.077 34.8401V36.7572C168.075 36.7897 168.081 36.822 168.093 36.8521C168.106 36.8823 168.124 36.9096 168.148 36.9322C168.193 36.9892 168.249 37.0368 168.312 37.0721H166.641C166.701 37.0348 166.754 36.9875 166.798 36.9322C166.822 36.9096 166.84 36.8823 166.853 36.8521C166.865 36.822 166.871 36.7897 166.869 36.7572V31.3975C166.933 31.4385 167.003 31.4692 167.076 31.4885C167.15 31.4991 167.225 31.4991 167.298 31.4885C167.442 31.4836 167.586 31.4649 167.727 31.4325C167.919 31.3886 168.115 31.3673 168.312 31.3695C168.834 31.3571 169.342 31.5313 169.741 31.8594C169.931 32.012 170.082 32.2046 170.185 32.4226C170.288 32.6407 170.339 32.8787 170.334 33.1188C170.344 33.4057 170.278 33.6902 170.142 33.9444C170.056 34.0671 169.945 34.1704 169.816 34.2477C169.686 34.3249 169.542 34.3742 169.391 34.3923V34.3923C169.878 34.4674 170.318 34.7168 170.627 35.092C170.919 35.4428 171.111 35.8627 171.185 36.3094C171.203 36.4795 171.252 36.6451 171.328 36.7992C171.372 36.8821 171.436 36.9539 171.513 37.0091H169.863C169.909 36.973 169.95 36.9306 169.984 36.8831V36.8831ZM168.177 33.9094H168.327C168.445 33.9148 168.564 33.8972 168.675 33.8576C168.787 33.8179 168.89 33.7571 168.977 33.6785C169.056 33.6063 169.119 33.5184 169.161 33.4207C169.202 33.323 169.223 33.2177 169.22 33.1118C169.225 33.0066 169.206 32.9016 169.164 32.8047C169.122 32.7078 169.058 32.6214 168.977 32.552C168.89 32.4735 168.787 32.4127 168.675 32.373C168.564 32.3334 168.445 32.3157 168.327 32.3211C168.277 32.3135 168.226 32.3135 168.177 32.3211C168.137 32.3288 168.098 32.343 168.062 32.3631V33.8395C168.096 33.8694 168.135 33.8931 168.177 33.9094V33.9094Z" fill="#231916"/>
<path d="M174.578 32.8667C174.484 32.6955 174.349 32.549 174.185 32.4399C174.008 32.3312 173.801 32.2775 173.592 32.286C173.447 32.2767 173.304 32.3217 173.192 32.4119C173.148 32.4491 173.112 32.4952 173.087 32.5471C173.063 32.5991 173.05 32.6556 173.049 32.7128C173.049 33.1117 173.421 33.4125 174.171 33.6924C174.523 33.8069 174.825 34.0357 175.027 34.3411C175.228 34.6465 175.317 35.01 175.278 35.3716C175.288 35.6224 175.237 35.8718 175.129 36.0993C175.021 36.3269 174.859 36.526 174.657 36.6801C174.201 37.0165 173.641 37.1871 173.071 37.1629H172.771C172.681 37.157 172.593 37.1429 172.506 37.1209L172.292 37.0789C172.237 37.0727 172.182 37.0727 172.128 37.0789C172.066 37.075 172.004 37.0871 171.949 37.114L171.82 37.1979V35.5956C171.948 35.7939 172.125 35.9575 172.335 36.0713C172.555 36.1831 172.801 36.2386 173.049 36.2323C173.321 36.2471 173.589 36.1678 173.807 36.0084C173.902 35.9349 173.979 35.8401 174.03 35.7318C174.081 35.6235 174.105 35.5048 174.099 35.3856C174.099 34.8259 173.728 34.4551 172.985 34.2591C172.646 34.1857 172.346 33.9939 172.141 33.7197C171.936 33.4454 171.84 33.1074 171.87 32.7688C171.864 32.5786 171.904 32.3896 171.986 32.2171C172.067 32.0446 172.189 31.8933 172.342 31.7753C172.68 31.5175 173.1 31.386 173.528 31.4044C173.597 31.3945 173.666 31.3945 173.735 31.4044L173.949 31.4463L174.135 31.4884C174.18 31.4942 174.226 31.4942 174.271 31.4884C174.335 31.4909 174.398 31.4789 174.457 31.4533C174.512 31.4354 174.563 31.4069 174.607 31.3694V32.8667H174.578Z" fill="#231916"/>
<path d="M176.358 36.904C176.401 36.8555 176.423 36.7932 176.422 36.7291V31.8312C176.424 31.7649 176.401 31.7002 176.358 31.6493C176.309 31.5979 176.254 31.5532 176.193 31.5164H177.851C177.79 31.5532 177.735 31.5979 177.687 31.6493C177.643 31.7002 177.62 31.7649 177.622 31.8312V36.7291C177.621 36.7932 177.644 36.8555 177.687 36.904C177.733 36.9594 177.788 37.0067 177.851 37.0439H176.193C176.256 37.0067 176.311 36.9594 176.358 36.904V36.904Z" fill="#231916"/>
<path d="M182.423 32.7338C182.381 32.6371 182.308 32.5561 182.216 32.5029C181.999 32.4236 181.767 32.3925 181.537 32.4119H181.051V36.7291C181.05 36.7932 181.073 36.8555 181.116 36.904C181.159 36.9593 181.212 37.0067 181.273 37.0439H179.622C179.685 37.0067 179.74 36.9594 179.787 36.904C179.829 36.8555 179.852 36.7932 179.851 36.7291V32.4399H179.358C179.13 32.4202 178.9 32.4513 178.686 32.5309C178.59 32.5837 178.513 32.6643 178.465 32.7618V31.5164H182.423V32.7338Z" fill="#231916"/>
<path d="M184.495 36.9042C184.538 36.8557 184.561 36.7933 184.559 36.7293V34.3923L182.909 31.9153C182.852 31.8384 182.802 31.7544 182.737 31.6775C182.681 31.6023 182.611 31.5382 182.53 31.4885H184.216L184.138 31.5725C184.125 31.5837 184.115 31.5978 184.109 31.6137C184.102 31.6295 184.1 31.6466 184.102 31.6634C184.102 31.7101 184.114 31.7559 184.138 31.7964C184.138 31.8453 184.195 31.9083 184.231 31.9713L185.138 33.4407L186.045 31.9713L186.153 31.7964C186.173 31.7545 186.185 31.7095 186.188 31.6634C186.189 31.6298 186.176 31.5973 186.153 31.5725L186.06 31.4885H187.789C187.705 31.5366 187.632 31.6009 187.574 31.6775L187.41 31.9153L185.753 34.3923V36.7293C185.753 36.7943 185.779 36.8567 185.824 36.9042C185.871 36.9563 185.924 37.0032 185.981 37.0441H184.338C184.398 37.0068 184.451 36.9595 184.495 36.9042V36.9042Z" fill="#231916"/>
<path d="M34.7048 10.7493V8.18136H38.663V1.93311H20.5225V8.15343H28.5389V9.07699C29.0647 8.86397 29.6275 8.75232 30.1965 8.74815C30.2771 8.97677 30.3416 9.21056 30.3894 9.44785C30.3894 9.44785 32.2756 8.37035 33.1258 10.9662C33.6369 10.8117 34.17 10.7384 34.7048 10.7493V10.7493Z" fill="#009041"/>
<path d="M34.6839 16.9207V22.1615V25.443C34.8411 28.7946 38.3778 30.145 38.3778 30.145V36.6871C34.6696 36.3373 31.5974 32.8668 31.5974 32.8668C28.6849 35.8795 24.697 37.6743 20.4658 37.8767V31.8453C20.4658 31.8453 28.0321 32.0692 28.5394 23.8617V21.5318C28.5394 21.5318 30.297 20.93 30.6828 19.6216C30.5462 19.4723 30.3928 19.3384 30.2256 19.2227C30.4671 18.8835 30.631 18.4973 30.7062 18.0903C30.7814 17.6834 30.7662 17.2654 30.6614 16.8647C30.6614 16.8647 33.1192 17.5574 34.6839 16.9207Z" fill="#009041"/>
<path d="M12.1633 29.3894C14.1496 30.9287 15.5928 31.8733 18.3078 31.9293V37.9327C14.4068 37.8837 12.3991 36.6313 9.46973 34.5322C10.6655 33.7147 11.6095 32.5918 12.199 31.2856C12.0926 31.1002 11.9193 30.9606 11.7132 30.8938C11.7132 30.8938 12.5634 30.1451 12.1633 29.3894Z" fill="#009041"/>
<path d="M6.96224 23.204C6.75504 22.5043 7.15514 21.7067 7.10513 20.916H0.967773C1.07711 23.4688 1.74986 25.968 2.93973 28.2418C3.20411 28.1038 3.50069 28.0357 3.80017 28.0443C4.09965 28.0529 4.39165 28.1378 4.64733 28.2908C4.64733 28.2908 3.63992 26.2127 6.96224 23.204Z" fill="#009041"/>
<path d="M17.8579 6.88012V8.12561C11.7562 8.12561 7.58369 12.9186 7.09784 18.9989H0.981923C1.10515 14.9554 2.73404 11.0956 5.56172 8.14662V8.14662H0.767578V1.94727H17.8507L17.8579 6.88012Z" fill="#009041"/>
<path d="M2.02541 30.1381C2.02683 29.8876 2.10405 29.6432 2.24733 29.4357C2.3906 29.2282 2.59349 29.067 2.83033 28.9724C3.06716 28.8778 3.32732 28.8542 3.5779 28.9044C3.82847 28.9546 4.05821 29.0765 4.23806 29.2546C4.41792 29.4327 4.53981 29.659 4.58832 29.9049C4.63683 30.1508 4.60979 30.4053 4.51061 30.6362C4.41143 30.8671 4.24457 31.064 4.03112 31.202C3.81768 31.34 3.56724 31.413 3.31147 31.4116C3.14164 31.4107 2.97366 31.377 2.81712 31.3125C2.66058 31.248 2.51854 31.1539 2.39912 31.0357C2.2797 30.9174 2.18523 30.7773 2.12111 30.6233C2.05699 30.4693 2.02447 30.3044 2.02541 30.1381V30.1381ZM3.31147 30.1381V30.7119C3.46685 30.7119 3.61587 30.6514 3.72574 30.5438C3.83562 30.4362 3.89734 30.2903 3.89734 30.1381C3.89734 30.0246 3.86298 29.9137 3.7986 29.8193C3.73423 29.725 3.64273 29.6514 3.53567 29.608C3.42862 29.5646 3.31082 29.5533 3.19717 29.5754C3.08352 29.5975 2.97913 29.6521 2.89719 29.7324C2.81526 29.8126 2.75946 29.9149 2.73686 30.0262C2.71425 30.1375 2.72585 30.2528 2.77019 30.3577C2.81454 30.4625 2.88963 30.5522 2.98597 30.6152C3.08232 30.6782 3.1956 30.7119 3.31147 30.7119V30.1381Z" fill="#009041"/>
<path d="M8.45508 29.6832C8.45508 29.4325 8.53111 29.1873 8.67353 28.9788C8.81595 28.7704 9.01834 28.6081 9.25506 28.5125C9.49178 28.4168 9.75216 28.3922 10.0032 28.4416C10.2543 28.491 10.4847 28.6123 10.6652 28.7902C10.8458 28.968 10.9684 29.1943 11.0175 29.4404C11.0666 29.6865 11.04 29.9414 10.941 30.1727C10.842 30.404 10.6751 30.6013 10.4615 30.7396C10.2479 30.8779 9.99721 30.951 9.74114 30.9496C9.3994 30.9478 9.0723 30.8135 8.83132 30.5762C8.59034 30.3389 8.45507 30.0179 8.45508 29.6832V29.6832ZM9.74828 29.6832V30.2569C9.90366 30.2569 10.0527 30.1965 10.1626 30.0889C10.2724 29.9813 10.3341 29.8354 10.3341 29.6832C10.3341 29.5311 10.2724 29.3851 10.1626 29.2775C10.0527 29.1699 9.90366 29.1094 9.74828 29.1094C9.59413 29.1094 9.44618 29.169 9.33651 29.275C9.22685 29.3811 9.16429 29.5253 9.16241 29.6762C9.16139 29.7549 9.17669 29.8329 9.2074 29.9056C9.2381 29.9782 9.28356 30.0441 9.34102 30.099C9.39847 30.154 9.46673 30.1969 9.54165 30.2253C9.61657 30.2536 9.69659 30.2668 9.77686 30.264L9.74828 29.6832Z" fill="#009041"/>
<path d="M11.1847 23.8826C11.1847 23.6319 11.2607 23.3867 11.4031 23.1783C11.5455 22.9699 11.7479 22.8075 11.9846 22.7119C12.2214 22.6162 12.4817 22.5916 12.7328 22.6411C12.9838 22.6905 13.2142 22.8118 13.3948 22.9896C13.5754 23.1675 13.698 23.3938 13.7471 23.6399C13.7962 23.886 13.7695 24.1408 13.6706 24.3721C13.5716 24.6034 13.4047 24.8007 13.1911 24.939C12.9775 25.0773 12.7268 25.1504 12.4707 25.149C12.301 25.15 12.1327 25.1178 11.9758 25.0544C11.8188 24.991 11.6764 24.8977 11.5567 24.7798C11.4369 24.6619 11.3424 24.5219 11.2785 24.3679C11.2147 24.2138 11.1828 24.0489 11.1847 23.8826V23.8826ZM12.4707 23.8826V24.4563C12.5473 24.4573 12.6233 24.4433 12.6944 24.4153C12.7654 24.3872 12.8301 24.3456 12.8846 24.2929C12.9391 24.2401 12.9823 24.1773 13.0119 24.1081C13.0414 24.0389 13.0566 23.9647 13.0566 23.8896C13.0657 23.8094 13.0574 23.7283 13.0323 23.6514C13.0071 23.5746 12.9658 23.5038 12.9108 23.4437C12.8558 23.3836 12.7886 23.3354 12.7133 23.3025C12.6381 23.2696 12.5567 23.2526 12.4743 23.2526C12.3919 23.2526 12.3104 23.2696 12.2352 23.3025C12.16 23.3354 12.0927 23.3836 12.0378 23.4437C11.9828 23.5038 11.9414 23.5746 11.9163 23.6514C11.8912 23.7283 11.8829 23.8094 11.892 23.8896C11.892 24.04 11.953 24.1841 12.0615 24.2904C12.17 24.3967 12.3172 24.4563 12.4707 24.4563V23.8826Z" fill="#009041"/>
<path d="M17.9151 23.3999C17.9151 23.1492 17.9911 22.9041 18.1335 22.6956C18.2759 22.4872 18.4783 22.3249 18.715 22.2293C18.9518 22.1336 19.2121 22.109 19.4632 22.1584C19.7142 22.2078 19.9447 22.3291 20.1252 22.507C20.3058 22.6848 20.4284 22.9111 20.4775 23.1572C20.5266 23.4033 20.4999 23.6582 20.401 23.8895C20.302 24.1208 20.1351 24.3181 19.9215 24.4564C19.7079 24.5947 19.4572 24.6678 19.2011 24.6664C19.0316 24.6664 18.8638 24.6337 18.7073 24.5699C18.5508 24.5062 18.4087 24.4128 18.2892 24.2951C18.1697 24.1774 18.0751 24.0377 18.0109 23.8841C17.9467 23.7304 17.9141 23.5659 17.9151 23.3999ZM19.2083 23.3999V23.9737C19.3241 23.9737 19.4374 23.9401 19.5338 23.8771C19.6301 23.814 19.7052 23.7244 19.7495 23.6195C19.7939 23.5147 19.8055 23.3994 19.7829 23.2881C19.7603 23.1768 19.7045 23.0745 19.6225 22.9942C19.5406 22.914 19.4362 22.8594 19.3226 22.8372C19.2089 22.8151 19.0911 22.8265 18.9841 22.8699C18.877 22.9133 18.7855 22.9868 18.7211 23.0812C18.6568 23.1755 18.6224 23.2865 18.6224 23.3999C18.6224 23.4753 18.6375 23.5499 18.667 23.6195C18.6964 23.6892 18.7396 23.7524 18.794 23.8057C18.8484 23.8589 18.913 23.9012 18.9841 23.93C19.0551 23.9588 19.1313 23.9737 19.2083 23.9737V23.3999Z" fill="#009041"/>
<path d="M20.5586 17.5924C20.56 17.342 20.6373 17.0975 20.7805 16.89C20.9238 16.6825 21.1267 16.5213 21.3635 16.4267C21.6004 16.3322 21.8605 16.3085 22.1111 16.3587C22.3617 16.409 22.5914 16.5308 22.7713 16.7088C22.9511 16.8869 23.073 17.1133 23.1215 17.3593C23.17 17.6052 23.143 17.8597 23.0438 18.0906C22.9446 18.3214 22.7778 18.5183 22.5643 18.6563C22.3509 18.7943 22.1004 18.8672 21.8447 18.8658C21.6748 18.8649 21.5069 18.8313 21.3503 18.7668C21.1938 18.7023 21.0517 18.6082 20.9323 18.4899C20.8129 18.3717 20.7184 18.2316 20.6543 18.0776C20.5902 17.9236 20.5577 17.7587 20.5586 17.5924V17.5924ZM21.8447 17.5924V18.1661C22.0001 18.1661 22.1491 18.1057 22.2589 17.9981C22.3688 17.8905 22.4305 17.7446 22.4305 17.5924C22.4315 17.5174 22.4172 17.4429 22.3886 17.3733C22.3599 17.3038 22.3174 17.2405 22.2636 17.1871C22.2098 17.1338 22.1456 17.0914 22.0749 17.0624C22.0043 17.0335 21.9284 17.0186 21.8518 17.0186C21.6964 17.0186 21.5474 17.0791 21.4375 17.1867C21.3277 17.2943 21.2659 17.4403 21.2659 17.5924C21.264 17.668 21.2776 17.7432 21.3058 17.8136C21.3341 17.8839 21.3764 17.9481 21.4303 18.0022C21.4842 18.0564 21.5487 18.0994 21.6199 18.1287C21.691 18.1581 21.7675 18.1732 21.8447 18.1731V17.5924Z" fill="#009041"/>
<path d="M27.2315 17.1657C27.2329 16.9153 27.3101 16.6708 27.4534 16.4633C27.5967 16.2558 27.7995 16.0946 28.0364 16C28.2732 15.9055 28.5334 15.8817 28.784 15.932C29.0345 15.9822 29.2643 16.1041 29.4441 16.2821C29.624 16.4602 29.7459 16.6865 29.7944 16.9325C29.8429 17.1784 29.8158 17.433 29.7167 17.6639C29.6175 17.8947 29.4506 18.0916 29.2372 18.2296C29.0237 18.3676 28.7733 18.4405 28.5175 18.4391C28.3477 18.4382 28.1797 18.4046 28.0232 18.3401C27.8666 18.2756 27.7246 18.1815 27.6052 18.0632C27.4858 17.945 27.3913 17.8049 27.3272 17.6509C27.263 17.4969 27.2305 17.3321 27.2315 17.1657ZM28.5247 17.1657V17.7395C28.6405 17.7395 28.7538 17.7058 28.8502 17.6428C28.9465 17.5797 29.0216 17.4901 29.0659 17.3852C29.1103 17.2804 29.1219 17.1651 29.0993 17.0538C29.0767 16.9425 29.0209 16.8403 28.9389 16.76C28.857 16.6798 28.7526 16.6251 28.639 16.603C28.5253 16.5808 28.4075 16.5922 28.3005 16.6357C28.1934 16.6791 28.1019 16.7526 28.0375 16.847C27.9732 16.9413 27.9388 17.0523 27.9388 17.1657C27.9379 17.2417 27.9523 17.317 27.9813 17.3874C28.0103 17.4578 28.0534 17.522 28.1078 17.576C28.1623 17.63 28.2273 17.6729 28.2988 17.7021C28.3704 17.7314 28.4471 17.7465 28.5247 17.7465V17.1657Z" fill="#009041"/>
<path d="M29.8897 11.449C29.8897 11.1983 29.9657 10.9531 30.1081 10.7447C30.2505 10.5363 30.4529 10.3739 30.6896 10.2783C30.9264 10.1826 31.1868 10.1581 31.4378 10.2075C31.6889 10.2569 31.9193 10.3782 32.0998 10.5561C32.2804 10.7339 32.403 10.9602 32.4521 11.2063C32.5012 11.4524 32.4745 11.7073 32.3756 11.9385C32.2766 12.1698 32.1097 12.3672 31.8961 12.5055C31.6825 12.6438 31.4318 12.7169 31.1757 12.7155C31.0062 12.7155 30.8384 12.6827 30.6819 12.6189C30.5254 12.5552 30.3833 12.4619 30.2638 12.3442C30.1443 12.2265 30.0497 12.0868 29.9855 11.9332C29.9213 11.7795 29.8887 11.615 29.8897 11.449ZM31.1757 11.449V12.0158C31.2526 12.0177 31.329 12.0044 31.4005 11.9766C31.472 11.9489 31.537 11.9073 31.5917 11.8544C31.6464 11.8015 31.6897 11.7384 31.7189 11.6687C31.748 11.5991 31.7626 11.5243 31.7616 11.449C31.7457 11.3087 31.6775 11.179 31.5701 11.0848C31.4626 10.9907 31.3235 10.9385 31.1793 10.9385C31.0351 10.9385 30.896 10.9907 30.7885 11.0848C30.6811 11.179 30.6129 11.3087 30.597 11.449C30.5911 11.5254 30.6013 11.6022 30.627 11.6745C30.6526 11.7469 30.6931 11.8133 30.746 11.8697C30.7989 11.9261 30.8631 11.9713 30.9346 12.0024C31.006 12.0336 31.0832 12.05 31.1614 12.0508L31.1757 11.449Z" fill="#009041"/>
<path d="M14.4641 24.4076C14.4641 24.4076 13.4496 17.8025 20.38 16.0112C20.38 16.0042 22.0948 22.3715 14.4641 24.4076ZM19.8942 17.4106L15.6573 23.33C15.6573 23.33 17.3292 23.1061 18.8653 20.9721C18.8653 20.9721 20.1442 19.0689 19.9156 17.3896L19.8942 17.4106ZM19.4226 17.0398C17.7364 17.4036 16.3504 19.2368 16.3504 19.2368C14.8357 21.3849 15.1929 23.0012 15.1929 23.0012L19.4083 17.0608L19.4226 17.0398Z" fill="#009041"/>
<path d="M19.501 21.1118C19.501 21.1118 23.252 15.5142 29.6323 18.7398C29.6323 18.7398 26.56 24.5963 19.501 21.1118ZM28.3176 19.4605L21.1228 21.0908C21.1228 21.0908 22.5518 22.0144 25.1168 21.4337C25.1168 21.4337 27.3745 20.8529 28.3462 19.4605H28.3176ZM28.2176 18.8727C26.7172 18.0401 24.4309 18.5019 24.4309 18.5019C21.8445 19.1036 21.0085 20.538 21.0085 20.538L28.1962 18.8867L28.2176 18.8727Z" fill="#009041"/>
<path d="M5.20438 30.6908C5.20438 30.6908 4.18983 24.0857 11.1203 22.2944C11.1203 22.2944 12.835 28.6547 5.20438 30.6908ZM10.6344 23.6938L6.39756 29.6202C6.39756 29.6202 8.06943 29.3894 9.59841 27.2623C9.59841 27.2623 10.8845 25.3521 10.6558 23.6798L10.6344 23.6938ZM10.1629 23.323C8.47669 23.6938 7.0906 25.527 7.0906 25.527C5.57591 27.6681 5.93315 29.2844 5.93315 29.2844L10.1486 23.351L10.1629 23.323Z" fill="#009041"/>
<path d="M10.127 27.4512C10.127 27.4512 13.878 21.8536 20.2582 25.0792C20.2582 25.0792 17.186 30.9357 10.127 27.4512ZM18.9436 25.7999L11.7488 27.4302C11.7488 27.4302 13.1778 28.3538 15.7427 27.78C15.7427 27.78 18.0005 27.1993 18.9722 25.7999H18.9436ZM18.8436 25.2122C17.3432 24.3865 15.0568 24.8413 15.0568 24.8413C12.4633 25.4431 11.6345 26.8775 11.6345 26.8775L18.8221 25.2261L18.8436 25.2122Z" fill="#009041"/>
<path d="M23.8382 18.0612C23.8382 18.0612 22.8236 11.463 29.754 9.66479C29.754 9.66479 31.4688 16.032 23.8382 18.0612ZM29.2682 11.0642L25.0313 16.9837C25.0313 16.9837 26.7032 16.7528 28.2393 14.6257C28.2393 14.6257 29.5183 12.7155 29.2896 11.0433L29.2682 11.0642ZM28.7966 10.6864C27.1105 11.0573 25.7244 12.8905 25.7244 12.8905C24.2097 15.0385 24.5669 16.6478 24.5669 16.6478L28.7823 10.7143L28.7966 10.6864Z" fill="#009041"/>
<path d="M28.7041 15.0526C28.7041 15.0526 32.4551 9.455 38.8354 12.6736C38.8354 12.6736 35.7631 18.5301 28.7041 15.0526ZM37.5207 13.4013L30.326 15.0246C30.326 15.0246 31.7192 15.9552 34.3199 15.3744C34.3199 15.3744 36.5776 14.7937 37.5493 13.4013H37.5207ZM37.4207 12.8135C35.9203 11.9809 33.634 12.4357 33.634 12.4357C31.0476 13.0445 30.2116 14.4788 30.2116 14.4788L37.3993 12.8205L37.4207 12.8135Z" fill="#009041"/>
<path d="M0.84668 33.8395C0.84668 33.8395 4.54767 28.2419 10.9565 31.3696C10.9565 31.3976 7.94858 37.282 0.84668 33.8395ZM9.64903 32.1043L2.50427 33.7975C2.50427 33.7975 3.93322 34.7142 6.49819 34.1124C6.49819 34.1124 8.74879 33.5107 9.70619 32.1043H9.64903ZM9.549 31.5166C8.03431 30.7049 5.75514 31.1806 5.75514 31.1806C3.16873 31.8104 2.35423 33.2797 2.35423 33.2797L9.49899 31.5585L9.549 31.5166Z" fill="#009041"/>
</g>
<defs>
<clipPath id="clip0_201_2153">
<rect width="187" height="37" fill="white" transform="translate(0.789062 0.932617)"/>
</clipPath>
</defs>
</svg>
