<svg width="188" height="56" viewBox="0 0 188 56" fill="none" xmlns="http://www.w3.org/2000/svg">
<g clip-path="url(#clip0_201_2866)">
<path fill-rule="evenodd" clip-rule="evenodd" d="M124.1 25.0328C124.046 25.0256 123.99 25.0256 123.936 25.0328C123.633 24.8405 123.286 24.7301 122.927 24.7126C122.569 24.6951 122.212 24.7711 121.892 24.933C121.721 25.0043 121.55 25.0827 121.371 24.9686C120.957 24.7622 120.48 24.719 120.035 24.8474C119.588 24.9463 119.134 25.013 118.677 25.047C118.32 25.047 118.149 24.9615 118.17 24.548C118.206 23.7424 118.263 22.944 118.377 22.1456C118.67 20.7393 118.797 19.3038 118.756 17.8682C118.797 17.7892 118.828 17.7054 118.849 17.6187C119.085 15.8578 118.992 15.815 121.064 15.5441H121.121C121.836 15.5045 122.527 15.2729 123.121 14.874C123.276 14.7569 123.389 14.5927 123.441 14.4061C123.494 14.2196 123.485 14.0209 123.414 13.8403C123.392 13.7599 123.353 13.685 123.3 13.6205C123.247 13.556 123.181 13.5032 123.106 13.4656C123.032 13.428 122.95 13.4064 122.866 13.4022C122.783 13.398 122.699 13.4112 122.621 13.4411V13.4411C121.916 13.2748 121.183 13.2748 120.478 13.4411C119.718 13.5657 118.945 13.5945 118.177 13.5266C117.209 13.5066 116.244 13.6414 115.319 13.9259C115.048 13.9926 114.801 14.1333 114.605 14.3322C114.376 14.5532 114.169 14.7956 114.276 15.1449C114.314 15.3059 114.398 15.4521 114.519 15.565C114.64 15.678 114.791 15.7526 114.955 15.7794C115.299 15.9183 115.604 16.1369 115.846 16.4171C116.089 16.6972 116.261 17.0309 116.348 17.3905C116.517 19.1991 116.273 21.0222 115.634 22.723C115.577 22.8321 115.543 22.9513 115.533 23.0737C115.524 23.1961 115.538 23.3192 115.576 23.4359C115.715 23.8027 115.754 24.1994 115.69 24.5861C115.626 24.9728 115.461 25.3358 115.212 25.6387C115.159 25.7535 115.116 25.8728 115.083 25.9952C114.885 26.2351 114.761 26.5274 114.726 26.8364C114.68 27.0613 114.702 27.295 114.79 27.5072C114.877 27.7194 115.027 27.9005 115.219 28.027C115.634 28.3121 116.034 28.583 116.562 28.2194C116.988 27.953 117.496 27.8515 117.991 27.9343C118.483 28.0104 118.985 27.9664 119.456 27.806C120.055 27.586 120.684 27.4562 121.321 27.421C122.253 27.4178 123.183 27.332 124.1 27.1644C124.772 26.979 125.351 26.4515 125.343 26.0807C125.336 25.71 124.829 25.211 124.1 25.0328Z" fill="#79242F"/>
<path fill-rule="evenodd" clip-rule="evenodd" d="M135.561 26.1449C135.413 25.2019 135.356 24.2472 135.389 23.2934C135.486 22.4287 135.486 21.556 135.389 20.6913C135.31 20.4061 135.225 20.1281 135.146 19.8501C135.146 19.736 135.146 19.6291 135.146 19.5221C134.918 17.8349 134.882 16.1273 135.039 14.432C135.114 13.943 135.114 13.4454 135.039 12.9563C134.932 12.2434 134.324 11.5306 133.867 11.5306C133.54 11.5674 133.23 11.6942 132.972 11.8969C132.713 12.0997 132.516 12.3702 132.403 12.6783C132.399 12.6971 132.399 12.7166 132.403 12.7354C132.276 12.914 132.199 13.1232 132.181 13.3413C132.061 14.2486 132.03 15.1655 132.088 16.0788C132.088 16.3426 132.031 16.6278 131.767 16.642C131.113 16.7972 130.445 16.8856 129.773 16.9058C129.64 16.1477 129.621 15.374 129.716 14.6103C129.839 14.0627 129.806 13.4919 129.622 12.9619C129.437 12.4318 129.109 11.9634 128.673 11.609C128.28 11.3167 127.959 11.502 127.594 11.609C127.23 11.7159 127.265 11.9797 127.237 12.2648C127.165 12.9777 127.508 13.598 127.487 14.2609C127.437 16.0717 127.73 17.8254 127.63 19.6861C127.66 20.9785 127.607 22.2714 127.473 23.5571C127.35 23.8018 127.3 24.0764 127.33 24.3484C127.43 25.9942 127.415 27.645 127.287 29.2888C127.158 30.0845 127.158 30.8956 127.287 31.6913C127.381 31.9701 127.566 32.2096 127.812 32.3723C128.057 32.5349 128.35 32.6113 128.644 32.5895C128.786 32.6096 128.93 32.5998 129.068 32.5608C129.205 32.5217 129.333 32.4544 129.443 32.363C129.552 32.2716 129.642 32.1583 129.705 32.0303C129.768 31.9023 129.803 31.7625 129.809 31.62C129.948 30.7212 130.019 29.8133 130.023 28.9038C130.034 28.752 130.034 28.5995 130.023 28.4476C130.311 27.3353 130.5 26.1997 130.588 25.0542C130.588 24.0775 130.259 23.1436 130.316 22.2026C130.384 21.4532 130.384 20.6993 130.316 19.9499C130.3 19.8882 130.297 19.8238 130.309 19.7611C130.32 19.6983 130.344 19.6387 130.381 19.5863C130.731 19.1942 132.095 19.3582 132.231 19.8429C132.411 20.3177 132.54 20.8099 132.617 21.3115C132.688 22.4379 132.774 23.5714 132.888 24.6978C133.149 26.2338 133.041 27.8095 132.574 29.2959C132.468 29.661 132.452 30.0464 132.527 30.419C132.603 30.7915 132.769 31.1401 133.01 31.4346C133.176 31.6928 133.403 31.9069 133.671 32.0584C133.938 32.2099 134.239 32.2943 134.546 32.3044C135.396 32.4184 135.632 32.1404 135.575 31.2992C135.536 30.3863 135.557 29.4717 135.639 28.5617C135.722 27.7562 135.695 26.9434 135.561 26.1449V26.1449ZM134.882 13.8902V13.769C134.885 13.8094 134.885 13.8499 134.882 13.8902Z" fill="#79242F"/>
<path fill-rule="evenodd" clip-rule="evenodd" d="M96.7144 18.9234C98.4791 19.4723 101.516 19.843 103.273 17.5831C103.695 17.1241 103.985 16.5595 104.11 15.9493C104.236 15.3392 104.194 14.7064 103.988 14.1185C103.555 13.3827 102.943 12.7676 102.208 12.3303C101.474 11.8929 100.641 11.6473 99.7866 11.6162C98.746 11.4458 97.6795 11.6806 96.8072 12.2721C96.4415 12.4144 96.1141 12.64 95.8512 12.9308C95.5882 13.2217 95.3969 13.5698 95.2925 13.9474C95.1304 14.6228 95.0395 15.3133 95.021 16.0076C94.9282 16.9059 95.8641 18.6596 96.7144 18.9234ZM104.002 14.9312C104.006 14.8956 104.006 14.8598 104.002 14.8242C104.002 14.8242 104.016 14.8955 104.002 14.9312ZM97.5717 15.366C97.5717 15.0167 97.8432 14.867 98.1219 14.7529C98.8747 14.4516 99.6837 14.3154 100.494 14.3537C100.817 14.3379 101.136 14.4284 101.402 14.6114C101.668 14.7943 101.866 15.0595 101.966 15.366C101.96 15.8231 101.781 16.2611 101.466 16.5922C101.338 16.758 101.167 16.886 100.972 16.9625C100.777 17.0391 100.565 17.0614 100.358 17.0271C100.233 17.0023 100.105 17.0023 99.9795 17.0271C99.5217 17.1184 99.0469 17.0708 98.6165 16.8904C98.1861 16.7099 97.8197 16.4049 97.5646 16.0148C97.5211 15.9728 97.4864 15.9227 97.4625 15.8672C97.4386 15.8118 97.426 15.7522 97.4253 15.6919C97.4246 15.6315 97.436 15.5717 97.4587 15.5158C97.4813 15.4598 97.5149 15.4089 97.5574 15.366H97.5717Z" fill="#79242F"/>
<path fill-rule="evenodd" clip-rule="evenodd" d="M109.246 20.5202C109.053 20.4346 108.868 20.2208 108.639 20.3348C107.792 20.6472 106.869 20.692 105.995 20.4632C105.414 20.4936 104.831 20.4553 104.259 20.3491C103.885 20.2013 103.473 20.1838 103.087 20.2992C102.596 20.441 102.085 20.5059 101.573 20.4917C100.394 20.4917 99.2364 20.342 98.0575 20.3919C96.8786 20.4418 95.8141 20.3491 94.6923 20.3063C93.9778 20.3063 93.2634 19.957 92.6489 20.3705C92.0473 20.7554 91.3282 20.9146 90.6198 20.8196C89.5338 20.5986 89.1123 20.8196 88.7479 21.8319C88.7246 21.9211 88.6859 22.0055 88.6336 22.0814C88.5012 22.2694 88.4369 22.4968 88.4512 22.7261C88.4655 22.9554 88.5575 23.1731 88.7122 23.3433C88.9908 23.7853 89.4266 23.7211 89.791 23.6569C90.1554 23.5928 90.5055 23.4645 90.8484 23.3646C91.1355 23.2365 91.457 23.2064 91.763 23.2791C92.4495 23.4906 93.1841 23.4906 93.8707 23.2791C95.2229 22.9184 96.65 22.9481 97.9861 23.3646C98.1309 23.3941 98.2589 23.4777 98.344 23.5983C98.429 23.7189 98.4645 23.8674 98.4433 24.0134C98.4005 24.7624 98.422 25.5137 98.5076 26.259C98.5576 26.6012 98.5934 27.0147 98.922 27.1644C99.7294 27.5494 100.294 27.585 100.865 26.7295C101.013 26.4751 101.141 26.2107 101.251 25.9382C101.587 25.2253 101.551 25.0257 100.965 24.4625L100.858 24.2415C101.015 23.5286 101.301 23.2221 101.966 23.3147C102.915 23.4124 103.872 23.4268 104.824 23.3575C105.645 23.3575 106.474 23.3575 107.296 23.3575C108.107 23.3725 108.91 23.1863 109.632 22.8157C109.946 22.6446 110.311 22.4735 110.311 22.0315C110.325 21.6979 110.228 21.369 110.035 21.0957C109.843 20.8225 109.566 20.6202 109.246 20.5202V20.5202Z" fill="#79242F"/>
<path fill-rule="evenodd" clip-rule="evenodd" d="M107.768 29.3244C107.37 29.2942 106.977 29.2201 106.596 29.1034C106.303 29.1034 106.017 29.0107 105.724 28.9893C104.409 28.8931 103.089 28.8931 101.773 28.9893C100.066 29.1176 98.3652 28.8966 96.6648 29.025C95.8281 29.1208 94.981 29.0653 94.1641 28.861C93.964 28.6899 94.0212 28.476 94.0426 28.255C94.1488 27.6449 94.2085 27.0277 94.2212 26.4086C94.2057 26.161 94.1166 25.9235 93.9651 25.7267C93.8136 25.5299 93.6068 25.3826 93.371 25.3036C93.1442 25.1867 92.888 25.1385 92.6341 25.1651C92.3801 25.1917 92.1396 25.2919 91.9421 25.4533C91.7078 25.6449 91.5282 25.8947 91.4216 26.1776C91.315 26.4604 91.285 26.7664 91.3348 27.0645C91.4056 27.505 91.3783 27.9557 91.2548 28.3844C91.1313 28.8132 90.9147 29.2096 90.6203 29.5454C90.5759 29.6032 90.542 29.6683 90.5203 29.7379C90.395 29.8857 90.3139 30.0656 90.2861 30.2572C90.2583 30.4488 90.285 30.6443 90.3631 30.8215C90.6764 31.2921 91.1257 31.6566 91.6514 31.8667C92.1771 32.0768 92.7544 32.1225 93.3067 31.9977C93.6077 31.9173 93.917 31.8719 94.2284 31.8623C95.2001 31.8053 96.1718 31.7696 97.1435 31.7268C98.2295 31.5201 99.3369 31.6627 100.43 31.5486C102.573 31.3205 104.753 31.1209 106.91 31.7197C108.339 32.1118 108.754 31.7197 108.647 30.2012C108.568 29.6238 108.354 29.3814 107.768 29.3244Z" fill="#79242F"/>
<path fill-rule="evenodd" clip-rule="evenodd" d="M85.1477 16.2429C84.5782 16.1945 84.007 16.3135 83.5044 16.585C83.3796 16.6466 83.2359 16.658 83.1029 16.6169C82.97 16.5757 82.8579 16.4852 82.7899 16.364C82.5859 15.7931 82.5008 15.1867 82.5398 14.5818C82.5684 14.0689 82.5684 13.5548 82.5398 13.0419C82.5385 12.7839 82.4461 12.5345 82.2789 12.3377C82.1116 12.1408 81.8802 12.009 81.6253 11.9655C81.3418 11.9158 81.0501 11.9433 80.781 12.0452C80.5118 12.147 80.2752 12.3194 80.096 12.5442C79.9168 12.769 79.8017 13.0378 79.7627 13.3224C79.7238 13.607 79.7625 13.8967 79.8748 14.1612C80.0632 14.6114 80.1345 15.1019 80.082 15.587C79.9696 16.8828 80.0152 18.1874 80.2178 19.4723C80.3884 20.4594 80.3763 21.4694 80.1821 22.4522C80.0986 22.9227 80.0794 23.4023 80.1249 23.878C80.1266 24.0345 80.1882 24.1845 80.2971 24.2972C80.406 24.4099 80.554 24.4767 80.7108 24.4839C81.0008 24.5602 81.3046 24.5682 81.5982 24.5073C81.8919 24.4464 82.1673 24.3183 82.4028 24.1331C82.6384 23.9478 82.8276 23.7105 82.9555 23.4398C83.0834 23.1692 83.1466 22.8726 83.14 22.5734C83.19 21.5825 82.9971 20.6058 83.0042 19.6149C83.0042 18.902 83.0042 18.902 83.7187 18.9875C84.221 19.0942 84.7367 19.123 85.2477 19.0731C85.9622 18.959 86.2908 18.3602 86.2694 17.4334C86.2825 17.2798 86.263 17.1252 86.2122 16.9796C86.1615 16.834 86.0805 16.7007 85.9747 16.5884C85.8689 16.4761 85.7406 16.3873 85.5981 16.3278C85.4556 16.2682 85.3021 16.2393 85.1477 16.2429ZM83.9402 17.2979V17.3336V17.2694V17.2979Z" fill="#79242F"/>
<path fill-rule="evenodd" clip-rule="evenodd" d="M75.0377 22.9155C75.8379 23.051 76.6596 22.7017 77.4955 22.7587C77.9528 22.7944 78.1314 22.4878 78.0028 22.0458C77.94 21.7798 77.9207 21.5053 77.9457 21.2331C77.9457 20.5559 77.7456 20.3206 77.0454 20.1495C76.6542 20.0321 76.2418 20.0029 75.838 20.064H75.5164C75.3378 19.8929 75.002 20.0069 74.8734 19.7075L75.0949 19.5293C76.2095 18.6596 76.9311 17.6472 76.4167 16.1359C76.3457 15.816 76.2932 15.4923 76.2595 15.1664C76.1662 14.4954 75.9609 13.8448 75.6522 13.2415C75.2735 12.5286 74.8448 12.3647 74.1161 12.7211C73.8896 12.8396 73.6399 12.9074 73.3845 12.9198C73.129 12.9321 72.874 12.8886 72.6371 12.7924C72.4038 12.7097 72.1651 12.643 71.9226 12.5928C70.4937 12.272 69.0647 12.6926 67.6358 12.5928C67.2537 12.52 66.8582 12.5938 66.5283 12.7995C65.8924 13.0063 65.2423 13.2558 65.0994 13.9972C65.0497 14.2091 65.0525 14.4299 65.1076 14.6404C65.1626 14.851 65.2682 15.0451 65.4152 15.2058C65.5622 15.3665 65.7462 15.4891 65.9514 15.563C66.1565 15.6368 66.3766 15.6598 66.5926 15.6297C67.35 15.6297 68.1073 15.5228 68.8647 15.4586C69.0846 15.4594 69.3034 15.4906 69.5148 15.5513C69.8519 15.6753 70.2126 15.7217 70.5701 15.6871C70.9276 15.6526 71.2727 15.5379 71.5797 15.3517C71.9726 15.1664 72.3799 14.9881 72.7871 14.8313C73.5016 14.5747 73.7945 14.7457 74.2161 15.3802C74.3535 15.6591 74.4315 15.9634 74.445 16.2738C74.4586 16.5843 74.4074 16.8942 74.2947 17.1839C74.0588 17.8717 74.0095 18.6096 74.1518 19.3226C74.2375 19.5863 74.0661 19.5792 73.8874 19.5863C73.2476 19.5805 72.6086 19.5424 71.9726 19.4723C71.8664 19.4404 71.7725 19.3769 71.7035 19.2903C71.6345 19.2036 71.5938 19.0979 71.5868 18.9875C71.5868 18.738 71.5868 18.4813 71.5868 18.2318C71.5744 17.8578 71.4618 17.4939 71.2607 17.178C71.0597 16.8621 70.7776 16.6057 70.4437 16.4353C70.2005 16.3041 69.9195 16.2601 69.6477 16.3107C69.3759 16.3613 69.1298 16.5034 68.9504 16.7133C67.843 17.3336 67.65 17.6758 68.1073 18.5027C68.2914 18.7955 68.3949 19.1315 68.4074 19.477C68.42 19.8224 68.3411 20.165 68.1788 20.4703C67.7286 20.841 67.1285 20.5915 66.6426 20.8196C66.2527 20.8121 65.8694 20.9213 65.5423 21.1333C65.0906 21.2656 64.7007 21.5536 64.442 21.946C64.2786 22.1664 64.1869 22.4316 64.1792 22.7056C64.1716 22.9797 64.2483 23.2496 64.3992 23.4787C64.5172 23.7108 64.722 23.8873 64.9693 23.97C65.2166 24.0527 65.4866 24.035 65.721 23.9207C66.3006 23.7561 66.8935 23.6416 67.4929 23.5785C68.7289 23.4431 69.9792 23.5785 71.2153 23.3575C72.4513 23.1365 73.7017 22.6589 75.0377 22.9155ZM65.5638 21.8106C65.5638 21.8106 65.5638 21.8533 65.5638 21.8747C65.5604 21.8535 65.5604 21.8318 65.5638 21.8106Z" fill="#79242F"/>
<path fill-rule="evenodd" clip-rule="evenodd" d="M79.7745 26.6655C79.1516 26.0057 78.4779 25.3955 77.7597 24.8404C77.5215 24.5936 77.2088 24.4314 76.8695 24.3786C76.5301 24.3258 76.1828 24.3854 75.8806 24.5481C75.2162 24.8547 74.516 25.0828 73.8658 25.4108C73.1626 25.6771 72.5348 26.1102 72.0367 26.6726C71.8721 26.8182 71.7655 27.0181 71.7367 27.2358C71.6044 27.9136 71.5185 28.5995 71.4794 29.2889C71.4273 29.7414 71.4801 30.1998 71.6337 30.6287C71.7873 31.0577 72.0377 31.4456 72.3654 31.7627C72.6534 32.0948 73.0085 32.3624 73.4075 32.5479C73.8064 32.7334 74.2402 32.8327 74.6803 32.8391C75.4649 32.8711 76.2508 32.8425 77.0309 32.7536C77.5225 32.7024 77.9988 32.5537 78.4319 32.3162C78.8651 32.0787 79.2462 31.7572 79.553 31.3706C79.9293 31.0365 80.2073 30.6065 80.3571 30.1267C80.5069 29.6469 80.5228 29.1355 80.4033 28.6473C80.2246 27.9772 80.3175 27.2215 79.7745 26.6655ZM74.6089 27.7562C75.0279 27.5883 75.482 27.5264 75.9308 27.5762C76.3796 27.626 76.8091 27.7858 77.181 28.0413C77.5684 28.3425 77.8529 28.7559 77.9955 29.2248C78.0216 29.3219 78.0222 29.4241 77.9972 29.5215C77.9721 29.6189 77.9223 29.7082 77.8526 29.7808C77.6472 30.0979 77.3571 30.3514 77.0149 30.5127C76.6728 30.6739 76.2923 30.7365 75.9164 30.6933C75.5877 30.6434 75.259 30.6078 74.9375 30.5365C74.5814 30.4785 74.2605 30.2882 74.0392 30.0039C73.8179 29.7197 73.7126 29.3623 73.7443 29.0038C73.7298 28.7297 73.8068 28.4585 73.9632 28.2328C74.1197 28.007 74.3467 27.8394 74.6089 27.7562V27.7562Z" fill="#79242F"/>
<path fill-rule="evenodd" clip-rule="evenodd" d="M187.489 26.3303C186.846 25.817 186.06 25.9382 185.346 25.9596C183.635 26.0963 181.916 26.0795 180.209 25.9096C179.373 25.4962 179.444 24.7262 179.408 23.9706C179.402 22.727 179.187 21.4934 178.773 20.3205C178.727 20.161 178.647 20.0128 178.541 19.8856C178.434 19.7583 178.301 19.6548 178.152 19.5816C178.003 19.5084 177.84 19.4672 177.673 19.4606C177.507 19.4541 177.341 19.4823 177.186 19.5435C176.615 19.6575 176.393 19.9926 176.386 20.7982C176.386 22.1527 176.386 23.5072 176.479 24.8617C176.479 25.4106 176.329 25.6459 175.765 25.6887C175.341 25.7136 174.916 25.7136 174.493 25.6887C174.364 25.6939 174.235 25.6683 174.118 25.6141C174 25.5598 173.898 25.4785 173.818 25.3768C173.738 25.2751 173.684 25.1559 173.66 25.0291C173.636 24.9024 173.642 24.7717 173.678 24.6478C173.805 24.2186 173.842 23.7681 173.786 23.3242C173.731 22.8802 173.585 22.4524 173.357 22.0671C173.297 21.6159 173.211 21.1684 173.1 20.7269C172.964 20.3063 172.735 19.9071 172.214 19.8572C171.775 19.8812 171.364 20.0763 171.068 20.4004C170.773 20.7246 170.617 21.1517 170.635 21.5895C170.884 22.9816 170.901 24.4052 170.685 25.8027C170.659 25.8959 170.604 25.9786 170.529 26.0388C170.453 26.099 170.36 26.1337 170.263 26.1378C169.034 26.4515 167.77 26.594 166.519 26.7865C166.205 26.8364 165.962 26.9576 165.948 27.3212C165.619 28.198 165.948 29.4599 167.255 29.2531C167.509 29.2282 167.765 29.2282 168.02 29.2531C169.634 29.3387 171.192 28.8254 172.828 28.968C175.507 29.1961 178.194 28.8183 180.895 28.968C182.836 28.9816 184.776 28.8744 186.703 28.6472C186.812 28.645 186.918 28.6182 187.015 28.5688C187.111 28.5194 187.195 28.4487 187.261 28.362C187.597 27.8806 187.778 27.3089 187.782 26.7223C187.794 26.6769 187.795 26.6294 187.786 26.5834C187.777 26.5373 187.758 26.4939 187.73 26.4563C187.702 26.4186 187.666 26.3878 187.624 26.366C187.582 26.3442 187.536 26.332 187.489 26.3303V26.3303Z" fill="#79242F"/>
<path fill-rule="evenodd" clip-rule="evenodd" d="M167.891 16.2927C170.378 16.3497 172.893 16.0004 175.35 16.4353C177.051 16.8131 178.673 16.257 180.352 16.0218L182.117 16.1073H182.167L182.517 16.6563C182.688 17.1761 182.81 17.7107 182.881 18.2531C183.011 19.7629 182.958 21.2828 182.724 22.78C182.517 24.3342 183.224 25.0328 184.774 24.9187C184.894 24.9239 185.013 24.9014 185.123 24.8531C185.232 24.8049 185.329 24.732 185.406 24.6403C185.483 24.5486 185.537 24.4404 185.565 24.3243C185.593 24.2081 185.594 24.0871 185.567 23.9706C185.498 23.3911 185.479 22.8067 185.51 22.224C185.574 21.6782 185.54 21.1255 185.41 20.5914C185.212 19.9627 185.13 19.3033 185.167 18.6452C185.21 17.8426 185.21 17.0383 185.167 16.2356C185.01 14.874 184.01 13.5552 182.817 13.3841C181.676 13.2379 180.521 13.2379 179.38 13.3841C177.512 13.4874 175.64 13.4874 173.771 13.3841C172.547 13.2639 171.313 13.3047 170.099 13.5053C169.085 13.712 168.034 13.876 167.291 14.7172C167.097 14.871 166.954 15.0805 166.883 15.3175C166.811 15.5546 166.814 15.8078 166.891 16.0432C167.055 16.4281 167.541 16.2856 167.891 16.2927Z" fill="#79242F"/>
<path d="M158.717 26.1663C157.95 25.8736 157.152 25.6702 156.338 25.5603C155.667 25.6236 154.989 25.5827 154.33 25.4391C153.502 25.1471 152.636 24.9767 151.758 24.933C150.685 24.8278 149.607 24.7802 148.529 24.7904C148.558 24.7552 148.591 24.724 148.629 24.6977C148.779 24.6335 148.922 24.5551 149.079 24.5052C149.776 24.3107 150.409 23.9339 150.911 23.4138C151.414 22.8936 151.768 22.2491 151.937 21.5467C152.08 21.0619 152.358 20.4845 151.937 20.0425C151.144 19.1514 150.787 17.861 149.536 17.362C149.415 17.3192 149.05 17.2123 149.286 16.8986C150.151 16.5419 151.098 16.4285 152.023 16.5707C152.289 16.5974 152.558 16.5715 152.814 16.4944C153.07 16.4174 153.309 16.2907 153.516 16.1216C153.645 16.002 153.747 15.8567 153.816 15.695C153.885 15.5333 153.919 15.3589 153.915 15.1832C153.912 15.0076 153.871 14.8346 153.796 14.6757C153.721 14.5167 153.614 14.3754 153.48 14.2609V14.2609C152.802 14.1163 152.105 14.0778 151.415 14.1468C150.736 14.166 150.057 14.1206 149.386 14.0114C149.057 13.9401 148.8 13.826 148.8 13.3698C148.84 12.951 148.781 12.5287 148.629 12.1365C148.499 11.9735 148.331 11.8451 148.14 11.763C147.948 11.6808 147.74 11.6474 147.532 11.6658C147.324 11.6842 147.125 11.7538 146.951 11.8683C146.777 11.9828 146.634 12.1386 146.535 12.3218C146.321 12.7424 146.135 13.1844 145.935 13.6122C145.792 13.933 145.607 14.1896 145.221 14.1682C145.175 14.1954 145.124 14.2124 145.071 14.2181H144.956C145.041 14.1813 145.13 14.155 145.221 14.1397C143.887 14.1382 142.557 14.2841 141.255 14.5746C141.092 14.5955 140.941 14.6723 140.827 14.7918C140.714 14.9114 140.646 15.0663 140.634 15.2304C140.469 16.2 141.906 17.3691 142.97 17.1624C144.015 16.8239 145.108 16.6531 146.207 16.6562C146.335 16.8131 146.628 16.6562 146.714 16.9699C145.686 17.2983 144.775 17.9174 144.092 18.7521C143.629 19.1743 143.324 19.7403 143.225 20.3578C143.127 20.9754 143.241 21.6081 143.549 22.1527C143.604 22.4959 143.739 22.8213 143.944 23.1025C144.149 23.3837 144.418 23.6127 144.728 23.7709C145.385 24.1621 146.085 24.4778 146.814 24.712C146.943 24.7547 147.228 24.712 147.178 24.9971C146.621 25.092 146.057 25.1374 145.492 25.1326C144.586 25.0977 143.679 25.1743 142.792 25.3607C142.36 25.3784 141.94 25.5055 141.571 25.73C141.202 25.9545 140.897 26.269 140.684 26.6439C140.248 27.3568 140.527 27.977 141.355 28.0697C142.116 28.1303 142.88 28.0307 143.599 27.7774V27.7774C143.728 27.7726 143.857 27.7607 143.985 27.7418C146.549 27.3 149.15 27.1137 151.751 27.1857C153.164 27.1964 154.571 27.3832 155.938 27.7418C156.295 27.8345 156.702 27.9129 156.774 28.3477C156.944 29.0163 157.025 29.7041 157.017 30.3938C156.907 30.5845 156.85 30.8011 156.852 31.0211C156.552 32.7534 157.031 33.117 158.76 32.7534C158.963 32.7233 159.146 32.6159 159.272 32.4537C159.397 32.2915 159.454 32.0872 159.432 31.8837C159.432 31.2421 159.432 30.6076 159.432 29.966C159.569 28.7695 159.409 27.5578 158.967 26.4372C158.946 26.3774 158.913 26.3225 158.87 26.2759C158.827 26.2293 158.775 26.192 158.717 26.1663V26.1663ZM158.053 27.9414C158.053 27.9414 158.053 27.977 158.053 27.9913C158.048 27.984 158.045 27.9753 158.045 27.9663C158.045 27.9574 158.048 27.9487 158.053 27.9414V27.9414ZM156.259 26.0879C156.181 26.1306 156.117 26.0879 156.066 26.0237C156.134 26.0321 156.2 26.0539 156.259 26.0879ZM146.907 19.7502C147.314 19.6032 147.746 19.5331 148.179 19.5435C148.957 19.4722 149.515 20.0068 150.072 20.5415C150.229 20.6984 150.208 20.8267 150.072 21.012C149.704 21.485 149.185 21.8175 148.601 21.9538C148.017 22.0901 147.404 22.0218 146.864 21.7606C146.328 21.5111 146.328 21.0477 146.307 20.5486C146.282 20.3637 146.331 20.1764 146.443 20.0272C146.556 19.8779 146.722 19.7784 146.907 19.7502V19.7502Z" fill="#79242F"/>
<path d="M162.353 17.412C162.263 17.1562 162.102 16.9306 161.89 16.7607C161.678 16.5907 161.423 16.4829 161.153 16.4495C160.604 16.3221 160.028 16.3902 159.524 16.642C159.253 16.7846 159.052 16.749 158.938 16.4424C158.836 15.775 158.79 15.1 158.802 14.4249C158.837 14.0415 158.818 13.6552 158.745 13.2772C158.708 12.9925 158.564 12.7323 158.343 12.5486C158.122 12.3649 157.839 12.2712 157.552 12.2862C157.259 12.3098 156.982 12.4331 156.769 12.6355C156.556 12.8379 156.419 13.1072 156.38 13.3983C156.309 14.1166 156.372 14.8418 156.566 15.537C156.552 15.4115 156.552 15.2847 156.566 15.1592C156.552 15.3348 156.552 15.5112 156.566 15.6867C156.352 17.1027 156.321 18.5402 156.473 19.9641C156.359 20.7982 156.237 21.6252 156.145 22.4593C156.034 22.904 156.034 23.369 156.145 23.8138C156.211 24.0553 156.36 24.2657 156.567 24.4078C156.773 24.55 157.024 24.6148 157.273 24.5908C157.57 24.6047 157.862 24.5157 158.101 24.339C158.339 24.1622 158.509 23.9087 158.581 23.6213C158.824 22.5377 158.667 21.4113 158.824 20.3135C159.174 19.1799 159.174 19.1942 160.424 19.1728C160.918 19.2204 161.416 19.1964 161.903 19.1015C162.083 19.0674 162.25 18.9833 162.384 18.8589C162.518 18.7344 162.614 18.5747 162.661 18.3981C162.708 18.2215 162.704 18.0352 162.65 17.8607C162.595 17.6862 162.493 17.5307 162.353 17.412ZM158.174 23.0296C158.191 22.9664 158.212 22.9045 158.238 22.8442C158.295 22.8727 158.259 22.9726 158.159 23.0153L158.174 23.0296Z" fill="#79242F"/>
<path d="M67.4859 40.0393V44.0458H68.5148V44.2383H64.5352V44.0458H65.5569V35.9544H64.5352V35.762H68.4934V35.9544H67.4859V39.6971L70.3439 36.9382C70.4885 36.8167 70.6202 36.6805 70.7368 36.5319C70.7972 36.4567 70.8323 36.3644 70.8368 36.2681C70.8386 36.2174 70.8253 36.1674 70.7986 36.1242C70.7719 36.0811 70.733 36.0468 70.6868 36.0257C70.529 35.9688 70.3613 35.9446 70.1938 35.9544H70.0223V35.762H73.1803V35.9544H72.9588C72.5459 35.9573 72.1396 36.0575 71.7728 36.2467C71.3141 36.4916 70.895 36.804 70.5296 37.1735L69.1007 38.5494L72.7159 44.0458H73.5947V44.2383H69.5151V44.0458H70.401L67.7074 39.8326L67.4859 40.0393Z" fill="#79242F"/>
<path d="M75.2876 44.224H74.9518L72.7155 39.0982H72.001V38.9058H75.2376V39.0982H74.5231L75.952 42.4203L77.381 39.0982H77.9454L79.3744 42.4489L80.3246 40.3102C80.3712 40.2015 80.4094 40.0895 80.439 39.9751C80.46 39.8862 80.472 39.7955 80.4747 39.7042C80.4859 39.6182 80.4755 39.5308 80.4443 39.4499C80.4131 39.369 80.3622 39.2971 80.2961 39.2408C80.0919 39.1336 79.8615 39.0867 79.6316 39.1054V38.9129H81.8965V39.1054C81.62 39.1368 81.3552 39.2346 81.1248 39.3905C80.9074 39.6703 80.7317 39.9801 80.6033 40.3102L78.7599 44.2311H78.4241L76.9237 40.8805L75.2876 44.224Z" fill="#79242F"/>
<path d="M89.9988 44.0457H90.7133V44.2382H87.541V44.0457H88.2555V39.1125H87.541V38.92H88.5484C88.8061 38.9244 89.0639 38.9125 89.3201 38.8844C89.5206 38.8628 89.7189 38.8246 89.9131 38.7703V39.9537C90.1266 39.5813 90.4347 39.2715 90.8062 39.0554C91.155 38.8526 91.5528 38.749 91.9565 38.756C92.4316 38.7303 92.8996 38.88 93.2711 39.1766C93.4296 39.3245 93.5539 39.5051 93.6354 39.7057C93.7168 39.9064 93.7534 40.1224 93.7427 40.3386V44.0457H94.4572V44.2382H91.2992V44.0457H92.0137V40.0892C92.0337 39.842 91.9816 39.5944 91.8636 39.3763C91.802 39.306 91.7245 39.2512 91.6376 39.2165C91.5506 39.1818 91.4567 39.1682 91.3635 39.1766C91.1757 39.1741 90.9898 39.2146 90.8201 39.2949C90.6504 39.3752 90.5015 39.4933 90.3846 39.64C90.1183 39.9757 89.9814 40.3956 89.9988 40.8234V44.0457Z" fill="#79242F"/>
<path d="M111.275 41.4152C111.278 41.0409 111.361 40.6715 111.518 40.3316C111.694 39.9731 111.936 39.6513 112.233 39.3834C112.506 39.134 112.82 38.9338 113.162 38.7917C113.506 38.6616 113.872 38.5963 114.24 38.5992C114.989 38.5872 115.713 38.8688 116.255 39.3834C116.552 39.6508 116.795 39.9727 116.97 40.3316C117.124 40.667 117.204 41.0318 117.204 41.4009C117.204 41.7701 117.124 42.1349 116.97 42.4703C116.795 42.8292 116.552 43.1511 116.255 43.4184C115.986 43.6692 115.674 43.8696 115.334 44.0102C114.984 44.1409 114.614 44.2062 114.24 44.2026C113.855 44.2134 113.472 44.1463 113.113 44.0054C112.755 43.8645 112.429 43.6527 112.154 43.3828C111.879 43.1339 111.658 42.8303 111.507 42.4915C111.355 42.1527 111.277 41.7861 111.275 41.4152V41.4152ZM115.348 42.1281V40.7023C115.393 40.1809 115.307 39.6566 115.098 39.1767C115 39.0411 114.868 38.9339 114.714 38.8663C114.561 38.7986 114.393 38.7729 114.226 38.7917C114.06 38.7744 113.892 38.8007 113.739 38.8683C113.586 38.9358 113.453 39.0422 113.355 39.1767C113.149 39.6575 113.065 40.1816 113.112 40.7023V42.1281C113.065 42.6488 113.149 43.1729 113.355 43.6537C113.453 43.7882 113.586 43.8946 113.739 43.9621C113.892 44.0297 114.06 44.056 114.226 44.0387C114.393 44.0575 114.561 44.0318 114.714 43.9641C114.868 43.8965 115 43.7893 115.098 43.6537C115.308 43.1716 115.394 42.6447 115.348 42.121V42.1281Z" fill="#79242F"/>
<path d="M117.777 41.4152C117.778 41.0414 117.858 40.6719 118.013 40.3316C118.189 39.9731 118.431 39.6513 118.728 39.3834C119 39.134 119.315 38.9338 119.656 38.7917C120.001 38.6616 120.367 38.5963 120.735 38.5992C121.484 38.5872 122.207 38.8688 122.75 39.3834C123.047 39.6508 123.29 39.9727 123.465 40.3316C123.619 40.667 123.699 41.0318 123.699 41.401C123.699 41.7701 123.619 42.1349 123.465 42.4703C123.29 42.8292 123.047 43.1511 122.75 43.4184C122.481 43.6692 122.169 43.8696 121.828 44.0102C121.479 44.141 121.108 44.2062 120.735 44.2026C120.355 44.2133 119.977 44.1482 119.622 44.0111C119.268 43.874 118.944 43.6676 118.67 43.4042C118.389 43.1544 118.164 42.848 118.01 42.5052C117.856 42.1624 117.777 41.7909 117.777 41.4152ZM121.843 42.1281V40.7023C121.888 40.1809 121.802 39.6566 121.593 39.1767C121.495 39.0411 121.362 38.9339 121.209 38.8663C121.056 38.7986 120.887 38.7729 120.721 38.7917C120.555 38.7744 120.387 38.8007 120.234 38.8683C120.081 38.9358 119.948 39.0422 119.849 39.1767C119.644 39.6575 119.56 40.1816 119.606 40.7023V42.1281C119.56 42.6488 119.644 43.1729 119.849 43.6537C119.948 43.7883 120.081 43.8946 120.234 43.9621C120.387 44.0297 120.555 44.056 120.721 44.0387C120.887 44.0575 121.056 44.0318 121.209 43.9641C121.362 43.8965 121.495 43.7893 121.593 43.6537C121.803 43.1716 121.889 42.6447 121.843 42.121V42.1281Z" fill="#79242F"/>
<path d="M126.587 44.0459H127.301V44.2384H124.122V44.0459H124.837V39.1126H124.122V38.9202H125.129C125.39 38.9248 125.65 38.9129 125.908 38.8845C126.106 38.8629 126.302 38.8247 126.494 38.7705V39.9539C126.704 39.5918 127.001 39.2878 127.359 39.0699C127.708 38.8687 128.106 38.7652 128.509 38.7705C128.984 38.7434 129.453 38.8932 129.824 39.1911C129.983 39.3386 130.108 39.5189 130.191 39.7195C130.274 39.9202 130.312 40.1364 130.302 40.3531V44.0459H131.017V44.2384H127.859V44.0459H128.573V40.0893C128.591 39.8432 128.542 39.5967 128.43 39.3764C128.369 39.3061 128.291 39.2514 128.204 39.2167C128.117 39.182 128.023 39.1683 127.93 39.1768C127.742 39.1737 127.556 39.2139 127.387 39.2943C127.217 39.3747 127.068 39.4931 126.951 39.6402C126.685 39.9759 126.548 40.3958 126.566 40.8236L126.587 44.0459Z" fill="#79242F"/>
<path d="M87.3265 43.0405C87.2924 43.2003 87.2294 43.3524 87.1407 43.4897C87.1117 43.5331 87.0724 43.5688 87.0263 43.5937C86.9802 43.6185 86.9288 43.6318 86.8764 43.6323C86.8141 43.6365 86.7522 43.6208 86.6995 43.5875C86.6468 43.5542 86.6061 43.5049 86.5835 43.4469C86.5101 43.2168 86.4811 42.9749 86.4977 42.734V40.5312C86.5192 40.2049 86.4654 39.8781 86.3405 39.5759C86.2162 39.3543 86.03 39.1735 85.8047 39.0555C85.5465 38.8985 85.264 38.7852 84.9687 38.7204C84.627 38.6399 84.2767 38.6016 83.9256 38.6063C83.3666 38.5795 82.8108 38.7052 82.318 38.9699C82.144 39.0566 81.9965 39.1883 81.8909 39.3514C81.7853 39.5144 81.7256 39.7027 81.7179 39.8967V39.8967C81.7139 39.9298 81.7139 39.9633 81.7179 39.9965C81.7536 40.189 81.859 40.3618 82.014 40.4819C82.169 40.6019 82.3629 40.661 82.5587 40.6478C82.7545 40.6346 82.9386 40.5501 83.076 40.4103C83.2134 40.2705 83.2946 40.0852 83.304 39.8896C83.302 39.7059 83.2361 39.5286 83.1175 39.3881C82.9988 39.2476 82.8349 39.1527 82.6538 39.1196C82.6858 39.069 82.7275 39.0253 82.7766 38.9911C82.8256 38.9568 82.8811 38.9326 82.9396 38.92C83.167 38.8313 83.4102 38.7901 83.6541 38.7988C83.9957 38.7563 84.3408 38.8455 84.6186 39.0483C84.8287 39.3946 84.9144 39.8019 84.8616 40.2032V40.9518C83.9108 40.9014 82.9598 41.047 82.068 41.3795C81.8028 41.4816 81.5741 41.6602 81.4112 41.8926C81.2483 42.125 81.1586 42.4006 81.1534 42.6841C81.1443 42.9067 81.1927 43.128 81.294 43.3265C81.3954 43.525 81.5463 43.6941 81.7322 43.8176C82.235 44.1127 82.8146 44.2517 83.3969 44.2168C83.7326 44.2467 84.0702 44.1877 84.3757 44.0457C84.6293 43.9105 84.8304 43.6947 84.9473 43.4327C85.0235 43.6839 85.1852 43.9008 85.4046 44.0457C85.653 44.191 85.9387 44.2604 86.2262 44.2453C86.5528 44.2536 86.87 44.1362 87.1122 43.9174C87.2354 43.8126 87.3362 43.6841 87.4086 43.5395C87.481 43.395 87.5236 43.2375 87.5337 43.0762L87.3265 43.0405ZM84.8616 42.456C84.8909 42.836 84.7983 43.2155 84.5972 43.5396C84.5074 43.6612 84.3883 43.7583 84.251 43.8219C84.1136 43.8854 83.9624 43.9134 83.8113 43.9031C83.6731 43.9242 83.5318 43.9044 83.4048 43.8461C83.2778 43.7878 83.1707 43.6936 83.0968 43.5752C82.9341 43.2307 82.8627 42.8502 82.8896 42.4702C82.8638 42.2799 82.8826 42.0861 82.9446 41.9043C83.0066 41.7224 83.1101 41.5574 83.2469 41.4223C83.7022 41.2042 84.209 41.1154 84.7115 41.1656H84.8258L84.8616 42.456Z" fill="#79242F"/>
<path d="M109.925 35.7619V35.9543H110.597C110.797 35.9361 110.998 35.9836 111.169 36.0898C111.23 36.1436 111.277 36.211 111.307 36.2866C111.337 36.3622 111.348 36.4438 111.34 36.5247C111.336 36.636 111.316 36.7463 111.283 36.8526C111.244 37.0127 111.194 37.1699 111.133 37.3231L109.447 41.85L107.239 35.9543H107.025L104.881 41.7787L102.695 35.9543H103.409V35.7619H99.8369V35.9543H100.666L103.859 44.2239H104.124L106.267 38.7418L108.461 44.2239H108.732L111.583 36.9168C111.661 36.6521 111.798 36.4084 111.983 36.2039C112.158 36.0483 112.378 35.9532 112.612 35.933H113.469V35.7405L109.925 35.7619Z" fill="#79242F"/>
<path d="M99.5223 39.4405C99.5493 39.4816 99.5804 39.5199 99.6152 39.5546C99.6644 39.5928 99.72 39.6218 99.7796 39.6401H99.8153C99.882 39.6629 99.952 39.6749 100.022 39.6758C100.182 39.6871 100.339 39.6349 100.459 39.5306C100.58 39.4263 100.654 39.2785 100.666 39.1197C100.677 38.9609 100.625 38.8041 100.52 38.6837C100.416 38.5634 100.267 38.4895 100.108 38.4781C100.012 38.4549 99.914 38.4429 99.8153 38.4425C99.6288 38.4401 99.4446 38.4842 99.2794 38.5708C99.0927 38.6741 98.9316 38.8178 98.8079 38.9914C98.5865 38.8435 98.3462 38.726 98.0934 38.6421C97.8307 38.5678 97.5591 38.5295 97.286 38.528C96.7397 38.5091 96.2055 38.6919 95.7856 39.0413C95.5979 39.195 95.4471 39.3888 95.3445 39.6085C95.2418 39.8281 95.1899 40.0679 95.1926 40.3103C95.1897 40.6027 95.277 40.8889 95.4427 41.1301C95.654 41.4029 95.9221 41.6267 96.2286 41.7859C95.8689 41.8348 95.5326 41.9914 95.2641 42.2351C95.1575 42.3495 95.0754 42.4844 95.0226 42.6314C94.9698 42.7784 94.9474 42.9346 94.9568 43.0906C94.9388 43.2658 94.9758 43.4424 95.0629 43.5957C95.1499 43.749 95.2827 43.8714 95.4427 43.946C95.2467 44.0981 95.0797 44.284 94.9497 44.495C94.8163 44.7095 94.7423 44.9555 94.7354 45.2079C94.7364 45.4745 94.8105 45.7359 94.9497 45.9635C95.1109 46.2237 95.3251 46.4472 95.5784 46.6194C95.8265 46.8032 96.1045 46.9431 96.4001 47.0329C96.7185 47.1231 97.0479 47.1686 97.3789 47.1683C97.7055 47.1729 98.0308 47.1272 98.3435 47.0329C98.6429 46.9417 98.9253 46.802 99.1794 46.6194C99.3294 46.515 99.4661 46.393 99.5866 46.2558V46.2558C99.7775 46.0665 99.9324 45.8443 100.044 45.5999C100.137 45.3591 100.18 45.1022 100.173 44.8443C100.183 44.5911 100.141 44.3385 100.05 44.1019C99.9596 43.8653 99.8212 43.6497 99.6438 43.4684C99.3045 43.1092 98.8377 42.8968 98.3435 42.8767H96C95.8512 42.8866 95.7026 42.8545 95.5713 42.784C95.5271 42.7561 95.4913 42.717 95.4674 42.6706C95.4435 42.6242 95.4325 42.5723 95.4355 42.5202C95.4406 42.44 95.4672 42.3627 95.5124 42.2962C95.5577 42.2298 95.6199 42.1767 95.6927 42.1424C95.9343 42.0098 96.1983 41.9228 96.4715 41.8858C96.5948 41.9275 96.7215 41.9585 96.8502 41.9784C96.9819 42.0048 97.116 42.0167 97.2503 42.0141C97.8308 42.0438 98.4045 41.8781 98.8793 41.5436C99.0766 41.3999 99.2362 41.2108 99.3445 40.9923C99.4527 40.7739 99.5064 40.5325 99.5009 40.2889C99.5021 40.0808 99.4608 39.8746 99.3795 39.6829C99.289 39.4752 99.1633 39.2847 99.0079 39.1197C99.061 39.0317 99.1326 38.9562 99.2177 38.8984C99.3028 38.8406 99.3994 38.8018 99.5009 38.7846C99.4549 38.8676 99.4303 38.9607 99.4295 39.0556C99.418 39.1905 99.4505 39.3256 99.5223 39.4405ZM96.2358 44.6732C96.1968 44.3371 96.2917 43.9991 96.5001 43.7322C96.784 43.578 97.1021 43.4973 97.4254 43.4973C97.7486 43.4973 98.0667 43.578 98.3506 43.7322C98.5564 44.0002 98.6488 44.338 98.6078 44.6732V45.5429C98.6492 45.8759 98.5567 46.2117 98.3506 46.4768C98.0667 46.6309 97.7486 46.7117 97.4254 46.7117C97.1021 46.7117 96.784 46.6309 96.5001 46.4768C96.2915 46.2128 96.1964 45.8769 96.2358 45.5429V44.6732ZM98.0934 40.7879C98.1213 41.0805 98.0642 41.375 97.9291 41.6362C97.8517 41.7168 97.7564 41.7782 97.6509 41.8153C97.5455 41.8525 97.4327 41.8644 97.3218 41.8501C97.2097 41.8656 97.0955 41.8542 96.9887 41.817C96.8819 41.7798 96.7854 41.7179 96.7073 41.6362C96.5721 41.375 96.5151 41.0805 96.543 40.7879V39.7685C96.5151 39.4758 96.5721 39.1813 96.7073 38.9201C96.8796 38.7794 97.0955 38.7025 97.3182 38.7025C97.5409 38.7025 97.7567 38.7794 97.9291 38.9201C98.0648 39.1837 98.1219 39.4806 98.0934 39.7756V40.7879Z" fill="#79242F"/>
<path d="M143.627 44.0457H144.342V44.2382H141.177V44.0457H141.891V39.1125H141.177V38.92H142.184C142.442 38.9246 142.7 38.9127 142.956 38.8844C143.156 38.8628 143.355 38.8246 143.549 38.7703V39.9537C143.749 39.5875 144.039 39.2782 144.392 39.0554C144.741 38.8536 145.139 38.7501 145.542 38.756C146.017 38.7303 146.485 38.88 146.857 39.1766C147.015 39.3245 147.14 39.5051 147.221 39.7057C147.303 39.9064 147.339 40.1224 147.328 40.3386V44.0457H148.043V44.2382H144.878V44.0457H145.592V40.0892C145.612 39.842 145.56 39.5944 145.442 39.3763C145.381 39.3055 145.303 39.2504 145.216 39.2157C145.129 39.181 145.035 39.1676 144.942 39.1766C144.754 39.1741 144.568 39.2146 144.399 39.2949C144.229 39.3752 144.08 39.4933 143.963 39.64C143.697 39.9757 143.56 40.3956 143.577 40.8234L143.627 44.0457Z" fill="#79242F"/>
<path d="M149.208 39.0982H148.45V38.9057H149.465C149.732 38.9092 149.999 38.8973 150.265 38.8701C150.484 38.8496 150.702 38.8115 150.915 38.756V44.0457H151.673V44.2382H148.45V44.0457H149.208V39.0982ZM149.122 37.4158C149.119 37.2925 149.141 37.17 149.188 37.0558C149.235 36.9417 149.305 36.8385 149.393 36.7528C149.483 36.6654 149.589 36.597 149.706 36.5517C149.822 36.5064 149.947 36.485 150.072 36.489C150.324 36.485 150.568 36.5797 150.751 36.7528C150.841 36.8376 150.913 36.9405 150.961 37.0547C151.009 37.1689 151.032 37.2919 151.029 37.4158C151.024 37.6586 150.925 37.8902 150.754 38.0626C150.582 38.2351 150.351 38.3353 150.108 38.3425C149.982 38.3472 149.857 38.3256 149.74 38.2789C149.623 38.2322 149.517 38.1616 149.429 38.0716C149.336 37.9885 149.261 37.8875 149.209 37.7749C149.156 37.6622 149.126 37.5401 149.122 37.4158V37.4158Z" fill="#79242F"/>
<path d="M154.866 44.224H154.452L152.237 38.9486H151.43V38.7561H154.773V38.9486H154.059L155.445 42.2778L156.402 39.9894C156.438 39.8896 156.474 39.797 156.495 39.7114C156.505 39.6309 156.505 39.5495 156.495 39.469C156.503 39.3904 156.488 39.3113 156.453 39.2407C156.417 39.1701 156.363 39.1109 156.295 39.0698C156.083 38.9715 155.849 38.9297 155.617 38.9486V38.7561H157.81V38.9486H157.76C157.645 38.9447 157.531 38.9641 157.424 39.0058C157.317 39.0475 157.22 39.1105 157.138 39.191C156.882 39.4988 156.682 39.8486 156.545 40.2247L154.866 44.224Z" fill="#79242F"/>
<path d="M162.461 41.1514H159.11V42.0497C159.075 42.5461 159.187 43.0418 159.431 43.4755C159.55 43.6302 159.706 43.7525 159.884 43.8311C160.063 43.9096 160.259 43.9417 160.453 43.9246C160.674 43.9271 160.893 43.8862 161.097 43.8042C161.302 43.7223 161.489 43.6009 161.646 43.4469C162.002 43.0787 162.249 42.62 162.361 42.1209H162.554C162.46 42.7124 162.164 43.2536 161.718 43.6537C161.28 44.0249 160.72 44.2205 160.146 44.2026C159.765 44.2161 159.386 44.1523 159.031 44.0151C158.676 43.8778 158.353 43.67 158.081 43.4042C157.565 42.8656 157.277 42.1494 157.277 41.4045C157.277 40.6596 157.565 39.9433 158.081 39.4048C158.325 39.1415 158.621 38.9319 158.951 38.7895C159.281 38.6471 159.636 38.575 159.996 38.5778C160.317 38.5715 160.635 38.6316 160.932 38.7543C161.228 38.877 161.496 39.0597 161.718 39.2907C162.198 39.7914 162.464 40.4585 162.461 41.1514ZM160.675 40.9589V40.0749C160.705 39.7238 160.646 39.3707 160.503 39.0484C160.429 38.9579 160.333 38.8872 160.224 38.8425C160.116 38.7977 159.998 38.7803 159.881 38.7917C159.765 38.7786 159.647 38.7983 159.541 38.8487C159.434 38.8991 159.345 38.9781 159.281 39.0769C159.138 39.4292 159.079 39.81 159.11 40.189V40.9589H160.675Z" fill="#79242F"/>
<path d="M163.361 39.0982H162.646V38.9057H163.654C163.916 38.9096 164.179 38.8977 164.44 38.8701C164.659 38.8484 164.876 38.8102 165.09 38.756V39.8467C165.221 39.5295 165.433 39.2519 165.704 39.0412C165.943 38.8548 166.237 38.7543 166.54 38.756C166.826 38.7386 167.107 38.8304 167.326 39.0127C167.422 39.1043 167.496 39.2155 167.544 39.3386C167.592 39.4616 167.613 39.5937 167.605 39.7256C167.61 39.8427 167.592 39.9597 167.551 40.0698C167.511 40.1799 167.449 40.281 167.369 40.3672C167.29 40.4487 167.194 40.513 167.088 40.5559C166.982 40.5989 166.869 40.6196 166.755 40.6167C166.64 40.6186 166.527 40.5976 166.421 40.555C166.314 40.5125 166.218 40.4491 166.137 40.3687C166.055 40.2883 165.991 40.1925 165.948 40.087C165.904 39.9814 165.882 39.8682 165.883 39.7541C165.882 39.6475 165.899 39.5415 165.933 39.4404C165.976 39.328 166.031 39.2205 166.097 39.1196C165.947 39.1603 165.807 39.2305 165.684 39.3259C165.561 39.4214 165.459 39.5403 165.383 39.6756C165.195 40.0052 165.101 40.38 165.111 40.7593V44.0457H166.105V44.2382H162.654V44.0457H163.368L163.361 39.0982Z" fill="#79242F"/>
<path d="M168.134 44.2098V42.2279H168.327C168.54 42.7437 168.859 43.2098 169.262 43.5966C169.58 43.8808 169.993 44.036 170.42 44.0315C170.717 44.046 171.009 43.9466 171.234 43.7535C171.334 43.6634 171.414 43.5533 171.468 43.4305C171.522 43.3076 171.55 43.1748 171.549 43.0406C171.549 42.6271 171.127 42.3277 170.291 42.2421L169.877 42.178C169.382 42.1295 168.911 41.9416 168.519 41.6362C168.377 41.4938 168.267 41.323 168.195 41.135C168.124 40.9471 168.093 40.7461 168.105 40.5454C168.101 40.2944 168.148 40.0452 168.242 39.8125C168.337 39.5798 168.477 39.3685 168.655 39.1909C168.827 39.0107 169.034 38.8682 169.264 38.7724C169.495 38.6767 169.742 38.6298 169.991 38.6349C170.28 38.6405 170.567 38.6886 170.841 38.7775C171.005 38.8365 171.172 38.8865 171.342 38.9272C171.416 38.9287 171.489 38.9062 171.549 38.863C171.613 38.8127 171.662 38.7462 171.692 38.6705H171.899V40.3744H171.692C171.561 39.9328 171.314 39.5342 170.977 39.2195C170.678 38.9635 170.293 38.8287 169.898 38.8416C169.606 38.8316 169.32 38.9251 169.091 39.1054C168.99 39.1836 168.908 39.2842 168.852 39.3992C168.796 39.5143 168.768 39.6406 168.769 39.7684C168.771 39.8872 168.805 40.0033 168.87 40.1035C168.936 40.2115 169.029 40.3001 169.141 40.3601C169.38 40.4659 169.637 40.5217 169.898 40.5241C170.201 40.5411 170.502 40.5816 170.799 40.6453C171.226 40.7093 171.623 40.9035 171.935 41.2013C172.178 41.5055 172.301 41.889 172.278 42.2778C172.287 42.5408 172.242 42.8029 172.146 43.0481C172.051 43.2933 171.906 43.5163 171.72 43.7036C171.53 43.8833 171.305 44.0236 171.06 44.1166C170.815 44.2096 170.554 44.2533 170.291 44.2454C170.031 44.2372 169.773 44.1891 169.527 44.1028C169.322 44.0303 169.108 43.9848 168.891 43.9674C168.771 43.9625 168.651 43.9844 168.541 44.0315C168.496 44.0498 168.455 44.0769 168.421 44.1112C168.386 44.1454 168.359 44.1862 168.341 44.2311L168.134 44.2098Z" fill="#79242F"/>
<path d="M173.685 39.0983H172.971V38.9058H173.985C174.25 38.9093 174.515 38.8974 174.778 38.8702C175 38.8491 175.22 38.8109 175.436 38.7561V44.0458H176.186V44.2383H172.971V44.0458H173.685V39.0983ZM173.607 37.4159C173.602 37.2924 173.623 37.1693 173.67 37.0549C173.717 36.9405 173.788 36.8375 173.878 36.7529C173.967 36.6652 174.074 36.5966 174.19 36.5512C174.307 36.5059 174.432 36.4847 174.557 36.4891C174.809 36.4859 175.052 36.5804 175.236 36.7529C175.326 36.8377 175.398 36.9406 175.446 37.0548C175.494 37.169 175.517 37.292 175.514 37.4159C175.516 37.5406 175.492 37.6645 175.445 37.7797C175.397 37.895 175.326 37.9992 175.236 38.086C175.147 38.1759 175.042 38.2469 174.925 38.2947C174.808 38.3425 174.683 38.3661 174.557 38.364C174.431 38.369 174.305 38.3479 174.187 38.3021C174.07 38.2562 173.963 38.1865 173.874 38.0975C173.784 38.0084 173.715 37.9019 173.669 37.7846C173.623 37.6673 173.602 37.5417 173.607 37.4159V37.4159Z" fill="#79242F"/>
<path d="M176.464 38.7561C176.737 38.7597 177.006 38.7028 177.253 38.5893C177.5 38.4758 177.719 38.3088 177.893 38.1003C178.318 37.5721 178.583 36.9341 178.658 36.261H178.844V38.7561H180.023V38.9486H178.844V42.9408C178.829 43.1548 178.864 43.3692 178.944 43.5682C178.973 43.6272 179.019 43.6763 179.076 43.7092C179.134 43.7422 179.199 43.7576 179.265 43.7535C179.407 43.752 179.545 43.7045 179.658 43.6181C179.79 43.5183 179.9 43.392 179.98 43.2474L180.144 43.3472C179.999 43.6204 179.775 43.8439 179.501 43.9888C179.213 44.1481 178.887 44.2292 178.558 44.224C178.356 44.2436 178.153 44.218 177.962 44.1489C177.772 44.0798 177.6 43.9691 177.458 43.8248C177.2 43.3961 177.085 42.897 177.129 42.399V38.9486H176.45L176.464 38.7561Z" fill="#79242F"/>
<path d="M141.655 35.762H137.961V35.9402H139.204C139.504 35.9199 139.803 35.9975 140.055 36.1612C140.205 36.2966 140.276 36.6317 140.276 37.1664V40.6097C140.298 41.1668 140.253 41.7245 140.14 42.2707C140.061 42.5677 139.911 42.8412 139.703 43.0682C139.496 43.2953 139.236 43.4692 138.947 43.5753C138.65 43.6845 138.335 43.74 138.018 43.7393C137.673 43.7436 137.331 43.6705 137.018 43.5254C136.732 43.3839 136.487 43.1731 136.304 42.9123C136.169 42.7115 136.074 42.4863 136.025 42.2493C135.958 41.8298 135.932 41.4049 135.946 40.9804V35.9473H136.968V35.762H132.96V35.9473H133.982V41.0018C133.955 41.5544 134.047 42.1063 134.253 42.62C134.459 43.0293 134.776 43.3726 135.168 43.611C135.477 43.8197 135.82 43.974 136.182 44.0672C136.573 44.1759 136.977 44.2287 137.383 44.224C137.87 44.2296 138.354 44.1475 138.812 43.9817C139.219 43.837 139.583 43.5917 139.869 43.2688C140.106 43.01 140.279 42.7001 140.376 42.3634C140.503 41.7806 140.556 41.1842 140.533 40.5883V37.145C140.514 36.8074 140.615 36.4739 140.819 36.204C141.07 36.0302 141.372 35.9471 141.677 35.9687H142.07V35.7905L141.655 35.762Z" fill="#79242F"/>
<path d="M184.538 38.7419V38.9344H184.638C184.834 38.9198 185.03 38.9619 185.202 39.0556C185.264 39.0919 185.315 39.1442 185.349 39.2071C185.383 39.2699 185.399 39.3408 185.395 39.4121C185.388 39.4998 185.368 39.586 185.338 39.6687C185.294 39.8073 185.242 39.943 185.181 40.0751L184.252 42.1425L182.866 38.9344H183.688V38.7419H180.294V38.9344H181.008L183.352 44.3524C183.352 44.3524 182.83 45.9279 181.923 46.4911C181.95 46.4104 181.967 46.3266 181.973 46.2416C181.976 46.1269 181.955 46.0128 181.912 45.9064C181.87 45.7999 181.805 45.7033 181.724 45.6225C181.642 45.5417 181.545 45.4784 181.438 45.4365C181.331 45.3947 181.216 45.3751 181.101 45.379C180.987 45.3757 180.873 45.3962 180.768 45.4391C180.662 45.4821 180.566 45.5466 180.487 45.6285C180.405 45.7124 180.342 45.8118 180.3 45.9209C180.258 46.03 180.239 46.1463 180.244 46.263C180.236 46.3955 180.257 46.5282 180.307 46.6515C180.356 46.7747 180.432 46.8855 180.53 46.9759C180.746 47.1584 181.025 47.2503 181.308 47.2325C181.609 47.2325 182.437 47.1185 183.609 44.381C184.781 41.6434 185.431 40.1036 185.431 40.1036C185.559 39.7622 185.751 39.4478 185.995 39.1768C186.172 39.0258 186.399 38.9468 186.631 38.9558V38.7633L184.538 38.7419Z" fill="#79242F"/>
<path d="M19.8222 16.5067L19.1506 14.3181L18.9149 14.4963L19.2578 15.5657C19.3355 15.8355 19.431 16.0998 19.5436 16.357V16.357C19.3435 16.193 19.1221 16.0291 18.872 15.8508L17.9646 15.195L17.7217 15.3803L19.5865 16.6849L19.8222 16.5067Z" fill="#79242F"/>
<path d="M21.6805 15.3373L21.5591 15.1377L20.7517 15.6082L20.3588 14.9381L21.0875 14.5175L20.9661 14.3179L20.2444 14.7385L19.9015 14.1468L20.666 13.6977L20.5517 13.498L19.5371 14.0826L20.6303 15.9504L21.6805 15.3373Z" fill="#79242F"/>
<path d="M22.2161 15.0738L21.8375 14.2183L22.0804 14.1185C22.3162 14.0258 22.4734 14.0757 22.652 14.3252C22.7489 14.4745 22.8615 14.6131 22.9878 14.7387L23.2521 14.6246C23.1051 14.4793 22.9734 14.3192 22.8592 14.147C22.8126 14.065 22.7451 13.9967 22.6635 13.9492C22.5819 13.9016 22.4892 13.8764 22.3948 13.8761V13.8761C22.4704 13.8103 22.5276 13.726 22.5608 13.6315C22.594 13.537 22.6019 13.4355 22.5839 13.337C22.5659 13.2385 22.5225 13.1464 22.4581 13.0697C22.3936 12.993 22.3102 12.9343 22.2161 12.8994C21.9978 12.8479 21.768 12.8811 21.5731 12.9921C21.4076 13.0614 21.2496 13.1474 21.1016 13.2487L21.9589 15.1949L22.2161 15.0738ZM21.4374 13.3058C21.5128 13.2533 21.5944 13.2102 21.6803 13.1774C21.9518 13.0562 22.1876 13.0848 22.2947 13.3414C22.3183 13.3968 22.3296 13.4565 22.328 13.5166C22.3264 13.5767 22.3119 13.6358 22.2855 13.6899C22.2591 13.7439 22.2214 13.7917 22.1749 13.83C22.1285 13.8682 22.0743 13.8961 22.0161 13.9117L21.7517 14.0258L21.4374 13.3058Z" fill="#79242F"/>
<path d="M23.1592 12.3915L22.8887 12.4834L23.586 14.5284L23.8565 14.4365L23.1592 12.3915Z" fill="#79242F"/>
<path d="M24.2165 12.3362L24.688 14.1968L24.9595 14.1256L24.488 12.2649L25.131 12.1081L25.0739 11.8728L23.5234 12.2649L23.5806 12.493L24.2165 12.3362Z" fill="#79242F"/>
<path d="M25.8311 13.2557L26.5956 13.1488L26.9171 13.7833L27.21 13.7476L26.1812 11.7087L25.8454 11.7586L25.4238 13.9971L25.7025 13.9544L25.8311 13.2557ZM25.9811 12.3789C25.9811 12.2434 25.9811 12.108 26.0383 11.9796C26.0879 12.1065 26.1452 12.2303 26.2097 12.3503L26.5098 12.9349L25.8597 13.0276L25.9811 12.3789Z" fill="#79242F"/>
<path d="M27.9322 13.5339C27.7588 13.5402 27.5874 13.4956 27.4392 13.4055L27.3678 13.6408C27.5402 13.7283 27.7316 13.7723 27.925 13.7691C28.4323 13.7691 28.6395 13.4626 28.6395 13.1275C28.6395 12.7925 28.4466 12.6356 28.0822 12.5073C27.7179 12.379 27.6464 12.3006 27.6393 12.1009C27.6321 11.9013 27.7464 11.773 28.0394 11.7659C28.1828 11.7644 28.3246 11.7962 28.4538 11.8586L28.5252 11.6304C28.3759 11.56 28.2113 11.5282 28.0465 11.5377C27.9592 11.5246 27.8701 11.5301 27.7851 11.5539C27.7002 11.5778 27.6212 11.6194 27.5536 11.6761C27.4861 11.7327 27.4313 11.8031 27.3931 11.8825C27.3549 11.9619 27.3341 12.0485 27.332 12.1366C27.332 12.436 27.5607 12.6214 27.9108 12.7425C28.2609 12.8637 28.3252 12.9564 28.3323 13.156C28.3394 13.3556 28.2466 13.5267 27.9322 13.5339Z" fill="#79242F"/>
<path d="M30.3824 13.9046C30.557 13.9384 30.7365 13.9384 30.9111 13.9046V13.6978C30.7671 13.7256 30.6192 13.7256 30.4753 13.6978C30.4031 13.6934 30.3329 13.6734 30.2693 13.6392C30.2056 13.605 30.1502 13.5575 30.1067 13.5C30.0633 13.4424 30.0329 13.3761 30.0175 13.3056C30.0022 13.2352 30.0024 13.1623 30.018 13.0919L31.0968 13.2345C31.1033 13.1919 31.1033 13.1487 31.0968 13.1061C31.1187 13.0179 31.122 12.9261 31.1065 12.8365C31.0909 12.7469 31.0569 12.6615 31.0065 12.5858C30.9561 12.51 30.8905 12.4455 30.8138 12.3964C30.7371 12.3474 30.651 12.3147 30.561 12.3006C30.4586 12.2898 30.3552 12.2999 30.2569 12.3304C30.1586 12.3608 30.0676 12.4109 29.9893 12.4776C29.9111 12.5443 29.8473 12.6263 29.8019 12.7184C29.7565 12.8105 29.7303 12.9109 29.725 13.0135C29.6984 13.1161 29.695 13.2233 29.715 13.3274C29.7351 13.4314 29.7782 13.5297 29.8412 13.6151C29.9042 13.7004 29.9854 13.7707 30.079 13.8208C30.1726 13.8709 30.2763 13.8995 30.3824 13.9046ZM30.5181 12.4788C30.574 12.4867 30.6274 12.5066 30.6749 12.537C30.7224 12.5674 30.7628 12.6076 30.7933 12.6549C30.8238 12.7023 30.8437 12.7556 30.8517 12.8113C30.8597 12.8671 30.8556 12.9238 30.8396 12.9778L30.0251 12.8709C30.046 12.7583 30.1079 12.6573 30.1989 12.5875C30.29 12.5178 30.4037 12.4841 30.5181 12.4931V12.4788Z" fill="#79242F"/>
<path d="M31.5044 13.5623C31.4521 13.6977 31.4521 13.8476 31.5044 13.9829C31.5343 14.031 31.5738 14.0723 31.6206 14.1042C31.6673 14.1361 31.7202 14.1579 31.7759 14.1683C31.8588 14.1813 31.9431 14.1813 32.026 14.1683L32.0617 13.9615H31.8974C31.7473 13.9615 31.7188 13.8118 31.7616 13.6193L31.9474 12.8066L32.3404 12.8993L32.3904 12.6854L31.9974 12.5999L32.0831 12.2363H31.7902L31.7259 12.5144L31.4901 12.4573L31.4473 12.6712L31.683 12.7211L31.5044 13.5623Z" fill="#79242F"/>
<path d="M34.2123 14.6815L33.3478 14.3536L34.0337 12.5571L33.7694 12.4573L33.0049 14.4748L34.1338 14.9025L34.2123 14.6815Z" fill="#79242F"/>
<path d="M34.962 15.3517C35.3764 15.5656 35.8123 15.4872 36.1123 14.8955L36.6982 13.7762L36.4481 13.6479L35.8551 14.7885C35.6408 15.2092 35.355 15.3018 35.0764 15.1521C34.7977 15.0024 34.7191 14.7386 34.9406 14.3109L35.5265 13.1774L35.2764 13.0491L34.6905 14.1755C34.3619 14.7743 34.5691 15.1521 34.962 15.3517Z" fill="#79242F"/>
<path d="M36.213 16.0217L36.6988 15.7864C36.8989 15.6938 37.0203 15.6367 37.1418 15.5654C37.1418 15.708 37.1418 15.8435 37.0989 16.0573L37.056 16.6063L37.3204 16.7916L37.4061 15.4941L38.5493 15.0094L38.2849 14.824L37.7562 15.0735L37.3847 15.2589C37.3847 15.1306 37.3847 15.0022 37.4276 14.8454L37.4847 14.268L37.2204 14.104L37.1275 15.3373L35.9629 15.8577L36.213 16.0217Z" fill="#79242F"/>
<path d="M47.837 8.50789C43.3283 4.01014 37.396 1.21144 31.0511 0.588666C24.7061 -0.0341113 18.341 1.55757 13.0403 5.09249C7.73967 8.62742 3.8314 13.8869 1.98146 19.9747C0.131527 26.0625 0.454392 32.602 2.89504 38.479C5.33568 44.3559 9.7431 49.2066 15.3663 52.2046C20.9895 55.2026 27.4806 56.1623 33.7335 54.9203C39.9864 53.6783 45.6142 50.3114 49.6581 45.3933C53.702 40.4751 55.9117 34.3101 55.9106 27.9486C55.921 24.3363 55.2127 20.7579 53.8268 17.4208C52.441 14.0836 50.405 11.0541 47.837 8.50789V8.50789ZM28.3461 54.6038C23.0635 54.5996 17.9006 53.0327 13.5103 50.1012C9.11999 47.1697 5.69929 43.0053 3.68063 38.1343C1.66198 33.2633 1.13601 27.9045 2.1692 22.7353C3.2024 17.5661 5.74838 12.8186 9.48529 9.09296C13.2222 5.3673 17.9823 2.83076 23.1637 1.80399C28.3452 0.777228 33.7155 1.30634 38.5956 3.32444C43.4758 5.34253 47.6467 8.759 50.5812 13.142C53.5156 17.5249 55.0818 22.6776 55.0818 27.9486C55.0743 35.0194 52.2544 41.7981 47.2415 46.7959C42.2286 51.7937 35.4326 54.6019 28.3461 54.6038V54.6038Z" fill="#79242F"/>
<path d="M46.851 9.49161C42.5698 5.21606 36.9351 2.55415 30.9073 1.95953C24.8795 1.36491 18.8315 2.87439 13.7941 6.23071C8.75673 9.58703 5.0417 14.5825 3.28216 20.3657C1.52262 26.1489 1.82746 32.362 4.14473 37.9461C6.46199 43.5302 10.6483 48.1396 15.9901 50.989C21.332 53.8383 27.4988 54.7511 33.4396 53.5718C39.3804 52.3926 44.7275 49.1943 48.5697 44.5219C52.4119 39.8495 54.5113 33.9923 54.5102 27.9485C54.5185 24.5198 53.846 21.1234 52.5314 17.9554C51.2167 14.7875 49.2861 11.9108 46.851 9.49161ZM28.346 53.7411C23.2334 53.7411 18.2357 52.2284 13.9847 49.3943C9.73371 46.5602 6.42048 42.5319 4.46397 37.8189C2.50746 33.1059 1.99555 27.9199 2.99297 22.9166C3.99039 17.9134 6.45234 13.3176 10.0675 9.71039C13.6827 6.10323 18.2886 3.64672 23.303 2.65151C28.3174 1.65629 33.5149 2.16706 38.2383 4.11925C42.9618 6.07143 46.9989 9.37734 49.8393 13.6189C52.6797 17.8605 54.1958 22.8472 54.1958 27.9485C54.1882 34.7868 51.4624 41.3429 46.6162 46.1783C41.7701 51.0137 35.1995 53.7336 28.346 53.7411V53.7411Z" fill="#79242F"/>
<path d="M28.3467 9.04248C24.5974 9.04248 20.9324 10.1519 17.8151 12.2304C14.6978 14.3089 12.2682 17.2632 10.8338 20.7195C9.39934 24.1759 9.02439 27.979 9.75635 31.648C10.4883 35.317 12.2943 38.687 14.9459 41.3318C17.5976 43.9766 20.9757 45.7773 24.6531 46.5062C28.3305 47.2352 32.142 46.8597 35.6054 45.4271C39.0689 43.9945 42.0288 41.5692 44.1107 38.458C46.1927 35.3468 47.3032 31.6895 47.3017 27.9485C47.2961 22.9348 45.297 18.1282 41.7432 14.5837C38.1895 11.0391 33.3715 9.04625 28.3467 9.04248V9.04248ZM28.3467 46.5409C24.6613 46.5409 21.0587 45.4504 17.9944 43.4075C14.9302 41.3645 12.5418 38.4608 11.1315 35.0635C9.72119 31.6662 9.35218 27.9279 10.0712 24.3213C10.7901 20.7148 12.5648 17.4019 15.1708 14.8017C17.7767 12.2015 21.0969 10.4308 24.7115 9.71341C28.326 8.99602 32.0726 9.36421 35.4774 10.7714C38.8823 12.1786 41.7924 14.5617 43.8399 17.6192C45.8874 20.6766 46.9802 24.2713 46.9802 27.9485C46.9746 32.8778 45.0096 37.6035 41.5163 41.089C38.0231 44.5745 33.2869 46.5352 28.3467 46.5409Z" fill="#79242F"/>
<path d="M28.3467 9.87671C24.7627 9.87671 21.2593 10.9372 18.2795 12.9241C15.2997 14.9109 12.9773 17.7349 11.6061 21.0389C10.2349 24.3428 9.87652 27.9782 10.5762 31.4854C11.2759 34.9926 13.0023 38.214 15.537 40.7421C18.0718 43.2702 21.3009 44.9915 24.8162 45.6883C28.3314 46.3851 31.9748 46.0261 35.2855 44.6566C38.5962 43.2871 41.4256 40.9688 43.4156 37.9948C45.4057 35.0208 46.4672 31.5246 46.4658 27.9486C46.4601 23.1562 44.5491 18.5617 41.1521 15.1736C37.7552 11.7855 33.1498 9.88048 28.3467 9.87671V9.87671ZM28.3467 45.5216C24.8676 45.5216 21.4667 44.4922 18.574 42.5636C15.6812 40.635 13.4266 37.8938 12.0952 34.6867C10.7639 31.4796 10.4155 27.9506 11.0943 24.5459C11.773 21.1412 13.4483 18.0139 15.9084 15.5592C18.3684 13.1046 21.5027 11.433 24.9149 10.7558C28.3272 10.0785 31.864 10.4261 35.0782 11.7545C38.2925 13.083 41.0397 15.3326 42.9726 18.2189C44.9054 21.1053 45.9371 24.4987 45.9371 27.97C45.9201 32.6152 44.0598 37.0645 40.7632 40.3444C37.4666 43.6244 33.0021 45.4679 28.3467 45.4716V45.5216Z" fill="#79242F"/>
<path d="M16.2788 9.27072L15.7215 8.60772L16.2359 8.17286L15.9144 7.78789L15.4 8.22276L14.8427 7.56689L14.2568 8.05879L15.7001 9.75549L16.2788 9.27072Z" fill="#79242F"/>
<path d="M13.743 9.33485L14.4575 10.2046L13.8073 10.7464L13.3214 10.1689L12.8142 10.6038L13.3 11.1812L12.7284 11.6589L13.0428 12.0296L14.4074 10.8818C14.2709 11.0694 14.1974 11.2952 14.1974 11.527C14.1974 11.7588 14.2709 11.9846 14.4074 12.1722C14.8147 12.6498 15.6506 12.5571 16.3294 11.9868C17.0081 11.4165 17.2439 10.6038 16.8367 10.119C16.6661 9.95684 16.4487 9.85233 16.2153 9.82034C15.9819 9.78835 15.7444 9.8305 15.5363 9.94081L15.2291 9.5701L15.029 9.7412L14.1717 8.72889C14.1174 8.66407 14.0397 8.62322 13.9554 8.61522C13.8711 8.60721 13.7871 8.63268 13.7215 8.68611L11.8496 10.2687L12.1783 10.6537L13.743 9.33485ZM15.2148 10.6751C15.2727 10.5999 15.3468 10.5386 15.4316 10.4957C15.5164 10.4529 15.6098 10.4295 15.7048 10.4274C15.7998 10.4253 15.8941 10.4444 15.9808 10.4835C16.0674 10.5225 16.1442 10.5805 16.2054 10.653C16.2666 10.7256 16.3108 10.8109 16.3346 10.9027C16.3584 10.9946 16.3613 11.0905 16.343 11.1836C16.3248 11.2767 16.2858 11.3645 16.2291 11.4406C16.1723 11.5167 16.0991 11.5791 16.015 11.6232C15.8815 11.7539 15.7019 11.827 15.5149 11.827C15.3279 11.827 15.1483 11.7539 15.0147 11.6232C14.9222 11.4691 14.8914 11.2858 14.9285 11.11C14.9656 10.9343 15.0679 10.7789 15.2148 10.6751V10.6751Z" fill="#79242F"/>
<path d="M10.7848 15.316C10.8993 15.316 11.0112 15.2822 11.1063 15.2187C11.2015 15.1553 11.2757 15.0651 11.3195 14.9596C11.3633 14.854 11.3748 14.7379 11.3524 14.6259C11.3301 14.5139 11.275 14.411 11.194 14.3303C11.1131 14.2495 11.01 14.1945 10.8977 14.1722C10.7855 14.1499 10.6691 14.1614 10.5634 14.2051C10.4576 14.2488 10.3672 14.3228 10.3036 14.4178C10.24 14.5127 10.2061 14.6244 10.2061 14.7386C10.2051 14.8147 10.2195 14.8902 10.2482 14.9607C10.2769 15.0312 10.3195 15.0952 10.3735 15.149C10.4274 15.2028 10.4916 15.2453 10.5622 15.274C10.6329 15.3027 10.7086 15.317 10.7848 15.316V15.316Z" fill="#79242F"/>
<path d="M46.3581 15.316C46.4725 15.316 46.5844 15.2822 46.6796 15.2187C46.7748 15.1553 46.8489 15.0651 46.8927 14.9596C46.9365 14.854 46.948 14.7379 46.9257 14.6259C46.9033 14.5139 46.8482 14.411 46.7673 14.3303C46.6864 14.2495 46.5832 14.1945 46.471 14.1722C46.3587 14.1499 46.2423 14.1614 46.1366 14.2051C46.0309 14.2488 45.9405 14.3228 45.8769 14.4178C45.8133 14.5127 45.7793 14.6244 45.7793 14.7386C45.7784 14.8147 45.7927 14.8902 45.8214 14.9607C45.8502 15.0312 45.8928 15.0952 45.9467 15.149C46.0006 15.2028 46.0648 15.2453 46.1355 15.274C46.2061 15.3027 46.2818 15.317 46.3581 15.316V15.316Z" fill="#79242F"/>
<path d="M28.4179 49.3711C28.3031 49.3697 28.1906 49.4024 28.0945 49.465C27.9984 49.5276 27.9231 49.6172 27.8782 49.7226C27.8333 49.828 27.8208 49.9443 27.8423 50.0568C27.8638 50.1693 27.9184 50.2728 27.999 50.3543C28.0797 50.4358 28.1828 50.4915 28.2952 50.5144C28.4077 50.5372 28.5244 50.5262 28.6305 50.4827C28.7367 50.4392 28.8275 50.3652 28.8914 50.2701C28.9553 50.175 28.9895 50.0631 28.9895 49.9486C28.9895 49.7967 28.9295 49.6509 28.8225 49.5428C28.7155 49.4347 28.5701 49.373 28.4179 49.3711V49.3711Z" fill="#79242F"/>
<path d="M8.76236 22.659L6.90472 21.718C6.44746 21.4898 6.0402 21.2831 5.62581 21.0977C6.0402 21.1975 6.5189 21.2831 7.00475 21.3758L9.06244 21.7393L9.16247 21.4328L7.31197 20.4846C6.83327 20.2423 6.39744 20.0213 6.02591 19.8573C6.41173 19.9428 6.91901 20.0355 7.45487 20.1282L9.50542 20.4989L9.60544 20.1995L9.76977 19.8502L8.68377 18.5456C8.58374 18.4315 8.48372 18.3103 8.36225 18.1891L10.1484 19.009L10.2771 18.7238L6.56892 17.0271L6.44031 17.3051L7.86926 17.9539L8.18364 18.346L6.04021 18.2319L5.88302 18.5669L8.41227 18.6953L9.59115 20.1638L5.54007 19.4509L5.4329 19.7646L7.3477 20.7484C7.81925 20.9979 8.18363 21.1762 8.55516 21.3401C8.14791 21.2403 7.75495 21.169 7.24053 21.0763L5.0971 20.6985L4.99707 21.0122L8.6409 22.9441L8.76236 22.659Z" fill="#79242F"/>
<path d="M8.58383 23.5143L4.76138 21.8604L4.69708 22.174L5.8974 22.6873L5.71878 23.5214H4.41129L4.33984 23.8493L8.50524 23.8992L8.58383 23.5143ZM8.0837 23.5927L7.36922 23.557H6.1689L6.31894 22.8441L7.42638 23.3218L8.14086 23.5927H8.0837Z" fill="#79242F"/>
<path d="M8.14088 26.3802L6.44042 26.1948C5.81168 26.1307 5.3187 26.0808 4.76855 26.0523C5.19009 25.981 5.63306 25.8954 6.1332 25.7671L8.27663 25.2253L8.3195 24.8902L4.26127 24.4482V24.7405L5.99745 24.9259C6.66906 24.9972 7.16205 25.0471 7.67647 25.0827C7.22635 25.154 6.74765 25.261 6.24752 25.3821L4.10409 25.9168L4.06836 26.2234L8.12659 26.6653L8.14088 26.3802Z" fill="#79242F"/>
<path d="M6.1473 28.8824V28.0911H5.72575V28.5759H4.51114C4.42497 28.456 4.38443 28.3094 4.39682 28.1624C4.39682 27.6063 5.01128 27.2356 6.04727 27.2356C7.08326 27.2356 7.69056 27.6206 7.69056 28.2051C7.69576 28.3966 7.63244 28.5836 7.51194 28.7327L7.94063 28.8111C8.06586 28.6368 8.13105 28.4267 8.12639 28.2123C8.12639 27.4067 7.24044 26.9148 6.02583 26.9077C5.49801 26.8857 4.97354 27.0012 4.504 27.2427C4.33885 27.3274 4.20059 27.4563 4.10469 27.6149C4.00879 27.7736 3.95903 27.9557 3.96099 28.141C3.97421 28.3943 4.05298 28.6399 4.18963 28.8539L6.1473 28.8824Z" fill="#79242F"/>
<path d="M8.39074 31.5559L6.30447 31.4988C5.79004 31.4988 5.33278 31.4988 4.87551 31.4988C5.29705 31.4062 5.76861 31.285 6.24016 31.1567L8.26213 30.6077L8.21926 30.2798L6.13299 30.2228C5.60428 30.2228 5.11129 30.2228 4.70403 30.2228L6.08298 29.8663L8.09066 29.3245V28.9966L4.11816 30.1158L4.15389 30.4366L6.29732 30.5079C6.82603 30.5079 7.23328 30.5079 7.64054 30.5079C7.23328 30.5863 6.84747 30.6862 6.34019 30.8287L4.2682 31.3919L4.31108 31.7199L8.44075 31.8838L8.39074 31.5559Z" fill="#79242F"/>
<path d="M7.06893 34.4574C8.24067 34.158 8.96229 33.5306 8.79081 32.8961C8.61934 32.2616 7.69052 32.0264 6.44019 32.3543C5.18985 32.6823 4.54682 33.3025 4.70401 33.9227C4.86119 34.5429 5.71142 34.8138 7.06893 34.4574ZM5.12555 33.83C5.00409 33.3595 5.68999 32.889 6.5545 32.6751C7.41902 32.4613 8.26925 32.4898 8.39786 32.9888C8.52646 33.4878 7.76912 33.9441 6.9689 34.1508C6.06866 34.379 5.25416 34.3077 5.12555 33.83V33.83Z" fill="#79242F"/>
<path d="M7.92682 36.8099C9.0557 36.3822 9.69873 35.6764 9.46295 35.0633C9.22717 34.4502 8.27692 34.3504 7.06231 34.7924C5.8477 35.2344 5.2904 35.9473 5.51904 36.539C5.74767 37.1307 6.64077 37.3161 7.92682 36.8099ZM5.92629 36.4036C5.74767 35.9473 6.38356 35.4055 7.19806 35.0918C8.01256 34.7782 8.87708 34.7283 9.06284 35.2059C9.2486 35.6835 8.54128 36.2253 7.78393 36.5176C6.94799 36.8456 6.13349 36.8598 5.95487 36.4036H5.92629Z" fill="#79242F"/>
<path d="M10.6065 37.6797L9.07748 38.4353C8.50589 38.7205 8.06292 38.9415 7.59136 39.2124C7.94082 38.9061 8.27466 38.5825 8.59163 38.2428L10.092 36.6317L9.94199 36.3323L6.29102 38.143L6.41962 38.4068L7.98433 37.6298C8.59163 37.3303 9.02746 37.1022 9.47758 36.8598C9.14178 37.1664 8.76311 37.5157 8.46303 37.865L6.94833 39.469L7.08409 39.7542L10.7422 37.9363L10.6065 37.6797Z" fill="#79242F"/>
<path d="M12.778 40.8307L12.5851 40.5883L10.6703 42.0497C9.95582 42.5987 9.49855 42.6557 9.24134 42.3777C8.98413 42.0996 9.24134 41.6648 9.95582 41.1444L11.8778 39.6758L11.6849 39.4263L9.7772 40.8877C8.76979 41.6505 8.61975 42.2351 8.91983 42.6272C9.21991 43.0193 9.87723 43.0407 10.8775 42.2779L12.778 40.8307Z" fill="#79242F"/>
<path d="M14.0642 42.2279L12.821 43.3971C12.3638 43.8319 12.0065 44.1741 11.6279 44.5734C11.874 44.1796 12.0982 43.7726 12.2995 43.3543L13.2783 41.3867L13.0425 41.1372L10.0703 43.9175L10.2704 44.1314L11.5421 42.9408C12.0351 42.4775 12.3852 42.1353 12.7496 41.7717C12.5067 42.1638 12.278 42.5986 12.0351 43.0335L11.0491 45.0082L11.2706 45.2364L14.2357 42.4418L14.0642 42.2279Z" fill="#79242F"/>
<path d="M14.5995 42.7353L11.835 45.7288L12.0609 45.9365L14.8255 42.943L14.5995 42.7353Z" fill="#79242F"/>
<path d="M16.2427 44.1243L14.6566 45.4717C14.2351 45.8139 13.835 46.1846 13.4849 46.4769C13.7349 46.0705 13.9779 45.6285 14.2494 45.1366L15.2139 43.333L14.9495 43.1191L12.999 46.7834L13.2634 46.9973L16.5 44.3311L16.2427 44.1243Z" fill="#79242F"/>
<path d="M15.6649 46.3626L16.4365 46.8902L16.6794 46.5266L15.9078 46.0062L16.6223 44.9368L17.4439 45.4857L17.694 45.1222L16.6151 44.395L14.3359 47.7741L15.4577 48.5298L15.7077 48.1662L14.8432 47.5817L15.6649 46.3626Z" fill="#79242F"/>
<path d="M17.8368 47.6531C18.0366 47.6242 18.2251 47.543 18.3833 47.4177C18.5414 47.2925 18.6635 47.1278 18.7371 46.9402C18.8768 46.7105 18.9486 46.4461 18.9443 46.1774C18.9375 46.0408 18.8914 45.909 18.8116 45.7977C18.7318 45.6865 18.6216 45.6005 18.4941 45.55C18.319 45.4484 18.1283 45.3762 17.9297 45.3362L15.9863 48.8508L16.2578 49.0005L17.1152 47.4535L17.3653 47.5961C17.6082 47.7529 17.6153 47.9953 17.4081 48.5228C17.2804 48.8258 17.1683 49.1352 17.0723 49.4496L17.3581 49.6064C17.4615 49.2423 17.588 48.8852 17.7368 48.5371C17.8156 48.4054 17.8654 48.2583 17.8826 48.1059C17.8999 47.9534 17.8843 47.799 17.8368 47.6531V47.6531ZM17.601 47.2681L17.3224 47.1113L18.0369 45.8138C18.1385 45.8296 18.2358 45.866 18.3227 45.9208C18.6085 46.0847 18.6942 46.3913 18.4441 46.8547C18.1941 47.318 17.8868 47.425 17.601 47.2681Z" fill="#79242F"/>
<path d="M19.494 48.0451C19.3874 47.9209 19.3197 47.7683 19.2994 47.606C19.2791 47.4438 19.307 47.2791 19.3797 47.1326C19.4868 46.876 19.7369 46.6265 20.037 46.7619C20.1926 46.8328 20.3153 46.9603 20.3799 47.1184L20.63 46.7619C20.551 46.5814 20.4051 46.4383 20.2228 46.3627C19.7941 46.1773 19.3225 46.4839 19.0653 47.0756C18.9574 47.2824 18.9108 47.5157 18.931 47.7481C18.9513 47.9804 19.0375 48.2022 19.1796 48.3873C19.2796 48.5182 19.3407 48.6745 19.3559 48.8384C19.371 49.0023 19.3397 49.1672 19.2654 49.3141C19.0939 49.6848 18.8081 49.8701 18.5509 49.7418C18.4553 49.6952 18.3704 49.6293 18.3015 49.5483C18.2327 49.4673 18.1813 49.373 18.1508 49.2713L17.8936 49.642C17.9808 49.8561 18.1434 50.031 18.3508 50.1339C18.8724 50.362 19.3439 49.9771 19.6012 49.421C19.7191 49.2061 19.7718 48.9615 19.7528 48.7172C19.7338 48.4728 19.6438 48.2393 19.494 48.0451V48.0451Z" fill="#79242F"/>
<path d="M21.0831 46.8099L19.6631 50.626L19.9578 50.7352L21.3779 46.9191L21.0831 46.8099Z" fill="#79242F"/>
<path d="M21.5373 46.9758L21.4087 47.4036L22.1089 47.6174L21.0586 51.0821L21.3587 51.1748L22.409 47.703L23.1163 47.9169L23.2449 47.4891L21.5373 46.9758Z" fill="#79242F"/>
<path d="M24.1884 48.8363C24.0312 49.1215 23.8955 49.3639 23.774 49.6063C23.774 49.314 23.774 49.0573 23.7168 48.7365L23.6097 47.5674L23.2667 47.4961L23.5311 49.9413L23.1738 51.638L23.4811 51.7022L23.8383 50.0055L25.1101 47.8668L24.76 47.7955L24.1884 48.8363Z" fill="#79242F"/>
<path d="M33.5696 47.4892V49.5067C33.5696 50.0342 33.5697 50.4905 33.6268 50.9325C33.4625 50.5404 33.2696 50.1269 33.0552 49.6635L32.1693 47.8527L31.7549 47.9454L32.5265 51.9448L32.8409 51.8735L32.4979 50.1625C32.3765 49.5637 32.2336 48.8936 32.1264 48.4017C32.3122 48.8579 32.5337 49.3427 32.7837 49.8774L33.6411 51.6667L33.884 51.6026V49.578C33.884 49.0005 33.884 48.4872 33.834 48.0024C33.9483 48.5015 34.1269 49.1573 34.277 49.7063L34.7628 51.4315L35.0772 51.3531L33.9698 47.4321L33.5696 47.4892Z" fill="#79242F"/>
<path d="M35.0771 47.0044L35.663 51.1321L35.9845 51.0109L35.7916 49.749L36.649 49.4354L37.3635 50.5404L37.6993 50.4192L35.4344 46.8975L35.0771 47.0044ZM36.4418 49.0433L35.7273 49.3071L35.563 48.1165C35.5201 47.867 35.4773 47.6175 35.4272 47.4036C35.5487 47.6104 35.663 47.8314 35.8131 48.0595L36.4418 49.0433Z" fill="#79242F"/>
<path d="M37.8128 45.8281L37.4699 45.9921L37.6128 47.1612C37.6128 47.482 37.6842 47.7601 37.7271 48.031C37.5342 47.8028 37.3627 47.6104 37.1412 47.3751L36.341 46.5054L35.998 46.6693L37.7271 48.4516L38.4416 50.02L38.7416 49.8774L38.0272 48.3019L37.8128 45.8281Z" fill="#79242F"/>
<path d="M39.8635 44.7374L39.6777 45.4218L39.9635 45.7212L40.1064 45.1723H40.1136L42.0569 47.9953L42.3213 47.8171L40.0993 44.5806L39.8635 44.7374Z" fill="#79242F"/>
<path d="M43.0289 44.3024C42.3859 43.5253 41.7285 43.2259 41.3356 43.5467C40.9426 43.8675 41.0998 44.5875 41.5785 45.1579C42.0572 45.7282 42.5645 45.9064 42.9074 45.6212C43.0043 45.5332 43.073 45.4186 43.1048 45.2918C43.1366 45.1649 43.1301 45.0315 43.0861 44.9083V44.9083C43.3039 45.2076 43.4461 45.5549 43.5004 45.9207C43.5331 46.1423 43.4766 46.3678 43.3433 46.548C43.2863 46.6194 43.2188 46.6819 43.1432 46.7334L43.4218 47.0684C43.5078 47.0079 43.5827 46.9332 43.6433 46.8474C43.7367 46.726 43.8045 46.587 43.8425 46.4387C43.8806 46.2905 43.8882 46.1361 43.8648 45.9848C43.7464 45.358 43.4571 44.7759 43.0289 44.3024ZM42.7074 45.2577C42.4859 45.443 42.1215 45.3005 41.8071 44.9226C41.4928 44.5448 41.357 44.06 41.5785 43.8747C41.8 43.6893 42.293 43.9459 42.7217 44.4664C42.7672 44.5126 42.8015 44.5687 42.8217 44.6303C42.8716 44.7335 42.8874 44.8498 42.8668 44.9626C42.8463 45.0753 42.7905 45.1786 42.7074 45.2577Z" fill="#79242F"/>
<path d="M44.1217 43.5397C44.1595 43.3624 44.149 43.1783 44.0912 43.0065C44.0334 42.8347 43.9304 42.6815 43.793 42.563C43.4572 42.2208 42.9714 42.0497 42.6284 42.399C42.5426 42.4874 42.4761 42.5926 42.4331 42.7079C42.3901 42.8233 42.3714 42.9463 42.3784 43.0691L42.7142 43.2759C42.706 43.181 42.7169 43.0854 42.7464 42.9948C42.7758 42.9042 42.8232 42.8204 42.8856 42.7483C43.1 42.5273 43.3858 42.6343 43.6001 42.8624C43.6634 42.9121 43.7159 42.9742 43.7544 43.0449C43.7928 43.1155 43.8164 43.1932 43.8238 43.2733C43.8312 43.3533 43.8221 43.434 43.7971 43.5105C43.7722 43.5869 43.7319 43.6575 43.6787 43.7179L43.5501 43.8533L43.8288 44.1385L43.9645 44.003C44.1931 43.7749 44.579 43.725 44.9719 44.11C45.2006 44.3381 45.4149 44.7444 45.1077 45.0439C44.9514 45.1805 44.751 45.2565 44.5432 45.2577L44.7719 45.6142C45.0131 45.6093 45.2432 45.5123 45.4149 45.3433C45.8364 44.9298 45.6721 44.3238 45.2291 43.8747C45.1028 43.7104 44.928 43.5897 44.7294 43.5296C44.5307 43.4695 44.3182 43.473 44.1217 43.5397Z" fill="#79242F"/>
<path d="M46.7295 42.1922L46.408 41.9284L46.1865 42.1922L44.3146 40.6167L44.0859 40.8947L45.2934 43.3328L45.5578 43.561L46.2722 42.677L47.0939 43.3899L47.2939 43.1475L46.4794 42.4346L46.7295 42.1922ZM45.4577 43.0548L44.829 41.736C44.729 41.5649 44.6432 41.408 44.5146 41.2013L44.979 41.6076L45.9864 42.456L45.4577 43.0548Z" fill="#79242F"/>
<path d="M48.7231 39.1554C48.5271 39.0127 48.2937 38.9299 48.0514 38.9173C47.8091 38.9046 47.5683 38.9626 47.3584 39.0841C47.2206 39.1782 47.0575 39.2285 46.8905 39.2285C46.7234 39.2285 46.5603 39.1782 46.4225 39.0841C46.3573 39.0556 46.2985 39.0144 46.2495 38.9629C46.2005 38.9115 46.1622 38.8508 46.1369 38.7844C46.1117 38.7181 46.0999 38.6473 46.1023 38.5764C46.1047 38.5054 46.1213 38.4357 46.151 38.3712C46.2499 38.2202 46.3992 38.109 46.5725 38.0575L46.2581 37.751C46.0605 37.8162 45.8931 37.9503 45.7866 38.1288C45.5294 38.5565 45.7866 39.0841 46.2939 39.4192C46.4939 39.5484 46.7272 39.6171 46.9655 39.6171C47.2038 39.6171 47.437 39.5484 47.6371 39.4192C47.776 39.3244 47.9404 39.2738 48.1086 39.2738C48.2769 39.2738 48.4413 39.3244 48.5802 39.4192C48.9303 39.633 49.0732 39.9467 48.8946 40.239C48.7651 40.4233 48.5716 40.5529 48.3516 40.6026L48.6874 40.9091C48.9204 40.8418 49.121 40.6924 49.2518 40.4885C49.5662 40.018 49.259 39.4833 48.7231 39.1554Z" fill="#79242F"/>
<path d="M49.7447 38.6776L48.4444 38.0003L48.9016 37.1163L48.5158 36.9167L48.0585 37.8007L46.9154 37.209L47.4012 36.268L47.0083 36.0684L46.3652 37.2945L49.9876 39.1766L50.6521 37.9005L50.2591 37.6938L49.7447 38.6776Z" fill="#79242F"/>
<path d="M49.7805 34.4288C48.6445 34.0295 47.6871 34.165 47.4513 34.828C47.2155 35.491 47.8442 36.2538 49.066 36.6673C50.2877 37.0807 51.2094 36.9097 51.4095 36.2752C51.6095 35.6407 51.1023 34.8993 49.7805 34.4288ZM51.0094 36.1112C50.8308 36.6031 49.9948 36.6174 49.1732 36.3322C48.3515 36.047 47.6656 35.5052 47.8514 34.9848C48.0372 34.4644 48.9231 34.5001 49.6876 34.771C50.5592 35.0775 51.1808 35.6193 51.0094 36.1112Z" fill="#79242F"/>
<path d="M50.695 32.1975L48.373 31.6699L48.3015 31.9979L50.6522 32.5325C51.531 32.7321 51.8668 33.0601 51.781 33.4308C51.6953 33.8015 51.2738 33.9227 50.3521 33.7231L48.0014 33.1884L47.9229 33.5092L50.2663 34.0439C51.5024 34.329 52.0525 34.0439 52.174 33.5377C52.2954 33.0316 51.9168 32.4755 50.695 32.1975Z" fill="#79242F"/>
<path d="M52.0885 31.392L48.4875 30.9001L48.4375 31.228L52.4814 31.784L52.6743 30.3654L52.2385 30.3083L52.0885 31.392Z" fill="#79242F"/>
<path d="M48.7021 26.3233V26.7368L50.2526 27.4924L50.6884 27.6849L48.7236 27.7206V28.0485L52.8032 27.9772V27.6493H51.2457L50.7956 27.414L52.7818 26.53V26.1379L50.4526 27.1788L48.7021 26.3233Z" fill="#79242F"/>
<path d="M50.417 23.7996C49.2095 23.9493 48.4236 24.5125 48.5093 25.2254C48.595 25.9383 49.4953 26.3019 50.7813 26.1451C52.0674 25.9882 52.7747 25.4322 52.6961 24.7193C52.6176 24.0064 51.8102 23.6285 50.417 23.7996ZM52.2675 24.7549C52.3318 25.2682 51.5887 25.6603 50.7242 25.7672C49.8597 25.8742 49.0023 25.7031 48.938 25.1613C48.8737 24.6195 49.6525 24.2416 50.4813 24.1418C51.4029 24.0278 52.2246 24.2345 52.2675 24.7549Z" fill="#79242F"/>
<path d="M50.1811 22.224C50.0316 22.087 49.8474 21.9933 49.6485 21.9531C49.4495 21.9129 49.2434 21.9277 49.0522 21.9959C48.7808 22.0456 48.5314 22.1775 48.3378 22.3737C48.2454 22.4823 48.183 22.6131 48.1566 22.7531C48.1303 22.8931 48.1411 23.0375 48.1877 23.1721C48.2382 23.3817 48.3175 23.5832 48.4235 23.771L52.3317 22.83L52.2602 22.5091L50.5383 22.9226L50.4669 22.6161C50.4097 22.3167 50.5884 22.1384 51.1171 21.9032C51.4284 21.7912 51.7316 21.6578 52.0245 21.504L51.9459 21.176C51.803 21.2616 51.4314 21.4113 50.9027 21.6323C50.4955 21.8248 50.2383 22.003 50.1811 22.224ZM48.695 23.3717C48.636 23.2753 48.5948 23.1691 48.5735 23.0581C48.4949 22.7159 48.6593 22.4307 49.1737 22.3095C49.6881 22.1883 49.9811 22.3452 50.0668 22.6874L50.1454 23.0224L48.695 23.3717Z" fill="#79242F"/>
<path d="M51.2164 20.4418L49.8303 20.9194L49.5017 19.9784L49.0873 20.121L49.4159 21.062L48.1942 21.4898L47.8512 20.4917L47.4297 20.6343L47.887 21.946L51.7451 20.6058L51.2664 19.2441L50.852 19.3938L51.2164 20.4418Z" fill="#79242F"/>
<path d="M47.0227 19.7146L51.0881 18.7736L50.9452 18.4599L49.6663 18.7665L49.2805 17.9395L50.3236 17.1482L50.1736 16.8274L46.8584 19.351L47.0227 19.7146ZM47.9801 18.9019L48.9375 18.189L49.2662 18.9019L48.0873 19.1799C47.8444 19.237 47.6015 19.3083 47.3728 19.3724C47.5586 19.2085 47.7658 19.0944 47.9801 18.9019V18.9019Z" fill="#79242F"/>
<path d="M26.8743 6.37625H28.9249V7.87333H29.6394V5.24987H30.0323V7.87333H30.7468V3.59595H30.0323V4.74371H29.6394V3.59595H28.9249V5.87009H27.2173V4.23756H28.5962V3.7314H26.4528V5.96277C26.4496 6.01852 26.4584 6.07431 26.4785 6.12641C26.4987 6.1785 26.5297 6.2257 26.5696 6.26485C26.6095 6.304 26.6574 6.33419 26.7099 6.3534C26.7625 6.37261 26.8185 6.38041 26.8743 6.37625Z" fill="#79242F"/>
<path d="M43.5859 13.0774L43.3429 12.8636L45.1148 10.8318C45.1738 10.7719 45.2067 10.6912 45.2067 10.6073C45.2067 10.5233 45.1738 10.4427 45.1148 10.3827L42.4284 8.05151L42.0998 8.42935L44.4218 10.454L42.7714 12.3432L42.2212 11.8655L43.3001 10.6322L42.7428 10.1403L41.6639 11.3736L41.2352 11.0029L42.3141 9.7696L41.7568 9.28483L40.6494 10.5395L40.1278 10.0904L39.792 10.4682L43.2501 13.4767L43.5859 13.0774Z" fill="#79242F"/>
<path d="M35.4056 7.01784C36.1201 7.33864 36.906 7.18181 37.1346 6.65427C37.1855 6.5423 37.2119 6.42077 37.2119 6.29782C37.2119 6.17487 37.1855 6.05333 37.1346 5.94137L37.5419 6.11959L37.7348 5.67759L36.6345 5.1857L36.7702 4.86489L36.1272 4.58686L35.9843 4.90054L34.884 4.41577L34.684 4.86489L35.0841 5.04311C34.9662 5.07606 34.8567 5.13384 34.763 5.21254C34.6694 5.29124 34.5937 5.38904 34.5411 5.49937C34.2767 6.02691 34.6554 6.68278 35.4056 7.01784ZM35.2127 5.80592C35.2902 5.66015 35.4221 5.55073 35.58 5.50136C35.7378 5.45199 35.9087 5.46664 36.0558 5.54215C36.136 5.56507 36.2104 5.60484 36.274 5.65879C36.3376 5.71275 36.3889 5.77963 36.4245 5.85498C36.4601 5.93033 36.4791 6.0124 36.4803 6.09569C36.4816 6.17897 36.4649 6.26155 36.4315 6.33789C36.3982 6.41424 36.3488 6.48259 36.2868 6.53836C36.2248 6.59413 36.1516 6.63603 36.072 6.66126C35.9925 6.68649 35.9084 6.69447 35.8255 6.68466C35.7426 6.67485 35.6628 6.64746 35.5913 6.60436C35.4355 6.54798 35.3082 6.43244 35.2373 6.28291C35.1664 6.13337 35.1575 5.96194 35.2127 5.80592V5.80592Z" fill="#79242F"/>
<path d="M36.3983 9.61297L37.1057 9.92665L37.7344 8.50798L38.2274 7.39586L38.7847 7.64538L38.9919 7.182L38.4274 6.93961L38.8347 6.01284L38.1274 5.7063L37.0842 8.05173L34.1763 6.77564L33.9834 7.21764L36.8913 8.50085L36.3983 9.61297Z" fill="#79242F"/>
<path d="M21.1302 6.8398C21.9233 6.50474 22.3734 5.86313 22.1091 5.25004C21.8447 4.63695 21.0802 4.5015 20.2872 4.82944C19.4941 5.15737 19.044 5.79897 19.3083 6.42632C19.5727 7.05367 20.3372 7.16773 21.1302 6.8398ZM20.4658 5.2643C20.543 5.21526 20.6301 5.18364 20.7209 5.17167C20.8117 5.1597 20.904 5.16766 20.9914 5.19499C21.0787 5.22232 21.1591 5.26838 21.2268 5.32992C21.2944 5.39146 21.3478 5.46702 21.3832 5.5513C21.4186 5.63558 21.4351 5.72655 21.4315 5.81785C21.428 5.90915 21.4045 5.99858 21.3627 6.07988C21.3209 6.16118 21.2619 6.2324 21.1896 6.28855C21.1174 6.3447 21.0337 6.38441 20.9445 6.40493C20.8665 6.44639 20.7809 6.47172 20.6929 6.47941C20.6048 6.48711 20.5161 6.47701 20.4321 6.44973C20.348 6.42244 20.2704 6.37854 20.2037 6.32062C20.1371 6.2627 20.0828 6.19196 20.0442 6.11264C20.0131 6.0295 19.9994 5.94088 20.0039 5.85224C20.0085 5.7636 20.0312 5.67683 20.0707 5.59731C20.1102 5.51779 20.1657 5.44721 20.2336 5.38993C20.3016 5.33265 20.3806 5.2899 20.4658 5.2643V5.2643Z" fill="#79242F"/>
<path d="M20.9799 7.55265L21.2657 8.2299L21.9659 7.93048L21.6872 7.26036L23.4592 6.51182L23.2734 6.06982L19.0723 7.83068L19.258 8.27268L20.9799 7.55265Z" fill="#79242F"/>
<path d="M20.3512 8.07295L19.6367 8.35811L20.0297 9.29201C20.0486 9.34536 20.079 9.39399 20.1185 9.43454C20.1581 9.47509 20.206 9.50662 20.259 9.52694C20.3119 9.54726 20.3687 9.5559 20.4253 9.55226C20.4819 9.54863 20.5371 9.53281 20.587 9.50588L23.8378 8.14424L23.6449 7.68799L20.6941 8.9213L20.3512 8.07295Z" fill="#79242F"/>
<path d="M40.4144 19.5292H40.3144L38.0495 19.9712V18.745C38.0486 18.6579 38.0305 18.5719 37.9962 18.4918C37.9619 18.4117 37.9122 18.3392 37.8498 18.2783C37.7875 18.2174 37.7137 18.1693 37.6327 18.1369C37.5517 18.1044 37.4652 18.0882 37.3779 18.0891H30.2331C30.1794 18.0892 30.1278 18.0684 30.0891 18.0311C30.0504 17.9939 30.0278 17.9431 30.0259 17.8895V17.8895V16.1144C30.025 16.0273 30.0069 15.9413 29.9726 15.8612C29.9384 15.7811 29.8886 15.7086 29.8263 15.6477C29.7639 15.5868 29.6901 15.5387 29.6092 15.5063C29.5282 15.4738 29.4416 15.4576 29.3543 15.4585H27.3752C27.288 15.4576 27.2014 15.4738 27.1204 15.5063C27.0394 15.5387 26.9656 15.5868 26.9033 15.6477C26.8409 15.7086 26.7912 15.7811 26.7569 15.8612C26.7227 15.9413 26.7045 16.0273 26.7036 16.1144V17.8895C26.7018 17.9431 26.6791 17.9939 26.6405 18.0311C26.6018 18.0684 26.5502 18.0892 26.4964 18.0891H19.3588C19.2715 18.0882 19.1849 18.1044 19.104 18.1369C19.023 18.1693 18.9492 18.2174 18.8868 18.2783C18.8245 18.3392 18.7747 18.4117 18.7405 18.4918C18.7062 18.5719 18.6881 18.6579 18.6872 18.745V19.9712L16.4223 19.5292H16.3223C16.212 19.5389 16.1074 19.5826 16.0229 19.6541C15.9385 19.7256 15.8783 19.8214 15.8507 19.9284C15.8401 19.9705 15.8401 20.0146 15.8507 20.0567L17.8513 37.8791L17.9227 38.5208C17.9745 38.7948 18.0849 39.0545 18.2464 39.2821C18.4079 39.5097 18.6168 39.6999 18.8587 39.8396L27.6467 44.559C27.8732 44.6527 28.116 44.7012 28.3612 44.7016V44.7016C28.6063 44.7003 28.8489 44.6519 29.0757 44.559L37.8637 39.8396C38.1044 39.6984 38.3123 39.5078 38.4737 39.2805C38.635 39.0531 38.7462 38.7942 38.7997 38.5208L38.8712 37.8791L40.8717 20.0567C40.8823 20.0146 40.8823 19.9705 40.8717 19.9284C40.8449 19.8235 40.7869 19.7292 40.7052 19.6579C40.6236 19.5866 40.5222 19.5417 40.4144 19.5292V19.5292ZM19.3588 18.7593H26.6893C26.8716 18.7596 27.0471 18.6904 27.18 18.5658C27.3128 18.4412 27.3929 18.2707 27.4038 18.0891V16.5564C27.4037 16.4435 27.4477 16.335 27.5264 16.2538C27.605 16.1727 27.7123 16.1252 27.8253 16.1215H28.9328C29.0459 16.1252 29.1531 16.1727 29.2318 16.2538C29.3104 16.335 29.3544 16.4435 29.3543 16.5564V18.0891C29.3653 18.2707 29.4453 18.4412 29.5782 18.5658C29.711 18.6904 29.8865 18.7596 30.0688 18.7593H37.3636V20.1209L36.2919 20.3276V19.85C36.2827 19.6672 36.2034 19.4949 36.0704 19.3688C35.9374 19.2427 35.7609 19.1725 35.5774 19.1727H32.8124C32.6289 19.1725 32.4524 19.2427 32.3194 19.3688C32.1864 19.4949 32.1071 19.6672 32.0979 19.85V21.1546L31.0834 21.3542V19.85C31.0796 19.6773 31.0077 19.513 30.8833 19.3929C30.7589 19.2728 30.592 19.2065 30.4189 19.2084H26.2392C26.0661 19.2065 25.8992 19.2728 25.7748 19.3929C25.6504 19.513 25.5785 19.6773 25.5747 19.85V21.3542L24.5602 21.1546V19.85C24.551 19.6672 24.4717 19.4949 24.3387 19.3688C24.2057 19.2427 24.0292 19.1725 23.8457 19.1727H21.0735C20.8901 19.1725 20.7136 19.2427 20.5806 19.3688C20.4475 19.4949 20.3682 19.6672 20.3591 19.85V20.3276L19.2873 20.1209L19.3588 18.7593ZM35.556 19.8856V20.4773L32.8553 21.012V19.8856H35.556ZM30.4546 19.85V21.4825L28.8971 21.7891C28.5426 21.8747 28.1727 21.8747 27.8182 21.7891L26.2606 21.4825V19.85H30.4546ZM23.86 19.8856V21.012L21.1593 20.4773V19.8856H23.86ZM38.1495 38.3782C38.1131 38.5558 38.0387 38.7236 37.9315 38.87C37.8242 39.0164 37.6866 39.138 37.5279 39.2265L28.8185 43.9102C28.5333 44.0054 28.2248 44.0054 27.9397 43.9102L19.2302 39.2265C19.0716 39.138 18.9339 39.0164 18.8267 38.87C18.7194 38.7236 18.645 38.5558 18.6086 38.3782L16.6152 20.5985C16.6152 20.4773 16.6581 20.2849 17.0225 20.3561L27.6753 22.4948C27.7525 22.516 27.8314 22.5303 27.9111 22.5376C28.0644 22.5639 28.2199 22.5759 28.3755 22.5733C28.5334 22.5761 28.6913 22.5642 28.847 22.5376C28.9267 22.5303 29.0056 22.516 29.0828 22.4948L39.7357 20.3561C40.0929 20.2849 40.1501 20.4773 40.1429 20.5985L38.1495 38.3782Z" fill="#79242F"/>
<path d="M33.1547 26.0024C34.3908 26.0024 35.341 25.4036 35.341 24.434C35.341 23.4645 34.3908 22.8728 33.1547 22.8728C31.9187 22.8728 30.9756 23.4645 30.9756 24.434C30.9756 25.4036 31.9187 26.0024 33.1547 26.0024ZM33.1547 23.5429C33.3254 23.5675 33.4855 23.6405 33.6158 23.7532C33.7461 23.8659 33.8412 24.0136 33.8899 24.1788C33.9385 24.3439 33.9385 24.5194 33.89 24.6846C33.8415 24.8497 33.7465 24.9975 33.6163 25.1103C33.486 25.2231 33.326 25.2962 33.1554 25.3209C32.9847 25.3456 32.8105 25.3209 32.6535 25.2496C32.4965 25.1784 32.3633 25.0637 32.2698 24.9191C32.1762 24.7745 32.1263 24.6061 32.1259 24.434C32.1301 24.3065 32.1606 24.1812 32.2156 24.0659C32.2705 23.9507 32.3488 23.848 32.4454 23.7644C32.5419 23.6807 32.6548 23.6179 32.7769 23.5798C32.8989 23.5417 33.0276 23.5291 33.1547 23.5429Z" fill="#79242F"/>
<path d="M32.5621 27.9129H33.6552V26.8649H36.4346V26.1663H29.8828V26.8649H32.5621V27.9129Z" fill="#79242F"/>
<path d="M30.3681 27.2001V28.6259C30.3635 28.7063 30.3765 28.7868 30.4062 28.8617C30.4358 28.9367 30.4815 29.0043 30.5399 29.0599C30.5983 29.1155 30.6682 29.1577 30.7446 29.1837C30.821 29.2098 30.9022 29.2189 30.9825 29.2105H36.0553V28.4976H31.4469V27.1431L30.3681 27.2001Z" fill="#79242F"/>
<path d="M21.6515 27.8417C21.6515 28.7399 22.6803 29.4101 23.945 29.4101C25.2096 29.4101 26.2313 28.7399 26.2313 27.8417C26.2027 27.502 26.0659 27.1803 25.8409 26.9238C25.616 26.6673 25.3146 26.4893 24.981 26.4159V25.7386H24.6094V23.8281C24.6094 23.7071 24.5613 23.591 24.4755 23.5055C24.3898 23.4199 24.2734 23.3718 24.1522 23.3718H20.6155V24.0847H23.5806V25.7244H22.3588V24.6337H21.3871V25.7244H20.3154V26.4373H22.8661C22.5418 26.5151 22.2501 26.6924 22.0322 26.9444C21.8143 27.1964 21.6812 27.5102 21.6515 27.8417V27.8417ZM23.945 26.9434C24.1117 26.9835 24.2638 27.0696 24.3838 27.1918C24.5038 27.3141 24.587 27.4675 24.6238 27.6346C24.6607 27.8018 24.6496 27.9759 24.592 28.137C24.5344 28.2982 24.4325 28.44 24.298 28.5462C24.1635 28.6523 24.0018 28.7186 23.8314 28.7375C23.6609 28.7563 23.4886 28.727 23.334 28.6528C23.1795 28.5786 23.049 28.4625 22.9574 28.3178C22.8658 28.1731 22.8169 28.0057 22.8161 27.8346C22.8294 27.7009 22.8693 27.5713 22.9336 27.4533C22.9979 27.3353 23.0853 27.2314 23.1905 27.1477C23.2957 27.0639 23.4167 27.0021 23.5463 26.9658C23.6759 26.9295 23.8114 26.9195 23.945 26.9363V26.9434Z" fill="#79242F"/>
<path d="M26.4174 25.1541H27.3819V24.427H26.4174V23.1865H25.3242V26.3874H26.4174V25.1541Z" fill="#79242F"/>
<path d="M38.3273 29.7877L36.8483 30.1157C36.7292 30.1462 36.6069 30.163 36.484 30.1656H33.1617C31.3969 30.1656 29.4535 31.2349 29.4535 34.7923V39.0697C29.4535 39.3905 29.1391 39.3905 29.032 39.3905C28.9248 39.3905 28.6176 39.3905 28.6176 39.0697V34.7923C28.6176 32.6892 27.0814 30.1656 24.5236 30.1656H19.2151C19.1907 30.1656 19.1665 30.1704 19.144 30.1797C19.1214 30.189 19.101 30.2027 19.0837 30.2199C19.0665 30.2371 19.0528 30.2575 19.0434 30.28C19.0341 30.3025 19.0293 30.3266 19.0293 30.3509V34.4358C19.0353 34.5519 19.0807 34.6625 19.1579 34.7495L20.2439 35.8331C20.3252 35.921 20.3733 36.0345 20.3797 36.1539V37.7294C20.3797 38.9699 22.073 38.9699 22.2301 38.9699C22.3873 38.9699 24.1235 38.9699 24.1235 37.7294C24.1235 37.7294 24.1235 35.6905 24.1235 35.163C24.1235 34.6354 23.7377 34.2647 23.5234 34.2647C23.309 34.2647 23.3019 34.4786 23.3019 34.6426V37.7294C23.3019 38.5564 22.3945 38.5421 22.2516 38.5421C22.1087 38.5421 21.2013 38.5421 21.2013 37.7294V36.2038C21.1953 36.0877 21.1499 35.9772 21.0727 35.8901L20.2225 35.0418C20.1437 34.9529 20.0983 34.8395 20.0939 34.721V30.9712C20.0939 30.922 20.1134 30.8749 20.1483 30.8401C20.1831 30.8053 20.2304 30.7858 20.2796 30.7858H24.5665C25.9954 30.7858 26.9028 33.1098 26.9028 34.0437V39.7469C26.9028 39.7961 26.9224 39.8432 26.9572 39.878C26.9921 39.9127 27.0393 39.9323 27.0886 39.9323H30.0751C30.2057 39.9361 30.3357 39.9136 30.4574 39.8662C30.5791 39.8187 30.6899 39.7473 30.7833 39.6561C30.8767 39.5649 30.9507 39.4559 31.0009 39.3355C31.0511 39.2152 31.0764 39.0859 31.0754 38.9556V34.0651C31.0754 32.6393 32.2185 30.8072 33.1474 30.8072H36.2553C36.2775 30.8045 36.3 30.8079 36.3203 30.8171C36.3406 30.8263 36.358 30.8409 36.3706 30.8593C36.3831 30.8777 36.3903 30.8993 36.3914 30.9215C36.3925 30.9437 36.3875 30.9658 36.3768 30.9854C36.3768 30.9854 35.6623 33.4877 35.6052 33.673C35.5697 33.7478 35.5142 33.8113 35.4449 33.8565C35.3755 33.9018 35.295 33.9271 35.2122 33.9297H34.069C33.9619 33.9297 33.7261 33.9297 33.8833 34.1079C34.0723 34.236 34.2982 34.2986 34.5263 34.2861H35.2408C35.3479 34.2861 35.4194 34.3645 35.3837 34.4643C35.2694 34.9664 35.119 35.4596 34.9336 35.9401C34.7406 36.3607 34.562 36.3607 34.4549 36.3607H33.3617C33.1974 36.3607 33.0116 36.432 33.1759 36.6102C33.3403 36.7884 33.6118 36.7456 33.7832 36.7456H34.4977C34.5204 36.7468 34.5424 36.754 34.5614 36.7664C34.5804 36.7789 34.5958 36.7961 34.606 36.8164C34.6161 36.8367 34.6207 36.8593 34.6193 36.8819C34.6178 36.9045 34.6104 36.9264 34.5977 36.9452C34.5977 36.9452 34.4334 37.4657 34.3048 37.8364C34.1762 38.2071 33.5903 38.2641 33.4617 38.2641H32.6329C32.5329 38.2641 32.3686 38.2997 32.4472 38.4423C32.5258 38.5849 32.9259 38.6206 33.0259 38.6206H34.0333C34.2992 38.5849 34.5509 38.4797 34.763 38.3157C34.975 38.1517 35.1399 37.9347 35.2408 37.6866C35.4079 37.4231 35.5152 37.1262 35.5551 36.8169C35.5551 36.6815 35.5551 36.6743 35.5051 36.6886C35.3435 36.7255 35.1779 36.7423 35.0121 36.7385C35.5089 36.5064 35.8976 36.093 36.0981 35.5836C36.2579 35.2002 36.394 34.8074 36.5054 34.4073C36.5054 34.3004 36.5054 34.2861 36.5054 34.3004C36.3669 34.3435 36.2215 34.3604 36.0767 34.3503C36.0767 34.3503 36.6983 34.0865 37.277 32.7249C37.8558 31.3632 38.4416 29.9446 38.4416 29.9446C38.4416 29.9446 38.4273 29.745 38.3273 29.7877Z" fill="#79242F"/>
<path d="M22.0093 32.6395C21.9553 32.6435 21.9032 32.6614 21.8581 32.6914C21.8131 32.7213 21.7765 32.7624 21.7521 32.8106L21.3734 33.7303C21.3624 33.7488 21.3569 33.77 21.3575 33.7915C21.358 33.8129 21.3647 33.8338 21.3766 33.8517C21.3886 33.8696 21.4053 33.8837 21.425 33.8925C21.4446 33.9013 21.4664 33.9044 21.4877 33.9014H22.0307C22.0853 33.8996 22.1383 33.8827 22.1838 33.8524C22.2292 33.8222 22.2653 33.7799 22.2879 33.7303L22.6737 32.8106C22.6847 32.7922 22.6903 32.771 22.6897 32.7495C22.6891 32.728 22.6825 32.7071 22.6705 32.6892C22.6586 32.6713 22.6418 32.6572 22.6222 32.6484C22.6025 32.6396 22.5808 32.6365 22.5594 32.6395H22.0093Z" fill="#79242F"/>
</g>
<defs>
<clipPath id="clip0_201_2866">
<rect width="187" height="55" fill="white" transform="translate(0.789062 0.452148)"/>
</clipPath>
</defs>
</svg>
