<svg width="188" height="39" viewBox="0 0 188 39" fill="none" xmlns="http://www.w3.org/2000/svg">
<g clip-path="url(#clip0_201_2124)">
<path d="M11.5014 9.33008V38.9846C11.0294 38.7896 10.5646 38.5801 10.1283 38.3635L9.356 37.9807V25.4284L7.21061 27.5951V36.7601C6.9031 36.5651 6.60275 36.3629 6.30239 36.1534C5.87331 35.8573 5.46568 35.5468 5.06521 35.2218V26.6851L5.38702 26.3674L8.58366 23.1896L5.06521 19.6507V13.6418H7.21061V18.7407L9.356 20.9073V11.5184H0.774414V9.35177L11.5014 9.33008ZM6.00203 23.1607L2.91981 20.1201V13.6634H0.774414V21.0301L2.91981 23.1607L0.774414 25.3273V30.484C1.28372 31.3055 1.86534 32.079 2.51219 32.7951C2.64091 32.9467 2.77679 33.0912 2.91981 33.2428V26.2084L6.00203 23.1607ZM19.7612 26.3457L16.5645 23.1679L20.083 19.6507V13.6418H17.9376V18.7407L15.7922 20.9073V11.5184H24.3738V9.35177H13.6468V39.0206C14.1259 38.8184 14.5908 38.609 15.0342 38.3923L15.7922 38.0096V25.4284L17.9376 27.5951V36.7745L18.8744 36.1534C19.2892 35.8573 19.6897 35.554 20.083 35.2434V26.6851L19.7612 26.3457ZM22.2141 23.1607L24.3595 21.0301V13.6634H22.2141V20.1201L19.1319 23.1607L22.2141 26.2012V33.2573L22.636 32.7951C23.2774 32.0744 23.8586 31.3014 24.3738 30.484V25.2696L22.2141 23.1607Z" fill="url(#paint0_linear_201_2124)"/>
<path d="M45.2772 12.645H42.8672V26.8294H45.2772V20.5316H47.7301V18.365H45.2772V12.645Z" fill="#1F5187"/>
<path d="M78.4814 32.3331H80.9415V12.6597H78.4814V32.3331Z" fill="#1F5187"/>
<path d="M149.208 18.3942H147.778V12.6597H145.375V23.7025H139.346V15.6786H143.801V13.5119H136.943V24.4102C137 24.837 137.213 25.227 137.54 25.5036C137.866 25.7802 138.284 25.9235 138.71 25.9053H145.389V32.3402H147.763V20.5897H149.194V32.3475H151.611V12.6741H149.194L149.208 18.3942Z" fill="#1F5187"/>
<path d="M167.887 12.6523H165.47V24.439H167.887V19.5351H170.612V17.3684H167.887V12.6523Z" fill="#1F5187"/>
<path d="M40.4213 19.4558C40.415 18.8608 40.2776 18.2747 40.019 17.7401C39.7605 17.2054 39.3874 16.7356 38.9267 16.3647H41.3224V14.2775H37.3177V12.2842H34.8647V14.2775H30.8457V16.3647H33.177C32.7163 16.7356 32.3432 17.2054 32.0847 17.7401C31.8262 18.2747 31.6887 18.8608 31.6824 19.4558C31.7463 20.5825 32.2344 21.6419 33.0469 22.4167C33.8593 23.1916 34.9344 23.6232 36.0519 23.6232C37.1693 23.6232 38.2444 23.1916 39.0569 22.4167C39.8693 21.6419 40.3575 20.5825 40.4213 19.4558V19.4558ZM34.0638 19.4558C34.0778 19.0621 34.2062 18.6813 34.4331 18.3607C34.6599 18.0402 34.975 17.7941 35.3393 17.6532C35.7036 17.5122 36.1009 17.4826 36.4817 17.5681C36.8625 17.6535 37.21 17.8502 37.481 18.1336C37.7519 18.4171 37.9343 18.7748 38.0054 19.1621C38.0764 19.5495 38.0331 19.9494 37.8808 20.3121C37.7284 20.6748 37.4738 20.9843 37.1486 21.2018C36.8234 21.4194 36.442 21.5355 36.0519 21.5358C35.5157 21.5244 35.0058 21.2994 34.6333 20.9097C34.2608 20.52 34.0561 19.9973 34.0638 19.4558Z" fill="#1F5187"/>
<path d="M163.411 19.4558C163.404 18.8608 163.267 18.2747 163.008 17.7401C162.75 17.2054 162.377 16.7356 161.916 16.3647H164.312V14.2775H160.314V12.2842H157.861V14.2775H153.813V16.3647H156.145C155.684 16.7356 155.311 17.2054 155.052 17.7401C154.794 18.2747 154.657 18.8608 154.65 19.4558C154.714 20.5825 155.202 21.6419 156.015 22.4167C156.827 23.1916 157.902 23.6232 159.02 23.6232C160.137 23.6232 161.212 23.1916 162.025 22.4167C162.837 21.6419 163.325 20.5825 163.389 19.4558H163.411ZM157.046 19.4558C157.059 19.0603 157.186 18.6773 157.413 18.3546C157.64 18.0319 157.956 17.7838 158.321 17.6412C158.687 17.4986 159.086 17.4678 159.468 17.5527C159.851 17.6377 160.2 17.8346 160.473 18.1188C160.746 18.403 160.929 18.762 161.001 19.151C161.073 19.54 161.03 19.9418 160.878 20.3062C160.725 20.6706 160.469 20.9816 160.143 21.2003C159.816 21.4189 159.433 21.5356 159.041 21.5358C158.504 21.5263 157.992 21.302 157.618 20.9121C157.244 20.5223 157.038 19.9986 157.046 19.4558V19.4558Z" fill="#1F5187"/>
<path d="M91.3893 15.9026L97.6252 19.4559L98.5048 17.7082L92.5692 14.0971V12.4287H90.1592V14.1115L84.2236 17.7226L85.1032 19.4704L91.3893 15.9026Z" fill="#1F5187"/>
<path d="M181.703 26.7864V20.373H179.286V26.7575H177.333V20.373H174.923V26.7575H171.169V28.9241H187.81V26.7575L181.703 26.7864Z" fill="#1F5187"/>
<path d="M36.531 25.8906H34.0352V30.5562C34.0886 30.983 34.2994 31.374 34.6254 31.651C34.9514 31.9281 35.3688 32.0709 35.7944 32.0512H45.463V29.8845H36.531V25.8906Z" fill="#1F5187"/>
<path d="M82.8359 22.6047H90.209V23.8109H85.6178V25.7536H94.6714V27.0464H85.6178V30.5564C85.6729 30.9839 85.8851 31.3749 86.2123 31.6518C86.5395 31.9287 86.9578 32.0714 87.3842 32.0514H97.5462V30.0581H88.3568V28.8736H97.1243V23.8181H92.6189V22.6119H99.9991V20.5103H82.8359V22.6047Z" fill="#1F5187"/>
<path d="M183.263 24.988H185.63V14.9925C185.575 14.565 185.362 14.174 185.035 13.8971C184.708 13.6202 184.29 13.4775 183.863 13.4974H173.122V15.6641H183.277L183.263 24.988Z" fill="#1F5187"/>
<path d="M111.227 20.373H108.817V26.7575H106.865V20.373H104.469V26.7575H100.715V28.9241H117.342V26.7575H111.227V20.373Z" fill="#1F5187"/>
<path d="M112.814 24.988H115.196V14.9925C115.14 14.565 114.928 14.174 114.601 13.8971C114.274 13.6202 113.856 13.4775 113.429 13.4974H102.702V15.6641H112.864L112.814 24.988Z" fill="#1F5187"/>
<path d="M62.9917 14.5949C62.9365 14.1674 62.7243 13.7764 62.3972 13.4995C62.07 13.2226 61.6517 13.0801 61.2253 13.1H51.1419V15.2666H60.5745V20.3727H48.8535V22.5394H55.9476V25.2043H51.2063V27.371H60.6031V32.4844H62.9917V26.7066C62.9365 26.2791 62.7243 25.8881 62.3972 25.6112C62.07 25.3343 61.6517 25.1917 61.2253 25.2116H58.3648V22.5394H65.4803V20.3727H62.9917V14.5949Z" fill="#1F5187"/>
<path d="M118.414 23.4571H123.12V25.4649H120.974V27.5954H130.328V32.4559H132.738V26.9887C132.683 26.5625 132.472 26.1726 132.146 25.8959C131.821 25.6191 131.404 25.4756 130.979 25.4937H130.307V23.486H135.055V21.3843H118.414V23.4571ZM125.565 23.4571H127.911V25.4649H125.565V23.4571Z" fill="#1F5187"/>
<path d="M166.092 25.544H156.952V27.7107H165.469V32.4484H167.887V27.0607C167.828 26.6275 167.612 26.232 167.28 25.9514C166.948 25.6709 166.524 25.5256 166.092 25.544V25.544Z" fill="#1F5187"/>
<path d="M126.717 20.7194C127.563 20.6645 128.375 20.3609 129.052 19.8459C129.73 19.3309 130.244 18.6271 130.53 17.821C130.817 17.015 130.864 16.142 130.665 15.3094C130.466 14.4768 130.031 13.7209 129.413 13.1349C128.794 12.549 128.02 12.1585 127.184 12.0115C126.349 11.8645 125.489 11.9673 124.711 12.3075C123.933 12.6476 123.27 13.2101 122.804 13.9258C122.339 14.6415 122.09 15.4792 122.09 16.3356C122.129 17.5361 122.638 18.6719 123.506 19.4938C124.373 20.3157 125.528 20.7564 126.717 20.7194V20.7194ZM126.717 14.0389C127.169 14.0245 127.616 14.1469 127.999 14.3904C128.382 14.6338 128.685 14.9873 128.868 15.4055C129.051 15.8237 129.107 16.2875 129.027 16.7377C128.948 17.1878 128.737 17.6038 128.422 17.9323C128.107 18.2607 127.702 18.4867 127.259 18.5813C126.816 18.676 126.355 18.635 125.935 18.4634C125.516 18.2919 125.156 17.9978 124.903 17.6187C124.65 17.2396 124.514 16.7928 124.514 16.3356C124.509 16.0387 124.563 15.7438 124.671 15.4677C124.779 15.1916 124.94 14.9397 125.144 14.7264C125.349 14.5132 125.593 14.3427 125.863 14.2247C126.133 14.1067 126.423 14.0436 126.717 14.0389V14.0389Z" fill="#1F5187"/>
<path d="M73.8329 13.6633H66.8604V15.83H73.1035V19.6506L67.1822 25.6451L68.8055 27.2411L75.1201 20.7411C75.422 20.4361 75.5939 20.0241 75.5993 19.5928V15.1078C75.5328 14.6895 75.3158 14.3108 74.9898 14.0442C74.6638 13.7776 74.2518 13.642 73.8329 13.6633V13.6633Z" fill="#1F5187"/>
<path d="M165.148 -0.000976562V1.37118H166.793V7.87117H168.116V1.37118H169.725V-0.000976562H165.119H165.148Z" fill="#F39200"/>
<path d="M170.611 -0.00107151V7.84225H174.974V6.47724H171.963V4.40447H174.33V3.03946H171.963V1.36394H174.974V-0.00830078H170.611V-0.00107151Z" fill="#F39200"/>
<path d="M178.842 -0.000976562H177.269C176.897 0.0102944 176.544 0.167426 176.285 0.4371C176.026 0.706774 175.882 1.06777 175.882 1.44347V6.49902C175.87 6.68819 175.897 6.8778 175.962 7.05568C176.027 7.23356 176.128 7.39578 176.258 7.53184C176.389 7.6679 176.546 7.7748 176.721 7.8457C176.895 7.91659 177.081 7.94991 177.269 7.94347H178.842C179.222 7.94347 179.585 7.79126 179.854 7.52038C180.122 7.24949 180.273 6.88211 180.273 6.49902V5.73343H178.842V6.41959C178.841 6.43733 178.837 6.4547 178.829 6.47064C178.821 6.48657 178.811 6.50065 178.797 6.51216C178.784 6.52366 178.768 6.53228 178.751 6.53746C178.735 6.54264 178.717 6.54431 178.699 6.54231H177.341C177.299 6.53407 177.261 6.51168 177.234 6.47883C177.207 6.44598 177.191 6.40465 177.19 6.36176V1.58065C177.189 1.56262 177.192 1.5446 177.198 1.52757C177.204 1.51055 177.213 1.49488 177.225 1.48147C177.237 1.46805 177.252 1.45714 177.268 1.44937C177.284 1.44161 177.301 1.43716 177.319 1.43624H178.699C178.699 1.43624 178.842 1.43618 178.842 1.55896V2.23789H180.208V1.51567C180.218 1.32535 180.19 1.13501 180.127 0.95558C180.063 0.776145 179.965 0.61114 179.838 0.470161C179.711 0.329181 179.558 0.214953 179.387 0.134087C179.216 0.0532216 179.031 0.00735152 178.842 -0.000976562Z" fill="#F39200"/>
<path d="M185.55 -0.00107151H184.263V3.03946H182.611V-0.00830078H181.267V7.83502H182.611V4.39724H184.263V7.83502H185.629V-0.00830078L185.55 -0.00107151Z" fill="#F39200"/>
<path d="M162.18 -0.000976562H160.599C160.227 0.0102944 159.875 0.167426 159.616 0.4371C159.357 0.706774 159.212 1.06777 159.212 1.44347V7.87117H160.564V5.09787H162.215V7.87117H163.574V1.44347C163.574 1.06655 163.429 0.704503 163.168 0.434631C162.907 0.16476 162.553 0.0084463 162.18 -0.000976562ZM162.215 3.71126H160.564V1.48676C160.564 1.37842 160.692 1.3784 160.707 1.3784H162.065C162.065 1.3784 162.215 1.37842 162.215 1.48676V3.71126Z" fill="#1F5187"/>
<path d="M139.932 -0.000976562V1.59511L138.28 3.26348V0.013482H136.929V7.8568H138.28V4.24569L139.224 5.19899L139.939 5.92121V7.8784H141.298V5.36509L139.711 3.76177L141.298 2.17292V0.00625271H139.939L139.932 -0.000976562Z" fill="#1F5187"/>
<path d="M145.51 -0.000976562H143.93C143.559 0.0121305 143.208 0.17009 142.951 0.439568C142.693 0.709047 142.549 1.06898 142.55 1.44347V6.45565C142.538 6.64419 142.565 6.83317 142.629 7.01054C142.694 7.18791 142.794 7.34978 142.924 7.48573C143.054 7.62168 143.21 7.72876 143.384 7.80012C143.557 7.87147 143.743 7.90551 143.93 7.90009H145.51C145.883 7.89067 146.238 7.73435 146.499 7.46448C146.759 7.19461 146.905 6.83256 146.905 6.45565V1.44347C146.905 1.06655 146.759 0.704503 146.499 0.434631C146.238 0.16476 145.883 0.0084463 145.51 -0.000976562ZM145.546 6.35453C145.545 6.37227 145.541 6.38964 145.533 6.40557C145.525 6.42151 145.514 6.43568 145.501 6.44718C145.487 6.45869 145.472 6.4673 145.455 6.47249C145.438 6.47767 145.421 6.47933 145.403 6.47733H144.044C144.003 6.46909 143.965 6.44671 143.938 6.41386C143.91 6.38101 143.895 6.33967 143.894 6.29678V1.51567C143.894 1.4805 143.907 1.44661 143.931 1.42107C143.955 1.39554 143.988 1.38026 144.023 1.3784H145.403C145.403 1.3784 145.546 1.37842 145.546 1.48676V6.35453Z" fill="#1F5187"/>
<path d="M153.856 -0.00107151V7.84225H158.219V6.47724H155.201V4.40447H157.568V3.03946H155.201V1.37108H158.219V-0.00830078H153.856V-0.00107151Z" fill="#1F5187"/>
<path d="M148.164 -0.00115288V7.84217H149.523V4.40439H150.824C150.916 4.40615 151.003 4.44301 151.068 4.50745C151.133 4.57189 151.171 4.65903 151.175 4.75104V7.84217H152.534V4.62823C152.384 4.53233 152.262 4.40003 152.177 4.24349C152.091 4.08695 152.047 3.91124 152.047 3.73268C152.047 3.55412 152.091 3.3785 152.177 3.22196C152.262 3.06542 152.384 2.93303 152.534 2.83713V2.83713V1.39269C152.534 1.01577 152.388 0.653721 152.127 0.38385C151.867 0.113979 151.512 -0.042335 151.139 -0.0517578L148.164 -0.00115288ZM151.168 2.64212C151.17 2.69706 151.16 2.75189 151.14 2.80292C151.12 2.85396 151.089 2.90006 151.05 2.93825C151.011 2.97645 150.964 3.0058 150.913 3.02448C150.862 3.04315 150.807 3.05072 150.753 3.0466H149.523V1.37823H151.06C151.132 1.37823 151.175 1.45772 151.175 1.5155L151.168 2.64212Z" fill="#1F5187"/>
</g>
<defs>
<linearGradient id="paint0_linear_201_2124" x1="12.5884" y1="9.33008" x2="12.5884" y2="38.999" gradientUnits="userSpaceOnUse">
<stop offset="0.17" stop-color="#F6A500"/>
<stop offset="0.5" stop-color="#F29100"/>
<stop offset="0.73" stop-color="#ED7203"/>
<stop offset="1" stop-color="#E95A0C"/>
</linearGradient>
<clipPath id="clip0_201_2124">
<rect width="187" height="39" fill="white" transform="translate(0.789062 -0.000976562)"/>
</clipPath>
</defs>
</svg>
