<svg width="187" height="40" viewBox="0 0 187 40" fill="none" xmlns="http://www.w3.org/2000/svg">
<g clip-path="url(#clip0_201_1802)">
<path d="M14.7173 7.50292L5.92112 12.6957V23.4692L0.790039 20.4383V11.0366C0.813188 10.6336 0.928729 10.2416 1.12756 9.8914C1.32638 9.54117 1.60307 9.24231 1.93582 9.01838L15.3791 1.11782C15.7317 0.93216 16.1236 0.835205 16.5213 0.835205C16.9191 0.835205 17.3109 0.93216 17.6635 1.11782L21.5421 3.46646L14.7173 7.51011V7.50292Z" fill="#006BAB"/>
<path d="M27.1286 25.0421V12.8322L17.877 7.24435L22.8586 4.26367L31.0712 9.22668C31.4005 9.45297 31.6739 9.75267 31.8701 10.1026C32.0663 10.4526 32.1801 10.8435 32.2027 11.2449V26.651C32.182 27.0527 32.0682 27.4439 31.8705 27.7932C31.6727 28.1425 31.3965 28.4401 31.064 28.662L27.0787 31.0178V25.0206L27.1286 25.0421Z" fill="#006BAB"/>
<path d="M5.9214 25.0852L16.4754 31.341L25.727 25.8681V31.8653L17.5784 36.6775C17.2253 36.8614 16.8336 36.9574 16.4362 36.9574C16.0388 36.9574 15.6472 36.8614 15.294 36.6775L1.92898 28.7769C1.59623 28.553 1.31955 28.2542 1.12072 27.9039C0.921893 27.5537 0.806352 27.1617 0.783203 26.7587V22.0471L5.91429 25.0852H5.9214Z" fill="#006BAB"/>
<path d="M24.4808 19.2962V16.0426C24.4808 15.6616 24.3309 15.2962 24.0639 15.0269C23.797 14.7575 23.435 14.6062 23.0575 14.6062H17.9335V13.0691C17.9298 12.7186 17.7897 12.3835 17.5434 12.1363C17.2971 11.889 16.9643 11.7494 16.6169 11.7476H16.5387C16.192 11.7494 15.86 11.8893 15.6148 12.1367C15.3696 12.3842 15.2311 12.7192 15.2292 13.0691V14.6349H10.0981C9.72064 14.6349 9.35861 14.7862 9.09169 15.0556C8.82476 15.325 8.6748 15.6904 8.6748 16.0713V20.2514V23.3039C8.67667 23.6348 8.80774 23.9516 9.03956 24.1855C9.27138 24.4195 9.58526 24.5518 9.9131 24.5536V24.5536C10.2415 24.5536 10.5565 24.422 10.7887 24.1876C11.0209 23.9532 11.1514 23.6354 11.1514 23.3039V21.6879V17.9675C11.1514 17.7058 11.2539 17.4548 11.4365 17.2691C11.6192 17.0835 11.8671 16.9782 12.1264 16.9763V16.9763C12.3856 16.9782 12.6336 17.0835 12.8162 17.2691C12.9989 17.4548 13.1013 17.7058 13.1013 17.9675V23.2967C13.1013 23.6282 13.2318 23.946 13.464 24.1804C13.6963 24.4148 14.0112 24.5465 14.3396 24.5465V24.5465C14.668 24.5465 14.983 24.4148 15.2152 24.1804C15.4475 23.946 15.5779 23.6282 15.5779 23.2967V21.6879V17.9675C15.5779 17.7058 15.6804 17.4548 15.8631 17.2691C16.0457 17.0835 16.2937 16.9782 16.5529 16.9763V16.9763C16.8121 16.9782 17.0601 17.0835 17.2427 17.2691C17.4254 17.4548 17.5279 17.7058 17.5279 17.9675V23.2967C17.5279 23.6282 17.6583 23.946 17.8906 24.1804C18.1228 24.4148 18.4378 24.5465 18.7662 24.5465C19.094 24.5446 19.4079 24.4123 19.6397 24.1784C19.8715 23.9444 20.0026 23.6276 20.0045 23.2967V17.9675C20.0035 17.8377 20.028 17.7089 20.0766 17.5887C20.1252 17.4685 20.1969 17.3592 20.2875 17.267C20.3781 17.1749 20.4859 17.1018 20.6047 17.0519C20.7234 17.002 20.8508 16.9763 20.9794 16.9763V16.9763C21.1081 16.9763 21.2354 17.002 21.3542 17.0519C21.473 17.1018 21.5808 17.1749 21.6714 17.267C21.762 17.3592 21.8337 17.4685 21.8823 17.5887C21.9308 17.7089 21.9554 17.8377 21.9544 17.9675V23.2967C21.9563 23.6288 22.0883 23.9467 22.3217 24.1809C22.5551 24.415 22.8707 24.5465 23.1998 24.5465V24.5465C23.5282 24.5465 23.8432 24.4148 24.0754 24.1804C24.3077 23.946 24.4381 23.6282 24.4381 23.2967V19.2818L24.4808 19.2962Z" fill="#006BAB"/>
<path fill-rule="evenodd" clip-rule="evenodd" d="M39.9316 18.5995H48.7064V21.6161H51.7737V18.5995H60.0859V16.4448H39.9316V18.5995Z" fill="#6A6A6A"/>
<path d="M77.0376 21.4653V23.462H65.9712V21.4653H63.2527V27.714C63.2242 28.174 63.3634 28.6287 63.6441 28.9924C64.0117 29.3171 64.4864 29.4913 64.9749 29.4808H78.2759C78.4707 29.5001 78.6673 29.4746 78.851 29.4062C79.0346 29.3378 79.2005 29.2282 79.3362 29.0858C79.5985 28.6801 79.7142 28.1956 79.6636 27.714V21.4653H77.0376V21.4653ZM77.0376 25.6598V27.1825H65.9712V25.6598H77.0376Z" fill="#6A6A6A"/>
<path d="M41.6113 10.2679H54.4212C54.5473 10.2528 54.6743 10.2861 54.7771 10.3612C54.8455 10.4648 54.8757 10.5894 54.8625 10.7132V10.9143C54.8705 12.1473 54.7849 13.3791 54.6063 14.5988C54.4888 15.5275 54.2016 16.4261 53.7594 17.2491H56.3285C56.8096 16.4898 57.1317 15.6393 57.275 14.7497C57.4923 13.5655 57.5948 12.3628 57.581 11.1585V8.40049C57.585 8.33214 57.562 8.26497 57.517 8.21374C57.4937 8.19017 57.466 8.17164 57.4354 8.15929C57.4048 8.14694 57.372 8.14105 57.3391 8.14193H41.6113V10.2535V10.2679Z" fill="#6A6A6A"/>
<path fill-rule="evenodd" clip-rule="evenodd" d="M77.3433 17.0409H65.8073C65.6942 17.045 65.5841 17.0037 65.5013 16.9259C65.4573 16.878 65.4238 16.8212 65.403 16.7594C65.3822 16.6975 65.3744 16.6319 65.3803 16.5668V14.5917H75.1372L75.0589 8.23535H62.5479L62.6261 10.2392H72.625V12.3939H62.6261V16.811C62.6261 19.447 64.2345 19.2387 65.6009 19.2602H77.3931L77.3433 17.1055V17.0409Z" fill="#6A6A6A"/>
<path fill-rule="evenodd" clip-rule="evenodd" d="M79.7776 20.3808L79.6993 8.20679H79.1727H77.0234L77.1017 20.3808H79.7776Z" fill="#6A6A6A"/>
<path fill-rule="evenodd" clip-rule="evenodd" d="M56.826 21.3933H41.5537V23.548H54.2284C54.2592 23.5458 54.2902 23.5497 54.3195 23.5595C54.3488 23.5694 54.3759 23.585 54.3992 23.6054C54.4399 23.6559 54.4602 23.72 54.4562 23.785V29.3513H57.3028V21.8745C57.3074 21.7448 57.2614 21.6184 57.1747 21.5226C57.1326 21.4784 57.0816 21.444 57.0251 21.4217C56.9686 21.3994 56.9079 21.3897 56.8473 21.3933H56.826Z" fill="#6A6A6A"/>
<path fill-rule="evenodd" clip-rule="evenodd" d="M87.9761 27.1968C87.9144 27.1252 87.8814 27.0331 87.8835 26.9382V21.9824H85.1009V27.4985C85.076 27.7555 85.1022 28.0149 85.178 28.2616C85.2537 28.5083 85.3776 28.7372 85.5422 28.9349C85.7359 29.1054 85.962 29.2341 86.2068 29.3131C86.4515 29.3922 86.7097 29.4199 86.9655 29.3946H101.199V27.2902H88.2251C88.1335 27.2912 88.0448 27.258 87.9761 27.1968V27.1968Z" fill="#6A6A6A"/>
<path fill-rule="evenodd" clip-rule="evenodd" d="M85.3995 16.6962C86.0936 16.6884 86.7851 16.6089 87.4633 16.4592C88.2151 16.2913 88.9491 16.0508 89.6552 15.741C90.2975 15.4723 90.9046 15.125 91.4628 14.7068C91.9949 14.3177 92.4489 13.8303 92.8008 13.2703C92.8183 13.2318 92.8464 13.1992 92.8817 13.1763C92.917 13.1534 92.9581 13.1412 93 13.141C93.0393 13.1445 93.077 13.1583 93.1095 13.1809C93.1419 13.2036 93.1679 13.2344 93.1851 13.2703C93.5173 13.8174 93.9554 14.2912 94.4732 14.6636C95.0148 15.0643 95.5969 15.4062 96.2096 15.6835C96.9455 16.0057 97.7139 16.2466 98.5012 16.4018C99.187 16.5476 99.8855 16.6246 100.586 16.6316L102.152 14.8576C102.171 14.8391 102.185 14.8165 102.193 14.7916C102.202 14.7667 102.205 14.7401 102.202 14.7139C102.202 14.6564 102.159 14.6205 102.088 14.6205C101.345 14.6132 100.604 14.5387 99.8747 14.3979C99.0602 14.26 98.2663 14.0187 97.512 13.6796C96.6962 13.3169 95.9678 12.7803 95.377 12.1067C95.0824 11.793 94.8532 11.423 94.7028 11.0183C94.5525 10.6137 94.4841 10.1827 94.5016 9.75093V8.67358H91.4699V9.98796C91.5007 10.7588 91.2471 11.5137 90.7583 12.1067C90.2569 12.7302 89.6282 13.2373 88.9151 13.5935C88.1375 13.9949 87.3053 14.2781 86.4456 14.4338C85.6126 14.5937 84.7671 14.6778 83.9192 14.6852C83.8552 14.6852 83.8267 14.6852 83.8125 14.7786C83.8028 14.8 83.7979 14.8232 83.7979 14.8468C83.7979 14.8703 83.8028 14.8936 83.8125 14.915L85.3852 16.6962H85.3995Z" fill="#6A6A6A"/>
<path fill-rule="evenodd" clip-rule="evenodd" d="M82.959 20.5889H91.684V24.0148H94.7299V20.5889H102.992V18.5132H82.959V20.5889Z" fill="#6A6A6A"/>
<path fill-rule="evenodd" clip-rule="evenodd" d="M106.202 19.7487C107.209 19.6207 108.171 19.2486 109.006 18.6642C109.892 18.1684 110.613 17.4186 111.077 16.5095C111.119 16.4233 111.176 16.3802 111.248 16.3874C111.281 16.3896 111.313 16.4027 111.339 16.4247C111.364 16.4467 111.382 16.4764 111.39 16.5095C111.869 17.4401 112.612 18.2053 113.525 18.7073C114.353 19.2764 115.301 19.6429 116.293 19.7775L117.809 18.2405C117.859 18.1902 117.873 18.1543 117.866 18.1255C117.859 18.0968 117.816 18.0681 117.745 18.0537C117.169 17.9409 116.606 17.7676 116.066 17.5366C115.512 17.3593 114.99 17.0925 114.521 16.7465C113.987 16.3393 113.548 15.8197 113.233 15.2239C112.85 14.489 112.677 13.6607 112.735 12.8322V12.7173H116.927V10.62H112.735V8.68799H109.767V10.62H105.59V12.7173H109.782V12.8322C109.813 13.5361 109.678 14.2374 109.39 14.8791C109.121 15.4823 108.731 16.0227 108.244 16.4664C107.768 16.9258 107.204 17.2826 106.586 17.515C106.01 17.7824 105.399 17.9639 104.771 18.0537C104.715 18.0537 104.672 18.0896 104.658 18.1255C104.643 18.1614 104.658 18.1902 104.707 18.2405L106.223 19.7775L106.202 19.7487Z" fill="#6A6A6A"/>
<path fill-rule="evenodd" clip-rule="evenodd" d="M120.406 14.5487H117.531V16.6675H120.406V23.699H123.132V8.65918H120.406V14.5487Z" fill="#6A6A6A"/>
<path fill-rule="evenodd" clip-rule="evenodd" d="M109.931 27.1894C109.869 27.1179 109.836 27.0257 109.838 26.9309V21.9751H107.084V27.4911C107.059 27.7481 107.086 28.0076 107.161 28.2543C107.237 28.501 107.361 28.7299 107.526 28.9276C107.715 29.0942 107.935 29.2207 108.173 29.2997C108.412 29.3786 108.663 29.4084 108.913 29.3872H123.047V27.2828H110.237C110.145 27.2853 110.056 27.2518 109.988 27.1894H109.931Z" fill="#6A6A6A"/>
<path fill-rule="evenodd" clip-rule="evenodd" d="M141.016 8.68799V15.0012H139.159V8.68799H136.59V22.1476C136.234 22.2999 135.861 22.4085 135.48 22.4709C134.941 22.556 134.395 22.5945 133.85 22.5858H129.217C129.104 22.5899 128.994 22.5486 128.911 22.4709C128.867 22.4256 128.834 22.3713 128.813 22.3118C128.792 22.2523 128.784 22.1889 128.79 22.1261V12.6885H134.419V10.6057H126.057V21.925C126.03 22.3137 126.079 22.7041 126.201 23.0738C126.323 23.4435 126.516 23.7853 126.769 24.0797C127.04 24.331 127.359 24.5242 127.707 24.6477C128.054 24.7711 128.423 24.8222 128.79 24.7979H132.982C133.695 24.8056 134.407 24.7744 135.117 24.7046C135.621 24.6608 136.117 24.5447 136.59 24.3598V29.3874H139.152V17.0769H141.009V29.409H143.578V8.68799H141.016Z" fill="#6A6A6A"/>
<path fill-rule="evenodd" clip-rule="evenodd" d="M163.42 21.8172H148.624V23.8929H160.836C160.898 23.8905 160.959 23.911 161.007 23.9503C161.043 24.0007 161.062 24.0608 161.064 24.1227V29.3586H163.868V22.2768C163.87 22.2159 163.86 22.155 163.838 22.0982C163.816 22.0414 163.782 21.9897 163.74 21.9464C163.698 21.9036 163.648 21.87 163.593 21.8477C163.538 21.8255 163.479 21.815 163.42 21.8172V21.8172Z" fill="#6A6A6A"/>
<path fill-rule="evenodd" clip-rule="evenodd" d="M163.946 8.63037H161.206L161.249 20.8978H163.946V15.1232H166.195V12.8177H163.946V8.63037Z" fill="#6A6A6A"/>
<path fill-rule="evenodd" clip-rule="evenodd" d="M158.274 10.5624H153.918V8.63037H151V10.5624H146.73V12.7171H148.467C148.167 13.1615 147.928 13.6447 147.755 14.1536C147.478 14.9962 147.445 15.9016 147.662 16.7623C147.879 17.6229 148.336 18.4026 148.979 19.0088C149.923 19.9131 151.175 20.4172 152.477 20.4172C153.779 20.4172 155.031 19.9131 155.975 19.0088C156.442 18.5799 156.814 18.0561 157.067 17.4719C157.32 16.8877 157.447 16.2562 157.441 15.6188C157.441 15.1296 157.359 14.644 157.199 14.1823C157.043 13.6733 156.815 13.1896 156.523 12.7458H158.288V10.5911L158.274 10.5624ZM154.004 17.5005C153.829 17.7493 153.597 17.9522 153.328 18.0921C153.06 18.2321 152.762 18.3051 152.459 18.3049C152.156 18.3045 151.857 18.229 151.589 18.085C151.321 17.9411 151.092 17.733 150.922 17.479C150.516 16.9299 150.301 16.2608 150.31 15.5757C150.3 14.8921 150.533 14.2274 150.965 13.7011C151.141 13.4604 151.369 13.2634 151.631 13.1252C151.894 12.987 152.185 12.9113 152.481 12.9039C152.789 12.8948 153.095 12.9644 153.37 13.1062C153.645 13.2481 153.88 13.4576 154.053 13.7155C154.454 14.2693 154.664 14.9403 154.651 15.6259C154.664 16.3016 154.451 16.9619 154.046 17.5005H154.004Z" fill="#6A6A6A"/>
<path d="M169.318 12.6885H182.285C182.406 12.6757 182.528 12.709 182.626 12.7819C182.694 12.8832 182.724 13.0052 182.712 13.1266V17.3786C182.727 18.6531 182.659 19.9272 182.505 21.1924C182.393 22.0956 182.116 22.9699 181.687 23.7708H184.171C184.639 23.0315 184.952 22.2027 185.089 21.336C185.28 20.1081 185.366 18.8657 185.345 17.6228V10.8355C185.349 10.7671 185.326 10.7 185.281 10.6487C185.258 10.6267 185.232 10.6095 185.202 10.5984C185.173 10.5873 185.141 10.5824 185.11 10.5841H169.318V12.7388V12.6885Z" fill="#6A6A6A"/>
<path d="M180.2 27.3619V18.2979H177.566V27.3619" fill="#6A6A6A"/>
<path d="M186.669 27.3619H174.741V18.2979H172.101V27.3619H167.71V29.4089H186.669V27.3619Z" fill="#6A6A6A"/>
<path d="M41.1558 38.7171C41.5309 38.9276 41.9509 39.0434 42.3799 39.0547C42.9706 39.0547 43.4403 38.7889 43.4403 38.4585C43.4403 37.5033 41.0918 36.1171 41.0918 34.8674C41.0918 34.0342 42.0027 33.4309 43.3122 33.4309C43.7093 33.4306 44.1045 33.4862 44.4864 33.5961V34.3144C44.1724 34.1935 43.8403 34.1279 43.5043 34.1204C42.7927 34.1204 42.444 34.3144 42.444 34.7094C42.444 35.7005 44.7924 37.0293 44.7924 38.3006C44.7924 39.1481 43.8744 39.737 42.5436 39.737C42.0701 39.7418 41.5998 39.659 41.1558 39.4928V38.674V38.7171Z" fill="#6A6A6A"/>
<path d="M41.0488 34.8531C41.0488 35.5713 41.7178 36.2464 42.3654 36.9359C42.8991 37.5033 43.4044 38.0276 43.4044 38.4586C43.4044 38.7674 42.9418 39.0188 42.3796 39.0188C41.9544 39.0062 41.5388 38.8878 41.1698 38.6741H41.12V39.5862C41.5744 39.7602 42.0574 39.8456 42.5433 39.8376C43.8955 39.8376 44.8349 39.2343 44.8349 38.4011C44.8349 37.6829 44.1659 36.9647 43.5254 36.3326C42.8849 35.7006 42.4864 35.2337 42.4864 34.7956C42.4864 34.3575 42.828 34.2569 43.5041 34.2569C43.8374 34.2611 44.1674 34.3243 44.479 34.4437H44.5289V33.6105C44.1447 33.4999 43.747 33.4443 43.3475 33.4453C42.0167 33.4453 41.0844 34.0415 41.0844 34.8818L41.0488 34.8531ZM43.4756 38.4442C43.4756 37.9846 42.9632 37.4459 42.4152 36.8569C41.8672 36.268 41.12 35.4995 41.12 34.8387C41.12 34.0343 42.0238 33.4597 43.3119 33.4597C43.6977 33.4612 44.0813 33.5193 44.4506 33.6321V34.2928C44.1477 34.1774 43.8277 34.1142 43.5041 34.1061C42.7924 34.1061 42.4152 34.3216 42.4152 34.7309C42.4152 35.1403 42.9276 35.758 43.4756 36.3254C44.0236 36.8928 44.7637 37.6613 44.7637 38.3365C44.7637 39.1625 43.8457 39.7227 42.5433 39.7227C42.0836 39.7235 41.6268 39.6483 41.1912 39.5V38.7818C41.5574 38.9803 41.9641 39.0909 42.3796 39.105C42.9917 39.105 43.4756 38.8249 43.4756 38.4658V38.4442Z" fill="#6A6A6A"/>
<path d="M47.5105 33.5244V38.1642C47.5105 38.6957 47.8521 39.0404 48.5353 39.0404C49.0833 39.0404 49.5743 38.7891 49.5743 38.2001V33.5244H50.9976V38.1139C50.9976 39.4427 49.4462 39.7802 48.5638 39.7802C47.2116 39.7802 46.1299 39.1482 46.1299 38.1714V33.5244H47.5105Z" fill="#6A6A6A"/>
<path d="M50.9692 33.4741H49.5459V38.2073C49.5459 38.7962 49.0406 39.0045 48.5495 39.0045C47.9233 39.0045 47.5603 38.7101 47.5603 38.1714V33.4813H46.0801V38.2073C46.0801 39.1697 47.1191 39.8592 48.5495 39.8592C49.4676 39.8592 51.019 39.5073 51.019 38.1498V33.5101L50.9692 33.4741ZM50.9692 33.5675V38.1139C50.9692 39.3924 49.4605 39.7371 48.5638 39.7371C47.176 39.7371 46.1726 39.0835 46.1726 38.1714V33.5675H47.5034V38.1642C47.5034 38.7531 47.8877 39.0835 48.5638 39.0835C49.0833 39.0835 49.6313 38.8537 49.6313 38.2001V33.5675H50.9692Z" fill="#6A6A6A"/>
<path d="M52.8125 33.5244H53.9583L56.3779 37.3382H56.4135V33.5244H57.7016V39.694H56.563L54.1433 35.8587H54.1077V39.694H52.8125V33.5244Z" fill="#6A6A6A"/>
<path d="M57.7089 33.4741H56.3781V37.3311C56.3781 37.2449 53.994 33.5029 53.994 33.5029H52.7842V39.7586H54.1506V35.8874C54.1506 35.9736 56.5346 39.7515 56.5346 39.7515H57.7445V33.4957L57.7089 33.4741ZM57.6733 33.5675V39.6437H56.556L54.1648 35.8012L54.1008 35.7079V35.8371V39.6437H52.8554V33.546H53.9655L56.3567 37.3382L56.4208 37.4388V37.3095V33.546L57.6733 33.5675Z" fill="#6A6A6A"/>
<path d="M63.801 39.4283C63.2786 39.6688 62.7098 39.789 62.1357 39.7802C60.2569 39.7802 59.1895 38.6526 59.1895 36.6488C59.1895 34.8604 60.0648 33.4382 62.1713 33.4382C62.6875 33.4558 63.1963 33.5678 63.6729 33.7686V34.5659C63.238 34.3194 62.7483 34.1885 62.2496 34.1852C61.0113 34.1852 60.6484 35.0615 60.6484 36.6057C60.6484 38.272 61.0754 39.0404 62.2994 39.0404C62.8239 39.0176 63.3348 38.8646 63.7868 38.5951V39.4283H63.801Z" fill="#6A6A6A"/>
<path d="M59.1602 36.6487C59.1602 38.6742 60.2419 39.8233 62.1349 39.8233C62.7136 39.8323 63.2871 39.7121 63.8144 39.4714V39.4714V38.5448H63.7646C63.316 38.8081 62.8101 38.9562 62.2915 38.9758C61.1528 38.9758 60.676 38.2576 60.676 36.5841C60.676 34.9106 61.1386 34.1995 62.2417 34.1995C62.7458 34.2135 63.2381 34.3569 63.6721 34.6161H63.729V33.7112C63.2461 33.5157 62.7332 33.4064 62.2132 33.3879C60.2988 33.3879 59.2029 34.5659 59.2029 36.6344L59.1602 36.6487ZM59.2242 36.6487C59.2242 34.6449 60.2988 33.4741 62.1705 33.4741C62.671 33.4951 63.1644 33.602 63.6294 33.7901V34.5084C63.2107 34.2748 62.7414 34.149 62.263 34.1421C61.103 34.1421 60.6333 34.8603 60.6333 36.6057C60.6333 38.351 61.1172 39.0835 62.3128 39.0835C62.8145 39.062 63.3032 38.9165 63.7361 38.6598V39.378C63.2245 39.6122 62.6682 39.7299 62.1064 39.7228C60.2348 39.7228 59.1957 38.6239 59.1957 36.6344L59.2242 36.6487Z" fill="#6A6A6A"/>
<path d="M65.0742 33.5244H66.4762V36.2465H68.5542V33.5244H69.9562V39.694H68.5542V36.9863H66.4762V39.694H65.0742V33.5244Z" fill="#6A6A6A"/>
<path d="M69.9564 33.4741H68.5331V36.1962H66.519V33.4741H65.0459V39.7299H66.519V37.0294H68.5259V39.7299H70.0062V33.4741H69.9564ZM69.9564 33.5675V39.6437H68.6256V36.9145H66.4906V39.6437H65.0957V33.546H66.4336V36.2609H68.5686V33.546L69.9564 33.5675Z" fill="#6A6A6A"/>
<path d="M72.967 36.6057C72.967 35.4996 73.2659 34.1852 74.3903 34.1852C75.3155 34.1852 75.8635 35.0615 75.8635 36.6057C75.8635 38.1499 75.3155 39.0404 74.4401 39.0404C73.5648 39.0404 72.967 38.1642 72.967 36.6057ZM71.501 36.6057C71.501 38.6598 72.7749 39.7802 74.4259 39.7802C75.9275 39.7802 77.3508 38.7747 77.3508 36.6057C77.3508 34.9106 76.3688 33.4382 74.4259 33.4382C72.2909 33.4382 71.501 35.1046 71.501 36.6057Z" fill="#6A6A6A"/>
<path d="M72.9238 36.6056C72.9238 38.2073 73.4576 39.0835 74.4254 39.0835C75.3933 39.0835 75.8986 38.1642 75.8986 36.6056C75.8986 35.0471 75.3506 34.1421 74.397 34.1421C73.059 34.1421 72.9238 35.8658 72.9238 36.6056ZM72.995 36.6056C72.995 35.8874 73.1302 34.2211 74.4183 34.2211C75.3292 34.2211 75.8416 35.0902 75.8416 36.6056C75.8416 38.1211 75.315 38.9973 74.4183 38.9973C73.5216 38.9973 72.995 38.1498 72.995 36.6056Z" fill="#6A6A6A"/>
<path d="M71.458 36.6057C71.458 38.5664 72.6251 39.8233 74.4256 39.8233C74.8366 39.8323 75.2447 39.7534 75.6232 39.5917C76.0018 39.4301 76.3421 39.1893 76.6217 38.8854C76.9014 38.5814 77.1141 38.221 77.2459 37.8281C77.3776 37.4352 77.4255 37.0186 77.3862 36.6057C77.3862 35.0112 76.4752 33.4023 74.4256 33.4023C72.2337 33.4023 71.458 35.1261 71.458 36.6057ZM71.5363 36.6057C71.5363 35.1692 72.2907 33.4741 74.4256 33.4741C76.4254 33.4741 77.315 35.0471 77.315 36.6057C77.3511 37.0078 77.3028 37.413 77.1732 37.795C77.0437 38.177 76.8359 38.5271 76.5632 38.8226C76.2906 39.118 75.9593 39.3522 75.591 39.5098C75.2227 39.6674 74.8256 39.7449 74.4256 39.7372C72.6678 39.7372 71.5363 38.509 71.5363 36.6057Z" fill="#6A6A6A"/>
<path d="M78.9092 33.5244H80.0478L82.4675 37.3382H82.5031V33.5244H83.7912V39.694H82.6454L80.2258 35.8587H80.1973V39.694H78.9092V33.5244Z" fill="#6A6A6A"/>
<path d="M83.7987 33.4741H82.4679V37.3311C82.4679 37.2449 80.0838 33.5029 80.0838 33.5029H78.874V39.7586H80.2333V35.8874C80.2333 35.9736 82.6245 39.7515 82.6245 39.7515H83.8343V33.4957L83.7987 33.4741ZM83.7631 33.5675V39.6437H82.653L80.2618 35.8012L80.1977 35.7079V35.8371V39.6437H78.9737V33.546H80.0411L82.4252 37.3382L82.4893 37.4388V37.3095V33.546L83.7631 33.5675Z" fill="#6A6A6A"/>
<path d="M88.4668 33.5244H89.6197L92.0394 37.3382H92.0678V33.5244H93.363V39.694H92.2102L89.7976 35.8587H89.762V39.694H88.4668V33.5244Z" fill="#6A6A6A"/>
<path d="M93.3632 33.4741H92.0324V37.3311C92.0324 37.2449 89.6483 33.5029 89.6483 33.5029H88.4385V39.7586H89.8049V35.8874C89.8049 35.9736 92.1818 39.7515 92.1818 39.7515H93.3916V33.4957L93.3632 33.4741ZM93.3276 33.5675V39.6437H92.2174L89.8333 35.8012L89.7622 35.7079V35.8371V39.6437H88.5096V33.546H89.6198L92.0039 37.3382L92.0751 37.4388V37.3095V33.546L93.3276 33.5675Z" fill="#6A6A6A"/>
<path d="M96.4089 37.5967L97.1704 35.0039L97.939 37.5967H96.4089ZM94.4092 39.6939H95.7685L96.1883 38.3365H98.2237L98.608 39.6939H99.9673L97.9177 33.4812H96.4943L94.4376 39.6939H94.4092Z" fill="#6A6A6A"/>
<path d="M97.1635 34.9896L96.4092 37.6255H98.0745L97.2561 34.8674L97.1849 34.9896H97.1635ZM97.2347 35.0255C97.2347 35.126 97.8681 37.2735 97.9464 37.5465H96.4804C96.5159 37.4459 97.2347 35.0255 97.2347 35.0255Z" fill="#6A6A6A"/>
<path d="M97.9463 33.4453H96.4731L94.3809 39.7298H95.8042L96.2241 38.3724H98.1954C98.1954 38.4226 98.5868 39.7298 98.5868 39.7298H100.01L97.9392 33.4453H97.9463ZM97.9463 33.5243C97.9463 33.5818 99.9318 39.5503 99.9603 39.6652H98.6864C98.6864 39.6006 98.295 38.2862 98.295 38.2862H96.1956C96.1956 38.2862 95.7828 39.6006 95.7686 39.6652H94.4876C94.5303 39.5503 96.5087 33.5818 96.5301 33.5243H97.9463Z" fill="#6A6A6A"/>
<path d="M101.547 34.257H99.8604V33.5244H104.643V34.257H102.956V39.694H101.547V34.257Z" fill="#6A6A6A"/>
<path d="M104.643 33.4741H99.832V34.3073H101.512V39.7299H102.992V34.3073H104.678V33.4741H104.643ZM104.6 33.5675V34.2211H102.921V39.6437H101.59V34.1995H99.9032V33.546L104.6 33.5675Z" fill="#6A6A6A"/>
<path d="M105.731 33.5244H107.133V39.694H105.731V33.5244Z" fill="#6A6A6A"/>
<path d="M107.141 33.4741H105.718V39.7299H107.198V33.4741H107.141ZM107.106 33.5675V39.6437H105.768V33.546L107.106 33.5675Z" fill="#6A6A6A"/>
<path d="M110.094 36.6057C110.094 35.4996 110.386 34.1852 111.518 34.1852C112.45 34.1852 112.991 35.0615 112.991 36.6057C112.991 38.1499 112.45 39.0404 111.567 39.0404C110.685 39.0404 110.094 38.1642 110.094 36.6057ZM108.621 36.6057C108.621 38.6598 109.902 39.7802 111.546 39.7802C113.055 39.7802 114.478 38.7747 114.478 36.6057C114.478 34.9106 113.496 33.4382 111.546 33.4382C109.411 33.4382 108.621 35.1046 108.621 36.6057Z" fill="#6A6A6A"/>
<path d="M110.059 36.6056C110.059 38.2073 110.592 39.0835 111.567 39.0835C112.542 39.0835 113.048 38.1642 113.048 36.6056C113.048 35.0471 112.492 34.1421 111.532 34.1421C110.201 34.1421 110.059 35.8658 110.059 36.6056V36.6056ZM110.137 36.6056C110.137 35.8874 110.272 34.2211 111.56 34.2211C112.478 34.2211 112.984 35.0902 112.984 36.6056C112.984 38.1211 112.464 38.9973 111.56 38.9973C110.656 38.9973 110.137 38.1498 110.137 36.6056Z" fill="#6A6A6A"/>
<path d="M108.593 36.6057C108.593 38.5665 109.753 39.8233 111.546 39.8233C111.958 39.8334 112.367 39.7552 112.746 39.594C113.125 39.4328 113.467 39.1922 113.747 38.8881C114.027 38.584 114.241 38.2233 114.373 37.8299C114.505 37.4364 114.553 37.0192 114.514 36.6057C114.514 35.0112 113.596 33.4023 111.546 33.4023C109.368 33.4023 108.593 35.1261 108.593 36.6057ZM108.657 36.6057C108.657 35.1692 109.425 33.4741 111.546 33.4741C113.546 33.4741 114.443 35.0471 114.443 36.6057C114.479 37.0084 114.43 37.4142 114.3 37.7967C114.17 38.1792 113.962 38.5298 113.689 38.8253C113.415 39.1209 113.083 39.3549 112.714 39.5121C112.345 39.6692 111.947 39.7459 111.546 39.7372C109.795 39.7372 108.657 38.509 108.657 36.6057Z" fill="#6A6A6A"/>
<path d="M115.994 33.5244H117.14L119.552 37.3382H119.588V33.5244H120.883V39.694H119.737L117.318 35.8587H117.282V39.694H115.994V33.5244Z" fill="#6A6A6A"/>
<path d="M120.883 33.4741H119.56V37.3311C119.56 37.2449 117.176 33.5029 117.176 33.5029H115.966V39.7586H117.325V35.8874C117.325 35.9736 119.709 39.7515 119.709 39.7515H120.926V33.4957L120.883 33.4741ZM120.848 33.5675V39.6437H119.745L117.354 35.8012L117.282 35.7079V35.8371V39.6437H116.065V33.546H117.169L119.56 37.3382L119.624 37.4388L119.659 37.3095V33.546L120.848 33.5675Z" fill="#6A6A6A"/>
<path d="M123.957 37.5967L124.719 35.0039H124.755L125.523 37.5967H123.957ZM121.965 39.6939H123.317L123.744 38.3365H125.772L126.157 39.6939H127.523L125.48 33.4812H124.022L121.965 39.6939V39.6939Z" fill="#6A6A6A"/>
<path d="M124.69 34.9896L123.9 37.6255H125.587L124.769 34.8674L124.705 34.9896H124.69ZM124.754 35.0255C124.754 35.126 125.395 37.2735 125.466 37.5465H123.993C124.028 37.4459 124.74 35.0255 124.74 35.0255H124.754Z" fill="#6A6A6A"/>
<path d="M125.481 33.4453H124L121.908 39.7298H123.332L123.759 38.3724H125.737L126.121 39.7298H127.545L125.481 33.4453V33.4453ZM125.481 33.5243C125.481 33.5818 127.459 39.5503 127.488 39.6652H126.221C126.221 39.6006 125.829 38.2862 125.829 38.2862H123.744C123.744 38.2862 123.346 39.6006 123.317 39.6652H122.029C122.072 39.5503 124.05 33.5818 124.065 33.5243H125.481Z" fill="#6A6A6A"/>
<path d="M128.59 33.5244H129.999V38.9614H132.696V39.694H128.59V33.5244Z" fill="#6A6A6A"/>
<path d="M129.999 33.4741H128.576V39.7299H132.704V38.9255H130.007V33.4813L129.999 33.4741ZM129.999 33.5675V38.9973H132.69V39.6437H128.662V33.546L129.999 33.5675Z" fill="#6A6A6A"/>
<path d="M137.215 33.5244V38.1642C137.215 38.6957 137.557 39.0404 138.247 39.0404C138.781 39.0404 139.272 38.7891 139.272 38.2001V33.5244H140.695V38.1139C140.695 39.4427 139.13 39.7802 138.261 39.7802C136.895 39.7802 135.82 39.1482 135.82 38.1714V33.5244H137.215Z" fill="#6A6A6A"/>
<path d="M140.682 33.4741H139.258V38.2073C139.258 38.7962 138.746 39.0045 138.269 39.0045C137.636 39.0045 137.273 38.7101 137.273 38.1714V33.4813H135.8V38.2073C135.8 39.1697 136.832 39.8592 138.269 39.8592C139.18 39.8592 140.739 39.5073 140.739 38.1498V33.5101L140.682 33.4741ZM140.639 33.5675V38.1139C140.639 39.3924 139.13 39.7371 138.248 39.7371C136.825 39.7371 135.843 39.0835 135.843 38.1714V33.5675H137.18V38.1642C137.18 38.7531 137.565 39.0835 138.248 39.0835C138.76 39.0835 139.301 38.8537 139.301 38.2001V33.5675H140.639Z" fill="#6A6A6A"/>
<path d="M142.524 33.5244H143.656L146.09 37.3382H146.118V33.5244H147.406V39.694H146.261L143.834 35.8587H143.813V39.694H142.524V33.5244Z" fill="#6A6A6A"/>
<path d="M147.414 33.4741H146.083V37.3311C146.083 37.2449 143.692 33.5029 143.692 33.5029H142.489V39.7586H143.849V35.8874C143.849 35.9736 146.24 39.7515 146.24 39.7515H147.45V33.4957L147.414 33.4741ZM147.371 33.5675V39.6437H146.268L143.877 35.8012L143.806 35.7079V35.8371V39.6437H142.582V33.546H143.692L146.083 37.3382L146.147 37.4388V37.3095V33.546L147.371 33.5675Z" fill="#6A6A6A"/>
<path d="M149.285 33.5244H150.694V39.694H149.285V33.5244Z" fill="#6A6A6A"/>
<path d="M150.702 33.4741H149.278V39.7299H150.751V33.4741H150.702ZM150.659 33.5675V39.6437H149.335V33.546L150.659 33.5675Z" fill="#6A6A6A"/>
<path d="M151.755 33.5244H153.221L154.217 37.6758H154.253L155.263 33.5244H156.737L154.73 39.7802H153.762L151.755 33.5244Z" fill="#6A6A6A"/>
<path d="M156.737 33.4741H155.242L154.224 37.6614C154.224 37.5178 153.264 33.5101 153.264 33.5101V33.4741H151.705L153.74 39.8233H154.765L156.808 33.4741H156.737ZM156.687 33.5675C156.687 33.6752 154.723 39.6869 154.708 39.7371H153.797C153.797 39.6869 151.847 33.6752 151.805 33.5675H153.228L154.253 37.8769L154.317 37.7261L155.327 33.6034L156.687 33.5675Z" fill="#6A6A6A"/>
<path d="M157.825 33.5244H161.732V34.257H159.241V36.1101H161.512V36.8498H159.241V38.9614H161.86V39.694H157.825V33.5244Z" fill="#6A6A6A"/>
<path d="M161.732 33.4742H157.797V39.73H161.882V38.9256H159.263V36.8929H161.533V36.0526H159.263V34.2858H161.754V33.4526L161.732 33.4742ZM161.69 33.5675V34.2211H159.206V36.1532H161.483V36.8068H159.206V38.9974H161.825V39.6438H157.875V33.546L161.69 33.5675Z" fill="#6A6A6A"/>
<path d="M165.212 36.1963V34.257C166.059 34.257 166.451 34.5874 166.451 35.2697C166.451 35.952 166.038 36.1963 165.269 36.1963H165.212ZM163.789 39.694H165.212V36.936C166.009 36.8857 166.337 37.4244 166.828 38.6311L167.255 39.694H168.721L168.223 38.43C168.107 38.0332 167.915 37.6634 167.657 37.3417C167.399 37.0201 167.081 36.7529 166.721 36.5554C167.483 36.2609 167.853 35.8371 167.853 35.2266C167.853 34.4509 167.234 33.5244 165.006 33.5244H163.803V39.694H163.789Z" fill="#6A6A6A"/>
<path d="M165.177 34.2569V36.2392H165.269C166.273 36.2392 166.479 35.7077 166.479 35.2695C166.479 34.5513 166.073 34.2281 165.212 34.2209H165.177V34.2569ZM165.241 34.3071C166.052 34.3071 166.415 34.6231 166.415 35.2695C166.415 35.9159 165.796 36.153 165.269 36.153V34.3071H165.241Z" fill="#6A6A6A"/>
<path d="M163.803 33.4741H163.768V39.7299H165.241V36.9719C166.016 36.9719 166.322 37.4962 166.785 38.6525L167.219 39.7155H168.721H168.771L168.244 38.4011C168.022 37.6221 167.513 36.9587 166.821 36.5481C167.532 36.2321 167.902 35.8299 167.902 35.2122C167.902 34.81 167.689 33.4597 164.992 33.4597L163.803 33.4741ZM164.977 33.5674C167.618 33.5674 167.824 34.8459 167.824 35.2265C167.824 35.8011 167.468 36.2249 166.721 36.5122L166.621 36.5553H166.721C167.077 36.7493 167.391 37.0142 167.643 37.3339C167.895 37.6536 168.08 38.0215 168.187 38.4155C168.187 38.4155 168.628 39.5144 168.678 39.6293H167.255C167.255 39.5647 166.849 38.5807 166.849 38.5807C166.351 37.331 166.009 36.8138 165.205 36.8497V39.6437H163.86V33.5459L164.977 33.5674Z" fill="#6A6A6A"/>
<path d="M169.326 38.7171C169.701 38.9276 170.121 39.0434 170.55 39.0547C171.141 39.0547 171.61 38.7889 171.61 38.4585C171.61 37.5033 169.262 36.1171 169.262 34.8674C169.262 34.0342 170.173 33.4309 171.489 33.4309C171.884 33.4306 172.277 33.4862 172.656 33.5961V34.3144C172.343 34.1917 172.01 34.126 171.674 34.1204C170.963 34.1204 170.614 34.3144 170.614 34.7094C170.614 35.7005 172.969 37.0293 172.969 38.3005C172.969 39.1481 172.051 39.737 170.714 39.737C170.228 39.7462 169.745 39.6634 169.29 39.4928V38.674L169.326 38.7171Z" fill="#6A6A6A"/>
<path d="M169.219 34.8531C169.219 35.5713 169.888 36.2464 170.542 36.9359C171.069 37.5033 171.589 38.0276 171.589 38.4586C171.589 38.7674 171.119 39.0188 170.55 39.0188C170.124 39.0053 169.709 38.8869 169.34 38.6741H169.297V39.5862C169.751 39.7602 170.234 39.8456 170.72 39.8376C172.073 39.8376 173.012 39.2343 173.012 38.4011C173.012 37.6829 172.35 36.9647 171.702 36.3326C171.169 35.7652 170.663 35.2337 170.663 34.7956C170.663 34.3575 171.005 34.2569 171.681 34.2569C172.015 34.2597 172.345 34.323 172.656 34.4437H172.692V33.6105C172.31 33.5006 171.915 33.445 171.517 33.4453C170.172 33.4453 169.247 34.0414 169.247 34.8818L169.219 34.8531ZM171.653 38.4442C171.653 37.9846 171.133 37.4459 170.592 36.8569C170.051 36.268 169.297 35.4995 169.297 34.8387C169.297 34.0343 170.201 33.4597 171.489 33.4597C171.872 33.4613 172.254 33.5194 172.62 33.6321V34.2928C172.319 34.174 171.998 34.1107 171.674 34.1061C170.962 34.1061 170.585 34.3215 170.585 34.7309C170.585 35.1403 171.098 35.758 171.638 36.3254C172.286 36.979 172.934 37.6613 172.934 38.3365C172.934 39.1624 172.023 39.7227 170.713 39.7227C170.254 39.7224 169.797 39.6472 169.361 39.5V38.7818C169.728 38.9793 170.134 39.0899 170.55 39.105C171.169 39.105 171.653 38.8249 171.653 38.4657V38.4442Z" fill="#6A6A6A"/>
<path d="M174.308 33.5244H175.717V39.694H174.308V33.5244Z" fill="#6A6A6A"/>
<path d="M175.716 33.4741H174.293V39.7299H175.773V33.4741H175.716ZM175.681 33.5675V39.6437H174.343V33.546L175.681 33.5675Z" fill="#6A6A6A"/>
<path d="M178.478 34.257H176.784V33.5244H181.559V34.257H179.88V39.694H178.478V34.257Z" fill="#6A6A6A"/>
<path d="M181.567 33.4741H176.756V34.3073H178.442V39.7299H179.916V34.3073H181.602V33.4741H181.567ZM181.531 33.5675V34.2211H179.844V39.6437H178.514V34.1995H176.827V33.546L181.531 33.5675Z" fill="#6A6A6A"/>
<path d="M183.574 36.8786L181.852 33.5244H183.296L184.243 35.9449H184.278L185.268 33.5244H186.734L184.976 36.8786V39.694H183.574V36.8786Z" fill="#6A6A6A"/>
<path d="M186.733 33.4741H185.274C185.274 33.4741 184.25 35.9233 184.242 35.9233C184.235 35.9233 183.332 33.5029 183.332 33.5029H181.858H181.809L183.552 36.9145V39.7874H185.032V36.9145L186.776 33.5963V33.5172L186.733 33.4741ZM184.307 35.9592L185.31 33.546H186.662C186.605 33.6681 184.947 36.8355 184.947 36.8355V39.6438H183.616V36.8498C183.616 36.8498 181.987 33.6609 181.922 33.546H183.303C183.303 33.6034 184.214 35.9377 184.214 35.9377V36.0239L184.278 35.9377L184.307 35.9592Z" fill="#6A6A6A"/>
</g>
<defs>
<clipPath id="clip0_201_1802">
<rect width="186" height="39" fill="white" transform="translate(0.790039 0.823242)"/>
</clipPath>
</defs>
</svg>
