<svg width="171" height="68" viewBox="0 0 171 68" fill="none" xmlns="http://www.w3.org/2000/svg">
<path d="M50.3898 57.9414H51.9916V60.1047H53.0887V61.1986H51.9916V63.3911H50.3898V62.9404H43.0938V61.9025H44.3911V60.2776H45.9929V61.9025H47.0901C47.2039 61.6688 47.2841 61.4232 47.3287 61.1717C47.3692 60.8783 47.3866 60.5829 47.3808 60.2874V59.2009H43.486V58.1534H48.9717V59.9682C48.9749 60.3194 48.9492 60.6704 48.8949 61.0182C48.8461 61.3253 48.7539 61.6256 48.6206 61.9123H50.398L50.3898 57.9414ZM51.1358 63.9684C51.8124 64.3452 52.1516 64.8227 52.1534 65.4009C52.1553 65.9791 51.816 66.4468 51.1358 66.8041C50.3916 67.228 49.363 67.4399 48.0501 67.4399C46.7308 67.4399 45.6967 67.228 44.9562 66.8041C44.2887 66.4338 43.9559 65.9661 43.9578 65.4009C43.9596 64.8357 44.2924 64.3582 44.9562 63.9684C45.6967 63.5518 46.7308 63.3447 48.0501 63.3447C49.3694 63.3447 50.3925 63.5518 51.1358 63.9684ZM46.1246 64.6992C45.961 64.756 45.8191 64.8532 45.7156 64.9792C45.6121 65.1053 45.5513 65.2549 45.5404 65.4106C45.5404 65.6858 45.7351 65.9149 46.1246 66.0927C46.7085 66.3244 47.3456 66.4304 47.9843 66.4021C48.6424 66.4296 49.2989 66.3238 49.9043 66.0927C50.3157 65.9149 50.5214 65.6858 50.5214 65.4106C50.5214 65.1353 50.3157 64.8844 49.9043 64.6992C49.2965 64.4765 48.641 64.3751 47.9843 64.4021C47.3478 64.3712 46.7119 64.4695 46.1246 64.6895V64.6992Z" fill="#7C2427"/>
<path d="M62.0189 64.2476H58.0993V67.1977H56.5085V64.2476H52.6328V63.1976H62.0189V64.2476ZM61.3798 58.1426V59.1804H58.0554C58.0554 59.7196 58.4129 60.1841 59.1279 60.5738C59.9763 60.9916 60.9077 61.2597 61.8708 61.3632L61.2536 62.1696C60.3969 62.0612 59.5585 61.8591 58.7576 61.5678C58.1763 61.3683 57.6618 61.0404 57.2628 60.6152C56.8496 61.0375 56.3272 61.3644 55.7405 61.5678C54.9707 61.8492 54.1673 62.0519 53.346 62.172L52.7507 61.3558C53.6937 61.2585 54.604 60.9899 55.425 60.5666C56.1107 60.1817 56.4536 59.7204 56.4536 59.1828H53.3048V58.1451L61.3798 58.1426Z" fill="#7C2427"/>
<path d="M68.1056 58.1339V59.1716H66.0156C65.9946 60.0214 66.2917 60.8534 66.8604 61.5371C67.345 62.0887 67.9676 62.5325 68.6789 62.8332L67.9548 63.6615C67.4043 63.4253 66.8815 63.1413 66.3941 62.8137C65.9393 62.5201 65.541 62.163 65.2147 61.7563C64.8969 62.1629 64.5058 62.5202 64.0571 62.8137C63.5759 63.138 63.0617 63.4218 62.5212 63.6615L61.8711 62.8332C62.5738 62.5419 63.181 62.0957 63.6348 61.5371C64.169 60.8414 64.4416 60.0134 64.4137 59.1716H62.4334V58.1339H68.1056ZM64.5564 66.0537H70.9939V67.094H64.3698C63.9839 67.1219 63.5984 67.0363 63.2727 66.8504C63.1594 66.7488 63.0726 66.6262 63.0186 66.4915C62.9645 66.3567 62.9445 66.2132 62.96 66.0709V64.1097H64.5619L64.5564 66.0537ZM70.9856 66.6286H69.3838V61.1986H67.6174V60.1509H69.3838V57.9414H70.9856V66.6286Z" fill="#7C2427"/>
<path d="M78.6512 57.9414H80.253V60.1217H81.3501V61.1814H80.253V63.9051H78.6512V62.4434H73.0447C72.8825 62.4554 72.7192 62.4346 72.5673 62.3827C72.4153 62.3308 72.2784 62.2492 72.167 62.1438C71.9799 61.9239 71.8883 61.6514 71.9092 61.3764V58.0193H73.511V61.4129H78.6512V57.9414ZM80.253 63.6907V67.1013H73.6948C73.3328 67.1256 72.9747 67.0212 72.6991 66.8113C72.5883 66.7122 72.5021 66.5936 72.4459 66.4632C72.3897 66.3327 72.3648 66.1932 72.3727 66.0537V63.698L80.253 63.6907ZM73.9746 64.7382V66.0367H78.6374V64.7334L73.9746 64.7382Z" fill="#7C2427"/>
<path d="M86.894 58.1339V59.1424H84.8808V61.257C84.8444 62.268 85.1296 63.2677 85.7036 64.1413C86.1652 64.8067 86.8314 65.341 87.6236 65.681L86.6938 66.5166C86.1077 66.2283 85.5748 65.8619 85.1139 65.4301C84.6485 64.9918 84.2941 64.4702 84.0744 63.9002C83.856 64.4752 83.493 64.9984 83.0129 65.4301C82.5469 65.8529 82.0192 66.2183 81.444 66.5166L80.6211 65.681C81.3718 65.3212 81.9971 64.7852 82.4287 64.1316C83 63.264 83.2851 62.2713 83.2515 61.2667V59.1424H81.2492V58.1339H86.894ZM89.8289 57.9414V67.1988H88.2271V57.9414H89.8289Z" fill="#7C2427"/>
<path d="M95.0151 62.5953C94.5253 62.8015 93.9881 62.9032 93.4462 62.8924C92.4588 62.8924 91.6963 62.6488 91.1642 62.1323C90.6953 61.6466 90.4375 61.0279 90.4375 60.3881C90.4375 59.7483 90.6953 59.1295 91.1642 58.6438C91.6963 58.1444 92.4588 57.8934 93.4462 57.8934C93.987 57.8823 94.5235 57.9807 95.0151 58.1809C95.4157 58.3592 95.7563 58.628 96.0026 58.9604L95.7036 58.7875H97.6456V57.9422H99.2474V64.0154H97.6456V62.0958H95.6241L95.9916 61.8156C95.7513 62.149 95.4139 62.4185 95.0151 62.5953V62.5953ZM99.2474 63.6915V67.1703H97.6456V64.7098H91.0325V63.6818L99.2474 63.6915ZM92.3655 59.3454C92.1589 59.6622 92.0501 60.0219 92.0501 60.3881C92.0501 60.7542 92.1589 61.1139 92.3655 61.4307C92.4979 61.5697 92.6628 61.6814 92.8487 61.7581C93.0346 61.8347 93.2371 61.8744 93.4421 61.8744C93.6471 61.8744 93.8496 61.8347 94.0355 61.7581C94.2215 61.6814 94.3863 61.5697 94.5187 61.4307C94.7306 61.1155 94.8424 60.7552 94.8424 60.3881C94.8424 60.021 94.7306 59.6606 94.5187 59.3454C94.3843 59.2092 94.2188 59.1002 94.0331 59.0255C93.8474 58.9508 93.6459 58.9121 93.4421 58.9121C93.2383 58.9121 93.0368 58.9508 92.8511 59.0255C92.6655 59.1002 92.4999 59.2092 92.3655 59.3454ZM96.3811 59.8156C96.4042 59.908 96.4216 60.0015 96.4332 60.0957C96.449 60.1941 96.4563 60.2936 96.4551 60.393C96.4547 60.5121 96.4437 60.631 96.4222 60.7486C96.4083 60.8617 96.3873 60.9739 96.3591 61.0848H97.6456V59.8156H96.3811Z" fill="#7C2427"/>
<path d="M108.609 63.791V67.17H107.008V64.824H100.395V63.7935L108.609 63.791Z" fill="#7C2427"/>
<path d="M113.914 61.123C114.372 61.7381 115.023 62.2194 115.788 62.5067L115.02 63.3156C114.407 63.0363 113.835 62.6902 113.319 62.2851C112.877 61.9622 112.512 61.5637 112.246 61.1133C111.961 61.562 111.588 61.9627 111.147 62.2972C110.645 62.6911 110.093 63.0304 109.501 63.3082L108.84 62.5287C109.545 62.1995 110.148 61.7208 110.595 61.1352C111.179 60.3345 111.47 59.2991 111.47 58.0291H113.067C113.067 59.3105 113.349 60.3418 113.914 61.123ZM111.662 66.0537L118.072 65.9709V67.0087L111.489 67.094C111.104 67.1223 110.718 67.0367 110.392 66.8504C110.278 66.749 110.191 66.6266 110.137 66.4918C110.082 66.3571 110.062 66.2134 110.077 66.0709V64.1097H111.679L111.662 66.0537ZM118.092 57.9414V66.4679H116.49V57.9414H118.092Z" fill="#7C2427"/>
<path d="M127.961 61.5692V62.6362H118.586V61.5692H127.961ZM127.593 58.1465V59.1647H126.37V60.0394H127.607V61.0674H118.97V60.0394H120.201V59.1647H118.948V58.1465H127.593ZM127.432 63.1844V65.6351H120.72V66.0591H127.517V67.1066H120.58C120.189 67.1299 119.8 67.0308 119.483 66.8264C119.359 66.7323 119.262 66.614 119.198 66.4809C119.134 66.3478 119.106 66.2035 119.115 66.0591V64.5974H125.827V64.2222H119.115V63.1844H127.432ZM121.814 59.1647V60.0394H124.768V59.1647H121.814Z" fill="#7C2427"/>
<path d="M131.957 58.0949V61.1133H129.845V62.2582H132.843V57.9414H134.461V60.3629H135.509V57.9414H137.111V64.1803H135.509V61.4689H134.461V63.469H132.857V63.2863H129.664C129.294 63.31 128.926 63.2178 128.625 63.0257C128.5 62.922 128.404 62.7947 128.342 62.6535C128.28 62.5122 128.255 62.3606 128.268 62.2095V60.1047H130.347V59.1302H128.246V58.1119L131.957 58.0949ZM135.032 65.4203C135.71 65.915 136.518 66.2501 137.38 66.3948L136.763 67.2792C135.964 67.1239 135.195 66.868 134.478 66.5191C133.942 66.2832 133.467 65.9514 133.082 65.5446C132.71 65.9545 132.242 66.2871 131.71 66.5191C130.922 66.8782 130.08 67.1342 129.209 67.2792L128.679 66.3948C129.566 66.2024 130.404 65.8627 131.148 65.3935C131.927 64.8755 132.317 64.3021 132.317 63.6736H133.907C133.911 64.3054 134.286 64.8876 135.032 65.4203Z" fill="#7C2427"/>
<path d="M146.431 58.1357V59.1735H145.207V60.489H146.431V61.5194H143.01V62.2503H146.801V63.2735H137.426V62.2358H141.422V61.5049H137.804V60.4743H139.047V59.1588H137.804V58.1211L146.431 58.1357ZM146.269 63.9507V67.0958H139.275C138.912 67.12 138.554 67.0158 138.279 66.8059C138.168 66.7067 138.083 66.588 138.027 66.4575C137.971 66.327 137.947 66.1877 137.955 66.0483V63.9507H146.269ZM139.557 65.0081V66.0483H144.667V65.0081H139.557ZM140.654 59.1735V60.489H143.611V59.1735H140.654Z" fill="#7C2427"/>
<path d="M102.893 58.3684C102.199 58.3882 101.541 58.6469 101.058 59.09C100.575 59.533 100.305 60.1257 100.305 60.7425C100.305 61.3592 100.575 61.9518 101.058 62.3948C101.541 62.8379 102.199 63.0966 102.893 63.1164C103.252 63.1266 103.608 63.0728 103.943 62.9581C104.277 62.8434 104.582 62.6701 104.839 62.4486C105.097 62.2271 105.302 61.962 105.441 61.6689C105.581 61.3758 105.653 61.0608 105.653 60.7425C105.653 60.4241 105.581 60.109 105.441 59.8159C105.302 59.5228 105.097 59.2577 104.839 59.0362C104.582 58.8148 104.277 58.6415 103.943 58.5267C103.608 58.412 103.252 58.3582 102.893 58.3684V58.3684ZM103.782 61.8399C103.676 61.9377 103.548 62.0146 103.406 62.0658C103.264 62.117 103.112 62.1412 102.959 62.1371C102.795 62.1439 102.631 62.1212 102.476 62.0701C102.322 62.019 102.181 61.9407 102.062 61.8399C101.766 61.5403 101.601 61.1968 101.656 60.4903C101.659 60.2937 101.713 60.1003 101.814 59.9254C101.915 59.7504 102.06 59.5986 102.238 59.4817C102.281 59.4529 102.328 59.4291 102.378 59.411L102.424 59.394C102.473 59.3781 102.522 59.3651 102.572 59.355H102.627C102.724 59.3379 102.822 59.3297 102.921 59.3306C103.021 59.3297 103.121 59.3379 103.22 59.355V59.355C103.289 59.367 103.357 59.385 103.423 59.4086V59.4086C103.484 59.43 103.541 59.4587 103.593 59.4939C103.766 59.6124 103.907 59.7639 104.005 59.9372C104.103 60.1104 104.156 60.3012 104.161 60.4952C104.243 61.1968 104.081 61.5403 103.782 61.8399Z" fill="#7C2427"/>
<path d="M103.602 58.2957V57.75H102.022V58.2957H99.7539V59.2896H105.824V58.2957H103.602Z" fill="#7C2427"/>
<path d="M107.082 57.8867V59.268H104.828V60.1937H107.082V61.1999H104.828L103.418 62.128H107.082V64.7225H108.599V57.8867H107.082Z" fill="#7C2427"/>
<path d="M70.5239 1.91016V32.4124H64.3242V1.91016H70.5239Z" fill="#3B489C"/>
<path d="M28.9139 1.48438V27.4709C28.9139 27.9103 28.3199 28.358 27.7016 28.3906C27.5011 28.4113 27.2985 28.3917 27.1057 28.333C26.9129 28.2743 26.7338 28.1774 26.5788 28.0485C26.5005 27.9739 26.4378 27.8843 26.3945 27.7852C26.3512 27.686 26.328 27.5791 26.3265 27.4709V21.0435H22.9826C22.9834 21.0571 22.9834 21.0709 22.9826 21.0844C22.9817 22.0613 22.6977 23.0168 22.1649 23.8355C21.632 24.6543 20.8733 25.3011 19.9805 25.6975V26.6247C20.0317 28.6389 20.8789 30.551 22.3368 31.9418C23.7946 33.3325 25.7442 34.0886 27.7585 34.0449C32.2577 34.0449 35.5285 31.1648 35.5285 27.1944V1.48438H28.9139Z" fill="#3B489C"/>
<path d="M60.4641 30.5998V21.3653C60.4641 21.3653 60.9686 17.1752 56.331 16.4837C56.331 16.4837 55.2815 16.2965 57.7386 15.1655C60.1957 14.0346 60.8792 10.8861 60.6513 7.97339C60.4235 5.06068 58.5603 1.83861 52.6942 1.87929L44.2734 1.96907V32.8861H50.5545V18.1435H52.1003C52.1003 18.1435 54.5981 17.8747 54.5981 21.9183V30.2904C54.5981 30.2904 54.1262 32.821 56.6484 32.8861H56.8762C59.6506 32.7885 61.4649 32.8861 61.4649 32.8861C61.4649 32.8861 60.5129 32.6908 60.4641 30.5998ZM51.7341 14.3277H50.465V5.87422L51.5959 5.96361C51.5959 5.96361 54.5981 5.50792 54.8503 9.96649C55.1025 14.425 51.7341 14.3114 51.7341 14.3114V14.3277Z" fill="#3B489C"/>
<path d="M85.4004 1.94336H74.5469V32.8115H81.1534L81.0313 20.8029H85.5224C85.5224 20.8029 90.8597 19.8915 91.0387 14.5543V8.37077C91.0387 8.37077 91.3234 2.48848 85.4004 1.94336ZM84.7088 14.7088C84.7067 15.2066 84.508 15.6833 84.156 16.0353C83.804 16.3873 83.3272 16.5861 82.8294 16.5883L81.0069 16.6288V6.18222H82.0077C82.3478 6.13873 82.6931 6.16752 83.0214 6.26644C83.3497 6.36535 83.6534 6.53214 83.9129 6.75627C84.1723 6.9804 84.3816 7.25667 84.5272 7.5671C84.6727 7.87752 84.7513 8.21509 84.7577 8.55788L84.7088 14.7088Z" fill="#3B489C"/>
<path d="M12.8561 21.0863C12.8565 20.2748 13.0527 19.4751 13.428 18.7556C13.8034 18.036 14.3468 17.4178 15.0121 16.9532H8.60904V21.4359H10.6106V26.1388C10.6106 26.6934 10.3902 27.2249 9.99809 27.617C9.60596 28.0092 9.07412 28.2296 8.51956 28.2296C7.965 28.2296 7.43315 28.0092 7.04102 27.617C6.64889 27.2249 6.42863 26.6934 6.42863 26.1388V7.94628C6.42863 7.39172 6.64889 6.86017 7.04102 6.46804C7.43315 6.07591 7.965 5.85545 8.51956 5.85545C9.07412 5.85545 9.60596 6.07591 9.99809 6.46804C10.3902 6.86017 10.6106 7.39172 10.6106 7.94628V12.8279H16.859V8.49133C16.859 6.50398 16.0696 4.59823 14.6643 3.19296C13.259 1.78769 11.3531 0.998047 9.36574 0.998047H8.03141C7.04776 0.998046 6.07379 1.19225 5.16512 1.56892C4.25644 1.9456 3.43089 2.49743 2.73572 3.19335C2.04055 3.88928 1.48936 4.71556 1.11367 5.62464C0.737986 6.53372 0.545204 7.50768 0.546273 8.49133V25.7725C0.456777 30.7437 2.17345 33.6075 7.12018 33.8597C8.13638 33.9228 9.15087 33.7121 10.0581 33.2499C10.9653 32.7877 11.732 32.0909 12.2784 31.2318C12.369 31.1756 12.4765 31.153 12.582 31.1678C12.6876 31.1827 12.7846 31.2342 12.8561 31.3132V33.9086H17.6402V26.163C16.3423 26.096 15.1204 25.5305 14.2291 24.5847C13.3378 23.6389 12.846 22.3859 12.8561 21.0863Z" fill="#3B489C"/>
<path d="M93.3108 9.01172V15.1952C93.3108 15.1952 94.2954 17.8802 89.6253 20.378H158.619V40.8806H43.8828V52.2711H145.43L170.009 34.5915V9.01172L93.3108 9.01172Z" fill="#6D6F71"/>
<path d="M17.8071 24.5673C19.7932 24.5673 21.4032 22.9572 21.4032 20.9711C21.4032 18.985 19.7932 17.375 17.8071 17.375C15.821 17.375 14.2109 18.985 14.2109 20.9711C14.2109 22.9572 15.821 24.5673 17.8071 24.5673Z" fill="url(#paint0_radial_432_1564)"/>
<defs>
<radialGradient id="paint0_radial_432_1564" cx="0" cy="0" r="1" gradientUnits="userSpaceOnUse" gradientTransform="translate(15.3309 18.9604) rotate(48.4336) scale(6.67705)">
<stop stop-color="#E86628"/>
<stop offset="0.203125" stop-color="#DB623B"/>
<stop offset="0.364583" stop-color="#B35773"/>
<stop offset="0.546875" stop-color="#954E9E"/>
<stop offset="0.864583" stop-color="#53499D"/>
<stop offset="1" stop-color="#27359F"/>
</radialGradient>
</defs>
</svg>
