<svg width="188" height="48" viewBox="0 0 188 48" fill="none" xmlns="http://www.w3.org/2000/svg">
<g clip-path="url(#clip0_201_2643)">
<path d="M54.7239 36.8942C54.7104 37.2588 54.8238 37.6168 55.0446 37.9071C55.1484 38.0167 55.2749 38.1023 55.4153 38.1577C55.5557 38.2132 55.7065 38.2372 55.8572 38.2281C56.1752 38.2472 56.4879 38.1395 56.7267 37.9285C56.8341 37.8159 56.9173 37.6825 56.9712 37.5365C57.0251 37.3905 57.0487 37.2351 57.0403 37.0797C57.0533 36.9324 57.0318 36.784 56.9773 36.6466C56.9229 36.5091 56.837 36.3862 56.7267 36.2879C56.4273 36.0901 56.0938 35.9499 55.7431 35.8742C55.4158 35.7881 55.0981 35.6685 54.7951 35.5175C54.4805 35.3653 54.1975 35.1547 53.9612 34.8969C53.7961 34.7207 53.6699 34.5116 53.5906 34.2835C53.5175 34.0528 53.4814 33.8121 53.4837 33.5701C53.4721 33.2418 53.5296 32.9146 53.6524 32.6099C53.7751 32.3052 53.9605 32.0297 54.1964 31.8012C54.4361 31.5664 54.7206 31.3823 55.0328 31.2597C55.345 31.1372 55.6787 31.0787 56.014 31.0878C56.3225 31.0761 56.6302 31.1263 56.9191 31.2353C57.2079 31.3443 57.4721 31.51 57.6961 31.7227C58.1588 32.2232 58.4136 32.8812 58.4088 33.563H56.8693C56.873 33.2723 56.7746 32.9896 56.5913 32.7641C56.5091 32.6801 56.4101 32.6145 56.3008 32.5715C56.1915 32.5284 56.0743 32.509 55.9569 32.5145C55.8273 32.5046 55.6971 32.5216 55.5744 32.5646C55.4518 32.6075 55.3393 32.6755 55.2442 32.7641C55.1583 32.8608 55.0926 32.9737 55.051 33.0962C55.0094 33.2188 54.9927 33.3484 55.0018 33.4774C54.9931 33.5723 54.9931 33.6679 55.0018 33.7628C55.0343 33.8389 55.083 33.907 55.1444 33.9625C55.2695 34.0742 55.4146 34.1614 55.572 34.2193C55.6861 34.2193 55.8785 34.3191 56.1494 34.3905L56.7338 34.5617C57.2628 34.7306 57.731 35.0504 58.081 35.4818C58.3992 35.8887 58.5701 36.3917 58.5657 36.9084C58.5776 37.2674 58.5154 37.625 58.383 37.9589C58.2505 38.2927 58.0506 38.5957 57.7959 38.8487C57.5383 39.1077 57.2298 39.3104 56.89 39.4442C56.5502 39.5781 56.1864 39.64 55.8215 39.6261C55.4714 39.6386 55.1226 39.5779 54.7973 39.4477C54.4721 39.3175 54.1776 39.1207 53.9327 38.87C53.6846 38.5943 53.4938 38.272 53.3714 37.9217C53.249 37.5715 53.1976 37.2003 53.2199 36.83L54.7239 36.8942Z" fill="#0069B3"/>
<path d="M60.2188 39.5119V31.2732H65.0299V32.6998H61.8438V34.6828H65.0299V36.1094H61.8438V38.0853H65.0299V39.5119H60.2188Z" fill="#0069B3"/>
<path d="M66.5701 33.7056C66.8023 33.1635 67.1474 32.6772 67.5822 32.279C67.9998 31.8983 68.4827 31.5962 69.0077 31.3874C70.1132 30.9881 71.3234 30.9881 72.429 31.3874C72.9546 31.5981 73.4376 31.9026 73.8545 32.2861C74.2816 32.6895 74.6233 33.1746 74.8595 33.7127C75.0998 34.2262 75.2239 34.7864 75.223 35.3534C75.2426 36.4442 74.839 37.5002 74.0968 38.2993C73.6549 38.7348 73.135 39.0833 72.5644 39.3265C71.9832 39.565 71.3607 39.6862 70.7326 39.6832C70.1059 39.6838 69.4854 39.5578 68.9086 39.3127C68.3317 39.0675 67.8103 38.7083 67.3755 38.2565C67.0175 37.8673 66.7348 37.415 66.5415 36.9226C66.3498 36.4169 66.2531 35.88 66.2564 35.3391C66.247 34.7788 66.3538 34.2225 66.5701 33.7056V33.7056ZM68.0811 36.459C68.2197 36.7926 68.426 37.0938 68.687 37.3435C68.9536 37.6141 69.2742 37.8255 69.6278 37.9641C69.9684 38.1074 70.3346 38.1802 70.7041 38.1781C71.0846 38.1893 71.4634 38.123 71.8175 37.9833C72.1716 37.8435 72.4936 37.6331 72.764 37.3649C73.035 37.1049 73.2487 36.791 73.3911 36.4433C73.5335 36.0956 73.6015 35.7218 73.5907 35.3462C73.5928 35.0086 73.5198 34.6748 73.3769 34.369C73.2376 34.0494 73.0393 33.7591 72.7925 33.513C72.3893 33.1045 71.8777 32.8202 71.318 32.6938C70.7584 32.5673 70.1743 32.6041 69.6349 32.7997C69.3056 32.9256 69.0068 33.1201 68.7582 33.3704C68.4821 33.62 68.2613 33.9248 68.1103 34.2652C67.9593 34.6056 67.8814 34.9738 67.8815 35.3462C67.8791 35.7263 67.9467 36.1035 68.0811 36.459V36.459Z" fill="#0069B3"/>
<path d="M80.4332 39.5119H78.8152V36.466L76.0996 31.2517H77.9243L79.6492 34.8183L81.3527 31.2517H83.156L80.4332 36.5302V39.5119Z" fill="#0069B3"/>
<path d="M84.2891 39.5119V31.2732H89.1002V32.6998H85.907V34.6828H89.1002V36.1094H85.907V38.0853H89.1002V39.5119H84.2891Z" fill="#0069B3"/>
<path d="M90.6402 33.7056C90.8725 33.1635 91.2175 32.6772 91.6523 32.279C92.0699 31.8983 92.5529 31.5962 93.0778 31.3874C94.1833 30.9881 95.3935 30.9881 96.4991 31.3874C97.0259 31.5958 97.5093 31.9006 97.9246 32.2861C98.3538 32.6892 98.698 33.1743 98.9367 33.7127C99.1716 34.2278 99.2931 34.7872 99.2931 35.3534C99.2994 35.9088 99.1927 36.4597 98.9795 36.9726C98.782 37.4711 98.4863 37.9248 98.1099 38.3065C97.6705 38.7418 97.153 39.0902 96.5846 39.3336C96.001 39.5721 95.3761 39.6933 94.7457 39.6903C94.116 39.6949 93.4922 39.5686 92.9139 39.3194C92.3423 39.0759 91.8259 38.7192 91.3957 38.2708C91.0377 37.8816 90.755 37.4293 90.5618 36.9369C90.3677 36.4316 90.2686 35.8947 90.2695 35.3534C90.2763 34.7842 90.4025 34.2228 90.6402 33.7056ZM92.1512 36.459C92.2872 36.7923 92.4911 37.0935 92.7499 37.3435C93.2877 37.8745 94.0116 38.174 94.7671 38.1781C95.1484 38.1878 95.5279 38.1209 95.8829 37.9812C96.238 37.8415 96.5614 37.6319 96.8341 37.3649C97.1052 37.1049 97.3188 36.791 97.4612 36.4433C97.6036 36.0956 97.6716 35.7218 97.6609 35.3462C97.6629 35.0086 97.5899 34.6748 97.447 34.369C97.3076 34.0477 97.1066 33.757 96.8555 33.513C96.5908 33.2276 96.2707 32.9995 95.9146 32.8425C95.2012 32.5813 94.4184 32.5813 93.705 32.8425C93.3744 32.97 93.0736 33.1642 92.8212 33.4132C92.5454 33.6704 92.3247 33.981 92.1726 34.3262C92.0245 34.6608 91.9492 35.0231 91.9517 35.389C91.951 35.755 92.0187 36.1179 92.1512 36.459V36.459Z" fill="#0069B3"/>
<path d="M100.939 39.5119V31.2732H102.493L106.278 36.7158V31.2732H107.882V39.5119H106.399L102.557 33.9195V39.5119H100.939Z" fill="#0069B3"/>
<path d="M118.502 35.1751C118.489 36.4109 117.996 37.593 117.126 38.4706C116.709 38.8718 116.217 39.1858 115.677 39.394C115.137 39.6022 114.561 39.7005 113.983 39.6833C113.353 39.6885 112.729 39.5621 112.151 39.3123C111.58 39.0689 111.063 38.7122 110.633 38.2638C110.275 37.8729 109.991 37.4211 109.792 36.9299C109.6 36.4241 109.504 35.8872 109.507 35.3463C109.504 34.7807 109.624 34.2212 109.856 33.7057C110.091 33.1633 110.439 32.677 110.875 32.2791C111.286 31.8879 111.771 31.5823 112.301 31.3803C112.87 31.1771 113.471 31.0781 114.076 31.0879C114.92 31.0577 115.753 31.2834 116.466 31.7352C117.18 32.1871 117.74 32.8441 118.074 33.6201H116.15C115.892 33.29 115.56 33.0259 115.181 32.8497C114.797 32.6802 114.381 32.5974 113.962 32.6072C113.602 32.6048 113.244 32.6676 112.907 32.7927C112.575 32.9218 112.272 33.1158 112.016 33.3633C111.742 33.6147 111.524 33.92 111.374 34.2601C111.225 34.6002 111.147 34.9676 111.146 35.3392C111.144 35.7117 111.209 36.0814 111.339 36.4306C111.477 36.7642 111.684 37.0654 111.945 37.3151C112.212 37.5842 112.533 37.7954 112.885 37.9356C113.226 38.0789 113.592 38.1518 113.962 38.1497C114.478 38.162 114.988 38.0338 115.437 37.7787C115.881 37.5036 116.236 37.1044 116.456 36.6303H113.691V35.1466L118.502 35.1751Z" fill="#0069B3"/>
<path d="M125.65 31.2732V36.4661C125.613 36.9242 125.697 37.3841 125.893 37.8C126.025 37.9483 126.192 38.0622 126.378 38.1318C126.564 38.2014 126.765 38.2246 126.962 38.1994C127.147 38.2214 127.335 38.1964 127.508 38.1266C127.681 38.0568 127.834 37.9444 127.953 37.8C128.15 37.3848 128.234 36.9243 128.195 36.4661V31.2732H129.813V36.4518C129.823 36.8339 129.797 37.216 129.735 37.5931C129.685 37.9312 129.558 38.2534 129.364 38.5347C129.106 38.9027 128.757 39.1976 128.352 39.3907C127.926 39.5899 127.46 39.6899 126.99 39.6831C126.501 39.6893 126.016 39.5946 125.565 39.4049C125.145 39.2088 124.782 38.9094 124.51 38.5347C124.297 38.2392 124.157 37.8967 124.104 37.536C124.069 37.1757 124.055 36.8138 124.061 36.4518V31.2732H125.65Z" fill="#0069B3"/>
<path d="M131.694 39.5119V31.2732H133.255L137.047 36.7158V31.2732H138.644V39.5119H137.161L133.319 33.9195V39.5119H131.694Z" fill="#0069B3"/>
<path d="M140.519 39.5119V31.2732H142.137V39.5119H140.519Z" fill="#0069B3"/>
<path d="M146.577 39.5119L143.234 31.2732H144.959L147.098 36.7942L149.186 31.2732H150.889L147.589 39.5119H146.577Z" fill="#0069B3"/>
<path d="M152.022 39.5119V31.2732H156.826V32.6998H153.64V34.6828H156.826V36.1094H153.64V38.0853H156.826V39.5119H152.022Z" fill="#0069B3"/>
<path d="M163.256 35.2677C162.872 35.7221 162.36 36.0502 161.788 36.2093L164.418 39.5404H162.386L159.963 36.3591H159.87V39.5119H158.267V31.2732H160.405C160.788 31.2675 161.171 31.2818 161.552 31.316C161.889 31.353 162.216 31.4547 162.515 31.6155C162.897 31.8153 163.21 32.1261 163.413 32.5072C163.668 32.9303 163.788 33.421 163.757 33.9141C163.727 34.4073 163.547 34.8794 163.242 35.2677H163.256ZM161.766 32.9423C161.4 32.7503 160.988 32.6662 160.576 32.6998H159.863V34.9396H160.576C160.995 34.9735 161.416 34.8869 161.788 34.6899C161.921 34.5934 162.027 34.4636 162.094 34.3134C162.162 34.1632 162.189 33.9978 162.173 33.8339C162.186 33.6631 162.155 33.4916 162.084 33.3357C162.013 33.1798 161.904 33.0444 161.766 32.9423V32.9423Z" fill="#0069B3"/>
<path d="M166.556 36.8942C166.543 37.2588 166.656 37.6168 166.877 37.9071C166.981 38.0167 167.107 38.1023 167.248 38.1577C167.388 38.2132 167.539 38.2372 167.69 38.2281C168.008 38.2472 168.32 38.1395 168.559 37.9285C168.667 37.8159 168.75 37.6825 168.804 37.5365C168.858 37.3905 168.881 37.2351 168.873 37.0797C168.886 36.9324 168.864 36.784 168.81 36.6466C168.755 36.5091 168.67 36.3862 168.559 36.2879C168.259 36.0916 167.926 35.9514 167.576 35.8742C167.248 35.7881 166.931 35.6685 166.628 35.5175C166.313 35.3653 166.03 35.1547 165.794 34.8969C165.629 34.7207 165.502 34.5116 165.423 34.2835C165.35 34.0528 165.314 33.8121 165.316 33.5701C165.305 33.2418 165.362 32.9146 165.485 32.6099C165.608 32.3052 165.793 32.0297 166.029 31.8012C166.269 31.5671 166.554 31.3834 166.866 31.2609C167.178 31.1384 167.511 31.0796 167.846 31.0878C168.155 31.0761 168.463 31.1263 168.752 31.2353C169.04 31.3443 169.305 31.51 169.529 31.7227C169.991 32.2232 170.246 32.8812 170.241 33.563H168.702C168.705 33.2723 168.607 32.9896 168.424 32.7641C168.341 32.6805 168.242 32.6151 168.133 32.5721C168.024 32.5291 167.907 32.5095 167.789 32.5145C167.66 32.5046 167.53 32.5216 167.407 32.5646C167.284 32.6075 167.172 32.6755 167.077 32.7641C166.991 32.8608 166.925 32.9737 166.883 33.0962C166.842 33.2188 166.825 33.3484 166.834 33.4774C166.826 33.5723 166.826 33.6679 166.834 33.7628C166.867 33.8389 166.915 33.907 166.977 33.9625C167.102 34.0742 167.247 34.1614 167.405 34.2193C167.519 34.2193 167.711 34.3191 167.982 34.3905L168.566 34.5617C169.094 34.7295 169.56 35.0496 169.906 35.4818C170.23 35.8864 170.403 36.3904 170.398 36.9084C170.41 37.2674 170.348 37.625 170.215 37.9589C170.083 38.2927 169.883 38.5957 169.628 38.8487C169.371 39.1077 169.062 39.3104 168.723 39.4442C168.383 39.5781 168.019 39.64 167.654 39.6261C167.304 39.6386 166.955 39.5779 166.63 39.4477C166.305 39.3175 166.01 39.1207 165.765 38.87C165.511 38.5972 165.313 38.2761 165.185 37.9258C165.056 37.5754 164.999 37.2028 165.017 36.83L166.556 36.8942Z" fill="#0069B3"/>
<path d="M172.052 39.5119V31.2732H173.67V39.5119H172.052Z" fill="#0069B3"/>
<path d="M176.734 39.5119V32.6783H175.017V31.2517H180.07V32.6783H178.345V39.5119H176.734Z" fill="#0069B3"/>
<path d="M185.066 39.5119H183.448V36.466L180.732 31.2517H182.557L184.282 34.8183L185.978 31.2517H187.789L185.066 36.5302V39.5119Z" fill="#0069B3"/>
<path d="M63.0198 5.81519C63.0198 10.6039 63.5733 14.111 64.6805 16.3365C65.0973 17.2618 65.7451 18.0641 66.5615 18.6662C67.3779 19.2684 68.3355 19.6501 69.342 19.7747V22.8348C67.659 22.6912 66.0425 22.111 64.652 21.1514C63.1398 20.0124 61.9447 18.5045 61.1808 16.7716C60.3542 18.536 59.0723 20.0479 57.4674 21.1514C56.1295 22.0593 54.5954 22.6362 52.9912 22.8348V19.8032C54.0017 19.6576 54.9608 19.2652 55.7838 18.6606C56.6067 18.0559 57.2682 17.2577 57.7097 16.3365C58.8501 14.111 59.4227 10.6039 59.4274 5.81519H63.0198ZM73.3904 11.5217V5.81519H76.8687V27.3857H73.3833V14.1395H67.8024V11.5002L73.3904 11.5217Z" fill="#0069B3"/>
<path d="M91.8731 6.69968C92.5657 7.15388 93.1345 7.77348 93.5282 8.50259C93.9218 9.2317 94.1279 10.0474 94.1279 10.8761C94.1279 11.7048 93.9218 12.5205 93.5282 13.2496C93.1345 13.9788 92.5657 14.5984 91.8731 15.0526C90.4212 16.0931 88.6688 16.6292 86.8838 16.579C85.0998 16.6209 83.35 16.0855 81.8944 15.0526C81.2018 14.5984 80.633 13.9788 80.2394 13.2496C79.8458 12.5205 79.6396 11.7048 79.6396 10.8761C79.6396 10.0474 79.8458 9.2317 80.2394 8.50259C80.633 7.77348 81.2018 7.15388 81.8944 6.69968C83.3529 5.67335 85.1013 5.14094 86.8838 5.18033C88.6681 5.12756 90.4206 5.66123 91.8731 6.69968V6.69968ZM84.2109 8.67556C83.84 8.91208 83.5347 9.23836 83.3232 9.62423C83.1117 10.0101 83.0008 10.4431 83.0008 10.8832C83.0008 11.3234 83.1117 11.7564 83.3232 12.1422C83.5347 12.5281 83.84 12.8544 84.2109 13.091C84.985 13.6849 85.9371 13.9991 86.9123 13.9826C87.8686 13.9896 88.7996 13.6757 89.5566 13.091C89.9212 12.848 90.2222 12.5209 90.4342 12.1374C90.6463 11.7539 90.7633 11.325 90.7754 10.8868C90.7693 10.4464 90.6549 10.0143 90.4424 9.62863C90.2298 9.24297 89.9256 8.91565 89.5566 8.67556C88.7959 8.10102 87.8652 7.79723 86.9123 7.81244C85.9436 7.78649 84.9937 8.08247 84.2109 8.65414V8.67556ZM101.631 17.8131C102.432 18.3199 103.091 19.0213 103.549 19.8519C104.006 20.6825 104.245 21.6154 104.245 22.5637C104.245 23.512 104.006 24.4448 103.549 25.2755C103.091 26.1061 102.432 26.8075 101.631 27.3144C99.9683 28.4988 97.9691 29.1165 95.9287 29.0762C93.8864 29.1306 91.8829 28.5115 90.2266 27.3144C89.4445 26.7934 88.8031 26.0872 88.3594 25.2584C87.9158 24.4296 87.6836 23.5039 87.6836 22.5637C87.6836 21.6235 87.9158 20.6978 88.3594 19.869C88.8031 19.0402 89.4445 18.334 90.2266 17.8131C91.8928 16.6399 93.8921 16.0346 95.9287 16.0868C97.9611 16.0417 99.9562 16.6382 101.631 17.7916V17.8131ZM92.6999 19.8816C92.2528 20.1724 91.8853 20.5704 91.6309 21.0394C91.3766 21.5084 91.2433 22.0336 91.2433 22.5673C91.2433 23.1009 91.3766 23.6261 91.6309 24.0951C91.8853 24.5642 92.2528 24.9621 92.6999 25.2529C93.6337 25.9752 94.7843 26.3599 95.9643 26.3442C97.1451 26.3644 98.2972 25.9793 99.2288 25.2529C99.6823 24.9669 100.056 24.5706 100.315 24.101C100.574 23.6313 100.71 23.1037 100.71 22.5673C100.71 22.0308 100.574 21.5032 100.315 21.0335C100.056 20.5639 99.6823 20.1676 99.2288 19.8816C98.2895 19.173 97.1405 18.7989 95.9643 18.8188C94.7913 18.797 93.6439 19.1631 92.6999 19.8603V19.8816ZM100.733 7.41299V5.82946H104.204V15.6232H100.733V13.9968H95.5652V11.4004H100.733V9.97379H95.5652V7.41299H100.733Z" fill="#0069B3"/>
<path d="M111.731 19.8744H122.643V22.5066H110.448C109.908 22.5428 109.368 22.4396 108.88 22.207C108.66 22.067 108.482 21.8693 108.367 21.6354C108.251 21.4014 108.202 21.1403 108.224 20.8802V5.82227H119.557V8.45438H111.717L111.731 19.8744ZM128.267 15.3378H125.537V27.3856H122.337V5.82227H125.537V12.6985H128.267V5.82227H131.567V27.3856H128.267V15.3378Z" fill="#0069B3"/>
<path d="M148.594 9.24618C148.936 9.58416 149.216 9.98025 149.421 10.416C149.637 10.8401 149.749 11.3095 149.749 11.7856C149.751 12.5415 149.565 13.2861 149.208 13.9523C148.85 14.6185 148.333 15.1853 147.703 15.6018C146.346 16.5729 144.709 17.0739 143.041 17.0284C141.345 17.0724 139.679 16.5726 138.287 15.6018C137.637 15.1986 137.1 14.6371 136.726 13.9697C136.352 13.3022 136.154 12.5508 136.149 11.7856C136.149 11.3127 136.251 10.8455 136.448 10.416C136.664 9.97037 136.967 9.57256 137.339 9.24618H135.322V6.69966H141.238V4.63818H144.966V6.69966H150.554V9.26046L148.594 9.24618ZM158.915 27.3857H155.444V21.1656H136.684V18.5121H158.915V27.3857ZM140.661 10.0237C140.354 10.2336 140.102 10.5143 139.926 10.8419C139.75 11.1696 139.655 11.5348 139.649 11.9068C139.661 12.2697 139.759 12.6245 139.935 12.942C140.111 13.2595 140.36 13.5306 140.661 13.7329C141.331 14.2595 142.161 14.539 143.013 14.5246C143.853 14.5343 144.671 14.2548 145.329 13.7329C145.637 13.5351 145.893 13.2658 146.074 12.9478C146.255 12.6298 146.357 12.2726 146.37 11.9068C146.363 11.5319 146.264 11.1644 146.083 10.8362C145.902 10.508 145.643 10.2291 145.329 10.0237C144.665 9.51602 143.849 9.2472 143.013 9.26046C142.155 9.23025 141.312 9.49452 140.625 10.0094L140.661 10.0237ZM158.915 11.9496V16.1795H155.444V5.81516H158.915V9.30326H162.414V11.9354L158.915 11.9496Z" fill="#0069B3"/>
<path d="M169.55 23.548H173.434V14.4818H176.855V23.548H187.119V26.2015H162.016V23.548H166.114V14.4818H169.55V23.548ZM181.567 24.9746V8.45438H163.527V5.82227H185.045V24.939L181.567 24.9746Z" fill="#0069B3"/>
<path d="M41.4591 24.29C41.4591 27.6604 40.4604 30.9551 38.5893 33.7574C36.7183 36.5598 34.0589 38.744 30.9475 40.0338C27.836 41.3236 24.4123 41.661 21.1092 41.0035C17.8061 40.346 14.7721 38.723 12.3907 36.3398C10.0093 33.9566 8.38754 30.9201 7.73051 27.6145C7.07349 24.3089 7.4107 20.8825 8.6995 17.7687C9.9883 14.6549 12.1708 11.9934 14.971 10.1209C17.7712 8.24845 21.0634 7.24902 24.4312 7.24902C28.9473 7.24902 33.2784 9.04439 36.4717 12.2402C39.6651 15.436 41.4591 19.7704 41.4591 24.29Z" fill="white"/>
<path fill-rule="evenodd" clip-rule="evenodd" d="M24.2744 47.6721C19.6781 47.6735 15.1847 46.3107 11.3625 43.7561C7.54025 41.2015 4.56092 37.5698 2.80136 33.3204C1.0418 29.071 0.581047 24.3948 1.47739 19.8833C2.37373 15.3719 4.58689 11.2278 7.83693 7.97524C11.087 4.72269 15.2279 2.50781 19.7359 1.61078C24.2439 0.713754 28.9165 1.17487 33.1626 2.93579C37.4087 4.69671 41.0376 7.6783 43.5903 11.5035C46.1429 15.3287 47.5047 19.8255 47.5033 24.4253C47.5014 30.5902 45.0535 36.502 40.6976 40.8612C36.3418 45.2204 30.4345 47.6702 24.2744 47.6721V47.6721ZM24.2744 10.2091C21.4639 10.2048 18.7154 11.035 16.3765 12.5946C14.0377 14.1541 12.2136 16.3729 11.1351 18.9702C10.0567 21.5675 9.77234 24.4266 10.318 27.1857C10.8637 29.9448 12.215 32.4799 14.2008 34.4702C16.1866 36.4605 18.7177 37.8166 21.4738 38.3669C24.23 38.9172 27.0873 38.6369 29.6842 37.5615C32.2811 36.4861 34.501 34.664 36.0628 32.3257C37.6247 29.9874 38.4583 27.238 38.4583 24.4253C38.4583 20.6587 36.9647 17.0459 34.3053 14.3805C31.6459 11.715 28.0382 10.2147 24.2744 10.2091V10.2091Z" fill="#B3B3B3" stroke="white" stroke-width="0.7"/>
<path d="M45.9497 24.4254C45.9497 28.7156 44.6785 32.9095 42.2968 36.4767C39.9152 40.0439 36.53 42.8242 32.5694 44.466C28.6088 46.1078 24.2506 46.5373 20.0461 45.7003C15.8415 44.8634 11.9794 42.7974 8.9481 39.7638C5.91679 36.7301 3.85244 32.8651 3.0161 28.6573C2.17976 24.4495 2.609 20.088 4.24953 16.1243C5.89007 12.1607 8.66822 8.77288 12.2327 6.38936C15.7971 4.00584 19.9878 2.73364 24.2747 2.73364C30.0227 2.73553 35.5347 5.0215 39.5992 9.08909C43.6636 13.1567 45.9479 18.6729 45.9497 24.4254V24.4254ZM24.2747 9.19623C21.2647 9.19482 18.3218 10.0868 15.8184 11.7593C13.3149 13.4319 11.3634 15.8099 10.2105 18.5925C9.05765 21.3752 8.75527 24.4374 9.34164 27.3921C9.928 30.3467 11.3768 33.061 13.5047 35.1915C15.6326 37.3221 18.3441 38.7732 21.2962 39.3614C24.2482 39.9496 27.3083 39.6485 30.0894 38.496C32.8704 37.3436 35.2475 35.3916 36.9199 32.887C38.5923 30.3824 39.485 27.4377 39.485 24.4254C39.485 20.3876 37.8827 16.5151 35.0304 13.6593C32.1782 10.8034 28.3094 9.19812 24.2747 9.19623V9.19623Z" fill="#0069B3"/>
<path fill-rule="evenodd" clip-rule="evenodd" d="M8.48678 13.0552L8.92156 14.3891H10.3186L9.18528 15.2094L9.62007 16.5361L8.48678 15.7158L7.36062 16.5361L7.78827 15.2094L6.66211 14.3891H8.05912L8.48678 13.0552Z" fill="#B3B3B3"/>
<path fill-rule="evenodd" clip-rule="evenodd" d="M6.17037 18.7546L6.60516 20.0885H8.00217L6.86888 20.9088L7.30366 22.2427L6.17037 21.4153L5.03708 22.2427L5.47187 20.9088L4.3457 20.0885H5.73559L6.17037 18.7546Z" fill="#B3B3B3"/>
<path fill-rule="evenodd" clip-rule="evenodd" d="M40.2407 13.0552L39.813 14.3891H38.416L39.5422 15.2094L39.1145 16.5361L40.2407 15.7158L41.374 16.5361L40.9392 15.2094L42.0725 14.3891H40.6755L40.2407 13.0552Z" fill="#B3B3B3"/>
<path fill-rule="evenodd" clip-rule="evenodd" d="M42.2722 18.7546L41.8374 20.0885H40.4404L41.5737 20.9088L41.1461 22.2427L42.2722 21.4153L43.4055 22.2427L42.9707 20.9088L44.104 20.0885H42.707L42.2722 18.7546Z" fill="#B3B3B3"/>
<path d="M32.1365 14.0967H16.4629V18.9187H32.1365V14.0967Z" fill="#0069B3"/>
<path d="M16.4629 20.0671V28.4913C16.4632 30.1684 17.0004 31.8013 17.9959 33.1505C18.9913 34.4997 20.3924 35.4942 21.9939 35.9882C21.9939 35.9882 21.9939 35.9882 21.9939 35.9882C22.8629 36.2623 23.6478 36.7533 24.2748 37.4148C24.8953 36.7558 25.6727 36.265 26.5342 35.9882H26.6269C28.218 35.4874 29.6082 34.4918 30.5952 33.1462C31.5822 31.8005 32.1146 30.1749 32.1151 28.5056V20.0671H16.4629Z" fill="#0069B3"/>
<path d="M25.8209 22.0645C26.3509 22.3999 26.7577 22.8985 26.98 23.4852C27.2023 24.072 27.2282 24.7151 27.0538 25.3179C26.8793 25.9206 26.5139 26.4504 26.0126 26.8274C25.5114 27.2043 24.9013 27.4082 24.2742 27.4082C23.6472 27.4082 23.0371 27.2043 22.5358 26.8274C22.0345 26.4504 21.6691 25.9206 21.4947 25.3179C21.3202 24.7151 21.3461 24.072 21.5684 23.4852C21.7908 22.8985 22.1976 22.3999 22.7275 22.0645C21.3979 22.4245 20.2347 23.236 19.4372 24.3599C18.6397 25.4838 18.2575 26.8503 18.356 28.2253C18.4546 29.6003 19.0278 30.8981 19.9774 31.8966C20.9271 32.8951 22.1941 33.5322 23.5615 33.6985V31.7227C22.6744 31.5919 21.8407 31.2186 21.1522 30.6437C20.4637 30.0689 19.9473 29.315 19.6598 28.465C19.3723 27.6151 19.3249 26.7023 19.5228 25.8271C19.7208 24.9519 20.1564 24.1485 20.7817 23.5054C20.5562 24.0755 20.4734 24.6922 20.5407 25.3016C20.6079 25.9111 20.8231 26.4949 21.1675 27.0021C21.512 27.5092 21.9751 27.9243 22.5166 28.2113C23.0581 28.4982 23.6615 28.6482 24.2742 28.6482C24.8869 28.6482 25.4904 28.4982 26.0319 28.2113C26.5734 27.9243 27.0365 27.5092 27.3809 27.0021C27.7253 26.4949 27.9405 25.9111 28.0078 25.3016C28.075 24.6922 27.9923 24.0755 27.7668 23.5054C28.3919 24.148 28.8276 24.9509 29.0259 25.8255C29.2243 26.7002 29.1775 27.6126 28.8908 28.4623C28.6041 29.3121 28.0885 30.0661 27.401 30.6414C26.7134 31.2167 25.8806 31.5909 24.9941 31.7227V33.6985C26.3611 33.531 27.6274 32.8932 28.5762 31.8942C29.5249 30.8951 30.0972 29.5971 30.1949 28.2223C30.2926 26.8475 29.9097 25.4814 29.1117 24.3581C28.3138 23.2347 27.1505 22.4239 25.8209 22.0645V22.0645Z" fill="white"/>
<path d="M12.8704 9.23182C13.5831 10.1805 12.0151 11.4217 11.3094 10.4801C11.1928 10.3216 11.1348 10.1275 11.1455 9.93089L10.7535 10.2447L10.5254 9.93799L11.3237 9.31027L11.2025 9.14623C11.1241 9.04636 11.0386 9.08916 10.9602 9.14623L10.8604 9.01783L11.4662 8.53279L11.7727 8.94652L12.571 8.3188L12.792 8.61838L12.4 8.93224C12.5869 8.97402 12.7534 9.08001 12.8704 9.23182V9.23182ZM12.4427 9.58847C12.0293 9.03209 11.3451 9.58848 11.73 10.1306C11.7634 10.1828 11.8073 10.2275 11.8589 10.2619C11.9105 10.2963 11.9686 10.3196 12.0296 10.3304C12.0906 10.3412 12.1532 10.3393 12.2135 10.3247C12.2737 10.3101 12.3303 10.2832 12.3796 10.2457C12.4289 10.2082 12.47 10.1609 12.5002 10.1067C12.5303 10.0525 12.549 9.99267 12.5549 9.93094C12.5608 9.8692 12.5539 9.80688 12.5346 9.74795C12.5153 9.68902 12.484 9.63472 12.4427 9.58847V9.58847ZM13.7542 12.0494C13.7175 12.084 13.6737 12.1102 13.6259 12.1262C13.5782 12.1422 13.5275 12.1477 13.4774 12.1423C13.4272 12.1369 13.3789 12.1207 13.3356 12.0948C13.2924 12.0689 13.2552 12.0339 13.2268 11.9923L12.792 11.4074C12.6779 11.2576 12.5639 11.3289 12.4427 11.4074L12.3287 11.2434L14.6879 9.37449C14.6946 9.3669 14.7028 9.3608 14.712 9.35664C14.7213 9.35248 14.7313 9.35033 14.7414 9.35033C14.7515 9.35033 14.7615 9.35248 14.7707 9.35664C14.7799 9.3608 14.7881 9.3669 14.7948 9.37449L15.4221 10.2162C15.4549 10.255 15.4793 10.3003 15.4936 10.3491C15.5079 10.3979 15.5118 10.4491 15.5051 10.4995C15.4984 10.5499 15.4812 10.5984 15.4546 10.6417C15.428 10.6851 15.3927 10.7224 15.3508 10.7512L13.7542 12.0494ZM12.9987 7.91221C12.8918 7.76955 12.7706 7.83375 12.6566 7.91221L12.5354 7.74812L13.184 7.2417L14.6095 9.16051L14.189 9.49574L12.9987 7.91221ZM13.2196 11.0151L13.6402 11.5715C13.6829 11.6428 13.7043 11.6214 13.7542 11.5715L14.9231 10.6371C14.9802 10.6371 14.9873 10.5657 14.9231 10.5158L14.5097 9.95941L13.2196 11.0151Z" fill="white"/>
<path d="M16.1914 7.56286L20.076 6.06488L20.2114 6.4144L16.3197 7.91238L16.1914 7.56286ZM18.736 5.33734C19.1565 6.47863 17.1465 7.24898 16.726 6.11482C16.3054 4.98066 18.3083 4.20317 18.736 5.33734ZM17.4744 9.08222L17.3888 8.86819C17.339 8.72553 17.2249 8.72556 17.0966 8.76836L17.0253 8.57575L19.4986 7.62703L19.4131 7.39163L16.9826 8.3332L16.8543 7.98369L19.7695 6.86379C19.7695 6.86379 19.7695 6.86379 19.8194 6.86379L20.1187 7.67697C20.1232 7.6867 20.1255 7.69733 20.1254 7.70806C20.1252 7.71879 20.1226 7.72937 20.1178 7.73897C20.113 7.74857 20.1061 7.75692 20.0977 7.76348C20.0892 7.77004 20.0793 7.77463 20.0688 7.77685L17.9305 8.61141L18.0018 8.80401C18.0018 8.80401 18.0018 8.80401 18.0731 8.80401L20.3112 7.94089L20.4395 8.29755L17.9662 9.2534C17.6882 9.39606 17.567 9.33901 17.4744 9.08222ZM18.1871 5.51566C18.137 5.38607 18.0376 5.28167 17.9106 5.22549C17.7836 5.16931 17.6395 5.16591 17.51 5.21604C17.3805 5.26618 17.2762 5.36577 17.2201 5.49285C17.164 5.61993 17.1606 5.76411 17.2107 5.8937C17.2579 6.02707 17.3562 6.1362 17.4838 6.19706C17.6115 6.25793 17.7581 6.26556 17.8913 6.21826C18.0246 6.17097 18.1337 6.0726 18.1945 5.94485C18.2553 5.8171 18.2629 5.67041 18.2156 5.53704L18.1871 5.51566Z" fill="white"/>
<path d="M22.1865 6.69972C22.6922 6.68326 23.172 6.47246 23.5264 6.11114C23.8808 5.74983 24.0825 5.26579 24.0896 4.75954L22.5429 4.6739V4.28873L24.6313 4.40288C24.5529 5.8295 23.8615 6.82812 22.3576 6.97792L22.1865 6.69972ZM25.5864 4.55979C25.5864 4.37433 25.4581 4.3458 25.3155 4.33866V4.13892L26.1424 4.18171L25.9214 8.33318H25.3797L25.5864 4.55979Z" fill="white"/>
<path d="M28.1231 7.52006L31.8865 8.94668L31.7582 9.40317L28.002 7.94089L28.1231 7.52006ZM29.0426 6.75682L29.235 6.19327C29.2461 6.16576 29.2509 6.13615 29.2491 6.10655C29.2473 6.07695 29.2389 6.04813 29.2245 6.02217C29.2102 5.99622 29.1903 5.97376 29.1662 5.95648C29.1421 5.93919 29.1145 5.92748 29.0854 5.92221L29.1495 5.72251L31.5658 6.65694L31.7582 6.10054L29.399 5.18753L29.5201 4.82373L32.3712 5.92221V5.96501L31.9792 7.13485C31.9792 7.18478 31.9364 7.20618 31.8794 7.17764L29.7411 6.35736L29.5486 6.93514L31.7867 7.80536L31.6584 8.18344L29.235 7.24186C29.0141 7.142 28.957 7.02074 29.0426 6.75682V6.75682Z" fill="white"/>
<path d="M34.9513 9.64563C34.9513 9.5957 34.9513 9.56002 34.8872 9.58855C34.6866 9.68721 34.4678 9.74321 34.2445 9.75304C34.0212 9.76286 33.7984 9.72629 33.5899 9.64563L33.54 9.21052C33.8367 9.3262 34.1634 9.33918 34.4683 9.2474C34.7732 9.15561 35.0385 8.96432 35.2222 8.70406L35.55 8.26181L34.9228 7.75534L35.1651 7.42725L36.9185 8.85387L36.6762 9.1891L36.0062 8.66126L35.6783 9.10351C35.4781 9.36243 35.366 9.67866 35.3583 10.0059C35.3506 10.3332 35.4477 10.6544 35.6355 10.9224C35.6355 10.9224 35.6355 10.9224 35.6355 10.9224L35.2222 10.9795C34.9614 10.5873 34.8642 10.1086 34.9513 9.64563V9.64563ZM35.5073 12.6201L35.0939 12.292L37.282 9.33891C37.3889 9.18912 37.282 9.08923 37.1894 9.00363L37.3533 8.80393L37.9805 9.31749L37.1252 10.4374L37.5956 10.8155L37.3676 11.1222L36.8971 10.7441L35.5073 12.6201Z" fill="white"/>
<path d="M4.88721 24.4397C4.74914 24.4371 4.61401 24.4797 4.50232 24.5609C4.46355 24.5941 4.43305 24.6359 4.41325 24.683C4.39345 24.73 4.3849 24.7811 4.38827 24.832C4.38799 24.8857 4.40006 24.9387 4.42355 24.9869C4.44703 25.0352 4.4813 25.0774 4.5237 25.1102C4.61857 25.1785 4.73545 25.209 4.85157 25.1958C4.90818 25.1973 4.96451 25.1873 5.01718 25.1665C5.06984 25.1456 5.11776 25.1144 5.15806 25.0746C5.22549 24.975 5.27383 24.8637 5.30061 24.7464C5.32796 24.6372 5.36865 24.5318 5.42178 24.4326C5.48029 24.3247 5.55752 24.2281 5.64986 24.1473C5.71788 24.0898 5.79496 24.044 5.87795 24.0117C5.96689 23.99 6.05748 23.9757 6.14879 23.9689C6.40214 23.941 6.65667 24.0098 6.86155 24.1615C6.94998 24.2301 7.02207 24.3176 7.07261 24.4175C7.12314 24.5174 7.15088 24.6273 7.15379 24.7393C7.16141 24.8431 7.14621 24.9474 7.10927 25.0448C7.07233 25.1421 7.01454 25.2302 6.93996 25.3028C6.73785 25.4688 6.48825 25.5662 6.2272 25.581V25.0746C6.33637 25.0689 6.4421 25.0344 6.53369 24.9747C6.56419 24.9473 6.58859 24.9137 6.60529 24.8762C6.62199 24.8388 6.63062 24.7982 6.63062 24.7571C6.63062 24.7161 6.62199 24.6755 6.60529 24.638C6.58859 24.6005 6.56419 24.567 6.53369 24.5396C6.4489 24.4859 6.34817 24.4632 6.24858 24.4754H6.14167C6.11304 24.4877 6.08657 24.5046 6.06327 24.5253C6.0236 24.568 5.99432 24.6192 5.97773 24.6751C5.95485 24.7357 5.9358 24.7976 5.92071 24.8606L5.86369 25.0531C5.79875 25.2347 5.68234 25.3933 5.52869 25.5097C5.36651 25.6266 5.17258 25.6913 4.97274 25.6951C4.70206 25.7187 4.43182 25.6454 4.21008 25.4883C4.10876 25.4175 4.0256 25.3237 3.96739 25.2146C3.90917 25.1055 3.87755 24.9842 3.87509 24.8606C3.86636 24.7425 3.8857 24.6241 3.93155 24.515C3.97739 24.4059 4.04841 24.3092 4.13881 24.2329C4.35629 24.0494 4.63132 23.9484 4.91572 23.9475L4.88721 24.4397Z" fill="white"/>
<path d="M4.03223 26.6724L7.18976 26.1375L7.44635 27.6853L6.90466 27.7709L6.73359 26.7509L5.97094 26.8793L6.14913 27.8993L5.60743 27.992L5.43637 26.972L4.68084 27.0933L4.8519 28.1205L4.29595 28.2132L4.03223 26.6724Z" fill="white"/>
<path d="M6.612 28.3701C6.82624 28.3749 7.03725 28.4235 7.2321 28.5127C7.4089 28.5933 7.56859 28.7071 7.70252 28.848C7.83018 28.9896 7.92509 29.1576 7.9805 29.3402C8.04382 29.5208 8.06575 29.7134 8.04465 29.9037C8.02086 30.0997 7.95783 30.2889 7.85933 30.4601C7.75151 30.6451 7.6115 30.8094 7.44593 30.9451C7.10549 31.2138 6.68195 31.3551 6.24849 31.3446C6.05109 31.3449 5.85533 31.3087 5.67115 31.2376C5.47153 31.1578 5.2898 31.0389 5.13658 30.888C4.99211 30.7419 4.88459 30.5634 4.82296 30.3673C4.76029 30.1692 4.74323 29.9595 4.77307 29.7539C4.81117 29.5406 4.89111 29.3369 5.00828 29.1547C5.12198 28.9946 5.26172 28.8548 5.42169 28.741C5.58828 28.619 5.77365 28.525 5.97051 28.4628C6.17706 28.3937 6.39434 28.3623 6.612 28.3701V28.3701ZM5.74956 29.169C5.64203 29.2468 5.55215 29.3464 5.48583 29.4614C5.41684 29.5724 5.37079 29.6961 5.35041 29.8252C5.32199 29.9424 5.32199 30.0647 5.35041 30.1819C5.38729 30.3051 5.45215 30.4183 5.53994 30.5123C5.62773 30.6063 5.73606 30.6788 5.85647 30.724C6.0496 30.7983 6.2586 30.8216 6.46334 30.7916C6.66809 30.7616 6.86166 30.6794 7.0254 30.5528C7.127 30.4735 7.21386 30.3769 7.28199 30.2674C7.3607 30.1575 7.41202 30.0304 7.43167 29.8966C7.4512 29.7695 7.43895 29.6396 7.39603 29.5185C7.35831 29.4051 7.29766 29.3007 7.21784 29.2118C7.13638 29.1194 7.03362 29.0484 6.91848 29.0049C6.79249 28.949 6.65705 28.9176 6.51934 28.9122C6.37913 28.9131 6.23983 28.9347 6.10594 28.9764C5.97724 29.0202 5.85679 29.0853 5.74956 29.169V29.169Z" fill="white"/>
<path d="M6.25601 33.6201L6.01367 33.1493L7.06143 32.6143L8.48695 30.9023L8.75067 31.4302L7.78845 32.5572L9.25673 32.4217L9.52759 32.9495L7.30377 33.0922L6.25601 33.6201Z" fill="white"/>
<path d="M7.05469 35.0324L9.69903 33.2278L10.5757 34.5189L10.1196 34.8327L9.54222 33.9768L8.90074 34.4048L9.4852 35.2678L9.03616 35.5746L8.4517 34.7186L7.81734 35.1537L8.39468 36.0097L7.93138 36.3236L7.05469 35.0324Z" fill="white"/>
<path d="M10.1195 35.5173C10.3167 35.4381 10.5271 35.3969 10.7396 35.396C10.9318 35.3948 11.1226 35.4287 11.3026 35.4959C11.4763 35.5752 11.6335 35.6865 11.7659 35.824C11.8926 35.9689 11.9916 36.1357 12.0582 36.3162C12.1175 36.5051 12.137 36.7043 12.1152 36.9011C12.0978 37.1124 12.0398 37.3183 11.9441 37.5074C11.8503 37.704 11.7196 37.8808 11.5592 38.0281C11.4031 38.1753 11.2221 38.2936 11.0247 38.3777C10.8454 38.4623 10.6521 38.5131 10.4545 38.5275C10.2409 38.5356 10.0278 38.5017 9.82723 38.4276C9.63333 38.3562 9.45967 38.2387 9.32117 38.0852C9.18101 37.9327 9.07848 37.7495 9.02181 37.5502C8.97841 37.3384 8.97841 37.12 9.02181 36.9082C9.05469 36.7156 9.11976 36.53 9.21426 36.359C9.31556 36.1776 9.44554 36.0138 9.59915 35.874C9.75049 35.7257 9.92658 35.605 10.1195 35.5173V35.5173ZM9.67042 36.6087C9.60364 36.7246 9.56234 36.8535 9.54925 36.9867C9.5205 37.1135 9.5205 37.2451 9.54925 37.3719C9.58162 37.4882 9.64013 37.5956 9.72032 37.6858C9.80904 37.7852 9.91956 37.8627 10.0432 37.9122C10.1669 37.9617 10.3003 37.9819 10.4331 37.9711C10.7175 37.9501 10.9852 37.8287 11.1886 37.6287C11.2829 37.5414 11.3602 37.4374 11.4167 37.322C11.5367 37.0841 11.5719 36.8123 11.5165 36.5516C11.4759 36.43 11.4103 36.3183 11.324 36.2235C11.2438 36.1361 11.1469 36.0657 11.0389 36.0166C10.9255 35.9724 10.804 35.953 10.6825 35.9596C10.5426 35.9591 10.4041 35.9882 10.2763 36.0452C10.1477 36.1008 10.0296 36.178 9.92702 36.2734C9.82387 36.3705 9.7372 36.4837 9.67042 36.6087V36.6087Z" fill="white"/>
<path d="M11.0596 39.733L13.0125 37.1865L13.4117 37.4932L13.0981 39.9257L14.3882 38.2493L14.7944 38.5632L12.8486 41.1097L12.4637 40.8173L12.7987 38.3278L11.473 40.054L11.0596 39.733Z" fill="white"/>
<path d="M16.9613 41.4949C16.7403 41.9034 16.3926 42.2289 15.9705 42.4222C15.7913 42.4969 15.5975 42.53 15.4036 42.5189C15.2098 42.5077 15.021 42.4527 14.8515 42.358C14.666 42.2626 14.5069 42.123 14.3882 41.9514C14.2677 41.7728 14.1852 41.5713 14.1459 41.3594C14.1102 41.166 14.1102 40.9678 14.1459 40.7745C14.1836 40.5698 14.2533 40.3724 14.3526 40.1895C14.4503 39.9955 14.5833 39.8214 14.7446 39.6759C14.9045 39.5319 15.0909 39.4204 15.2934 39.3478C15.4755 39.2796 15.6693 39.2481 15.8636 39.2551C16.0612 39.2724 16.253 39.3307 16.4267 39.4263C16.6705 39.5515 16.8678 39.7514 16.9898 39.9969C17.1153 40.2813 17.1597 40.5948 17.1181 40.9028L16.5693 40.6104C16.5568 40.4628 16.5078 40.3206 16.4267 40.1967C16.3521 40.0809 16.2457 39.9893 16.1202 39.9328C16.0174 39.8749 15.9029 39.8408 15.7852 39.8329C15.6631 39.8269 15.5412 39.8489 15.4288 39.8971C15.3 39.9458 15.1816 40.0185 15.0796 40.1111C14.9728 40.2048 14.8856 40.3187 14.823 40.4463C14.7546 40.5736 14.7065 40.7108 14.6804 40.8529C14.6553 40.9825 14.6553 41.1157 14.6804 41.2452C14.7046 41.3746 14.7583 41.4966 14.8372 41.6019C14.9081 41.7002 15.0008 41.7808 15.1081 41.8373C15.2526 41.9274 15.4245 41.9629 15.5928 41.9372C15.7802 41.9101 15.9546 41.8253 16.0917 41.6946L15.3077 41.2809L15.5714 40.7673L16.9613 41.4949Z" fill="white"/>
<path d="M19.3213 44.0201L19.9485 41.3952L19.4852 41.281L19.6064 40.7888L20.5829 41.0242L19.8701 44.1485L19.3213 44.0201Z" fill="white"/>
<path d="M21.8158 44.5051L22.4858 43.5707H22.4216C22.2966 43.5553 22.1763 43.5128 22.0693 43.4463C21.9622 43.3798 21.8708 43.2908 21.8015 43.1855C21.6392 42.9528 21.5682 42.6684 21.602 42.3866C21.6096 42.2843 21.6312 42.1835 21.6661 42.087C21.6996 41.989 21.7451 41.8956 21.8015 41.8088C21.8964 41.6422 22.0343 41.5043 22.2007 41.4093C22.3595 41.3227 22.5414 41.2878 22.721 41.3095C22.8538 41.319 22.9829 41.358 23.0988 41.4236C23.2167 41.4976 23.3186 41.5946 23.3981 41.7089C23.4823 41.8253 23.5451 41.9557 23.5834 42.0941C23.6254 42.2302 23.6399 42.3733 23.6262 42.515C23.6058 42.7108 23.5451 42.9002 23.448 43.0713C23.3443 43.2492 23.23 43.4207 23.1059 43.5849L22.3931 44.5622L21.8158 44.5051ZM23.0204 42.0656C22.9809 42.0076 22.9291 41.9589 22.8688 41.9232C22.8084 41.8874 22.7409 41.8654 22.6711 41.8587C22.6025 41.849 22.5325 41.8555 22.4669 41.8778C22.4013 41.9001 22.3418 41.9376 22.2933 41.9871C22.1809 42.1014 22.1171 42.2548 22.1152 42.4151C22.0905 42.5666 22.1236 42.7219 22.2078 42.8502C22.2473 42.9071 22.2993 42.954 22.3599 42.9874C22.4205 43.0209 22.488 43.0398 22.5571 43.0428C22.6278 43.0506 22.6993 43.0432 22.767 43.0211C22.8346 42.9989 22.8967 42.9626 22.9491 42.9144C23.0545 42.8099 23.1179 42.6703 23.1273 42.5221C23.1516 42.3596 23.1134 42.1939 23.0204 42.0585V42.0656Z" fill="white"/>
<path d="M24.5953 44.6549L25.5219 41.9372L24.3672 42.0013V41.445L26.0636 41.3594V41.8944L25.1583 44.6263L24.5953 44.6549Z" fill="white"/>
<path d="M27.1399 42.9859C27.1863 42.8388 27.2698 42.7062 27.3822 42.6008C27.2906 42.5362 27.213 42.4537 27.1542 42.3582C27.0963 42.2664 27.0553 42.1649 27.033 42.0586C26.9882 41.8365 27.0262 41.6055 27.1399 41.4095C27.1889 41.3148 27.2586 41.2324 27.3437 41.1682C27.4288 41.104 27.5272 41.0597 27.6317 41.0386C27.738 41.0138 27.8485 41.0138 27.9548 41.0386C28.0611 41.0633 28.1602 41.1121 28.2447 41.1813C28.4301 41.3194 28.5553 41.5238 28.5939 41.7519C28.6152 41.8578 28.6152 41.967 28.5939 42.0729C28.573 42.183 28.5345 42.289 28.4799 42.3868C28.6244 42.4295 28.7516 42.5168 28.8434 42.6364C28.9347 42.7609 28.9957 42.905 29.0216 43.0572C29.0877 43.3283 29.0469 43.6145 28.9075 43.8562C28.8426 43.9742 28.7518 44.0759 28.6419 44.1537C28.532 44.2316 28.406 44.2835 28.2732 44.3055C28.1491 44.3306 28.021 44.3284 27.8979 44.2988C27.7748 44.2692 27.6596 44.2131 27.5604 44.1343C27.337 43.9579 27.1892 43.7028 27.147 43.421C27.1202 43.2774 27.1178 43.1303 27.1399 42.9859V42.9859ZM27.6602 42.1942C27.6899 42.2204 27.7257 42.2388 27.7643 42.2475C27.8029 42.2562 27.8431 42.2551 27.8812 42.2441C27.9214 42.2404 27.9601 42.2268 27.9937 42.2043C28.0273 42.1819 28.0548 42.1515 28.0736 42.1157C28.1041 42.0304 28.1041 41.9371 28.0736 41.8518C28.061 41.7603 28.0154 41.6765 27.9453 41.6164C27.9156 41.5927 27.881 41.576 27.844 41.5674C27.807 41.5587 27.7686 41.5584 27.7315 41.5664C27.6915 41.5736 27.6535 41.5894 27.6202 41.6128C27.587 41.6362 27.5593 41.6667 27.539 41.702C27.509 41.7825 27.509 41.8711 27.539 41.9516C27.5481 42.0447 27.5913 42.1311 27.6602 42.1942V42.1942ZM27.817 43.6779C27.8694 43.7155 27.9291 43.7417 27.9922 43.7549C28.0553 43.7681 28.1204 43.768 28.1835 43.7546C28.2466 43.7412 28.3061 43.7147 28.3584 43.6769C28.4107 43.6392 28.4545 43.5909 28.487 43.5352C28.5485 43.4271 28.5688 43.3004 28.544 43.1785C28.5353 43.1138 28.5138 43.0514 28.4808 42.9951C28.4477 42.9388 28.4038 42.8896 28.3516 42.8504C28.2999 42.8127 28.2402 42.7874 28.1773 42.7763C28.1143 42.7651 28.0496 42.7686 27.9881 42.7862C27.9232 42.7937 27.8608 42.8155 27.8053 42.85C27.7499 42.8846 27.7027 42.931 27.6673 42.9859C27.6084 43.1002 27.5932 43.2321 27.6246 43.3569C27.6498 43.4829 27.7178 43.5963 27.817 43.6779V43.6779Z" fill="white"/>
<path d="M30.9102 40.0825L31.737 41.9228C31.7997 42.0888 31.8969 42.2395 32.0221 42.3651C32.0801 42.4003 32.1466 42.419 32.2145 42.419C32.2824 42.419 32.349 42.4003 32.407 42.3651C32.467 42.3445 32.5202 42.3075 32.5605 42.2584C32.6008 42.2092 32.6266 42.1499 32.635 42.0869C32.6232 41.91 32.5746 41.7375 32.4925 41.5805L31.6586 39.7401L32.1432 39.5261L32.97 41.3593C33.0324 41.4932 33.0848 41.6314 33.1269 41.773C33.1641 41.8978 33.1786 42.0283 33.1696 42.1582C33.151 42.3166 33.0948 42.4683 33.0057 42.6005C32.9137 42.7249 32.7908 42.8233 32.6493 42.8858C32.5029 42.9562 32.341 42.9881 32.1789 42.9785C32.0146 42.9671 31.8567 42.9103 31.7227 42.8145C31.6092 42.7362 31.5144 42.6339 31.4447 42.5149C31.376 42.3924 31.3141 42.2662 31.2594 42.1368L30.4326 40.3036L30.9102 40.0825Z" fill="white"/>
<path d="M34.3387 41.9872L32.5996 39.2909L33.0201 39.0127L35.1584 40.1183L34.0109 38.3422L34.4457 38.064L36.1919 40.7532L35.7857 41.0171L33.569 39.8758L34.745 41.6947L34.3387 41.9872Z" fill="white"/>
<path d="M37.0326 40.1183L34.9941 37.6431L35.4004 37.3079L37.4389 39.7759L37.0326 40.1183Z" fill="white"/>
<path d="M38.7369 38.5419L35.6934 37.1153L36.0854 36.7087L38.0882 37.7145L37.0334 35.6958L37.4182 35.2964L38.9721 38.3065L38.7369 38.5419Z" fill="white"/>
<path d="M40.1763 36.9299L37.6104 35.011L38.5369 33.7556L38.9789 34.0838L38.3659 34.9183L38.9789 35.3748L39.5918 34.5474L40.0337 34.8755L39.4136 35.7029L40.0337 36.1666L40.6467 35.332L41.1029 35.6744L40.1763 36.9299Z" fill="white"/>
<path d="M40.9315 32.7284C41.0183 32.9154 41.0457 33.1246 41.0099 33.3276L42.5494 33.2206L42.2287 33.7984L40.8032 33.8768L41.8723 34.4832L41.6157 34.9326L38.8359 33.349L39.1781 32.7356C39.2636 32.5929 39.3349 32.4859 39.3776 32.4217C39.445 32.331 39.533 32.2577 39.6342 32.2077C39.7718 32.1343 39.9284 32.1045 40.0833 32.1221C40.2493 32.1311 40.4106 32.1801 40.5537 32.2648C40.7219 32.3794 40.8532 32.5404 40.9315 32.7284V32.7284ZM39.9122 32.7284C39.7908 32.7939 39.6935 32.8963 39.6342 33.0209L39.5202 33.2277L40.2757 33.6557L40.3826 33.4631C40.4649 33.3495 40.5052 33.2108 40.4967 33.0708C40.4831 33.0098 40.4553 32.9529 40.4157 32.9046C40.3761 32.8563 40.3257 32.8179 40.2686 32.7926C40.2166 32.7473 40.1545 32.7151 40.0875 32.699C40.0205 32.6828 39.9506 32.6832 39.8837 32.6999L39.9122 32.7284Z" fill="white"/>
<path d="M42.0218 31.8367C42.1487 31.8951 42.29 31.915 42.4281 31.8937C42.4773 31.8803 42.5224 31.8551 42.5597 31.8203C42.5969 31.7855 42.6252 31.7422 42.6419 31.694C42.6629 31.6456 42.6737 31.5934 42.6737 31.5407C42.6737 31.4879 42.6629 31.4357 42.6419 31.3873C42.5832 31.286 42.4893 31.2099 42.3782 31.1733C42.3263 31.1513 42.2706 31.14 42.2143 31.14C42.1579 31.14 42.1022 31.1513 42.0503 31.1733C41.9487 31.2349 41.8594 31.3147 41.7866 31.4087C41.7125 31.4962 41.6288 31.5752 41.5371 31.6441C41.4428 31.7189 41.3334 31.7725 41.2164 31.801C41.1274 31.8228 41.0345 31.8228 40.9456 31.801C40.8547 31.7898 40.7659 31.7658 40.6818 31.7297C40.4464 31.6434 40.251 31.4732 40.133 31.2517C40.0872 31.1497 40.0635 31.0391 40.0635 30.9272C40.0635 30.8153 40.0872 30.7047 40.133 30.6026C40.1711 30.5062 40.2297 30.4192 40.3048 30.3478C40.3799 30.2763 40.4696 30.2221 40.5678 30.1889C40.8141 30.1284 41.0731 30.1459 41.3091 30.2389L41.1166 30.7096C41.0128 30.6732 40.8997 30.6732 40.7959 30.7096C40.7568 30.7199 40.7208 30.7397 40.691 30.767C40.6612 30.7943 40.6385 30.8285 40.6248 30.8666C40.6054 30.9041 40.5953 30.9456 40.5953 30.9878C40.5953 31.03 40.6054 31.0716 40.6248 31.1091C40.6751 31.1927 40.7534 31.2559 40.8458 31.2874L40.9527 31.3231C40.9831 31.3307 41.0149 31.3307 41.0453 31.3231C41.0978 31.3038 41.1462 31.2748 41.1879 31.2375L41.3233 31.0877L41.4516 30.9379C41.5869 30.7994 41.7608 30.7049 41.9505 30.6668C42.1457 30.6309 42.3473 30.6558 42.5279 30.7382C42.7854 30.8301 43.0008 31.0126 43.1337 31.2517C43.1879 31.3628 43.216 31.4848 43.216 31.6084C43.216 31.732 43.1879 31.854 43.1337 31.9651C43.09 32.0749 43.0217 32.1732 42.9339 32.2524C42.8462 32.3316 42.7414 32.3895 42.6277 32.4216C42.3538 32.4932 42.0634 32.4654 41.808 32.3431L42.0218 31.8367Z" fill="white"/>
<path d="M43.7475 30.1818L40.6826 29.2545L40.8323 28.748L43.8972 29.6754L43.7475 30.1818Z" fill="white"/>
<path d="M44.2323 28.3416L41.6379 27.8066L41.531 28.3558L40.9893 28.2417L41.3171 26.6296L41.8588 26.7437L41.7448 27.293L44.3392 27.828L44.2323 28.3416Z" fill="white"/>
<path d="M44.6663 25.2458L44.6235 25.7736L43.4475 25.6809L41.3662 26.3942L41.409 25.8093L42.8345 25.3528L41.5159 24.6965L41.5587 24.1045L43.5259 25.153L44.6663 25.2458Z" fill="white"/>
<path d="M20.7959 14.6887C20.7584 15.276 20.856 15.8641 21.081 16.4078C21.1552 16.5619 21.2674 16.6946 21.4071 16.7932C21.5468 16.8918 21.7093 16.9531 21.8793 16.9713V17.4706C21.5913 17.4489 21.3139 17.3531 21.0739 17.1924C20.8159 17.0126 20.6114 16.7661 20.4823 16.4791C20.3381 16.7692 20.1191 17.0155 19.8479 17.1924C19.6152 17.3414 19.3522 17.4364 19.0781 17.4706V16.9713C19.2486 16.9517 19.4114 16.8898 19.552 16.7915C19.6927 16.6931 19.8066 16.5612 19.8835 16.4078C20.118 15.8666 20.2206 15.2774 20.1829 14.6887H20.7959ZM22.5778 15.616V14.6959H23.1694V18.2053H22.5778V16.0654H21.6227V15.6374L22.5778 15.616Z" fill="white"/>
<path d="M26.7909 14.8313C26.9091 14.9014 27.007 15.0011 27.0751 15.1205C27.1431 15.24 27.1789 15.375 27.1789 15.5125C27.1789 15.65 27.1431 15.7851 27.0751 15.9046C27.007 16.024 26.9091 16.1237 26.7909 16.1938C26.5355 16.357 26.2387 16.4437 25.9356 16.4437C25.6325 16.4437 25.3358 16.357 25.0803 16.1938C24.9621 16.1237 24.8642 16.024 24.7962 15.9046C24.7282 15.7851 24.6924 15.65 24.6924 15.5125C24.6924 15.375 24.7282 15.24 24.7962 15.1205C24.8642 15.0011 24.9621 14.9014 25.0803 14.8313C25.3355 14.6618 25.6365 14.5746 25.9427 14.5817C26.2448 14.5728 26.5418 14.6603 26.7909 14.8313ZM25.4723 15.1523C25.4105 15.1912 25.3593 15.2447 25.3233 15.3082C25.2872 15.3717 25.2674 15.4431 25.2656 15.5161C25.2679 15.588 25.288 15.6583 25.3241 15.7205C25.3602 15.7827 25.4111 15.835 25.4723 15.8728C25.6084 15.973 25.7738 16.0257 25.9427 16.0226C26.1051 16.0253 26.2635 15.9724 26.3918 15.8728C26.4539 15.8362 26.5053 15.7841 26.5411 15.7216C26.5769 15.659 26.5957 15.5882 26.5957 15.5161C26.5957 15.444 26.5769 15.3732 26.5411 15.3106C26.5053 15.2481 26.4539 15.196 26.3918 15.1594C26.2609 15.0657 26.1037 15.0157 25.9427 15.0168C25.7757 15.0125 25.6115 15.0598 25.4723 15.1523V15.1523ZM28.4588 16.6431C28.5949 16.7221 28.7079 16.8355 28.7865 16.972C28.865 17.1084 28.9064 17.2632 28.9064 17.4207C28.9064 17.5781 28.865 17.7329 28.7865 17.8693C28.7079 18.0058 28.5949 18.1192 28.4588 18.1982C28.167 18.3842 27.8283 18.483 27.4823 18.483C27.1364 18.483 26.7976 18.3842 26.5058 18.1982C26.3748 18.1152 26.2669 18.0004 26.1921 17.8644C26.1173 17.7285 26.0781 17.5758 26.0781 17.4207C26.0781 17.2655 26.1173 17.1128 26.1921 16.9769C26.2669 16.841 26.3748 16.7261 26.5058 16.6431C26.7976 16.4571 27.1364 16.3583 27.4823 16.3583C27.8283 16.3583 28.167 16.4571 28.4588 16.6431V16.6431ZM26.9264 16.9855C26.8527 17.0317 26.792 17.0959 26.7499 17.172C26.7079 17.2481 26.6858 17.3337 26.6858 17.4207C26.6858 17.5076 26.7079 17.5932 26.7499 17.6693C26.792 17.7454 26.8527 17.8096 26.9264 17.8558C27.0896 17.9751 27.2873 18.0377 27.4894 18.0341C27.6917 18.0388 27.8898 17.9761 28.0525 17.8558C28.1296 17.8123 28.1938 17.7491 28.2385 17.6727C28.2832 17.5962 28.3067 17.5092 28.3067 17.4207C28.3067 17.3321 28.2832 17.2451 28.2385 17.1686C28.1938 17.0922 28.1296 17.029 28.0525 16.9855C27.8898 16.8652 27.6917 16.8025 27.4894 16.8072C27.2873 16.8036 27.0896 16.8662 26.9264 16.9855V16.9855ZM28.3091 14.9526V14.6958H28.9078V16.2936H28.3091V16.0297H27.4253V15.6017H28.3091V15.3734H27.4253V14.9526H28.3091Z" fill="white"/>
</g>
<defs>
<clipPath id="clip0_201_2643">
<rect width="187" height="47" fill="white" transform="translate(0.789062 0.921875)"/>
</clipPath>
</defs>
</svg>
