<svg width="188" height="67" viewBox="0 0 188 67" fill="none" xmlns="http://www.w3.org/2000/svg">
<path d="M187.789 0H0.789062V67H187.789V0Z" fill="#004C25"/>
<path d="M177.001 9H9.78906V58H177.789V9H177.001ZM176.284 10.5276V56.4868H11.3081V10.5276H176.284Z" fill="#B5C700"/>
<path d="M93.9176 20.027H99.094V20.7014C98.5272 20.735 97.9736 20.8717 97.4656 21.1033C96.9576 21.335 96.5056 21.6569 96.136 22.0503L93.7623 24.2017L97.7999 29.523C98.1992 30.0558 98.4876 30.2379 98.7538 30.2649C99.0971 30.305 99.4429 30.3253 99.7891 30.3256V31H94.1173V30.3256H95.049C95.5666 30.3256 95.8329 30.2851 95.8329 30.0423C95.7692 29.7498 95.6269 29.4764 95.4188 29.2465L92.4608 25.382L90.4864 27.2164V29.5432C90.4864 30.1502 90.7748 30.3188 91.4182 30.3188H92.3425V30.9932H86.7891V30.3188H87.706C88.3568 30.3188 88.6378 30.1502 88.6378 29.5432V21.45C88.6378 20.843 88.3568 20.6744 87.706 20.6744H86.7891V20H92.313V20.6744H91.3886C90.7453 20.6744 90.4569 20.843 90.4569 21.45V26.0901L94.8937 22.0435C95.1793 21.8075 95.3716 21.4923 95.4409 21.1465C95.4409 20.843 95.1378 20.6744 94.243 20.6744H93.925L93.9176 20.027Z" fill="white"/>
<path d="M109.542 25.5C109.542 28.0065 108.947 31.2182 105.797 31.2182C102.206 31.2182 102.021 27.24 102.021 25.5C102.021 22.9935 102.608 19.7742 105.766 19.7742C109.364 19.7742 109.542 23.7524 109.542 25.5ZM111.774 25.5C111.774 22.158 109.388 19 105.766 19C101.72 19 99.7891 22.9245 99.7891 25.5C99.7891 28.8343 102.175 32 105.797 32C109.851 32 111.789 28.0755 111.789 25.5H111.774Z" fill="white"/>
<path d="M120.37 20H124.789V20.7225C124.025 20.7875 123.476 20.932 123.267 21.3727C123.035 21.9605 122.933 22.595 122.969 23.2294V32H122.343L115.395 22.0084V29.0813C115.395 30.4034 115.548 30.9524 117.229 31.0175V31.7399H112.789V31.0175C114.179 30.9741 114.61 30.4178 114.61 29.0957V21.2643C114.262 20.7947 113.873 20.7297 113.025 20.7297H112.789V20.0072H116.02L122.176 28.7851H122.211V23.0054C122.211 21.5027 122.051 20.7586 120.391 20.708L120.37 20Z" fill="white"/>
<path d="M133.389 20.0202H138.145V20.6951C137.62 20.7284 137.106 20.8649 136.635 21.0968C136.165 21.3286 135.746 21.6509 135.404 22.0448L133.204 24.1975L136.946 29.5221C137.316 30.0552 137.583 30.2374 137.83 30.2644C138.148 30.3047 138.468 30.325 138.789 30.3252V31H133.533V30.3252H134.396C134.876 30.3252 135.123 30.2847 135.123 30.0417C135.064 29.7491 134.932 29.4755 134.739 29.2454L131.998 25.3785L130.188 27.2209V29.5491C130.188 30.1564 130.449 30.3252 131.052 30.3252H131.902V31H126.789V30.3252H127.639C128.242 30.3252 128.502 30.1564 128.502 29.5491V21.4509C128.502 20.8436 128.242 20.6748 127.639 20.6748H126.789V20H131.902V20.6748H131.052C130.449 20.6748 130.188 20.8436 130.188 21.4509V26.0939L134.266 22.0448C134.535 21.8109 134.716 21.4948 134.78 21.1472C134.78 20.8436 134.499 20.6748 133.67 20.6748H133.375L133.389 20.0202Z" fill="white"/>
<path d="M147.159 20.0289H151.789V20.7514C150.081 20.8019 149.912 21.5461 149.912 23.0488V27.3835C149.912 30.4323 148.403 32 145.348 32C142.86 32 140.666 30.9741 140.666 28.5756V21.5533C140.666 20.9031 140.386 20.7225 139.739 20.7225H138.789V20H144.317V20.7225H143.405C142.757 20.7225 142.477 20.9031 142.477 21.5533V27.6797C142.477 28.9801 142.61 29.7532 143.324 30.3673C143.665 30.662 144.063 30.8862 144.494 31.0265C144.925 31.1667 145.381 31.2202 145.834 31.1836C146.266 31.1968 146.696 31.1226 147.098 30.9659C147.5 30.8092 147.864 30.5731 148.17 30.2724C148.475 29.9717 148.713 29.6127 148.871 29.2176C149.029 28.8226 149.103 28.4 149.087 27.9759V23.0199C149.087 21.5172 148.918 20.773 147.159 20.7225V20.0289Z" fill="white"/>
<path d="M159.944 20.0135H165.112V20.6883C164.541 20.7216 163.983 20.8582 163.472 21.09C162.96 21.3218 162.505 21.6442 162.133 22.038L159.721 24.184L163.786 29.5086C164.188 30.0417 164.479 30.2239 164.747 30.2509C165.092 30.2911 165.441 30.3114 165.789 30.3117V30.9865H160.078V30.3117H161.016C161.538 30.3117 161.806 30.2712 161.806 30.0282C161.742 29.7356 161.598 29.462 161.389 29.2319L158.448 25.3785L156.482 27.2209V29.5491C156.482 30.1564 156.765 30.3252 157.42 30.3252H158.343V31H152.789V30.3252H153.712C154.368 30.3252 154.65 30.1564 154.65 29.5491V21.4509C154.65 20.8436 154.368 20.6748 153.712 20.6748H152.789V20H158.343V20.6748H157.42C156.765 20.6748 156.482 20.8436 156.482 21.4509V26.0939L160.949 22.0448C161.242 21.8109 161.438 21.4948 161.508 21.1472C161.508 20.8436 161.203 20.6748 160.302 20.6748H159.982L159.944 20.0135Z" fill="white"/>
<path d="M92.5857 38H95.7891V38.5524C94.6034 38.5524 94.4924 39.1489 94.4924 40.2758V43.5458C94.4924 45.829 93.4455 47 91.3307 47C89.6042 47 88.0857 46.2635 88.0857 44.437V39.171C88.0857 38.6849 87.8915 38.5524 87.4408 38.5524H86.7891V38H90.6512V38.5524H89.9578C89.5071 38.5524 89.313 38.6849 89.313 39.171V43.7668C89.313 44.7463 89.4031 45.3208 89.8954 45.7848C90.1326 46.0046 90.4087 46.1719 90.7075 46.2769C91.0064 46.3818 91.322 46.4224 91.6357 46.3961C91.9355 46.4064 92.234 46.3511 92.5128 46.2335C92.7915 46.116 93.0445 45.9387 93.2559 45.7127C93.4673 45.4868 93.6326 45.217 93.7416 44.9203C93.8505 44.6235 93.9008 44.306 93.8892 43.9877V40.3052C93.8892 39.1784 93.7713 38.6187 92.5579 38.5818L92.5857 38Z" fill="white"/>
<path d="M102.47 38.0294H105.789V38.5799C105.208 38.6313 104.796 38.7341 104.647 39.0644C104.469 39.5026 104.392 39.9775 104.42 40.4519V47H103.952L98.7394 39.5416V44.8271C98.7394 45.8108 98.86 46.2219 100.115 46.2953V46.8458H96.7891V46.2953C97.8316 46.2586 98.1508 45.8475 98.1508 44.8271V38.9543C97.8884 38.602 97.5976 38.5506 96.9664 38.5506H96.7891V38H99.2075L103.832 44.5628V40.2684C103.832 39.1452 103.718 38.5873 102.47 38.5506V38.0294Z" fill="white"/>
<path d="M106.789 46.4085H107.292C107.642 46.4085 107.8 46.2737 107.8 45.772V39.1905C107.8 38.6963 107.642 38.5616 107.292 38.5616H106.789V38H109.789V38.5616H109.292C108.937 38.5616 108.784 38.6963 108.784 39.1905V45.802C108.784 46.3037 108.937 46.4384 109.292 46.4384H109.789V47H106.789V46.4085Z" fill="white"/>
<path d="M110.789 38H114.587V38.556H113.965C113.54 38.556 113.357 38.6672 113.357 38.897C113.38 39.095 113.434 39.2879 113.518 39.4679L115.713 45.0577L117.521 40.187C117.67 39.8709 117.757 39.5285 117.777 39.1787C117.777 38.6079 117.001 38.556 116.533 38.556V38H119.789V38.556C118.926 38.556 118.721 38.8155 118.384 39.6977L115.574 47H115.092L112.106 39.4308C111.777 38.5931 111.718 38.556 110.833 38.556L110.789 38Z" fill="white"/>
<path d="M119.789 38H126.424L126.583 41.2047H126.159C125.754 38.6739 125.203 38.5616 123.034 38.5616C122.37 38.5616 122.224 38.614 122.224 39.0482V42.0433H122.616C123.578 42.0433 124.016 41.5715 124.082 40.3436H124.573V44.4168H124.082C124.082 43.3086 123.684 42.5973 122.828 42.5973H122.224V45.9517C122.224 46.386 122.377 46.4384 123.034 46.4384C125.601 46.4384 125.754 46.1764 126.351 43.683H126.789L126.583 47H119.789V46.4384H120.393C120.824 46.4384 121.01 46.3037 121.01 45.802V39.2205C121.01 38.7263 120.824 38.5915 120.393 38.5915H119.789V38Z" fill="white"/>
<path d="M130.671 39.2142C130.671 38.6402 130.829 38.5298 131.507 38.5298C132.818 38.5298 133.434 38.5887 133.797 38.8978C133.968 39.0607 134.097 39.2585 134.172 39.4756C134.248 39.6927 134.268 39.9232 134.231 40.1488C134.231 41.3998 133.631 41.9223 131.681 41.9223C131.365 41.9223 131.034 41.9223 130.671 41.9223V39.2142ZM127.789 38.5298H128.507C129.021 38.5298 129.242 38.6623 129.242 39.148V45.646C129.242 46.139 129.021 46.2715 128.507 46.2715H127.789V46.8234H132.123V46.2715H131.46C130.947 46.2715 130.726 46.139 130.726 45.646V42.4963H131.46C133.039 42.4963 133.434 43.2322 133.576 44.8585C133.718 46.4849 134.365 47 135.155 47C136.229 47 136.789 46.3451 136.789 44.8806H136.268C136.213 45.7122 136.102 46.1243 135.755 46.1243C135.407 46.1243 135.352 45.9918 135.115 45.1382L134.815 44.027C134.735 43.5779 134.491 43.1683 134.124 42.8679C133.757 42.5674 133.29 42.3945 132.802 42.3786V42.3786C134.579 42.305 135.85 41.5691 135.85 40.1709C135.85 38.5372 134.057 38 132.605 38H127.868L127.789 38.5298Z" fill="white"/>
<path d="M142.731 38.0707H143.188L143.345 41.1624H142.826C142.448 39.8364 141.511 38.5247 139.835 38.5247C138.56 38.5247 137.985 39.2454 137.985 39.9661C137.985 40.5642 138.324 41.0903 139.56 41.4074L141.598 41.9263C142.234 42.0307 142.807 42.3435 143.21 42.8063C143.612 43.2692 143.817 43.8504 143.786 44.4414C143.786 45.8828 142.637 46.9998 140.591 46.9998C139.589 47.0085 138.618 46.6832 137.859 46.0846L137.269 46.9422H136.844L136.789 43.5622L137.285 43.5118C137.663 45.436 138.953 46.4665 140.591 46.4665C141.897 46.4665 142.739 45.8323 142.739 44.7225C142.76 44.3906 142.642 44.0638 142.41 43.8083C142.178 43.5527 141.848 43.3875 141.488 43.346L139.371 42.8416C137.852 42.4884 136.946 41.8398 136.946 40.4994C136.926 40.1567 136.987 39.8141 137.126 39.4952C137.264 39.1764 137.477 38.8888 137.748 38.6524C138.02 38.416 138.344 38.2364 138.699 38.126C139.054 38.0156 139.431 37.9771 139.803 38.0131C140.68 37.9985 141.527 38.2986 142.165 38.849L142.731 38.0707Z" fill="white"/>
<path d="M144.789 46.4085H145.452C145.926 46.4085 146.13 46.2737 146.13 45.772V39.1905C146.13 38.6963 145.926 38.5616 145.452 38.5616H144.789V38H148.789V38.5616H148.126C147.652 38.5616 147.448 38.6963 147.448 39.1905V45.802C147.448 46.3037 147.652 46.4384 148.126 46.4384H148.789V47H144.789V46.4085Z" fill="white"/>
<path d="M150.559 46.409H151.387C151.877 46.409 152.099 46.2743 152.099 45.7731V39.3092C152.099 38.7556 151.969 38.5611 151.486 38.5611C150.176 38.5611 149.594 39.5785 149.302 41.4638H148.789L148.996 38H156.582L156.789 41.4638H156.276C155.984 39.5785 155.402 38.5611 154.092 38.5611C153.609 38.5611 153.479 38.7481 153.479 39.3092V45.803C153.479 46.3042 153.701 46.4389 154.191 46.4389H155.019V47H150.559V46.409Z" fill="white"/>
<path d="M161.666 38H164.789V38.5649C163.952 38.5649 163.666 38.964 163.267 39.7623L161.513 43.3096V45.682C161.513 46.3448 161.547 46.4351 162.178 46.4351H162.796V47H159.035V46.4351H159.653C160.277 46.4351 160.317 46.3222 160.317 45.682V43.4226L158.052 39.3632C157.706 38.723 157.547 38.5649 157.055 38.5649H156.789V38H160.317V38.5649H159.606C159.321 38.5649 159.208 38.6402 159.208 38.7908C159.218 38.9787 159.281 39.1581 159.387 39.3029L161.214 42.6092L162.483 40.0711C162.666 39.7759 162.774 39.4294 162.796 39.0695C162.796 38.6703 162.53 38.5498 161.673 38.5498L161.666 38Z" fill="white"/>
<path d="M38.762 19H50.3055V20.7468C47.4797 20.8637 45.5864 22.1428 43.5942 24.16L38.2746 29.627L47.3455 43.1921C48.2427 44.5515 48.8855 45.0193 49.4648 45.0924C50.2359 45.1915 51.0121 45.2427 51.7891 45.2459V46.9927H39.0587V45.2459H41.1781C42.3367 45.2459 42.9372 45.1289 42.9372 44.515C42.7935 43.7714 42.4703 43.0774 41.9976 42.4978L35.4134 32.6528L31.0405 37.3451V43.2798C31.0405 44.8293 31.6763 45.2532 33.1598 45.2532H35.2227V47H22.7891V45.2532H24.8519C26.3143 45.2532 26.9713 44.8293 26.9713 43.2798V22.7275C26.9713 21.178 26.3355 20.7541 24.8519 20.7541H22.7891V19H35.2015V20.7468H33.1386C31.6763 20.7468 31.0193 21.1707 31.0193 22.7202V34.5531L40.9097 24.2331C41.5547 23.6327 41.9894 22.8283 42.1459 21.9454C42.1459 21.1707 41.4395 20.7468 39.4473 20.7468H38.7408L38.762 19Z" fill="white"/>
<path d="M71.1062 19H81.7891V20.7726C77.8506 20.8913 77.4611 22.701 77.4611 26.3205V36.8747C77.4611 44.2322 73.9771 48 66.9369 48C61.1663 48 56.117 45.5154 56.117 39.7302V22.7826C56.117 21.2102 55.4606 20.7801 53.953 20.7801H51.7891V19H64.5638V20.7726H62.4575C60.9643 20.7726 60.2935 21.2028 60.2935 22.7752V37.609C60.2935 40.7537 60.5965 42.6005 62.2483 44.0987C63.9001 45.5969 65.5015 46.0642 68.0189 46.0642C69.0162 46.0986 70.0096 45.9213 70.9373 45.5435C71.865 45.1657 72.707 44.5954 73.4109 43.8681C74.1147 43.1409 74.6653 42.2724 75.0283 41.3168C75.3913 40.3611 75.5589 39.3388 75.5207 38.3136V26.3205C75.5207 22.701 75.1384 20.8913 71.0773 20.7726L71.1062 19Z" fill="white"/>
</svg>
