<svg width="321" height="99" viewBox="0 0 321 99" fill="none" xmlns="http://www.w3.org/2000/svg">
<path d="M28.5194 12.9478C28.4503 6.38703 23.2017 1.93261 15.0525 1.93261C7.02423 1.93261 1.24039 6.31797 1.27492 12.8615C1.25765 18.2137 5.0042 21.2178 11.0988 22.6336L14.8108 23.4968C18.6955 24.3946 20.5256 25.4651 20.5429 27.5196C20.5256 29.7814 18.4193 31.318 14.9144 31.318C11.0988 31.318 8.56083 29.5569 8.35365 26.1384H0.359863C0.497985 34.2703 6.17823 38.2413 15.018 38.2413C23.7887 38.2413 28.9683 34.2185 29.0028 27.5369C28.9683 21.8566 25.0318 18.4727 18.2121 16.9706L15.1561 16.2627C11.9793 15.5548 9.82119 14.4844 9.89025 12.2917C9.90751 10.289 11.634 8.83869 15.018 8.83869C18.402 8.83869 20.3012 10.358 20.5256 12.9478H28.5194Z" fill="white"/>
<path d="M41.4988 22.6163C41.4988 19.5086 43.3807 17.6785 46.1086 17.6785C48.871 17.6785 50.4767 19.4568 50.4594 22.4609V37.7752H58.6949V20.8725C58.6949 14.8297 55.0519 10.9105 49.4926 10.9105C45.5043 10.9105 42.7246 12.8615 41.5333 16.0901H41.2398V2.41604H33.2633V37.7752H41.4988V22.6163Z" fill="white"/>
<path d="M75.3771 10.9105C67.9531 10.9105 63.9994 14.7607 63.6195 19.4568H71.3025C71.6306 17.7303 73.0291 16.7634 75.2217 16.7634C77.449 16.7634 78.8129 17.8166 78.8302 19.6812L78.8474 21.8048C77.7597 21.8566 74.393 21.9775 72.4593 22.0984C67.1934 22.4264 62.6354 24.5155 62.6354 30.4029C62.6354 35.6688 66.3129 38.2413 71.3716 38.2413C75.1009 38.2413 77.6734 36.7565 79.0891 34.0804H79.2963V37.7752H87.0484V19.7848C87.0484 14.0355 81.9379 10.9105 75.3771 10.9105ZM73.8923 32.7855C71.8723 32.7855 70.4566 31.8359 70.4566 30.0403C70.4566 28.2966 71.7687 27.1571 73.8578 26.9499C75.1009 26.8118 77.8633 26.6736 78.8647 26.6391L78.882 28.3311C78.8992 30.9727 76.6893 32.7855 73.8923 32.7855Z" fill="white"/>
<path d="M100.337 37.7752V23.2551C100.337 20.0783 102.598 17.9374 105.672 17.9374C106.673 17.9374 108.158 18.0928 108.935 18.3691V11.1695C108.244 11.0141 107.364 10.8932 106.587 10.8932C103.686 10.8932 101.338 12.5852 100.371 16.0555H100.095V11.2558H92.1012V37.7752H100.337Z" fill="white"/>
<path d="M136.282 24.4292C136.282 15.6412 130.93 10.9105 123.505 10.9105C115.546 10.9105 110.401 16.4181 110.401 24.6191C110.401 33.0963 115.477 38.2758 123.764 38.2758C130.653 38.2758 135.194 34.9437 136.178 29.7814H128.512C127.856 31.3352 126.182 32.3021 123.92 32.3021C120.588 32.3021 118.533 30.0921 118.533 26.7082V26.5355H136.282V24.4292ZM123.678 16.8843C126.527 16.8843 128.564 18.887 128.599 21.684H118.533C118.654 18.9561 120.778 16.8843 123.678 16.8843Z" fill="white"/>
<path d="M167.466 37.7752C175.322 37.7752 179.759 33.6142 179.759 27.9167C179.759 22.7717 176.03 19.5604 171.8 19.3877V19.0424C175.633 18.231 178.378 15.4513 178.378 11.3939C178.378 6.04173 174.286 2.41604 166.378 2.41604H151.755V37.7752H167.466ZM160.077 9.04587H165.118C168.053 9.04587 169.883 10.5652 169.883 12.9651C169.883 15.5031 167.829 17.0051 164.98 17.0051H160.077V9.04587ZM160.077 22.4264H165.688C169.003 22.4264 171.057 24.2047 171.057 26.9671C171.057 29.5051 169.331 31.0245 165.532 31.0245H160.077V22.4264Z" fill="white"/>
<path d="M208.645 24.4292C208.645 15.6412 203.293 10.9105 195.869 10.9105C187.91 10.9105 182.764 16.4181 182.764 24.6191C182.764 33.0963 187.84 38.2758 196.128 38.2758C203.017 38.2758 207.557 34.9437 208.541 29.7814H200.876C200.22 31.3352 198.545 32.3021 196.283 32.3021C192.951 32.3021 190.896 30.0921 190.896 26.7082V26.5355H208.645V24.4292ZM196.041 16.8843C198.89 16.8843 200.927 18.887 200.962 21.684H190.896C191.017 18.9561 193.141 16.8843 196.041 16.8843Z" fill="white"/>
<path d="M221.137 22.6163C221.137 19.5086 222.968 17.6785 225.695 17.6785C228.423 17.6785 230.046 19.474 230.029 22.4609V37.7752H238.265V20.8725C238.282 14.8642 234.639 10.9105 229.079 10.9105C225.143 10.9105 222.208 12.896 221.034 16.0901H220.74V11.2558H212.902V37.7752H221.137V22.6163Z" fill="white"/>
<path d="M268.313 24.4292C268.313 15.6412 262.961 10.9105 255.537 10.9105C247.577 10.9105 242.432 16.4181 242.432 24.6191C242.432 33.0963 247.508 38.2758 255.796 38.2758C262.685 38.2758 267.225 34.9437 268.209 29.7814H260.544C259.888 31.3352 258.213 32.3021 255.951 32.3021C252.619 32.3021 250.564 30.0921 250.564 26.7082V26.5355H268.313V24.4292ZM255.709 16.8843C258.558 16.8843 260.595 18.887 260.63 21.684H250.564C250.685 18.9561 252.809 16.8843 255.709 16.8843Z" fill="white"/>
<path d="M285.674 7.18123C286.054 7.18123 286.814 7.1985 287.936 7.31935V1.22474C286.52 0.931231 285.07 0.758577 283.205 0.758577C277.68 0.758577 274.158 3.79725 274.158 9.80554V11.2558H270.55V17.3332H274.158V37.7752H282.394V17.3332H287.47V11.2558H282.394V9.97819C282.394 7.97543 283.602 7.18123 285.674 7.18123Z" fill="white"/>
<path d="M295.593 8.09628C297.941 8.09628 299.857 6.31797 299.857 4.12529C299.857 1.93261 297.941 0.154297 295.593 0.154297C293.245 0.154297 291.328 1.93261 291.328 4.12529C291.328 6.31797 293.245 8.09628 295.593 8.09628ZM299.702 37.7752V11.2558H291.466V37.7752H299.702Z" fill="white"/>
<path d="M317.181 31.6978C315.8 31.646 314.971 31.1453 314.971 29.4706V17.3332H319.771V11.2558H314.971V4.90222H306.736V11.2558H303.196V17.3332H306.736V30.4202C306.684 35.7551 310.189 38.155 316.024 38.155C317.958 38.155 319.322 37.9823 320.133 37.8615V31.5597C319.184 31.6287 317.872 31.7151 317.181 31.6978Z" fill="white"/>
<path d="M98.0673 98.13L100.063 90.9408H100.201L102.204 98.13H104.787L107.791 87.5223H105.257L103.406 94.9532H103.309L101.396 87.5223H98.8822L96.9762 94.9947H96.8795L95.0079 87.5223H92.4734L95.4775 98.13H98.0673Z" fill="white"/>
<path d="M110.645 86.0098C111.425 86.0098 112.081 85.409 112.081 84.6632C112.081 83.9104 111.425 83.3096 110.645 83.3096C109.844 83.3096 109.194 83.9104 109.194 84.6632C109.194 85.409 109.844 86.0098 110.645 86.0098ZM111.881 98.13V87.5223H109.395V98.13H111.881Z" fill="white"/>
<path d="M118.608 96.1825C117.972 96.1687 117.468 95.9615 117.468 94.9394V89.4422H119.554V87.5223H117.468V84.9808H114.982V87.5223H113.476V89.4422H114.982V95.3538C114.975 97.3496 116.418 98.275 118.29 98.275C118.925 98.275 119.402 98.2198 119.699 98.1714V96.1342C119.388 96.1549 118.898 96.1894 118.608 96.1825Z" fill="white"/>
<path d="M124.186 91.9145C124.186 90.3745 125.145 89.4905 126.485 89.4905C127.804 89.4905 128.578 90.3192 128.578 91.7557V98.13H131.064V91.3759C131.064 88.8068 129.607 87.3842 127.411 87.3842C125.781 87.3842 124.752 88.1231 124.262 89.3248H124.13V83.9864H121.699V98.13H124.186V91.9145Z" fill="white"/>
<path d="M146.532 86.0073V97.9548H154.802V86.0073L167.734 62.5957H158.41L150.814 77.4611H150.503L142.906 62.5957H133.583L146.532 86.0073Z" fill="#DE0E72"/>
<path d="M202.11 80.2753C202.11 68.6213 194.755 62.1123 185.294 62.1123C175.781 62.1123 168.478 68.6213 168.478 80.2753C168.478 91.8775 175.781 98.4383 185.294 98.4383C194.755 98.4383 202.11 91.9293 202.11 80.2753ZM193.616 80.2753C193.616 87.3022 190.456 91.1178 185.294 91.1178C180.132 91.1178 176.989 87.3022 176.989 80.2753C176.989 73.2484 180.132 69.4327 185.294 69.4327C190.456 69.4327 193.616 73.2484 193.616 80.2753Z" fill="#DE0E72"/>
<path d="M228.473 84.7124C228.473 88.459 225.831 91.1524 221.912 91.1524C217.993 91.1524 215.334 88.459 215.334 84.7124V62.5957H207.012V85.4203C207.012 93.3105 212.952 98.421 221.912 98.421C230.804 98.421 236.812 93.3105 236.812 85.4203V62.5957H228.473V84.7124Z" fill="#DE0E72"/>
</svg>
