<svg width="17" height="16" viewBox="0 0 17 16" fill="none" xmlns="http://www.w3.org/2000/svg">
<path fill-rule="evenodd" clip-rule="evenodd" d="M11.7362 10.8571V10.4443L10.1567 9.06665V9.47949L11.7362 10.8571ZM3.44003 6.20375H2.25909V10.1526H5.60688L8.54242 13.2192C8.6898 13.3732 8.86681 13.4957 9.0628 13.5794C9.25879 13.6632 9.4697 13.7064 9.68283 13.7065H10.1567V12.062L11.7362 13.4397V14.4962C11.7362 14.7057 11.653 14.9066 11.5049 15.0547C11.3568 15.2028 11.1559 15.286 10.9464 15.286H9.68283C9.25644 15.2859 8.83447 15.1996 8.44234 15.0321C8.05022 14.8646 7.69607 14.6195 7.40121 14.3114L4.93242 11.7321H2.25909C1.84017 11.7321 1.43841 11.5657 1.1422 11.2694C0.845979 10.9732 0.679565 10.5715 0.679565 10.1526V6.20375C0.679565 5.78484 0.845979 5.38308 1.1422 5.08686C1.31038 4.91868 1.51258 4.79235 1.73262 4.71455L3.44003 6.20375ZM5.9682 5.82629L6.18358 5.6013L4.99198 4.56199L4.93242 4.62423H4.59001L5.9682 5.82629ZM11.7362 1.86007V7.86177L10.1567 6.48412V2.64983H9.68283C9.4697 2.64991 9.25879 2.69313 9.0628 2.77687C8.86681 2.86061 8.6898 2.98315 8.54242 3.13712L7.53085 4.19386L6.33893 3.15427L7.40042 2.04488C7.69546 1.73667 8.04987 1.49142 8.44228 1.32392C8.83469 1.15642 9.25696 1.07015 9.68362 1.07031H10.9464C11.1559 1.07031 11.3568 1.15352 11.5049 1.30163C11.653 1.44974 11.7362 1.65062 11.7362 1.86007Z" fill="white"/>
<line x1="0.685393" y1="0.878548" x2="16.0419" y2="14.2725" stroke="white" stroke-width="1.6"/>
</svg>
