<svg width="17" height="15" viewBox="0 0 17 15" fill="none" xmlns="http://www.w3.org/2000/svg">
<path d="M9.63931 1.62954H9.17154C8.96115 1.62962 8.75295 1.67228 8.55948 1.75495C8.36601 1.83761 8.19127 1.95858 8.04578 2.11056L5.14795 5.13781H1.84317V9.03588H5.14795L8.04578 12.0631C8.19127 12.2151 8.36601 12.3361 8.55948 12.4187C8.75295 12.5014 8.96115 12.5441 9.17154 12.5441H9.63931V1.62954ZM4.48216 3.57858L6.91846 1.03236C7.2097 0.728107 7.55956 0.486007 7.94693 0.320662C8.3343 0.155318 8.75114 0.0701554 9.17232 0.0703127H10.4189C10.6257 0.0703127 10.824 0.15245 10.9702 0.298657C11.1164 0.444863 11.1985 0.643161 11.1985 0.849927V13.3238C11.1985 13.5305 11.1164 13.7288 10.9702 13.875C10.824 14.0212 10.6257 14.1034 10.4189 14.1034H9.17154C8.75063 14.1033 8.33408 14.0181 7.94699 13.8527C7.55991 13.6874 7.2103 13.4454 6.91924 13.1413L4.48216 10.5951H1.84317C1.42963 10.5951 1.03304 10.4308 0.740623 10.1384C0.448211 9.84601 0.283936 9.44942 0.283936 9.03588V5.13781C0.283936 4.72428 0.448211 4.32768 0.740623 4.03527C1.03304 3.74285 1.42963 3.57858 1.84317 3.57858H4.48216Z" fill="white"/>
<path d="M13.2756 10.0289C14.8046 10.0289 16.044 8.78948 16.044 7.26055C16.044 5.73163 14.8046 4.49219 13.2756 4.49219" stroke="white" stroke-width="1.6" stroke-linecap="round" stroke-linejoin="round"/>
</svg>
