<svg width="45" height="45" viewBox="0 0 45 45" fill="none" xmlns="http://www.w3.org/2000/svg">
<path d="M44.0001 2.7325L44.7072 2.02539L43.293 0.611177L42.5859 1.31828L44.0001 2.7325ZM1.1694 42.7347L0.46229 43.4419L1.8765 44.8561L2.58361 44.149L1.1694 42.7347ZM42.5859 1.31828L1.1694 42.7347L2.58361 44.149L44.0001 2.7325L42.5859 1.31828Z" fill="#282828"/>
<path fill-rule="evenodd" clip-rule="evenodd" d="M42.5857 44.1491L43.2928 44.8562L44.707 43.442L43.9999 42.7349L26.9371 25.6721L25.5184 27.0818L42.5857 44.1491ZM18.2322 19.7956L19.651 18.3859L2.58346 1.31843L1.87635 0.611326L0.462139 2.02554L1.16925 2.73265L18.2322 19.7956Z" fill="#282828"/>
</svg>
