<svg width="336" height="388" viewBox="0 0 336 388" fill="none" xmlns="http://www.w3.org/2000/svg">
<path d="M335.082 290.489L335.082 97.4053L167.86 0.863274L0.637386 97.4052L0.637377 290.489L167.86 387.046L335.082 290.489Z" fill="#F8F9FD"/>
<path d="M162.841 272.662H166.852C166.796 275.267 165.073 276.919 162.484 276.919C159.617 276.919 157.536 274.759 157.536 270.812C157.536 266.881 159.633 264.72 162.381 264.72C164.525 264.72 165.994 265.912 166.598 267.826H169.139C168.583 264.657 165.875 262.465 162.365 262.465C158.148 262.465 155.082 265.634 155.082 270.828C155.082 275.974 158.06 279.175 162.476 279.175C166.423 279.175 169.251 276.586 169.251 272.472V270.629H162.841V272.662Z" fill="#313131"/>
<path d="M182.544 273.179C182.544 275.386 181.027 276.967 178.557 276.967C176.095 276.967 174.562 275.386 174.562 273.179V262.687H172.093V273.377C172.093 276.8 174.65 279.222 178.557 279.222C182.457 279.222 185.03 276.8 185.03 273.377V262.687H182.544V273.179Z" fill="#313131"/>
<path d="M188.332 262.687V278.952H190.802V262.687H188.332Z" fill="#313131"/>
<path d="M209.552 278.952V276.824H202.189V262.687H199.719V278.952H209.552Z" fill="#313131"/>
<path d="M216.679 266.595C213.804 266.595 211.914 268.064 211.692 270.081H214.082C214.329 269.176 215.186 268.533 216.592 268.533C218.228 268.533 219.078 269.327 219.078 270.701V271.693C218.554 271.709 216.695 271.805 215.869 271.86C213.677 272.019 211.311 272.734 211.311 275.506C211.311 277.896 213.113 279.222 215.432 279.222C217.45 279.222 218.577 278.206 219.038 277.285H219.133V278.952H221.468V270.852C221.468 267.309 218.625 266.595 216.679 266.595ZM215.965 277.308C214.622 277.308 213.661 276.713 213.661 275.537C213.661 274.338 214.646 273.742 216.211 273.631C216.791 273.592 218.538 273.472 219.086 273.441V274.553C219.086 275.998 217.926 277.308 215.965 277.308Z" fill="#313131"/>
<path d="M226.904 278.952V277.054H227.087C227.532 277.841 228.397 279.191 230.621 279.191C233.575 279.191 235.728 276.824 235.728 272.877C235.728 268.914 233.544 266.595 230.597 266.595C228.334 266.595 227.532 267.969 227.087 268.731H226.96V262.687H224.561V278.952H226.904ZM226.904 272.853C226.904 270.312 228.024 268.636 230.081 268.636C232.217 268.636 233.29 270.439 233.29 272.853C233.29 275.299 232.194 277.15 230.081 277.15C228.048 277.15 226.904 275.402 226.904 272.853Z" fill="#313131"/>
<path d="M136.437 300.782C136.437 296.949 134.137 295.45 131.72 295.45C128.771 295.45 126.816 297.702 126.816 300.961C126.816 304.256 128.743 306.41 131.872 306.41C134.199 306.41 135.829 305.264 136.298 303.531H134.185C133.833 304.187 133.066 304.698 131.885 304.698C130.131 304.698 128.943 303.544 128.888 301.521H136.437V300.782ZM128.895 299.96C128.992 298.468 130.076 297.163 131.747 297.163C133.336 297.163 134.379 298.351 134.385 299.96H128.895Z" fill="#939393"/>
<path d="M137.634 295.589L140.887 300.892L137.593 306.196H139.886L142.247 302.232L144.637 306.196H146.909L143.573 300.892L146.881 295.589H144.595L142.247 299.705L139.92 295.589H137.634Z" fill="#939393"/>
<path d="M150.145 306.327C150.891 306.327 151.526 305.706 151.526 304.946C151.526 304.187 150.891 303.565 150.145 303.565C149.378 303.565 148.743 304.187 148.757 304.946C148.743 305.706 149.378 306.327 150.145 306.327Z" fill="#939393"/>
<path d="M165.433 301.79C165.433 303.593 164.093 304.442 162.94 304.442C161.662 304.442 160.785 303.524 160.785 302.08V295.589H158.699V302.336C158.699 304.96 160.143 306.334 162.187 306.334C163.782 306.334 164.866 305.492 165.357 304.359H165.467V306.196H167.504V295.589H165.433V301.79Z" fill="#939393"/>
<path d="M172.132 299.905C172.132 298.213 173.161 297.253 174.598 297.253C176 297.253 176.836 298.171 176.836 299.705V306.196H178.921V299.449C178.921 296.832 177.485 295.45 175.309 295.45C173.714 295.45 172.671 296.189 172.181 297.322H172.05V295.589H170.047V306.196H172.132V299.905Z" fill="#939393"/>
<path d="M182.51 293.959C183.221 293.959 183.815 293.406 183.815 292.723C183.815 292.039 183.221 291.486 182.51 291.486C181.785 291.486 181.191 292.039 181.191 292.723C181.191 293.406 181.785 293.959 182.51 293.959ZM183.539 306.196V295.589H181.453V306.196H183.539Z" fill="#939393"/>
<path d="M190.15 304.49C189.473 304.484 188.879 304.269 188.879 303.075V297.253H191.041V295.589H188.879V293.047H186.793V295.589H185.239V297.253H186.793V303.503C186.786 305.437 188.257 306.334 189.894 306.334C190.46 306.334 190.909 306.293 191.186 306.245V304.449C190.909 304.463 190.447 304.49 190.15 304.49Z" fill="#939393"/>
<path d="M194.359 310.174C196.106 310.174 197.183 309.283 197.798 307.605L202.169 295.589H199.939L197.252 303.814H197.142L194.469 295.589H192.239L196.127 306.341L195.864 307.032C195.374 308.372 194.828 308.413 194.186 308.413C193.889 308.413 193.489 308.406 193.254 308.385L193.24 310.133C193.516 310.16 193.931 310.174 194.359 310.174Z" fill="#939393"/>
<path d="M212.729 306.403C214.662 306.403 215.415 305.229 215.802 304.546H215.961V306.196H217.998V292.053H215.912V297.308H215.802C215.429 296.645 214.718 295.45 212.749 295.45C210.187 295.45 208.288 297.467 208.288 300.913C208.288 304.345 210.16 306.403 212.729 306.403ZM213.198 304.629C211.361 304.629 210.408 303.019 210.408 300.892C210.408 298.793 211.341 297.225 213.198 297.225C214.987 297.225 215.961 298.682 215.961 300.892C215.961 303.109 214.966 304.629 213.198 304.629Z" fill="#939393"/>
<path d="M229.855 300.782C229.855 296.949 227.555 295.45 225.138 295.45C222.189 295.45 220.234 297.702 220.234 300.961C220.234 304.256 222.161 306.41 225.29 306.41C227.617 306.41 229.247 305.264 229.716 303.531H227.603C227.251 304.187 226.484 304.698 225.303 304.698C223.549 304.698 222.361 303.544 222.306 301.521H229.855V300.782ZM222.313 299.96C222.41 298.468 223.494 297.163 225.165 297.163C226.754 297.163 227.797 298.351 227.803 299.96H222.313Z" fill="#939393"/>
<path d="M239.878 298.482C239.684 296.659 238.206 295.45 235.851 295.45C233.386 295.45 231.742 296.749 231.742 298.634C231.742 300.105 232.744 301.127 234.65 301.542L236.307 301.908C237.44 302.163 237.944 302.605 237.944 303.289C237.944 304.18 237.074 304.739 235.72 304.739C234.47 304.739 233.745 304.263 233.565 303.296H231.432C231.694 305.278 233.199 306.41 235.741 306.41C238.455 306.41 240.078 305.043 240.078 303.123C240.078 301.631 239.125 300.699 237.184 300.25L235.485 299.863C234.325 299.594 233.821 299.145 233.828 298.517C233.821 297.716 234.677 297.094 235.865 297.094C237.019 297.094 237.682 297.64 237.875 298.482H239.878Z" fill="#939393"/>
<path d="M243.193 293.959C243.905 293.959 244.499 293.406 244.499 292.723C244.499 292.039 243.905 291.486 243.193 291.486C242.468 291.486 241.874 292.039 241.874 292.723C241.874 293.406 242.468 293.959 243.193 293.959ZM244.222 306.196V295.589H242.137V306.196H244.222Z" fill="#939393"/>
<path d="M251.227 310.395C253.955 310.395 256.006 309.152 256.006 306.424V295.589H253.969V297.308H253.831C253.451 296.645 252.726 295.45 250.757 295.45C248.195 295.45 246.296 297.398 246.296 300.782C246.296 304.173 248.23 306.037 250.737 306.037C252.677 306.037 253.444 304.946 253.81 304.263H253.948V306.348C253.948 308.006 252.898 308.724 251.248 308.724C249.86 308.724 248.92 308.234 248.72 307.225H246.593C246.779 309.214 248.54 310.395 251.227 310.395ZM251.206 304.318C249.369 304.318 248.416 302.902 248.416 300.823C248.416 298.793 249.348 297.225 251.206 297.225C252.995 297.225 253.969 298.682 253.969 300.823C253.969 303.013 252.974 304.318 251.206 304.318Z" fill="#939393"/>
<path d="M260.629 299.905C260.629 298.213 261.658 297.253 263.094 297.253C264.496 297.253 265.332 298.171 265.332 299.705V306.196H267.417V299.449C267.417 296.832 265.981 295.45 263.805 295.45C262.21 295.45 261.167 296.189 260.677 297.322H260.546V295.589H258.543V306.196H260.629V299.905Z" fill="#939393"/>
<path style="mix-blend-mode:multiply" opacity="0.25" d="M278.436 153.528C278.436 112.901 245.52 79.9649 204.919 79.9649C192.642 79.958 180.559 83.0307 169.775 88.902C158.991 94.7733 149.85 103.256 143.188 113.574C138.19 121.156 130.923 126.961 122.427 130.158C113.932 133.355 104.643 133.779 95.8909 131.371V131.371C91.9685 130.292 87.919 129.745 83.851 129.745C77.8987 129.745 72.0047 130.918 66.5056 133.197C61.0064 135.477 56.0099 138.818 51.8011 143.029C47.5924 147.241 44.254 152.241 41.9764 157.744C39.6989 163.246 38.5269 169.144 38.5273 175.1C38.5328 185.376 42.0254 195.346 48.4332 203.376C54.841 211.407 63.784 217.021 73.7976 219.301C80.1659 220.756 85.9074 224.198 90.1935 229.131C94.4795 234.063 97.0884 240.23 97.6434 246.743V246.743C98.4034 255.866 102.562 264.37 109.294 270.569C116.027 276.768 124.842 280.208 133.991 280.208C141.816 280.208 149.434 277.69 155.72 273.027C162.006 268.364 166.628 261.802 168.903 254.31C171.364 246.479 176.24 239.629 182.831 234.742C189.423 229.854 197.391 227.181 205.595 227.106C245.888 226.731 278.436 193.938 278.436 153.528Z" fill="url(#paint0_linear_1161_3023)"/>
<path d="M170.63 201.128C170.269 202.693 171.243 203.96 172.807 203.96H221.899C222.706 203.923 223.479 203.628 224.106 203.118C224.733 202.608 225.18 201.911 225.381 201.128L243.604 122.121C243.965 120.559 242.991 119.293 241.43 119.293H192.351C191.545 119.33 190.772 119.624 190.145 120.133C189.518 120.642 189.071 121.339 188.869 122.121L170.63 201.128Z" fill="#783477"/>
<path d="M170.63 201.128C170.269 202.693 171.243 203.96 172.807 203.96H221.899C222.706 203.923 223.479 203.628 224.106 203.118C224.733 202.608 225.18 201.911 225.381 201.128L243.604 122.121C243.965 120.559 242.991 119.293 241.43 119.293H192.351C191.545 119.33 190.772 119.624 190.145 120.133C189.518 120.642 189.071 121.339 188.869 122.121L170.63 201.128Z" fill="white"/>
<g style="mix-blend-mode:multiply">
<path d="M191.75 129.25H237.449L238.387 125.176H192.688L191.75 129.25Z" fill="#253A69"/>
</g>
<g style="mix-blend-mode:multiply">
<path d="M205.898 135.588H235.986L236.927 131.514H206.836L205.898 135.588Z" fill="#253A69"/>
</g>
<g style="mix-blend-mode:multiply">
<path d="M176.273 195.341H222.198L234.858 140.469H188.933L176.273 195.341Z" fill="#253A69"/>
</g>
<path d="M214.428 150.382C213.573 154.095 215.885 157.105 219.596 157.105H234.529C238.24 157.105 241.941 154.095 242.812 150.382C243.683 146.669 241.354 143.658 237.643 143.658H222.711C219 143.658 215.286 146.669 214.428 150.382Z" fill="#0E1B3F"/>
<path d="M229.357 151.19C229.918 150.69 230.051 149.922 229.652 149.475C229.254 149.028 228.476 149.071 227.915 149.572C227.354 150.073 227.221 150.841 227.619 151.288C228.017 151.735 228.795 151.691 229.357 151.19Z" fill="white"/>
<path d="M235.278 151.187C235.84 150.686 235.972 149.918 235.574 149.471C235.176 149.024 234.398 149.067 233.837 149.568C233.275 150.069 233.143 150.837 233.541 151.284C233.939 151.731 234.717 151.687 235.278 151.187Z" fill="white"/>
<path d="M223.435 151.19C223.996 150.69 224.129 149.922 223.731 149.475C223.332 149.028 222.555 149.071 221.993 149.572C221.432 150.073 221.299 150.841 221.697 151.288C222.096 151.735 222.873 151.691 223.435 151.19Z" fill="white"/>
<path d="M219.113 156.197L215.535 161.876L225.544 156.197H219.113Z" fill="#0E1B3F"/>
<path d="M121.415 185.053C121.35 185.258 121.334 185.474 121.371 185.686C121.407 185.897 121.495 186.096 121.625 186.266C121.755 186.436 121.925 186.572 122.119 186.662C122.313 186.753 122.527 186.794 122.741 186.784H200.393C200.885 186.759 201.357 186.578 201.739 186.267C202.122 185.956 202.395 185.531 202.52 185.053L206.164 169.269C206.23 169.065 206.245 168.848 206.208 168.637C206.172 168.426 206.085 168.227 205.955 168.057C205.824 167.886 205.655 167.751 205.46 167.66C205.266 167.57 205.053 167.528 204.839 167.539H127.187C126.694 167.563 126.223 167.745 125.84 168.056C125.458 168.367 125.184 168.792 125.06 169.269L121.415 185.053Z" fill="white"/>
<path d="M121.415 185.053C121.35 185.258 121.334 185.474 121.371 185.686C121.407 185.897 121.495 186.096 121.625 186.266C121.755 186.436 121.925 186.572 122.119 186.662C122.313 186.753 122.527 186.794 122.741 186.784H200.393C200.885 186.759 201.357 186.578 201.739 186.267C202.122 185.956 202.395 185.531 202.52 185.053L206.164 169.269C206.23 169.065 206.245 168.848 206.208 168.637C206.172 168.426 206.085 168.227 205.955 168.057C205.824 167.886 205.655 167.751 205.46 167.66C205.266 167.57 205.053 167.528 204.839 167.539H127.187C126.694 167.563 126.223 167.745 125.84 168.056C125.458 168.367 125.184 168.792 125.06 169.269L121.415 185.053Z" fill="white"/>
<path d="M204.835 167.552C205.049 167.542 205.262 167.583 205.457 167.674C205.651 167.764 205.821 167.9 205.951 168.07C206.081 168.24 206.168 168.439 206.205 168.65C206.241 168.862 206.226 169.079 206.161 169.283L202.516 185.067C202.391 185.544 202.118 185.969 201.735 186.28C201.353 186.591 200.881 186.773 200.389 186.797H122.737C122.523 186.808 122.31 186.766 122.115 186.676C121.921 186.586 121.752 186.45 121.621 186.279C121.491 186.109 121.404 185.91 121.367 185.699C121.331 185.488 121.346 185.271 121.412 185.067L125.056 169.283C125.181 168.806 125.454 168.381 125.835 168.07C126.217 167.759 126.688 167.577 127.18 167.552H204.835ZM204.835 166.647H127.183C126.486 166.67 125.816 166.92 125.273 167.359C124.73 167.797 124.345 168.4 124.175 169.077L120.53 184.865C120.445 185.206 120.438 185.562 120.509 185.906C120.581 186.25 120.728 186.574 120.941 186.854C121.159 187.119 121.434 187.332 121.746 187.476C122.057 187.62 122.397 187.692 122.74 187.686H200.392C201.09 187.663 201.76 187.413 202.303 186.975C202.846 186.536 203.231 185.933 203.401 185.256L207.045 169.468C207.13 169.127 207.137 168.771 207.066 168.427C206.995 168.083 206.847 167.759 206.634 167.479C206.416 167.213 206.141 167 205.828 166.856C205.516 166.712 205.176 166.641 204.832 166.647H204.835Z" fill="#9BC3DA"/>
<path d="M149.207 175.78H199.379L200.151 172.432H149.979L149.207 175.78Z" fill="#4C85D8"/>
<path d="M147.793 181.914H197.962L198.737 178.568H148.565L147.793 181.914Z" fill="#4C85D8"/>
<path d="M134.78 160.215C134.728 160.381 134.717 160.557 134.747 160.728C134.778 160.899 134.849 161.061 134.955 161.198C135.061 161.336 135.198 161.447 135.356 161.52C135.513 161.594 135.686 161.628 135.86 161.621H198.897C199.297 161.602 199.681 161.455 199.991 161.202C200.302 160.949 200.523 160.603 200.623 160.215L203.579 147.401C203.63 147.236 203.642 147.06 203.611 146.89C203.581 146.719 203.51 146.558 203.404 146.42C203.299 146.283 203.162 146.173 203.005 146.099C202.847 146.026 202.675 145.992 202.502 145.999H139.464C139.065 146.017 138.681 146.163 138.37 146.415C138.059 146.668 137.838 147.013 137.738 147.401L134.78 160.215Z" fill="#AFC9E0"/>
<path d="M62.5024 180.234C62.4505 180.4 62.4394 180.576 62.4699 180.747C62.5005 180.918 62.5717 181.079 62.6777 181.217C62.7837 181.354 62.9213 181.464 63.0788 181.537C63.2363 181.61 63.4091 181.645 63.5825 181.637H110.577C110.977 181.619 111.361 181.473 111.672 181.22C111.982 180.968 112.204 180.622 112.304 180.234L126.219 119.872C126.271 119.707 126.282 119.531 126.252 119.36C126.221 119.19 126.15 119.029 126.045 118.891C125.939 118.754 125.802 118.643 125.645 118.57C125.488 118.497 125.315 118.462 125.142 118.47H78.1441C77.7445 118.489 77.3615 118.635 77.0509 118.887C76.7404 119.14 76.5186 119.485 76.4179 119.872L62.5024 180.234Z" fill="#FBFDFE"/>
<path d="M124.078 206.624C124.025 206.789 124.014 206.965 124.044 207.136C124.074 207.308 124.145 207.469 124.25 207.607C124.356 207.745 124.493 207.855 124.651 207.929C124.808 208.002 124.981 208.037 125.154 208.029H188.208C188.609 208.011 188.992 207.864 189.303 207.611C189.614 207.358 189.835 207.012 189.935 206.624L192.89 193.81C192.943 193.644 192.954 193.468 192.924 193.297C192.894 193.126 192.823 192.965 192.718 192.827C192.612 192.69 192.474 192.579 192.317 192.506C192.159 192.433 191.987 192.399 191.813 192.407H128.776C128.376 192.425 127.992 192.571 127.682 192.824C127.371 193.076 127.149 193.422 127.05 193.81L124.078 206.624Z" fill="#AFC9E0"/>
<path d="M139.977 204.475C142.884 201.883 143.571 197.907 141.512 195.596C139.454 193.284 135.428 193.512 132.521 196.105C129.614 198.697 128.927 202.673 130.986 204.984C133.044 207.295 137.07 207.067 139.977 204.475Z" fill="white"/>
<mask id="mask0_1161_3023" style="mask-type:alpha" maskUnits="userSpaceOnUse" x="129" y="194" width="14" height="13">
<path d="M139.977 204.475C142.884 201.883 143.571 197.907 141.512 195.596C139.454 193.284 135.428 193.512 132.521 196.105C129.614 198.697 128.927 202.673 130.986 204.984C133.044 207.295 137.07 207.068 139.977 204.475Z" fill="white"/>
</mask>
<g mask="url(#mask0_1161_3023)">
<path d="M128.648 208.459H139.784L140.036 204.931C140.037 204.671 139.963 204.416 139.823 204.197C139.682 203.978 139.481 203.805 139.244 203.698L136.869 202.703H134.201L131.22 203.738C131.22 203.738 129.951 204.401 129.765 205.515L128.648 208.459Z" fill="#D63D3B"/>
<path d="M134.191 202.7L135.016 204.928L136.872 202.7L136.484 201.437L136.408 201.388L135.156 200.582L134.884 200.406L134.5 201.673L134.191 202.7Z" fill="#FACAD4"/>
<g style="mix-blend-mode:multiply">
<path d="M135.527 201.125C135.532 201.5 135.666 201.863 135.908 202.15C136.15 202.437 136.484 202.631 136.853 202.7L136.468 201.437L136.392 201.387L135.527 201.125Z" fill="#FACAD4"/>
</g>
<g style="mix-blend-mode:multiply">
<path d="M134.5 201.673L135.156 200.582L134.884 200.406L134.5 201.673Z" fill="#FACAD4"/>
</g>
<path d="M133.696 198.87C133.694 198.88 133.694 198.89 133.696 198.9C133.659 199.03 133.654 199.167 133.681 199.299C133.708 199.431 133.766 199.555 133.85 199.661C133.934 199.766 134.042 199.85 134.165 199.906C134.288 199.962 134.422 199.987 134.557 199.981C134.874 199.966 135.177 199.85 135.424 199.65C135.67 199.451 135.846 199.177 135.925 198.87C135.95 198.768 135.959 198.663 135.952 198.558H136.422C136.381 198.646 136.35 198.738 136.33 198.833C136.285 198.985 136.277 199.145 136.306 199.301C136.335 199.456 136.401 199.603 136.499 199.727C136.596 199.852 136.721 199.952 136.865 200.019C137.008 200.085 137.166 200.116 137.324 200.11C137.688 200.094 138.037 199.961 138.319 199.731C138.602 199.501 138.804 199.187 138.894 198.833C138.939 198.67 138.944 198.498 138.909 198.332C138.873 198.167 138.797 198.012 138.689 197.882C139.075 197.608 139.351 197.205 139.467 196.745C139.543 196.457 139.517 196.151 139.394 195.88C139.295 195.679 139.14 195.511 138.947 195.397C138.753 195.284 138.531 195.229 138.308 195.24C137.968 195.253 137.637 195.353 137.347 195.531C137.057 195.708 136.817 195.957 136.651 196.254C136.481 196.127 136.273 196.061 136.061 196.065C135.729 196.08 135.41 196.202 135.152 196.412C134.893 196.622 134.709 196.91 134.627 197.232C134.576 197.432 134.586 197.642 134.656 197.836C134.424 197.916 134.215 198.052 134.047 198.233C133.879 198.413 133.759 198.632 133.696 198.87V198.87Z" fill="#233166"/>
<path d="M134.641 199.974C134.641 199.974 134.379 200.783 135.088 200.683C135.088 200.683 135.274 201.678 136.649 201.678C136.649 201.678 137.043 201.678 137.192 201.137L137.414 200.169C137.414 200.169 137.325 200.232 137.5 200.01C137.406 199.625 137.365 199.229 137.378 198.833C137.406 198.767 137.42 198.695 137.419 198.623C137.417 198.551 137.4 198.479 137.369 198.414C137.337 198.349 137.292 198.292 137.237 198.246C137.181 198.199 137.116 198.166 137.046 198.147L136.5 198.044C136.425 198.033 136.349 198.051 136.288 198.094C136.153 198.186 136.009 198.261 135.857 198.319C135.9 198.698 135.798 199.078 135.573 199.385C135.347 199.692 135.015 199.902 134.641 199.974V199.974Z" fill="#FACAD4"/>
<path d="M137.067 199.312C137.027 199.839 136.795 200.307 136.547 200.336C136.298 200.366 136.126 199.978 136.166 199.448C136.206 198.918 136.438 198.453 136.686 198.424C136.935 198.394 137.107 198.775 137.067 199.312Z" fill="white"/>
<path d="M137.88 199.372C137.847 199.85 137.654 200.264 137.449 200.297C137.244 200.33 137.118 199.966 137.144 199.482C137.171 198.998 137.373 198.59 137.575 198.557C137.777 198.524 137.916 198.892 137.88 199.372Z" fill="white"/>
<path d="M135.43 199.401H136.252C136.27 199.4 136.288 199.394 136.302 199.382C136.316 199.371 136.327 199.355 136.332 199.338C136.334 199.33 136.334 199.322 136.332 199.314C136.331 199.306 136.327 199.299 136.323 199.293C136.318 199.286 136.312 199.281 136.305 199.277C136.298 199.274 136.29 199.272 136.282 199.271H135.46C135.442 199.273 135.425 199.281 135.41 199.292C135.396 199.304 135.386 199.32 135.381 199.338C135.379 199.345 135.378 199.353 135.38 199.361C135.381 199.369 135.385 199.376 135.39 199.382C135.394 199.388 135.401 199.393 135.408 199.396C135.415 199.399 135.423 199.401 135.43 199.401V199.401Z" fill="white"/>
<path d="M136.91 199.431L137.249 199.401L137.269 199.271L136.93 199.301L136.91 199.431Z" fill="white"/>
<g style="mix-blend-mode:screen" opacity="0.5">
<path d="M133.696 198.874C133.695 198.884 133.695 198.894 133.696 198.904C135.062 198.573 135.383 197.578 135.383 197.578C135.501 197.331 135.704 197.136 135.955 197.029C136.207 196.921 136.488 196.909 136.748 196.995C137.293 197.035 137.839 196.936 138.335 196.706C138.506 196.63 138.652 196.507 138.757 196.353C138.862 196.198 138.923 196.018 138.931 195.831C138.933 195.751 138.918 195.671 138.888 195.597C138.857 195.523 138.812 195.456 138.755 195.4C138.698 195.344 138.63 195.3 138.556 195.271C138.481 195.242 138.402 195.228 138.322 195.231H138.295C137.955 195.244 137.625 195.344 137.335 195.522C137.045 195.699 136.805 195.949 136.639 196.245C136.469 196.118 136.261 196.052 136.049 196.056C135.716 196.071 135.398 196.193 135.139 196.403C134.881 196.613 134.697 196.901 134.614 197.223C134.563 197.423 134.574 197.633 134.644 197.827C134.412 197.91 134.205 198.049 134.039 198.232C133.874 198.415 133.756 198.635 133.696 198.874V198.874Z" fill="#233166"/>
</g>
</g>
<path d="M146.637 199.088H187.363L187.992 196.369H147.263L146.637 199.088Z" fill="#4C85D8"/>
<path d="M145.484 204.065H186.211L186.84 201.35H146.114L145.484 204.065Z" fill="#4C85D8"/>
<path d="M157.344 152.68H198.07L198.696 149.961H157.97L157.344 152.68Z" fill="#4C85D8"/>
<path d="M156.195 157.657H196.921L197.548 154.941H156.822L156.195 157.657Z" fill="#4C85D8"/>
<path d="M150.722 158.077C153.65 155.465 154.344 151.461 152.27 149.133C150.197 146.805 146.142 147.036 143.213 149.648C140.284 152.26 139.591 156.264 141.664 158.592C143.738 160.92 147.793 160.689 150.722 158.077Z" fill="white"/>
<mask id="mask1_1161_3023" style="mask-type:alpha" maskUnits="userSpaceOnUse" x="140" y="147" width="14" height="14">
<path d="M150.722 158.073C153.65 155.461 154.344 151.457 152.27 149.129C150.197 146.801 146.142 147.032 143.213 149.644C140.284 152.256 139.591 156.26 141.664 158.588C143.738 160.916 147.793 160.685 150.722 158.073Z" fill="white"/>
</mask>
<g mask="url(#mask1_1161_3023)">
<g style="mix-blend-mode:multiply">
<g style="mix-blend-mode:multiply">
<path d="M149.166 157.113C148.991 157.519 148.687 157.855 148.302 158.071L143.249 160.916L141.079 162.136L140.618 162.394C140.436 162.515 140.223 162.579 140.005 162.579C139.787 162.579 139.574 162.515 139.392 162.394C138.64 161.804 139.392 160.922 139.896 160.2C140.539 159.265 141.221 158.34 141.861 157.412L142.755 158.028L142.046 159.431L145.886 155.572C146.261 155.263 147.665 155.044 148.09 155.078C148.286 155.086 148.477 155.146 148.642 155.253C148.808 155.36 148.942 155.509 149.031 155.684L149.18 155.989C149.256 156.167 149.294 156.359 149.292 156.553C149.29 156.746 149.247 156.937 149.166 157.113V157.113Z" fill="#D1E6F7"/>
</g>
<g style="mix-blend-mode:multiply">
<path d="M144.034 157.746L143.248 160.919L141.078 162.139L142.384 160.813C142.713 159.686 143.275 158.642 144.034 157.746V157.746Z" fill="#DFF2F8"/>
</g>
<g style="mix-blend-mode:multiply">
<path d="M145.722 153.68L145.125 153.767L143.638 154.029C143.562 154.348 143.526 154.675 143.532 155.003C143.532 155.003 142.359 156.697 141.875 157.404L142.77 158.02L144.164 155.229C144.744 155.099 145.516 154.532 145.539 154.337C145.563 154.141 145.947 153.74 145.947 153.74C145.92 153.554 145.722 153.68 145.722 153.68Z" fill="#F4D2AE"/>
</g>
<g style="mix-blend-mode:multiply">
<path d="M143.582 153.688L143.914 153.316C143.914 153.316 143.87 153.17 143.698 153.289C143.64 153.336 143.598 153.399 143.577 153.47C143.556 153.541 143.558 153.617 143.582 153.688V153.688Z" fill="#F4D2AE"/>
</g>
<g style="mix-blend-mode:multiply">
<path d="M143.95 153.259L144.414 152.715L144.083 152.92C144.083 152.92 143.831 153.083 143.95 153.259Z" fill="#F4D2AE"/>
</g>
<g style="mix-blend-mode:multiply">
<path d="M144.824 152.229L144.545 152.561C144.54 152.515 144.545 152.468 144.559 152.424C144.573 152.38 144.597 152.339 144.628 152.305C144.681 152.255 144.751 152.227 144.824 152.229V152.229Z" fill="#F4D2AE"/>
</g>
<g style="mix-blend-mode:multiply">
<path d="M144.884 154.663C144.845 154.716 144.789 154.753 144.725 154.768C144.661 154.783 144.594 154.774 144.536 154.743L143.569 154.043C143.546 154.022 143.528 153.996 143.515 153.968C143.503 153.939 143.496 153.909 143.496 153.877C143.496 153.846 143.503 153.815 143.515 153.787C143.528 153.758 143.546 153.733 143.569 153.712L145.484 151.454C145.523 151.401 145.58 151.363 145.645 151.349C145.709 151.334 145.777 151.343 145.835 151.374L146.802 152.074C146.825 152.095 146.843 152.121 146.855 152.149C146.867 152.178 146.873 152.209 146.873 152.24C146.873 152.271 146.867 152.301 146.855 152.33C146.843 152.358 146.825 152.384 146.802 152.405L144.884 154.663Z" fill="#F05673"/>
</g>
<g style="mix-blend-mode:multiply">
<path d="M144.929 154.337L143.902 153.594L145.559 151.645L146.583 152.387L144.929 154.337Z" fill="white"/>
</g>
<g style="mix-blend-mode:multiply">
<path d="M146.383 151.999C146.376 152.005 146.368 152.008 146.359 152.008C146.349 152.008 146.341 152.005 146.334 151.999L146.002 151.763C145.996 151.757 145.992 151.749 145.992 151.74C145.992 151.731 145.996 151.723 146.002 151.717C146.008 151.711 146.017 151.707 146.027 151.707C146.036 151.707 146.045 151.711 146.051 151.717L146.383 151.949C146.387 151.952 146.39 151.956 146.392 151.961C146.394 151.965 146.395 151.97 146.395 151.974C146.395 151.979 146.394 151.984 146.392 151.988C146.39 151.992 146.387 151.996 146.383 151.999V151.999Z" fill="white"/>
</g>
<g style="mix-blend-mode:multiply">
<path d="M145.937 151.533C145.708 151.885 145.437 152.13 145.331 152.08C145.225 152.031 145.331 151.706 145.549 151.354C145.768 151.003 146.05 150.757 146.156 150.807C146.262 150.857 146.165 151.182 145.937 151.533Z" fill="white"/>
</g>
<g style="mix-blend-mode:multiply">
<path d="M148.634 154.814L145.934 155.626C145.934 155.626 145.953 155.53 145.977 155.294C146.023 154.752 146.04 154.207 146.03 153.663C146.03 153.511 146.03 153.166 146.03 153.166L146.742 152.659L148.001 151.488L149.041 151.667L148.319 153.657C148.274 153.86 148.279 154.072 148.334 154.274C148.389 154.475 148.492 154.661 148.634 154.814V154.814Z" fill="#F4D2AE"/>
</g>
<g style="mix-blend-mode:multiply">
<path d="M144.663 153.85L144.845 153.392C144.994 153.147 145.129 152.893 145.249 152.633L145.233 152.48L145.392 152.149C145.23 152.109 145.037 151.977 145.336 151.781C145.523 151.63 145.685 151.45 145.816 151.247C145.852 151.161 145.879 151.073 145.899 150.982C145.977 150.747 146.121 150.54 146.313 150.385C146.323 150.373 146.335 150.362 146.349 150.355C146.442 150.283 146.544 150.222 146.651 150.173V150.173C146.706 150.149 146.762 150.129 146.82 150.113L147.483 150.412L148.911 151.075L148.702 151.486L148.37 152.149L148.089 152.706L147.357 152.434L147.314 152.417V152.477L147.138 153.064L146.883 153.246L145.945 153.909H145.859H145.766L144.988 154.059C144.689 154.125 144.656 153.986 144.656 153.913C144.656 153.891 144.658 153.87 144.663 153.85V153.85Z" fill="#F4D2AE"/>
</g>
<g style="mix-blend-mode:multiply">
<path d="M147.381 150.756C147.399 150.72 147.408 150.68 147.408 150.64C147.408 150.6 147.399 150.56 147.381 150.524C147.36 150.492 147.331 150.466 147.297 150.449C147.262 150.431 147.224 150.423 147.186 150.424C146.712 150.424 146.069 150.265 146.414 149.396C146.414 149.396 146.825 148.528 147.511 148.919C147.511 148.919 147.766 149.184 148.312 148.896C148.859 148.607 149.409 148.687 149.638 148.995C149.7 149.066 149.747 149.149 149.776 149.238C149.805 149.328 149.815 149.422 149.807 149.516C149.798 149.566 149.798 149.618 149.807 149.668C149.81 149.733 149.838 149.794 149.885 149.839C149.932 149.884 149.994 149.91 150.059 149.91C150.337 149.91 150.831 150.288 150.449 151.107C150.374 151.267 150.269 151.41 150.141 151.532L150.105 151.565C149.948 151.714 149.774 151.845 149.588 151.956C149.511 152.009 149.445 152.079 149.397 152.159C149.348 152.24 149.318 152.33 149.306 152.423C149.253 152.668 149.139 152.894 148.973 153.082C148.808 153.269 148.598 153.411 148.362 153.494L148.206 153.265C148.128 153.128 148.102 152.966 148.132 152.81C148.162 152.655 148.248 152.515 148.372 152.417C148.448 152.358 148.503 152.276 148.528 152.183C148.552 152.09 148.545 151.991 148.508 151.903C148.488 151.859 148.457 151.821 148.418 151.792C148.379 151.764 148.334 151.746 148.286 151.74C148.229 151.732 148.171 151.738 148.117 151.757C148.063 151.776 148.014 151.808 147.974 151.85C147.883 151.936 147.783 152.014 147.676 152.082L147.014 152.516L147.282 151.747C147.35 151.565 147.373 151.369 147.348 151.177C147.325 151.036 147.336 150.891 147.381 150.756V150.756Z" fill="#182F57"/>
</g>
<g style="mix-blend-mode:multiply">
<path d="M148.736 154.969L148.65 154.223L145.857 155.075L145.188 156.248L148.736 154.969Z" fill="white"/>
</g>
<g style="mix-blend-mode:multiply">
<path d="M145.856 155.074L145.137 155.78L145.143 156.036L145.405 156.182L145.856 155.074Z" fill="white"/>
</g>
<g style="mix-blend-mode:multiply">
<path d="M149.799 159.853C149.69 160.152 149.567 160.457 149.438 160.772C148.894 162.098 148.225 163.504 147.89 164.598C147.737 164.979 147.71 165.4 147.814 165.798C147.834 165.881 147.833 165.968 147.812 166.051C147.792 166.134 147.751 166.211 147.695 166.275C147.638 166.346 147.567 166.404 147.487 166.446C147.406 166.489 147.318 166.514 147.228 166.521C146.867 166.537 146.506 166.502 146.154 166.418C145.856 166.335 145.543 166.324 145.24 166.385C144.552 166.5 143.883 166.709 143.252 167.005C142.997 167.134 142.341 167.79 142.089 167.684C141.758 167.545 142.374 166.388 142.493 166.116C142.901 165.171 143.229 164.064 143.653 163.132C143.838 162.725 143.984 162.37 144.093 162.105C144.352 161.413 144.406 160.661 144.249 159.94C144.196 159.663 144.185 159.381 144.216 159.101C144.339 158.133 144.531 157.069 145.21 156.19C145.409 155.946 145.647 155.738 145.916 155.573C146.397 155.293 146.914 155.079 147.453 154.937C148.202 154.718 148.679 154.605 149.226 155.016C149.61 155.347 149.861 155.807 149.931 156.309C149.931 156.309 150.568 157.788 149.799 159.853Z" fill="#DFF2F8"/>
</g>
<g style="mix-blend-mode:multiply">
<path d="M146.308 151.572C146.079 151.924 145.808 152.169 145.702 152.119C145.596 152.07 145.702 151.745 145.92 151.393C146.139 151.042 146.421 150.797 146.527 150.846C146.633 150.896 146.537 151.241 146.308 151.572Z" fill="white"/>
</g>
<g style="mix-blend-mode:multiply">
<path d="M144.607 157.449L143.901 159.249C143.901 159.249 143.603 160.499 144.319 161.239L145.157 157.748L144.607 157.449Z" fill="#DFF2F8"/>
</g>
<g style="mix-blend-mode:multiply">
<path d="M145.245 155.789L144.95 156.19C144.83 156.341 144.72 156.5 144.619 156.664C144.503 156.857 144.36 157.075 144.225 157.327C144.089 157.579 143.963 157.838 143.824 158.12C143.684 158.402 143.562 158.71 143.443 159.028C143.386 159.187 143.327 159.36 143.27 159.515L143.181 159.764C143.154 159.847 143.131 159.93 143.105 160.016L142.956 160.53C142.906 160.702 142.869 160.862 142.83 161.047C142.74 161.379 142.681 161.747 142.621 162.091L142.601 162.221V162.251C142.601 162.251 142.601 162.251 142.601 162.271V162.334C142.601 162.42 142.578 162.486 142.575 162.585C142.558 162.778 142.555 162.944 142.551 163.109C142.551 163.772 142.551 164.313 142.525 164.767C142.51 164.962 142.482 165.156 142.442 165.347C142.413 165.48 142.374 165.611 142.326 165.738L142.27 165.868L142.223 165.957L142.184 166.03L142.392 167.104L143.658 166.511L143.718 166.348L143.787 166.156L143.857 165.901C143.908 165.683 143.943 165.461 143.963 165.238C143.981 164.979 143.981 164.72 143.963 164.462C143.933 163.925 143.824 163.368 143.754 162.804C143.754 162.665 143.721 162.523 143.711 162.397C143.711 162.337 143.711 162.244 143.711 162.171V162.101C143.711 162.131 143.711 162.101 143.711 162.101V161.942C143.711 161.631 143.731 161.312 143.771 160.991C143.79 160.832 143.797 160.659 143.824 160.51C143.85 160.361 143.877 160.179 143.9 160.029L143.94 159.787L143.993 159.552L144.092 159.094C144.165 158.793 144.261 158.501 144.341 158.222C144.42 157.944 144.536 157.685 144.622 157.443C144.708 157.201 144.824 156.996 144.91 156.804C144.997 156.614 145.093 156.429 145.199 156.25C145.281 156.108 145.355 155.962 145.421 155.812L145.245 155.789Z" fill="white"/>
</g>
<g style="mix-blend-mode:multiply">
<path d="M148.044 162.385C148.2 161.102 147.574 161.059 147.544 160.522C147.514 159.985 146.798 159.557 146.798 159.557C146.043 158.844 146.265 157.236 146.265 157.236L149.439 160.77C148.895 162.097 148.226 163.502 147.892 164.596L148.044 162.385Z" fill="#DFF2F8"/>
</g>
<path style="mix-blend-mode:multiply" d="M152.113 161.901L149.724 155.867C149.653 155.688 149.537 155.531 149.387 155.412C149.237 155.292 149.059 155.213 148.869 155.184C148.58 155.133 148.283 155.164 148.011 155.273C147.683 155.327 147.37 155.45 147.094 155.637C146.819 155.823 146.586 156.066 146.414 156.351C145.867 157.312 146.643 158.449 146.643 158.449L147.004 158.847C147.362 159.245 147.69 158.761 148.13 160.137C148.323 160.848 148.786 161.455 149.419 161.831L149.687 162.534C148.147 164.218 147.623 164.808 147.014 165.468L147.6 166.376C149.072 165.279 150.484 164.105 151.831 162.859C151.967 162.744 152.066 162.592 152.116 162.422C152.166 162.252 152.165 162.07 152.113 161.901Z" fill="url(#paint1_linear_1161_3023)"/>
<g style="mix-blend-mode:multiply">
<path d="M145.996 155.033L146.248 154.957L146.543 154.194C147.162 153.704 146.937 152.818 146.937 152.818L146.029 153.654C146.033 154.28 146.016 154.728 145.996 155.033Z" fill="#F4D2AE"/>
</g>
<g style="mix-blend-mode:multiply">
<path d="M145.231 152.477C145.229 152.502 145.232 152.526 145.24 152.55C145.248 152.573 145.262 152.594 145.279 152.612C145.296 152.629 145.318 152.643 145.341 152.651C145.364 152.659 145.389 152.662 145.414 152.659C145.556 152.655 145.697 152.685 145.825 152.746C145.954 152.807 146.066 152.898 146.153 153.011C146.175 153.039 146.204 153.06 146.237 153.073C146.27 153.086 146.306 153.09 146.341 153.084C146.424 153.073 146.5 153.032 146.553 152.968C146.625 152.885 146.682 152.791 146.722 152.689L147.163 151.933L147.59 151.197L147.816 151.943C147.703 152.232 146.944 152.387 146.954 152.765C146.96 152.93 146.939 153.095 146.891 153.253C146.868 153.322 146.848 153.359 146.848 153.362C146.733 153.563 146.575 153.735 146.384 153.867C146.194 153.998 145.977 154.085 145.748 154.121C145.563 154.161 145.374 154.182 145.185 154.181C145.147 154.24 145.098 154.291 145.039 154.33C144.944 154.403 144.828 154.443 144.708 154.443C144.588 154.443 144.472 154.403 144.377 154.33C143.697 153.724 145.231 152.477 145.231 152.477Z" fill="#182F57"/>
</g>
<g style="mix-blend-mode:multiply">
<path d="M147.789 152.154H147.762L145.738 151.451C145.729 151.448 145.72 151.443 145.713 151.437C145.705 151.431 145.7 151.423 145.695 151.414C145.691 151.406 145.688 151.396 145.688 151.387C145.687 151.377 145.688 151.367 145.691 151.358C145.699 151.34 145.713 151.325 145.731 151.317C145.749 151.309 145.769 151.308 145.787 151.315L147.812 152.018C147.821 152.021 147.829 152.026 147.837 152.032C147.844 152.038 147.85 152.046 147.854 152.055C147.859 152.063 147.861 152.073 147.862 152.082C147.863 152.092 147.861 152.102 147.858 152.111C147.852 152.123 147.842 152.134 147.829 152.142C147.817 152.149 147.803 152.154 147.789 152.154V152.154Z" fill="white"/>
</g>
</g>
</g>
<path d="M140.338 181.844C143.495 179.028 144.242 174.712 142.007 172.202C139.771 169.692 135.4 169.94 132.243 172.756C129.086 175.571 128.339 179.888 130.575 182.398C132.81 184.907 137.181 184.659 140.338 181.844Z" fill="#96C0E6"/>
<mask id="mask2_1161_3023" style="mask-type:alpha" maskUnits="userSpaceOnUse" x="129" y="170" width="15" height="15">
<path d="M140.338 181.84C143.495 179.024 144.242 174.708 142.007 172.198C139.771 169.688 135.4 169.936 132.243 172.752C129.086 175.567 128.339 179.884 130.575 182.394C132.81 184.903 137.181 184.655 140.338 181.84Z" fill="#96C0E6"/>
</mask>
<g mask="url(#mask2_1161_3023)">
<path d="M139.27 174.594L138.667 175.655L137.726 177.312L137.255 177.588L136.705 177.919L135.072 178.874L134.996 178.784L134.867 178.632L133.896 177.491C133.838 176.828 133.858 176.161 133.955 175.502C133.972 175.353 134.002 175.205 134.045 175.061V175.028C134.099 174.849 134.169 174.675 134.254 174.508C134.303 174.412 134.36 174.319 134.419 174.226C134.859 173.563 135.408 172.98 136.043 172.502H136.092L137.169 172.217L139.27 174.594Z" fill="#FBE1EA"/>
<path d="M137.864 176.732L136.913 180.843H133.895L134.865 178.639L135.531 177.124L136.075 177.031L137.864 176.732Z" fill="#FBE1EA"/>
<g style="mix-blend-mode:multiply">
<path d="M138.664 175.657L137.723 177.315L136.912 180.833H135.586C135.779 180.365 136.126 179.927 136.749 179.142C136.94 178.935 137.083 178.689 137.168 178.421C137.254 178.153 137.279 177.869 137.243 177.59C137.226 177.474 137.189 177.362 137.134 177.259C137.003 177.49 136.855 177.711 136.693 177.922C136.082 178.689 135.3 179.303 134.41 179.715L134.983 178.787L136.063 177.03L136.666 176.035L137.25 174.709L138.515 174.523L138.664 175.657Z" fill="#FBE1EA"/>
</g>
<g style="mix-blend-mode:screen" opacity="0.5">
<path d="M137.389 173.024C137.389 173.024 136.253 172.931 135.577 173.276C135.577 173.276 135.007 173.462 134.043 175.073V175.093L134.066 175.04L134.275 174.519C134.325 174.423 134.381 174.33 134.441 174.238C134.88 173.575 135.429 172.992 136.064 172.514H136.114L137.389 173.024Z" fill="#EED8E9"/>
</g>
<path d="M135.594 172.906C135.594 172.906 135.975 171.331 137.29 171.527C137.492 171.557 137.683 171.637 137.846 171.76C138.009 171.882 138.139 172.044 138.224 172.229C138.38 172.634 138.914 172.856 139.252 172.959C139.432 173.013 139.591 173.121 139.709 173.268C139.828 173.414 139.899 173.593 139.914 173.781C139.936 174.334 139.78 174.88 139.47 175.339C139.287 175.65 139.064 175.935 138.808 176.188L137.694 177.325C137.793 176.793 138.003 176.288 138.311 175.843C138.348 175.774 138.38 175.702 138.407 175.628C138.46 175.511 138.468 175.379 138.429 175.256C138.391 175.134 138.308 175.03 138.198 174.965C138.069 174.911 137.927 174.895 137.789 174.921C137.652 174.946 137.524 175.011 137.423 175.107C137.187 175.308 137.005 175.566 136.896 175.856C136.614 176.599 136.048 180.253 133.125 179.752C133.016 179.736 132.913 179.69 132.829 179.618C132.744 179.547 132.682 179.453 132.648 179.347C132.617 179.228 132.613 179.103 132.635 178.982C132.657 178.86 132.706 178.745 132.777 178.645V178.645C132.856 178.521 132.952 178.409 133.062 178.313C133.264 178.144 133.443 177.949 133.593 177.733C133.844 177.352 133.672 177.07 134.149 177.312C134.149 177.312 135.299 178.366 136.571 175.929L136.594 174.872C136.594 174.872 136.296 173.622 137.35 173.678C137.35 173.678 138.108 173.605 137.433 173.108C136.757 172.611 135.594 172.906 135.594 172.906Z" fill="#172F57"/>
<path fill-rule="evenodd" clip-rule="evenodd" d="M133.542 181.305L133.585 181.285L132.541 184.504L130.864 189.666L130.533 190.727L130.44 191.009L129.536 193.797L129.692 194.344H128.661C128.661 194.135 128.661 193.834 128.661 193.469C128.628 191.582 128.761 189.696 129.059 187.833C129.133 187.44 129.232 187.052 129.357 186.673C129.483 186.308 129.619 185.963 129.764 185.641C129.854 185.443 129.947 185.25 130.039 185.068L130.059 185.028C131.401 182.392 133.233 181.448 133.542 181.305Z" fill="#A1246A"/>
<path d="M136.303 189.307C135.747 190.074 135.494 191.018 135.594 191.96C135.67 192.898 135.7 193.697 135.706 194.36H129.023L129.047 194.264C129.127 193.76 129.158 193.249 129.139 192.739C129.139 192.407 129.139 192.076 129.139 191.704C129.176 190.618 129.286 189.536 129.471 188.465C129.622 187.554 129.854 186.659 130.166 185.79C130.309 185.376 130.493 184.979 130.716 184.603C131.379 183.194 132.923 181.825 133.533 181.321C133.688 181.192 133.785 181.119 133.785 181.119C135.219 180.585 136.276 180.495 137.055 180.661C137.229 180.697 137.398 180.751 137.562 180.82C138.612 181.265 138.993 182.259 139.132 183.005C139.19 183.313 139.213 183.627 139.202 183.94C139.134 184.909 138.842 185.849 138.347 186.685C137.874 187.411 137.341 188.095 136.753 188.731C136.594 188.91 136.442 189.105 136.303 189.307Z" fill="white"/>
<path d="M137.147 179.754L137.151 180.603L133.41 181.518L134.046 180.414L137.147 179.754Z" fill="white"/>
<path d="M138.783 187.491C138.771 187.522 138.757 187.552 138.74 187.581C138.578 187.921 138.386 188.246 138.167 188.552L136.842 190.402L136.809 190.448L136.61 190.73L136.279 191.204C136.279 191.204 135.772 191.721 135.792 191.947V191.973L135.881 192.56L136.149 194.35H130.722C130.689 194.215 130.653 194.082 130.61 193.949C130.409 193.25 130.326 192.521 130.364 191.794V191.794C130.364 191.552 130.384 191.294 130.404 191.015C130.406 190.991 130.406 190.967 130.404 190.942V190.846C130.404 190.8 130.404 190.75 130.404 190.704C130.457 190.16 130.54 189.547 130.666 188.854L130.726 188.542C131.013 187.099 131.609 185.735 132.472 184.544V184.527C133.662 182.911 135.208 181.59 136.991 180.668V180.668L137.08 180.625C137.263 180.636 137.445 180.663 137.624 180.705C138.159 180.83 138.64 181.122 138.997 181.54C139.355 181.957 139.57 182.477 139.612 183.025C139.613 183.041 139.613 183.056 139.612 183.072V183.072L139.214 185.873C139.151 186.431 139.006 186.976 138.783 187.491Z" fill="#A1246A"/>
<path style="mix-blend-mode:multiply" d="M136.165 194.345H135.598C135.397 193.74 135.244 193.121 135.141 192.492L134.008 192.034H135.148C135.166 191.357 135.287 190.686 135.505 190.045C135.608 189.753 135.151 188.52 135.151 188.235L134.962 183.424V183.043L136.771 188.722L136.923 189.196L136.841 190.449L136.642 190.731L136.31 191.205C136.31 191.205 135.804 191.722 135.823 191.948V191.974C135.79 192.031 135.772 192.095 135.77 192.16L135.913 192.561L136.165 194.345Z" fill="url(#paint2_linear_1161_3023)"/>
<path d="M139.56 190.613L138.698 194.349H137.071L137.048 192.582L136.647 190.821L136.624 190.729L136.303 189.31L134.961 183.425V183.422L134.785 182.643L136.723 182.798L139.132 182.994L139.656 183.037H139.669H139.672V183.057V183.064L139.56 190.613Z" fill="#A1246A"/>
<g style="mix-blend-mode:screen" opacity="0.3">
<path d="M139.557 190.61L138.696 194.347H138.547C138.335 193.671 138.311 192.95 138.477 192.261C138.881 190.763 139.375 189.433 138.752 187.62C138.754 187.607 138.754 187.593 138.752 187.58C138.643 187.27 138.512 186.967 138.361 186.675C138.149 186.261 137.908 185.863 137.642 185.481C137.052 184.714 136.732 183.772 136.734 182.803C136.772 182.061 137.07 181.357 137.576 180.813C137.629 180.757 137.675 180.714 137.702 180.688C139.388 181.085 139.633 182.677 139.67 183.041L139.557 190.61Z" fill="#A1246A"/>
</g>
<path opacity="0.5" d="M137.148 180.602L136.081 182.64H134.782L134.593 183.466C134.593 183.466 131.572 185.041 130.379 191.791C130.379 191.549 130.399 191.29 130.419 191.012C130.42 190.987 130.42 190.963 130.419 190.939V190.843C130.419 190.796 130.419 190.746 130.419 190.7C130.472 190.156 130.555 189.543 130.68 188.85L130.74 188.538C131.027 187.095 131.623 185.731 132.486 184.54V184.524C133.676 182.907 135.223 181.587 137.005 180.665L137.095 180.621L137.148 180.602Z" fill="#F2B8CE"/>
<path d="M134.391 181.269L134.291 180.605L133.536 181.269L133.357 182.038C130.789 185.658 128.629 192.504 128.629 192.504L129.378 193.89L130.902 192.504C131.119 188.87 132.049 185.313 133.639 182.038L134.391 181.269Z" fill="#223266"/>
</g>
<path d="M137.845 170.466C141.616 170.466 143.965 173.523 143.093 177.295C142.222 181.068 138.455 184.125 134.694 184.125C130.934 184.125 128.575 181.068 129.446 177.295C130.318 173.523 134.071 170.466 137.845 170.466ZM137.845 169.189C135.613 169.234 133.464 170.04 131.752 171.474C129.99 172.875 128.742 174.821 128.2 177.007C127.684 179.251 128.101 181.373 129.38 182.975C130.659 184.576 132.508 185.395 134.681 185.395C136.914 185.351 139.064 184.544 140.774 183.107C142.536 181.707 143.785 179.763 144.326 177.577C144.843 175.333 144.425 173.211 143.146 171.61C141.867 170.008 140.019 169.189 137.845 169.189Z" fill="#0E1B3F"/>
<path d="M109.956 124.019C109.922 124.122 109.913 124.231 109.931 124.337C109.948 124.444 109.992 124.544 110.057 124.63C110.122 124.716 110.208 124.785 110.306 124.83C110.403 124.876 110.511 124.897 110.619 124.891H119.339C119.587 124.88 119.825 124.789 120.018 124.632C120.21 124.475 120.348 124.26 120.409 124.019C120.443 123.917 120.452 123.808 120.434 123.701C120.417 123.595 120.373 123.494 120.308 123.408C120.243 123.322 120.157 123.254 120.06 123.208C119.962 123.163 119.854 123.142 119.747 123.147H111.029C110.781 123.159 110.543 123.25 110.35 123.407C110.156 123.564 110.019 123.778 109.956 124.019V124.019Z" fill="#3961AA"/>
<path d="M117.73 128.167C117.702 128.255 117.696 128.348 117.712 128.438C117.727 128.529 117.765 128.614 117.821 128.687C117.877 128.76 117.95 128.819 118.033 128.857C118.117 128.896 118.208 128.914 118.3 128.91C118.511 128.9 118.714 128.822 118.879 128.688C119.043 128.555 119.161 128.372 119.214 128.167C119.242 128.079 119.247 127.986 119.231 127.895C119.214 127.805 119.177 127.72 119.12 127.647C119.064 127.574 118.991 127.516 118.908 127.477C118.824 127.438 118.733 127.42 118.641 127.424C118.43 127.435 118.228 127.513 118.064 127.647C117.9 127.78 117.783 127.962 117.73 128.167V128.167Z" fill="#3961AA"/>
<path d="M108.963 128.167C108.936 128.255 108.93 128.348 108.947 128.439C108.963 128.529 109.001 128.615 109.057 128.687C109.113 128.76 109.186 128.818 109.27 128.857C109.353 128.896 109.444 128.914 109.536 128.91H115.719C115.93 128.9 116.133 128.822 116.298 128.689C116.462 128.555 116.58 128.372 116.633 128.167C116.661 128.079 116.667 127.986 116.652 127.896C116.636 127.805 116.598 127.72 116.542 127.647C116.486 127.574 116.413 127.516 116.33 127.477C116.247 127.438 116.155 127.42 116.063 127.424H109.878C109.666 127.435 109.463 127.512 109.299 127.646C109.134 127.779 109.017 127.962 108.963 128.167Z" fill="#4C85D8"/>
<path d="M117.078 130.997C117.05 131.085 117.043 131.178 117.059 131.268C117.075 131.359 117.113 131.444 117.169 131.517C117.225 131.59 117.297 131.649 117.381 131.687C117.464 131.726 117.556 131.744 117.648 131.74C117.859 131.73 118.062 131.652 118.227 131.519C118.391 131.385 118.509 131.202 118.562 130.997C118.589 130.909 118.595 130.816 118.578 130.726C118.562 130.635 118.524 130.55 118.468 130.477C118.412 130.404 118.339 130.346 118.256 130.307C118.172 130.268 118.081 130.25 117.989 130.254C117.778 130.265 117.576 130.343 117.412 130.477C117.248 130.61 117.131 130.793 117.078 130.997V130.997Z" fill="#3961AA"/>
<path d="M110.323 130.997C110.295 131.085 110.29 131.178 110.306 131.269C110.322 131.359 110.36 131.444 110.416 131.517C110.473 131.59 110.545 131.648 110.629 131.687C110.712 131.726 110.804 131.744 110.896 131.74H115.064C115.275 131.73 115.478 131.652 115.643 131.518C115.807 131.385 115.925 131.202 115.978 130.997C116.005 130.909 116.011 130.817 115.995 130.726C115.979 130.636 115.941 130.551 115.885 130.478C115.829 130.405 115.757 130.347 115.674 130.308C115.591 130.269 115.5 130.251 115.408 130.254H111.237C111.025 130.264 110.822 130.342 110.658 130.476C110.493 130.609 110.376 130.792 110.323 130.997V130.997Z" fill="#4C85D8"/>
<path d="M116.421 133.825C116.393 133.913 116.387 134.006 116.403 134.097C116.419 134.187 116.456 134.273 116.512 134.346C116.568 134.419 116.641 134.477 116.725 134.516C116.808 134.554 116.899 134.572 116.991 134.568C117.203 134.558 117.406 134.48 117.57 134.347C117.735 134.213 117.852 134.03 117.906 133.825C117.933 133.737 117.939 133.644 117.922 133.554C117.906 133.463 117.868 133.378 117.812 133.305C117.756 133.232 117.683 133.174 117.599 133.135C117.516 133.097 117.424 133.078 117.333 133.083C117.121 133.093 116.919 133.171 116.756 133.305C116.592 133.438 116.475 133.621 116.421 133.825V133.825Z" fill="#3961AA"/>
<path d="M105.869 133.825C105.842 133.913 105.837 134.006 105.853 134.097C105.869 134.187 105.907 134.273 105.963 134.346C106.02 134.418 106.092 134.477 106.176 134.515C106.259 134.554 106.351 134.572 106.443 134.568H114.427C114.639 134.558 114.842 134.48 115.006 134.347C115.171 134.213 115.289 134.03 115.342 133.825C115.37 133.738 115.376 133.645 115.36 133.554C115.344 133.463 115.307 133.378 115.251 133.305C115.195 133.232 115.122 133.174 115.039 133.135C114.955 133.096 114.864 133.078 114.772 133.083H106.784C106.572 133.093 106.369 133.17 106.205 133.304C106.04 133.437 105.923 133.62 105.869 133.825V133.825Z" fill="#4C85D8"/>
<path d="M115.769 136.651C115.741 136.739 115.735 136.832 115.751 136.923C115.767 137.013 115.804 137.099 115.86 137.172C115.916 137.245 115.989 137.303 116.072 137.342C116.156 137.38 116.247 137.398 116.339 137.394C116.551 137.384 116.753 137.306 116.918 137.173C117.082 137.039 117.2 136.857 117.253 136.651C117.281 136.564 117.286 136.47 117.27 136.38C117.254 136.289 117.216 136.204 117.159 136.131C117.103 136.058 117.03 136 116.947 135.961C116.864 135.923 116.772 135.905 116.68 135.909C116.469 135.92 116.267 135.997 116.103 136.131C115.939 136.264 115.822 136.447 115.769 136.651V136.651Z" fill="#3961AA"/>
<path d="M103.928 136.651C103.901 136.739 103.895 136.833 103.911 136.923C103.928 137.014 103.966 137.099 104.022 137.172C104.078 137.245 104.151 137.303 104.234 137.341C104.318 137.38 104.409 137.398 104.501 137.394H113.758C113.97 137.384 114.173 137.306 114.337 137.173C114.502 137.039 114.619 136.857 114.673 136.651C114.701 136.564 114.707 136.471 114.691 136.38C114.675 136.29 114.638 136.204 114.582 136.131C114.526 136.058 114.453 136 114.37 135.961C114.286 135.922 114.195 135.905 114.103 135.909H104.842C104.631 135.919 104.428 135.996 104.263 136.13C104.099 136.264 103.981 136.446 103.928 136.651V136.651Z" fill="#4C85D8"/>
<path d="M115.117 139.481C115.089 139.569 115.083 139.662 115.098 139.753C115.114 139.843 115.152 139.929 115.208 140.002C115.264 140.075 115.336 140.133 115.42 140.172C115.503 140.21 115.595 140.228 115.687 140.224C115.898 140.214 116.101 140.136 116.266 140.003C116.43 139.869 116.548 139.687 116.601 139.481C116.628 139.394 116.634 139.3 116.618 139.21C116.601 139.119 116.563 139.034 116.507 138.961C116.451 138.888 116.378 138.83 116.295 138.792C116.211 138.753 116.12 138.735 116.028 138.739C115.817 138.75 115.615 138.827 115.451 138.961C115.287 139.095 115.17 139.277 115.117 139.481V139.481Z" fill="#3961AA"/>
<path d="M79.3628 128.167C79.3349 128.255 79.3286 128.348 79.3445 128.438C79.3603 128.529 79.3978 128.614 79.4538 128.687C79.5098 128.76 79.5826 128.819 79.666 128.857C79.7494 128.896 79.8408 128.914 79.9327 128.91C80.1443 128.9 80.3472 128.822 80.5117 128.689C80.6762 128.555 80.7937 128.372 80.8471 128.167C80.875 128.079 80.8813 127.986 80.8655 127.896C80.8496 127.805 80.8121 127.72 80.7561 127.647C80.7001 127.574 80.6273 127.516 80.5439 127.477C80.4606 127.438 80.3691 127.42 80.2772 127.424C80.0656 127.435 79.8628 127.512 79.6983 127.646C79.5338 127.779 79.4162 127.962 79.3628 128.167Z" fill="#4C85D8"/>
<path d="M80.355 123.89C80.3271 123.977 80.3208 124.07 80.3367 124.161C80.3525 124.252 80.39 124.337 80.446 124.41C80.502 124.483 80.5748 124.541 80.6582 124.58C80.7415 124.619 80.833 124.637 80.9248 124.632C81.1365 124.622 81.3394 124.545 81.5039 124.411C81.6684 124.278 81.7859 124.095 81.8393 123.89C81.8672 123.802 81.8735 123.709 81.8577 123.618C81.8418 123.528 81.8043 123.442 81.7483 123.369C81.6923 123.296 81.6195 123.238 81.5361 123.199C81.4527 123.161 81.3613 123.143 81.2694 123.147C81.0578 123.157 80.855 123.235 80.6905 123.368C80.526 123.502 80.4084 123.685 80.355 123.89Z" fill="#4C85D8"/>
<path d="M78.7222 130.997C78.6943 131.085 78.688 131.178 78.7038 131.268C78.7197 131.359 78.7572 131.444 78.8132 131.517C78.8692 131.59 78.942 131.649 79.0253 131.687C79.1087 131.726 79.2003 131.744 79.2921 131.74C79.5037 131.73 79.7065 131.652 79.8711 131.518C80.0356 131.385 80.1531 131.202 80.2065 130.997C80.2336 130.909 80.2393 130.817 80.2231 130.726C80.207 130.636 80.1694 130.551 80.1136 130.478C80.0577 130.405 79.9853 130.347 79.9023 130.308C79.8193 130.269 79.7282 130.251 79.6366 130.254C79.425 130.264 79.2222 130.342 79.0577 130.476C78.8932 130.609 78.7756 130.792 78.7222 130.997V130.997Z" fill="#4C85D8"/>
<path d="M78.0686 133.825C78.0415 133.913 78.0358 134.006 78.052 134.096C78.0681 134.186 78.1057 134.271 78.1616 134.344C78.2174 134.417 78.2898 134.475 78.3728 134.514C78.4558 134.553 78.5469 134.571 78.6384 134.568C78.8501 134.558 79.0529 134.48 79.2174 134.347C79.3819 134.213 79.4995 134.03 79.5529 133.825C79.5808 133.738 79.5871 133.645 79.5713 133.554C79.5554 133.463 79.5179 133.378 79.4619 133.305C79.4059 133.232 79.3331 133.174 79.2498 133.135C79.1664 133.096 79.0748 133.078 78.983 133.083C78.7714 133.093 78.5686 133.17 78.4041 133.304C78.2396 133.437 78.122 133.62 78.0686 133.825V133.825Z" fill="#4C85D8"/>
<path d="M77.4175 136.651C77.3896 136.739 77.3833 136.832 77.3992 136.923C77.415 137.013 77.4525 137.099 77.5085 137.172C77.5645 137.245 77.6373 137.303 77.7207 137.342C77.804 137.38 77.8955 137.398 77.9874 137.394C78.199 137.384 78.4019 137.306 78.5664 137.173C78.7309 137.039 78.8484 136.857 78.9018 136.651C78.9297 136.564 78.936 136.471 78.9201 136.38C78.9043 136.29 78.8668 136.204 78.8108 136.131C78.7548 136.058 78.682 136 78.5986 135.961C78.5152 135.922 78.4238 135.905 78.3319 135.909C78.1203 135.919 77.9175 135.996 77.753 136.13C77.5885 136.264 77.4709 136.446 77.4175 136.651V136.651Z" fill="#4C85D8"/>
<path d="M76.7613 139.481C76.7334 139.569 76.7271 139.662 76.7429 139.753C76.7587 139.843 76.7963 139.929 76.8523 140.002C76.9082 140.075 76.9811 140.133 77.0644 140.172C77.1478 140.21 77.2393 140.228 77.3311 140.224C77.5427 140.214 77.7456 140.136 77.9101 140.003C78.0746 139.869 78.1921 139.686 78.2456 139.481C78.2727 139.394 78.2784 139.301 78.2622 139.211C78.246 139.12 78.2084 139.035 78.1526 138.963C78.0968 138.89 78.0243 138.831 77.9414 138.793C77.8584 138.754 77.7673 138.735 77.6757 138.739C77.4641 138.749 77.2612 138.826 77.0967 138.96C76.9322 139.093 76.8147 139.276 76.7613 139.481V139.481Z" fill="#4C85D8"/>
<path d="M107.092 139.481C107.065 139.569 107.059 139.662 107.076 139.753C107.092 139.843 107.13 139.929 107.186 140.002C107.242 140.074 107.315 140.133 107.398 140.171C107.482 140.21 107.573 140.228 107.665 140.224H113.106C113.317 140.214 113.52 140.136 113.685 140.003C113.849 139.869 113.967 139.686 114.02 139.481C114.047 139.394 114.053 139.301 114.037 139.211C114.02 139.12 113.983 139.035 113.927 138.963C113.871 138.89 113.799 138.831 113.716 138.793C113.633 138.754 113.542 138.735 113.45 138.739H108.006C107.795 138.749 107.592 138.826 107.428 138.96C107.263 139.093 107.145 139.276 107.092 139.481V139.481Z" fill="#4C85D8"/>
<path d="M82.062 128.167C82.0342 128.255 82.0278 128.348 82.0437 128.438C82.0595 128.529 82.0971 128.614 82.153 128.687C82.209 128.76 82.2818 128.819 82.3652 128.857C82.4486 128.896 82.5401 128.914 82.6319 128.91H84.4111C84.6227 128.9 84.8256 128.822 84.9901 128.688C85.1546 128.555 85.2721 128.372 85.3256 128.167C85.3528 128.079 85.3585 127.986 85.3421 127.895C85.3258 127.805 85.2879 127.72 85.2317 127.647C85.1755 127.574 85.1026 127.516 85.0192 127.477C84.9357 127.438 84.8442 127.42 84.7524 127.424H82.9732C82.7621 127.435 82.56 127.513 82.3962 127.647C82.2324 127.78 82.1153 127.962 82.062 128.167V128.167Z" fill="#0E1B3F"/>
<path d="M81.4097 130.997C81.3818 131.085 81.3755 131.178 81.3913 131.268C81.4072 131.359 81.4447 131.444 81.5007 131.517C81.5567 131.59 81.6294 131.649 81.7128 131.687C81.7962 131.726 81.8877 131.744 81.9796 131.74H85.2663C85.4779 131.73 85.6808 131.652 85.8453 131.519C86.0098 131.385 86.1273 131.202 86.1807 130.997C86.2079 130.909 86.2136 130.816 86.1973 130.726C86.1809 130.635 86.1431 130.55 86.0868 130.477C86.0306 130.404 85.9577 130.346 85.8743 130.307C85.7909 130.268 85.6994 130.25 85.6075 130.254H82.3208C82.1098 130.265 81.9077 130.343 81.7438 130.477C81.58 130.61 81.463 130.793 81.4097 130.997V130.997Z" fill="#4C85D8"/>
<path d="M80.7573 133.825C80.7294 133.913 80.7232 134.006 80.739 134.097C80.7549 134.187 80.7924 134.273 80.8484 134.346C80.9044 134.419 80.9771 134.477 81.0605 134.516C81.1439 134.554 81.2354 134.572 81.3272 134.568H83.7293C83.9409 134.558 84.1438 134.48 84.3083 134.347C84.4728 134.213 84.5903 134.03 84.6437 133.825C84.6716 133.738 84.6779 133.645 84.6621 133.554C84.6463 133.463 84.6087 133.378 84.5527 133.305C84.4968 133.232 84.424 133.174 84.3406 133.135C84.2572 133.096 84.1657 133.078 84.0739 133.083H81.6817C81.4684 133.091 81.2633 133.167 81.0968 133.301C80.9303 133.435 80.8113 133.619 80.7573 133.825V133.825Z" fill="#0E1B3F"/>
<path d="M80.105 136.651C80.0771 136.739 80.0708 136.832 80.0867 136.923C80.1025 137.013 80.14 137.099 80.196 137.172C80.252 137.245 80.3248 137.303 80.4082 137.342C80.4915 137.38 80.583 137.398 80.6748 137.394H84.3492C84.5609 137.384 84.7637 137.306 84.9282 137.173C85.0927 137.039 85.2103 136.857 85.2637 136.651C85.2916 136.564 85.2979 136.471 85.282 136.38C85.2662 136.29 85.2286 136.204 85.1727 136.131C85.1167 136.058 85.0439 136 84.9605 135.961C84.8771 135.922 84.7856 135.905 84.6938 135.909H81.0194C80.8078 135.919 80.605 135.996 80.4405 136.13C80.276 136.264 80.1584 136.446 80.105 136.651V136.651Z" fill="#0E1B3F"/>
<path d="M79.4527 139.481C79.4248 139.569 79.4185 139.662 79.4343 139.753C79.4502 139.843 79.4877 139.929 79.5437 140.002C79.5997 140.075 79.6725 140.133 79.7558 140.172C79.8392 140.21 79.9307 140.228 80.0225 140.224H81.8017C82.0133 140.214 82.2162 140.136 82.3807 140.003C82.5452 139.869 82.6628 139.687 82.7162 139.481C82.7434 139.394 82.7491 139.3 82.7327 139.21C82.7164 139.119 82.6785 139.034 82.6223 138.961C82.5661 138.888 82.4932 138.83 82.4098 138.792C82.3264 138.753 82.2349 138.735 82.143 138.739H80.3572C80.1473 138.751 79.9467 138.829 79.7842 138.963C79.6216 139.096 79.5056 139.278 79.4527 139.481V139.481Z" fill="#4C85D8"/>
<path d="M95.2222 128.167C95.1943 128.255 95.188 128.348 95.2038 128.438C95.2197 128.529 95.2572 128.614 95.3132 128.687C95.3692 128.76 95.442 128.819 95.5253 128.857C95.6087 128.896 95.7002 128.914 95.792 128.91H98.6547C98.8663 128.9 99.0692 128.822 99.2337 128.688C99.3982 128.555 99.5157 128.372 99.5691 128.167C99.5963 128.079 99.602 127.986 99.5857 127.895C99.5693 127.805 99.5315 127.72 99.4753 127.647C99.4191 127.574 99.3461 127.516 99.2627 127.477C99.1793 127.438 99.0878 127.42 98.996 127.424H96.1333C95.9223 127.435 95.7202 127.513 95.5563 127.647C95.3925 127.78 95.2754 127.962 95.2222 128.167V128.167Z" fill="#4C85D8"/>
<path d="M95.5659 130.997C95.5381 131.085 95.5317 131.178 95.5476 131.269C95.5634 131.359 95.601 131.445 95.657 131.517C95.7129 131.59 95.7857 131.649 95.8691 131.688C95.9525 131.726 96.044 131.744 96.1358 131.74H97.0039C97.2149 131.729 97.417 131.651 97.5809 131.518C97.7447 131.384 97.8618 131.202 97.915 130.997C97.9429 130.91 97.9492 130.816 97.9333 130.726C97.9175 130.635 97.88 130.55 97.824 130.477C97.768 130.404 97.6952 130.346 97.6118 130.307C97.5285 130.268 97.437 130.25 97.3452 130.255H96.4804C96.2688 130.265 96.0659 130.342 95.9014 130.476C95.7369 130.609 95.6194 130.792 95.5659 130.997V130.997Z" fill="#4C85D8"/>
<path d="M93.9605 133.825C93.9326 133.913 93.9263 134.006 93.9421 134.097C93.958 134.187 93.9955 134.273 94.0515 134.346C94.1075 134.419 94.1802 134.477 94.2636 134.516C94.347 134.554 94.4385 134.572 94.5303 134.568H97.3068C97.5179 134.557 97.72 134.479 97.8838 134.346C98.0477 134.212 98.1647 134.03 98.218 133.825C98.2459 133.738 98.2521 133.645 98.2363 133.554C98.2205 133.463 98.1829 133.378 98.1269 133.305C98.071 133.232 97.9982 133.174 97.9148 133.135C97.8314 133.096 97.7399 133.078 97.6481 133.083H94.8749C94.6633 133.093 94.4604 133.17 94.2959 133.304C94.1314 133.437 94.0139 133.62 93.9605 133.825Z" fill="#4C85D8"/>
<path d="M92.894 136.651C92.8662 136.739 92.8599 136.832 92.8757 136.923C92.8916 137.013 92.9291 137.099 92.9851 137.172C93.0411 137.245 93.1138 137.303 93.1972 137.342C93.2806 137.38 93.3721 137.398 93.464 137.394H97.0687C97.2803 137.384 97.4832 137.306 97.6477 137.173C97.8122 137.039 97.9297 136.857 97.9832 136.651C98.0104 136.564 98.016 136.47 97.9997 136.38C97.9834 136.289 97.9455 136.204 97.8893 136.131C97.8331 136.058 97.7602 136 97.6767 135.961C97.5933 135.923 97.5018 135.905 97.41 135.909H93.8052C93.5941 135.92 93.392 135.997 93.2282 136.131C93.0644 136.264 92.9473 136.447 92.894 136.651V136.651Z" fill="#0E1B3F"/>
<path d="M93.0139 139.481C92.9867 139.569 92.9811 139.662 92.9974 139.753C93.0138 139.843 93.0516 139.929 93.1078 140.002C93.164 140.074 93.2369 140.133 93.3203 140.171C93.4037 140.21 93.4952 140.228 93.5871 140.224H95.6347C95.8463 140.214 96.0491 140.136 96.2136 140.003C96.3781 139.869 96.4957 139.686 96.5491 139.481C96.5762 139.394 96.5819 139.301 96.5658 139.211C96.5496 139.12 96.512 139.035 96.4562 138.963C96.4004 138.89 96.3279 138.831 96.245 138.793C96.162 138.754 96.0709 138.735 95.9793 138.739H93.9383C93.725 138.747 93.5199 138.823 93.3534 138.957C93.1869 139.091 93.0679 139.275 93.0139 139.481Z" fill="#4C85D8"/>
<path d="M113.566 146.204C113.538 146.292 113.532 146.385 113.548 146.475C113.563 146.566 113.601 146.652 113.657 146.724C113.713 146.797 113.786 146.856 113.869 146.894C113.952 146.933 114.044 146.951 114.136 146.947C114.347 146.937 114.55 146.859 114.715 146.726C114.879 146.592 114.997 146.409 115.05 146.204C115.077 146.116 115.083 146.023 115.067 145.933C115.05 145.842 115.013 145.757 114.956 145.684C114.9 145.611 114.827 145.553 114.744 145.514C114.66 145.475 114.569 145.457 114.477 145.462C114.266 145.472 114.064 145.55 113.9 145.684C113.736 145.817 113.619 146 113.566 146.204V146.204Z" fill="#3961AA"/>
<path d="M101.725 146.204C101.698 146.292 101.692 146.384 101.708 146.475C101.724 146.565 101.762 146.65 101.818 146.723C101.874 146.796 101.946 146.854 102.029 146.893C102.112 146.932 102.203 146.95 102.295 146.947H111.572C111.783 146.937 111.986 146.859 112.151 146.725C112.315 146.592 112.433 146.409 112.486 146.204C112.513 146.116 112.519 146.024 112.503 145.933C112.487 145.843 112.449 145.758 112.393 145.685C112.337 145.612 112.265 145.554 112.182 145.515C112.099 145.476 112.008 145.458 111.916 145.461H102.639C102.428 145.471 102.225 145.549 102.06 145.683C101.896 145.816 101.778 145.999 101.725 146.204Z" fill="#4C85D8"/>
<path d="M112.914 149.034C112.886 149.121 112.879 149.214 112.895 149.305C112.911 149.396 112.949 149.481 113.005 149.554C113.061 149.627 113.133 149.685 113.217 149.724C113.3 149.763 113.392 149.781 113.483 149.776C113.695 149.766 113.898 149.689 114.062 149.555C114.227 149.422 114.345 149.239 114.398 149.034C114.424 148.946 114.429 148.853 114.411 148.762C114.394 148.672 114.355 148.587 114.299 148.515C114.242 148.443 114.168 148.386 114.085 148.348C114.001 148.31 113.91 148.293 113.818 148.298C113.609 148.309 113.409 148.387 113.247 148.519C113.084 148.651 112.968 148.831 112.914 149.034V149.034Z" fill="#3961AA"/>
<path d="M75.2144 146.204C75.1865 146.292 75.1802 146.385 75.196 146.475C75.2119 146.566 75.2494 146.651 75.3054 146.724C75.3613 146.797 75.4341 146.856 75.5175 146.894C75.6009 146.933 75.6924 146.951 75.7842 146.947C75.9958 146.937 76.1987 146.859 76.3632 146.725C76.5277 146.592 76.6452 146.409 76.6987 146.204C76.7258 146.116 76.7315 146.024 76.7153 145.933C76.6991 145.843 76.6615 145.758 76.6057 145.685C76.5499 145.612 76.4775 145.554 76.3945 145.515C76.3115 145.476 76.2204 145.458 76.1288 145.461C75.9172 145.471 75.7143 145.549 75.5498 145.683C75.3853 145.816 75.2678 145.999 75.2144 146.204V146.204Z" fill="#4C85D8"/>
<path d="M74.562 149.032C74.5341 149.12 74.5278 149.213 74.5437 149.303C74.5595 149.394 74.597 149.479 74.653 149.552C74.709 149.625 74.7818 149.684 74.8652 149.722C74.9486 149.761 75.0401 149.779 75.1319 149.775C75.3435 149.765 75.5464 149.687 75.7109 149.554C75.8754 149.42 75.9929 149.237 76.0463 149.032C76.0734 148.945 76.0791 148.852 76.063 148.761C76.0468 148.671 76.0092 148.586 75.9534 148.513C75.8976 148.441 75.8251 148.382 75.7422 148.343C75.6592 148.304 75.5681 148.286 75.4765 148.289C75.2649 148.3 75.062 148.377 74.8975 148.511C74.733 148.644 74.6154 148.827 74.562 149.032V149.032Z" fill="#4C85D8"/>
<path d="M104.889 149.032C104.862 149.12 104.856 149.213 104.872 149.303C104.888 149.393 104.926 149.478 104.982 149.551C105.038 149.624 105.11 149.682 105.193 149.721C105.276 149.76 105.367 149.778 105.459 149.775H110.902C111.114 149.765 111.317 149.687 111.481 149.554C111.646 149.42 111.763 149.237 111.817 149.032C111.844 148.945 111.85 148.852 111.833 148.761C111.817 148.671 111.78 148.586 111.724 148.513C111.668 148.441 111.596 148.382 111.513 148.343C111.43 148.304 111.339 148.286 111.247 148.289H105.803C105.592 148.3 105.389 148.377 105.224 148.511C105.06 148.644 104.942 148.827 104.889 149.032V149.032Z" fill="#4C85D8"/>
<path d="M77.8967 146.204C77.8695 146.292 77.8639 146.385 77.8802 146.476C77.8966 146.566 77.9344 146.652 77.9906 146.724C78.0468 146.797 78.1197 146.856 78.2031 146.894C78.2866 146.933 78.3781 146.951 78.4699 146.947H84.0196C84.2306 146.936 84.4327 146.858 84.5966 146.725C84.7604 146.591 84.8775 146.409 84.9307 146.204C84.9586 146.117 84.9649 146.023 84.9491 145.933C84.9332 145.842 84.8957 145.757 84.8397 145.684C84.7837 145.611 84.711 145.553 84.6276 145.514C84.5442 145.475 84.4527 145.457 84.3608 145.462H78.8112C78.5996 145.472 78.3967 145.549 78.2322 145.683C78.0677 145.816 77.9502 145.999 77.8967 146.204Z" fill="white"/>
<path d="M77.2444 149.032C77.2172 149.12 77.2115 149.213 77.2279 149.304C77.2442 149.394 77.2821 149.48 77.3383 149.553C77.3945 149.625 77.4674 149.684 77.5508 149.722C77.6342 149.761 77.7257 149.779 77.8176 149.775H79.5968C79.8078 149.764 80.01 149.686 80.1738 149.553C80.3376 149.419 80.4547 149.237 80.5079 149.032C80.5358 148.945 80.5421 148.852 80.5263 148.761C80.5104 148.67 80.4729 148.585 80.4169 148.512C80.3609 148.439 80.2882 148.381 80.2048 148.342C80.1214 148.303 80.0299 148.285 79.938 148.29H78.1588C77.9472 148.3 77.7444 148.377 77.5799 148.511C77.4154 148.644 77.2978 148.827 77.2444 149.032V149.032Z" fill="#0E1B3F"/>
<path d="M90.6858 146.204C90.6586 146.292 90.6529 146.385 90.6693 146.476C90.6856 146.566 90.7235 146.652 90.7797 146.724C90.8359 146.797 90.9088 146.856 90.9922 146.894C91.0756 146.933 91.1671 146.951 91.259 146.947H94.8638C95.0748 146.936 95.2769 146.858 95.4408 146.725C95.6046 146.591 95.7217 146.409 95.7749 146.204C95.8028 146.117 95.8091 146.023 95.7933 145.933C95.7774 145.842 95.7399 145.757 95.6839 145.684C95.6279 145.611 95.5551 145.553 95.4718 145.514C95.3884 145.475 95.2968 145.457 95.205 145.462H91.6002C91.3886 145.472 91.1858 145.549 91.0213 145.683C90.8568 145.816 90.7392 145.999 90.6858 146.204V146.204Z" fill="#0E1B3F"/>
<path d="M90.8108 149.032C90.7837 149.12 90.778 149.213 90.7941 149.303C90.8103 149.393 90.8479 149.478 90.9037 149.551C90.9595 149.624 91.032 149.682 91.115 149.721C91.1979 149.76 91.2891 149.778 91.3806 149.775H93.4315C93.6431 149.765 93.846 149.687 94.0105 149.554C94.175 149.42 94.2925 149.237 94.346 149.032C94.3732 148.944 94.3788 148.851 94.3625 148.761C94.3462 148.67 94.3083 148.585 94.2521 148.512C94.1959 148.439 94.123 148.381 94.0395 148.342C93.9561 148.304 93.8646 148.286 93.7728 148.29H91.7252C91.5136 148.3 91.3107 148.377 91.1462 148.511C90.9817 148.644 90.8642 148.827 90.8108 149.032Z" fill="#4C85D8"/>
<path d="M96.6599 157.067L96.375 156.715L99.4994 154.176H113.16V154.627H99.6617L96.6599 157.067Z" fill="#4C85D8"/>
<path d="M94.2303 163.18L93.9453 162.829L99.8561 158.021H112.271V158.476H100.018L94.2303 163.18Z" fill="#4C85D8"/>
<path d="M107.883 177.492H95.4356L91.7148 172.648L92.0727 172.373L95.6609 177.038H107.883V177.492Z" fill="#4C85D8"/>
<path d="M88.9849 165.854L84.8798 160.513H71.9648V160.059H85.1018L89.3427 165.579L88.9849 165.854Z" fill="#4C85D8"/>
<path d="M87.6441 176.779C84.9041 176.779 82.5484 175.715 81.0177 173.795C79.4273 171.806 78.9105 169.131 79.5665 166.293L80.6002 166.531C80.0204 169.048 80.461 171.392 81.8493 173.136C83.1746 174.793 85.242 175.732 87.6508 175.732C92.8459 175.732 98.0477 171.498 99.247 166.293C99.8269 163.78 99.3829 161.436 97.998 159.692C96.6727 158.034 94.6052 157.096 92.1932 157.096V156.035C94.9365 156.035 97.2922 157.099 98.8196 159.019C100.41 161.008 100.924 163.684 100.271 166.518C98.9654 172.168 93.2998 176.779 87.6441 176.779Z" fill="#3961AA"/>
<path d="M88.2188 174.276V173.212C92.0323 173.212 95.8392 170.105 96.7304 166.282C97.1545 164.452 96.8331 162.745 95.8259 161.479C94.8187 160.212 93.3609 159.595 91.6049 159.595V158.531C93.6922 158.531 95.4846 159.344 96.6575 160.819C97.8304 162.294 98.2612 164.37 97.7642 166.521C96.7801 170.798 92.4961 174.276 88.2188 174.276Z" fill="#0E1B3F"/>
<path d="M95.2632 166.533L94.2295 166.295C94.3716 165.784 94.3948 165.247 94.2971 164.726C94.1995 164.204 93.9837 163.712 93.6662 163.288C93.3443 162.901 92.9376 162.594 92.4779 162.391C92.0183 162.187 91.5179 162.093 91.0156 162.114V161.053C91.675 161.032 92.3304 161.163 92.9313 161.435C93.5321 161.708 94.0624 162.114 94.4813 162.624C94.9012 163.173 95.19 163.811 95.3255 164.488C95.461 165.166 95.4397 165.865 95.2632 166.533V166.533Z" fill="#0E1B3F"/>
<path d="M92.2355 166.397C92.0697 167.039 91.7025 167.611 91.1878 168.028C90.6732 168.446 90.0382 168.688 89.3762 168.718C88.094 168.718 87.2955 167.677 87.5937 166.397C87.7584 165.755 88.1249 165.183 88.6391 164.765C89.1533 164.347 89.788 164.106 90.4497 164.076C91.7319 164.076 92.5304 165.114 92.2355 166.397Z" fill="#0E1B3F"/>
<path d="M118.49 175.223H115.538C115.009 175.241 114.483 175.137 114 174.919C113.518 174.702 113.092 174.376 112.755 173.967C112.426 173.524 112.202 173.012 112.099 172.47C111.996 171.928 112.018 171.37 112.162 170.837L117.132 149.264C117.213 148.949 117.22 148.619 117.154 148.3C117.087 147.981 116.948 147.681 116.747 147.424C116.515 147.144 116.222 146.92 115.89 146.769C115.558 146.618 115.197 146.544 114.832 146.553V145.889C115.299 145.879 115.761 145.975 116.184 146.17C116.608 146.364 116.982 146.653 117.278 147.013C117.543 147.35 117.727 147.743 117.817 148.162C117.906 148.581 117.899 149.015 117.794 149.43L112.825 171.003C112.705 171.439 112.686 171.897 112.769 172.341C112.853 172.786 113.036 173.206 113.305 173.569C113.58 173.896 113.926 174.155 114.316 174.328C114.707 174.5 115.132 174.581 115.558 174.564H118.51L118.49 175.223Z" fill="#4C85D8"/>
<g style="mix-blend-mode:multiply" opacity="0.5">
<path d="M171.602 322.921C227.388 322.921 272.611 321.672 272.611 320.131C272.611 318.589 227.388 317.34 171.602 317.34C115.817 317.34 70.5938 318.589 70.5938 320.131C70.5938 321.672 115.817 322.921 171.602 322.921Z" fill="#E3E3E3"/>
</g>
<path d="M102.736 287.209L98.7896 300.165C98.2363 301.972 100.092 305.072 100.092 305.072L99.6245 306.846L98.1104 305.695L95.5625 298.962L98.2793 287.199L102.736 287.209Z" fill="#FBCCCA"/>
<path d="M93.8509 289.584L92.6251 301.748C92.5588 302.918 93.619 304.042 94.5931 304.702C95.1529 305.074 95.7559 305.377 96.3889 305.604L97.088 307.298H95.1862L89.0898 303.478L89.3052 301.821L89.8287 291.543L93.8509 289.584Z" fill="#FBCCCA"/>
<path d="M89.0897 303.477C89.0897 303.477 87.4663 305.817 87.5756 308.615H101.932C102.084 308.616 102.231 308.565 102.351 308.472C102.471 308.379 102.557 308.249 102.594 308.101C102.633 307.954 102.622 307.798 102.562 307.658C102.502 307.518 102.397 307.402 102.263 307.329C101.783 307.064 101.077 306.915 100.05 307.11C99.7337 307.169 99.407 307.124 99.1189 306.981L96.3888 305.602L95.852 306.464L89.0897 303.477Z" fill="#272C82"/>
<path d="M95.5596 298.959L99.1378 305.427L100.089 305.069L101.083 307.075C101.309 307.145 101.549 307.158 101.782 307.115C102.523 306.924 103.308 307.001 103.998 307.333C104.131 307.407 104.236 307.523 104.296 307.663C104.356 307.803 104.368 307.959 104.33 308.106C104.295 308.254 104.21 308.386 104.089 308.479C103.968 308.572 103.819 308.621 103.667 308.617H99.8005L96.1228 305.822L91.2656 302.128C92.8527 299.838 95.5596 298.959 95.5596 298.959Z" fill="#272C82"/>
<path d="M85.6378 198.691C85.6378 198.691 80.8171 201.261 80.4063 204.967V218.951C80.4056 220.406 80.875 221.822 81.7444 222.987C82.6138 224.153 83.8366 225.006 85.2303 225.42L88.8351 226.49L85.6378 198.691Z" fill="#F3C8D7"/>
<path d="M85.6378 198.691C85.6378 198.691 80.8171 201.261 80.4063 204.967V218.951C80.4056 220.406 80.875 221.822 81.7444 222.987C82.6138 224.153 83.8366 225.006 85.2303 225.42L88.8351 226.49L85.6378 198.691Z" fill="#E5F5F9"/>
<path d="M90.9195 191.062V195.428H96.3399L96.3664 194.725L96.3996 193.9V193.827L99.7857 192.365L100.491 190.419C101.092 187.813 100.709 185.077 99.4146 182.737C99.1458 182.223 98.8273 181.737 98.4637 181.285L93.8252 183.888L92.4336 187.299L90.9062 191.049L90.9195 191.062Z" fill="#FBCCCA"/>
<path d="M88.2809 186.695C89.1233 188.025 89.8974 189.397 90.6002 190.806C90.6308 190.867 90.6742 190.92 90.7274 190.961C90.7807 191.003 90.8424 191.033 90.9083 191.048C90.9445 191.053 90.9813 191.053 91.0176 191.048H94.3309C96.511 190.684 96.7727 188.502 96.7727 188.502C96.7727 187.507 97.2001 187.126 97.5877 186.97C97.6524 186.945 97.7222 186.935 97.7914 186.942C97.8606 186.949 97.9271 186.972 97.9853 187.01C98.0436 187.049 98.0915 187.102 98.1244 187.164C98.1574 187.226 98.1745 187.295 98.1742 187.365V190.405C96.4447 191.589 96.3055 192.974 96.3055 192.974V193.876H96.3651C100.543 194.576 100.46 190.395 100.46 190.395C100.409 190.52 100.331 190.633 100.232 190.725C100.133 190.817 100.015 190.886 99.8871 190.929C99.786 190.962 99.6784 190.97 99.5735 190.953C99.4685 190.936 99.3693 190.893 99.2841 190.829C99.1985 190.766 99.1287 190.684 99.0804 190.589C99.0321 190.494 99.0066 190.389 99.0058 190.282V186.447C99.0453 185.433 98.7443 184.435 98.151 183.612C98.4143 183.575 98.6646 183.474 98.8795 183.317C99.0945 183.16 99.2676 182.953 99.3835 182.714C99.5548 182.324 99.6298 181.898 99.6022 181.474C99.5425 179.322 97.2366 178.612 95.4474 178.543C94.9571 178.52 94.4534 178.728 93.9929 178.715C89.8414 178.563 89.6857 182.094 89.6857 182.094C86.7237 182.276 87.3963 185.449 88.2809 186.695Z" fill="#182F56"/>
<path d="M92.4053 240.928L102.633 263.758C100.977 266.294 99.9496 269.725 99.1941 273.591C97.8688 280.321 97.3553 288.437 95.6357 295.711L101.238 297.037L105.416 283.165L110.877 263.824C111.125 262.935 111.125 261.994 110.877 261.105L101.901 228.973L101.808 228.94L98.3658 227.727H91.7162L89.8442 228.144L89.2545 229.911C89.2545 229.911 86.4581 236.154 92.4053 240.928Z" fill="#1E3665"/>
<path d="M86.7158 241.103C86.8414 241.345 86.9148 241.611 86.9312 241.882C87.3851 248.344 87.6469 254.481 89.0086 264.301C85.9439 272.373 87.7893 287.395 87.7728 299.204H93.3854L95.4926 276.203L96.5131 265.09L97.285 251.828L97.5401 248.957L98.7462 230.246L98.7892 229.612L89.7408 228.482H89.6712L87.1466 228.15C86.933 228.599 86.7428 229.058 86.5767 229.526C86.5171 229.685 86.4607 229.858 86.4011 230.034C86.2288 230.551 86.0698 231.157 85.8975 231.834C85.3077 234.38 85.0559 237.891 86.7158 241.103Z" fill="#1E3665"/>
<path d="M102.885 243.556C93.4459 233.584 95.805 228.598 95.805 228.598L100.526 228.86L100.616 229.191L101.802 228.933L101.895 228.966L110.87 261.098C111.119 261.986 111.119 262.925 110.87 263.813L105.41 283.158L109.098 263.054L103.25 244.09L102.885 243.556Z" fill="#162953"/>
<g style="mix-blend-mode:multiply" opacity="0.5">
<path d="M102.635 263.754C100.978 266.291 99.9511 269.722 99.1956 273.588C101.379 267.743 103.685 264.636 103.685 264.636L106.667 263.41H104.212L92.4102 240.932L102.635 263.754Z" fill="#3B1D55"/>
</g>
<path d="M85.8954 231.82C86.0511 231.157 86.2267 230.537 86.399 230.02C87.1097 230.602 87.9838 230.95 88.9005 231.014C88.3969 233.003 87.996 237.35 92.3827 240.9L92.4059 240.92L97.2829 251.808L96.511 265.069L95.4905 276.182L94.7682 254.301L94.2447 251.347C94.3143 247.037 88.7746 242.78 87.287 241.703C87.0213 241.514 86.8063 241.262 86.6608 240.97C85.0605 237.807 85.3255 234.346 85.8954 231.82Z" fill="#162953"/>
<path d="M89.1719 196.386V197.078L93.7276 196.85L98.2071 196.624C98.1764 196.535 98.141 196.448 98.101 196.362C97.889 195.882 97.339 194.897 96.3649 194.725H90.4905C90.4905 194.725 89.3011 194.788 89.1719 196.386Z" fill="white"/>
<path d="M83.7835 212.358C84.8934 214.579 84.688 216.863 84.8238 218.11C84.5455 220.364 84.3633 222.638 84.2805 224.906C84.2109 226.773 84.1844 228.732 84.582 230.562C84.7079 231.149 84.9133 232.724 85.5329 233.039C86.5699 233.582 87.2955 232.22 88.0443 231.789C88.2817 231.657 88.53 231.546 88.7864 231.457C90.0753 230.993 91.6689 230.92 92.9313 230.39C94.7304 229.627 96.7879 230.3 98.5969 230.675C99.9222 230.947 101.145 231.063 102.003 230.297C102.261 230.072 102.458 229.784 102.574 229.462C102.69 229.139 102.721 228.792 102.666 228.454C102.232 225.997 101.936 223.517 101.781 221.027C101.714 219.85 101.726 218.669 101.817 217.493C102.235 213.054 104.726 211.807 104.587 205.429V201.119C104.587 201.119 104.309 197.926 101.817 197.236L97.9674 196.799L94.4719 196.404L93.8756 196.477L89.0416 197.084H88.9289L85.884 198.771C84.115 199.756 82.8054 201.399 82.2395 203.343C82.0409 204.013 81.9394 204.707 81.938 205.405C81.9148 208.824 82.6735 210.14 83.7835 212.358Z" fill="white"/>
<path d="M101.328 212.945C100.49 215.123 101.096 217.623 101.914 220.597C101.845 219.419 101.856 218.238 101.947 217.063C102.365 212.623 104.86 211.377 104.721 204.998V204.836L98.5282 199.826C98.5282 199.826 97.4812 204.723 101.841 208.923C102.022 210.286 101.845 211.672 101.328 212.945Z" fill="#E5F5F9"/>
<path d="M117.291 174.93C117.239 175.098 117.228 175.275 117.26 175.447C117.291 175.62 117.363 175.782 117.469 175.921C117.576 176.059 117.715 176.17 117.873 176.244C118.032 176.318 118.206 176.353 118.381 176.346C118.784 176.326 119.17 176.178 119.483 175.924C119.796 175.669 120.019 175.321 120.12 174.93C120.173 174.763 120.184 174.586 120.153 174.414C120.123 174.241 120.051 174.079 119.944 173.94C119.838 173.801 119.699 173.69 119.541 173.616C119.382 173.542 119.208 173.507 119.034 173.515C118.63 173.533 118.243 173.68 117.929 173.935C117.615 174.19 117.392 174.539 117.291 174.93Z" fill="#3961AA"/>
<path d="M123.972 180.963C123.972 180.963 123.173 181.48 123.256 181.914C123.339 182.349 123.488 182.398 123.488 182.398C123.413 182.504 123.367 182.627 123.355 182.756C123.344 182.885 123.367 183.014 123.422 183.131C123.422 183.131 123.216 183.794 123.611 183.996C124.005 184.199 124.419 181.513 123.972 180.963Z" fill="#F9B3AB"/>
<path d="M124.225 193.053L126.876 185.945C127.183 184.828 127.383 183.685 127.476 182.53C127.486 182.328 127.456 182.126 127.386 181.935C127.317 181.745 127.21 181.571 127.072 181.423C126.932 181.276 126.764 181.159 126.577 181.08C126.391 181 126.191 180.959 125.988 180.959H125.325C125.307 180.959 125.289 180.956 125.272 180.949C125.255 180.942 125.239 180.932 125.226 180.919C125.213 180.906 125.203 180.889 125.196 180.872C125.19 180.854 125.188 180.835 125.19 180.816C125.213 180.326 125.253 178.721 124.795 178.648C124.156 178.545 123.937 179.016 123.931 180.969C123.637 182.068 123.539 183.21 123.639 184.344C123.897 186.157 124.713 186.492 124.713 186.492L121.426 192.208L124.225 193.053Z" fill="#FBCCCA"/>
<path d="M125.445 184.824V189.764L122.171 198.576C120.352 198.792 119.335 198.424 118.109 196.547L125.445 184.824Z" fill="#FBCCCA"/>
<path d="M99.3173 196.659C99.3173 196.659 104.443 195.548 107.63 198.462C107.63 198.462 112.898 198.184 114.561 199.57L116.086 199.709L118.11 196.546C119.73 196.258 121.718 197.289 122.172 198.575L120.244 203.177C119.824 204.257 119.106 205.196 118.173 205.884C117.24 206.571 116.131 206.979 114.976 207.059L104.582 207.752C104.582 207.752 95.8517 204.423 99.3173 196.659Z" fill="white"/>
<path d="M84.897 218.303L84.9534 217.471C84.854 216.192 84.9865 214.023 83.9329 211.915C83.4489 211.014 83.025 210.083 82.6639 209.127C82.6175 208.996 82.5744 208.864 82.5347 208.729L82.5148 208.662C82.4817 208.546 82.4485 208.427 82.4187 208.304C82.4187 208.271 82.4187 208.238 82.3922 208.205C82.3657 208.172 82.3591 208.066 82.3458 207.996C82.3326 207.926 82.316 207.85 82.2994 207.777C82.2829 207.704 82.2696 207.618 82.2564 207.535C82.2431 207.452 82.2365 207.406 82.2233 207.34C82.21 207.273 82.1968 207.154 82.1868 207.061L82.157 206.826L82.1371 206.637C82.1371 206.521 82.1172 206.398 82.1073 206.272V206.077C82.1073 205.947 82.1073 205.811 82.0874 205.675C82.0874 205.609 82.0874 205.543 82.0874 205.476C82.0874 205.36 82.0874 205.241 82.0874 205.118C82.0874 205.075 82.0874 205.035 82.0874 204.992C82.0908 204.295 82.1923 203.602 82.3889 202.934C81.0636 205.486 80.8648 207.283 82.1106 209.819C83.017 211.611 83.7846 213.47 84.4067 215.379C84.6618 216.291 84.9931 217.322 84.897 218.303Z" fill="#E5F5F9"/>
<defs>
<linearGradient id="paint0_linear_1161_3023" x1="158.499" y1="80.2493" x2="158.499" y2="275.175" gradientUnits="userSpaceOnUse">
<stop stop-color="#97BFE7"/>
<stop offset="1" stop-color="#FDFEFF"/>
</linearGradient>
<linearGradient id="paint1_linear_1161_3023" x1="154.729" y1="160.839" x2="153.412" y2="153.704" gradientUnits="userSpaceOnUse">
<stop stop-color="#BBE4ED"/>
<stop offset="1" stop-color="#DFF2F8"/>
</linearGradient>
<linearGradient id="paint2_linear_1161_3023" x1="135.966" y1="183.474" x2="138.18" y2="194.442" gradientUnits="userSpaceOnUse">
<stop stop-color="#A1246A"/>
<stop offset="1" stop-color="white"/>
</linearGradient>
</defs>
</svg>
