<svg width="336" height="387" viewBox="0 0 336 387" fill="none" xmlns="http://www.w3.org/2000/svg">
<path d="M335.262 290.358L335.262 97.2509L168.019 0.697258L0.776699 97.2509L0.77669 290.358L168.019 386.927L335.262 290.358Z" fill="#F8F9FD"/>
<path d="M118.766 283.167C118.766 277.965 115.645 274.812 111.436 274.812C107.203 274.812 104.105 277.965 104.105 283.167C104.105 288.362 107.203 291.522 111.436 291.522C115.645 291.522 118.766 288.369 118.766 283.167ZM116.312 283.167C116.312 287.123 114.232 289.267 111.436 289.267C108.64 289.267 106.56 287.123 106.56 283.167C106.56 279.212 108.64 277.068 111.436 277.068C114.232 277.068 116.312 279.212 116.312 283.167Z" fill="#313131"/>
<path d="M123.751 284.065C123.751 282.119 124.934 281.015 126.586 281.015C128.198 281.015 129.159 282.071 129.159 283.835V291.3H131.558V283.541C131.558 280.531 129.906 278.942 127.404 278.942C125.569 278.942 124.37 279.792 123.806 281.095H123.655V279.101H121.352V291.3H123.751V284.065Z" fill="#313131"/>
<path d="M134.438 283.398V285.463H141.665V283.398H134.438Z" fill="#313131"/>
<path d="M150.185 275.035H144.745V291.3H150.026C154.982 291.3 157.841 288.227 157.841 283.144C157.841 278.085 154.982 275.035 150.185 275.035ZM147.215 289.14V277.195H150.034C153.584 277.195 155.403 279.316 155.403 283.144C155.403 286.996 153.584 289.14 149.891 289.14H147.215Z" fill="#313131"/>
<path d="M170.949 285.074C170.949 280.666 168.305 278.942 165.525 278.942C162.134 278.942 159.886 281.531 159.886 285.28C159.886 289.068 162.102 291.546 165.7 291.546C168.376 291.546 170.25 290.228 170.791 288.234H168.36C167.955 288.989 167.074 289.577 165.716 289.577C163.698 289.577 162.332 288.25 162.269 285.923H170.949V285.074ZM162.277 284.128C162.388 282.413 163.635 280.912 165.557 280.912C167.383 280.912 168.583 282.278 168.591 284.128H162.277Z" fill="#313131"/>
<path d="M175.725 291.3V283.787C175.725 282.143 176.877 281.015 178.219 281.015C179.537 281.015 180.443 281.881 180.443 283.207V291.3H182.817V283.525C182.817 282.064 183.715 281.015 185.264 281.015C186.518 281.015 187.543 281.706 187.543 283.358V291.3H189.941V283.12C189.941 280.332 188.377 278.942 186.169 278.942C184.406 278.942 183.087 279.784 182.508 281.095H182.381C181.856 279.744 180.721 278.942 179.101 278.942C177.488 278.942 176.289 279.744 175.781 281.095H175.63V279.101H173.327V291.3H175.725Z" fill="#313131"/>
<path d="M197.642 278.942C194.767 278.942 192.877 280.412 192.655 282.429H195.045C195.291 281.523 196.149 280.88 197.555 280.88C199.191 280.88 200.041 281.674 200.041 283.048V284.041C199.517 284.057 197.658 284.152 196.832 284.208C194.64 284.367 192.273 285.081 192.273 287.853C192.273 290.244 194.076 291.57 196.395 291.57C198.413 291.57 199.54 290.554 200.001 289.632H200.096V291.3H202.431V283.199C202.431 279.657 199.588 278.942 197.642 278.942ZM196.927 289.656C195.585 289.656 194.624 289.06 194.624 287.885C194.624 286.686 195.609 286.09 197.174 285.979C197.753 285.939 199.501 285.82 200.049 285.788V286.9C200.049 288.346 198.889 289.656 196.927 289.656Z" fill="#313131"/>
<path d="M207.732 284.065C207.732 282.119 208.915 281.015 210.567 281.015C212.18 281.015 213.141 282.071 213.141 283.835V291.3H215.539V283.541C215.539 280.531 213.887 278.942 211.385 278.942C209.551 278.942 208.352 279.792 207.788 281.095H207.637V279.101H205.334V291.3H207.732V284.065Z" fill="#313131"/>
<path d="M223.017 291.538C225.241 291.538 226.107 290.188 226.552 289.402H226.734V291.3H229.077V275.035H226.679V281.079H226.552C226.123 280.316 225.305 278.942 223.041 278.942C220.095 278.942 217.911 281.261 217.911 285.224C217.911 289.172 220.063 291.538 223.017 291.538ZM223.557 289.497C221.445 289.497 220.349 287.647 220.349 285.201C220.349 282.786 221.421 280.983 223.557 280.983C225.614 280.983 226.734 282.659 226.734 285.201C226.734 287.75 225.591 289.497 223.557 289.497Z" fill="#313131"/>
<g style="mix-blend-mode:multiply" opacity="0.5">
<path d="M173.126 243.004C240.98 243.004 295.987 241.952 295.987 240.655C295.987 239.358 240.98 238.307 173.126 238.307C105.272 238.307 50.2656 239.358 50.2656 240.655C50.2656 241.952 105.272 243.004 173.126 243.004Z" fill="#E3E3E3"/>
</g>
<path style="mix-blend-mode:multiply" opacity="0.25" d="M260.725 274.404C297.591 228.196 289.929 160.781 243.612 123.829C197.295 86.8766 129.862 94.3802 92.9969 140.588C56.1314 186.797 63.7933 254.211 110.11 291.164C156.427 328.116 223.86 320.612 260.725 274.404Z" fill="url(#paint0_linear_1161_3615)"/>
<path d="M198.968 90.1396C201.153 90.1396 203.25 91.0097 204.796 92.5586C206.341 94.1075 207.21 96.2083 207.211 98.3992V243.573C207.211 245.765 206.343 247.867 204.797 249.417C203.251 250.967 201.154 251.838 198.968 251.839H150.545C149.462 251.839 148.39 251.625 147.39 251.209C146.39 250.794 145.481 250.185 144.716 249.417C143.951 248.65 143.344 247.738 142.93 246.736C142.516 245.733 142.304 244.658 142.305 243.573V98.3992C142.304 97.3144 142.517 96.2402 142.931 95.2379C143.345 94.2356 143.952 93.325 144.717 92.5579C145.483 91.7909 146.391 91.1825 147.391 90.7675C148.391 90.3526 149.463 90.1392 150.545 90.1396H198.968Z" fill="white"/>
<path d="M205.147 90.1367C207.332 90.1375 209.428 91.0084 210.974 92.5579C212.519 94.1073 213.387 96.2085 213.387 98.3993V243.573C213.387 244.658 213.174 245.732 212.76 246.735C212.347 247.737 211.74 248.648 210.974 249.416C210.209 250.183 209.301 250.791 208.301 251.207C207.301 251.622 206.229 251.836 205.147 251.836H156.724C155.641 251.836 154.569 251.623 153.569 251.208C152.568 250.793 151.66 250.184 150.894 249.417C150.128 248.649 149.521 247.738 149.107 246.736C148.693 245.733 148.48 244.658 148.48 243.573V98.3993C148.48 96.208 149.349 94.1063 150.895 92.5568C152.441 91.0072 154.537 90.1367 156.724 90.1367H205.147Z" fill="white"/>
<path d="M198.974 92.6543H150.548C147.383 92.6543 144.816 95.2265 144.816 98.3994V243.573C144.816 246.746 147.383 249.318 150.548 249.318H198.974C202.14 249.318 204.706 246.746 204.706 243.573V98.3994C204.706 95.2265 202.14 92.6543 198.974 92.6543Z" fill="#5689BF"/>
<path style="mix-blend-mode:multiply" d="M198.974 92.6543H150.548C147.383 92.6543 144.816 95.2265 144.816 98.3994V243.573C144.816 246.746 147.383 249.318 150.548 249.318H198.974C202.14 249.318 204.706 246.746 204.706 243.573V98.3994C204.706 95.2265 202.14 92.6543 198.974 92.6543Z" fill="url(#paint1_linear_1161_3615)"/>
<path d="M211.375 125.247H210.201C209.804 125.247 209.425 125.089 209.144 124.808C208.864 124.527 208.707 124.147 208.707 123.75V108.352C208.707 107.955 208.864 107.575 209.144 107.294C209.425 107.013 209.804 106.855 210.201 106.855H211.268L211.375 125.247Z" fill="#5689BF"/>
<path d="M212.76 123.75C212.76 124.147 212.603 124.527 212.323 124.808C212.043 125.089 211.663 125.247 211.267 125.247C210.871 125.247 210.491 125.089 210.211 124.808C209.931 124.527 209.773 124.147 209.773 123.75V108.352C209.773 107.955 209.931 107.575 210.211 107.294C210.491 107.013 210.871 106.855 211.267 106.855C211.663 106.855 212.043 107.013 212.323 107.294C212.603 107.575 212.76 107.955 212.76 108.352V123.75Z" fill="white"/>
<path d="M211.375 140.124H210.201C209.804 140.124 209.425 139.967 209.144 139.686C208.864 139.405 208.707 139.025 208.707 138.628V129.434C208.708 129.037 208.865 128.656 209.145 128.376C209.425 128.095 209.805 127.937 210.201 127.937H211.268L211.375 140.124Z" fill="#5689BF"/>
<path d="M212.76 138.621C212.76 139.018 212.603 139.399 212.323 139.68C212.043 139.961 211.663 140.118 211.267 140.118C210.871 140.118 210.491 139.961 210.211 139.68C209.931 139.399 209.773 139.018 209.773 138.621V129.434C209.774 129.037 209.932 128.656 210.212 128.376C210.492 128.095 210.871 127.937 211.267 127.937C211.663 127.937 212.042 128.095 212.322 128.376C212.602 128.656 212.76 129.037 212.76 129.434V138.621Z" fill="white"/>
<path d="M205.913 181.004H135.008V183.512H205.913V181.004Z" fill="#C7DFEC"/>
<path d="M205.916 181.004H191.742V183.512H205.916V181.004Z" fill="white"/>
<path d="M197.099 216.6H153.898V220.823H197.099V216.6Z" fill="white"/>
<path d="M197.094 216.6H156.004V220.823H197.094V216.6Z" fill="#1E3565"/>
<path d="M179.974 226.502H153.898V227.821H179.974V226.502Z" fill="white"/>
<path d="M192.355 223.596H153.898V224.914H192.355V223.596Z" fill="white"/>
<path d="M174.182 229.406H153.898V230.725H174.182V229.406Z" fill="white"/>
<path d="M157.988 159.966V160.79C157.969 160.946 157.92 161.096 157.842 161.233C157.764 161.369 157.659 161.488 157.534 161.583L157.494 161.644C157.37 161.792 157.205 161.899 157.019 161.952L156.798 162.026L156.461 162.216C155.537 162.672 154.53 162.936 153.502 162.991L147.273 167.174L142.774 170.079L142.109 170.513L139.738 166.679L140.088 166.532L141.983 165.708L152.296 161.211C152.296 161.211 152.235 159.659 152.539 158.709C152.58 158.426 152.696 158.159 152.876 157.937C152.876 157.937 153.489 156.883 153.382 156.164C153.382 156.164 153.075 155.466 153.615 155.392C153.615 155.392 154.363 155.34 154.52 156.354C154.538 156.745 154.459 157.133 154.29 157.485C154.29 157.485 154.014 157.971 154.234 158.297L155.225 157.82C155.225 157.82 156.249 157.239 156.7 157.473C156.809 157.509 156.909 157.567 156.994 157.643C157.08 157.719 157.149 157.812 157.197 157.916C157.222 158.034 157.229 158.155 157.218 158.275C157.309 158.26 157.401 158.275 157.483 158.317C157.564 158.359 157.629 158.426 157.669 158.509C157.741 158.617 157.779 158.744 157.779 158.873C157.779 159.003 157.741 159.13 157.669 159.237L157.798 159.502C157.865 159.558 157.917 159.63 157.95 159.71C157.983 159.791 157.996 159.879 157.988 159.966V159.966Z" fill="#FBCCCA"/>
<path d="M147.275 167.174L142.776 170.079L140.09 166.532L141.985 165.708C142.313 166.787 143.46 168.785 147.275 167.174Z" fill="#EFB6B6"/>
<path d="M142.108 170.516L138.907 172.385C138.55 172.621 138.138 172.761 137.711 172.79C137.285 172.82 136.858 172.739 136.472 172.554C136.323 172.489 136.182 172.407 136.052 172.311L128.998 167.19L122.086 162.152L126.993 156.081L137.867 167.74L139.707 166.689L142.108 170.516Z" fill="white"/>
<path d="M138.383 167.267C138.347 167.174 138.346 167.07 138.382 166.976C138.418 166.882 138.487 166.805 138.577 166.76L140.38 165.866C140.453 165.836 140.534 165.826 140.612 165.838C140.691 165.849 140.765 165.881 140.828 165.93C142.125 166.723 142.916 167.535 143.661 169.825C143.688 169.907 143.688 169.995 143.661 170.077C143.634 170.159 143.581 170.23 143.511 170.28L141.404 171.737C141.324 171.793 141.225 171.817 141.128 171.806C141.031 171.794 140.941 171.746 140.877 171.672C139.625 170.249 139.11 169.17 138.383 167.267Z" fill="white"/>
<path opacity="0.8" d="M136.474 172.554C136.325 172.489 136.184 172.407 136.053 172.311L129 167.19L129.402 159.429C129.402 159.429 131.962 163.117 132.162 167.876L136.474 172.554Z" fill="#DFF2F8"/>
<path d="M155.588 175.68C155.588 175.68 155.186 176.707 153.364 176.347C153.273 176.33 153.178 176.337 153.09 176.366C153.001 176.396 152.922 176.448 152.858 176.516C152.795 176.584 152.75 176.667 152.728 176.758C152.706 176.848 152.707 176.943 152.733 177.033C152.823 177.29 152.97 177.524 153.162 177.718C153.162 177.718 154.195 178.84 155.06 178.948C155.097 178.953 155.132 178.966 155.162 178.986C155.193 179.006 155.219 179.033 155.238 179.065C155.252 179.098 155.259 179.133 155.259 179.169C155.259 179.205 155.252 179.24 155.238 179.274C155.091 179.584 154.864 179.849 154.58 180.043C154.297 180.236 153.967 180.351 153.625 180.374C153.625 180.374 150.96 180.648 148.482 177.3L138.801 175.855L133.86 175.115L133.207 175.019L133.964 170.301L135.191 170.7L136.418 171.103L149.243 175.305C150.422 174.84 151.719 174.77 152.941 175.105C152.941 175.105 154.395 175.496 155.069 175.21C155.082 175.216 155.723 175.185 155.588 175.68Z" fill="#FBCCCA"/>
<path d="M136.582 227.987L132.761 240.467C132.631 240.893 132.607 241.344 132.692 241.781C132.776 242.219 132.967 242.628 133.246 242.975L134.896 245.016L134.847 246.636L133.313 245.947L129.777 240.657L132.961 227.064L136.582 227.987Z" fill="#FBCCCA"/>
<path d="M129.774 240.656C129.774 240.656 127.627 241.966 126.707 244.262L138.495 249.555C138.597 249.602 138.711 249.616 138.821 249.595C138.931 249.574 139.031 249.52 139.109 249.438C139.187 249.359 139.238 249.257 139.255 249.146C139.272 249.036 139.254 248.923 139.204 248.824C138.962 248.329 138.425 247.797 137.263 247.533C137.022 247.478 136.806 247.345 136.649 247.154L134.904 245.003L134.162 245.504L129.774 240.656Z" fill="#272C82"/>
<path d="M140.867 209.985C141.284 210.668 141.554 211.431 141.66 212.225C141.765 213.019 141.704 213.826 141.48 214.595L134.914 237.035L134.114 239.801L129.373 238.218C131.826 229.611 132.764 217.623 134.988 214.107L116.551 192.635L120.639 191.799L128.667 190.164L129.667 191.799L132.24 195.983L140.867 209.985Z" fill="#1E3665"/>
<g style="mix-blend-mode:multiply" opacity="0.3">
<path d="M136.582 214.482C136.582 214.482 128.458 232.194 134.926 237.02L134.125 239.786L129.384 238.203C131.838 229.596 132.776 217.608 134.999 214.091L116.562 192.62L120.65 191.784H129.679L132.252 195.968C130.513 197.213 127.652 200.074 130.08 204.406L136.582 213.384H139.087L136.582 214.482Z" fill="#1E3665"/>
</g>
<path d="M144.897 207.356L137.902 218.364C137.663 218.739 137.52 219.168 137.485 219.612C137.451 220.055 137.525 220.501 137.703 220.909L138.752 223.319L138.273 224.856L136.979 223.783L134.977 217.74L141.653 205.487L144.897 207.356Z" fill="#FBCCCA"/>
<path d="M134.976 217.752C134.976 217.752 132.55 218.441 131.051 220.408L141.018 228.655C141.101 228.727 141.206 228.771 141.316 228.78C141.426 228.789 141.537 228.762 141.631 228.704C141.725 228.649 141.8 228.566 141.846 228.466C141.891 228.367 141.903 228.255 141.882 228.148C141.781 227.607 141.407 226.952 140.349 226.387C140.132 226.27 139.96 226.084 139.861 225.858L138.751 223.319L137.902 223.602L134.976 217.752Z" fill="#272C82"/>
<path d="M156.948 191.517L140.299 216.416L138.952 218.432L134.874 215.918C135.57 214.734 136.275 213.437 137.02 212.075C137.232 211.673 137.444 211.27 137.655 210.846C137.686 210.79 137.716 210.738 137.75 210.674C137.959 210.265 138.18 209.841 138.403 209.419C138.422 209.376 138.456 209.324 138.477 209.272C139.909 206.505 141.372 203.579 142.807 200.852C142.942 200.6 143.08 200.336 143.218 200.084C143.301 199.933 143.374 199.798 143.448 199.651C143.66 199.257 143.871 198.867 144.08 198.489C145.162 196.442 146.355 194.457 147.653 192.541L123.355 195.857C121.999 196.095 120.603 195.957 119.319 195.456C118.036 194.955 116.914 194.112 116.075 193.017C115.237 191.919 114.716 190.612 114.567 189.237C114.419 187.863 114.648 186.474 115.232 185.222C115.383 184.887 115.563 184.566 115.771 184.263L116.771 184.303L117.804 184.346L129.731 184.884H153.038C153.813 184.884 154.574 185.086 155.248 185.47C155.922 185.853 156.486 186.405 156.883 187.072C157.278 187.744 157.492 188.507 157.503 189.286C157.515 190.066 157.323 190.834 156.948 191.517V191.517Z" fill="#1E3665"/>
<g style="mix-blend-mode:multiply" opacity="0.3">
<path d="M149.484 192.436C149.484 192.436 146.724 196.303 143.752 200.757H143.826C143.826 200.757 136.674 212.659 140.296 216.434L138.95 218.451L134.871 215.936C135.567 214.753 136.273 213.456 137.018 212.094C137.229 211.691 137.441 211.288 137.653 210.864C137.683 210.809 137.714 210.757 137.748 210.692C137.956 210.283 138.177 209.859 138.401 209.438C138.419 209.395 138.453 209.343 138.474 209.29C139.907 206.524 141.369 203.598 142.805 200.871C142.943 200.607 143.078 200.355 143.206 200.103C143.289 199.952 143.363 199.817 143.436 199.669C143.648 199.276 143.86 198.885 144.068 198.507C145.15 196.461 146.343 194.475 147.641 192.559L123.343 195.876C121.987 196.114 120.591 195.975 119.308 195.474C118.024 194.974 116.902 194.13 116.063 193.036C115.226 191.937 114.704 190.63 114.556 189.256C114.407 187.882 114.637 186.493 115.22 185.24C115.371 184.905 115.552 184.584 115.76 184.281L116.759 184.321L117.793 184.364L119.847 185.569C119.847 185.569 118.007 192.983 124.65 192.836L148.57 191.241L151.204 190.447L149.484 192.436Z" fill="#1E3665"/>
</g>
<path d="M127.179 147.822V155.879H121.742V147.748L123.65 145.372H124.683L127.179 147.822Z" fill="#FBCCCA"/>
<path d="M131.174 143.604C131.185 142.441 130.873 141.495 130.477 141.491C130.08 141.487 129.75 142.427 129.739 143.59C129.728 144.753 130.04 145.698 130.436 145.702C130.833 145.706 131.163 144.766 131.174 143.604Z" fill="white"/>
<path d="M131.874 138.314C131.868 138.301 131.862 138.288 131.858 138.274C130.432 134.813 124.517 134.466 121.907 136.141C119.408 137.745 119.435 143.518 121.361 145.363L127.737 142.682L130.248 142.836L130.742 142.19C130.776 142.147 130.813 142.101 130.849 142.061C131.119 141.748 132.536 139.952 131.874 138.314Z" fill="#182F56"/>
<path d="M130.765 146.079C130.765 146.079 130.535 148.778 129.56 150.075C129.56 150.075 127.143 150.567 125.674 146.414C125.674 146.414 124.846 145.741 123.987 146.174C123.987 146.174 122.147 146.122 122.877 143.208C122.912 143.054 122.987 142.913 123.095 142.799C123.203 142.685 123.34 142.602 123.491 142.559C123.797 142.485 124.162 142.578 124.368 143.272L124.469 142.375L122.586 140.06C122.586 140.06 124.334 138.007 128.385 139.242C128.385 139.242 131.093 140.134 130.569 143.598C130.567 143.94 130.674 144.274 130.875 144.551L131.28 145.064C131.28 145.064 131.967 146.023 130.765 146.079Z" fill="#FBCCCA"/>
<path d="M121.088 140.013C121.127 138.867 120.236 137.905 119.097 137.865C117.957 137.826 117.002 138.724 116.962 139.871C116.923 141.017 117.814 141.979 118.953 142.019C120.092 142.058 121.048 141.16 121.088 140.013Z" fill="#172F57"/>
<path d="M130.459 143.58C130.459 144.757 130.115 145.707 129.713 145.704C129.312 145.701 128.996 144.742 129.008 143.567C129.02 142.393 129.352 141.437 129.753 141.443C130.155 141.45 130.471 142.402 130.459 143.58Z" fill="#182F56"/>
<path d="M126.057 140.831L126.404 141.842C125.223 142.94 125.585 145.064 125.585 145.064C125.692 146.21 126.486 146.819 127.41 147.136C127.938 147.319 128.513 147.319 129.041 147.136L130.485 146.631C130.544 146.615 130.606 146.612 130.666 146.623C130.726 146.634 130.783 146.659 130.832 146.696C130.883 146.735 130.926 146.784 130.958 146.84C130.99 146.896 131.011 146.958 131.019 147.022C131.028 147.088 131.024 147.155 131.007 147.22C130.99 147.284 130.959 147.345 130.918 147.397V147.397C130.829 147.508 130.765 147.638 130.732 147.776C130.698 147.915 130.696 148.059 130.725 148.199L130.863 148.894C130.863 148.925 130.863 148.958 130.884 148.989C130.958 149.326 130.985 149.672 130.964 150.016C130.915 150.892 130.571 151.974 129.216 152.128H129.102C128.717 152.155 128.33 152.102 127.967 151.972C127.603 151.842 127.27 151.637 126.989 151.371C126.709 151.105 126.486 150.783 126.336 150.426C126.186 150.069 126.112 149.684 126.118 149.297C126.128 148.835 126.023 148.379 125.812 147.969L124.76 145.952C125.131 143.023 123.512 142.571 123.512 142.571L122.941 141.612L126.057 140.831Z" fill="#172F57"/>
<path d="M121.745 148.117C123.189 147.754 123.68 146.955 124.054 145.716L123.342 145.356L123.723 143.549C123.794 143.158 123.977 142.796 124.249 142.507C124.521 142.218 124.871 142.014 125.256 141.92C125.633 141.84 126.019 141.816 126.403 141.849C126.403 141.849 127.522 141.997 127.464 140.988C127.418 140.174 127.332 140.112 127.942 139.593C127.942 139.593 120.322 137.177 120.803 143.976C120.837 144.523 121.009 145.051 121.303 145.513C121.631 146.023 121.355 147.194 121.745 148.117Z" fill="#3B4770"/>
<path d="M124.459 144.007H124.383C124.284 143.994 124.193 143.948 124.125 143.875C124.057 143.803 124.015 143.709 124.008 143.61C124.002 143.497 124.041 143.387 124.116 143.302C124.19 143.218 124.295 143.166 124.407 143.158H130.611C130.667 143.154 130.723 143.162 130.776 143.18C130.829 143.198 130.878 143.226 130.92 143.264C130.962 143.301 130.996 143.346 131.02 143.396C131.044 143.447 131.059 143.502 131.062 143.558C131.068 143.671 131.03 143.782 130.956 143.867C130.881 143.953 130.776 144.005 130.663 144.013L124.459 144.007Z" fill="#182F56"/>
<path d="M124.749 145.965C124.919 145.149 124.877 144.302 124.627 143.506C124.461 142.891 123.802 142.277 123.179 142.781C122.557 143.285 122.661 144.542 122.845 145.24C122.946 145.549 123.152 145.812 123.428 145.984C123.551 146.068 123.661 146.172 123.753 146.291C123.828 146.387 123.932 146.457 124.049 146.49C124.167 146.523 124.291 146.518 124.406 146.476C124.457 146.461 124.505 146.435 124.544 146.398C124.584 146.362 124.614 146.317 124.633 146.266L124.749 145.965Z" fill="#FBCCCA"/>
<path d="M127.755 154.72L128.506 156.755L128.27 157.329L127.645 157.286L127.755 154.72Z" fill="#F05673"/>
<path d="M126.342 201.046H123.227V248.87H126.342V201.046Z" fill="#5689BF"/>
<path d="M137.208 198.19C137.208 197.574 136.964 196.984 136.53 196.548C136.096 196.112 135.507 195.867 134.893 195.866H114.671C114.056 195.867 113.468 196.112 113.033 196.548C112.599 196.984 112.355 197.574 112.355 198.19H137.208Z" fill="#D63D3B"/>
<path d="M112.355 198.19V200.68C112.355 200.94 112.458 201.188 112.641 201.371C112.824 201.555 113.072 201.658 113.331 201.658H136.233C136.491 201.658 136.739 201.555 136.922 201.371C137.105 201.188 137.208 200.94 137.208 200.68V198.19H112.355Z" fill="#5689BF"/>
<path d="M130.5 168.754L130.08 184.828C130.071 185.154 129.97 185.472 129.788 185.744C129.607 186.016 129.353 186.231 129.056 186.365C125.989 187.803 122.177 187.357 119.448 186.694C118.242 186.406 117.059 186.028 115.909 185.562C113.474 184.803 115.707 181.36 115.707 181.36C116.571 174.662 115.581 170.227 115.213 167.946C115.094 167.374 114.939 166.811 114.75 166.258C112.947 160.184 114.98 155.992 114.98 155.992C115.352 154.954 115.945 154.01 116.719 153.225C117.835 152.102 119.264 151.344 120.819 151.052L121.628 151.789L127.645 157.27C127.887 157.608 128.108 157.959 128.311 158.306C129.189 159.798 129.805 161.431 130.132 163.132C130.527 164.978 130.651 166.872 130.5 168.754V168.754Z" fill="white"/>
<path d="M128.377 156.443L128.546 156.821C128.656 157.067 128.822 157.436 129.009 157.91C129.104 158.149 129.211 158.414 129.316 158.706C129.42 158.998 129.536 159.321 129.637 159.653C129.739 159.984 129.861 160.356 129.944 160.747C130.027 161.137 130.159 161.543 130.251 161.976C130.461 162.909 130.622 163.852 130.732 164.801C130.852 165.871 130.907 166.947 130.898 168.023C130.88 169.191 130.77 170.357 130.57 171.508C130.512 171.816 130.459 172.102 130.392 172.4L130.162 173.294L129.886 174.158C129.797 174.435 129.662 174.755 129.549 175.05C129.073 176.208 128.524 177.263 128.015 178.268C127.531 179.187 127.108 180.137 126.749 181.111C126.46 181.907 126.299 182.743 126.27 183.589C126.27 183.779 126.27 183.967 126.289 184.148C126.307 184.33 126.341 184.514 126.362 184.689C126.362 184.775 126.384 184.861 126.396 184.948L126.467 185.206C126.5 185.347 126.537 185.489 126.571 185.624C126.712 186.033 126.844 186.423 126.969 186.798C127.104 187.089 127.23 187.366 127.347 187.628C127.377 187.693 127.405 187.757 127.433 187.819L127.537 188.015C127.607 188.144 127.672 188.27 127.736 188.387C127.865 188.627 127.972 188.845 128.086 189.042L128.84 190.247L128.202 193.813L124.639 192.709L123.894 191.135C123.783 190.88 123.676 190.585 123.55 190.272C123.492 190.115 123.427 189.964 123.363 189.78C123.328 189.698 123.295 189.612 123.262 189.521L123.17 189.214C123.047 188.815 122.921 188.39 122.787 187.945C122.701 187.56 122.615 187.155 122.523 186.733C122.523 186.733 122.483 186.574 122.501 186.641V186.604V186.555V186.457L122.477 186.257L122.422 185.851C122.422 185.716 122.388 185.578 122.373 185.439C122.357 185.301 122.373 185.154 122.357 185.012C122.357 184.723 122.336 184.431 122.357 184.136C122.379 183.841 122.409 183.521 122.437 183.232C122.618 182.013 122.99 180.829 123.538 179.725C124.069 178.671 124.669 177.653 125.335 176.679C125.948 175.729 126.586 174.798 127.095 173.878C127.215 173.648 127.337 173.451 127.457 173.193L127.794 172.452L128.08 171.711C128.169 171.459 128.242 171.204 128.325 170.952C128.623 169.946 128.842 168.918 128.981 167.878C129.104 166.886 129.167 165.887 129.171 164.887C129.172 163.982 129.125 163.077 129.03 162.176C128.99 161.755 128.935 161.355 128.877 160.974C128.819 160.593 128.754 160.233 128.693 159.892C128.632 159.551 128.555 159.241 128.491 158.949C128.426 158.657 128.359 158.392 128.291 158.156C128.172 157.682 128.049 157.304 127.966 157.046L127.84 156.652L128.377 156.443Z" fill="#F05673"/>
<path d="M134.059 222.772C134.059 222.946 133.99 223.112 133.867 223.235C133.745 223.358 133.579 223.427 133.405 223.427H116.02C115.847 223.427 115.681 223.358 115.559 223.235C115.436 223.112 115.367 222.946 115.367 222.772C115.367 222.598 115.436 222.432 115.559 222.309C115.681 222.186 115.847 222.117 116.02 222.117H133.405C133.579 222.117 133.745 222.186 133.867 222.309C133.99 222.432 134.059 222.598 134.059 222.772Z" fill="#5689BF"/>
<path d="M135.903 251.836C135.903 248.123 130.926 245.113 124.783 245.113C118.64 245.113 113.66 248.123 113.66 251.836H135.903Z" fill="#5689BF"/>
<path opacity="0.8" d="M118.847 174.479C118.847 174.479 123.493 180.814 119.638 186.707H119.448C118.242 186.419 117.059 186.041 115.909 185.575C113.474 184.816 115.707 181.373 115.707 181.373C116.571 174.675 115.581 170.24 115.213 167.959C115.094 167.387 114.939 166.824 114.75 166.271C112.947 160.197 114.98 156.005 114.98 156.005C115.352 154.967 115.945 154.023 116.719 153.238L117.436 152.722L124.643 169.726L117.7 164C117.7 164 116.562 170.338 118.847 174.479Z" fill="#DFF2F8"/>
<path d="M131.161 169.364L123.372 154.302C123.105 153.786 122.734 153.333 122.282 152.97C121.829 152.608 121.306 152.344 120.746 152.196C120.187 152.048 119.603 152.018 119.031 152.11C118.46 152.201 117.914 152.412 117.428 152.728C116.956 153.038 116.552 153.441 116.241 153.913C115.93 154.385 115.718 154.916 115.619 155.473C115.52 156.03 115.535 156.601 115.665 157.152C115.794 157.703 116.034 158.221 116.37 158.676L126.441 172.272C126.907 172.9 127.492 173.43 128.162 173.832C128.833 174.233 129.575 174.498 130.348 174.611L133.219 175.032L133.979 170.304L131.161 169.364Z" fill="white"/>
<path d="M138.804 175.862L133.863 175.121L135.191 170.707L136.418 171.11C136.326 172.355 136.473 174.648 138.804 175.862Z" fill="#EFB6B6"/>
<path d="M126.987 151.374C126.707 151.108 126.484 150.786 126.334 150.429C126.185 150.071 126.11 149.687 126.116 149.3C126.116 149.26 126.116 149.22 126.116 149.18C126.03 149.647 125.938 150.548 126.306 151.212C126.411 151.413 126.456 151.64 126.435 151.866C126.413 152.1 126.302 152.317 126.125 152.472C125.948 152.627 125.719 152.708 125.484 152.699L127.193 154.494V151.522C127.121 151.477 127.053 151.427 126.987 151.374V151.374Z" fill="#EFB6B6"/>
<path d="M121.752 149.353L120.816 151.062L127.643 157.286L127.753 154.72L121.752 149.353Z" fill="white"/>
<path d="M132.824 169.739C132.866 169.641 132.942 169.563 133.039 169.52C133.135 169.476 133.244 169.469 133.345 169.502L135.372 170.16C135.456 170.184 135.53 170.234 135.585 170.302C135.64 170.37 135.673 170.454 135.679 170.541C135.771 172.185 135.985 173.424 134.949 175.588C134.909 175.671 134.844 175.739 134.763 175.782C134.681 175.825 134.589 175.84 134.498 175.825L131.827 175.367C131.725 175.35 131.633 175.295 131.568 175.214C131.504 175.133 131.471 175.031 131.477 174.927C131.569 172.914 131.98 171.73 132.824 169.739Z" fill="white"/>
<path d="M161.074 167.587H167.493V177.565H160.375L161.074 167.587Z" fill="#EA9E4A"/>
<path d="M161.071 167.59C158.513 167.59 156.336 168.736 155.551 170.338C155.478 170.482 155.443 170.643 155.45 170.804C155.457 170.966 155.505 171.123 155.591 171.26C155.673 171.396 155.79 171.509 155.929 171.587C156.069 171.664 156.226 171.704 156.385 171.703H156.434V180.119C156.438 180.361 156.537 180.592 156.709 180.761C156.881 180.931 157.113 181.026 157.354 181.026H164.84C165.081 181.026 165.313 180.931 165.485 180.761C165.657 180.592 165.756 180.361 165.76 180.119V171.69H165.809C165.968 171.692 166.125 171.652 166.264 171.574C166.404 171.497 166.52 171.384 166.603 171.248C166.688 171.11 166.737 170.953 166.744 170.792C166.751 170.63 166.716 170.47 166.643 170.326C165.809 168.736 163.644 167.59 161.071 167.59Z" fill="#EA9E4A"/>
<path d="M167.49 167.59C164.899 167.59 162.7 168.767 161.927 170.399C161.862 170.537 161.832 170.689 161.841 170.841C161.851 170.993 161.898 171.14 161.979 171.269C162.062 171.397 162.175 171.503 162.308 171.576C162.441 171.65 162.591 171.689 162.743 171.69H162.841V180.107C162.845 180.349 162.944 180.579 163.116 180.749C163.288 180.919 163.519 181.014 163.761 181.014H171.25C171.491 181.014 171.723 180.919 171.895 180.749C172.067 180.579 172.166 180.349 172.17 180.107V171.69H172.219C172.378 171.692 172.535 171.652 172.674 171.574C172.813 171.497 172.93 171.384 173.013 171.248C173.098 171.11 173.147 170.953 173.154 170.792C173.161 170.63 173.126 170.47 173.053 170.326C172.231 168.736 170.051 167.59 167.49 167.59Z" fill="#F4C376"/>
<path d="M182.143 178.376C182.143 178.865 181.949 179.334 181.604 179.68C181.259 180.026 180.791 180.22 180.303 180.22H173.305C172.817 180.22 172.349 180.026 172.004 179.68C171.659 179.334 171.465 178.865 171.465 178.376V175.188C171.465 174.224 171.847 173.3 172.526 172.618C173.206 171.936 174.128 171.553 175.09 171.552H178.524C179.001 171.552 179.473 171.646 179.913 171.829C180.353 172.011 180.753 172.279 181.09 172.617C181.427 172.955 181.694 173.355 181.876 173.797C182.058 174.238 182.152 174.711 182.152 175.188L182.143 178.376Z" fill="#F9AD55"/>
<path d="M182.965 175.634C182.965 175.77 182.912 175.899 182.816 175.995C182.721 176.091 182.591 176.145 182.456 176.145H171.005C170.87 176.144 170.741 176.09 170.646 175.994C170.551 175.899 170.497 175.769 170.496 175.634C170.496 175.499 170.55 175.369 170.645 175.273C170.741 175.178 170.87 175.124 171.005 175.124H182.456C182.591 175.124 182.721 175.178 182.816 175.273C182.912 175.369 182.965 175.499 182.965 175.634V175.634Z" fill="#BA8A7E"/>
<path d="M182.965 176.655C182.965 176.79 182.912 176.92 182.816 177.016C182.721 177.111 182.591 177.165 182.456 177.165H171.005C170.87 177.164 170.741 177.11 170.646 177.015C170.551 176.919 170.497 176.79 170.496 176.655C170.496 176.519 170.55 176.39 170.645 176.294C170.741 176.198 170.87 176.145 171.005 176.145H182.456C182.591 176.145 182.721 176.198 182.816 176.294C182.912 176.39 182.965 176.519 182.965 176.655V176.655Z" fill="#913247"/>
<path d="M182.965 177.675C182.965 177.811 182.912 177.94 182.816 178.036C182.721 178.132 182.591 178.186 182.456 178.186H171.005C170.87 178.185 170.741 178.131 170.646 178.035C170.551 177.94 170.497 177.81 170.496 177.675C170.496 177.54 170.55 177.41 170.645 177.314C170.741 177.219 170.87 177.165 171.005 177.165H182.456C182.591 177.165 182.721 177.219 182.816 177.314C182.912 177.41 182.965 177.54 182.965 177.675V177.675Z" fill="#BA8A7E"/>
<path d="M180.22 176.145L177.353 179.016C177.288 179.081 177.212 179.132 177.128 179.167C177.044 179.203 176.953 179.221 176.862 179.221C176.771 179.221 176.68 179.203 176.596 179.167C176.512 179.132 176.435 179.081 176.371 179.016L173.504 176.145H180.22Z" fill="#F6DA5C"/>
<path d="M174.131 173.593C174.131 173.643 174.122 173.693 174.103 173.739C174.084 173.786 174.056 173.828 174.02 173.864C173.985 173.899 173.943 173.927 173.896 173.946C173.85 173.965 173.801 173.975 173.751 173.974C173.7 173.975 173.651 173.965 173.604 173.946C173.558 173.927 173.515 173.899 173.48 173.864C173.444 173.828 173.416 173.786 173.396 173.74C173.377 173.693 173.367 173.643 173.367 173.593C173.367 173.543 173.377 173.493 173.396 173.447C173.416 173.4 173.444 173.358 173.48 173.322C173.515 173.287 173.558 173.259 173.604 173.24C173.651 173.221 173.7 173.212 173.751 173.212C173.801 173.212 173.85 173.221 173.896 173.24C173.943 173.259 173.985 173.287 174.02 173.323C174.056 173.358 174.084 173.4 174.103 173.447C174.122 173.493 174.131 173.543 174.131 173.593V173.593Z" fill="#FAD899"/>
<path d="M175.359 172.785C175.359 172.866 175.327 172.945 175.27 173.002C175.212 173.06 175.134 173.092 175.053 173.092C174.971 173.092 174.893 173.06 174.836 173.002C174.778 172.945 174.746 172.866 174.746 172.785C174.746 172.703 174.778 172.625 174.836 172.568C174.893 172.51 174.971 172.478 175.053 172.478C175.134 172.478 175.212 172.51 175.27 172.568C175.327 172.625 175.359 172.703 175.359 172.785Z" fill="#FAD899"/>
<path d="M178.672 173.974C178.672 174.056 178.64 174.134 178.582 174.192C178.525 174.249 178.447 174.282 178.365 174.282C178.284 174.282 178.206 174.249 178.148 174.192C178.091 174.134 178.059 174.056 178.059 173.974C178.059 173.893 178.091 173.815 178.148 173.757C178.206 173.699 178.284 173.667 178.365 173.667C178.447 173.667 178.525 173.699 178.582 173.757C178.64 173.815 178.672 173.893 178.672 173.974Z" fill="#FAD899"/>
<path d="M180.121 173.169C180.121 173.25 180.089 173.328 180.031 173.386C179.974 173.444 179.896 173.476 179.814 173.476C179.733 173.476 179.655 173.444 179.598 173.386C179.54 173.328 179.508 173.25 179.508 173.169C179.508 173.087 179.54 173.009 179.598 172.951C179.655 172.894 179.733 172.861 179.814 172.861C179.896 172.861 179.974 172.894 180.031 172.951C180.089 173.009 180.121 173.087 180.121 173.169Z" fill="#FAD899"/>
<path d="M176.044 174.73C176.294 174.73 176.498 174.527 176.498 174.275C176.498 174.024 176.294 173.82 176.044 173.82C175.793 173.82 175.59 174.024 175.59 174.275C175.59 174.527 175.793 174.73 176.044 174.73Z" fill="#FAD899"/>
<path d="M177.642 172.446C177.642 172.506 177.63 172.565 177.608 172.62C177.585 172.675 177.551 172.725 177.509 172.767C177.467 172.809 177.417 172.842 177.362 172.864C177.307 172.887 177.248 172.898 177.188 172.898C177.129 172.898 177.07 172.887 177.015 172.864C176.96 172.842 176.91 172.809 176.867 172.767C176.825 172.725 176.792 172.675 176.769 172.62C176.746 172.565 176.734 172.506 176.734 172.446C176.734 172.325 176.782 172.21 176.867 172.124C176.952 172.039 177.068 171.991 177.188 171.991C177.309 171.991 177.424 172.039 177.509 172.124C177.594 172.21 177.642 172.325 177.642 172.446V172.446Z" fill="#FAD899"/>
<path d="M187.615 180.165C187.614 180.375 187.531 180.576 187.383 180.725C187.234 180.873 187.034 180.957 186.824 180.958H167.596C167.386 180.958 167.185 180.875 167.036 180.726C166.888 180.577 166.805 180.375 166.805 180.165H187.615Z" fill="white"/>
<path d="M204.703 235.084V243.574C204.701 245.097 204.097 246.558 203.022 247.635C201.948 248.712 200.491 249.318 198.971 249.319H150.548C149.028 249.318 147.572 248.712 146.497 247.635C145.422 246.558 144.818 245.097 144.816 243.574V235.084H204.703Z" fill="#14274D"/>
<path opacity="0.5" d="M177.198 241.557H171.102V243.011H177.198V241.557Z" fill="white"/>
<g opacity="0.5">
<path opacity="0.5" d="M154.294 239.422H152.844V245.533H154.294V239.422Z" fill="white"/>
<path opacity="0.5" d="M156.62 241.748H150.523V243.202H156.62V241.748Z" fill="white"/>
</g>
<g opacity="0.5">
<path opacity="0.5" d="M197.784 239.422H191.688V240.876H197.784V239.422Z" fill="white"/>
<path opacity="0.5" d="M197.784 244.076H191.688V245.53H197.784V244.076Z" fill="white"/>
<path opacity="0.5" d="M197.784 241.748H191.688V243.202H197.784V241.748Z" fill="white"/>
</g>
<path d="M191.744 207.099C191.744 208.7 184.249 210 175.003 210C165.757 210 158.262 208.7 158.262 207.099V206.453H191.744V207.099Z" fill="white"/>
<path d="M175.007 209.444C184.252 209.444 191.748 208.145 191.748 206.542C191.748 204.94 184.252 203.641 175.007 203.641C165.761 203.641 158.266 204.94 158.266 206.542C158.266 208.145 165.761 209.444 175.007 209.444Z" fill="#1E3565"/>
<path d="M187.203 206.52C185.921 208.558 171.398 208.911 165.322 207.59C164.031 207.31 163.124 206.95 162.805 206.52C162.805 200.987 168.266 196.502 175.004 196.502C177.16 196.491 179.29 196.974 181.232 197.913C184.805 199.638 187.203 202.831 187.203 206.52Z" fill="#C7DFEC"/>
<g style="mix-blend-mode:multiply">
<path d="M187.201 206.52C185.919 208.558 171.395 208.912 165.32 207.59C168.669 207.498 180.488 206.573 181.23 198.236V197.929C184.803 199.638 187.201 202.832 187.201 206.52Z" fill="#C7DFEC"/>
</g>
<path d="M174.474 197.416V196.033C174.475 195.892 174.531 195.757 174.63 195.657C174.729 195.558 174.864 195.502 175.004 195.501C175.145 195.501 175.28 195.557 175.379 195.657C175.479 195.756 175.535 195.892 175.535 196.033V197.416H176.259V196.033C176.259 195.868 176.226 195.704 176.163 195.552C176.1 195.399 176.008 195.26 175.891 195.144C175.775 195.027 175.636 194.934 175.484 194.871C175.332 194.808 175.169 194.775 175.004 194.775C174.672 194.775 174.353 194.908 174.117 195.144C173.882 195.379 173.75 195.699 173.75 196.033V197.416H174.474Z" fill="#C7DFEC"/>
<path d="M193.201 124.447H128.801V117.746C128.801 114.902 129.928 112.175 131.934 110.164C133.939 108.153 136.66 107.022 139.497 107.021H193.189L193.201 124.447Z" fill="#1E3665"/>
<path d="M158.94 107.027H147.943C146.538 107.027 145.147 107.305 143.849 107.844C142.551 108.383 141.371 109.173 140.378 110.169C139.385 111.165 138.597 112.347 138.059 113.648C137.522 114.949 137.246 116.344 137.246 117.752V124.447H148.243V117.746C148.245 114.903 149.372 112.177 151.378 110.167C153.384 108.158 156.104 107.028 158.94 107.027V107.027Z" fill="#5689BF"/>
<path d="M180.936 107.027H169.939C167.102 107.028 164.381 108.158 162.375 110.17C160.369 112.181 159.242 114.908 159.242 117.752V124.447H170.239V117.746C170.241 114.903 171.369 112.177 173.374 110.167C175.38 108.158 178.1 107.028 180.936 107.027V107.027Z" fill="#5689BF"/>
<path d="M204.699 107.027V124.447H183.598V117.749C183.6 115.095 184.583 112.536 186.357 110.566C188.132 108.596 190.572 107.355 193.206 107.083C193.564 107.049 193.932 107.027 194.3 107.027H204.699Z" fill="white"/>
<defs>
<linearGradient id="paint0_linear_1161_3615" x1="281.175" y1="189.574" x2="70.8985" y2="227.005" gradientUnits="userSpaceOnUse">
<stop stop-color="#94BAE8"/>
<stop offset="1" stop-color="#FCFDFF"/>
</linearGradient>
<linearGradient id="paint1_linear_1161_3615" x1="174.76" y1="234.554" x2="174.76" y2="105.371" gradientUnits="userSpaceOnUse">
<stop stop-color="white"/>
<stop offset="0.16" stop-color="#E9F0F7"/>
<stop offset="0.51" stop-color="#B0C8E1"/>
<stop offset="1" stop-color="#5689BF"/>
</linearGradient>
</defs>
</svg>
