<svg width="368" height="200" viewBox="0 0 368 200" fill="none" xmlns="http://www.w3.org/2000/svg">
<path d="M289.01 23.4453H170.766V144.173H289.01V23.4453Z" fill="#294B83"/>
<path d="M188.831 15.1064H70.5859V156.401H188.831V15.1064Z" fill="#5689BF"/>
<path style="mix-blend-mode:multiply" d="M188.831 15.1064H70.5859V156.401H188.831V15.1064Z" fill="url(#paint0_linear_1161_3797)"/>
<path d="M356.513 0.204102H212.812V179.497H356.513V0.204102Z" fill="#E4EDF8"/>
<path d="M144.263 0.204102H0.5625V179.497H144.263V0.204102Z" fill="#E4EDF8"/>
<path d="M181.134 6.27539H170.57V164.552H181.134V6.27539Z" fill="#2C518D"/>
<path d="M181.133 6.27539L188.828 15.105V156.399L181.133 164.552V6.27539Z" fill="#5689BF"/>
<path d="M144.262 0.204102V179.497L151.213 173.072V6.62911L144.262 0.204102Z" fill="url(#paint1_linear_1161_3797)"/>
<path d="M356.512 0.204102V179.497L363.463 173.072V6.62911L356.512 0.204102Z" fill="url(#paint2_linear_1161_3797)"/>
<path d="M343.658 118.237L343.565 118.356C343.448 118.566 343.306 118.762 343.143 118.939L341.574 120.994L338.347 125.221L333.419 131.671L330.816 129.752L336.723 118.5L337.87 116.318L337.309 113.089L337.267 112.861L334.314 101.688L341.549 100.779L343.974 115.224C344.173 116.526 344.046 117.498 343.658 118.237Z" fill="white"/>
<path d="M289.009 199.874C332.211 199.874 367.233 198.612 367.233 197.056C367.233 195.499 332.211 194.237 289.009 194.237C245.807 194.237 210.785 195.499 210.785 197.056C210.785 198.612 245.807 199.874 289.009 199.874Z" fill="#F1F1F1"/>
<path d="M338.748 181.928L340.499 191.921C340.558 192.927 339.655 193.895 338.811 194.457C338.332 194.778 337.814 195.037 337.271 195.231L336.668 196.689H338.305L343.54 193.405L343.359 191.984L342.793 182.845L338.748 181.928Z" fill="#FBCCCA"/>
<path d="M343.536 193.408C344.392 194.718 344.85 196.248 344.857 197.813H332.521C332.391 197.811 332.265 197.767 332.163 197.686C332.061 197.606 331.988 197.494 331.956 197.368C331.924 197.242 331.934 197.108 331.985 196.988C332.036 196.869 332.125 196.769 332.238 196.705C332.829 196.42 333.501 196.353 334.137 196.515C334.409 196.567 334.69 196.529 334.938 196.405L337.284 195.222L337.744 195.961L343.536 193.408Z" fill="#272C82"/>
<path d="M344.134 191.751H339.729L339.16 188.898L334.405 165.057C334.258 164.313 334.118 163.573 333.983 162.825L328.457 131.387L329.242 125.469L336.915 123.301C337.891 124.574 338.644 126.003 339.143 127.528C340.158 130.467 340.007 133.684 338.721 136.515L340.257 162.009C340.354 162.233 340.442 162.465 340.539 162.702C340.666 163.049 340.792 163.412 340.911 163.788C340.982 163.996 341.046 164.211 341.109 164.431C341.884 167.404 342.41 170.437 342.682 173.498C343.328 179.446 343.589 186.091 344.134 191.751Z" fill="#182F57"/>
<g style="mix-blend-mode:multiply" opacity="0.5">
<path d="M344.135 191.751H339.731L339.162 188.898C345.574 186.362 341.06 168.65 340.077 165.061C339.887 164.378 339.564 163.739 339.128 163.18C338.846 162.784 338.482 162.453 338.061 162.212L336.673 161.565L338.858 161.544C338.721 155.806 338.285 150.079 337.55 144.386C337.359 142.907 336.651 141.544 335.552 140.538C334.453 139.532 333.034 138.949 331.547 138.891V138.891V136.9L334.673 131.62C334.579 131.61 334.484 131.61 334.39 131.62L335.534 128.348L339.153 127.566C340.169 130.505 340.017 133.723 338.731 136.553L340.267 162.047C340.364 162.271 340.453 162.504 340.55 162.741C340.676 163.087 340.803 163.451 340.921 163.827C340.988 164.034 341.052 164.25 341.115 164.469C341.89 167.443 342.416 170.476 342.688 173.537C343.33 179.446 343.591 186.091 344.135 191.751Z" fill="#182F57"/>
</g>
<g style="mix-blend-mode:multiply">
<path d="M341.567 121.018L338.34 125.245C338.049 125.343 337.733 125.327 337.454 125.2C337.174 125.074 336.953 124.847 336.834 124.564L336.711 118.524L336.652 115.421L337.298 113.113L338.943 107.195L341.297 105.504C341.297 105.504 339.778 110.154 339.61 112.986C339.576 113.548 339.534 114.14 339.483 114.677C339.344 116.516 339.314 120.269 341.567 121.018Z" fill="#DFF2F8"/>
</g>
<path d="M324.775 80.7207C324.775 80.7207 323.999 83.3162 325.843 84.8633L327.205 82.1284L324.775 80.7207Z" fill="#15284B"/>
<path d="M324.66 85.1848C324.589 85.8992 324.846 86.5121 325.23 86.5502C325.614 86.5882 325.985 86.0386 326.074 85.3243C326.162 84.6099 325.892 83.9969 325.504 83.9589C325.116 83.9208 324.732 84.4704 324.66 85.1848Z" fill="#15284B"/>
<path d="M325.027 86.5288C325.155 86.0115 325.313 85.5019 325.499 85.0028C325.688 83.7108 326.075 82.4561 326.647 81.2829C326.928 81.0785 327.224 80.8948 327.533 80.7334L329.343 81.6676L331.697 82.8808L332.962 85.7045L333.038 85.8736L333.73 87.4334L333.688 92.9837H328.136V91.4534C328.08 91.4232 328.022 91.3964 327.963 91.3731L326.828 90.6757C326.656 90.6589 326.496 90.581 326.376 90.4563C326.256 90.3315 326.185 90.1679 326.174 89.9951L326.107 88.9045C325.838 88.3463 325.683 87.7397 325.651 87.1206C325.322 87.0614 324.85 86.9515 325.027 86.5288Z" fill="#FBCCCA"/>
<path d="M327.418 83.0364V88.6882C327.424 88.7816 327.407 88.8749 327.369 88.9604C327.331 89.046 327.274 89.1213 327.201 89.1803C327.129 89.2392 327.043 89.2802 326.952 89.2998C326.861 89.3193 326.766 89.3168 326.676 89.2926C326.469 89.2012 326.282 89.0689 326.127 88.9038V88.9038C326.014 89.0308 325.934 89.1846 325.896 89.351C325.857 89.5173 325.862 89.6907 325.908 89.8549C325.967 90.1677 325.693 90.4551 325.659 90.7722C325.64 90.9218 325.651 91.0737 325.691 91.219C325.732 91.3643 325.801 91.4999 325.895 91.6176C326.317 92.1037 327.06 92.1121 327.638 91.9938C327.969 91.9344 328.289 91.8292 328.591 91.681C328.682 91.632 328.763 91.5677 328.832 91.4907C328.844 91.4802 328.854 91.4672 328.861 91.4527C328.933 91.3682 328.99 91.2725 329.03 91.1695C329.186 90.7351 329.186 90.2597 329.03 89.8253C328.691 88.8418 328.445 87.8283 328.296 86.7986L328.068 85.2008C328.088 85.1182 328.136 85.045 328.203 84.9937C328.253 84.9577 328.311 84.9343 328.372 84.9254C328.433 84.9166 328.495 84.9226 328.553 84.9429C329.57 85.3149 329.173 87.2974 329.621 88.0245C329.703 88.1556 329.799 88.2774 329.907 88.388C330.205 88.6944 330.565 88.9337 330.962 89.0898C331.165 89.1777 331.375 89.247 331.591 89.2969C331.902 89.3736 332.22 89.4176 332.54 89.4279C332.703 89.4364 332.866 89.4364 333.029 89.4279C333.266 89.4156 333.498 89.3626 333.717 89.2715C334.561 88.8826 334.447 87.8512 334.928 86.7817C335.204 86.3183 335.546 85.898 335.944 85.5346C336.563 85.4272 337.12 85.0931 337.507 84.5971C337.894 84.101 338.083 83.4787 338.037 82.8509C337.991 82.2231 337.714 81.6347 337.259 81.2003C336.805 80.7658 336.205 80.5163 335.577 80.5001C335.436 80.5017 335.295 80.5144 335.155 80.5382C335.067 79.6443 334.651 78.815 333.986 78.2118C333.322 77.6087 332.458 77.2747 331.561 77.2749C331.104 77.2725 330.651 77.3601 330.228 77.5327C329.915 77.1095 329.509 76.7638 329.042 76.5222C328.575 76.2807 328.059 76.1497 327.533 76.1393C327.008 76.129 326.487 76.2394 326.01 76.4624C325.534 76.6853 325.115 77.0147 324.786 77.4252C324.457 77.8358 324.225 78.3165 324.111 78.8305C323.996 79.3445 324 79.878 324.123 80.3901C324.246 80.9022 324.485 81.3793 324.82 81.7846C325.156 82.1899 325.58 82.5125 326.06 82.7279C326.486 82.9243 326.949 83.0293 327.418 83.0364V83.0364Z" fill="#1E3565"/>
<path d="M330.933 89.0737V92.7091H333.688V89.2766C334.532 88.8877 334.418 87.8563 334.899 86.7869C335.175 86.3234 335.517 85.9032 335.915 85.5398C335.915 85.5398 336.654 83.3374 334.502 83.1049C334.109 83.0652 333.714 83.1543 333.376 83.3586C332.974 83.6042 332.614 83.9124 332.308 84.2716C331.566 85.1509 330.845 86.6389 330.933 89.0737Z" fill="#EAADAD"/>
<path d="M332.327 84.2716C332.632 83.9124 332.992 83.6042 333.394 83.3586C333.733 83.1543 334.128 83.0652 334.521 83.1049C336.672 83.3374 335.934 85.5398 335.934 85.5398C335.536 85.9032 335.193 86.3234 334.917 86.7869C334.436 87.8564 334.567 88.9004 333.706 89.2766C333.488 89.3678 333.255 89.4207 333.019 89.4331C332.856 89.4436 332.692 89.4436 332.529 89.4331C332.209 89.4263 331.891 89.3837 331.58 89.3063C331.365 89.2564 331.155 89.1871 330.952 89.0991V89.0695C330.846 86.6389 331.568 85.1509 332.327 84.2716Z" fill="#15284B"/>
<path d="M325.03 84.9482L328.275 85.278C328.327 85.283 328.376 85.3088 328.409 85.3496C328.443 85.3904 328.459 85.4429 328.454 85.4956C328.449 85.5483 328.423 85.5969 328.382 85.6306C328.342 85.6643 328.289 85.6803 328.237 85.6753L324.988 85.3498L325.03 84.9482Z" fill="#15284B"/>
<path d="M326.651 181.455L327.702 191.922C327.761 192.928 326.858 193.896 326.014 194.458C325.535 194.778 325.017 195.038 324.474 195.231L323.871 196.69H325.508L330.743 193.405L330.562 191.985L330.11 183.133L326.651 181.455Z" fill="#FBCCCA"/>
<path d="M330.741 193.408C331.593 194.725 332.046 196.261 332.044 197.83H319.709C319.579 197.829 319.452 197.785 319.349 197.705C319.246 197.625 319.173 197.513 319.14 197.387C319.107 197.26 319.117 197.127 319.168 197.006C319.219 196.886 319.308 196.786 319.422 196.722C320.014 196.438 320.688 196.37 321.325 196.532C321.597 196.584 321.878 196.546 322.126 196.422L324.472 195.238L324.932 195.978L330.741 193.408Z" fill="#272C82"/>
<path d="M335.281 132.348C335.023 133.156 334.672 133.932 334.235 134.66C333.718 135.522 333.096 136.315 332.383 137.023L331.742 144.983L331.206 151.645L330.362 162.052C330.548 162.711 330.704 163.379 330.83 164.064C331.341 166.879 331.349 169.91 331.252 173.512C331.143 178.276 330.881 184.025 331.451 191.557H326.856C326.738 190.416 326.62 189.262 326.498 188.108C325.447 178.255 324.287 168.105 323.389 158.564C322.279 146.754 321.575 135.886 322.001 127.647C322.026 127.106 322.064 126.578 322.102 126.058H335.488C336.007 128.132 335.936 130.312 335.281 132.348Z" fill="#182F57"/>
<g style="mix-blend-mode:multiply" opacity="0.5">
<path d="M335.279 132.347C335.021 133.155 334.67 133.931 334.233 134.659C333.716 135.521 333.094 136.314 332.381 137.022L331.74 144.982L331.204 151.644L330.36 162.051C330.546 162.71 330.702 163.378 330.829 164.063C331.339 166.878 331.348 169.909 331.251 173.511C331.141 178.275 330.879 184.024 331.449 191.556H326.855C326.737 190.415 326.618 189.261 326.496 188.107C332.698 185.626 329.871 164.587 329.871 164.587C329.382 162.334 326.855 161.725 326.855 161.725H329.179L330.095 151.661C331.685 139.516 328.483 136.303 328.483 136.303L330.373 136.261C333.305 136.096 334.891 133.201 335.279 132.347Z" fill="#182F57"/>
</g>
<path d="M320.81 127.739C320.708 129.151 321.624 129.544 322.522 129.599C323.21 129.641 323.893 129.47 324.48 129.108C325.21 128.647 326.711 128.601 327.855 128.652C331.753 129.049 334.495 128.905 336.41 128.559C337.603 128.386 338.749 127.979 339.785 127.362C340.069 127.184 340.287 126.918 340.407 126.605C340.526 126.291 340.541 125.947 340.447 125.625C339.751 123.296 337.866 118.536 337.84 117.843C337.728 115.348 338.213 112.863 339.254 110.593C340.279 108.256 341.549 105.969 341.595 103.373C341.646 100.507 341.219 96.7747 338.309 95.1811L335.28 93.5283H335.17C333.904 92.9788 332.466 92.9872 330.673 92.9449H330.356C329.962 92.909 329.565 92.909 329.171 92.9449C326.252 93.2535 323.556 94.213 322.058 96.631C321.708 97.1981 321.434 97.8093 321.244 98.4487C319.793 103.301 321.35 107.579 322.151 112.335C322.484 114.32 322.626 116.333 322.573 118.346C322.546 120.305 322.244 122.25 321.674 124.124C321.431 124.763 321.379 125.46 321.522 126.128C321.307 126.551 321.126 126.847 321.004 127.054C320.893 127.266 320.826 127.499 320.81 127.739V127.739Z" fill="white"/>
<g style="mix-blend-mode:multiply">
<path d="M320.809 127.741C320.708 129.152 321.623 129.546 322.522 129.6C323.209 129.643 323.893 129.472 324.479 129.11C325.209 128.649 326.711 128.603 327.854 128.654C331.752 129.051 334.494 128.907 336.41 128.561C334.024 128.198 331.831 127.038 330.186 125.269C328.541 123.501 327.541 121.227 327.348 118.817L327.01 114.674C326.943 113.829 327.01 114.721 326.943 113.863C326.808 112.197 329.52 104.386 329.52 104.386C331.288 98.1843 328.394 96.168 328.394 96.168L322.066 96.5907C321.716 97.1578 321.442 97.769 321.252 98.4084C319.801 103.261 321.357 107.539 322.159 112.295C322.492 114.28 322.634 116.293 322.581 118.306C322.554 120.264 322.252 122.21 321.682 124.084C321.439 124.723 321.386 125.419 321.53 126.088C321.315 126.51 321.134 126.806 321.011 127.014C320.892 127.238 320.823 127.486 320.809 127.741V127.741Z" fill="#DFF2F8"/>
</g>
<path d="M328.861 96.7556C328.604 96.2721 328.252 95.8455 327.827 95.5013C327.401 95.157 326.911 94.9021 326.385 94.7519L326.191 94.697C325.639 94.5413 325.06 94.5046 324.493 94.5894C323.925 94.6742 323.383 94.8785 322.9 95.1889C322.417 95.4992 322.006 95.9086 321.692 96.39C321.379 96.8713 321.171 97.4138 321.082 97.9815L318.914 111.952L315.859 111.394L315.016 115.524L320.108 117.359C320.491 117.497 320.899 117.556 321.306 117.534C321.713 117.511 322.112 117.407 322.478 117.228C322.845 117.049 323.172 116.798 323.44 116.49C323.708 116.182 323.912 115.824 324.039 115.436L329.127 99.9302C329.299 99.4105 329.364 98.8613 329.318 98.3157C329.273 97.7701 329.117 97.2394 328.861 96.7556V96.7556Z" fill="white"/>
<path d="M315.857 111.397L315.013 115.523L314.123 115.185L309.984 113.621L303.854 111.308C303.07 111.608 302.22 111.694 301.391 111.558C300.969 111.465 300.045 111.199 299.842 110.759C299.813 110.691 299.842 110.298 299.804 110.285C299.618 110.147 299.478 109.956 299.402 109.736C299.327 109.516 299.32 109.279 299.383 109.055C299.228 108.904 299.138 108.699 299.13 108.483C299.122 108.266 299.198 108.055 299.34 107.893L298.682 107.741C298.045 107.563 298.134 107.259 298.134 107.259C298.066 106.959 298.277 106.836 298.488 106.777C298.6 106.755 298.714 106.755 298.826 106.777L302.665 107.2C302.859 107.225 303.043 107.299 303.201 107.415C303.43 107.579 303.618 107.795 303.749 108.045L304.42 109.313L314.021 111.072L315.857 111.397Z" fill="#FBCCCA"/>
<path d="M315.856 111.398L314.127 115.203L309.988 113.639C310.845 113.713 311.703 113.506 312.433 113.048C313.162 112.591 313.722 111.908 314.03 111.103L315.856 111.398Z" fill="#EAADAD"/>
<path d="M313.905 115.666C313.85 115.647 313.803 115.61 313.772 115.561C313.74 115.512 313.726 115.454 313.732 115.396C313.849 113.844 314.242 112.325 314.892 110.911C314.91 110.865 314.943 110.827 314.987 110.804C315.03 110.781 315.08 110.774 315.128 110.784L317.511 111.304C317.572 111.318 317.625 111.353 317.662 111.402C317.699 111.452 317.718 111.513 317.714 111.574C317.682 113.235 317.207 114.857 316.339 116.271C316.311 116.325 316.264 116.367 316.208 116.39C316.151 116.412 316.088 116.413 316.031 116.393L313.905 115.666Z" fill="white"/>
<g filter="url(#filter0_d_1161_3797)">
<path d="M73.1606 26.414C72.6688 26.4419 72.1877 26.5647 71.7461 26.7751L52.5906 35.5797C51.5903 36.0385 50.8633 36.9113 50.614 37.9515L45.9253 57.7122C45.7018 58.6397 45.8823 59.6119 46.4409 60.4069C46.5062 60.503 46.575 60.5957 46.6472 60.6851L59.8815 76.5421C60.5811 77.3702 61.6312 77.8456 62.7381 77.8406H83.9647C85.075 77.8422 86.1269 77.3437 86.8247 76.5272L100.052 60.6669C100.747 59.8388 101.006 58.7457 100.74 57.7089L96.02 37.9316C95.7708 36.8915 95.0403 36.0186 94.0434 35.5598L74.9189 26.7767C74.3678 26.5148 73.7574 26.3901 73.1434 26.414H73.1606Z" fill="#326CE5"/>
</g>
<path d="M73.337 33.1484C72.677 33.1932 72.1769 33.7381 72.2112 34.3741V34.6854C72.2422 35.0382 72.2972 35.3877 72.3694 35.7338C72.4748 36.3967 72.5128 37.0679 72.4828 37.7379C72.4175 37.9582 72.2869 38.1569 72.1081 38.3093L72.0823 38.7764C71.3862 38.8327 70.6953 38.9354 70.0147 39.0844C67.1512 39.7072 64.5439 41.1382 62.5312 43.2002L62.1187 42.9187C61.8919 42.9849 61.6478 42.9601 61.4398 42.8524C60.8819 42.4545 60.3656 42.0052 59.8981 41.5108C59.6633 41.2405 59.4125 40.9833 59.147 40.7407L58.8926 40.5453C58.6658 40.3697 58.3873 40.2687 58.0969 40.2554C57.9235 40.2465 57.7505 40.2773 57.5918 40.3453C57.4332 40.4132 57.2935 40.5164 57.1842 40.6463C56.7958 41.1713 56.923 41.8984 57.4661 42.2744L57.7033 42.4566C58.0086 42.6523 58.3254 42.8309 58.652 42.9915C59.2605 43.3178 59.8345 43.7004 60.3673 44.1509C60.5036 44.3382 60.5828 44.5585 60.5959 44.7869L60.9706 45.1182C58.9476 48.0431 58.1175 51.5858 58.6365 55.0656L58.1553 55.1981C58.0298 55.3902 57.8631 55.5542 57.6637 55.6751C56.9923 55.8479 56.305 55.9572 55.6115 56.0014C55.2435 56.0086 54.8763 56.0362 54.5115 56.0842L54.2073 56.1504H54.173C53.9618 56.1787 53.763 56.2628 53.5986 56.3935C53.4341 56.5242 53.3106 56.6963 53.2416 56.8906C53.1727 57.085 53.161 57.2939 53.208 57.4943C53.255 57.6946 53.3588 57.8784 53.5078 58.0253C53.6582 58.1714 53.8478 58.2744 54.0554 58.3226C54.263 58.3709 54.4804 58.3626 54.6834 58.2986H54.7058L55.0151 58.2655C55.364 58.1661 55.7078 58.0435 56.043 57.9044C56.6875 57.656 57.3561 57.4655 58.0401 57.3413C58.2773 57.3545 58.5042 57.4324 58.6967 57.5649L59.2123 57.4821C60.3295 60.8227 62.6773 63.6533 65.8123 65.437L65.6026 65.8594C65.6989 66.0532 65.735 66.2685 65.7058 66.4821C65.4222 67.1148 65.075 67.721 64.6694 68.2908C64.4468 68.5734 64.2414 68.8681 64.054 69.1735L63.9079 69.4717C63.802 69.6488 63.7488 69.8508 63.7545 70.0553C63.7601 70.2597 63.8242 70.4587 63.9398 70.6302C64.0554 70.8017 64.2179 70.9392 64.4094 71.0273C64.601 71.1154 64.814 71.1508 65.0251 71.1296C65.2367 71.1066 65.4376 71.0276 65.6054 70.9013C65.7731 70.775 65.9013 70.6063 65.9756 70.4141L66.1183 70.1325C66.2489 69.8013 66.3589 69.4634 66.4483 69.1222C66.7525 68.3984 66.9175 67.6216 67.3334 67.1413C67.4694 67.0182 67.6407 66.9374 67.825 66.9094L68.0828 66.4573C71.4812 67.716 75.2415 67.7249 78.6462 66.4821L78.8748 66.9045C79.1086 66.9376 79.3183 67.0618 79.4592 67.244C79.7823 67.8369 80.0436 68.458 80.243 69.099C80.3338 69.4422 80.4452 69.7801 80.5764 70.111L80.719 70.3925C80.7941 70.5841 80.9226 70.7519 81.0905 70.8774C81.2583 71.0029 81.4589 71.0812 81.6701 71.1037C81.8813 71.1261 82.0948 71.0919 82.287 71.0046C82.4792 70.9174 82.6426 70.7807 82.7592 70.6095C82.8746 70.4373 82.9383 70.2377 82.9431 70.0327C82.948 69.8278 82.8939 69.6256 82.7867 69.4485L82.6372 69.1503C82.4498 68.846 82.2444 68.5524 82.0219 68.2709C81.6265 67.721 81.2862 67.1347 80.9906 66.5202C80.963 66.4079 80.9591 66.2913 80.9792 66.1775C80.9993 66.0637 81.0429 65.955 81.1075 65.8577C81.0342 65.7133 80.9704 65.5644 80.9167 65.4122C84.0448 63.6152 86.3823 60.7747 87.4875 57.4291L87.9756 57.5119C88.1509 57.3578 88.3812 57.2767 88.6167 57.2833C89.299 57.4092 89.9676 57.6146 90.6139 57.8464C90.949 57.9955 91.2928 58.1214 91.6417 58.2274C91.7242 58.2489 91.8445 58.2671 91.9373 58.2887H91.9597C92.1625 58.3518 92.3796 58.3594 92.5867 58.3107C92.7938 58.262 92.9828 58.1588 93.1326 58.0127C93.2825 57.8666 93.3873 57.6832 93.4354 57.4831C93.4835 57.283 93.473 57.0739 93.4051 56.8792C93.3357 56.6846 93.2114 56.5125 93.0463 56.3821C92.8812 56.2516 92.6817 56.168 92.4701 56.1405L92.1367 56.0643C91.772 56.0164 91.4047 55.9887 91.0367 55.9815C90.3423 55.9384 89.6548 55.8291 88.9845 55.6552C88.7783 55.5443 88.6064 55.3786 88.4895 55.1782L88.0255 55.0457C88.5203 51.5676 87.6726 48.0354 85.6433 45.1198L86.0489 44.7588C86.0317 44.5318 86.109 44.3066 86.262 44.1327C86.7897 43.6954 87.362 43.3095 87.9636 42.9799C88.2902 42.8193 88.607 42.6407 88.9123 42.445L89.1633 42.2495C89.348 42.139 89.4965 41.9804 89.5916 41.7919C89.6867 41.6035 89.7245 41.3929 89.7006 41.1846C89.6766 40.9764 89.592 40.7789 89.4565 40.615C89.3209 40.4512 89.14 40.3276 88.9347 40.2587C88.7295 40.1899 88.5083 40.1784 88.2966 40.2256C88.0849 40.2728 87.8914 40.3767 87.7384 40.5254L87.484 40.7208C87.2186 40.9635 86.9678 41.2206 86.7329 41.491C86.2792 41.9912 85.7773 42.4466 85.2325 42.8541C85.0126 42.9403 84.7721 42.9656 84.5381 42.9269L84.1033 43.2251C81.5939 40.691 78.2131 39.1176 74.59 38.8029C74.59 38.6373 74.5676 38.3888 74.5642 38.311C74.37 38.1818 74.2342 37.9847 74.1895 37.7611C74.1657 37.0922 74.2094 36.4227 74.3201 35.762C74.394 35.4142 74.4456 35.0664 74.4783 34.7136V34.3823C74.5126 33.7463 74.0142 33.2014 73.3525 33.1567L73.337 33.1484ZM71.9036 41.7046L71.5598 47.4899H71.534C71.5169 47.8477 71.2986 48.1524 70.9634 48.3247C70.6283 48.4969 70.2312 48.4456 69.9322 48.2352L65.008 44.873C66.5753 43.3896 68.5415 42.3576 70.685 41.8934C71.0872 41.8106 71.4928 41.7477 71.9001 41.7046H71.9036ZM74.7705 41.7046C77.3572 42.0143 79.7651 43.134 81.6283 44.8913L76.7505 48.2319C76.4497 48.4638 76.0372 48.5102 75.6883 48.3512C75.3394 48.1922 75.1159 47.8543 75.1108 47.4833L74.7705 41.7046ZM63.2205 47.0493L67.7236 50.9217V50.9465C68.0037 51.1817 68.1258 51.5477 68.0433 51.8972C67.9608 52.2467 67.6823 52.5233 67.3265 52.6177V52.6342L61.5481 54.2358C61.2622 51.7271 61.8512 49.1981 63.2222 47.0477L63.2205 47.0493ZM83.4209 47.0493C84.789 49.1942 85.394 51.71 85.1431 54.2159L79.3561 52.6094V52.5878C78.9951 52.4934 78.7201 52.2168 78.6394 51.8674C78.5586 51.5179 78.6789 51.1552 78.959 50.9167L83.4278 47.0626L83.4209 47.0493ZM72.414 51.2231H74.2565L75.3823 52.6011L74.9733 54.3236L73.3181 55.0904L71.6595 54.3236L71.2694 52.6011L72.414 51.2231ZM78.3162 55.9235C78.3936 55.9153 78.4881 55.9153 78.5483 55.9235L84.5072 56.8924C83.6478 59.2774 81.9514 61.3146 79.7376 62.6777L77.4345 57.3048C77.3712 57.1607 77.3447 57.004 77.3574 56.8479C77.37 56.6919 77.4213 56.541 77.5071 56.4081C77.5928 56.2752 77.7104 56.164 77.8501 56.084C77.9897 56.004 78.1472 55.9575 78.3094 55.9484L78.3162 55.9235ZM68.308 55.9484C68.6448 55.9533 68.9559 56.1206 69.1398 56.3923C69.3237 56.6639 69.353 57.0051 69.2206 57.3032V57.3247L66.9312 62.6545C64.7398 61.3014 63.0761 59.289 62.1909 56.9289L68.0983 55.9633C68.1636 55.9567 68.2306 55.9567 68.2976 55.9633L68.308 55.9484ZM73.2992 58.2671C73.487 58.2614 73.6727 58.3061 73.8357 58.3962C73.9987 58.4862 74.1325 58.6182 74.2222 58.7773H74.2445L77.1561 63.8404L75.9925 64.1717C73.8509 64.6437 71.6148 64.5327 69.5334 63.8503L72.4553 58.7872C72.6323 58.4891 72.9589 58.3069 73.3147 58.2986L73.2992 58.2671Z" fill="white"/>
<path fill-rule="evenodd" clip-rule="evenodd" d="M73.3494 33.0918L73.3684 33.102C74.0519 33.1543 74.5686 33.7198 74.5336 34.3831V34.718C74.5008 35.0724 74.4487 35.4219 74.3745 35.7715C74.2648 36.4267 74.2213 37.0906 74.2446 37.7539C74.2872 37.9607 74.4136 38.1438 74.595 38.2645L74.6182 38.2799L74.6195 38.3078C74.6204 38.3286 74.6229 38.3644 74.626 38.4089C74.6327 38.5045 74.6423 38.64 74.6447 38.7518C78.2463 39.0762 81.6064 40.6402 84.1103 43.1531L84.5256 42.8684L84.5474 42.872C84.7692 42.9086 84.9971 42.8853 85.2059 42.8048C85.7455 42.4007 86.2426 41.9493 86.6921 41.4538C86.9283 41.182 87.1804 40.9235 87.4472 40.6795L87.4507 40.6763L87.7027 40.483C87.8628 40.3283 88.0646 40.2203 88.2849 40.1712C88.5064 40.1219 88.7378 40.1339 88.9525 40.2059C89.1674 40.278 89.357 40.4073 89.4992 40.5793C89.6414 40.7512 89.7304 40.9587 89.7555 41.1777C89.7807 41.3967 89.7409 41.618 89.641 41.816C89.5417 42.0129 89.3869 42.1786 89.1947 42.2943L88.9424 42.4908C88.6357 42.6874 88.3174 42.8666 87.9893 43.028C87.3923 43.3552 86.8244 43.738 86.3008 44.1715C86.1592 44.3342 86.0881 44.5436 86.104 44.7539L86.1061 44.781L85.7165 45.1278C87.7244 48.0337 88.5671 51.5445 88.0869 55.0053L88.5262 55.1307L88.5373 55.1498C88.648 55.3395 88.8103 55.4968 89.0051 55.603C89.6696 55.7749 90.3511 55.8831 91.0393 55.9258C91.409 55.9331 91.7779 55.9609 92.1442 56.0091L92.1493 56.0098L92.4802 56.0856C92.7005 56.1147 92.9084 56.2021 93.0807 56.3382C93.2538 56.4749 93.3842 56.6555 93.4572 56.86C93.5286 57.0647 93.5398 57.2849 93.4892 57.4953C93.4386 57.7057 93.3285 57.8981 93.1713 58.0514C93.0142 58.2046 92.8163 58.3126 92.5996 58.3635C92.3857 58.4139 92.1617 58.4067 91.9517 58.343H91.9249L91.9252 58.3415C91.8847 58.3321 91.8387 58.3234 91.7917 58.3144L91.7756 58.3113C91.7239 58.3015 91.6714 58.2912 91.6281 58.2799L91.626 58.2793C91.2758 58.1729 90.9306 58.0465 90.5937 57.8968C89.9509 57.6663 89.2874 57.4626 88.6113 57.3375C88.3908 57.3323 88.1758 57.4088 88.0122 57.5525L87.9925 57.5698L87.5251 57.4905C86.4143 60.8156 84.0899 63.6394 80.9843 65.4362C81.0339 65.5712 81.0915 65.7034 81.1568 65.8321L81.1714 65.8607L81.1536 65.8874C81.0932 65.9784 81.0525 66.0801 81.0337 66.1864C81.0153 66.2908 81.0184 66.3977 81.043 66.5009C81.3366 67.1106 81.6743 67.6919 82.0661 68.2371C82.2896 68.5199 82.496 68.815 82.6843 69.1208L82.6868 69.1249L82.8352 69.4212C82.947 69.6067 83.0035 69.8185 82.9984 70.0333C82.9933 70.2489 82.9264 70.4586 82.8052 70.6394C82.6828 70.8191 82.5113 70.9627 82.31 71.054C82.1088 71.1453 81.8855 71.1812 81.6646 71.1577C81.4437 71.1342 81.2337 71.0523 81.0578 70.9207C80.8827 70.7898 80.7481 70.6146 80.6691 70.4144L80.5254 70.1306C80.3935 69.7981 80.2818 69.4585 80.1904 69.1136C79.9926 68.4778 79.7335 67.8617 79.4134 67.2735C79.2811 67.1044 79.0854 66.9891 78.8674 66.9582L78.84 66.9543L78.6207 66.5493C75.2302 67.7749 71.492 67.766 68.1078 66.5243L67.8599 66.9591L67.8335 66.9631C67.6608 66.9893 67.5005 67.0646 67.3731 67.1792C67.1729 67.4113 67.031 67.717 66.9007 68.0593C66.8512 68.1893 66.8031 68.3254 66.754 68.4643C66.6753 68.6871 66.5941 68.9168 66.5008 69.1392C66.411 69.4812 66.3007 69.8199 66.1697 70.152L66.1679 70.1568L66.0262 70.4358C65.948 70.6368 65.8138 70.8128 65.6387 70.9446C65.4629 71.0769 65.2527 71.1596 65.0314 71.1835C64.8106 71.2057 64.5873 71.1688 64.3868 71.0765C64.1863 70.9843 64.0158 70.8403 63.8945 70.6603C63.7732 70.4802 63.7057 70.2711 63.6998 70.0561C63.6939 69.8418 63.7494 69.6303 63.8599 69.4447L64.0073 69.1439C64.1955 68.8371 64.4021 68.5411 64.6256 68.2571C65.0273 67.6928 65.3713 67.0926 65.6526 66.4662C65.6784 66.2662 65.6439 66.0648 65.5537 65.8831L65.5415 65.8587L65.7403 65.4584C62.6302 63.6745 60.2974 60.8616 59.1754 57.5431L58.684 57.622L58.6658 57.6095C58.4834 57.4839 58.2686 57.4096 58.0438 57.3959C57.3658 57.5194 56.7029 57.7085 56.0637 57.9548C55.727 58.0945 55.3815 58.2177 55.0305 58.3177L55.0214 58.3203L54.7061 58.3532L54.6921 58.3529C54.4821 58.4175 54.2576 58.4254 54.0432 58.3755C53.8261 58.325 53.6275 58.2173 53.4698 58.0641C53.3135 57.91 53.2042 57.7167 53.1548 57.5061C53.1054 57.2955 53.1176 57.0758 53.1901 56.8715C53.2625 56.6673 53.3923 56.4867 53.5646 56.3497C53.737 56.2128 53.9452 56.1248 54.166 56.0952L54.1733 56.0943L54.2017 56.0947L54.5047 56.0288C54.871 55.9806 55.2399 55.953 55.6095 55.9457C56.2964 55.9018 56.9772 55.7938 57.6424 55.6232C57.8315 55.5071 57.9899 55.3506 58.1096 55.1673L58.1209 55.1499L58.5754 55.0248C58.0713 51.5625 58.8966 48.0414 60.898 45.1264L60.5426 44.8122L60.5413 44.7894C60.5289 44.5738 60.4548 44.3656 60.327 44.1879C59.7991 43.7422 59.2302 43.3632 58.6272 43.0398C58.299 42.8784 57.9807 42.6989 57.6739 42.5022L57.67 42.4996L57.4339 42.3181C56.8669 41.9247 56.7332 41.1632 57.1403 40.6129L57.1423 40.6101C57.2573 40.4735 57.4041 40.3653 57.5705 40.294C57.7369 40.2228 57.9183 40.1905 58.1 40.1998C58.1001 40.1998 58.0999 40.1998 58.1 40.1998C58.4014 40.2136 58.6906 40.3184 58.9265 40.501L59.1846 40.6992C59.4513 40.943 59.7032 41.2015 59.9392 41.4732C59.9389 41.4729 59.9386 41.4726 59.9384 41.4724L59.8984 41.5101L59.9399 41.4741C59.9397 41.4738 59.9394 41.4735 59.9392 41.4732C60.4031 41.9637 60.9154 42.4096 61.4688 42.8046C61.4677 42.804 61.4666 42.8035 61.4654 42.8029L61.4401 42.8517L61.4721 42.8069C61.471 42.8062 61.4699 42.8054 61.4688 42.8046C61.6636 42.9043 61.8917 42.9271 62.1036 42.8652L62.1286 42.8579L62.5245 43.1281C62.5137 43.1391 62.5029 43.1501 62.4922 43.1611L62.5315 43.1995L62.5626 43.1541L62.5245 43.1281C64.5404 41.0759 67.1448 39.6517 70.0032 39.03C70.0032 39.03 70.0032 39.03 70.0032 39.03C70.6707 38.8838 71.348 38.7821 72.0304 38.7248L72.0277 38.7726L72.0826 38.7757L72.0782 38.7209C72.0623 38.7221 72.0463 38.7235 72.0304 38.7248L72.0548 38.282L72.0727 38.2668C72.2419 38.1226 72.3657 37.9352 72.4285 37.7279C72.4284 37.7302 72.4283 37.7325 72.4282 37.7348L72.4831 37.7372L72.4304 37.7216C72.4297 37.7237 72.4291 37.7258 72.4285 37.7279C72.4577 37.0644 72.4199 36.3996 72.3156 35.7431C72.3156 35.7435 72.3157 35.7439 72.3158 35.7444L72.3697 35.7331L72.3154 35.7418C72.3154 35.7422 72.3155 35.7426 72.3156 35.7431C72.2431 35.3956 72.1879 35.0444 72.1568 34.6895L72.1563 34.6847L72.1565 34.3748C72.1566 34.3753 72.1566 34.3758 72.1566 34.3763L72.2115 34.3734H72.1565V34.3748C72.1213 33.7076 72.646 33.1395 73.3336 33.0929L73.3494 33.0918ZM73.3255 33.2038C72.7014 33.254 72.2341 33.7713 72.2665 34.3704L72.2666 34.3734L72.2665 34.6823C72.2973 35.0318 72.3519 35.3783 72.4235 35.7219L72.424 35.7245C72.53 36.391 72.5682 37.066 72.5381 37.7397L72.5374 37.7533L72.5358 37.7528C72.4696 37.9762 72.3395 38.1779 72.1621 38.3349L72.1349 38.8266L72.0871 38.8305C71.3934 38.8866 70.7049 38.9889 70.0267 39.1375C67.1736 39.758 64.5759 41.1838 62.5709 43.2379L62.5387 43.271L62.1091 42.9778C61.8758 43.039 61.6275 43.0107 61.4149 42.9006L61.4079 42.8969C60.8471 42.497 60.3284 42.0449 59.8585 41.5479L59.8569 41.5462C59.6239 41.278 59.3752 41.0229 59.112 40.7822L58.8594 40.5882C58.6417 40.4197 58.3741 40.3224 58.0947 40.3097C57.9297 40.3012 57.7647 40.3305 57.6138 40.3951C57.4635 40.4595 57.3312 40.5571 57.2277 40.6797C56.8595 41.179 56.9799 41.87 57.4977 42.2285L57.4999 42.23L57.7352 42.4108C58.0382 42.605 58.3525 42.7821 58.6766 42.9415L58.6783 42.9423C59.2899 43.2703 59.8672 43.655 60.4031 44.1082L60.4134 44.1169L60.4121 44.1178C60.5499 44.3073 60.632 44.5292 60.6496 44.76L61.0439 45.1086L61.0162 45.1487C59.001 48.0623 58.1743 51.591 58.6913 55.0568L58.6984 55.105L58.1901 55.245C58.0616 55.4362 57.8931 55.5998 57.6926 55.7214L57.6856 55.7256L57.6778 55.7277C57.003 55.9013 56.3122 56.0111 55.6154 56.0556L55.6129 56.0557C55.2477 56.0629 54.8832 56.0902 54.5213 56.1377L54.2076 56.206V56.2047H54.177C53.9769 56.2321 53.7887 56.3122 53.6331 56.4359C53.4766 56.5603 53.3592 56.7239 53.2938 56.9083C53.2283 57.0927 53.2173 57.291 53.2619 57.481C53.3065 57.671 53.4049 57.8457 53.5466 57.9854C53.6897 58.1243 53.8702 58.2224 54.0681 58.2684C54.2662 58.3144 54.4736 58.3065 54.6672 58.2454L54.6753 58.2429H54.7031L55.0049 58.2106C55.35 58.1121 55.6902 57.9907 56.0222 57.8529L56.0235 57.8524C56.6711 57.6027 57.343 57.4113 58.0306 57.2865L58.0436 57.2841L58.0435 57.2857C58.2832 57.2991 58.513 57.3758 58.7098 57.5064L59.25 57.4197L59.2648 57.4639C60.3776 60.7914 62.7163 63.6113 65.8398 65.3885L65.885 65.4142L65.6642 65.859C65.7563 66.0561 65.7901 66.2732 65.7606 66.4889L65.7595 66.4967L65.7563 66.5039C65.4712 67.1399 65.1222 67.7493 64.7145 68.322L64.7129 68.3241C64.4923 68.6044 64.2885 68.8966 64.1026 69.1994L63.9556 69.4993C63.8549 69.6676 63.8044 69.8592 63.8097 70.0531C63.8151 70.2469 63.8759 70.4358 63.9857 70.5988C64.0956 70.7618 64.2502 70.8926 64.4327 70.9766C64.6152 71.0606 64.8183 71.0943 65.0195 71.0742C65.2214 71.0523 65.4128 70.9769 65.5726 70.8567C65.7323 70.7364 65.8541 70.576 65.9246 70.3935L65.9266 70.3884L66.0684 70.1092C66.1978 69.7808 66.3068 69.4458 66.3954 69.1076L66.3974 69.1C66.4905 68.8783 66.5702 68.6543 66.6482 68.4334C66.6975 68.2939 66.7463 68.1556 66.7979 68.0202C66.9296 67.6744 67.0775 67.3524 67.2922 67.1046L67.2965 67.0996C67.4341 66.975 67.6058 66.8918 67.7905 66.8587L68.0584 66.3888L68.1022 66.405C71.4883 67.6592 75.2352 67.668 78.6277 66.4298L78.6723 66.4135L78.9106 66.8537C79.1475 66.8944 79.359 67.0235 79.503 67.2097L79.5084 67.2166C79.8333 67.8128 80.0954 68.4376 80.2958 69.082L80.2965 69.0842C80.3866 69.4245 80.4969 69.7595 80.6269 70.0877L80.7708 70.3717C80.842 70.5535 80.9639 70.7132 81.1237 70.8326C81.2835 70.9522 81.4748 71.0269 81.6762 71.0483C81.8777 71.0697 82.0814 71.037 82.2646 70.9539C82.4478 70.8707 82.6033 70.7405 82.7141 70.5778C82.8236 70.4143 82.8839 70.225 82.8885 70.0307C82.8931 69.8364 82.8417 69.6445 82.74 69.4762L82.7377 69.4725L82.5894 69.1765C82.4035 68.8747 82.1997 68.5835 81.979 68.3043L81.9775 68.3023C81.5801 67.7495 81.2382 67.1604 80.9414 66.5434L80.9363 66.5329L80.9375 66.5326C80.9081 66.4129 80.904 66.2886 80.9254 66.1673C80.9449 66.0565 80.9854 65.9502 81.0446 65.8538C80.9761 65.716 80.9162 65.5744 80.8651 65.4298L80.8499 65.3866L80.8896 65.3638C84.0063 63.5733 86.3348 60.7436 87.4356 57.4111L87.4504 57.3662L87.9598 57.4527C88.1431 57.3004 88.3785 57.2209 88.6186 57.2276L88.6271 57.2279C89.3135 57.3545 89.985 57.5616 90.6328 57.794L90.6366 57.7954C90.9692 57.9433 91.3104 58.0684 91.657 58.1737C91.696 58.1839 91.7445 58.1934 91.7963 58.2033L91.8124 58.2064C91.8567 58.2148 91.9027 58.2236 91.9439 58.233H91.9683L91.9763 58.2354C92.1698 58.2957 92.3769 58.3029 92.5744 58.2565C92.772 58.21 92.952 58.1116 93.0946 57.9726C93.2371 57.8336 93.3366 57.6594 93.3822 57.4696C93.4279 57.2798 93.418 57.0817 93.3537 56.897M73.3255 33.2038L73.3373 33.2101L73.3491 33.2109C73.9826 33.2537 74.4563 33.7745 74.4237 34.3787L74.4236 34.7104C74.3911 35.0603 74.3399 35.4051 74.2667 35.7499L74.2662 35.7522C74.1549 36.4166 74.1109 37.0898 74.1349 37.7624L74.1359 37.7712C74.1818 38.0008 74.3175 38.2034 74.5111 38.3403C74.5125 38.3634 74.5145 38.3925 74.5168 38.4253C74.5246 38.5352 74.5353 38.6873 74.5353 38.8022V38.8526L74.5855 38.857C78.1959 39.1706 81.5645 40.7384 84.0645 43.2631L84.0968 43.2957L84.5515 42.984C84.7883 43.0191 85.0306 42.9918 85.2529 42.9046L85.2598 42.9019L85.2657 42.8974C85.8134 42.4879 86.3178 42.0301 86.774 41.5272L86.7748 41.5263C87.0078 41.2582 87.2565 41.0031 87.5197 40.7623L87.7722 40.5683L87.7771 40.5641C87.9226 40.4227 88.107 40.3236 88.3089 40.2786C88.5108 40.2336 88.7218 40.2445 88.9175 40.3102C89.1133 40.3759 89.2855 40.4936 89.4144 40.6494C89.5433 40.8052 89.6236 40.9927 89.6462 41.1902C89.6689 41.3878 89.6331 41.5875 89.5428 41.7664C89.4525 41.9454 89.3113 42.0964 89.1353 42.2016L88.8808 42.3993C88.5779 42.5934 88.2636 42.7705 87.9396 42.9299L87.9375 42.931C87.3329 43.2622 86.7577 43.6501 86.2272 44.0896L86.221 44.0957C86.0647 44.2733 85.9824 44.502 85.9927 44.7347L85.5706 45.1105L85.5984 45.1505C87.6199 48.0549 88.4641 51.5731 87.9713 55.0373L87.9646 55.0847L88.4537 55.2244C88.5754 55.425 88.7503 55.5908 88.9588 55.703L88.958 55.7044L88.971 55.7078C89.6448 55.8826 90.3357 55.9924 91.0336 56.0357L91.0359 56.0358C91.4011 56.0429 91.7654 56.0703 92.1273 56.1178L92.4582 56.1934L92.4634 56.1943C92.6652 56.2206 92.8554 56.3004 93.0126 56.4245C93.1696 56.5486 93.2877 56.7125 93.3537 56.897M74.712 41.6415L74.7773 41.6493C77.3755 41.9604 79.7945 43.085 81.6663 44.8505L81.716 44.8974L76.7831 48.2757C76.4661 48.5194 76.0325 48.5676 75.6658 48.4005C75.2985 48.2331 75.062 47.877 75.0561 47.4846L74.712 41.6415ZM71.9005 41.6489H71.9623L71.612 47.5442H71.5854C71.5493 47.9014 71.3227 48.2013 70.9889 48.3729C70.6335 48.5555 70.2149 48.5002 69.9012 48.2798C69.9011 48.2797 69.9013 48.2798 69.9012 48.2798L64.9209 44.8793L64.9705 44.8324C66.5452 43.3419 68.5205 42.3052 70.6737 41.839C71.0776 41.7558 71.4856 41.6925 71.8947 41.6492L71.9005 41.6489ZM71.8451 41.7652C71.4602 41.8078 71.0769 41.8683 70.6967 41.9465C68.5856 42.4037 66.6474 43.4142 65.0958 44.8655L69.9635 48.1891C70.2479 48.3892 70.6238 48.4368 70.9386 48.275C71.2589 48.1104 71.4633 47.8219 71.4794 47.4866L71.4819 47.4342H71.5083L71.8451 41.7652ZM74.8295 41.7665L75.1661 47.4818C75.171 47.8309 75.3812 48.1499 75.7114 48.3004C76.042 48.4511 76.4327 48.4069 76.7172 48.1876L76.7196 48.1858L81.541 44.8839C79.7094 43.1764 77.357 42.0829 74.8295 41.7665ZM63.2265 47.0419L63.1843 47.0074L63.1391 47.051L63.1493 47.0597C61.7907 49.2114 61.2083 51.7364 61.4938 54.2413L61.5011 54.3053L67.3819 52.6754V52.6584C67.7366 52.5493 68.0129 52.2658 68.0971 51.9091C68.1825 51.5474 68.0608 51.1694 67.7789 50.9206V50.8957L63.2566 47.0069L63.2265 47.0419ZM63.2336 47.1322C61.906 49.2416 61.331 51.7115 61.596 54.1649L67.2719 52.5917V52.5747L67.3128 52.5638C67.65 52.4743 67.9125 52.2125 67.99 51.8839C68.0677 51.5549 67.953 51.2099 67.6885 50.9879L67.6689 50.9714V50.9462L63.2336 47.1322ZM83.4166 47.0485L83.4676 47.0191C84.8423 49.1742 85.4503 51.7024 85.1981 54.2207L85.1916 54.2857L79.3014 52.6505V52.6288C78.9418 52.5197 78.6686 52.236 78.5861 51.8791C78.5006 51.5094 78.6281 51.1259 78.9234 50.8743M78.9234 50.8743L83.3922 47.0202L83.4166 47.0485M83.4167 47.1443L78.9953 50.9576C78.7305 51.1831 78.6172 51.5252 78.6933 51.8543C78.7692 52.1829 79.0282 52.4445 79.3703 52.5339L79.4114 52.5447V52.5669L85.095 54.1447C85.3254 51.6985 84.737 49.2458 83.4167 47.1443ZM72.3885 51.1674H74.2829L75.4424 52.5867L75.0209 54.3616L73.3184 55.1503L71.6122 54.3615L71.21 52.5861L72.3885 51.1674ZM72.4402 51.2774L71.3293 52.6147L71.7075 54.2843L73.3184 55.0291L74.9262 54.2842L75.3228 52.6141L74.2308 51.2774H72.4402ZM78.3594 55.9743L78.3522 56.0004L78.3128 56.0026C78.159 56.0112 78.0098 56.0553 77.8777 56.131C77.7456 56.2067 77.6345 56.3118 77.5536 56.4372C77.4727 56.5626 77.4244 56.7048 77.4125 56.8517C77.4006 56.9986 77.4255 57.1462 77.4852 57.282L79.7633 62.5966C81.9213 61.2519 83.5783 59.2618 84.4331 56.9354L78.5411 55.9773C78.5409 55.9773 78.5413 55.9774 78.5411 55.9773C78.4952 55.9711 78.4243 55.9699 78.3594 55.9743ZM78.3107 55.8681C78.3913 55.8595 78.4905 55.8593 78.5561 55.8683L78.5574 55.8685L84.5817 56.8481L84.5592 56.9104C83.6954 59.3077 81.9906 61.3546 79.7668 62.7239L79.7125 62.7573L77.3845 57.3263C77.3844 57.3262 77.3845 57.3264 77.3845 57.3263C77.3176 57.1739 77.2895 57.0079 77.3028 56.8428C77.3162 56.6776 77.3706 56.5181 77.4612 56.3776C77.5518 56.2371 77.6759 56.1199 77.823 56.0356C77.9587 55.9578 78.1104 55.9102 78.267 55.8957L78.2735 55.8721L78.3107 55.8681ZM68.2797 55.8923L68.3091 55.8927C68.6636 55.8979 68.9915 56.0739 69.1857 56.3607C69.3781 56.6448 69.4105 57.0012 69.2759 57.314V57.3353L66.9569 62.7341L66.9026 62.7006C64.7011 61.3412 63.0293 59.3193 62.1397 56.9475L62.1162 56.8847L68.093 55.9078C68.1515 55.9018 68.2111 55.901 68.2708 55.9051L68.2797 55.8923ZM68.3365 56.0035C68.6445 56.0171 68.9262 56.1737 69.0946 56.4224C69.2678 56.6782 69.2953 56.9993 69.1707 57.2802L69.1659 57.2908V57.3127L66.9062 62.5734C64.7711 61.239 63.1457 59.2736 62.2665 56.9716L68.1058 56.0171C68.1668 56.0111 68.2296 56.0111 68.2925 56.0173L68.3248 56.0205L68.3365 56.0035ZM73.2292 58.248L73.2125 58.214L73.2978 58.2115C73.4954 58.2055 73.6909 58.2524 73.8626 58.3473C74.0247 58.4369 74.1597 58.566 74.254 58.7216H74.2766L77.2392 63.8733L76.0047 64.2248C73.8535 64.6989 71.6074 64.5874 69.5166 63.9019L69.4522 63.8808L72.408 58.759C72.5811 58.4675 72.8888 58.2814 73.2292 58.248ZM73.3884 58.3226L73.4023 58.3509L73.3163 58.3529C72.9783 58.3607 72.6698 58.5337 72.503 58.8144C72.503 58.8145 72.503 58.8143 72.503 58.8144L69.6153 63.8183C71.6685 64.4787 73.87 64.5822 75.9793 64.1176L77.0736 63.8061L74.213 58.8316H74.1904L74.1746 58.8036C74.09 58.6536 73.9636 58.5289 73.8094 58.4436C73.6804 58.3723 73.5362 58.331 73.3884 58.3226Z" fill="white"/>
<g filter="url(#filter1_d_1161_3797)">
<path d="M83.0862 131.283L74.7227 140.968L82.1879 149.685L82.6703 150.309C85.52 153.53 89.0209 156.109 92.941 157.874C96.8612 159.639 101.111 160.55 105.41 160.547L100.71 155.842L99.1201 154.251L100.71 152.66L105.478 147.887C103.022 147.887 100.593 147.377 98.3451 146.388C96.0967 145.4 94.0778 143.955 92.4163 142.145L91.5181 141.107L83.0862 131.283Z" fill="#2DDF9D"/>
<path d="M123.379 130.037C123.376 134.169 121.942 138.173 119.321 141.364C116.699 144.556 113.052 146.739 109.003 147.54L102.363 154.186L108.514 160.343C116.024 159.603 122.992 156.103 128.073 150.519C133.154 144.935 135.985 137.664 136.021 130.111L131.322 134.814L129.733 136.405L128.141 134.814L123.373 130.041L123.379 130.037Z" fill="#2DDF9D"/>
<path d="M105.615 99.5996L110.315 104.304L111.905 105.895L110.315 107.486L105.547 112.191C109.675 112.193 113.674 113.629 116.863 116.253C120.051 118.877 122.232 122.527 123.032 126.581L129.671 133.226L135.822 127.069C134.303 111.505 121.239 99.6055 105.619 99.6055L105.615 99.5996Z" fill="#2DDF9D"/>
<path d="M102.573 99.7382C94.6367 100.503 87.3163 104.353 82.1849 110.461L73.753 120.353L69.2617 125.543L76.3794 125.611H78.5919V134.111L82.1068 130.03L90.8941 119.866L93.3818 116.962C95.8194 114.694 98.8318 113.139 102.091 112.466L108.73 105.821L102.579 99.7344L102.573 99.7382Z" fill="#2DDF9D"/>
<path d="M67.3972 127.755L55.923 141.107L55.0247 142.144C53.3629 143.955 51.3437 145.4 49.0949 146.388C46.8462 147.377 44.417 147.887 41.9609 147.887V147.887L46.7315 152.66L48.321 154.251L46.7315 155.842L42.0312 160.478C46.3284 160.473 50.5759 159.558 54.4946 157.793C58.4134 156.029 61.9148 153.454 64.7688 150.238L65.2531 149.617L76.3837 136.748L76.454 127.825L67.3992 127.755H67.3972Z" fill="#2267BC"/>
<path d="M24.1303 130.038L19.3617 134.811L17.7722 136.402L16.1807 134.811L11.5508 130.108C11.5505 137.672 14.3703 144.963 19.4582 150.554C24.5461 156.146 31.5357 159.635 39.0589 160.34L45.21 154.183L38.5063 147.537C34.4574 146.734 30.812 144.551 28.1908 141.359C25.5696 138.168 24.1346 134.166 24.1303 130.034V130.038Z" fill="#2267BC"/>
<path d="M41.8943 99.5996C34.3383 99.5994 27.0542 102.422 21.4679 107.514C15.8816 112.607 12.3953 119.603 11.6914 127.134L17.8425 133.291L24.4818 126.645C25.2819 122.592 27.4622 118.941 30.6507 116.317C33.8393 113.693 37.8386 112.258 41.9665 112.255L37.198 107.412L35.6084 105.891L37.198 104.3L41.8982 99.5957L41.8943 99.5996Z" fill="#2267BC"/>
<path d="M44.864 99.7383L38.7812 105.895L45.4205 112.541C48.7056 113.197 51.7442 114.754 54.1981 117.036L56.6858 119.943L64.4265 128.934L72.79 119.249L65.3247 110.531C60.1815 104.391 52.8359 100.516 44.8679 99.7402L44.864 99.7383Z" fill="#2267BC"/>
</g>
<path d="M85.2173 142.858C85.5232 142.486 85.8914 142.039 86.1859 141.724C85.8255 141.945 85.43 142.166 84.978 142.401L83.3825 143.227L83.1355 142.999L83.8353 141.415C84.0427 140.945 84.2438 140.523 84.4469 140.155C84.1467 140.465 83.7365 140.874 83.3651 141.235L82.295 142.265L81.9835 141.981L84.4937 139.594L84.9145 139.977L84.2191 141.604C84.0365 142.014 83.8683 142.372 83.6883 142.706C83.9899 142.507 84.3349 142.309 84.7496 142.092L86.3317 141.273L86.7497 141.652L84.5734 144.343L84.2536 144.052L85.2173 142.858Z" fill="#2267BC"/>
<path d="M87.6005 145.382C87.4967 145.517 87.3655 145.629 87.2156 145.711C87.0656 145.792 86.9002 145.841 86.7303 145.855C86.5603 145.868 86.3896 145.846 86.2293 145.789C86.0689 145.732 85.9226 145.642 85.7999 145.525C85.6777 145.417 85.5797 145.284 85.5122 145.135C85.4447 144.986 85.4092 144.825 85.408 144.661C85.4067 144.498 85.4397 144.336 85.5049 144.185C85.5701 144.035 85.666 143.9 85.7865 143.788C86.3494 143.176 87.0795 143.194 87.5843 143.643C88.0891 144.091 88.1138 144.824 87.6005 145.382ZM86.1342 144.095C85.7668 144.493 85.7181 145.005 86.0437 145.302C86.3693 145.599 86.8649 145.508 87.2508 145.095C87.5348 144.786 87.7399 144.251 87.347 143.895C86.9541 143.539 86.4517 143.738 86.1338 144.084L86.1342 144.095Z" fill="#2267BC"/>
<path d="M88.391 145.371C88.5629 145.18 88.7035 145.023 88.8304 144.861L89.1112 145.119L88.8519 145.438C89.0097 145.386 89.1787 145.377 89.3406 145.413C89.5025 145.449 89.6513 145.528 89.7709 145.642C90.0236 145.872 90.2786 146.38 89.7026 147.008L88.7018 148.1L88.3677 147.799L89.3346 146.743C89.5949 146.449 89.723 146.103 89.4086 145.82C89.3061 145.729 89.1771 145.674 89.0404 145.663C88.9038 145.651 88.7668 145.683 88.6494 145.754C88.5879 145.789 88.5327 145.834 88.4862 145.888L87.4776 146.988L87.1435 146.686L88.391 145.371Z" fill="#2267BC"/>
<path d="M91.7806 146.61C91.7562 146.639 91.7261 146.662 91.6922 146.679C91.6582 146.695 91.6212 146.705 91.5835 146.706C91.5458 146.708 91.5082 146.702 91.4731 146.688C91.438 146.674 91.4062 146.653 91.3798 146.626C91.3531 146.602 91.3315 146.573 91.3163 146.541C91.3011 146.508 91.2925 146.473 91.2912 146.437C91.2898 146.401 91.2957 146.365 91.3085 146.332C91.3212 146.298 91.3406 146.267 91.3654 146.241C91.3898 146.213 91.4197 146.19 91.4534 146.173C91.4871 146.157 91.5238 146.148 91.5612 146.146C91.5986 146.144 91.6359 146.151 91.6707 146.164C91.7055 146.178 91.7371 146.198 91.7635 146.224C91.7903 146.248 91.8122 146.277 91.8276 146.31C91.8431 146.342 91.8518 146.377 91.8534 146.413C91.855 146.449 91.8494 146.485 91.8369 146.519C91.8244 146.552 91.8052 146.583 91.7806 146.61V146.61ZM89.2599 148.604L90.938 146.777L91.2693 147.079L89.5912 148.906L89.2599 148.604Z" fill="#2267BC"/>
<path d="M92.7056 147.435L92.2233 147.961L92.7006 148.392L92.4687 148.647L91.9912 148.213L91.0865 149.199C90.878 149.427 90.8307 149.612 91.0106 149.78C91.0739 149.84 91.1452 149.892 91.2225 149.933L91.0098 150.196C90.8849 150.144 90.7709 150.069 90.6733 149.975C90.6037 149.918 90.547 149.848 90.5071 149.767C90.4671 149.687 90.4448 149.599 90.4415 149.51C90.4657 149.28 90.576 149.068 90.7504 148.916L91.6655 147.919L91.3845 147.661L91.6166 147.408L91.8976 147.666L92.299 147.228L92.7056 147.435Z" fill="#2267BC"/>
<path d="M93.8791 151.121C93.7753 151.256 93.6441 151.368 93.4941 151.45C93.3442 151.531 93.1788 151.58 93.0089 151.594C92.8389 151.607 92.6682 151.585 92.5079 151.528C92.3475 151.471 92.2012 151.381 92.0785 151.264C91.956 151.156 91.8577 151.023 91.79 150.875C91.7223 150.726 91.6867 150.565 91.6855 150.402C91.6842 150.238 91.7174 150.076 91.7828 149.926C91.8482 149.776 91.9444 149.641 92.0652 149.53C92.6254 148.918 93.3549 148.922 93.8602 149.382C94.3654 149.841 94.3924 150.563 93.8791 151.121ZM92.4101 149.834C92.0427 150.235 91.9967 150.744 92.3223 151.041C92.6479 151.338 93.1435 151.247 93.5294 150.834C93.8134 150.525 94.019 150.004 93.6256 149.634C93.2322 149.265 92.7302 149.475 92.4097 149.823L92.4101 149.834Z" fill="#2267BC"/>
<path d="M94.5998 151.184C94.7977 150.968 94.9615 150.78 95.12 150.598L95.4007 150.856L95.0837 151.223L95.0978 151.238C95.2312 151.155 95.3874 151.116 95.544 151.126C95.7007 151.137 95.8498 151.196 95.97 151.296C96.003 151.325 96.0317 151.358 96.055 151.395L95.7658 151.706C95.7362 151.665 95.702 151.626 95.6639 151.592C95.5443 151.496 95.3938 151.447 95.24 151.454C95.0863 151.46 94.9399 151.522 94.8278 151.627C94.7718 151.67 94.7192 151.717 94.6705 151.768L93.7772 152.742L93.4491 152.445L94.5998 151.184Z" fill="#2267BC"/>
<path d="M81.3711 118.335C81.5186 118.09 81.6877 117.858 81.8764 117.643C82.0814 117.349 82.3907 117.145 82.741 117.072C82.8624 117.059 82.9852 117.072 83.1012 117.111C83.2173 117.149 83.3238 117.211 83.4137 117.294C83.5644 117.422 83.6694 117.595 83.7128 117.788C83.7562 117.981 83.7356 118.182 83.6542 118.362V118.362C83.7907 118.298 83.9419 118.271 84.0923 118.283C84.2427 118.296 84.387 118.349 84.5107 118.435C84.7951 118.6 85.0934 118.74 85.4023 118.852L85.0997 119.201C84.8314 119.103 84.5727 118.981 84.327 118.836C83.9001 118.603 83.6461 118.625 83.3705 118.922L83.1003 119.239L84.2297 120.215L83.9406 120.553L81.3711 118.335ZM82.8517 119.025L83.149 118.681C83.4597 118.322 83.4597 117.921 83.149 117.665C82.8382 117.408 82.4546 117.491 82.1438 117.843C82.0396 117.952 81.9489 118.072 81.8736 118.203L82.8517 119.025Z" fill="#2267BC"/>
<path d="M85.028 117.526C85.1082 117.608 85.2053 117.672 85.3126 117.713C85.4198 117.754 85.5346 117.771 85.6492 117.763C85.7637 117.755 85.8752 117.723 85.976 117.668C86.0768 117.613 86.1645 117.537 86.233 117.445C86.3924 117.272 86.5123 117.066 86.5843 116.842L86.8788 116.996C86.79 117.263 86.6464 117.509 86.4573 117.718C86.3572 117.85 86.2299 117.958 86.084 118.037C85.9382 118.115 85.7772 118.161 85.612 118.171C85.4469 118.181 85.2815 118.156 85.127 118.096C84.9726 118.037 84.8329 117.945 84.7172 117.826C84.1525 117.337 83.9931 116.62 84.466 116.074C84.9928 115.46 85.671 115.763 86.0169 116.06C86.0844 116.122 86.133 116.176 86.1655 116.209L85.028 117.526ZM85.6467 116.317C85.5866 116.248 85.5126 116.194 85.4297 116.156C85.3468 116.119 85.2568 116.099 85.1658 116.099C85.0747 116.099 84.9848 116.119 84.9018 116.156C84.8189 116.194 84.7449 116.248 84.6848 116.317C84.3876 116.66 84.5767 117.085 84.7875 117.318L85.6467 116.317Z" fill="#2267BC"/>
<path d="M84.668 114.156L84.9625 113.815L87.7103 116.19L87.4158 116.531L84.668 114.156Z" fill="#2267BC"/>
<path d="M87.4943 114.673C87.5744 114.755 87.6712 114.819 87.7782 114.86C87.8853 114.901 87.9999 114.918 88.1142 114.91C88.2285 114.903 88.3398 114.87 88.4404 114.815C88.541 114.76 88.6284 114.684 88.6967 114.592C88.8571 114.419 88.9771 114.213 89.0479 113.989L89.3424 114.14C89.255 114.409 89.1113 114.656 88.9209 114.865C88.8209 114.997 88.6936 115.106 88.5476 115.184C88.4016 115.262 88.2404 115.308 88.0752 115.318C87.9099 115.328 87.7444 115.302 87.59 115.242C87.4357 115.182 87.2961 115.09 87.1809 114.97C86.6162 114.484 86.4595 113.764 86.9296 113.218C87.47 112.607 88.1374 112.91 88.4805 113.218C88.5335 113.264 88.5831 113.314 88.6291 113.367L87.4943 114.673ZM88.1104 113.461C87.8969 113.272 87.4808 113.072 87.1512 113.461C87.04 113.611 86.9889 113.796 87.0079 113.982C87.0269 114.167 87.1147 114.338 87.2539 114.462L88.1104 113.461Z" fill="#2267BC"/>
<path d="M90.772 112.639L90.5018 112.464C90.5322 112.606 90.5285 112.754 90.491 112.895C90.4534 113.036 90.383 113.166 90.2856 113.275C90.2274 113.353 90.1536 113.419 90.0688 113.467C89.9841 113.515 89.8903 113.545 89.7933 113.556C89.6963 113.566 89.5982 113.556 89.5053 113.526C89.4124 113.496 89.3266 113.448 89.2535 113.383C88.7996 112.991 88.8995 112.374 89.5237 111.655L89.4858 111.62C89.434 111.561 89.3695 111.515 89.297 111.485C89.2246 111.454 89.1462 111.441 89.068 111.446C88.9897 111.451 88.9136 111.474 88.8455 111.513C88.7775 111.552 88.7192 111.606 88.6753 111.671C88.5326 111.846 88.4393 112.056 88.4051 112.28L88.1133 112.163C88.1626 111.881 88.2889 111.618 88.478 111.403C88.9725 110.83 89.4831 111.03 89.8587 111.355L90.5612 111.961C90.7095 112.093 90.8686 112.212 91.0368 112.318L90.772 112.639ZM89.7722 111.863C89.4426 112.228 89.1454 112.707 89.5021 113.023C89.5424 113.064 89.591 113.096 89.6446 113.116C89.6982 113.136 89.7554 113.145 89.8126 113.141C89.8697 113.137 89.9253 113.121 89.9757 113.094C90.0261 113.066 90.07 113.029 90.1046 112.983C90.1926 112.886 90.2475 112.763 90.2616 112.633C90.2757 112.503 90.2481 112.372 90.1829 112.258C90.1584 112.216 90.1274 112.177 90.0911 112.144L89.7722 111.863Z" fill="#2267BC"/>
<path d="M91.0997 111.558C91.3007 111.495 91.4816 111.381 91.6238 111.225C91.8373 110.976 91.813 110.755 91.659 110.619C91.5049 110.484 91.3239 110.5 91.0132 110.671C90.6025 110.903 90.281 110.903 90.0567 110.709C89.7541 110.438 89.719 109.989 90.0567 109.586C90.1946 109.425 90.3712 109.301 90.5701 109.227L90.7457 109.524C90.5749 109.579 90.4225 109.68 90.3053 109.816C90.266 109.849 90.2341 109.89 90.2118 109.936C90.1895 109.982 90.1773 110.032 90.176 110.084C90.1748 110.135 90.1844 110.186 90.2044 110.233C90.2244 110.28 90.2541 110.322 90.2918 110.357C90.4458 110.492 90.6106 110.438 90.9159 110.276C91.3185 110.057 91.6265 110.03 91.9048 110.276C92.2345 110.546 92.2453 111.014 91.8616 111.46C91.706 111.647 91.505 111.791 91.278 111.877L91.0997 111.558Z" fill="#2267BC"/>
<path d="M92.1008 109.332C92.1811 109.414 92.2782 109.477 92.3854 109.518C92.4927 109.559 92.6075 109.577 92.722 109.569C92.8366 109.561 92.9481 109.529 93.0489 109.474C93.1497 109.419 93.2373 109.343 93.3059 109.25C93.4653 109.077 93.5852 108.872 93.6571 108.647L93.949 108.802C93.8601 109.065 93.7175 109.307 93.5302 109.513C93.4304 109.645 93.3033 109.754 93.1575 109.832C93.0118 109.91 92.8508 109.956 92.6857 109.966C92.5207 109.976 92.3554 109.95 92.2012 109.89C92.0471 109.83 91.9078 109.737 91.7928 109.618C91.2254 109.131 91.0687 108.412 91.5388 107.868C92.0792 107.255 92.7466 107.557 93.0897 107.855C93.1427 107.901 93.1923 107.951 93.2383 108.004L92.1008 109.332ZM92.7196 108.123C92.6592 108.055 92.5852 108 92.5023 107.963C92.4194 107.926 92.3295 107.906 92.2386 107.906C92.1477 107.906 92.0579 107.926 91.975 107.963C91.8921 108 91.818 108.055 91.7577 108.123C91.6469 108.273 91.5961 108.459 91.6151 108.644C91.6341 108.83 91.7215 109.002 91.8604 109.126L92.7196 108.123Z" fill="#2267BC"/>
<path d="M57.0777 146.856L56.3933 147.661L56.1039 147.422L57.7803 145.464L58.0697 145.703L57.3854 146.507L59.7312 148.449L59.4344 148.782L57.0777 146.856Z" fill="#2DDF9D"/>
<path d="M59.6621 146.732C59.7432 146.812 59.8411 146.873 59.9492 146.911C60.0573 146.949 60.1729 146.963 60.2883 146.953C60.4036 146.943 60.5158 146.908 60.6172 146.851C60.7186 146.794 60.8068 146.717 60.8757 146.624C61.036 146.445 61.156 146.234 61.2274 146.007L61.532 146.15C61.4444 146.418 61.3012 146.665 61.1118 146.876C61.0111 147.01 60.8829 147.121 60.736 147.202C60.589 147.282 60.4268 147.332 60.2603 147.345C60.0938 147.359 59.927 147.338 59.7713 147.282C59.6156 147.226 59.4746 147.138 59.3579 147.023C58.7891 146.551 58.6288 145.84 59.1012 145.289C59.6329 144.669 60.3168 144.954 60.666 145.247C60.7193 145.291 60.7692 145.34 60.8152 145.391L59.6621 146.732ZM60.2826 145.515C60.0678 145.332 59.6572 145.142 59.3161 145.533C59.2047 145.684 59.1536 145.869 59.1729 146.052C59.1923 146.236 59.2806 146.404 59.4205 146.524L60.2826 145.515Z" fill="#2DDF9D"/>
<path d="M61.6447 145.449C61.8438 145.38 62.0223 145.261 62.1623 145.104C62.3772 144.853 62.3525 144.631 62.1974 144.501C62.0422 144.371 61.8589 144.389 61.5468 144.567C61.1324 144.809 60.8049 144.815 60.5774 144.625C60.2739 144.372 60.2337 143.918 60.5839 143.511C60.7209 143.344 60.8992 143.214 61.101 143.134L61.2786 143.429C61.1069 143.487 60.9536 143.589 60.8355 143.726C60.7969 143.759 60.7657 143.801 60.7439 143.846C60.722 143.892 60.71 143.942 60.7086 143.992C60.7072 144.042 60.7165 144.092 60.7359 144.138C60.7552 144.184 60.7842 144.225 60.8209 144.259C60.9788 144.389 61.1466 144.333 61.4517 144.162C61.8604 143.935 62.1691 143.903 62.4494 144.136C62.7793 144.411 62.797 144.864 62.4082 145.317C62.2524 145.506 62.0506 145.653 61.8223 145.744L61.6447 145.449Z" fill="#2DDF9D"/>
<path d="M61.2611 141.707L61.801 142.144L62.2227 141.65L62.4859 141.87L62.0643 142.364L63.0826 143.206C63.3159 143.4 63.5073 143.443 63.6716 143.251C63.7301 143.184 63.7797 143.11 63.8193 143.031L64.0898 143.23C64.0401 143.356 63.9676 143.472 63.8761 143.573C63.821 143.645 63.7512 143.705 63.6712 143.749C63.5912 143.793 63.503 143.82 63.4124 143.828C63.1807 143.814 62.9642 143.716 62.8053 143.552L61.7743 142.701L61.5235 142.994L61.2602 142.774L61.5111 142.481L61.0604 142.105L61.2611 141.707Z" fill="#2DDF9D"/>
<path d="M54.7083 107.82C54.9521 107.97 55.1826 108.14 55.3973 108.329C55.6752 108.536 55.8675 108.838 55.9377 109.178C55.9532 109.312 55.9394 109.447 55.8975 109.575C55.8555 109.703 55.7863 109.82 55.6946 109.919C55.6118 110.025 55.5087 110.114 55.3914 110.18C55.274 110.246 55.1447 110.288 55.011 110.303C54.8191 110.311 54.6277 110.279 54.4484 110.21C54.2691 110.141 54.1057 110.037 53.968 109.903C53.8741 109.823 53.7898 109.732 53.7167 109.632L52.8143 110.679L52.4766 110.387L54.7083 107.82ZM53.9599 109.37C54.034 109.47 54.1192 109.56 54.2139 109.64C54.6219 109.992 55.0245 110.008 55.3487 109.64C55.6729 109.273 55.546 108.918 55.1758 108.597C55.0721 108.502 54.9579 108.419 54.8353 108.35L53.9599 109.37Z" fill="#2DDF9D"/>
<path d="M56.884 109.402L57.2244 109.694L54.8522 112.442L54.5117 112.147L56.884 109.402Z" fill="#2DDF9D"/>
<path d="M56.4635 113.837L56.6391 113.566C56.4965 113.597 56.3487 113.593 56.2079 113.556C56.067 113.518 55.937 113.448 55.8285 113.35C55.7499 113.292 55.6843 113.218 55.6358 113.134C55.5873 113.049 55.557 112.955 55.5468 112.857C55.5366 112.76 55.5468 112.662 55.5767 112.569C55.6066 112.476 55.6556 112.39 55.7204 112.317C56.1095 111.863 56.7256 111.963 57.447 112.588L57.4794 112.55C57.5388 112.498 57.5854 112.433 57.6158 112.361C57.6461 112.288 57.6593 112.21 57.6544 112.131C57.6494 112.053 57.6264 111.976 57.5871 111.908C57.5479 111.84 57.4934 111.782 57.4281 111.738C57.2534 111.595 57.0434 111.502 56.8201 111.468L56.9363 111.176C57.2181 111.225 57.4809 111.351 57.6955 111.541C58.2683 112.036 58.0711 112.547 57.7469 112.923L57.1417 113.626C57.0089 113.774 56.8896 113.933 56.785 114.102L56.4635 113.837ZM57.2362 112.836C56.8715 112.506 56.3932 112.209 56.0798 112.566C56.0392 112.606 56.0077 112.655 55.9875 112.709C55.9673 112.762 55.9588 112.819 55.9627 112.877C55.9665 112.934 55.9826 112.989 56.0098 113.04C56.037 113.09 56.0747 113.134 56.1203 113.169C56.2168 113.258 56.3392 113.313 56.4695 113.327C56.5998 113.342 56.7312 113.313 56.8444 113.247C56.8863 113.222 56.9244 113.191 56.9579 113.155L57.2362 112.836Z" fill="#2DDF9D"/>
<path d="M58.4701 113.186C58.6349 112.991 58.77 112.829 58.8916 112.664L59.1942 112.935L58.9456 113.259C59.1012 113.203 59.2691 113.19 59.4314 113.222C59.5936 113.254 59.7442 113.329 59.867 113.44C60.1372 113.665 60.4074 114.168 59.84 114.811L58.8754 115.931L58.5349 115.636L59.4671 114.554C59.7373 114.254 59.8319 113.905 59.513 113.627C59.408 113.539 59.2776 113.487 59.141 113.479C59.0043 113.47 58.8686 113.506 58.7538 113.581C58.6942 113.619 58.6405 113.665 58.5944 113.719L57.6217 114.847L57.2812 114.552L58.4701 113.186Z" fill="#2DDF9D"/>
<path d="M23.3359 142.82C23.5614 142.974 23.7721 143.147 23.9655 143.34C24.2256 143.552 24.4018 143.85 24.4626 144.181C24.48 144.297 24.469 144.415 24.4304 144.526C24.3918 144.637 24.3268 144.736 24.2411 144.816C24.1177 144.936 23.9597 145.013 23.7898 145.037C23.6199 145.06 23.4467 145.03 23.2954 144.949V144.949C23.4092 145.118 23.4616 145.321 23.4439 145.524C23.4262 145.728 23.3394 145.919 23.1981 146.066C23.109 146.159 23.0015 146.232 22.8824 146.282C22.7633 146.331 22.6353 146.355 22.5064 146.352C22.1795 146.352 21.8309 146.141 21.4257 145.747C21.2592 145.586 21.104 145.414 20.9609 145.233L23.3359 142.82ZM22.6632 144.14L22.9495 144.411C23.2873 144.741 23.6547 144.759 23.8871 144.524C24.1573 144.235 24.0628 143.908 23.7439 143.591C23.6526 143.496 23.5511 143.41 23.4413 143.337L22.6632 144.14ZM21.504 145.317C21.5812 145.413 21.6661 145.504 21.758 145.587C22.0849 145.909 22.5064 146.087 22.8577 145.728C23.2089 145.368 23.036 144.97 22.6875 144.63L22.4173 144.373L21.504 145.317Z" fill="#2DDF9D"/>
<path d="M24.8649 148.151C24.6866 148.335 24.5326 148.497 24.4083 148.648L24.1219 148.378L24.3921 148.072C24.2325 148.115 24.0645 148.115 23.9051 148.071C23.7457 148.028 23.6005 147.944 23.4842 147.826C23.214 147.556 23.0276 147.074 23.6356 146.455L24.6515 145.422L24.9703 145.738L24.0111 146.715C23.6815 147.05 23.5599 147.377 23.8517 147.664C23.9443 147.753 24.0615 147.812 24.188 147.835C24.3146 147.857 24.4449 147.841 24.5623 147.788C24.6337 147.755 24.6986 147.709 24.7542 147.653L25.816 146.571L26.1375 146.888L24.8649 148.151Z" fill="#2DDF9D"/>
<path d="M27.5061 147.245C27.4808 147.273 27.4501 147.295 27.4159 147.31C27.3817 147.325 27.3448 147.332 27.3075 147.332C27.2702 147.332 27.2333 147.325 27.1991 147.31C27.1649 147.295 27.1342 147.273 27.1089 147.245C27.0832 147.22 27.0628 147.19 27.0488 147.157C27.0348 147.124 27.0276 147.088 27.0276 147.052C27.0276 147.016 27.0348 146.98 27.0488 146.947C27.0628 146.914 27.0832 146.884 27.1089 146.859C27.1342 146.831 27.1649 146.809 27.1991 146.794C27.2333 146.779 27.2702 146.771 27.3075 146.771C27.3448 146.771 27.3817 146.779 27.4159 146.794C27.4501 146.809 27.4808 146.831 27.5061 146.859C27.5318 146.884 27.5523 146.914 27.5663 146.947C27.5802 146.98 27.5874 147.016 27.5874 147.052C27.5874 147.088 27.5802 147.124 27.5663 147.157C27.5523 147.19 27.5318 147.22 27.5061 147.245V147.245ZM24.9258 149.157L26.6604 147.391L26.9819 147.705L25.2473 149.474L24.9258 149.157Z" fill="#2DDF9D"/>
<path d="M28.3226 147.404L28.6414 147.721L26.0989 150.312L25.7773 149.995L28.3226 147.404Z" fill="#2DDF9D"/>
<path d="M30.7047 149.752L28.6081 151.885C28.4541 152.042 28.2838 152.223 28.1758 152.356L27.8867 152.086L28.1731 151.766C28.0087 151.819 27.8329 151.823 27.666 151.78C27.4992 151.736 27.348 151.646 27.2301 151.52C26.8032 151.101 26.8302 150.417 27.3571 149.881C27.9299 149.289 28.6486 149.286 29.0809 149.711C29.1923 149.807 29.276 149.931 29.3235 150.071C29.371 150.21 29.3805 150.359 29.3511 150.503L30.3859 149.449L30.7047 149.752ZM28.8675 150.979C28.913 150.934 28.9529 150.883 28.9863 150.828C29.0672 150.7 29.1016 150.548 29.0839 150.397C29.0662 150.246 28.9975 150.106 28.8891 150C28.5567 149.676 28.0785 149.773 27.6894 150.163C27.3004 150.552 27.2247 150.99 27.5705 151.331C27.6813 151.439 27.8256 151.506 27.9795 151.52C28.1335 151.534 28.2876 151.495 28.4162 151.409C28.4717 151.374 28.5225 151.333 28.5676 151.285L28.8675 150.979Z" fill="#2DDF9D"/>
<path d="M22.5249 118.379C22.4582 118.682 22.328 118.968 22.1427 119.217C21.592 120.013 20.67 120.26 19.7341 119.616C19.5273 119.49 19.3492 119.323 19.2112 119.125C19.0733 118.926 18.9787 118.702 18.9337 118.466C18.8886 118.23 18.8941 117.987 18.9498 117.754C19.0054 117.521 19.11 117.303 19.2567 117.113C19.4035 116.877 19.6028 116.678 19.8394 116.53L20.092 116.819C19.8865 116.94 19.7117 117.106 19.5811 117.305C19.1208 117.967 19.246 118.7 19.9968 119.225C20.6961 119.706 21.4197 119.619 21.8952 118.931C22.0398 118.73 22.1394 118.5 22.1877 118.257L22.5249 118.379Z" fill="#2DDF9D"/>
<path d="M23.1161 115.482C23.2647 115.566 23.394 115.681 23.4956 115.818C23.5972 115.955 23.6688 116.111 23.7057 116.277C23.7427 116.442 23.7441 116.614 23.71 116.779C23.6758 116.945 23.6069 117.101 23.5076 117.238C23.4163 117.373 23.2976 117.488 23.1588 117.574C23.0201 117.661 22.8646 117.718 22.702 117.741C22.5394 117.764 22.3735 117.753 22.2148 117.709C22.056 117.665 21.908 117.589 21.7801 117.485C21.0935 117.013 20.9973 116.294 21.3858 115.731C21.7742 115.169 22.4892 115.052 23.1161 115.482ZM22.0232 117.104C22.4735 117.407 22.9889 117.389 23.2386 117.029C23.4884 116.67 23.3303 116.186 22.8673 115.868C22.5214 115.629 21.9616 115.499 21.6607 115.932C21.3597 116.366 21.6358 116.835 22.0232 117.104V117.104Z" fill="#2DDF9D"/>
<path d="M22.6919 111.9L25.1677 113.604C25.3496 113.731 25.5608 113.868 25.7102 113.952L25.4814 114.284L25.1131 114.056C25.1952 114.208 25.2327 114.379 25.2213 114.551C25.2099 114.722 25.15 114.886 25.0485 115.024C24.7084 115.514 24.0308 115.602 23.4066 115.172C22.7222 114.708 22.5925 114.002 22.935 113.517C23.0092 113.39 23.117 113.286 23.2468 113.216C23.3765 113.147 23.5233 113.113 23.6713 113.12V113.12L22.4465 112.276L22.6919 111.9ZM24.2171 113.501C24.1657 113.463 24.1091 113.433 24.0491 113.41C23.9081 113.352 23.7517 113.344 23.6059 113.386C23.4601 113.428 23.3336 113.519 23.2475 113.643C22.9855 114.023 23.167 114.482 23.6195 114.793C24.072 115.105 24.5165 115.13 24.7942 114.719C24.8809 114.592 24.9211 114.439 24.9081 114.285C24.8951 114.131 24.8297 113.986 24.7227 113.874C24.6785 113.825 24.6284 113.782 24.5734 113.746L24.2171 113.501Z" fill="#2DDF9D"/>
<path d="M25.3095 112.484C25.3988 112.556 25.5027 112.609 25.6141 112.639C25.7255 112.668 25.8418 112.673 25.9549 112.653C26.0681 112.634 26.1754 112.59 26.2695 112.525C26.3637 112.461 26.4424 112.376 26.5004 112.278C26.6393 112.09 26.7353 111.875 26.7818 111.646L27.0945 111.766C27.0358 112.041 26.9194 112.3 26.7529 112.526C26.6681 112.667 26.5535 112.788 26.417 112.88C26.2804 112.973 26.1251 113.034 25.9618 113.061C25.7984 113.089 25.6307 113.08 25.4703 113.037C25.3098 112.994 25.1604 112.917 25.0321 112.811C24.4135 112.385 24.1745 111.69 24.5834 111.102C25.0408 110.44 25.7513 110.671 26.1283 110.928C26.1858 110.969 26.2409 111.014 26.2934 111.062L25.3095 112.484ZM25.7906 111.221C25.5545 111.053 25.116 110.901 24.8302 111.315C24.7357 111.473 24.7046 111.661 24.7428 111.842C24.781 112.023 24.8858 112.184 25.0367 112.293L25.7906 111.221Z" fill="#2DDF9D"/>
<path d="M120.74 108.426C120.982 108.626 121.207 108.845 121.414 109.081C121.777 109.427 121.988 109.9 122.004 110.402C121.992 110.63 121.931 110.854 121.823 111.057C121.716 111.261 121.565 111.44 121.382 111.581C121.203 111.751 120.992 111.885 120.761 111.974C120.53 112.063 120.284 112.105 120.038 112.097C119.579 112.072 119.099 111.792 118.657 111.292C118.479 111.093 118.313 110.884 118.159 110.666L120.74 108.426ZM118.712 110.768C118.794 110.893 118.886 111.011 118.988 111.121C119.621 111.828 120.357 111.86 121.064 111.247C121.688 110.712 121.778 110.028 121.16 109.339C121.048 109.207 120.921 109.087 120.783 108.983L118.712 110.768Z" fill="#2267BC"/>
<path d="M121.448 112.66C121.354 112.728 121.276 112.815 121.219 112.916C121.162 113.016 121.127 113.128 121.118 113.242C121.109 113.356 121.125 113.47 121.166 113.577C121.206 113.684 121.269 113.78 121.352 113.859C121.5 114.04 121.687 114.185 121.9 114.285L121.705 114.555C121.45 114.432 121.225 114.258 121.045 114.044C120.928 113.928 120.839 113.788 120.783 113.634C120.727 113.48 120.705 113.315 120.719 113.151C120.734 112.987 120.784 112.827 120.866 112.683C120.948 112.538 121.06 112.413 121.195 112.315C121.764 111.82 122.5 111.76 122.976 112.295C123.507 112.897 123.105 113.527 122.76 113.827C122.706 113.872 122.649 113.915 122.589 113.955L121.448 112.66ZM122.559 113.428C122.637 113.38 122.703 113.315 122.755 113.239C122.806 113.163 122.84 113.077 122.855 112.987C122.87 112.898 122.866 112.806 122.842 112.719C122.819 112.632 122.777 112.55 122.719 112.481C122.586 112.352 122.408 112.277 122.221 112.272C122.033 112.266 121.85 112.33 121.705 112.45L122.559 113.428Z" fill="#2267BC"/>
<path d="M123.364 114.072C123.612 113.864 123.791 113.689 123.963 113.525L124.229 113.825L123.92 114.12C124.094 114.086 124.274 114.1 124.44 114.159C124.606 114.219 124.752 114.322 124.862 114.458C125.255 114.9 125.166 115.569 124.593 116.064C123.916 116.651 123.226 116.54 122.845 116.106C122.742 116 122.669 115.868 122.633 115.724C122.597 115.58 122.599 115.429 122.639 115.285V115.285L121.616 116.172L121.324 115.843L123.364 114.072ZM123.152 114.838C123.106 114.881 123.064 114.927 123.027 114.977C122.936 115.104 122.891 115.257 122.899 115.41C122.907 115.564 122.967 115.711 123.069 115.825C123.385 116.178 123.858 116.126 124.29 115.753C124.667 115.432 124.817 114.95 124.506 114.597C124.398 114.482 124.254 114.406 124.096 114.381C123.939 114.357 123.776 114.385 123.635 114.461C123.578 114.487 123.524 114.521 123.475 114.561L123.152 114.838Z" fill="#2267BC"/>
<path d="M126.764 114.954L127.059 115.287L124.298 117.683L124.003 117.349L126.764 114.954Z" fill="#2267BC"/>
<path d="M127.232 119.098C127.113 119.221 126.969 119.318 126.811 119.382C126.652 119.447 126.482 119.478 126.311 119.474C126.14 119.47 125.973 119.43 125.82 119.357C125.667 119.284 125.531 119.18 125.422 119.051C125.313 118.931 125.231 118.788 125.181 118.634C125.131 118.479 125.115 118.315 125.132 118.153C125.15 117.99 125.202 117.833 125.284 117.691C125.367 117.548 125.478 117.424 125.612 117.326C126.242 116.779 126.969 116.875 127.419 117.37C127.868 117.866 127.808 118.597 127.232 119.098ZM125.922 117.647C125.507 118.006 125.403 118.507 125.69 118.834C125.976 119.162 126.493 119.126 126.917 118.758C127.237 118.48 127.502 117.974 127.153 117.579C126.804 117.184 126.28 117.345 125.923 117.655L125.922 117.647Z" fill="#2267BC"/>
<path d="M128.619 118.834L127.865 120.197C127.776 120.349 127.669 120.523 127.583 120.65C127.725 120.585 127.904 120.499 128.079 120.428L129.503 119.834L129.819 120.186L128.036 120.849C127.18 121.168 126.706 121.295 126.303 121.241C126.095 121.217 125.898 121.142 125.729 121.022L125.943 120.689C126.074 120.765 126.218 120.814 126.369 120.835C126.578 120.868 126.794 120.852 126.998 120.787C127.035 120.778 127.07 120.762 127.101 120.741C127.13 120.712 127.154 120.679 127.172 120.642L128.306 118.46L128.619 118.834Z" fill="#2267BC"/>
<path d="M116.578 151.463C117.396 152.31 117.299 153.253 116.639 153.872C115.98 154.491 115.017 154.44 114.295 153.687C113.573 152.934 113.548 151.923 114.235 151.284C114.922 150.644 115.873 150.732 116.578 151.463ZM114.641 153.36C115.146 153.885 115.895 154.08 116.408 153.595C116.921 153.11 116.773 152.364 116.232 151.806C115.762 151.316 115.007 151.055 114.461 151.567C113.916 152.079 114.132 152.814 114.654 153.355L114.641 153.36Z" fill="#2267BC"/>
<path d="M117.023 151.152C116.802 150.914 116.619 150.749 116.447 150.587L116.745 150.308L117.061 150.597C117.022 150.426 117.032 150.247 117.087 150.08C117.143 149.912 117.243 149.761 117.377 149.644C117.818 149.229 118.498 149.28 119.017 149.815C119.631 150.452 119.537 151.143 119.108 151.548C119.002 151.657 118.87 151.737 118.724 151.78C118.578 151.824 118.424 151.83 118.277 151.797V151.797L119.206 152.758L118.881 153.08L117.023 151.152ZM117.802 151.304C117.846 151.348 117.894 151.387 117.946 151.421C118.077 151.503 118.233 151.538 118.389 151.521C118.544 151.504 118.691 151.436 118.804 151.328C119.156 151.003 119.09 150.529 118.697 150.124C118.355 149.769 117.871 149.647 117.52 149.978C117.406 150.091 117.333 150.238 117.312 150.395C117.291 150.552 117.323 150.711 117.405 150.846C117.432 150.902 117.467 150.955 117.509 151.001L117.802 151.304Z" fill="#2267BC"/>
<path d="M119.656 149.331C119.727 149.419 119.818 149.491 119.921 149.541C120.024 149.591 120.137 149.618 120.252 149.62C120.368 149.623 120.483 149.6 120.589 149.555C120.696 149.509 120.792 149.442 120.87 149.357C121.048 149.199 121.189 149.005 121.284 148.789L121.564 148.966C121.447 149.224 121.277 149.456 121.065 149.647C120.951 149.769 120.811 149.865 120.657 149.93C120.502 149.994 120.336 150.025 120.17 150.02C120.003 150.015 119.84 149.975 119.692 149.902C119.544 149.829 119.414 149.725 119.311 149.598C118.799 149.065 118.715 148.332 119.244 147.842C119.837 147.282 120.486 147.652 120.797 147.965C120.845 148.017 120.89 148.071 120.932 148.127L119.656 149.331ZM120.401 148.186C120.348 148.113 120.28 148.052 120.201 148.008C120.123 147.963 120.035 147.936 119.944 147.928C119.853 147.919 119.761 147.93 119.674 147.959C119.587 147.988 119.507 148.035 119.439 148.097C119.313 148.236 119.243 148.415 119.243 148.6C119.242 148.785 119.311 148.963 119.436 149.098L120.401 148.186Z" fill="#2267BC"/>
<path d="M120.957 147.338C120.754 147.13 120.577 146.955 120.407 146.802L120.697 146.526L121.045 146.865L121.062 146.862C120.988 146.725 120.962 146.567 120.985 146.412C121.009 146.257 121.081 146.113 121.192 145.999C121.223 145.969 121.257 145.943 121.294 145.921L121.588 146.225C121.544 146.252 121.503 146.284 121.466 146.322C121.359 146.432 121.295 146.576 121.286 146.727C121.277 146.879 121.324 147.027 121.419 147.145C121.457 147.204 121.5 147.259 121.55 147.31L122.461 148.259L122.134 148.567L120.957 147.338Z" fill="#2267BC"/>
<path d="M124.321 146.472L124.079 146.273C124.095 146.417 124.077 146.564 124.025 146.701C123.973 146.838 123.889 146.962 123.779 147.062C123.712 147.134 123.632 147.192 123.541 147.232C123.451 147.272 123.354 147.294 123.256 147.296C123.158 147.297 123.061 147.278 122.971 147.241C122.881 147.203 122.8 147.148 122.733 147.078C122.321 146.65 122.488 146.049 123.189 145.381L123.157 145.343C123.111 145.281 123.051 145.231 122.983 145.195C122.914 145.16 122.838 145.141 122.76 145.139C122.682 145.137 122.604 145.153 122.533 145.186C122.462 145.218 122.398 145.265 122.348 145.325C122.182 145.483 122.062 145.682 122.002 145.901L121.724 145.759C121.804 145.484 121.959 145.235 122.173 145.04C122.73 144.515 123.234 144.756 123.557 145.1L124.2 145.761C124.334 145.905 124.48 146.036 124.637 146.155L124.321 146.472ZM123.401 145.617C123.034 145.944 122.685 146.396 123.008 146.74C123.044 146.784 123.089 146.819 123.141 146.844C123.192 146.869 123.249 146.882 123.306 146.883C123.364 146.885 123.421 146.874 123.474 146.851C123.528 146.829 123.576 146.795 123.615 146.753C123.713 146.665 123.781 146.549 123.809 146.421C123.837 146.294 123.823 146.161 123.769 146.044C123.749 145.999 123.722 145.959 123.689 145.923L123.401 145.617Z" fill="#2267BC"/>
<path d="M123.288 143.077L123.777 143.585L124.249 143.139L124.486 143.374L123.998 143.823L124.917 144.768C125.127 144.988 125.312 145.052 125.483 144.879C125.55 144.82 125.608 144.752 125.656 144.677L125.903 144.91C125.839 145.027 125.754 145.132 125.652 145.22C125.59 145.286 125.514 145.338 125.43 145.373C125.346 145.408 125.256 145.425 125.165 145.422C124.937 145.384 124.733 145.263 124.592 145.083L123.662 144.118L123.383 144.384L123.146 144.148L123.428 143.883L123.019 143.46L123.288 143.077Z" fill="#2267BC"/>
<path d="M125.671 143.585C125.743 143.673 125.833 143.744 125.936 143.794C126.039 143.844 126.152 143.872 126.268 143.874C126.383 143.877 126.498 143.854 126.605 143.809C126.712 143.763 126.807 143.696 126.886 143.611C127.064 143.453 127.205 143.259 127.299 143.043L127.577 143.22C127.462 143.479 127.293 143.711 127.081 143.901C126.966 144.023 126.827 144.119 126.672 144.183C126.518 144.248 126.352 144.279 126.185 144.274C126.019 144.269 125.856 144.229 125.707 144.156C125.559 144.083 125.429 143.979 125.326 143.852C124.814 143.319 124.731 142.586 125.26 142.096C125.853 141.536 126.502 141.906 126.812 142.219C126.86 142.271 126.906 142.324 126.948 142.38L125.671 143.585ZM126.417 142.44C126.364 142.367 126.296 142.306 126.217 142.262C126.138 142.217 126.051 142.19 125.96 142.182C125.869 142.173 125.777 142.184 125.69 142.213C125.603 142.242 125.523 142.289 125.455 142.351C125.328 142.489 125.258 142.669 125.257 142.854C125.257 143.039 125.326 143.217 125.452 143.352L126.417 142.44Z" fill="#2267BC"/>
<g filter="url(#filter2_d_1161_3797)">
<path d="M35.9431 126.35H33.5078V133.191H35.9197C38.0042 133.191 39.2636 131.902 39.2636 129.764C39.2636 127.632 38.0042 126.35 35.9431 126.35ZM34.9275 131.972V127.569H35.8662C37.159 127.569 37.8438 128.24 37.8438 129.764C37.8438 131.297 37.159 131.972 35.8596 131.972H34.9275Z" fill="#2DDF9D"/>
<path d="M44.9283 130.595C44.9283 128.845 43.8661 127.993 42.5198 127.993C41.0166 127.993 40.0378 129.065 40.0378 130.649C40.0378 132.276 41.0032 133.291 42.5766 133.291C43.8427 133.291 44.6912 132.677 44.8916 131.731H43.5621C43.4218 132.035 43.081 132.242 42.6 132.242C41.8818 132.242 41.4208 131.765 41.4208 130.986H44.9283V130.595ZM41.4208 130.111C41.4542 129.523 41.9018 129.039 42.5465 129.039C43.1712 129.039 43.6021 129.49 43.6088 130.111H41.4208Z" fill="#2DDF9D"/>
<path d="M48.9421 128.06L47.8664 131.748H47.813L46.734 128.06H45.2541L47.0513 133.191H48.6247L50.4219 128.06H48.9421Z" fill="#2DDF9D"/>
</g>
<g filter="url(#filter3_d_1161_3797)">
<path d="M103.125 129.158C103.125 126.926 101.742 125.644 99.9279 125.644C98.1073 125.644 96.7344 126.926 96.7344 129.158C96.7344 131.383 98.1073 132.672 99.9279 132.672C101.742 132.672 103.125 131.389 103.125 129.158ZM101.685 129.158C101.685 130.618 100.987 131.413 99.9279 131.413C98.8723 131.413 98.1741 130.618 98.1741 129.158C98.1741 127.698 98.8723 126.903 99.9279 126.903C100.987 126.903 101.685 127.698 101.685 129.158Z" fill="#2267BC"/>
<path d="M105.515 134.503V131.76H105.558C105.755 132.181 106.183 132.662 107.018 132.662C108.191 132.662 109.103 131.733 109.103 130.02C109.103 128.263 108.154 127.381 107.018 127.381C106.156 127.381 105.749 127.895 105.558 128.309H105.495V127.447H104.115V134.503H105.515ZM105.485 130.013C105.485 129.088 105.876 128.5 106.581 128.5C107.295 128.5 107.673 129.114 107.673 130.013C107.673 130.918 107.289 131.546 106.581 131.546C105.882 131.546 105.485 130.935 105.485 130.013Z" fill="#2267BC"/>
<path d="M114.244 128.974C114.17 127.995 113.368 127.381 112.069 127.381C110.749 127.381 109.904 127.995 109.907 128.981C109.904 129.739 110.405 130.243 111.387 130.437L112.236 130.604C112.717 130.704 112.931 130.868 112.934 131.135C112.931 131.466 112.593 131.667 112.086 131.667C111.568 131.667 111.244 131.459 111.174 131.059H109.771C109.884 132.061 110.696 132.679 112.086 132.679C113.448 132.679 114.354 132.004 114.357 130.995C114.354 130.254 113.873 129.809 112.881 129.605L111.955 129.418C111.474 129.315 111.294 129.134 111.297 128.901C111.294 128.593 111.638 128.379 112.092 128.379C112.56 128.379 112.874 128.61 112.934 128.974H114.244Z" fill="#2267BC"/>
</g>
<path d="M253.878 58.586C255.173 58.0991 255.815 57.0114 255.815 55.587C255.815 53.6343 254.603 52.2617 252.143 52.2617H248.352V62.8695H249.962V58.8657H252.138H252.231L254.386 62.8695H256.219L253.878 58.586ZM251.972 53.6447C253.541 53.6447 254.194 54.3905 254.194 55.587C254.194 56.7835 253.541 57.4775 251.977 57.4775H249.962V53.6447H251.972Z" fill="#313131"/>
<path d="M264.226 58.8087C264.226 55.934 262.501 54.8101 260.688 54.8101C258.476 54.8101 257.01 56.4986 257.01 58.9433C257.01 61.414 258.456 63.03 260.802 63.03C262.547 63.03 263.77 62.1702 264.122 60.8701H262.537C262.273 61.3622 261.698 61.7455 260.812 61.7455C259.497 61.7455 258.606 60.8805 258.564 59.3629H264.226V58.8087ZM258.57 58.1923C258.642 57.0735 259.455 56.0946 260.709 56.0946C261.9 56.0946 262.682 56.9855 262.687 58.1923H258.57Z" fill="#313131"/>
<path d="M271.743 57.0839C271.598 55.7165 270.489 54.8101 268.723 54.8101C266.874 54.8101 265.641 55.7838 265.641 57.1978C265.641 58.3011 266.392 59.0677 267.822 59.3784L269.065 59.6529C269.915 59.8446 270.293 60.1761 270.293 60.6889C270.293 61.357 269.64 61.7766 268.625 61.7766C267.687 61.7766 267.143 61.4192 267.009 60.694H265.408C265.605 62.1806 266.734 63.03 268.64 63.03C270.676 63.03 271.893 62.0045 271.893 60.5646C271.893 59.4458 271.178 58.7465 269.723 58.4099L268.449 58.1198C267.579 57.9178 267.2 57.5811 267.206 57.1098C267.2 56.509 267.843 56.0428 268.734 56.0428C269.599 56.0428 270.096 56.452 270.241 57.0839H271.743Z" fill="#313131"/>
<path d="M276.799 63.03C279.041 63.03 280.507 61.3881 280.507 58.9278C280.507 56.452 279.041 54.8101 276.799 54.8101C274.551 54.8101 273.08 56.452 273.08 58.9278C273.08 61.3881 274.551 63.03 276.799 63.03ZM276.804 61.7248C275.348 61.7248 274.654 60.4454 274.654 58.9226C274.654 57.405 275.348 56.1101 276.804 56.1101C278.244 56.1101 278.933 57.405 278.933 58.9226C278.933 60.4454 278.244 61.7248 276.804 61.7248Z" fill="#313131"/>
<path d="M287.101 59.5649C287.101 60.9168 286.096 61.5538 285.231 61.5538C284.273 61.5538 283.615 60.865 283.615 59.7824V54.9137H282.05V59.9741C282.05 61.9423 283.133 62.973 284.666 62.973C285.863 62.973 286.676 62.3411 287.044 61.4917H287.126V62.8695H288.654V54.9137H287.101V59.5649Z" fill="#313131"/>
<path d="M292.125 62.8695V58.0214C292.125 56.9803 292.933 56.2293 294.026 56.2293C294.342 56.2293 294.71 56.2914 294.84 56.3225V54.8308C294.679 54.8101 294.368 54.7945 294.171 54.7945C293.244 54.7945 292.447 55.3228 292.157 56.1826H292.074V54.9137H290.561V62.8695H292.125Z" fill="#313131"/>
<path d="M299.123 63.03C301.003 63.03 302.226 61.8957 302.391 60.347H300.874C300.677 61.2068 300.014 61.7041 299.128 61.7041C297.823 61.7041 296.979 60.6267 296.979 58.8916C296.979 57.1927 297.838 56.1205 299.128 56.1205C300.117 56.1205 300.708 56.742 300.874 57.4879H302.391C302.231 55.8771 300.915 54.8101 299.107 54.8101C296.86 54.8101 295.404 56.4986 295.404 58.9278C295.404 61.3259 296.808 63.03 299.123 63.03Z" fill="#313131"/>
<path d="M310.734 58.8087C310.734 55.934 309.01 54.8101 307.197 54.8101C304.985 54.8101 303.519 56.4986 303.519 58.9433C303.519 61.414 304.964 63.03 307.311 63.03C309.056 63.03 310.279 62.1702 310.631 60.8701H309.046C308.782 61.3622 308.207 61.7455 307.321 61.7455C306.005 61.7455 305.115 60.8805 305.073 59.3629H310.734V58.8087ZM305.078 58.1923C305.151 57.0735 305.964 56.0946 307.217 56.0946C308.409 56.0946 309.191 56.9855 309.196 58.1923H305.078Z" fill="#313131"/>
<path d="M257.266 116.981C256.903 114.707 255.132 113.381 252.884 113.381C250.133 113.381 248.113 115.437 248.113 118.83C248.113 122.217 250.123 124.279 252.884 124.279C255.22 124.279 256.929 122.813 257.266 120.715H255.639C255.359 122.062 254.23 122.808 252.899 122.808C251.076 122.808 249.714 121.414 249.714 118.83C249.714 116.261 251.071 114.852 252.899 114.852C254.246 114.852 255.38 115.618 255.639 116.981H257.266Z" fill="#313131"/>
<path d="M262.239 124.294C264.482 124.294 265.948 122.652 265.948 120.192C265.948 117.716 264.482 116.074 262.239 116.074C259.991 116.074 258.52 117.716 258.52 120.192C258.52 122.652 259.991 124.294 262.239 124.294ZM262.244 122.989C260.789 122.989 260.095 121.71 260.095 120.187C260.095 118.669 260.789 117.374 262.244 117.374C263.684 117.374 264.373 118.669 264.373 120.187C264.373 121.71 263.684 122.989 262.244 122.989Z" fill="#313131"/>
<path d="M269.055 119.415C269.055 118.146 269.827 117.426 270.904 117.426C271.956 117.426 272.582 118.115 272.582 119.265V124.134H274.147V119.073C274.147 117.11 273.069 116.074 271.438 116.074C270.241 116.074 269.459 116.628 269.091 117.478H268.993V116.178H267.491V124.134H269.055V119.415Z" fill="#313131"/>
<path d="M279.096 122.854C278.589 122.849 278.143 122.689 278.143 121.792V117.426H279.765V116.178H278.143V114.272H276.579V116.178H275.414V117.426H276.579V122.114C276.574 123.564 277.677 124.237 278.905 124.237C279.33 124.237 279.666 124.206 279.873 124.17V122.823C279.666 122.834 279.319 122.854 279.096 122.854Z" fill="#313131"/>
<path d="M288.06 120.073C288.06 117.198 286.335 116.074 284.522 116.074C282.31 116.074 280.845 117.763 280.845 120.208C280.845 122.678 282.29 124.294 284.636 124.294C286.381 124.294 287.604 123.434 287.956 122.134H286.371C286.107 122.626 285.532 123.01 284.646 123.01C283.331 123.01 282.44 122.145 282.398 120.627H288.06V120.073ZM282.404 119.456C282.476 118.338 283.289 117.359 284.543 117.359C285.734 117.359 286.516 118.25 286.521 119.456H282.404Z" fill="#313131"/>
<path d="M291.174 119.415C291.174 118.146 291.946 117.426 293.023 117.426C294.075 117.426 294.702 118.115 294.702 119.265V124.134H296.266V119.073C296.266 117.11 295.189 116.074 293.557 116.074C292.36 116.074 291.578 116.628 291.211 117.478H291.112V116.178H289.61V124.134H291.174V119.415Z" fill="#313131"/>
<path d="M301.216 122.854C300.708 122.849 300.263 122.689 300.263 121.792V117.426H301.884V116.178H300.263V114.272H298.698V116.178H297.533V117.426H298.698V122.114C298.693 123.564 299.796 124.237 301.024 124.237C301.449 124.237 301.785 124.206 301.993 124.17V122.823C301.785 122.834 301.438 122.854 301.216 122.854Z" fill="#313131"/>
<path d="M309.244 118.348C309.099 116.981 307.991 116.074 306.224 116.074C304.375 116.074 303.142 117.048 303.142 118.462C303.142 119.565 303.893 120.332 305.323 120.643L306.566 120.917C307.416 121.109 307.794 121.44 307.794 121.953C307.794 122.621 307.141 123.041 306.126 123.041C305.188 123.041 304.645 122.683 304.51 121.958H302.909C303.106 123.445 304.235 124.294 306.141 124.294C308.177 124.294 309.394 123.269 309.394 121.829C309.394 120.71 308.679 120.011 307.224 119.674L305.95 119.384C305.08 119.182 304.701 118.845 304.707 118.374C304.701 117.773 305.344 117.307 306.235 117.307C307.1 117.307 307.597 117.716 307.742 118.348H309.244Z" fill="#313131"/>
<path fill-rule="evenodd" clip-rule="evenodd" d="M277.895 80.7725L277.895 94.5406H276.895L276.895 80.7725H277.895Z" fill="#282828"/>
<path fill-rule="evenodd" clip-rule="evenodd" d="M283.779 88.1575L284.279 88.1575L284.279 87.1575L283.779 87.1575L280.228 87.1575L280.225 88.1575L283.779 88.1575ZM274.561 88.1575L274.564 87.1575L271.01 87.1575L270.51 87.1575L270.51 88.1575L271.01 88.1575H274.561Z" fill="#282828"/>
<defs>
<filter id="filter0_d_1161_3797" x="45.832" y="26.4111" width="55.0117" height="53.4297" filterUnits="userSpaceOnUse" color-interpolation-filters="sRGB">
<feFlood flood-opacity="0" result="BackgroundImageFix"/>
<feColorMatrix in="SourceAlpha" type="matrix" values="0 0 0 0 0 0 0 0 0 0 0 0 0 0 0 0 0 0 127 0" result="hardAlpha"/>
<feOffset dy="2"/>
<feComposite in2="hardAlpha" operator="out"/>
<feColorMatrix type="matrix" values="0 0 0 0 1 0 0 0 0 1 0 0 0 0 1 0 0 0 1 0"/>
<feBlend mode="normal" in2="BackgroundImageFix" result="effect1_dropShadow_1161_3797"/>
<feBlend mode="normal" in="SourceGraphic" in2="effect1_dropShadow_1161_3797" result="shape"/>
</filter>
<filter id="filter1_d_1161_3797" x="11.5508" y="99.5957" width="124.469" height="62.9512" filterUnits="userSpaceOnUse" color-interpolation-filters="sRGB">
<feFlood flood-opacity="0" result="BackgroundImageFix"/>
<feColorMatrix in="SourceAlpha" type="matrix" values="0 0 0 0 0 0 0 0 0 0 0 0 0 0 0 0 0 0 127 0" result="hardAlpha"/>
<feOffset dy="2"/>
<feComposite in2="hardAlpha" operator="out"/>
<feColorMatrix type="matrix" values="0 0 0 0 1 0 0 0 0 1 0 0 0 0 1 0 0 0 1 0"/>
<feBlend mode="normal" in2="BackgroundImageFix" result="effect1_dropShadow_1161_3797"/>
<feBlend mode="normal" in="SourceGraphic" in2="effect1_dropShadow_1161_3797" result="shape"/>
</filter>
<filter id="filter2_d_1161_3797" x="33.5078" y="126.35" width="16.9141" height="7.94141" filterUnits="userSpaceOnUse" color-interpolation-filters="sRGB">
<feFlood flood-opacity="0" result="BackgroundImageFix"/>
<feColorMatrix in="SourceAlpha" type="matrix" values="0 0 0 0 0 0 0 0 0 0 0 0 0 0 0 0 0 0 127 0" result="hardAlpha"/>
<feOffset dy="1"/>
<feComposite in2="hardAlpha" operator="out"/>
<feColorMatrix type="matrix" values="0 0 0 0 1 0 0 0 0 1 0 0 0 0 1 0 0 0 1 0"/>
<feBlend mode="normal" in2="BackgroundImageFix" result="effect1_dropShadow_1161_3797"/>
<feBlend mode="normal" in="SourceGraphic" in2="effect1_dropShadow_1161_3797" result="shape"/>
</filter>
<filter id="filter3_d_1161_3797" x="96.7344" y="125.644" width="17.6211" height="9.85938" filterUnits="userSpaceOnUse" color-interpolation-filters="sRGB">
<feFlood flood-opacity="0" result="BackgroundImageFix"/>
<feColorMatrix in="SourceAlpha" type="matrix" values="0 0 0 0 0 0 0 0 0 0 0 0 0 0 0 0 0 0 127 0" result="hardAlpha"/>
<feOffset dy="1"/>
<feComposite in2="hardAlpha" operator="out"/>
<feColorMatrix type="matrix" values="0 0 0 0 1 0 0 0 0 1 0 0 0 0 1 0 0 0 1 0"/>
<feBlend mode="normal" in2="BackgroundImageFix" result="effect1_dropShadow_1161_3797"/>
<feBlend mode="normal" in="SourceGraphic" in2="effect1_dropShadow_1161_3797" result="shape"/>
</filter>
<linearGradient id="paint0_linear_1161_3797" x1="135.621" y1="85.7537" x2="188.438" y2="85.7537" gradientUnits="userSpaceOnUse">
<stop stop-color="white"/>
<stop offset="1" stop-color="#5689BF"/>
</linearGradient>
<linearGradient id="paint1_linear_1161_3797" x1="147.737" y1="0.204102" x2="147.737" y2="179.497" gradientUnits="userSpaceOnUse">
<stop stop-color="#F5F8FC"/>
<stop offset="1" stop-color="#D8E3F2"/>
</linearGradient>
<linearGradient id="paint2_linear_1161_3797" x1="359.987" y1="0.204102" x2="359.987" y2="179.497" gradientUnits="userSpaceOnUse">
<stop stop-color="#F5F8FC"/>
<stop offset="1" stop-color="#D8E3F2"/>
</linearGradient>
</defs>
</svg>
