<svg width="33" height="37" viewBox="0 0 33 37" fill="none" xmlns="http://www.w3.org/2000/svg">
<path d="M31.7383 27.9697C31.794 27.9702 31.8487 27.956 31.897 27.9286C31.9454 27.9012 31.9855 27.8616 32.0133 27.8138C32.0412 27.766 32.0558 27.7117 32.0557 27.6565C32.0555 27.6012 32.0406 27.547 32.0125 27.4994L24.0705 14.0697L21.29 9.36638L16.3671 1.03815C16.3311 0.979038 16.2764 0.933353 16.2116 0.908169C16.1468 0.882984 16.0755 0.879702 16.0086 0.898829C15.9418 0.917955 15.8831 0.958424 15.8417 1.01397C15.8004 1.06952 15.7786 1.13706 15.7798 1.20613V18.4824C15.7784 18.5388 15.7619 18.5938 15.7322 18.6419C15.7025 18.6899 15.6606 18.7294 15.6106 18.7562L7.43674 23.3185L0.159792 27.3852C0.0991287 27.4191 0.0515213 27.4721 0.0244408 27.5358C-0.00264359 27.5995 -0.00767899 27.6703 0.0101242 27.7371C0.0279236 27.804 0.0675583 27.8631 0.122814 27.9051C0.178068 27.9472 0.245821 27.9699 0.315472 27.9697H31.7383Z" fill="#DBDBDB"/>
<path d="M31.7383 27.9697C31.794 27.9702 31.8487 27.956 31.897 27.9286C31.9454 27.9012 31.9855 27.8616 32.0133 27.8138C32.0412 27.766 32.0558 27.7117 32.0557 27.6565C32.0555 27.6012 32.0406 27.547 32.0125 27.4994L24.0705 14.0697L21.29 9.36638L16.3671 1.03815C16.3311 0.979038 16.2764 0.933353 16.2116 0.908169C16.1468 0.882984 16.0755 0.879702 16.0086 0.898829C15.9418 0.917955 15.8831 0.958424 15.8417 1.01397C15.8004 1.06952 15.7786 1.13706 15.7798 1.20613V18.4824C15.7784 18.5388 15.7619 18.5938 15.7322 18.6419C15.7025 18.6899 15.6606 18.7294 15.6106 18.7562L7.43674 23.3185L0.159792 27.3852C0.0991287 27.4191 0.0515213 27.4721 0.0244408 27.5358C-0.00264359 27.5995 -0.00767899 27.6703 0.0101242 27.7371C0.0279236 27.804 0.0675583 27.8631 0.122814 27.9051C0.178068 27.9472 0.245821 27.9699 0.315472 27.9697H31.7383Z" fill="url(#paint0_linear_5_15672)"/>
<path d="M31.7383 27.9697C31.794 27.9702 31.8487 27.956 31.897 27.9286C31.9454 27.9012 31.9855 27.8616 32.0133 27.8138C32.0412 27.766 32.0558 27.7117 32.0557 27.6565C32.0555 27.6012 32.0406 27.547 32.0125 27.4994L24.0705 14.0697L21.29 9.36638L16.3671 1.03815C16.3311 0.979038 16.2764 0.933353 16.2116 0.908169C16.1468 0.882984 16.0755 0.879702 16.0086 0.898829C15.9418 0.917955 15.8831 0.958424 15.8417 1.01397C15.8004 1.06952 15.7786 1.13706 15.7798 1.20613V18.4824C15.7784 18.5388 15.7619 18.5938 15.7322 18.6419C15.7025 18.6899 15.6606 18.7294 15.6106 18.7562L7.43674 23.3185L0.159792 27.3852C0.0991287 27.4191 0.0515213 27.4721 0.0244408 27.5358C-0.00264359 27.5995 -0.00767899 27.6703 0.0101242 27.7371C0.0279236 27.804 0.0675583 27.8631 0.122814 27.9051C0.178068 27.9472 0.245821 27.9699 0.315472 27.9697H31.7383Z" fill="url(#paint1_angular_5_15672)" fill-opacity="0.5"/>
<path d="M0.31732 9.26856C0.261685 9.26812 0.206922 9.28232 0.158614 9.30971C0.110307 9.33711 0.0701817 9.37672 0.0423193 9.42452C0.0144569 9.47232 -0.000147477 9.5266 1.12277e-06 9.58182C0.000149722 9.63705 0.0150367 9.69125 0.0431559 9.7389L7.98519 23.1686L10.7657 27.8719L15.6886 36.2001C15.7246 36.2592 15.7792 36.3049 15.844 36.3301C15.9088 36.3553 15.9802 36.3586 16.047 36.3395C16.1139 36.3203 16.1726 36.2799 16.2139 36.2243C16.2553 36.1688 16.277 36.1012 16.2758 36.0322V18.7558C16.2773 18.6995 16.2937 18.6445 16.3234 18.5964C16.3531 18.5483 16.3951 18.5089 16.4451 18.482L24.6189 13.9198L31.8959 9.85312C31.9565 9.81916 32.0041 9.76618 32.0312 9.70248C32.0583 9.63879 32.0633 9.56798 32.0455 9.50115C32.0277 9.43431 31.9881 9.37522 31.9328 9.33313C31.8776 9.29105 31.8098 9.26834 31.7402 9.26856H0.31732Z" fill="url(#paint2_angular_5_15672)"/>
<defs>
<linearGradient id="paint0_linear_5_15672" x1="30.2139" y1="27.9697" x2="6.93161" y2="8.41099" gradientUnits="userSpaceOnUse">
<stop stop-color="#C8C9CB"/>
<stop offset="0.578125" stop-color="#6E6E70"/>
<stop offset="0.971208" stop-color="#BDBEC0"/>
</linearGradient>
<radialGradient id="paint1_angular_5_15672" cx="0" cy="0" r="1" gradientUnits="userSpaceOnUse" gradientTransform="translate(14.125 17.4995) rotate(30.1218) scale(15.3186 18.1313)">
<stop stop-color="#D8D8D8"/>
<stop offset="0.513271" stop-color="#B8B8B8" stop-opacity="0.492119"/>
<stop offset="1" stop-color="#9A9A9A" stop-opacity="0"/>
</radialGradient>
<radialGradient id="paint2_angular_5_15672" cx="0" cy="0" r="1" gradientUnits="userSpaceOnUse" gradientTransform="translate(0.374999 9.26855) rotate(30.3602) scale(25.9311 30.6923)">
<stop/>
<stop offset="1" stop-color="#615F5F"/>
</radialGradient>
</defs>
</svg>
