<svg width="34" height="37" viewBox="0 0 34 37" fill="none" xmlns="http://www.w3.org/2000/svg">
<path d="M32.9889 27.8398C33.0445 27.8403 33.0993 27.8261 33.1476 27.7987C33.1959 27.7713 33.236 27.7317 33.2638 27.6839C33.2917 27.6361 33.3063 27.5818 33.3062 27.5266C33.306 27.4714 33.2911 27.4172 33.263 27.3696L25.3223 13.9422L22.5423 9.23967L17.6202 0.912853C17.5842 0.853753 17.5296 0.808077 17.4648 0.782896C17.4 0.757715 17.3287 0.754434 17.2618 0.773558C17.195 0.792682 17.1363 0.833142 17.095 0.888683C17.0536 0.944225 17.0319 1.01175 17.0331 1.0808V18.3542C17.0316 18.4105 17.0152 18.4655 16.9855 18.5136C16.9558 18.5616 16.9138 18.6011 16.8639 18.6279L8.69142 23.1894L1.41571 27.2554C1.35506 27.2893 1.30746 27.3423 1.28038 27.406C1.25331 27.4697 1.24827 27.5405 1.26607 27.6073C1.28387 27.6741 1.32349 27.7332 1.37874 27.7753C1.43399 27.8174 1.50173 27.8401 1.57136 27.8398H32.9889Z" fill="url(#paint0_linear_712_22)"/>
<path fill-rule="evenodd" clip-rule="evenodd" d="M17.0284 18.4023C17.0214 18.4417 17.007 18.4795 16.9857 18.5139C16.956 18.5619 16.9141 18.6014 16.8641 18.6282L8.69166 23.1896L1.41595 27.2557C1.3553 27.2896 1.3077 27.3426 1.28063 27.4063C1.25355 27.47 1.24851 27.5407 1.26631 27.6076C1.28411 27.6744 1.32374 27.7335 1.37898 27.7756C1.43423 27.8176 1.50197 27.8403 1.57161 27.8401H32.9891C33.0448 27.8406 33.0995 27.8264 33.1478 27.799C33.1961 27.7716 33.2362 27.732 33.2641 27.6842C33.2695 27.6749 33.2744 27.6653 33.2788 27.6555C30.366 26.0132 27.9786 24.6443 25.5912 23.2753C22.969 21.7717 20.3468 20.2681 17.0284 18.4023Z" fill="url(#paint1_linear_712_22)"/>
<path d="M1.29578 9.14845C1.24016 9.148 1.1854 9.1622 1.1371 9.18959C1.0888 9.21698 1.04869 9.25659 1.02083 9.30438C0.99297 9.35217 0.978368 9.40644 0.978517 9.46165C0.978665 9.51687 0.99355 9.57106 1.02166 9.6187L8.96235 23.0461L11.7423 27.7486L16.6644 36.0754C16.7004 36.1345 16.7551 36.1802 16.8199 36.2054C16.8846 36.2306 16.956 36.2338 17.0228 36.2147C17.0897 36.1956 17.1483 36.1551 17.1897 36.0996C17.231 36.0441 17.2528 35.9765 17.2516 35.9075V18.6341C17.2531 18.5777 17.2695 18.5228 17.2992 18.4747C17.3289 18.4266 17.3708 18.3872 17.4208 18.3604L25.5932 13.7989L32.869 9.73291C32.9296 9.69894 32.9772 9.64597 33.0043 9.58229C33.0314 9.51861 33.0364 9.44781 33.0186 9.38099C33.0008 9.31416 32.9612 9.25509 32.9059 9.21301C32.8507 9.17093 32.7829 9.14822 32.7133 9.14845H1.29578Z" fill="url(#paint2_linear_712_22)"/>
<path fill-rule="evenodd" clip-rule="evenodd" d="M1.03169 9.28711L17.2806 18.5095C17.2626 18.5485 17.2527 18.5909 17.2516 18.6341V35.9075C17.2528 35.9766 17.231 36.0441 17.1897 36.0996C17.1483 36.1552 17.0897 36.1956 17.0228 36.2148C16.956 36.2339 16.8846 36.2306 16.8199 36.2054C16.7551 36.1802 16.7004 36.1346 16.6644 36.0755L11.7423 27.7486L8.96235 23.0461L1.02167 9.61873C0.993551 9.57109 0.978666 9.51689 0.978517 9.46168C0.978369 9.40647 0.992971 9.3522 1.02083 9.30441C1.02426 9.29852 1.02789 9.29275 1.03169 9.28711Z" fill="#030303"/>
<defs>
<linearGradient id="paint0_linear_712_22" x1="17.2809" y1="1.29425" x2="34.812" y2="25.9886" gradientUnits="userSpaceOnUse">
<stop stop-color="#B3B3B5"/>
<stop offset="0.442708" stop-color="#7C7D7E"/>
<stop offset="0.567708" stop-color="#898A8B"/>
<stop offset="0.854167" stop-color="#BABABB"/>
<stop offset="1" stop-color="#DCDCDC"/>
<stop offset="1" stop-color="#C4C5C5"/>
</linearGradient>
<linearGradient id="paint1_linear_712_22" x1="9.1792" y1="26.4375" x2="28.3667" y2="26.5625" gradientUnits="userSpaceOnUse">
<stop stop-color="#A1A1A2"/>
<stop offset="1" stop-color="#CDCDCE"/>
</linearGradient>
<linearGradient id="paint2_linear_712_22" x1="26.144" y1="9.64148" x2="9.3745" y2="23.8206" gradientUnits="userSpaceOnUse">
<stop stop-color="#555555"/>
<stop offset="1" stop-color="#5D5C5C"/>
</linearGradient>
</defs>
</svg>
