<svg width="33" height="37" viewBox="0 0 33 37" fill="none" xmlns="http://www.w3.org/2000/svg">
<path d="M32.0185 27.9697C32.0742 27.9702 32.1289 27.956 32.1772 27.9286C32.2255 27.9012 32.2657 27.8616 32.2935 27.8138C32.3214 27.766 32.336 27.7117 32.3358 27.6565C32.3357 27.6012 32.3208 27.547 32.2927 27.4994L24.3507 14.0697L21.5702 9.36638L16.6472 1.03815C16.6112 0.979038 16.5566 0.933353 16.4918 0.908169C16.427 0.882984 16.3557 0.879702 16.2888 0.898829C16.2219 0.917955 16.1633 0.958424 16.1219 1.01397C16.0806 1.06952 16.0588 1.13706 16.06 1.20613V18.4824C16.0585 18.5388 16.0421 18.5938 16.0124 18.6419C15.9827 18.6899 15.9407 18.7294 15.8908 18.7562L7.71692 23.3185L0.439974 27.3852C0.379311 27.4191 0.331703 27.4721 0.304623 27.5358C0.277538 27.5995 0.272503 27.6703 0.290306 27.7371C0.308105 27.804 0.34774 27.8631 0.402996 27.9051C0.45825 27.9472 0.526003 27.9699 0.595654 27.9697H32.0185Z" fill="#DBDBDB"/>
<path d="M32.0185 27.9697C32.0741 27.9702 32.1289 27.956 32.1772 27.9286C32.2255 27.9012 32.2656 27.8616 32.2935 27.8138C32.3213 27.766 32.3359 27.7117 32.3358 27.6565C32.3356 27.6012 32.3207 27.547 32.2926 27.4994L24.3506 14.0697L21.5701 9.36638L16.6472 1.03815C16.6112 0.979038 16.5565 0.933353 16.4917 0.908169C16.4269 0.882984 16.3556 0.879702 16.2887 0.898829C16.2219 0.917955 16.1632 0.958424 16.1219 1.01397C16.0805 1.06952 16.0587 1.13706 16.06 1.20613V18.4824C16.0585 18.5388 16.0421 18.5938 16.0124 18.6419C15.9826 18.6899 15.9407 18.7294 15.8907 18.7562L7.71686 23.3185L0.439913 27.3852C0.37925 27.4191 0.331642 27.4721 0.304562 27.5358C0.277477 27.5995 0.272442 27.6703 0.290245 27.7371C0.308044 27.804 0.347679 27.8631 0.402935 27.9051C0.458189 27.9472 0.525942 27.9699 0.595592 27.9697H32.0185Z" fill="#DBDBDB"/>
<path d="M32.0185 27.9697C32.0741 27.9702 32.1289 27.956 32.1772 27.9286C32.2255 27.9012 32.2656 27.8616 32.2935 27.8138C32.3213 27.766 32.3359 27.7117 32.3358 27.6565C32.3356 27.6012 32.3207 27.547 32.2926 27.4994L24.3506 14.0697L21.5701 9.36638L16.6472 1.03815C16.6112 0.979038 16.5565 0.933353 16.4917 0.908169C16.4269 0.882984 16.3556 0.879702 16.2887 0.898829C16.2219 0.917955 16.1632 0.958424 16.1219 1.01397C16.0805 1.06952 16.0587 1.13706 16.06 1.20613V18.4824C16.0585 18.5388 16.0421 18.5938 16.0124 18.6419C15.9826 18.6899 15.9407 18.7294 15.8907 18.7562L7.71686 23.3185L0.439913 27.3852C0.37925 27.4191 0.331642 27.4721 0.304562 27.5358C0.277477 27.5995 0.272442 27.6703 0.290245 27.7371C0.308044 27.804 0.347679 27.8631 0.402935 27.9051C0.458189 27.9472 0.525942 27.9699 0.595592 27.9697H32.0185Z" fill="url(#paint0_linear_5_9206)"/>
<path d="M32.0185 27.9697C32.0741 27.9702 32.1289 27.956 32.1772 27.9286C32.2255 27.9012 32.2656 27.8616 32.2935 27.8138C32.3213 27.766 32.3359 27.7117 32.3358 27.6565C32.3356 27.6012 32.3207 27.547 32.2926 27.4994L24.3506 14.0697L21.5701 9.36638L16.6472 1.03815C16.6112 0.979038 16.5565 0.933353 16.4917 0.908169C16.4269 0.882984 16.3556 0.879702 16.2887 0.898829C16.2219 0.917955 16.1632 0.958424 16.1219 1.01397C16.0805 1.06952 16.0587 1.13706 16.06 1.20613V18.4824C16.0585 18.5388 16.0421 18.5938 16.0124 18.6419C15.9826 18.6899 15.9407 18.7294 15.8907 18.7562L7.71686 23.3185L0.439913 27.3852C0.37925 27.4191 0.331642 27.4721 0.304562 27.5358C0.277477 27.5995 0.272442 27.6703 0.290245 27.7371C0.308044 27.804 0.347679 27.8631 0.402935 27.9051C0.458189 27.9472 0.525942 27.9699 0.595592 27.9697H32.0185Z" fill="url(#paint1_angular_5_9206)" fill-opacity="0.5"/>
<path d="M0.597105 9.26856C0.541471 9.26812 0.486707 9.28232 0.438399 9.30971C0.390092 9.33711 0.349967 9.37672 0.322104 9.42452C0.294242 9.47232 0.279638 9.5266 0.279786 9.58182C0.279935 9.63705 0.294822 9.69125 0.322941 9.7389L8.26498 23.1686L11.0454 27.8719L15.9684 36.2001C16.0044 36.2592 16.059 36.3049 16.1238 36.3301C16.1886 36.3553 16.26 36.3586 16.3268 36.3395C16.3937 36.3203 16.4523 36.2799 16.4937 36.2243C16.5351 36.1688 16.5568 36.1012 16.5556 36.0322V18.7558C16.5571 18.6995 16.5735 18.6445 16.6032 18.5964C16.6329 18.5483 16.6749 18.5089 16.7248 18.482L24.8987 13.9198L32.1757 9.85312C32.2363 9.81916 32.2839 9.76618 32.311 9.70248C32.3381 9.63879 32.3431 9.56798 32.3253 9.50115C32.3075 9.43431 32.2679 9.37522 32.2126 9.33313C32.1574 9.29105 32.0896 9.26834 32.02 9.26856H0.597105Z" fill="white"/>
<defs>
<linearGradient id="paint0_linear_5_9206" x1="30.494" y1="27.9697" x2="7.21174" y2="8.41099" gradientUnits="userSpaceOnUse">
<stop stop-color="#C8C9CB"/>
<stop offset="0.578125" stop-color="#6E6E70"/>
<stop offset="0.971208" stop-color="#BDBEC0"/>
</linearGradient>
<radialGradient id="paint1_angular_5_9206" cx="0" cy="0" r="1" gradientUnits="userSpaceOnUse" gradientTransform="translate(14.4051 17.4995) rotate(30.1218) scale(15.3186 18.1313)">
<stop stop-color="#D8D8D8"/>
<stop offset="0.513271" stop-color="#B8B8B8" stop-opacity="0.492119"/>
<stop offset="1" stop-color="#9A9A9A" stop-opacity="0"/>
</radialGradient>
</defs>
</svg>
