<svg width="33" height="37" viewBox="0 0 33 37" fill="none" xmlns="http://www.w3.org/2000/svg">
<path d="M32.5997 27.7803C32.6554 27.7807 32.7101 27.7665 32.7584 27.7391C32.8067 27.7117 32.8468 27.6721 32.8747 27.6243C32.9025 27.5765 32.9171 27.5223 32.917 27.4671C32.9168 27.4118 32.902 27.3577 32.8738 27.31L24.9332 13.8826L22.1532 9.1801L17.2311 0.853283C17.1951 0.794183 17.1404 0.748507 17.0757 0.723326C17.0109 0.698145 16.9395 0.694863 16.8727 0.713987C16.8058 0.733111 16.7472 0.773572 16.7058 0.829113C16.6645 0.884654 16.6427 0.95218 16.6439 1.02123V18.2946C16.6425 18.351 16.626 18.4059 16.5963 18.454C16.5666 18.5021 16.5247 18.5415 16.4747 18.5684L8.30226 23.1298L1.02655 27.1958C0.965898 27.2298 0.918301 27.2827 0.891224 27.3464C0.864147 27.4101 0.859109 27.4809 0.876907 27.5477C0.894706 27.6145 0.934334 27.6736 0.98958 27.7157C1.04483 27.7578 1.11257 27.7805 1.1822 27.7803H32.5997Z" fill="url(#paint0_linear_712_23)"/>
<path fill-rule="evenodd" clip-rule="evenodd" d="M16.6393 18.3428C16.6322 18.3821 16.6178 18.42 16.5966 18.4543C16.5669 18.5023 16.5249 18.5418 16.475 18.5686L8.3025 23.1301L1.0268 27.1961C0.966143 27.23 0.918544 27.283 0.891466 27.3467C0.864389 27.4104 0.859354 27.4812 0.877153 27.548C0.894951 27.6148 0.934577 27.6739 0.989823 27.716C1.04507 27.758 1.11281 27.7807 1.18245 27.7805H32.6C32.6556 27.781 32.7104 27.7668 32.7586 27.7394C32.8069 27.712 32.8471 27.6724 32.8749 27.6246C32.8804 27.6153 32.8853 27.6057 32.8897 27.5959C29.9769 25.9537 27.5894 24.5847 25.202 23.2157C22.5798 21.7121 19.9576 20.2085 16.6393 18.3428Z" fill="url(#paint1_linear_712_23)"/>
<path d="M0.906866 9.08888C0.851241 9.08843 0.796486 9.10263 0.748187 9.13002C0.699888 9.15741 0.659769 9.19702 0.631912 9.24481C0.604054 9.2926 0.589452 9.34687 0.589601 9.40208C0.589749 9.4573 0.604634 9.51149 0.632748 9.55913L8.57343 22.9865L11.3534 27.689L16.2755 36.0159C16.3115 36.075 16.3662 36.1206 16.4309 36.1458C16.4957 36.171 16.5671 36.1743 16.6339 36.1552C16.7008 36.136 16.7594 36.0956 16.8008 36.04C16.8421 35.9845 16.8639 35.917 16.8627 35.8479V18.5745C16.8641 18.5182 16.8805 18.4632 16.9102 18.4151C16.94 18.3671 16.9819 18.3276 17.0319 18.3008L25.2043 13.7393L32.48 9.67334C32.5407 9.63937 32.5883 9.5864 32.6154 9.52272C32.6424 9.45904 32.6475 9.38824 32.6297 9.32142C32.6119 9.25459 32.5723 9.19552 32.517 9.15344C32.4618 9.11136 32.394 9.08865 32.3244 9.08888H0.906866Z" fill="white"/>
<defs>
<linearGradient id="paint0_linear_712_23" x1="16.8917" y1="1.23468" x2="34.4228" y2="25.929" gradientUnits="userSpaceOnUse">
<stop stop-color="#B3B3B5"/>
<stop offset="0.442708" stop-color="#7C7D7E"/>
<stop offset="0.567708" stop-color="#898A8B"/>
<stop offset="0.854167" stop-color="#BABABB"/>
<stop offset="1" stop-color="#DCDCDC"/>
<stop offset="1" stop-color="#C4C5C5"/>
</linearGradient>
<linearGradient id="paint1_linear_712_23" x1="8.79004" y1="26.3779" x2="27.9775" y2="26.5029" gradientUnits="userSpaceOnUse">
<stop stop-color="#A1A1A2"/>
<stop offset="1" stop-color="#CDCDCE"/>
</linearGradient>
</defs>
</svg>
