<?xml version="1.0" encoding="utf-8"?>
<!-- Generator: Adobe Illustrator 26.0.2, SVG Export Plug-In . SVG Version: 6.00 Build 0)  -->
<svg version="1.1" xmlns="http://www.w3.org/2000/svg" xmlns:xlink="http://www.w3.org/1999/xlink" x="0px" y="0px"
	 viewBox="0 0 189 54" style="enable-background:new 0 0 189 54;" xml:space="preserve">
<style type="text/css">
	.st0{clip-path:url(#SVGID_00000002364788067648023460000017000094044765088645_);}
	.st1{fill:#FFFFFF;}
	.st2{fill:url(#SVGID_00000119797944956851185880000007662805824378461604_);}
	.st3{fill-rule:evenodd;clip-rule:evenodd;fill:url(#SVGID_00000085951651623837813000000007273820862169817790_);}
</style>
<g id="레이어_1">
	<g id="레이어_1_00000039814472612993537810000009323147704060080559_">
		<g>
			<g>
				<defs>
					<rect id="SVGID_1_" x="0.4" y="0.7" width="187.8" height="52.7"/>
				</defs>
				<clipPath id="SVGID_00000157993644652935964830000015744006491763693736_">
					<use xlink:href="#SVGID_1_"  style="overflow:visible;"/>
				</clipPath>
				<g style="clip-path:url(#SVGID_00000157993644652935964830000015744006491763693736_);">
					<path class="st1" d="M69.5,10.8c-1.2-0.6-2.5-0.9-3.8-0.9s-2.6,0.3-3.8,0.9c-1.1,0.6-2,1.6-2.6,2.7c-0.6,1.2-0.9,2.6-0.9,4v5.9
						c0,1.4,0.3,2.8,0.9,4c0.6,1.1,1.5,2.1,2.6,2.7c1.2,0.6,2.5,0.9,3.8,0.9s2.6-0.3,3.8-0.9c1-0.7,1.9-1.6,2.4-2.7
						c0.6-1.3,0.9-2.6,0.9-4v-5.9c0-1.4-0.3-2.8-0.9-4C71.4,12.3,70.6,11.4,69.5,10.8z M70,23.5c0,0.8-0.2,1.6-0.5,2.4
						c-0.3,0.7-0.9,1.2-1.5,1.6c-0.7,0.4-1.5,0.6-2.3,0.6s-1.6-0.2-2.3-0.6c-0.6-0.4-1.2-1-1.5-1.6c-0.4-0.7-0.6-1.6-0.6-2.4v-6.1
						c0-0.8,0.2-1.7,0.6-2.4c0.3-0.7,0.9-1.2,1.5-1.6c0.7-0.4,1.5-0.6,2.3-0.6s1.6,0.2,2.3,0.6c0.6,0.4,1.2,1,1.5,1.6
						c0.4,0.7,0.5,1.6,0.5,2.4V23.5z"/>
					<path class="st1" d="M94.7,21.1c-0.6-0.5-1.4-0.8-2.2-0.9c0.8-0.1,1.5-0.4,2.1-0.9c0.6-0.4,1-1,1.3-1.6s0.4-1.3,0.4-2
						c0-1-0.2-2.1-0.7-3c-0.5-0.8-1.2-1.5-2-2c-1.1-0.5-2.2-0.7-3.4-0.7H82v20.8h8.5c1.1,0,2.2-0.2,3.3-0.7c0.9-0.4,1.6-1.1,2.1-2
						s0.8-1.9,0.7-3c0-0.8-0.1-1.6-0.5-2.4C95.8,22.1,95.3,21.6,94.7,21.1z M85,12.8h4.8c1-0.1,2,0.2,2.8,0.8
						c0.3,0.3,0.6,0.7,0.7,1.1c0.2,0.4,0.2,0.9,0.2,1.3s0,0.8-0.2,1.2c-0.1,0.4-0.4,0.7-0.6,1c-0.7,0.5-1.5,0.8-2.4,0.7H85V12.8z
						 M93.7,25c0,0.5-0.1,0.9-0.2,1.3c-0.2,0.4-0.5,0.8-0.8,1.1c-1,0.6-2.1,0.9-3.2,0.8H85v-6.7h5.2c0.7,0,1.4,0.1,2,0.4
						c0.5,0.2,0.9,0.7,1.2,1.2C93.6,23.7,93.7,24.3,93.7,25L93.7,25z"/>
					<path class="st1" d="M107,10.1h-1.4v20.8h2.9v-0.2c0,0,0,0.1,0.1,0.1l0.1,0.1h7.4c0,0,0,0,0.1,0c0,0,0,0,0.1,0l2.3-2.4l0.1-0.1
						v-0.1c0,0,0-0.1-0.1-0.1s-0.1,0-0.1,0h-9.6c-0.1,0-0.1,0-0.1,0.1l-0.1,0.1V22h8.9v-2.8h-8.8v-6.3h10.4v-2.7H107V10.1z"/>
					<path class="st1" d="M140.3,25.5L130.5,10h-2.7v20.8h2.9V15.5l9.8,15.3h2.7V10h-2.9V25.5z"/>
					<path class="st1" d="M155.9,21.9h8.9v-2.8h-8.9v-6.3h7.7l2.4-2.4l0.1-0.1v-0.1c0,0,0-0.1-0.1-0.1c0,0-0.1,0-0.1-0.1H156h-3
						v20.9h13.4V28h-10.5V21.9z"/>
					<path class="st1" d="M188.4,12.8V10h-10.2h-1.5h-1.4v20.9h2.9v-8.8h8.6v-2.8h-8.6v-6.5C178.2,12.8,188.4,12.8,188.4,12.8z"/>
					<path class="st1" d="M62.4,38.9c-0.3-0.2-0.7-0.2-1-0.2s-0.7,0.1-1,0.2c-0.3,0.2-0.5,0.4-0.6,0.7c-0.2,0.3-0.2,0.7-0.2,1.1v1.5
						c0,0.4,0.1,0.7,0.2,1.1c0.1,0.3,0.4,0.5,0.6,0.7c0.3,0.2,0.7,0.2,1,0.2s0.7-0.1,1-0.2c0.3-0.2,0.5-0.4,0.6-0.7
						c0.2-0.3,0.3-0.7,0.2-1.1v-1.5c0-0.4-0.1-0.7-0.2-1.1C62.9,39.3,62.6,39.1,62.4,38.9z M62.6,42.2c0,0.3,0,0.5-0.1,0.7
						s-0.3,0.3-0.4,0.5c-0.2,0.1-0.4,0.2-0.7,0.2c-0.2,0-0.5,0-0.6-0.2c-0.2-0.1-0.3-0.3-0.4-0.5c-0.1-0.2-0.1-0.5-0.1-0.7v-1.6
						c0-0.2,0-0.5,0.1-0.7s0.2-0.4,0.4-0.5s0.4-0.2,0.6-0.2c0.2,0,0.5,0.1,0.7,0.2c0.2,0.1,0.3,0.3,0.4,0.5c0.1,0.2,0.2,0.5,0.1,0.7
						V42.2z"/>
					<path class="st1" d="M73.5,38.9c-0.3-0.1-0.6-0.2-0.9-0.2h-2.1v5.4h0.6V42h1.4c0.3,0,0.6-0.1,0.9-0.2c0.2-0.1,0.4-0.3,0.6-0.6
						c0.2-0.2,0.2-0.5,0.3-0.8c0-0.3-0.1-0.6-0.2-0.9C74,39.3,73.8,39.1,73.5,38.9z M73.5,40.9c-0.1,0.2-0.2,0.3-0.3,0.4
						c-0.1,0.1-0.3,0.1-0.5,0.1h-1.5v-2.1h1.5c0.2,0,0.3,0,0.5,0.1c0.1,0.1,0.3,0.2,0.3,0.4s0,0.4,0,0.6
						C73.6,40.6,73.6,40.8,73.5,40.9z"/>
					<path class="st1" d="M81.9,38.7h-0.4v5.4h0.4h0.3H85v-0.6h-2.8v-1.8h2.4v-0.6h-2.4v-1.8H85v-0.6h-2.8
						C82.2,38.7,81.9,38.7,81.9,38.7z"/>
					<path class="st1" d="M95.7,43L93,38.7h-0.6v5.4H93v-4.2l2.7,4.2h0.6v-5.4h-0.6V43z"/>
					<path class="st1" d="M123.8,41.6c-0.2-0.1-0.4-0.2-0.6-0.2c0.2,0,0.4-0.1,0.6-0.2c0.1-0.1,0.2-0.2,0.3-0.4
						c0.1-0.2,0.1-0.3,0.1-0.5c0-0.3-0.1-0.5-0.2-0.8c-0.1-0.2-0.3-0.4-0.5-0.5c-0.3-0.1-0.6-0.2-0.9-0.2h-2.1v5.4h2.2
						c0.3,0,0.6-0.1,0.8-0.2c0.2-0.1,0.4-0.3,0.6-0.5c0.1-0.2,0.2-0.5,0.2-0.8c0-0.2,0-0.4-0.1-0.6
						C124.1,41.9,123.9,41.7,123.8,41.6z M122.5,39.3c0.3,0,0.6,0.1,0.8,0.2c0.1,0.1,0.2,0.2,0.2,0.3s0.1,0.2,0.1,0.4
						c0,0.1,0,0.2-0.1,0.3c0,0.1-0.1,0.2-0.2,0.3c-0.2,0.2-0.5,0.2-0.7,0.2h-1.4v-1.8L122.5,39.3L122.5,39.3z M123.6,42.6
						c0,0.1,0,0.3-0.1,0.4c-0.1,0.1-0.1,0.2-0.2,0.3c-0.3,0.2-0.6,0.3-0.9,0.2h-1.3v-1.9h1.4c0.2,0,0.4,0,0.6,0
						c0.1,0.1,0.2,0.2,0.3,0.3c0.1,0.2,0.1,0.3,0.1,0.5L123.6,42.6L123.6,42.6z"/>
					<path class="st1" d="M132,38.7h-0.4v5.4h0.4h0.3h2.8v-0.6h-2.8v-1.8h2.4v-0.6h-2.4v-1.8h2.8v-0.6h-2.8
						C132.3,38.7,132,38.7,132,38.7z"/>
					<path class="st1" d="M145.8,43l-2.7-4.3h-0.6v5.4h0.6v-4.2l2.7,4.2h0.6v-5.4h-0.6V43z"/>
					<path class="st1" d="M154.4,38.7H154v5.4h0.4h0.3h2.8v-0.6h-2.8v-1.8h2.4v-0.6h-2.4v-1.8h2.8v-0.6h-2.8
						C154.7,38.7,154.4,38.7,154.4,38.7z"/>
					<path class="st1" d="M165.2,38.7h-0.4v5.4h0.6v-2.3h2.3v-0.6h-2.3v-1.9h2.7v-0.6h-2.7C165.4,38.7,165.2,38.7,165.2,38.7z"/>
					<path class="st1" d="M176.2,38.7h-0.6v5.4h0.6V38.7z"/>
					<path class="st1" d="M187.2,38.7h-3.8v0.6h1.6v4.8h0.6v-4.8h1.6L187.2,38.7L187.2,38.7z"/>
					<path class="st1" d="M115.8,44H101v0.2h14.8V44z"/>
				</g>
			</g>
		</g>
	</g>
</g>
<g id="레이어_2">
	
		<linearGradient id="SVGID_00000089539215766642777230000005856072465722110899_" gradientUnits="userSpaceOnUse" x1="11.6467" y1="43.9048" x2="35.6886" y2="10.0394" gradientTransform="matrix(1 0 0 -1 0 56)">
		<stop  offset="0" style="stop-color:#B3B3B5"/>
		<stop  offset="0.4427" style="stop-color:#7C7D7E"/>
		<stop  offset="0.5677" style="stop-color:#898A8B"/>
		<stop  offset="0.8542" style="stop-color:#BABABB"/>
		<stop  offset="1" style="stop-color:#DCDCDC"/>
		<stop  offset="1" style="stop-color:#C4C5C5"/>
	</linearGradient>
	<path style="fill:url(#SVGID_00000089539215766642777230000005856072465722110899_);" d="M48.7,37.5c0.1,0,0.2,0,0.2-0.1
		c0.1,0,0.1-0.1,0.2-0.2c0-0.1,0.1-0.1,0.1-0.2c0-0.1,0-0.2-0.1-0.2L38.2,18.4L34.4,12L27.7,0.5c0-0.1-0.1-0.1-0.2-0.2
		c-0.1,0-0.2,0-0.3,0c-0.1,0-0.2,0.1-0.2,0.2c-0.1,0.1-0.1,0.2-0.1,0.3v23.7c0,0.1,0,0.2-0.1,0.2c0,0.1-0.1,0.1-0.2,0.2l-11.2,6.3
		l-10,5.6c-0.1,0-0.1,0.1-0.2,0.2c0,0.1,0,0.2,0,0.3c0,0.1,0.1,0.2,0.2,0.2c0.1,0.1,0.2,0.1,0.3,0.1H48.7z"/>
	
		<linearGradient id="SVGID_00000093143858143006183960000016540586785349157508_" gradientUnits="userSpaceOnUse" x1="16.1162" y1="25.0121" x2="42.4296" y2="24.8407" gradientTransform="matrix(1 0 0 -1 0 56)">
		<stop  offset="0" style="stop-color:#A1A1A2"/>
		<stop  offset="1" style="stop-color:#CDCDCE"/>
	</linearGradient>
	<path style="fill-rule:evenodd;clip-rule:evenodd;fill:url(#SVGID_00000093143858143006183960000016540586785349157508_);" d="
		M26.9,24.5c0,0.1,0,0.1-0.1,0.2c0,0.1-0.1,0.1-0.2,0.2l-11.2,6.3l-10,5.6c-0.1,0-0.1,0.1-0.2,0.2c0,0.1,0,0.2,0,0.3
		c0,0.1,0.1,0.2,0.2,0.2c0.1,0.1,0.2,0.1,0.3,0.1h43.1c0.1,0,0.2,0,0.2-0.1c0.1,0,0.1-0.1,0.2-0.2c0,0,0,0,0,0
		c-4-2.3-7.3-4.1-10.5-6C35,29.1,31.4,27.1,26.9,24.5z"/>
	<path class="st1" d="M5.3,11.8c-0.1,0-0.2,0-0.2,0.1C5,11.9,4.9,12,4.9,12c0,0.1-0.1,0.1-0.1,0.2c0,0.1,0,0.2,0.1,0.2l10.9,18.4
		l3.8,6.4l6.8,11.4c0,0.1,0.1,0.1,0.2,0.2c0.1,0,0.2,0,0.3,0c0.1,0,0.2-0.1,0.2-0.2c0.1-0.1,0.1-0.2,0.1-0.3V24.8
		c0-0.1,0-0.2,0.1-0.2c0-0.1,0.1-0.1,0.2-0.2l11.2-6.3l10-5.6c0.1,0,0.1-0.1,0.2-0.2c0-0.1,0-0.2,0-0.3c0-0.1-0.1-0.2-0.2-0.2
		c-0.1-0.1-0.2-0.1-0.3-0.1H5.3z"/>
</g>
</svg>
