<svg width="189" height="54" viewBox="0 0 189 54" fill="none" xmlns="http://www.w3.org/2000/svg">
<g clip-path="url(#clip0_300_271)">
<path d="M69.5445 10.7504C68.3632 10.1367 67.0517 9.81641 65.7206 9.81641C64.3895 9.81641 63.0779 10.1367 61.8967 10.7504C60.7968 11.3745 59.9048 12.3083 59.3314 13.4355C58.6999 14.6822 58.3869 16.0659 58.4204 17.4631V23.3608C58.3869 24.7579 58.6999 26.1417 59.3314 27.3884C59.9048 28.5156 60.7968 29.4494 61.8967 30.0735C63.0779 30.6871 64.3895 31.0075 65.7206 31.0075C67.0517 31.0075 68.3632 30.6871 69.5445 30.0735C70.5772 29.4182 71.4073 28.4885 71.9419 27.3884C72.5625 26.1378 72.8749 24.7568 72.8529 23.3608V17.4631C72.8749 16.0671 72.5625 14.6861 71.9419 13.4355C71.4073 12.3354 70.5772 11.4057 69.5445 10.7504ZM70.024 23.4567C70.0339 24.2856 69.8534 25.1058 69.4965 25.8541C69.1581 26.5299 68.6342 27.0953 67.9862 27.4843C67.2958 27.8774 66.515 28.084 65.7206 28.084C64.9262 28.084 64.1454 27.8774 63.455 27.4843C62.8069 27.0953 62.2831 26.5299 61.9446 25.8541C61.5794 25.1078 61.3908 24.2875 61.3933 23.4567V17.3672C61.3908 16.5364 61.5794 15.7161 61.9446 14.9698C62.2831 14.294 62.8069 13.7285 63.455 13.3396C64.1454 12.9465 64.9262 12.7398 65.7206 12.7398C66.515 12.7398 67.2958 12.9465 67.9862 13.3396C68.6342 13.7285 69.1581 14.294 69.4965 14.9698C69.8534 15.7181 70.0339 16.5383 70.024 17.3672V23.4567Z" fill="#282828"/>
<path d="M94.7415 21.1308C94.1095 20.6364 93.3558 20.3217 92.5598 20.2198C93.3244 20.0988 94.0482 19.7944 94.6696 19.3328C95.2229 18.9142 95.6603 18.3613 95.9402 17.7265C96.2282 17.0944 96.3754 16.4073 96.3717 15.7127C96.3936 14.6665 96.1633 13.6304 95.7005 12.6919C95.2346 11.8464 94.5243 11.1613 93.6626 10.726C92.5953 10.2411 91.4298 10.0113 90.2583 10.0548H82.0352V30.8643H90.498C91.6238 30.8859 92.7395 30.648 93.7586 30.1691C94.6458 29.724 95.3864 29.0333 95.8922 28.1792C96.4039 27.2649 96.6605 26.2299 96.6354 25.1825C96.6562 24.3576 96.4924 23.5385 96.156 22.785C95.8275 22.1258 95.3417 21.5577 94.7415 21.1308ZM84.96 12.7638H89.7548C90.735 12.6926 91.7094 12.9638 92.5118 13.531C92.8388 13.8329 93.0913 14.2066 93.2493 14.6226C93.4074 15.0386 93.4668 15.4856 93.4229 15.9284C93.4538 16.3403 93.3972 16.7541 93.2567 17.1425C93.1162 17.531 92.8951 17.8852 92.6078 18.182C91.9269 18.7156 91.0736 18.9801 90.2104 18.9252H85.0319L84.96 12.7638ZM93.6866 24.9667C93.7121 25.4188 93.6323 25.8707 93.4534 26.2867C93.2745 26.7028 93.0015 27.0716 92.6558 27.3641C91.7024 28.0008 90.5618 28.2965 89.4192 28.2032H84.96V21.5384H90.1384C90.8331 21.5052 91.5251 21.6453 92.1523 21.9459C92.6644 22.1949 93.0781 22.6086 93.327 23.1207C93.5815 23.6935 93.7044 24.3161 93.6866 24.9427V24.9667Z" fill="#282828"/>
<path d="M107.04 10.0549H105.625V30.8645H108.55V30.6727C108.555 30.7218 108.577 30.7676 108.612 30.8025C108.647 30.8374 108.693 30.8593 108.742 30.8645H116.126C116.148 30.8752 116.173 30.8807 116.198 30.8807C116.222 30.8807 116.247 30.8752 116.27 30.8645L118.547 28.4671C118.58 28.4336 118.602 28.3912 118.611 28.3451C118.62 28.299 118.615 28.2513 118.598 28.208C118.58 28.1646 118.55 28.1274 118.511 28.101C118.472 28.0746 118.426 28.0602 118.379 28.0595H108.79C108.737 28.0654 108.688 28.0908 108.652 28.1306C108.617 28.1704 108.598 28.222 108.598 28.2753V21.8742H117.492V19.0932H108.646V12.788H119.075V10.0549H107.087H107.04Z" fill="#282828"/>
<path d="M140.267 25.5423L130.462 10.0071H127.801V30.7927H130.702V15.4972L140.483 30.7927H143.168V10.0071H140.267V25.5423Z" fill="#282828"/>
<path d="M155.853 21.8744H164.723V19.0934H155.853V12.7882H163.525L165.922 10.3908C165.953 10.3545 165.973 10.3108 165.981 10.264C165.988 10.2173 165.983 10.1693 165.966 10.1252C165.949 10.081 165.92 10.0423 165.883 10.0131C165.846 9.98391 165.801 9.9653 165.754 9.95923H155.901H153V30.8647H166.354V28.0357H155.853V21.8744Z" fill="#282828"/>
<path d="M188.384 12.8359V10.0549H178.171H176.685H175.246V30.9124H178.171V22.1379H186.802V19.3569H178.171V12.8359H188.384Z" fill="#282828"/>
<path d="M62.354 38.8958C62.0418 38.7378 61.6969 38.6555 61.347 38.6555C60.9972 38.6555 60.6523 38.7378 60.3402 38.8958C60.0611 39.0593 59.836 39.301 59.6929 39.5911C59.5348 39.9288 59.4529 40.2971 59.4531 40.6699V42.2043C59.4529 42.5771 59.5348 42.9454 59.6929 43.2831C59.836 43.5732 60.0611 43.8149 60.3402 43.9784C60.6523 44.1364 60.9972 44.2187 61.347 44.2187C61.6969 44.2187 62.0418 44.1364 62.354 43.9784C62.6331 43.8149 62.8581 43.5732 63.0012 43.2831C63.1704 42.9493 63.2529 42.5783 63.241 42.2043V40.6699C63.2529 40.2959 63.1704 39.9249 63.0012 39.5911C62.8581 39.301 62.6331 39.0593 62.354 38.8958ZM62.5937 42.2282C62.5991 42.4834 62.55 42.7367 62.4499 42.9714C62.3448 43.1558 62.1967 43.3121 62.0183 43.427C61.8154 43.5464 61.5823 43.6046 61.347 43.5948C61.1193 43.6056 60.8936 43.5471 60.6998 43.427C60.51 43.3263 60.3585 43.1663 60.2682 42.9714C60.1681 42.7367 60.1191 42.4834 60.1244 42.2282V40.646C60.1162 40.3983 60.1655 40.1522 60.2682 39.9267C60.3585 39.7258 60.5094 39.5581 60.6998 39.4472C60.8983 39.3386 61.1207 39.2809 61.347 39.2794C61.581 39.2809 61.8112 39.3384 62.0183 39.4472C62.1972 39.5717 62.3449 39.7358 62.4499 39.9267C62.5527 40.1522 62.6019 40.3983 62.5937 40.646V42.2282Z" fill="#282828"/>
<path d="M73.5225 38.92C73.2537 38.7897 72.9581 38.7241 72.6594 38.7282H70.5977V44.1703H71.221V42.0606H72.6594C72.9614 42.0689 73.2599 41.9942 73.5225 41.8449C73.7577 41.7099 73.9491 41.5102 74.0739 41.2695C74.2262 41.023 74.3167 40.7433 74.3376 40.4544C74.3459 40.1524 74.2713 39.8539 74.1219 39.5913C74.0053 39.3052 73.7936 39.0682 73.5225 38.92ZM73.5225 40.9338C73.4582 41.0906 73.3388 41.2185 73.1868 41.2934C73.0447 41.3877 72.8779 41.4378 72.7074 41.4373H71.221V39.3276H72.7074C72.8779 39.3271 73.0447 39.3772 73.1868 39.4714C73.3331 39.5539 73.4503 39.6795 73.5225 39.831C73.5587 40.0131 73.5587 40.2004 73.5225 40.3824C73.5637 40.5639 73.5637 40.7523 73.5225 40.9338Z" fill="#282828"/>
<path d="M81.8914 38.728H81.5078V44.1702H81.8914H82.1551H84.9601V43.5468H82.1551V41.7727H84.5525V41.1494H82.1551V39.3274H84.9601V38.728H82.1551H81.8914Z" fill="#282828"/>
<path d="M95.6527 43.0194L92.9197 38.728H92.3203V44.1462H92.9436V39.9028L95.6767 44.1462H96.276V38.728H95.6527V43.0194Z" fill="#282828"/>
<path d="M123.776 41.6049C123.614 41.4829 123.425 41.4007 123.225 41.3652C123.428 41.3405 123.619 41.2572 123.776 41.1255C123.918 41.0233 124.026 40.8815 124.088 40.7179C124.164 40.5525 124.205 40.3728 124.208 40.1905C124.206 39.9181 124.149 39.649 124.04 39.3993C123.914 39.1861 123.731 39.0118 123.512 38.8959C123.234 38.7719 122.93 38.7144 122.625 38.728H120.516V44.1702H122.697C122.988 44.1724 123.275 44.1067 123.536 43.9784C123.769 43.862 123.961 43.6782 124.088 43.4509C124.216 43.2156 124.282 42.9516 124.28 42.6838C124.281 42.4753 124.231 42.2697 124.136 42.0844C124.063 41.8938 123.939 41.7276 123.776 41.6049ZM122.505 39.3274C122.786 39.3041 123.066 39.3805 123.297 39.5432C123.388 39.6284 123.459 39.7329 123.504 39.849C123.55 39.9651 123.569 40.09 123.56 40.2144C123.566 40.3329 123.547 40.4512 123.506 40.5624C123.465 40.6735 123.402 40.7753 123.321 40.8617C123.114 41.0175 122.859 41.094 122.601 41.0775H121.163V39.3274H122.505ZM123.632 42.6358C123.64 42.7624 123.618 42.889 123.568 43.0055C123.518 43.122 123.441 43.2253 123.345 43.3071C123.078 43.4906 122.756 43.5754 122.434 43.5468H121.163V41.6529H122.601C122.799 41.6122 123.003 41.6122 123.201 41.6529C123.334 41.7337 123.442 41.8499 123.512 41.9885C123.594 42.1523 123.635 42.3331 123.632 42.516V42.6358Z" fill="#282828"/>
<path d="M132.043 38.728H131.684V44.1702H132.043H132.331H135.136V43.5468H132.331V41.7727H134.728V41.1494H132.331V39.3274H135.136V38.728H132.331H132.043Z" fill="#282828"/>
<path d="M145.805 43.0194L143.095 38.728H142.496V44.1462H143.119V39.9028L145.829 44.1462H146.452V38.728H145.805V43.0194Z" fill="#282828"/>
<path d="M154.438 38.728H154.055V44.1702H154.438H154.702H157.507V43.5468H154.702V41.7727H157.099V41.1494H154.702V39.3274H157.507V38.728H154.702H154.438Z" fill="#282828"/>
<path d="M165.227 38.728H164.867V44.1702H165.514V41.8207H167.84V41.1974H165.514V39.3274H168.248V38.728H165.514H165.227Z" fill="#282828"/>
<path d="M176.159 38.728H175.512V44.1702H176.159V38.728Z" fill="#282828"/>
<path d="M187.163 38.728H183.375V39.3274H184.957V44.1702H185.581V39.3274H187.163V38.728Z" fill="#282828"/>
<path d="M115.792 43.9546H101V44.1704H115.792V43.9546Z" fill="#282828"/>
<path d="M48.3135 37.2651C48.3886 37.2657 48.4626 37.2465 48.5279 37.2095C48.5932 37.1725 48.6474 37.119 48.685 37.0544C48.7227 36.9898 48.7424 36.9165 48.7422 36.8419C48.742 36.7673 48.7219 36.694 48.6839 36.6297L37.9537 18.4853L34.1971 12.1308L27.5458 0.878757C27.4972 0.798897 27.4234 0.737171 27.3358 0.703144C27.2483 0.669117 27.1519 0.664684 27.0615 0.690525C26.9712 0.71637 26.892 0.771042 26.8361 0.846096C26.7802 0.921146 26.7508 1.0124 26.7524 1.10571V24.4472C26.7504 24.5233 26.7283 24.5976 26.6881 24.6626C26.648 24.7275 26.5913 24.7808 26.5238 24.8171L15.4804 30.981L5.64871 36.4753C5.56675 36.5212 5.50243 36.5928 5.46584 36.6789C5.42925 36.7649 5.42244 36.8606 5.4465 36.9509C5.47055 37.0412 5.52409 37.121 5.59875 37.1779C5.6734 37.2347 5.76494 37.2654 5.85904 37.2651H48.3135Z" fill="#DBDBDB"/>
<path d="M48.3135 37.2651C48.3886 37.2657 48.4626 37.2465 48.5279 37.2095C48.5932 37.1725 48.6474 37.119 48.685 37.0544C48.7227 36.9898 48.7424 36.9165 48.7422 36.8419C48.742 36.7673 48.7219 36.694 48.6839 36.6297L37.9537 18.4853L34.1971 12.1308L27.5458 0.878757C27.4972 0.798897 27.4234 0.737171 27.3358 0.703144C27.2483 0.669117 27.1519 0.664684 27.0615 0.690525C26.9712 0.71637 26.892 0.771042 26.8361 0.846096C26.7802 0.921146 26.7508 1.0124 26.7524 1.10571V24.4472C26.7504 24.5233 26.7283 24.5976 26.6881 24.6626C26.648 24.7275 26.5913 24.7808 26.5238 24.8171L15.4804 30.981L5.64871 36.4753C5.56675 36.5212 5.50243 36.5928 5.46584 36.6789C5.42925 36.7649 5.42244 36.8606 5.4465 36.9509C5.47055 37.0412 5.52409 37.121 5.59875 37.1779C5.6734 37.2347 5.76494 37.2654 5.85904 37.2651H48.3135Z" fill="url(#paint0_linear_300_271)"/>
<path d="M48.3135 37.2651C48.3886 37.2657 48.4626 37.2465 48.5279 37.2095C48.5932 37.1725 48.6474 37.119 48.685 37.0544C48.7227 36.9898 48.7424 36.9165 48.7422 36.8419C48.742 36.7673 48.7219 36.694 48.6839 36.6297L37.9537 18.4853L34.1971 12.1308L27.5458 0.878757C27.4972 0.798897 27.4234 0.737171 27.3358 0.703144C27.2483 0.669117 27.1519 0.664684 27.0615 0.690525C26.9712 0.71637 26.892 0.771042 26.8361 0.846096C26.7802 0.921146 26.7508 1.0124 26.7524 1.10571V24.4472C26.7504 24.5233 26.7283 24.5976 26.6881 24.6626C26.648 24.7275 26.5913 24.7808 26.5238 24.8171L15.4804 30.981L5.64871 36.4753C5.56675 36.5212 5.50243 36.5928 5.46584 36.6789C5.42925 36.7649 5.42244 36.8606 5.4465 36.9509C5.47055 37.0412 5.52409 37.121 5.59875 37.1779C5.6734 37.2347 5.76494 37.2654 5.85904 37.2651H48.3135Z" fill="url(#paint1_angular_300_271)" fill-opacity="0.5"/>
<path d="M5.86231 11.9968C5.78715 11.9962 5.71316 12.0154 5.64789 12.0524C5.58263 12.0894 5.52841 12.143 5.49077 12.2076C5.45313 12.2721 5.43339 12.3455 5.4336 12.4201C5.4338 12.4947 5.45391 12.5679 5.4919 12.6323L16.2221 30.7767L19.9787 37.1312L26.63 48.3832C26.6786 48.4631 26.7524 48.5248 26.84 48.5588C26.9275 48.5928 27.0239 48.5973 27.1142 48.5714C27.2046 48.5456 27.2838 48.4909 27.3397 48.4159C27.3956 48.3408 27.425 48.2496 27.4233 48.1563V24.8148C27.4253 24.7386 27.4475 24.6643 27.4877 24.5994C27.5278 24.5344 27.5845 24.4811 27.652 24.4449L38.6954 18.281L48.5271 12.7866C48.609 12.7407 48.6734 12.6691 48.7099 12.5831C48.7465 12.497 48.7533 12.4014 48.7293 12.3111C48.7052 12.2208 48.6517 12.1409 48.577 12.0841C48.5024 12.0272 48.4108 11.9965 48.3167 11.9968H5.86231Z" fill="url(#paint2_angular_300_271)"/>
</g>
<defs>
<linearGradient id="paint0_linear_300_271" x1="46.2538" y1="37.2651" x2="14.7979" y2="10.84" gradientUnits="userSpaceOnUse">
<stop stop-color="#C8C9CB"/>
<stop offset="0.578125" stop-color="#6E6E70"/>
<stop offset="0.971208" stop-color="#BDBEC0"/>
</linearGradient>
<radialGradient id="paint1_angular_300_271" cx="0" cy="0" r="1" gradientUnits="userSpaceOnUse" gradientTransform="translate(24.5166 23.1192) rotate(30.1218) scale(20.6965 24.4966)">
<stop stop-color="#D8D8D8"/>
<stop offset="0.513271" stop-color="#B8B8B8" stop-opacity="0.492119"/>
<stop offset="1" stop-color="#9A9A9A" stop-opacity="0"/>
</radialGradient>
<radialGradient id="paint2_angular_300_271" cx="0" cy="0" r="1" gradientUnits="userSpaceOnUse" gradientTransform="translate(5.94024 11.9968) rotate(30.3602) scale(35.0346 41.4674)">
<stop/>
<stop offset="1" stop-color="#615F5F"/>
</radialGradient>
<clipPath id="clip0_300_271">
<rect width="187.811" height="52.695" fill="white" transform="translate(0.441406 0.670166)"/>
</clipPath>
</defs>
</svg>
