<svg width="29" height="40" viewBox="0 0 29 40" fill="none" xmlns="http://www.w3.org/2000/svg">
<path d="M26.7617 8.35388C28.7566 12.6399 28.3023 17.6962 26.1099 21.8045C24.2533 25.1425 21.5868 27.9669 19.3154 31.0679C18.3279 32.4505 17.3403 33.9318 16.6095 35.5317C16.3528 36.0649 16.175 36.618 15.9775 37.171C15.78 37.724 15.6022 38.2771 15.4244 38.8301C15.2467 39.3437 15.0294 39.9559 14.3776 39.9559C13.6073 39.9559 13.3901 39.0869 13.232 38.4944C12.758 37.0525 12.284 35.6699 11.5532 34.3466C10.7236 32.7862 9.67682 31.3444 8.61025 29.942L26.7617 8.35388ZM8.68925 13.1337L2.17133 20.8762C3.37616 23.4241 5.17352 25.5968 6.89189 27.7694C7.30666 28.2632 7.72144 28.7767 8.11647 29.31L16.3528 19.5529L16.2737 19.5726C13.3901 20.5602 10.1904 19.0986 9.04478 16.2544C8.88677 15.9186 8.76826 15.5236 8.68925 15.1286C8.5905 14.3978 8.57075 13.8645 8.68925 13.1534V13.1337ZM3.67243 5.62821L3.65268 5.64796C0.452967 9.69697 -0.10007 15.3261 1.8158 20.0861L9.69657 10.724L9.59781 10.6253L3.67243 5.62821ZM18.7624 1.16442L12.4025 8.68966L12.4815 8.6699C15.1282 7.76135 18.0909 8.90692 19.434 11.3166C19.7302 11.8696 19.9672 12.4622 20.0462 13.0547C20.1648 13.8052 20.2043 14.3385 20.066 15.0693V15.0891L26.3864 7.58358C24.7273 4.58139 22.0214 2.29024 18.7822 1.18417L18.7624 1.16442ZM10.2101 10.1117L17.9329 0.9274L17.8539 0.907649C16.7083 0.611379 15.5429 0.453369 14.3776 0.453369C10.4866 0.453369 6.81288 2.13223 4.20571 5.01592L4.16621 5.03567L10.2101 10.1117Z" fill="#282828"/>
</svg>
