<?xml version="1.0" encoding="utf-8"?>
<!-- Generator: Adobe Illustrator 26.0.2, SVG Export Plug-In . SVG Version: 6.00 Build 0)  -->
<svg version="1.1" id="레이어_1" xmlns="http://www.w3.org/2000/svg" xmlns:xlink="http://www.w3.org/1999/xlink" x="0px"
	 y="0px" viewBox="0 0 29 40" style="enable-background:new 0 0 29 40;" xml:space="preserve">
<style type="text/css">
	.st0{fill:#FFFFFF;}
</style>
<path class="st0" d="M26.8,8.4c2,4.3,1.5,9.3-0.7,13.5c-1.9,3.3-4.5,6.2-6.8,9.3c-1,1.4-2,2.9-2.7,4.5c-0.3,0.5-0.4,1.1-0.6,1.6
	c-0.2,0.6-0.4,1.1-0.6,1.7c-0.2,0.5-0.4,1.1-1,1.1c-0.8,0-1-0.9-1.1-1.5c-0.5-1.4-0.9-2.8-1.7-4.1c-0.8-1.6-1.9-3-2.9-4.4L26.8,8.4z
	 M8.7,13.1l-6.5,7.7c1.2,2.5,3,4.7,4.7,6.9c0.4,0.5,0.8,1,1.2,1.5l8.2-9.8l-0.1,0c-2.9,1-6.1-0.5-7.2-3.3c-0.2-0.3-0.3-0.7-0.4-1.1
	C8.6,14.4,8.6,13.9,8.7,13.1L8.7,13.1z M3.7,5.6L3.7,5.6c-3.2,4.1-3.8,9.7-1.9,14.5l7.9-9.4l-0.1-0.1L3.7,5.6z M18.8,1.2l-6.4,7.5
	l0.1,0c2.6-0.9,5.6,0.2,7,2.6c0.3,0.6,0.5,1.1,0.6,1.7c0.1,0.8,0.2,1.3,0,2v0l6.3-7.5C24.7,4.6,22,2.3,18.8,1.2L18.8,1.2z
	 M10.2,10.1l7.7-9.2l-0.1,0c-1.1-0.3-2.3-0.5-3.5-0.5C10.5,0.5,6.8,2.1,4.2,5l0,0L10.2,10.1z"/>
</svg>
