<?xml version="1.0" encoding="utf-8"?>
<!-- Generator: Adobe Illustrator 26.0.2, SVG Export Plug-In . SVG Version: 6.00 Build 0)  -->
<svg version="1.1" id="레이어_1" xmlns="http://www.w3.org/2000/svg" xmlns:xlink="http://www.w3.org/1999/xlink" x="0px"
	 y="0px" viewBox="0 0 19 25" style="enable-background:new 0 0 19 25;" xml:space="preserve">
<style type="text/css">
	.st0{fill:#FFFFFF;}
</style>
<path class="st0" d="M8.8,23.9C1.9,14,0.7,13,0.7,9.4c0-5,4-9,9-9c5,0,9,4,9,9c0,3.6-1.3,4.6-8.1,14.5c-0.1,0.1-0.2,0.3-0.4,0.4
	c-0.2,0.1-0.3,0.1-0.5,0.1c-0.2,0-0.4,0-0.5-0.1C9,24.2,8.9,24.1,8.8,23.9L8.8,23.9L8.8,23.9z M9.7,13.1c1,0,1.9-0.4,2.7-1.1
	c0.7-0.7,1.1-1.7,1.1-2.7c0-1-0.4-1.9-1.1-2.7C11.6,6,10.7,5.6,9.7,5.6C8.7,5.6,7.7,6,7,6.7S5.9,8.4,5.9,9.4c0,1,0.4,1.9,1.1,2.7
	C7.7,12.7,8.7,13.1,9.7,13.1L9.7,13.1z"/>
</svg>
