<svg width="329" height="160" viewBox="0 0 329 160" fill="none" xmlns="http://www.w3.org/2000/svg">
<g style="mix-blend-mode:multiply" opacity="0.6">
<path d="M164.501 160C255.352 160 329.002 158.102 329.002 155.761C329.002 153.419 255.352 151.521 164.501 151.521C73.6496 151.521 0 153.419 0 155.761C0 158.102 73.6496 160 164.501 160Z" fill="#DCE7F5"/>
</g>
<path d="M105.465 71.0378L106.372 73.9867L105.885 76.9216L108.686 77.5211L109.042 75.2512L109.937 74.0989L105.465 71.0378Z" fill="#FBCCCA"/>
<path d="M109.362 75.3428L107.538 96.6582C107.453 97.5659 107.105 98.4293 106.537 99.1428C105.968 99.8563 105.204 100.389 104.337 100.675C103.47 100.962 102.538 100.99 101.655 100.756C100.773 100.522 99.9773 100.036 99.3669 99.3583L98.3803 98.2665L90.27 89.2836L83.2812 81.5358L92.5166 74.1249L102.84 91.1182L105.849 74.6863L109.362 75.3428Z" fill="#3939AA"/>
<g style="mix-blend-mode:multiply" opacity="0.5">
<path d="M98.3798 98.2665L90.2695 89.2835L93.2429 76.431C93.2429 76.431 95.6868 82.1318 94.3281 89.3112L98.3798 98.2665Z" fill="#212183"/>
</g>
<path d="M87.0564 99.5396C87.8092 97.4839 88.9135 95.4904 90.2756 93.0495C92.9807 88.2021 94.0832 83.3358 93.6609 77.8026C93.4296 75.0626 92.1526 72.516 90.0938 70.6888L89.7062 71.5215L87.0754 92.4086L82.2657 102.005L75.6992 114.163C83.1207 122.721 88.9221 120.382 88.9221 120.382C84.4222 117.253 86.2776 112.523 85.9954 107.305C85.8276 104.173 86.2256 101.816 87.0564 99.5396Z" fill="#212183"/>
<path d="M119.4 132.79L122.209 147.801C122.791 149.267 122.836 149.836 123.895 150.592C124.616 151.098 125.403 151.505 126.233 151.801L127.081 153.852H124.774C124.774 153.852 115.215 154.845 117.375 149.229C117.481 148.954 117.578 148.723 117.666 148.524C118.086 147.578 117.723 147.339 117.484 146.33L115.125 133.678L119.4 132.79Z" fill="#FBCCCA"/>
<path d="M117.375 149.226C117.375 149.226 115.408 152.059 115.537 155.445H132.963C133.147 155.445 133.326 155.383 133.471 155.271C133.617 155.158 133.72 155 133.766 154.822C133.812 154.645 133.798 154.456 133.725 154.288C133.652 154.119 133.525 153.979 133.364 153.89C132.779 153.567 131.922 153.387 130.678 153.624C130.294 153.697 129.897 153.641 129.548 153.467L126.235 151.8L125.583 152.836L117.375 149.226Z" fill="#202081"/>
<path d="M122.643 145.444L116.599 146.914C115.544 143.083 114.308 139.249 113.157 135.642C110.976 128.815 109.093 122.783 109.289 119.029L105.959 119.694L104.055 120.074L79.8245 124.911L76.1328 125.647L79.0232 111.162L111.03 108.935C112.484 108.835 113.923 109.277 115.07 110.175C116.216 111.074 116.987 112.365 117.235 113.798L122.643 145.444Z" fill="#3939AA"/>
<g style="mix-blend-mode:multiply" opacity="0.5">
<path d="M104.056 120.074L79.8203 124.906L81.6324 111.034L83.5968 121.125L104.056 120.074Z" fill="#202081"/>
</g>
<path d="M47.9907 149.761L32.6286 148.604C31.3305 148.505 30.5517 149.077 29.714 150.074C29.1561 150.757 28.6932 151.513 28.3381 152.32L26.2266 153.011L26.3996 150.713C26.3996 150.713 26.1158 141.125 31.5659 143.689C32.0211 143.903 32.3482 144.083 32.6044 144.232C33.2198 144.583 33.9067 144.79 34.6138 144.84L45.9346 145.652L47.9907 149.761Z" fill="#FBCCCA"/>
<path d="M32.0208 153.886C31.4375 153.567 30.5808 153.387 29.3364 153.622H29.3157C28.9375 153.69 28.5473 153.633 28.2045 153.46L27.7735 153.242L28.336 152.309L27.3426 151.582L31.5622 143.682C31.5622 143.682 28.876 141.514 25.4838 141.393L24.4453 155.441H31.6262C31.8094 155.439 31.9869 155.377 32.1311 155.264C32.2752 155.151 32.3781 154.994 32.4236 154.817C32.4692 154.64 32.4549 154.453 32.383 154.284C32.3111 154.116 32.1856 153.976 32.026 153.886H32.0208Z" fill="#202081"/>
<path d="M105.466 71.1657L105.454 70.9929C105.383 70.0337 105.613 69.0763 106.112 68.2531L107.496 65.9659C107.5 65.9594 107.505 65.9537 107.511 65.9492C107.517 65.9447 107.523 65.9416 107.531 65.94C107.545 65.9341 107.561 65.9341 107.576 65.94L107.603 65.9573C107.827 66.0945 107.991 66.3097 108.064 66.5609C108.137 66.8121 108.114 67.0815 108 67.3168L107.095 69.1756C107.095 69.1756 108.42 70.1378 107.347 71.9396L105.466 71.1657Z" fill="#FBCCCA"/>
<path d="M103.054 64.0778C100.61 65.287 96.5951 62.1775 94.0873 57.1177C91.5794 52.0579 91.5275 46.9877 93.9713 45.7802L96.0257 44.7644L105.109 63.062L103.054 64.0778Z" fill="#3939AA"/>
<path d="M105.092 63.1356C107.536 61.9275 107.484 56.8514 104.976 51.7978C102.469 46.7443 98.4545 43.627 96.0107 44.8352C93.567 46.0433 93.6189 51.1194 96.1268 56.1729C98.6346 61.2265 102.649 64.3438 105.092 63.1356Z" fill="#212183"/>
<path d="M97.2515 55.5543C97.3623 55.7771 97.4748 55.9965 97.5977 56.2107C98.8092 58.4565 100.31 60.203 101.705 61.1393C102.769 61.8545 103.782 62.0963 104.545 61.7145C106.421 60.7869 106.199 56.5321 104.05 52.1943C101.9 47.8566 98.6361 45.1117 96.76 46.0324C94.8838 46.9532 95.1019 51.2218 97.2515 55.5543Z" fill="white"/>
<path d="M108.004 75.5863C108.115 75.8089 108.309 75.9787 108.545 76.0582C108.781 76.1378 109.039 76.1206 109.262 76.0104C109.485 75.9002 109.655 75.7061 109.734 75.4707C109.814 75.2353 109.797 74.978 109.687 74.7554L104.048 63.3954L102.367 64.2263L108.004 75.5863Z" fill="#3939AA"/>
<path d="M108.078 77.1375C108.158 77.3016 108.27 77.4481 108.408 77.5687C108.545 77.6893 108.705 77.7814 108.878 77.8399C109.052 77.8984 109.235 77.922 109.418 77.9094C109.6 77.8967 109.778 77.8481 109.942 77.7663L110.252 77.6126C110.416 77.5324 110.563 77.4205 110.684 77.2833C110.804 77.1461 110.897 76.9865 110.955 76.8135C111.014 76.6405 111.038 76.4576 111.025 76.2754C111.012 76.0932 110.964 75.9154 110.882 75.7521L105.999 65.9158L103.195 67.2978L108.078 77.1375Z" fill="#212183"/>
<path d="M102.364 64.2228C102.413 64.3213 102.828 64.2228 103.294 63.9862C103.759 63.7495 104.095 63.4904 104.045 63.3919C103.995 63.2934 103.581 63.3919 103.116 63.6286C102.65 63.8652 102.314 64.1244 102.364 64.2228Z" fill="#3939AA"/>
<path d="M102.925 52.7489C100.994 48.8586 98.1659 46.238 96.25 46.4176C96.393 46.2583 96.5651 46.1275 96.7571 46.0324C98.6332 45.103 101.897 47.8618 104.047 52.1944C106.197 56.5269 106.418 60.7886 104.542 61.7163C104.35 61.8111 104.141 61.8696 103.928 61.889C105.231 60.4725 104.857 56.6375 102.925 52.7489Z" fill="#A8D1E3"/>
<path d="M97.5938 56.2108C98.8053 58.4566 100.306 60.2031 101.701 61.1394C102.073 60.4069 102.371 59.1044 102.14 56.7947C102.14 56.7947 101.237 52.2929 102.968 50.9852L99.2656 46.9221C99.2656 46.9221 98.5058 47.5769 99.7935 51.2616C101.081 54.9463 98.4089 55.8463 98.4089 55.8463C98.1211 55.9281 97.8465 56.0509 97.5938 56.2108Z" fill="#D1E6F7"/>
<path d="M102.925 52.7489C100.994 48.8586 98.1659 46.238 96.25 46.4176C96.393 46.2583 96.5651 46.1275 96.7571 46.0324C98.6332 45.103 101.897 47.8618 104.047 52.1944C106.197 56.5269 106.418 60.7886 104.542 61.7163C104.35 61.8111 104.141 61.8696 103.928 61.889C105.231 60.4725 104.857 56.6375 102.925 52.7489Z" fill="#3939AA"/>
<path d="M106.493 71.2347C106.735 72.3386 107.773 73.845 108.938 74.2233C110.027 74.5774 110.934 73.42 111.131 72.4647C111.256 71.8653 111.033 71.2555 110.785 70.72C110.084 69.1929 108.841 67.3013 107.002 68.7334C106.25 69.3172 106.309 70.4056 106.493 71.2347Z" fill="#FBCCCA"/>
<path d="M74.2635 117.148C74.2635 117.148 65.2514 120.739 60.6805 115.687C60.6805 115.687 55.3325 108.035 48.1914 112.181L67.3803 98.4998L74.2635 117.148Z" fill="#212183"/>
<path d="M92.4049 62.8685L91.5049 65.2093L89.7637 69.7422L87.8945 74.6103L83.3599 73.135L82.5586 67.2339L85.3815 60.5692L92.4049 62.8685Z" fill="#FBCCCA"/>
<path d="M89.7667 70.1603C87.3541 69.706 84.9206 68.8647 82.0389 67.88L81.0316 67.956C80.1766 68.3015 79.531 68.5313 78.7522 69.0063C76.3932 70.4522 71.7357 73.7604 68.4386 79.0119C67.5262 80.4678 66.9503 82.1084 66.7529 83.8144L65.5068 94.5248L65.171 97.4287C64.0616 104.52 63.9023 107.412 63.9023 107.412L81.6287 111.04C82.6412 104.902 87.0685 94.1706 87.0685 94.1706L89.7546 88.9484C90.6027 87.3592 91.0336 85.642 91.558 83.9474C94.4571 74.5844 89.7667 70.1603 89.7667 70.1603Z" fill="url(#paint0_linear_1090_739)"/>
<path d="M89.4944 72.7273L88.25 71.5699L89.1673 70.4954L89.9029 70.9169L90.5173 71.3868L90.3165 73.3043L89.4944 72.7273Z" fill="#F05673"/>
<path d="M91.7884 71.7875L89.6543 69.9909C86.0388 69.5366 84.8221 68.5174 82.5583 67.2356L82.0391 67.8765C83.2731 69.4537 83.7387 69.027 85.8277 72.8205C87.7142 72.0846 88.8461 71.3349 89.2078 70.4953L90.1632 71.2347L90.1476 71.2071C90.4747 71.4783 90.9663 71.689 91.7884 71.7875Z" fill="white"/>
<g style="mix-blend-mode:multiply" opacity="0.7">
<path d="M91.5025 65.2093L89.7614 69.7422L89.6334 69.9875C89.0037 69.9101 88.3786 69.7994 87.7607 69.6558L88.2314 68.3049C87.0303 65.9659 88.0982 64.7014 89.1141 64.1244L91.5025 65.2093Z" fill="#FBCCCA"/>
</g>
<path style="mix-blend-mode:multiply" opacity="0.5" d="M89.2031 70.4988L89.2049 70.4954L89.2152 70.504L89.2031 70.4988Z" fill="url(#paint1_linear_1090_739)"/>
<path d="M92.3209 58.3169C92.6927 58.0721 92.4032 56.9795 91.6742 55.8764C90.9452 54.7734 90.0529 54.0777 89.6811 54.3225C89.3092 54.5673 89.5987 55.6599 90.3277 56.7629C91.0567 57.866 91.949 58.5617 92.3209 58.3169Z" fill="white"/>
<path d="M95.1323 63.9413L94.4175 62.5058C93.8598 61.7739 93.3516 61.0057 92.8961 60.2065L92.9152 59.6537L92.3129 58.6881C92.8321 58.3788 93.4517 57.7206 92.415 57.3181C91.7642 57.0659 90.994 56.2557 90.6842 55.9051C90.5523 55.6263 90.4429 55.3375 90.3571 55.0413C90.0649 54.3109 89.5261 53.7054 88.8341 53.3294C88.7915 53.3034 88.7476 53.2798 88.7025 53.2585C88.3738 53.0965 88.0244 52.9803 87.6641 52.913C87.6471 52.9109 87.6303 52.9075 87.6139 52.9027C87.425 52.8672 87.2333 52.8487 87.041 52.8474L84.8499 54.6008L80.2461 58.4013L81.0387 59.6589L80.8259 63.6839L84.4189 65.8502L85.7602 61.6766L85.8935 61.5833L85.9645 61.7785L87.401 61.8476L88.1175 63.7478L90.8625 65.4753L91.1429 65.3406L91.4406 65.1955L94.0765 64.9381C95.0786 64.8725 95.1755 64.3439 95.1617 64.0744C95.1576 64.029 95.1477 63.9843 95.1323 63.9413Z" fill="#FBCCCA"/>
<path d="M85.3676 55.6701C85.3068 55.5405 85.2744 55.3994 85.2728 55.2563C85.2712 55.1131 85.3003 54.9714 85.3582 54.8404C85.4161 54.7095 85.5014 54.5924 85.6084 54.4972C85.7154 54.4019 85.8416 54.3306 85.9786 54.2881C87.557 53.7975 89.6564 52.6107 88.3099 49.8692C88.3099 49.8692 88.2753 49.8087 88.2061 49.7137C87.9952 49.4164 87.7211 49.1694 87.4033 48.9904C87.0855 48.8113 86.7319 48.7047 86.3679 48.6781C86.004 48.6515 85.6387 48.7056 85.2981 48.8366C84.9576 48.9676 84.6504 49.1721 84.3984 49.4356C84.0955 49.75 83.2994 50.3546 81.8663 49.9849C79.9746 49.4995 78.1712 50.3512 77.4616 51.6727C76.8766 52.7593 76.9666 53.4796 77.0168 53.7025C77.0568 53.8798 77.0702 54.062 77.0566 54.2432C77.0271 54.6302 76.8697 55.1467 76.2674 55.3488C75.3501 55.6546 73.7889 57.4701 75.2514 59.9975C75.5287 60.479 75.9152 60.889 76.3799 61.1946L76.5062 61.2793C77.0678 61.6485 77.676 61.9418 78.3148 62.1516C78.6817 62.2726 79.1352 62.6146 79.3637 63.5336C80.056 66.2786 82.8252 66.5827 82.8252 66.5827L83.3444 65.3993C83.5597 64.91 83.594 64.3603 83.4413 63.8482C83.2885 63.336 82.9585 62.8946 82.5101 62.6025C81.9909 62.2657 81.6448 61.7284 81.9044 60.875C81.959 60.7014 82.0496 60.5412 82.1704 60.4049C82.2912 60.2686 82.4394 60.1592 82.6053 60.0838C82.7722 59.9991 82.9589 59.961 83.1456 59.9735C83.3324 59.9859 83.5123 60.0485 83.6663 60.1547C83.9891 60.3752 84.3378 60.555 84.7048 60.6902L87.0655 61.5539L85.982 59.0871C85.7143 58.4702 85.5957 57.7992 85.6359 57.1281C85.6703 56.6274 85.578 56.126 85.3676 55.6701Z" fill="#173057"/>
<path d="M89.076 57.401C89.8548 58.4686 90.7773 59.1286 91.1373 58.8608C91.4973 58.593 91.1581 57.522 90.381 56.4544C89.6038 55.3868 88.6796 54.7269 88.3196 54.9929C87.9596 55.259 88.2989 56.3404 89.076 57.401Z" fill="white"/>
<path d="M92.9148 59.6451C92.9388 59.829 92.894 60.0154 92.789 60.1684C92.6839 60.3214 92.5259 60.4303 92.3454 60.4743C91.3226 60.8005 90.4696 61.5154 89.9708 62.4643C89.91 62.5815 89.8231 62.6831 89.7169 62.7615C89.6106 62.8399 89.4878 62.893 89.3578 62.9167C89.2278 62.9404 89.0941 62.934 88.9669 62.8981C88.8398 62.8622 88.7226 62.7978 88.6242 62.7097C88.3677 62.4774 88.1565 62.1998 88.0012 61.8908L86.3604 59.6451L84.7647 57.4615L84.1797 60.3413C84.6297 61.243 87.1912 61.0461 87.2466 62.397C87.2466 62.397 87.2466 62.397 87.2466 62.4091C87.2598 62.978 87.3698 63.5405 87.5719 64.0727C87.6191 64.1928 87.6771 64.3084 87.745 64.4181C88.6831 65.8001 90.1594 66.1232 91.5787 66.0195C92.2203 65.9679 92.8545 65.8475 93.4704 65.6602C93.6108 65.8274 93.7887 65.9593 93.9896 66.0454C95.234 66.6017 96.198 65.3976 96.198 65.3976C98.3165 62.5386 92.9148 59.6451 92.9148 59.6451Z" fill="#3266A1"/>
<path d="M84.0896 61.1773C84.1393 61.1718 84.1869 61.154 84.2281 61.1255L91.2514 56.2747C91.3166 56.2289 91.3609 56.1591 91.3745 56.0807C91.3882 56.0023 91.3701 55.9217 91.3242 55.8566C91.2782 55.7916 91.2083 55.7474 91.1298 55.7338C91.0512 55.7202 90.9705 55.7383 90.9053 55.7841L83.8819 60.6349C83.8276 60.6728 83.7874 60.7275 83.7676 60.7905C83.7478 60.8536 83.7495 60.9215 83.7725 60.9835C83.7954 61.0455 83.8383 61.0981 83.8944 61.1332C83.9505 61.1683 84.0168 61.1838 84.0827 61.1773H84.0896Z" fill="white"/>
<path d="M47.3251 114.011C47.3251 114.011 58.4314 105.391 68.9734 98.4634L69.4615 98.1438C71.1541 97.04 72.8278 95.9793 74.4356 95.0102C74.877 94.7442 75.301 94.4798 75.7008 94.2086C76.7934 93.4991 77.8345 92.7134 78.8162 91.8575C79.3354 91.3928 79.8252 90.9298 80.2717 90.4548C80.4898 90.2181 80.7009 89.9883 80.8982 89.75C85.9382 83.8298 85.1922 76.8854 82.0319 67.8748L80.8481 67.7832C79.7305 67.6973 78.6067 67.746 77.5008 67.9283C75.9222 68.1798 74.3949 68.685 72.9784 69.4243C71.8688 70.0168 70.9188 70.8678 70.2092 71.905C66.2423 77.5401 65.0169 85.7923 64.5773 92.6504C64.5552 93.0168 64.4504 93.3734 64.2705 93.6935C64.0907 94.0137 63.8405 94.289 63.5388 94.4988C62.6406 95.119 61.4342 95.924 60.1414 96.6876C58.9585 97.4061 57.722 98.0327 56.4428 98.5619C55.2214 99.0319 54.0885 99.7048 53.092 100.552C53.0453 100.586 53.0055 100.623 52.9587 100.661C52.912 100.699 52.8982 100.711 52.8687 100.739C50.3332 102.922 46.7194 106.792 47.3251 114.011Z" fill="#3939AA"/>
<g style="mix-blend-mode:multiply" opacity="0.5">
<path d="M77.8172 70.9861C77.2114 71.0776 77.0297 71.6943 76.4326 71.8705C75.3647 72.1849 73.7413 68.9977 72.9711 69.4244C71.8615 70.0169 70.9116 70.8679 70.2019 71.9051C66.235 77.5402 65.0096 85.7923 64.57 92.6505C64.548 93.0168 64.4431 93.3735 64.2633 93.6936C64.0834 94.0137 63.8333 94.289 63.5316 94.4989C62.6333 95.119 61.427 95.9241 60.1341 96.6876C58.9512 97.4062 57.7147 98.0327 56.4355 98.5619C55.2142 99.032 54.0813 99.7049 53.0847 100.552C53.038 100.587 52.9982 100.623 52.9515 100.661C53.5022 100.593 54.0484 100.493 54.5871 100.36L52.5586 108.165L57.7336 99.3549C61.8874 97.7086 65.74 95.1744 65.74 95.1744L69.6688 95.3816L67.2666 93.9893C67.4535 87.8239 73.0126 84.9528 73.0126 84.9528L75.5862 83.9025C77.0395 83.3076 78.3248 82.367 79.3303 81.1625C80.3358 79.9581 81.0308 78.5265 81.3549 76.9925C81.6878 75.456 81.8549 73.8883 81.8533 72.3162L77.8172 70.9861Z" fill="#2A2B8B"/>
</g>
<g style="mix-blend-mode:multiply">
<path d="M63.9023 107.405L68.4023 108.288L72.634 109.125C70.7717 108.165 69.7834 106.177 69.3161 104.879C69.1809 104.505 69.1347 104.105 69.1811 103.71C69.2744 102.935 69.5215 102.187 69.9078 101.508C70.2941 100.83 70.8119 100.235 71.4311 99.759L77.4004 95.1587C79.4729 93.561 81.1797 91.54 82.4064 89.2309C83.6332 86.9217 84.3517 84.3776 84.5138 81.7689C84.5311 81.4839 84.5346 81.325 84.5346 81.325L65.5154 94.5178L65.1797 97.4217C64.4562 102.048 64.11 105.491 63.911 107.405H63.9023Z" fill="#CCDAE9"/>
</g>
<path d="M81.6323 111.033L77.906 150.818C77.8372 151.534 77.6238 152.229 77.2787 152.861C76.9337 153.492 76.4641 154.047 75.8983 154.493C75.3348 154.937 74.6862 155.262 73.9924 155.446C73.2986 155.631 72.5742 155.672 71.8639 155.567L34.793 150.143L35.5303 143.817C38 143.921 40.5771 143.967 43.1923 144.009H43.2044C51.6713 144.138 60.5344 144.194 67.4193 145.854L65.5709 121.705C61.1454 114.552 63.9042 107.398 63.9042 107.398L72.6774 109.193L81.6323 111.033Z" fill="#3939AA"/>
<path d="M90.2441 72.2333C90.9468 77.1705 91.9904 84.0234 91.684 90.7762C91.6183 92.4639 91.4625 94.1551 91.2687 95.8222C91.0748 97.4892 90.7789 99.1269 90.4414 100.713C90.3456 101.107 90.251 101.498 90.1575 101.887C90.1108 102.081 90.0623 102.274 90.0156 102.468C89.9689 102.661 89.9066 102.848 89.8425 103.038L89.5171 104.162C89.3925 104.53 89.2691 104.893 89.1468 105.251L88.9737 105.786L88.9927 105.74V105.755L88.9824 105.786L88.9633 105.849L88.9218 105.973L88.8404 106.22C88.7308 106.547 88.6241 106.869 88.5202 107.187L88.3627 107.659C88.3143 107.813 88.2866 107.949 88.2468 108.093C88.1741 108.374 88.102 108.65 88.0304 108.922C87.9629 109.195 87.8833 109.44 87.8296 109.72C87.776 110 87.7206 110.255 87.6687 110.514C87.5666 111.033 87.4506 111.515 87.397 111.981C87.3433 112.448 87.2689 112.874 87.2118 113.273L87.1893 113.422C87.1893 113.477 87.1997 113.356 87.1979 113.372V113.392V113.432V113.51C87.1893 113.614 87.1789 113.715 87.1703 113.816C87.1512 114.014 87.1322 114.203 87.1149 114.384C87.0266 115.141 87.0474 115.566 87.0266 115.909C87.0058 116.253 87.0075 116.416 87.0075 116.416L83.8628 118.798L81.3203 116.111C81.3203 116.111 81.3515 115.875 81.4086 115.434C81.4657 114.994 81.5418 114.298 81.6889 113.627C81.7218 113.455 81.7582 113.263 81.7963 113.068C81.8153 112.969 81.8343 112.869 81.8551 112.765C81.8672 112.695 81.881 112.624 81.8949 112.551L81.9347 112.378C82.0455 111.922 82.1649 111.43 82.2912 110.905C82.4176 110.38 82.5889 109.83 82.762 109.253C82.8503 108.965 82.9351 108.668 83.0337 108.365C83.1324 108.063 83.2553 107.745 83.3678 107.427C83.4803 107.11 83.6066 106.783 83.7295 106.451C83.7918 106.289 83.8524 106.106 83.9182 105.957L84.1189 105.503L84.9653 103.58L85.3807 102.66C85.5064 102.339 85.6339 102.016 85.7631 101.69C85.8289 101.518 85.893 101.362 85.9587 101.196C86.0245 101.031 86.0764 100.851 86.1318 100.678C86.2512 100.333 86.3689 99.9871 86.49 99.6416C86.9314 98.2303 87.3451 96.7446 87.6808 95.2037C88.0166 93.6628 88.3108 92.0804 88.5254 90.4773C89.4098 84.4225 89.7111 78.2971 89.4254 72.1849L90.2441 72.2333Z" fill="#F05673"/>
<g style="mix-blend-mode:multiply" opacity="0.5">
<path d="M73.4108 118.383C69.8731 123.08 69.5771 125.324 70.3144 129.353L69.276 146.914L70.8977 150.445L67.36 147.797C67.36 147.797 54.2669 144.81 43.1953 144.016C51.6621 144.145 60.5253 144.2 67.4102 145.861L65.5618 121.712C61.1363 114.558 63.8951 107.405 63.8951 107.405L72.6683 109.2C72.6683 109.2 76.9484 113.693 73.4108 118.383Z" fill="#212183"/>
</g>
<g style="mix-blend-mode:multiply" opacity="0.5">
<path d="M109.287 119.029L105.957 119.694L109.484 117.934L111.686 115.438L110.884 118.431C110.884 118.431 111.535 127.86 113.155 135.643C110.974 128.815 109.091 122.783 109.287 119.029Z" fill="#1E3565"/>
</g>
<path d="M58.7224 119.541C55.8425 119.249 49.4023 113.334 49.4023 113.334C49.4023 113.334 56.9034 108.842 59.7868 109.129C60.4718 109.199 61.1363 109.402 61.7423 109.728C62.3484 110.054 62.8843 110.496 63.3192 111.029C63.7542 111.561 64.0798 112.174 64.2774 112.833C64.4751 113.491 64.5409 114.181 64.4711 114.865C64.4014 115.549 64.1974 116.212 63.8708 116.817C63.5442 117.422 63.1014 117.957 62.5678 118.391C62.0341 118.825 61.42 119.15 60.7606 119.347C60.1011 119.544 59.4091 119.61 58.7242 119.541H58.7224Z" fill="#F05673"/>
<path d="M59.2171 116.939C58.7066 116.886 58.2231 116.684 57.8277 116.358C57.4323 116.031 57.1428 115.595 56.9957 115.104C56.8486 114.613 56.8505 114.09 57.0012 113.6C57.1519 113.111 57.4446 112.677 57.8423 112.353C58.2401 112.029 58.725 111.83 59.2359 111.782C59.7468 111.733 60.2607 111.837 60.7127 112.079C61.1646 112.322 61.5344 112.693 61.7753 113.145C62.0162 113.597 62.1173 114.111 62.0659 114.621C62.0317 114.96 61.9309 115.289 61.7692 115.589C61.6074 115.889 61.3879 116.154 61.1233 116.37C60.8587 116.585 60.5541 116.746 60.227 116.844C59.8999 116.941 59.5568 116.974 59.2171 116.939Z" fill="white"/>
<path d="M52.4872 106.254L52.051 109.252C52.0272 109.416 52.045 109.583 52.1028 109.739C52.1605 109.894 52.2564 110.032 52.3816 110.141L53.6987 111.281C54.0654 111.538 54.346 111.899 54.5035 112.318L55.7151 115.547C55.7184 115.555 55.72 115.565 55.7197 115.574C55.7194 115.583 55.7172 115.593 55.7134 115.601C55.7095 115.61 55.704 115.617 55.6972 115.624C55.6903 115.63 55.6823 115.635 55.6735 115.638C55.4223 115.73 55.146 115.725 54.8981 115.625C54.6502 115.525 54.4485 115.336 54.3322 115.096L53.498 113.242L53.697 116.621C53.7065 116.704 53.6997 116.787 53.6769 116.867C53.654 116.947 53.6156 117.022 53.5639 117.087C53.5121 117.152 53.448 117.207 53.3753 117.247C53.3025 117.287 53.2224 117.313 53.1397 117.323C53.057 117.332 52.9731 117.325 52.893 117.302C52.813 117.28 52.7382 117.241 52.6729 117.19C52.6077 117.138 52.5533 117.074 52.5128 117.001C52.4723 116.929 52.4465 116.849 52.437 116.766L52.3764 116.248C52.3775 116.408 52.3173 116.563 52.2081 116.68C52.099 116.797 51.949 116.869 51.7889 116.88C51.6288 116.89 51.4707 116.84 51.3466 116.738C51.2226 116.637 51.1422 116.492 51.1216 116.333L51.0628 115.814C51.0687 115.978 51.0108 116.137 50.9012 116.258C50.7916 116.38 50.639 116.454 50.4756 116.465C50.3123 116.476 50.1511 116.423 50.0261 116.317C49.9012 116.212 49.8223 116.062 49.8062 115.899L49.7561 115.46H49.7405C49.7274 115.602 49.6663 115.735 49.5671 115.838C49.468 115.94 49.3368 116.006 49.1953 116.023C49.028 116.042 48.86 115.994 48.7282 115.89C48.5965 115.785 48.5117 115.632 48.4926 115.465C48.3697 113.401 48.8388 111.482 49.2455 109.523L49.7318 106.068L52.9857 106.481L52.4872 106.254Z" fill="#FBCCCA"/>
<path d="M81.453 71.3971C81.8402 72.0738 82.0835 72.8229 82.168 73.5975C82.2525 74.3722 82.1763 75.156 81.9441 75.9C81.7119 76.644 81.3288 77.3323 80.8185 77.9221C80.3082 78.5118 79.6817 78.9904 78.9781 79.328L58.5448 89.1021L52.7987 109.081L48.7695 108.231L52.0753 87.0395C52.318 85.5499 53.1309 84.2127 54.3425 83.3099L56.326 81.8312L72.7318 69.5936C73.7303 68.8481 74.9385 68.4349 76.1853 68.4126C77.4321 68.3903 78.6543 68.7599 79.679 69.4692C80.406 69.9729 81.0119 70.6314 81.453 71.3971Z" fill="#3939AA"/>
<g style="mix-blend-mode:screen" opacity="0.5">
<path d="M70.6081 76.9562C69.021 77.0391 67.4357 77.0114 65.8572 77.4917C63.4757 78.2155 61.8315 80.2021 59.7321 81.4217C58.801 81.9676 56.57 83.1009 56.3242 81.8312L72.73 69.5936C73.7285 68.8481 74.9367 68.4349 76.1835 68.4126C77.4303 68.3903 78.6526 68.7599 79.6773 69.4692C79.9571 69.8164 80.1872 70.2007 80.3609 70.6111C80.3609 70.6111 82.3028 76.3516 70.6081 76.9562Z" fill="#1E3565"/>
</g>
<path fill-rule="evenodd" clip-rule="evenodd" d="M140.507 13.2516C160.238 13.2516 176.263 29.2049 176.263 48.8983C176.263 68.5917 160.238 84.545 140.507 84.545C120.82 84.545 104.793 68.5917 104.793 48.8983C104.793 29.2049 120.82 13.2516 140.507 13.2516Z" fill="url(#paint2_radial_1090_739)"/>
<path fill-rule="evenodd" clip-rule="evenodd" d="M150.93 14.7994C165.579 19.2287 176.261 32.8171 176.261 48.8983C176.252 51.9448 175.861 54.9782 175.098 57.9279C174.151 59.9058 172.772 61.756 171.136 63.9914C169.154 66.7864 167.561 69.1082 166.612 68.12C165.622 67.1734 166.053 65.2369 167.304 63.6476C168.596 62.0566 168.121 59.5189 167.777 56.7238C167.476 53.9287 168.296 54.5316 168.898 52.3809C169.544 50.2319 168.251 48.9829 167.476 47.9101C166.7 46.8374 167.261 46.6629 167.995 45.502C168.729 44.3412 168.769 44.0389 166.956 43.9957C165.144 43.9525 166.354 43.7383 165.492 43.1319C164.587 42.529 164.071 43.6899 163.251 43.9473C162.477 44.2496 159.461 44.9838 158.77 43.4291C158.126 41.8743 155.454 39.3867 154.765 38.6128C154.031 37.7957 154.507 37.4951 155.324 36.3757C156.101 35.2598 153.817 31.4748 154.722 30.7009C155.587 29.927 156.231 28.8525 156.188 28.1632C156.145 27.4342 156.918 27.3893 158.685 26.263C160.416 25.1453 161.314 26.3925 162.001 26.6931C162.649 27.0386 162.735 26.65 163.559 27.1665C164.334 27.6847 164.944 28.4137 165.928 28.203C166.875 28.0302 166.66 28.1598 167.436 28.2462C168.211 28.3757 168.426 27.8592 168.383 27.0369C168.339 26.1732 166.444 24.5424 165.627 24.2418C164.85 23.9827 165.108 24.6271 164.893 24.9708C164.72 25.3595 164.076 25.2282 163.902 24.4992C163.774 23.7685 162.567 22.9445 162.309 22.9929C162.051 23.0412 162.05 23.6372 161.361 23.5958C160.669 23.5094 160.932 23.036 160.629 22.5593C160.369 22.1291 159.682 22.1291 158.818 21.9564C158.002 21.7404 158.216 22.1723 157.915 23.5906C157.569 24.9726 157.01 24.8793 155.892 24.8793C154.814 24.8793 153.651 23.1172 154.211 22.6871C154.772 22.2569 155.077 21.9564 154.985 21.3967C154.893 20.837 154.77 21.0114 154.383 20.2358C154.036 19.4187 152.789 19.0266 151.97 18.6016C151.195 18.2164 151.023 17.1833 151.451 16.8396C151.925 16.4526 153.649 18.301 154.078 18.3943C154.507 18.4876 155.026 17.6636 154.855 16.9311C154.725 16.1589 153.348 16.3731 152.226 15.9447C151.754 15.772 151.279 15.2537 150.933 14.7821L150.93 14.7994Z" fill="#74C6E9"/>
<path fill-rule="evenodd" clip-rule="evenodd" d="M140.506 13.2516H141.41C141.066 13.5728 140.763 13.9342 140.506 14.3278C139.904 15.2727 139.904 15.3159 139.428 15.5733C138.955 15.7892 139.343 16.0915 138.698 15.8756C138.05 15.7029 137.706 14.6664 137.361 14.2414C137.188 14.0255 137.275 13.6817 137.275 13.4243C138.348 13.3022 139.427 13.2445 140.506 13.2516ZM117.674 21.5072C122.463 17.5263 128.209 14.859 134.345 13.7681C134.388 13.8959 134.475 14.0704 134.561 14.371C134.777 14.9721 134.561 15.3159 133.656 15.3159C132.791 15.3159 132.444 14.6715 131.804 14.8426C131.164 15.0136 131.157 15.3608 130.814 15.6165C130.511 15.8324 130.598 16.0466 129.909 16.1762C129.22 16.3057 128.228 16.304 127.711 16.6063C127.193 16.9086 126.721 17.2507 126.634 17.6428C126.504 18.0298 126.203 18.2457 126.678 18.4167C127.108 18.5463 127.797 18.244 127.797 19.2338C127.797 20.2237 127.624 20.3947 128.144 20.3947C128.663 20.3947 129.528 19.9214 129.307 19.277C129.085 18.6327 129.653 18.2872 130.212 18.2025C130.422 18.1631 130.619 18.0715 130.784 17.9363C130.95 17.801 131.078 17.6265 131.158 17.4286C131.288 17.1263 131.934 16.4388 132.451 16.8689C132.926 17.2559 133.183 17.9054 134.476 18.5463C135.769 19.2373 136.415 20.2651 135.984 20.7402C135.553 21.2153 135.381 21.0857 134.907 20.7834C134.476 20.5243 133.523 20.2219 133.003 20.5243C132.443 20.7834 131.754 20.8697 132.098 21.255C132.401 21.6419 133.606 22.5886 132.444 22.9825C131.283 23.3763 130.075 22.6802 129.731 23.328C129.343 24.019 130.596 23.8031 128.912 24.8344C127.228 25.8657 125.594 26.2958 125.251 27.93C124.949 29.5642 124.604 29.908 123.742 30.2103C122.924 30.5558 122.451 30.5109 121.847 30.5109C121.201 30.5109 120.857 29.908 119.865 30.5541C118.874 31.2001 117.022 32.7462 116.547 34.0367C116.075 35.3686 116.028 37.1323 116.374 37.4329C116.762 37.7784 117.711 37.9926 118.313 37.3897C118.915 36.7454 119.562 35.7987 119.907 35.9715C120.251 36.1442 119.992 37.1807 119.561 38.1637C119.13 39.1103 119.215 39.3729 119.474 39.4955C119.732 39.5819 120.293 39.2381 120.594 39.8842C120.77 40.2877 120.914 40.7041 121.025 41.1297C121.08 41.5655 121.211 41.9882 121.413 42.3787C121.759 43.1094 121.111 43.0697 122.491 43.0697C123.87 43.0697 124.644 43.1993 125.075 42.5515C125.549 41.9071 126.065 40.9967 126.712 41.1695C127.314 41.299 127.751 42.6741 129.125 42.1161C130.546 41.5582 132.01 41.7706 132.742 42.8071C133.476 43.797 133.734 43.968 134.682 44.0544C135.631 44.1407 137.095 45.3448 137.095 46.3347C137.136 47.2796 136.965 47.1984 136.621 48.3558C136.276 49.5133 136.06 50.1611 137.181 49.99C138.301 49.7741 138.774 49.0416 139.679 49.3871C140.627 49.6877 142.479 49.5167 143.083 50.0315C143.687 50.5463 143.859 50.5497 144.641 50.6758C145.373 50.8486 146.45 51.6225 146.623 52.8697C146.837 54.1602 145.065 55.6648 144.165 57.0399C143.3 58.4219 142.831 57.8156 143.047 60.0077C143.305 62.1567 143.305 63.5767 142.486 63.6631C141.711 63.7477 140.755 63.1898 140.203 65.1246C139.643 67.0162 138.867 68.1356 137.661 68.9095C136.449 69.6402 135.809 69.8112 135.894 70.6715C135.98 71.4886 135.809 72.1779 134.603 73.553C133.44 74.8849 134.301 78.4988 134.559 79.0568C134.776 79.6147 135.679 79.9205 135.252 80.1744C134.864 80.3904 131.892 78.9652 131.676 75.3582C131.418 71.7892 129.564 68.177 129.436 66.7588C129.263 65.2956 130.383 63.404 129.564 62.1135C128.789 60.8248 124.869 58.8469 124.869 57.9434C124.869 57.0797 124.955 55.4921 124.396 54.7614C123.837 54.0307 121.811 52.1822 122.371 50.5048C122.932 48.8274 123.491 47.9257 123.756 46.6785C123.972 45.4692 124.704 44.3549 123.886 44.1839C123.02 43.968 123.671 44.2271 121.818 43.8833C120.007 43.5828 120.397 43.1924 119.19 42.0349C117.979 40.8257 118.027 40.057 116.992 39.841C115.954 39.6683 113.977 38.2863 113.977 37.0028C113.977 35.6709 114.452 36.0993 114.278 34.6379C114.064 33.1315 114.278 32.9604 114.064 32.4457C113.849 31.9309 113.763 30.8115 113.372 31.3694C113.025 31.9723 113.33 33.5633 112.596 33.3923C111.821 33.2196 111.693 32.5286 111.994 32.1451C112.252 31.7581 113.07 30.0358 113.157 29.0045C113.243 27.9732 112.21 27.93 114.621 25.8225C116.432 24.2764 116.776 22.8996 117.681 21.5227L117.674 21.5072Z" fill="#74C6E9"/>
<path d="M257.017 10.3097C257.017 10.3097 252.266 13.0253 251.541 16.9363L253.194 20.7506L250.956 18.2561C250.956 18.2561 247.462 28.2755 250.245 32.9985L251.049 34.2077C251.049 34.2077 249.099 33.8467 248.367 31.5319C248.367 31.5319 246.674 38.9929 252.803 42.9039C252.803 42.8987 256.011 15.195 257.017 10.3097Z" fill="#3939AA"/>
<path d="M261.966 56.1089C261.966 56.1089 247.827 74.6691 258.413 83.4585L261.966 56.1089Z" fill="#3939AA"/>
<path d="M205.273 37.3535C205.273 37.3535 213.526 37.8165 217.146 42.3632L218.891 45.5763C218.891 45.5763 217.818 41.4304 218.154 39.1501C218.154 39.1501 218.974 41.9573 222.78 44.3706C227.652 47.4628 231.905 49.9469 231.368 58.6483L205.273 37.3535Z" fill="#3939AA"/>
<path d="M227.004 71.3488C244.888 79.9724 241.888 97.6066 241.888 97.6497L242.151 97.5444C242.151 97.5444 243.134 99.7763 244.363 103.216C245.875 107.427 247.126 111.726 248.109 116.091C248.375 117.286 248.607 118.492 248.822 119.68C248.848 119.834 248.87 119.984 248.896 120.135C248.965 120.58 249.036 121.023 249.107 121.458C249.187 122.048 249.265 122.629 249.341 123.203C249.428 123.956 249.505 124.695 249.562 125.412C249.595 125.794 249.623 126.165 249.646 126.533C249.672 127.067 249.704 127.587 249.72 128.088C249.736 128.589 249.736 129.08 249.742 129.548C249.727 130.486 249.71 131.35 249.649 132.115C249.627 132.633 249.576 133.265 249.528 133.685C249.528 133.742 249.514 133.626 249.509 133.685H248.773C248.773 133.685 248.773 133.796 248.773 133.685H246.485C246.567 133.21 246.688 132.476 246.759 131.83C246.861 131.139 246.932 130.332 247.003 129.455C247.025 129.016 247.048 128.558 247.074 128.081C247.1 127.604 247.089 127.114 247.101 126.604C247.101 125.59 247.075 124.517 247.018 123.403C246.984 122.845 246.946 122.279 246.906 121.708C246.866 121.138 246.797 120.553 246.743 119.971C246.615 118.801 246.466 117.613 246.284 116.429C245.602 112.068 244.651 107.752 243.436 103.508C242.941 101.766 242.485 100.326 242.158 99.3237C241.831 98.3218 241.62 97.7551 241.62 97.7551L241.883 97.6481C237.844 83.7971 227.004 71.3488 227.004 71.3488Z" fill="#212183"/>
<path d="M233.688 89.9988C233.688 89.9988 243.265 92.2998 246.743 97.4909C250.377 102.931 249.237 106.61 246.916 108.607C246.924 108.607 243.141 99.4222 233.688 89.9988Z" fill="#3939AA"/>
<path d="M252.188 133.687C252.188 133.302 252.187 132.713 252.229 132.258C252.229 132.21 252.229 132.162 252.229 132.113C252.239 131.992 252.243 131.871 252.248 131.745C252.265 131.422 252.281 131.084 252.319 130.735C252.357 130.273 252.402 129.783 252.447 129.27C252.447 129.187 252.464 129.097 252.47 129.018C252.537 128.418 252.612 127.791 252.686 127.131C252.736 126.639 252.8 126.133 252.871 125.611C252.987 124.747 253.122 123.847 253.247 122.914C253.449 121.413 253.717 119.86 253.965 118.236C254.212 116.612 254.472 114.954 254.732 113.251C254.991 111.547 255.235 109.829 255.469 108.099C255.604 107.129 255.739 106.159 255.864 105.192C255.964 104.435 256.061 103.684 256.149 102.934C256.25 102.108 256.355 101.291 256.457 100.481C256.566 99.6174 256.674 98.7623 256.769 97.9227C256.959 96.2972 257.141 94.7234 257.314 93.2361C257.487 91.7487 257.636 90.3304 257.78 89.0313C258.006 86.9445 258.195 85.1359 258.34 83.7176C251.753 75.55 262.667 54.5023 262.667 54.5023C262.345 68.6176 259.638 80.3645 258.887 83.3721C258.79 84.8491 258.657 86.8029 258.493 89.0918C258.396 90.4013 258.294 91.8161 258.185 93.3155C258.082 94.5904 257.975 95.9258 257.864 97.3026C257.844 97.5427 257.825 97.7845 257.806 98.0281C257.737 98.8861 257.664 99.7596 257.584 100.649C257.515 101.445 257.44 102.252 257.369 103.067C257.226 104.781 257.054 106.522 256.878 108.263C256.701 110.005 256.532 111.748 256.327 113.461C256.123 115.175 255.929 116.856 255.737 118.482C255.545 120.107 255.336 121.688 255.189 123.17C255.041 124.652 254.874 126.055 254.784 127.349C254.732 127.998 254.685 128.617 254.636 129.206C254.588 129.795 254.576 130.351 254.55 130.875C254.524 131.398 254.524 131.882 254.512 132.331C254.5 132.78 254.502 133.336 254.512 133.696L252.188 133.687Z" fill="#212183"/>
<path d="M250.231 83.702C250.34 65.788 251.953 48.8292 252.597 42.7347C252.01 39.8083 250.446 30.3313 252.793 21.9633L254.015 24.9139C254.015 24.9139 255.005 14.9359 257.017 10.3184C257.017 10.3184 255.652 28.5434 253.393 40.6772C253.078 43.3859 250.425 67.265 250.832 90.6017C252.594 84.3412 259.764 86.0722 259.764 86.0722C254.901 88.102 252.71 89.3268 250.877 92.6936C250.887 93.1543 250.9 93.6092 250.915 94.0584C250.917 94.0681 250.917 94.078 250.915 94.0877C251.036 97.9711 251.251 101.811 251.585 105.5C251.659 106.299 251.735 107.091 251.818 107.875C252.069 110.219 252.287 112.313 252.479 114.187C252.633 115.692 252.768 117.053 252.89 118.288C253.194 121.487 253.397 123.84 253.516 125.618C253.802 129.847 253.634 130.821 253.4 132.172C253.333 132.566 253.258 133.155 253.192 133.694H252.621C252.694 133.094 252.772 132.485 252.839 132.077C252.848 132.022 252.858 131.968 252.867 131.916C252.876 131.864 252.884 131.807 252.893 131.752C253.034 130.935 253.1 130.106 253.092 129.277C253.092 127.677 252.948 125.108 252.498 120.232C252.434 119.541 252.363 118.805 252.287 118.017V117.991C252.22 117.3 252.145 116.573 252.069 115.804C251.844 113.558 251.574 110.953 251.254 107.937C250.442 100.282 250.188 91.8938 250.231 83.702Z" fill="#212183"/>
<path d="M220.764 47.9241C227.699 52.4277 230.257 56.1556 231.163 57.9435L231.299 58.1059C231.68 58.5637 232.224 59.2391 232.874 60.1305C234.651 62.5998 236.26 65.1853 237.689 67.8697C238.581 69.535 239.498 71.3627 240.387 73.332C241.277 75.3014 242.149 77.4089 242.973 79.6183C243.797 81.8278 244.586 84.1322 245.284 86.5093C245.656 87.6874 245.961 88.8967 246.307 90.1007C246.608 91.3186 246.942 92.5313 247.214 93.7578C247.485 94.9844 247.781 96.2074 248.02 97.4374C248.145 98.0523 248.266 98.6639 248.392 99.2754L248.719 101.11C248.953 102.409 249.159 103.701 249.348 104.981C249.511 106.1 249.661 107.204 249.796 108.295C249.96 109.464 250.062 110.62 250.185 111.75C250.308 112.879 250.4 113.983 250.486 115.059C250.531 115.598 250.573 116.129 250.615 116.654L250.63 116.849V116.949V117.096V117.483C250.63 117.741 250.63 118.001 250.63 118.245C250.63 118.573 250.63 118.896 250.63 119.212C250.63 119.753 250.64 120.282 250.644 120.798C250.644 120.923 250.644 121.047 250.644 121.173C250.666 123.69 250.687 125.924 250.703 127.784C250.703 128.188 250.703 128.572 250.711 128.938C250.737 131.388 250.751 133.177 250.756 133.684H248.745C248.745 133.684 248.745 133.794 248.745 133.684C248.745 133.445 248.745 132.799 248.757 132.11C248.775 130.075 248.809 126.181 248.854 121.173C248.854 120.828 248.854 120.482 248.865 120.137C248.865 119.522 248.865 118.894 248.88 118.25C248.88 118.001 248.88 117.746 248.88 117.488V117.101V117.003V116.955L248.868 116.765C248.835 116.246 248.801 115.718 248.768 115.187C248.768 115.015 248.745 114.842 248.737 114.669C248.68 113.767 248.621 112.848 248.527 111.905C248.474 111.321 248.425 110.729 248.373 110.131C248.323 109.587 248.268 109.036 248.2 108.481C247.954 106.163 247.65 103.772 247.257 101.35C247.162 100.749 247.065 100.141 246.966 99.5311C246.867 98.9213 246.745 98.3218 246.632 97.7069C246.417 96.4838 246.154 95.2694 245.896 94.0498C245.639 92.8302 245.339 91.6313 245.064 90.422C244.742 89.2249 244.46 88.0243 244.11 86.8496C243.463 84.483 242.705 82.194 241.945 79.9863C241.185 77.7785 240.334 75.6866 239.494 73.7207C238.655 71.7548 237.764 69.9289 236.917 68.267C235.549 65.5884 234.003 63.0041 232.289 60.5313C231.659 59.6451 231.14 58.9662 230.778 58.5136C230.649 58.3564 230.543 58.2268 230.456 58.1249C229.105 57.0003 226.289 54.7632 220.721 50.676C215.011 46.4482 209.631 41.7948 204.625 36.7559C214.868 37.6835 210.979 41.5652 220.764 47.9241Z" fill="#212183"/>
<path d="M245.928 105.665L246.075 105.888C246.16 106.047 246.286 106.28 246.447 106.579C246.608 106.878 246.736 107.248 246.918 107.669L247.058 107.996C247.096 108.11 247.138 108.227 247.177 108.341C247.26 108.583 247.35 108.839 247.437 109.103C247.62 109.635 247.823 110.209 247.975 110.83C248.128 111.452 248.321 112.102 248.494 112.779C248.668 113.456 248.797 114.161 248.958 114.881C249.119 115.602 249.263 116.329 249.415 117.06C249.567 117.791 249.656 118.528 249.775 119.252L250.121 121.379C250.177 121.724 250.23 122.07 250.284 122.394C250.338 122.719 250.362 123.054 250.4 123.37C250.476 124.006 250.547 124.605 250.613 125.16C250.876 127.378 251.051 128.857 251.051 128.857L249.742 128.962L249.448 125.281C249.403 124.728 249.356 124.129 249.304 123.495C249.28 123.178 249.254 122.853 249.227 122.52C249.187 122.19 249.147 121.852 249.105 121.508C249.021 120.817 248.932 120.111 248.848 119.388C248.763 118.666 248.674 117.932 248.576 117.2C248.477 116.467 248.327 115.745 248.205 115.03C248.084 114.315 247.982 113.603 247.826 112.931L247.382 110.988C247.257 110.364 247.079 109.796 246.919 109.26C246.84 108.996 246.765 108.742 246.693 108.502L246.587 108.156C246.546 108.046 246.504 107.939 246.464 107.835C246.303 107.42 246.168 107.052 246.049 106.759C245.929 106.465 245.805 106.258 245.73 106.109L245.594 105.881L245.928 105.665Z" fill="#3939AA"/>
<path d="M294.666 105.085C294.365 104.04 293.871 103.061 293.209 102.198L292.47 101.278C292.228 101.005 291.972 100.745 291.71 100.493C291.286 100.061 290.833 99.6567 290.355 99.284C289.746 98.7658 289.133 98.2389 288.564 97.6706C288.347 97.4521 288.142 97.2213 287.951 96.9796C287.337 96.2039 287.271 95.3522 287.643 94.4539C287.877 93.9335 288.195 93.4544 288.583 93.0357C288.998 92.5572 289.433 92.0925 289.858 91.6226C290.781 90.5999 291.61 89.5064 292.02 88.1676C292.885 85.3346 292.56 82.6742 290.777 80.2488C290.269 79.5923 289.727 78.9631 289.152 78.3641C288.678 77.8706 288.251 77.3339 287.877 76.761C287.651 76.3924 287.504 75.9812 287.444 75.5532C287.384 75.1252 287.414 74.6896 287.53 74.2735C287.726 73.5844 288.013 72.9244 288.384 72.311C288.917 71.3419 289.481 70.3883 289.858 69.3432C291.454 64.9226 289.194 59.5639 284.213 58.213C281.097 57.3648 278.259 58.0144 275.877 60.2445C274.437 61.5937 273.65 63.3039 273.371 65.2543C273.082 67.2841 273.544 69.1584 274.51 70.9377C274.925 71.7116 275.388 72.4596 275.754 73.2594C275.967 73.6973 276.117 74.1623 276.201 74.6414C276.346 75.5639 276.071 76.3689 275.533 77.1169C275.078 77.7124 274.589 78.2806 274.067 78.8185C273.425 79.5095 272.785 80.216 272.336 81.0504C270.657 84.1599 270.746 87.2123 272.667 90.1905C273.207 91.0284 273.913 91.7349 274.583 92.4673C274.989 92.8907 275.357 93.3485 275.684 93.8355C275.883 94.1334 276.035 94.4595 276.137 94.8029C276.239 95.1301 276.266 95.476 276.215 95.8149C276.165 96.1538 276.038 96.477 275.844 96.7602C275.437 97.33 274.958 97.8456 274.42 98.2942C273.446 99.1579 272.426 99.9733 271.521 100.913C270.22 102.264 269.243 103.794 268.833 105.648C268.795 105.821 268.764 105.994 268.736 106.166C268.122 108.254 268.014 110.457 268.423 112.594C268.832 114.731 269.746 116.74 271.088 118.454C272.431 120.168 274.163 121.538 276.142 122.451C278.121 123.363 280.29 123.791 282.467 123.699C284.645 123.608 286.77 122.999 288.665 121.924C290.56 120.849 292.171 119.339 293.364 117.518C294.558 115.697 295.299 113.619 295.527 111.455C295.754 109.291 295.462 107.105 294.673 105.076L294.666 105.085Z" fill="#4D3587"/>
<path d="M282.326 96.0934V145.259C282.326 145.524 282.326 145.79 282.309 146.052C282.314 146.174 282.27 146.292 282.188 146.381C282.106 146.471 281.992 146.525 281.871 146.531C281.547 146.557 281.376 146.368 281.315 146.082C281.286 145.899 281.275 145.714 281.284 145.529C281.284 129.622 281.284 88.1331 281.284 72.2264C281.276 72.0148 281.289 71.803 281.324 71.5942C281.341 71.4725 281.404 71.3622 281.501 71.2869C281.598 71.2116 281.721 71.1774 281.843 71.1916C281.904 71.19 281.963 71.2004 282.02 71.222C282.076 71.2437 282.127 71.2763 282.171 71.3179C282.214 71.3596 282.249 71.4094 282.273 71.4645C282.297 71.5196 282.31 71.579 282.311 71.6391C282.331 71.9034 282.331 72.1677 282.331 72.432L282.326 96.0934Z" fill="#8988C2"/>
<path d="M309.992 89.002C309.992 89.002 284.187 110.046 283.216 135.658C282.106 134.301 281.081 132.877 280.149 131.393C275.979 124.707 274.498 117.324 281.765 112.517C283.37 111.446 284.867 110.222 286.236 108.863C288.195 106.913 289.936 104.756 291.428 102.43C292.346 101.017 293.177 99.549 293.917 98.0351C294.75 96.3285 295.827 94.7521 297.115 93.3553C304.152 85.7215 309.828 88.907 309.989 89.0003L309.992 89.002Z" fill="#3939AA"/>
<path d="M309.992 89.0019C309.992 89.0019 284.186 110.046 283.215 135.658C281.949 134.428 280.911 132.984 280.148 131.393C278.875 128.691 278.307 125.001 281.306 121.235C282.613 119.592 284.301 117.887 285.175 115.954C287.425 110.981 284.868 104.909 291.426 102.43C291.875 102.259 292.338 102.13 292.811 102.043C294 101.82 296.868 100.702 298.924 95.1328C301.579 87.9447 303.77 91.1596 303.77 91.1596C303.77 91.1596 305.786 87.7806 309.992 89.0019Z" fill="#212183"/>
<path d="M260.374 92.0994C260.12 92.0427 259.853 92.0659 259.612 92.1658C259.371 92.2656 259.166 92.4373 259.026 92.6573C258.628 93.2861 258.417 94.3243 259.731 95.6666C259.731 95.6666 263.415 100.263 263.817 102.027C263.817 102.024 266.664 93.4813 260.374 92.0994Z" fill="#2B3872"/>
<path d="M265.831 107.572C265.831 107.572 264.237 101.063 268.214 100.317C268.655 100.234 269.111 100.317 269.494 100.549C269.877 100.781 270.161 101.146 270.291 101.575C270.672 102.865 270.29 105.004 265.831 107.572Z" fill="#2B3872"/>
<path d="M267.973 115.407C267.973 115.407 267.727 109.951 269.953 108.726C270.25 108.563 270.59 108.493 270.928 108.526C271.266 108.56 271.586 108.695 271.845 108.914C272.105 109.133 272.291 109.425 272.38 109.753C272.469 110.08 272.456 110.426 272.343 110.746C271.971 111.801 270.81 113.31 267.973 115.407Z" fill="white"/>
<path d="M269.383 121.579C269.383 121.579 270.092 114.225 273.511 115.325C273.869 115.44 274.18 115.668 274.397 115.975C274.613 116.282 274.724 116.652 274.712 117.027C274.684 117.96 274.212 119.252 272.138 120.137C272.138 120.145 270.362 120.985 269.383 121.579Z" fill="white"/>
<path d="M264.798 104.365C264.798 104.365 260.399 97.8639 257.276 99.182C257.071 99.2695 256.888 99.4029 256.742 99.572C256.595 99.7411 256.49 99.9414 256.434 100.158C256.378 100.374 256.372 100.6 256.417 100.818C256.461 101.037 256.556 101.243 256.693 101.419C256.994 101.806 257.507 102.224 258.351 102.628C258.874 102.882 259.433 103.054 260.009 103.136C261.643 103.381 263.248 103.793 264.798 104.365Z" fill="#2B3872"/>
<path d="M267.36 112.256C267.36 112.256 261.901 102.181 257.777 105.999C257.777 105.999 256.288 107.766 260.472 109.523C260.472 109.523 265.849 110.908 267.36 112.256Z" fill="#2B3872"/>
<path d="M269.027 119.618C269.027 119.618 266.315 110.654 260.584 113.517C260.584 113.517 258.13 115.222 262.18 117.017C266.23 118.811 265.032 117.296 269.027 119.618Z" fill="white"/>
<path d="M270.044 125.696C270.044 125.696 268.694 118.786 264.611 120.622C264.611 120.622 262.644 122.249 266.081 123.944C269.518 125.639 270.044 125.696 270.044 125.696Z" fill="white"/>
<path d="M270.029 131.458L270.648 131.439C270.081 112.885 261.14 94.2657 261.05 94.0808L260.492 94.3486C260.582 94.5334 269.464 113.038 270.029 131.458Z" fill="#2B3872"/>
<path d="M268.148 136.15C268.167 135.965 268.197 135.781 268.237 135.599C268.477 134.511 269.05 133.613 269.813 132.821C270.345 132.27 270.942 131.785 271.515 131.286C271.83 131.022 272.11 130.72 272.349 130.386C272.463 130.22 272.538 130.03 272.568 129.831C272.598 129.632 272.582 129.429 272.522 129.237C272.463 129.035 272.374 128.843 272.257 128.669C272.065 128.383 271.849 128.115 271.612 127.867C271.201 127.453 270.824 127.007 270.487 126.532C269.36 124.783 269.31 122.99 270.295 121.176C270.578 120.7 270.919 120.26 271.311 119.867C271.618 119.551 271.907 119.218 272.176 118.868C272.337 118.666 272.455 118.433 272.522 118.183C272.59 117.934 272.606 117.673 272.569 117.417C272.52 117.135 272.431 116.86 272.306 116.602C272.091 116.134 271.819 115.693 271.575 115.241C271.013 114.204 270.738 113.097 270.909 111.905C271.041 110.785 271.561 109.746 272.378 108.968C273.775 107.66 275.437 107.279 277.268 107.776C280.189 108.569 281.517 111.711 280.579 114.306C280.336 114.908 280.047 115.49 279.713 116.046C279.495 116.405 279.326 116.793 279.213 117.198C279.145 117.442 279.128 117.698 279.163 117.949C279.198 118.2 279.285 118.441 279.417 118.658C279.637 118.994 279.888 119.308 280.167 119.597C280.503 119.949 280.821 120.318 281.119 120.703C282.157 122.127 282.36 123.686 281.847 125.348C281.608 126.129 281.122 126.77 280.58 127.371C280.329 127.648 280.075 127.919 279.831 128.2C279.604 128.446 279.418 128.726 279.281 129.031C279.164 129.269 279.119 129.535 279.15 129.798C279.18 130.06 279.286 130.309 279.454 130.514C279.566 130.656 279.686 130.792 279.814 130.921C280.551 131.657 281.413 132.258 282.105 133.041L282.538 133.582C282.953 134.12 283.256 134.736 283.427 135.394C283.51 135.698 283.563 136.009 283.585 136.323C283.585 136.375 283.585 136.418 283.594 136.454L268.148 136.15Z" fill="#4D3587"/>
<path d="M282.241 131.937C282.282 131.925 282.306 131.823 282.322 131.764C282.377 131.464 282.474 131.174 282.609 130.901C282.756 130.641 282.94 130.42 283.258 130.368C283.436 130.332 283.62 130.353 283.785 130.426C283.95 130.5 284.088 130.624 284.179 130.78C284.35 131.056 284.467 131.362 284.525 131.681C284.56 131.835 284.636 131.833 284.728 131.73C284.819 131.626 284.871 131.54 284.949 131.448C285.097 131.254 285.281 131.09 285.493 130.968C286.074 130.676 286.663 130.968 286.77 131.604C286.817 131.908 286.805 132.219 286.735 132.519C286.699 132.692 286.649 132.849 286.613 133.015C286.588 133.127 286.488 133.264 286.595 133.345C286.67 133.404 286.768 133.281 286.862 133.233C286.955 133.184 287.068 133.112 287.175 133.06C287.447 132.918 287.739 132.817 288.04 132.759C288.207 132.715 288.382 132.719 288.546 132.771C288.711 132.823 288.856 132.921 288.966 133.053C289.209 133.35 289.184 133.683 289.051 134.02C288.9 134.365 288.682 134.678 288.411 134.939C287.896 135.464 287.327 135.933 286.713 136.337C286.413 136.541 286.102 136.726 285.797 136.923H280.936L280.91 136.905C279.96 136.363 279.087 135.697 278.314 134.924C278.069 134.684 277.866 134.406 277.713 134.1C277.549 133.739 277.497 133.369 277.777 133.043C278.057 132.716 278.381 132.697 278.76 132.77C279.175 132.873 279.571 133.042 279.934 133.269C280.006 133.31 280.12 133.385 280.16 133.359C280.235 133.309 280.171 133.205 280.152 133.124C280.089 132.859 280.027 132.593 279.97 132.327C279.919 132.093 279.916 131.85 279.961 131.614C280.096 130.923 280.73 130.65 281.329 131.013C281.624 131.218 281.875 131.482 282.066 131.787C282.111 131.858 282.145 131.963 282.241 131.937Z" fill="#773376"/>
<path d="M273.42 131.521C273.42 130.619 274.077 128.967 275.829 128.33C278.079 127.513 281.713 128.561 281.713 128.561C281.713 128.561 280.429 131.047 278.326 132.189C276.476 133.196 274.443 132.87 273.877 132.111V143.233H273.418V131.521H273.42Z" fill="#3939AA"/>
<path d="M272.168 124.376C272.177 122.925 273.224 120.271 276.036 119.25C279.653 117.936 285.495 119.62 285.495 119.62C285.495 119.62 283.432 123.616 280.053 125.455C277.08 127.074 273.823 126.547 272.904 125.329V143.183H272.168V124.376Z" fill="#3939AA"/>
<path d="M271.51 128.337V135.805H271.36C271.21 135.804 271.06 135.815 270.911 135.838V129.125C270.472 129.712 269.354 130.101 268.021 130.045C266.994 130.001 265.991 129.721 265.091 129.227C262.341 127.729 260.66 124.478 260.66 124.478C260.66 124.478 265.058 123.21 268.014 124.063C268.134 124.096 268.248 124.134 268.36 124.175C270.65 124.996 271.503 127.157 271.51 128.337Z" fill="#3939AA"/>
<path d="M273.062 124.804C273.062 124.804 274.549 118.815 283.919 120.401C283.919 120.401 276.777 120.066 273.062 124.804Z" fill="white"/>
<path d="M273.062 124.804C273.062 124.804 274.548 120.658 281.069 122.432C281.069 122.432 276.036 121.705 273.062 124.804Z" fill="white"/>
<path d="M270.872 128.568C270.872 128.568 269.764 124.11 262.789 125.286C262.789 125.29 268.106 125.041 270.872 128.568Z" fill="white"/>
<path d="M270.873 128.568C270.873 128.568 269.767 125.487 264.91 126.803C264.91 126.803 268.659 126.261 270.873 128.568Z" fill="white"/>
<path d="M273.934 131.557C273.934 131.557 274.861 127.819 280.711 128.809C280.711 128.809 276.253 128.6 273.934 131.557Z" fill="white"/>
<path d="M273.934 131.557C273.934 131.557 274.861 128.974 278.932 130.076C278.932 130.076 275.789 129.622 273.934 131.557Z" fill="white"/>
<path d="M296.176 112.656C296.345 112.643 296.513 112.682 296.659 112.768C296.805 112.854 296.92 112.983 296.989 113.137C297.188 113.575 297.23 114.26 296.266 115.002C296.266 115.002 293.486 117.618 293.068 118.713C293.068 118.715 292.017 112.981 296.176 112.656Z" fill="#2B3872"/>
<path d="M291.48 121.885C291.48 121.885 293.093 117.853 290.615 117.022C290.341 116.93 290.042 116.942 289.776 117.056C289.509 117.17 289.295 117.378 289.173 117.64C288.803 118.428 288.855 119.834 291.48 121.885Z" fill="#2B3872"/>
<path d="M289.397 126.715C289.397 126.715 290.05 123.239 288.734 122.253C288.559 122.121 288.347 122.045 288.127 122.036C287.907 122.027 287.69 122.084 287.503 122.201C287.317 122.318 287.171 122.489 287.084 122.69C286.997 122.892 286.974 123.115 287.017 123.331C287.159 124.042 287.768 125.113 289.397 126.715Z" fill="#2B3872"/>
<path d="M287.936 130.546C287.936 130.546 288.147 125.766 285.859 126.164C285.619 126.205 285.399 126.323 285.232 126.5C285.065 126.677 284.96 126.903 284.933 127.145C284.868 127.746 285.053 128.617 286.302 129.377C286.299 129.377 287.362 130.076 287.936 130.546Z" fill="#2B3872"/>
<path d="M292.434 119.924C292.434 119.924 295.845 116.153 297.726 117.281C297.851 117.355 297.957 117.457 298.035 117.579C298.114 117.7 298.164 117.838 298.181 117.982C298.197 118.126 298.181 118.272 298.132 118.408C298.083 118.544 298.003 118.668 297.899 118.768C297.562 119.064 297.161 119.28 296.728 119.397C296.369 119.512 295.994 119.571 295.616 119.57C294.546 119.579 293.48 119.697 292.434 119.924Z" fill="#2B3872"/>
<path d="M290.078 124.749C290.078 124.749 294.492 118.78 296.79 121.601C296.79 121.601 297.584 122.869 294.743 123.617C294.743 123.619 291.169 124.022 290.078 124.749Z" fill="#2B3872"/>
<path d="M288.34 129.322C288.34 129.322 290.891 123.818 294.307 126.171C294.307 126.171 295.727 127.485 292.966 128.271C290.206 129.057 291.113 128.193 288.34 129.322Z" fill="#2B3872"/>
<path d="M287.207 133.15C287.207 133.15 288.699 128.831 291.151 130.386C291.151 130.386 292.266 131.605 289.909 132.383C287.551 133.16 287.207 133.15 287.207 133.15Z" fill="white"/>
<path d="M286.521 136.876L286.305 136.838L286.317 136.772C288.359 124.946 295.768 113.824 295.845 113.714L295.881 113.657L296.064 113.779L296.026 113.836C295.952 113.945 288.584 124.984 286.533 136.812L286.521 136.876Z" fill="#2B3872"/>
<path d="M289.521 135.62C289.044 135.365 288.512 135.232 287.972 135.233H268.807C268.267 135.233 267.735 135.366 267.258 135.62C265.048 136.8 259.161 140.728 261.893 147.973C262.331 149.14 263.014 150.2 263.895 151.083L266.368 153.55C267.237 154.417 268.416 154.905 269.645 154.906H287.125C288.355 154.905 289.534 154.418 290.403 153.55L292.875 151.083C293.758 150.201 294.441 149.141 294.879 147.973C297.61 140.728 291.726 136.8 289.521 135.62Z" fill="#1E2D6D"/>
<path d="M271.731 131.939H233.199V155.441H271.731V131.939Z" fill="#2B3872"/>
<path d="M250.325 131.939H233.199V155.441H250.325V131.939Z" fill="#4656A1"/>
<path d="M180.952 35.3583L183.773 37.9979L197.334 47.4472V57.8588L182.811 40.5597H180.324L178.559 38.238L180.952 35.3583Z" fill="#F4BA98"/>
<path d="M202.648 132.935L211.834 144.967C212.23 145.486 212.496 146.092 212.611 146.735C212.726 147.377 212.685 148.037 212.493 148.661C212.22 149.512 211.833 150.323 211.342 151.071L211.918 153.251L213.786 151.836C213.786 151.836 221.875 147.154 216.927 143.544C215.479 142.489 214.975 142.162 214.504 141.758L207.297 132.396L202.648 132.935Z" fill="#F4BA98"/>
<path d="M179.2 104.693C179.032 105.175 178.992 105.693 179.082 106.196C179.173 106.699 179.393 107.17 179.72 107.564L199.755 131.949L204.975 138.305L208.551 142.659L213.584 138.567L200.826 120.791L189.048 104.086L197.413 90.5153L208.786 72.0605L193.175 64.4285L179.2 104.693Z" fill="#F05673"/>
<path d="M216.925 143.554L212.508 151.515L211.338 151.072L210.383 153.031C210.284 153.233 210.122 153.397 209.921 153.498C209.72 153.599 209.491 153.631 209.27 153.589C208.007 153.349 207.134 153.532 206.537 153.859C206.373 153.949 206.244 154.092 206.17 154.264C206.096 154.436 206.082 154.628 206.129 154.809C206.176 154.99 206.282 155.15 206.431 155.264C206.579 155.378 206.762 155.44 206.949 155.439H211.717L216.254 152L222.246 147.457C220.264 144.637 216.925 143.554 216.925 143.554Z" fill="#FFDD77"/>
<g style="mix-blend-mode:multiply" opacity="0.6">
<path d="M200.819 120.793L187.968 105.353L183.949 105.781L187.824 103.919L189.261 95.6113L193.422 68.5364L197.406 90.5169L189.043 104.086L200.819 120.793Z" fill="#E14361"/>
</g>
<path d="M195.288 132.042L195.308 147.671C195.308 148.992 194.672 149.744 193.595 150.511C192.861 151.023 192.061 151.434 191.217 151.734L190.352 153.817H192.697C192.697 153.817 202.413 154.826 200.219 149.119C200.035 148.643 199.872 148.298 199.746 148.022C199.437 147.374 199.277 146.666 199.279 145.949L199.303 134.423L195.288 132.042Z" fill="#F4BA98"/>
<path d="M200.223 149.12C200.223 149.12 202.223 152 202.092 155.441H184.381C184.194 155.441 184.012 155.38 183.863 155.265C183.715 155.151 183.609 154.991 183.562 154.81C183.515 154.629 183.53 154.437 183.604 154.265C183.678 154.093 183.807 153.951 183.971 153.861C184.568 153.532 185.439 153.342 186.702 153.589C187.092 153.664 187.497 153.608 187.851 153.429L191.217 151.736L191.88 152.793L200.223 149.12Z" fill="#FFDD77"/>
<path d="M191.196 109.97L191.35 111.722L193.657 138.415L194.152 144.116H200.902C200.902 139.564 201.042 134.198 201.172 128.928C201.279 124.528 201.381 120.183 201.381 116.431C201.381 111.56 201.232 107.678 200.717 105.914C203.103 97.9349 205.024 90.9558 206.404 84.3326C207.044 81.2836 207.569 78.3106 207.97 75.3497C208.078 74.5942 208.402 73.8855 208.901 73.3078C213.877 67.462 210.656 61.0322 210.656 61.0322L205.942 60.6867L204.694 60.5986L198.406 62.6872L193.188 64.4268L191.17 105.734L191.13 106.571C191.077 107.704 191.099 108.84 191.196 109.97Z" fill="#F05673"/>
<g style="mix-blend-mode:multiply" opacity="0.6">
<path d="M204.323 74.479C207.834 66.8642 202.485 62.9048 202.455 62.8755C203.464 62.635 204.513 62.6097 205.532 62.8012C206.791 63.0378 208.302 62.9739 209.645 62.834C209.926 62.8027 210.197 62.7059 210.434 62.5514C210.672 62.3969 210.87 62.1889 211.012 61.9443C211.687 63.9223 212.743 68.7869 208.892 73.3043C208.391 73.8806 208.067 74.5881 207.957 75.3427C207.556 78.3088 207.031 81.2819 206.391 84.3257C205.006 90.9489 203.09 97.9279 200.704 105.907C201.223 107.671 201.372 111.553 201.368 116.424C201.368 120.176 201.266 124.521 201.159 128.921C200.342 120.188 198.784 106.916 198.784 106.916L194.961 105.209H198.383L204.323 74.479Z" fill="#E14361"/>
</g>
<path d="M186.496 14.371L188.789 17.8519L188.879 17.9883L191.602 22.0048L192.083 22.371L199.807 20.355C197.211 18.3718 192.491 10.5083 192.491 10.5083L186.496 14.371Z" fill="#F4BA98"/>
<path d="M191.123 21.6489L189.285 24.4388L189.604 25.3647L190.748 25.8139L191.123 21.6489Z" fill="#FFDD77"/>
<path d="M199.547 18.3615L197.389 16.6548L191.122 21.649L190.016 26.1231L199.547 18.3615Z" fill="white"/>
<path d="M209.86 55.6372C209.742 57.182 210.134 58.7227 210.974 60.0251C211.141 60.2863 211.239 60.5857 211.259 60.895C211.278 61.2044 211.219 61.5137 211.086 61.7938C210.953 62.0739 210.751 62.3157 210.498 62.4965C210.246 62.6772 209.952 62.791 209.643 62.8271C208.291 62.9705 206.789 63.0275 205.531 62.7925C204.55 62.6069 203.542 62.6239 202.568 62.8426C202.529 62.8482 202.49 62.8563 202.452 62.8668C202.333 62.8944 202.213 62.9273 202.095 62.9584C199.778 63.6234 197.422 64.4751 195.409 65.8415C194.612 66.384 192.94 68.9752 191.886 68.6695C190.484 68.2635 191.429 63.8791 191.54 62.8512C191.837 60.2375 191.886 57.3233 192.059 54.5904C192.13 53.5919 192.221 52.6072 192.355 51.6761C192.571 50.1352 192.735 48.7912 192.798 47.7997C192.871 46.6597 192.782 45.5152 192.535 44.3999C191.871 43.9257 191.284 43.3538 190.792 42.7036C188.962 40.2954 188.746 37.4122 188.746 37.4122L189.111 32.5615C188.938 30.3157 189.111 28.0406 190.048 25.9642C190.494 25.0152 191.144 24.1755 191.951 23.5042C193.391 22.2587 196.259 19.3047 197.921 18.6292C199.887 17.8294 201.872 18.7882 203.584 20.241C205.142 21.5556 206.474 23.2779 207.371 24.4613C210.29 28.3136 211.639 32.9899 211.383 37.8078C211.327 38.9169 211.227 40.0708 211.111 41.249C210.642 46.2051 209.818 51.5535 209.86 55.6372Z" fill="white"/>
<path d="M181.062 35.4844L180.953 35.3566C180.317 34.6136 179.464 34.0872 178.513 33.8502L175.87 33.192C175.863 33.1891 175.856 33.1876 175.849 33.1876C175.841 33.1876 175.834 33.1891 175.827 33.192C175.814 33.2003 175.804 33.2132 175.799 33.2283V33.2611C175.737 33.52 175.773 33.7929 175.901 34.0267C176.029 34.2604 176.24 34.4382 176.492 34.5256L178.477 35.2166C178.477 35.2166 178.21 36.8595 180.279 37.395L181.062 35.4844Z" fill="#F4BA98"/>
<path d="M189.701 24.4336C189.701 24.4336 189.474 24.9985 189.074 25.9883C188.813 26.5801 188.593 27.1897 188.418 27.8126C188.216 28.5502 187.944 29.388 187.726 30.3122C187.553 31.2365 187.34 32.2418 187.165 33.3163C187.056 34.396 186.883 35.5396 186.819 36.7316C186.793 37.3293 186.767 37.9408 186.739 38.5524L186.703 39.4852C186.703 39.7961 186.715 40.1105 186.722 40.4267C186.734 41.0589 186.748 41.6964 186.762 42.3269C186.776 42.9574 186.855 43.6087 186.9 44.2548C186.975 45.547 187.17 46.8305 187.356 48.1019L187.423 48.5787L187.44 48.6979L187.449 48.7566V48.7722C187.458 48.8015 187.437 48.7273 187.466 48.843V48.8706L187.511 49.0952C187.575 49.3993 187.608 49.648 187.7 49.9918L187.716 50.0557C187.889 50.7467 188.062 51.3392 188.235 51.9248C188.96 54.288 189.696 56.2988 190.071 57.9279C190.246 58.6265 190.371 59.3365 190.447 60.0527C190.493 60.5367 190.5 61.0237 190.469 61.5089C190.45 61.6921 190.433 61.8545 190.419 61.9996C190.405 62.1447 190.365 62.2466 190.346 62.3451L190.291 62.6249L192.325 66.4634L196.321 63.905C196.321 63.905 196.335 63.6942 196.357 63.3021C196.368 63.1069 196.383 62.8633 196.388 62.5817L196.347 61.6247C196.282 60.8016 196.152 59.9849 195.959 59.182C195.723 58.2228 195.422 57.2809 195.057 56.3627C194.312 54.4141 193.258 52.4258 192.333 50.4064C192.107 49.9019 191.885 49.3889 191.705 48.9345C191.606 48.7238 191.508 48.387 191.409 48.1123L191.336 47.8946L191.326 47.8687C191.354 47.9741 191.326 47.8894 191.336 47.9102V47.8964L191.321 47.8445L191.291 47.7391L191.174 47.3159C190.852 46.1844 190.509 45.0304 190.281 43.8488C190.159 43.2598 190.005 42.6724 189.91 42.0816C189.815 41.4908 189.725 40.8948 189.633 40.3092C189.587 40.0138 189.54 39.7202 189.495 39.4282C189.45 39.1363 189.439 38.8443 189.412 38.5558C189.36 37.9806 189.306 37.4139 189.254 36.856C189.254 36.8421 189.254 36.8266 189.254 36.811C189.169 35.6882 189.187 34.605 189.147 33.5668C189.175 32.5303 189.247 31.556 189.287 30.6439C189.372 29.7508 189.514 28.9544 189.606 28.2254C189.703 27.5175 189.845 26.8165 190.031 26.1265C190.175 25.583 190.279 25.0299 190.343 24.4716L189.701 24.4336Z" fill="#FFDD77"/>
<path d="M177.717 28.6487C180.346 27.7729 181.005 22.6561 179.191 17.218C177.378 11.7798 173.771 8.08127 171.142 8.95711L168.93 9.69302L175.507 29.3864L177.717 28.6487Z" fill="#3939AA"/>
<path d="M175.501 29.4089C178.13 28.5342 178.791 23.4167 176.975 17.9786C175.159 12.5406 171.556 8.84129 168.926 9.716C166.296 10.5907 165.636 15.7082 167.451 21.1462C169.267 26.5843 172.871 30.2836 175.501 29.4089Z" fill="#212183"/>
<path d="M175.792 18.3512C175.872 18.5913 175.948 18.8297 176.015 19.0681C176.748 21.5505 176.922 23.8878 176.588 25.56C176.336 26.8366 175.782 27.7297 174.953 28.0044C172.933 28.6764 170.036 25.4442 168.48 20.7835C166.924 16.1227 167.298 11.8005 169.318 11.1286C171.337 10.4566 174.236 13.6887 175.792 18.3512Z" fill="white"/>
<path d="M182.403 40.4889C182.443 40.6076 182.459 40.7328 182.45 40.8575C182.441 40.9823 182.407 41.104 182.351 41.2158C182.295 41.3276 182.217 41.4273 182.123 41.5092C182.028 41.5911 181.918 41.6535 181.799 41.693C181.68 41.7324 181.555 41.7482 181.43 41.7392C181.305 41.7303 181.183 41.6969 181.071 41.6409C180.959 41.5849 180.859 41.5074 180.777 41.4129C180.695 41.3184 180.632 41.2087 180.593 41.0901L176.512 28.8733L178.322 28.2704L182.403 40.4889Z" fill="#3939AA"/>
<path d="M183.465 41.6567C183.524 41.8324 183.548 42.018 183.534 42.2028C183.521 42.3876 183.472 42.568 183.389 42.7337C183.306 42.8995 183.191 43.0473 183.051 43.1686C182.911 43.29 182.748 43.3827 182.572 43.4412L182.236 43.5535C181.88 43.6716 181.492 43.6439 181.157 43.4764C180.822 43.3089 180.567 43.0154 180.448 42.6604L176.914 32.0761L179.931 31.0724L183.465 41.6567Z" fill="#212183"/>
<path d="M178.321 28.2601C178.355 28.3654 177.974 28.5866 177.479 28.7524C176.984 28.9183 176.547 28.9683 176.51 28.8612C176.474 28.7541 176.856 28.5348 177.351 28.3689C177.846 28.2031 178.286 28.1547 178.321 28.2601Z" fill="#3939AA"/>
<path d="M169.686 20.381C168.289 16.1953 168.45 12.2825 169.961 11.0422C169.743 11.0317 169.526 11.0603 169.319 11.1268C167.299 11.7988 166.923 16.1227 168.479 20.7834C170.035 25.4442 172.934 28.6781 174.954 28.0061C175.16 27.936 175.352 27.8282 175.518 27.6882C173.564 27.6001 171.093 24.5684 169.686 20.381Z" fill="#A8D1E3"/>
<path d="M176.014 19.0681C176.746 21.5505 176.921 23.8878 176.587 25.56C175.794 25.2991 174.643 24.5701 173.153 22.7407C173.153 22.7407 170.574 18.8469 168.388 19.1406L168.141 13.5694C168.141 13.5694 169.157 13.4969 170.872 17.0763C172.587 20.6556 175.155 19.398 175.155 19.398C175.424 19.2473 175.713 19.1361 176.014 19.0681Z" fill="#D1E6F7"/>
<path d="M169.686 20.381C168.289 16.1953 168.45 12.2825 169.961 11.0422C169.743 11.0317 169.526 11.0603 169.319 11.1268C167.299 11.7988 166.923 16.1227 168.479 20.7834C170.035 25.4442 172.934 28.6781 174.954 28.0061C175.16 27.936 175.352 27.8282 175.518 27.6882C173.564 27.6001 171.093 24.5684 169.686 20.381Z" fill="#3939AA"/>
<path d="M180.377 36.267C180.993 37.2361 181.325 39.0655 180.756 40.171C180.223 41.2075 178.738 41.0175 177.911 40.4699C177.391 40.1244 177.118 39.5284 176.91 38.9635C176.32 37.3604 175.858 35.1078 178.214 34.8262C179.176 34.7105 179.92 35.538 180.377 36.267Z" fill="#F4BA98"/>
<path d="M176.514 8.20397C176.514 8.18497 176.514 8.16423 176.514 8.14522C176.379 3.10787 183.497 -0.559589 187.641 0.0709439C191.606 0.673837 194.728 7.779 193.368 11.1269L184.022 11.3186L181.001 12.8872L180.037 12.3689C179.972 12.3326 179.902 12.2981 179.837 12.2653C179.324 12.0131 176.593 10.581 176.514 8.20397Z" fill="#172F57"/>
<path d="M182.311 17.2089C182.788 16.9664 182.598 15.6395 181.887 14.2453C181.175 12.851 180.212 11.9174 179.735 12.1598C179.258 12.4023 179.448 13.7291 180.159 15.1234C180.871 16.5176 181.834 17.4514 182.311 17.2089Z" fill="white"/>
<path d="M182.136 17.1488C182.136 17.1488 183.897 20.3395 185.813 21.4089C185.813 21.4089 190.293 21.3518 189.836 15.4369C189.836 15.4369 189.616 14.1448 190.559 13.5557C190.559 13.5557 192.809 12.4795 190.308 9.29915C190.179 9.12739 190.006 8.99411 189.807 8.91371C189.608 8.83332 189.39 8.8089 189.178 8.84311C188.761 8.92085 188.363 9.23523 188.486 10.2009L187.871 9.15234L188.929 5.27236C188.929 5.27236 185.64 3.70727 181.313 7.44383C181.313 7.44383 178.456 10.0247 181 14.0083C181 14.0083 181.274 14.473 181.142 15.3505L180.924 16.2005C180.924 16.2005 180.611 17.7379 182.136 17.1488Z" fill="#F4BA98"/>
<path d="M194.469 5.64982C195.854 4.97587 196.427 3.30328 195.748 1.914C195.07 0.524721 193.397 -0.0551514 192.012 0.618802C190.627 1.29276 190.054 2.96534 190.733 4.35462C191.411 5.7439 193.084 6.32378 194.469 5.64982Z" fill="#172F57"/>
<path d="M183.597 16.3523C184.08 16.1068 183.887 14.763 183.167 13.3509C182.446 11.9388 181.471 10.9931 180.988 11.2386C180.505 11.4841 180.697 12.8279 181.418 14.24C182.139 15.6521 183.114 16.5978 183.597 16.3523Z" fill="white"/>
<g style="mix-blend-mode:multiply">
<path d="M209.859 55.6373C209.741 57.182 210.133 58.7227 210.973 60.0251C211.14 60.2863 211.238 60.5857 211.258 60.895C211.278 61.2044 211.218 61.5137 211.085 61.7938C210.952 62.074 210.75 62.3157 210.497 62.4965C210.245 62.6772 209.951 62.791 209.642 62.8271C208.291 62.9705 206.788 63.0275 205.53 62.7925C204.549 62.6069 203.541 62.6239 202.567 62.8426C201.356 60.9614 201.226 58.7122 203.42 57.1799C205.086 56.0141 206.227 54.2416 206.596 52.2445C207.584 46.8979 205.291 42.2613 205.291 42.2613L202.043 47.8394C200.109 50.6811 195.336 50.4773 195.336 50.4773L203.59 20.2462C205.148 21.5608 206.48 23.2831 207.377 24.4665C210.297 28.3188 211.645 32.9951 211.389 37.813C211.333 38.9221 211.233 40.076 211.117 41.2542C210.641 46.2052 209.817 51.5535 209.859 55.6373Z" fill="#CCDAE9"/>
</g>
<path d="M205.229 25.0728L201.188 43.6744L200.553 46.599C200.389 47.3568 200.029 48.0585 199.51 48.6343C198.99 49.2102 198.328 49.6401 197.59 49.8813L191.625 51.8402L188.969 46.1395L192.43 44.45L192.82 40.7117L194.628 23.3781C194.753 22.1583 195.293 21.0182 196.159 20.1482C197.025 19.2782 198.163 18.731 199.384 18.5981C200.158 18.5093 200.942 18.5905 201.681 18.8361C202.419 19.0817 203.095 19.4858 203.661 20.0199C203.967 20.3037 204.237 20.6233 204.466 20.9717C204.86 21.5703 205.13 22.2413 205.262 22.9455C205.393 23.6497 205.382 24.3729 205.229 25.0728Z" fill="#CCDAE9"/>
<g style="mix-blend-mode:screen" opacity="0.5">
<path d="M202.158 23.3212C201.867 24.6358 200.929 26.2269 198.399 27.5467C193.033 30.3504 194.764 34.5637 195.728 36.3931C196.284 37.4573 196.408 40.007 195.07 41.4339C194.9 41.614 194.682 41.7422 194.442 41.8033C194.201 41.8645 193.949 41.8562 193.713 41.7794C193.477 41.7027 193.268 41.5606 193.11 41.3697C192.952 41.1789 192.851 40.9471 192.82 40.7015L194.629 23.3782C194.754 22.1584 195.294 21.0183 196.16 20.1483C197.025 19.2783 198.164 18.7311 199.385 18.5983C201.448 18.3806 202.48 21.8632 202.158 23.3212Z" fill="white"/>
</g>
<path d="M191.628 51.8333L188.97 46.1326L170.721 55.2226C170.486 54.9936 170.239 54.7773 169.982 54.5748C169.496 54.2654 168.972 54.0193 168.424 53.8424C168.168 53.7698 167.678 53.8147 167.346 53.6454C167.013 53.4761 166.065 53.2637 165.731 53.1479C165.397 53.0322 165.212 52.761 165.038 53.0961C164.865 53.4312 165.187 53.8925 165.412 54.1101C165.795 54.4781 166.434 54.6284 166.837 54.8167C167.24 55.005 167.441 55.062 166.93 55.3729C166.42 55.6839 164.76 55.5319 164.246 55.5232C163.732 55.5146 162.411 55.4351 162.058 55.4161C161.705 55.3971 161.113 55.3384 161.068 55.9343C161.023 56.5303 162.127 56.4854 162.394 56.5355C162.66 56.5856 163.313 56.6185 163.618 56.6617C163.922 56.7048 165.335 56.7601 165.371 57.0503C165.407 57.3406 164.293 57.4148 163.905 57.4839C163.517 57.553 162.683 57.7482 162.394 57.8398C162.105 57.9313 161.603 58.035 161.293 58.1006C160.983 58.1663 160.641 58.3753 160.729 58.7916C160.817 59.2079 161.16 59.1682 161.33 59.1371C161.499 59.106 162.129 58.9799 162.403 58.935C162.676 58.8901 163.419 58.783 163.837 58.7329C164.256 58.6828 165.222 58.5169 165.509 58.4392C165.797 58.3615 165.973 58.5947 165.793 58.7519C165.613 58.9091 164.209 59.7659 163.931 59.9076C163.652 60.0492 163.014 60.3325 162.546 60.6107C162.079 60.8888 162.027 61.1617 162.176 61.3846C162.233 61.4835 162.323 61.5597 162.43 61.6003C162.536 61.6409 162.654 61.6434 162.763 61.6074C162.962 61.5366 163.862 61.0356 164.258 60.8784C164.785 60.6484 165.3 60.3912 165.8 60.108C166.134 59.9145 166.612 59.7625 166.719 59.8834C166.826 60.0043 166.482 60.3377 166.247 60.6159C166.011 60.894 165.321 61.6213 164.916 61.9979C164.511 62.3744 164.57 62.6785 164.679 62.8288C164.788 62.9791 165.07 63.0257 165.412 62.8046C165.755 62.5835 166.461 61.8665 166.724 61.5953C166.987 61.3241 167.787 60.602 167.787 60.602C168.209 60.4586 168.446 60.3308 168.806 60.1978C169.073 60.0994 169.57 59.7849 169.933 59.702C170.923 59.474 171.262 58.2872 171.565 57.6878L191.628 51.8333Z" fill="#F4BA98"/>
<path d="M193.316 51.3703C193.346 51.4916 193.329 51.6195 193.269 51.7288C193.208 51.8382 193.109 51.9211 192.991 51.9611L190.606 52.7731C190.509 52.8061 190.405 52.8088 190.307 52.781C190.209 52.7532 190.122 52.6962 190.057 52.6176C188.797 51.0888 187.651 49.6912 187.099 46.8806C187.078 46.7739 187.093 46.6633 187.14 46.5655C187.187 46.4676 187.266 46.3879 187.362 46.3382L190.215 44.8819C190.325 44.8256 190.452 44.8122 190.572 44.8441C190.691 44.876 190.795 44.951 190.862 45.0546C192.19 47.0723 192.702 48.8517 193.316 51.3703Z" fill="white"/>
<path d="M190.189 19.4239C189.556 18.6855 189.237 17.7296 189.301 16.7601L189.498 13.7007C187.433 10.301 189.178 8.84304 189.178 8.84304L189.351 7.35046L185.072 8.11577L185.195 9.54782C187.253 10.2492 187.965 13.0615 187.965 13.0615C188.629 15.0292 187.248 16.482 185.791 17.4183L182.767 17.667C182.685 17.6786 182.607 17.7089 182.539 17.7557C182.471 17.8024 182.414 17.8643 182.374 17.9365C182.332 18.0127 182.305 18.0967 182.296 18.1834C182.287 18.2701 182.296 18.3578 182.322 18.441C182.347 18.527 182.388 18.6072 182.445 18.6769C182.501 18.7467 182.57 18.8045 182.649 18.8469C182.724 18.8866 182.807 18.9092 182.892 18.9131C182.976 18.917 183.061 18.9021 183.139 18.8694L183.567 20.6677L183.539 20.659C183.693 21.2703 183.781 21.8964 183.8 22.5265C183.83 23.8964 182.166 25.9503 183.721 27.0525C184.944 27.9162 187.018 27.455 188.202 26.7744C190.812 25.2801 192.302 21.8908 190.189 19.4239Z" fill="#3266A1"/>
<path d="M194.5 13.6351L190.22 13.0166L190.903 12.1874L189.444 10.1714C188.776 9.24723 187.684 8.78944 186.658 9.00538C186.149 9.11439 185.658 9.29711 185.202 9.54779C185.202 9.54779 183.899 10.3442 183.419 9.07273C183.032 8.03624 183.101 7.92051 182.062 7.61474C182.062 7.61474 190.157 0.466405 193.286 9.09694C193.539 9.78715 193.615 10.5293 193.508 11.2563C193.383 12.0786 194.486 12.3083 194.5 13.6351Z" fill="#3B4670"/>
<path d="M190.566 13.547C190.566 13.547 192.887 12.438 190.308 9.15918C190.175 8.98146 189.997 8.84349 189.791 8.76033C189.585 8.67716 189.36 8.65199 189.141 8.68758C188.752 8.76013 188.378 9.03309 188.406 9.82255C188.406 9.82255 188.312 10.8366 189.098 12.0683C189.093 12.0717 189.6 13.4123 190.566 13.547Z" fill="#F4BA98"/>
<path d="M180.631 14.6854C180.591 14.685 180.551 14.6735 180.516 14.6522C180.481 14.6309 180.453 14.6006 180.434 14.5645C180.408 14.5122 180.403 14.4516 180.421 14.3959C180.439 14.3402 180.479 14.2939 180.531 14.2673L189.093 9.91408C189.119 9.90081 189.147 9.89275 189.176 9.89038C189.205 9.88802 189.235 9.89139 189.262 9.90029C189.29 9.90919 189.316 9.92348 189.338 9.9423C189.36 9.96111 189.378 9.98409 189.392 10.0099C189.405 10.0358 189.413 10.0641 189.415 10.093C189.418 10.122 189.414 10.1511 189.405 10.1788C189.397 10.2065 189.382 10.2321 189.363 10.2543C189.344 10.2764 189.321 10.2947 189.296 10.308L180.732 14.6612C180.701 14.6777 180.666 14.6861 180.631 14.6854Z" fill="white"/>
<g style="mix-blend-mode:multiply">
<path d="M189.301 16.7602C189.238 17.7297 189.556 18.6855 190.189 19.424C190.731 20.039 191.073 20.8042 191.168 21.6179L193.92 19.4257C193.295 18.1387 192.337 17.871 190.718 17.5427C189.853 17.37 189.495 16.679 189.356 15.9569L189.301 16.7602Z" fill="#F5D4AF"/>
</g>
<path d="M250.593 78.0065C250.593 78.0065 246.82 60.013 236.969 53.319C236.969 53.319 251.851 56.6668 250.593 78.0065Z" fill="#212183"/>
<path d="M251.899 56.3767C251.899 56.3767 251.726 45.3708 261.861 42.5481C261.861 42.5481 259.706 51.9664 251.899 56.3767Z" fill="#212183"/>
<defs>
<linearGradient id="paint0_linear_1090_739" x1="-219.836" y1="717.282" x2="-240.948" y2="762.009" gradientUnits="userSpaceOnUse">
<stop stop-color="white"/>
<stop offset="1" stop-color="#EDEDED"/>
</linearGradient>
<linearGradient id="paint1_linear_1090_739" x1="84.3924" y1="67.9583" x2="84.3861" y2="67.9618" gradientUnits="userSpaceOnUse">
<stop stop-color="#F8D2AB"/>
<stop offset="0.15" stop-color="#F6C293"/>
<stop offset="0.38" stop-color="#F4AC72"/>
<stop offset="0.61" stop-color="#F29C5A"/>
<stop offset="0.82" stop-color="#F1924C"/>
<stop offset="1" stop-color="#F18F47"/>
</linearGradient>
<radialGradient id="paint2_radial_1090_739" cx="0" cy="0" r="1" gradientUnits="userSpaceOnUse" gradientTransform="translate(121.261 23.5042) scale(58.6724 58.5619)">
<stop stop-color="white"/>
<stop offset="1" stop-color="#D7E3ED"/>
</radialGradient>
</defs>
</svg>
