<svg width="205" height="184" viewBox="0 0 205 184" fill="none" xmlns="http://www.w3.org/2000/svg">
<path style="mix-blend-mode:multiply" opacity="0.25" d="M0.0263672 110.37V183.433H204.431V110.37H202.439V107.792H198.201V94.4471H197.396V89.5777H196.455V94.4471H192.439V89.5777H191.498V94.4471H190.831V102.897H187.884V100.033H185.877V97.3114H182.256V75.8287H180.65V73.5373H179.445V72.1051H178.506V70.5297H176.9V68.6679H175.022V65.8057H174.081V68.6679H172.209V101.608H170.739V99.4597H168.06V93.5899H164.711V87.2862H156.94V101.968H154.826V113.569H152.786V104.691H151.582V92.5483H143.81V98.0883H142.068V100.237H139.792V102.242H138.454V103.101H135.237V92.2163H130.95V89.4475H129.745V83.658H121.973V98.8868H119.297V95.0199H118.36V92.301H112.732V110.099H112.196V114.252H110.722V109.956H108.712V91.012H101.612V100.892H100.407V100.608H99.7355V99.3165H96.6549V100.608H95.1804V90.5802H93.0389V87.718H87.277V82.8486H85.9385V80.1253H85.2693V78.1224H84.1964V74.8284H82.9917V70.2454H82.1865V74.8284H80.5803V78.1224H79.7751V80.1253H78.7043V82.8486H78.0351V101.608H76.2951V105.332H74.4169V98.1707H70.1317V96.8818H68.7911V91.4395H67.3166V88.5751H65.8443V84.9947H62.6276V88.7205H60.4861V92.8738H59.547V90.5802H57.5372V104.186H55.7972V86.429H54.5904V81.8461H49.3661V89.007H47.3562V101.751H46.1516V93.4445H44.5433V88.0044H41.8642V78.2635H38.1122V68.67H37.1752V66.2353H30.2087V68.67H29.4057V92.8738H28.3327V89.8641H24.0475V92.8738H21.9038V95.4496H20.0882V93.616H14.3609V98.7718H12.8519V96.5151H5.01754V102.637H0.0263672V107.792V110.37Z" fill="url(#paint0_linear_201_2976)"/>
<path d="M94.9758 48.3704L133.506 161.554H155.515L99.8482 46.5889L94.9758 48.3704Z" fill="white"/>
<path d="M95.5703 47.8739L125.381 131.268L136.193 126.498L99.0309 46.6631L95.5703 47.8739Z" fill="#FAE157"/>
<path d="M96.8405 40.115L93.2999 41.4082L93.8227 42.8542L97.3633 41.561L96.8405 40.115Z" fill="#17438D"/>
<path d="M97.8658 42.0079L93.7246 43.5205L94.2474 44.9665L98.3886 43.4539L97.8658 42.0079Z" fill="#17438D"/>
<path d="M99.7389 43.9691L93.5423 46.2324L94.065 47.6784L100.262 45.4151L99.7389 43.9691Z" fill="#17438D"/>
<path d="M94.2699 41.0535L93.3041 41.4062L93.8268 42.8523L94.7926 42.4995L94.2699 41.0535Z" fill="#172F57"/>
<path d="M94.863 43.1019L93.7328 43.5146L94.2556 44.9606L95.3857 44.5478L94.863 43.1019Z" fill="#172F57"/>
<path d="M95.2386 45.6124L93.5464 46.2305L94.0692 47.6764L95.7614 47.0584L95.2386 45.6124Z" fill="#172F57"/>
<path d="M98.6211 41.4959C98.6885 41.6824 98.6796 41.8881 98.5962 42.068C98.5128 42.2478 98.3618 42.387 98.1764 42.455L93.6752 44.0999C93.4892 44.1677 93.2839 44.1584 93.1046 44.0742C92.9253 43.99 92.7866 43.8377 92.7189 43.6507C92.6856 43.5582 92.6707 43.4601 92.6751 43.3618C92.6795 43.2636 92.7031 43.1671 92.7446 43.0781C92.7861 42.989 92.8447 42.9091 92.9169 42.8427C92.9892 42.7764 93.0738 42.725 93.1658 42.6916L97.6669 41.0467C97.7589 41.0132 97.8566 40.9983 97.9543 41.0027C98.0521 41.0072 98.148 41.0309 98.2366 41.0726C98.3252 41.1143 98.4048 41.1732 98.4707 41.2458C98.5367 41.3185 98.5878 41.4034 98.6211 41.4959V41.4959Z" fill="white"/>
<path d="M93.721 43.2892C93.6876 43.1967 93.6727 43.0986 93.6771 43.0003C93.6815 42.902 93.7052 42.8056 93.7467 42.7166C93.7882 42.6275 93.8467 42.5475 93.919 42.4812C93.9913 42.4149 94.0758 42.3635 94.1678 42.3301L93.1575 42.699C93.0655 42.7324 92.9809 42.7837 92.9087 42.8501C92.8364 42.9164 92.7778 42.9964 92.7363 43.0854C92.6948 43.1745 92.6712 43.2709 92.6668 43.3692C92.6624 43.4674 92.6773 43.5656 92.7106 43.6581C92.7783 43.845 92.917 43.9974 93.0963 44.0816C93.2757 44.1658 93.4809 44.175 93.667 44.1073L94.6773 43.7384C94.5852 43.7722 94.4873 43.7875 94.3893 43.7832C94.2913 43.7789 94.1952 43.7552 94.1063 43.7135C94.0174 43.6718 93.9376 43.6128 93.8715 43.54C93.8054 43.4672 93.7542 43.3819 93.721 43.2892V43.2892Z" fill="#BBCDEA"/>
<path d="M100.34 43.4693C100.374 43.5616 100.389 43.6596 100.385 43.7579C100.381 43.8561 100.358 43.9526 100.316 44.0417C100.275 44.1308 100.216 44.2109 100.144 44.2772C100.072 44.3436 99.9875 44.3949 99.8955 44.4284L93.6242 46.7199C93.4384 46.7877 93.2334 46.7788 93.0541 46.695C92.8748 46.6112 92.7359 46.4594 92.6678 46.2728C92.6342 46.1802 92.619 46.0819 92.6233 45.9834C92.6275 45.8849 92.6511 45.7882 92.6926 45.6989C92.7341 45.6096 92.7928 45.5293 92.8652 45.4629C92.9377 45.3964 93.0224 45.345 93.1147 45.3116L99.3753 43.0201C99.4679 42.9849 99.5666 42.9686 99.6655 42.9722C99.7645 42.9758 99.8617 42.9992 99.9516 43.041C100.041 43.0828 100.122 43.1422 100.189 43.2158C100.256 43.2893 100.307 43.3755 100.34 43.4693V43.4693Z" fill="white"/>
<path d="M93.6742 45.9056C93.6068 45.7186 93.616 45.5123 93.6998 45.332C93.7835 45.1518 93.9351 45.0124 94.1211 44.9443L93.1107 45.3132C93.0187 45.3469 92.9341 45.3984 92.8619 45.465C92.7897 45.5316 92.7312 45.6118 92.6899 45.7011C92.6486 45.7904 92.6252 45.887 92.6211 45.9854C92.617 46.0838 92.6323 46.182 92.666 46.2745C92.6993 46.367 92.7504 46.4519 92.8164 46.5245C92.8824 46.5971 92.962 46.6558 93.0507 46.6973C93.1394 46.7388 93.2353 46.7623 93.3331 46.7665C93.4308 46.7707 93.5284 46.7554 93.6202 46.7215L94.6305 46.3526C94.5386 46.3865 94.4408 46.4018 94.3429 46.3977C94.245 46.3936 94.1489 46.3701 94.0601 46.3286C93.9713 46.2871 93.8914 46.2283 93.8252 46.1557C93.759 46.0831 93.7077 45.9982 93.6742 45.9056V45.9056Z" fill="#BBCDEA"/>
<path d="M102.167 45.4033C102.235 45.5904 102.225 45.7967 102.142 45.9769C102.058 46.1571 101.906 46.2966 101.72 46.3646L93.4585 49.3831C93.2727 49.4509 93.0677 49.442 92.8884 49.3582C92.7091 49.2744 92.5702 49.1226 92.5021 48.936C92.4684 48.8434 92.4533 48.7451 92.4575 48.6466C92.4618 48.5481 92.4854 48.4514 92.5269 48.3621C92.5684 48.2728 92.6271 48.1925 92.6995 48.1261C92.7719 48.0596 92.8567 48.0082 92.949 47.9748L101.211 44.9563C101.397 44.8884 101.602 44.8973 101.781 44.9811C101.96 45.0649 102.099 45.2168 102.167 45.4033V45.4033Z" fill="white"/>
<path d="M93.5038 48.5668C93.4701 48.4743 93.4548 48.3761 93.4589 48.2777C93.463 48.1793 93.4864 48.0827 93.5277 47.9934C93.569 47.9041 93.6275 47.8239 93.6997 47.7573C93.7719 47.6907 93.8564 47.6391 93.9485 47.6055L92.9382 47.9744C92.7526 48.0429 92.6016 48.1825 92.5182 48.3627C92.4348 48.5429 92.4259 48.7489 92.4935 48.9357C92.5267 49.0282 92.5778 49.1131 92.6438 49.1857C92.7099 49.2583 92.7895 49.317 92.8782 49.3585C92.9668 49.4 93.0628 49.4235 93.1605 49.4277C93.2582 49.4318 93.3558 49.4166 93.4477 49.3827L94.458 49.0138C94.3662 49.0476 94.2686 49.063 94.1708 49.0588C94.0731 49.0547 93.9771 49.0312 93.8885 48.9896C93.7998 48.9481 93.7202 48.8893 93.6542 48.8168C93.5882 48.7442 93.537 48.6593 93.5038 48.5668Z" fill="#BBCDEA"/>
<path d="M65.0091 15.7493C64.7717 14.7294 64.5558 13.857 64.3615 13.0889L61.3284 13.7963C61.4579 14.5254 61.6047 15.2957 61.7774 16.1225C61.9361 16.8793 62.2754 17.586 62.7661 18.1818L73.1587 30.785L75.162 24.811C72.0555 21.7709 68.1632 18.0407 65.0091 15.7493Z" fill="#DFF2F8"/>
<g style="mix-blend-mode:multiply">
<path d="M72.2469 29.6904L73.186 26.8C73.186 26.8 71.2668 21.4163 71.2625 21.4011C71.6424 22.4709 71.161 24.7971 69.6908 24.4608C68.8079 24.2612 67.9638 23.454 67.2773 22.9093C66.5476 22.3566 65.8499 21.7625 65.1876 21.1299L72.2469 29.6904Z" fill="#DFF2F8"/>
</g>
<path d="M64.3606 13.0882C63.3956 9.34936 62.8495 8.17108 62.163 5.5541C62.0982 5.23728 62.027 4.89005 61.9903 4.70126C61.9546 4.56686 61.9386 4.428 61.9428 4.28899C61.9428 4.27814 61.9428 4.26513 61.9428 4.25211V4.22171C61.9529 4.17916 61.9651 4.13714 61.9794 4.09583L62.0162 4.00254C62.1582 3.69706 62.3662 3.42726 62.6249 3.21269C63.1128 2.79172 63.1193 2.30778 63.1819 1.98446C63.2445 1.66113 63.3978 1.19458 63.1819 1.05787C62.966 0.921167 62.7091 0.938548 62.4587 0.80835C62.4265 0.703324 62.3861 0.601037 62.3378 0.502403C62.3102 0.46006 62.2744 0.423652 62.2326 0.395335C62.1908 0.367018 62.1439 0.347326 62.0944 0.33743C62.045 0.327535 61.9941 0.327633 61.9447 0.337695C61.8953 0.347758 61.8484 0.367619 61.8067 0.396077C61.6711 0.463818 61.5645 0.578687 61.5067 0.7194C61.4643 0.663875 61.4064 0.622309 61.3404 0.600041C61.2562 0.573538 61.1653 0.577385 61.0835 0.610902C61.0099 0.630974 60.9417 0.667554 60.8841 0.717917C60.8265 0.768279 60.7811 0.831079 60.7511 0.901643C60.7084 0.887926 60.6641 0.879931 60.6194 0.877803C60.521 0.868212 60.4225 0.895443 60.3428 0.954303C60.2632 1.01316 60.2079 1.09951 60.1876 1.19678C60.1432 1.17757 60.0957 1.16656 60.0473 1.16425C59.9606 1.15986 59.8752 1.18592 59.8055 1.238C59.7669 1.26674 59.7352 1.30382 59.7127 1.3465C59.6782 1.41366 59.6598 1.48794 59.6587 1.56349V1.56349C59.6815 2.35442 59.8019 3.13945 60.0171 3.90055L60.1445 4.60579C60.5007 7.55478 60.6561 10.1262 61.3038 13.7978L64.3606 13.0882Z" fill="#FBCCC9"/>
<path d="M61.0112 12.553C60.9713 12.5632 60.9363 12.5873 60.9125 12.6212C60.8888 12.655 60.8778 12.6962 60.8817 12.7374L61.022 14.4908C61.0274 14.5568 61.0577 14.6182 61.1067 14.6625C61.1556 14.7069 61.2195 14.7308 61.2854 14.7295C62.7814 14.7034 63.7486 14.4908 64.8733 13.8333C64.9135 13.8104 64.9436 13.7731 64.9576 13.7288C64.9716 13.6846 64.9685 13.6366 64.9488 13.5946L64.2623 12.0626C64.2477 12.0297 64.2232 12.0022 64.1922 11.9839C64.1613 11.9656 64.1254 11.9575 64.0896 11.9606C62.9066 12.0561 62.2007 12.2601 61.0112 12.553Z" fill="white"/>
<path d="M79.1847 78.4991L82.4229 82.9844C82.4424 83.0148 82.7878 83.6897 82.8094 83.7179C83.4916 84.6423 83.0684 86.5128 83.0684 86.5128L83.729 87.4329L84.3464 86.4325L84.3248 81.9798L81.4428 77.4229L80.5469 77.9501L79.1847 78.4991Z" fill="#FBCCC9"/>
<path d="M84.3248 81.9808C84.3248 81.9808 86.0756 81.8897 87.5026 82.8488L82.846 90.4025C82.7957 90.4812 82.7215 90.5415 82.6344 90.5743C82.5472 90.6072 82.4519 90.6108 82.3625 90.5848C82.2727 90.5549 82.1951 90.4963 82.1417 90.4179C82.0883 90.3395 82.0619 90.2457 82.0667 90.1508C82.1143 89.6794 82.3279 89.2408 82.669 88.9139C82.8031 88.7666 82.885 88.579 82.9022 88.3801L83.0684 86.4966H83.6923L84.3248 81.9808Z" fill="#0C3266"/>
<path d="M85.2399 56.1478C80.8963 59.2443 77.2998 60.1188 72.5741 62.5991C74.7329 64.3676 77.2609 68.1607 79.6982 72.364C81.1597 74.8811 82.5932 77.5415 83.8885 79.9957L80.9935 82.0637L66.6827 63.5582C66.3363 63.0992 66.1746 62.526 66.2298 61.9525C66.285 61.3791 66.5531 60.8475 66.9806 60.4638L82.278 46.7627L87.5131 54.3576C86.7295 55.0411 85.976 55.6248 85.2399 56.1478Z" fill="#3939AA"/>
<path d="M79.6998 72.3673C76.7941 68.329 71.6583 63.2534 71.6583 63.2534L69.4217 62.4245L71.7748 61.7149L78.6722 57.7308C79.6372 57.1726 80.3965 56.3155 80.837 55.2877C81.2774 54.2599 81.3753 53.1165 81.116 52.0281L80.5267 49.5674L85.2415 56.1533C80.898 59.2498 77.3014 60.1243 72.5757 62.6046C74.7367 64.3666 77.2625 68.1597 79.6998 72.3673Z" fill="#262C86"/>
<path d="M101.76 78.8352L106.132 85.2083C106.32 85.4836 106.44 85.8 106.483 86.1313C106.525 86.4626 106.488 86.7993 106.376 87.1135C106.215 87.5419 105.997 87.9464 105.728 88.3157L105.968 89.4463L106.95 88.7671C106.95 88.7671 111.168 86.571 108.744 84.6094C108.034 84.0344 107.628 83.685 107.401 83.4637L104.126 78.6768L101.76 78.8352Z" fill="#FBCCC9"/>
<path d="M108.753 84.6094C108.753 84.6094 110.419 85.2452 111.356 86.7338L103.941 91.8593C103.862 91.9129 103.768 91.939 103.673 91.9335C103.578 91.928 103.488 91.8913 103.416 91.8289C103.344 91.766 103.295 91.6811 103.276 91.5873C103.258 91.4935 103.27 91.3961 103.312 91.3103C103.55 90.8913 103.928 90.5707 104.379 90.4054C104.563 90.3238 104.714 90.1834 104.811 90.0061L105.732 88.3179L106.315 88.5717L108.753 84.6094Z" fill="#0C3266"/>
<path d="M107.672 82.2957L104.734 84.3311L93.1689 70.1981C92.8021 69.7504 92.4646 69.2793 92.1585 68.7876L91.88 68.3428L78.8926 47.4851L79.0826 47.2333L82.7526 42.3379L86.9407 42.672C86.9407 42.672 89.5874 45.8207 89.2895 48.4138C89.2436 48.8208 89.3187 49.2323 89.5054 49.5964C90.3689 51.2912 91.2173 53.0683 92.0398 54.9302C93.5885 58.402 94.9484 61.9559 96.1135 65.5761C97.6786 66.7478 99.8115 69.9269 102.078 73.5203C103.937 76.4607 105.878 79.6765 107.672 82.2957Z" fill="#262C86"/>
<path d="M102.085 73.5189C100.142 71.0494 97.6404 67.9464 95.7493 66.2039L94.2576 66.9135L95.2787 65.7308C94.3957 62.3175 93.2149 58.6762 92.0405 54.9287C93.5891 58.4006 94.949 61.9544 96.1142 65.5746C97.6858 66.7464 99.8187 69.9254 102.085 73.5189Z" fill="#062551"/>
<g style="mix-blend-mode:screen" opacity="0.5">
<path d="M91.88 68.3425L78.8926 47.4848L79.0826 47.2331L82.092 44.985L83.9766 44.3535C83.9766 44.3535 82.7591 50.2472 86.0167 55.0819C88.9376 59.4153 91.3641 61.952 91.88 68.3425Z" fill="#3939AA"/>
</g>
<path d="M86.1635 38.749C85.5328 38.9718 84.8399 38.9337 84.2372 38.6432C83.6344 38.3527 83.171 37.8334 82.949 37.1996L79.0934 26.1892C78.8716 25.555 78.9094 24.8582 79.1984 24.252C79.4875 23.6457 80.0041 23.1796 80.6348 22.956L84.6631 21.5303L90.1919 37.3233L86.1635 38.749Z" fill="#4D59CA"/>
<path d="M86.6975 11.1478L83.986 7.31567C83.9068 7.20268 83.7932 7.1187 83.6623 7.07642C83.5315 7.03413 83.3904 7.03582 83.2606 7.08129C83.1308 7.12736 83.0189 7.21383 82.9412 7.32817C82.8636 7.4425 82.8242 7.57878 82.8289 7.71713L83.062 12.3283C83.1623 14.3254 83.4838 16.3051 84.0205 18.2306L89.5385 16.2776C88.7789 14.4694 87.8263 12.7494 86.6975 11.1478V11.1478Z" fill="#172F57"/>
<path d="M90.1439 17.834C89.9604 17.3088 89.7575 16.7902 89.5437 16.2803L84.0258 18.2332C84.1856 18.8039 84.3604 19.3703 84.5569 19.9302L92.2962 42.0465L97.9221 40.0566L90.1439 17.834Z" fill="#FFED96"/>
<g style="mix-blend-mode:multiply">
<path d="M85.4928 19.5985C84.6368 17.1517 84.1352 14.5939 84.0033 12.0036L83.7701 7.39241C83.767 7.31122 83.7795 7.23016 83.8068 7.15369C83.7266 7.10207 83.6357 7.0694 83.5411 7.05812C83.4465 7.04685 83.3506 7.05725 83.2606 7.08859C83.1308 7.13465 83.0189 7.22113 82.9412 7.33546C82.8636 7.4498 82.8242 7.58607 82.8289 7.72442L83.062 12.3356C83.1927 14.9261 83.6944 17.484 84.5516 19.9305L92.2909 42.0468L93.23 41.7148L85.4928 19.5985Z" fill="#DCC6E4"/>
</g>
<path d="M93.6741 27.4858L87.9637 29.5049L89.5326 33.9878L95.2429 31.9688L93.6741 27.4858Z" fill="#172F57"/>
<path d="M91.6801 34.1066C91.7902 34.4206 91.8376 34.7533 91.8197 35.0858C91.8019 35.4183 91.719 35.744 91.5758 36.0442C91.4327 36.3445 91.2321 36.6134 90.9855 36.8358C90.7389 37.0581 90.4512 37.2293 90.1387 37.3398C89.5077 37.5627 88.8145 37.5247 88.2114 37.2342C87.6083 36.9437 87.1446 36.4244 86.9221 35.7905L83.0686 24.78C82.8468 24.1458 82.8846 23.449 83.1737 22.8428C83.4627 22.2366 83.9793 21.7704 84.61 21.5468C85.2409 21.3239 85.9341 21.3619 86.5373 21.6524C87.1404 21.9429 87.6041 22.4622 87.8266 23.0961L91.6801 34.1066Z" fill="#5A55A4"/>
<path d="M91.6801 34.1066C91.7902 34.4206 91.8376 34.7533 91.8197 35.0858C91.8019 35.4183 91.719 35.744 91.5758 36.0442C91.4327 36.3445 91.2321 36.6134 90.9855 36.8358C90.7389 37.0581 90.4512 37.2293 90.1387 37.3398C89.5077 37.5627 88.8145 37.5247 88.2114 37.2342C87.6083 36.9437 87.1446 36.4244 86.9221 35.7905L83.0686 24.78C82.8468 24.1458 82.8846 23.449 83.1737 22.8428C83.4627 22.2366 83.9793 21.7704 84.61 21.5468C85.2409 21.3239 85.9341 21.3619 86.5373 21.6524C87.1404 21.9429 87.6041 22.4622 87.8266 23.0961L91.6801 34.1066Z" fill="#3939AA"/>
<path d="M70.7498 17.0785C70.359 17.7295 69.8668 18.1374 69.6509 18.0051C69.4351 17.8727 69.5775 17.2456 69.9683 16.6011C70.359 15.9566 70.8512 15.5421 71.0671 15.6723C71.283 15.8025 71.1405 16.434 70.7498 17.0785Z" fill="white"/>
<path d="M76.4893 23.9356L71.8997 26.2228C71.8997 26.2228 71.8198 24.8513 71.8284 24.3609C71.8284 23.7728 71.6125 22.9092 71.2607 21.401C71.209 21.0663 71.1795 20.7285 71.1721 20.3899L72.4804 19.5696L74.7536 17.5732L76.8131 18.2416L75.7639 21.8568C75.7639 21.8568 75.5524 22.6749 76.4893 23.9356Z" fill="#FBCCC9"/>
<path d="M68.6332 21.3895L68.9182 20.5215C69.1716 20.0623 69.3945 19.5867 69.5853 19.098L69.5313 18.7855L69.7904 18.1909C69.4687 18.0586 69.0715 17.7374 69.622 17.4249C69.9674 17.2296 70.3344 16.7088 70.4855 16.4853C70.5363 16.3185 70.5746 16.148 70.5999 15.9753C70.7051 15.541 70.9578 15.1573 71.3145 14.8904C71.3361 14.8711 71.3592 14.8537 71.3836 14.8383C71.5553 14.7192 71.7428 14.625 71.9405 14.5584C71.9491 14.5598 71.9579 14.5598 71.9664 14.5584C72.0698 14.5237 72.176 14.4983 72.2838 14.4824L73.6568 15.294L76.5496 17.0712L76.2063 17.8459L75.6559 19.0936L75.1939 20.1395L73.7194 19.3714L73.6374 19.3302L73.6115 19.4452L73.3654 20.5822L72.8926 20.8751L71.1655 21.9341L70.9971 21.882L70.818 21.8234L69.3068 21.8928C68.739 21.9362 68.6419 21.6455 68.6289 21.498C68.6243 21.4618 68.6257 21.4251 68.6332 21.3895V21.3895Z" fill="#FBCCC9"/>
<path d="M76.9131 23.4627L75.8898 22.2822L71.7708 25.7802L71.9133 28.2323L76.9131 23.4627Z" fill="white"/>
<path d="M71.7721 25.7803L71.2799 27.488L71.5864 27.9112L72.2362 27.9589L71.7721 25.7803Z" fill="#FFED96"/>
<path d="M87.8179 42.2042C87.9436 42.3108 88.0403 42.4478 88.0988 42.6023C88.1574 42.7568 88.1758 42.9237 88.1525 43.0874C88.1292 43.251 88.0648 43.4059 87.9655 43.5376C87.8662 43.6694 87.7351 43.7735 87.5847 43.8403C87.1289 44.0421 86.6584 44.2082 86.1772 44.3373C85.9546 44.3973 85.7281 44.4415 85.4993 44.4696C84.8883 44.5396 84.3025 44.7537 83.7895 45.0946C82.7101 45.7955 81.6609 46.6005 80.86 47.6096C80.5427 48.011 80.1023 49.5929 79.5215 49.6038C78.9883 49.6038 78.7206 48.4754 78.576 47.5944C78.5091 47.2016 78.4702 46.8609 78.4378 46.696C78.1809 45.3202 77.7448 43.8316 77.4102 42.4081C77.2893 41.8874 77.1814 41.3731 77.1015 40.8761C77.0756 40.7112 77.0497 40.5506 77.0216 40.3944C76.9202 39.7781 76.8165 39.2465 76.7194 38.8364C76.5774 38.2441 76.3544 37.6745 76.0566 37.1438C75.6462 37.0079 75.2588 36.8096 74.9082 36.5557C74.5969 36.3292 74.3116 36.0687 74.0576 35.7789C73.6386 35.3033 73.2969 34.7644 73.0451 34.1818L72.4709 31.6559C72.0391 30.5384 71.7671 29.3645 71.9074 28.171C71.9074 28.171 71.9074 28.158 71.9074 28.1536C71.9074 28.0842 71.9268 28.0169 71.9419 27.9475C71.9781 27.7498 72.0323 27.5558 72.1039 27.3681C72.2061 27.1009 72.3326 26.8438 72.4816 26.5999C73.017 25.732 73.8223 25.0006 74.5541 24.3952C75.2859 23.7898 75.9077 23.3276 76.6719 23.1931C77.0735 23.1263 77.4838 23.1329 77.883 23.2126C78.9408 23.3971 79.9296 24.098 80.6895 24.8423C82.6136 26.343 83.9762 28.4537 84.5559 30.8314C84.6984 31.4043 84.8301 32.0075 84.9574 32.626C85.2208 33.9279 85.4604 35.2711 85.7109 36.5623C85.9339 37.772 86.2221 38.9687 86.5744 40.1471C86.7557 40.9503 87.1922 41.6724 87.8179 42.2042V42.2042Z" fill="#DFF2F8"/>
<path d="M71.4839 27.4227C71.4839 27.4227 71.4558 27.7439 71.4105 28.3102C71.37 28.6522 71.3542 28.9967 71.363 29.341C71.376 29.7489 71.363 30.209 71.4062 30.7233C71.4494 31.2375 71.512 31.767 71.5919 32.3399C71.7063 32.9084 71.8077 33.516 71.9481 34.1344C72.0279 34.4426 72.11 34.7572 72.1942 35.074C72.2352 35.2324 72.2784 35.393 72.3194 35.5536C72.3604 35.7142 72.4252 35.8704 72.477 36.031C72.5827 36.35 72.6929 36.682 72.7965 36.9966C72.9001 37.3113 73.0447 37.6346 73.1678 37.9557C73.4096 38.6067 73.7096 39.2252 74.0011 39.8436L74.1112 40.0758L74.1371 40.1322L74.15 40.1626L74.1695 40.1952V40.2104L74.2278 40.3167C74.3098 40.4642 74.3659 40.5901 74.4717 40.7507C74.6682 41.0805 74.8517 41.3626 75.033 41.6382C75.7692 42.7231 76.4557 43.6345 76.9004 44.407C77.0994 44.7347 77.2747 45.0763 77.425 45.4291C77.5242 45.6681 77.6037 45.9148 77.6625 46.1669L77.7143 46.4251C77.7143 46.4967 77.7272 46.5575 77.7315 46.6074C77.7315 46.7072 77.7466 46.7593 77.7466 46.7593L79.3766 48.3933L80.9957 46.4642C80.9957 46.4642 80.9698 46.3535 80.9201 46.1517C80.8942 46.0497 80.864 45.9239 80.823 45.7785L80.6524 45.2989C80.4898 44.8905 80.2964 44.4951 80.0739 44.1163C79.8046 43.6621 79.5046 43.227 79.1758 42.8143C78.4936 41.9463 77.6495 41.0935 76.8658 40.2104C76.6737 39.9934 76.4794 39.7633 76.3175 39.5594C76.2355 39.4661 76.134 39.3098 76.0412 39.1861L75.9678 39.0884V39.0755C75.998 39.1254 75.9678 39.0863 75.9807 39.095L75.9656 39.0711L75.9332 39.0212L75.8059 38.8259C75.4669 38.3008 75.1129 37.7669 74.8128 37.2006C74.6595 36.9207 74.489 36.6451 74.3487 36.3587L73.932 35.4907C73.8608 35.3496 73.7917 35.2064 73.7161 35.0567C73.6406 34.907 73.5974 34.7681 73.5391 34.6227C73.4225 34.3384 73.306 34.0585 73.1937 33.7829L73.1829 33.759C72.967 33.2014 72.8051 32.648 72.6216 32.1251C72.4727 31.5934 72.3561 31.0856 72.2352 30.6061C72.1143 30.1265 72.0841 29.7098 72.0193 29.3258C71.9566 28.9497 71.9192 28.5698 71.907 28.1887C71.8942 27.8893 71.8596 27.5912 71.8034 27.2969L71.4839 27.4227Z" fill="#FFED96"/>
<g style="mix-blend-mode:multiply">
<path d="M74.1682 22.3428V23.7446L75.7701 22.3819C75.7392 22.2082 75.7392 22.0304 75.7701 21.8568L76.6034 18.9859L76.5818 18.1635L74.7641 17.5732L73.4688 18.7168L72.4606 20.2119C72.4606 20.2119 74.0905 20.6871 74.1682 22.3428Z" fill="#FBCCC9"/>
</g>
<path d="M71.4714 17.3006C71.8616 16.6569 72.003 16.0279 71.7872 15.8957C71.5714 15.7635 71.08 16.1781 70.6898 16.8218C70.2995 17.4655 70.158 18.0945 70.3739 18.2267C70.5897 18.3589 71.0811 17.9443 71.4714 17.3006Z" fill="white"/>
<path d="M69.541 18.784C69.5431 18.8897 69.5835 18.9911 69.6546 19.069C69.7258 19.1469 69.8228 19.196 69.9275 19.2071C70.5271 19.3098 71.0631 19.6439 71.4214 20.138C71.4631 20.2019 71.5192 20.2548 71.5853 20.2926C71.6514 20.3303 71.7254 20.3517 71.8013 20.355C71.8762 20.3582 71.9507 20.344 72.0193 20.3135C72.0878 20.283 72.1484 20.2371 72.1964 20.1792C72.3216 20.027 72.4176 19.8525 72.4792 19.6649L73.2197 18.2653L73.9385 16.9004L74.4998 18.4801C74.3207 19.027 72.8656 19.1311 72.9455 19.8928C72.9831 20.2158 72.967 20.5428 72.898 20.8606C72.8812 20.9348 72.858 21.0074 72.8289 21.0776C72.4144 21.9456 71.6113 22.2385 70.8061 22.295C70.4456 22.3174 70.0837 22.3007 69.7267 22.245C69.6615 22.3508 69.5728 22.4399 69.4676 22.5054C68.82 22.9199 68.1723 22.3188 68.1723 22.3188C66.7346 20.8606 69.541 18.784 69.541 18.784Z" fill="#3266A1"/>
<path d="M73.445 15.9251C73.4696 15.8469 73.4769 15.7643 73.4665 15.683C73.456 15.6017 73.4281 15.5236 73.3846 15.4542C73.3415 15.3843 73.2839 15.3247 73.2157 15.2794C73.1475 15.2341 73.0703 15.2041 72.9895 15.1917C72.0655 15.0419 70.7897 14.5407 71.3229 12.8828C71.3229 12.8828 71.338 12.8459 71.3682 12.7873C71.4628 12.6023 71.5967 12.4405 71.7605 12.3134C71.9243 12.1862 72.1139 12.0969 72.316 12.0517C72.5182 12.0077 72.7276 12.0088 72.9294 12.055C73.1311 12.1011 73.3204 12.1911 73.4839 12.3186C73.6782 12.4727 74.1747 12.7526 74.9497 12.4249C75.9708 11.991 77.0524 12.3316 77.5576 13.0195C77.9742 13.588 77.9893 14.0025 77.972 14.1306C77.9641 14.2345 77.9714 14.339 77.9936 14.4409C78.0136 14.5783 78.0757 14.7061 78.1713 14.8064C78.2668 14.9067 78.3911 14.9746 78.5269 15.0007C79.0666 15.0983 80.0898 15.9989 79.4724 17.5461C79.3555 17.8403 79.1722 18.1032 78.937 18.3142L78.8723 18.3728C78.5875 18.6274 78.2702 18.8427 77.9289 19.013C77.7324 19.1106 77.4971 19.3407 77.4518 19.881C77.2899 21.4868 75.7744 21.7732 75.7744 21.7732L75.4333 21.2632C75.2612 21.0075 75.1862 20.6982 75.2219 20.3915C75.2575 20.0849 75.4015 19.8013 75.6276 19.5924C75.7719 19.4731 75.8694 19.3062 75.9026 19.1213C75.9358 18.9365 75.9026 18.7458 75.8089 18.5833C75.7641 18.4896 75.7002 18.4065 75.6214 18.3392C75.5425 18.2719 75.4505 18.222 75.3512 18.1927C75.2503 18.1583 75.1421 18.1521 75.0379 18.1746C74.9337 18.1972 74.8376 18.2476 74.7597 18.3207C74.5967 18.4718 74.4154 18.6016 74.22 18.707L72.9636 19.3862L73.3716 17.9019C73.4747 17.5323 73.4887 17.1433 73.4126 16.7671C73.3526 16.4882 73.3637 16.1985 73.445 15.9251V15.9251Z" fill="#172F57"/>
<path d="M74.4184 18.8647C74.3944 18.8657 74.3706 18.8605 74.3493 18.8495L70.2907 16.8249C70.2735 16.8166 70.2581 16.8049 70.2454 16.7905C70.2327 16.7762 70.223 16.7594 70.2168 16.7413C70.2105 16.7231 70.208 16.7039 70.2092 16.6847C70.2104 16.6656 70.2154 16.6468 70.2238 16.6296C70.2414 16.5954 70.2715 16.5695 70.3078 16.5574C70.3441 16.5452 70.3837 16.5478 70.4181 16.5645L74.4788 18.5891C74.5128 18.6067 74.5386 18.637 74.5507 18.6735C74.5628 18.71 74.5602 18.7498 74.5436 18.7844C74.5319 18.8079 74.5141 18.8278 74.492 18.8419C74.47 18.8561 74.4445 18.8639 74.4184 18.8647V18.8647Z" fill="white"/>
<g style="mix-blend-mode:multiply">
<path d="M88.1526 43.0732C88.1292 43.2368 88.0649 43.3918 87.9656 43.5235C87.8662 43.6552 87.7352 43.7594 87.5848 43.8262C87.129 44.0279 86.6584 44.194 86.1773 44.3231C86.3931 41.181 84.7632 40.0049 84.7632 40.0049L80.5643 42.2551L85.7045 36.5459C85.9275 37.7557 86.2157 38.9524 86.568 40.1307C86.7512 40.9358 87.1908 41.6589 87.8201 42.19C87.9455 42.2968 88.0417 42.4339 88.0999 42.5884C88.1581 42.7429 88.1762 42.9097 88.1526 43.0732V43.0732Z" fill="#DFF2F8"/>
</g>
<g style="mix-blend-mode:multiply">
<path d="M78.4452 41.2767L80.4206 37.2536C80.7372 36.61 80.8742 35.8921 80.8172 35.1765C80.7602 34.4608 80.5112 33.774 80.0967 33.1893L77.7782 29.917L83.9783 35.1249L78.4452 41.2767Z" fill="#DFF2F8"/>
</g>
<path d="M86.874 32.7482C87.3704 33.3418 87.6165 34.1067 87.5601 34.8801C87.5036 35.6534 87.149 36.3741 86.5718 36.8885L82.6859 40.3604L80.8293 38.4942C81.8871 37.2986 82.9622 36.0856 83.8819 35.0527L78.3359 30.652L75.8187 28.6535C74.1435 27.1627 74.599 23.8274 76.9154 23.3305C76.9443 23.3217 76.9739 23.3152 77.0039 23.311C77.8005 23.1678 78.9792 23.311 79.5146 23.9186L86.874 32.7482Z" fill="#DFF2F8"/>
<g style="mix-blend-mode:screen" opacity="0.3">
<path d="M78.3255 30.6535L75.8084 28.655C74.1331 27.1642 74.5886 23.829 76.905 23.332C76.5704 24.1045 76.3848 25.285 77.3843 26.524C78.5738 27.9888 78.8695 29.5273 78.3255 30.6535Z" fill="#DFF2F8"/>
</g>
<path d="M76.8329 48.3907C76.5022 48.391 76.1772 48.305 75.8895 48.1412L71.0041 45.3918C70.8408 45.2992 70.7208 45.1453 70.6702 44.9639C70.6196 44.7825 70.6426 44.5883 70.7343 44.424C70.78 44.3423 70.8414 44.2706 70.9149 44.2129C70.9884 44.1552 71.0725 44.1127 71.1625 44.0879C71.2524 44.0631 71.3463 44.0564 71.4388 44.0683C71.5313 44.0802 71.6206 44.1103 71.7014 44.1571L76.5868 46.9064C76.6818 46.9611 76.7919 46.9832 76.9006 46.9695C77.0092 46.9558 77.1104 46.907 77.1891 46.8305L88.0328 36.3755C88.2854 36.1308 88.4624 35.818 88.5424 35.4747C88.6225 35.1313 88.6022 34.772 88.484 34.4399L84.9608 24.6078C84.9297 24.5198 84.9162 24.4264 84.9211 24.3331C84.926 24.2398 84.9492 24.1484 84.9893 24.0642C85.0294 23.9799 85.0857 23.9044 85.1549 23.8421C85.2241 23.7797 85.3049 23.7317 85.3926 23.7008C85.4803 23.6692 85.5734 23.6553 85.6664 23.6601C85.7595 23.6648 85.8507 23.6881 85.9348 23.7284C86.0189 23.7688 86.0942 23.8255 86.1564 23.8952C86.2186 23.9649 86.2664 24.0464 86.2971 24.1348L89.8203 33.9647C90.0305 34.5552 90.0665 35.1941 89.9241 35.8047C89.7816 36.4152 89.4667 36.9714 89.0172 37.4063L78.1606 47.846C77.8049 48.1936 77.3289 48.3888 76.8329 48.3907V48.3907Z" fill="#262C86"/>
<path d="M80.8194 38.4951C78.38 41.2466 76.0312 43.8983 75.9189 44.0285C75.8321 44.1371 75.7312 44.2334 75.6188 44.315L75.5843 44.3302L75.5562 44.3432L75.4332 44.3888L75.3382 44.4148C75.0107 44.4903 74.6705 44.4903 74.343 44.4148C73.7148 44.2759 73.3262 44.5645 73.0326 44.7099C72.8137 44.798 72.6052 44.9101 72.4108 45.0441C72.2637 45.1024 72.1087 45.1383 71.951 45.1504C71.6855 45.1746 71.4182 45.1673 71.1544 45.1287C71.1277 45.1232 71.1002 45.1236 71.0737 45.13C71.0472 45.1364 71.0224 45.1485 71.0011 45.1656C70.9799 45.1821 70.9625 45.2031 70.9502 45.2271C70.9378 45.2511 70.9309 45.2775 70.9299 45.3045C70.9278 45.395 70.9561 45.4836 71.0101 45.556C71.0641 45.6284 71.1408 45.6804 71.2278 45.7037C71.4782 45.8077 71.7471 45.8594 72.018 45.8556C72.2889 45.8519 72.5562 45.7929 72.8037 45.6821C72.8037 45.6821 72.5317 45.9859 72.5317 45.9945C72.4687 46.0835 72.4124 46.1771 72.3633 46.2745C72.3464 46.3223 72.3391 46.3731 72.3419 46.4238C72.3447 46.4745 72.3575 46.5242 72.3796 46.5698C72.4017 46.6155 72.4327 46.6563 72.4707 46.6898C72.5086 46.7233 72.5529 46.7488 72.6008 46.7649C72.7348 46.8312 72.8878 46.8473 73.0326 46.8105C73.012 46.8769 73.012 46.948 73.0326 47.0144C73.0623 47.0982 73.1204 47.1689 73.1966 47.2141C73.2569 47.2614 73.3272 47.2942 73.402 47.31C73.4769 47.3258 73.5543 47.3242 73.6284 47.3052C73.6435 47.3474 73.6638 47.3875 73.6889 47.4246C73.7402 47.5097 73.8212 47.5727 73.9162 47.6011C74.0112 47.6296 74.1133 47.6216 74.2027 47.5786C74.2152 47.6259 74.2357 47.6706 74.2631 47.711C74.3111 47.7834 74.3829 47.8364 74.466 47.8607C74.5136 47.8716 74.5631 47.8716 74.6107 47.8607C74.6831 47.847 74.7517 47.8173 74.8114 47.7739V47.7739C75.4274 47.1791 75.9955 46.5363 76.5104 45.8513L82.6631 40.3613L80.8194 38.4951Z" fill="#FBCCC9"/>
<path d="M81.949 41.3685C81.158 40.693 80.4763 39.898 79.9284 39.0119L80.8783 37.71C82.0116 38.3805 82.588 38.9468 83.4062 40.0969L81.949 41.3685Z" fill="white"/>
<g style="mix-blend-mode:screen" opacity="0.5">
<path d="M95.5663 36.9479C95.6008 37.045 95.6158 37.1481 95.6104 37.2511C95.6051 37.354 95.5795 37.4549 95.5351 37.5479C95.4908 37.6409 95.4285 37.7242 95.352 37.7929C95.2755 37.8616 95.1862 37.9144 95.0893 37.9482C94.894 38.0169 94.6796 38.0051 94.493 37.9152C94.3065 37.8253 94.163 37.6647 94.094 37.4686L86.6396 16.1639C86.6052 16.0668 86.5902 15.9637 86.5955 15.8607C86.6009 15.7577 86.6265 15.6568 86.6708 15.5638C86.7152 15.4708 86.7774 15.3876 86.854 15.3189C86.9305 15.2502 87.0198 15.1974 87.1167 15.1635C87.2134 15.1289 87.3159 15.1138 87.4184 15.1192C87.5208 15.1246 87.6212 15.1504 87.7137 15.1949C87.8063 15.2395 87.8891 15.3021 87.9574 15.379C88.0258 15.4559 88.0783 15.5457 88.1119 15.6431L95.5663 36.9479Z" fill="#F3D9E9"/>
</g>
<path d="M174.98 163.338H174.892C174.74 163.338 174.588 163.35 174.439 163.375C174.439 163.338 174.439 163.299 174.439 163.26C174.439 163.221 174.439 163.212 174.439 163.188C174.439 162.507 174.197 161.849 173.757 161.332C173.317 160.814 172.707 160.472 172.038 160.367C172.038 160.252 172.049 160.15 172.049 160.031C172.048 158.936 171.697 157.87 171.047 156.991C170.398 156.112 169.484 155.466 168.441 155.148C168.237 152.349 166.987 149.732 164.942 147.821C162.897 145.909 160.209 144.847 157.416 144.845C155.401 144.845 153.425 145.397 151.7 146.444C149.974 147.49 148.567 148.99 147.628 150.782C146.795 151.319 146.069 152.007 145.487 152.811C145.113 153.325 144.804 153.884 144.567 154.474C144.211 154.228 143.819 154.038 143.406 153.912C143.012 153.791 142.602 153.73 142.19 153.729C141.552 153.727 140.921 153.873 140.348 154.157C139.775 154.44 139.275 154.853 138.887 155.363C138.494 154.683 137.93 154.119 137.252 153.727C136.574 153.334 135.805 153.128 135.023 153.128C134.556 153.129 134.092 153.202 133.648 153.345V153.345C133.704 153.175 133.747 153.001 133.775 152.824C133.79 152.735 133.801 152.646 133.808 152.555C133.82 152.447 133.826 152.339 133.825 152.23C133.824 151.557 133.635 150.899 133.279 150.329C133.785 149.841 134.188 149.255 134.463 148.606C134.738 147.957 134.879 147.259 134.878 146.553C134.879 145.865 134.744 145.183 134.482 144.547C134.22 143.911 133.836 143.333 133.352 142.846C132.868 142.359 132.293 141.973 131.66 141.71C131.028 141.446 130.35 141.311 129.665 141.311C128.57 141.311 127.503 141.657 126.615 142.301C125.727 142.945 125.063 143.853 124.717 144.898C123.814 145.158 123.02 145.707 122.454 146.462C121.889 147.216 121.583 148.135 121.582 149.079C121.582 149.856 121.79 150.618 122.185 151.286C121.431 151.756 120.81 152.412 120.379 153.191C119.949 153.971 119.723 154.847 119.723 155.739C119.723 155.847 119.723 155.956 119.723 156.062C119.577 155.997 119.426 155.936 119.272 155.884C118.619 155.651 117.931 155.533 117.239 155.533C116.178 155.533 115.136 155.812 114.216 156.342C113.732 156.618 113.289 156.96 112.897 157.357C112.915 157.153 112.921 156.943 112.921 156.733C112.923 155.371 112.617 154.026 112.025 152.801V152.801C111.291 151.28 110.146 149.998 108.722 149.101C107.297 148.204 105.65 147.728 103.968 147.727C102.123 147.728 100.323 148.301 98.8135 149.369C97.3041 150.436 96.1589 151.945 95.534 153.69C95.4908 153.816 95.4498 153.942 95.4087 154.07C95.2926 154.445 95.201 154.827 95.1346 155.214C94.9741 155.063 94.8023 154.925 94.6208 154.801C93.9025 154.298 93.048 154.03 92.1727 154.031C91.385 154.03 90.6122 154.246 89.9379 154.656C89.2636 155.065 88.7135 155.652 88.3473 156.353C88.2334 156.569 88.1381 156.795 88.0623 157.028C87.8269 156.795 87.5695 156.587 87.2938 156.405C86.4384 155.835 85.4338 155.532 84.4074 155.537C83.7008 155.536 83.0014 155.68 82.352 155.96C81.7025 156.24 81.1164 156.65 80.6295 157.164C79.6991 158.14 79.18 159.439 79.1809 160.79C79.183 161.289 79.2557 161.785 79.3968 162.264C79.4465 162.435 79.5026 162.602 79.5674 162.765H79.481C79.423 162.758 79.3646 162.755 79.3061 162.754H79.1853C78.7147 162.754 78.2486 162.847 77.814 163.028C77.3794 163.209 76.9848 163.475 76.653 163.811C75.9802 164.475 75.5967 165.38 75.5865 166.328C75.5865 166.474 75.5865 167.146 75.6167 167.287H178.277C178.305 167.119 178.319 166.95 178.318 166.779C178.317 165.882 177.967 165.021 177.344 164.378C176.721 163.735 175.873 163.362 174.98 163.338V163.338Z" fill="white"/>
<path d="M154.597 147.189C155.298 144.204 153.459 141.213 150.489 140.509C147.52 139.804 144.545 141.653 143.844 144.638C143.143 147.622 144.982 150.613 147.951 151.318C150.921 152.022 153.896 150.173 154.597 147.189Z" fill="white"/>
<defs>
<linearGradient id="paint0_linear_201_2976" x1="102.229" y1="96.3064" x2="102.23" y2="185.854" gradientUnits="userSpaceOnUse">
<stop stop-color="#8DA6E2"/>
<stop offset="1" stop-color="white"/>
</linearGradient>
</defs>
</svg>
