<svg width="184" height="176" viewBox="0 0 184 176" fill="none" xmlns="http://www.w3.org/2000/svg">
<path style="mix-blend-mode:multiply" opacity="0.25" d="M183.6 56.0809C183.6 25.1088 158.491 0.00196261 127.519 0.00196261C118.153 -0.00348486 108.936 2.33859 100.709 6.8141C92.4826 11.2896 85.5088 17.7558 80.4255 25.6216C76.6141 31.4017 71.071 35.8273 64.5905 38.2645C58.1099 40.7016 51.0243 41.0253 44.3485 39.1891V39.1891C41.3564 38.3664 38.2673 37.9493 35.1641 37.9492C25.9955 37.9532 17.2039 41.5986 10.7226 48.0838C4.24138 54.5689 0.601186 63.3627 0.602539 72.5313C0.604409 80.365 3.26573 87.966 8.15079 94.0899C13.0358 100.214 19.8552 104.498 27.4925 106.241V106.241C32.3508 107.349 36.7311 109.973 40.0007 113.733C43.2704 117.494 45.2602 122.196 45.6828 127.161V127.161C46.2698 134.11 49.4446 140.585 54.5785 145.304C59.7124 150.023 66.4312 152.642 73.4045 152.643C79.3736 152.642 85.1843 150.723 89.9796 147.169C94.7748 143.614 98.3007 138.612 100.037 132.901C101.914 126.931 105.633 121.708 110.661 117.982C115.689 114.256 121.768 112.218 128.026 112.16V112.16C158.764 111.892 183.6 86.8922 183.6 56.0809Z" fill="url(#paint0_linear_201_3156)"/>
<g style="mix-blend-mode:multiply" opacity="0.5">
<path d="M57.1192 175.132C85.3402 175.132 108.218 173.742 108.218 172.027C108.218 170.312 85.3402 168.922 57.1192 168.922C28.8982 168.922 6.02051 170.312 6.02051 172.027C6.02051 173.742 28.8982 175.132 57.1192 175.132Z" fill="#C9C9C9"/>
</g>
<g style="mix-blend-mode:multiply" opacity="0.5">
<path d="M144.179 175.132C163.808 175.132 179.72 173.742 179.72 172.027C179.72 170.312 163.808 168.922 144.179 168.922C124.55 168.922 108.638 170.312 108.638 172.027C108.638 173.742 124.55 175.132 144.179 175.132Z" fill="#C9C9C9"/>
</g>
<path d="M85.1581 160.264L82.5711 161.174L85.4438 169.415L90.0896 170.469L91.2785 170.053L90.4723 169.147C89.6896 169.029 88.9157 168.859 88.1558 168.637C87.8108 168.497 87.5317 168.232 87.3751 167.894L85.1581 160.264Z" fill="#F6C2D7"/>
<path d="M85.4439 169.415C85.4439 169.415 84.9336 171.239 85.6199 172.961L94.7686 169.759C94.8434 169.73 94.9078 169.68 94.9534 169.614C94.9989 169.548 95.0234 169.47 95.0237 169.389C95.0253 169.308 95.0017 169.228 94.956 169.16C94.9103 169.092 94.8449 169.041 94.7686 169.012C94.3834 168.866 93.817 168.854 93.0491 169.31C92.8893 169.405 92.7023 169.442 92.5184 169.417L90.4774 169.147L90.3294 169.803L85.4439 169.415Z" fill="#032E58"/>
<path d="M46.387 148.094L47.4483 145.565L39.417 142.154L35.5136 144.887L35.0238 146.045H36.2356C36.8522 145.548 37.5017 145.092 38.1797 144.683C38.5343 144.484 38.8583 144.527 39.2563 144.601L46.387 148.094Z" fill="#F6C2D7"/>
<path d="M39.417 142.155C39.417 142.155 38.3965 140.558 36.6718 139.902L32.8961 148.832C32.8639 148.906 32.8557 148.989 32.8726 149.069C32.8895 149.148 32.9307 149.22 32.9904 149.276C33.0503 149.332 33.1261 149.368 33.2074 149.38C33.2887 149.391 33.3715 149.377 33.4446 149.339C33.8094 149.151 34.2099 148.74 34.3783 147.865C34.4165 147.684 34.5134 147.521 34.6538 147.4L36.2356 146.061L35.8504 145.51L39.417 142.155Z" fill="#032E58"/>
<path d="M88.0141 167.424L84.1643 168.679L80.1282 157.28L77.4366 149.682L65.2979 140.151L66.3183 138.791L70.5126 133.15L81.5007 145.294C82.0193 145.866 82.3945 146.552 82.5952 147.297L88.0141 167.424Z" fill="#3939AA"/>
<path d="M80.1602 157.291L77.4687 149.694L65.3299 140.16L66.3453 138.8L71.213 135.139L69.6746 141.42L78.0401 148.354L80.2495 146.964L78.5835 149.135L80.1602 157.291Z" fill="#262C86"/>
<path d="M71.7462 134.142L62.0694 153.832C61.9306 154.143 61.7302 154.423 61.4803 154.655C61.2303 154.886 60.9361 155.065 60.6152 155.179C60.2955 155.295 59.9558 155.345 59.6163 155.328C59.2767 155.31 58.9441 155.225 58.638 155.077L39.417 145.561L40.9273 142.275L49.0912 145.354L57.5715 148.548L60.8142 137.471C59.4416 133.241 61.5566 131.123 62.5847 130.231C62.8359 130.075 63.115 129.971 63.4062 129.922L63.8629 130.151L71.7462 134.142Z" fill="#3939AA"/>
<path d="M63.4598 138.277L58.9926 149.352L59.8779 152.159L57.7527 149.822L49.1474 145.354L57.6277 148.549L60.8703 137.471C59.4978 133.241 61.6127 131.124 62.6409 130.231C62.8921 130.075 63.1711 129.971 63.4624 129.922L63.9191 130.151L65.6564 131.195C65.6564 131.195 62.7838 132.619 63.4598 138.277Z" fill="#262C86"/>
<path d="M52.4563 135.58C52.5431 135.409 52.6834 135.131 52.7855 134.975C52.8875 134.82 53.1299 134.36 53.2345 134.146C53.3391 133.932 53.5559 133.284 53.7217 133.353C53.8876 133.422 53.6962 134.258 53.6733 134.445C53.6503 134.631 53.5661 135.019 53.5534 135.184C53.5406 135.35 53.334 135.991 53.6963 136.059C54.0585 136.128 54.1146 135.771 54.1605 135.549C54.2065 135.327 54.3698 134.552 54.4463 134.248C54.5228 133.945 54.7014 132.944 54.9566 132.692C55.2117 132.439 55.227 132.572 55.2704 132.837C55.2815 133.162 55.3461 133.483 55.4617 133.786C55.551 133.952 55.7729 134.223 55.9974 134.166C56.2219 134.11 56.0944 133.965 56.0791 133.748C56.0638 133.531 56.0791 132.944 56.0408 132.728C56.0354 132.505 56.0542 132.283 56.097 132.064C56.0804 131.713 56.0186 131.364 55.9133 131.028C55.8807 130.86 55.8311 130.695 55.7653 130.536L63.095 121.676L60.087 119.502L54.2575 129.689C53.8442 129.76 53.0788 129.885 52.8875 130.245C52.7432 130.449 52.5865 130.643 52.4181 130.827C52.2803 131.018 52.163 131.136 52.0175 131.363C52.0175 131.363 51.4639 131.717 51.2522 131.83C50.9303 131.998 50.6223 132.191 50.3311 132.409C50.1475 132.572 50.1321 132.745 50.201 132.835C50.2699 132.924 50.4562 133.006 50.7266 132.835C50.997 132.664 51.5455 132.368 51.7471 132.273C51.9486 132.179 52.1961 132.018 52.2573 132.11C52.3186 132.202 52.1451 132.449 51.9792 132.62C51.8134 132.791 51.4358 133.197 51.2802 133.404C51.1246 133.61 50.6858 134.062 50.6118 134.169C50.5737 134.227 50.5567 134.297 50.5637 134.366C50.5706 134.435 50.6011 134.5 50.6501 134.549C50.7598 134.669 50.9281 134.684 51.1603 134.455C51.3925 134.225 51.6705 133.896 51.7956 133.756C51.9206 133.615 52.6502 132.927 52.7701 132.845C52.89 132.763 53.0023 132.901 52.9105 133.062C52.8186 133.223 52.5686 133.758 52.4717 133.998C52.3747 134.238 52.1961 134.656 52.1247 134.809C52.0532 134.962 51.8696 135.32 51.8339 135.406C51.8116 135.44 51.7968 135.478 51.7904 135.518C51.7841 135.558 51.7863 135.598 51.7969 135.637C51.8075 135.676 51.8264 135.712 51.8521 135.743C51.8778 135.774 51.9099 135.799 51.9461 135.817C52.1885 135.934 52.367 135.751 52.4563 135.58Z" fill="#F6C2D7"/>
<path d="M64.0645 120.49L75.8002 117.992C76.1718 117.82 76.5034 117.572 76.774 117.265C77.0446 116.957 77.2482 116.597 77.3717 116.206C77.6269 115.416 77.3717 114.375 76.9686 113.655C76.7676 113.307 76.4972 113.004 76.1742 112.765C75.8512 112.526 75.4824 112.356 75.0909 112.265C74.3 112.081 73.3841 112.313 72.7336 112.596L62.2888 116.712C61.8396 116.888 61.4623 117.209 61.2173 117.625L60.1024 119.508L63.1103 121.681L64.0645 120.49Z" fill="white"/>
<path d="M62.4419 122.571C62.533 122.609 62.6335 122.616 62.729 122.592C62.8244 122.568 62.9098 122.514 62.9726 122.439L63.9931 121.212C64.048 121.144 64.0779 121.06 64.0779 120.973C64.0779 120.886 64.048 120.802 63.9931 120.734C62.9215 119.459 62.0694 118.949 60.6305 118.382C60.5841 118.367 60.5339 118.367 60.4878 118.384C60.4417 118.4 60.4022 118.431 60.3754 118.472L59.3906 120.061C59.3525 120.122 59.3362 120.194 59.3446 120.265C59.3529 120.337 59.3854 120.403 59.4366 120.454C60.4724 121.49 61.2224 122.059 62.4419 122.571Z" fill="white"/>
<path d="M76.2543 110.673L75.2185 113.647L78.7877 115.479L80.5097 110.41L79.9663 109.742L78.6014 108.157L76.7212 109.259L76.2543 110.673Z" fill="#F6C2D7"/>
<path d="M82.6375 106.706C83.01 107.425 82.9921 108.216 82.7523 109.104L82.7191 109.287L83.0457 110.619C83.0575 110.673 83.0482 110.73 83.0198 110.777C82.9913 110.825 82.9458 110.859 82.8926 110.874L82.4206 111.004L81.6042 112.673L80.2163 111.979L79.0734 108.644L79.1933 106.33L79.8872 105.471L81.6297 105.772L82.6375 106.706Z" fill="#F6C2D7"/>
<path d="M75.0501 105.43C75.0501 105.43 75.5986 104.665 76.1854 104.532C76.1854 104.532 75.9787 103.552 76.9865 103.613L78.3412 103.848C78.3789 103.673 78.479 103.518 78.6226 103.412C78.7662 103.305 78.9436 103.254 79.1219 103.269C79.1219 103.269 80.1755 103.716 80.9281 103.506C80.9281 103.506 81.9767 103.121 82.6859 104.272C82.6859 104.272 83.4845 105.547 82.6375 106.716L80.4052 106.331C80.4052 106.331 81.2981 107.05 80.6603 107.621C80.6603 107.621 79.1295 108.565 79.8643 109.823L80.0913 110.372C80.2699 110.803 80.6015 111.153 81.0225 111.354C81.1409 111.411 81.2735 111.433 81.404 111.416C81.5345 111.4 81.6573 111.345 81.7573 111.26C81.8437 111.177 81.9464 111.113 82.0588 111.071C82.1712 111.03 82.2909 111.012 82.4104 111.02L82.2497 111.948L82.1553 112.497L82.0022 113.38C81.7471 114.91 79.4306 114.433 79.6806 112.977C79.7546 112.553 79.0096 112.665 78.7621 112.545C78.4889 112.413 78.2789 112.177 78.1777 111.891C78.0764 111.604 78.0921 111.29 78.2213 111.015C78.2762 110.908 78.3467 110.81 78.4305 110.724C78.5134 110.646 78.5801 110.552 78.6269 110.448L78.882 109.4L77.9253 109.27L76.2951 110.545L75.1547 107.629C75.1547 107.629 74.3332 106.287 75.0501 105.43Z" fill="#032E58"/>
<path d="M79.1346 107.692C79.0567 107.506 78.9113 107.355 78.7273 107.271C78.5433 107.187 78.3344 107.175 78.1422 107.238C77.8233 107.343 77.438 107.624 77.5299 108.381C77.5299 108.381 77.6498 109.529 78.2774 109.853C78.2774 109.853 78.6728 110.139 78.8616 109.527L79.1831 108.494C79.2364 108.323 79.2469 108.141 79.2137 107.965C79.1973 107.872 79.1708 107.78 79.1346 107.692V107.692Z" fill="#F6C2D7"/>
<path d="M79.7443 114.801L80.1525 116.39L79.4816 116.742L79.7443 114.801Z" fill="#D35A73"/>
<path d="M75.6369 111.002L74.6955 111.755L79.4842 116.74L79.7444 114.801L75.6369 111.002Z" fill="white"/>
<path d="M72.3636 133.682C72.4147 134.192 72.282 134.791 71.3891 134.939C71.2318 134.964 71.0712 134.956 70.9171 134.916C70.1405 134.716 69.4158 134.352 68.7919 133.847C68.2758 133.389 67.7323 132.963 67.1642 132.572C66.654 132.258 65.5748 132.179 64.9727 132.235C64.7012 132.257 64.4281 132.239 64.1614 132.184C64.0069 132.154 63.8551 132.111 63.7073 132.056C63.6231 132.021 63.5466 131.985 63.4522 131.952C63.1588 131.821 62.889 131.643 62.6536 131.424C62.606 131.407 62.5626 131.38 62.5261 131.345C62.3062 131.176 62.1615 130.928 62.123 130.653V130.589C62.1018 130.409 62.1284 130.226 62.2 130.059C62.2716 129.892 62.3858 129.747 62.5312 129.638C63.0436 129.249 63.4578 128.746 63.7405 128.168C64.1436 126.814 64.6156 125.482 65.1258 124.16C65.2967 123.719 65.4728 123.288 65.6513 122.849C66.2534 121.372 66.8938 119.915 67.5495 118.458C68.3432 116.695 69.5353 115.139 71.0319 113.915L71.6365 113.427C71.9128 113.2 72.2015 112.988 72.5014 112.792C72.6749 112.69 72.8458 112.578 73.0116 112.483C73.5573 112.183 74.1285 111.932 74.7184 111.733C75.966 111.33 76.5247 112.295 77.4457 113.134C78.1926 113.768 78.7269 114.615 78.9764 115.563C79.0353 115.803 79.1209 116.036 79.2315 116.257C79.3116 116.395 79.3832 116.538 79.4459 116.685L79.4765 116.741C80.1322 119.532 78.4917 122.237 77.1574 123.885C75.2644 126.224 72.0728 130.523 72.3636 133.682Z" fill="white"/>
<path d="M55.4541 39.2201C56.7873 40.7013 57.8077 42.4364 58.4539 44.3216C59.1001 46.2067 59.3588 48.2029 59.2146 50.1905C59.127 51.3729 59.3615 52.557 59.8932 53.6168L61.6153 57.0457C61.9062 57.6223 61.697 58.2371 61.2199 58.6683L52.1094 67.0058C51.8763 67.2154 51.5807 67.3426 51.2682 67.368C50.9557 67.3933 50.6436 67.3154 50.3797 67.1461L47.5453 65.3219L47.0095 64.9775C46.0331 64.3503 44.9084 63.9921 43.7491 63.9392C41.7838 63.8526 39.8555 63.375 38.077 62.5344C36.2985 61.6937 34.7054 60.5069 33.391 59.0433C30.7619 56.1174 29.4027 52.267 29.6122 48.339C29.8218 44.411 31.5829 40.7271 34.5084 38.0976C35.5487 37.1599 36.717 36.3747 37.9782 35.7658C40.8725 34.3722 44.1409 33.9556 47.2922 34.5785C50.4436 35.2014 53.3076 36.8302 55.4541 39.2201V39.2201Z" fill="#FFDD79"/>
<path d="M66.791 69.6852C66.9095 67.4226 65.1715 65.4923 62.9089 65.3737C60.6463 65.2551 58.716 66.9932 58.5975 69.2558C58.4789 71.5184 60.2169 73.4487 62.4795 73.5672C64.7421 73.6858 66.6724 71.9478 66.791 69.6852Z" fill="#022547"/>
<path d="M64.7737 61.183C64.6448 61.0474 64.4903 60.9387 64.3192 60.8631C64.1482 60.7874 63.9638 60.7462 63.7768 60.742C63.5898 60.7377 63.4038 60.7704 63.2294 60.8382C63.0551 60.906 62.8958 61.0075 62.7608 61.137C63.0491 60.8929 63.2287 60.5444 63.2602 60.1679C63.2918 59.7915 63.1728 59.4179 62.9292 59.1292C62.664 58.8443 62.2993 58.6725 61.9107 58.6492C61.5222 58.6259 61.1396 58.753 60.8423 59.0042L52.5533 66.589C52.2655 66.8348 52.0867 67.1846 52.0561 67.5618C52.0255 67.939 52.1456 68.313 52.39 68.602C52.6512 68.8744 53.0097 69.0322 53.387 69.0408C53.7643 69.0494 54.1296 68.9081 54.4029 68.6479C54.1147 68.892 53.9351 69.2406 53.9035 69.617C53.872 69.9934 53.991 70.367 54.2346 70.6557C54.4962 70.9283 54.8551 71.0862 55.2328 71.0948C55.6106 71.1034 55.9763 70.962 56.2501 70.7017C55.9618 70.9458 55.7822 71.2943 55.7506 71.6707C55.719 72.0472 55.8381 72.4207 56.0817 72.7095C56.3242 72.9652 56.6534 73.1213 57.0049 73.1473C57.3564 73.1732 57.7049 73.0672 57.9823 72.8498L58.513 73.4391C58.8947 73.8673 59.4288 74.1289 60.0011 74.168C60.5733 74.2071 61.1381 74.0205 61.5745 73.6483L66.9321 68.7499C67.3534 68.3709 67.607 67.8401 67.6372 67.2742C67.6673 66.7082 67.4715 66.1535 67.0928 65.7318L66.5621 65.1425C66.8082 64.8898 66.9511 64.5544 66.9629 64.2019C66.9747 63.8495 66.8546 63.5052 66.6259 63.2367C66.3643 62.9641 66.0054 62.8062 65.6277 62.7976C65.25 62.789 64.8842 62.9304 64.6105 63.1908C64.7531 63.0697 64.8705 62.9217 64.9559 62.7553C65.0413 62.5888 65.0931 62.4072 65.1083 62.2207C65.1234 62.0342 65.1017 61.8466 65.0443 61.6685C64.9869 61.4905 64.895 61.3255 64.7737 61.183V61.183Z" fill="#032E58"/>
<path d="M64.7737 61.1829C64.6448 61.0474 64.4903 60.9387 64.3192 60.8631C64.1482 60.7874 63.9638 60.7462 63.7768 60.742C63.5898 60.7377 63.4038 60.7704 63.2294 60.8382C63.0551 60.906 62.8958 61.0075 62.7608 61.137C63.0491 60.8929 63.2287 60.5444 63.2602 60.1679C63.2918 59.7915 63.1728 59.4179 62.9292 59.1292C62.664 58.8443 62.2993 58.6725 61.9107 58.6492C61.5222 58.6259 61.1396 58.753 60.8423 59.0042L57.3854 62.1652C57.6735 61.9102 58.0495 61.7774 58.4339 61.795C58.8182 61.8126 59.1806 61.9793 59.4442 62.2596C59.5651 62.4024 59.6567 62.5677 59.7137 62.7459C59.7707 62.9242 59.792 63.1119 59.7763 63.2984C59.7607 63.4849 59.7084 63.6665 59.6226 63.8327C59.5367 63.999 59.4188 64.1467 59.2758 64.2674C59.5496 64.007 59.9153 63.8656 60.293 63.8743C60.6707 63.8829 61.0297 64.0407 61.2913 64.3133C61.5349 64.6021 61.6539 64.9756 61.6223 65.3521C61.5908 65.7285 61.4112 66.077 61.1229 66.3212C61.3966 66.0608 61.7624 65.9194 62.1401 65.928C62.5178 65.9366 62.8768 66.0945 63.1384 66.3671C63.3665 66.6359 63.4863 66.98 63.4745 67.3323C63.4627 67.6846 63.3201 68.0199 63.0746 68.2729L63.6027 68.8622C63.7905 69.0708 63.9354 69.3144 64.029 69.5791C64.1226 69.8437 64.1631 70.1243 64.1482 70.4046C64.1332 70.6849 64.0632 70.9595 63.942 71.2128C63.8208 71.466 63.6509 71.6928 63.442 71.8803L66.927 68.7499C67.3483 68.3709 67.6019 67.8401 67.6321 67.2741C67.6622 66.7082 67.4664 66.1534 67.0877 65.7318L66.557 65.1425C66.8031 64.8898 66.946 64.5544 66.9578 64.2019C66.9696 63.8495 66.8495 63.5052 66.6208 63.2367C66.3592 62.9641 66.0003 62.8062 65.6226 62.7976C65.2449 62.789 64.8791 62.9304 64.6053 63.1908C64.7484 63.0701 64.8662 62.9224 64.9521 62.7561C65.0379 62.5898 65.0902 62.4083 65.1058 62.2218C65.1215 62.0353 65.1002 61.8475 65.0432 61.6693C64.9862 61.491 64.8947 61.3258 64.7737 61.1829V61.1829Z" fill="#022547"/>
<path d="M101.887 146.721C101.819 146.722 101.753 146.704 101.695 146.67C101.637 146.637 101.588 146.588 101.555 146.53C95.687 136.611 101.045 126.414 101.096 126.314L107.18 112.06C109.732 105.565 110.027 100.069 108.04 95.7068C105.79 90.7803 100.986 88.2189 97.353 86.9356C94.5317 85.9349 91.5405 85.5014 88.5512 85.66C85.2106 85.8343 81.8719 85.2816 78.7657 84.0399C75.6595 82.7982 72.8598 80.8972 70.5599 78.468L64.1486 71.6945C64.0788 71.6203 64.0412 71.5214 64.0441 71.4196C64.047 71.3178 64.0901 71.2212 64.164 71.1511C64.2383 71.0807 64.3373 71.0426 64.4396 71.045C64.5418 71.0474 64.639 71.0901 64.7099 71.1638L71.1186 77.9374C73.3385 80.2859 76.0421 82.1242 79.0423 83.325C82.0426 84.5258 85.2679 85.0605 88.4951 84.8921C91.5901 84.7293 94.6868 85.1784 97.6081 86.2136C101.384 87.5428 106.379 90.2165 108.742 95.3981C110.818 99.9469 110.528 105.657 107.895 112.364L101.787 126.651C101.721 126.781 96.5748 136.601 102.218 146.145C102.27 146.233 102.284 146.338 102.259 146.437C102.234 146.536 102.17 146.62 102.083 146.673C102.023 146.706 101.955 146.723 101.887 146.721Z" fill="#022547"/>
<path d="M159.496 155.503L156.883 154.521L153.725 162.822L156.656 166.687L157.855 167.142L157.82 165.907C157.289 165.3 156.8 164.657 156.358 163.983C156.144 163.631 156.174 163.299 156.233 162.891L159.496 155.503Z" fill="#F6C2D7"/>
<path d="M153.725 162.822C153.725 162.822 152.141 163.914 151.539 165.703L160.766 169.198C160.845 169.226 160.929 169.231 161.01 169.21C161.091 169.19 161.163 169.145 161.218 169.083C161.271 169.02 161.304 168.942 161.312 168.859C161.321 168.777 161.304 168.694 161.264 168.621C161.057 168.254 160.624 167.874 159.733 167.726C159.548 167.697 159.379 167.607 159.251 167.471L157.825 165.914L157.281 166.328L153.725 162.822Z" fill="#032E58"/>
<path d="M131.552 162.804L130.297 160.312L122.347 164.279L121.886 169.106L122.46 170.254L123.268 169.32C123.291 168.514 123.368 167.71 123.498 166.914C123.594 166.548 123.826 166.231 124.146 166.029L131.552 162.804Z" fill="#F6C2D7"/>
<path d="M124.756 172.242C124.566 172.096 124.349 171.99 124.118 171.931C123.886 171.872 123.645 171.861 123.409 171.897C123.314 171.76 123.263 171.597 123.263 171.43V169.323L122.585 169.259L122.345 164.282C122.345 164.282 120.437 164.011 118.773 164.92L122.804 172.966H123.944H124.48C124.562 172.967 124.643 172.943 124.711 172.898C124.779 172.852 124.832 172.787 124.863 172.711C124.897 172.632 124.905 172.543 124.885 172.459C124.866 172.375 124.821 172.299 124.756 172.242V172.242Z" fill="#032E58"/>
<path d="M165.902 143.183L156.973 162.888L153.363 161.429L156.889 151.887L159.504 144.805L148.607 143.912L146.122 143.708L148.998 136.243L164.007 139.455C164.398 139.539 164.767 139.709 165.085 139.953C165.402 140.197 165.662 140.509 165.843 140.866C166.025 141.223 166.125 141.617 166.135 142.018C166.145 142.418 166.065 142.816 165.902 143.183V143.183Z" fill="#3939AA"/>
<path d="M153.587 133.483C153.733 132.269 153.916 131.123 154.353 130.276C156.218 126.687 157.519 122.699 157.077 118.607C156.901 117.034 156.132 115.587 154.927 114.561L154.723 115.055L153.447 125.26L153.309 126.347L152.523 128.705L152.472 128.85L151.261 132.468C151.162 132.768 151.043 133.061 150.906 133.345L149.087 137.121C148.041 138.244 147.352 139.308 147.753 139.887C147.753 139.887 147.722 139.968 147.753 139.887C147.934 140.142 148.327 140.292 148.99 140.32C153.077 140.486 153.2 136.736 153.587 133.483Z" fill="#262C86"/>
<path d="M162.685 143.03L160.422 144.675L156.896 151.89L159.511 144.808L148.618 143.912L150.952 138.417V142.632L159.889 143.828L162.685 143.03Z" fill="#262C86"/>
<path d="M133.621 136.701C133.621 136.701 139.119 133.284 143.265 139.221L145.051 133.157L144.086 129.093L133.621 136.701Z" fill="#262C86"/>
<path d="M151.585 136.445L145.622 156.276C145.485 156.728 145.251 157.145 144.937 157.497C144.622 157.85 144.234 158.129 143.801 158.317L124.49 166.588L122.789 163.182L131.353 158.661L140.26 153.959L141.64 142.379C138.673 137.499 142.563 134.322 142.563 134.322L144.757 134.833L144.962 134.881L151.585 136.445Z" fill="#3939AA"/>
<path d="M143.844 142.313L141.602 154.342L143.28 156.154L140.862 154.944L131.353 158.664L140.26 153.962L141.64 142.382C138.673 137.501 142.563 134.325 142.563 134.325L144.757 134.835C143.806 135.762 142.484 137.933 143.844 142.313Z" fill="#262C86"/>
<path d="M124.97 120.559L123.753 120.934C123.692 121.101 123.616 121.262 123.526 121.416C123.372 121.746 123.177 122.056 122.944 122.337C122.835 122.462 122.559 122.592 122.434 122.809C122.309 123.026 121.883 123.449 121.745 123.625C121.608 123.801 121.605 124.005 121.393 123.88C121.181 123.755 121.199 123.408 121.245 123.214C121.368 122.902 121.54 122.612 121.756 122.355C121.906 122.12 121.993 122.018 121.615 122.025C121.238 122.033 120.408 122.681 120.138 122.862C119.868 123.043 119.194 123.533 119.013 123.663C118.832 123.793 118.538 124.028 118.309 123.725C118.079 123.421 118.684 123.069 118.819 122.959C118.954 122.85 119.278 122.602 119.426 122.474C119.574 122.347 120.304 121.837 120.222 121.671C120.141 121.505 119.526 121.844 119.296 121.941C119.067 122.038 118.559 122.217 118.373 122.265C118.186 122.314 117.888 122.434 117.699 122.503C117.51 122.571 117.26 122.579 117.166 122.329C117.15 122.291 117.143 122.249 117.144 122.208C117.146 122.166 117.157 122.125 117.175 122.088C117.194 122.051 117.221 122.018 117.254 121.993C117.286 121.967 117.324 121.948 117.365 121.939C117.462 121.893 117.842 121.75 118.003 121.684C118.163 121.617 118.595 121.428 118.834 121.301C119.074 121.173 119.641 120.946 119.822 120.888C120.003 120.829 120.016 120.633 119.865 120.633C119.715 120.633 118.679 120.632 118.482 120.653C118.286 120.673 117.85 120.737 117.51 120.747C117.171 120.758 117.049 120.63 117.049 120.464C117.045 120.392 117.066 120.321 117.109 120.263C117.151 120.204 117.213 120.163 117.283 120.145C117.413 120.115 118.064 120.074 118.327 120.023C118.685 119.965 119.046 119.927 119.408 119.908C119.664 119.908 119.959 119.816 119.972 119.714C119.985 119.612 119.692 119.553 119.462 119.484C119.232 119.416 118.625 119.265 118.286 119.206C117.947 119.148 117.867 118.967 117.875 118.847C117.883 118.727 118.018 118.609 118.273 118.609C118.648 118.645 119.019 118.711 119.383 118.806C119.618 118.859 120.289 118.972 120.289 118.972C120.559 118.903 120.73 118.89 120.967 118.839C121.225 118.815 121.48 118.775 121.733 118.719C122.125 118.576 122.802 119.01 123.169 119.245L124.496 118.972L124.97 120.559Z" fill="#F6C2D7"/>
<path d="M124.578 118.53L123.451 118.842L124.133 121.303L125.259 120.991L124.578 118.53Z" fill="white"/>
<path d="M157.243 112.017L156.248 115.125L154.419 112.469L153.256 111.885L153.631 108.264L155.799 108.216L156.876 109.009L157.243 112.017Z" fill="#F6C2D7"/>
<path d="M147.411 135.896C145.982 135.259 144.405 135.529 142.905 135.19C142.737 135.151 142.582 135.069 142.455 134.953C142.328 134.837 142.232 134.69 142.178 134.526C142.122 134.364 142.109 134.19 142.14 134.021C142.172 133.852 142.246 133.694 142.357 133.562C142.902 132.9 143.216 132.079 143.252 131.222C143.326 130.654 143.372 130.039 143.403 129.388C143.461 128.22 143.464 126.947 143.469 125.663C143.469 124.849 143.469 124.028 143.489 123.229C143.489 122.571 143.576 121.852 143.62 121.239C143.709 119.813 144.336 118.77 144.918 117.504C145.468 116.297 146.203 115.183 147.097 114.203C147.666 113.609 147.819 113.318 148.758 112.695C149.794 112.009 152.189 110.782 153.215 111.348C153.914 111.736 154.284 113.175 154.774 114.124C154.872 114.336 155 114.533 155.154 114.708C155.551 115.131 155.852 115.635 156.036 116.185C156.085 116.341 156.115 116.441 156.156 116.627C156.182 116.747 156.22 116.923 156.243 117.05C156.243 117.086 156.243 117.119 156.263 117.155C156.307 117.41 156.345 117.686 156.373 117.959C156.446 118.646 156.461 119.338 156.417 120.028C156.417 120.125 156.417 120.219 156.396 120.308C156.322 121.213 156.151 122.106 155.886 122.974C155.631 123.847 154.37 125.153 153.955 125.38C153.756 125.954 153.141 127.345 153.105 128.01C153.074 128.559 152.727 131.21 152.702 131.763C152.643 132.937 152.141 135.35 152.041 136.672C152.028 136.853 151.949 137.024 151.818 137.151C151.688 137.278 151.516 137.354 151.334 137.363C150.276 137.419 148.385 136.514 147.411 135.896Z" fill="white"/>
<path d="M151.786 123.515C151.676 123.651 151.562 123.788 151.434 123.921C151.179 124.176 150.924 124.444 150.643 124.699C150.643 124.699 150.623 124.699 150.62 124.717C150.069 125.21 149.483 125.661 148.865 126.067C148.633 126.212 148.393 126.36 148.153 126.516C147.357 127.026 146.526 127.48 145.781 128.034C145.724 128.077 145.671 128.115 145.617 128.151C142.811 130.299 142.331 132.424 138.142 134.902C137.78 135.108 137.395 135.33 136.979 135.555L136.637 135.731C136.196 135.955 135.716 136.177 135.196 136.409C134.509 136.726 133.973 136.966 133.137 137.282C132.966 135.417 133.137 133.664 134.116 132.049C134.295 131.759 134.501 131.485 134.731 131.233C135.044 130.896 135.379 130.579 135.734 130.286C135.831 130.202 135.923 130.131 136.012 130.052C136.449 129.704 136.916 129.397 137.407 129.133C137.624 128.998 137.862 128.86 138.094 128.715C138.125 128.686 138.159 128.66 138.196 128.638C138.196 128.638 138.216 128.638 138.229 128.638C138.242 128.622 138.258 128.609 138.277 128.6C138.601 128.391 139.359 127.893 140.153 127.401C140.232 127.34 140.323 127.294 140.408 127.23C140.959 126.898 141.482 126.554 141.88 126.307C142.278 126.059 142.54 125.888 142.54 125.888V125.87C142.553 125.748 142.681 124.013 143.018 121.85C143.205 120.682 143.574 119.552 144.112 118.5L144.51 117.711L145.73 115.311C146.131 114.417 146.728 113.624 147.477 112.992C148.071 112.466 148.752 112.049 149.49 111.759C150.278 111.384 152.342 111.157 152.342 111.157C152.936 112.726 153.375 114.35 153.654 116.005C154.087 118.857 153.636 121.309 151.786 123.515Z" fill="#3939AA"/>
<path d="M153.337 110.583L152.347 111.142L156.154 116.629L156.572 114.749L153.337 110.583Z" fill="white"/>
<path d="M156.572 114.749L156.912 116.435L156.154 116.629L156.572 114.749Z" fill="#D45C78"/>
<path d="M150.988 114.806L147.482 112.981C146.734 113.614 146.136 114.407 145.735 115.301L144.515 117.701L144.117 118.49C143.579 119.542 143.21 120.672 143.023 121.839C142.686 124.003 142.558 125.738 142.546 125.86V125.878C142.546 125.878 142.29 126.034 141.885 126.296C141.479 126.559 140.964 126.888 140.413 127.22C140.334 127.284 140.242 127.33 140.158 127.391C139.364 127.883 138.606 128.381 138.282 128.59C138.263 128.599 138.247 128.612 138.234 128.628C138.234 128.628 138.214 128.628 138.201 128.628C138.164 128.65 138.13 128.675 138.099 128.705C137.867 128.85 137.629 128.988 137.412 129.123C136.921 129.387 136.454 129.694 136.017 130.042C135.928 130.121 135.836 130.192 135.739 130.276C135.384 130.569 135.049 130.886 134.736 131.223C134.506 131.475 134.3 131.748 134.121 132.039C133.154 133.654 132.971 135.407 133.142 137.272C133.978 136.956 134.514 136.716 135.201 136.399C135.711 136.167 136.201 135.945 136.642 135.721L136.984 135.545C137.4 135.32 137.785 135.098 138.147 134.892C142.336 132.414 142.826 130.299 145.622 128.141C145.622 128.141 143.622 124.824 145.908 119.592L150.669 118.303H150.715C150.893 118.257 152.858 117.709 152.985 115.53L150.988 114.806Z" fill="#262C86"/>
<path d="M151.513 136.721L151.498 136.527C151.498 136.463 151.498 136.399 151.498 136.333C151.498 136.205 151.498 136.078 151.518 135.935C151.539 135.792 151.557 135.68 151.577 135.529C151.711 134.923 151.939 134.342 152.253 133.807C152.642 133.153 153.075 132.525 153.546 131.927C154.057 131.269 154.582 130.582 155.077 129.809C155.2 129.613 155.332 129.401 155.442 129.212L155.756 128.626L156.039 128.013C156.128 127.807 156.205 127.597 156.294 127.391C156.592 126.588 156.826 125.763 156.993 124.924C157.143 124.149 157.246 123.366 157.302 122.579C157.348 121.88 157.357 121.179 157.33 120.479C157.33 120.155 157.299 119.844 157.274 119.551C157.248 119.257 157.218 118.979 157.187 118.719C157.157 118.459 157.116 118.209 157.083 117.995C157.049 117.78 157.009 117.566 156.97 117.38C156.901 117.005 156.83 116.727 156.781 116.535L156.707 116.239L156.279 116.318C156.279 116.318 156.279 116.423 156.315 116.619C156.35 116.816 156.381 117.107 156.404 117.464C156.419 117.645 156.437 117.841 156.442 118.063C156.447 118.285 156.465 118.518 156.463 118.77C156.46 119.023 156.463 119.28 156.463 119.574C156.463 119.867 156.44 120.153 156.412 120.462C156.362 121.123 156.277 121.781 156.156 122.434C156.021 123.155 155.842 123.867 155.621 124.567C155.382 125.3 155.086 126.013 154.735 126.699C154.644 126.87 154.557 127.046 154.457 127.21L154.154 127.705L153.812 128.194C153.692 128.365 153.577 128.49 153.46 128.641C152.97 129.238 152.396 129.825 151.817 130.427C151.205 131.04 150.635 131.694 150.11 132.384C149.563 133.106 149.132 133.91 148.834 134.766C148.776 134.983 148.717 135.195 148.658 135.407C148.6 135.619 148.579 135.83 148.544 136.037C148.526 136.142 148.51 136.246 148.495 136.348C148.48 136.45 148.495 136.496 148.495 136.57L150.056 138.532L151.528 136.869C151.521 136.82 151.518 136.772 151.513 136.721Z" fill="#D45C78"/>
<path d="M138.369 118.961L150.615 117.403C151.009 117.367 151.39 117.25 151.737 117.06C152.083 116.87 152.387 116.611 152.628 116.298C152.869 115.985 153.044 115.626 153.14 115.243C153.236 114.859 153.252 114.46 153.187 114.071C152.932 112.407 151.613 111.211 149.975 111.606L137.382 114.614L124.115 118.441L124.996 121.416L138.369 118.961Z" fill="#3939AA"/>
<path d="M153.735 104.322C153.735 104.322 152.743 105.159 152.526 106.093L152.365 106.478L151.506 107.297C151.478 107.325 151.457 107.359 151.444 107.397C151.432 107.435 151.428 107.475 151.434 107.514C151.442 107.552 151.459 107.588 151.484 107.618C151.509 107.649 151.541 107.672 151.577 107.687L151.832 107.789L151.687 108.139L152.827 109.256L154.294 109.075L155.651 107.835L157.649 105.483L156.419 104.343L154.684 103.985L153.735 104.322Z" fill="#F6C2D7"/>
<path d="M159.953 108.805L161.108 107.437C161.108 107.437 161.596 106.927 160.986 106.404C161.066 106.168 161.05 105.91 160.941 105.687C160.832 105.463 160.639 105.292 160.404 105.21C160.404 105.21 160.552 103.521 157.952 102.75L158.098 103.363C157.842 103.02 157.505 102.747 157.116 102.568C156.727 102.39 156.3 102.312 155.873 102.342L155.973 102.852C155.973 102.852 154.916 101.768 153.96 102.817C153.784 103.021 153.67 103.271 153.63 103.537C153.59 103.803 153.627 104.075 153.735 104.322L158.246 106.189L159.953 108.805Z" fill="#001C38"/>
<path d="M150.87 112.223C150.698 112.152 150.542 112.047 150.41 111.915C150.279 111.783 150.174 111.627 150.103 111.454C150.032 111.282 149.996 111.097 149.996 110.911C149.996 110.725 150.033 110.54 150.105 110.368C150.192 110.158 150.33 109.972 150.505 109.825C150.68 109.679 150.887 109.578 151.11 109.529C151.111 109.525 151.111 109.52 151.11 109.516C151.109 109.505 151.109 109.494 151.11 109.483L151.778 107.779L153.092 108.649C153.342 108.816 153.646 108.882 153.943 108.835C154.24 108.788 154.509 108.63 154.695 108.394C154.73 108.345 154.766 108.294 154.802 108.238C154.802 108.238 154.82 108.213 154.827 108.197C155.121 107.711 155.212 107.13 155.082 106.577C155.028 106.395 155.037 106.199 155.108 106.022C155.179 105.845 155.308 105.698 155.473 105.603C155.548 105.56 155.629 105.526 155.712 105.503V105.503C156.55 105.293 157.435 105.376 158.219 105.737C159.004 106.099 159.642 106.717 160.027 107.491C160.185 107.812 160.407 108.562 159.537 109.315L158.072 110.539L157.246 112.024L156.621 109.333L155.774 109.169L155.047 109.279C155.047 109.279 154.955 110.769 153.873 111.524C153.469 111.805 152.97 111.916 152.485 111.833C152.292 112.06 152.031 112.22 151.741 112.29C151.451 112.36 151.146 112.337 150.87 112.223V112.223Z" fill="#3266A1"/>
<path d="M156.258 107.524C156.448 107.444 156.661 107.439 156.855 107.509C157.048 107.58 157.208 107.721 157.302 107.904C157.457 108.205 157.537 108.685 156.929 109.18C156.929 109.18 156.021 109.927 155.335 109.71C155.335 109.71 154.842 109.636 155.143 109.057L155.654 108.078C155.737 107.915 155.859 107.776 156.008 107.672C156.087 107.615 156.17 107.565 156.258 107.524V107.524Z" fill="#F6C2D7"/>
<path d="M80.0709 115.994C80.1839 116.382 80.2692 116.778 80.326 117.178C80.5081 118.254 80.4725 119.356 80.2214 120.418C80.0313 121.171 79.6689 121.87 79.1627 122.459C78.8758 122.788 78.5463 123.077 78.183 123.319C77.8051 123.564 77.4002 123.764 76.9763 123.916C76.5492 124.071 76.1084 124.185 75.6598 124.258C75.4353 124.304 75.2134 124.316 74.9863 124.347L74.3919 124.429L73.1392 124.597L72.5065 124.681C72.2973 124.712 72.1136 124.77 71.9146 124.814L70.7564 125.092C70.5625 125.14 70.3711 125.174 70.1823 125.232L69.616 125.429L68.5036 125.806C68.1476 125.938 67.7992 126.09 67.4602 126.26L66.4652 126.717L65.5748 127.25C65.2916 127.429 64.9957 127.572 64.7457 127.761L64.0288 128.309C63.8052 128.466 63.5914 128.636 63.3884 128.819L62.8629 129.33C62.6996 129.49 62.5439 129.638 62.4036 129.773C62.2633 129.909 62.1689 130.067 62.0643 130.189L61.4367 130.975L58.5053 131.266L58.5181 128.651L59.4646 127.709C59.6177 127.564 59.7758 127.388 59.9748 127.227L60.6203 126.73L61.3525 126.174C61.6282 125.981 61.9135 125.802 62.2072 125.638L63.146 125.087C63.4726 124.898 63.8349 124.763 64.192 124.594L65.3018 124.102L66.4958 123.712C66.9015 123.567 67.3145 123.443 67.7332 123.342L69.0088 123.066L69.6568 122.926C69.8762 122.885 70.1058 122.87 70.3303 122.839L71.6799 122.686C71.9019 122.666 72.134 122.627 72.3458 122.622H72.9836L74.2592 122.602H74.9123C75.0986 122.602 75.2899 122.602 75.471 122.602C75.8266 122.585 76.18 122.537 76.5273 122.459C77.1659 122.327 77.7587 122.029 78.2468 121.597C78.6888 121.188 79.0287 120.681 79.2392 120.117C79.5675 119.202 79.7097 118.23 79.6576 117.26C79.6449 116.9 79.6142 116.617 79.5913 116.428L79.5479 116.14L80.0709 115.994Z" fill="#D35A73"/>
<path d="M71.8636 116.576L72.4989 112.795C72.199 112.99 71.9102 113.203 71.634 113.43L71.0293 113.917C69.5327 115.142 68.3406 116.698 67.5469 118.461C66.8912 119.918 66.2509 121.375 65.6488 122.852C65.4702 123.291 65.2942 123.722 65.1232 124.163C65.1232 124.163 65.1819 124.005 65.3044 123.735C65.9698 122.275 67.0385 121.036 68.3845 120.163C69.7305 119.29 71.2978 118.82 72.9019 118.808L78.9331 118.76L71.8636 116.576Z" fill="#F7E7F7"/>
<path d="M105.497 118.816C105.545 118.787 105.591 118.753 105.632 118.714C105.684 118.664 105.721 118.601 105.74 118.531C105.758 118.461 105.757 118.388 105.736 118.319C105.715 118.25 105.675 118.188 105.621 118.141C105.567 118.093 105.501 118.061 105.43 118.048L104.035 117.793C104.279 117.564 104.512 117.322 104.731 117.068C104.861 116.938 104.958 116.779 105.014 116.605C105.071 116.43 105.086 116.245 105.058 116.063C105.054 116.04 105.044 116.018 105.03 115.999C105.016 115.979 104.997 115.964 104.976 115.954C104.744 115.828 104.502 116.127 104.502 116.127C104.187 116.56 103.772 116.91 103.292 117.147C102.648 117.441 102.1 117.912 101.713 118.505L101.422 118.811L88.5997 115.831L87.9058 119.607L101.116 120.627L103.392 121.309C104.188 121.52 104.943 121.434 104.874 120.668C104.96 120.634 105.039 120.583 105.105 120.517C105.17 120.451 105.222 120.373 105.256 120.287C105.29 120.2 105.305 120.108 105.302 120.015C105.299 119.922 105.276 119.831 105.236 119.747C105.968 119.352 105.497 118.816 105.497 118.816Z" fill="#F6C2D7"/>
<path d="M89.786 116.099C89.7833 115.997 89.7478 115.899 89.6848 115.82C89.6218 115.74 89.5346 115.683 89.4365 115.657L87.8496 115.239C87.7628 115.215 87.6705 115.223 87.5888 115.261C87.5072 115.299 87.4414 115.364 87.4032 115.446C86.6633 117.002 86.546 118.022 86.6378 119.612C86.6414 119.665 86.6631 119.715 86.6993 119.754C86.7355 119.793 86.7841 119.819 86.8368 119.826L88.7502 120.066C88.8239 120.076 88.8986 120.06 88.9622 120.021C89.0257 119.983 89.0743 119.924 89.0998 119.854C89.6228 118.413 89.8319 117.464 89.786 116.099Z" fill="white"/>
<path d="M75.92 112.935C73.5959 112.32 72.3483 112.17 71.3074 114.07C70.9815 114.632 70.8618 115.29 70.9689 115.93C71.0761 116.57 71.4033 117.153 71.8942 117.578C72.3326 117.974 72.8804 118.229 73.4658 118.308L87.9057 119.604L88.5997 115.826L75.92 112.935Z" fill="white"/>
<g style="mix-blend-mode:multiply">
<path d="M55.0407 39.2551C56.3427 40.684 57.3423 42.3616 57.9793 44.1868C58.6164 46.0119 58.8777 47.9471 58.7477 49.8759C58.6693 51.0222 58.903 52.1683 59.4238 53.1925L61.1152 56.5091C61.3984 57.0679 61.202 57.6648 60.7402 58.0833L51.9538 66.2192C51.7295 66.4238 51.444 66.5489 51.1416 66.5752C50.8391 66.6014 50.5364 66.5275 50.2802 66.3646L47.5197 64.6119C52.9003 63.8465 56.5358 58.9813 54.2958 54.3329C51.6961 48.9345 52.2064 45.1127 52.2064 45.1127C50.821 34.895 40.2487 35.7318 38.0801 36.015C40.8769 34.6461 44.0424 34.222 47.1008 34.8062C50.1593 35.3905 52.9455 36.9517 55.0407 39.2551V39.2551Z" fill="#FFDD79"/>
</g>
<path opacity="0.4" d="M34.6146 54.7512C36.203 54.5429 37.1953 52.1203 36.8307 49.3402C36.4662 46.5601 34.883 44.4752 33.2945 44.6834C31.7061 44.8917 30.7139 47.3143 31.0785 50.0944C31.443 52.8746 33.0261 54.9595 34.6146 54.7512Z" fill="white"/>
<path d="M31.7046 49.9809C31.6076 49.2563 31.8679 48.6236 32.2812 48.5701C32.6945 48.5165 33.1078 49.0599 33.2022 49.7844C33.2966 50.509 33.0389 51.1391 32.6256 51.1953C32.2123 51.2514 31.799 50.7054 31.7046 49.9809Z" fill="white"/>
<defs>
<linearGradient id="paint0_linear_201_3156" x1="98.6475" y1="122.695" x2="0.602663" y2="19.6952" gradientUnits="userSpaceOnUse">
<stop stop-color="#8DA6E2"/>
<stop offset="0.791667" stop-color="white"/>
</linearGradient>
</defs>
</svg>
