<svg width="214" height="173" viewBox="0 0 214 173" fill="none" xmlns="http://www.w3.org/2000/svg">
<g style="mix-blend-mode:multiply" opacity="0.5">
<path d="M107.192 154.968C166.011 154.968 213.693 153.259 213.693 151.151C213.693 149.044 166.011 147.335 107.192 147.335C48.3727 147.335 0.69043 149.044 0.69043 151.151C0.69043 153.259 48.3727 154.968 107.192 154.968Z" fill="#C9C9C9"/>
</g>
<path style="mix-blend-mode:multiply" opacity="0.25" d="M9.61814 81.1014C9.61527 78.0585 10.2912 75.0534 11.5966 72.3052C12.9019 69.5569 14.8039 67.135 17.1637 65.2159V65.2159C19.3408 63.4408 20.7242 60.873 21.0096 58.0773C21.2951 55.2816 20.4592 52.4868 18.6858 50.3078V50.3078C16.0116 47.0328 14.5532 42.9322 14.5585 38.7028C14.5592 33.8306 16.4937 29.1582 19.9366 25.7133C23.3795 22.2684 28.0488 20.3331 32.9175 20.3331C37.2232 20.3326 41.3909 21.8534 44.6858 24.6273V24.6273C49.1525 28.37 54.1372 31.4458 59.4848 33.7589C61.4889 33.5609 63.4129 32.8697 65.0853 31.747C70.5851 27.9932 77.0899 25.9902 83.7471 26.0004C89.5915 25.9914 95.3337 27.5345 100.387 30.4721C103.146 32.0298 106.264 32.8373 109.431 32.8144C117.259 29.0799 124.187 23.6953 129.74 17.0299V17.0299C134.045 11.8692 139.431 7.71939 145.517 4.87457C151.603 2.02976 158.24 0.559622 164.958 0.568398C170.985 0.568398 176.953 1.75645 182.522 4.06474C188.09 6.37303 193.149 9.75635 197.411 14.0215C201.673 18.2866 205.054 23.35 207.36 28.9226C209.666 34.4952 210.853 40.4679 210.853 46.4995C210.851 57.1333 207.164 67.4374 200.419 75.6545C193.675 83.8716 184.291 89.4929 173.867 91.5598C166.632 93.1429 160.303 97.4945 156.231 103.685C152.158 109.875 150.667 117.414 152.074 124.69C152.66 127.441 152.956 130.245 152.955 133.058C152.954 143.645 148.751 153.799 141.27 161.286C133.788 168.773 123.642 172.979 113.062 172.98C103.648 172.98 94.538 169.649 87.3415 163.576C80.1451 157.503 75.3258 149.08 73.7356 139.795C73.1657 136.736 71.4145 134.026 68.8615 132.25C66.3085 130.474 63.1592 129.777 60.0959 130.308C59.0519 130.491 57.994 130.582 56.9342 130.581C52.0655 130.581 47.3966 128.645 43.9542 125.199C40.5118 121.754 38.578 117.081 38.578 112.209C38.578 111.982 38.5779 111.759 38.5943 111.535C38.6402 110.275 38.4379 109.019 37.9987 107.838C37.5595 106.657 36.8921 105.574 36.0346 104.651C35.1771 103.728 34.1463 102.983 33.0011 102.459C31.8559 101.934 30.6188 101.641 29.3602 101.595V101.595C24.0574 101.405 19.0355 99.1618 15.3527 95.3388C11.67 91.5159 9.61403 86.4115 9.61814 81.1014V81.1014Z" fill="url(#paint0_linear_201_3215)"/>
<path d="M147.535 54.6203L148.332 57.5522C148.332 57.5522 149.398 59.5014 146.913 60.2112C146.913 60.2112 147.977 62.6982 145.849 63.5854C145.657 64.8377 145.779 66.1182 146.204 67.3117C146.204 67.3117 147.091 72.1055 141.768 72.1055C141.768 72.1055 132.9 71.7506 130.772 74.415C130.772 74.415 125.982 79.9158 127.226 85.9517H128.999C128.999 85.9517 130.417 92.165 136.272 101.218C136.272 101.218 150.457 121.277 149.928 149.857H77.3809V136.365C77.3809 136.365 76.928 124.004 78.1038 114.056C78.524 110.514 79.413 107.043 80.7472 103.735L91.7489 76.3669H95.0961L100.473 63.4871C100.621 63.1324 100.682 62.7476 100.651 62.3645C100.621 61.9814 100.5 61.6111 100.298 61.2841C98.0968 57.6915 91.0451 46.2012 91.0396 46.1875C86.9205 37.8558 87.4142 27.7032 91.738 19.7372C94.2805 15.0554 98.1487 11.1325 103.179 8.77108C104.822 8.01591 106.538 7.43049 108.299 7.02392C114.188 5.60969 120.36 5.94554 126.061 7.99031C134.324 10.9577 145.628 17.9955 146.965 34.3833C147.078 35.7682 146.806 37.1574 146.177 38.3963C145.672 39.3955 145.383 40.8696 146.722 42.3738L150.981 49.5617C150.981 49.5617 152.857 53.2908 147.535 54.6203Z" fill="#375682"/>
<path opacity="0.6" d="M147.535 54.6203L148.332 57.5522C148.332 57.5522 149.398 59.5014 146.913 60.2112C146.913 60.2112 147.977 62.6982 145.849 63.5854C145.657 64.8377 145.779 66.1182 146.204 67.3117C146.204 67.3117 147.091 72.1055 141.768 72.1055C141.768 72.1055 132.9 71.7506 130.772 74.415C130.772 74.415 125.982 79.9158 127.226 85.9517H128.999C128.999 85.9517 130.417 92.165 136.272 101.218C136.272 101.218 150.457 121.277 149.928 149.857H77.3809V136.365C77.3809 136.365 76.928 124.004 78.1038 114.056C78.524 110.514 79.413 107.043 80.7472 103.735L91.7489 76.3669H95.0961L100.473 63.4871C100.621 63.1324 100.682 62.7476 100.651 62.3645C100.621 61.9814 100.5 61.6111 100.298 61.2841C98.0968 57.6915 91.0451 46.2012 91.0396 46.1875C86.9205 37.8558 87.4142 27.7032 91.738 19.7372C94.2805 15.0554 98.1487 11.1325 103.179 8.77108C104.822 8.01591 106.538 7.43049 108.299 7.02392C114.188 5.60969 120.36 5.94554 126.061 7.99031C134.324 10.9577 145.628 17.9955 146.965 34.3833C147.078 35.7682 146.806 37.1574 146.177 38.3963C145.672 39.3955 145.383 40.8696 146.722 42.3738L150.981 49.5617C150.981 49.5617 152.857 53.2908 147.535 54.6203Z" fill="url(#paint1_linear_201_3215)"/>
<path d="M110.995 79.7335L111.423 80.9101L113.242 80.2632C113.33 80.2319 113.424 80.2234 113.515 80.2386C114.033 80.3369 114.47 80.4706 114.789 80.3887C115.032 80.3114 115.271 80.2203 115.504 80.1157L115.206 77.6588C115.174 77.5687 113.477 78.2294 113.403 78.3713C113.33 78.5133 113.171 78.7917 113.09 78.9555C113.06 79.0148 113.008 79.06 112.945 79.0811L110.995 79.7335Z" fill="#F6C2D7"/>
<path d="M113.131 80.6399L104.014 84.5874C103.425 84.8427 102.782 84.9468 102.142 84.8904L100.615 84.7539L92.54 84.0332L92.0654 82.9085L89.8585 77.667C89.8585 77.667 92.1772 77.7243 94.2068 79.9001L102.827 81.7865L112.536 78.8873L113.131 80.6399Z" fill="#3939AA"/>
<path opacity="0.5" d="M100.615 84.7535L92.54 84.0328L92.0654 82.908L91.1188 78.7012C91.1188 78.7012 93.7512 80.4811 94.1195 83.151L100.615 84.7535Z" fill="#262C86"/>
<path d="M94.9624 119.705L92.0408 124.815C91.7926 125.345 91.9099 125.765 92.199 126.276C92.4283 126.657 92.7031 127.009 93.0174 127.324L92.9738 128.323L92.0326 127.887C92.0326 127.887 87.9407 126.478 89.8912 124.591C90.0549 124.433 90.1804 124.318 90.2868 124.237C90.5323 124.035 91.1052 122.634 91.2688 122.361L93.0011 118.848L94.9624 119.705Z" fill="#F6C2D7"/>
<path d="M94.9843 141.536H78.6739C78.5517 141.536 78.4344 141.487 78.3479 141.401C78.2615 141.314 78.2129 141.197 78.2129 141.075C78.2129 140.952 78.2615 140.835 78.3479 140.748C78.4344 140.662 78.5517 140.613 78.6739 140.613H94.9788C95.1011 140.613 95.2183 140.662 95.3048 140.748C95.3913 140.835 95.4398 140.952 95.4398 141.075C95.4398 141.196 95.392 141.313 95.3067 141.399C95.2214 141.485 95.1056 141.535 94.9843 141.536V141.536Z" fill="white"/>
<path d="M93.6913 150.242H77.3973C77.3367 150.242 77.2765 150.231 77.2204 150.208C77.1643 150.185 77.1134 150.151 77.0705 150.108C77.0276 150.065 76.9936 150.014 76.9706 149.958C76.9476 149.902 76.9359 149.841 76.9362 149.781C76.9362 149.658 76.9848 149.541 77.0713 149.454C77.1577 149.368 77.275 149.319 77.3973 149.319H93.6913C93.8135 149.319 93.9308 149.368 94.0172 149.454C94.1037 149.541 94.1523 149.658 94.1523 149.781C94.1523 149.841 94.1403 149.901 94.1172 149.957C94.094 150.013 94.06 150.064 94.0172 150.107C93.9744 150.15 93.9236 150.184 93.8677 150.207C93.8117 150.23 93.7518 150.242 93.6913 150.242Z" fill="white"/>
<path d="M94.616 129.445H76.2979V130.969H94.616V129.445Z" fill="white"/>
<path d="M102.167 129.445H94.6133V130.969H102.167V129.445Z" fill="#DCB6D5"/>
<path d="M115.607 103.986C115.607 104.029 115.599 104.071 115.583 104.111C115.566 104.151 115.542 104.187 115.511 104.217C115.481 104.247 115.445 104.271 115.405 104.287C115.365 104.303 115.323 104.311 115.28 104.311C115.194 104.311 115.111 104.277 115.051 104.216C114.99 104.155 114.955 104.072 114.955 103.986V61.3145H115.607V103.986Z" fill="white"/>
<path d="M101.076 110.789L92.8592 124.373L90.4695 123.008C91.2879 121.37 92.1254 119.107 92.9438 117.218C94.1987 114.305 95.5244 111.512 97.1393 110.12L87.0623 104.177L89.8312 97.4805L100.639 107.42C101.094 107.842 101.387 108.41 101.467 109.025C101.547 109.641 101.408 110.265 101.076 110.789Z" fill="#3939AA"/>
<path opacity="0.5" d="M99.6572 109.829L97.9059 110.476C97.9059 110.476 94.8397 114.024 92.9301 117.224C94.185 114.311 95.5108 111.518 97.1257 110.126L87.0487 104.183L89.6621 98.0762L90.2459 104.118L98.1569 109.834L99.6572 109.829Z" fill="#262C86"/>
<path d="M85.5647 129.975L84.4735 136.925C84.4735 137.512 84.7463 137.842 85.2319 138.186C85.6607 138.469 86.1082 138.723 86.5713 138.945L86.9532 139.871H85.9139C85.9139 139.871 81.6147 140.318 82.5858 137.785C82.6649 137.572 83.6579 129.975 83.6579 129.975H85.5647Z" fill="#F6C2D7"/>
<path d="M82.5913 137.785C82.0541 138.621 81.7699 139.595 81.7729 140.589H89.613C89.695 140.589 89.775 140.563 89.8406 140.514C89.9061 140.464 89.9537 140.395 89.9758 140.316C89.9958 140.235 89.989 140.15 89.9565 140.074C89.924 139.998 89.8676 139.934 89.7958 139.893C89.4188 139.711 88.9894 139.669 88.5846 139.775C88.412 139.807 88.2335 139.781 88.0772 139.702L86.5877 138.951L86.2931 139.42L82.5913 137.785Z" fill="#122951"/>
<path d="M90.8951 92.4854C90.8951 92.4854 90.2459 99.1764 93.6858 101.06L88.7046 98.0872L90.8951 92.4854Z" fill="#1E3565"/>
<path d="M75.0594 101.123C75.0594 101.123 77.3945 99.5011 79.2113 100.279C81.0281 101.057 82.002 100.994 83.366 99.6949L81.8083 93.0693L75.0594 101.123Z" fill="#262C86"/>
<path d="M87.5752 99.1457L89.4438 92.9761L90.7505 88.1414L90.0167 78.3464L90.1149 77.9287C91.224 78.5738 92.0433 79.6204 92.4036 80.8525C93.4375 84.527 92.5782 88.3844 91.2252 91.8514C90.7342 93.1126 89.9458 96.2029 89.3647 97.4259C88.8273 98.5506 87.9216 97.9937 87.5752 99.1457Z" fill="#1E3565"/>
<path d="M90.445 74.1394L90.1913 75.6463L89.8585 77.6637L89.4766 79.9241L87.2697 79.6702L86.3585 77.044L87.0296 73.7354L90.445 74.1394Z" fill="#F6C2D7"/>
<path d="M89.9185 77.7131C88.6682 77.6827 87.4215 77.5678 86.1867 77.3691L85.7338 77.4893C85.4016 77.6801 85.0883 77.9022 84.7981 78.1526C83.707 79.1299 81.4783 81.4722 80.6626 84.7481C81.0773 86.8857 81.3582 88.5045 81.5328 90.0961L81.5492 90.2517C81.7636 92.654 81.8418 95.0666 81.7838 97.4778H89.8176C89.6893 94.6715 90.9879 88.5864 90.9879 88.5864L91.7108 86.0394C91.9018 85.2627 92.0161 84.469 92.0518 83.6698C92.4746 79.2746 89.9185 77.7131 89.9185 77.7131Z" fill="url(#paint2_linear_201_3215)"/>
<path d="M90.044 78.9176L89.3675 78.5026L89.6757 77.8447L90.0631 78.0522L90.3877 78.2078L90.4723 79.1059L90.044 78.9176Z" fill="#F05673"/>
<path style="mix-blend-mode:multiply" opacity="0.5" d="M89.6921 77.9238H89.6948L89.7003 77.9265L89.6921 77.9238Z" fill="url(#paint3_linear_201_3215)"/>
<g style="mix-blend-mode:multiply">
<path d="M86.6313 77.7129C86.6313 77.7129 87.9953 79.0779 88.2681 79.6976C88.7223 79.3934 89.0966 78.9842 89.3593 78.5046L86.6313 77.7129Z" fill="#CCDAE9"/>
</g>
<path d="M90.9933 78.2753L89.8585 77.6666C88.1672 77.7921 87.5097 77.4236 86.3585 77.0469L86.1867 77.3717C86.8932 77.9805 87.0624 77.7567 88.369 79.2991C89.1629 78.7886 89.6075 78.3409 89.6975 77.9341L90.1913 78.1716C90.4429 78.2833 90.7216 78.3194 90.9933 78.2753V78.2753Z" fill="white"/>
<path d="M84.018 93.2303C83.7124 93.606 83.5629 94.085 83.6006 94.5679C83.6366 94.8247 83.7343 95.0689 83.8854 95.2795C84.0365 95.4902 84.2365 95.661 84.468 95.7773C85.0873 96.0503 85.3383 96.8502 85.371 97.4808H81.7837C81.7837 94.3441 80.8017 92.2939 81.0663 90.5659L81.5328 90.099L88.4863 83.1514C88.4863 83.1514 89.2501 86.3972 87.7497 88.6303L84.018 93.2303Z" fill="#CCDAE9"/>
<path d="M87.6761 87.4974C87.6079 87.6257 87.5343 87.7513 87.4579 87.8769C87.2894 88.1454 87.1073 88.405 86.9123 88.6549C86.5452 89.1387 86.1431 89.5949 85.7093 90.0198C85.5483 90.1809 85.3819 90.342 85.2046 90.503C84.5635 91.0954 83.8979 91.737 83.2268 92.3949L83.0332 92.5914C79.4869 97.9913 76.4343 99.9814 74.5984 101.704C74.1583 100.23 74.2062 98.6526 74.7348 97.2078C74.9876 96.5939 75.3366 96.0244 75.7687 95.5207L75.9542 95.2886C76.1148 95.0963 76.287 94.914 76.4697 94.7426C76.6198 94.5952 76.7781 94.4696 76.9335 94.3222C77.089 94.1748 77.3072 93.9864 77.4982 93.7953L77.5473 93.7489C78.1229 93.1756 80.5726 90.8689 80.5726 90.8689C80.391 89.2435 80.2954 87.6096 80.2861 85.9741C80.2861 84.1614 80.428 82.245 80.9136 80.9756C81.0009 80.749 81.0554 80.5251 81.1455 80.3231C81.3706 79.7833 81.7236 79.3065 82.1739 78.9336C82.5248 78.6416 82.9073 78.3897 83.3142 78.1829C84.0299 77.8021 84.8093 77.556 85.6138 77.4567L86.1594 77.3721C88.4618 81.2022 89.4384 84.3252 87.6761 87.4974Z" fill="#454DAD"/>
<g style="mix-blend-mode:multiply" opacity="0.5">
<path d="M82.2203 87.4181L81.4373 90.6667L82.5913 91.4611L81.0963 91.1008C81.0963 91.1008 80.1415 92.0972 76.9389 94.3221C77.1272 94.1556 77.3182 93.9863 77.5064 93.7979C77.5214 93.7802 77.5378 93.7638 77.5555 93.7488C78.1311 93.1782 80.5808 90.8687 80.5808 90.8687C80.3991 89.2433 80.3035 87.6095 80.2943 85.974C80.3925 85.862 80.4935 85.7528 80.5917 85.6436C81.0118 85.1795 81.4756 84.7373 81.9039 84.2787C82.9732 83.1321 84.0589 81.9992 85.1282 80.8526C85.1719 80.8062 85.8866 80.0991 85.8811 80.0527C86.0339 80.1392 86.1639 80.2609 86.2604 80.4076C86.9069 81.6989 86.5331 83.2659 85.5675 84.3415L82.2203 87.4181Z" fill="#1A278D"/>
</g>
<path d="M89.8175 97.4805L85.0545 136.912H82.1821C82.3703 134.236 82.3376 131.509 82.3212 128.899V128.886C82.2966 124.976 82.3212 121.337 83.1396 118.536L82.7304 104.27C82.7304 104.27 79.6396 100.863 81.7729 97.4805H89.8175Z" fill="#3939AA"/>
<path d="M88.5327 68.3766C88.8573 69.1955 88.5327 70.1019 87.7934 70.3885C87.0542 70.6752 86.2058 70.2411 85.8839 69.4167C85.562 68.5922 85.8839 67.6913 86.6232 67.4047C87.3624 67.1181 88.2217 67.5521 88.5327 68.3766Z" fill="#172F57"/>
<path d="M89.6239 72.1583C89.9185 72.7043 90.2923 73.0974 90.4641 73.0073C90.636 72.9172 90.5378 72.3958 90.2459 71.8362C89.954 71.2765 89.5775 70.8998 89.4057 70.9899C89.2338 71.08 89.332 71.6014 89.6239 72.1583Z" fill="white"/>
<path d="M88.129 70.2087C88.129 70.2087 89.1083 69.1168 88.1508 68.3606C87.9696 68.2164 87.7489 68.1307 87.5179 68.1149C87.0456 68.0908 86.5725 68.1461 86.1185 68.2787C85.2927 68.5248 84.5854 69.0646 84.1298 69.7965C83.9709 70.045 83.795 70.2821 83.6034 70.5063C83.4872 70.6383 83.3475 70.7475 83.1914 70.8284C82.8832 70.9922 82.2994 71.4126 82.5667 72.207C82.6381 72.4194 82.6946 72.6365 82.7358 72.8568C82.8063 73.2934 82.9633 73.7115 83.1976 74.0865C83.4318 74.4616 83.7385 74.786 84.0998 75.0407L88.129 70.2087Z" fill="#172F57"/>
<path d="M90.6932 73.113C90.6439 73.1763 90.6096 73.25 90.5931 73.3285C90.5765 73.4071 90.5781 73.4883 90.5977 73.5662V73.5907C90.6329 73.7349 90.6758 73.877 90.726 74.0166C90.7651 74.1248 90.8107 74.2305 90.8624 74.3333C90.919 74.4425 90.9876 74.545 91.067 74.639C91.1903 74.776 91.3008 74.924 91.397 75.0813C91.457 75.1785 91.5064 75.2819 91.5443 75.3898C91.6262 75.6355 91.5989 75.8702 91.2716 75.9549C91.2716 75.9549 89.0892 76.7138 88.3745 75.6955L87.0269 76.3234L86.334 76.5964L83.9907 74.1231C83.9907 74.1231 83.3496 71.5815 85.2401 70.6397C86.0176 70.252 87.0733 69.8562 87.9489 70.0773C88.3568 70.2182 88.7286 70.4473 89.0379 70.7483C89.3472 71.0493 89.5864 71.4149 89.7385 71.819C89.7502 71.9082 89.7806 71.9939 89.8276 72.0705C89.8746 72.1472 89.9372 72.2131 90.0113 72.264L90.6769 72.6025C90.7115 72.6349 90.7394 72.6738 90.759 72.717C90.7786 72.7602 90.7895 72.8069 90.791 72.8543C90.7926 72.9018 90.7847 72.949 90.7679 72.9934C90.7511 73.0378 90.7258 73.0785 90.6932 73.113V73.113Z" fill="#F6C2D7"/>
<path d="M91.2825 75.9554C91.2825 75.9554 89.1001 76.7143 88.3854 75.696C88.3854 75.696 88.2354 74.0581 87.2943 74.1755C87.2943 74.1755 85.622 73.7359 85.5702 75.1528L84.5799 74.0608L84.5363 72.8132L86.0639 70.9842L86.8578 70.9678L87.6352 71.5984C87.4428 71.7724 87.3176 72.0086 87.2817 72.2656C87.2458 72.5227 87.3014 72.7842 87.4388 73.0043C87.7139 73.5076 88.106 73.9374 88.5818 74.2573C88.8296 74.4121 89.0633 74.5884 89.2802 74.7842C89.5911 75.0572 90.2322 75.3957 91.4025 75.0818C91.6044 75.4148 91.7435 75.8325 91.2825 75.9554Z" fill="#3266A1"/>
<path d="M88.9365 72.5263C89.2311 73.086 89.6048 73.4654 89.7767 73.3753C89.9485 73.2852 89.8503 72.7638 89.5584 72.2069C89.2666 71.65 88.8901 71.2678 88.7182 71.3579C88.5464 71.448 88.6446 71.9803 88.9365 72.5263Z" fill="white"/>
<path d="M91.5525 75.3905L91.0451 75.6171C91.0451 75.6171 89.7985 75.8518 89.2829 74.7844C89.5636 74.8588 89.8591 74.8563 90.1384 74.777C90.4178 74.6978 90.6707 74.5447 90.8705 74.334C90.9272 74.4432 90.9958 74.5457 91.0751 74.6397C91.1985 74.7767 91.309 74.9247 91.4052 75.082C91.4652 75.1792 91.5146 75.2827 91.5525 75.3905V75.3905Z" fill="#3266A1"/>
<path d="M90.6769 73.5715C90.6894 73.5662 90.7028 73.5635 90.7164 73.5635C90.73 73.5635 90.7435 73.5662 90.756 73.5715C90.769 73.5772 90.7804 73.5858 90.7894 73.5968C90.7984 73.6077 90.8047 73.6205 90.8078 73.6343C90.8296 73.7162 90.8542 73.8036 90.8842 73.8937C90.8908 73.9104 90.8908 73.929 90.8842 73.9457C90.8776 73.9624 90.865 73.976 90.8487 73.9838L89.913 74.5079C89.913 74.5079 89.8285 73.9619 90.6769 73.5715Z" fill="#172F57"/>
<path d="M86.2767 73.9268C86.2767 73.9268 87.1087 75.4664 86.4022 76.8287L85.9194 75.7367L84.9864 74.9396L85.9985 74.2079L86.2767 73.9268Z" fill="#3266A1"/>
<path d="M87.4797 74.645C87.4797 74.645 86.5768 74.8279 86.0966 73.6977C86.0503 73.5934 86.0337 73.4782 86.0486 73.365C86.0635 73.2518 86.1094 73.1449 86.1812 73.0562C86.2335 72.9914 86.3056 72.9456 86.3864 72.9258C86.4673 72.9061 86.5524 72.9135 86.6286 72.947C86.6987 72.9748 86.7623 73.0167 86.8153 73.0703C86.8684 73.1239 86.9098 73.1878 86.9369 73.2582L87.4797 74.645Z" fill="#F6C2D7"/>
<path d="M86.9369 73.5886C86.9007 73.5875 86.8657 73.5761 86.8357 73.5558C86.8058 73.5355 86.7822 73.5071 86.7677 73.4739C86.7562 73.4528 86.749 73.4296 86.7465 73.4056C86.744 73.3817 86.7462 73.3575 86.753 73.3344C86.7598 73.3113 86.7712 73.2898 86.7864 73.2711C86.8015 73.2524 86.8202 73.2369 86.8414 73.2255L89.8421 71.8196C89.8874 71.8025 89.9375 71.8038 89.9819 71.8231C90.0262 71.8425 90.0612 71.8785 90.0795 71.9233C90.1019 71.9658 90.1067 72.0153 90.0929 72.0612C90.0791 72.1072 90.0478 72.1459 90.0058 72.169L87.0051 73.5749C86.9838 73.585 86.9604 73.5897 86.9369 73.5886V73.5886Z" fill="white"/>
<path d="M84.1135 75.0432C84.3528 75.4064 84.7089 75.677 85.1228 75.8103C85.6639 75.973 86.122 76.3375 86.4022 76.8285C86.4022 76.8285 86.5059 75.7993 85.382 74.8111C83.9417 73.5471 85.8866 71.4669 86.8605 70.9674C86.8605 70.9674 86.0257 70.233 84.6481 71.2404C84.3546 71.4434 84.127 71.7282 83.9935 72.0593C83.778 72.6272 83.6197 73.6181 84.1135 75.0432Z" fill="#172F57"/>
<g style="mix-blend-mode:multiply">
<path d="M88.4099 75.7227C88.4399 75.8946 88.5627 76.4024 89.0047 76.4898C88.9862 76.5793 88.9479 76.6635 88.8927 76.7362C88.8375 76.809 88.7667 76.8684 88.6855 76.9102C88.4298 77.0651 88.2419 77.3108 88.159 77.5981C88.7201 77.6947 89.2914 77.7177 89.8585 77.6664L90.1013 76.2059C89.4766 76.2686 88.7673 76.2059 88.4099 75.7227Z" fill="#FFC8DE"/>
</g>
<path d="M90.3304 78.6309C91.2143 81.1206 92.0899 83.6212 92.6082 86.2173C93.1911 89.029 93.3127 91.9168 92.9683 94.7675C92.9683 94.6965 92.9683 94.7839 92.9683 94.8003L92.9356 95.0896C92.8838 95.5128 92.8456 95.9305 92.8238 96.3563C92.791 97.1071 92.8238 97.8441 92.8565 98.5949V98.5648C92.9083 99.0562 92.9711 99.5421 93.0529 100.028C93.0529 100.069 91.8117 101.45 91.8117 101.45L90.3523 100.454C90.3523 100.454 90.3004 100.069 90.2922 99.9626C90.2649 99.5695 90.2595 99.1791 90.2568 98.786C90.265 97.2766 90.4481 95.7733 90.8023 94.3061C91.3916 91.6035 91.4161 88.8954 91.1815 86.1464C90.9691 83.6318 90.554 81.1386 89.9403 78.6909L90.3304 78.6309Z" fill="#F05673"/>
<g style="mix-blend-mode:multiply" opacity="0.5">
<path d="M77.2172 99.2092L75.7878 95.5183L75.9733 95.2862C76.134 95.0939 76.3061 94.9116 76.4889 94.7402L77.2172 99.2092Z" fill="#1E3565"/>
</g>
<path opacity="0.5" d="M85.832 118.465L84.0807 119.246C83.155 122.388 82.5652 125.619 82.3212 128.886C82.2967 124.976 82.3212 121.337 83.1396 118.536L82.7304 104.27C82.7304 104.27 79.6396 100.863 81.7729 97.4805H85.3601C85.3601 97.4805 82.9513 101.513 85.3601 104.371L84.2007 118.465H85.832Z" fill="#262C86"/>
<path d="M81.1591 104.109V102.684C81.1596 102.541 81.1313 102.399 81.076 102.267C81.0207 102.134 80.9395 102.015 80.8372 101.914C80.7365 101.813 80.6166 101.733 80.4845 101.678C80.3524 101.624 80.2108 101.597 80.0679 101.598H77.5828C77.4392 101.598 77.2972 101.627 77.1647 101.682C77.0323 101.737 76.9119 101.818 76.8107 101.92C76.6068 102.124 76.4921 102.401 76.4916 102.69V104.115H77.0835V102.69C77.0831 102.624 77.0959 102.559 77.1212 102.499C77.1466 102.438 77.1838 102.383 77.2309 102.338C77.2765 102.29 77.3313 102.253 77.3918 102.228C77.4522 102.202 77.5172 102.19 77.5828 102.19H80.0598C80.1251 102.19 80.1898 102.202 80.2502 102.227C80.3106 102.252 80.3655 102.289 80.4117 102.335C80.4582 102.381 80.4951 102.436 80.5204 102.496C80.5457 102.557 80.5588 102.621 80.5589 102.687V104.112L81.1591 104.109Z" fill="#674B24"/>
<path d="M87.3515 108.228V114.854C87.3508 115.173 87.2244 115.48 86.9998 115.706C86.7752 115.933 86.4703 116.062 86.1512 116.066H72.0996C71.7824 116.066 71.4781 115.941 71.2528 115.717C71.0275 115.494 70.8995 115.19 70.8966 114.873V108.226L87.3515 108.228Z" fill="#3E2C15"/>
<path d="M70.8966 104.652C70.8958 104.334 71.0205 104.028 71.2437 103.8C71.4668 103.573 71.7704 103.443 72.0887 103.438H86.143C86.4606 103.437 86.7657 103.562 86.9916 103.785C87.2175 104.009 87.3459 104.313 87.3488 104.63V108.229H70.8966V104.652Z" fill="#674B24"/>
<g style="mix-blend-mode:multiply">
<path d="M78.0274 108.509C78.0274 108.627 78.0506 108.743 78.0956 108.852C78.1406 108.96 78.2065 109.059 78.2897 109.141C78.3728 109.224 78.4714 109.29 78.58 109.335C78.6885 109.379 78.8048 109.402 78.9222 109.402C79.1588 109.402 79.3856 109.308 79.5529 109.14C79.7202 108.973 79.8142 108.746 79.8142 108.509V107.54C79.8142 107.423 79.7911 107.306 79.7461 107.198C79.7011 107.089 79.6351 106.991 79.552 106.908C79.4689 106.825 79.3702 106.759 79.2617 106.715C79.1532 106.67 79.0368 106.647 78.9194 106.647C78.6826 106.648 78.4557 106.743 78.2885 106.911C78.1213 107.079 78.0274 107.306 78.0274 107.543V108.509Z" fill="#674B24"/>
</g>
<path d="M78.2293 108.509C78.2293 108.627 78.2525 108.743 78.2975 108.852C78.3425 108.96 78.4084 109.059 78.4915 109.141C78.5747 109.224 78.6733 109.29 78.7818 109.335C78.8904 109.379 79.0067 109.402 79.124 109.402C79.3606 109.402 79.5875 109.308 79.7548 109.14C79.9221 108.973 80.0161 108.746 80.0161 108.509V107.54C80.0161 107.423 79.9929 107.306 79.9479 107.198C79.9029 107.089 79.837 106.991 79.7539 106.908C79.6707 106.825 79.5721 106.759 79.4636 106.715C79.355 106.67 79.2387 106.647 79.1213 106.647C78.8845 106.648 78.6576 106.743 78.4904 106.911C78.3232 107.079 78.2293 107.306 78.2293 107.543V108.509Z" fill="#674B24"/>
<path d="M78.7858 107.742C78.7858 107.786 78.7945 107.83 78.8113 107.871C78.8282 107.911 78.8529 107.948 78.8841 107.979C78.9152 108.011 78.9522 108.035 78.9929 108.052C79.0336 108.069 79.0772 108.078 79.1213 108.078C79.1654 108.078 79.209 108.069 79.2497 108.052C79.2904 108.035 79.3274 108.011 79.3586 107.979C79.3897 107.948 79.4145 107.911 79.4313 107.871C79.4482 107.83 79.4569 107.786 79.4569 107.742C79.4569 107.653 79.4215 107.568 79.3586 107.505C79.2957 107.442 79.2103 107.406 79.1213 107.406C79.0325 107.407 78.9476 107.443 78.8849 107.505C78.8221 107.568 78.7865 107.653 78.7858 107.742Z" fill="white"/>
<path d="M78.9849 107.941H79.2577V108.515C79.2577 108.533 79.2541 108.551 79.2471 108.568C79.2401 108.585 79.2299 108.6 79.217 108.613C79.2041 108.626 79.1887 108.636 79.1719 108.643C79.155 108.65 79.1369 108.654 79.1186 108.654C79.0827 108.653 79.0485 108.638 79.0231 108.613C79.01 108.601 78.9996 108.586 78.9926 108.57C78.9855 108.553 78.982 108.535 78.9822 108.517L78.9849 107.941Z" fill="white"/>
<path d="M77.2009 98.2616L77.3918 99.5856C77.46 100.533 77.5009 101.472 77.8283 102.397C77.859 102.471 77.9176 102.529 77.9911 102.56C78.0646 102.591 78.1473 102.591 78.2211 102.561C78.2832 102.534 78.3343 102.487 78.366 102.427C78.3977 102.367 78.4082 102.298 78.3957 102.231V102.231L78.4748 102.422C78.4898 102.459 78.5118 102.492 78.5397 102.52C78.5675 102.548 78.6007 102.57 78.6372 102.586C78.6737 102.601 78.7129 102.609 78.7524 102.609C78.7919 102.609 78.8311 102.601 78.8676 102.586C78.9361 102.557 78.9914 102.503 79.0227 102.436C79.0539 102.368 79.0589 102.291 79.0368 102.22L79.1295 102.449C79.1608 102.523 79.2199 102.581 79.2941 102.612C79.3682 102.642 79.4513 102.641 79.5251 102.61C79.5931 102.581 79.6477 102.527 79.6784 102.459C79.7091 102.392 79.7138 102.315 79.6915 102.245L79.787 102.474C79.8022 102.51 79.8244 102.543 79.8524 102.571C79.8803 102.599 79.9135 102.621 79.95 102.636C79.9865 102.651 80.0255 102.658 80.065 102.658C80.1044 102.658 80.1434 102.65 80.1798 102.635C80.2161 102.62 80.2492 102.597 80.2769 102.569C80.3047 102.541 80.3267 102.508 80.3416 102.472C80.3566 102.435 80.3642 102.396 80.3641 102.357C80.3639 102.317 80.356 102.278 80.3407 102.242L79.8087 100.724L80.4307 101.461C80.5152 101.555 80.6317 101.615 80.7576 101.629C80.8835 101.642 81.01 101.609 81.1127 101.535C81.119 101.528 81.1226 101.519 81.1226 101.51C81.1226 101.501 81.119 101.492 81.1127 101.486L80.1361 100.17C80.0095 99.9994 79.8346 99.871 79.6342 99.8013L78.884 99.4546C78.8117 99.4219 78.7488 99.3715 78.7011 99.308C78.6534 99.2446 78.6225 99.1701 78.6112 99.0915L78.4748 98.0869L77.2009 98.2616Z" fill="#F6C2D7"/>
<path d="M86.424 81.0523C86.4149 81.4241 86.3273 81.7896 86.1669 82.1251C86.0066 82.4606 85.7772 82.7583 85.4938 82.9988L78.142 89.2367L78.8704 99.0644L77.1027 99.3729L75.1931 89.2258C75.1291 88.8798 75.1387 88.5241 75.2215 88.1821C75.3042 87.8401 75.4582 87.5195 75.6732 87.2411L76.8871 85.6741L81.7647 79.3652C81.9867 79.0791 82.2657 78.8425 82.5842 78.6705C82.9027 78.4984 83.2535 78.3948 83.6143 78.3661C83.9759 78.3382 84.3393 78.3863 84.6812 78.5071C85.0232 78.6279 85.3362 78.8188 85.6002 79.0677C85.8917 79.3426 86.1167 79.6806 86.2576 80.0559C86.3781 80.3739 86.4346 80.7125 86.424 81.0523Z" fill="#3939AA"/>
<path d="M130.126 31.1429C130.111 33.0974 129.703 35.0289 128.924 36.8214C128.146 38.6139 127.013 40.2304 125.594 41.574C124.749 42.3696 124.135 43.3802 123.819 44.4978L122.796 48.1204C122.705 48.4046 122.521 48.6496 122.273 48.8152C122.025 48.9809 121.729 49.0574 121.432 49.0322H109.333C109.026 49.0292 108.728 48.9252 108.486 48.7363C108.243 48.5474 108.069 48.284 107.991 47.9866L107.148 44.7899L106.99 44.1893C106.7 43.0882 106.123 42.084 105.318 41.2792C103.955 39.9155 102.877 38.2935 102.148 36.508C101.42 34.7225 101.054 32.8095 101.073 30.8809C101.108 27.0244 102.673 23.3399 105.423 20.6378C108.172 17.9357 111.882 16.4374 115.736 16.4723C117.107 16.4825 118.47 16.6875 119.784 17.0811C122.796 17.9899 125.432 19.8518 127.297 22.3873C129.161 24.9227 130.154 27.995 130.126 31.1429V31.1429Z" fill="#FFDD79"/>
<g style="mix-blend-mode:multiply">
<path d="M130.126 31.1429C130.111 33.0974 129.703 35.0289 128.924 36.8214C128.146 38.6139 127.013 40.2305 125.594 41.574C124.749 42.3697 124.135 43.3802 123.819 44.4978L122.796 48.1204C122.705 48.4046 122.521 48.6496 122.273 48.8152C122.025 48.9809 121.729 49.0574 121.432 49.0322H109.333C109.026 49.0292 108.728 48.9252 108.486 48.7363C108.243 48.5474 108.069 48.284 107.991 47.9866L107.148 44.7899C111.671 47.9129 117.7 46.8073 119.233 41.8197C121.009 36.0268 124.012 33.5425 124.012 33.5425C130 25.006 121.587 18.3641 119.784 17.0811C122.796 17.9899 125.432 19.8518 127.297 22.3872C129.161 24.9227 130.154 27.9949 130.126 31.1429V31.1429Z" fill="#FFDD79"/>
</g>
<path d="M119.137 59.0701C119.839 56.9619 118.701 54.6829 116.594 53.98C114.487 53.277 112.21 54.4162 111.508 56.5245C110.805 58.6327 111.944 60.9117 114.05 61.6146C116.157 62.3176 118.434 61.1784 119.137 59.0701Z" fill="#0E2748"/>
<path d="M122.337 53.212C122.329 52.8417 122.174 52.49 121.906 52.2341C121.639 51.9782 121.281 51.8389 120.911 51.847C121.094 51.8547 121.277 51.8261 121.449 51.7628C121.621 51.6996 121.779 51.6029 121.914 51.4784C122.049 51.3538 122.158 51.2039 122.235 51.0371C122.312 50.8704 122.355 50.6901 122.362 50.5066C122.359 50.1248 122.209 49.759 121.943 49.485C121.677 49.211 121.316 49.0499 120.935 49.0352H109.931C109.56 49.0212 109.199 49.1551 108.927 49.4074C108.654 49.6598 108.494 50.01 108.479 50.381C108.488 50.7513 108.643 51.103 108.911 51.3589C109.178 51.6148 109.536 51.7541 109.906 51.746C109.723 51.7383 109.54 51.7669 109.367 51.8302C109.195 51.8935 109.037 51.9901 108.902 52.1147C108.768 52.2392 108.659 52.3891 108.582 52.5559C108.505 52.7226 108.462 52.9029 108.455 53.0864C108.463 53.4566 108.618 53.8084 108.886 54.0643C109.153 54.3202 109.512 54.4594 109.882 54.4514C109.698 54.4437 109.515 54.4723 109.343 54.5355C109.171 54.5988 109.013 54.6955 108.878 54.82C108.743 54.9446 108.634 55.0945 108.557 55.2612C108.48 55.428 108.437 55.6083 108.43 55.7918C108.436 56.1381 108.571 56.4699 108.808 56.7223C109.045 56.9747 109.367 57.1296 109.712 57.1567V57.932C109.704 58.4954 109.917 59.0397 110.305 59.4479C110.693 59.8562 111.226 60.096 111.788 60.116H118.897C119.452 60.1203 119.986 59.9044 120.382 59.5154C120.777 59.1265 121.003 58.5963 121.009 58.0412V57.2632C121.354 57.2437 121.679 57.096 121.921 56.849C122.162 56.6021 122.303 56.2737 122.315 55.9283C122.307 55.5585 122.152 55.2072 121.885 54.9514C121.618 54.6955 121.261 54.556 120.891 54.5633C121.075 54.5702 121.259 54.5407 121.431 54.4764C121.603 54.4121 121.761 54.3144 121.895 54.1888C122.03 54.0632 122.138 53.9122 122.214 53.7446C122.29 53.5769 122.332 53.3959 122.337 53.212V53.212Z" fill="#172F57"/>
<g style="mix-blend-mode:multiply" opacity="0.5">
<path d="M122.337 53.2119C122.329 52.8417 122.174 52.49 121.906 52.2341C121.639 51.9782 121.281 51.8389 120.911 51.847C121.094 51.8547 121.277 51.826 121.449 51.7628C121.621 51.6995 121.779 51.6029 121.914 51.4783C122.049 51.3538 122.158 51.2039 122.235 51.0371C122.312 50.8703 122.355 50.6901 122.362 50.5066C122.359 50.1248 122.209 49.7589 121.943 49.485C121.677 49.211 121.316 49.0499 120.935 49.0352H116.347C116.724 49.0408 117.084 49.1934 117.35 49.4605C117.617 49.7277 117.768 50.0883 117.773 50.4656C117.758 50.8357 117.596 51.1845 117.324 51.4357C117.052 51.6869 116.692 51.8201 116.322 51.806C116.505 51.8017 116.688 51.8336 116.859 51.8999C117.03 51.9661 117.186 52.0655 117.319 52.1923C117.451 52.3191 117.557 52.4708 117.631 52.6388C117.705 52.8067 117.745 52.9876 117.749 53.171C117.733 53.5411 117.572 53.8899 117.3 54.1411C117.028 54.3923 116.667 54.5254 116.298 54.5114C116.481 54.507 116.663 54.5389 116.834 54.6052C117.005 54.6715 117.161 54.7709 117.294 54.8977C117.426 55.0245 117.533 55.1762 117.607 55.3441C117.68 55.512 117.72 55.6929 117.724 55.8764C117.712 56.2218 117.571 56.5502 117.329 56.7971C117.088 57.0441 116.763 57.1918 116.418 57.2113V57.9866C116.413 58.5422 116.187 59.073 115.792 59.4626C115.396 59.8521 114.861 60.0684 114.306 60.0641L118.895 60.105C119.449 60.1094 119.983 59.8934 120.379 59.5045C120.775 59.1155 121 58.5854 121.006 58.0303V57.2522C121.351 57.2327 121.676 57.085 121.918 56.8381C122.159 56.5911 122.3 56.2628 122.313 55.9173C122.304 55.5475 122.149 55.1963 121.883 54.9404C121.616 54.6846 121.258 54.545 120.889 54.5523C121.072 54.5596 121.255 54.5308 121.427 54.4673C121.598 54.4039 121.756 54.3072 121.891 54.1827C122.025 54.0582 122.134 53.9084 122.211 53.7418C122.287 53.5752 122.33 53.3952 122.337 53.2119Z" fill="#172F57"/>
</g>
<path opacity="0.4" d="M109.728 26.1072C111.366 23.7935 111.624 21.1581 110.303 20.2208C108.981 19.2835 106.582 20.3993 104.943 22.713C103.304 25.0267 103.047 27.6622 104.368 28.5994C105.689 29.5367 108.089 28.4209 109.728 26.1072Z" fill="white"/>
<path d="M105.457 23.0679C105.882 22.4646 106.51 22.1725 106.854 22.4182C107.197 22.6638 107.126 23.3491 106.703 23.9524C106.281 24.5557 105.65 24.8451 105.307 24.6021C104.963 24.3591 105.029 23.6603 105.457 23.0679Z" fill="white"/>
<path d="M116.137 79.332C116.183 79.3129 116.225 79.2837 116.259 79.2467C116.292 79.2096 116.318 79.1655 116.333 79.1175C116.347 79.0695 116.351 79.0188 116.345 78.9691C116.338 78.9193 116.32 78.8718 116.292 78.8297C116.243 78.7781 116.177 78.7445 116.107 78.7342C116.195 78.7202 116.276 78.6741 116.333 78.6046C116.389 78.5351 116.419 78.4471 116.415 78.3574C116.407 78.2859 116.382 78.2175 116.341 78.1583C116.3 78.0992 116.245 78.0513 116.18 78.0189C116.218 77.9893 116.247 77.9509 116.266 77.9071C116.286 77.8633 116.293 77.8154 116.289 77.7678C116.287 77.7171 116.272 77.6678 116.247 77.6236C116.222 77.5795 116.187 77.5416 116.145 77.5131C116.103 77.4846 116.055 77.4662 116.005 77.4592C115.955 77.4522 115.904 77.4569 115.856 77.4729C115.73 77.5115 115.606 77.5571 115.485 77.6094C115.288 77.6777 115.095 77.7487 115.04 77.8524C115.004 77.9349 115.001 78.0282 115.031 78.113C115.062 78.1978 115.123 78.2677 115.204 78.3083C115.156 78.3263 115.113 78.3548 115.078 78.3915C115.042 78.4282 115.016 78.4724 115 78.5207C114.983 78.569 114.978 78.6204 114.984 78.671C114.99 78.7216 115.007 78.7702 115.035 78.8133C115.084 78.8655 115.149 78.9008 115.22 78.9143C115.021 79.0481 114.89 79.16 114.898 79.2829C114.904 79.3553 114.928 79.425 114.968 79.4859C115.007 79.5469 115.061 79.5972 115.125 79.6323C115.086 79.6612 115.055 79.6993 115.035 79.7432C115.015 79.7871 115.006 79.8354 115.01 79.8835C115.012 79.9346 115.026 79.9846 115.05 80.0296C115.074 80.0746 115.109 80.1135 115.15 80.1433C115.192 80.173 115.24 80.1929 115.29 80.2013C115.34 80.2098 115.392 80.2066 115.441 80.192C115.607 80.1496 115.769 80.0911 115.924 80.0172V80.0172C116.075 79.9802 116.211 79.8983 116.314 79.7825C116.348 79.699 116.349 79.6055 116.316 79.5215C116.283 79.4376 116.219 79.3697 116.137 79.332V79.332Z" fill="#F6C2D7"/>
<path d="M115.883 77.1944C115.894 77.1626 115.894 77.128 115.883 77.0962C115.88 77.0735 115.871 77.052 115.858 77.0333C115.845 77.0146 115.827 76.9992 115.807 76.9884C115.787 76.9775 115.765 76.9715 115.742 76.9708C115.719 76.9701 115.696 76.9747 115.676 76.9842L114.549 77.4046C114.058 77.5716 113.649 77.9216 113.409 78.382C113.314 78.6503 113.233 78.9237 113.169 79.201C113.324 79.2583 113.491 79.2809 113.656 79.2672C113.822 79.2535 113.982 79.2039 114.126 79.1218C114.319 79.039 114.48 78.8952 114.584 78.7123C114.688 78.5294 114.729 78.3175 114.702 78.109C114.696 78.0624 114.705 78.0153 114.727 77.9739C114.749 77.9325 114.783 77.8987 114.825 77.8769L115.226 77.6749C115.369 77.6628 115.506 77.6117 115.622 77.5269C115.738 77.4422 115.828 77.3272 115.883 77.1944V77.1944Z" fill="#F6C2D7"/>
<path d="M96.0018 128.741C95.6244 128.561 95.196 128.519 94.7906 128.621C94.6185 128.653 94.4407 128.629 94.2832 128.553L93.7922 128.304L93.0174 127.324L92.5537 127.627L89.8912 124.592C89.0507 125.118 88.38 125.877 87.9599 126.776L88.56 127.049L93.6749 129.424H95.819C95.9011 129.424 95.981 129.398 96.0466 129.349C96.1122 129.299 96.1597 129.23 96.1819 129.151C96.1991 129.072 96.1909 128.99 96.1586 128.917C96.1262 128.843 96.0713 128.782 96.0018 128.741Z" fill="#122951"/>
<path d="M101.785 151.231H102.573L99.5945 130.969L99.5017 130.355L99.4526 130.014L98.6806 130.128L98.8034 130.969L101.785 151.231Z" fill="white"/>
<path d="M102.573 151.23H104.066L101.084 130.969L100.961 130.139L99.5017 130.354L99.5945 130.969L102.573 151.23Z" fill="#DCB6D5"/>
<path d="M92.8729 151.231L93.0202 150.245L93.1566 149.32L94.305 141.534L94.4414 140.611L95.8627 130.969L95.9854 130.134L95.2025 130.014L95.0607 130.969L93.6394 140.611L93.503 141.534L92.3545 149.32L92.2209 150.245L92.0763 151.231H92.8729Z" fill="white"/>
<path d="M94.275 151.231L97.3685 130.969L97.4585 130.355L95.9854 130.134L95.8627 130.969L94.4414 140.611L94.305 141.534L93.1566 149.32L93.0202 150.245L92.8729 151.231H94.275Z" fill="#DCB6D5"/>
<path d="M75.9406 151.231L79.0504 130.969L79.1704 130.18L79.1786 130.128L78.4066 130.014L78.2648 130.969L75.1549 151.231H75.9406Z" fill="white"/>
<path d="M77.5855 151.23L77.7301 150.244L77.8665 149.319L79.0149 141.533L79.1486 140.61L80.5699 130.968L80.6626 130.354L79.2004 130.138L79.1977 130.182L79.1704 130.179L78.8976 130.136L78.7749 130.968L75.665 151.23H77.5855Z" fill="#DCB6D5"/>
<defs>
<linearGradient id="paint0_linear_201_3215" x1="110.235" y1="45.2747" x2="110.238" y2="176.529" gradientUnits="userSpaceOnUse">
<stop stop-color="#8DA6E2"/>
<stop offset="1" stop-color="white"/>
</linearGradient>
<linearGradient id="paint1_linear_201_3215" x1="106.202" y1="137.035" x2="129.315" y2="-5.60231" gradientUnits="userSpaceOnUse">
<stop offset="0.124993" stop-color="#0606A6"/>
<stop offset="0.9998" stop-color="#456DDE"/>
<stop offset="0.9999" stop-color="#5F5E61"/>
<stop offset="1" stop-color="#615F5F"/>
<stop offset="1" stop-color="#233ABE"/>
<stop offset="1" stop-color="#233ABE"/>
<stop offset="1" stop-color="#233ABE"/>
</linearGradient>
<linearGradient id="paint2_linear_201_3215" x1="102.6" y1="402.226" x2="103.743" y2="424.609" gradientUnits="userSpaceOnUse">
<stop stop-color="white"/>
<stop offset="1" stop-color="#EDEDED"/>
</linearGradient>
<linearGradient id="paint3_linear_201_3215" x1="61.5126" y1="86.2369" x2="61.5114" y2="86.2406" gradientUnits="userSpaceOnUse">
<stop stop-color="#F9D2AB"/>
<stop offset="0.15" stop-color="#F7C192"/>
<stop offset="0.39" stop-color="#F4AC71"/>
<stop offset="0.61" stop-color="#F39C59"/>
<stop offset="0.82" stop-color="#F1924B"/>
<stop offset="1" stop-color="#F18F46"/>
</linearGradient>
</defs>
</svg>
