<svg width="177" height="177" viewBox="0 0 177 177" fill="none" xmlns="http://www.w3.org/2000/svg">
<g style="mix-blend-mode:multiply" opacity="0.5">
<path d="M88.6562 171.923C137.258 171.923 176.657 171.133 176.657 170.158C176.657 169.183 137.258 168.393 88.6562 168.393C40.0545 168.393 0.654968 169.183 0.654968 170.158C0.654968 171.133 40.0545 171.923 88.6562 171.923Z" fill="#C9C9C9"/>
</g>
<path style="mix-blend-mode:multiply" opacity="0.25" d="M88.6547 0.508789C137.315 0.508789 176.765 39.8932 176.765 88.4734C176.765 137.054 137.307 176.435 88.6547 176.435C40.0023 176.435 0.547363 137.054 0.547363 88.4734C0.547363 39.8932 39.9969 0.508789 88.6547 0.508789Z" fill="url(#paint0_linear_201_3287)"/>
<path d="M156.679 129.69H23.6196V50.6262C23.6193 49.9731 23.748 49.3263 23.9982 48.7229C24.2485 48.1195 24.6154 47.5713 25.0781 47.1096C25.5408 46.6479 26.0901 46.2818 26.6946 46.0323C27.2992 45.7827 27.947 45.6546 28.6012 45.6553H151.7C153.021 45.6553 154.287 46.179 155.221 47.1112C156.155 48.0434 156.679 49.3078 156.679 50.6262V129.69Z" fill="#EDEFF1"/>
<path d="M150.265 52.0732H30.0337V123.313H150.265V52.0732Z" fill="#90BED9"/>
<path d="M113.202 87.9448L114.407 88.2671L114.584 87.18L113.852 86.69L112.292 86.3281C112.056 86.3867 111.591 86.639 111.615 87.18C111.638 87.721 112.683 87.9153 113.202 87.9448Z" fill="#F6C2D7"/>
<path d="M150.265 62.2266H30.0364V62.5245H150.265V62.2266Z" fill="white"/>
<path d="M150.265 72.4355H30.0364V72.7335H150.265V72.4355Z" fill="white"/>
<path d="M150.265 82.6484H30.0364V82.9463H150.265V82.6484Z" fill="white"/>
<path d="M150.265 92.8613H30.0364V93.1592H150.265V92.8613Z" fill="white"/>
<path d="M150.265 103.072H30.0364V103.37H150.265V103.072Z" fill="white"/>
<path d="M150.265 113.283H30.0364V113.581H150.265V113.283Z" fill="white"/>
<path d="M104.479 138.432H75.8176V167.388H104.479V138.432Z" fill="#EDEFF1"/>
<g style="mix-blend-mode:multiply">
<path d="M104.481 143.252V147.77L83.8695 159.945V167.388H75.8201V143.252H104.481Z" fill="#DBE0E4"/>
</g>
<path d="M156.679 140.509C156.679 141.827 156.155 143.091 155.221 144.024C154.287 144.956 153.021 145.48 151.7 145.48H28.6012C27.947 145.48 27.2992 145.352 26.6946 145.103C26.0901 144.853 25.5408 144.487 25.0781 144.025C24.6154 143.564 24.2485 143.015 23.9982 142.412C23.748 141.809 23.6193 141.162 23.6196 140.509V129.69H156.679V140.509Z" fill="white"/>
<path d="M90.1507 140.125C91.6012 140.125 92.7771 138.951 92.7771 137.503C92.7771 136.055 91.6012 134.881 90.1507 134.881C88.7002 134.881 87.5243 136.055 87.5243 137.503C87.5243 138.951 88.7002 140.125 90.1507 140.125Z" fill="#282A85"/>
<path d="M111.118 168.745C111.118 169.104 110.975 169.449 110.721 169.703C110.466 169.957 110.121 170.101 109.761 170.101H70.5499C70.1896 170.101 69.8439 169.958 69.5891 169.704C69.3343 169.45 69.1911 169.105 69.1911 168.745C69.1918 168.385 69.3352 168.041 69.59 167.787C69.8447 167.533 70.19 167.391 70.5499 167.391H109.761C110.121 167.391 110.466 167.533 110.72 167.787C110.975 168.041 111.118 168.386 111.118 168.745V168.745Z" fill="#EDEFF1"/>
<path d="M150.265 60.8418V62.9961L144.756 68.7622C144.66 68.8607 144.539 68.9306 144.405 68.9641L140.492 69.9933L137.012 80.4496C136.979 80.5469 136.927 80.6364 136.858 80.7122C136.788 80.7881 136.704 80.8488 136.61 80.8903L130.048 83.83C129.915 83.8899 129.767 83.9093 129.623 83.8856C129.479 83.8619 129.345 83.7964 129.239 83.6971L123.813 78.7286C123.721 78.6469 123.652 78.5425 123.614 78.4258L122.807 76.1607L120.955 82.9117C120.917 83.0529 120.837 83.1795 120.726 83.2755C120.616 83.3715 120.479 83.4326 120.334 83.4509C120.188 83.4703 120.04 83.4461 119.908 83.3812C119.776 83.3163 119.667 83.2137 119.594 83.0865L117.406 79.2654L112.306 85.3368L105.865 106.757C105.819 106.91 105.725 107.045 105.597 107.14C105.468 107.235 105.312 107.287 105.152 107.286V107.286C104.992 107.286 104.836 107.234 104.708 107.137C104.58 107.041 104.486 106.906 104.442 106.752L100.565 93.4566L96.5158 88.7787L89.4898 86.8091C89.3615 86.7729 89.2455 86.7027 89.1539 86.6061C89.0623 86.5094 88.9986 86.3899 88.9694 86.26L84.4465 66.7655L77.968 91.9277C77.9369 92.038 77.881 92.1397 77.8045 92.225C77.728 92.3103 77.6329 92.3771 77.5266 92.4201C77.4198 92.4642 77.3042 92.4827 77.189 92.4741C77.0738 92.4656 76.9622 92.4302 76.8632 92.3709L74.3231 90.8518L72.8434 96.5638C72.8062 96.7141 72.7226 96.8489 72.6044 96.9492C72.4863 97.0494 72.3395 97.1101 72.185 97.1226C72.031 97.1355 71.8768 97.0999 71.7441 97.0209C71.6115 96.9418 71.5069 96.8233 71.4451 96.6819L69.9136 93.2621L64.3772 91.7751C64.2827 91.7498 64.1942 91.7062 64.1167 91.6466C64.0393 91.587 63.9744 91.5127 63.9259 91.4279L60.6607 85.812L58.6139 88.7787C58.527 88.9011 58.4061 88.9952 58.2661 89.0496L53.8641 90.7238L51.25 99.8555C51.1928 100.047 51.0626 100.209 50.8875 100.306C50.8002 100.353 50.7044 100.382 50.6057 100.391C50.507 100.401 50.4074 100.39 50.3129 100.36L44.4336 98.5531C44.326 98.5221 44.227 98.4666 44.1444 98.391C44.0618 98.3154 43.9979 98.2217 43.9577 98.1173L42.658 94.8403L41.1783 93.0799L38.2979 98.6368C38.2098 98.8076 38.0586 98.9374 37.8762 98.9987L30.029 101.692V100.121L37.1191 97.684L40.3744 91.3934C40.4323 91.2855 40.5154 91.1931 40.6168 91.1241C40.7181 91.0551 40.8346 91.0115 40.9564 90.9971C41.0787 90.9832 41.2025 91.0001 41.3166 91.0461C41.4307 91.0921 41.5315 91.1658 41.6099 91.2605L43.8714 93.9687C43.9196 94.0296 43.9594 94.0967 43.9897 94.1682L45.2228 97.226L50.0416 98.7033L52.5497 89.9482C52.5809 89.8365 52.638 89.7338 52.7164 89.6482C52.7948 89.5627 52.8923 89.4968 53.001 89.4558L57.5362 87.7324L60.1207 83.9974C60.1911 83.8941 60.2866 83.8103 60.3984 83.7539C60.5101 83.6975 60.6343 83.6703 60.7594 83.6749C60.8849 83.6797 61.0072 83.7164 61.1146 83.7814C61.2221 83.8464 61.3111 83.9377 61.3735 84.0467L65.0726 90.4209L70.6609 91.9203C70.7689 91.9488 70.8692 92.0009 70.9545 92.0728C71.0398 92.1448 71.108 92.2348 71.1541 92.3364L71.9556 94.1337L73.1467 89.5149C73.177 89.4042 73.2326 89.3021 73.3092 89.2166C73.3858 89.1312 73.4814 89.0647 73.5882 89.0225C73.6949 88.9784 73.8105 88.9599 73.9257 88.9685C74.0409 88.977 74.1525 89.0124 74.2516 89.0717L76.7892 90.5908L83.7659 63.4614C83.8108 63.3002 83.9075 63.1581 84.0412 63.0571C84.1749 62.9561 84.3381 62.9018 84.5057 62.9025C84.6724 62.9047 84.8335 62.963 84.9629 63.068C85.0923 63.173 85.1823 63.3186 85.2184 63.4811L90.3258 85.5067L97.1421 87.4221C97.2823 87.4613 97.4081 87.5399 97.5047 87.6487L101.803 92.6195C101.873 92.6998 101.925 92.7937 101.956 92.8953L105.162 103.923L110.928 84.7582C110.955 84.6624 111.002 84.5734 111.066 84.4972L116.953 77.4951C117.029 77.403 117.127 77.3309 117.238 77.285C117.349 77.2391 117.469 77.2208 117.589 77.2317C117.708 77.2421 117.824 77.2814 117.925 77.3461C118.026 77.4109 118.109 77.4992 118.168 77.6035L119.998 80.8041L122.011 73.4894C122.052 73.336 122.142 73.2 122.266 73.1015C122.391 73.0031 122.545 72.9474 122.704 72.9428C122.862 72.9342 123.018 72.9777 123.149 73.0667C123.28 73.1556 123.379 73.2851 123.429 73.4352L124.955 77.7807L129.887 82.2937L135.707 79.6864L139.229 69.1537C139.266 69.0349 139.333 68.9275 139.423 68.8414C139.514 68.7553 139.624 68.6933 139.744 68.6613L143.838 67.5854L150.265 60.8418Z" fill="#FFDD79"/>
<path d="M123.3 93.284L125.49 94.4165L125.609 94.4805C125.982 94.6859 126.407 94.7789 126.832 94.7483C127.256 94.7177 127.663 94.5648 128.003 94.3082C128.351 94.0429 128.614 93.6829 128.76 93.2717L130.487 88.6257L133.042 81.7566L128.201 76.9531L127.493 80.6659L126.886 83.8666L125.653 90.46L124.501 90.0833C124.694 90.8145 124.733 92.08 123.3 93.284Z" fill="#3939AA"/>
<path d="M114.639 86.7285L124.492 90.0892C124.694 90.8278 124.738 92.081 123.288 93.2899L114.267 88.5504L114.639 86.7285Z" fill="#3939AA"/>
<path d="M127.949 83.3105C127.949 83.3105 128.27 84.0836 128.657 85.034C128.862 85.5264 128.837 86.7131 128.837 86.7131L128.706 97.039C128.706 97.039 127.037 104.716 134.304 102.603L130.452 85.7652L130.016 83.8473L129.029 83.6011L127.949 83.3105Z" fill="#3939AA"/>
<path d="M141.769 123.289H124.427C124.731 114.285 127.705 107.207 131.419 96.6371L133.037 95.9649L136.188 96.5657L137.175 96.349L137.981 96.1766L139.214 95.9058L140.482 95.6301L140.862 95.5488C140.931 95.6688 140.993 95.793 141.047 95.9206C141.247 96.3797 141.399 96.8583 141.5 97.3486C141.592 97.8009 141.64 98.2609 141.643 98.7224C141.645 99.1621 141.602 99.6008 141.518 100.032C141.491 100.185 141.449 100.342 141.404 100.502C141.204 101.207 140.885 101.873 140.462 102.472C140.386 102.587 140.304 102.697 140.216 102.802V119.852C140.867 120.932 141.389 122.086 141.769 123.289Z" fill="#3939AA"/>
<g style="mix-blend-mode:multiply" opacity="0.3">
<path d="M141.769 123.289H137.466C137.302 122.221 137.063 121.165 136.751 120.131V102.65C137.959 100.798 137.737 99.2966 137.355 98.3807C137.273 98.1753 137.173 97.9776 137.056 97.7898C137.005 97.7048 136.949 97.6227 136.889 97.5436C136.849 97.4863 136.805 97.432 136.758 97.3811V97.3811L139.224 95.9039L140.492 95.6281L140.872 95.5469C140.941 95.6669 141.003 95.791 141.056 95.9186C141.257 96.3778 141.409 96.8563 141.51 97.3466C141.602 97.7989 141.65 98.259 141.653 98.7205C141.654 99.1601 141.612 99.5989 141.528 100.03C141.5 100.183 141.458 100.34 141.414 100.501C141.214 101.205 140.895 101.871 140.472 102.47C140.396 102.585 140.314 102.695 140.225 102.8V119.85C140.874 120.932 141.392 122.086 141.769 123.289V123.289Z" fill="#052544"/>
</g>
<path d="M131.626 72.9141C131.626 72.9141 127.52 73.5936 127.786 81.3367L128.773 80.1057L131.626 72.9141Z" fill="#3939AA"/>
<path d="M135.601 66.6992C135.601 66.6992 134.615 68.8831 139.453 73.4551C141.473 75.3583 143.419 75.6365 145.17 76.0476C146.629 76.3885 147.895 77.2907 148.691 78.5581C149.488 79.8255 149.751 81.3557 149.424 82.8158C149.097 84.2763 148.207 85.5492 146.946 86.3582C145.685 87.1672 144.155 87.4469 142.689 87.1367V87.1367L133.116 67.8465L135.601 66.6992Z" fill="#004991"/>
<path d="M135.823 66.3105C135.823 66.3105 135.291 67.4874 137.902 69.9519C138.99 70.9811 140.04 71.1288 140.985 71.3504C141.772 71.5352 142.454 72.0221 142.883 72.7057C143.312 73.3892 143.454 74.2142 143.278 75.0016C143.101 75.7887 142.621 76.4744 141.941 76.9104C141.261 77.3463 140.436 77.4973 139.646 77.3307L134.484 66.9285L135.823 66.3105Z" fill="#004991"/>
<g style="mix-blend-mode:multiply" opacity="0.3">
<path d="M140.832 95.5159C140.84 95.5298 140.849 95.543 140.859 95.5552L141.172 95.4863L140.832 95.5159Z" fill="#3939AB"/>
</g>
<path d="M126.788 81.9104C126.931 82.5751 127.641 83.4073 128.455 84.0499L128.492 84.0795C128.593 84.1533 128.871 84.3109 129.111 84.4438C129.077 86.1939 129.365 87.9354 129.959 89.5822C131.333 93.2752 131.155 92.4849 131.426 96.6458C132.975 96.8625 134.326 97.2047 135.604 97.0496C138.07 96.759 140.043 96.6212 141.419 95.693L141.389 95.6708C141.314 95.6176 141.245 95.5557 141.185 95.4862C140.524 94.5457 140.198 93.5756 140.176 93.1201C140.144 92.0861 140.013 91.2416 140.139 90.2198C140.322 88.7426 140.588 86.4283 141.172 84.9707C143.328 73.5123 135.32 71.0626 135.296 71.0552C135.108 70.9986 134.129 71.4983 133.039 71.9834C131.653 72.6063 130.437 73.5099 129.855 75.0536C129.453 76.1319 129.064 76.777 128.312 78.008C127.781 78.8451 126.484 80.4996 126.788 81.9104Z" fill="white"/>
<path d="M135.286 71.0527C135.286 71.0527 131.111 75.1767 130.329 80.7828C130.329 80.7828 129.246 77.9957 131.626 72.9042L135.286 71.0527Z" fill="#282A85"/>
<path d="M132.272 76.8656C129.609 84.1386 132.452 91.3302 136.753 97.3943C136.921 97.6405 137.101 97.8621 137.283 98.0812C137.788 98.5983 138.385 99.0159 139.044 99.3122C139.948 99.7278 140.915 99.9931 141.905 100.098L141.843 100.125L145.72 100.341L145.831 98.3717C145.843 97.8297 145.706 97.2948 145.434 96.8255C145.029 96.1263 144.359 95.5945 143.631 95.1267C142.788 94.5703 141.875 94.0656 141.222 93.391C141.149 93.3261 141.083 93.2544 141.024 93.1768C140.959 93.1049 140.899 93.0274 140.847 92.9453C140.79 92.8669 140.738 92.7846 140.691 92.6991C140.642 92.6201 140.599 92.5379 140.561 92.4529C140.391 92.0651 140.307 91.6452 140.314 91.2219C140.351 89.2719 140.679 87.7996 141.103 85.9334C141.197 85.5198 141.281 85.1086 141.35 84.7024C142.627 77.523 140.346 72.4192 135.303 71.0527C135.722 71.1881 136.238 72.4339 136.309 72.7762C136.657 74.4184 134.457 75.024 133.333 75.6248C132.837 75.8924 132.459 76.3348 132.272 76.8656V76.8656Z" fill="#3939AA"/>
<path d="M135.547 79.4659L138.134 86.7118C138.417 87.4003 138.526 88.1479 138.45 88.8882C138.358 89.6356 138.42 90.3939 138.632 91.1166C138.844 91.8392 139.202 92.5111 139.683 93.0909C139.698 93.1082 139.712 93.1205 139.722 93.1303C140.082 93.8296 141.616 97.1656 139.042 99.3224C139.946 99.738 140.912 100.003 141.902 100.108L141.841 100.135L145.717 100.352L145.828 98.3819C145.841 97.8399 145.703 97.305 145.431 96.8357C145.027 96.1365 144.356 95.6047 143.629 95.1369C142.785 94.5805 141.873 94.0758 141.219 93.4011C141.148 93.3322 141.086 93.2584 141.022 93.187C140.958 93.1156 140.899 93.0343 140.844 92.9555C140.79 92.8767 140.736 92.7955 140.689 92.7093C140.642 92.6231 140.598 92.5419 140.558 92.4631C140.388 92.0753 140.304 91.6554 140.312 91.2321C140.349 89.2821 140.677 87.8098 141.101 85.9436C141.195 85.53 141.278 85.1188 141.347 84.7126L135.518 75.0859C135.518 75.0859 134.398 75.7728 135.547 79.4659Z" fill="#282A85"/>
<path d="M135.631 77.9403C135.367 77.5139 135.212 77.0296 135.179 76.5297C135.146 76.0297 135.236 75.5292 135.441 75.072C135.86 74.1413 136.331 73.7794 137.338 73.5947C138.034 73.4741 138.75 73.6036 139.36 73.96C139.97 74.3165 140.434 74.877 140.669 75.5422L144.043 87.7688C144.1 87.9682 144.171 88.2957 144.206 88.5074L144.699 91.3929C144.018 91.0532 142.753 90.7946 141.165 92.1562L140.511 90.0216L135.631 77.9403Z" fill="#3939AA"/>
<path d="M149.749 95.3005L135.135 98.957L137.645 108.956L152.259 105.3L149.749 95.3005Z" fill="white"/>
<path d="M148.327 97.0964L147.612 97.2754L148.713 101.662L149.428 101.484L148.327 97.0964Z" fill="#C1C4D3"/>
<path d="M146.256 97.6121L145.541 97.791L147.385 105.137L148.1 104.958L146.256 97.6121Z" fill="#C1C4D3"/>
<path d="M144.185 98.1296L143.47 98.3086L145.135 104.941L145.85 104.762L144.185 98.1296Z" fill="#C1C4D3"/>
<path d="M142.118 98.6472L141.402 98.8262L142.888 104.744L143.603 104.565L142.118 98.6472Z" fill="#C1C4D3"/>
<path d="M140.049 99.1648L139.334 99.3438L141.178 106.69L141.893 106.511L140.049 99.1648Z" fill="#C1C4D3"/>
<g style="mix-blend-mode:multiply" opacity="0.3">
<path d="M140.832 95.5159C140.84 95.5298 140.849 95.543 140.859 95.5552L141.172 95.4863L140.832 95.5159Z" fill="#3939AB"/>
</g>
<path d="M144.896 103.684C144.896 103.684 143.545 103.637 142.475 105.56C142.211 106.048 141.833 106.466 141.372 106.776C141.372 106.776 141.054 107.022 141.175 107.268C141.186 107.291 141.201 107.31 141.22 107.326C141.24 107.342 141.262 107.353 141.286 107.36C141.473 107.395 141.667 107.386 141.85 107.334C142.034 107.282 142.203 107.188 142.344 107.059C142.645 106.821 142.93 106.563 143.197 106.289C143.197 106.289 145.283 105.675 144.896 103.684Z" fill="#F6C2D7"/>
<path d="M143.54 100.575L141.32 92.6541L141.167 92.1617C142.334 90.906 143.88 90.8961 144.699 91.3984L145.086 94.5154L145.74 100.178L146.075 103.101L146.413 104.371L146.8 105.819C147.032 106.626 146.726 107.803 145.796 107.382C145.775 107.45 145.739 107.512 145.691 107.564C145.643 107.617 145.584 107.658 145.518 107.686C145.452 107.714 145.382 107.727 145.31 107.724C145.239 107.722 145.17 107.704 145.106 107.673C144.659 108.411 144.119 107.904 144.119 107.904C144.087 107.953 144.05 107.999 144.008 108.042C143.954 108.094 143.886 108.129 143.813 108.146C143.739 108.162 143.663 108.157 143.592 108.133C143.521 108.108 143.458 108.064 143.41 108.006C143.362 107.948 143.331 107.878 143.32 107.803L143.047 105.809L142.837 105.085C142.847 105.071 142.857 105.058 142.869 105.046L144.082 103.755C144.165 103.669 144.223 103.562 144.252 103.446C144.28 103.33 144.278 103.208 144.245 103.093L143.54 100.575Z" fill="#F6C2D7"/>
<path d="M131.628 72.9142L129.991 69.3467L131.241 66.7812L134.59 69.3172L135.301 71.0554L132.489 72.9364L131.628 72.9142Z" fill="#F6C2D7"/>
<path d="M135.032 66.7051C135.103 67.5997 134.951 68.4979 134.59 69.3198L131.769 67.3501L132.815 66.7666L135.032 66.7051Z" fill="#004990"/>
<path d="M125.572 67.9312C125.503 68.1331 125.503 68.3522 125.572 68.5541C125.604 68.6639 125.659 68.7661 125.732 68.8544C125.805 68.9428 125.896 69.0154 125.998 69.0681C126.1 69.1207 126.211 69.1523 126.326 69.1608C126.44 69.1694 126.555 69.1548 126.664 69.1179C126.844 69.0519 126.996 68.9257 127.093 68.7609L131.157 67.4683L132.44 67.2344C132.44 67.2344 133.809 67.685 136.511 66.6164C136.538 66.1418 136.515 65.6656 136.442 65.1958C136.297 64.2627 135.897 63.1523 134.842 62.7756C134.925 62.4388 134.911 62.0852 134.8 61.7563C134.738 61.5482 134.634 61.3547 134.495 61.1875C134.356 61.0202 134.185 60.8827 133.991 60.7829C133.798 60.6832 133.587 60.6234 133.37 60.607C133.153 60.5907 132.935 60.6181 132.728 60.6878C132.653 60.7159 132.579 60.7497 132.509 60.7887L132.41 60.806C132.41 60.806 129.352 59.3066 126.738 62.3571C126.52 62.6087 126.319 62.8744 126.136 63.1523C125.36 64.3095 124.457 66.7395 125.039 67.5446C125.094 67.6439 125.171 67.7299 125.263 67.7966C125.355 67.8634 125.46 67.9093 125.572 67.9312V67.9312Z" fill="#004991"/>
<path d="M131.554 67.5643C131.597 67.5826 131.643 67.592 131.69 67.592C131.737 67.592 131.783 67.5826 131.826 67.5643C131.868 67.5458 131.907 67.5188 131.939 67.485C131.97 67.4511 131.995 67.4111 132.011 67.3674C132.228 66.7715 132.398 65.8581 131.7 65.3534C131.595 65.2759 131.473 65.2256 131.343 65.2072C131.214 65.1887 131.083 65.2026 130.96 65.2475C130.836 65.2971 130.725 65.3753 130.636 65.4759C130.548 65.5765 130.485 65.6965 130.452 65.8261C130.398 66.0527 130.398 66.2889 130.452 66.5155L130.566 66.8085C130.664 67.0568 130.856 67.2566 131.101 67.3649L131.554 67.5643Z" fill="#3939AB"/>
<path d="M126.309 67.1398C126.415 67.8661 126.701 68.4249 126.95 68.388C127.199 68.3511 127.313 67.7356 127.197 67.0093C127.081 66.2829 126.805 65.7265 126.556 65.7635C126.307 65.8004 126.203 66.4159 126.309 67.1398Z" fill="#261D42"/>
<path d="M127.675 63.9121C127.61 63.9014 127.542 63.913 127.484 63.9452C127.426 63.9773 127.38 64.0281 127.355 64.0893L126.881 65.1628C126.696 65.6662 126.711 66.2212 126.923 66.7139L126.938 66.7483C126.97 66.8225 126.987 66.9026 126.987 66.9835C126.987 67.0644 126.97 67.1444 126.938 67.2186L126.215 68.7845C126.199 68.8234 126.19 68.8652 126.19 68.9076C126.19 68.9499 126.199 68.9918 126.215 69.0307C126.23 69.0702 126.254 69.1058 126.285 69.1348C126.316 69.1638 126.353 69.1855 126.393 69.1981L126.968 69.3729L127.138 69.5994C127.093 69.6165 127.055 69.6476 127.029 69.688C126.99 69.7535 126.976 69.8305 126.988 69.9057C127 69.9808 127.038 70.0493 127.096 70.0992C127.126 70.125 127.163 70.1429 127.202 70.1515C127.241 70.1601 127.282 70.159 127.32 70.1484C127.3 70.2093 127.299 70.2748 127.316 70.3365C127.333 70.3983 127.368 70.4536 127.416 70.4956C127.443 70.5177 127.474 70.5339 127.507 70.5433C127.54 70.5527 127.575 70.5551 127.609 70.5502C127.643 70.5453 127.676 70.5333 127.705 70.515C127.735 70.4967 127.76 70.4725 127.779 70.4439L128.045 70.7959C128.045 70.7959 128.087 70.9781 128.164 71.244C128.224 71.4682 128.365 71.6621 128.561 71.7882C128.561 71.7882 129.227 72.347 130.356 71.1702L131.441 70.1731C131.677 69.9063 131.838 69.5823 131.909 69.2336C131.98 68.8849 131.958 68.5237 131.846 68.1862C131.795 68.0237 131.807 67.8485 131.878 67.6938C132.124 67.1767 132.553 65.958 131.705 65.345C131.6 65.2675 131.478 65.2172 131.348 65.1987C131.219 65.1802 131.088 65.1941 130.965 65.2391C130.839 65.2887 130.727 65.3678 130.637 65.4698C130.548 65.5718 130.485 65.6936 130.452 65.8251C130.398 66.0516 130.398 66.2879 130.452 66.5145L130.045 66.6646C130.045 66.6646 129.522 64.2371 127.675 63.9121Z" fill="#F6C2D7"/>
<path d="M126.654 67.2353C126.591 67.2354 126.531 67.2115 126.485 67.1685C126.439 67.1254 126.411 67.0665 126.408 67.0038C126.408 66.941 126.432 66.8805 126.475 66.8348C126.518 66.789 126.577 66.7614 126.64 66.7576L127.596 66.7182L130.257 66.28C130.321 66.2707 130.385 66.2862 130.437 66.3234C130.489 66.3606 130.525 66.4166 130.536 66.4794C130.545 66.5426 130.53 66.6069 130.493 66.6588C130.455 66.7108 130.399 66.7462 130.336 66.7576L127.624 67.2008L126.652 67.2402L126.654 67.2353Z" fill="#261D42"/>
<path d="M127.35 66.9977C127.456 67.7215 127.742 68.2804 127.991 68.2435C128.24 68.2065 128.353 67.591 128.238 66.8647C128.122 66.1384 127.843 65.582 127.596 65.6189C127.35 65.6559 127.246 66.2714 127.35 66.9977Z" fill="#261D42"/>
<path d="M102.138 70.0107L101.705 70.252L110.004 85.0885L110.437 84.8472L102.138 70.0107Z" fill="#052544"/>
<path d="M113.073 90.5847C112.986 90.5859 112.899 90.5638 112.823 90.5205C112.747 90.4772 112.683 90.4144 112.639 90.3385L109.776 85.2199C109.744 85.1631 109.723 85.1005 109.716 85.0357C109.708 84.9709 109.713 84.9052 109.731 84.8424C109.749 84.7796 109.779 84.7211 109.82 84.67C109.861 84.619 109.911 84.5766 109.969 84.5453C110.025 84.5135 110.088 84.4933 110.152 84.4858C110.217 84.4782 110.283 84.4835 110.345 84.5014C110.408 84.5192 110.466 84.5493 110.517 84.5898C110.568 84.6303 110.61 84.6804 110.642 84.7373L113.505 89.856C113.537 89.9126 113.558 89.9751 113.566 90.0398C113.574 90.1045 113.569 90.1701 113.551 90.2329C113.534 90.2956 113.504 90.3543 113.463 90.4054C113.422 90.4565 113.372 90.499 113.315 90.5306C113.24 90.5683 113.157 90.587 113.073 90.5847Z" fill="#052544"/>
<path d="M111.567 85.2402L109.411 85.9074C109.389 85.9144 109.368 85.9262 109.351 85.9419C109.333 85.9577 109.319 85.977 109.31 85.9985C109.3 86.0198 109.295 86.0429 109.295 86.0663C109.295 86.0896 109.3 86.1127 109.31 86.134C109.363 86.2473 109.455 86.3379 109.569 86.3894C109.683 86.4409 109.811 86.4499 109.931 86.4146L111.226 86.2029C111.226 86.2029 111.68 87.4044 112.92 87.269C112.92 87.269 113.32 87.2345 113.833 86.6805L111.567 85.2402Z" fill="#F6C2D7"/>
<path d="M101.825 70.5073C102.099 70.5073 102.321 70.2858 102.321 70.0125C102.321 69.7391 102.099 69.5176 101.825 69.5176C101.552 69.5176 101.33 69.7391 101.33 70.0125C101.33 70.2858 101.552 70.5073 101.825 70.5073Z" fill="#052544"/>
<path d="M75.2232 146.889C75.1147 146.547 74.9125 146.483 74.8163 146.471L74.6412 146.446C74.2028 146.387 73.757 146.409 73.3268 146.513C73.2258 146.537 73.134 146.59 73.0629 146.665C72.3478 147.423 72.9495 148.581 72.9495 148.581C72.9495 148.581 72.9643 148.618 72.9692 148.637C72.8755 148.714 72.7695 148.792 72.6486 148.883C72.509 148.766 72.3446 148.682 72.1677 148.637C72.1036 148.62 72.037 148.6 71.9754 148.578L71.9038 148.559C71.9276 147.782 72.0101 147.008 72.1505 146.244H72.3206C72.5789 146.323 72.858 146.298 73.0974 146.173C73.1562 146.14 73.2207 146.119 73.2873 146.111C74.0987 145.993 74.0272 144.949 74.0272 144.949C74.0449 144.636 73.9396 144.327 73.7337 144.09C73.6299 143.913 73.4691 143.777 73.2775 143.703C73.2237 143.679 73.1751 143.645 73.1344 143.602C73.0601 143.525 72.9724 143.462 72.8755 143.415C72.2886 143.236 71.7263 143.649 71.5043 143.844C71.4476 143.893 71.386 143.94 71.3268 143.984C70.9618 144.245 71.0308 144.792 71.058 144.942C71.058 144.966 71.058 144.993 71.0703 145.018C71.1319 145.488 71.6597 145.781 71.7288 145.818C71.8126 145.862 71.8846 145.925 71.9384 146.003C71.955 146.026 71.9698 146.051 71.9828 146.077C71.8232 146.88 71.7291 147.695 71.7016 148.514C71.5478 148.474 71.3896 148.453 71.2306 148.453C71.2109 148.28 71.1837 148.101 71.1443 147.911C71.8669 146.7 70.7546 145.914 70.7423 145.904L70.4957 145.712C70.2293 144.989 69.9655 144.363 69.8274 144.048C69.7751 143.931 69.7587 143.8 69.7805 143.674C69.8044 143.511 69.8044 143.345 69.7805 143.181C69.8665 143.027 69.9174 142.855 69.9298 142.678C69.9421 142.502 69.9156 142.325 69.852 142.16C69.7707 141.994 69.7278 141.812 69.7263 141.628C69.9984 141.673 70.278 141.632 70.5253 141.51C70.6135 141.494 70.6975 141.46 70.7715 141.41C70.8455 141.359 70.9079 141.293 70.9546 141.217C71.0012 141.141 71.0311 141.055 71.0421 140.966C71.0531 140.878 71.0451 140.788 71.0185 140.702L70.91 139.863C70.688 138.856 70.3255 138.939 70.3255 138.939C69.9137 138.939 69.4501 139.301 69.1516 139.587C69.1134 139.31 68.9902 139.052 68.799 138.848C68.5894 138.617 68.4661 138.449 68.4661 138.449C68.1948 137.883 67.8767 138.595 67.8767 138.595C67.7509 138.907 67.0974 139.557 67.0974 139.557C66.988 139.72 66.9383 139.915 66.9567 140.11C66.9752 140.304 67.0606 140.487 67.1985 140.626C67.5561 141.002 68.1652 140.648 68.1652 140.648C68.3863 141.601 68.8638 142.476 69.5462 143.179C69.5674 143.324 69.5674 143.472 69.5462 143.617C69.5158 143.784 69.5365 143.955 69.6054 144.11C69.7238 144.378 69.9359 144.878 70.1603 145.469L69.4377 144.917C69.5124 144.521 69.4396 144.111 69.233 143.765C69.1546 143.663 69.0634 143.571 68.9618 143.492C68.7768 143.253 68.5169 143.084 68.2238 143.011C67.9308 142.938 67.6217 142.966 67.3464 143.09C67.1945 143.148 67.0641 143.252 66.9732 143.387C66.8823 143.522 66.8352 143.681 66.8384 143.844C66.8384 143.844 66.6485 144.366 66.8804 144.555C66.8804 144.555 66.9716 144.629 66.9642 144.863C66.9638 144.928 66.9746 144.993 66.9963 145.055C67.0439 145.174 67.1149 145.283 67.205 145.375C67.2952 145.467 67.4028 145.54 67.5215 145.589C67.6023 145.629 67.6783 145.678 67.7484 145.735C67.834 145.815 67.9398 145.872 68.0547 145.899C68.1696 145.925 68.2895 145.92 68.402 145.885C68.4722 145.857 68.5438 145.833 68.6165 145.813C68.7914 145.771 68.9533 145.686 69.0879 145.567C69.2225 145.448 69.3257 145.297 69.3884 145.129L70.291 145.818C70.5407 146.485 70.745 147.168 70.9026 147.862V147.862C70.9445 148.064 70.9766 148.258 70.9988 148.44C70.7914 148.464 70.5961 148.551 70.4389 148.688C70.2817 148.825 70.1699 149.007 70.1184 149.208C70.0566 149.48 70.0566 149.762 70.1184 150.033C70.1717 150.27 70.3007 150.484 70.4858 150.641L70.5598 150.708C70.6036 150.747 70.6425 150.792 70.6757 150.841L69.672 152.037C69.4974 152.245 69.3725 152.49 69.307 152.754C69.2658 152.925 69.25 153.102 69.2602 153.278L69.4895 154.423H69.5388C69.5288 154.499 69.5239 154.576 69.524 154.652V155.637C69.0431 156.196 68.7842 156.969 69.0604 158.045C69.1099 158.24 69.1022 158.445 69.0382 158.636C68.8749 159.138 68.7569 159.654 68.6856 160.177C68.7793 159.401 68.3452 157.498 68.2121 156.939C68.582 156.415 68.2121 155.241 68.2121 155.241C68.2 155.53 68.1477 155.817 68.0567 156.092C68 156.26 67.8101 156.476 67.8101 156.651C67.8562 156.803 67.9412 156.939 68.0567 157.048C68.2399 157.848 68.3562 158.663 68.4044 159.483C68.2902 158.932 68.0136 158.428 67.6103 158.035L67.492 157.949C67.492 157.892 67.4698 157.836 67.4599 157.779C67.45 157.722 67.5117 157.619 67.5561 157.511C68.0049 156.38 68.0666 154.253 68.069 154.165C68.0387 153.848 67.9256 153.545 67.741 153.286C67.7277 152.776 67.835 152.269 68.0542 151.808H68.0715L68.7521 151.863C69.5142 151.863 69.6523 151.033 69.6523 151.025C69.8249 150.378 69.3169 149.76 69.2478 149.681C69.2018 149.601 69.1342 149.536 69.0526 149.492C68.9711 149.449 68.8789 149.429 68.7867 149.435C68.2047 149.435 67.3489 150.08 67.307 150.107C67.2897 150.124 67.2799 150.144 67.2651 150.161C67.1791 149.872 67.1083 149.579 67.053 149.282C67.1613 149.212 67.2845 149.167 67.413 149.152C67.4513 149.145 67.49 149.14 67.5289 149.137C67.6441 149.138 67.7578 149.112 67.8616 149.062C67.9653 149.013 68.0563 148.94 68.1276 148.85C68.199 148.759 68.2488 148.654 68.2732 148.542C68.2977 148.43 68.2962 148.313 68.2688 148.202C68.2382 147.976 68.1554 147.761 68.027 147.574C67.8986 147.386 67.728 147.231 67.5289 147.121C67.4605 147.173 67.386 147.217 67.307 147.251C67.2119 147.041 67.0497 146.868 66.8458 146.759L66.7965 146.724C66.713 146.667 66.6347 146.603 66.5622 146.532C66.5006 146.471 66.3773 146.409 66.212 146.621C66.212 146.621 65.4031 147.396 66.0961 148.051C66.0659 148.147 66.0587 148.248 66.0749 148.347C66.0912 148.446 66.1306 148.539 66.1898 148.62C66.3239 148.914 66.5645 149.146 66.8631 149.27C66.93 149.643 67.0231 150.011 67.1418 150.371L66.7225 150.043C66.7133 149.932 66.6944 149.821 66.6658 149.713C66.5959 149.537 66.4633 149.393 66.2934 149.309C66.3205 149.1 66.2934 148.699 65.7805 148.293C65.6759 148.239 65.5601 148.211 65.4426 148.211C65.3251 148.211 65.2093 148.239 65.1047 148.293C65.048 148.315 64.9864 148.334 64.9272 148.352C64.8236 148.379 64.6633 148.453 64.7348 148.642C64.8104 148.815 64.8409 149.004 64.8236 149.191C64.6165 149.223 64.4759 149.258 64.4759 149.258C64.414 149.259 64.3532 149.274 64.2979 149.302C64.2427 149.33 64.1943 149.369 64.1565 149.418C64.1186 149.467 64.0922 149.524 64.0792 149.584C64.0662 149.645 64.0669 149.707 64.0813 149.767L64.1824 150.572C64.3501 151.557 64.9987 151.72 64.9987 151.72C65.5634 151.895 66.1627 151.387 66.3353 151.227C66.6461 151.491 67.159 152.003 67.2873 152.596C67.2968 152.845 67.3829 153.085 67.5339 153.283L67.5758 153.345C67.5976 153.735 67.7036 154.115 67.8865 154.46C67.8865 154.6 67.8668 154.783 67.8495 154.992C67.8069 154.689 67.7109 154.397 67.5659 154.128C66.7644 152.673 65.1294 152.276 65.1294 152.276V152.291C65.1763 152.586 65.3267 152.862 65.3637 153.16C65.3835 153.39 65.3609 153.622 65.2971 153.845C65.2695 153.924 65.2504 154.007 65.2404 154.091C65.2182 154.179 65.1985 154.268 65.1837 154.357C65.0988 154.768 65.1616 155.196 65.3612 155.566C65.5331 155.891 65.7786 156.171 66.0783 156.385C66.3781 156.599 66.7236 156.74 67.0875 156.797H67.1615C67.2083 157.011 67.2651 157.289 67.3267 157.616C67.307 157.673 67.2922 157.72 67.2774 157.767C64.2342 155.75 62.4734 158.611 62.4734 158.611C63.4382 159.17 64.5837 159.329 65.6646 159.054C66.3501 158.907 67.0037 158.776 67.561 159.037C67.635 159.564 67.704 160.147 67.7558 160.773C67.6624 160.706 67.5624 160.649 67.4574 160.603C67.4862 160.975 67.6093 161.333 67.815 161.644C67.815 161.804 67.8298 161.969 67.8347 162.137C67.815 162.095 67.7928 162.053 67.7657 162.006C67.7386 161.959 67.7016 161.898 67.667 161.839L67.5511 161.666L67.4229 161.497L67.2848 161.332C67.2355 161.28 67.1911 161.228 67.1393 161.181L67.0604 161.108C66.6633 159.059 64.2441 159.561 64.2441 159.561C64.2441 159.561 64.4907 160.763 65.3316 161.184C65.5961 161.303 65.882 161.367 66.172 161.372C66.462 161.377 66.7499 161.323 67.0185 161.213L67.0628 161.258C67.1072 161.305 67.1492 161.359 67.1911 161.41C67.233 161.462 67.2749 161.519 67.3169 161.575C67.3588 161.632 67.3958 161.689 67.4303 161.748L67.5339 161.92L67.6202 162.085C67.6473 162.137 67.667 162.191 67.6892 162.238C67.7106 162.278 67.7287 162.32 67.7435 162.363C67.5267 162.202 67.2718 162.1 67.0037 162.068C66.9905 162.067 66.9772 162.069 66.9648 162.073C66.9525 162.078 66.9413 162.085 66.9321 162.095C66.9222 162.104 66.9147 162.115 66.9103 162.127C66.906 162.14 66.905 162.153 66.9075 162.166C67.0308 163.104 67.4648 163.439 67.8397 163.547C67.8397 164.141 67.7978 164.746 67.7386 165.357H68.6066V165.259C68.5943 164.52 68.6066 163.845 68.6066 163.247C68.6439 162.683 68.7264 162.122 68.8533 161.57C68.94 161.206 69.0648 160.852 69.2256 160.514C69.2454 160.472 69.2676 160.428 69.2898 160.389L69.3588 160.263L69.4377 160.145L69.4772 160.086L69.5216 160.029C69.5512 159.992 69.5808 159.95 69.6128 159.916L69.709 159.813C69.7425 159.779 69.7779 159.747 69.815 159.717L69.8372 159.702C70.0748 159.667 70.3151 159.656 70.5549 159.667C70.8135 159.662 71.0717 159.693 71.3218 159.758C71.8447 159.904 72.2417 160.278 72.7325 160.497C73.1221 160.664 73.7041 160.778 73.7017 160.179C73.6992 159.581 73.0506 159.091 72.5105 158.948C71.6523 158.739 70.7842 159.091 70.2392 159.394L70.873 158.936L71.0111 158.838C71.3042 158.634 71.6484 158.516 72.005 158.498C72.7448 158.456 73.8324 158.252 73.8348 156.868V154.982C73.6852 155.614 73.4408 156.22 73.1098 156.779C72.9304 157.038 72.7282 157.28 72.5056 157.503C72.2569 157.752 71.9925 157.985 71.714 158.2C71.4279 158.426 71.1196 158.65 70.804 158.872C70.4883 159.094 70.1677 159.32 69.852 159.556C69.8108 159.585 69.7713 159.617 69.7337 159.65C69.6967 159.685 69.6547 159.714 69.6202 159.751L69.5166 159.859C69.4821 159.896 69.455 159.938 69.4229 159.975L69.3761 160.034L69.3341 160.096L69.2528 160.221L69.1788 160.349C69.1541 160.391 69.1319 160.435 69.1097 160.48C68.9446 160.825 68.8156 161.186 68.725 161.558C68.6979 161.662 68.6732 161.767 68.6535 161.871C68.7743 160.147 69.0111 159.219 69.1812 158.749C69.2058 158.683 69.2493 158.625 69.3063 158.584C69.3633 158.542 69.4313 158.518 69.5018 158.515V158.537H69.6991V158.51C70.6708 158.488 72.6585 157.988 72.5401 154.248C72.5401 154.248 70.7694 154.428 69.709 155.425V154.635C69.7086 154.374 69.7615 154.116 69.8644 153.877L70.3453 152.737H70.36C70.4151 152.61 70.4981 152.498 70.6027 152.409C70.7074 152.319 70.831 152.255 70.9643 152.22C71.1194 152.173 71.2634 152.095 71.3872 151.991C71.5111 151.887 71.6122 151.759 71.6844 151.614C72.4587 151.808 72.799 151.314 72.9421 150.912C73.0104 150.717 73.043 150.511 73.0383 150.304L73.0235 149.698C73.0137 149.448 72.9276 149.207 72.7769 149.007C72.8706 148.943 72.9544 148.881 73.0235 148.822C73.0794 148.987 73.1768 149.136 73.3063 149.253C73.4357 149.37 73.5931 149.452 73.7633 149.492C74.2442 149.575 74.6659 148.999 74.6659 148.999C74.9088 148.648 75.1076 148.269 75.2578 147.869C75.4723 147.172 75.2232 146.889 75.2232 146.889ZM68.6461 140.451C68.6466 140.496 68.6508 140.54 68.6584 140.584C68.868 141.524 69.3613 141.473 69.3613 141.473C69.4134 141.496 69.4669 141.517 69.5216 141.534C69.5166 141.767 69.5674 141.997 69.6695 142.206C69.7523 142.447 69.7435 142.71 69.6449 142.945C69.0197 142.265 68.5836 141.433 68.3798 140.532C68.4731 140.523 68.5637 140.496 68.6461 140.451V140.451ZM66.4537 151.097C66.6165 150.873 66.703 150.603 66.7003 150.326L67.0924 150.634C67.0924 150.659 67.0924 150.681 67.0924 150.708C67.1196 150.901 67.197 151.083 67.3169 151.237C67.2971 151.439 67.2749 151.744 67.2626 152.069C67.0538 151.699 66.7797 151.37 66.4537 151.097V151.097ZM67.4648 152.589C67.4648 152.207 67.4821 151.771 67.5067 151.454C67.595 151.543 67.6898 151.625 67.7904 151.7H67.8051L67.8717 151.73C67.6916 152.117 67.583 152.534 67.5511 152.961C67.4984 152.844 67.469 152.717 67.4648 152.589V152.589ZM67.5191 156.528C67.5388 156.577 67.5635 156.627 67.5881 156.676C67.5402 156.92 67.4726 157.159 67.3859 157.392C67.3464 157.183 67.3119 156.971 67.2675 156.765C67.364 156.705 67.4491 156.629 67.5191 156.54V156.528ZM68.0888 164.68C68.0514 164.461 68.03 164.24 68.0246 164.018C68.0246 163.885 68.0246 163.744 68.0123 163.597C68.0731 163.6 68.134 163.6 68.1948 163.597C68.1948 164.141 68.1948 164.68 68.1948 165.126C68.1522 164.983 68.1168 164.838 68.0888 164.692V164.68ZM68.2121 162.981C68.1451 162.851 68.0622 162.729 67.9654 162.619C67.9654 162.58 67.9654 162.541 67.9654 162.501V162.489C67.9654 162.267 67.9408 162.041 67.926 161.807C68.0259 161.892 68.1525 161.939 68.2836 161.94C68.2491 162.27 68.2269 162.627 68.2121 162.994V162.981ZM68.3526 161.401C68.3428 161.463 68.3329 161.527 68.323 161.593C68.2416 161.317 68.0782 161.072 67.8545 160.891C67.8052 160.317 67.7435 159.721 67.6646 159.123C67.8594 159.244 68.0273 159.403 68.1578 159.591C68.2646 159.729 68.3548 159.88 68.4266 160.039C68.4472 160.498 68.4224 160.958 68.3526 161.413V161.401ZM70.6165 146.01H70.6313C70.8737 146.176 71.0512 146.42 71.1335 146.702C71.2157 146.983 71.1978 147.284 71.0826 147.554C70.9526 147.036 70.797 146.525 70.6165 146.023V146.01ZM69.6868 153.82C69.6671 153.869 69.6498 153.921 69.6301 153.973L69.487 153.256C69.4795 153.104 69.4936 152.951 69.529 152.803C69.5876 152.57 69.698 152.353 69.852 152.168L70.8385 151.008L70.8681 151.053L69.6868 153.82ZM70.9199 152.055C70.8046 152.09 70.6944 152.139 70.5919 152.202L71.0062 151.218C71.144 151.371 71.3119 151.494 71.4994 151.579C71.3715 151.805 71.1611 151.971 70.9125 152.045L70.9199 152.055Z" fill="#3939AB"/>
<path d="M65.3291 162.038C65.2842 162.024 65.2356 162.027 65.1928 162.046C65.1499 162.066 65.1159 162.101 65.0973 162.144C65.0455 162.267 65.0727 162.476 65.4894 162.784C65.9062 163.092 65.8495 163.705 66.2613 163.85C66.4782 163.934 66.6905 164.03 66.8976 164.136C67.0132 164.194 67.1131 164.279 67.1887 164.384C67.2643 164.489 67.3133 164.611 67.3316 164.739C67.3661 164.951 67.3793 165.167 67.3711 165.382H67.5782C67.5788 164.843 67.4591 164.312 67.228 163.826C67.0768 163.398 66.8255 163.013 66.4953 162.702C66.165 162.392 65.7652 162.164 65.3291 162.038V162.038Z" fill="#3939AB"/>
<path d="M69.7189 160.684C68.7768 161.302 69.0629 162.466 69.1467 162.744C69.1319 162.798 69.1171 162.858 69.0974 162.922C69.0777 162.986 69.0604 163.072 69.0382 163.155C69.016 163.239 68.9938 163.323 68.9766 163.414C68.9593 163.505 68.9346 163.596 68.9149 163.692C68.8952 163.788 68.8754 163.882 68.8557 163.98C68.836 164.079 68.8187 164.175 68.8015 164.271C68.7842 164.367 68.7719 164.46 68.7571 164.551C68.7423 164.643 68.7299 164.731 68.7151 164.815C68.7003 164.899 68.6929 164.98 68.6856 165.061C68.6708 165.194 68.6584 165.307 68.6486 165.391H68.8631C68.8631 165.31 68.8754 165.201 68.8828 165.076C68.8828 165.034 68.8828 164.987 68.8828 164.938C69.6227 164.593 69.8298 164.158 69.889 163.931C69.8938 163.914 69.8938 163.897 69.889 163.88C69.8842 163.864 69.8748 163.849 69.8619 163.837C69.8498 163.825 69.8343 163.816 69.8173 163.811C69.8003 163.807 69.7825 163.808 69.7657 163.813C69.5753 163.877 69.4008 163.981 69.254 164.118C69.1073 164.256 68.9916 164.423 68.9149 164.608V164.608C68.9161 164.598 68.9161 164.588 68.9149 164.579C68.9272 164.487 68.9322 164.394 68.947 164.298C68.9618 164.202 68.9741 164.106 68.9864 164.01C68.9988 163.914 69.0135 163.815 69.0308 163.719C69.0481 163.623 69.0629 163.532 69.0801 163.441C69.0974 163.35 69.1122 163.264 69.1295 163.183C69.1467 163.101 69.159 163.023 69.1763 162.951C69.1936 162.88 69.201 162.845 69.2108 162.798C71.5635 162.291 70.8903 160.164 70.8903 160.164C70.468 160.254 70.069 160.431 69.7189 160.684V160.684Z" fill="#3939AB"/>
<path d="M71.6351 165.321L64.4019 165.299V166.266H64.9321V169.083C64.9318 169.218 64.9581 169.351 65.0095 169.476C65.0609 169.601 65.1363 169.714 65.2316 169.81C65.3269 169.905 65.44 169.981 65.5647 170.033C65.6893 170.085 65.823 170.112 65.958 170.112H70.0715C70.3439 170.113 70.6053 170.006 70.7986 169.814C70.9918 169.622 71.1011 169.362 71.1024 169.09V166.274H71.6351V165.321Z" fill="white"/>
<path d="M109.125 145.408C109.254 144.963 109.465 144.545 109.749 144.177L110.065 143.783C110.168 143.668 110.277 143.557 110.388 143.449C110.57 143.264 110.764 143.09 110.967 142.929C111.229 142.705 111.49 142.481 111.734 142.237C111.828 142.145 111.915 142.046 111.996 141.942C112.119 141.793 112.197 141.612 112.22 141.421C112.244 141.229 112.212 141.035 112.129 140.861C112.028 140.638 111.893 140.433 111.727 140.253C111.549 140.049 111.362 139.852 111.182 139.65C110.768 139.232 110.452 138.727 110.257 138.172C110.06 137.608 110.005 137.003 110.097 136.412C110.19 135.821 110.427 135.262 110.787 134.785C111.005 134.505 111.237 134.236 111.483 133.98C111.685 133.768 111.868 133.538 112.028 133.293C112.125 133.135 112.189 132.96 112.215 132.777C112.241 132.594 112.228 132.407 112.178 132.229C112.094 131.934 111.971 131.652 111.813 131.389C111.57 130.984 111.359 130.56 111.182 130.122C110.499 128.231 111.468 125.936 113.596 125.36C114.213 125.168 114.871 125.148 115.499 125.301C116.127 125.454 116.701 125.775 117.16 126.229C117.757 126.796 118.137 127.554 118.233 128.371C118.339 129.214 118.166 130.068 117.739 130.804C117.559 131.133 117.362 131.453 117.207 131.788C117.116 131.977 117.051 132.176 117.014 132.382C116.987 132.569 116.999 132.759 117.048 132.942C117.097 133.124 117.183 133.295 117.3 133.443C117.495 133.701 117.704 133.948 117.927 134.181C118.213 134.467 118.461 134.788 118.667 135.137C119.022 135.733 119.198 136.419 119.173 137.112C119.148 137.806 118.924 138.477 118.526 139.046C118.28 139.393 118.006 139.718 117.707 140.019C117.533 140.2 117.376 140.396 117.236 140.605C117.15 140.732 117.084 140.871 117.041 141.019C116.999 141.159 116.988 141.307 117.01 141.451C117.031 141.596 117.085 141.734 117.167 141.856C117.341 142.1 117.546 142.321 117.776 142.513C118.193 142.882 118.63 143.23 119.009 143.633C119.574 144.187 119.972 144.888 120.156 145.657C120.173 145.731 120.188 145.807 120.198 145.881C120.359 146.416 120.442 146.972 120.445 147.531C120.445 148.3 120.293 149.061 119.998 149.771C119.703 150.482 119.272 151.127 118.727 151.671C118.182 152.214 117.536 152.646 116.824 152.94C116.113 153.234 115.35 153.386 114.58 153.386C113.025 153.385 111.534 152.768 110.435 151.67C109.336 150.572 108.718 149.083 108.718 147.531C108.719 146.804 108.857 146.084 109.125 145.408V145.408Z" fill="#282A85"/>
<path d="M114.366 156.69V127.761C114.366 127.631 114.366 127.5 114.378 127.372C114.378 127.343 114.384 127.314 114.395 127.287C114.407 127.26 114.424 127.235 114.445 127.215C114.466 127.194 114.491 127.178 114.519 127.168C114.546 127.157 114.575 127.152 114.605 127.153C114.663 127.148 114.722 127.166 114.767 127.203C114.813 127.239 114.843 127.292 114.851 127.35C114.869 127.452 114.876 127.555 114.871 127.658V156.69H114.366Z" fill="#3939AB"/>
<path d="M117.7 155.119V168.988C117.7 169.12 117.674 169.252 117.624 169.374C117.573 169.496 117.499 169.608 117.405 169.702C117.312 169.795 117.2 169.87 117.078 169.92C116.955 169.971 116.824 169.997 116.691 169.997H112.647C112.379 169.997 112.121 169.891 111.932 169.702C111.742 169.512 111.636 169.256 111.636 168.988V155.119H117.7Z" fill="#FFDD79"/>
<path d="M118.225 154.281H111.115V155.234H118.225V154.281Z" fill="#FFDD79"/>
<path d="M114.269 159.728C114.366 159.779 114.476 159.796 114.583 159.777C114.69 159.758 114.788 159.705 114.861 159.625C115.039 159.507 115.255 159.46 115.466 159.493C115.677 159.527 115.868 159.638 116.001 159.805L116.035 159.849L116.383 160.341C117.054 160.881 117.054 159.775 117.054 159.775C117.054 159.44 116.807 158.923 116.126 158.512C115.446 158.101 115.559 157.714 115.559 157.714C115.618 156.924 116.237 157.025 116.499 157.106C116.611 157.144 116.732 157.144 116.844 157.106C117.456 156.86 117.145 156.067 117.036 155.826C117.005 155.755 116.98 155.682 116.962 155.607C116.88 155.304 116.902 154.983 117.025 154.694C117.149 154.406 117.367 154.168 117.643 154.019C117.764 153.943 117.904 153.902 118.048 153.902C118.191 153.902 118.331 153.943 118.452 154.019C118.728 154.168 118.946 154.406 119.07 154.694C119.193 154.983 119.216 155.304 119.133 155.607C119.115 155.682 119.09 155.755 119.059 155.826C118.95 156.072 118.639 156.87 119.251 157.106C119.363 157.144 119.484 157.144 119.596 157.106C119.858 157.025 120.477 156.924 120.536 157.714C120.536 157.714 120.639 158.101 119.969 158.512C119.298 158.923 119.041 159.44 119.041 159.775C119.041 159.775 119.041 160.881 119.712 160.341L120.06 159.849L120.094 159.805C120.227 159.638 120.418 159.527 120.629 159.493C120.84 159.46 121.056 159.507 121.234 159.625C121.307 159.705 121.405 159.758 121.512 159.777C121.619 159.796 121.729 159.779 121.826 159.728C122.24 159.573 123.091 159.649 122.884 160.398C122.732 160.615 122.651 160.872 122.652 161.137C122.704 161.471 122.524 162.244 121.853 162.013C121.773 161.974 121.687 161.951 121.598 161.945C121.51 161.939 121.421 161.951 121.337 161.98C121.254 162.008 121.176 162.053 121.11 162.112C121.043 162.17 120.989 162.241 120.95 162.321C120.692 162.595 120.34 162.76 119.964 162.784H119.577C119.577 162.784 119.216 162.784 119.216 163.301C119.213 163.369 119.224 163.437 119.249 163.501C119.274 163.565 119.312 163.623 119.36 163.672C119.409 163.72 119.467 163.758 119.531 163.783C119.595 163.807 119.663 163.818 119.732 163.815H120.247C120.344 163.804 120.443 163.815 120.535 163.849C120.626 163.883 120.708 163.939 120.774 164.011C120.84 164.084 120.887 164.171 120.912 164.265C120.937 164.36 120.939 164.459 120.918 164.554C120.918 164.554 120.866 164.965 120.067 165.275C119.441 165.521 118.627 166.371 119.604 166.77C119.85 166.873 120.176 167.144 120.163 167.442C120.149 167.848 119.722 167.952 119.397 168.006C118.933 168.082 118.726 168.289 118.701 168.545V169.037C118.684 169.214 118.611 169.381 118.492 169.514C118.374 169.646 118.217 169.738 118.043 169.776C117.869 169.739 117.711 169.647 117.592 169.514C117.474 169.381 117.401 169.214 117.384 169.037V168.545C117.359 168.299 117.152 168.082 116.689 168.006C116.363 167.952 115.949 167.848 115.922 167.442C115.909 167.144 116.225 166.873 116.482 166.77C117.468 166.371 116.644 165.517 116.018 165.275C115.219 164.965 115.167 164.554 115.167 164.554C115.146 164.459 115.148 164.36 115.173 164.265C115.198 164.171 115.245 164.084 115.311 164.011C115.377 163.939 115.459 163.883 115.551 163.849C115.642 163.815 115.741 163.804 115.838 163.815H116.353C116.422 163.818 116.49 163.807 116.554 163.783C116.618 163.758 116.676 163.72 116.725 163.672C116.773 163.623 116.811 163.565 116.836 163.501C116.861 163.437 116.872 163.369 116.869 163.301C116.869 162.784 116.509 162.784 116.509 162.784H116.121C115.746 162.76 115.393 162.595 115.135 162.321C115.096 162.241 115.042 162.17 114.975 162.112C114.909 162.053 114.832 162.008 114.748 161.98C114.664 161.951 114.575 161.939 114.487 161.945C114.398 161.951 114.312 161.974 114.232 162.013C113.562 162.244 113.382 161.471 113.433 161.137C113.434 160.872 113.353 160.615 113.202 160.398C113.004 159.652 113.855 159.576 114.269 159.728Z" fill="#3939AB"/>
<path d="M117.029 170.082C117.056 169.89 117.152 169.715 117.298 169.588C117.445 169.462 117.632 169.392 117.826 169.392C117.994 169.392 118.157 169.445 118.294 169.542C118.375 169.369 118.505 169.222 118.667 169.119C118.829 169.016 119.017 168.961 119.209 168.961H119.281C119.364 168.601 119.568 168.279 119.858 168.049C120.148 167.819 120.508 167.693 120.879 167.693C121.307 167.693 121.718 167.86 122.025 168.159C122.331 168.457 122.508 168.864 122.519 169.291C122.794 169.297 123.063 169.373 123.301 169.511C123.539 169.648 123.738 169.844 123.88 170.079L117.029 170.082Z" fill="#3939AB"/>
<path d="M111.828 170.082C111.845 169.964 111.905 169.856 111.995 169.779C112.086 169.701 112.202 169.659 112.321 169.661C112.424 169.661 112.524 169.692 112.607 169.752C112.657 169.646 112.736 169.556 112.835 169.493C112.935 169.43 113.05 169.397 113.167 169.397H113.211C113.262 169.175 113.388 168.976 113.567 168.834C113.747 168.693 113.969 168.617 114.198 168.619C114.461 168.619 114.713 168.722 114.901 168.907C115.088 169.091 115.195 169.341 115.199 169.604C115.368 169.609 115.533 169.657 115.679 169.744C115.825 169.83 115.946 169.951 116.033 170.096L111.828 170.082Z" fill="#3939AB"/>
<path d="M115.604 170.08C115.615 170.009 115.651 169.944 115.706 169.897C115.76 169.85 115.83 169.823 115.902 169.822C115.967 169.821 116.03 169.841 116.082 169.879C116.113 169.812 116.163 169.756 116.225 169.716C116.287 169.676 116.359 169.655 116.432 169.655H116.462C116.493 169.515 116.57 169.391 116.681 169.301C116.792 169.212 116.931 169.163 117.073 169.162C117.238 169.162 117.395 169.226 117.513 169.341C117.63 169.455 117.698 169.611 117.702 169.775C117.808 169.778 117.911 169.807 118.003 169.86C118.094 169.913 118.17 169.988 118.225 170.078L115.604 170.08Z" fill="#3939AB"/>
<path d="M107.894 170.101C107.877 169.983 107.818 169.876 107.727 169.798C107.636 169.721 107.521 169.679 107.401 169.68C107.299 169.68 107.199 169.712 107.115 169.771C107.066 169.665 106.987 169.575 106.888 169.512C106.79 169.449 106.675 169.415 106.558 169.414H106.531C106.479 169.192 106.353 168.995 106.174 168.854C105.994 168.713 105.772 168.637 105.544 168.639C105.281 168.639 105.029 168.742 104.841 168.926C104.654 169.11 104.547 169.361 104.543 169.624C104.374 169.629 104.209 169.677 104.064 169.763C103.918 169.849 103.797 169.97 103.712 170.116L107.894 170.101Z" fill="#3939AB"/>
<path d="M110.193 162.48C110.205 162.485 110.218 162.485 110.23 162.48H110.299C110.551 162.442 110.791 162.345 110.999 162.197C111.207 162.049 111.377 161.854 111.495 161.628C111.635 161.373 111.679 161.076 111.621 160.791C111.541 160.523 111.501 160.244 111.5 159.964C111.525 159.757 111.631 159.568 111.663 159.363C110.956 159.558 110.351 160.015 109.971 160.641C109.788 160.972 109.715 161.352 109.764 161.727C109.772 161.877 109.815 162.023 109.889 162.154C109.964 162.285 110.068 162.397 110.193 162.48V162.48Z" fill="#3939AB"/>
<path d="M109.922 168.416H110.067C110.059 168.267 110.069 168.118 110.094 167.97C110.107 167.882 110.142 167.798 110.195 167.725C110.247 167.653 110.317 167.594 110.398 167.554C110.54 167.48 110.686 167.414 110.837 167.357C111.123 167.256 111.083 166.831 111.374 166.619C111.665 166.407 111.682 166.262 111.645 166.176C111.633 166.146 111.61 166.122 111.581 166.108C111.552 166.094 111.518 166.092 111.488 166.102C111.185 166.187 110.908 166.344 110.679 166.558C110.449 166.772 110.274 167.038 110.168 167.333C110.007 167.671 109.922 168.041 109.922 168.416V168.416Z" fill="#3939AB"/>
<path d="M108.486 164.542C108.486 164.542 107.5 163.737 106.513 163.973C106.141 164.062 105.69 164.397 105.687 164.815C105.685 165.234 106.087 165.152 106.358 165.037C106.698 164.891 106.975 164.633 107.345 164.532C107.518 164.487 107.696 164.466 107.875 164.47C108.01 164.473 108.375 164.453 108.486 164.542Z" fill="#3939AB"/>
<path d="M105.599 162.513C105.599 163.466 106.338 163.616 106.861 163.648C107.113 163.661 107.355 163.747 107.559 163.894L107.655 163.963C107.872 164.12 108.094 164.278 108.309 164.44L108.388 164.505C108.413 164.525 108.437 164.547 108.459 164.571L108.528 164.642C108.55 164.667 108.568 164.694 108.59 164.721L108.62 164.761L108.647 164.8L108.701 164.884L108.75 164.97C108.765 164.999 108.782 165.029 108.795 165.058C108.903 165.295 108.986 165.543 109.041 165.797C109.13 166.179 109.189 166.568 109.219 166.959C109.219 167.031 109.219 167.1 109.231 167.166C109.256 167.57 109.253 167.905 109.248 168.151C109.248 168.269 109.248 168.363 109.248 168.427H109.349C109.349 168.363 109.349 168.269 109.349 168.153C109.349 167.907 109.349 167.575 109.325 167.168C109.303 166.776 109.253 166.386 109.174 166.001C109.16 165.93 109.142 165.856 109.125 165.785C109.063 165.53 108.974 165.282 108.859 165.046C108.845 165.016 108.829 164.986 108.812 164.958L108.763 164.866L108.706 164.78L108.676 164.738L108.644 164.697L108.58 164.615L108.509 164.541C108.484 164.514 108.454 164.495 108.43 164.47L108.348 164.406C108.131 164.241 107.907 164.086 107.69 163.931C107.473 163.776 107.258 163.621 107.061 163.463C106.868 163.31 106.686 163.146 106.513 162.971C106.36 162.819 106.221 162.655 106.097 162.478C105.871 162.09 105.705 161.67 105.603 161.232L105.599 162.513Z" fill="#3939AB"/>
<path d="M108.827 166.623C108.827 166.623 109.192 165.638 108.449 165.146C108.205 164.969 107.926 164.845 107.631 164.781C107.631 164.781 107.152 166.291 108.827 166.623Z" fill="#3939AB"/>
<path d="M108.733 166.395L108.758 166.486C108.758 166.516 108.772 166.55 108.782 166.59C108.792 166.629 108.8 166.676 108.812 166.725C108.824 166.774 108.832 166.828 108.844 166.885C108.856 166.942 108.869 167.003 108.878 167.067C108.888 167.131 108.901 167.193 108.911 167.259C108.92 167.326 108.93 167.392 108.94 167.459C108.95 167.525 108.96 167.594 108.967 167.661C108.975 167.727 108.982 167.791 108.989 167.855V167.875C108.989 167.931 108.989 167.986 109.007 168.037V168.104C109.007 168.136 109.007 168.168 109.007 168.2C109.007 168.286 109.007 168.36 109.019 168.416H109.167C109.167 168.357 109.152 168.279 109.142 168.187C109.142 168.136 109.142 168.079 109.123 168.023C109.103 167.966 109.105 167.902 109.096 167.838C109.086 167.774 109.078 167.71 109.066 167.643C109.054 167.577 109.041 167.51 109.026 167.444C109.012 167.377 109.004 167.309 108.989 167.242L108.945 167.05C108.945 166.986 108.915 166.927 108.903 166.87C108.891 166.814 108.876 166.76 108.861 166.71C108.846 166.661 108.837 166.617 108.824 166.575C108.812 166.533 108.802 166.501 108.795 166.471L108.768 166.383L108.733 166.395Z" fill="#3939AB"/>
<path d="M109.086 168.139C109.086 168.139 108.94 167.474 108.403 167.321C108.391 167.318 108.379 167.317 108.367 167.32C108.355 167.324 108.344 167.33 108.336 167.338C108.327 167.347 108.321 167.357 108.318 167.369C108.315 167.381 108.315 167.393 108.319 167.405C108.361 167.567 108.516 167.89 109.086 168.139Z" fill="#3939AB"/>
<path d="M108.578 163.667C108.631 163.664 108.684 163.679 108.729 163.709C108.773 163.738 108.807 163.782 108.824 163.832C109.039 164.535 109.16 165.263 109.184 165.997C109.204 166.285 109.219 166.605 109.229 166.962C109.229 167.378 109.229 167.838 109.229 168.355V168.424H109.49C109.49 168.372 109.49 168.318 109.49 168.262C109.524 167.397 109.49 166.531 109.389 165.672C109.214 164.66 109.502 162.993 109.636 162.567C109.642 162.551 109.642 162.533 109.636 162.518C109.626 162.503 109.612 162.492 109.596 162.486V162.486C109.589 162.482 109.581 162.48 109.573 162.48C109.565 162.48 109.557 162.482 109.549 162.486C109.542 162.489 109.536 162.494 109.531 162.501C109.526 162.507 109.523 162.515 109.522 162.523C109.446 162.83 109.108 164.246 109.174 164.812C109.124 164.45 109.042 164.092 108.928 163.744C108.881 163.612 108.876 163.47 108.913 163.335C109.517 161.011 106.499 160.703 106.499 160.703C106.41 163.451 107.964 163.667 108.578 163.667Z" fill="#3939AB"/>
<path d="M109.914 163.336C109.715 163.53 109.558 163.765 109.455 164.023C109.352 164.282 109.304 164.56 109.315 164.838C109.351 164.681 109.423 164.535 109.527 164.412C109.988 163.786 110.615 163.919 111.283 164.057L109.914 163.336Z" fill="#3939AB"/>
<path d="M110.41 166.208C110.411 166.199 110.41 166.189 110.407 166.18C110.404 166.171 110.399 166.163 110.393 166.156C110.386 166.15 110.378 166.145 110.369 166.142C110.36 166.139 110.35 166.138 110.341 166.139C110.129 166.164 109.534 166.311 109.342 167.173C109.342 167.173 110.247 167.414 110.41 166.208Z" fill="#3939AB"/>
<path d="M110.038 165.125C110.038 165.125 109.382 165.393 109.382 166.031C109.382 166.031 109.887 166.181 110.038 165.125Z" fill="#3939AB"/>
<path d="M112.264 164.406C112.264 164.406 110.538 164.044 110.292 165.529C110.482 165.612 110.689 165.655 110.897 165.655C111.105 165.655 111.311 165.612 111.502 165.529C112.099 165.241 112.264 164.406 112.264 164.406Z" fill="#3939AB"/>
<path d="M110.659 165.223H110.642L110.597 165.247C110.56 165.269 110.509 165.304 110.447 165.348C110.385 165.393 110.388 165.395 110.356 165.425C110.32 165.452 110.287 165.483 110.257 165.516C110.223 165.548 110.19 165.582 110.156 165.619C110.121 165.656 110.092 165.693 110.06 165.732C110.028 165.772 109.998 165.811 109.971 165.85L109.89 165.969L109.821 166.084C109.798 166.121 109.781 166.158 109.764 166.19C109.747 166.222 109.729 166.254 109.717 166.281L109.685 166.353L109.658 166.417L109.784 166.466L109.808 166.404L109.835 166.333C109.845 166.305 109.858 166.276 109.872 166.244C109.89 166.212 109.904 166.175 109.922 166.139L109.983 166.025C110.006 165.986 110.03 165.946 110.052 165.905L110.134 165.786C110.161 165.747 110.19 165.71 110.22 165.673C110.249 165.636 110.279 165.601 110.311 165.567C110.341 165.533 110.37 165.503 110.4 165.474C110.43 165.444 110.459 165.42 110.486 165.395C110.514 165.37 110.59 165.314 110.625 165.292L110.666 165.265H110.681L110.659 165.223Z" fill="#3939AB"/>
<path d="M113.49 163.754C113.49 163.754 112.181 161.607 109.914 163.335C109.914 163.335 111.493 164.844 113.49 163.754Z" fill="#3939AB"/>
<path d="M109.433 168.416H109.828C109.663 166.309 109.83 164.189 110.321 162.133L110.235 162.074C109.774 163.921 109.643 166.181 109.606 167.491C109.603 167.644 109.587 167.798 109.559 167.949C109.541 168.056 109.516 168.162 109.485 168.266C109.471 168.317 109.454 168.367 109.433 168.416V168.416Z" fill="#3939AB"/>
<path d="M109.737 160.91C109.737 160.91 110.198 162.365 109.633 162.843C109.544 162.919 109.31 162.486 109.312 162.417C109.312 162.23 109.515 161.998 109.571 161.821C109.669 161.527 109.725 161.22 109.737 160.91V160.91Z" fill="#3939AB"/>
<path d="M113.988 170.101C113.961 169.909 113.865 169.733 113.718 169.606C113.571 169.479 113.384 169.409 113.189 169.409C113.021 169.409 112.857 169.462 112.721 169.562C112.639 169.387 112.51 169.24 112.347 169.136C112.185 169.032 111.996 168.977 111.803 168.976H111.732C111.648 168.615 111.445 168.292 111.154 168.061C110.863 167.83 110.503 167.704 110.131 167.703C109.702 167.704 109.29 167.871 108.983 168.171C108.675 168.47 108.497 168.877 108.486 169.306C108.211 169.313 107.941 169.389 107.703 169.527C107.465 169.665 107.265 169.861 107.123 170.096L113.988 170.101Z" fill="#3939AB"/>
<path d="M38.6161 161.153L37.0599 160.383L34.4113 165.757L36.1524 168.559L36.9342 168.943L36.986 168.099C36.6873 167.687 36.4194 167.255 36.1845 166.804C36.0865 166.568 36.0812 166.305 36.1697 166.065L38.6161 161.153Z" fill="#F6C2D7"/>
<path d="M45.9824 149.265L36.7517 165.99L34.1968 164.759C35.0969 162.742 36.034 160.588 36.9465 158.505C38.4262 155.125 39.8368 151.926 40.9145 149.794C41.3041 149.024 41.6543 148.396 41.9379 147.945L45.9824 149.265Z" fill="#3939AA"/>
<path d="M34.4138 165.758L36.5939 168.345L36.9884 168.099L37.8565 169.242C37.9114 169.315 37.9834 169.373 38.0661 169.411V169.411C38.1046 169.416 38.1436 169.416 38.182 169.411C38.7912 169.296 39.1562 169.431 39.3756 169.616C39.419 169.653 39.4501 169.702 39.4651 169.757C39.4801 169.812 39.4781 169.87 39.4595 169.924C39.439 169.976 39.4034 170.021 39.3573 170.053C39.3113 170.085 39.2567 170.102 39.2005 170.103H39.1118H37.9108L33.1511 167.774L32.7418 167.575C33.1108 166.82 33.6918 166.189 34.4138 165.758V165.758Z" fill="#032E58"/>
<path d="M42.8578 149.803L42.3178 154.781C42.1476 154.513 41.9117 154.293 41.6324 154.142C41.3532 153.991 41.0398 153.913 40.7222 153.917C40.4043 153.921 40.0929 154.007 39.8175 154.166C39.5421 154.324 39.3119 154.55 39.1488 154.823L36.9465 158.516C38.4262 155.136 39.8368 151.937 40.9145 149.805L42.8578 149.803Z" fill="#262C86"/>
<path d="M62.4092 117.821C62.2445 117.873 62.0738 117.905 61.9012 117.915C61.5264 118.011 60.7495 118.306 60.7495 118.306C60.4067 118.449 59.9579 118.666 59.9579 118.666C59.8297 118.754 59.26 118.816 58.6139 118.845C58.2697 118.917 57.944 119.059 57.657 119.261L57.5608 119.296L51.4917 124.318L50.012 122.253L57.1268 118.085C57.1968 117.938 57.3001 117.81 57.4286 117.71C57.557 117.611 57.7071 117.542 57.8666 117.511C57.9184 117.511 57.9727 117.511 58.0269 117.511C58.3486 117.427 58.6826 117.401 59.0134 117.435C59.1413 117.457 59.2707 117.469 59.4006 117.471H60.4536C60.5178 117.472 60.581 117.487 60.6378 117.517C60.6945 117.547 60.743 117.591 60.7791 117.644C60.7805 117.653 60.7805 117.662 60.7791 117.671C60.9641 117.633 61.1462 117.582 61.3241 117.518C61.5447 117.41 61.7891 117.36 62.0344 117.373C62.0829 117.377 62.13 117.392 62.1725 117.416C62.215 117.439 62.252 117.472 62.281 117.511C62.3489 117.537 62.4097 117.578 62.4586 117.632C62.5399 117.723 62.498 117.782 62.4092 117.821Z" fill="#F6C2D7"/>
<path d="M51.4893 124.32L50.7963 124.873L49.3487 126.036C49.2063 126.15 49.0424 126.235 48.8667 126.285C48.6909 126.336 48.5068 126.35 48.3252 126.329C48.144 126.307 47.969 126.249 47.8105 126.158C47.6521 126.068 47.5135 125.947 47.4029 125.802L46.0219 123.999L41.2006 117.709C41.0284 117.476 40.9065 117.21 40.8425 116.928C40.7785 116.646 40.7738 116.353 40.8287 116.069C40.8836 115.785 40.997 115.515 41.1616 115.277C41.3262 115.039 41.5385 114.838 41.7851 114.685C42.0274 114.528 42.2998 114.422 42.5852 114.375C42.8706 114.328 43.1626 114.341 43.4427 114.413C43.7229 114.485 43.985 114.614 44.2125 114.792C44.44 114.971 44.6278 115.194 44.7641 115.449L48.9368 122.879L49.2624 122.69L50.0022 122.249L51.4893 124.32Z" fill="white"/>
<path d="M52.2414 123.849C52.2687 123.914 52.2742 123.987 52.2574 124.056C52.2405 124.125 52.2021 124.187 52.1477 124.233L51.2599 124.971C51.2111 125.012 51.1496 125.034 51.086 125.034C51.0225 125.034 50.961 125.012 50.9122 124.971C50.1115 124.347 49.5113 123.502 49.1859 122.541C49.1731 122.506 49.1724 122.468 49.1841 122.433C49.1957 122.398 49.2189 122.367 49.25 122.347L50.3992 121.628C50.4438 121.601 50.4963 121.589 50.5483 121.595C50.6002 121.602 50.6485 121.625 50.6853 121.662C51.3537 122.273 51.8842 123.018 52.2414 123.849V123.849Z" fill="white"/>
<path d="M49.356 126.035C49.2137 126.15 49.0498 126.235 48.874 126.285C48.6982 126.335 48.5141 126.35 48.3326 126.328C48.1514 126.306 47.9763 126.249 47.8179 126.158C47.6595 126.068 47.5209 125.946 47.4103 125.801L46.0292 123.999L47.6815 120.914V124.607C47.6815 124.607 47.6791 126.207 49.356 126.035Z" fill="#E6E9EC"/>
<path d="M45.176 161.751L43.4374 161.736L43.4152 167.727L46.2093 169.484H47.0823L46.7642 168.709C46.3151 168.47 45.8841 168.198 45.4744 167.896C45.2814 167.725 45.1599 167.488 45.134 167.232L45.176 161.751Z" fill="#F6C2D7"/>
<path d="M43.4151 167.727C42.9595 168.428 42.7155 169.246 42.7123 170.083L49.4325 170.097C49.4889 170.098 49.5441 170.081 49.5905 170.049C49.6368 170.016 49.6721 169.971 49.6914 169.918C49.7108 169.865 49.7134 169.807 49.6989 169.752C49.6843 169.698 49.6533 169.649 49.61 169.612C49.3906 169.43 49.0231 169.29 48.4164 169.411C48.2908 169.436 48.1604 169.418 48.0465 169.359L46.7641 168.711L46.5175 169.103L43.4151 167.727Z" fill="#032E58"/>
<path d="M38.8676 131.447L38.843 131.472C38.8324 131.487 38.8208 131.502 38.8084 131.516C38.4582 132.009 37.4373 135.51 40.335 137.516L41.3214 145.732L41.6519 148.482L41.6864 148.78L41.9897 152.966L42.9934 166.726H45.8517L46.0588 148.645L46.4263 132.011L38.8676 131.447Z" fill="#3939AA"/>
<g style="mix-blend-mode:multiply" opacity="0.3">
<path d="M42.3843 137.21L41.6445 148.481L40.335 137.515C37.4373 135.508 38.4582 131.998 38.8084 131.515C38.8208 131.501 38.8324 131.486 38.843 131.471L41.8023 132.163C41.8023 132.163 40.6112 135.733 42.3843 137.21Z" fill="#022245"/>
</g>
<path d="M46.6187 125.518L46.5397 126.318C46.5397 126.532 46.5151 127.145 46.488 127.77C46.4485 128.605 46.2413 129.568 46.3375 130.397C46.3499 130.456 46.3671 130.607 46.3794 130.772C46.418 131.14 46.5103 131.501 46.6532 131.843C46.7066 131.942 46.7379 132.052 46.7448 132.165C46.7518 132.278 46.7343 132.391 46.6936 132.496C46.6529 132.601 46.5898 132.697 46.5088 132.776C46.4278 132.854 46.3307 132.915 46.2241 132.953C46.1203 133.004 46.0069 133.034 45.8912 133.039C45.2893 133.073 44.6875 132.971 44.1303 132.741C43.3609 132.529 42.4583 132.17 41.8048 132.163C41.591 132.145 41.3776 132.202 41.2006 132.323C41.0333 132.452 40.8481 132.557 40.6506 132.633C40.2903 132.774 39.8995 132.82 39.5162 132.766C39.2753 132.732 39.0408 132.663 38.8208 132.559C38.7834 132.554 38.7468 132.544 38.7123 132.529C38.5193 132.459 38.3623 132.314 38.2758 132.128C38.2665 132.114 38.259 132.099 38.2536 132.084C38.1976 131.96 38.1755 131.824 38.1893 131.689C38.2032 131.554 38.2526 131.425 38.3325 131.316C38.7277 130.761 38.9311 130.093 38.912 129.412C38.9416 128.959 38.9416 128.462 38.9342 127.953C38.9071 127.024 38.843 126.022 38.7739 124.998C38.7295 124.355 38.6876 123.708 38.6531 123.065C38.6531 123.009 38.6531 122.952 38.6531 122.895C38.6531 122.795 38.6531 122.696 38.6531 122.595C38.6526 121.848 38.7794 121.106 39.0279 120.401L40.2215 117.004L40.2906 116.804C40.5467 116.069 40.9685 115.402 41.5236 114.854C41.6026 114.776 41.6889 114.694 41.7703 114.608C42.2117 114.188 42.6814 113.798 43.176 113.441C43.9848 112.872 44.5989 113.441 45.4423 113.842C46.1136 114.14 46.6822 114.628 47.0774 115.246C47.1714 115.401 47.2796 115.547 47.4004 115.682C47.4917 115.768 47.5706 115.852 47.647 115.928L47.6816 115.962C48.7667 117.814 48.1748 120.101 47.5952 121.566C47.0831 122.83 46.7542 124.161 46.6187 125.518V125.518Z" fill="white"/>
<path d="M44.4657 111.102L43.8344 113.601L46.8949 115.064L47.8468 111.048L47.1637 110.494L45.9997 109.379L44.557 110.465L44.4657 111.102Z" fill="#F6C2D7"/>
<path d="M47.4448 114.535L48.2044 115.734L47.684 115.978L47.4448 114.535Z" fill="#D25A73"/>
<path d="M47.8985 115.531L48.2882 116.221C48.4332 116.494 48.5609 116.776 48.6704 117.065C48.8214 117.44 48.9531 117.822 49.065 118.21C49.1316 118.422 49.1735 118.646 49.2327 118.877C49.2599 118.993 49.287 119.111 49.3166 119.232C49.3536 119.407 49.3536 119.478 49.3733 119.621C49.4651 120.143 49.5113 120.671 49.5114 121.201C49.5114 121.485 49.5262 121.792 49.5114 122.075C49.4966 122.359 49.467 122.649 49.4423 122.94C49.393 123.521 49.3042 124.097 49.2327 124.663C49.1612 125.229 49.0675 125.803 49.0083 126.345C48.9491 126.886 48.9146 127.418 48.8825 127.925C48.8505 128.432 48.9023 128.91 48.9269 129.334C48.9417 129.457 48.9541 129.58 48.9688 129.695L49.0206 129.996C49.0453 130.185 49.102 130.387 49.139 130.572C49.2224 130.9 49.3262 131.222 49.4497 131.537C49.5439 131.769 49.6535 131.994 49.7777 132.212C49.8515 132.349 49.9339 132.481 50.0244 132.608L50.1131 132.744L49.7432 134.553L47.8838 134.135L47.7728 133.911C47.6632 133.705 47.566 133.493 47.4818 133.275C47.3491 132.947 47.2379 132.611 47.1488 132.268C47.0398 131.836 46.9575 131.396 46.9022 130.954C46.885 130.707 46.8504 130.461 46.8455 130.2C46.8455 130.067 46.8455 129.934 46.8332 129.796C46.8208 129.659 46.8332 129.55 46.8332 129.432C46.8652 128.873 46.9096 128.317 46.9935 127.746C47.0773 127.174 47.1932 126.601 47.3486 126.047C47.504 125.493 47.6396 124.926 47.7925 124.373C47.9454 123.819 48.0909 123.277 48.2068 122.74C48.2635 122.472 48.3178 122.206 48.372 121.942C48.4263 121.679 48.4386 121.435 48.4781 121.184C48.5431 120.683 48.5637 120.177 48.5397 119.672C48.5397 119.562 48.5397 119.397 48.5397 119.335L48.5027 118.993C48.4756 118.769 48.4633 118.547 48.4263 118.343C48.3425 117.937 48.3005 117.54 48.197 117.225C48.1318 116.94 48.0494 116.659 47.9503 116.383L47.6519 115.645L47.8985 115.531Z" fill="#D25A73"/>
<path d="M43.6741 112.721L43.1661 113.464L47.684 115.976L47.4448 114.535L43.6741 112.721Z" fill="white"/>
<path d="M39.4127 140.686V139.233C39.4128 139.191 39.4046 139.15 39.3885 139.112C39.3724 139.073 39.3487 139.038 39.3189 139.009C39.2898 138.98 39.2552 138.957 39.2171 138.941C39.179 138.926 39.1382 138.918 39.097 138.918H36.8158C36.7741 138.918 36.7327 138.926 36.6942 138.942C36.6557 138.958 36.6208 138.982 36.5914 139.012C36.5613 139.041 36.5374 139.075 36.5213 139.114C36.5052 139.152 36.4971 139.194 36.4977 139.236V140.686H35.6691V139.236C35.6685 139.085 35.6979 138.936 35.7555 138.797C35.8131 138.658 35.8977 138.532 36.0045 138.426C36.2205 138.213 36.5123 138.094 36.8158 138.096H39.097C39.2475 138.095 39.3966 138.125 39.5355 138.183C39.6744 138.241 39.8003 138.326 39.9059 138.433C40.0127 138.539 40.0973 138.665 40.1549 138.804C40.2124 138.944 40.2418 139.093 40.2413 139.243V140.693L39.4127 140.686Z" fill="#032E58"/>
<path d="M44.9885 145.732V151.843C44.9885 152.136 44.8729 152.418 44.6665 152.626C44.4602 152.835 44.1799 152.954 43.8862 152.958H41.9922L41.6888 148.773L41.6543 148.475L41.3239 145.725L44.9885 145.732Z" fill="#262C86"/>
<path d="M30.3817 144.318V150.405C30.3796 150.7 30.4935 150.985 30.6991 151.198C30.9046 151.411 31.1854 151.536 31.4816 151.544H44.4189C44.7126 151.541 44.993 151.421 45.1993 151.213C45.4056 151.004 45.5213 150.722 45.5212 150.429V144.318H30.3817Z" fill="#3939AB"/>
<path d="M45.5308 141.033C45.5321 140.74 45.4172 140.458 45.2111 140.249C45.005 140.04 44.7246 139.921 44.4309 139.918H31.4936C31.2005 139.917 30.9191 140.032 30.7107 140.238C30.5024 140.444 30.384 140.723 30.3813 141.016V144.318H45.5283L45.5308 141.033Z" fill="#4145B0"/>
<path d="M38.7813 144.582C38.7807 144.8 38.6936 145.008 38.5392 145.162C38.3848 145.316 38.1757 145.402 37.9576 145.402V145.402C37.8497 145.402 37.7428 145.381 37.6432 145.339C37.5435 145.298 37.453 145.237 37.3769 145.161C37.3008 145.085 37.2406 144.994 37.1998 144.894C37.1589 144.794 37.1382 144.688 37.1389 144.58V143.691C37.1395 143.473 37.2266 143.265 37.381 143.111C37.5354 142.957 37.7445 142.871 37.9626 142.871C38.0707 142.871 38.1778 142.892 38.2778 142.933C38.3777 142.974 38.4685 143.035 38.5448 143.111C38.6212 143.188 38.6816 143.279 38.7226 143.379C38.7636 143.478 38.7844 143.585 38.7838 143.693L38.7813 144.582Z" fill="white"/>
<path d="M37.7949 144.677V144.133C37.728 144.103 37.6713 144.054 37.6315 143.992C37.5917 143.931 37.5705 143.859 37.5704 143.786C37.5701 143.736 37.5798 143.686 37.5989 143.639C37.618 143.593 37.6461 143.551 37.6817 143.515C37.7172 143.48 37.7595 143.452 37.806 143.433C37.8525 143.414 37.9024 143.404 37.9527 143.404C38.0536 143.405 38.1502 143.445 38.2214 143.517C38.2925 143.588 38.3325 143.685 38.3325 143.786C38.3327 143.859 38.3116 143.931 38.2718 143.993C38.232 144.054 38.1751 144.103 38.1081 144.133V144.677C38.1081 144.719 38.0918 144.758 38.0627 144.788C38.0336 144.817 37.9941 144.834 37.9527 144.835C37.9319 144.835 37.9112 144.831 37.8919 144.823C37.8726 144.816 37.8551 144.804 37.8403 144.789C37.8256 144.775 37.814 144.757 37.8062 144.738C37.7984 144.719 37.7945 144.698 37.7949 144.677V144.677Z" fill="#022245"/>
<path d="M47.1218 107.329C47.6643 107.676 47.9701 108.225 48.16 108.932L48.2118 109.07L48.9689 109.858C48.9853 109.874 48.9983 109.893 49.0072 109.914C49.0161 109.935 49.0207 109.958 49.0207 109.981C49.0207 110.004 49.0161 110.026 49.0072 110.047C48.9983 110.069 48.9853 110.088 48.9689 110.104L48.6951 110.382L48.8012 111.859L47.5681 111.938L45.4448 110.099L44.6014 108.462L44.7345 107.59L46.0564 107.098L47.1218 107.329Z" fill="#F6C2D7"/>
<path d="M48.3301 110.8C48.2967 110.899 48.2346 110.986 48.1517 111.05C48.0687 111.114 47.9686 111.152 47.864 111.159C47.4932 111.189 47.1245 111.081 46.8283 110.857L46.4509 110.568C45.4472 109.995 46.118 108.737 46.118 108.737C46.3227 108.094 45.4176 107.954 45.4176 107.954L47.1119 107.328C47.2228 106.181 46.1649 105.627 46.1649 105.627C45.2203 105.135 44.6507 105.809 44.6507 105.809C44.2166 106.253 43.3116 106.368 43.3116 106.368C43.1826 106.429 43.0805 106.535 43.0242 106.666C42.9679 106.797 42.9613 106.944 43.0058 107.08L41.9774 107.461C41.2597 107.821 41.7949 108.412 41.7949 108.412C41.4398 108.732 41.3707 109.483 41.3707 109.483C41.2228 110.359 42.3202 110.93 42.3202 110.93L44.0736 112.678L44.8899 110.955L45.6001 110.66L45.8467 111.484L45.6198 111.977C46.5323 112.903 47.171 112.666 47.171 112.666L47.3338 112.649C47.3864 112.645 47.4387 112.659 47.4831 112.687C47.5275 112.716 47.5616 112.757 47.5804 112.806C47.9898 113.909 49.7703 113.299 49.3412 112.157L49.0946 111.489L48.9393 111.073L48.6778 110.369C48.5935 110.413 48.5191 110.474 48.4593 110.549C48.3995 110.623 48.3555 110.708 48.3301 110.8V110.8Z" fill="#032E58"/>
<path d="M45.0428 109.825C44.8912 109.77 44.7247 109.775 44.5765 109.838C44.4284 109.901 44.3095 110.018 44.2438 110.164C44.1328 110.411 44.0909 110.785 44.5865 111.137C44.5865 111.137 45.3264 111.684 45.8541 111.489C45.8541 111.489 46.2364 111.41 45.9774 110.97L45.5409 110.231C45.4688 110.107 45.3671 110.003 45.245 109.928C45.1811 109.887 45.1133 109.853 45.0428 109.825V109.825Z" fill="#F6C2D7"/>
<path d="M40.5939 125.364L40.441 126.527L40.6112 126.576C40.6762 126.595 40.7323 126.637 40.7697 126.694C40.807 126.751 40.8234 126.819 40.8158 126.886L40.6827 128.117C40.6749 128.193 40.6426 128.265 40.5906 128.321C40.5385 128.378 40.4696 128.416 40.3941 128.43L40.1475 128.472C40.111 128.604 40.0822 128.738 40.0612 128.873C39.9986 129.262 40.0533 129.661 40.2184 130.018C40.3836 130.376 40.6516 130.677 40.9885 130.882C41.2218 131.009 41.4192 131.192 41.5623 131.416C41.7054 131.639 41.7897 131.895 41.8072 132.16C41.5934 132.142 41.3801 132.199 41.203 132.32C41.0358 132.449 40.8505 132.554 40.6531 132.63C40.2927 132.771 39.902 132.817 39.5187 132.763C39.2777 132.729 39.0433 132.66 38.8232 132.556C38.7858 132.552 38.7493 132.542 38.7147 132.527C38.5217 132.456 38.3648 132.311 38.2782 132.125C38.2689 132.112 38.2615 132.097 38.256 132.081C38.2001 131.957 38.1779 131.821 38.1918 131.686C38.2056 131.551 38.255 131.422 38.3349 131.313C38.7301 130.758 38.9336 130.09 38.9145 129.41C38.9441 128.957 38.9441 128.459 38.9367 127.95C38.9095 127.021 38.8454 126.019 38.7764 124.995C38.732 124.353 38.6901 123.705 38.6555 123.062C38.6555 123.006 38.6555 122.949 38.6555 122.893C38.6555 122.792 38.6555 122.693 38.6555 122.592L41.1414 116.508C41.1414 116.508 42.3744 113.899 44.2561 115.361C46.1377 116.824 44.8776 118.882 44.8776 118.882L40.5939 125.364Z" fill="#E6E9EC"/>
<path d="M40.7665 138.555C40.42 138.328 40.134 138.02 39.933 137.658C39.6785 137.173 39.2922 136.768 38.8183 136.491L38.404 136.137L39.6222 127.377H36.9465L36.9687 136.137L36.7221 137.902C36.5568 138.505 36.7961 139.379 37.4841 139.057C37.5016 139.107 37.5296 139.152 37.566 139.19C37.6025 139.229 37.6467 139.259 37.6957 139.278C37.7447 139.298 37.7974 139.307 37.8502 139.305C37.903 139.303 37.9547 139.29 38.002 139.266C38.3423 139.82 38.7418 139.429 38.7418 139.429C38.766 139.465 38.7942 139.499 38.8257 139.53C38.8664 139.568 38.917 139.595 38.9719 139.606C39.0268 139.617 39.0838 139.613 39.1364 139.594C39.1892 139.575 39.2359 139.542 39.2711 139.499C39.3064 139.455 39.3289 139.403 39.3362 139.347L39.4743 138.259C39.6716 138.461 40.0637 138.769 40.0637 138.769C40.1696 138.864 40.2965 138.933 40.4341 138.969C40.5717 139.006 40.716 139.01 40.8553 138.981C40.873 138.976 40.8895 138.968 40.9036 138.957C40.9177 138.945 40.929 138.931 40.9367 138.914C41.0057 138.725 40.7665 138.555 40.7665 138.555Z" fill="#F6C2D7"/>
<path d="M44.6729 118.097C44.8244 117.824 44.9177 117.523 44.9469 117.213C44.9761 116.903 44.9406 116.59 44.8426 116.294C44.7445 115.998 44.5862 115.726 44.3774 115.494C44.1687 115.262 43.9141 115.076 43.6297 114.948C43.3487 114.813 43.0427 114.738 42.7311 114.728C42.4195 114.717 42.1091 114.772 41.8197 114.888C41.5303 115.003 41.2682 115.178 41.0499 115.4C40.8317 115.623 40.6621 115.888 40.552 116.179L37.2844 124.176C37.0615 124.723 36.9467 125.308 36.9465 125.899V127.376H39.6223L39.8862 125.37L44.6729 118.097Z" fill="white"/>
<path d="M39.6987 128.433C39.774 128.419 39.8427 128.381 39.8947 128.325C39.9466 128.268 39.9791 128.197 39.9872 128.121L40.1204 126.89C40.1279 126.822 40.1116 126.754 40.0742 126.698C40.0368 126.641 39.9807 126.599 39.9157 126.579C38.8794 126.235 37.7645 126.203 36.7097 126.486C36.6702 126.494 36.6347 126.516 36.6094 126.547C36.5842 126.579 36.5708 126.618 36.5716 126.658L36.6086 128.116C36.6076 128.174 36.627 128.23 36.6636 128.275C36.7001 128.32 36.7514 128.351 36.8084 128.362C37.756 128.589 38.741 128.613 39.6987 128.433V128.433Z" fill="white"/>
<defs>
<linearGradient id="paint0_linear_201_3287" x1="35.647" y1="38.6943" x2="88.6596" y2="180.056" gradientUnits="userSpaceOnUse">
<stop stop-color="white"/>
<stop offset="1" stop-color="#8DA6E2"/>
</linearGradient>
</defs>
</svg>
