<svg width="196" height="192" viewBox="0 0 196 192" fill="none" xmlns="http://www.w3.org/2000/svg">
<path style="mix-blend-mode:multiply" opacity="0.25" d="M175.941 137.908C157.767 149.784 135.357 143.483 115.925 151.024C115.27 151.281 114.618 151.539 113.974 151.796C111.053 152.975 108.219 154.224 105.472 155.544C104.984 155.773 104.502 156.01 104.019 156.249C98.3573 159.046 92.8999 162.241 87.6879 165.811C85.3091 167.438 82.9577 169.154 80.6337 170.959C79.1911 172.079 77.7553 173.237 76.3263 174.431C75.9875 174.711 75.646 174.997 75.2995 175.285C61.7201 186.803 45.7353 198.157 28.3644 186.61C16.166 178.495 5.00468 158.607 14.2279 144.033C20.5505 134.044 22.871 128.163 15.8118 117.677C6.80159 104.314 -3.16095 91.5394 2.38377 74.7269C4.64433 67.8709 8.28926 61.5554 13.0913 56.1742C17.8934 50.7929 23.7496 46.4613 30.2948 43.4493C41.7462 38.2063 53.5159 36.106 58.614 23.023C61.4942 15.6386 64.4821 6.23625 72.1241 2.47068C80.4155 -1.61662 91.9516 1.81949 97.6863 8.77666C103.136 15.3864 102.415 24.7089 106.481 32.0187C111.397 40.8522 118.405 47.8763 128.701 49.3897C141.279 51.2429 153.952 45.7246 166.354 50.0564C176.94 53.7525 185.262 62.4804 190.15 72.3795C200.505 93.3514 196.621 124.413 175.941 137.908Z" fill="url(#paint0_linear_201_3035)"/>
<path d="M106.723 82.9958C112.372 82.9958 117.866 83.2291 123.135 83.6688V56.5274C117.859 56.0877 112.357 55.8544 106.723 55.8544C96.5928 55.8238 86.4773 56.6197 76.4763 58.2344V85.3833C86.4772 83.7673 96.5926 82.9689 106.723 82.9958V82.9958Z" fill="#90BED9"/>
<path d="M87.98 79.331C92.7436 79.331 96.6053 75.459 96.6053 70.6826C96.6053 65.9062 92.7436 62.0342 87.98 62.0342C83.2163 62.0342 79.3546 65.9062 79.3546 70.6826C79.3546 75.459 83.2163 79.331 87.98 79.331Z" fill="#C5E7F9"/>
<path d="M87.98 82.2835V82.313L88.1441 81.6719L87.98 82.2835Z" fill="black"/>
<path d="M89.7854 74.4795L91.3189 78.3038H89.8491L90.5375 79.0407L87.98 82.3173H94.1042V80.0601C94.1053 78.7809 93.6812 77.5378 92.8991 76.5272C92.117 75.5166 91.0214 74.7961 89.7854 74.4795V74.4795Z" fill="#223266"/>
<path d="M87.9726 82.3134H87.9803L87.9752 82.3057L87.9726 82.3134Z" fill="#393839"/>
<path d="M85.4127 79.049L86.0986 78.3121H84.6288L86.1623 74.4854C84.9291 74.804 83.8365 75.5247 83.0565 76.5341C82.2764 77.5434 81.8532 78.7841 81.8533 80.061V82.3183H87.9652V82.2986L85.4127 79.049Z" fill="#223266"/>
<path d="M87.9653 82.3137H87.973L87.9679 82.3008L87.9653 82.3137Z" fill="#393839"/>
<path d="M87.975 82.2979L87.9802 82.3133L87.975 82.2979Z" fill="#393839"/>
<path d="M89.7854 73.8955V74.4826V75.2833V75.3103V75.2833C89.2649 75.7442 88.6565 76.0943 87.9971 76.3125V76.3125L87.9457 76.2953C87.3025 76.0757 86.7089 75.731 86.199 75.2809V73.8955L86.2431 73.9422C86.417 74.1842 86.6278 74.3972 86.8678 74.5734L86.9021 74.5906L86.9413 74.6103L86.978 74.625H87.0001L87.0319 74.6373H87.0491C87.1135 74.6557 87.179 74.6704 87.245 74.6815L87.3308 74.6938H87.3798H87.4533H87.5317H87.5733H87.6713H87.9922C89.2317 74.6938 89.1974 74.5194 89.756 73.898L89.7854 73.8955Z" fill="#F9B885"/>
<path d="M88.7663 77.4054L88.4013 77.6878L88.6463 79.6528L87.98 82.254V82.281L88.1441 81.6719L89.4498 76.585L88.8667 77.5233L88.7663 77.4054Z" fill="#D7E2EE"/>
<path d="M87.9726 82.3027V82.313L87.9752 82.3053L87.9726 82.3027Z" fill="#CFD1D2"/>
<path d="M87.9703 82.2979L87.9677 82.3004L87.9729 82.3133V82.303L87.9703 82.2979Z" fill="#E9E9EA"/>
<path d="M87.5414 77.6777L87.1813 77.405L87.0834 77.5328L86.5273 76.6387L87.9726 82.2635L87.3038 79.6623L87.5414 77.6777Z" fill="#D7E2EE"/>
<path d="M91.2111 69.1573C91.1785 69.1547 91.1457 69.1547 91.1131 69.1573H91.0078V69.8941C90.9151 69.8679 90.8311 69.8171 90.7647 69.7471C90.6983 69.6771 90.652 69.5904 90.6305 69.4962C90.6005 69.2006 90.6005 68.9027 90.6305 68.6071C90.4658 68.4126 90.3152 68.2066 90.1798 67.9905C90.0053 67.7162 89.9197 67.3945 89.9348 67.0694C89.2829 67.1197 88.6286 67.1345 87.9751 67.1137C86.9438 67.0965 85.9663 67.0449 85.9663 67.0449H85.9565C85.9788 67.3838 85.893 67.721 85.7116 68.0077C85.5756 68.2247 85.4241 68.4316 85.2584 68.6267C85.2898 68.9223 85.2898 69.2203 85.2584 69.5159C85.2386 69.6079 85.1945 69.693 85.1307 69.7621C85.067 69.8313 84.9858 69.8819 84.8958 69.9089V69.172H84.7905C84.7513 69.1695 84.7121 69.1695 84.6729 69.172C84.4881 69.1997 84.3194 69.2931 84.1975 69.4351C84.0756 69.5772 84.0088 69.7583 84.009 69.9457V70.2945C84.0085 70.4356 84.0466 70.5741 84.1193 70.6949L84.2246 70.8717C84.2936 70.9886 84.3918 71.0854 84.5095 71.1526C84.6272 71.2198 84.7604 71.255 84.8958 71.2549C84.9203 72.456 85.4642 73.129 86.1648 73.9126L86.2089 73.9617C86.7649 74.5831 86.7331 74.755 87.9726 74.755C89.2097 74.755 89.1779 74.5831 89.7364 73.9617C89.7486 73.9445 89.7633 73.9298 89.778 73.9126C90.4787 73.129 91.0249 72.456 91.0494 71.2574C91.1761 71.2492 91.299 71.2103 91.4074 71.144C91.5157 71.0776 91.6064 70.9859 91.6716 70.8766L91.777 70.6998C91.8486 70.5777 91.8867 70.4387 91.8872 70.297V69.9506C91.8919 69.7581 91.8255 69.5705 91.7007 69.4241C91.5759 69.2777 91.4015 69.1826 91.2111 69.1573Z" fill="#F9B885"/>
<path d="M87.1813 77.4049L87.9775 76.3217C87.3142 76.1044 86.7023 75.7533 86.1794 75.29L86.5273 76.6385L87.0834 77.5326L87.1813 77.4049Z" fill="white"/>
<path d="M87.98 76.3099L88.7761 77.3931L88.8766 77.5208L89.4596 76.5825L89.7878 75.3053V75.2783C89.2618 75.7424 88.6465 76.0935 87.98 76.3099V76.3099Z" fill="white"/>
<path d="M86.1011 78.3068L85.4127 79.0486L87.9653 82.2933V82.2564L86.52 76.6292L86.1746 75.2832V74.4824L84.6411 78.3068H86.1011Z" fill="#415A94"/>
<path d="M87.9726 82.2832L87.9702 82.2981L87.9726 82.3031L87.9751 82.3056L87.9801 82.313L87.9751 82.2981L87.9726 82.2832Z" fill="#414042"/>
<path d="M89.8589 78.3068H91.3214L89.7854 74.4824V75.2832L89.7805 75.3077L89.4522 76.585L88.1441 81.6718L87.98 82.3129L90.5473 79.0486L89.8589 78.3068Z" fill="#415A94"/>
<path d="M87.9799 82.2568L87.9726 82.2839L87.975 82.2986L87.9799 82.3133V82.2839V82.2568Z" fill="#CDA565"/>
<path d="M88.7663 77.4054L87.9702 76.3223L87.1814 77.4054L87.5489 77.6879L87.3039 79.6529L87.9727 82.2541V82.2983V82.2836V82.2541L88.639 79.6529L88.394 77.6879L88.7663 77.4054Z" fill="#E78DB3"/>
<path d="M91.5271 65.5051C91.5271 65.5051 91.4291 65.6083 90.9122 65.6304C90.1602 65.6648 89.827 64.7412 87.9726 64.5963C87.8158 64.5963 87.6468 64.5791 87.468 64.5791C85.1481 64.5791 84.8958 67.0108 84.8958 67.0108C84.8958 67.0108 84.6974 67.2097 84.6802 68.0277C84.6802 68.3863 84.6802 68.8038 84.6802 69.155C84.7194 69.1525 84.7587 69.1525 84.7978 69.155H84.9032V69.8919C84.9932 69.865 85.0743 69.8143 85.1381 69.7452C85.2019 69.676 85.2459 69.591 85.2657 69.499C85.2971 69.2034 85.2971 68.9053 85.2657 68.6098C85.4314 68.4146 85.5829 68.2078 85.7189 67.9908C85.9003 67.704 85.9861 67.3668 85.9639 67.028H85.9786C85.9786 67.028 86.9584 67.0796 87.9873 67.0967C88.6409 67.1176 89.2951 67.1028 89.9471 67.0525C89.932 67.3776 90.0176 67.6993 90.192 67.9736C90.3274 68.1897 90.4781 68.3957 90.6428 68.5902C90.6127 68.8858 90.6127 69.1837 90.6428 69.4793C90.6642 69.5735 90.7106 69.6601 90.777 69.7301C90.8433 69.8001 90.9273 69.851 91.02 69.8772V69.1404H91.1254C91.158 69.1378 91.1907 69.1378 91.2233 69.1404V67.9932C91.2318 67.511 91.0666 67.0418 90.7579 66.6718C91.092 66.3404 91.3539 65.9431 91.5271 65.5051V65.5051Z" fill="#5556C5"/>
<g style="mix-blend-mode:multiply" opacity="0.5">
<path d="M89.7854 73.8955V74.4826V75.2833V75.3103V75.2833C89.2649 75.7442 88.6565 76.0943 87.9971 76.3125V76.3125L87.9457 76.2953V75.3815C87.5084 75.2641 87.1341 74.9804 86.9021 74.5906L86.9413 74.6103L86.978 74.625H87.0001L87.0319 74.6373H87.0491C87.1135 74.6557 87.179 74.6704 87.2451 74.6815L87.3308 74.6938H87.3798H87.4533H87.5317H87.5733H87.6713H87.9922C89.2317 74.6938 89.1974 74.5194 89.756 73.898L89.7854 73.8955Z" fill="#F9B885"/>
</g>
<g opacity="0.5">
<path opacity="0.5" d="M118.537 65.2593H118.513C114.645 65.0309 110.674 64.9154 106.735 64.9154C105.944 64.9154 105.15 64.9154 104.371 64.9302C104.264 64.9308 104.161 64.8891 104.085 64.8141C104.009 64.7391 103.965 64.6369 103.964 64.5298C103.963 64.4769 103.973 64.4242 103.992 64.3749C104.012 64.3256 104.041 64.2808 104.078 64.2428C104.115 64.2049 104.159 64.1747 104.207 64.154C104.256 64.1332 104.308 64.1224 104.361 64.1221C105.142 64.1221 105.941 64.1221 106.735 64.1221C110.698 64.1221 114.677 64.2375 118.562 64.466C118.668 64.4729 118.768 64.5218 118.838 64.6018C118.909 64.6818 118.945 64.7866 118.939 64.8934C118.929 64.9935 118.883 65.0864 118.809 65.154C118.734 65.2217 118.638 65.2592 118.537 65.2593V65.2593Z" fill="white"/>
<path opacity="0.5" d="M118.239 68.0323H118.214C114.439 67.8161 110.573 67.7056 106.723 67.7056C105.233 67.7056 103.724 67.7228 102.242 67.7547C102.189 67.756 102.136 67.7468 102.087 67.7276C102.038 67.7084 101.992 67.6796 101.954 67.6429C101.916 67.6061 101.885 67.5621 101.864 67.5134C101.843 67.4648 101.831 67.4124 101.831 67.3593C101.829 67.2526 101.869 67.1495 101.942 67.0722C102.015 66.995 102.116 66.9498 102.222 66.9466C103.714 66.9146 105.228 66.8975 106.723 66.8975C110.588 66.8975 114.471 67.008 118.261 67.2266C118.313 67.2297 118.365 67.2433 118.413 67.2665C118.46 67.2897 118.503 67.322 118.538 67.3617C118.573 67.4014 118.6 67.4477 118.617 67.4979C118.634 67.548 118.641 67.6011 118.638 67.654C118.632 67.7563 118.588 67.8525 118.513 67.9229C118.439 67.9933 118.341 68.0324 118.239 68.0323V68.0323Z" fill="white"/>
</g>
<path d="M119.38 148.1C116.592 149.225 113.888 150.417 111.267 151.677C110.801 151.898 110.341 152.121 109.88 152.35L106.772 132.945L104.961 121.647L102.369 131.619L95.3266 151.392C95.4637 154.354 94.991 157.943 94.2854 161.475C92.0154 163.027 89.7715 164.665 87.5537 166.387C86.177 167.456 84.8068 168.561 83.4431 169.701L87.5047 149.771C87.5047 149.771 89.1925 133.559 92.7127 117.304C93.4672 113.814 94.4275 110.37 95.1796 107.152C95.3633 106.349 95.3462 105.561 95.5274 104.787L99.7507 104.524L105.75 104.151L115.047 103.576C115.296 104.767 115.533 105.995 115.757 107.261C117.825 118.871 118.834 133.37 119.38 148.1Z" fill="#3939AA"/>
<path d="M109.221 63.6675L105.194 65.4335L102.59 63.6675V54.7293L109.221 51.0498V63.6675Z" fill="#F6C2D7"/>
<path d="M134.98 93.9032L132.082 98.9214L129.034 97.3444C127.37 96.4875 125.885 95.3204 124.657 93.9057L122.075 90.914L118.104 86.1612C118.087 86.284 118.067 86.4068 118.047 86.5296C117.776 88.3195 117.333 90.079 116.725 91.7835C116.48 92.4443 116.267 93.0436 116.071 93.5938C115.748 94.5011 115.533 95.4435 115.431 96.4013C114.941 100.901 115.757 107.415 115.757 107.415C115.757 107.726 115.667 108.031 115.498 108.292C115.33 108.554 115.089 108.761 114.807 108.889C107.744 112.082 103.161 112.05 95.9439 108.889C95.6575 108.764 95.4136 108.558 95.2418 108.296C95.07 108.034 94.9778 107.728 94.9763 107.415C95.5471 103.824 95.7112 99.28 95.1478 95.2689C95.0536 94.6239 94.8969 93.9897 94.6799 93.3752C94.5059 92.8839 94.3149 92.3657 94.1066 91.7958C93.6917 90.6519 93.3585 89.4797 93.1096 88.2883L83.4725 99.307C82.6096 100.297 81.391 100.905 80.0828 100.997C78.7746 101.089 77.4833 100.658 76.4909 99.7982L75.1852 98.6659L73.3259 96.863L76.366 92.6874L79.0607 94.5124C79.7123 93.5053 80.8269 91.5968 81.9439 89.5999C83.4848 86.8563 85.0305 83.9506 85.3735 83.0688C86.5518 79.9469 86.7478 76.5327 88.585 73.6688C89.4 72.4369 90.3435 71.2957 91.3997 70.2644C91.4218 70.2423 91.4659 70.2005 91.5296 70.144C92.3351 69.4083 93.2427 68.7936 94.2242 68.3191L97.0536 66.9534C97.9602 66.5129 98.909 66.1656 99.8855 65.9169C101.1 65.6068 102.348 65.4501 103.602 65.4502H107.244C109.512 65.4497 111.751 65.9636 113.792 66.9534L117.339 68.7169C118.004 69.0467 118.62 69.4656 119.172 69.9623C124.593 74.8477 126.176 82.9803 129.554 88.7427C130.068 89.6227 130.731 90.4065 131.513 91.059L134.98 93.9032Z" fill="white"/>
<path d="M153.58 111.665C153.58 111.665 151.324 109.965 150.915 109.076C150.67 108.54 150.031 107.241 149.982 106.546C149.98 106.53 149.983 106.514 149.989 106.5C149.995 106.485 150.004 106.473 150.016 106.462C150.028 106.452 150.043 106.444 150.059 106.44C150.074 106.436 150.091 106.436 150.107 106.44C150.803 106.588 151.483 106.801 152.14 107.076C152.278 107.134 152.426 107.164 152.576 107.167C152.773 107.179 152.97 107.133 153.142 107.035C153.142 107.035 153.595 106.617 153.09 106.357L151.003 105.35L150.322 104.831C150 104.586 149.602 104.46 149.198 104.478L147.809 104.537L134.965 94.0928L132.349 98.5288L144.289 105.229L144.264 105.259C145.114 105.691 145.932 107.366 146.14 107.961C146.349 108.555 147.346 109.741 148.918 111.343C149.34 111.799 149.845 112.169 150.405 112.434C151.015 112.841 151.481 112.758 151.709 112.664C151.761 112.704 151.821 112.732 151.884 112.748C151.948 112.763 152.014 112.766 152.079 112.756C152.143 112.746 152.205 112.722 152.261 112.688C152.316 112.653 152.364 112.608 152.402 112.554C152.466 112.599 152.539 112.629 152.616 112.64C152.693 112.652 152.772 112.646 152.846 112.622C152.921 112.598 152.988 112.558 153.044 112.503C153.1 112.449 153.143 112.382 153.169 112.308C153.977 112.242 153.58 111.665 153.58 111.665Z" fill="#F6C2D7"/>
<path d="M76.366 92.6629L64.4605 84.4393C64.169 84.4074 63.6668 83.0933 63.6056 82.8059C63.5248 82.4375 63.4317 82.5996 63.4513 82.1034C63.4513 82.1034 63.5419 80.3251 63.1916 79.1879C63.1594 79.0812 63.1429 78.9703 63.1426 78.8588V76.9945C63.1426 76.8598 63.1278 76.7255 63.0985 76.5941L62.4396 73.7547C62.4326 73.7263 62.4156 73.7015 62.3917 73.6848C62.3678 73.668 62.3387 73.6606 62.3097 73.6638C62.0966 73.6835 61.6508 73.8161 61.7046 74.5456L61.8418 75.5674L62.0868 76.8274C61.9223 77.6596 61.8102 78.5013 61.7512 79.3475C61.7512 79.3475 61.4352 81.288 62.0476 82.4375C61.6787 81.9174 61.498 81.2865 61.5356 80.6494L61.4842 79.0405C61.4842 79.0405 61.4572 78.3774 60.8962 78.4019C60.8962 78.4019 60.2177 78.4019 60.2642 79.4163C60.2642 79.4163 60.2642 80.6248 60.3132 81.0595C60.3577 81.5521 60.2976 82.0486 60.1368 82.5161C60.1368 82.5161 59.6837 84.0513 60.7885 85.2524C60.9966 85.4761 61.2566 85.6448 61.5454 85.7436L63.0642 86.2226C66.0038 89.1823 70.0409 93.6503 73.326 96.836L76.366 92.6629Z" fill="#F6C2D7"/>
<path d="M60.9966 78.5348C60.9571 78.5262 60.9162 78.5262 60.8766 78.5348C60.7628 78.5473 60.6574 78.6007 60.5799 78.6851C60.5024 78.7696 60.4581 78.8794 60.4553 78.9941C60.4553 78.9941 60.345 79.5123 60.8497 79.5271C60.8497 79.5271 61.3151 79.5861 61.3396 79.1464C61.3494 79.1366 61.3519 78.6331 60.9966 78.5348Z" fill="#F6C2D7"/>
<path d="M62.4003 74.384C62.4003 74.384 62.442 74.4773 62.5938 74.3987L62.4469 73.7552C62.44 73.7319 62.4274 73.7108 62.4101 73.6938C62.4029 73.6903 62.3949 73.6885 62.3868 73.6885C62.3788 73.6885 62.3708 73.6903 62.3636 73.6938C62.355 73.6959 62.3472 73.7001 62.3407 73.7062C62.3343 73.7122 62.3295 73.7198 62.3268 73.7282C62.2854 73.8353 62.2705 73.9509 62.2833 74.0651C62.296 74.1793 62.3362 74.2887 62.4003 74.384V74.384Z" fill="#F6C2D7"/>
<path d="M103.207 65.416L105.194 68.8155L107.181 65.416H103.207Z" fill="#C55A71"/>
<path d="M102.59 63.667L101.149 65.433L103.369 69.6406L105.194 65.433L102.59 63.667Z" fill="#A7D2E5"/>
<path d="M105.194 65.433L106.894 69.6406L110.341 65.433L109.221 63.667L105.194 65.433Z" fill="#A7D2E5"/>
<g style="mix-blend-mode:multiply">
<path d="M93.1096 88.2691C92.409 85.0146 92.1812 81.5095 92.1763 78.3926C90.9 80.5762 89.8932 85.216 90.8314 88.5123L88.8962 93.0956L93.1096 88.2691Z" fill="#FACAD4"/>
</g>
<g style="mix-blend-mode:multiply">
<path d="M103.273 57.6768L102.59 59.2782V63.6676L105.191 65.4336L104.381 62.1152C105.689 59.2905 103.273 57.6768 103.273 57.6768Z" fill="#F6C2D7"/>
</g>
<path d="M98.107 54.2137C97.8498 55.4983 97.2912 56.4684 96.8601 56.3825C96.429 56.2965 96.2893 55.1839 96.5465 53.9017C96.8038 52.6195 97.3598 51.6469 97.791 51.7328C98.2221 51.8188 98.3617 52.9315 98.107 54.2137Z" fill="white"/>
<path d="M97.1982 62.5052L97.1492 60.9185C97.2916 60.0178 97.3734 59.1086 97.3941 58.197L97.1198 57.7253L97.1933 56.598C96.5906 56.5759 95.7504 56.286 96.4584 55.4509C96.9067 54.9253 97.1933 53.8568 97.306 53.4049C97.2902 53.1018 97.2509 52.8004 97.1884 52.5034C97.1008 51.7275 97.2872 50.9453 97.7151 50.2928C97.7377 50.2498 97.764 50.2087 97.7934 50.17C98.0007 49.8735 98.248 49.6072 98.5284 49.379L98.5675 49.3471C98.7152 49.2274 98.8735 49.1213 99.0403 49.0303L108.69 51.0149L109.292 54.8466L107.146 56.5169L102.955 55.7555V58.8823L101.635 61.8568L101.328 61.8715H101.003L98.5896 62.8811C97.6881 63.2912 97.3647 62.8811 97.2472 62.6354C97.2251 62.5944 97.2086 62.5506 97.1982 62.5052V62.5052Z" fill="#F6C2D7"/>
<path d="M101.828 50.7205C101.821 50.5776 101.784 50.4378 101.718 50.3107C101.653 50.1836 101.561 50.0721 101.448 49.9837C101.337 49.8964 101.208 49.8342 101.07 49.8011C100.932 49.7681 100.789 49.765 100.65 49.7921C99.0477 50.1016 96.6666 50.0377 96.5563 47.0239C96.5563 47.0239 96.6788 43.9486 99.5474 44.7322C99.5474 44.7322 100.794 45.4199 102.21 44.1132C103.626 42.8065 105.593 42.7034 106.828 43.5262C107.844 44.2017 108.104 44.8722 108.163 45.0883C108.212 45.2617 108.285 45.4271 108.381 45.5796C108.495 45.7919 108.673 45.9632 108.889 46.0697C109.105 46.1763 109.349 46.2127 109.586 46.174C110.524 46.0119 112.732 46.8667 112.641 49.7576C112.624 50.3081 112.48 50.8472 112.22 51.3321L112.149 51.4647C111.832 52.0497 111.441 52.5906 110.985 53.0736C110.72 53.3511 110.495 53.8621 110.716 54.766C111.401 57.4826 109.096 58.8507 109.096 58.8507L108.236 58.2243C107.803 57.9101 107.497 57.4502 107.374 56.9285C107.251 56.4068 107.319 55.8581 107.565 55.3825C107.73 55.1022 107.79 54.7725 107.734 54.4521C107.678 54.1317 107.511 53.8416 107.261 53.6336C107.133 53.5071 106.979 53.4091 106.81 53.3461C106.642 53.283 106.461 53.2563 106.282 53.2676C106.096 53.2711 105.915 53.325 105.758 53.4237C105.601 53.5223 105.474 53.662 105.39 53.8277C105.212 54.1719 104.992 54.4928 104.736 54.7831L103.087 56.6376L102.874 53.9751C102.821 53.3112 102.613 52.6692 102.267 52.1009C102.009 51.6841 101.858 51.2099 101.828 50.7205V50.7205Z" fill="#032E58"/>
<path d="M97.1222 57.7254C97.1856 57.8983 97.3113 58.0411 97.4746 58.1257C97.6378 58.2103 97.8267 58.2304 98.0041 58.1823C99.0452 57.9883 100.121 58.2133 100.998 58.8086C101.104 58.8818 101.225 58.9298 101.352 58.9489C101.48 58.9681 101.61 58.9579 101.732 58.9191C101.857 58.8793 101.971 58.8112 102.065 58.72C102.159 58.6288 102.23 58.5171 102.274 58.3935C102.388 58.0714 102.442 57.7308 102.433 57.3889L102.813 54.66L103.18 52.0098L105.032 54.2498C105.062 55.2471 102.744 56.2737 103.317 57.4798C103.569 57.984 103.735 58.527 103.807 59.0861C103.829 59.2144 103.84 59.3442 103.839 59.4742C103.668 61.1175 102.538 62.0901 101.255 62.6674C100.673 62.9229 100.065 63.114 99.442 63.2372C99.398 63.4491 99.3048 63.6477 99.1701 63.8169C98.3495 64.8853 96.9483 64.2836 96.9483 64.2836C93.7784 62.7779 97.1222 57.7254 97.1222 57.7254Z" fill="#032E58"/>
<path d="M99.4126 54.088C99.1677 55.3701 98.5993 56.3403 98.1682 56.2543C97.7371 56.1684 97.5974 55.0557 97.8546 53.7736C98.1119 52.4914 98.6679 51.5187 99.0991 51.6071C99.5302 51.6956 99.6748 52.8034 99.4126 54.088Z" fill="#032E58"/>
<path d="M104.18 55.0043H104.145L97.1982 54.071C97.1652 54.0674 97.1333 54.0571 97.1044 54.0408C97.0755 54.0245 97.0502 54.0024 97.03 53.976C97.0099 53.9496 96.9953 53.9194 96.9871 53.8872C96.979 53.8549 96.9774 53.8214 96.9826 53.7885C96.9862 53.7554 96.9964 53.7234 97.0127 53.6944C97.029 53.6654 97.0509 53.6401 97.0773 53.6199C97.1036 53.5997 97.1338 53.5851 97.1659 53.5769C97.1981 53.5687 97.2316 53.5671 97.2643 53.5723L104.212 54.4983C104.245 54.5016 104.277 54.5117 104.307 54.528C104.336 54.5444 104.362 54.5666 104.382 54.5933C104.403 54.62 104.418 54.6507 104.426 54.6833C104.434 54.716 104.435 54.75 104.43 54.7832C104.423 54.8449 104.394 54.9019 104.348 54.9429C104.302 54.9839 104.242 55.0059 104.18 55.0043V55.0043Z" fill="#032E58"/>
<path d="M77.9559 92.8154L73.7963 98.197L71.1139 95.3723L74.6022 90.7988L77.9559 92.8154Z" fill="#A7D2E5"/>
<g style="mix-blend-mode:multiply">
<path d="M122.075 90.9142L118.104 86.1613C118.451 83.7419 118.625 81.3007 118.626 78.8564C119.574 80.4309 120.34 82.3983 120.277 86.2252L122.075 90.9142Z" fill="#FACAD4"/>
</g>
<path d="M134.1 91.875L130.242 98.8753L133.863 100.349L136.979 94.4983L134.1 91.875Z" fill="#A7D2E5"/>
<g style="mix-blend-mode:multiply" opacity="0.5">
<path d="M111.267 151.677C110.801 151.895 110.341 152.121 109.88 152.35L106.772 132.945L110.216 133.638L111.267 151.677Z" fill="#022245"/>
</g>
<path d="M105.503 67.7645C105.559 67.7866 105.618 67.8087 105.674 67.8357C104.204 72.7875 105.233 79.7559 106.617 84.6585C108.577 91.5679 108.638 98.1997 105.459 104.77L105.263 105.185L100.079 105.996C100.079 105.996 99.0991 101.656 99.0795 101.533C98.9717 101.056 100.192 100.172 100.733 99.1822C102.801 95.4119 103.945 91.1994 103.21 86.901C102.284 80.6769 103.107 74.0893 104.741 68.0469L104.853 67.6318C105.073 67.6608 105.29 67.7052 105.503 67.7645Z" fill="#C55A71"/>
<path d="M92.3943 136.696C88.1612 143.969 89.075 149.405 89.3861 152.129C89.5625 153.723 89.0162 159.665 87.5635 166.387C86.1868 167.457 84.8166 168.561 83.4529 169.701L87.5145 149.771C87.5145 149.771 89.2024 133.56 92.7226 117.304L93.308 115.813C93.308 115.813 96.62 129.433 92.3943 136.696Z" fill="#282A85"/>
<g style="mix-blend-mode:screen" opacity="0.5">
<path d="M99.8708 65.9004C99.5548 67.2489 98.058 72.4758 93.6021 74.0527C88.47 75.8703 87.6028 81.7776 87.6028 81.7776C87.6028 81.7776 86.9585 86.9357 81.9415 89.5835C83.4824 86.8399 85.0281 83.9341 85.3711 83.0523C86.5494 79.9304 86.7454 76.5163 88.5826 73.6523C89.3976 72.4205 90.3411 71.2793 91.3973 70.248C91.4194 70.2259 91.4635 70.1841 91.5272 70.1276C92.3327 69.3919 93.2403 68.7771 94.2218 68.3026L97.0512 66.9369C97.9539 66.4972 98.8986 66.1499 99.8708 65.9004V65.9004Z" fill="white"/>
</g>
<path d="M45.0467 95.414C46.3842 94.6304 47.8369 93.8739 49.3925 93.1469V65.998C40.0003 70.3824 34.4126 75.877 34.4126 81.8383C34.4199 86.8147 38.3101 91.4619 45.0467 95.414Z" fill="#669FBC"/>
<path opacity="0.5" d="M34.758 86.1519C34.6947 86.1518 34.6322 86.1369 34.5757 86.1083C34.5191 86.0797 34.47 86.0383 34.4322 85.9873C34.3697 85.9003 34.3441 85.792 34.3611 85.6861C34.3781 85.5802 34.4362 85.4853 34.5228 85.4224C36.7018 83.8668 39.0125 82.5058 41.4285 81.3549C41.5244 81.309 41.6345 81.3029 41.7349 81.3378C41.8354 81.3728 41.918 81.446 41.965 81.5415C41.9883 81.5892 42.0021 81.6411 42.0053 81.6942C42.0086 81.7472 42.0014 81.8003 41.9841 81.8505C41.9668 81.9008 41.9397 81.9471 41.9045 81.9868C41.8693 82.0265 41.8266 82.0588 41.7788 82.0819C39.4082 83.2121 37.1409 84.5485 35.003 86.0758C34.9317 86.1271 34.8457 86.1539 34.758 86.1519V86.1519Z" fill="white"/>
<path opacity="0.5" d="M35.5689 89.2394C35.5032 89.2393 35.4385 89.2232 35.3805 89.1924C35.3224 89.1615 35.2728 89.117 35.2357 89.0626C35.206 89.0189 35.1851 88.9698 35.1742 88.918C35.1634 88.8662 35.1629 88.8127 35.1727 88.7607C35.1825 88.7087 35.2024 88.6591 35.2313 88.6148C35.2602 88.5705 35.2975 88.5324 35.3411 88.5026C37.2823 87.1935 39.317 86.0294 41.4286 85.0196C41.4759 84.9963 41.5275 84.9825 41.5802 84.9793C41.6329 84.976 41.6858 84.9833 41.7357 85.0007C41.7856 85.018 41.8315 85.0451 41.8709 85.0804C41.9103 85.1157 41.9423 85.1585 41.965 85.2063C41.9883 85.2538 42.002 85.3055 42.0053 85.3584C42.0085 85.4112 42.0013 85.4642 41.9839 85.5142C41.9666 85.5643 41.9396 85.6103 41.9044 85.6498C41.8692 85.6893 41.8265 85.7214 41.7789 85.7442C39.7042 86.7433 37.7049 87.8926 35.7967 89.1829C35.7282 89.2244 35.6488 89.2441 35.5689 89.2394V89.2394Z" fill="white"/>
<path opacity="0.5" d="M35.5689 92.897C35.5035 92.897 35.439 92.8811 35.381 92.8507C35.323 92.8204 35.2732 92.7764 35.2357 92.7226C35.206 92.6789 35.1851 92.6297 35.1742 92.5779C35.1634 92.5261 35.1629 92.4727 35.1727 92.4207C35.1825 92.3687 35.2024 92.3191 35.2313 92.2748C35.2602 92.2306 35.2975 92.1924 35.3411 92.1626C37.2826 90.8519 39.3172 89.6853 41.4286 88.6723C41.5245 88.6264 41.6346 88.6203 41.735 88.6552C41.8354 88.6901 41.9181 88.7633 41.965 88.8589C41.9884 88.9066 42.0021 88.9585 42.0054 89.0115C42.0087 89.0646 42.0014 89.1177 41.9841 89.168C41.9668 89.2182 41.9398 89.2645 41.9046 89.3042C41.8693 89.3439 41.8266 89.3762 41.7789 89.3993C39.7032 90.3965 37.7037 91.5459 35.7967 92.8381C35.7281 92.8795 35.6489 92.9 35.5689 92.897V92.897Z" fill="white"/>
<path d="M45.0467 95.414C47.9126 97.0595 50.907 98.4691 54.0003 99.6289V126.775C41.8548 122.126 34.4028 115.87 34.4028 108.987V81.8359C34.4028 81.8359 33.8026 88.7478 45.0467 95.414Z" fill="#90BED9"/>
<path d="M106.723 107.832C100.456 107.832 94.3737 107.545 88.5753 107.007V134.159C94.3737 134.696 100.456 134.984 106.723 134.984C116.463 135.01 126.191 134.277 135.817 132.79V105.651C126.19 107.132 116.463 107.861 106.723 107.832V107.832Z" fill="#90BED9"/>
<path d="M101.184 131.293C106.601 131.293 110.992 126.889 110.992 121.458C110.992 116.026 106.601 111.623 101.184 111.623C95.7667 111.623 91.3752 116.026 91.3752 121.458C91.3752 126.889 95.7667 131.293 101.184 131.293Z" fill="#C5E7F9"/>
<path d="M105.329 126.111C104.704 125.692 104.012 125.382 103.283 125.195V126.126C103.026 127.3 102.24 128.182 101.184 128.914C100.435 128.436 99.818 127.776 99.3906 126.996V127.978C99.3909 128.378 99.493 128.771 99.687 129.12C99.8819 129.469 99.984 129.863 99.9834 130.262V132.812C99.9834 132.812 96.9801 132.589 96.9801 129.865V126.168C96.0829 126.781 95.3484 127.603 94.8404 128.565C94.3323 129.527 94.0662 130.599 94.065 131.687V134.315H108.3V131.687C108.302 130.584 108.031 129.498 107.513 128.525C106.994 127.552 106.244 126.723 105.329 126.111V126.111Z" fill="white"/>
<path d="M101.184 124.731C100.538 124.673 99.9192 124.444 99.3906 124.068V126.384V126.996C99.818 127.776 100.435 128.436 101.184 128.914V128.914C102.24 128.177 103.026 127.3 103.283 126.126V123.842C102.529 124.441 101.666 124.731 101.184 124.731Z" fill="#FFDEB3"/>
<path d="M101.184 118.733H97.5999V119.831V120.888C97.5986 120.906 97.5986 120.925 97.5999 120.944C97.6086 121.521 97.7513 122.087 98.0167 122.599C98.282 123.111 98.6627 123.553 99.1285 123.891C99.2142 123.958 99.3024 124.019 99.3882 124.078C99.9167 124.455 100.536 124.684 101.181 124.741V124.741C101.671 124.741 102.526 124.452 103.281 123.852C103.425 123.738 103.563 123.615 103.692 123.484L103.707 123.467L103.756 123.415L103.78 123.39L103.82 123.346L103.847 123.317C103.859 123.304 103.871 123.29 103.881 123.275L103.91 123.243L103.942 123.204L103.972 123.167L104.001 123.128L104.03 123.091L104.06 123.051L104.087 123.012C104.097 123 104.106 122.987 104.114 122.973L104.143 122.934L104.168 122.894L104.197 122.85L104.221 122.813L104.248 122.767L104.27 122.732L104.3 122.683C104.3 122.671 104.312 122.658 104.317 122.649L104.346 122.595L104.361 122.568C104.4 122.491 104.437 122.413 104.474 122.322C104.484 122.3 104.493 122.277 104.501 122.253C104.505 122.245 104.509 122.237 104.513 122.229C104.52 122.207 104.528 122.186 104.537 122.165V122.133C104.546 122.113 104.553 122.092 104.559 122.071C104.565 122.06 104.569 122.047 104.572 122.035C104.579 122.014 104.586 121.994 104.591 121.973L104.604 121.936C104.604 121.917 104.616 121.895 104.621 121.872C104.622 121.86 104.622 121.848 104.621 121.836C104.628 121.815 104.633 121.793 104.638 121.772C104.638 121.772 104.638 121.745 104.638 121.732L104.653 121.666V121.629C104.654 121.606 104.654 121.583 104.653 121.561V121.524C104.653 121.499 104.653 121.477 104.665 121.452C104.664 121.44 104.664 121.428 104.665 121.416C104.664 121.392 104.664 121.368 104.665 121.344C104.665 121.332 104.665 121.32 104.665 121.308C104.666 121.282 104.666 121.257 104.665 121.231C104.666 121.222 104.666 121.212 104.665 121.202V121.118V121.104C104.665 121.033 104.665 120.962 104.665 120.89V118.736L101.184 118.733Z" fill="#FFDEB3"/>
<path d="M105.385 118.706V118.642C105.356 116.331 103.812 114.467 101.911 114.467H100.454C98.5259 114.467 96.9679 116.38 96.9801 118.731V119.829V125.775V129.845C96.9801 132.579 99.9834 132.793 99.9834 132.793V130.243C99.984 129.843 99.8819 129.45 99.687 129.101C99.4929 128.752 99.3909 128.359 99.3906 127.959V126.372V124.073C99.3049 124.014 99.2167 123.953 99.1309 123.886C98.6651 123.548 98.2845 123.106 98.0191 122.594C97.7537 122.082 97.611 121.516 97.6023 120.939C97.6011 120.92 97.6011 120.901 97.6023 120.883V119.826V118.728H104.768V120.883C104.768 120.953 104.768 121.024 104.768 121.096V121.111V121.194C104.769 121.204 104.769 121.214 104.768 121.224C104.769 121.249 104.769 121.275 104.768 121.3C104.768 121.312 104.768 121.325 104.768 121.337C104.766 121.361 104.766 121.384 104.768 121.408C104.766 121.42 104.766 121.433 104.768 121.445C104.768 121.47 104.768 121.492 104.755 121.516V121.553C104.757 121.576 104.757 121.599 104.755 121.622V121.659L104.741 121.725C104.741 121.737 104.741 121.752 104.741 121.764C104.736 121.786 104.73 121.807 104.724 121.828C104.725 121.84 104.725 121.853 104.724 121.865C104.724 121.887 104.711 121.909 104.706 121.929L104.694 121.966C104.689 121.986 104.682 122.007 104.675 122.027C104.672 122.04 104.667 122.052 104.662 122.064C104.656 122.085 104.649 122.105 104.64 122.125V122.157C104.631 122.178 104.623 122.199 104.616 122.221C104.612 122.23 104.608 122.238 104.604 122.246C104.596 122.269 104.587 122.292 104.577 122.315V122.315C104.54 122.396 104.503 122.474 104.464 122.56L104.449 122.587L104.42 122.641C104.42 122.641 104.42 122.663 104.403 122.676L104.373 122.725L104.351 122.759L104.324 122.806L104.3 122.843L104.27 122.887L104.246 122.926L104.216 122.965C104.209 122.979 104.2 122.993 104.19 123.005L104.163 123.044L104.133 123.083L104.104 123.12L104.074 123.159L104.045 123.196L104.013 123.236L103.984 123.267C103.974 123.282 103.962 123.296 103.949 123.309L103.923 123.339L103.883 123.383L103.859 123.408L103.81 123.459L103.795 123.476C103.731 123.54 103.665 123.604 103.597 123.665C103.518 123.74 103.447 123.823 103.384 123.911V125.21C104.112 125.397 104.804 125.707 105.429 126.127C105.466 126.017 105.485 125.903 105.485 125.788V119.846V118.748V118.721L105.385 118.706Z" fill="#415A94"/>
<g style="mix-blend-mode:multiply">
<path d="M101.184 124.731C100.543 124.674 99.9284 124.447 99.4029 124.075C99.6479 124.675 100.317 125.571 102.098 125.947V128.157C102.685 127.61 103.097 126.899 103.281 126.116V123.832C102.526 124.431 101.664 124.721 101.181 124.721L101.184 124.731Z" fill="#FFDEB3"/>
</g>
<path opacity="0.5" d="M113.623 116.336C113.519 116.336 113.418 116.295 113.343 116.222C113.268 116.15 113.225 116.05 113.222 115.946C113.218 115.839 113.257 115.736 113.33 115.658C113.402 115.58 113.502 115.534 113.609 115.53C117.989 115.381 122.344 115.083 126.56 114.651C126.666 114.641 126.772 114.674 126.854 114.741C126.937 114.809 126.989 114.906 127.001 115.012C127.006 115.065 127.001 115.118 126.986 115.169C126.971 115.22 126.946 115.267 126.913 115.308C126.879 115.349 126.838 115.383 126.791 115.408C126.745 115.433 126.694 115.449 126.641 115.454C122.408 115.889 118.033 116.191 113.636 116.336H113.623Z" fill="white"/>
<path opacity="0.5" d="M113.623 119.161C113.519 119.161 113.419 119.12 113.344 119.047C113.269 118.974 113.225 118.875 113.222 118.77C113.22 118.717 113.228 118.664 113.247 118.615C113.265 118.565 113.293 118.519 113.33 118.48C113.366 118.442 113.409 118.41 113.458 118.388C113.506 118.367 113.558 118.354 113.611 118.353C119.534 118.152 125.37 117.685 130.962 116.968C131.068 116.955 131.175 116.985 131.259 117.051C131.344 117.116 131.399 117.213 131.413 117.319C131.426 117.425 131.397 117.531 131.332 117.616C131.266 117.7 131.171 117.755 131.065 117.768C125.45 118.49 119.586 118.957 113.638 119.161H113.623Z" fill="white"/>
<path opacity="0.5" d="M113.721 121.981C113.617 121.981 113.517 121.94 113.442 121.868C113.367 121.796 113.323 121.697 113.32 121.593C113.318 121.54 113.326 121.487 113.345 121.437C113.363 121.387 113.391 121.341 113.428 121.303C113.464 121.264 113.507 121.233 113.556 121.211C113.604 121.189 113.656 121.177 113.709 121.175C118.3 121.015 122.864 120.696 127.275 120.225C127.381 120.214 127.487 120.246 127.569 120.313C127.652 120.38 127.705 120.477 127.716 120.583C127.722 120.636 127.718 120.689 127.704 120.74C127.689 120.791 127.664 120.838 127.631 120.88C127.598 120.921 127.557 120.956 127.511 120.981C127.465 121.006 127.414 121.022 127.361 121.028C122.93 121.502 118.346 121.821 113.736 121.981H113.721Z" fill="white"/>
<path opacity="0.5" d="M113.721 124.81C113.617 124.81 113.516 124.77 113.441 124.697C113.366 124.624 113.323 124.524 113.32 124.42C113.316 124.313 113.355 124.21 113.428 124.132C113.5 124.054 113.6 124.008 113.707 124.005C119.182 123.815 124.591 123.398 129.789 122.777C129.841 122.77 129.894 122.774 129.945 122.788C129.996 122.802 130.044 122.826 130.086 122.859C130.127 122.891 130.162 122.932 130.188 122.978C130.214 123.024 130.231 123.075 130.237 123.128C130.249 123.234 130.219 123.341 130.153 123.425C130.087 123.509 129.99 123.564 129.884 123.577C124.667 124.211 119.231 124.629 113.736 124.818L113.721 124.81Z" fill="white"/>
<path opacity="0.5" d="M113.724 127.63C113.619 127.63 113.519 127.589 113.444 127.517C113.369 127.444 113.325 127.344 113.322 127.24C113.32 127.186 113.329 127.134 113.347 127.084C113.366 127.034 113.394 126.988 113.43 126.95C113.466 126.911 113.51 126.879 113.558 126.858C113.606 126.836 113.659 126.824 113.711 126.822C118.295 126.665 122.851 126.346 127.253 125.876C127.306 125.871 127.359 125.875 127.41 125.89C127.461 125.905 127.508 125.93 127.549 125.963C127.591 125.997 127.625 126.038 127.65 126.084C127.675 126.131 127.691 126.182 127.697 126.235C127.708 126.341 127.676 126.448 127.609 126.531C127.542 126.614 127.445 126.668 127.339 126.68C122.917 127.151 118.341 127.471 113.738 127.63H113.724Z" fill="white"/>
<path d="M51.0754 110.395C50.7814 115.536 47.4376 118.682 43.6038 117.42C39.7701 116.157 36.9015 110.967 37.1955 105.826C37.4894 100.685 40.8308 97.5413 44.6646 98.8013C48.4983 100.061 51.3669 105.254 51.0754 110.395Z" fill="#C5E7F9"/>
<path d="M43.7582 116.14C43.8082 116.187 43.8473 116.245 43.8727 116.309C43.8981 116.373 43.9092 116.442 43.9052 116.511C43.9033 116.547 43.8959 116.584 43.8831 116.619C43.8771 116.645 43.8659 116.669 43.8503 116.691C43.8347 116.713 43.8148 116.731 43.792 116.745C43.7692 116.759 43.7439 116.768 43.7174 116.772C43.691 116.776 43.6641 116.775 43.6382 116.768V116.768C43.6065 116.758 43.5774 116.741 43.5524 116.719L43.5083 116.675C43.436 116.582 43.3995 116.466 43.4054 116.348C43.4073 116.311 43.4147 116.273 43.4275 116.238C43.434 116.212 43.4456 116.188 43.4615 116.167C43.4773 116.146 43.4972 116.128 43.52 116.114C43.5427 116.101 43.5679 116.092 43.5941 116.088C43.6202 116.085 43.6469 116.086 43.6725 116.093V116.093C43.6905 116.099 43.7078 116.107 43.7239 116.118L43.7435 116.132L43.7582 116.14ZM46.9428 113.959C46.7443 114.084 46.5227 114.167 46.2912 114.204H46.2544C45.9727 115.278 45.3088 116.538 44.6964 116.415H44.6817L44.5911 116.393H44.5592C44.422 116.348 44.2941 116.278 44.182 116.186L44.155 116.167L44.1379 116.152C43.9266 115.954 43.7783 115.697 43.7116 115.415V115.415C43.6945 115.462 43.4397 116.113 42.6656 115.769L42.6166 115.742C42.5785 115.721 42.5424 115.696 42.5088 115.668V115.668C42.3811 115.551 42.2735 115.413 42.1904 115.26C41.8978 114.71 41.6858 114.12 41.5608 113.509L41.5167 113.308C41.4677 113.062 41.4285 112.836 41.4016 112.615L41.3673 112.588L41.333 112.558C41.2938 112.527 41.2571 112.492 41.2203 112.458C41.1836 112.423 41.1444 112.384 41.1101 112.347C41.0305 112.265 40.9553 112.179 40.8847 112.089C40.8455 112.04 40.8063 111.989 40.7671 111.935C40.0968 112.374 39.5622 112.992 39.2238 113.72C39.7612 114.582 40.4214 115.361 41.1836 116.032C41.8892 116.651 42.7089 117.127 43.5965 117.432C44.3683 117.708 45.1971 117.786 46.0067 117.657C46.8162 117.528 47.5804 117.197 48.2289 116.695C47.9645 115.715 47.5318 114.789 46.9501 113.959H46.9428Z" fill="#783477"/>
<path d="M42.5554 113.163L42.1831 113.04C41.8993 112.942 41.6354 112.794 41.4041 112.603C41.431 112.824 41.4702 113.057 41.5192 113.295L41.5633 113.497C41.6882 114.108 41.9003 114.697 42.1929 115.248C42.2759 115.4 42.3835 115.538 42.5113 115.656V115.656C42.5449 115.683 42.581 115.708 42.6191 115.729L42.6681 115.756C43.4422 116.1 43.697 115.449 43.7141 115.403C43.1919 114.735 42.7989 113.975 42.5554 113.163V113.163Z" fill="white"/>
<path d="M46.2715 114.204C46.0024 114.235 45.7298 114.207 45.4729 114.12L45.1006 113.995L45.0785 114.042C44.7753 114.622 44.305 115.097 43.7288 115.405C43.7954 115.687 43.9437 115.944 44.155 116.142L44.1722 116.157L44.1991 116.176C44.3112 116.268 44.4391 116.337 44.5763 116.383H44.6082L44.6988 116.405H44.7135C45.3162 116.537 45.98 115.277 46.2715 114.204Z" fill="white"/>
<path d="M43.0208 110.788L43.038 110.808L43.0208 110.788ZM43.9419 111.478H43.9272C43.8465 111.449 43.7693 111.411 43.6969 111.365C43.7742 111.412 43.8563 111.45 43.9419 111.478V111.478ZM42.5162 110.154V110.206C42.6423 110.498 42.7009 110.816 42.6877 111.134V111.134L42.5725 113.156C42.8172 113.97 43.2119 114.73 43.7361 115.398C44.3123 115.09 44.7826 114.615 45.0859 114.035C44.8697 114.457 44.5596 114.824 44.1795 115.106L44.3142 112.758C44.2164 112.691 44.1223 112.619 44.0325 112.542C43.4579 112.017 43.0506 111.333 42.8616 110.577C42.9171 110.644 42.9734 110.708 43.0306 110.768C42.8628 110.586 42.7073 110.392 42.5652 110.189L42.5162 110.154Z" fill="#FABD99"/>
<path d="M44.3779 103.844L44.3633 103.883C44.2898 104.08 43.9223 105.001 43.3834 105.234C42.7122 105.516 41.7519 105.2 41.7494 105.2V105.249L41.7029 106.042L41.649 107.025C41.649 107.064 41.649 107.103 41.649 107.14V107.177C41.649 107.201 41.649 107.228 41.649 107.253V107.297C41.6478 107.32 41.6478 107.343 41.649 107.366V107.41C41.649 107.435 41.649 107.454 41.649 107.477V107.523C41.649 107.545 41.649 107.567 41.649 107.59V107.634C41.649 107.656 41.649 107.678 41.649 107.698V107.742C41.6502 107.766 41.6502 107.789 41.649 107.813V107.85C41.649 107.879 41.649 107.911 41.649 107.941V107.955C41.649 107.99 41.649 108.024 41.6661 108.059V108.093C41.6661 108.115 41.6661 108.14 41.6661 108.164V108.204L41.6784 108.267V108.309L41.6931 108.368V108.41L41.7078 108.469V108.511L41.7249 108.57V108.609L41.7445 108.67V108.707C41.7496 108.732 41.757 108.757 41.7666 108.781V108.8C41.7788 108.832 41.7886 108.864 41.7984 108.896V108.921C41.7984 108.943 41.8131 108.965 41.8229 108.987V109.024L41.8425 109.078L41.8572 109.115L41.8793 109.169L41.894 109.208L41.916 109.257L41.9332 109.294L41.9552 109.348L41.9699 109.383L41.9968 109.437L42.0115 109.469L42.0409 109.53V109.55C42.0533 109.578 42.0672 109.606 42.0826 109.633V109.65C42.0826 109.672 42.1046 109.692 42.1144 109.714L42.1316 109.744C42.142 109.759 42.151 109.776 42.1585 109.793L42.1781 109.825L42.2051 109.869L42.2247 109.903C42.2737 109.987 42.3251 110.065 42.379 110.149L42.4108 110.198C42.5525 110.402 42.7089 110.596 42.8787 110.778V110.778L42.8983 110.797V110.81L42.913 110.824L42.9718 110.883L42.9988 110.913C43.0625 110.972 43.1213 111.028 43.1825 111.077C43.2852 111.168 43.395 111.25 43.5108 111.323V111.323L43.5402 111.34C43.6125 111.386 43.6897 111.424 43.7704 111.453H43.7851C44.0493 111.507 44.3217 111.503 44.5843 111.443C44.847 111.383 45.0939 111.267 45.3088 111.104C45.3701 111.06 45.4313 111.011 45.4926 110.962L45.5146 110.942L45.544 110.915L45.593 110.874L45.6126 110.854L45.642 110.824L45.6616 110.805L45.6885 110.775L45.7106 110.753L45.7375 110.724L45.7571 110.702L45.7841 110.672L45.8037 110.648L45.8306 110.616L45.8502 110.591L45.8747 110.559L45.8943 110.535C45.9033 110.523 45.9115 110.511 45.9188 110.498L45.9384 110.473L45.9605 110.436L45.98 110.412C45.9868 110.398 45.995 110.385 46.0045 110.372L46.0217 110.348L46.0437 110.306L46.0609 110.279L46.0829 110.24L46.0976 110.213C46.1067 110.199 46.1149 110.184 46.1221 110.169V110.144C46.1313 110.128 46.1395 110.112 46.1466 110.095V110.095C46.1662 110.056 46.1858 110.014 46.203 109.972V109.948C46.2076 109.932 46.2133 109.918 46.2201 109.903L46.2348 109.866L46.2495 109.825L46.2642 109.785L46.2789 109.744L46.2936 109.702L46.3083 109.658V109.613V109.569V109.525V109.481C46.3083 109.466 46.3083 109.449 46.3206 109.432V109.388C46.3217 109.371 46.3217 109.355 46.3206 109.338V109.294C46.3206 109.275 46.3206 109.257 46.3206 109.243V109.196C46.3217 109.178 46.3217 109.16 46.3206 109.142V109.095C46.3206 109.078 46.3206 109.058 46.3206 109.039V108.992V108.931V108.889C46.3206 108.864 46.3206 108.84 46.3206 108.815V108.781V108.67C46.3402 108.326 46.3598 107.983 46.3769 107.688L46.4259 106.838L46.4063 106.754C46.279 106.209 46.0073 105.709 45.6199 105.305C45.6073 105.291 45.5933 105.278 45.5783 105.266L45.5563 105.246C45.4602 105.167 45.3549 105.099 45.2427 105.045L45.1814 105.018C45.0955 104.983 45.0134 104.939 44.9365 104.888L44.8801 104.851C44.8311 104.816 44.787 104.782 44.743 104.745L44.7185 104.723L44.6768 104.689C44.5348 104.424 44.434 104.139 44.3779 103.844V103.844Z" fill="#FABD99"/>
<path d="M45.5366 101.979C45.2364 101.715 44.8878 101.513 44.5102 101.383C42.8812 100.847 41.4579 102.186 41.3256 104.372L41.2987 104.863L41.2864 105.052L41.2399 105.895C41.2343 106.284 41.091 106.658 40.8357 106.951C40.7094 107.083 40.6118 107.241 40.5491 107.413C40.4764 107.604 40.4351 107.807 40.4266 108.012L40.2919 110.382C40.2659 110.875 40.3944 111.364 40.6593 111.78L40.7548 111.917C40.794 111.971 40.8332 112.023 40.8724 112.072C40.943 112.162 41.0182 112.248 41.0978 112.33C41.1321 112.368 41.1688 112.404 41.208 112.441C41.2448 112.475 41.2815 112.509 41.3207 112.541L41.355 112.571L41.3893 112.598C41.6207 112.789 41.8846 112.937 42.1683 113.035L42.5407 113.158L42.6558 111.136C42.6691 110.818 42.6105 110.5 42.4843 110.208C42.4455 110.114 42.3997 110.024 42.3471 109.938V109.916L42.3275 109.881L42.3006 109.837L42.281 109.805C42.2735 109.788 42.2645 109.771 42.2541 109.756L42.2369 109.726C42.2369 109.704 42.2149 109.685 42.2051 109.663V109.645C42.1897 109.618 42.1758 109.59 42.1634 109.562V109.542L42.134 109.481L42.1193 109.449L42.0924 109.395L42.0777 109.36L42.0556 109.306L42.0385 109.27L42.0164 109.22L42.0017 109.181L41.9797 109.127L41.965 109.09L41.9454 109.036V108.999C41.9454 108.977 41.9282 108.955 41.9209 108.933V108.908C41.9209 108.877 41.9013 108.845 41.8891 108.813V108.793C41.8795 108.769 41.8721 108.745 41.867 108.719V108.683L41.8474 108.621V108.582L41.8303 108.523V108.481L41.8156 108.422V108.38L41.8009 108.321V108.28L41.7886 108.216V108.177C41.7886 108.152 41.7886 108.127 41.7886 108.105V108.071C41.7886 108.037 41.7886 108.002 41.7715 107.968V107.953C41.7715 107.924 41.7715 107.892 41.7715 107.862V107.825C41.7727 107.802 41.7727 107.778 41.7715 107.754V107.71C41.7715 107.69 41.7715 107.668 41.7715 107.646V107.602C41.7715 107.58 41.7715 107.558 41.7715 107.535V107.489C41.7715 107.467 41.7715 107.447 41.7715 107.422V107.378C41.7702 107.355 41.7702 107.332 41.7715 107.309V107.265C41.7715 107.241 41.7715 107.214 41.7715 107.189V107.152C41.7715 107.115 41.7715 107.076 41.7715 107.037L41.8254 106.054L41.8719 105.261V105.212C41.8719 105.212 42.8346 105.529 43.5058 105.246C44.057 105.001 44.4245 104.092 44.4857 103.895L44.5004 103.856C44.6588 104.178 44.8747 104.469 45.1373 104.713L45.179 104.748L45.2035 104.77C45.2476 104.807 45.2917 104.841 45.3407 104.875L45.397 104.912C45.474 104.964 45.5561 105.008 45.642 105.042L45.7032 105.069C45.8154 105.124 45.9207 105.191 46.0168 105.271L46.0388 105.29C46.0539 105.302 46.0678 105.315 46.0805 105.33C46.4678 105.733 46.7395 106.234 46.8668 106.779L46.8864 106.862L46.8374 107.712C46.8203 108.017 46.8007 108.361 46.7811 108.695V108.805V108.84C46.7811 108.864 46.7811 108.889 46.7811 108.913V108.955V109.017V109.063C46.7811 109.083 46.7811 109.103 46.7811 109.12V109.166C46.7822 109.184 46.7822 109.202 46.7811 109.22V109.267C46.7811 109.282 46.7811 109.299 46.7811 109.319V109.363C46.7822 109.379 46.7822 109.396 46.7811 109.412V109.456C46.7811 109.473 46.7811 109.491 46.7688 109.505V109.55V109.594V109.638V109.682L46.7541 109.726L46.7394 109.768L46.7247 109.81L46.71 109.849L46.6953 109.891L46.6806 109.928C46.6739 109.942 46.6681 109.957 46.6635 109.972V109.997C46.6464 110.038 46.6268 110.08 46.6072 110.119C46.6 110.136 46.5918 110.153 46.5827 110.168V110.193C46.5754 110.208 46.5673 110.223 46.5582 110.237L46.5435 110.264L46.5214 110.304L46.5043 110.331L46.4822 110.372L46.4651 110.397C46.4555 110.409 46.4473 110.422 46.4406 110.436L46.421 110.461L46.3989 110.498L46.3793 110.522C46.372 110.535 46.3638 110.547 46.3548 110.559L46.3352 110.584L46.3107 110.616L46.2911 110.64L46.2642 110.672L46.2446 110.697L46.2177 110.726L46.1981 110.748L46.1711 110.778L46.1491 110.8L46.1221 110.829L46.1025 110.849L46.0731 110.878L46.0535 110.898L46.0045 110.94L45.9751 110.967L45.9531 110.986L45.9261 111.009C45.8657 111.058 45.8114 111.115 45.7645 111.178C45.6904 111.277 45.6317 111.388 45.5905 111.505C45.5368 111.652 45.5054 111.807 45.4974 111.964L45.3823 113.988L45.7547 114.113C46.0115 114.2 46.2842 114.228 46.5533 114.197H46.59C46.8215 114.16 47.0432 114.076 47.2416 113.951L47.3494 113.88C47.5097 113.744 47.6383 113.574 47.7263 113.382C47.8143 113.191 47.8596 112.983 47.859 112.772L47.9961 110.402C48.0075 110.181 47.9893 109.96 47.9422 109.744C47.8968 109.524 47.8218 109.312 47.7193 109.112C47.5183 108.719 47.4245 108.279 47.4474 107.838V107.838L47.5086 106.72L47.5331 106.31C47.3396 104.62 46.6292 102.913 45.5366 101.979Z" fill="#9760A3"/>
<path d="M43.7582 116.139L43.7386 116.125C43.7224 116.115 43.7052 116.106 43.6871 116.1V116.1C43.6616 116.094 43.6349 116.092 43.6088 116.096C43.5826 116.099 43.5574 116.108 43.5347 116.122C43.5119 116.135 43.492 116.153 43.4761 116.174C43.4603 116.195 43.4487 116.219 43.4422 116.245C43.4294 116.281 43.422 116.318 43.4201 116.356C43.4142 116.473 43.4507 116.589 43.523 116.682L43.5671 116.727C43.5921 116.749 43.6212 116.765 43.6528 116.776V116.776C43.6787 116.782 43.7057 116.784 43.7321 116.78C43.7585 116.776 43.7839 116.766 43.8067 116.752C43.8295 116.738 43.8493 116.72 43.865 116.698C43.8806 116.677 43.8918 116.652 43.8978 116.626C43.9106 116.591 43.918 116.555 43.9198 116.518C43.9232 116.447 43.9103 116.376 43.8823 116.31C43.8543 116.245 43.8119 116.186 43.7582 116.139V116.139Z" fill="#BA6499"/>
<path d="M43.3785 111.127C43.3626 111.116 43.3479 111.104 43.3344 111.09C43.3479 111.104 43.3626 111.116 43.3785 111.127V111.127ZM43.1335 110.896C43.1972 110.957 43.2609 111.016 43.3222 111.07C43.2707 111.026 43.2168 110.977 43.1629 110.926L43.136 110.896H43.1335ZM43.0747 110.835L43.1335 110.894L43.0747 110.835ZM43.0478 110.808L43.0625 110.822V110.81L43.0478 110.808Z" fill="#ECBCBB"/>
<path d="M45.0908 114.003L45.0688 114.05L45.0908 114.003Z" fill="#FCDECC"/>
<path d="M45.4681 111.126C45.2532 111.289 45.0062 111.405 44.7436 111.465C44.4809 111.525 44.2085 111.528 43.9444 111.475V111.475C43.8585 111.444 43.7763 111.404 43.6994 111.355L43.67 111.337C43.5697 111.274 43.4739 111.203 43.3834 111.126C43.3675 111.115 43.3528 111.103 43.3393 111.089V111.089L43.3173 111.07C43.256 111.016 43.1923 110.957 43.1286 110.895L43.0698 110.836L43.0551 110.822L43.038 110.802C42.9808 110.741 42.9245 110.677 42.869 110.61C43.058 111.367 43.4653 112.05 44.0399 112.575C44.1297 112.653 44.2238 112.725 44.3216 112.792L44.1869 115.14C44.5669 114.857 44.8771 114.491 45.0933 114.069L45.1153 114.022L45.2305 111.998C45.2384 111.841 45.2698 111.686 45.3235 111.539C45.3647 111.422 45.4234 111.312 45.4975 111.212L45.4681 111.126Z" fill="#F7A47A"/>
<path d="M43.1262 110.896L43.1531 110.926L43.1262 110.896ZM43.0649 110.835L43.1237 110.894L43.0649 110.835ZM43.038 110.808V110.82V110.808ZM43.6651 111.338C43.5493 111.265 43.4395 111.183 43.3368 111.093C43.2756 111.043 43.2168 110.987 43.1531 110.928C43.207 110.98 43.2609 111.029 43.3123 111.073L43.3344 111.093C43.3478 111.106 43.3626 111.119 43.3785 111.129C43.4691 111.206 43.5649 111.275 43.6651 111.338V111.338ZM43.6969 111.358L43.6675 111.341L43.6969 111.358ZM45.4681 111.127C45.2532 111.29 45.0062 111.405 44.7436 111.465C44.4809 111.526 44.2085 111.529 43.9443 111.476C44.2085 111.529 44.4809 111.526 44.7436 111.465C45.0062 111.405 45.2532 111.29 45.4681 111.127V111.127Z" fill="#F7A47A"/>
<defs>
<linearGradient id="paint0_linear_201_3035" x1="181.647" y1="143.693" x2="-30.3529" y2="90.6947" gradientUnits="userSpaceOnUse">
<stop stop-color="#8DA6E2"/>
<stop offset="1" stop-color="white"/>
</linearGradient>
</defs>
</svg>
