<svg width="367" height="201" viewBox="0 0 367 201" fill="none" xmlns="http://www.w3.org/2000/svg">
<path d="M288.518 23.5752H170.273V144.303H288.518V23.5752Z" fill="#294B83"/>
<path d="M188.338 15.2363H70.0933V156.531H188.338V15.2363Z" fill="#5689BF"/>
<path style="mix-blend-mode:multiply" d="M188.338 15.2363H70.0933V156.531H188.338V15.2363Z" fill="url(#paint0_linear_195_933)"/>
<path d="M356.021 0.333984H212.321V179.627H356.021V0.333984Z" fill="#E4EDF8"/>
<path d="M143.772 0.333984H0.0712891V179.627H143.772V0.333984Z" fill="#E4EDF8"/>
<g style="mix-blend-mode:multiply">
<path d="M256.24 131.189C257.658 131.189 258.594 130.319 258.751 129.184H257.749C257.566 129.88 256.995 130.286 256.24 130.286C255.088 130.286 254.351 129.341 254.351 127.874C254.351 126.44 255.105 125.504 256.24 125.504C257.094 125.504 257.6 126.034 257.749 126.615H258.751C258.594 125.413 257.575 124.609 256.224 124.609C254.492 124.609 253.34 125.968 253.34 127.907C253.34 129.813 254.442 131.189 256.24 131.189Z" fill="#939393"/>
<path d="M262.592 131.189C264.324 131.189 265.484 129.88 265.484 127.907C265.484 125.918 264.324 124.609 262.592 124.609C260.86 124.609 259.691 125.918 259.691 127.907C259.691 129.88 260.86 131.189 262.592 131.189ZM262.592 130.294C261.299 130.294 260.702 129.175 260.702 127.907C260.702 126.639 261.299 125.504 262.592 125.504C263.876 125.504 264.473 126.639 264.473 127.907C264.473 129.175 263.876 130.294 262.592 130.294Z" fill="#939393"/>
<path d="M267.809 127.236C267.809 126.134 268.489 125.512 269.417 125.512C270.32 125.512 270.859 126.101 270.859 127.087V131.056H271.87V127.012C271.87 125.396 271.008 124.609 269.715 124.609C268.754 124.609 268.157 125.04 267.859 125.695H267.776V124.692H266.798V131.056H267.809V127.236Z" fill="#939393"/>
<path d="M275.757 130.178C275.326 130.178 274.92 130.045 274.92 129.225V125.537H276.263V124.692H274.92V123.167H273.909V124.692H272.948V125.537H273.909V129.49C273.909 130.609 274.804 131.139 275.649 131.139C275.948 131.139 276.196 131.115 276.354 131.09V130.153C276.205 130.161 275.939 130.178 275.757 130.178Z" fill="#939393"/>
<path d="M282.815 127.791C282.815 125.429 281.406 124.609 280.063 124.609C278.339 124.609 277.188 125.968 277.188 127.924C277.188 129.88 278.323 131.189 280.163 131.189C281.472 131.189 282.417 130.534 282.715 129.565H281.638C281.406 129.963 280.925 130.294 280.163 130.294C279.031 130.294 278.248 129.556 278.203 128.214H282.815V127.791ZM278.203 127.352C278.269 126.374 278.965 125.504 280.071 125.504C281.116 125.504 281.787 126.291 281.787 127.352H278.203Z" fill="#939393"/>
<path d="M285.13 127.236C285.13 126.134 285.809 125.512 286.737 125.512C287.641 125.512 288.179 126.101 288.179 127.087V131.056H289.19V127.012C289.19 125.396 288.329 124.609 287.036 124.609C286.074 124.609 285.478 125.04 285.179 125.695H285.097V124.692H284.119V131.056H285.13V127.236Z" fill="#939393"/>
<path d="M293.077 130.178C292.646 130.178 292.24 130.045 292.24 129.225V125.537H293.583V124.692H292.24V123.167H291.229V124.692H290.268V125.537H291.229V129.49C291.229 130.609 292.124 131.139 292.97 131.139C293.268 131.139 293.517 131.115 293.674 131.09V130.153C293.525 130.161 293.26 130.178 293.077 130.178Z" fill="#939393"/>
<path d="M299.292 126.349C299.16 125.313 298.331 124.609 297.013 124.609C295.613 124.609 294.66 125.396 294.66 126.482C294.66 127.336 295.248 127.94 296.359 128.197L297.32 128.421C298.041 128.587 298.364 128.885 298.364 129.333C298.364 129.929 297.792 130.311 296.889 130.311C296.085 130.311 295.629 130.012 295.513 129.391H294.461C294.627 130.551 295.48 131.189 296.906 131.189C298.505 131.189 299.4 130.377 299.4 129.275C299.4 128.388 298.845 127.824 297.71 127.551L296.757 127.319C296.011 127.137 295.671 126.847 295.671 126.424C295.671 125.894 296.226 125.471 297.013 125.471C297.759 125.471 298.165 125.819 298.298 126.349H299.292Z" fill="#939393"/>
<path d="M256.916 68.7082V64.6972C256.916 63.8436 257.595 63.2138 258.515 63.2138C258.772 63.2138 259.046 63.2635 259.12 63.2801V62.2607C259.004 62.2524 258.747 62.2441 258.598 62.2441C257.844 62.2441 257.181 62.6751 256.949 63.3132H256.883V62.3436H255.905V68.7082H256.916Z" fill="#939393"/>
<path d="M265.23 65.443C265.23 63.0812 263.821 62.2607 262.478 62.2607C260.754 62.2607 259.603 63.6198 259.603 65.5756C259.603 67.5314 260.738 68.8408 262.578 68.8408C263.887 68.8408 264.832 68.1861 265.13 67.2165H264.053C263.821 67.6143 263.34 67.9458 262.578 67.9458C261.446 67.9458 260.663 67.2082 260.618 65.8657H265.23V65.443ZM260.618 65.0038C260.684 64.0259 261.38 63.1557 262.487 63.1557C263.531 63.1557 264.202 63.943 264.202 65.0038H260.618Z" fill="#939393"/>
<path d="M271.067 64.001C270.934 62.9651 270.106 62.2607 268.788 62.2607C267.387 62.2607 266.434 63.048 266.434 64.1336C266.434 64.9872 267.023 65.5922 268.133 65.8491L269.094 66.0729C269.815 66.2386 270.139 66.537 270.139 66.9845C270.139 67.5812 269.567 67.9624 268.664 67.9624C267.86 67.9624 267.404 67.664 267.288 67.0425H266.235C266.401 68.2027 267.255 68.8408 268.68 68.8408C270.28 68.8408 271.175 68.0287 271.175 66.9265C271.175 66.0397 270.619 65.4762 269.484 65.2027L268.531 64.9707C267.785 64.7883 267.445 64.4983 267.445 64.0756C267.445 63.5452 268.001 63.1226 268.788 63.1226C269.534 63.1226 269.94 63.4707 270.072 64.001H271.067Z" fill="#939393"/>
<path d="M275.089 68.8408C276.821 68.8408 277.981 67.5314 277.981 65.5591C277.981 63.5701 276.821 62.2607 275.089 62.2607C273.357 62.2607 272.188 63.5701 272.188 65.5591C272.188 67.5314 273.357 68.8408 275.089 68.8408ZM275.089 67.9458C273.796 67.9458 273.2 66.827 273.2 65.5591C273.2 64.2911 273.796 63.1557 275.089 63.1557C276.374 63.1557 276.97 64.2911 276.97 65.5591C276.97 66.827 276.374 67.9458 275.089 67.9458Z" fill="#939393"/>
<path d="M283.315 66.0977C283.315 67.2828 282.411 67.8215 281.69 67.8215C280.878 67.8215 280.306 67.2331 280.306 66.3132V62.3436H279.295V66.3878C279.295 68.0038 280.157 68.7911 281.359 68.7911C282.32 68.7911 282.95 68.2773 283.248 67.6309H283.315V68.7082H284.318V62.3436H283.315V66.0977Z" fill="#939393"/>
<path d="M286.939 68.7082V64.6972C286.939 63.8436 287.619 63.2138 288.539 63.2138C288.796 63.2138 289.069 63.2635 289.144 63.2801V62.2607C289.028 62.2524 288.771 62.2441 288.622 62.2441C287.867 62.2441 287.204 62.6751 286.972 63.3132H286.906V62.3436H285.928V68.7082H286.939Z" fill="#939393"/>
<path d="M292.527 68.8408C293.944 68.8408 294.88 67.9707 295.038 66.8353H294.035C293.852 67.5314 293.281 67.9375 292.527 67.9375C291.375 67.9375 290.637 66.9928 290.637 65.5259C290.637 64.0922 291.391 63.1557 292.527 63.1557C293.38 63.1557 293.886 63.6861 294.035 64.2662H295.038C294.88 63.0646 293.861 62.2607 292.51 62.2607C290.778 62.2607 289.626 63.6198 289.626 65.5591C289.626 67.4651 290.728 68.8408 292.527 68.8408Z" fill="#939393"/>
<path d="M301.605 65.443C301.605 63.0812 300.196 62.2607 298.853 62.2607C297.129 62.2607 295.978 63.6198 295.978 65.5756C295.978 67.5314 297.113 68.8408 298.953 68.8408C300.262 68.8408 301.207 68.1861 301.505 67.2165H300.428C300.196 67.6143 299.715 67.9458 298.953 67.9458C297.821 67.9458 297.038 67.2082 296.993 65.8657H301.605V65.443ZM296.993 65.0038C297.059 64.0259 297.755 63.1557 298.862 63.1557C299.906 63.1557 300.577 63.943 300.577 65.0038H296.993Z" fill="#939393"/>
</g>
<path d="M180.643 6.40479H170.08V164.681H180.643V6.40479Z" fill="#2C518D"/>
<path d="M180.643 6.40479L188.337 15.2344V156.529L180.643 164.681V6.40479Z" fill="#5689BF"/>
<path d="M143.771 0.333984V179.627L150.722 173.202V6.75899L143.771 0.333984Z" fill="url(#paint1_linear_195_933)"/>
<path d="M356.021 0.333984V179.627L362.972 173.202V6.75899L356.021 0.333984Z" fill="url(#paint2_linear_195_933)"/>
<path d="M343.166 118.367L343.074 118.486C342.956 118.696 342.815 118.892 342.652 119.069L341.082 121.123L337.855 125.351L332.928 131.801L330.325 129.882L336.231 118.629L337.378 116.448L336.817 113.219L336.775 112.99L333.822 101.818L341.057 100.909L343.483 115.353C343.681 116.655 343.554 117.628 343.166 118.367Z" fill="white"/>
<path d="M288.518 200.004C331.72 200.004 366.742 198.742 366.742 197.186C366.742 195.629 331.72 194.367 288.518 194.367C245.316 194.367 210.294 195.629 210.294 197.186C210.294 198.742 245.316 200.004 288.518 200.004Z" fill="#F1F1F1"/>
<path d="M338.257 182.058L340.007 192.051C340.066 193.057 339.164 194.025 338.32 194.587C337.84 194.907 337.323 195.167 336.78 195.36L336.177 196.819H337.814L343.049 193.534L342.868 192.114L342.302 182.975L338.257 182.058Z" fill="#FBCCCA"/>
<path d="M343.044 193.539C343.899 194.848 344.358 196.378 344.364 197.943H332.029C331.899 197.942 331.773 197.897 331.671 197.817C331.569 197.736 331.496 197.624 331.464 197.498C331.432 197.372 331.442 197.239 331.493 197.119C331.544 196.999 331.633 196.9 331.746 196.836C332.337 196.551 333.009 196.483 333.645 196.645C333.917 196.698 334.198 196.659 334.446 196.536L336.792 195.352L337.252 196.092L343.044 193.539Z" fill="#272C82"/>
<path d="M343.643 191.88H339.239L338.67 189.027L333.915 165.186C333.767 164.442 333.628 163.702 333.493 162.954L327.967 131.517L328.751 125.599L336.425 123.43C337.4 124.703 338.153 126.132 338.653 127.657C339.668 130.596 339.517 133.814 338.231 136.644L339.766 162.138C339.863 162.362 339.952 162.595 340.049 162.831C340.176 163.178 340.302 163.542 340.42 163.918C340.492 164.125 340.555 164.341 340.619 164.56C341.394 167.534 341.92 170.567 342.192 173.628C342.838 179.575 343.099 186.22 343.643 191.88Z" fill="#182F57"/>
<g style="mix-blend-mode:multiply" opacity="0.5">
<path d="M343.644 191.881H339.24L338.67 189.027C345.083 186.491 340.569 168.779 339.586 165.191C339.395 164.507 339.073 163.868 338.637 163.31C338.355 162.913 337.991 162.583 337.569 162.342L336.181 161.695L338.367 161.674C338.23 155.935 337.794 150.208 337.059 144.516C336.868 143.037 336.16 141.673 335.061 140.667C333.962 139.661 332.543 139.078 331.056 139.02V139.02V137.029L334.182 131.75C334.088 131.739 333.993 131.739 333.899 131.75L335.042 128.478L338.662 127.696C339.677 130.635 339.526 133.852 338.24 136.683L339.776 162.177C339.873 162.401 339.961 162.633 340.058 162.87C340.185 163.217 340.311 163.58 340.43 163.956C340.497 164.163 340.56 164.379 340.624 164.599C341.399 167.572 341.925 170.605 342.197 173.666C342.838 179.576 343.1 186.221 343.644 191.881Z" fill="#182F57"/>
</g>
<g style="mix-blend-mode:multiply">
<path d="M341.074 121.148L337.847 125.375C337.556 125.473 337.24 125.457 336.96 125.331C336.681 125.205 336.46 124.977 336.341 124.695L336.218 118.654L336.159 115.551L336.805 113.243L338.45 107.325L340.804 105.634C340.804 105.634 339.285 110.284 339.116 113.116C339.083 113.679 339.041 114.27 338.99 114.807C338.851 116.646 338.821 120.4 341.074 121.148Z" fill="#DFF2F8"/>
</g>
<path d="M324.285 80.8501C324.285 80.8501 323.509 83.4456 325.352 84.9927L326.715 82.2578L324.285 80.8501Z" fill="#15284B"/>
<path d="M324.169 85.3142C324.098 86.0286 324.355 86.6415 324.739 86.6796C325.123 86.7176 325.494 86.168 325.582 85.4537C325.671 84.7393 325.401 84.1263 325.013 84.0883C324.625 84.0502 324.241 84.5998 324.169 85.3142Z" fill="#15284B"/>
<path d="M324.537 86.6592C324.665 86.1418 324.822 85.6323 325.009 85.1331C325.197 83.8412 325.585 82.5864 326.157 81.4133C326.438 81.2089 326.734 81.0252 327.042 80.8638L328.852 81.798L331.206 83.0112L332.472 85.8349L332.548 86.004L333.24 87.5637L333.198 93.1141H327.646V91.5838C327.59 91.5535 327.532 91.5267 327.473 91.5035L326.338 90.806C326.166 90.7892 326.006 90.7114 325.886 90.5866C325.766 90.4619 325.694 90.2983 325.684 90.1254L325.617 89.0349C325.348 88.4766 325.193 87.87 325.161 87.2509C324.832 87.1918 324.359 87.0819 324.537 86.6592Z" fill="#FBCCCA"/>
<path d="M326.926 83.1668V88.8186C326.931 88.912 326.914 89.0053 326.876 89.0908C326.838 89.1764 326.781 89.2516 326.708 89.3106C326.636 89.3696 326.551 89.4106 326.459 89.4301C326.368 89.4497 326.273 89.4472 326.183 89.423C325.976 89.3315 325.79 89.1993 325.635 89.0342V89.0342C325.521 89.1612 325.441 89.315 325.403 89.4813C325.365 89.6476 325.369 89.8211 325.415 89.9853C325.474 90.2981 325.2 90.5855 325.167 90.9025C325.147 91.0521 325.158 91.2041 325.199 91.3494C325.239 91.4947 325.309 91.6302 325.403 91.748C325.825 92.2341 326.567 92.2425 327.145 92.1241C327.476 92.0648 327.797 91.9595 328.099 91.8113C328.189 91.7624 328.27 91.698 328.339 91.6211C328.351 91.6106 328.361 91.5976 328.369 91.583C328.44 91.4986 328.497 91.4029 328.537 91.2999C328.693 90.8654 328.693 90.3901 328.537 89.9556C328.198 88.9721 327.952 87.9587 327.803 86.9289L327.575 85.3312C327.595 85.2486 327.643 85.1754 327.71 85.124C327.76 85.0881 327.818 85.0646 327.879 85.0558C327.94 85.047 328.002 85.053 328.061 85.0733C329.077 85.4452 328.681 87.4278 329.128 88.1549C329.21 88.2859 329.307 88.4077 329.415 88.5184C329.713 88.8248 330.072 89.0641 330.469 89.2201C330.672 89.3081 330.883 89.3774 331.098 89.4273C331.409 89.504 331.727 89.5479 332.047 89.5583C332.21 89.5668 332.374 89.5668 332.537 89.5583C332.773 89.5459 333.006 89.493 333.224 89.4019C334.068 89.013 333.954 87.9816 334.435 86.9121C334.711 86.4487 335.053 86.0284 335.452 85.665C336.071 85.5576 336.628 85.2235 337.014 84.7274C337.401 84.2314 337.59 83.609 337.544 82.9813C337.498 82.3535 337.221 81.7651 336.767 81.3306C336.312 80.8962 335.713 80.6467 335.085 80.6305C334.943 80.632 334.802 80.6448 334.663 80.6686C334.575 79.7746 334.158 78.9454 333.494 78.3422C332.829 77.739 331.965 77.4051 331.068 77.4052C330.612 77.4029 330.159 77.4904 329.735 77.663C329.422 77.2398 329.017 76.8941 328.55 76.6526C328.082 76.411 327.566 76.2801 327.041 76.2697C326.515 76.2593 325.994 76.3698 325.518 76.5927C325.042 76.8157 324.623 77.1451 324.293 77.5556C323.964 77.9661 323.733 78.4469 323.618 78.9609C323.503 79.4749 323.507 80.0084 323.63 80.5205C323.753 81.0326 323.992 81.5097 324.328 81.915C324.663 82.3202 325.088 82.6429 325.567 82.8582C325.994 83.0546 326.456 83.1597 326.926 83.1668V83.1668Z" fill="#1E3565"/>
<path d="M330.443 89.2036V92.839H333.198V89.4065C334.042 89.0176 333.928 87.9862 334.409 86.9167C334.685 86.4533 335.028 86.033 335.426 85.6697C335.426 85.6697 336.164 83.4673 334.012 83.2348C333.619 83.1951 333.224 83.2842 332.886 83.4885C332.484 83.7341 332.124 84.0423 331.819 84.4015C331.076 85.2808 330.355 86.7688 330.443 89.2036Z" fill="#EAADAD"/>
<path d="M331.835 84.4015C332.14 84.0423 332.5 83.7341 332.902 83.4885C333.24 83.2842 333.636 83.1951 334.029 83.2348C336.18 83.4673 335.442 85.6697 335.442 85.6697C335.044 86.0331 334.701 86.4533 334.425 86.9168C333.944 87.9862 334.075 89.0303 333.214 89.4065C332.996 89.4977 332.763 89.5506 332.527 89.563C332.364 89.5735 332.2 89.5735 332.037 89.563C331.717 89.5562 331.399 89.5136 331.088 89.4361C330.873 89.3863 330.662 89.317 330.46 89.229V89.1994C330.354 86.7688 331.075 85.2808 331.835 84.4015Z" fill="#15284B"/>
<path d="M324.538 85.0776L327.782 85.4074C327.834 85.4124 327.883 85.4382 327.917 85.479C327.95 85.5198 327.966 85.5723 327.961 85.625C327.956 85.6777 327.93 85.7263 327.89 85.76C327.849 85.7937 327.797 85.8097 327.744 85.8047L324.496 85.4792L324.538 85.0776Z" fill="#15284B"/>
<path d="M326.161 181.584L327.212 192.051C327.271 193.057 326.368 194.025 325.524 194.587C325.045 194.908 324.528 195.167 323.985 195.361L323.381 196.819H325.018L330.254 193.535L330.072 192.114L329.621 183.263L326.161 181.584Z" fill="#FBCCCA"/>
<path d="M330.248 193.539C331.101 194.855 331.553 196.391 331.552 197.96H319.216C319.086 197.96 318.959 197.916 318.857 197.836C318.754 197.755 318.68 197.643 318.647 197.517C318.615 197.391 318.625 197.257 318.676 197.137C318.727 197.017 318.816 196.917 318.929 196.853C319.522 196.568 320.195 196.501 320.832 196.662C321.104 196.715 321.385 196.676 321.633 196.552L323.979 195.369L324.439 196.109L330.248 193.539Z" fill="#272C82"/>
<path d="M334.79 132.477C334.532 133.286 334.18 134.062 333.744 134.79C333.227 135.651 332.605 136.445 331.892 137.153L331.25 145.112L330.715 151.774L329.871 162.182C330.057 162.841 330.213 163.509 330.339 164.194C330.85 167.009 330.858 170.04 330.761 173.642C330.651 178.406 330.39 184.154 330.959 191.687H326.365C326.247 190.546 326.129 189.392 326.007 188.238C324.956 178.384 323.796 168.235 322.898 158.694C321.788 146.884 321.083 136.016 321.51 127.777C321.535 127.236 321.573 126.707 321.611 126.188H334.997C335.516 128.262 335.444 130.441 334.79 132.477Z" fill="#182F57"/>
<g style="mix-blend-mode:multiply" opacity="0.5">
<path d="M334.789 132.477C334.53 133.286 334.179 134.062 333.742 134.789C333.225 135.651 332.603 136.445 331.89 137.152L331.249 145.112L330.713 151.774L329.87 162.181C330.055 162.841 330.211 163.509 330.338 164.193C330.848 167.009 330.857 170.04 330.76 173.641C330.65 178.405 330.389 184.154 330.958 191.687H326.364C326.246 190.546 326.128 189.392 326.005 188.238C332.207 185.756 329.38 164.718 329.38 164.718C328.891 162.464 326.364 161.856 326.364 161.856H328.688L329.604 151.791C331.194 139.646 327.992 136.434 327.992 136.434L329.882 136.391C332.814 136.227 334.401 133.331 334.789 132.477Z" fill="#182F57"/>
</g>
<path d="M320.317 127.869C320.216 129.28 321.132 129.673 322.03 129.728C322.717 129.771 323.401 129.6 323.988 129.238C324.717 128.777 326.219 128.731 327.363 128.782C331.261 129.179 334.003 129.035 335.918 128.689C337.11 128.516 338.257 128.109 339.293 127.492C339.577 127.314 339.795 127.048 339.915 126.735C340.034 126.421 340.048 126.077 339.955 125.755C339.259 123.426 337.373 118.666 337.348 117.973C337.236 115.478 337.721 112.992 338.761 110.723C339.787 108.386 341.056 106.099 341.103 103.503C341.153 100.637 340.727 96.9046 337.816 95.311L334.787 93.6582H334.678C333.412 93.1087 331.974 93.1171 330.181 93.0748H329.864C329.47 93.0389 329.073 93.0389 328.679 93.0748C325.759 93.3834 323.064 94.3429 321.566 96.7609C321.216 97.328 320.942 97.9392 320.752 98.5786C319.301 103.431 320.857 107.709 321.659 112.465C321.992 114.45 322.134 116.463 322.081 118.476C322.054 120.435 321.752 122.38 321.182 124.254C320.939 124.893 320.886 125.589 321.03 126.258C320.815 126.681 320.634 126.977 320.511 127.184C320.4 127.396 320.334 127.629 320.317 127.869V127.869Z" fill="white"/>
<g style="mix-blend-mode:multiply">
<path d="M320.318 127.87C320.216 129.282 321.132 129.675 322.031 129.73C322.718 129.773 323.401 129.601 323.988 129.24C324.718 128.779 326.22 128.733 327.363 128.783C331.261 129.181 334.003 129.037 335.918 128.69C333.533 128.328 331.34 127.168 329.695 125.399C328.05 123.63 327.05 121.357 326.857 118.947L326.519 114.804C326.452 113.959 326.519 114.851 326.452 113.993C326.317 112.327 329.029 104.515 329.029 104.515C330.797 98.3142 327.903 96.2979 327.903 96.2979L321.575 96.7206C321.224 97.2877 320.951 97.8989 320.761 98.5383C319.309 103.391 320.866 107.669 321.668 112.424C322.001 114.41 322.142 116.423 322.09 118.435C322.063 120.394 321.76 122.34 321.191 124.214C320.948 124.853 320.895 125.549 321.039 126.218C320.824 126.64 320.643 126.936 320.52 127.143C320.4 127.368 320.331 127.616 320.318 127.87V127.87Z" fill="#DFF2F8"/>
</g>
<path d="M328.368 96.8855C328.111 96.402 327.759 95.9754 327.333 95.6312C326.908 95.2869 326.418 95.032 325.892 94.8818L325.698 94.8269C325.146 94.6712 324.567 94.6345 324 94.7193C323.432 94.8041 322.889 95.0084 322.407 95.3188C321.924 95.6291 321.512 96.0385 321.199 96.5198C320.886 97.0012 320.678 97.5437 320.589 98.1114L318.421 112.082L315.366 111.524L314.522 115.654L319.614 117.489C319.998 117.627 320.406 117.686 320.813 117.664C321.22 117.641 321.619 117.537 321.985 117.358C322.352 117.179 322.679 116.928 322.947 116.62C323.215 116.312 323.419 115.953 323.546 115.565L328.634 100.06C328.806 99.5404 328.871 98.9912 328.825 98.4456C328.78 97.9 328.624 97.3692 328.368 96.8855V96.8855Z" fill="white"/>
<path d="M315.365 111.527L314.522 115.653L313.631 115.315L309.493 113.751L303.363 111.438C302.578 111.738 301.728 111.824 300.899 111.688C300.478 111.595 299.554 111.328 299.351 110.889C299.322 110.821 299.351 110.428 299.313 110.415C299.127 110.277 298.987 110.086 298.911 109.866C298.836 109.646 298.829 109.409 298.891 109.185C298.737 109.034 298.647 108.829 298.639 108.612C298.631 108.396 298.706 108.185 298.849 108.023L298.191 107.871C297.554 107.693 297.643 107.389 297.643 107.389C297.575 107.089 297.786 106.966 297.997 106.907C298.109 106.885 298.223 106.885 298.335 106.907L302.174 107.329C302.367 107.355 302.552 107.429 302.709 107.545C302.939 107.709 303.127 107.925 303.258 108.175L303.929 109.443L313.53 111.202L315.365 111.527Z" fill="#FBCCCA"/>
<path d="M315.365 111.528L313.636 115.333L309.497 113.769C310.354 113.843 311.212 113.636 311.941 113.178C312.67 112.721 313.231 112.038 313.539 111.232L315.365 111.528Z" fill="#EAADAD"/>
<path d="M313.413 115.796C313.358 115.777 313.311 115.74 313.28 115.691C313.249 115.642 313.235 115.584 313.24 115.526C313.358 113.973 313.75 112.455 314.4 111.041C314.418 110.995 314.452 110.957 314.495 110.934C314.538 110.91 314.588 110.903 314.636 110.914L317.02 111.434C317.08 111.448 317.133 111.482 317.17 111.532C317.207 111.581 317.226 111.643 317.222 111.704C317.191 113.365 316.716 114.986 315.847 116.401C315.819 116.455 315.772 116.497 315.716 116.519C315.659 116.542 315.596 116.543 315.539 116.523L313.413 115.796Z" fill="white"/>
<g filter="url(#filter0_d_195_933)">
<path d="M72.6679 26.5439C72.1761 26.5718 71.695 26.6945 71.2534 26.905L52.0979 35.7096C51.0976 36.1684 50.3706 37.0412 50.1214 38.0813L45.4326 57.8421C45.2092 58.7696 45.3896 59.7418 45.9482 60.5368C46.0135 60.6328 46.0823 60.7256 46.1545 60.815L59.3889 76.672C60.0884 77.5001 61.1385 77.9754 62.2454 77.9705H83.472C84.5823 77.9721 85.6342 77.4736 86.332 76.6571L99.5595 60.7968C100.254 59.9687 100.513 58.8756 100.247 57.8388L95.5273 38.0615C95.2781 37.0213 94.5476 36.1485 93.5507 35.6897L74.4262 26.9066C73.8751 26.6447 73.2647 26.52 72.6507 26.5439H72.6679Z" fill="#326CE5"/>
</g>
<path d="M72.8434 33.2778C72.1834 33.3226 71.6832 33.8675 71.7176 34.5035V34.8148C71.7485 35.1676 71.8035 35.5171 71.8757 35.8632C71.9811 36.5261 72.0191 37.1973 71.9891 37.8673C71.9238 38.0876 71.7932 38.2863 71.6145 38.4387L71.5887 38.9058C70.8926 38.9621 70.2016 39.0648 69.521 39.2138C66.6576 39.8366 64.0502 41.2676 62.0376 43.3296L61.6251 43.0481C61.3982 43.1143 61.1541 43.0895 60.9462 42.9818C60.3883 42.5839 59.8719 42.1346 59.4045 41.6402C59.1696 41.3699 58.9188 41.1127 58.6534 40.8701L58.399 40.6746C58.1721 40.4991 57.8937 40.3981 57.6032 40.3848C57.4299 40.3759 57.2568 40.4067 57.0982 40.4747C56.9396 40.5426 56.7999 40.6458 56.6905 40.7757C56.3021 41.3007 56.4293 42.0278 56.9724 42.4038L57.2096 42.586C57.5149 42.7817 57.8317 42.9603 58.1584 43.1209C58.7668 43.4472 59.3409 43.8298 59.8737 44.2803C60.01 44.4676 60.0892 44.6879 60.1023 44.9163L60.477 45.2476C58.454 48.1725 57.6238 51.7152 58.1429 55.195L57.6616 55.3275C57.5362 55.5196 57.3695 55.6836 57.1701 55.8045C56.4986 55.9773 55.8113 56.0865 55.1179 56.1308C54.7499 56.138 54.3826 56.1656 54.0179 56.2136L53.7137 56.2798H53.6793C53.4682 56.3081 53.2693 56.3922 53.1049 56.5229C52.9405 56.6536 52.8169 56.8257 52.748 57.02C52.679 57.2144 52.6674 57.4233 52.7144 57.6237C52.7614 57.824 52.8651 58.0078 53.0141 58.1547C53.1645 58.3008 53.3541 58.4038 53.5617 58.452C53.7693 58.5003 53.9868 58.492 54.1898 58.428H54.2121L54.5215 58.3949C54.8704 58.2955 55.2141 58.1729 55.5493 58.0338C56.1938 57.7854 56.8624 57.5949 57.5465 57.4707C57.7837 57.4839 58.0105 57.5618 58.203 57.6943L58.7187 57.6115C59.8359 60.9521 62.1837 63.7826 65.3187 65.5664L65.109 65.9888C65.2052 66.1826 65.2413 66.3979 65.2121 66.6115C64.9285 67.2442 64.5813 67.8504 64.1757 68.4201C63.9532 68.7028 63.7477 68.9975 63.5604 69.3029L63.4143 69.6011C63.3083 69.7782 63.2552 69.9802 63.2608 70.1847C63.2664 70.3891 63.3306 70.5881 63.4462 70.7596C63.5617 70.9311 63.7243 71.0685 63.9158 71.1567C64.1073 71.2448 64.3204 71.2802 64.5315 71.259C64.7431 71.236 64.9439 71.157 65.1117 71.0307C65.2795 70.9044 65.4077 70.7357 65.482 70.5435L65.6246 70.2619C65.7552 69.9306 65.8652 69.5928 65.9546 69.2516C66.2588 68.5278 66.4238 67.751 66.8398 67.2707C66.9757 67.1476 67.147 67.0668 67.3313 67.0388L67.5891 66.5867C70.9875 67.8454 74.7479 67.8542 78.1526 66.6115L78.3812 67.0339C78.6149 67.067 78.8246 67.1912 78.9655 67.3734C79.2887 67.9663 79.5499 68.5874 79.7493 69.2284C79.8402 69.5716 79.9515 69.9095 80.0827 70.2404L80.2254 70.5219C80.3004 70.7135 80.429 70.8813 80.5968 71.0068C80.7647 71.1323 80.9653 71.2106 81.1764 71.2331C81.3876 71.2555 81.6011 71.2213 81.7933 71.134C81.9856 71.0468 82.149 70.9101 82.2655 70.7389C82.381 70.5667 82.4446 70.3671 82.4495 70.1621C82.4543 69.9572 82.4002 69.755 82.293 69.5779L82.1435 69.2797C81.9562 68.9754 81.7507 68.6818 81.5282 68.4003C81.1329 67.8504 80.7926 67.2641 80.497 66.6496C80.4694 66.5373 80.4655 66.4207 80.4856 66.3069C80.5057 66.1931 80.5493 66.0844 80.6138 65.9871C80.5405 65.8427 80.4768 65.6938 80.423 65.5416C83.5512 63.7446 85.8887 60.9041 86.9938 57.5585L87.482 57.6413C87.6573 57.4872 87.8876 57.4061 88.123 57.4127C88.8054 57.5386 89.474 57.744 90.1202 57.9758C90.4554 58.1249 90.7991 58.2508 91.148 58.3568C91.2305 58.3783 91.3509 58.3965 91.4437 58.4181H91.466C91.6689 58.4812 91.8859 58.4888 92.093 58.4401C92.3001 58.3914 92.4891 58.2882 92.639 58.1421C92.7888 57.996 92.8936 57.8126 92.9418 57.6125C92.9899 57.4124 92.9794 57.2033 92.9115 57.0086C92.842 56.814 92.7178 56.6419 92.5527 56.5115C92.3876 56.381 92.1881 56.2974 91.9765 56.2699L91.643 56.1937C91.2783 56.1458 90.9111 56.1181 90.543 56.1109C89.8487 56.0678 89.1612 55.9585 88.4909 55.7846C88.2846 55.6736 88.1127 55.508 87.9959 55.3076L87.5318 55.1751C88.0266 51.697 87.1789 48.1648 85.1496 45.2492L85.5552 44.8881C85.538 44.6612 85.6154 44.436 85.7684 44.2621C86.296 43.8248 86.8684 43.4389 87.4699 43.1093C87.7965 42.9487 88.1133 42.77 88.4187 42.5744L88.6696 42.3789C88.8544 42.2684 89.0029 42.1098 89.098 41.9213C89.1931 41.7329 89.2308 41.5223 89.2069 41.314C89.183 41.1058 89.0984 40.9083 88.9628 40.7444C88.8273 40.5806 88.6464 40.457 88.441 40.3881C88.2358 40.3193 88.0146 40.3078 87.8029 40.355C87.5913 40.4022 87.3978 40.5061 87.2448 40.6548L86.9904 40.8502C86.725 41.0929 86.4742 41.35 86.2393 41.6204C85.7855 42.1206 85.2837 42.576 84.7388 42.9835C84.519 43.0697 84.2784 43.095 84.0445 43.0563L83.6096 43.3545C81.1002 40.8204 77.7195 39.247 74.0963 38.9323C74.0963 38.7666 74.074 38.5182 74.0705 38.4404C73.8763 38.3112 73.7405 38.1141 73.6959 37.8905C73.672 37.2216 73.7158 36.5521 73.8265 35.8914C73.9004 35.5436 73.952 35.1958 73.9846 34.843V34.5117C74.019 33.8757 73.5205 33.3308 72.8588 33.2861L72.8434 33.2778ZM71.4099 41.834L71.0662 47.6193H71.0404C71.0232 47.9771 70.8049 48.2818 70.4698 48.4541C70.1346 48.6263 69.7376 48.575 69.4385 48.3646L64.5143 45.0024C66.0816 43.519 68.0479 42.487 70.1913 42.0228C70.5935 41.94 70.9991 41.8771 71.4065 41.834H71.4099ZM74.2768 41.834C76.8635 42.1437 79.2715 43.2634 81.1346 45.0206L76.2568 48.3613C75.956 48.5932 75.5435 48.6396 75.1946 48.4806C74.8457 48.3216 74.6223 47.9837 74.6171 47.6127L74.2768 41.834ZM62.7268 47.1787L67.2299 51.0511V51.0759C67.5101 51.3111 67.6321 51.6771 67.5496 52.0266C67.4671 52.3761 67.1887 52.6526 66.8329 52.7471V52.7636L61.0545 54.3652C60.7685 51.8565 61.3575 49.3275 62.7285 47.1771L62.7268 47.1787ZM82.9273 47.1787C84.2954 49.3236 84.9004 51.8394 84.6495 54.3453L78.8624 52.7388V52.7172C78.5015 52.6228 78.2265 52.3462 78.1457 51.9968C78.0649 51.6473 78.1852 51.2846 78.4654 51.0461L82.9341 47.192L82.9273 47.1787ZM71.9204 51.3525H73.7629L74.8887 52.7305L74.4796 54.453L72.8245 55.2198L71.1659 54.453L70.7757 52.7305L71.9204 51.3525ZM77.8226 56.0529C77.8999 56.0446 77.9945 56.0446 78.0546 56.0529L84.0135 57.0218C83.1541 59.4068 81.4577 61.444 79.244 62.8071L76.9409 57.4342C76.8775 57.2901 76.8511 57.1334 76.8637 56.9773C76.8763 56.8213 76.9277 56.6704 77.0134 56.5375C77.0992 56.4045 77.2168 56.2934 77.3564 56.2134C77.496 56.1334 77.6535 56.0869 77.8157 56.0778L77.8226 56.0529ZM67.8143 56.0778C68.1512 56.0827 68.4623 56.25 68.6462 56.5216C68.8301 56.7933 68.8593 57.1345 68.727 57.4326V57.4541L66.4376 62.7839C64.2462 61.4308 62.5824 59.4184 61.6973 57.0583L67.6046 56.0927C67.6699 56.0861 67.737 56.0861 67.804 56.0927L67.8143 56.0778ZM72.8055 58.3965C72.9933 58.3908 73.1791 58.4355 73.342 58.5256C73.505 58.6156 73.6388 58.7476 73.7285 58.9066H73.7509L76.6624 63.9698L75.4988 64.3011C73.3573 64.7731 71.1212 64.6621 69.0398 63.9797L71.9616 58.9166C72.1387 58.6185 72.4652 58.4363 72.821 58.428L72.8055 58.3965Z" fill="white" stroke="white" stroke-width="0.11"/>
<g filter="url(#filter1_d_195_933)">
<path d="M82.595 131.413L74.2314 141.098L81.6967 149.815L82.179 150.439C85.0288 153.66 88.5296 156.239 92.4498 158.003C96.37 159.768 100.62 160.68 104.919 160.677L100.218 155.972L98.6288 154.381L100.218 152.79L104.987 148.017C102.531 148.017 100.102 147.507 97.8539 146.518C95.6055 145.53 93.5866 144.085 91.9251 142.275L91.0269 141.237L82.595 131.413Z" fill="#2DDF9D"/>
<path d="M122.887 130.167C122.885 134.299 121.451 138.302 118.829 141.494C116.208 144.686 112.561 146.869 108.511 147.67L101.872 154.316L108.023 160.473C115.532 159.733 122.501 156.233 127.582 150.649C132.662 145.065 135.494 137.794 135.529 130.241L130.831 134.944L129.242 136.535L127.65 134.944L122.881 130.171L122.887 130.167Z" fill="#2DDF9D"/>
<path d="M105.126 99.7285L109.826 104.433L111.416 106.024L109.826 107.615L105.058 112.32C109.186 112.322 113.185 113.758 116.373 116.382C119.562 119.006 121.742 122.656 122.542 126.709L129.182 133.355L135.333 127.198C133.814 111.634 120.75 99.7344 105.13 99.7344L105.126 99.7285Z" fill="#2DDF9D"/>
<path d="M102.085 99.8676C94.1479 100.632 86.8275 104.482 81.6961 110.59L73.2642 120.483L68.7729 125.672L75.8907 125.74H78.1031V134.241L81.618 130.16L90.4053 119.996L92.8931 117.091C95.3306 114.824 98.343 113.269 101.602 112.596L108.242 105.95L102.09 99.8638L102.085 99.8676Z" fill="#2DDF9D"/>
<path d="M66.905 127.885L55.4308 141.236L54.5325 142.274C52.8707 144.084 50.8515 145.529 48.6027 146.518C46.354 147.506 43.9248 148.017 41.4688 148.017V148.017L46.2393 152.79L47.8288 154.381L46.2393 155.972L41.539 160.608C45.8362 160.603 50.0837 159.688 54.0024 157.923C57.9212 156.159 61.4226 153.584 64.2766 150.368L64.7609 149.747L75.8915 136.878L75.9618 127.955L66.907 127.885H66.905Z" fill="#2267BC"/>
<path d="M23.64 130.168L18.8715 134.941L17.2819 136.532L15.6905 134.941L11.0605 130.238C11.0603 137.802 13.8801 145.092 18.968 150.684C24.0558 156.276 31.0455 159.765 38.5687 160.47L44.7198 154.313L38.016 147.667C33.9672 146.864 30.3218 144.681 27.7006 141.489C25.0793 138.298 23.6443 134.296 23.64 130.164V130.168Z" fill="#2267BC"/>
<path d="M41.4021 99.729C33.8461 99.7287 26.562 102.551 20.9757 107.644C15.3894 112.737 11.9031 119.733 11.1992 127.263L17.3503 133.42L23.9896 126.774C24.7897 122.721 26.97 119.071 30.1585 116.447C33.3471 113.823 37.3464 112.387 41.4744 112.385L36.7058 107.541L35.1163 106.021L36.7058 104.43L41.406 99.7251L41.4021 99.729Z" fill="#2267BC"/>
<path d="M44.3743 99.8677L38.2915 106.025L44.9308 112.67C48.2158 113.327 51.2544 114.883 53.7083 117.166L56.1961 120.072L63.9367 129.063L72.3003 119.378L64.835 110.661C59.6917 104.52 52.3462 100.645 44.3782 99.8696L44.3743 99.8677Z" fill="#2267BC"/>
</g>
<path d="M84.7262 142.992C85.0306 142.62 85.3968 142.172 85.6899 141.858C85.3309 142.078 84.9367 142.299 84.4863 142.533L82.8965 143.357L82.6495 143.128L83.3438 141.542C83.5496 141.071 83.7492 140.649 83.951 140.281C83.6523 140.59 83.2439 140.999 82.8743 141.36L81.8091 142.39L81.4976 142.105L83.9963 139.719L84.4171 140.103L83.7272 141.732C83.5461 142.143 83.3791 142.501 83.2004 142.836C83.5008 142.637 83.8445 142.44 84.2577 142.223L85.8343 141.405L86.2523 141.787L84.0875 144.479L83.7676 144.186L84.7262 142.992Z" fill="#2267BC"/>
<path d="M87.1087 145.517C87.0055 145.653 86.8749 145.764 86.7256 145.846C86.5762 145.927 86.4114 145.976 86.242 145.989C86.0725 146.002 85.9022 145.979 85.7422 145.922C85.5821 145.864 85.436 145.774 85.3133 145.656C85.1911 145.547 85.0931 145.413 85.0254 145.264C84.9577 145.115 84.9219 144.953 84.9203 144.789C84.9186 144.625 84.9512 144.462 85.0158 144.312C85.0804 144.161 85.1757 144.025 85.2957 143.914C85.8555 143.302 86.5837 143.321 87.0882 143.772C87.5928 144.223 87.6192 144.959 87.1087 145.517ZM85.6432 144.222C85.2777 144.621 85.2304 145.134 85.5559 145.433C85.8814 145.731 86.3754 145.641 86.7592 145.228C87.0417 144.919 87.2449 144.383 86.8522 144.025C86.4595 143.667 85.959 143.866 85.6427 144.211L85.6432 144.222Z" fill="#2267BC"/>
<path d="M87.8974 145.498C88.0683 145.307 88.2081 145.15 88.3342 144.988L88.6148 145.248L88.3571 145.566C88.5142 145.514 88.6827 145.506 88.8442 145.542C89.0058 145.579 89.1543 145.659 89.2738 145.774C89.5263 146.004 89.7817 146.514 89.2091 147.143L88.214 148.235L87.8802 147.932L88.8416 146.876C89.1003 146.582 89.2272 146.236 88.9131 145.95C88.8106 145.86 88.6818 145.804 88.5456 145.792C88.4094 145.78 88.2728 145.812 88.156 145.883C88.0947 145.918 88.0398 145.963 87.9936 146.016L86.9907 147.117L86.6569 146.814L87.8974 145.498Z" fill="#2267BC"/>
<path d="M91.2831 146.741C91.2589 146.77 91.229 146.793 91.1952 146.81C91.1614 146.826 91.1245 146.836 91.0869 146.837C91.0492 146.839 91.0117 146.832 90.9767 146.818C90.9417 146.805 90.91 146.783 90.8835 146.757C90.8568 146.732 90.8352 146.703 90.82 146.671C90.8047 146.638 90.7961 146.603 90.7947 146.567C90.7933 146.531 90.799 146.495 90.8117 146.461C90.8243 146.427 90.8435 146.396 90.8682 146.37C90.8924 146.342 90.9223 146.319 90.9558 146.302C90.9894 146.286 91.026 146.277 91.0633 146.275C91.1005 146.274 91.1377 146.28 91.1725 146.294C91.2072 146.307 91.2388 146.328 91.2651 146.354C91.292 146.378 91.3138 146.408 91.3293 146.44C91.3448 146.473 91.3537 146.508 91.3553 146.544C91.357 146.58 91.3515 146.616 91.3391 146.65C91.3267 146.683 91.3077 146.714 91.2831 146.741V146.741ZM88.7743 148.735L90.4433 146.907L90.7744 147.21L89.1054 149.038L88.7743 148.735Z" fill="#2267BC"/>
<path d="M92.205 147.565L91.7256 148.09L92.2024 148.523L91.9719 148.779L91.4949 148.343L90.5956 149.329C90.3883 149.556 90.3416 149.742 90.5213 149.911C90.5846 149.971 90.6558 150.023 90.7329 150.065L90.5216 150.328C90.397 150.275 90.2831 150.199 90.1856 150.105C90.1161 150.048 90.0595 149.977 90.0195 149.897C89.9795 149.816 89.957 149.728 89.9535 149.638C89.977 149.409 90.0865 149.196 90.2599 149.044L91.1695 148.047L90.8889 147.788L91.1195 147.535L91.4002 147.795L91.7993 147.357L92.205 147.565Z" fill="#2267BC"/>
<path d="M93.3868 151.256C93.2836 151.391 93.1531 151.503 93.0037 151.584C92.8544 151.665 92.6896 151.714 92.5201 151.727C92.3507 151.74 92.1803 151.718 92.0203 151.66C91.8603 151.603 91.7141 151.512 91.5914 151.395C91.4689 151.286 91.3706 151.153 91.3027 151.003C91.2349 150.854 91.199 150.693 91.1973 150.529C91.1957 150.365 91.2283 150.202 91.2932 150.052C91.358 149.902 91.4537 149.766 91.5739 149.655C92.131 149.043 92.8587 149.049 93.3637 149.511C93.8687 149.973 93.8974 150.697 93.3868 151.256ZM91.9186 149.961C91.5532 150.362 91.5085 150.873 91.834 151.171C92.1595 151.47 92.6535 151.38 93.0373 150.967C93.3198 150.658 93.5236 150.135 93.1303 149.764C92.737 149.392 92.237 149.602 91.9182 149.95L91.9186 149.961Z" fill="#2267BC"/>
<path d="M94.1058 151.311C94.3027 151.095 94.4657 150.907 94.6234 150.725L94.9041 150.985L94.5887 151.352L94.6029 151.368C94.7358 151.284 94.8915 151.246 95.0478 151.256C95.2041 151.267 95.3531 151.327 95.4733 151.428C95.5063 151.457 95.535 151.49 95.5583 151.527L95.2705 151.839C95.2409 151.797 95.2067 151.759 95.1686 151.724C95.049 151.628 94.8987 151.578 94.7453 151.584C94.5919 151.59 94.4459 151.652 94.3344 151.757C94.2786 151.8 94.2263 151.848 94.1777 151.899L93.2888 152.873L92.9606 152.575L94.1058 151.311Z" fill="#2267BC"/>
<path d="M80.8794 118.465C81.0269 118.219 81.196 117.988 81.3847 117.772C81.5897 117.479 81.899 117.275 82.2493 117.202C82.3707 117.189 82.4935 117.202 82.6095 117.24C82.7256 117.278 82.8321 117.341 82.922 117.423C83.0727 117.551 83.1777 117.724 83.2211 117.917C83.2645 118.11 83.2439 118.312 83.1625 118.492V118.492C83.299 118.427 83.4502 118.4 83.6006 118.413C83.751 118.426 83.8953 118.478 84.019 118.565C84.3034 118.73 84.6018 118.869 84.9106 118.981L84.608 119.33C84.3397 119.233 84.081 119.11 83.8353 118.965C83.4084 118.732 83.1544 118.754 82.8788 119.052L82.6086 119.368L83.738 120.344L83.4489 120.682L80.8794 118.465ZM82.36 119.154L82.6573 118.811C82.968 118.451 82.968 118.051 82.6573 117.794C82.3465 117.537 81.9629 117.621 81.6521 117.972C81.5479 118.081 81.4572 118.202 81.3819 118.332L82.36 119.154Z" fill="#2267BC"/>
<path d="M84.5377 117.656C84.618 117.738 84.7151 117.802 84.8223 117.843C84.9296 117.884 85.0444 117.901 85.1589 117.893C85.2735 117.885 85.385 117.853 85.4857 117.798C85.5865 117.743 85.6742 117.667 85.7428 117.575C85.9022 117.401 86.022 117.196 86.094 116.972L86.3885 117.126C86.2998 117.393 86.1562 117.639 85.967 117.848C85.867 117.98 85.7397 118.088 85.5938 118.167C85.4479 118.245 85.2869 118.291 85.1218 118.301C84.9566 118.311 84.7912 118.286 84.6368 118.226C84.4824 118.167 84.3426 118.074 84.227 117.956C83.6623 117.466 83.5029 116.75 83.9757 116.203C84.5026 115.59 85.1808 115.892 85.5266 116.19C85.5942 116.252 85.6428 116.306 85.6752 116.339L84.5377 117.656ZM85.1565 116.447C85.0964 116.378 85.0224 116.324 84.9395 116.286C84.8565 116.248 84.7665 116.229 84.6755 116.229C84.5845 116.229 84.4945 116.248 84.4116 116.286C84.3287 116.324 84.2547 116.378 84.1946 116.447C83.8974 116.79 84.0865 117.215 84.2973 117.448L85.1565 116.447Z" fill="#2267BC"/>
<path d="M84.1758 114.286L84.4703 113.945L87.2181 116.319L86.9236 116.66L84.1758 114.286Z" fill="#2267BC"/>
<path d="M87.0021 114.802C87.0822 114.884 87.179 114.948 87.2861 114.989C87.3931 115.03 87.5077 115.047 87.622 115.04C87.7364 115.032 87.8476 114.999 87.9482 114.945C88.0488 114.89 88.1362 114.813 88.2045 114.721C88.3649 114.549 88.4849 114.343 88.5557 114.118L88.8503 114.27C88.7628 114.538 88.6191 114.786 88.4288 114.994C88.3288 115.127 88.2014 115.235 88.0554 115.314C87.9094 115.392 87.7482 115.437 87.583 115.447C87.4177 115.458 87.2522 115.432 87.0978 115.372C86.9435 115.312 86.8039 115.219 86.6887 115.1C86.124 114.613 85.9673 113.894 86.4375 113.347C86.9778 112.736 87.6452 113.039 87.9883 113.347C88.0413 113.393 88.0909 113.443 88.137 113.496L87.0021 114.802ZM87.6182 113.591C87.4047 113.402 86.9886 113.201 86.659 113.591C86.5478 113.74 86.4967 113.926 86.5157 114.111C86.5347 114.296 86.6225 114.468 86.7617 114.591L87.6182 113.591Z" fill="#2267BC"/>
<path d="M90.2817 112.769L90.0115 112.593C90.042 112.736 90.0383 112.884 90.0007 113.025C89.9632 113.166 89.8928 113.296 89.7954 113.404C89.7372 113.483 89.6633 113.548 89.5786 113.596C89.4939 113.645 89.4 113.675 89.303 113.685C89.206 113.695 89.108 113.685 89.0151 113.655C88.9222 113.626 88.8364 113.577 88.7632 113.513C88.3093 113.12 88.4093 112.504 89.0334 111.784L88.9956 111.749C88.9438 111.69 88.8792 111.644 88.8068 111.614C88.7343 111.584 88.656 111.571 88.5777 111.576C88.4995 111.581 88.4234 111.604 88.3553 111.643C88.2872 111.682 88.229 111.736 88.185 111.801C88.0423 111.976 87.949 112.186 87.9148 112.409L87.623 112.293C87.6724 112.011 87.7986 111.748 87.9878 111.533C88.4822 110.959 88.9929 111.16 89.3685 111.484L90.071 112.09C90.2193 112.222 90.3784 112.341 90.5465 112.447L90.2817 112.769ZM89.282 111.993C88.9524 112.358 88.6552 112.836 89.0118 113.153C89.0522 113.193 89.1008 113.225 89.1544 113.245C89.2079 113.265 89.2652 113.274 89.3223 113.27C89.3795 113.266 89.4351 113.25 89.4855 113.223C89.5358 113.196 89.5798 113.158 89.6144 113.112C89.7023 113.015 89.7573 112.893 89.7714 112.763C89.7854 112.632 89.7579 112.501 89.6927 112.387C89.6682 112.345 89.6372 112.307 89.6008 112.274L89.282 111.993Z" fill="#2267BC"/>
<path d="M90.607 111.687C90.808 111.624 90.9889 111.509 91.1312 111.354C91.3446 111.105 91.3203 110.884 91.1663 110.748C91.0123 110.613 90.8312 110.629 90.5205 110.8C90.1098 111.032 89.7883 111.032 89.564 110.838C89.2614 110.567 89.2263 110.118 89.564 109.715C89.7019 109.554 89.8786 109.43 90.0774 109.355L90.253 109.653C90.0822 109.708 89.9298 109.809 89.8126 109.945C89.7733 109.978 89.7414 110.019 89.7191 110.065C89.6968 110.111 89.6847 110.161 89.6834 110.212C89.6821 110.264 89.6918 110.315 89.7117 110.362C89.7317 110.409 89.7615 110.451 89.7991 110.486C89.9531 110.621 90.1179 110.567 90.4233 110.405C90.8258 110.186 91.1338 110.159 91.4121 110.405C91.7418 110.675 91.7526 111.143 91.3689 111.589C91.2133 111.776 91.0123 111.919 90.7853 112.006L90.607 111.687Z" fill="#2267BC"/>
<path d="M91.6087 109.461C91.6889 109.543 91.786 109.607 91.8932 109.648C92.0005 109.689 92.1153 109.706 92.2299 109.698C92.3444 109.691 92.4559 109.658 92.5567 109.603C92.6575 109.548 92.7452 109.472 92.8137 109.38C92.9731 109.207 93.093 109.001 93.165 108.777L93.4568 108.931C93.3679 109.195 93.2253 109.437 93.038 109.642C92.9382 109.774 92.8111 109.883 92.6653 109.961C92.5196 110.039 92.3586 110.085 92.1936 110.095C92.0285 110.105 91.8632 110.079 91.7091 110.019C91.5549 109.959 91.4156 109.867 91.3006 109.748C90.7332 109.261 90.5765 108.541 91.0467 107.998C91.587 107.384 92.2544 107.687 92.5976 107.984C92.6505 108.03 92.7002 108.08 92.7462 108.133L91.6087 109.461ZM92.2274 108.252C92.1671 108.184 92.093 108.13 92.0101 108.092C91.9272 108.055 91.8373 108.036 91.7464 108.036C91.6556 108.036 91.5657 108.055 91.4828 108.092C91.3999 108.13 91.3258 108.184 91.2655 108.252C91.1548 108.402 91.1039 108.588 91.1229 108.774C91.1419 108.959 91.2293 109.131 91.3682 109.255L92.2274 108.252Z" fill="#2267BC"/>
<path d="M56.5849 146.976L55.9156 147.779L55.6258 147.535L57.2654 145.581L57.5552 145.825L56.8859 146.628L59.2344 148.606L58.9441 148.938L56.5849 146.976Z" fill="#2DDF9D"/>
<path d="M59.1809 146.861C59.2623 146.942 59.3602 147.005 59.4679 147.044C59.5756 147.084 59.6906 147.099 59.805 147.09C59.9193 147.081 60.0303 147.047 60.1303 146.991C60.2303 146.935 60.3169 146.857 60.3842 146.764C60.5413 146.585 60.658 146.375 60.7262 146.147L61.0302 146.294C60.9464 146.562 60.8071 146.81 60.6215 147.021C60.5231 147.154 60.3972 147.265 60.2523 147.345C60.1073 147.425 59.9469 147.473 59.7818 147.485C59.6167 147.497 59.4508 147.474 59.2956 147.416C59.1404 147.359 58.9994 147.268 58.8823 147.151C58.3122 146.67 58.1448 145.953 58.6073 145.402C59.1279 144.783 59.8101 145.077 60.1601 145.375C60.2135 145.421 60.2636 145.47 60.3099 145.522L59.1809 146.861ZM59.7826 145.642C59.5673 145.455 59.1575 145.259 58.8235 145.65C58.7146 145.801 58.6661 145.987 58.6874 146.172C58.7087 146.357 58.7983 146.527 58.9386 146.649L59.7826 145.642Z" fill="#2DDF9D"/>
<path d="M61.162 145.585C61.3585 145.518 61.5339 145.4 61.6708 145.244C61.8807 144.993 61.8537 144.77 61.6985 144.637C61.5433 144.505 61.362 144.521 61.0549 144.697C60.6473 144.936 60.323 144.939 60.0955 144.746C59.792 144.489 59.7469 144.032 60.089 143.626C60.2228 143.459 60.3978 143.33 60.5968 143.251L60.7761 143.55C60.6067 143.606 60.4561 143.708 60.3407 143.844C60.3029 143.878 60.2724 143.918 60.2513 143.964C60.2302 144.01 60.2189 144.06 60.2181 144.11C60.2173 144.161 60.2271 144.211 60.2468 144.257C60.2665 144.304 60.2957 144.346 60.3324 144.38C60.4903 144.512 60.6559 144.458 60.9561 144.289C61.3582 144.065 61.6636 144.035 61.9439 144.273C62.2738 144.553 62.2966 145.008 61.9167 145.46C61.7646 145.648 61.5664 145.794 61.3414 145.884L61.162 145.585Z" fill="#2DDF9D"/>
<path d="M60.7655 141.815L61.3066 142.261L61.7195 141.767L61.9835 141.991L61.5705 142.485L62.5914 143.344C62.8253 143.541 63.0158 143.586 63.1768 143.395C63.234 143.328 63.2824 143.254 63.3208 143.174L63.5918 143.378C63.5438 143.504 63.4732 143.62 63.3835 143.721C63.3297 143.794 63.261 143.854 63.1821 143.897C63.1032 143.94 63.0159 143.966 62.9261 143.973C62.6958 143.957 62.4797 143.856 62.3201 143.689L61.2865 142.822L61.0409 143.115L60.777 142.891L61.0226 142.597L60.5708 142.214L60.7655 141.815Z" fill="#2DDF9D"/>
<path d="M54.2166 107.95C54.4604 108.099 54.6909 108.269 54.9056 108.458C55.1835 108.665 55.3758 108.968 55.446 109.307C55.4615 109.441 55.4477 109.577 55.4058 109.705C55.3638 109.833 55.2946 109.95 55.2029 110.048C55.1201 110.155 55.017 110.243 54.8997 110.309C54.7823 110.375 54.653 110.417 54.5193 110.432C54.3274 110.44 54.136 110.408 53.9567 110.34C53.7774 110.271 53.614 110.166 53.4763 110.032C53.3824 109.952 53.2981 109.861 53.225 109.762L52.3226 110.808L51.9849 110.516L54.2166 107.95ZM53.4682 109.499C53.5423 109.599 53.6275 109.69 53.7222 109.77C54.1302 110.121 54.5328 110.138 54.857 109.77C55.1812 109.402 55.0543 109.048 54.6841 108.726C54.5804 108.631 54.4662 108.549 54.3436 108.48L53.4682 109.499Z" fill="#2DDF9D"/>
<path d="M56.3913 109.531L56.7318 109.823L54.3595 112.571L54.019 112.276L56.3913 109.531Z" fill="#2DDF9D"/>
<path d="M55.9708 113.967L56.1464 113.696C56.0038 113.727 55.8561 113.723 55.7152 113.686C55.5743 113.648 55.4443 113.578 55.3358 113.48C55.2573 113.422 55.1916 113.348 55.1431 113.263C55.0946 113.179 55.0643 113.085 55.0541 112.987C55.0439 112.89 55.0541 112.792 55.084 112.699C55.1139 112.606 55.1629 112.52 55.2278 112.447C55.6168 111.993 56.2329 112.093 56.9543 112.717L56.9867 112.679C57.0461 112.628 57.0928 112.563 57.1231 112.491C57.1535 112.418 57.1667 112.34 57.1617 112.261C57.1567 112.183 57.1337 112.106 57.0945 112.038C57.0552 111.97 57.0008 111.912 56.9354 111.868C56.7608 111.725 56.5507 111.631 56.3274 111.598L56.4436 111.306C56.7255 111.355 56.9882 111.481 57.2029 111.671C57.7757 112.166 57.5784 112.677 57.2542 113.053L56.649 113.756C56.5162 113.904 56.3969 114.063 56.2923 114.232L55.9708 113.967ZM56.7436 112.966C56.3788 112.636 55.9005 112.339 55.5871 112.696C55.5465 112.736 55.515 112.785 55.4948 112.838C55.4746 112.892 55.4661 112.949 55.47 113.007C55.4738 113.064 55.4899 113.119 55.5171 113.17C55.5443 113.22 55.582 113.264 55.6277 113.299C55.7241 113.388 55.8465 113.443 55.9768 113.457C56.1071 113.471 56.2385 113.443 56.3518 113.377C56.3936 113.352 56.4318 113.321 56.4652 113.285L56.7436 112.966Z" fill="#2DDF9D"/>
<path d="M57.9779 113.316C58.1427 113.121 58.2778 112.959 58.3994 112.794L58.702 113.064L58.4534 113.389C58.609 113.333 58.7769 113.32 58.9392 113.352C59.1014 113.384 59.252 113.459 59.3748 113.57C59.645 113.795 59.9152 114.298 59.3478 114.941L58.3832 116.061L58.0428 115.766L58.9749 114.684C59.2451 114.384 59.3397 114.035 59.0208 113.757C58.9158 113.669 58.7854 113.617 58.6488 113.609C58.5121 113.6 58.3765 113.636 58.2616 113.711C58.202 113.749 58.1483 113.795 58.1022 113.849L57.1295 114.976L56.7891 114.682L57.9779 113.316Z" fill="#2DDF9D"/>
<path d="M22.8423 142.95C23.0677 143.103 23.2784 143.277 23.4718 143.469C23.7319 143.681 23.9081 143.98 23.969 144.31C23.9864 144.426 23.9753 144.545 23.9367 144.655C23.8981 144.766 23.8331 144.866 23.7474 144.946C23.6241 145.065 23.4661 145.142 23.2962 145.166C23.1262 145.19 22.9531 145.159 22.8017 145.078V145.078C22.9155 145.247 22.9679 145.451 22.9502 145.654C22.9325 145.857 22.8458 146.048 22.7045 146.195C22.6153 146.288 22.5078 146.362 22.3887 146.411C22.2697 146.461 22.1416 146.485 22.0128 146.482C21.6858 146.482 21.3373 146.271 20.932 145.876C20.7656 145.715 20.6103 145.544 20.4673 145.362L22.8423 142.95ZM22.1695 144.27L22.4559 144.54C22.7936 144.87 23.1611 144.889 23.3934 144.654C23.6636 144.364 23.5691 144.037 23.2503 143.721C23.1589 143.625 23.0574 143.54 22.9477 143.466L22.1695 144.27ZM21.0104 145.446C21.0875 145.543 21.1725 145.633 21.2643 145.716C21.5913 146.038 22.0128 146.217 22.364 145.857C22.7153 145.497 22.5424 145.1 22.1938 144.759L21.9236 144.502L21.0104 145.446Z" fill="#2DDF9D"/>
<path d="M24.3717 148.281C24.1934 148.464 24.0394 148.627 23.9151 148.778L23.6287 148.508L23.8989 148.202C23.7393 148.245 23.5713 148.244 23.4119 148.201C23.2525 148.158 23.1073 148.073 22.9911 147.956C22.7209 147.686 22.5345 147.204 23.1424 146.585L24.1583 145.552L24.4771 145.868L23.518 146.844C23.1883 147.18 23.0667 147.507 23.3585 147.794C23.4512 147.883 23.5683 147.942 23.6949 147.965C23.8215 147.987 23.9518 147.971 24.0691 147.918C24.1405 147.885 24.2055 147.839 24.261 147.783L25.3228 146.701L25.6444 147.018L24.3717 148.281Z" fill="#2DDF9D"/>
<path d="M27.0115 147.375C26.9862 147.402 26.9555 147.424 26.9213 147.439C26.8871 147.454 26.8502 147.462 26.8129 147.462C26.7756 147.462 26.7386 147.454 26.7045 147.439C26.6703 147.424 26.6396 147.402 26.6143 147.375C26.5886 147.35 26.5681 147.319 26.5542 147.286C26.5402 147.253 26.533 147.217 26.533 147.181C26.533 147.145 26.5402 147.11 26.5542 147.076C26.5681 147.043 26.5886 147.013 26.6143 146.988C26.6396 146.96 26.6703 146.939 26.7045 146.924C26.7386 146.909 26.7756 146.901 26.8129 146.901C26.8502 146.901 26.8871 146.909 26.9213 146.924C26.9555 146.939 26.9862 146.96 27.0115 146.988C27.0372 147.013 27.0577 147.043 27.0716 147.076C27.0856 147.11 27.0928 147.145 27.0928 147.181C27.0928 147.217 27.0856 147.253 27.0716 147.286C27.0577 147.319 27.0372 147.35 27.0115 147.375V147.375ZM24.4312 149.287L26.1658 147.521L26.4873 147.834L24.7527 149.603L24.4312 149.287Z" fill="#2DDF9D"/>
<path d="M27.8299 147.534L28.1487 147.85L25.6062 150.441L25.2847 150.125L27.8299 147.534Z" fill="#2DDF9D"/>
<path d="M30.2126 149.881L28.1159 152.015C27.9619 152.172 27.7916 152.353 27.6836 152.486L27.3945 152.215L27.6809 151.896C27.5165 151.949 27.3407 151.953 27.1739 151.91C27.007 151.866 26.8558 151.776 26.7379 151.65C26.311 151.231 26.338 150.547 26.8649 150.011C27.4377 149.419 28.1564 149.416 28.5887 149.841C28.7001 149.937 28.7838 150.061 28.8313 150.2C28.8788 150.34 28.8884 150.489 28.8589 150.633L29.8938 149.579L30.2126 149.881ZM28.3753 151.109C28.4208 151.064 28.4607 151.013 28.4941 150.958C28.575 150.83 28.6094 150.677 28.5917 150.527C28.574 150.376 28.5053 150.236 28.3969 150.13C28.0645 149.806 27.5863 149.903 27.1972 150.293C26.8082 150.682 26.7325 151.12 27.0783 151.461C27.1891 151.569 27.3335 151.635 27.4874 151.65C27.6413 151.664 27.7954 151.625 27.924 151.539C27.9795 151.504 28.0303 151.463 28.0754 151.415L28.3753 151.109Z" fill="#2DDF9D"/>
<path d="M22.028 118.501C21.9602 118.806 21.8292 119.094 21.6435 119.345C21.0913 120.146 20.1715 120.398 19.2418 119.755C19.0363 119.63 18.8594 119.463 18.7229 119.264C18.5863 119.066 18.4931 118.841 18.4492 118.604C18.4053 118.367 18.4118 118.124 18.4683 117.889C18.5248 117.655 18.6299 117.435 18.7769 117.245C18.9243 117.007 19.1237 116.806 19.3601 116.657L19.6106 116.946C19.4052 117.068 19.2304 117.235 19.0993 117.435C18.6379 118.102 18.7594 118.838 19.5052 119.362C20.1999 119.842 20.9214 119.752 21.3982 119.059C21.5431 118.856 21.6434 118.625 21.6925 118.38L22.028 118.501Z" fill="#2DDF9D"/>
<path d="M22.6277 115.605C22.7754 115.689 22.9037 115.804 23.0043 115.941C23.1049 116.078 23.1755 116.234 23.2116 116.401C23.2476 116.567 23.2483 116.739 23.2136 116.905C23.1788 117.072 23.1094 117.229 23.0099 117.367C22.9185 117.503 22.7997 117.618 22.6611 117.706C22.5226 117.793 22.3674 117.851 22.2053 117.875C22.0433 117.899 21.8781 117.889 21.7202 117.846C21.5622 117.802 21.4152 117.726 21.2882 117.623C20.6064 117.152 20.5137 116.429 20.9031 115.863C21.2924 115.297 22.0052 115.176 22.6277 115.605ZM21.532 117.238C21.9792 117.541 22.4926 117.52 22.743 117.159C22.9933 116.797 22.8379 116.311 22.3782 115.994C22.0347 115.756 21.4777 115.627 21.176 116.064C20.8744 116.501 21.1473 116.97 21.532 117.238V117.238Z" fill="#2DDF9D"/>
<path d="M22.2139 112.029L24.6727 113.729C24.8534 113.856 25.0631 113.992 25.2116 114.076L24.9822 114.41L24.6163 114.183C24.6974 114.335 24.7341 114.507 24.722 114.679C24.7098 114.85 24.6495 115.015 24.5478 115.154C24.2069 115.648 23.5315 115.739 22.9116 115.31C22.2319 114.847 22.1058 114.139 22.449 113.651C22.5235 113.523 22.6313 113.418 22.7609 113.348C22.8905 113.277 23.0368 113.243 23.1842 113.25V113.25L21.9678 112.408L22.2139 112.029ZM23.7262 113.63C23.6752 113.592 23.6189 113.561 23.5593 113.539C23.4191 113.481 23.2633 113.473 23.1179 113.516C22.9725 113.559 22.8461 113.651 22.7598 113.776C22.4971 114.158 22.676 114.618 23.1254 114.929C23.5747 115.24 24.0173 115.263 24.2957 114.849C24.3827 114.721 24.4234 114.567 24.4111 114.413C24.3988 114.259 24.3343 114.114 24.2282 114.001C24.1845 113.953 24.1347 113.91 24.0801 113.874L23.7262 113.63Z" fill="#2DDF9D"/>
<path d="M24.8155 112.618C24.9042 112.691 25.0075 112.743 25.1184 112.772C25.2293 112.801 25.3452 112.806 25.4581 112.786C25.5709 112.765 25.678 112.721 25.7722 112.656C25.8663 112.59 25.9451 112.505 26.0033 112.406C26.1426 112.217 26.2392 112 26.2865 111.77L26.5977 111.89C26.538 112.166 26.4208 112.426 26.2539 112.654C26.1688 112.796 26.0541 112.918 25.9176 113.011C25.7811 113.105 25.626 113.168 25.4631 113.195C25.3001 113.223 25.1331 113.216 24.9733 113.173C24.8136 113.13 24.665 113.054 24.5376 112.948C23.923 112.523 23.6877 111.825 24.0979 111.234C24.5566 110.566 25.2637 110.795 25.6383 111.052C25.6955 111.093 25.7502 111.138 25.8023 111.186L24.8155 112.618ZM25.3005 111.348C25.0659 111.18 24.6296 111.03 24.3429 111.446C24.2481 111.605 24.2162 111.794 24.2535 111.976C24.2908 112.158 24.3946 112.319 24.5445 112.428L25.3005 111.348Z" fill="#2DDF9D"/>
<path d="M120.231 108.549C120.473 108.752 120.699 108.974 120.906 109.212C121.27 109.563 121.483 110.041 121.503 110.546C121.494 110.775 121.434 111 121.329 111.204C121.223 111.408 121.075 111.587 120.894 111.728C120.717 111.898 120.508 112.031 120.279 112.119C120.05 112.206 119.806 112.247 119.561 112.238C119.105 112.208 118.625 111.923 118.182 111.418C118.004 111.216 117.837 111.004 117.682 110.784L120.231 108.549ZM118.233 110.891C118.315 111.017 118.408 111.137 118.509 111.248C119.145 111.963 119.877 112.001 120.576 111.389C121.191 110.856 121.276 110.169 120.656 109.471C120.543 109.337 120.417 109.216 120.278 109.11L118.233 110.891Z" fill="#2267BC"/>
<path d="M120.957 112.783C120.864 112.85 120.787 112.937 120.731 113.038C120.675 113.139 120.642 113.25 120.633 113.365C120.625 113.48 120.642 113.595 120.683 113.703C120.724 113.81 120.788 113.907 120.87 113.988C121.019 114.17 121.206 114.318 121.418 114.42L121.226 114.689C120.973 114.565 120.748 114.388 120.567 114.171C120.45 114.053 120.36 113.912 120.303 113.757C120.246 113.601 120.223 113.436 120.236 113.271C120.249 113.106 120.298 112.945 120.378 112.801C120.459 112.656 120.569 112.531 120.703 112.433C121.264 111.939 121.995 111.885 122.472 112.426C123.004 113.035 122.611 113.666 122.27 113.965C122.216 114.011 122.16 114.053 122.101 114.093L120.957 112.783ZM122.066 113.563C122.144 113.514 122.209 113.45 122.26 113.374C122.31 113.298 122.343 113.212 122.358 113.122C122.372 113.031 122.367 112.939 122.343 112.851C122.319 112.763 122.276 112.682 122.218 112.611C122.085 112.481 121.908 112.404 121.722 112.397C121.535 112.39 121.353 112.453 121.211 112.573L122.066 113.563Z" fill="#2267BC"/>
<path d="M122.866 114.196C123.112 113.987 123.289 113.812 123.459 113.649L123.726 113.953L123.421 114.248C123.594 114.215 123.773 114.23 123.939 114.291C124.104 114.352 124.25 114.457 124.361 114.594C124.755 115.043 124.672 115.716 124.106 116.211C123.437 116.797 122.749 116.68 122.367 116.241C122.263 116.133 122.189 115.999 122.152 115.854C122.115 115.709 122.116 115.557 122.155 115.412V115.412L121.143 116.298L120.85 115.965L122.866 114.196ZM122.662 114.966C122.617 115.008 122.575 115.054 122.538 115.104C122.449 115.232 122.406 115.385 122.414 115.54C122.423 115.695 122.484 115.843 122.587 115.96C122.905 116.317 123.375 116.268 123.801 115.895C124.175 115.575 124.32 115.09 124.008 114.732C123.899 114.615 123.755 114.538 123.598 114.512C123.441 114.486 123.28 114.513 123.14 114.589C123.083 114.615 123.029 114.648 122.981 114.688L122.662 114.966Z" fill="#2267BC"/>
<path d="M126.257 115.081L126.554 115.42L123.824 117.814L123.528 117.475L126.257 115.081Z" fill="#2267BC"/>
<path d="M126.746 119.239C126.628 119.361 126.486 119.458 126.329 119.522C126.171 119.586 126.002 119.616 125.833 119.61C125.663 119.604 125.496 119.563 125.343 119.489C125.191 119.414 125.055 119.309 124.946 119.178C124.836 119.056 124.754 118.913 124.703 118.757C124.652 118.601 124.634 118.436 124.651 118.273C124.667 118.109 124.717 117.951 124.798 117.809C124.879 117.666 124.989 117.542 125.12 117.444C125.743 116.899 126.467 117 126.917 117.502C127.368 118.004 127.314 118.738 126.746 119.239ZM125.431 117.77C125.022 118.127 124.923 118.631 125.21 118.962C125.497 119.294 126.01 119.261 126.43 118.894C126.746 118.617 127.005 118.11 126.655 117.71C126.305 117.31 125.785 117.469 125.433 117.778L125.431 117.77Z" fill="#2267BC"/>
<path d="M128.118 118.961L127.377 120.331C127.29 120.484 127.184 120.658 127.1 120.786C127.241 120.722 127.419 120.637 127.592 120.566L129.007 119.977L129.325 120.335L127.553 120.991C126.703 121.306 126.231 121.431 125.829 121.373C125.622 121.348 125.425 121.271 125.256 121.149L125.466 120.814C125.597 120.891 125.741 120.943 125.891 120.965C126.101 120.999 126.315 120.984 126.518 120.92C126.555 120.912 126.59 120.896 126.621 120.875C126.65 120.846 126.673 120.813 126.69 120.776L127.803 118.582L128.118 118.961Z" fill="#2267BC"/>
<path d="M116.067 151.596C116.887 152.454 116.799 153.402 116.15 154.019C115.5 154.637 114.544 154.577 113.82 153.814C113.097 153.051 113.062 152.034 113.739 151.396C114.415 150.759 115.361 150.855 116.067 151.596ZM114.16 153.488C114.667 154.021 115.412 154.223 115.918 153.739C116.423 153.255 116.269 152.504 115.727 151.938C115.256 151.442 114.503 151.172 113.966 151.683C113.43 152.193 113.65 152.935 114.173 153.484L114.16 153.488Z" fill="#2267BC"/>
<path d="M116.538 151.273C116.317 151.032 116.134 150.865 115.963 150.701L116.255 150.423L116.571 150.716C116.531 150.544 116.539 150.365 116.592 150.196C116.646 150.028 116.744 149.878 116.876 149.761C117.309 149.347 117.984 149.404 118.503 149.946C119.117 150.591 119.03 151.284 118.609 151.688C118.505 151.796 118.374 151.876 118.23 151.918C118.086 151.961 117.933 151.966 117.787 151.931V151.931L118.716 152.905L118.397 153.225L116.538 151.273ZM117.312 151.433C117.356 151.477 117.404 151.517 117.455 151.551C117.586 151.634 117.741 151.671 117.895 151.655C118.05 151.639 118.194 151.572 118.306 151.465C118.651 151.14 118.581 150.664 118.188 150.254C117.846 149.895 117.366 149.768 117.021 150.098C116.909 150.21 116.837 150.357 116.818 150.515C116.798 150.673 116.832 150.833 116.914 150.969C116.942 151.026 116.977 151.079 117.019 151.126L117.312 151.433Z" fill="#2267BC"/>
<path d="M119.17 149.46C119.242 149.549 119.333 149.622 119.435 149.673C119.538 149.724 119.651 149.752 119.765 149.756C119.88 149.759 119.994 149.738 120.1 149.693C120.205 149.648 120.3 149.581 120.377 149.496C120.552 149.338 120.691 149.145 120.783 148.928L121.063 149.108C120.949 149.367 120.782 149.599 120.573 149.789C120.461 149.911 120.323 150.007 120.17 150.07C120.017 150.134 119.852 150.164 119.687 150.158C119.521 150.152 119.359 150.11 119.211 150.035C119.063 149.961 118.933 149.855 118.83 149.725C118.316 149.186 118.227 148.447 118.748 147.958C119.332 147.399 119.98 147.777 120.292 148.095C120.34 148.147 120.385 148.201 120.428 148.258L119.17 149.46ZM119.901 148.314C119.847 148.24 119.779 148.178 119.701 148.133C119.622 148.087 119.534 148.059 119.444 148.05C119.354 148.041 119.262 148.051 119.176 148.079C119.09 148.108 119.011 148.155 118.944 148.216C118.82 148.355 118.752 148.535 118.753 148.721C118.754 148.907 118.824 149.087 118.95 149.224L119.901 148.314Z" fill="#2267BC"/>
<path d="M120.469 147.465C120.266 147.254 120.09 147.078 119.92 146.922L120.205 146.648L120.553 146.991L120.569 146.988C120.495 146.85 120.467 146.691 120.489 146.536C120.511 146.38 120.581 146.236 120.69 146.123C120.721 146.093 120.754 146.067 120.791 146.045L121.084 146.352C121.04 146.379 121 146.412 120.965 146.449C120.859 146.558 120.797 146.702 120.79 146.854C120.782 147.006 120.83 147.156 120.925 147.275C120.963 147.335 121.007 147.39 121.056 147.442L121.967 148.401L121.646 148.708L120.469 147.465Z" fill="#2267BC"/>
<path d="M123.827 146.614L123.584 146.412C123.602 146.557 123.585 146.705 123.534 146.843C123.484 146.98 123.401 147.104 123.293 147.203C123.228 147.276 123.148 147.333 123.059 147.373C122.969 147.413 122.873 147.434 122.775 147.435C122.678 147.435 122.581 147.416 122.491 147.377C122.402 147.339 122.321 147.282 122.254 147.211C121.841 146.777 122.001 146.174 122.692 145.507L122.659 145.468C122.613 145.405 122.554 145.354 122.485 145.318C122.416 145.282 122.34 145.262 122.263 145.26C122.186 145.258 122.109 145.273 122.038 145.305C121.967 145.337 121.905 145.384 121.855 145.444C121.691 145.601 121.574 145.801 121.517 146.021L121.239 145.876C121.316 145.599 121.468 145.35 121.679 145.155C122.228 144.632 122.731 144.878 123.055 145.227L123.7 145.897C123.834 146.043 123.981 146.177 124.138 146.298L123.827 146.614ZM122.905 145.746C122.543 146.073 122.2 146.525 122.524 146.873C122.56 146.918 122.606 146.954 122.657 146.979C122.708 147.004 122.764 147.018 122.822 147.02C122.879 147.022 122.936 147.011 122.988 146.989C123.041 146.967 123.089 146.934 123.127 146.892C123.224 146.804 123.291 146.687 123.317 146.559C123.343 146.431 123.328 146.298 123.274 146.178C123.254 146.134 123.227 146.092 123.193 146.056L122.905 145.746Z" fill="#2267BC"/>
<path d="M122.794 143.19L123.284 143.706L123.749 143.261L123.986 143.499L123.506 143.947L124.427 144.905C124.637 145.128 124.822 145.194 124.991 145.022C125.056 144.962 125.113 144.894 125.16 144.819L125.408 145.056C125.345 145.174 125.261 145.279 125.161 145.366C125.1 145.432 125.025 145.484 124.942 145.518C124.859 145.553 124.77 145.569 124.68 145.565C124.453 145.525 124.249 145.402 124.107 145.22L123.175 144.242L122.899 144.506L122.662 144.268L122.94 144.003L122.53 143.573L122.794 143.19Z" fill="#2267BC"/>
<path d="M125.187 143.713C125.259 143.803 125.349 143.876 125.452 143.927C125.555 143.978 125.667 144.006 125.782 144.01C125.897 144.013 126.011 143.992 126.116 143.947C126.222 143.902 126.317 143.835 126.394 143.75C126.569 143.592 126.707 143.398 126.799 143.182L127.077 143.362C126.965 143.621 126.799 143.854 126.59 144.043C126.477 144.165 126.34 144.261 126.187 144.324C126.034 144.388 125.869 144.418 125.703 144.411C125.538 144.405 125.376 144.364 125.228 144.289C125.08 144.214 124.95 144.109 124.846 143.979C124.333 143.44 124.244 142.701 124.764 142.212C125.349 141.653 125.997 142.031 126.308 142.349C126.356 142.401 126.402 142.455 126.444 142.512L125.187 143.713ZM125.917 142.568C125.864 142.494 125.796 142.432 125.717 142.387C125.638 142.341 125.551 142.313 125.461 142.304C125.37 142.295 125.279 142.305 125.193 142.333C125.107 142.362 125.028 142.409 124.961 142.47C124.836 142.609 124.768 142.789 124.769 142.975C124.77 143.161 124.841 143.341 124.967 143.478L125.917 142.568Z" fill="#2267BC"/>
<g filter="url(#filter2_d_195_933)">
<path d="M35.4519 126.479H33.0166V133.32H35.4285C37.513 133.32 38.7724 132.03 38.7724 129.893C38.7724 127.761 37.513 126.479 35.4519 126.479ZM34.4363 132.101V127.698H35.375C36.6678 127.698 37.3526 128.369 37.3526 129.893C37.3526 131.426 36.6678 132.101 35.3683 132.101H34.4363Z" fill="#2DDF9D"/>
<path d="M44.4371 130.724C44.4371 128.974 43.3748 128.122 42.0286 128.122C40.5254 128.122 39.5466 129.194 39.5466 130.778C39.5466 132.405 40.512 133.42 42.0854 133.42C43.3515 133.42 44.2 132.806 44.4004 131.86H43.0709C42.9305 132.164 42.5898 132.371 42.1088 132.371C41.3906 132.371 40.9296 131.894 40.9296 131.115H44.4371V130.724ZM40.9296 130.24C40.963 129.652 41.4106 129.168 42.0553 129.168C42.68 129.168 43.1109 129.619 43.1176 130.24H40.9296Z" fill="#2DDF9D"/>
<path d="M48.4508 128.189L47.3752 131.877H47.3217L46.2427 128.189H44.7629L46.5601 133.32H48.1335L49.9307 128.189H48.4508Z" fill="#2DDF9D"/>
</g>
<g filter="url(#filter3_d_195_933)">
<path d="M102.636 129.287C102.636 127.056 101.253 125.773 99.4392 125.773C97.6186 125.773 96.2456 127.056 96.2456 129.287C96.2456 131.512 97.6186 132.801 99.4392 132.801C101.253 132.801 102.636 131.519 102.636 129.287ZM101.196 129.287C101.196 130.747 100.498 131.542 99.4392 131.542C98.3836 131.542 97.6854 130.747 97.6854 129.287C97.6854 127.827 98.3836 127.032 99.4392 127.032C100.498 127.032 101.196 127.827 101.196 129.287Z" fill="#2267BC"/>
<path d="M105.026 134.632V131.889H105.07C105.267 132.31 105.694 132.791 106.529 132.791C107.702 132.791 108.614 131.863 108.614 130.149C108.614 128.392 107.665 127.51 106.529 127.51C105.668 127.51 105.26 128.024 105.07 128.439H105.006V127.577H103.626V134.632H105.026ZM104.996 130.142C104.996 129.217 105.387 128.629 106.092 128.629C106.807 128.629 107.184 129.244 107.184 130.142C107.184 131.048 106.8 131.676 106.092 131.676C105.394 131.676 104.996 131.064 104.996 130.142Z" fill="#2267BC"/>
<path d="M113.755 129.103C113.681 128.125 112.88 127.51 111.58 127.51C110.261 127.51 109.415 128.125 109.419 129.11C109.415 129.868 109.916 130.373 110.899 130.567L111.747 130.734C112.228 130.834 112.442 130.998 112.445 131.265C112.442 131.596 112.105 131.796 111.597 131.796C111.079 131.796 110.755 131.589 110.685 131.188H109.282C109.395 132.19 110.207 132.808 111.597 132.808C112.96 132.808 113.865 132.133 113.868 131.124C113.865 130.383 113.384 129.939 112.392 129.735L111.466 129.548C110.985 129.444 110.805 129.264 110.808 129.03C110.805 128.723 111.149 128.509 111.603 128.509C112.071 128.509 112.385 128.739 112.445 129.103H113.755Z" fill="#2267BC"/>
</g>
<path d="M264.12 46.8326H262.428V42.2594H261.413V53.4749H262.428V47.7221H264.12V54.084H265.164V41.9307H264.12V46.8326ZM255.263 43.5066V44.3961H258.971C258.792 46.9099 257.632 49.1337 254.799 50.7097L255.428 51.4735C258.928 49.5204 260.011 46.6006 260.02 43.5066H255.263Z" fill="#313131"/>
<path d="M275.891 46.7262V48.2829H276.954V41.9307H275.891V43.671H273.019V42.5011H271.956V44.2511H268.572V42.5011H267.498V47.7898H273.019V46.7262H275.891ZM275.891 45.8754H273.019V44.5122H275.891V45.8754ZM268.572 46.9196V45.1019H271.956V46.9196H268.572ZM270.167 51.7345H276.954V48.8727H269.074V49.7332H275.891V50.9127H269.103V53.9196H277.418V53.0494H270.167V51.7345Z" fill="#313131"/>
<path d="M288.396 46.8423V41.9307H287.323V54.084H288.396V47.7608H290.427V46.8423H288.396ZM283.098 44.0771H285.834V43.1779H279.221V44.0771H282.044V45.6627C282.034 47.7318 280.536 50.0425 278.786 50.8934L279.434 51.7442C280.797 51.0481 282.015 49.4769 282.581 47.6979C283.127 49.3416 284.282 50.7725 285.641 51.4445L286.26 50.5936C284.5 49.7525 283.088 47.6061 283.098 45.6627V44.0771Z" fill="#313131"/>
<path d="M297.518 49.9072H300.022V51.1738H301.105V41.9403H300.022V49.124H297.518V49.9072ZM295.014 46.6586C296.793 46.6586 298.011 45.8464 298.021 44.5508C298.011 43.2746 296.793 42.4334 295.014 42.4334C293.216 42.4334 291.997 43.2746 291.997 44.5508C291.997 45.8464 293.216 46.6586 295.014 46.6586ZM295.014 43.2456C296.164 43.2359 296.986 43.7677 296.996 44.5508C296.986 45.3436 296.164 45.8561 295.014 45.8561C293.825 45.8561 293.013 45.3436 293.022 44.5508C293.013 43.7677 293.825 43.2359 295.014 43.2456ZM295.662 50.7483V48.3457C296.783 48.278 297.919 48.1669 299.007 47.9928L298.93 47.2097C296.329 47.5384 293.283 47.5577 291.021 47.5674L291.166 48.4472C292.186 48.4521 293.361 48.4472 294.588 48.3989V50.7483H295.662ZM293.844 50.2649H292.771V53.8133H301.405V52.9238H293.844V50.2649Z" fill="#313131"/>
<path d="M259.739 109.17L259.894 110.089L267.29 109.741C267.242 110.316 267.16 110.949 267.01 111.665L268.074 111.761C268.412 110.089 268.412 108.851 268.412 107.729V106.705H260.039V107.584H267.348V107.729C267.348 108.111 267.348 108.508 267.334 108.928L259.739 109.17ZM264.322 110.785H263.239V112.573H258.724V113.453H269.785V112.573H264.322V110.785ZM260.136 114.488V118.075H268.692V117.195H261.209V114.488H260.136Z" fill="#313131"/>
<path d="M280.115 106.125V115.232H281.13V106.125H280.115ZM278.771 114.913V106.376H277.737V109.576H276.093V110.446H277.737V114.913H278.771ZM276.567 111.993C275.266 112.259 274.179 112.308 272.419 112.312V110.543H275.523V109.692H272.419V108.01H276.016V107.12H271.385V113.202H272.148C274.121 113.202 275.271 113.144 276.683 112.863L276.567 111.993ZM274.295 114.217H273.202V117.997H281.507V117.108H274.295V114.217Z" fill="#313131"/>
<path d="M284.016 113.763C285.94 113.371 287.695 112.322 288.459 110.736C289.218 112.322 290.968 113.371 292.892 113.763L293.327 112.892C291.016 112.477 289.005 110.968 289.005 108.957H292.969V108.078H288.985V106.405H287.932V108.078H283.948V108.957H287.922C287.912 110.968 285.892 112.477 283.59 112.892L284.016 113.763ZM282.914 116.702H294.042V115.803H282.914V116.702Z" fill="#313131"/>
<path fill-rule="evenodd" clip-rule="evenodd" d="M277.402 80.9019L277.402 94.67H276.402L276.402 80.9019H277.402Z" fill="#282828"/>
<path fill-rule="evenodd" clip-rule="evenodd" d="M283.287 88.2864L283.787 88.2864L283.787 87.2864L283.287 87.2864L279.736 87.2864L279.733 88.2864L283.287 88.2864ZM274.07 88.2864L274.073 87.2864L270.519 87.2864L270.019 87.2864L270.019 88.2864L270.519 88.2864H274.07Z" fill="#282828"/>
<defs>
<filter id="filter0_d_195_933" x="45.3394" y="26.541" width="55.0103" height="53.4297" filterUnits="userSpaceOnUse" color-interpolation-filters="sRGB">
<feFlood flood-opacity="0" result="BackgroundImageFix"/>
<feColorMatrix in="SourceAlpha" type="matrix" values="0 0 0 0 0 0 0 0 0 0 0 0 0 0 0 0 0 0 127 0" result="hardAlpha"/>
<feOffset dy="2"/>
<feComposite in2="hardAlpha" operator="out"/>
<feColorMatrix type="matrix" values="0 0 0 0 1 0 0 0 0 1 0 0 0 0 1 0 0 0 1 0"/>
<feBlend mode="normal" in2="BackgroundImageFix" result="effect1_dropShadow_195_933"/>
<feBlend mode="normal" in="SourceGraphic" in2="effect1_dropShadow_195_933" result="shape"/>
</filter>
<filter id="filter1_d_195_933" x="11.0605" y="99.7251" width="124.469" height="62.9517" filterUnits="userSpaceOnUse" color-interpolation-filters="sRGB">
<feFlood flood-opacity="0" result="BackgroundImageFix"/>
<feColorMatrix in="SourceAlpha" type="matrix" values="0 0 0 0 0 0 0 0 0 0 0 0 0 0 0 0 0 0 127 0" result="hardAlpha"/>
<feOffset dy="2"/>
<feComposite in2="hardAlpha" operator="out"/>
<feColorMatrix type="matrix" values="0 0 0 0 1 0 0 0 0 1 0 0 0 0 1 0 0 0 1 0"/>
<feBlend mode="normal" in2="BackgroundImageFix" result="effect1_dropShadow_195_933"/>
<feBlend mode="normal" in="SourceGraphic" in2="effect1_dropShadow_195_933" result="shape"/>
</filter>
<filter id="filter2_d_195_933" x="33.0166" y="126.479" width="16.9141" height="7.94141" filterUnits="userSpaceOnUse" color-interpolation-filters="sRGB">
<feFlood flood-opacity="0" result="BackgroundImageFix"/>
<feColorMatrix in="SourceAlpha" type="matrix" values="0 0 0 0 0 0 0 0 0 0 0 0 0 0 0 0 0 0 127 0" result="hardAlpha"/>
<feOffset dy="1"/>
<feComposite in2="hardAlpha" operator="out"/>
<feColorMatrix type="matrix" values="0 0 0 0 1 0 0 0 0 1 0 0 0 0 1 0 0 0 1 0"/>
<feBlend mode="normal" in2="BackgroundImageFix" result="effect1_dropShadow_195_933"/>
<feBlend mode="normal" in="SourceGraphic" in2="effect1_dropShadow_195_933" result="shape"/>
</filter>
<filter id="filter3_d_195_933" x="96.2456" y="125.773" width="17.6226" height="9.85889" filterUnits="userSpaceOnUse" color-interpolation-filters="sRGB">
<feFlood flood-opacity="0" result="BackgroundImageFix"/>
<feColorMatrix in="SourceAlpha" type="matrix" values="0 0 0 0 0 0 0 0 0 0 0 0 0 0 0 0 0 0 127 0" result="hardAlpha"/>
<feOffset dy="1"/>
<feComposite in2="hardAlpha" operator="out"/>
<feColorMatrix type="matrix" values="0 0 0 0 1 0 0 0 0 1 0 0 0 0 1 0 0 0 1 0"/>
<feBlend mode="normal" in2="BackgroundImageFix" result="effect1_dropShadow_195_933"/>
<feBlend mode="normal" in="SourceGraphic" in2="effect1_dropShadow_195_933" result="shape"/>
</filter>
<linearGradient id="paint0_linear_195_933" x1="135.128" y1="85.8835" x2="187.946" y2="85.8835" gradientUnits="userSpaceOnUse">
<stop stop-color="white"/>
<stop offset="1" stop-color="#5689BF"/>
</linearGradient>
<linearGradient id="paint1_linear_195_933" x1="147.246" y1="0.333984" x2="147.246" y2="179.627" gradientUnits="userSpaceOnUse">
<stop stop-color="#F5F8FC"/>
<stop offset="1" stop-color="#D8E3F2"/>
</linearGradient>
<linearGradient id="paint2_linear_195_933" x1="359.496" y1="0.333984" x2="359.496" y2="179.627" gradientUnits="userSpaceOnUse">
<stop stop-color="#F5F8FC"/>
<stop offset="1" stop-color="#D8E3F2"/>
</linearGradient>
</defs>
</svg>
