<svg width="293" height="338" viewBox="0 0 293 338" fill="none" xmlns="http://www.w3.org/2000/svg">
<path d="M292.139 253.044L292.139 84.8674L146.488 0.779291L0.837785 84.8674L0.837778 253.044L146.488 337.145L292.139 253.044Z" fill="#F8F9FD"/>
<path d="M131.754 241.509H134.892C134.849 243.548 133.5 244.84 131.474 244.84C129.23 244.84 127.602 243.15 127.602 240.061C127.602 236.984 129.243 235.294 131.393 235.294C133.071 235.294 134.221 236.226 134.694 237.724H136.683C136.247 235.244 134.128 233.528 131.381 233.528C128.08 233.528 125.681 236.008 125.681 240.073C125.681 244.101 128.012 246.606 131.468 246.606C134.557 246.606 136.77 244.579 136.77 241.36V239.918H131.754V241.509Z" fill="#313131"/>
<path d="M147.173 241.913C147.173 243.641 145.986 244.878 144.053 244.878C142.126 244.878 140.927 243.641 140.927 241.913V233.702H138.994V242.068C138.994 244.747 140.995 246.643 144.053 246.643C147.105 246.643 149.119 244.747 149.119 242.068V233.702H147.173V241.913Z" fill="#313131"/>
<path d="M151.703 233.702V246.432H153.636V233.702H151.703Z" fill="#313131"/>
<path d="M171.299 232.173V240.278H172.946V232.173H171.299ZM164.792 236.456C165.513 238.053 166.892 239.296 168.732 239.893L169.559 238.594C167.135 237.842 165.618 235.915 165.631 233.802V232.59H163.921V233.802C163.921 235.99 162.411 238.053 159.956 238.867L160.807 240.185C162.685 239.545 164.083 238.184 164.792 236.456ZM164.282 244.971H172.971V241.03H162.61V242.348H171.312V243.703H162.66V247.774H173.487V246.432H164.282V244.971Z" fill="#313131"/>
<path d="M182.648 235.032C183.655 236.711 185.88 237.916 188.428 238.277L189.031 236.965C186.011 236.586 183.499 234.834 183.499 233.012V232.341H181.784V233.012C181.784 234.889 179.285 236.561 176.234 236.965L176.855 238.277C179.391 237.916 181.629 236.717 182.648 235.032ZM175.463 240.62H189.821V239.253H175.463V240.62ZM178.888 243.293V241.621H177.241V247.724H187.962V241.621H186.29V243.293H178.888ZM178.888 246.388V244.586H186.29V246.388H178.888Z" fill="#313131"/>
<path d="M202.412 232.173V240.278H204.06V232.173H202.412ZM195.905 236.456C196.626 238.053 198.006 239.296 199.846 239.893L200.672 238.594C198.248 237.842 196.732 235.915 196.744 233.802V232.59H195.035V233.802C195.035 235.99 193.524 238.053 191.069 238.867L191.921 240.185C193.798 239.545 195.196 238.184 195.905 236.456ZM195.395 244.971H204.084V241.03H193.723V242.348H202.425V243.703H193.773V247.774H204.6V246.432H195.395V244.971Z" fill="#313131"/>
<path d="M122.355 263.642C122.355 260.959 120.745 259.909 119.053 259.909C116.989 259.909 115.621 261.485 115.621 263.767C115.621 266.073 116.969 267.581 119.159 267.581C120.788 267.581 121.929 266.779 122.258 265.566H120.779C120.532 266.025 119.996 266.383 119.169 266.383C117.941 266.383 117.11 265.575 117.071 264.159H122.355V263.642ZM117.076 263.066C117.143 262.022 117.902 261.108 119.072 261.108C120.184 261.108 120.914 261.94 120.919 263.066H117.076Z" fill="#939393"/>
<path d="M123.193 260.006L125.47 263.719L123.164 267.432H124.769L126.422 264.657L128.095 267.432H129.685L127.35 263.719L129.666 260.006H128.066L126.422 262.887L124.793 260.006H123.193Z" fill="#939393"/>
<path d="M131.95 267.523C132.473 267.523 132.917 267.088 132.917 266.557C132.917 266.025 132.473 265.59 131.95 265.59C131.414 265.59 130.969 266.025 130.979 266.557C130.969 267.088 131.414 267.523 131.95 267.523Z" fill="#939393"/>
<path d="M143.063 262.172C145.654 262.182 147.433 261.147 147.433 259.513C147.433 257.86 145.654 256.811 143.063 256.801C140.472 256.811 138.707 257.86 138.707 259.513C138.707 261.147 140.472 262.182 143.063 262.172ZM143.063 257.855C144.885 257.855 146.094 258.483 146.094 259.513C146.094 260.519 144.885 261.137 143.063 261.142C141.245 261.137 140.032 260.519 140.041 259.513C140.032 258.483 141.245 257.855 143.063 257.855ZM137.484 263.264V264.328H140.278V268.592H141.613V264.328H144.542V268.592H145.857V264.328H148.695V263.264H137.484Z" fill="#939393"/>
<path d="M158.479 268.592H159.765V256.342H158.479V268.592ZM151.629 257.536H150.352V265.479H151.377C153.311 265.483 155.278 265.334 157.444 264.884L157.275 263.791C155.303 264.197 153.422 264.347 151.629 264.362V257.536Z" fill="#939393"/>
<path d="M170.578 268.592H171.884V256.342H170.578V268.592ZM163.733 261.896H168.04V260.862H163.733V258.493H168.504V257.42H162.452V265.696H163.453C165.759 265.691 167.446 265.624 169.379 265.314L169.249 264.255C167.422 264.55 165.875 264.633 163.733 264.637V261.896Z" fill="#939393"/>
<path d="M186.062 268.616H187.367V256.342H186.062V268.616ZM179.304 258.556H183.867V257.483H177.999V265.614H179.014C181.547 265.609 183.147 265.537 184.974 265.203L184.844 264.12C183.118 264.434 181.624 264.502 179.304 264.507V258.556Z" fill="#939393"/>
<path d="M198.863 261.2V256.342H197.562V268.592H198.863V262.298H200.825V261.2H198.863ZM193.589 258.648H196.247V257.575H189.542V258.648H192.303V259.958C192.293 262.027 190.944 264.338 189.088 265.227L189.856 266.252C191.249 265.561 192.394 264.048 192.955 262.302C193.511 263.903 194.599 265.285 195.977 265.947L196.711 264.923C194.855 264.048 193.579 261.887 193.589 259.958V258.648Z" fill="#939393"/>
<path d="M210.281 256.351V265.256H211.581V256.351H210.281ZM204.929 263.26C206.776 263.264 208.183 262.012 208.183 260.214C208.183 258.44 206.776 257.183 204.929 257.183C203.082 257.183 201.666 258.44 201.666 260.214C201.666 262.012 203.082 263.264 204.929 263.26ZM202.937 260.214C202.928 259.083 203.788 258.314 204.929 258.314C206.051 258.314 206.911 259.083 206.911 260.214C206.911 261.365 206.051 262.128 204.929 262.128C203.788 262.128 202.928 261.365 202.937 260.214ZM204.871 264.352H203.566V268.34H211.939V267.277H204.871V264.352Z" fill="#939393"/>
<path style="mix-blend-mode:multiply" opacity="0.25" d="M242.801 133.752C242.801 98.3656 214.131 69.6777 178.768 69.6777C168.074 69.6718 157.55 72.3481 148.157 77.462C138.765 82.5759 130.803 89.9642 125 98.9514C120.647 105.555 114.317 110.611 106.917 113.396C99.5175 116.18 91.4268 116.55 83.804 114.453V114.453C80.3876 113.513 76.8605 113.036 73.3172 113.036C68.1328 113.036 62.9991 114.058 58.2094 116.043C53.4196 118.028 49.0676 120.938 45.4018 124.607C41.736 128.275 38.8282 132.63 36.8445 137.423C34.8608 142.216 33.8399 147.353 33.8403 152.541C33.8451 161.491 36.8872 170.175 42.4683 177.169C48.0495 184.163 55.8389 189.054 64.5608 191.04C70.1075 192.307 75.1084 195.305 78.8415 199.601C82.5747 203.897 84.847 209.269 85.3304 214.942V214.942C85.9924 222.888 89.6145 230.295 95.4785 235.694C101.343 241.093 109.02 244.09 116.989 244.09C123.805 244.09 130.44 241.897 135.915 237.835C141.391 233.773 145.416 228.058 147.398 221.532C149.541 214.711 153.788 208.745 159.529 204.488C165.27 200.232 172.211 197.903 179.356 197.837C214.452 197.511 242.801 168.948 242.801 133.752Z" fill="url(#paint0_linear_195_982)"/>
<path d="M148.9 175.209C148.585 176.572 149.434 177.675 150.796 177.675H193.555C194.258 177.643 194.932 177.386 195.478 176.942C196.024 176.498 196.413 175.891 196.588 175.209L212.46 106.394C212.775 105.034 211.926 103.931 210.567 103.931H167.819C167.117 103.963 166.444 104.219 165.898 104.663C165.352 105.106 164.962 105.713 164.786 106.394L148.9 175.209Z" fill="#783477"/>
<path d="M148.9 175.209C148.585 176.572 149.434 177.675 150.796 177.675H193.555C194.258 177.643 194.932 177.386 195.478 176.942C196.024 176.498 196.413 175.891 196.588 175.209L212.46 106.394C212.775 105.034 211.926 103.931 210.567 103.931H167.819C167.117 103.963 166.444 104.219 165.898 104.663C165.352 105.106 164.962 105.713 164.786 106.394L148.9 175.209Z" fill="white"/>
<g style="mix-blend-mode:multiply">
<path d="M167.297 112.605H207.102L207.918 109.056H168.114L167.297 112.605Z" fill="#253A69"/>
</g>
<g style="mix-blend-mode:multiply">
<path d="M179.62 118.126H205.826L206.645 114.577H180.436L179.62 118.126Z" fill="#253A69"/>
</g>
<g style="mix-blend-mode:multiply">
<path d="M153.817 170.169H193.817L204.844 122.376H164.844L153.817 170.169Z" fill="#253A69"/>
</g>
<path d="M187.05 131.011C186.305 134.246 188.319 136.868 191.552 136.868H204.558C207.79 136.868 211.014 134.246 211.773 131.011C212.532 127.777 210.503 125.155 207.271 125.155H194.264C191.032 125.155 187.797 127.777 187.05 131.011Z" fill="#0E1B3F"/>
<path d="M200.052 131.714C200.541 131.278 200.656 130.609 200.309 130.22C199.963 129.831 199.285 129.868 198.796 130.305C198.307 130.741 198.192 131.41 198.539 131.799C198.885 132.188 199.563 132.15 200.052 131.714Z" fill="white"/>
<path d="M205.21 131.712C205.699 131.276 205.814 130.607 205.467 130.218C205.121 129.829 204.443 129.866 203.954 130.303C203.465 130.739 203.35 131.408 203.697 131.797C204.043 132.187 204.721 132.149 205.21 131.712Z" fill="white"/>
<path d="M194.896 131.714C195.385 131.278 195.5 130.609 195.153 130.22C194.806 129.831 194.129 129.868 193.64 130.305C193.151 130.741 193.036 131.41 193.382 131.799C193.729 132.188 194.407 132.15 194.896 131.714Z" fill="white"/>
<path d="M191.129 136.075L188.012 141.022L196.73 136.075H191.129Z" fill="#0E1B3F"/>
<path d="M106.035 161.209C105.978 161.387 105.965 161.576 105.997 161.759C106.029 161.943 106.105 162.117 106.218 162.265C106.332 162.413 106.479 162.532 106.648 162.61C106.818 162.689 107.003 162.725 107.19 162.716H174.825C175.254 162.695 175.664 162.537 175.997 162.266C176.331 161.995 176.569 161.625 176.677 161.209L179.852 147.461C179.909 147.283 179.922 147.094 179.89 146.91C179.859 146.726 179.783 146.553 179.669 146.405C179.556 146.256 179.408 146.138 179.239 146.059C179.07 145.981 178.884 145.945 178.698 145.953H111.062C110.634 145.975 110.223 146.133 109.89 146.404C109.557 146.675 109.318 147.045 109.21 147.461L106.035 161.209Z" fill="white"/>
<path d="M106.035 161.209C105.978 161.387 105.965 161.576 105.997 161.759C106.029 161.943 106.105 162.117 106.218 162.265C106.332 162.413 106.479 162.532 106.648 162.61C106.818 162.689 107.003 162.725 107.19 162.716H174.825C175.254 162.695 175.664 162.537 175.997 162.266C176.331 161.995 176.569 161.625 176.677 161.209L179.852 147.461C179.909 147.283 179.922 147.094 179.89 146.91C179.859 146.726 179.783 146.553 179.669 146.405C179.556 146.256 179.408 146.138 179.239 146.059C179.07 145.981 178.884 145.945 178.698 145.953H111.062C110.634 145.975 110.223 146.133 109.89 146.404C109.557 146.675 109.318 147.045 109.21 147.461L106.035 161.209Z" fill="white"/>
<path d="M178.695 145.965C178.881 145.956 179.067 145.993 179.236 146.071C179.405 146.15 179.553 146.268 179.666 146.417C179.78 146.565 179.856 146.738 179.888 146.922C179.919 147.106 179.906 147.295 179.849 147.473L176.675 161.221C176.566 161.637 176.328 162.007 175.995 162.278C175.662 162.549 175.251 162.707 174.822 162.728H107.187C107.001 162.737 106.815 162.701 106.646 162.622C106.476 162.544 106.329 162.425 106.215 162.277C106.102 162.129 106.026 161.955 105.994 161.771C105.962 161.588 105.975 161.399 106.033 161.221L109.207 147.473C109.315 147.058 109.553 146.688 109.886 146.417C110.218 146.146 110.628 145.988 111.057 145.965H178.695ZM178.695 145.177H111.06C110.453 145.198 109.869 145.415 109.396 145.797C108.923 146.179 108.587 146.704 108.439 147.294L105.265 161.045C105.191 161.342 105.185 161.652 105.247 161.952C105.309 162.252 105.437 162.534 105.623 162.777C105.813 163.008 106.052 163.194 106.323 163.319C106.595 163.445 106.891 163.507 107.19 163.502H174.825C175.432 163.482 176.016 163.265 176.489 162.883C176.962 162.501 177.297 161.975 177.445 161.385L180.62 147.634C180.693 147.337 180.7 147.027 180.638 146.727C180.576 146.428 180.447 146.145 180.262 145.902C180.072 145.67 179.832 145.485 179.56 145.36C179.288 145.234 178.991 145.172 178.692 145.177H178.695Z" fill="#9BC3DA"/>
<path d="M130.242 153.132H173.942L174.614 150.216H130.914L130.242 153.132Z" fill="#4C85D8"/>
<path d="M129.009 158.475H172.706L173.382 155.562H129.682L129.009 158.475Z" fill="#4C85D8"/>
<path d="M117.677 139.577C117.632 139.722 117.622 139.875 117.649 140.024C117.676 140.173 117.738 140.314 117.83 140.434C117.922 140.554 118.042 140.65 118.179 140.714C118.316 140.778 118.467 140.808 118.618 140.802H173.523C173.872 140.785 174.206 140.657 174.476 140.437C174.747 140.217 174.94 139.915 175.027 139.577L177.601 128.417C177.646 128.272 177.656 128.12 177.629 127.971C177.603 127.822 177.541 127.682 177.449 127.562C177.357 127.442 177.238 127.347 177.101 127.283C176.964 127.219 176.814 127.189 176.663 127.195H121.758C121.409 127.211 121.075 127.338 120.804 127.558C120.534 127.778 120.341 128.079 120.254 128.417L117.677 139.577Z" fill="#AFC9E0"/>
<path d="M54.7241 157.012C54.6789 157.156 54.6692 157.309 54.6958 157.458C54.7224 157.607 54.7845 157.747 54.8768 157.867C54.9691 157.987 55.0889 158.083 55.2261 158.147C55.3633 158.21 55.5138 158.24 55.6648 158.233H96.5973C96.9456 158.217 97.2797 158.09 97.5504 157.87C97.8211 157.651 98.0141 157.349 98.1009 157.012L110.221 104.436C110.266 104.292 110.276 104.139 110.25 103.99C110.223 103.842 110.161 103.701 110.069 103.582C109.977 103.462 109.858 103.366 109.721 103.302C109.584 103.238 109.434 103.208 109.283 103.215H68.348C68 103.231 67.6664 103.359 67.3959 103.578C67.1254 103.798 66.9322 104.099 66.8445 104.436L54.7241 157.012Z" fill="#FBFDFE"/>
<path d="M108.353 179.999C108.307 180.144 108.297 180.297 108.323 180.446C108.349 180.595 108.411 180.736 108.503 180.856C108.595 180.976 108.715 181.072 108.852 181.136C108.989 181.2 109.14 181.23 109.291 181.224H164.211C164.559 181.208 164.894 181.08 165.164 180.86C165.435 180.639 165.628 180.338 165.714 179.999L168.289 168.839C168.334 168.695 168.344 168.541 168.318 168.392C168.292 168.243 168.23 168.103 168.138 167.983C168.046 167.863 167.926 167.767 167.789 167.703C167.652 167.64 167.502 167.61 167.351 167.617H112.445C112.097 167.633 111.763 167.76 111.492 167.98C111.221 168.2 111.028 168.501 110.941 168.839L108.353 179.999Z" fill="#AFC9E0"/>
<path d="M122.203 178.126C124.735 175.868 125.333 172.406 123.54 170.392C121.747 168.379 118.241 168.578 115.709 170.836C113.177 173.094 112.578 176.556 114.371 178.57C116.165 180.583 119.671 180.384 122.203 178.126Z" fill="white"/>
<mask id="mask0_195_982" style="mask-type:alpha" maskUnits="userSpaceOnUse" x="113" y="169" width="12" height="11">
<path d="M122.203 178.126C124.735 175.868 125.333 172.406 123.54 170.392C121.747 168.379 118.241 168.578 115.709 170.836C113.177 173.094 112.578 176.556 114.371 178.57C116.165 180.583 119.671 180.384 122.203 178.126Z" fill="white"/>
</mask>
<g mask="url(#mask0_195_982)">
<path d="M112.335 181.594H122.035L122.254 178.521C122.255 178.294 122.191 178.072 122.068 177.882C121.946 177.691 121.771 177.54 121.564 177.447L119.495 176.581H117.172L114.575 177.482C114.575 177.482 113.47 178.059 113.308 179.029L112.335 181.594Z" fill="#D63D3B"/>
<path d="M117.164 176.577L117.882 178.517L119.498 176.577L119.161 175.477L119.094 175.433L118.003 174.732L117.767 174.579L117.432 175.682L117.164 176.577Z" fill="#FACAD4"/>
<g style="mix-blend-mode:multiply">
<path d="M118.327 175.206C118.331 175.533 118.448 175.848 118.658 176.098C118.869 176.348 119.16 176.518 119.481 176.577L119.146 175.477L119.08 175.434L118.327 175.206Z" fill="#FACAD4"/>
</g>
<g style="mix-blend-mode:multiply">
<path d="M117.432 175.682L118.004 174.732L117.767 174.579L117.432 175.682Z" fill="#FACAD4"/>
</g>
<path d="M116.731 173.244C116.73 173.252 116.73 173.261 116.731 173.27C116.699 173.383 116.695 173.502 116.718 173.617C116.742 173.733 116.792 173.841 116.865 173.933C116.939 174.025 117.033 174.098 117.14 174.146C117.247 174.195 117.364 174.217 117.481 174.211C117.757 174.198 118.022 174.098 118.236 173.924C118.451 173.749 118.604 173.511 118.673 173.244C118.695 173.155 118.703 173.063 118.696 172.972H119.106C119.07 173.049 119.043 173.129 119.025 173.212C118.986 173.344 118.979 173.484 119.005 173.619C119.03 173.755 119.088 173.882 119.172 173.991C119.257 174.099 119.366 174.186 119.491 174.244C119.616 174.302 119.753 174.329 119.891 174.324C120.208 174.31 120.512 174.194 120.758 173.994C121.005 173.794 121.18 173.519 121.259 173.212C121.298 173.07 121.303 172.92 121.272 172.776C121.24 172.631 121.175 172.497 121.08 172.383C121.417 172.144 121.657 171.793 121.758 171.393C121.824 171.142 121.801 170.876 121.695 170.639C121.608 170.464 121.473 170.318 121.305 170.219C121.136 170.12 120.943 170.072 120.748 170.082C120.452 170.093 120.164 170.181 119.912 170.335C119.659 170.49 119.45 170.707 119.305 170.965C119.157 170.855 118.976 170.797 118.792 170.801C118.502 170.814 118.224 170.92 117.999 171.103C117.774 171.286 117.614 171.536 117.542 171.817C117.498 171.991 117.507 172.174 117.568 172.343C117.365 172.413 117.183 172.532 117.037 172.689C116.891 172.846 116.786 173.036 116.731 173.244V173.244Z" fill="#233166"/>
<path d="M117.556 174.203C117.556 174.203 117.328 174.908 117.946 174.821C117.946 174.821 118.107 175.688 119.305 175.688C119.305 175.688 119.648 175.688 119.778 175.217L119.972 174.374C119.972 174.374 119.894 174.429 120.047 174.235C119.965 173.9 119.929 173.555 119.94 173.21C119.965 173.152 119.977 173.09 119.976 173.027C119.974 172.964 119.96 172.902 119.932 172.845C119.905 172.788 119.866 172.738 119.817 172.698C119.769 172.658 119.712 172.629 119.651 172.612L119.175 172.523C119.11 172.513 119.044 172.529 118.991 172.566C118.874 172.646 118.748 172.712 118.615 172.762C118.653 173.092 118.564 173.423 118.368 173.691C118.172 173.958 117.882 174.141 117.556 174.203V174.203Z" fill="#FACAD4"/>
<path d="M119.668 173.625C119.634 174.085 119.432 174.492 119.215 174.518C118.999 174.544 118.849 174.206 118.883 173.744C118.918 173.282 119.12 172.878 119.336 172.852C119.553 172.826 119.703 173.158 119.668 173.625Z" fill="white"/>
<path d="M120.376 173.678C120.347 174.093 120.179 174.454 120.001 174.483C119.822 174.512 119.712 174.194 119.735 173.773C119.758 173.351 119.934 172.996 120.11 172.967C120.286 172.938 120.407 173.259 120.376 173.678Z" fill="white"/>
<path d="M118.243 173.703H118.958C118.974 173.702 118.989 173.697 119.002 173.687C119.014 173.677 119.023 173.663 119.028 173.648C119.029 173.641 119.029 173.634 119.028 173.628C119.027 173.621 119.024 173.614 119.02 173.609C119.016 173.603 119.01 173.599 119.004 173.596C118.998 173.592 118.991 173.591 118.984 173.59H118.269C118.253 173.592 118.237 173.598 118.225 173.609C118.213 173.619 118.204 173.633 118.199 173.648C118.198 173.655 118.197 173.662 118.199 173.668C118.2 173.675 118.203 173.681 118.207 173.686C118.211 173.692 118.217 173.696 118.223 173.699C118.229 173.702 118.236 173.703 118.243 173.703V173.703Z" fill="white"/>
<path d="M119.533 173.729L119.827 173.703L119.844 173.59L119.55 173.616L119.533 173.729Z" fill="white"/>
<g style="mix-blend-mode:screen" opacity="0.5">
<path d="M116.731 173.245C116.73 173.253 116.73 173.262 116.731 173.271C117.92 172.982 118.2 172.116 118.2 172.116C118.302 171.901 118.48 171.73 118.699 171.637C118.917 171.543 119.163 171.533 119.389 171.607C119.863 171.643 120.339 171.556 120.771 171.356C120.92 171.29 121.047 171.183 121.139 171.048C121.23 170.914 121.283 170.756 121.291 170.594C121.292 170.524 121.279 170.455 121.252 170.39C121.226 170.326 121.187 170.267 121.137 170.218C121.088 170.17 121.028 170.131 120.964 170.106C120.899 170.081 120.829 170.069 120.76 170.071H120.737C120.441 170.083 120.152 170.17 119.9 170.325C119.647 170.479 119.439 170.696 119.294 170.955C119.146 170.844 118.965 170.786 118.78 170.79C118.49 170.803 118.213 170.909 117.988 171.092C117.763 171.275 117.602 171.526 117.53 171.807C117.486 171.98 117.495 172.164 117.556 172.332C117.355 172.405 117.174 172.526 117.03 172.685C116.886 172.844 116.783 173.036 116.731 173.245V173.245Z" fill="#233166"/>
</g>
</g>
<path d="M128.002 173.433H163.475L164.023 171.065H128.548L128.002 173.433Z" fill="#4C85D8"/>
<path d="M127.001 177.77H162.474L163.022 175.405H127.55L127.001 177.77Z" fill="#4C85D8"/>
<path d="M137.33 133.011H172.802L173.348 130.644H137.875L137.33 133.011Z" fill="#4C85D8"/>
<path d="M136.329 137.348H171.801L172.347 134.983H136.874L136.329 137.348Z" fill="#4C85D8"/>
<path d="M131.561 137.712C134.112 135.437 134.716 131.949 132.91 129.922C131.104 127.894 127.572 128.095 125.021 130.37C122.47 132.645 121.866 136.133 123.672 138.16C125.478 140.188 129.01 139.987 131.561 137.712Z" fill="white"/>
<mask id="mask1_195_982" style="mask-type:alpha" maskUnits="userSpaceOnUse" x="122" y="128" width="12" height="12">
<path d="M131.561 137.71C134.112 135.435 134.716 131.947 132.91 129.92C131.104 127.892 127.572 128.093 125.021 130.368C122.47 132.643 121.866 136.131 123.672 138.158C125.478 140.186 129.01 139.985 131.561 137.71Z" fill="white"/>
</mask>
<g mask="url(#mask1_195_982)">
<g style="mix-blend-mode:multiply">
<g style="mix-blend-mode:multiply">
<path d="M130.205 136.875C130.052 137.228 129.787 137.521 129.452 137.709L125.051 140.187L123.161 141.249L122.759 141.475C122.601 141.579 122.415 141.635 122.226 141.635C122.036 141.635 121.85 141.579 121.692 141.475C121.037 140.961 121.692 140.192 122.13 139.563C122.69 138.749 123.285 137.943 123.842 137.134L124.621 137.672L124.003 138.893L127.348 135.532C127.674 135.263 128.898 135.073 129.267 135.102C129.438 135.109 129.604 135.162 129.748 135.254C129.892 135.347 130.009 135.477 130.086 135.63L130.216 135.896C130.283 136.051 130.316 136.218 130.314 136.386C130.312 136.555 130.275 136.721 130.205 136.875V136.875Z" fill="#D1E6F7"/>
</g>
<g style="mix-blend-mode:multiply">
<path d="M125.735 137.423L125.051 140.186L123.161 141.249L124.298 140.094C124.585 139.113 125.074 138.203 125.735 137.423V137.423Z" fill="#DFF2F8"/>
</g>
<g style="mix-blend-mode:multiply">
<path d="M127.203 133.885L126.684 133.96L125.388 134.188C125.322 134.466 125.291 134.751 125.296 135.037C125.296 135.037 124.274 136.513 123.853 137.128L124.632 137.665L125.847 135.234C126.352 135.121 127.025 134.627 127.045 134.457C127.065 134.286 127.4 133.937 127.4 133.937C127.377 133.775 127.203 133.885 127.203 133.885Z" fill="#F4D2AE"/>
</g>
<g style="mix-blend-mode:multiply">
<path d="M125.342 133.888L125.631 133.565C125.631 133.565 125.593 133.438 125.443 133.542C125.393 133.582 125.356 133.637 125.338 133.699C125.32 133.761 125.322 133.827 125.342 133.888V133.888Z" fill="#F4D2AE"/>
</g>
<g style="mix-blend-mode:multiply">
<path d="M125.662 133.514L126.066 133.04L125.778 133.219C125.778 133.219 125.558 133.361 125.662 133.514Z" fill="#F4D2AE"/>
</g>
<g style="mix-blend-mode:multiply">
<path d="M126.421 132.62L126.179 132.909C126.175 132.869 126.179 132.828 126.191 132.79C126.204 132.752 126.224 132.717 126.251 132.687C126.297 132.643 126.358 132.619 126.421 132.62V132.62Z" fill="#F4D2AE"/>
</g>
<g style="mix-blend-mode:multiply">
<path d="M126.473 134.74C126.439 134.786 126.39 134.818 126.335 134.831C126.279 134.844 126.22 134.836 126.17 134.809L125.327 134.2C125.307 134.181 125.292 134.159 125.281 134.134C125.27 134.109 125.264 134.082 125.264 134.055C125.264 134.028 125.27 134.001 125.281 133.976C125.292 133.951 125.307 133.929 125.327 133.911L126.995 131.944C127.03 131.898 127.079 131.865 127.135 131.853C127.192 131.84 127.25 131.848 127.301 131.875L128.144 132.484C128.164 132.503 128.179 132.525 128.19 132.55C128.2 132.575 128.206 132.602 128.206 132.629C128.206 132.656 128.2 132.682 128.19 132.707C128.179 132.732 128.164 132.754 128.144 132.773L126.473 134.74Z" fill="#F05673"/>
</g>
<g style="mix-blend-mode:multiply">
<path d="M126.514 134.453L125.62 133.806L127.063 132.108L127.954 132.755L126.514 134.453Z" fill="white"/>
</g>
<g style="mix-blend-mode:multiply">
<path d="M127.781 132.421C127.775 132.426 127.767 132.429 127.759 132.429C127.752 132.429 127.744 132.426 127.738 132.421L127.449 132.216C127.444 132.211 127.441 132.203 127.441 132.196C127.441 132.188 127.444 132.181 127.449 132.176C127.455 132.17 127.463 132.167 127.471 132.167C127.479 132.167 127.487 132.17 127.492 132.176L127.781 132.378C127.784 132.38 127.787 132.384 127.788 132.387C127.79 132.391 127.791 132.395 127.791 132.399C127.791 132.403 127.79 132.407 127.788 132.411C127.787 132.415 127.784 132.418 127.781 132.421V132.421Z" fill="white"/>
</g>
<g style="mix-blend-mode:multiply">
<path d="M127.391 132.014C127.192 132.32 126.955 132.534 126.863 132.49C126.77 132.447 126.863 132.164 127.053 131.858C127.244 131.552 127.489 131.338 127.581 131.382C127.674 131.425 127.59 131.708 127.391 132.014Z" fill="white"/>
</g>
<g style="mix-blend-mode:multiply">
<path d="M129.74 134.87L127.388 135.577C127.388 135.577 127.405 135.494 127.426 135.289C127.466 134.816 127.481 134.342 127.472 133.868C127.472 133.735 127.472 133.435 127.472 133.435L128.092 132.993L129.189 131.974L130.095 132.13L129.466 133.862C129.427 134.04 129.431 134.224 129.479 134.4C129.527 134.575 129.616 134.737 129.74 134.87V134.87Z" fill="#F4D2AE"/>
</g>
<g style="mix-blend-mode:multiply">
<path d="M126.283 134.029L126.441 133.63C126.571 133.416 126.688 133.196 126.794 132.969L126.779 132.836L126.918 132.547C126.776 132.513 126.609 132.397 126.869 132.227C127.032 132.095 127.173 131.938 127.287 131.762C127.318 131.687 127.342 131.61 127.359 131.531C127.427 131.327 127.552 131.146 127.72 131.011C127.728 131 127.739 130.991 127.752 130.985C127.833 130.922 127.921 130.869 128.014 130.826V130.826C128.062 130.805 128.111 130.788 128.161 130.774L128.739 131.034L129.982 131.612L129.801 131.97L129.512 132.547L129.267 133.033L128.629 132.796L128.591 132.781V132.833L128.438 133.344L128.216 133.503L127.4 134.081H127.324H127.244L126.566 134.211C126.306 134.268 126.277 134.147 126.277 134.084C126.276 134.065 126.278 134.047 126.283 134.029V134.029Z" fill="#F4D2AE"/>
</g>
<g style="mix-blend-mode:multiply">
<path d="M128.65 131.336C128.665 131.304 128.673 131.269 128.673 131.234C128.673 131.199 128.665 131.165 128.65 131.133C128.631 131.106 128.606 131.083 128.576 131.068C128.546 131.053 128.513 131.045 128.48 131.047C128.067 131.047 127.507 130.908 127.807 130.152C127.807 130.152 128.165 129.395 128.762 129.736C128.762 129.736 128.985 129.967 129.461 129.716C129.937 129.464 130.416 129.534 130.615 129.802C130.669 129.864 130.71 129.936 130.735 130.014C130.761 130.092 130.77 130.174 130.762 130.256C130.755 130.3 130.755 130.344 130.762 130.388C130.765 130.445 130.789 130.498 130.83 130.537C130.871 130.576 130.925 130.598 130.982 130.599C131.224 130.599 131.654 130.928 131.322 131.642C131.256 131.78 131.165 131.906 131.054 132.011L131.022 132.04C130.885 132.17 130.734 132.284 130.572 132.381C130.504 132.427 130.448 132.488 130.405 132.558C130.363 132.628 130.336 132.707 130.326 132.788C130.28 133.001 130.18 133.198 130.036 133.361C129.893 133.525 129.709 133.648 129.504 133.721L129.368 133.521C129.3 133.401 129.277 133.261 129.304 133.125C129.33 132.989 129.404 132.868 129.513 132.782C129.579 132.731 129.627 132.66 129.648 132.579C129.67 132.498 129.664 132.412 129.631 132.335C129.614 132.296 129.587 132.263 129.553 132.238C129.519 132.214 129.479 132.198 129.438 132.193C129.388 132.186 129.338 132.191 129.29 132.208C129.243 132.224 129.201 132.252 129.166 132.288C129.086 132.364 128.999 132.432 128.907 132.491L128.329 132.869L128.563 132.199C128.623 132.041 128.643 131.87 128.621 131.702C128.6 131.579 128.61 131.454 128.65 131.336V131.336Z" fill="#182F57"/>
</g>
<g style="mix-blend-mode:multiply">
<path d="M129.829 135.006L129.754 134.356L127.322 135.099L126.739 136.121L129.829 135.006Z" fill="white"/>
</g>
<g style="mix-blend-mode:multiply">
<path d="M127.322 135.099L126.696 135.714L126.702 135.936L126.93 136.063L127.322 135.099Z" fill="white"/>
</g>
<g style="mix-blend-mode:multiply">
<path d="M130.756 139.261C130.661 139.521 130.554 139.787 130.442 140.061C129.968 141.216 129.385 142.441 129.094 143.393C128.96 143.726 128.937 144.092 129.028 144.439C129.045 144.511 129.044 144.587 129.026 144.659C129.008 144.732 128.973 144.799 128.924 144.855C128.874 144.916 128.812 144.967 128.742 145.004C128.672 145.04 128.596 145.062 128.517 145.068C128.202 145.082 127.888 145.052 127.582 144.979C127.322 144.907 127.049 144.897 126.785 144.95C126.186 145.051 125.604 145.232 125.054 145.49C124.832 145.602 124.26 146.174 124.041 146.082C123.752 145.961 124.289 144.953 124.393 144.716C124.748 143.893 125.034 142.929 125.403 142.117C125.565 141.762 125.692 141.453 125.787 141.222C126.012 140.619 126.059 139.965 125.922 139.336C125.876 139.096 125.866 138.849 125.894 138.606C126 137.763 126.168 136.836 126.759 136.07C126.933 135.858 127.14 135.676 127.374 135.533C127.793 135.289 128.244 135.103 128.713 134.979C129.365 134.788 129.781 134.69 130.257 135.048C130.592 135.336 130.81 135.737 130.872 136.174C130.872 136.174 131.426 137.462 130.756 139.261Z" fill="#DFF2F8"/>
</g>
<g style="mix-blend-mode:multiply">
<path d="M127.714 132.043C127.515 132.349 127.278 132.563 127.186 132.52C127.094 132.476 127.186 132.193 127.376 131.887C127.567 131.581 127.812 131.368 127.905 131.411C127.997 131.454 127.913 131.754 127.714 132.043Z" fill="white"/>
</g>
<g style="mix-blend-mode:multiply">
<path d="M126.234 137.163L125.62 138.731C125.62 138.731 125.36 139.82 125.983 140.464L126.713 137.423L126.234 137.163Z" fill="#DFF2F8"/>
</g>
<g style="mix-blend-mode:multiply">
<path d="M126.788 135.722L126.531 136.071C126.427 136.203 126.33 136.341 126.243 136.484C126.142 136.652 126.018 136.842 125.899 137.062C125.781 137.281 125.671 137.506 125.55 137.752C125.429 137.997 125.322 138.266 125.218 138.543C125.169 138.682 125.117 138.832 125.068 138.967L124.99 139.184C124.967 139.256 124.947 139.328 124.924 139.403L124.794 139.851C124.751 140.001 124.719 140.14 124.684 140.301C124.606 140.59 124.554 140.911 124.503 141.211L124.485 141.324V141.35C124.485 141.35 124.485 141.35 124.485 141.367V141.422C124.485 141.497 124.465 141.555 124.462 141.641C124.448 141.809 124.445 141.953 124.442 142.098C124.442 142.675 124.442 143.146 124.419 143.541C124.406 143.711 124.382 143.88 124.347 144.047C124.321 144.163 124.287 144.276 124.246 144.388L124.197 144.5L124.156 144.578L124.122 144.642L124.303 145.577L125.406 145.06L125.458 144.919L125.518 144.751L125.579 144.529C125.623 144.339 125.654 144.146 125.671 143.951C125.687 143.727 125.687 143.501 125.671 143.276C125.645 142.808 125.55 142.323 125.489 141.832C125.489 141.711 125.461 141.587 125.452 141.477C125.452 141.425 125.452 141.344 125.452 141.28V141.22C125.452 141.246 125.452 141.22 125.452 141.22V141.081C125.452 140.81 125.469 140.533 125.504 140.252C125.521 140.114 125.527 139.964 125.55 139.834C125.573 139.704 125.596 139.545 125.616 139.415L125.651 139.204L125.697 138.999L125.784 138.601C125.847 138.338 125.931 138.084 126 137.841C126.07 137.599 126.171 137.373 126.246 137.163C126.321 136.952 126.422 136.773 126.497 136.605C126.572 136.44 126.656 136.279 126.748 136.123C126.819 136 126.884 135.873 126.941 135.742L126.788 135.722Z" fill="white"/>
</g>
<g style="mix-blend-mode:multiply">
<path d="M129.227 141.466C129.363 140.348 128.817 140.311 128.791 139.843C128.765 139.375 128.142 139.003 128.142 139.003C127.484 138.382 127.677 136.981 127.677 136.981L130.442 140.06C129.969 141.215 129.386 142.439 129.094 143.392L129.227 141.466Z" fill="#DFF2F8"/>
</g>
<path style="mix-blend-mode:multiply" d="M132.771 141.044L130.69 135.788C130.628 135.633 130.527 135.496 130.397 135.392C130.266 135.288 130.111 135.219 129.946 135.193C129.694 135.149 129.435 135.176 129.198 135.271C128.912 135.318 128.64 135.426 128.4 135.588C128.16 135.75 127.957 135.962 127.807 136.21C127.331 137.047 128.006 138.038 128.006 138.038L128.321 138.384C128.633 138.731 128.918 138.309 129.302 139.507C129.47 140.127 129.873 140.656 130.425 140.983L130.658 141.595C129.316 143.062 128.861 143.576 128.33 144.151L128.84 144.942C130.122 143.987 131.352 142.964 132.526 141.878C132.644 141.779 132.73 141.646 132.774 141.498C132.817 141.349 132.816 141.192 132.771 141.044Z" fill="url(#paint1_linear_195_982)"/>
<g style="mix-blend-mode:multiply">
<path d="M127.443 135.061L127.662 134.994L127.919 134.33C128.459 133.903 128.262 133.132 128.262 133.132L127.472 133.86C127.475 134.405 127.46 134.795 127.443 135.061Z" fill="#F4D2AE"/>
</g>
<g style="mix-blend-mode:multiply">
<path d="M126.779 132.836C126.777 132.858 126.779 132.879 126.786 132.9C126.794 132.92 126.805 132.938 126.82 132.954C126.836 132.969 126.854 132.98 126.874 132.988C126.895 132.995 126.916 132.997 126.938 132.995C127.062 132.992 127.184 133.017 127.296 133.071C127.408 133.124 127.506 133.203 127.581 133.301C127.6 133.326 127.626 133.344 127.655 133.355C127.684 133.367 127.715 133.37 127.746 133.365C127.818 133.356 127.884 133.319 127.93 133.264C127.992 133.191 128.042 133.11 128.078 133.021L128.461 132.363L128.834 131.722L129.03 132.371C128.932 132.623 128.271 132.758 128.28 133.088C128.285 133.231 128.266 133.374 128.225 133.512C128.205 133.573 128.187 133.604 128.187 133.607C128.087 133.782 127.949 133.932 127.783 134.047C127.617 134.161 127.428 134.237 127.229 134.269C127.068 134.304 126.903 134.321 126.739 134.321C126.706 134.372 126.662 134.416 126.612 134.45C126.529 134.514 126.427 134.549 126.323 134.549C126.219 134.549 126.117 134.514 126.034 134.45C125.443 133.922 126.779 132.836 126.779 132.836Z" fill="#182F57"/>
</g>
<g style="mix-blend-mode:multiply">
<path d="M129.004 132.552H128.981L127.218 131.94C127.21 131.937 127.203 131.933 127.196 131.927C127.19 131.922 127.185 131.915 127.181 131.908C127.177 131.9 127.175 131.892 127.174 131.884C127.174 131.875 127.175 131.867 127.178 131.859C127.184 131.843 127.196 131.83 127.212 131.823C127.228 131.816 127.245 131.815 127.261 131.821L129.025 132.433C129.033 132.436 129.04 132.44 129.046 132.446C129.053 132.451 129.058 132.458 129.062 132.465C129.065 132.473 129.068 132.481 129.068 132.489C129.069 132.498 129.068 132.506 129.065 132.514C129.059 132.525 129.051 132.535 129.04 132.541C129.029 132.548 129.017 132.552 129.004 132.552V132.552Z" fill="white"/>
</g>
</g>
</g>
<path d="M122.517 158.413C125.267 155.961 125.917 152.201 123.97 150.015C122.023 147.83 118.216 148.046 115.466 150.498C112.717 152.95 112.066 156.71 114.013 158.896C115.96 161.082 119.767 160.866 122.517 158.413Z" fill="#96C0E6"/>
<mask id="mask2_195_982" style="mask-type:alpha" maskUnits="userSpaceOnUse" x="112" y="148" width="14" height="13">
<path d="M122.517 158.413C125.267 155.961 125.917 152.201 123.97 150.015C122.023 147.83 118.216 148.046 115.466 150.498C112.717 152.95 112.066 156.71 114.013 158.896C115.96 161.082 119.767 160.866 122.517 158.413Z" fill="#96C0E6"/>
</mask>
<g mask="url(#mask2_195_982)">
<path d="M121.585 152.104L121.059 153.028L120.24 154.472L119.83 154.712L119.351 155L117.928 155.832L117.862 155.754L117.749 155.621L116.904 154.628C116.853 154.05 116.871 153.469 116.956 152.895C116.971 152.765 116.997 152.637 117.034 152.511V152.482C117.081 152.326 117.142 152.174 117.216 152.029C117.259 151.945 117.308 151.864 117.36 151.784C117.743 151.206 118.221 150.699 118.774 150.282H118.817L119.755 150.034L121.585 152.104Z" fill="#FBE1EA"/>
<path d="M120.361 153.963L119.533 157.544H116.904L117.749 155.624L118.329 154.304L118.803 154.223L120.361 153.963Z" fill="#FBE1EA"/>
<g style="mix-blend-mode:multiply">
<path d="M121.059 153.029L120.24 154.473L119.533 157.537H118.378C118.546 157.13 118.849 156.748 119.391 156.064C119.557 155.884 119.682 155.67 119.756 155.436C119.831 155.203 119.853 154.956 119.821 154.713C119.807 154.612 119.774 154.514 119.726 154.424C119.612 154.625 119.484 154.818 119.342 155.001C118.81 155.669 118.129 156.204 117.354 156.564L117.853 155.755L118.794 154.225L119.319 153.358L119.827 152.203L120.93 152.042L121.059 153.029Z" fill="#FBE1EA"/>
</g>
<g style="mix-blend-mode:screen" opacity="0.5">
<path d="M119.948 150.738C119.948 150.738 118.959 150.657 118.37 150.958C118.37 150.958 117.873 151.119 117.034 152.523V152.54L117.054 152.494L117.236 152.041C117.279 151.957 117.328 151.876 117.38 151.795C117.763 151.218 118.241 150.71 118.794 150.293H118.837L119.948 150.738Z" fill="#EED8E9"/>
</g>
<path d="M118.384 150.634C118.384 150.634 118.715 149.263 119.861 149.433C120.037 149.46 120.203 149.529 120.345 149.636C120.488 149.743 120.601 149.884 120.675 150.045C120.811 150.398 121.275 150.591 121.57 150.681C121.727 150.728 121.865 150.822 121.968 150.95C122.071 151.077 122.134 151.233 122.147 151.397C122.166 151.879 122.03 152.354 121.76 152.754C121.6 153.024 121.406 153.273 121.183 153.493L120.213 154.484C120.299 154.02 120.482 153.58 120.75 153.193C120.782 153.132 120.81 153.07 120.834 153.005C120.88 152.903 120.887 152.788 120.853 152.682C120.82 152.575 120.748 152.485 120.652 152.428C120.539 152.381 120.416 152.367 120.296 152.389C120.176 152.411 120.065 152.468 119.977 152.552C119.771 152.727 119.613 152.952 119.518 153.204C119.272 153.851 118.779 157.033 116.234 156.597C116.138 156.584 116.049 156.543 115.975 156.481C115.902 156.419 115.847 156.337 115.818 156.245C115.791 156.141 115.787 156.032 115.807 155.927C115.826 155.821 115.868 155.721 115.931 155.633V155.633C115.999 155.525 116.083 155.428 116.179 155.344C116.355 155.197 116.51 155.027 116.641 154.839C116.86 154.507 116.71 154.261 117.125 154.472C117.125 154.472 118.127 155.39 119.235 153.268L119.255 152.347C119.255 152.347 118.995 151.258 119.913 151.307C119.913 151.307 120.574 151.244 119.985 150.811C119.397 150.377 118.384 150.634 118.384 150.634Z" fill="#172F57"/>
<path fill-rule="evenodd" clip-rule="evenodd" d="M116.594 157.951L116.632 157.934L115.723 160.738L114.263 165.234L113.974 166.158L113.893 166.404L113.105 168.832L113.241 169.309H112.344C112.344 169.127 112.344 168.864 112.344 168.546C112.315 166.903 112.431 165.26 112.69 163.637C112.754 163.295 112.841 162.957 112.95 162.627C113.059 162.309 113.178 162.009 113.305 161.728C113.382 161.555 113.463 161.388 113.544 161.229L113.561 161.194C114.73 158.899 116.326 158.076 116.594 157.951Z" fill="#A1246A"/>
<path d="M119.002 164.923C118.518 165.59 118.298 166.413 118.384 167.233C118.451 168.05 118.477 168.746 118.482 169.324H112.662L112.682 169.24C112.752 168.801 112.779 168.356 112.763 167.912C112.763 167.623 112.763 167.334 112.763 167.011C112.794 166.065 112.891 165.122 113.051 164.19C113.183 163.396 113.385 162.616 113.657 161.859C113.781 161.499 113.941 161.153 114.136 160.826C114.713 159.598 116.058 158.406 116.589 157.967C116.725 157.854 116.809 157.791 116.809 157.791C118.058 157.326 118.979 157.248 119.657 157.392C119.808 157.424 119.956 157.47 120.098 157.531C121.013 157.918 121.345 158.784 121.466 159.434C121.516 159.702 121.537 159.975 121.527 160.248C121.468 161.092 121.213 161.911 120.782 162.639C120.37 163.271 119.906 163.867 119.394 164.421C119.256 164.577 119.123 164.747 119.002 164.923Z" fill="white"/>
<path d="M119.737 156.598L119.74 157.337L116.482 158.134L117.036 157.173L119.737 156.598Z" fill="white"/>
<path d="M121.161 163.334C121.15 163.361 121.137 163.387 121.123 163.412C120.982 163.708 120.815 163.992 120.624 164.258L119.469 165.87L119.441 165.91L119.267 166.156L118.979 166.569C118.979 166.569 118.537 167.019 118.555 167.215V167.238L118.633 167.75L118.866 169.309H114.139C114.11 169.19 114.079 169.075 114.041 168.959C113.867 168.35 113.795 167.716 113.828 167.082V167.082C113.828 166.872 113.845 166.646 113.862 166.404C113.864 166.383 113.864 166.362 113.862 166.34V166.257C113.862 166.216 113.862 166.173 113.862 166.132C113.908 165.659 113.981 165.125 114.09 164.521L114.142 164.25C114.392 162.993 114.911 161.805 115.663 160.767V160.753C116.7 159.345 118.047 158.195 119.599 157.392V157.392L119.677 157.354C119.837 157.364 119.995 157.387 120.15 157.423C120.616 157.532 121.035 157.787 121.347 158.151C121.658 158.514 121.846 158.967 121.882 159.445C121.883 159.458 121.883 159.472 121.882 159.485V159.485L121.536 161.925C121.481 162.411 121.354 162.886 121.161 163.334Z" fill="#A1246A"/>
<path style="mix-blend-mode:multiply" d="M118.88 169.309H118.387C118.211 168.783 118.078 168.243 117.988 167.695L117.001 167.297H117.994C118.011 166.707 118.116 166.123 118.306 165.564C118.395 165.31 117.997 164.236 117.997 163.987L117.833 159.797V159.465L119.408 164.412L119.541 164.825L119.469 165.916L119.296 166.162L119.007 166.575C119.007 166.575 118.566 167.025 118.583 167.222V167.245C118.554 167.294 118.538 167.349 118.537 167.406L118.661 167.756L118.88 169.309Z" fill="url(#paint2_linear_195_982)"/>
<path d="M121.839 166.054L121.088 169.308H119.671L119.651 167.769L119.302 166.236L119.282 166.155L119.002 164.919L117.833 159.793V159.79L117.68 159.112L119.368 159.248L121.466 159.418L121.922 159.455H121.934H121.937V159.473V159.479L121.839 166.054Z" fill="#A1246A"/>
<g style="mix-blend-mode:screen" opacity="0.3">
<path d="M121.835 166.055L121.085 169.31H120.955C120.771 168.721 120.75 168.093 120.894 167.493C121.246 166.188 121.676 165.03 121.134 163.451C121.135 163.439 121.135 163.428 121.134 163.416C121.039 163.146 120.925 162.882 120.793 162.628C120.608 162.268 120.399 161.92 120.167 161.588C119.653 160.919 119.375 160.099 119.376 159.255C119.409 158.609 119.669 157.995 120.109 157.522C120.156 157.473 120.196 157.436 120.219 157.413C121.688 157.759 121.902 159.145 121.933 159.463L121.835 166.055Z" fill="#A1246A"/>
</g>
<path opacity="0.5" d="M119.737 157.336L118.808 159.112H117.677L117.512 159.831C117.512 159.831 114.88 161.203 113.841 167.082C113.841 166.871 113.859 166.646 113.876 166.404C113.877 166.383 113.877 166.361 113.876 166.34V166.256C113.876 166.216 113.876 166.173 113.876 166.132C113.922 165.659 113.994 165.124 114.104 164.521L114.156 164.249C114.406 162.993 114.925 161.805 115.677 160.767V160.753C116.713 159.345 118.06 158.194 119.613 157.391L119.691 157.354L119.737 157.336Z" fill="#F2B8CE"/>
<path d="M117.336 157.918L117.25 157.34L116.592 157.918L116.436 158.588C114.199 161.741 112.318 167.704 112.318 167.704L112.97 168.911L114.298 167.704C114.487 164.538 115.297 161.441 116.681 158.588L117.336 157.918Z" fill="#223266"/>
</g>
<path d="M120.346 148.503C123.63 148.503 125.676 151.166 124.917 154.452C124.158 157.738 120.877 160.4 117.602 160.4C114.326 160.4 112.272 157.738 113.031 154.452C113.79 151.166 117.059 148.503 120.346 148.503ZM120.346 147.392C118.402 147.43 116.53 148.132 115.039 149.381C113.505 150.602 112.417 152.297 111.945 154.201C111.495 156.156 111.859 158.004 112.973 159.398C114.087 160.793 115.697 161.506 117.59 161.506C119.535 161.468 121.407 160.765 122.897 159.514C124.432 158.295 125.52 156.601 125.991 154.697C126.441 152.742 126.077 150.894 124.963 149.5C123.849 148.105 122.239 147.392 120.346 147.392Z" fill="#0E1B3F"/>
<path d="M96.0545 108.046C96.0248 108.136 96.0173 108.231 96.0327 108.323C96.048 108.416 96.0858 108.504 96.1427 108.579C96.1996 108.653 96.2738 108.713 96.359 108.753C96.4443 108.792 96.5379 108.811 96.6317 108.806H104.227C104.443 108.796 104.651 108.717 104.818 108.58C104.986 108.443 105.106 108.256 105.159 108.046C105.189 107.957 105.197 107.862 105.181 107.769C105.166 107.677 105.128 107.589 105.071 107.514C105.014 107.439 104.94 107.379 104.855 107.34C104.77 107.3 104.676 107.282 104.582 107.287H96.9895C96.7731 107.297 96.5657 107.376 96.3974 107.513C96.2292 107.65 96.1091 107.837 96.0545 108.046V108.046Z" fill="#3961AA"/>
<path d="M102.825 111.66C102.8 111.736 102.795 111.817 102.809 111.896C102.822 111.975 102.855 112.05 102.904 112.113C102.953 112.177 103.016 112.228 103.089 112.261C103.161 112.295 103.241 112.311 103.321 112.307C103.505 112.298 103.682 112.231 103.825 112.114C103.969 111.998 104.071 111.839 104.118 111.66C104.141 111.583 104.146 111.502 104.132 111.423C104.118 111.345 104.085 111.27 104.036 111.207C103.987 111.143 103.923 111.093 103.851 111.059C103.778 111.025 103.698 111.01 103.618 111.013C103.434 111.023 103.258 111.09 103.116 111.207C102.973 111.323 102.871 111.482 102.825 111.66V111.66Z" fill="#3961AA"/>
<path d="M95.1888 111.66C95.1651 111.737 95.1602 111.818 95.1745 111.897C95.1887 111.976 95.2217 112.05 95.2706 112.113C95.3196 112.177 95.3831 112.227 95.4557 112.261C95.5284 112.295 95.6081 112.31 95.6881 112.307H101.073C101.257 112.298 101.434 112.231 101.577 112.114C101.721 111.998 101.823 111.839 101.87 111.66C101.894 111.584 101.899 111.503 101.885 111.424C101.872 111.345 101.839 111.27 101.79 111.207C101.741 111.143 101.678 111.093 101.605 111.059C101.533 111.025 101.453 111.009 101.373 111.013H95.9853C95.801 111.022 95.6243 111.09 95.481 111.206C95.3378 111.322 95.2354 111.481 95.1888 111.66Z" fill="#4C85D8"/>
<path d="M102.256 114.125C102.232 114.201 102.227 114.282 102.24 114.361C102.254 114.44 102.287 114.515 102.336 114.578C102.384 114.642 102.448 114.692 102.52 114.726C102.593 114.76 102.673 114.776 102.753 114.772C102.937 114.763 103.114 114.695 103.257 114.579C103.4 114.463 103.503 114.304 103.549 114.125C103.573 114.048 103.578 113.967 103.564 113.888C103.549 113.809 103.516 113.735 103.467 113.672C103.418 113.608 103.355 113.558 103.282 113.524C103.21 113.49 103.13 113.474 103.05 113.478C102.866 113.487 102.69 113.555 102.547 113.672C102.405 113.788 102.303 113.947 102.256 114.125V114.125Z" fill="#3961AA"/>
<path d="M96.3744 114.125C96.3507 114.201 96.3458 114.282 96.36 114.361C96.3742 114.44 96.4072 114.514 96.4562 114.578C96.5051 114.641 96.5686 114.692 96.6413 114.726C96.7139 114.759 96.7936 114.775 96.8737 114.772H100.504C100.688 114.763 100.865 114.695 101.008 114.579C101.152 114.463 101.254 114.303 101.3 114.125C101.324 114.048 101.329 113.968 101.315 113.889C101.301 113.81 101.268 113.736 101.22 113.673C101.171 113.61 101.108 113.559 101.036 113.525C100.963 113.491 100.884 113.475 100.804 113.478H97.1709C96.9865 113.487 96.8099 113.554 96.6666 113.671C96.5233 113.787 96.4209 113.946 96.3744 114.125V114.125Z" fill="#4C85D8"/>
<path d="M101.688 116.59C101.664 116.666 101.658 116.747 101.672 116.826C101.686 116.905 101.718 116.979 101.767 117.043C101.816 117.106 101.879 117.157 101.952 117.191C102.025 117.225 102.104 117.24 102.184 117.237C102.369 117.228 102.545 117.16 102.689 117.044C102.832 116.928 102.934 116.768 102.981 116.59C103.004 116.513 103.009 116.432 102.995 116.353C102.981 116.274 102.948 116.2 102.899 116.137C102.85 116.073 102.787 116.022 102.714 115.989C102.641 115.955 102.562 115.939 102.482 115.943C102.298 115.952 102.122 116.02 101.979 116.136C101.836 116.253 101.734 116.411 101.688 116.59V116.59Z" fill="#3961AA"/>
<path d="M92.4935 116.59C92.4699 116.666 92.4649 116.747 92.4791 116.826C92.4934 116.905 92.5264 116.979 92.5753 117.043C92.6243 117.106 92.6878 117.157 92.7604 117.191C92.8331 117.224 92.9128 117.24 92.9928 117.237H99.9476C100.132 117.228 100.309 117.16 100.452 117.044C100.595 116.928 100.698 116.768 100.744 116.59C100.768 116.513 100.774 116.432 100.76 116.353C100.746 116.275 100.714 116.2 100.665 116.137C100.616 116.073 100.553 116.022 100.48 115.989C100.407 115.955 100.328 115.939 100.248 115.943H93.29C93.1057 115.952 92.929 116.019 92.7858 116.136C92.6425 116.252 92.5401 116.411 92.4935 116.59V116.59Z" fill="#4C85D8"/>
<path d="M101.119 119.053C101.094 119.129 101.089 119.21 101.103 119.289C101.116 119.368 101.149 119.442 101.198 119.506C101.247 119.569 101.31 119.62 101.383 119.654C101.455 119.688 101.535 119.703 101.615 119.699C101.799 119.691 101.976 119.623 102.119 119.507C102.263 119.39 102.365 119.231 102.411 119.053C102.435 118.976 102.44 118.895 102.426 118.816C102.412 118.737 102.379 118.663 102.33 118.599C102.281 118.536 102.217 118.485 102.145 118.452C102.072 118.418 101.992 118.402 101.912 118.406C101.728 118.415 101.552 118.483 101.41 118.599C101.267 118.716 101.165 118.874 101.119 119.053V119.053Z" fill="#3961AA"/>
<path d="M90.8051 119.053C90.7814 119.129 90.7764 119.21 90.7907 119.289C90.8049 119.368 90.8379 119.442 90.8868 119.506C90.9358 119.569 90.9993 119.62 91.0719 119.654C91.1446 119.687 91.2243 119.703 91.3043 119.699H99.3673C99.5516 119.691 99.7283 119.623 99.8716 119.507C100.015 119.39 100.117 119.231 100.164 119.053C100.188 118.976 100.194 118.895 100.18 118.816C100.166 118.737 100.133 118.663 100.084 118.599C100.036 118.536 99.9724 118.485 99.8997 118.451C99.8271 118.418 99.7474 118.402 99.6674 118.406H91.6016C91.4172 118.415 91.2405 118.482 91.0972 118.598C90.954 118.715 90.8516 118.874 90.8051 119.053V119.053Z" fill="#4C85D8"/>
<path d="M100.55 121.517C100.526 121.594 100.52 121.675 100.534 121.754C100.548 121.833 100.581 121.907 100.63 121.971C100.678 122.034 100.742 122.085 100.814 122.119C100.887 122.152 100.967 122.168 101.047 122.164C101.231 122.155 101.408 122.088 101.551 121.972C101.694 121.855 101.797 121.696 101.843 121.517C101.867 121.441 101.872 121.36 101.857 121.281C101.843 121.202 101.81 121.128 101.761 121.064C101.712 121.001 101.649 120.95 101.576 120.916C101.504 120.883 101.424 120.867 101.344 120.871C101.16 120.88 100.984 120.948 100.841 121.064C100.699 121.18 100.597 121.339 100.55 121.517V121.517Z" fill="#3961AA"/>
<path d="M69.4067 111.66C69.3824 111.736 69.3769 111.817 69.3907 111.896C69.4045 111.975 69.4372 112.05 69.486 112.113C69.5347 112.177 69.5981 112.228 69.6708 112.261C69.7434 112.295 69.8231 112.311 69.903 112.307C70.0874 112.298 70.2641 112.231 70.4074 112.114C70.5506 111.998 70.653 111.839 70.6995 111.66C70.7238 111.584 70.7293 111.503 70.7155 111.424C70.7017 111.345 70.669 111.27 70.6203 111.207C70.5715 111.143 70.5081 111.093 70.4355 111.059C70.3628 111.025 70.2832 111.009 70.2032 111.013C70.0189 111.022 69.8422 111.09 69.6989 111.206C69.5556 111.322 69.4532 111.481 69.4067 111.66Z" fill="#4C85D8"/>
<path d="M70.2729 107.934C70.2486 108.01 70.2431 108.091 70.2569 108.17C70.2708 108.249 70.3034 108.323 70.3522 108.387C70.4009 108.45 70.4643 108.501 70.537 108.535C70.6096 108.568 70.6893 108.584 70.7693 108.58C70.9536 108.572 71.1303 108.504 71.2736 108.388C71.4169 108.271 71.5192 108.112 71.5657 107.934C71.59 107.857 71.5955 107.776 71.5817 107.697C71.5679 107.618 71.5352 107.544 71.4865 107.48C71.4377 107.417 71.3743 107.366 71.3017 107.332C71.2291 107.299 71.1494 107.283 71.0694 107.287C70.8851 107.295 70.7084 107.363 70.5651 107.479C70.4218 107.596 70.3194 107.755 70.2729 107.934Z" fill="#4C85D8"/>
<path d="M68.8501 114.125C68.8258 114.201 68.8203 114.282 68.8341 114.361C68.8479 114.44 68.8806 114.514 68.9294 114.578C68.9781 114.641 69.0415 114.692 69.1141 114.726C69.1867 114.76 69.2665 114.775 69.3464 114.772C69.5308 114.763 69.7074 114.695 69.8507 114.579C69.994 114.463 70.0964 114.303 70.1429 114.125C70.1665 114.048 70.1715 113.968 70.1574 113.889C70.1433 113.81 70.1106 113.736 70.062 113.673C70.0133 113.61 69.9502 113.559 69.878 113.525C69.8057 113.491 69.7263 113.475 69.6466 113.478C69.4622 113.487 69.2855 113.554 69.1423 113.671C68.999 113.787 68.8966 113.946 68.8501 114.125V114.125Z" fill="#4C85D8"/>
<path d="M68.2816 116.59C68.258 116.666 68.253 116.747 68.2671 116.826C68.2812 116.904 68.314 116.978 68.3626 117.042C68.4112 117.105 68.4743 117.156 68.5466 117.19C68.6188 117.224 68.6982 117.24 68.7779 117.237C68.9623 117.228 69.139 117.16 69.2822 117.044C69.4255 116.928 69.5279 116.768 69.5744 116.59C69.5987 116.513 69.6042 116.432 69.5904 116.353C69.5766 116.275 69.5439 116.2 69.4952 116.137C69.4464 116.073 69.383 116.022 69.3104 115.989C69.2378 115.955 69.158 115.939 69.0781 115.943C68.8938 115.952 68.7171 116.019 68.5738 116.136C68.4305 116.252 68.3281 116.411 68.2816 116.59V116.59Z" fill="#4C85D8"/>
<path d="M67.7124 119.053C67.6881 119.129 67.6826 119.21 67.6964 119.289C67.7102 119.368 67.7429 119.442 67.7916 119.506C67.8404 119.569 67.9038 119.62 67.9764 119.654C68.0491 119.688 68.1287 119.703 68.2087 119.699C68.393 119.691 68.5697 119.623 68.713 119.507C68.8563 119.39 68.9587 119.231 69.0052 119.053C69.0295 118.976 69.035 118.895 69.0212 118.816C69.0074 118.737 68.9747 118.663 68.9259 118.599C68.8772 118.536 68.8138 118.485 68.7411 118.451C68.6685 118.418 68.5888 118.402 68.5089 118.406C68.3245 118.415 68.1479 118.482 68.0046 118.598C67.8613 118.715 67.7589 118.874 67.7124 119.053V119.053Z" fill="#4C85D8"/>
<path d="M67.144 121.517C67.1197 121.594 67.1142 121.675 67.128 121.754C67.1418 121.833 67.1745 121.907 67.2233 121.971C67.272 122.034 67.3355 122.085 67.4081 122.119C67.4807 122.152 67.5604 122.168 67.6404 122.164C67.8247 122.155 68.0014 122.088 68.1447 121.971C68.2879 121.855 68.3903 121.696 68.4369 121.517C68.4605 121.441 68.4654 121.36 68.4513 121.282C68.4373 121.203 68.4045 121.129 68.3559 121.065C68.3073 121.002 68.2442 120.951 68.1719 120.917C68.0996 120.883 68.0203 120.867 67.9405 120.87C67.7562 120.879 67.5795 120.947 67.4362 121.063C67.2929 121.179 67.1906 121.339 67.144 121.517V121.517Z" fill="#4C85D8"/>
<path d="M93.5609 121.517C93.5372 121.594 93.5323 121.675 93.5465 121.754C93.5608 121.833 93.5937 121.907 93.6427 121.97C93.6917 122.034 93.7551 122.085 93.8278 122.118C93.9004 122.152 93.9802 122.168 94.0602 122.164H98.7987C98.983 122.155 99.1597 122.088 99.303 121.971C99.4463 121.855 99.5486 121.696 99.5952 121.517C99.6187 121.441 99.6237 121.36 99.6096 121.282C99.5955 121.203 99.5628 121.129 99.5142 121.065C99.4656 121.002 99.4025 120.951 99.3302 120.917C99.2579 120.883 99.1786 120.867 99.0988 120.87H94.3574C94.1731 120.879 93.9964 120.947 93.8531 121.063C93.7098 121.179 93.6074 121.339 93.5609 121.517V121.517Z" fill="#4C85D8"/>
<path d="M71.7583 111.66C71.734 111.736 71.7285 111.817 71.7423 111.896C71.7561 111.975 71.7888 112.05 71.8375 112.113C71.8863 112.177 71.9497 112.228 72.0223 112.261C72.095 112.295 72.1747 112.311 72.2546 112.307H73.8043C73.9886 112.298 74.1653 112.231 74.3086 112.114C74.4519 111.998 74.5543 111.839 74.6008 111.66C74.6245 111.583 74.6295 111.502 74.6152 111.423C74.601 111.345 74.568 111.27 74.519 111.207C74.4701 111.143 74.4066 111.093 74.3339 111.059C74.2613 111.025 74.1816 111.01 74.1016 111.013H72.5519C72.3681 111.023 72.192 111.09 72.0493 111.207C71.9066 111.323 71.8047 111.482 71.7583 111.66V111.66Z" fill="#0E1B3F"/>
<path d="M71.1899 114.125C71.1656 114.201 71.1601 114.282 71.1739 114.361C71.1877 114.44 71.2204 114.515 71.2692 114.578C71.3179 114.642 71.3813 114.692 71.454 114.726C71.5266 114.76 71.6063 114.776 71.6863 114.772H74.549C74.7333 114.763 74.91 114.695 75.0533 114.579C75.1966 114.463 75.2989 114.304 75.3455 114.125C75.3692 114.048 75.3741 113.967 75.3599 113.888C75.3457 113.809 75.3127 113.735 75.2637 113.672C75.2148 113.608 75.1513 113.558 75.0786 113.524C75.0059 113.49 74.9262 113.474 74.8462 113.478H71.9835C71.7997 113.487 71.6236 113.555 71.4809 113.672C71.3382 113.788 71.2363 113.947 71.1899 114.125V114.125Z" fill="#4C85D8"/>
<path d="M70.6215 116.59C70.5972 116.666 70.5918 116.747 70.6056 116.826C70.6194 116.905 70.6521 116.979 70.7008 117.043C70.7496 117.107 70.813 117.157 70.8856 117.191C70.9582 117.225 71.038 117.24 71.1179 117.237H73.2101C73.3945 117.228 73.5711 117.16 73.7144 117.044C73.8577 116.928 73.9601 116.768 74.0066 116.59C74.0309 116.513 74.0364 116.432 74.0226 116.353C74.0088 116.275 73.9761 116.2 73.9273 116.137C73.8786 116.073 73.8152 116.022 73.7426 115.989C73.6699 115.955 73.5902 115.939 73.5102 115.943H71.4267C71.2409 115.95 71.0622 116.017 70.9172 116.133C70.7722 116.25 70.6685 116.41 70.6215 116.59V116.59Z" fill="#0E1B3F"/>
<path d="M70.0532 119.053C70.0289 119.129 70.0234 119.21 70.0372 119.289C70.051 119.368 70.0837 119.442 70.1324 119.506C70.1812 119.569 70.2446 119.62 70.3172 119.654C70.3899 119.688 70.4696 119.703 70.5495 119.699H73.7499C73.9343 119.691 74.1109 119.623 74.2542 119.507C74.3975 119.39 74.4999 119.231 74.5464 119.053C74.5707 118.976 74.5762 118.895 74.5624 118.816C74.5486 118.737 74.5159 118.663 74.4671 118.599C74.4184 118.536 74.355 118.485 74.2824 118.451C74.2097 118.418 74.13 118.402 74.05 118.406H70.8497C70.6653 118.415 70.4887 118.482 70.3454 118.598C70.2021 118.715 70.0997 118.874 70.0532 119.053V119.053Z" fill="#0E1B3F"/>
<path d="M69.4848 121.517C69.4606 121.594 69.455 121.675 69.4689 121.754C69.4827 121.833 69.5153 121.907 69.5641 121.971C69.6129 122.034 69.6763 122.085 69.7489 122.119C69.8215 122.152 69.9012 122.168 69.9812 122.164H71.5309C71.7152 122.155 71.8919 122.088 72.0352 121.972C72.1784 121.855 72.2808 121.696 72.3274 121.517C72.3511 121.441 72.356 121.36 72.3418 121.281C72.3275 121.202 72.2946 121.128 72.2456 121.064C72.1966 121.001 72.1331 120.95 72.0605 120.916C71.9878 120.883 71.9081 120.867 71.8281 120.871H70.2727C70.0899 120.881 69.9151 120.95 69.7736 121.066C69.632 121.182 69.5309 121.34 69.4848 121.517V121.517Z" fill="#4C85D8"/>
<path d="M83.2211 111.66C83.1969 111.736 83.1914 111.817 83.2052 111.896C83.219 111.975 83.2516 112.05 83.3004 112.113C83.3492 112.177 83.4126 112.228 83.4852 112.261C83.5578 112.295 83.6375 112.311 83.7175 112.307H86.2109C86.3952 112.298 86.5719 112.231 86.7152 112.114C86.8585 111.998 86.9608 111.839 87.0074 111.66C87.031 111.583 87.036 111.502 87.0218 111.423C87.0075 111.345 86.9745 111.27 86.9256 111.207C86.8766 111.143 86.8131 111.093 86.7405 111.059C86.6678 111.025 86.5881 111.01 86.5081 111.013H84.0148C83.8309 111.023 83.6549 111.09 83.5122 111.207C83.3695 111.323 83.2675 111.482 83.2211 111.66V111.66Z" fill="#4C85D8"/>
<path d="M83.521 114.125C83.4967 114.201 83.4912 114.282 83.505 114.361C83.5188 114.44 83.5515 114.515 83.6002 114.578C83.649 114.642 83.7124 114.692 83.785 114.726C83.8577 114.76 83.9374 114.776 84.0173 114.772H84.7734C84.9572 114.762 85.1333 114.695 85.276 114.578C85.4187 114.462 85.5206 114.303 85.567 114.125C85.5913 114.049 85.5968 113.968 85.583 113.889C85.5692 113.81 85.5365 113.735 85.4878 113.672C85.439 113.608 85.3756 113.557 85.303 113.524C85.2303 113.49 85.1506 113.474 85.0707 113.478H84.3175C84.1331 113.487 83.9564 113.554 83.8132 113.671C83.6699 113.787 83.5675 113.946 83.521 114.125V114.125Z" fill="#4C85D8"/>
<path d="M82.1216 116.59C82.0973 116.666 82.0918 116.747 82.1056 116.826C82.1194 116.905 82.1521 116.979 82.2008 117.043C82.2496 117.107 82.313 117.157 82.3856 117.191C82.4582 117.225 82.5379 117.24 82.6179 117.237H85.0362C85.2201 117.227 85.3961 117.159 85.5388 117.043C85.6815 116.927 85.7835 116.768 85.8298 116.59C85.8541 116.513 85.8596 116.432 85.8458 116.353C85.832 116.275 85.7993 116.2 85.7505 116.137C85.7018 116.073 85.6384 116.022 85.5658 115.989C85.4932 115.955 85.4134 115.939 85.3335 115.943H82.918C82.7337 115.952 82.557 116.019 82.4137 116.136C82.2705 116.252 82.1681 116.411 82.1216 116.59Z" fill="#4C85D8"/>
<path d="M81.1928 119.053C81.1685 119.129 81.1631 119.21 81.1769 119.289C81.1907 119.368 81.2234 119.442 81.2721 119.506C81.3209 119.569 81.3843 119.62 81.4569 119.654C81.5295 119.688 81.6092 119.703 81.6892 119.699H84.829C85.0133 119.691 85.19 119.623 85.3333 119.507C85.4766 119.39 85.5789 119.231 85.6254 119.053C85.6491 118.976 85.6541 118.895 85.6399 118.816C85.6256 118.737 85.5926 118.663 85.5437 118.599C85.4947 118.536 85.4312 118.485 85.3586 118.452C85.2859 118.418 85.2062 118.402 85.1262 118.406H81.9864C81.8026 118.415 81.6266 118.483 81.4839 118.599C81.3412 118.716 81.2392 118.874 81.1928 119.053V119.053Z" fill="#0E1B3F"/>
<path d="M81.2992 121.517C81.2755 121.594 81.2706 121.675 81.2848 121.754C81.299 121.833 81.332 121.907 81.381 121.97C81.4299 122.034 81.4934 122.085 81.5661 122.118C81.6387 122.152 81.7184 122.168 81.7984 122.164H83.5819C83.7662 122.155 83.9429 122.088 84.0861 121.971C84.2294 121.855 84.3318 121.696 84.3784 121.517C84.402 121.441 84.4069 121.36 84.3928 121.282C84.3787 121.203 84.346 121.129 84.2974 121.065C84.2488 121.002 84.1857 120.951 84.1134 120.917C84.0411 120.883 83.9618 120.867 83.882 120.87H82.1043C81.9185 120.877 81.7399 120.944 81.5948 121.061C81.4498 121.177 81.3462 121.337 81.2992 121.517Z" fill="#4C85D8"/>
<path d="M99.1997 127.373C99.1754 127.449 99.1699 127.53 99.1837 127.609C99.1975 127.688 99.2302 127.763 99.2789 127.826C99.3277 127.89 99.3911 127.94 99.4637 127.974C99.5364 128.008 99.616 128.024 99.696 128.02C99.8803 128.011 100.057 127.943 100.2 127.827C100.344 127.711 100.446 127.552 100.492 127.373C100.516 127.296 100.521 127.215 100.507 127.136C100.493 127.058 100.46 126.983 100.411 126.92C100.362 126.856 100.298 126.806 100.226 126.772C100.153 126.738 100.073 126.723 99.9933 126.726C99.8094 126.735 99.6334 126.803 99.4907 126.92C99.348 127.036 99.2461 127.195 99.1997 127.373V127.373Z" fill="#3961AA"/>
<path d="M88.8861 127.373C88.8625 127.449 88.8575 127.53 88.8716 127.609C88.8857 127.687 88.9184 127.761 88.967 127.825C89.0157 127.888 89.0787 127.939 89.151 127.973C89.2233 128.007 89.3027 128.023 89.3824 128.02H97.4627C97.6471 128.011 97.8238 127.943 97.9671 127.827C98.1103 127.711 98.2127 127.551 98.2592 127.373C98.2828 127.296 98.2878 127.216 98.2737 127.137C98.2596 127.058 98.2269 126.984 98.1783 126.921C98.1297 126.858 98.0666 126.807 97.9943 126.773C97.922 126.739 97.8426 126.723 97.7629 126.726H89.6826C89.4982 126.735 89.3216 126.802 89.1783 126.919C89.035 127.035 88.9326 127.194 88.8861 127.373Z" fill="#4C85D8"/>
<path d="M98.6313 129.836C98.607 129.912 98.6015 129.994 98.6153 130.072C98.6291 130.151 98.6618 130.226 98.7106 130.289C98.7594 130.353 98.8228 130.404 98.8954 130.437C98.968 130.471 99.0477 130.487 99.1277 130.483C99.312 130.474 99.4887 130.407 99.632 130.29C99.7752 130.174 99.8776 130.015 99.9242 129.836C99.9469 129.759 99.951 129.678 99.9359 129.6C99.9209 129.521 99.8872 129.447 99.8377 129.385C99.7882 129.322 99.7243 129.272 99.6515 129.239C99.5787 129.206 99.499 129.191 99.4192 129.195C99.2371 129.205 99.0629 129.273 98.9215 129.388C98.78 129.503 98.6785 129.66 98.6313 129.836V129.836Z" fill="#3961AA"/>
<path d="M65.7934 127.373C65.7691 127.449 65.7637 127.53 65.7775 127.609C65.7913 127.688 65.8239 127.762 65.8727 127.826C65.9214 127.89 65.9848 127.94 66.0575 127.974C66.1301 128.008 66.2098 128.023 66.2898 128.02C66.4741 128.011 66.6508 127.943 66.7941 127.827C66.9374 127.711 67.0397 127.551 67.0862 127.373C67.1098 127.296 67.1148 127.216 67.1007 127.137C67.0866 127.058 67.0539 126.984 67.0053 126.921C66.9567 126.858 66.8936 126.807 66.8213 126.773C66.749 126.739 66.6697 126.723 66.5899 126.726C66.4056 126.735 66.2289 126.802 66.0856 126.919C65.9423 127.035 65.84 127.194 65.7934 127.373V127.373Z" fill="#4C85D8"/>
<path d="M65.2251 129.836C65.2008 129.912 65.1953 129.993 65.2091 130.072C65.2229 130.151 65.2556 130.225 65.3043 130.289C65.3531 130.352 65.4165 130.403 65.4891 130.437C65.5617 130.471 65.6414 130.486 65.7214 130.483C65.9057 130.474 66.0824 130.406 66.2257 130.29C66.369 130.174 66.4714 130.014 66.5179 129.836C66.5415 129.759 66.5465 129.679 66.5324 129.6C66.5183 129.521 66.4856 129.447 66.4369 129.384C66.3883 129.32 66.3252 129.27 66.253 129.236C66.1807 129.202 66.1013 129.186 66.0215 129.189C65.8372 129.198 65.6605 129.265 65.5172 129.382C65.3739 129.498 65.2716 129.657 65.2251 129.836V129.836Z" fill="#4C85D8"/>
<path d="M91.6419 129.836C91.6183 129.912 91.6134 129.993 91.6275 130.072C91.6415 130.15 91.6743 130.224 91.7229 130.288C91.7715 130.351 91.8346 130.402 91.9069 130.436C91.9792 130.47 92.0585 130.486 92.1383 130.483H96.8797C97.064 130.474 97.2407 130.406 97.384 130.29C97.5273 130.174 97.6296 130.014 97.6762 129.836C97.6998 129.759 97.7047 129.679 97.6906 129.6C97.6766 129.521 97.6438 129.447 97.5952 129.384C97.5466 129.32 97.4835 129.27 97.4112 129.236C97.3389 129.202 97.2596 129.186 97.1798 129.189H92.4384C92.2541 129.198 92.0774 129.265 91.9341 129.382C91.7908 129.498 91.6885 129.657 91.6419 129.836V129.836Z" fill="#4C85D8"/>
<path d="M68.1312 127.373C68.1075 127.45 68.1026 127.531 68.1168 127.61C68.1311 127.688 68.1641 127.763 68.213 127.826C68.262 127.89 68.3254 127.94 68.3981 127.974C68.4708 128.008 68.5505 128.023 68.6305 128.02H73.4642C73.6481 128.01 73.8241 127.943 73.9668 127.826C74.1095 127.71 74.2115 127.551 74.2578 127.373C74.2821 127.297 74.2876 127.216 74.2738 127.137C74.26 127.058 74.2273 126.983 74.1785 126.92C74.1298 126.856 74.0664 126.805 73.9938 126.772C73.9211 126.738 73.8414 126.722 73.7615 126.726H68.9277C68.7434 126.735 68.5667 126.802 68.4234 126.919C68.2801 127.035 68.1778 127.194 68.1312 127.373Z" fill="white"/>
<path d="M67.5629 129.836C67.5392 129.912 67.5342 129.994 67.5485 130.072C67.5627 130.151 67.5957 130.226 67.6447 130.289C67.6936 130.352 67.7571 130.403 67.8297 130.437C67.9024 130.471 67.9821 130.486 68.0621 130.483H69.6118C69.7956 130.473 69.9717 130.406 70.1144 130.289C70.2571 130.173 70.359 130.014 70.4054 129.836C70.4297 129.76 70.4352 129.678 70.4214 129.6C70.4076 129.521 70.3749 129.446 70.3261 129.383C70.2774 129.319 70.214 129.268 70.1414 129.235C70.0687 129.201 69.989 129.185 69.909 129.189H68.3593C68.175 129.198 67.9983 129.265 67.8551 129.382C67.7118 129.498 67.6094 129.657 67.5629 129.836V129.836Z" fill="#0E1B3F"/>
<path d="M79.2709 127.373C79.2472 127.45 79.2422 127.531 79.2565 127.61C79.2707 127.688 79.3037 127.763 79.3526 127.826C79.4016 127.89 79.4651 127.94 79.5378 127.974C79.6104 128.008 79.6901 128.023 79.7701 128.02H82.9099C83.0937 128.01 83.2698 127.943 83.4125 127.826C83.5552 127.71 83.6571 127.551 83.7035 127.373C83.7278 127.297 83.7333 127.216 83.7195 127.137C83.7057 127.058 83.673 126.983 83.6242 126.92C83.5754 126.856 83.5121 126.805 83.4394 126.772C83.3668 126.738 83.2871 126.722 83.2071 126.726H80.0673C79.883 126.735 79.7063 126.802 79.5631 126.919C79.4198 127.035 79.3174 127.194 79.2709 127.373V127.373Z" fill="#0E1B3F"/>
<path d="M79.3802 129.836C79.3566 129.912 79.3517 129.993 79.3657 130.072C79.3798 130.15 79.4126 130.224 79.4612 130.288C79.5098 130.351 79.5729 130.402 79.6452 130.436C79.7174 130.47 79.7968 130.486 79.8766 130.483H81.6629C81.8472 130.474 82.0239 130.406 82.1672 130.29C82.3105 130.174 82.4128 130.014 82.4594 129.836C82.4831 129.759 82.488 129.678 82.4738 129.599C82.4595 129.52 82.4266 129.446 82.3776 129.383C82.3287 129.319 82.2651 129.269 82.1925 129.235C82.1198 129.201 82.0401 129.185 81.9601 129.189H80.1767C79.9924 129.198 79.8157 129.265 79.6724 129.382C79.5291 129.498 79.4268 129.657 79.3802 129.836Z" fill="#4C85D8"/>
<path d="M84.4733 136.833L84.2251 136.527L86.9464 134.315H98.8447V134.708H87.0878L84.4733 136.833Z" fill="#4C85D8"/>
<path d="M82.358 142.158L82.1099 141.852L87.2582 137.665H98.0714V138.061H87.3996L82.358 142.158Z" fill="#4C85D8"/>
<path d="M94.2513 154.624H83.4092L80.1685 150.405L80.4801 150.165L83.6055 154.228H94.2513V154.624Z" fill="#4C85D8"/>
<path d="M77.7898 144.488L74.2143 139.836H62.9653V139.44H74.4076L78.1015 144.248L77.7898 144.488Z" fill="#4C85D8"/>
<path d="M76.6215 154.003C74.2349 154.003 72.1831 153.076 70.8499 151.404C69.4647 149.671 69.0145 147.341 69.5859 144.869L70.4862 145.077C69.9812 147.269 70.365 149.31 71.5742 150.829C72.7285 152.273 74.5293 153.09 76.6273 153.09C81.1522 153.09 85.683 149.403 86.7277 144.869C87.2327 142.68 86.846 140.639 85.6397 139.12C84.4854 137.676 82.6846 136.859 80.5837 136.859V135.935C82.9732 135.935 85.025 136.862 86.3554 138.533C87.7406 140.266 88.1879 142.596 87.6194 145.065C86.4823 149.986 81.5476 154.003 76.6215 154.003Z" fill="#3961AA"/>
<path d="M77.1206 151.82V150.893C80.4422 150.893 83.758 148.187 84.5343 144.858C84.9037 143.264 84.6237 141.777 83.7464 140.674C82.8691 139.57 81.5994 139.033 80.0699 139.033V138.106C81.888 138.106 83.4492 138.814 84.4708 140.099C85.4924 141.384 85.8675 143.192 85.4347 145.066C84.5776 148.791 80.8462 151.82 77.1206 151.82Z" fill="#0E1B3F"/>
<path d="M83.2587 145.077L82.3583 144.869C82.4822 144.424 82.5023 143.956 82.4173 143.502C82.3322 143.048 82.1442 142.62 81.8678 142.25C81.5873 141.913 81.2332 141.646 80.8328 141.469C80.4324 141.292 79.9965 141.209 79.5591 141.228V140.304C80.1334 140.285 80.7042 140.399 81.2276 140.636C81.751 140.874 82.2129 141.228 82.5777 141.672C82.9434 142.15 83.1949 142.705 83.313 143.296C83.431 143.886 83.4125 144.495 83.2587 145.077V145.077Z" fill="#0E1B3F"/>
<path d="M80.6184 144.962C80.474 145.521 80.1541 146.019 79.7059 146.383C79.2576 146.747 78.7045 146.957 78.128 146.983C77.0111 146.983 76.3157 146.076 76.5754 144.962C76.7189 144.403 77.0381 143.904 77.4859 143.54C77.9338 143.177 78.4866 142.966 79.063 142.94C80.1798 142.94 80.8753 143.844 80.6184 144.962Z" fill="#0E1B3F"/>
<path d="M103.488 152.651H100.917C100.456 152.667 99.9977 152.576 99.5774 152.386C99.1571 152.197 98.786 151.913 98.4928 151.557C98.2062 151.171 98.0108 150.725 97.9213 150.253C97.8318 149.781 97.8506 149.295 97.9762 148.831L102.305 130.041C102.375 129.766 102.382 129.478 102.324 129.201C102.266 128.923 102.145 128.662 101.97 128.438C101.768 128.194 101.512 127.998 101.223 127.867C100.934 127.735 100.619 127.671 100.302 127.679V127.101C100.708 127.092 101.111 127.176 101.48 127.345C101.849 127.515 102.174 127.766 102.432 128.08C102.663 128.373 102.823 128.715 102.902 129.08C102.98 129.445 102.973 129.823 102.882 130.185L98.5533 148.975C98.4492 149.355 98.4328 149.754 98.5053 150.141C98.5778 150.528 98.7373 150.894 98.9718 151.21C99.2112 151.495 99.5126 151.721 99.8527 151.871C100.193 152.021 100.563 152.091 100.934 152.077H103.505L103.488 152.651Z" fill="#4C85D8"/>
<g style="mix-blend-mode:multiply" opacity="0.5">
<path d="M139.407 281.293C182.286 281.293 217.046 280.205 217.046 278.862C217.046 277.52 182.286 276.432 139.407 276.432C96.5287 276.432 61.7686 277.52 61.7686 278.862C61.7686 280.205 96.5287 281.293 139.407 281.293Z" fill="#E3E3E3"/>
</g>
<path d="M89.7659 250.187L86.3289 261.472C85.8469 263.046 87.463 265.746 87.463 265.746L87.0561 267.29L85.7372 266.288L83.5181 260.424L85.8844 250.178L89.7659 250.187Z" fill="#FBCCCA"/>
<path d="M82.0263 252.256L80.9586 262.851C80.9009 263.87 81.8243 264.849 82.6727 265.424C83.1603 265.748 83.6856 266.012 84.2369 266.209L84.8458 267.685H83.1893L77.8794 264.358L78.067 262.915L78.5229 253.963L82.0263 252.256Z" fill="#FBCCCA"/>
<path d="M77.8796 264.358C77.8796 264.358 76.4655 266.397 76.5608 268.834H89.065C89.1973 268.834 89.3258 268.79 89.4304 268.709C89.5349 268.628 89.6094 268.514 89.6422 268.386C89.6759 268.258 89.6659 268.122 89.6136 268C89.5613 267.878 89.4698 267.777 89.3536 267.713C88.9352 267.482 88.3205 267.352 87.4259 267.523C87.1505 267.574 86.8659 267.535 86.615 267.41L84.237 266.209L83.7695 266.96L77.8796 264.358Z" fill="#272C82"/>
<path d="M83.5159 260.42L86.6326 266.054L87.4608 265.742L88.3266 267.489C88.5237 267.55 88.7327 267.562 88.9355 267.524C89.5813 267.358 90.2651 267.425 90.8661 267.715C90.9819 267.779 91.0731 267.88 91.1254 268.002C91.1776 268.123 91.1879 268.259 91.1546 268.387C91.1242 268.517 91.0502 268.631 90.945 268.712C90.8399 268.793 90.7101 268.836 90.5775 268.832H87.2097L84.0065 266.398L79.7759 263.181C81.1582 261.186 83.5159 260.42 83.5159 260.42Z" fill="#272C82"/>
<path d="M74.8726 173.087C74.8726 173.087 70.6738 175.325 70.3159 178.553V190.733C70.3154 192 70.7242 193.233 71.4815 194.249C72.2387 195.264 73.3038 196.007 74.5177 196.367L77.6574 197.3L74.8726 173.087Z" fill="#F3C8D7"/>
<path d="M74.8726 173.087C74.8726 173.087 70.6738 175.325 70.3159 178.553V190.733C70.3154 192 70.7242 193.233 71.4815 194.249C72.2387 195.264 73.3038 196.007 74.5177 196.367L77.6574 197.3L74.8726 173.087Z" fill="#E5F5F9"/>
<path d="M79.473 166.444V170.247H84.1942L84.2173 169.635L84.2461 168.916V168.853L87.1954 167.579L87.8101 165.884C88.3334 163.615 87.9993 161.231 86.8722 159.194C86.6381 158.746 86.3607 158.322 86.044 157.929L82.0039 160.196L80.7918 163.167L79.4614 166.433L79.473 166.444Z" fill="#FBCCCA"/>
<path d="M77.1754 162.64C77.9091 163.799 78.5834 164.994 79.1955 166.221C79.2221 166.274 79.26 166.32 79.3063 166.356C79.3527 166.393 79.4064 166.418 79.4638 166.432C79.4954 166.436 79.5275 166.436 79.5591 166.432H82.4449C84.3438 166.114 84.5718 164.214 84.5718 164.214C84.5718 163.348 84.944 163.016 85.2817 162.88C85.3379 162.858 85.3988 162.849 85.459 162.855C85.5193 162.861 85.5772 162.882 85.6279 162.915C85.6787 162.949 85.7204 162.995 85.7491 163.048C85.7778 163.102 85.7927 163.163 85.7925 163.224V165.872C84.2861 166.903 84.1648 168.11 84.1648 168.11V168.895H84.2168C87.8558 169.504 87.7837 165.863 87.7837 165.863C87.7389 165.972 87.671 166.07 87.5849 166.15C87.4987 166.23 87.3962 166.291 87.2844 166.328C87.1963 166.357 87.1026 166.364 87.0112 166.349C86.9198 166.334 86.8334 166.297 86.7592 166.241C86.6846 166.186 86.6239 166.114 86.5818 166.032C86.5397 165.949 86.5175 165.858 86.5168 165.765V162.424C86.5512 161.541 86.289 160.672 85.7722 159.955C86.0016 159.923 86.2196 159.834 86.4068 159.698C86.594 159.561 86.7448 159.381 86.8458 159.172C86.995 158.833 87.0603 158.462 87.0362 158.092C86.9843 156.218 84.9758 155.6 83.4174 155.54C82.9903 155.519 82.5517 155.701 82.1505 155.69C78.5346 155.557 78.399 158.632 78.399 158.632C75.8191 158.791 76.4049 161.555 77.1754 162.64Z" fill="#182F56"/>
<path d="M80.7682 209.875L89.6767 229.759C88.2338 231.968 87.3392 234.957 86.6812 238.324C85.5269 244.186 85.0796 251.255 83.5818 257.59L88.4618 258.745L92.1008 246.663L96.8566 229.817C97.0731 229.042 97.0731 228.223 96.8566 227.449L89.0389 199.462L88.9581 199.433L85.9597 198.376H80.1679L78.5374 198.74L78.0237 200.279C78.0237 200.279 75.5881 205.716 80.7682 209.875Z" fill="#1E3665"/>
<path d="M75.8107 210.031C75.9201 210.242 75.984 210.473 75.9983 210.71C76.3937 216.338 76.6217 221.683 77.8077 230.236C75.1383 237.267 76.7458 250.351 76.7313 260.637H81.6199L83.4553 240.603L84.3441 230.923L85.0165 219.373L85.2387 216.872L86.2892 200.574L86.3267 200.022L78.4455 199.038H78.3849L76.1859 198.749C75.9999 199.14 75.8342 199.54 75.6896 199.947C75.6376 200.086 75.5885 200.236 75.5366 200.389C75.3865 200.84 75.248 201.368 75.0979 201.957C74.5843 204.175 74.3649 207.233 75.8107 210.031Z" fill="#1E3665"/>
<path d="M89.8957 212.163C81.674 203.477 83.7287 199.134 83.7287 199.134L87.841 199.362L87.9189 199.651L88.952 199.425L89.0328 199.454L96.8505 227.441C97.0669 228.215 97.0669 229.033 96.8505 229.806L92.0947 246.656L95.3066 229.145L90.2131 212.628L89.8957 212.163Z" fill="#162953"/>
<g style="mix-blend-mode:multiply" opacity="0.5">
<path d="M89.6766 229.76C88.2337 231.969 87.3391 234.958 86.6812 238.325C88.5829 233.234 90.5915 230.528 90.5915 230.528L93.1887 229.46H91.0503L80.771 209.881L89.6766 229.76Z" fill="#3B1D55"/>
</g>
<path d="M75.0976 201.946C75.2332 201.368 75.3862 200.828 75.5363 200.378C76.1552 200.886 76.9166 201.188 77.7151 201.244C77.2764 202.977 76.9272 206.763 80.7481 209.855L80.7683 209.873L85.0162 219.356L84.3438 230.906L83.455 240.586L82.8258 221.527L82.3699 218.954C82.4305 215.2 77.6054 211.492 76.3097 210.554C76.0783 210.389 75.891 210.17 75.7643 209.916C74.3704 207.161 74.6012 204.146 75.0976 201.946Z" fill="#162953"/>
<path d="M77.9517 171.081V171.684L81.9197 171.485L85.8213 171.288C85.7946 171.211 85.7638 171.135 85.729 171.06C85.5443 170.642 85.0652 169.784 84.2168 169.634H79.1002C79.1002 169.634 78.0642 169.689 77.9517 171.081Z" fill="white"/>
<path d="M73.2597 184.992C74.2264 186.927 74.0475 188.916 74.1658 190.002C73.9234 191.966 73.7647 193.947 73.6926 195.922C73.632 197.548 73.6089 199.254 73.9552 200.848C74.0648 201.359 74.2438 202.731 74.7834 203.005C75.6867 203.479 76.3187 202.292 76.9709 201.917C77.1776 201.802 77.3939 201.705 77.6173 201.628C78.7399 201.224 80.1279 201.16 81.2274 200.698C82.7944 200.034 84.5866 200.62 86.1622 200.946C87.3166 201.183 88.3814 201.284 89.1288 200.617C89.354 200.421 89.5252 200.171 89.6262 199.89C89.7273 199.608 89.7547 199.306 89.706 199.012C89.3281 196.872 89.0708 194.712 88.9355 192.543C88.8774 191.518 88.888 190.489 88.9672 189.465C89.3308 185.598 91.501 184.513 91.3798 178.957V175.203C91.3798 175.203 91.1374 172.422 88.9672 171.821L85.6139 171.44L82.5694 171.097L82.0499 171.16L77.8395 171.689H77.7414L75.0893 173.158C73.5485 174.016 72.4078 175.447 71.9149 177.141C71.7419 177.724 71.6535 178.328 71.6523 178.937C71.6321 181.914 72.2929 183.06 73.2597 184.992Z" fill="white"/>
<path d="M88.5399 185.504C87.8098 187.401 88.3379 189.578 89.0507 192.168C88.9902 191.143 88.9998 190.114 89.0796 189.09C89.4432 185.223 91.6162 184.138 91.495 178.582V178.44L86.1014 174.077C86.1014 174.077 85.1894 178.342 88.9872 182.001C89.1444 183.187 88.9903 184.395 88.5399 185.504Z" fill="#E5F5F9"/>
<path d="M102.443 152.391C102.398 152.537 102.389 152.691 102.416 152.841C102.443 152.991 102.506 153.133 102.599 153.254C102.692 153.374 102.813 153.471 102.951 153.536C103.089 153.6 103.24 153.63 103.393 153.624C103.744 153.607 104.08 153.478 104.352 153.256C104.625 153.035 104.82 152.731 104.908 152.391C104.953 152.246 104.963 152.091 104.936 151.941C104.91 151.791 104.847 151.649 104.755 151.528C104.662 151.408 104.541 151.311 104.403 151.246C104.265 151.182 104.113 151.152 103.961 151.158C103.61 151.174 103.272 151.303 102.999 151.524C102.726 151.746 102.531 152.05 102.443 152.391Z" fill="#3961AA"/>
<path d="M108.264 157.647C108.264 157.647 107.568 158.098 107.641 158.476C107.713 158.854 107.842 158.898 107.842 158.898C107.777 158.989 107.737 159.097 107.727 159.209C107.717 159.321 107.737 159.434 107.785 159.536C107.785 159.536 107.606 160.114 107.949 160.29C108.293 160.466 108.653 158.127 108.264 157.647Z" fill="#F9B3AB"/>
<path d="M108.484 168.178L110.793 161.987C111.06 161.015 111.234 160.019 111.315 159.013C111.324 158.837 111.298 158.661 111.237 158.495C111.177 158.329 111.083 158.177 110.963 158.049C110.841 157.921 110.695 157.819 110.532 157.75C110.37 157.68 110.196 157.644 110.019 157.644H109.442C109.426 157.645 109.41 157.642 109.395 157.636C109.38 157.63 109.367 157.621 109.355 157.61C109.344 157.598 109.335 157.584 109.33 157.568C109.324 157.553 109.322 157.536 109.324 157.52C109.344 157.093 109.379 155.695 108.98 155.632C108.423 155.542 108.233 155.952 108.227 157.653C107.972 158.611 107.886 159.605 107.973 160.593C108.198 162.172 108.908 162.464 108.908 162.464L106.045 167.442L108.484 168.178Z" fill="#FBCCCA"/>
<path d="M109.546 161.011V165.313L106.695 172.989C105.11 173.176 104.224 172.856 103.157 171.221L109.546 161.011Z" fill="#FBCCCA"/>
<path d="M86.7881 171.321C86.7881 171.321 91.2524 170.353 94.0286 172.891C94.0286 172.891 98.617 172.649 100.066 173.856L101.393 173.977L103.156 171.222C104.568 170.971 106.299 171.869 106.694 172.99L105.015 176.998C104.649 177.939 104.024 178.757 103.211 179.355C102.399 179.954 101.433 180.309 100.426 180.379L91.3736 180.983C91.3736 180.983 83.7695 178.084 86.7881 171.321Z" fill="white"/>
<path d="M74.2294 190.169L74.2785 189.445C74.1919 188.33 74.3073 186.441 73.3896 184.605C72.9681 183.821 72.5989 183.009 72.2843 182.176C72.2439 182.063 72.2064 181.947 72.1718 181.83L72.1545 181.772C72.1256 181.671 72.0968 181.567 72.0708 181.46C72.0708 181.431 72.0708 181.402 72.0477 181.374C72.0246 181.345 72.0189 181.252 72.0073 181.192C71.9958 181.131 71.9813 181.065 71.9669 181.001C71.9525 180.938 71.9409 180.862 71.9294 180.79C71.9179 180.718 71.9121 180.678 71.9005 180.62C71.889 180.562 71.8775 180.458 71.8688 180.377L71.8428 180.172L71.8255 180.008C71.8255 179.907 71.8082 179.8 71.7995 179.69V179.52C71.7995 179.407 71.7995 179.289 71.7822 179.17C71.7822 179.113 71.7822 179.055 71.7822 178.997C71.7822 178.896 71.7822 178.792 71.7822 178.685C71.7822 178.648 71.7822 178.613 71.7822 178.575C71.7851 177.968 71.8736 177.365 72.0448 176.782C70.8905 179.006 70.7174 180.571 71.8024 182.78C72.5919 184.34 73.2605 185.959 73.8023 187.622C74.0245 188.417 74.3131 189.315 74.2294 190.169Z" fill="#E5F5F9"/>
<defs>
<linearGradient id="paint0_linear_195_982" x1="138.335" y1="69.9255" x2="138.335" y2="239.706" gradientUnits="userSpaceOnUse">
<stop stop-color="#97BFE7"/>
<stop offset="1" stop-color="#FDFEFF"/>
</linearGradient>
<linearGradient id="paint1_linear_195_982" x1="135.05" y1="140.119" x2="133.902" y2="133.905" gradientUnits="userSpaceOnUse">
<stop stop-color="#BBE4ED"/>
<stop offset="1" stop-color="#DFF2F8"/>
</linearGradient>
<linearGradient id="paint2_linear_195_982" x1="118.707" y1="159.841" x2="120.635" y2="169.394" gradientUnits="userSpaceOnUse">
<stop stop-color="#A1246A"/>
<stop offset="1" stop-color="white"/>
</linearGradient>
</defs>
</svg>
