<svg width="292" height="340" viewBox="0 0 292 340" fill="none" xmlns="http://www.w3.org/2000/svg">
<path d="M291.54 255.708L291.54 87.5314L145.889 3.44335L0.238176 87.5314L0.238169 255.708L145.889 339.809L291.54 255.708Z" fill="#F8F9FD"/>
<path d="M95.2737 237.863C98.2074 237.682 100.06 236.533 100.06 234.687C100.06 232.735 97.8531 231.535 94.4409 231.529C91.0161 231.535 88.8096 232.735 88.8096 234.687C88.8096 236.533 90.6681 237.682 93.6142 237.863V239.385H87.2744V240.747H101.632V239.385H95.2737V237.863ZM90.5438 234.687C90.5313 233.562 92.0292 232.872 94.4409 232.872C96.8525 232.872 98.3504 233.562 98.3504 234.687C98.3504 235.874 96.8525 236.526 94.4409 236.533C92.0292 236.526 90.5313 235.874 90.5438 234.687ZM89.0831 241.921V246.508H100.016V245.141H90.7613V241.921H89.0831Z" fill="#313131"/>
<path d="M114.199 246.863H115.877V231.082H114.199V246.863ZM105.51 233.928H111.377V232.548H103.832V243.003H105.137C108.394 242.997 110.451 242.903 112.801 242.474L112.633 241.082C110.414 241.486 108.493 241.573 105.51 241.579V233.928Z" fill="#313131"/>
<path d="M130.228 231.082V242.854H131.807V231.082H130.228ZM127.152 236.818V242.381H128.736V231.374H127.152V235.451H125.212V232.592H119.053V239.87H125.212V236.818H127.152ZM120.619 238.571V233.916H123.652V238.571H120.619ZM123.031 241.405H121.365V246.508H132.267V245.141H123.031V241.405Z" fill="#313131"/>
<path d="M137.381 238.559V233.866H146.562V232.499H135.734V239.92H146.698V238.559H137.381ZM133.944 244.756H148.358V243.37H133.944V244.756Z" fill="#313131"/>
<path d="M165.375 236.315H161.864V237.67H165.375V246.863H167.029V231.082H165.375V236.315ZM159.576 232.393H157.886V235.091C157.873 238.006 156.245 241.045 153.808 242.213L154.865 243.556C156.674 242.617 158.047 240.703 158.744 238.434C159.433 240.591 160.788 242.369 162.585 243.27L163.592 241.928C161.186 240.846 159.57 237.974 159.576 235.091V232.393Z" fill="#313131"/>
<path d="M180.82 231.082V246.863H182.498V231.082H180.82ZM170.322 232.393V243.096H177.887V232.393H176.239V236.439H171.988V232.393H170.322ZM171.988 237.763H176.239V241.716H171.988V237.763Z" fill="#313131"/>
<path d="M192.138 235.836C193.163 238.049 195.476 239.696 197.999 240.243L198.757 238.851C195.737 238.31 193.008 235.88 193.008 233.319V232.132H191.249V233.319C191.237 235.88 188.521 238.291 185.525 238.851L186.271 240.243C188.794 239.69 191.1 238.037 192.138 235.836ZM185.009 244.762H199.422V243.376H185.009V244.762Z" fill="#313131"/>
<path d="M113.383 258.415C113.383 255.248 111.483 253.329 108.921 253.329C106.344 253.329 104.458 255.248 104.458 258.415C104.458 261.576 106.344 263.5 108.921 263.5C111.483 263.5 113.383 261.581 113.383 258.415ZM111.889 258.415C111.889 260.822 110.622 262.127 108.921 262.127C107.219 262.127 105.952 260.822 105.952 258.415C105.952 256.007 107.219 254.702 108.921 254.702C110.622 254.702 111.889 256.007 111.889 258.415Z" fill="#939393"/>
<path d="M116.416 258.961C116.416 257.777 117.137 257.105 118.142 257.105C119.124 257.105 119.709 257.748 119.709 258.821V263.365H121.168V258.642C121.168 256.81 120.163 255.843 118.64 255.843C117.523 255.843 116.793 256.36 116.45 257.153H116.358V255.94H114.956V263.365H116.416V258.961Z" fill="#939393"/>
<path d="M122.921 258.555V259.812H127.321V258.555H122.921Z" fill="#939393"/>
<path d="M132.507 253.464H129.196V263.365H132.41C135.427 263.365 137.167 261.494 137.167 258.4C137.167 255.321 135.427 253.464 132.507 253.464ZM130.699 262.05V254.779H132.415C134.576 254.779 135.683 256.07 135.683 258.4C135.683 260.745 134.576 262.05 132.328 262.05H130.699Z" fill="#939393"/>
<path d="M145.146 259.575C145.146 256.892 143.536 255.843 141.844 255.843C139.78 255.843 138.412 257.419 138.412 259.701C138.412 262.007 139.761 263.515 141.951 263.515C143.58 263.515 144.721 262.712 145.049 261.499H143.57C143.324 261.958 142.787 262.316 141.96 262.316C140.732 262.316 139.901 261.509 139.862 260.092H145.146V259.575ZM139.867 259C139.935 257.955 140.694 257.042 141.864 257.042C142.975 257.042 143.705 257.873 143.71 259H139.867Z" fill="#939393"/>
<path d="M148.053 263.365V258.792C148.053 257.791 148.754 257.105 149.571 257.105C150.374 257.105 150.925 257.632 150.925 258.439V263.365H152.37V258.632C152.37 257.743 152.916 257.105 153.859 257.105C154.623 257.105 155.246 257.525 155.246 258.531V263.365H156.706V258.386C156.706 256.689 155.754 255.843 154.41 255.843C153.337 255.843 152.534 256.355 152.182 257.153H152.104C151.785 256.331 151.094 255.843 150.108 255.843C149.126 255.843 148.396 256.331 148.087 257.153H147.995V255.94H146.593V263.365H148.053Z" fill="#939393"/>
<path d="M161.394 255.843C159.644 255.843 158.493 256.737 158.358 257.965H159.813C159.963 257.414 160.485 257.022 161.341 257.022C162.337 257.022 162.854 257.506 162.854 258.342V258.947C162.535 258.956 161.404 259.014 160.901 259.048C159.567 259.145 158.126 259.58 158.126 261.267C158.126 262.722 159.223 263.529 160.635 263.529C161.863 263.529 162.549 262.911 162.83 262.35H162.888V263.365H164.309V258.434C164.309 256.278 162.578 255.843 161.394 255.843ZM160.959 262.364C160.142 262.364 159.557 262.002 159.557 261.286C159.557 260.556 160.156 260.194 161.109 260.126C161.462 260.102 162.525 260.029 162.859 260.01V260.687C162.859 261.567 162.153 262.364 160.959 262.364Z" fill="#939393"/>
<path d="M167.536 258.961C167.536 257.777 168.256 257.105 169.261 257.105C170.243 257.105 170.828 257.748 170.828 258.821V263.365H172.288V258.642C172.288 256.81 171.282 255.843 169.759 255.843C168.643 255.843 167.913 256.36 167.569 257.153H167.478V255.94H166.076V263.365H167.536V258.961Z" fill="#939393"/>
<path d="M176.84 263.51C178.193 263.51 178.72 262.688 178.991 262.21H179.102V263.365H180.528V253.464H179.068V257.143H178.991C178.73 256.679 178.232 255.843 176.854 255.843C175.061 255.843 173.731 257.255 173.731 259.667C173.731 262.069 175.041 263.51 176.84 263.51ZM177.168 262.268C175.882 262.268 175.215 261.141 175.215 259.652C175.215 258.183 175.868 257.085 177.168 257.085C178.42 257.085 179.102 258.105 179.102 259.652C179.102 261.204 178.406 262.268 177.168 262.268Z" fill="#939393"/>
<g style="mix-blend-mode:multiply" opacity="0.5">
<path d="M150.336 214.467C209.43 214.467 257.335 213.552 257.335 212.422C257.335 211.293 209.43 210.377 150.336 210.377C91.2423 210.377 43.3374 211.293 43.3374 212.422C43.3374 213.552 91.2423 214.467 150.336 214.467Z" fill="#E3E3E3"/>
</g>
<g clip-path="url(#clip0_195_1147)">
<path style="mix-blend-mode:multiply" opacity="0.25" d="M226.626 241.813C258.732 201.57 252.059 142.859 211.722 110.678C171.385 78.4963 112.658 85.0311 80.5524 125.274C48.4464 165.516 55.1191 224.227 95.4563 256.409C135.793 288.59 194.52 282.055 226.626 241.813Z" fill="url(#paint0_linear_195_1147)"/>
<path d="M172.843 81.3384C174.747 81.3384 176.572 82.0961 177.919 83.4451C179.265 84.794 180.022 86.6236 180.022 88.5316V214.963C180.022 216.871 179.266 218.702 177.92 220.052C176.573 221.402 174.747 222.161 172.843 222.161H130.672C129.729 222.161 128.795 221.975 127.924 221.613C127.053 221.251 126.262 220.721 125.596 220.053C124.929 219.384 124.401 218.59 124.04 217.717C123.68 216.844 123.495 215.908 123.496 214.963V88.5316C123.495 87.5869 123.681 86.6513 124.041 85.7784C124.402 84.9056 124.93 84.1125 125.597 83.4444C126.263 82.7764 127.054 82.2466 127.925 81.8852C128.796 81.5238 129.729 81.338 130.672 81.3384H172.843Z" fill="white"/>
<path d="M178.223 81.3354C180.126 81.3362 181.952 82.0946 183.297 83.444C184.643 84.7934 185.399 86.6233 185.399 88.5313V214.962C185.4 215.907 185.214 216.843 184.854 217.716C184.493 218.589 183.965 219.382 183.298 220.051C182.632 220.719 181.841 221.249 180.97 221.611C180.099 221.972 179.165 222.158 178.223 222.158H136.052C135.109 222.159 134.175 221.973 133.304 221.611C132.433 221.25 131.641 220.72 130.974 220.052C130.308 219.383 129.779 218.59 129.418 217.717C129.058 216.843 128.872 215.908 128.873 214.962V88.5313C128.873 86.6229 129.629 84.7926 130.975 83.4431C132.322 82.0936 134.148 81.3354 136.052 81.3354H178.223Z" fill="white"/>
<path d="M172.846 83.5283H130.672C127.915 83.5283 125.68 85.7684 125.68 88.5317V214.963C125.68 217.726 127.915 219.966 130.672 219.966H172.846C175.603 219.966 177.837 217.726 177.837 214.963V88.5317C177.837 85.7684 175.603 83.5283 172.846 83.5283Z" fill="#5689BF"/>
<path style="mix-blend-mode:multiply" d="M172.846 83.5283H130.672C127.915 83.5283 125.68 85.7684 125.68 88.5317V214.963C125.68 217.726 127.915 219.966 130.672 219.966H172.846C175.603 219.966 177.837 217.726 177.837 214.963V88.5317C177.837 85.7684 175.603 83.5283 172.846 83.5283Z" fill="url(#paint1_linear_195_1147)"/>
<path d="M183.646 111.913H182.623C182.278 111.913 181.948 111.775 181.704 111.531C181.46 111.286 181.323 110.955 181.323 110.609V97.1997C181.323 96.854 181.46 96.5223 181.704 96.2778C181.948 96.0334 182.278 95.896 182.623 95.896H183.553L183.646 111.913Z" fill="#5689BF"/>
<path d="M184.854 110.609C184.854 110.955 184.717 111.286 184.473 111.531C184.229 111.775 183.898 111.913 183.553 111.913C183.208 111.913 182.877 111.775 182.633 111.531C182.389 111.286 182.252 110.955 182.252 110.609V97.1997C182.252 96.854 182.389 96.5223 182.633 96.2778C182.877 96.0334 183.208 95.896 183.553 95.896C183.898 95.896 184.229 96.0334 184.473 96.2778C184.717 96.5223 184.854 96.854 184.854 97.1997V110.609Z" fill="white"/>
<path d="M183.646 124.87H182.623C182.278 124.87 181.948 124.732 181.704 124.488C181.46 124.243 181.323 123.912 181.323 123.566V115.559C181.323 115.214 181.461 114.882 181.704 114.638C181.948 114.394 182.279 114.256 182.623 114.255H183.553L183.646 124.87Z" fill="#5689BF"/>
<path d="M184.854 123.561C184.854 123.907 184.717 124.238 184.473 124.483C184.229 124.727 183.898 124.864 183.553 124.864C183.208 124.864 182.877 124.727 182.633 124.483C182.389 124.238 182.252 123.907 182.252 123.561V115.559C182.253 115.214 182.39 114.882 182.634 114.638C182.878 114.394 183.208 114.256 183.553 114.255C183.898 114.256 184.228 114.394 184.472 114.638C184.716 114.882 184.853 115.214 184.854 115.559V123.561Z" fill="white"/>
<path d="M178.89 160.472H117.139V162.656H178.89V160.472Z" fill="#C7DFEC"/>
<path d="M178.893 160.472H166.548V162.656H178.893V160.472Z" fill="white"/>
<path d="M171.214 191.472H133.591V195.15H171.214V191.472Z" fill="white"/>
<path d="M171.211 191.472H135.426V195.15H171.211V191.472Z" fill="#1E3565"/>
<path d="M156.3 200.095H133.591V201.244H156.3V200.095Z" fill="white"/>
<path d="M167.082 197.565H133.591V198.713H167.082V197.565Z" fill="white"/>
<path d="M151.255 202.625H133.591V203.773H151.255V202.625Z" fill="white"/>
<path d="M137.154 142.15V142.867C137.138 143.003 137.094 143.134 137.026 143.253C136.958 143.372 136.867 143.475 136.759 143.558L136.724 143.612C136.616 143.74 136.472 143.834 136.31 143.879L136.118 143.943L135.824 144.109C135.019 144.507 134.142 144.736 133.247 144.784L127.822 148.427L123.904 150.957L123.325 151.335L121.26 147.996L121.565 147.868L123.215 147.151L132.197 143.234C132.197 143.234 132.144 141.882 132.408 141.055C132.444 140.809 132.545 140.576 132.702 140.383C132.702 140.383 133.236 139.465 133.142 138.838C133.142 138.838 132.875 138.231 133.345 138.166C133.345 138.166 133.997 138.121 134.133 139.004C134.149 139.344 134.08 139.683 133.933 139.989C133.933 139.989 133.693 140.412 133.885 140.696L134.748 140.281C134.748 140.281 135.64 139.775 136.032 139.979C136.127 140.01 136.214 140.06 136.288 140.127C136.363 140.193 136.423 140.274 136.465 140.364C136.487 140.467 136.493 140.573 136.484 140.677C136.562 140.664 136.643 140.677 136.714 140.714C136.784 140.75 136.841 140.809 136.876 140.881C136.939 140.975 136.972 141.085 136.972 141.198C136.972 141.311 136.939 141.421 136.876 141.515L136.988 141.746C137.046 141.795 137.092 141.857 137.121 141.927C137.15 141.998 137.161 142.074 137.154 142.15V142.15Z" fill="#FBCCCA"/>
<path d="M127.822 148.428L123.904 150.958L121.564 147.868L123.215 147.151C123.501 148.091 124.5 149.831 127.822 148.428Z" fill="#EFB6B6"/>
<path d="M123.325 151.337L120.536 152.965C120.225 153.171 119.867 153.292 119.495 153.318C119.124 153.344 118.752 153.273 118.416 153.112C118.286 153.055 118.164 152.985 118.05 152.901L111.907 148.441L105.887 144.053L110.16 138.766L119.631 148.92L121.233 148.005L123.325 151.337Z" fill="white"/>
<path d="M120.079 148.508C120.048 148.427 120.047 148.336 120.078 148.254C120.109 148.173 120.17 148.106 120.248 148.066L121.818 147.287C121.882 147.261 121.952 147.253 122.021 147.263C122.089 147.273 122.154 147.301 122.208 147.343C123.338 148.034 124.027 148.741 124.676 150.735C124.699 150.807 124.699 150.884 124.676 150.955C124.652 151.026 124.606 151.088 124.545 151.131L122.71 152.4C122.64 152.449 122.555 152.471 122.47 152.46C122.385 152.45 122.307 152.409 122.251 152.344C121.161 151.105 120.712 150.165 120.079 148.508Z" fill="white"/>
<path opacity="0.8" d="M118.416 153.113C118.287 153.056 118.164 152.985 118.05 152.901L111.907 148.441L112.257 141.682C112.257 141.682 114.487 144.894 114.661 149.038L118.416 153.113Z" fill="#DFF2F8"/>
<path d="M135.062 155.835C135.062 155.835 134.713 156.729 133.126 156.416C133.046 156.401 132.964 156.407 132.887 156.433C132.81 156.459 132.741 156.504 132.686 156.563C132.63 156.623 132.591 156.695 132.572 156.774C132.553 156.853 132.554 156.935 132.576 157.013C132.655 157.237 132.783 157.441 132.95 157.61C132.95 157.61 133.85 158.587 134.603 158.681C134.635 158.685 134.665 158.697 134.692 158.714C134.719 158.732 134.741 158.755 134.758 158.783C134.77 158.812 134.776 158.842 134.776 158.874C134.776 158.905 134.77 158.936 134.758 158.965C134.63 159.235 134.432 159.466 134.185 159.635C133.938 159.803 133.651 159.903 133.353 159.923C133.353 159.923 131.032 160.161 128.874 157.246L120.443 155.988L116.14 155.343L115.571 155.26L116.231 151.15L117.299 151.498L118.368 151.849L129.537 155.509C130.563 155.104 131.693 155.042 132.758 155.335C132.758 155.335 134.024 155.675 134.611 155.426C134.622 155.431 135.18 155.404 135.062 155.835Z" fill="#FBCCCA"/>
<path d="M118.509 201.388L115.182 212.257C115.068 212.628 115.048 213.021 115.121 213.402C115.195 213.783 115.36 214.14 115.604 214.441L117.04 216.219L116.998 217.63L115.662 217.03L112.583 212.423L115.355 200.585L118.509 201.388Z" fill="#FBCCCA"/>
<path d="M112.583 212.423C112.583 212.423 110.713 213.563 109.912 215.563L120.178 220.173C120.267 220.214 120.366 220.226 120.462 220.208C120.558 220.19 120.645 220.142 120.713 220.071C120.781 220.002 120.825 219.913 120.84 219.817C120.855 219.721 120.839 219.622 120.795 219.536C120.584 219.105 120.117 218.642 119.105 218.411C118.895 218.364 118.707 218.248 118.571 218.082L117.051 216.208L116.405 216.645L112.583 212.423Z" fill="#272C82"/>
<path d="M122.243 185.711C122.606 186.306 122.842 186.97 122.934 187.662C123.026 188.353 122.972 189.057 122.777 189.726L117.059 209.269L116.362 211.678L112.233 210.299C114.369 202.804 115.187 192.363 117.123 189.301L101.066 170.602L104.627 169.873L111.619 168.449L112.489 169.873L114.73 173.517L122.243 185.711Z" fill="#1E3665"/>
<g style="mix-blend-mode:multiply" opacity="0.3">
<path d="M118.509 189.627C118.509 189.627 111.435 205.052 117.067 209.255L116.37 211.664L112.241 210.286C114.378 202.79 115.195 192.35 117.131 189.287L101.075 170.588L104.635 169.86H112.498L114.738 173.503C113.224 174.588 110.732 177.08 112.847 180.852L118.509 188.671H120.691L118.509 189.627Z" fill="#1E3665"/>
</g>
<path d="M125.752 183.422L119.66 193.009C119.452 193.335 119.327 193.709 119.297 194.095C119.267 194.482 119.332 194.87 119.487 195.225L120.4 197.324L119.983 198.663L118.856 197.728L117.112 192.465L122.927 181.794L125.752 183.422Z" fill="#FBCCCA"/>
<path d="M117.112 192.476C117.112 192.476 115 193.076 113.694 194.789L122.374 201.972C122.447 202.035 122.538 202.073 122.634 202.08C122.73 202.088 122.826 202.065 122.908 202.014C122.99 201.967 123.056 201.894 123.095 201.807C123.134 201.72 123.145 201.623 123.127 201.53C123.039 201.059 122.713 200.488 121.792 199.996C121.603 199.894 121.453 199.732 121.367 199.535L120.4 197.324L119.66 197.571L117.112 192.476Z" fill="#272C82"/>
<path d="M136.246 169.627L121.746 191.311L120.574 193.067L117.022 190.877C117.628 189.847 118.242 188.717 118.891 187.531C119.076 187.18 119.26 186.83 119.444 186.46C119.471 186.412 119.498 186.366 119.527 186.31C119.709 185.954 119.901 185.585 120.096 185.218C120.112 185.18 120.141 185.135 120.16 185.089C121.407 182.68 122.681 180.132 123.931 177.757C124.049 177.538 124.169 177.307 124.289 177.088C124.361 176.957 124.425 176.839 124.489 176.71C124.673 176.368 124.858 176.028 125.039 175.698C125.982 173.916 127.02 172.187 128.151 170.518L106.99 173.407C105.809 173.614 104.593 173.493 103.476 173.057C102.358 172.621 101.381 171.887 100.65 170.933C99.9207 169.977 99.4666 168.838 99.3372 167.642C99.2077 166.445 99.4077 165.235 99.9155 164.144C100.047 163.852 100.205 163.573 100.386 163.309L101.256 163.344L102.156 163.381L112.543 163.85H132.841C133.516 163.85 134.179 164.026 134.766 164.36C135.353 164.694 135.843 165.175 136.19 165.756C136.534 166.341 136.72 167.005 136.73 167.684C136.74 168.363 136.573 169.032 136.246 169.627V169.627Z" fill="#1E3665"/>
<g style="mix-blend-mode:multiply" opacity="0.3">
<path d="M129.748 170.427C129.748 170.427 127.344 173.795 124.756 177.674H124.82C124.82 177.674 118.592 188.04 121.746 191.327L120.574 193.083L117.021 190.893C117.628 189.863 118.242 188.733 118.891 187.547C119.075 187.196 119.26 186.846 119.444 186.476C119.471 186.428 119.497 186.383 119.527 186.326C119.708 185.97 119.9 185.601 120.095 185.234C120.111 185.197 120.141 185.151 120.16 185.106C121.407 182.696 122.681 180.148 123.931 177.773C124.051 177.543 124.168 177.323 124.281 177.104C124.353 176.973 124.417 176.855 124.481 176.726C124.665 176.384 124.849 176.044 125.031 175.715C125.974 173.932 127.012 172.203 128.142 170.534L106.982 173.423C105.801 173.63 104.585 173.509 103.467 173.073C102.35 172.637 101.372 171.903 100.642 170.949C99.9123 169.993 99.4583 168.855 99.3289 167.658C99.1994 166.461 99.3994 165.251 99.9072 164.16C100.039 163.869 100.196 163.589 100.377 163.325L101.248 163.36L102.148 163.397L103.937 164.447C103.937 164.447 102.335 170.904 108.12 170.775L128.952 169.386L131.246 168.695L129.748 170.427Z" fill="#1E3665"/>
</g>
<path d="M110.323 131.573V138.59H105.588V131.509L107.249 129.439H108.149L110.323 131.573Z" fill="#FBCCCA"/>
<path d="M113.801 127.9C113.81 126.887 113.538 126.063 113.193 126.06C112.848 126.057 112.56 126.875 112.551 127.888C112.541 128.9 112.813 129.724 113.158 129.727C113.503 129.731 113.791 128.912 113.801 127.9Z" fill="white"/>
<path d="M114.41 123.293C114.405 123.282 114.4 123.27 114.396 123.258C113.155 120.244 108.003 119.941 105.73 121.4C103.553 122.798 103.577 127.825 105.254 129.431L110.807 127.097L112.994 127.231L113.424 126.669C113.454 126.631 113.486 126.591 113.518 126.556C113.753 126.283 114.987 124.72 114.41 123.293Z" fill="#182F56"/>
<path d="M113.443 130.055C113.443 130.055 113.242 132.406 112.393 133.535C112.393 133.535 110.289 133.964 109.009 130.347C109.009 130.347 108.288 129.761 107.54 130.138C107.54 130.138 105.938 130.093 106.574 127.555C106.604 127.421 106.669 127.298 106.763 127.199C106.857 127.099 106.976 127.027 107.108 126.99C107.375 126.926 107.693 127.006 107.872 127.611L107.96 126.829L106.32 124.814C106.32 124.814 107.842 123.025 111.37 124.101C111.37 124.101 113.729 124.878 113.272 127.895C113.27 128.193 113.364 128.484 113.539 128.725L113.891 129.172C113.891 129.172 114.49 130.007 113.443 130.055Z" fill="#FBCCCA"/>
<path d="M105.016 124.773C105.051 123.774 104.275 122.936 103.282 122.902C102.29 122.868 101.458 123.65 101.424 124.648C101.389 125.647 102.166 126.485 103.158 126.519C104.15 126.554 104.982 125.772 105.016 124.773Z" fill="#172F57"/>
<path d="M113.179 127.879C113.179 128.904 112.879 129.731 112.53 129.728C112.18 129.726 111.905 128.891 111.915 127.868C111.926 126.845 112.214 126.013 112.564 126.018C112.914 126.023 113.189 126.853 113.179 127.879Z" fill="#182F56"/>
<path d="M109.343 125.485L109.645 126.366C108.617 127.322 108.932 129.172 108.932 129.172C109.026 130.17 109.717 130.7 110.521 130.976C110.981 131.135 111.482 131.135 111.942 130.976L113.2 130.537C113.251 130.522 113.305 130.52 113.357 130.529C113.41 130.539 113.459 130.561 113.502 130.593C113.546 130.627 113.584 130.67 113.612 130.719C113.64 130.767 113.658 130.821 113.665 130.877C113.673 130.934 113.669 130.993 113.654 131.049C113.639 131.105 113.613 131.158 113.577 131.204V131.204C113.499 131.3 113.443 131.413 113.414 131.534C113.385 131.655 113.383 131.781 113.408 131.902L113.528 132.507C113.528 132.534 113.528 132.563 113.547 132.59C113.612 132.884 113.635 133.185 113.617 133.484C113.574 134.247 113.275 135.19 112.094 135.323H111.995C111.66 135.347 111.323 135.301 111.006 135.188C110.69 135.075 110.4 134.896 110.155 134.665C109.911 134.433 109.717 134.152 109.586 133.841C109.456 133.53 109.391 133.195 109.397 132.858C109.405 132.456 109.314 132.059 109.13 131.701L108.214 129.945C108.537 127.394 107.127 127.001 107.127 127.001L106.63 126.165L109.343 125.485Z" fill="#172F57"/>
<path d="M105.588 131.83C106.846 131.514 107.273 130.818 107.599 129.739L106.979 129.426L107.311 127.852C107.373 127.512 107.532 127.196 107.769 126.945C108.006 126.693 108.311 126.515 108.646 126.433C108.974 126.364 109.311 126.343 109.645 126.372C109.645 126.372 110.62 126.5 110.569 125.622C110.529 124.913 110.454 124.859 110.986 124.407C110.986 124.407 104.349 122.302 104.768 128.224C104.798 128.7 104.947 129.161 105.203 129.563C105.489 130.007 105.249 131.027 105.588 131.83Z" fill="#3B4770"/>
<path d="M107.954 128.251H107.887C107.802 128.24 107.722 128.2 107.663 128.137C107.603 128.074 107.568 127.992 107.562 127.906C107.556 127.807 107.59 127.711 107.655 127.638C107.72 127.564 107.811 127.519 107.909 127.512H113.312C113.36 127.509 113.409 127.515 113.455 127.531C113.501 127.547 113.544 127.572 113.58 127.604C113.617 127.636 113.647 127.676 113.668 127.72C113.689 127.764 113.702 127.811 113.704 127.86C113.71 127.959 113.677 128.056 113.612 128.13C113.547 128.204 113.455 128.249 113.357 128.256L107.954 128.251Z" fill="#182F56"/>
<path d="M108.205 129.956C108.353 129.245 108.317 128.508 108.098 127.815C107.954 127.279 107.38 126.744 106.838 127.183C106.296 127.622 106.387 128.717 106.547 129.325C106.635 129.593 106.815 129.823 107.054 129.972C107.162 130.046 107.258 130.136 107.337 130.24C107.403 130.324 107.493 130.384 107.596 130.413C107.698 130.442 107.807 130.438 107.906 130.401C107.951 130.388 107.993 130.365 108.027 130.334C108.061 130.302 108.088 130.263 108.104 130.219L108.205 129.956Z" fill="#FBCCCA"/>
<path d="M110.823 137.581L111.477 139.353L111.271 139.853L110.727 139.816L110.823 137.581Z" fill="#F05673"/>
<path d="M109.594 177.926H106.881V219.575H109.594V177.926Z" fill="#5689BF"/>
<path d="M119.057 175.439C119.057 174.903 118.845 174.388 118.466 174.009C118.088 173.629 117.576 173.416 117.04 173.415H99.4295C98.8945 173.416 98.3816 173.629 98.0035 174.009C97.6254 174.388 97.4131 174.903 97.4131 175.439H119.057Z" fill="#D63D3B"/>
<path d="M97.4131 175.439V177.607C97.4131 177.833 97.5026 178.05 97.6618 178.209C97.8211 178.369 98.0371 178.459 98.2624 178.459H118.208C118.433 178.459 118.649 178.369 118.808 178.209C118.967 178.05 119.057 177.833 119.057 177.607V175.439H97.4131Z" fill="#5689BF"/>
<path d="M113.213 149.804L112.847 163.802C112.839 164.087 112.751 164.363 112.593 164.6C112.436 164.837 112.214 165.024 111.955 165.141C109.285 166.393 105.965 166.005 103.588 165.427C102.537 165.176 101.507 164.847 100.506 164.442C98.3852 163.781 100.33 160.782 100.33 160.782C101.083 154.949 100.22 151.086 99.8995 149.1C99.796 148.602 99.6614 148.111 99.4962 147.63C97.9258 142.34 99.6965 138.689 99.6965 138.689C100.021 137.785 100.537 136.963 101.211 136.279C102.183 135.301 103.428 134.642 104.782 134.387L105.487 135.029L110.727 139.802C110.938 140.097 111.13 140.402 111.306 140.705C112.071 142.004 112.608 143.426 112.893 144.907C113.236 146.515 113.344 148.165 113.213 149.804V149.804Z" fill="white"/>
<path d="M111.365 139.082L111.512 139.411C111.608 139.625 111.752 139.947 111.915 140.359C111.998 140.568 112.091 140.798 112.182 141.052C112.273 141.307 112.374 141.588 112.462 141.877C112.551 142.166 112.657 142.49 112.73 142.83C112.802 143.17 112.916 143.523 112.997 143.901C113.18 144.713 113.32 145.534 113.416 146.361C113.52 147.292 113.568 148.229 113.56 149.166C113.544 150.184 113.449 151.199 113.274 152.202C113.224 152.47 113.178 152.719 113.119 152.979L112.919 153.758L112.679 154.51C112.601 154.751 112.484 155.029 112.385 155.286C111.971 156.295 111.493 157.214 111.05 158.089C110.628 158.889 110.26 159.717 109.947 160.565C109.695 161.258 109.555 161.986 109.53 162.723C109.53 162.889 109.53 163.052 109.546 163.21C109.562 163.368 109.591 163.529 109.61 163.681C109.61 163.756 109.629 163.831 109.639 163.906L109.701 164.131C109.73 164.254 109.762 164.377 109.792 164.495C109.915 164.851 110.029 165.191 110.139 165.518C110.256 165.771 110.366 166.012 110.467 166.241C110.494 166.297 110.518 166.353 110.542 166.407L110.633 166.578C110.694 166.69 110.751 166.8 110.807 166.902C110.919 167.111 111.012 167.301 111.111 167.472L111.768 168.521L111.213 171.627L108.109 170.666L107.46 169.295C107.364 169.073 107.271 168.816 107.161 168.543C107.11 168.406 107.054 168.275 106.998 168.114C106.968 168.043 106.938 167.968 106.91 167.89L106.83 167.622C106.723 167.274 106.614 166.904 106.496 166.516C106.421 166.182 106.346 165.828 106.266 165.462C106.266 165.462 106.232 165.322 106.248 165.381V165.349V165.306V165.221L106.226 165.047L106.178 164.693C106.178 164.575 106.149 164.455 106.135 164.335C106.122 164.214 106.135 164.086 106.122 163.962C106.122 163.711 106.103 163.456 106.122 163.199C106.141 162.942 106.167 162.664 106.192 162.412C106.35 161.35 106.673 160.319 107.15 159.358C107.613 158.44 108.136 157.554 108.715 156.705C109.25 155.878 109.805 155.067 110.248 154.266C110.353 154.065 110.459 153.894 110.564 153.669L110.857 153.024L111.106 152.379C111.183 152.159 111.247 151.937 111.319 151.718C111.579 150.842 111.77 149.946 111.891 149.041C111.997 148.176 112.053 147.307 112.056 146.436C112.057 145.647 112.016 144.859 111.934 144.075C111.899 143.708 111.851 143.36 111.8 143.028C111.749 142.696 111.693 142.383 111.64 142.086C111.586 141.789 111.52 141.518 111.464 141.264C111.408 141.009 111.349 140.779 111.29 140.573C111.186 140.161 111.079 139.832 111.007 139.607L110.897 139.264L111.365 139.082Z" fill="#F05673"/>
<path d="M116.311 196.848C116.311 196.999 116.251 197.144 116.144 197.251C116.038 197.358 115.893 197.418 115.742 197.418H100.602C100.451 197.418 100.306 197.358 100.199 197.251C100.093 197.144 100.033 196.999 100.033 196.848C100.033 196.696 100.093 196.551 100.199 196.444C100.306 196.337 100.451 196.277 100.602 196.277H115.742C115.893 196.277 116.038 196.337 116.144 196.444C116.251 196.551 116.311 196.696 116.311 196.848Z" fill="#5689BF"/>
<path opacity="0.8" d="M103.064 154.788C103.064 154.788 107.111 160.306 103.753 165.438H103.588C102.537 165.187 101.507 164.858 100.506 164.453C98.3852 163.791 100.33 160.793 100.33 160.793C101.083 154.96 100.22 151.097 99.8995 149.11C99.796 148.612 99.6614 148.122 99.4962 147.641C97.9258 142.351 99.6965 138.699 99.6965 138.699C100.021 137.796 100.537 136.973 101.211 136.29L101.836 135.84L108.112 150.65L102.066 145.662C102.066 145.662 101.075 151.182 103.064 154.788Z" fill="#DFF2F8"/>
<path d="M113.79 150.334L107.006 137.216C106.774 136.767 106.451 136.372 106.057 136.057C105.663 135.741 105.208 135.511 104.72 135.382C104.233 135.253 103.724 135.227 103.226 135.307C102.729 135.387 102.253 135.57 101.83 135.845C101.419 136.115 101.067 136.467 100.797 136.878C100.526 137.289 100.341 137.751 100.255 138.236C100.168 138.721 100.182 139.219 100.295 139.699C100.407 140.178 100.616 140.63 100.909 141.026L109.68 152.866C110.085 153.413 110.595 153.875 111.178 154.225C111.762 154.574 112.409 154.805 113.082 154.903L115.582 155.27L116.245 151.153L113.79 150.334Z" fill="white"/>
<path d="M120.446 155.993L116.143 155.348L117.299 151.503L118.368 151.854C118.288 152.938 118.416 154.935 120.446 155.993Z" fill="#EFB6B6"/>
<path d="M110.155 134.668C109.911 134.436 109.717 134.155 109.587 133.844C109.456 133.533 109.391 133.198 109.396 132.861C109.396 132.826 109.396 132.791 109.396 132.756C109.322 133.163 109.241 133.948 109.562 134.526C109.653 134.701 109.692 134.899 109.674 135.096C109.655 135.3 109.558 135.489 109.404 135.624C109.25 135.759 109.05 135.829 108.846 135.822L110.334 137.385V134.796C110.272 134.757 110.212 134.714 110.155 134.668V134.668Z" fill="#EFB6B6"/>
<path d="M105.596 132.906L104.782 134.395L110.727 139.816L110.823 137.58L105.596 132.906Z" fill="white"/>
<path d="M115.238 150.66C115.274 150.576 115.341 150.508 115.425 150.47C115.509 150.432 115.604 150.426 115.692 150.454L117.457 151.027C117.53 151.048 117.595 151.092 117.643 151.151C117.69 151.21 117.719 151.283 117.724 151.359C117.804 152.791 117.991 153.87 117.088 155.755C117.054 155.827 116.997 155.887 116.926 155.924C116.856 155.961 116.775 155.974 116.696 155.961L114.37 155.562C114.281 155.547 114.2 155.5 114.144 155.429C114.088 155.358 114.06 155.27 114.065 155.179C114.145 153.426 114.503 152.395 115.238 150.66Z" fill="white"/>
<path d="M139.84 148.787H145.43V157.476H139.231L139.84 148.787Z" fill="#EA9E4A"/>
<path d="M139.838 148.789C137.61 148.789 135.714 149.788 135.03 151.182C134.967 151.308 134.937 151.448 134.943 151.588C134.949 151.729 134.991 151.866 135.065 151.985C135.137 152.104 135.239 152.202 135.36 152.27C135.481 152.337 135.618 152.372 135.757 152.371H135.8V159.701C135.803 159.911 135.889 160.112 136.039 160.26C136.189 160.408 136.391 160.49 136.601 160.49H143.12C143.33 160.49 143.532 160.408 143.682 160.26C143.832 160.112 143.918 159.911 143.921 159.701V152.36H143.964C144.103 152.362 144.239 152.327 144.361 152.259C144.482 152.192 144.584 152.094 144.656 151.975C144.73 151.855 144.772 151.718 144.778 151.578C144.784 151.437 144.754 151.297 144.691 151.172C143.964 149.788 142.078 148.789 139.838 148.789Z" fill="#EA9E4A"/>
<path d="M145.428 148.789C143.171 148.789 141.256 149.814 140.583 151.236C140.526 151.356 140.501 151.488 140.509 151.621C140.517 151.753 140.558 151.881 140.629 151.993C140.701 152.105 140.799 152.197 140.915 152.261C141.031 152.325 141.161 152.359 141.294 152.36H141.379V159.69C141.383 159.901 141.469 160.101 141.618 160.249C141.768 160.397 141.97 160.48 142.18 160.48H148.702C148.912 160.48 149.114 160.397 149.264 160.249C149.414 160.101 149.5 159.901 149.503 159.69V152.36H149.546C149.685 152.362 149.822 152.327 149.943 152.259C150.064 152.192 150.166 152.094 150.238 151.975C150.312 151.855 150.354 151.718 150.36 151.578C150.366 151.437 150.336 151.297 150.273 151.172C149.557 149.788 147.658 148.789 145.428 148.789Z" fill="#F4C376"/>
<path d="M158.189 158.183C158.189 158.609 158.02 159.017 157.719 159.319C157.419 159.62 157.011 159.789 156.586 159.789H150.492C150.067 159.789 149.659 159.62 149.359 159.319C149.058 159.017 148.889 158.609 148.889 158.183V155.407C148.889 154.567 149.222 153.762 149.814 153.168C150.406 152.574 151.209 152.24 152.046 152.24H155.037C155.452 152.24 155.863 152.322 156.246 152.481C156.63 152.64 156.978 152.873 157.271 153.167C157.565 153.461 157.798 153.811 157.956 154.195C158.115 154.579 158.197 154.991 158.197 155.407L158.189 158.183Z" fill="#F9AD55"/>
<path d="M158.904 155.795C158.904 155.913 158.858 156.026 158.774 156.109C158.691 156.193 158.578 156.239 158.461 156.239H148.488C148.371 156.239 148.259 156.192 148.176 156.108C148.093 156.025 148.046 155.913 148.045 155.795C148.045 155.677 148.092 155.564 148.175 155.481C148.258 155.397 148.371 155.351 148.488 155.351H158.461C158.578 155.351 158.691 155.397 158.774 155.481C158.858 155.564 158.904 155.677 158.904 155.795V155.795Z" fill="#BA8A7E"/>
<path d="M158.904 156.684C158.904 156.802 158.858 156.915 158.774 156.998C158.691 157.081 158.578 157.128 158.461 157.128H148.488C148.371 157.127 148.259 157.08 148.176 156.997C148.093 156.914 148.046 156.801 148.045 156.684C148.045 156.566 148.092 156.453 148.175 156.369C148.258 156.286 148.371 156.239 148.488 156.239H158.461C158.578 156.239 158.691 156.286 158.774 156.369C158.858 156.453 158.904 156.566 158.904 156.684V156.684Z" fill="#913247"/>
<path d="M158.904 157.572C158.904 157.69 158.858 157.803 158.774 157.887C158.691 157.97 158.578 158.017 158.461 158.017H148.488C148.371 158.016 148.259 157.969 148.176 157.886C148.093 157.803 148.046 157.69 148.045 157.572C148.045 157.454 148.092 157.341 148.175 157.258C148.258 157.175 148.371 157.128 148.488 157.128H158.461C158.578 157.128 158.691 157.175 158.774 157.258C158.858 157.341 158.904 157.454 158.904 157.572V157.572Z" fill="#BA8A7E"/>
<path d="M156.514 156.239L154.017 158.74C153.961 158.796 153.894 158.841 153.821 158.872C153.748 158.903 153.669 158.918 153.59 158.918C153.51 158.918 153.431 158.903 153.358 158.872C153.285 158.841 153.218 158.796 153.162 158.74L150.665 156.239H156.514Z" fill="#F6DA5C"/>
<path d="M151.213 154.018C151.213 154.061 151.205 154.105 151.188 154.145C151.172 154.185 151.147 154.222 151.117 154.253C151.086 154.284 151.049 154.308 151.009 154.325C150.968 154.341 150.925 154.35 150.882 154.349C150.838 154.35 150.795 154.342 150.754 154.325C150.714 154.308 150.677 154.284 150.646 154.253C150.615 154.222 150.59 154.186 150.573 154.145C150.557 154.105 150.548 154.061 150.548 154.018C150.548 153.974 150.557 153.93 150.573 153.89C150.59 153.849 150.615 153.813 150.646 153.782C150.677 153.751 150.714 153.727 150.754 153.71C150.795 153.694 150.838 153.685 150.882 153.686C150.925 153.685 150.968 153.694 151.009 153.71C151.049 153.727 151.086 153.751 151.117 153.782C151.147 153.813 151.172 153.85 151.188 153.89C151.205 153.931 151.213 153.974 151.213 154.018V154.018Z" fill="#FAD899"/>
<path d="M152.281 153.313C152.281 153.384 152.253 153.452 152.203 153.502C152.153 153.553 152.085 153.581 152.014 153.581C151.943 153.581 151.875 153.553 151.825 153.502C151.775 153.452 151.747 153.384 151.747 153.313C151.747 153.242 151.775 153.174 151.825 153.124C151.875 153.074 151.943 153.045 152.014 153.045C152.085 153.045 152.153 153.074 152.203 153.124C152.253 153.174 152.281 153.242 152.281 153.313Z" fill="#FAD899"/>
<path d="M155.166 154.349C155.166 154.42 155.137 154.488 155.087 154.539C155.037 154.589 154.969 154.617 154.898 154.617C154.828 154.617 154.76 154.589 154.71 154.539C154.659 154.488 154.631 154.42 154.631 154.349C154.631 154.278 154.659 154.21 154.71 154.16C154.76 154.11 154.828 154.082 154.898 154.082C154.969 154.082 155.037 154.11 155.087 154.16C155.137 154.21 155.166 154.278 155.166 154.349Z" fill="#FAD899"/>
<path d="M156.429 153.648C156.429 153.719 156.401 153.787 156.35 153.837C156.3 153.888 156.232 153.916 156.162 153.916C156.091 153.916 156.023 153.888 155.973 153.837C155.923 153.787 155.895 153.719 155.895 153.648C155.895 153.577 155.923 153.509 155.973 153.459C156.023 153.409 156.091 153.38 156.162 153.38C156.232 153.38 156.3 153.409 156.35 153.459C156.401 153.509 156.429 153.577 156.429 153.648Z" fill="#FAD899"/>
<path d="M152.877 155.008C153.095 155.008 153.272 154.83 153.272 154.612C153.272 154.393 153.095 154.215 152.877 154.215C152.658 154.215 152.481 154.393 152.481 154.612C152.481 154.83 152.658 155.008 152.877 155.008Z" fill="#FAD899"/>
<path d="M154.268 153.019C154.268 153.071 154.258 153.122 154.238 153.17C154.218 153.218 154.189 153.261 154.152 153.298C154.115 153.335 154.072 153.363 154.024 153.383C153.976 153.403 153.925 153.413 153.873 153.412C153.821 153.413 153.77 153.403 153.722 153.383C153.674 153.363 153.63 153.335 153.593 153.298C153.557 153.261 153.528 153.218 153.508 153.17C153.488 153.122 153.478 153.071 153.478 153.019C153.478 152.914 153.519 152.813 153.593 152.739C153.667 152.664 153.768 152.623 153.873 152.623C153.978 152.623 154.078 152.664 154.152 152.739C154.226 152.813 154.268 152.914 154.268 153.019V153.019Z" fill="#FAD899"/>
<path d="M162.953 159.741C162.953 159.924 162.88 160.099 162.751 160.228C162.622 160.358 162.447 160.431 162.264 160.431H145.519C145.336 160.431 145.161 160.359 145.031 160.229C144.902 160.1 144.83 159.924 144.83 159.741H162.953Z" fill="white"/>
<path d="M177.835 207.569V214.963C177.833 216.29 177.307 217.562 176.371 218.5C175.435 219.438 174.167 219.965 172.843 219.967H130.672C129.348 219.965 128.08 219.438 127.144 218.5C126.208 217.562 125.682 216.29 125.68 214.963V207.569H177.835Z" fill="#14274D"/>
<g opacity="0.5">
<path opacity="0.5" d="M133.936 211.347H132.672V216.669H133.936V211.347Z" fill="white"/>
</g>
<g opacity="0.5">
<path opacity="0.5" d="M171.809 211.347H166.5V212.613H171.809V211.347Z" fill="white"/>
</g>
<path d="M166.551 183.197C166.551 184.592 160.024 185.724 151.971 185.724C143.919 185.724 137.392 184.592 137.392 183.197V182.635H166.551V183.197Z" fill="white"/>
<path d="M151.974 185.239C160.026 185.239 166.553 184.108 166.553 182.712C166.553 181.317 160.026 180.185 151.974 180.185C143.922 180.185 137.394 181.317 137.394 182.712C137.394 184.108 143.922 185.239 151.974 185.239Z" fill="#1E3565"/>
<path d="M162.595 182.694C161.479 184.469 148.83 184.777 143.539 183.625C142.415 183.382 141.624 183.069 141.347 182.694C141.347 177.875 146.103 173.969 151.971 173.969C153.849 173.96 155.704 174.38 157.395 175.198C160.507 176.7 162.595 179.481 162.595 182.694Z" fill="#C7DFEC"/>
<g style="mix-blend-mode:multiply">
<path d="M162.595 182.694C161.479 184.469 148.83 184.776 143.54 183.625C146.456 183.545 156.749 182.739 157.395 175.479V175.211C160.507 176.7 162.595 179.481 162.595 182.694Z" fill="#C7DFEC"/>
</g>
<path d="M151.509 174.764V173.56C151.51 173.437 151.559 173.32 151.645 173.233C151.732 173.146 151.849 173.097 151.971 173.097C152.094 173.097 152.211 173.145 152.298 173.232C152.385 173.319 152.433 173.437 152.433 173.56V174.764H153.064V173.56C153.064 173.416 153.035 173.274 152.98 173.141C152.926 173.008 152.845 172.887 152.744 172.786C152.642 172.684 152.522 172.603 152.389 172.548C152.257 172.493 152.115 172.465 151.971 172.465C151.682 172.465 151.404 172.58 151.199 172.786C150.994 172.991 150.879 173.269 150.879 173.56V174.764H151.509Z" fill="#C7DFEC"/>
<path d="M167.819 111.217H111.733V105.381C111.733 102.904 112.715 100.529 114.462 98.7772C116.209 97.0256 118.578 96.0412 121.049 96.0405H167.809L167.819 111.217Z" fill="#1E3665"/>
<path d="M137.982 96.0459H128.404C127.181 96.0459 125.969 96.2875 124.839 96.7569C123.709 97.2264 122.681 97.9144 121.816 98.7817C120.951 99.6491 120.265 100.679 119.797 101.812C119.329 102.945 119.089 104.16 119.089 105.386V111.217H128.666V105.381C128.668 102.905 129.65 100.531 131.396 98.7806C133.143 97.0302 135.512 96.0466 137.982 96.0459V96.0459Z" fill="#5689BF"/>
<path d="M157.137 96.0459H147.559C145.088 96.0466 142.719 97.031 140.972 98.7825C139.225 100.534 138.244 102.909 138.244 105.386V111.217H147.821V105.381C147.822 102.905 148.804 100.531 150.551 98.7806C152.298 97.0302 154.667 96.0466 157.137 96.0459V96.0459Z" fill="#5689BF"/>
<path d="M177.835 96.0459V111.217H159.458V105.383C159.459 103.072 160.315 100.843 161.861 99.1275C163.406 97.4118 165.531 96.3311 167.825 96.0941C168.137 96.0646 168.458 96.0459 168.778 96.0459H177.835Z" fill="white"/>
</g>
<defs>
<linearGradient id="paint0_linear_195_1147" x1="244.436" y1="167.935" x2="61.307" y2="200.534" gradientUnits="userSpaceOnUse">
<stop stop-color="#94BAE8"/>
<stop offset="1" stop-color="#FCFDFF"/>
</linearGradient>
<linearGradient id="paint1_linear_195_1147" x1="151.757" y1="207.108" x2="151.757" y2="94.6032" gradientUnits="userSpaceOnUse">
<stop stop-color="white"/>
<stop offset="0.16" stop-color="#E9F0F7"/>
<stop offset="0.51" stop-color="#B0C8E1"/>
<stop offset="1" stop-color="#5689BF"/>
</linearGradient>
<clipPath id="clip0_195_1147">
<rect width="214" height="212" fill="white" transform="translate(35.9458 0.900391)"/>
</clipPath>
</defs>
</svg>
