<svg width="154" height="185" viewBox="0 0 154 185" fill="none" xmlns="http://www.w3.org/2000/svg">
<path d="M43.122 52.4785L10.5029 33.7117L43.122 14.9502L75.741 33.7117L43.122 52.4785Z" fill="#CCDDF2"/>
<path style="mix-blend-mode:multiply" d="M43.1216 50.7874L13.438 33.7121L43.1216 16.6367L72.7999 33.7121L43.1216 50.7874Z" fill="url(#paint0_linear_195_21)"/>
<path d="M43.122 124.508L10.5029 105.742L43.122 86.98L75.741 105.747L43.122 124.508Z" fill="white"/>
<path d="M75.7411 33.7124V105.745L43.1221 124.507V52.4792L75.7411 33.7124Z" fill="#213F75"/>
<path d="M10.5029 33.7124V105.74L43.122 124.507V52.4792L10.5029 33.7124Z" fill="#3D5583"/>
<path d="M12.7114 38.4893V103.231L40.9116 119.458V54.7163L12.7114 38.4893Z" fill="#5689BF"/>
<path d="M70.8473 51.1162V53.021L48.0166 66.1567V64.2519L70.8473 51.1162Z" fill="#132D54"/>
<path d="M70.8473 59.1665V61.0713L48.0166 74.207V72.3022L70.8473 59.1665Z" fill="#132D54"/>
<path d="M70.8473 67.2173V69.1221L48.0166 82.2525V80.353L70.8473 67.2173Z" fill="#132D54"/>
<path d="M70.8473 75.2681V77.1676L48.0166 90.3033V88.3986L70.8473 75.2681Z" fill="#132D54"/>
<path d="M70.8473 83.313V85.2178L48.0166 98.3535V96.4487L70.8473 83.313Z" fill="#132D54"/>
<path d="M70.8473 91.3657V93.2705L48.0166 106.406V104.501L70.8473 91.3657Z" fill="#132D54"/>
<path d="M43.122 51.8703L11.0305 33.4106L10.5029 33.7125L43.122 52.4793L75.741 33.7125L75.2082 33.4106L43.122 51.8703Z" fill="white"/>
<g style="mix-blend-mode:multiply">
<path style="mix-blend-mode:multiply" d="M10.5024 94.3587L43.1215 74.7385V52.4796L10.5024 33.7129V94.3587Z" fill="url(#paint1_linear_195_21)"/>
</g>
<path d="M43.122 38.4585L10.5029 19.6917L43.122 0.930176L75.741 19.6969L43.122 38.4585Z" fill="#E4EDF8"/>
<path d="M43.1212 33.3386L19.4077 19.6929L43.1212 6.05762L66.8346 19.6981L43.1212 33.3386Z" fill="#D7E6EF"/>
<path d="M43.1212 6.97878L66.0302 20.1561L66.8346 19.6981L43.1212 6.05762L19.4077 19.6929L20.2121 20.1561L43.1212 6.97878Z" fill="white"/>
<path d="M75.7411 19.6978V30.3302L43.1221 49.0969V38.4593L75.7411 19.6978Z" fill="#CCDDF2"/>
<path d="M10.5029 19.6919V30.3295L43.122 49.0963V38.4586L10.5029 19.6919Z" fill="url(#paint2_linear_195_21)"/>
<path d="M12.7114 24.4731V27.8195L40.9116 44.0414V40.695L12.7114 24.4731Z" fill="#9AB3D1"/>
<path d="M43.122 37.8498L11.0305 19.3901L10.5029 19.692L43.122 38.4587L75.741 19.6972L75.2082 19.3901L43.122 37.8498Z" fill="white"/>
<path d="M70.8473 27.1504V29.0552L48.0166 42.1856V40.2861L70.8473 27.1504Z" fill="#132D54"/>
<path d="M33.5998 37.8989L27.6924 34.5005V35.1979L33.5998 38.5963V37.8989Z" fill="#132D54"/>
<path d="M26.8408 34.0149L25.2373 33.0938V33.7963L26.8408 34.7175V34.0149Z" fill="#132D54"/>
<path d="M19.3399 29.6974L16.0649 27.8135V28.5161L19.3399 30.4V29.6974Z" fill="#132D54"/>
<path d="M22.3333 31.4221L19.9619 30.0586V30.7612L22.328 32.1247L22.3333 31.4221Z" fill="#132D54"/>
<path d="M24.5542 32.6975L22.9507 31.7764V32.4789L24.5542 33.4001V32.6975Z" fill="#132D54"/>
<path d="M43.1529 10.7352L42.1187 10.142L43.1529 9.54346L44.187 10.142L43.1529 10.7352Z" fill="#194FA0"/>
<path d="M45.2259 11.9328L44.1865 11.3343L45.2259 10.7358L46.2601 11.3343L45.2259 11.9328Z" fill="#194FA0"/>
<path d="M47.2954 13.1187L46.2612 12.5254L47.2954 11.9321L48.3348 12.5254L47.2954 13.1187Z" fill="#194FA0"/>
<path d="M49.3692 14.3109L48.335 13.7176L49.3692 13.1191L50.4034 13.7176L49.3692 14.3109Z" fill="#194FA0"/>
<path d="M51.4437 15.5033L50.4043 14.91L51.4437 14.3115L52.4779 14.91L51.4437 15.5033Z" fill="#194FA0"/>
<path d="M53.5098 16.6957L52.4756 16.1024L53.5098 15.5039L54.544 16.1024L53.5098 16.6957Z" fill="#194FA0"/>
<path d="M55.5843 17.8861L54.5449 17.2928L55.5843 16.6943L56.6185 17.2928L55.5843 17.8861Z" fill="#194FA0"/>
<path d="M57.6528 19.0766L56.6187 18.4833L57.6528 17.8848L58.6923 18.4833L57.6528 19.0766Z" fill="#194FA0"/>
<path d="M59.7276 20.2689L58.6934 19.6756L59.7276 19.0771L60.7618 19.6756L59.7276 20.2689Z" fill="#194FA0"/>
<path d="M41.0742 11.9335L40.04 11.3402L41.0742 10.7417L42.1084 11.3402L41.0742 11.9335Z" fill="#132D54"/>
<path d="M43.1426 13.1239L42.1084 12.5306L43.1426 11.9321L44.182 12.5306L43.1426 13.1239Z" fill="#132D54"/>
<path d="M45.2173 14.3163L44.1831 13.723L45.2173 13.1245L46.2515 13.723L45.2173 14.3163Z" fill="#132D54"/>
<path d="M47.2894 15.5087L46.25 14.9154L47.2894 14.3169L48.3236 14.9154L47.2894 15.5087Z" fill="#132D54"/>
<path d="M49.3579 16.7011L48.3237 16.1078L49.3579 15.5093L50.3974 16.1078L49.3579 16.7011Z" fill="#132D54"/>
<path d="M51.4317 17.8915L50.3975 17.2982L51.4317 16.6997L52.4659 17.2982L51.4317 17.8915Z" fill="#132D54"/>
<path d="M53.5062 19.0824L52.4668 18.4891L53.5062 17.8906L54.5404 18.4891L53.5062 19.0824Z" fill="#132D54"/>
<path d="M55.5733 20.2748L54.5391 19.6815L55.5733 19.083L56.6075 19.6815L55.5733 20.2748Z" fill="#132D54"/>
<path d="M57.6468 21.4672L56.6074 20.8739L57.6468 20.2754L58.681 20.8739L57.6468 21.4672Z" fill="#132D54"/>
<path d="M38.9955 13.1278L37.9561 12.5345L38.9955 11.936L40.0297 12.5345L38.9955 13.1278Z" fill="#194FA0"/>
<path d="M41.0635 14.3202L40.0293 13.7269L41.0635 13.1284L42.1029 13.7269L41.0635 14.3202Z" fill="#194FA0"/>
<path d="M43.1377 15.5126L42.1035 14.9193L43.1377 14.3208L44.1719 14.9193L43.1377 15.5126Z" fill="#194FA0"/>
<path d="M45.2113 16.705L44.1719 16.1117L45.2113 15.5132L46.2455 16.1117L45.2113 16.705Z" fill="#194FA0"/>
<path d="M47.2798 17.8954L46.2456 17.3021L47.2798 16.7036L48.314 17.3021L47.2798 17.8954Z" fill="#194FA0"/>
<path d="M49.3529 19.0878L48.3135 18.4945L49.3529 17.896L50.3871 18.4945L49.3529 19.0878Z" fill="#194FA0"/>
<path d="M51.4214 20.2802L50.3872 19.6869L51.4214 19.0884L52.4608 19.6869L51.4214 20.2802Z" fill="#194FA0"/>
<path d="M53.4951 21.4725L52.4609 20.8793L53.4951 20.2808L54.5293 20.8793L53.4951 21.4725Z" fill="#194FA0"/>
<path d="M55.5697 22.6635L54.5303 22.0702L55.5697 21.4717L56.6039 22.0702L55.5697 22.6635Z" fill="#194FA0"/>
<path d="M36.9164 14.3256L35.877 13.7323L36.9164 13.1338L37.9506 13.7323L36.9164 14.3256Z" fill="#194FA0"/>
<path d="M38.9859 15.518L37.9517 14.9247L38.9859 14.3262L40.0201 14.9247L38.9859 15.518Z" fill="#194FA0"/>
<path d="M41.059 16.7084L40.0195 16.1151L41.059 15.5166L42.0931 16.1151L41.059 16.7084Z" fill="#194FA0"/>
<path d="M43.127 17.9008L42.0928 17.3075L43.127 16.709L44.1664 17.3075L43.127 17.9008Z" fill="#194FA0"/>
<path d="M45.2002 19.0936L44.166 18.5004L45.2002 17.9019L46.2344 18.5004L45.2002 19.0936Z" fill="#194FA0"/>
<path d="M47.2686 20.2841L46.2344 19.6908L47.2686 19.0923L48.308 19.6908L47.2686 20.2841Z" fill="#194FA0"/>
<path d="M49.3433 21.4765L48.3091 20.8832L49.3433 20.2847L50.3775 20.8832L49.3433 21.4765Z" fill="#194FA0"/>
<path d="M51.4164 22.6669L50.377 22.0736L51.4164 21.4751L52.4506 22.0736L51.4164 22.6669Z" fill="#132D54"/>
<path d="M53.4849 23.8593L52.4507 23.266L53.4849 22.6675L54.5243 23.266L53.4849 23.8593Z" fill="#132D54"/>
<path d="M34.833 15.5238L33.7988 14.9305L34.833 14.332L35.8724 14.9305L34.833 15.5238Z" fill="#132D54"/>
<path d="M36.9058 16.7142L35.8716 16.121L36.9058 15.5225L37.94 16.121L36.9058 16.7142Z" fill="#132D54"/>
<path d="M38.9746 17.9066L37.9404 17.3133L38.9746 16.7148L40.014 17.3133L38.9746 17.9066Z" fill="#132D54"/>
<path d="M41.0484 19.099L40.0142 18.5057L41.0484 17.9072L42.0826 18.5057L41.0484 19.099Z" fill="#132D54"/>
<path d="M43.1215 20.2914L42.082 19.6929L43.1215 19.0996L44.1557 19.6981L43.1215 20.2914Z" fill="#132D54"/>
<path d="M45.1904 21.4799L44.1562 20.8814L45.1904 20.2881L46.2299 20.8814L45.1904 21.4799Z" fill="#132D54"/>
<path d="M47.2637 22.6727L46.2295 22.0742L47.2637 21.481L48.2979 22.0742L47.2637 22.6727Z" fill="#132D54"/>
<path d="M49.3373 23.8651L48.2979 23.2666L49.3373 22.6733L50.3715 23.2666L49.3373 23.8651Z" fill="#132D54"/>
<path d="M51.4058 25.0575L50.3716 24.4642L51.4058 23.8657L52.44 24.4642L51.4058 25.0575Z" fill="#132D54"/>
<path d="M32.7539 16.7196L31.7197 16.1263L32.7539 15.5278L33.7881 16.1263L32.7539 16.7196Z" fill="#194FA0"/>
<path d="M34.828 17.912L33.7886 17.3135L34.828 16.7202L35.8622 17.3135L34.828 17.912Z" fill="#194FA0"/>
<path d="M36.8955 19.1044L35.8613 18.5059L36.8955 17.9126L37.9297 18.5059L36.8955 19.1044Z" fill="#194FA0"/>
<path d="M38.9686 20.2973L37.9292 19.6988L38.9686 19.1055L40.0028 19.6988L38.9686 20.2973Z" fill="#194FA0"/>
<path d="M41.0424 21.4877L40.0029 20.8892L41.0424 20.2959L42.0766 20.8892L41.0424 21.4877Z" fill="#194FA0"/>
<path d="M43.1118 22.6781L42.0776 22.0796L43.1118 21.4863L44.146 22.0796L43.1118 22.6781Z" fill="#194FA0"/>
<path d="M45.1849 23.8705L44.1455 23.272L45.1849 22.6787L46.2191 23.272L45.1849 23.8705Z" fill="#194FA0"/>
<path d="M47.2534 25.0629L46.2192 24.4644L47.2534 23.8711L48.2929 24.4644L47.2534 25.0629Z" fill="#194FA0"/>
<path d="M49.3262 26.2533L48.292 25.6548L49.3262 25.0615L50.3604 25.6548L49.3262 26.2533Z" fill="#194FA0"/>
<path d="M30.6743 17.9179L29.6401 17.3194L30.6743 16.7261L31.7085 17.3194L30.6743 17.9179Z" fill="#194FA0"/>
<path d="M32.7432 19.1102L31.709 18.5117L32.7432 17.9185L33.7826 18.5117L32.7432 19.1102Z" fill="#194FA0"/>
<path d="M34.8164 20.3007L33.7822 19.7022L34.8164 19.1089L35.8506 19.7022L34.8164 20.3007Z" fill="#194FA0"/>
<path d="M36.8905 21.4931L35.8511 20.8946L36.8905 20.3013L37.9247 20.8946L36.8905 21.4931Z" fill="#132D54"/>
<path d="M38.959 22.6854L37.9248 22.0869L38.959 21.4937L39.9984 22.0869L38.959 22.6854Z" fill="#132D54"/>
<path d="M41.0332 23.8764L39.999 23.2779L41.0332 22.6846L42.0674 23.2779L41.0332 23.8764Z" fill="#132D54"/>
<path d="M43.1068 25.0687L42.0674 24.4702L43.1068 23.877L44.141 24.4702L43.1068 25.0687Z" fill="#132D54"/>
<path d="M45.1743 26.2592L44.1401 25.6607L45.1743 25.0674L46.2085 25.6607L45.1743 26.2592Z" fill="#132D54"/>
<path d="M47.2474 27.4516L46.208 26.8531L47.2474 26.2598L48.2816 26.8531L47.2474 27.4516Z" fill="#132D54"/>
<path d="M28.5966 19.1137L27.5571 18.5152L28.5966 17.9219L29.6308 18.5152L28.5966 19.1137Z" fill="#132D54"/>
<path d="M30.6641 20.3046L29.6299 19.7061L30.6641 19.1128L31.7035 19.7061L30.6641 20.3046Z" fill="#132D54"/>
<path d="M32.7378 21.497L31.7036 20.8985L32.7378 20.3052L33.772 20.8985L32.7378 21.497Z" fill="#132D54"/>
<path d="M34.8067 22.6913L33.7725 22.0928L34.8067 21.4995L35.8461 22.0928L34.8067 22.6913Z" fill="#132D54"/>
<path d="M36.8804 23.8837L35.8462 23.2852L36.8804 22.6919L37.9146 23.2852L36.8804 23.8837Z" fill="#132D54"/>
<path d="M38.954 25.0722L37.9146 24.4737L38.954 23.8804L39.9882 24.4737L38.954 25.0722Z" fill="#132D54"/>
<path d="M41.0215 26.2645L39.9873 25.666L41.0215 25.0728L42.0609 25.666L41.0215 26.2645Z" fill="#132D54"/>
<path d="M43.0957 27.4569L42.0615 26.8584L43.0957 26.2651L44.1299 26.8584L43.0957 27.4569Z" fill="#132D54"/>
<path d="M45.1641 28.6493L44.1299 28.0508L45.1641 27.4575L46.2035 28.0508L45.1641 28.6493Z" fill="#132D54"/>
<path d="M26.5112 20.31L25.4771 19.7115L26.5112 19.1182L27.5507 19.7115L26.5112 20.31Z" fill="#132D54"/>
<path d="M28.586 21.5023L27.5518 20.9038L28.586 20.3105L29.6202 20.9038L28.586 21.5023Z" fill="#132D54"/>
<path d="M30.6591 22.6947L29.6196 22.0962L30.6591 21.5029L31.6932 22.0962L30.6591 22.6947Z" fill="#132D54"/>
<path d="M32.7276 23.8871L31.6934 23.2886L32.7276 22.6953L33.767 23.2886L32.7276 23.8871Z" fill="#132D54"/>
<path d="M34.8013 25.078L33.7671 24.4795L34.8013 23.8862L35.8355 24.4795L34.8013 25.078Z" fill="#132D54"/>
<path d="M36.8701 26.2684L35.8359 25.67L36.8701 25.0767L37.9096 25.67L36.8701 26.2684Z" fill="#132D54"/>
<path d="M38.9429 27.4608L37.9087 26.8623L38.9429 26.269L39.9771 26.8623L38.9429 27.4608Z" fill="#132D54"/>
<path d="M41.0174 28.6552L39.978 28.0567L41.0174 27.4634L42.0516 28.0567L41.0174 28.6552Z" fill="#132D54"/>
<path d="M43.085 29.8456L42.0508 29.2471L43.085 28.6538L44.1244 29.2471L43.085 29.8456Z" fill="#132D54"/>
<path d="M81.9911 75.0644L49.3721 56.2977L81.9911 37.5361L114.61 56.2977L81.9911 75.0644Z" fill="#CCDDF2"/>
<path style="mix-blend-mode:multiply" d="M81.9907 73.3734L52.3071 56.298L81.9907 39.2227L111.669 56.298L81.9907 73.3734Z" fill="url(#paint3_linear_195_21)"/>
<path d="M81.9911 147.094L49.3721 128.327L81.9911 109.566L114.61 128.333L81.9911 147.094Z" fill="white"/>
<path d="M114.61 56.2983V128.331L81.9912 147.093V75.0651L114.61 56.2983Z" fill="#213F75"/>
<path d="M49.3721 56.2983V128.326L81.9911 147.093V75.0651L49.3721 56.2983Z" fill="#3D5583"/>
<path d="M51.5806 61.0752V125.817L79.7808 142.044V77.3022L51.5806 61.0752Z" fill="#5689BF"/>
<path d="M109.716 73.7021V75.6069L86.8857 88.7426V86.8378L109.716 73.7021Z" fill="#132D54"/>
<path d="M109.716 81.7524V83.6572L86.8857 96.7929V94.8881L109.716 81.7524Z" fill="#132D54"/>
<path d="M109.716 89.8032V91.708L86.8857 104.838V102.939L109.716 89.8032Z" fill="#132D54"/>
<path d="M109.716 97.854V99.7536L86.8857 112.889V110.984L109.716 97.854Z" fill="#132D54"/>
<path d="M109.716 105.899V107.804L86.8857 120.939V119.035L109.716 105.899Z" fill="#132D54"/>
<path d="M109.716 113.952V115.856L86.8857 128.992V127.087L109.716 113.952Z" fill="#132D54"/>
<path d="M81.9911 74.4563L49.8996 55.9966L49.3721 56.2984L81.9911 75.0652L114.61 56.2984L114.077 55.9966L81.9911 74.4563Z" fill="white"/>
<g style="mix-blend-mode:multiply">
<path style="mix-blend-mode:multiply" d="M49.3716 116.945L81.9906 97.3244V75.0656L49.3716 56.2988V116.945Z" fill="url(#paint4_linear_195_21)"/>
</g>
<path d="M81.9911 61.0444L49.3721 42.2777L81.9911 23.5161L114.61 42.2829L81.9911 61.0444Z" fill="#E4EDF8"/>
<path d="M81.9903 55.9246L58.2769 42.2788L81.9903 28.6436L105.704 42.2841L81.9903 55.9246Z" fill="#D7E6EF"/>
<path d="M81.9903 29.5647L104.899 42.742L105.704 42.2841L81.9903 28.6436L58.2769 42.2788L59.0812 42.742L81.9903 29.5647Z" fill="white"/>
<path d="M114.61 42.2837V52.9161L81.9912 71.6829V61.0452L114.61 42.2837Z" fill="#CCDDF2"/>
<path d="M49.3721 42.2778V52.9154L81.9911 71.6822V61.0446L49.3721 42.2778Z" fill="url(#paint5_linear_195_21)"/>
<path d="M51.5806 47.0591V50.4055L79.7808 66.6273V63.2809L51.5806 47.0591Z" fill="#9AB3D1"/>
<path d="M81.9911 60.4358L49.8996 41.9761L49.3721 42.2779L81.9911 61.0447L114.61 42.2831L114.077 41.9761L81.9911 60.4358Z" fill="white"/>
<path d="M109.716 49.7363V51.6411L86.8857 64.7716V62.872L109.716 49.7363Z" fill="#132D54"/>
<path d="M72.469 60.4848L66.5615 57.0864V57.7838L72.469 61.1822V60.4848Z" fill="#132D54"/>
<path d="M65.71 56.6009L64.1064 55.6797V56.3823L65.71 57.3034V56.6009Z" fill="#132D54"/>
<path d="M58.209 52.2834L54.9341 50.3994V51.102L58.209 52.986V52.2834Z" fill="#132D54"/>
<path d="M61.2024 54.0081L58.8311 52.6445V53.3471L61.1972 54.7106L61.2024 54.0081Z" fill="#132D54"/>
<path d="M63.4234 55.2835L61.8198 54.3623V55.0649L63.4234 55.986V55.2835Z" fill="#132D54"/>
<path d="M82.022 33.3212L80.9878 32.7279L82.022 32.1294L83.0562 32.7279L82.022 33.3212Z" fill="#194FA0"/>
<path d="M84.0951 34.5188L83.0557 33.9203L84.0951 33.3218L85.1293 33.9203L84.0951 34.5188Z" fill="#194FA0"/>
<path d="M86.1646 35.7046L85.1304 35.1114L86.1646 34.5181L87.204 35.1114L86.1646 35.7046Z" fill="#194FA0"/>
<path d="M88.2383 36.8969L87.2041 36.3036L88.2383 35.7051L89.2725 36.3036L88.2383 36.8969Z" fill="#194FA0"/>
<path d="M90.3129 38.0892L89.2734 37.496L90.3129 36.8975L91.3471 37.496L90.3129 38.0892Z" fill="#194FA0"/>
<path d="M92.3789 39.2816L91.3447 38.6883L92.3789 38.0898L93.4131 38.6883L92.3789 39.2816Z" fill="#194FA0"/>
<path d="M94.4535 40.4721L93.4141 39.8788L94.4535 39.2803L95.4877 39.8788L94.4535 40.4721Z" fill="#194FA0"/>
<path d="M96.522 41.6625L95.4878 41.0692L96.522 40.4707L97.5614 41.0692L96.522 41.6625Z" fill="#194FA0"/>
<path d="M98.5967 42.8549L97.5625 42.2616L98.5967 41.6631L99.6309 42.2616L98.5967 42.8549Z" fill="#194FA0"/>
<path d="M79.9434 34.5194L78.9092 33.9261L79.9434 33.3276L80.9776 33.9261L79.9434 34.5194Z" fill="#132D54"/>
<path d="M82.0117 35.7099L80.9775 35.1166L82.0117 34.5181L83.0512 35.1166L82.0117 35.7099Z" fill="#132D54"/>
<path d="M84.0864 36.9022L83.0522 36.3089L84.0864 35.7104L85.1206 36.3089L84.0864 36.9022Z" fill="#132D54"/>
<path d="M86.1586 38.0946L85.1191 37.5013L86.1586 36.9028L87.1928 37.5013L86.1586 38.0946Z" fill="#132D54"/>
<path d="M88.2271 39.287L87.1929 38.6937L88.2271 38.0952L89.2665 38.6937L88.2271 39.287Z" fill="#132D54"/>
<path d="M90.3008 40.4774L89.2666 39.8841L90.3008 39.2856L91.335 39.8841L90.3008 40.4774Z" fill="#132D54"/>
<path d="M92.3754 41.6684L91.3359 41.0751L92.3754 40.4766L93.4095 41.0751L92.3754 41.6684Z" fill="#132D54"/>
<path d="M94.4424 42.8607L93.4082 42.2674L94.4424 41.6689L95.4766 42.2674L94.4424 42.8607Z" fill="#132D54"/>
<path d="M96.516 44.0531L95.4766 43.4598L96.516 42.8613L97.5502 43.4598L96.516 44.0531Z" fill="#132D54"/>
<path d="M77.8646 35.7138L76.8252 35.1205L77.8646 34.522L78.8988 35.1205L77.8646 35.7138Z" fill="#194FA0"/>
<path d="M79.9326 36.9061L78.8984 36.3129L79.9326 35.7144L80.9721 36.3129L79.9326 36.9061Z" fill="#194FA0"/>
<path d="M82.0069 38.0985L80.9727 37.5052L82.0069 36.9067L83.0411 37.5052L82.0069 38.0985Z" fill="#194FA0"/>
<path d="M84.0804 39.2909L83.041 38.6976L84.0804 38.0991L85.1146 38.6976L84.0804 39.2909Z" fill="#194FA0"/>
<path d="M86.1489 40.4813L85.1147 39.888L86.1489 39.2896L87.1831 39.888L86.1489 40.4813Z" fill="#194FA0"/>
<path d="M88.222 41.6737L87.1826 41.0804L88.222 40.4819L89.2562 41.0804L88.222 41.6737Z" fill="#194FA0"/>
<path d="M90.2905 42.8661L89.2563 42.2728L90.2905 41.6743L91.33 42.2728L90.2905 42.8661Z" fill="#194FA0"/>
<path d="M92.3643 44.0585L91.3301 43.4652L92.3643 42.8667L93.3985 43.4652L92.3643 44.0585Z" fill="#194FA0"/>
<path d="M94.4388 45.2494L93.3994 44.6561L94.4388 44.0576L95.473 44.6561L94.4388 45.2494Z" fill="#194FA0"/>
<path d="M75.7855 36.9115L74.7461 36.3182L75.7855 35.7197L76.8197 36.3182L75.7855 36.9115Z" fill="#194FA0"/>
<path d="M77.855 38.1039L76.8208 37.5106L77.855 36.9121L78.8892 37.5106L77.855 38.1039Z" fill="#194FA0"/>
<path d="M79.9281 39.2943L78.8887 38.701L79.9281 38.1025L80.9623 38.701L79.9281 39.2943Z" fill="#194FA0"/>
<path d="M81.9961 40.4867L80.9619 39.8934L81.9961 39.2949L83.0355 39.8934L81.9961 40.4867Z" fill="#194FA0"/>
<path d="M84.0694 41.6796L83.0352 41.0863L84.0694 40.4878L85.1035 41.0863L84.0694 41.6796Z" fill="#194FA0"/>
<path d="M86.1377 42.87L85.1035 42.2767L86.1377 41.6782L87.1771 42.2767L86.1377 42.87Z" fill="#194FA0"/>
<path d="M88.2124 44.0624L87.1782 43.4691L88.2124 42.8706L89.2466 43.4691L88.2124 44.0624Z" fill="#194FA0"/>
<path d="M90.2855 45.2528L89.2461 44.6595L90.2855 44.061L91.3197 44.6595L90.2855 45.2528Z" fill="#132D54"/>
<path d="M92.354 46.4452L91.3198 45.8519L92.354 45.2534L93.3934 45.8519L92.354 46.4452Z" fill="#132D54"/>
<path d="M73.7022 38.1098L72.668 37.5165L73.7022 36.918L74.7416 37.5165L73.7022 38.1098Z" fill="#132D54"/>
<path d="M75.7749 39.3002L74.7407 38.7069L75.7749 38.1084L76.8091 38.7069L75.7749 39.3002Z" fill="#132D54"/>
<path d="M77.8438 40.4926L76.8096 39.8993L77.8438 39.3008L78.8832 39.8993L77.8438 40.4926Z" fill="#132D54"/>
<path d="M79.9175 41.685L78.8833 41.0917L79.9175 40.4932L80.9517 41.0917L79.9175 41.685Z" fill="#132D54"/>
<path d="M81.9906 42.8773L80.9512 42.2788L81.9906 41.6855L83.0248 42.284L81.9906 42.8773Z" fill="#132D54"/>
<path d="M84.0596 44.0658L83.0254 43.4673L84.0596 42.874L85.099 43.4673L84.0596 44.0658Z" fill="#132D54"/>
<path d="M86.1328 45.2587L85.0986 44.6602L86.1328 44.0669L87.167 44.6602L86.1328 45.2587Z" fill="#132D54"/>
<path d="M88.2064 46.4511L87.167 45.8526L88.2064 45.2593L89.2406 45.8526L88.2064 46.4511Z" fill="#132D54"/>
<path d="M90.2749 47.6434L89.2407 47.0502L90.2749 46.4517L91.3091 47.0502L90.2749 47.6434Z" fill="#132D54"/>
<path d="M71.6231 39.3056L70.5889 38.7123L71.6231 38.1138L72.6573 38.7123L71.6231 39.3056Z" fill="#194FA0"/>
<path d="M73.6971 40.4979L72.6577 39.8994L73.6971 39.3062L74.7313 39.8994L73.6971 40.4979Z" fill="#194FA0"/>
<path d="M75.7647 41.6903L74.7305 41.0918L75.7647 40.4985L76.7989 41.0918L75.7647 41.6903Z" fill="#194FA0"/>
<path d="M77.8378 42.8832L76.7983 42.2847L77.8378 41.6914L78.872 42.2847L77.8378 42.8832Z" fill="#194FA0"/>
<path d="M79.9115 44.0736L78.8721 43.4751L79.9115 42.8818L80.9457 43.4751L79.9115 44.0736Z" fill="#194FA0"/>
<path d="M81.981 45.2641L80.9468 44.6656L81.981 44.0723L83.0152 44.6656L81.981 45.2641Z" fill="#194FA0"/>
<path d="M84.0541 46.4564L83.0146 45.8579L84.0541 45.2646L85.0883 45.8579L84.0541 46.4564Z" fill="#194FA0"/>
<path d="M86.1226 47.6488L85.0884 47.0503L86.1226 46.457L87.162 47.0503L86.1226 47.6488Z" fill="#194FA0"/>
<path d="M88.1953 48.8393L87.1611 48.2408L88.1953 47.6475L89.2295 48.2408L88.1953 48.8393Z" fill="#194FA0"/>
<path d="M69.5435 40.5038L68.5093 39.9053L69.5435 39.312L70.5777 39.9053L69.5435 40.5038Z" fill="#194FA0"/>
<path d="M71.6123 41.6962L70.5781 41.0977L71.6123 40.5044L72.6517 41.0977L71.6123 41.6962Z" fill="#194FA0"/>
<path d="M73.6856 42.8866L72.6514 42.2881L73.6856 41.6948L74.7198 42.2881L73.6856 42.8866Z" fill="#194FA0"/>
<path d="M75.7596 44.079L74.7202 43.4805L75.7596 42.8872L76.7938 43.4805L75.7596 44.079Z" fill="#132D54"/>
<path d="M77.8281 45.2714L76.7939 44.6729L77.8281 44.0796L78.8676 44.6729L77.8281 45.2714Z" fill="#132D54"/>
<path d="M79.9024 46.4623L78.8682 45.8638L79.9024 45.2705L80.9366 45.8638L79.9024 46.4623Z" fill="#132D54"/>
<path d="M81.9759 47.6547L80.9365 47.0562L81.9759 46.4629L83.0101 47.0562L81.9759 47.6547Z" fill="#132D54"/>
<path d="M84.0435 48.8451L83.0093 48.2466L84.0435 47.6533L85.0777 48.2466L84.0435 48.8451Z" fill="#132D54"/>
<path d="M86.1166 50.0375L85.0771 49.439L86.1166 48.8457L87.1508 49.439L86.1166 50.0375Z" fill="#132D54"/>
<path d="M67.4657 41.6996L66.4263 41.1011L67.4657 40.5078L68.4999 41.1011L67.4657 41.6996Z" fill="#132D54"/>
<path d="M69.5332 42.8905L68.499 42.292L69.5332 41.6987L70.5726 42.292L69.5332 42.8905Z" fill="#132D54"/>
<path d="M71.607 44.0829L70.5728 43.4844L71.607 42.8911L72.6412 43.4844L71.607 44.0829Z" fill="#132D54"/>
<path d="M73.6758 45.2772L72.6416 44.6787L73.6758 44.0854L74.7152 44.6787L73.6758 45.2772Z" fill="#132D54"/>
<path d="M75.7495 46.4696L74.7153 45.8711L75.7495 45.2778L76.7837 45.8711L75.7495 46.4696Z" fill="#132D54"/>
<path d="M77.8231 47.6581L76.7837 47.0596L77.8231 46.4663L78.8573 47.0596L77.8231 47.6581Z" fill="#132D54"/>
<path d="M79.8906 48.8505L78.8564 48.252L79.8906 47.6587L80.9301 48.252L79.8906 48.8505Z" fill="#132D54"/>
<path d="M81.9649 50.0429L80.9307 49.4444L81.9649 48.8511L82.9991 49.4444L81.9649 50.0429Z" fill="#132D54"/>
<path d="M84.0332 51.2352L82.999 50.6367L84.0332 50.0435L85.0726 50.6367L84.0332 51.2352Z" fill="#132D54"/>
<path d="M65.3804 42.8959L64.3462 42.2974L65.3804 41.7041L66.4198 42.2974L65.3804 42.8959Z" fill="#132D54"/>
<path d="M67.4551 44.0883L66.4209 43.4898L67.4551 42.8965L68.4893 43.4898L67.4551 44.0883Z" fill="#132D54"/>
<path d="M69.5282 45.2807L68.4888 44.6822L69.5282 44.0889L70.5624 44.6822L69.5282 45.2807Z" fill="#132D54"/>
<path d="M71.5967 46.473L70.5625 45.8745L71.5967 45.2812L72.6361 45.8745L71.5967 46.473Z" fill="#132D54"/>
<path d="M73.6704 47.664L72.6362 47.0655L73.6704 46.4722L74.7046 47.0655L73.6704 47.664Z" fill="#132D54"/>
<path d="M75.7393 48.8544L74.7051 48.2559L75.7393 47.6626L76.7787 48.2559L75.7393 48.8544Z" fill="#132D54"/>
<path d="M77.812 50.0468L76.7778 49.4483L77.812 48.855L78.8462 49.4483L77.812 50.0468Z" fill="#132D54"/>
<path d="M79.8866 51.2411L78.8472 50.6426L79.8866 50.0493L80.9208 50.6426L79.8866 51.2411Z" fill="#132D54"/>
<path d="M81.9541 52.4315L80.9199 51.833L81.9541 51.2397L82.9935 51.833L81.9541 52.4315Z" fill="#132D54"/>
<path d="M120.858 97.9668L88.2393 79.2L120.858 60.4385L153.477 79.2L120.858 97.9668Z" fill="#CCDDF2"/>
<path style="mix-blend-mode:multiply" d="M120.858 96.2757L91.1743 79.2003L120.858 62.125L150.536 79.2003L120.858 96.2757Z" fill="url(#paint6_linear_195_21)"/>
<path d="M120.858 169.997L88.2393 151.23L120.858 132.468L153.477 151.235L120.858 169.997Z" fill="white"/>
<path d="M153.477 79.2007V151.234L120.858 169.995V97.9674L153.477 79.2007Z" fill="#213F75"/>
<path d="M88.2393 79.2007V151.228L120.858 169.995V97.9674L88.2393 79.2007Z" fill="#3D5583"/>
<path d="M90.4478 83.9775V148.719L118.648 164.946V100.205L90.4478 83.9775Z" fill="#5689BF"/>
<path d="M148.584 96.6045V98.5093L125.753 111.645V109.74L148.584 96.6045Z" fill="#132D54"/>
<path d="M148.584 104.655V106.56L125.753 119.695V117.79L148.584 104.655Z" fill="#132D54"/>
<path d="M148.584 112.706V114.61L125.753 127.741V125.841L148.584 112.706Z" fill="#132D54"/>
<path d="M148.584 120.756V122.656L125.753 135.792V133.887L148.584 120.756Z" fill="#132D54"/>
<path d="M148.584 128.801V130.706L125.753 143.842V141.937L148.584 128.801Z" fill="#132D54"/>
<path d="M148.584 136.854V138.759L125.753 151.894V149.99L148.584 136.854Z" fill="#132D54"/>
<path d="M120.858 97.3586L88.7668 78.8989L88.2393 79.2008L120.858 97.9675L153.477 79.2008L152.945 78.8989L120.858 97.3586Z" fill="white"/>
<g style="mix-blend-mode:multiply">
<path style="mix-blend-mode:multiply" d="M88.2388 139.847L120.858 120.227V97.9679L88.2388 79.2012V139.847Z" fill="url(#paint7_linear_195_21)"/>
</g>
<path d="M120.858 83.9468L88.2393 65.18L120.858 46.4185L153.477 65.1852L120.858 83.9468Z" fill="#E4EDF8"/>
<path d="M120.857 78.8269L97.144 65.1812L120.857 51.5459L144.571 65.1864L120.857 78.8269Z" fill="#D7E6EF"/>
<path d="M120.857 52.4671L143.767 65.6444L144.571 65.1864L120.857 51.5459L97.144 65.1812L97.9484 65.6444L120.857 52.4671Z" fill="white"/>
<path d="M153.477 65.186V75.8184L120.858 94.5852V83.9476L153.477 65.186Z" fill="#CCDDF2"/>
<path d="M88.2393 65.1802V75.8178L120.858 94.5845V83.9469L88.2393 65.1802Z" fill="url(#paint8_linear_195_21)"/>
<path d="M90.4478 69.9614V73.3078L118.648 89.5296V86.1833L90.4478 69.9614Z" fill="#9AB3D1"/>
<path d="M120.858 83.3381L88.7668 64.8784L88.2393 65.1803L120.858 83.947L153.477 65.1855L152.945 64.8784L120.858 83.3381Z" fill="white"/>
<path d="M148.584 72.6387V74.5434L125.753 87.6739V85.7744L148.584 72.6387Z" fill="#132D54"/>
<path d="M111.336 83.3872L105.429 79.9888V80.6861L111.336 84.0846V83.3872Z" fill="#132D54"/>
<path d="M104.577 79.5032L102.974 78.582V79.2846L104.577 80.2058V79.5032Z" fill="#132D54"/>
<path d="M97.0762 75.1857L93.8013 73.3018V74.0043L97.0762 75.8883V75.1857Z" fill="#132D54"/>
<path d="M100.07 76.9104L97.6982 75.5469V76.2495L100.064 77.613L100.07 76.9104Z" fill="#132D54"/>
<path d="M102.291 78.1858L100.687 77.2646V77.9672L102.291 78.8884V78.1858Z" fill="#132D54"/>
<path d="M120.889 56.2235L119.855 55.6302L120.889 55.0317L121.923 55.6302L120.889 56.2235Z" fill="#194FA0"/>
<path d="M122.962 57.4211L121.923 56.8226L122.962 56.2241L123.996 56.8226L122.962 57.4211Z" fill="#194FA0"/>
<path d="M125.032 58.607L123.998 58.0137L125.032 57.4204L126.071 58.0137L125.032 58.607Z" fill="#194FA0"/>
<path d="M127.105 59.7992L126.071 59.2059L127.105 58.6074L128.14 59.2059L127.105 59.7992Z" fill="#194FA0"/>
<path d="M129.18 60.9916L128.141 60.3983L129.18 59.7998L130.214 60.3983L129.18 60.9916Z" fill="#194FA0"/>
<path d="M131.246 62.184L130.212 61.5907L131.246 60.9922L132.28 61.5907L131.246 62.184Z" fill="#194FA0"/>
<path d="M133.321 63.3744L132.281 62.7811L133.321 62.1826L134.355 62.7811L133.321 63.3744Z" fill="#194FA0"/>
<path d="M135.389 64.5648L134.355 63.9715L135.389 63.373L136.429 63.9715L135.389 64.5648Z" fill="#194FA0"/>
<path d="M137.464 65.7572L136.43 65.1639L137.464 64.5654L138.498 65.1639L137.464 65.7572Z" fill="#194FA0"/>
<path d="M118.811 57.4218L117.776 56.8285L118.811 56.23L119.845 56.8285L118.811 57.4218Z" fill="#132D54"/>
<path d="M120.879 58.6122L119.845 58.0189L120.879 57.4204L121.918 58.0189L120.879 58.6122Z" fill="#132D54"/>
<path d="M122.954 59.8046L121.919 59.2113L122.954 58.6128L123.988 59.2113L122.954 59.8046Z" fill="#132D54"/>
<path d="M125.026 60.997L123.986 60.4037L125.026 59.8052L126.06 60.4037L125.026 60.997Z" fill="#132D54"/>
<path d="M127.094 62.1893L126.06 61.5961L127.094 60.9976L128.134 61.5961L127.094 62.1893Z" fill="#132D54"/>
<path d="M129.168 63.3798L128.134 62.7865L129.168 62.188L130.202 62.7865L129.168 63.3798Z" fill="#132D54"/>
<path d="M131.243 64.5707L130.203 63.9774L131.243 63.3789L132.277 63.9774L131.243 64.5707Z" fill="#132D54"/>
<path d="M133.31 65.7631L132.275 65.1698L133.31 64.5713L134.344 65.1698L133.31 65.7631Z" fill="#132D54"/>
<path d="M135.383 66.9555L134.344 66.3622L135.383 65.7637L136.417 66.3622L135.383 66.9555Z" fill="#132D54"/>
<path d="M116.732 58.6161L115.692 58.0228L116.732 57.4243L117.766 58.0228L116.732 58.6161Z" fill="#194FA0"/>
<path d="M118.8 59.8085L117.766 59.2152L118.8 58.6167L119.839 59.2152L118.8 59.8085Z" fill="#194FA0"/>
<path d="M120.874 61.0009L119.84 60.4076L120.874 59.8091L121.908 60.4076L120.874 61.0009Z" fill="#194FA0"/>
<path d="M122.948 62.1933L121.908 61.6L122.948 61.0015L123.982 61.6L122.948 62.1933Z" fill="#194FA0"/>
<path d="M125.016 63.3837L123.982 62.7904L125.016 62.1919L126.05 62.7904L125.016 63.3837Z" fill="#194FA0"/>
<path d="M127.089 64.5761L126.05 63.9828L127.089 63.3843L128.123 63.9828L127.089 64.5761Z" fill="#194FA0"/>
<path d="M129.158 65.7684L128.124 65.1752L129.158 64.5767L130.197 65.1752L129.158 65.7684Z" fill="#194FA0"/>
<path d="M131.231 66.9608L130.197 66.3675L131.231 65.769L132.266 66.3675L131.231 66.9608Z" fill="#194FA0"/>
<path d="M133.306 68.1517L132.267 67.5585L133.306 66.96L134.34 67.5585L133.306 68.1517Z" fill="#194FA0"/>
<path d="M114.653 59.8139L113.613 59.2206L114.653 58.6221L115.687 59.2206L114.653 59.8139Z" fill="#194FA0"/>
<path d="M116.722 61.0062L115.688 60.4129L116.722 59.8145L117.756 60.4129L116.722 61.0062Z" fill="#194FA0"/>
<path d="M118.795 62.1967L117.756 61.6034L118.795 61.0049L119.829 61.6034L118.795 62.1967Z" fill="#194FA0"/>
<path d="M120.863 63.3891L119.829 62.7958L120.863 62.1973L121.903 62.7958L120.863 63.3891Z" fill="#194FA0"/>
<path d="M122.937 64.5819L121.902 63.9886L122.937 63.3901L123.971 63.9886L122.937 64.5819Z" fill="#194FA0"/>
<path d="M125.005 65.7724L123.971 65.1791L125.005 64.5806L126.044 65.1791L125.005 65.7724Z" fill="#194FA0"/>
<path d="M127.08 66.9647L126.045 66.3714L127.08 65.7729L128.114 66.3714L127.08 66.9647Z" fill="#194FA0"/>
<path d="M129.153 68.1552L128.113 67.5619L129.153 66.9634L130.187 67.5619L129.153 68.1552Z" fill="#132D54"/>
<path d="M131.221 69.3476L130.187 68.7543L131.221 68.1558L132.261 68.7543L131.221 69.3476Z" fill="#132D54"/>
<path d="M112.569 61.0121L111.535 60.4188L112.569 59.8203L113.609 60.4188L112.569 61.0121Z" fill="#132D54"/>
<path d="M114.642 62.2025L113.608 61.6092L114.642 61.0107L115.676 61.6092L114.642 62.2025Z" fill="#132D54"/>
<path d="M116.711 63.3949L115.677 62.8016L116.711 62.2031L117.75 62.8016L116.711 63.3949Z" fill="#132D54"/>
<path d="M118.785 64.5873L117.75 63.994L118.785 63.3955L119.819 63.994L118.785 64.5873Z" fill="#132D54"/>
<path d="M120.858 65.7797L119.818 65.1812L120.858 64.5879L121.892 65.1864L120.858 65.7797Z" fill="#132D54"/>
<path d="M122.927 66.9682L121.893 66.3697L122.927 65.7764L123.966 66.3697L122.927 66.9682Z" fill="#132D54"/>
<path d="M125 68.161L123.966 67.5625L125 66.9692L126.034 67.5625L125 68.161Z" fill="#132D54"/>
<path d="M127.074 69.3534L126.034 68.7549L127.074 68.1616L128.108 68.7549L127.074 69.3534Z" fill="#132D54"/>
<path d="M129.142 70.5458L128.108 69.9525L129.142 69.354L130.176 69.9525L129.142 70.5458Z" fill="#132D54"/>
<path d="M110.49 62.2079L109.456 61.6146L110.49 61.0161L111.524 61.6146L110.49 62.2079Z" fill="#194FA0"/>
<path d="M112.564 63.4003L111.525 62.8018L112.564 62.2085L113.599 62.8018L112.564 63.4003Z" fill="#194FA0"/>
<path d="M114.632 64.5927L113.598 63.9942L114.632 63.4009L115.666 63.9942L114.632 64.5927Z" fill="#194FA0"/>
<path d="M116.705 65.7855L115.666 65.187L116.705 64.5938L117.739 65.187L116.705 65.7855Z" fill="#194FA0"/>
<path d="M118.779 66.976L117.739 66.3775L118.779 65.7842L119.813 66.3775L118.779 66.976Z" fill="#194FA0"/>
<path d="M120.848 68.1664L119.814 67.5679L120.848 66.9746L121.882 67.5679L120.848 68.1664Z" fill="#194FA0"/>
<path d="M122.921 69.3588L121.882 68.7603L122.921 68.167L123.955 68.7603L122.921 69.3588Z" fill="#194FA0"/>
<path d="M124.99 70.5512L123.956 69.9527L124.99 69.3594L126.029 69.9527L124.99 70.5512Z" fill="#194FA0"/>
<path d="M127.063 71.7416L126.028 71.1431L127.063 70.5498L128.097 71.1431L127.063 71.7416Z" fill="#194FA0"/>
<path d="M108.411 63.4061L107.376 62.8076L108.411 62.2144L109.445 62.8076L108.411 63.4061Z" fill="#194FA0"/>
<path d="M110.48 64.5985L109.445 64L110.48 63.4067L111.519 64L110.48 64.5985Z" fill="#194FA0"/>
<path d="M112.553 65.789L111.519 65.1905L112.553 64.5972L113.587 65.1905L112.553 65.789Z" fill="#194FA0"/>
<path d="M114.627 66.9813L113.587 66.3828L114.627 65.7896L115.661 66.3828L114.627 66.9813Z" fill="#132D54"/>
<path d="M116.695 68.1737L115.661 67.5752L116.695 66.9819L117.735 67.5752L116.695 68.1737Z" fill="#132D54"/>
<path d="M118.77 69.3646L117.735 68.7661L118.77 68.1729L119.804 68.7661L118.77 69.3646Z" fill="#132D54"/>
<path d="M120.843 70.557L119.804 69.9585L120.843 69.3652L121.877 69.9585L120.843 70.557Z" fill="#132D54"/>
<path d="M122.911 71.7475L121.876 71.149L122.911 70.5557L123.945 71.149L122.911 71.7475Z" fill="#132D54"/>
<path d="M124.984 72.9398L123.944 72.3413L124.984 71.748L126.018 72.3413L124.984 72.9398Z" fill="#132D54"/>
<path d="M106.333 64.6019L105.293 64.0034L106.333 63.4102L107.367 64.0034L106.333 64.6019Z" fill="#132D54"/>
<path d="M108.4 65.7929L107.366 65.1944L108.4 64.6011L109.44 65.1944L108.4 65.7929Z" fill="#132D54"/>
<path d="M110.474 66.9852L109.44 66.3867L110.474 65.7935L111.508 66.3867L110.474 66.9852Z" fill="#132D54"/>
<path d="M112.543 68.1796L111.509 67.5811L112.543 66.9878L113.582 67.5811L112.543 68.1796Z" fill="#132D54"/>
<path d="M114.617 69.372L113.583 68.7735L114.617 68.1802L115.651 68.7735L114.617 69.372Z" fill="#132D54"/>
<path d="M116.69 70.5604L115.651 69.9619L116.69 69.3687L117.725 69.9619L116.69 70.5604Z" fill="#132D54"/>
<path d="M118.758 71.7528L117.724 71.1543L118.758 70.561L119.797 71.1543L118.758 71.7528Z" fill="#132D54"/>
<path d="M120.832 72.9452L119.798 72.3467L120.832 71.7534L121.866 72.3467L120.832 72.9452Z" fill="#132D54"/>
<path d="M122.9 74.1376L121.866 73.5391L122.9 72.9458L123.94 73.5391L122.9 74.1376Z" fill="#132D54"/>
<path d="M104.248 65.7982L103.213 65.1997L104.248 64.6064L105.287 65.1997L104.248 65.7982Z" fill="#132D54"/>
<path d="M106.322 66.9906L105.288 66.3921L106.322 65.7988L107.356 66.3921L106.322 66.9906Z" fill="#132D54"/>
<path d="M108.395 68.183L107.356 67.5845L108.395 66.9912L109.43 67.5845L108.395 68.183Z" fill="#132D54"/>
<path d="M110.464 69.3754L109.43 68.7769L110.464 68.1836L111.503 68.7769L110.464 69.3754Z" fill="#132D54"/>
<path d="M112.538 70.5663L111.503 69.9678L112.538 69.3745L113.572 69.9678L112.538 70.5663Z" fill="#132D54"/>
<path d="M114.606 71.7567L113.572 71.1582L114.606 70.5649L115.646 71.1582L114.606 71.7567Z" fill="#132D54"/>
<path d="M116.679 72.9491L115.645 72.3506L116.679 71.7573L117.713 72.3506L116.679 72.9491Z" fill="#132D54"/>
<path d="M118.754 74.1434L117.714 73.545L118.754 72.9517L119.788 73.545L118.754 74.1434Z" fill="#132D54"/>
<path d="M120.821 75.3339L119.787 74.7354L120.821 74.1421L121.861 74.7354L120.821 75.3339Z" fill="#132D54"/>
<path d="M100.646 105.176L94.728 101.791V100.502L100.646 103.888V105.176Z" fill="#42B7E5"/>
<path d="M103.682 106.912L101.553 105.693V104.405L103.682 105.623V106.912Z" fill="#42B7E5"/>
<path d="M106.037 108.256L104.585 107.428V106.139L106.037 106.968V108.256Z" fill="#42B7E5"/>
<path d="M97.9524 106.576L94.728 104.732V103.444L97.9524 105.288V106.576Z" fill="#42B7E5"/>
<path d="M102.808 109.354L98.856 107.092V105.803L102.808 108.066V109.354Z" fill="#42B7E5"/>
<path d="M105.162 110.698L103.715 109.869V108.584L105.162 109.413V110.698Z" fill="#42B7E5"/>
<path d="M107.4 111.979L105.953 111.15V109.866L107.4 110.694V111.979Z" fill="#42B7E5"/>
<path d="M97.0616 109.008L94.728 107.674V106.385L97.0616 107.719V109.008Z" fill="#42B7E5"/>
<path d="M98.7641 109.981L97.9653 109.525V108.237L98.7641 108.693V109.981Z" fill="#42B7E5"/>
<path d="M101.119 111.327L99.6675 110.498V109.209L101.119 110.038V111.327Z" fill="#42B7E5"/>
<path d="M103.343 115.542L94.728 110.615V109.327L103.343 114.253V115.542Z" fill="#42B7E5"/>
<path d="M106.375 117.279L104.247 116.061V114.772L106.375 115.99V117.279Z" fill="#42B7E5"/>
<path d="M97.0616 114.891L94.728 113.557V112.268L97.0616 113.602V114.891Z" fill="#42B7E5"/>
<path d="M102.541 118.023L97.9653 115.408V114.12L102.541 116.734V118.023Z" fill="#42B7E5"/>
<path d="M104.891 119.37L103.444 118.541V117.252L104.891 118.081V119.37Z" fill="#42B7E5"/>
<path d="M99.504 119.229L94.728 116.498V115.209L99.504 117.94V119.229Z" fill="#42B7E5"/>
<path d="M103.862 121.725L100.408 119.748V118.459L103.862 120.436V121.725Z" fill="#42B7E5"/>
<path d="M107.099 123.578L104.765 122.244V120.956L107.099 122.29V123.578Z" fill="#42B7E5"/>
<path d="M96.3423 120.363L94.728 119.44V118.151L96.3423 119.075V120.363Z" fill="#42B7E5"/>
<path d="M99.3743 122.103L97.2456 120.885V119.596L99.3743 120.814V122.103Z" fill="#42B7E5"/>
<path d="M103.715 124.583L100.282 122.619V121.331L103.715 123.295V124.583Z" fill="#42B7E5"/>
<path d="M99.6671 125.211L94.728 122.385V121.096L99.6671 123.922V125.211Z" fill="#42B7E5"/>
<path d="M105.2 128.376L100.571 125.729V124.44L105.2 127.088V128.376Z" fill="#42B7E5"/>
<path d="M107.554 129.721L106.103 128.893V127.604L107.554 128.433V129.721Z" fill="#42B7E5"/>
<path d="M109.809 131.01L108.362 130.181V128.897L109.809 129.726V131.01Z" fill="#42B7E5"/>
<path d="M97.689 127.021L94.728 125.326V124.038L97.689 125.732V127.021Z" fill="#42B7E5"/>
<path d="M110.064 110.561L114.171 112.91V111.621L110.064 109.272V110.561Z" fill="#42B7E5"/>
<path d="M110.946 114.01L114.17 115.854V114.565L110.946 112.721V114.01Z" fill="#42B7E5"/>
<path d="M111.837 117.459L114.171 118.793V117.505L111.837 116.17V117.459Z" fill="#42B7E5"/>
<path d="M110.775 119.795L114.171 121.738V120.45L110.775 118.506V119.795Z" fill="#42B7E5"/>
<path d="M111.837 123.346L114.171 124.68V123.391L111.837 122.057V123.346Z" fill="#42B7E5"/>
<path d="M111.209 125.928L114.17 127.622V126.334L111.209 124.643V125.928Z" fill="#42B7E5"/>
<path d="M112.556 129.638L114.17 130.562V129.274L112.556 128.354V129.638Z" fill="#42B7E5"/>
<path d="M111.046 131.717L114.17 133.503V132.214L111.046 130.428V131.717Z" fill="#42B7E5"/>
<path d="M111.209 134.756L114.17 136.446V135.158L111.209 133.467V134.756Z" fill="#42B7E5"/>
<path d="M99.8511 128.254L98.5923 127.537V126.249L99.8511 126.97V128.254Z" fill="#42B7E5"/>
<path d="M103.586 130.392L100.754 128.772V127.483L103.586 129.103V130.392Z" fill="#42B7E5"/>
<path d="M105.932 140.291L101.152 137.557V136.268L105.932 139.003V140.291Z" fill="#42B7E5"/>
<path d="M109.207 142.165L107.325 141.088V139.799L109.207 140.877V142.165Z" fill="#42B7E5"/>
<path d="M61.7609 85.0689L55.8433 81.6836V80.395L61.7609 83.7802V85.0689Z" fill="#42B7E5"/>
<path d="M64.7971 86.8042L62.6685 85.586V84.2974L64.7971 85.5155V86.8042Z" fill="#42B7E5"/>
<path d="M67.1519 88.1491L65.7007 87.3204V86.0317L67.1519 86.8604V88.1491Z" fill="#42B7E5"/>
<path d="M59.0677 86.4689L55.8433 84.625V83.3364L59.0677 85.1803V86.4689Z" fill="#42B7E5"/>
<path d="M63.9233 89.2468L59.9712 86.9844V85.6958L63.9233 87.9581V89.2468Z" fill="#42B7E5"/>
<path d="M66.2776 90.5902L64.8306 89.7615V88.4771L66.2776 89.3057V90.5902Z" fill="#42B7E5"/>
<path d="M68.5149 91.8715L67.0679 91.0428V89.7583L68.5149 90.587V91.8715Z" fill="#42B7E5"/>
<path d="M58.1769 88.9007L55.8433 87.5665V86.2778L58.1769 87.612V88.9007Z" fill="#42B7E5"/>
<path d="M59.8793 89.8738L59.0806 89.418V88.1294L59.8793 88.5852V89.8738Z" fill="#42B7E5"/>
<path d="M62.2339 91.2194L60.7827 90.3907V89.1021L62.2339 89.9307V91.2194Z" fill="#42B7E5"/>
<path d="M64.4584 95.4345L55.8433 90.5079V89.2192L64.4584 94.1458V95.4345Z" fill="#42B7E5"/>
<path d="M67.4905 97.1714L65.3618 95.9532V94.6646L67.4905 95.8827V97.1714Z" fill="#42B7E5"/>
<path d="M58.1769 94.7835L55.8433 93.4493V92.1606L58.1769 93.4948V94.7835Z" fill="#42B7E5"/>
<path d="M63.6558 97.9154L59.0806 95.3008V94.0122L63.6558 96.6267V97.9154Z" fill="#42B7E5"/>
<path d="M66.0061 99.2623L64.5591 98.4336V97.145L66.0061 97.9737V99.2623Z" fill="#42B7E5"/>
<path d="M60.6192 99.1212L55.8433 96.3907V95.1021L60.6192 97.8326V99.1212Z" fill="#42B7E5"/>
<path d="M64.9774 101.617L61.5229 99.6407V98.3521L64.9774 100.328V101.617Z" fill="#42B7E5"/>
<path d="M68.214 103.471L65.8804 102.137V100.848L68.214 102.182V103.471Z" fill="#42B7E5"/>
<path d="M57.4576 100.256L55.8433 99.3321V98.0435L57.4576 98.9675V100.256Z" fill="#42B7E5"/>
<path d="M60.4895 101.996L58.3608 100.777V99.4888L60.4895 100.707V101.996Z" fill="#42B7E5"/>
<path d="M64.8305 104.476L61.397 102.512V101.223L64.8305 103.187V104.476Z" fill="#42B7E5"/>
<path d="M60.7823 105.103L55.8433 102.277V100.989L60.7823 103.815V105.103Z" fill="#42B7E5"/>
<path d="M66.3156 108.269L61.686 105.621V104.333L66.3156 106.98V108.269Z" fill="#42B7E5"/>
<path d="M68.6695 109.614L67.2183 108.785V107.497L68.6695 108.325V109.614Z" fill="#42B7E5"/>
<path d="M70.9241 110.903L69.4771 110.074V108.79L70.9241 109.618V110.903Z" fill="#42B7E5"/>
<path d="M58.8042 106.913L55.8433 105.219V103.93L58.8042 105.625V106.913Z" fill="#42B7E5"/>
<path d="M71.1792 90.4532L75.286 92.8025V91.5139L71.1792 89.1646V90.4532Z" fill="#42B7E5"/>
<path d="M72.061 93.9024L75.2854 95.7462V94.4576L72.061 92.6138V93.9024Z" fill="#42B7E5"/>
<path d="M72.9526 97.3516L75.2863 98.6858V97.3972L72.9526 96.063V97.3516Z" fill="#42B7E5"/>
<path d="M71.8901 99.6875L75.286 101.631V100.342L71.8901 98.3989V99.6875Z" fill="#42B7E5"/>
<path d="M72.9526 103.238L75.2863 104.573V103.284L72.9526 101.95V103.238Z" fill="#42B7E5"/>
<path d="M72.3247 105.82L75.2856 107.515V106.226L72.3247 104.536V105.82Z" fill="#42B7E5"/>
<path d="M73.6714 109.531L75.2857 110.455V109.166L73.6714 108.247V109.531Z" fill="#42B7E5"/>
<path d="M72.1616 111.609L75.2857 113.395V112.107L72.1616 110.321V111.609Z" fill="#42B7E5"/>
<path d="M72.3247 114.648L75.2856 116.339V115.05L72.3247 113.36V114.648Z" fill="#42B7E5"/>
<path d="M60.9663 108.147L59.7075 107.43V106.141L60.9663 106.862V108.147Z" fill="#42B7E5"/>
<path d="M64.7009 110.284L61.8696 108.664V107.375L64.7009 108.996V110.284Z" fill="#42B7E5"/>
<path d="M67.0472 120.184L62.2671 117.449V116.161L67.0472 118.895V120.184Z" fill="#42B7E5"/>
<path d="M70.3219 122.058L68.4399 120.981V119.692L70.3219 120.769V122.058Z" fill="#42B7E5"/>
<path d="M22.5129 59.7056L16.5952 56.3204V55.0317L22.5129 58.417V59.7056Z" fill="#42B7E5"/>
<path d="M25.5491 61.4409L23.4204 60.2227V58.9341L25.5491 60.1523V61.4409Z" fill="#42B7E5"/>
<path d="M27.9038 62.7858L26.4526 61.9571V60.6685L27.9038 61.4972V62.7858Z" fill="#42B7E5"/>
<path d="M19.8196 61.1056L16.5952 59.2618V57.9731L19.8196 59.817V61.1056Z" fill="#42B7E5"/>
<path d="M24.6752 63.8835L20.7231 61.6211V60.3325L24.6752 62.5949V63.8835Z" fill="#42B7E5"/>
<path d="M27.0295 65.2269L25.5825 64.3982V63.1138L27.0295 63.9425V65.2269Z" fill="#42B7E5"/>
<path d="M29.2668 66.5082L27.8198 65.6795V64.395L29.2668 65.2237V66.5082Z" fill="#42B7E5"/>
<path d="M18.9288 63.5374L16.5952 62.2032V60.9146L18.9288 62.2488V63.5374Z" fill="#42B7E5"/>
<path d="M20.6313 64.5105L19.8325 64.0547V62.7661L20.6313 63.2219V64.5105Z" fill="#42B7E5"/>
<path d="M22.9859 65.8561L21.5347 65.0274V63.7388L22.9859 64.5675V65.8561Z" fill="#42B7E5"/>
<path d="M25.2103 70.0712L16.5952 65.1446V63.856L25.2103 68.7826V70.0712Z" fill="#42B7E5"/>
<path d="M28.2425 71.8081L26.1138 70.5899V69.3013L28.2425 70.5195V71.8081Z" fill="#42B7E5"/>
<path d="M18.9288 69.4202L16.5952 68.086V66.7974L18.9288 68.1316V69.4202Z" fill="#42B7E5"/>
<path d="M24.4077 72.5521L19.8325 69.9375V68.6489L24.4077 71.2635V72.5521Z" fill="#42B7E5"/>
<path d="M26.758 73.8991L25.311 73.0704V71.7817L26.758 72.6104V73.8991Z" fill="#42B7E5"/>
<path d="M21.3712 73.7579L16.5952 71.0274V69.7388L21.3712 72.4693V73.7579Z" fill="#42B7E5"/>
<path d="M25.7293 76.2538L22.2749 74.2774V72.9888L25.7293 74.9652V76.2538Z" fill="#42B7E5"/>
<path d="M28.9659 78.1077L26.6323 76.7735V75.4849L28.9659 76.8191V78.1077Z" fill="#42B7E5"/>
<path d="M18.2095 74.8928L16.5952 73.9688V72.6802L18.2095 73.6042V74.8928Z" fill="#42B7E5"/>
<path d="M21.2415 76.6323L19.1128 75.4141V74.1255L21.2415 75.3437V76.6323Z" fill="#42B7E5"/>
<path d="M25.5824 79.1125L22.1489 77.1485V75.8599L25.5824 77.8239V79.1125Z" fill="#42B7E5"/>
<path d="M21.5343 79.74L16.5952 76.9141V75.6255L21.5343 78.4513V79.74Z" fill="#42B7E5"/>
<path d="M27.0676 82.9055L22.438 80.2579V78.9692L27.0676 81.6169V82.9055Z" fill="#42B7E5"/>
<path d="M29.4214 84.2506L27.9702 83.4219V82.1333L29.4214 82.962V84.2506Z" fill="#42B7E5"/>
<path d="M31.676 85.5394L30.229 84.7107V83.4263L31.676 84.255V85.5394Z" fill="#42B7E5"/>
<path d="M19.5561 81.5502L16.5952 79.8555V78.5669L19.5561 80.2616V81.5502Z" fill="#42B7E5"/>
<path d="M31.9312 65.0899L36.038 67.4392V66.1506L31.9312 63.8013V65.0899Z" fill="#42B7E5"/>
<path d="M32.813 68.5391L36.0374 70.383V69.0943L32.813 67.2505V68.5391Z" fill="#42B7E5"/>
<path d="M33.7046 71.9883L36.0382 73.3225V72.0339L33.7046 70.6997V71.9883Z" fill="#42B7E5"/>
<path d="M32.6421 74.3243L36.038 76.2676V74.9789L32.6421 73.0356V74.3243Z" fill="#42B7E5"/>
<path d="M33.7046 77.875L36.0382 79.2092V77.9206L33.7046 76.5864V77.875Z" fill="#42B7E5"/>
<path d="M33.0767 80.4568L36.0376 82.1515V80.8629L33.0767 79.1724V80.4568Z" fill="#42B7E5"/>
<path d="M34.4233 84.1678L36.0376 85.0918V83.8032L34.4233 82.8833V84.1678Z" fill="#42B7E5"/>
<path d="M32.9136 86.2461L36.0376 88.032V86.7434L32.9136 84.9575V86.2461Z" fill="#42B7E5"/>
<path d="M33.0767 89.2852L36.0376 90.9757V89.6871L33.0767 87.9966V89.2852Z" fill="#42B7E5"/>
<path d="M21.7183 82.7833L20.4595 82.0665V80.7778L21.7183 81.4988V82.7833Z" fill="#42B7E5"/>
<path d="M25.4529 84.9209L22.6216 83.3008V82.0122L25.4529 83.6323V84.9209Z" fill="#42B7E5"/>
<path d="M27.7992 94.8207L23.019 92.086V90.7974L27.7992 93.5321V94.8207Z" fill="#42B7E5"/>
<path d="M31.0738 96.6945L29.1919 95.6172V94.3286L31.0738 95.4059V96.6945Z" fill="#42B7E5"/>
<path d="M4.625 117.856L20.8279 108.4C23.249 106.954 26.6082 107.136 30.3305 109.293C31.5819 110.032 32.756 110.895 33.835 111.87L40.3657 108.084C43.9549 105.556 49.1481 105.653 54.9223 109.014C62.2339 113.268 68.6075 121.587 71.9727 130.417C73.2761 130.498 74.5397 130.899 75.6526 131.584C80.4221 134.35 84.2898 141.077 84.2898 146.607C84.2898 146.729 84.2898 146.838 84.2898 146.954C85.8649 147.105 87.3846 147.616 88.7325 148.448C94.8335 151.985 99.7846 160.603 99.7846 167.658C99.7846 171.165 98.574 173.632 96.5948 174.805L96.5464 174.835L80.5553 184.158L77.0629 167.282L30.3487 140.208C24.3748 136.744 19.3269 129.269 17.6382 122.007L4.625 117.856Z" fill="url(#paint9_linear_195_21)"/>
<path d="M14.2828 118.645C16.4821 119.968 18.4543 121.638 20.1235 123.592C22.5446 115.691 30.0377 113.261 38.8867 118.372C46.1983 122.626 52.5718 130.945 55.9371 139.775C57.241 139.853 58.5053 140.254 59.617 140.942C64.3865 143.707 68.2541 150.435 68.2541 155.965C68.2541 156.08 68.2541 156.19 68.2541 156.305C69.8286 156.459 71.3478 156.97 72.6968 157.8C78.7979 161.337 83.7489 169.954 83.7489 177.016C83.7489 184.078 78.7979 186.952 72.6968 183.415L14.307 149.565C6.94095 145.311 0.991211 134.913 0.991211 126.375C0.991211 117.837 6.91672 114.379 14.2828 118.645Z" fill="#E4EDF8"/>
<defs>
<linearGradient id="paint0_linear_195_21" x1="5468.21" y1="2167.79" x2="12214.7" y2="2167.79" gradientUnits="userSpaceOnUse">
<stop stop-color="white"/>
<stop offset="0.16" stop-color="#E9F0F7"/>
<stop offset="0.51" stop-color="#B0C8E1"/>
<stop offset="1" stop-color="#5689BF"/>
</linearGradient>
<linearGradient id="paint1_linear_195_21" x1="3842.91" y1="10920.9" x2="3842.91" y2="3853.8" gradientUnits="userSpaceOnUse">
<stop stop-color="white"/>
<stop offset="0.16" stop-color="#E9F0F7"/>
<stop offset="0.51" stop-color="#B0C8E1"/>
<stop offset="1" stop-color="#5689BF"/>
</linearGradient>
<linearGradient id="paint2_linear_195_21" x1="2824.55" y1="1910.39" x2="4861.61" y2="1910.39" gradientUnits="userSpaceOnUse">
<stop stop-color="white"/>
<stop offset="0.16" stop-color="#E9F0F7"/>
<stop offset="0.51" stop-color="#B0C8E1"/>
<stop offset="1" stop-color="#5689BF"/>
</linearGradient>
<linearGradient id="paint3_linear_195_21" x1="5507.08" y1="2190.38" x2="12253.6" y2="2190.38" gradientUnits="userSpaceOnUse">
<stop stop-color="white"/>
<stop offset="0.16" stop-color="#E9F0F7"/>
<stop offset="0.51" stop-color="#B0C8E1"/>
<stop offset="1" stop-color="#5689BF"/>
</linearGradient>
<linearGradient id="paint4_linear_195_21" x1="3881.78" y1="10943.4" x2="3881.78" y2="3876.38" gradientUnits="userSpaceOnUse">
<stop stop-color="white"/>
<stop offset="0.16" stop-color="#E9F0F7"/>
<stop offset="0.51" stop-color="#B0C8E1"/>
<stop offset="1" stop-color="#5689BF"/>
</linearGradient>
<linearGradient id="paint5_linear_195_21" x1="2863.42" y1="1932.98" x2="4900.48" y2="1932.98" gradientUnits="userSpaceOnUse">
<stop stop-color="white"/>
<stop offset="0.16" stop-color="#E9F0F7"/>
<stop offset="0.51" stop-color="#B0C8E1"/>
<stop offset="1" stop-color="#5689BF"/>
</linearGradient>
<linearGradient id="paint6_linear_195_21" x1="5545.94" y1="2213.28" x2="12292.4" y2="2213.28" gradientUnits="userSpaceOnUse">
<stop stop-color="white"/>
<stop offset="0.16" stop-color="#E9F0F7"/>
<stop offset="0.51" stop-color="#B0C8E1"/>
<stop offset="1" stop-color="#5689BF"/>
</linearGradient>
<linearGradient id="paint7_linear_195_21" x1="3920.65" y1="10966.3" x2="3920.65" y2="3899.28" gradientUnits="userSpaceOnUse">
<stop stop-color="white"/>
<stop offset="0.16" stop-color="#E9F0F7"/>
<stop offset="0.51" stop-color="#B0C8E1"/>
<stop offset="1" stop-color="#5689BF"/>
</linearGradient>
<linearGradient id="paint8_linear_195_21" x1="2902.28" y1="1955.88" x2="4939.34" y2="1955.88" gradientUnits="userSpaceOnUse">
<stop stop-color="white"/>
<stop offset="0.16" stop-color="#E9F0F7"/>
<stop offset="0.51" stop-color="#B0C8E1"/>
<stop offset="1" stop-color="#5689BF"/>
</linearGradient>
<linearGradient id="paint9_linear_195_21" x1="52.2048" y1="106.324" x2="52.2048" y2="184.158" gradientUnits="userSpaceOnUse">
<stop stop-color="#ACC4E7"/>
<stop offset="1" stop-color="#EDF4FF"/>
</linearGradient>
</defs>
</svg>
