<svg width="143" height="170" viewBox="0 0 143 170" fill="none" xmlns="http://www.w3.org/2000/svg">
<path d="M109.407 52.2754L142.026 33.5086L109.407 14.7471L76.7883 33.5086L109.407 52.2754Z" fill="#CCDDF2"/>
<path style="mix-blend-mode:multiply" d="M109.407 50.5843L139.091 33.5089L109.407 16.4336L79.7289 33.5089L109.407 50.5843Z" fill="url(#paint0_linear_195_475)"/>
<path d="M109.407 124.305L142.026 105.538L109.407 86.7769L76.7883 105.544L109.407 124.305Z" fill="white"/>
<path d="M76.7877 33.5093V105.542L109.407 124.304V52.276L76.7877 33.5093Z" fill="#213F75"/>
<path d="M142.026 33.5093V105.537L109.407 124.304V52.276L142.026 33.5093Z" fill="#3D5583"/>
<path d="M139.817 38.2861V103.028L111.617 119.255V54.5132L139.817 38.2861Z" fill="#5689BF"/>
<path d="M81.682 50.9131V52.8179L104.513 65.9535V64.0488L81.682 50.9131Z" fill="#132D54"/>
<path d="M81.682 58.9634V60.8682L104.513 74.0038V72.0991L81.682 58.9634Z" fill="#132D54"/>
<path d="M81.682 67.0142V68.9189L104.513 82.0494V80.1498L81.682 67.0142Z" fill="#132D54"/>
<path d="M81.682 75.0649V76.9645L104.513 90.1002V88.1954L81.682 75.0649Z" fill="#132D54"/>
<path d="M81.682 83.1099V85.0146L104.513 98.1503V96.2455L81.682 83.1099Z" fill="#132D54"/>
<path d="M81.682 91.1626V93.0674L104.513 106.203V104.298L81.682 91.1626Z" fill="#132D54"/>
<path d="M109.407 51.6672L141.499 33.2075L142.026 33.5094L109.407 52.2761L76.7883 33.5094L77.3211 33.2075L109.407 51.6672Z" fill="white"/>
<g style="mix-blend-mode:multiply">
<path style="mix-blend-mode:multiply" d="M142.026 94.1556L109.407 74.5354V52.2765L142.026 33.5098V94.1556Z" fill="url(#paint1_linear_195_475)"/>
</g>
<path d="M109.407 38.2553L142.026 19.4886L109.407 0.727051L76.7883 19.4938L109.407 38.2553Z" fill="#E4EDF8"/>
<path d="M109.408 33.1355L133.121 19.4898L109.408 5.85449L85.6942 19.495L109.408 33.1355Z" fill="#D7E6EF"/>
<path d="M109.408 6.77565L86.4986 19.953L85.6942 19.495L109.408 5.85449L133.121 19.4898L132.317 19.953L109.408 6.77565Z" fill="white"/>
<path d="M76.7877 19.4946V30.127L109.407 48.8938V38.2562L76.7877 19.4946Z" fill="#CCDDF2"/>
<path d="M142.026 19.4888V30.1264L109.407 48.8931V38.2555L142.026 19.4888Z" fill="url(#paint2_linear_195_475)"/>
<path d="M139.817 24.27V27.6164L111.617 43.8382V40.4919L139.817 24.27Z" fill="#9AB3D1"/>
<path d="M109.407 37.6467L141.499 19.187L142.026 19.4889L109.407 38.2556L76.7883 19.4941L77.3211 19.187L109.407 37.6467Z" fill="white"/>
<path d="M81.682 26.9473V28.852L104.513 41.9825V40.0829L81.682 26.9473Z" fill="#132D54"/>
<path d="M118.929 37.6958L124.836 34.2974V34.9947L118.929 38.3932V37.6958Z" fill="#132D54"/>
<path d="M125.687 33.8118L127.291 32.8906V33.5932L125.687 34.5144V33.8118Z" fill="#132D54"/>
<path d="M133.189 29.4943L136.464 27.6104V28.3129L133.189 30.1969V29.4943Z" fill="#132D54"/>
<path d="M130.196 31.219L132.567 29.8555V30.558L130.201 31.9216L130.196 31.219Z" fill="#132D54"/>
<path d="M127.975 32.4944L129.578 31.5732V32.2758L127.975 33.197V32.4944Z" fill="#132D54"/>
<path d="M109.376 10.5321L110.41 9.93883L109.376 9.34033L108.342 9.93883L109.376 10.5321Z" fill="#194FA0"/>
<path d="M107.302 11.7297L108.342 11.1312L107.302 10.5327L106.268 11.1312L107.302 11.7297Z" fill="#194FA0"/>
<path d="M105.233 12.9156L106.268 12.3223L105.233 11.729L104.194 12.3223L105.233 12.9156Z" fill="#194FA0"/>
<path d="M103.16 14.1078L104.194 13.5145L103.16 12.916L102.125 13.5145L103.16 14.1078Z" fill="#194FA0"/>
<path d="M101.086 15.3002L102.125 14.7069L101.086 14.1084L100.051 14.7069L101.086 15.3002Z" fill="#194FA0"/>
<path d="M99.0185 16.4926L100.053 15.8993L99.0185 15.3008L97.9843 15.8993L99.0185 16.4926Z" fill="#194FA0"/>
<path d="M96.9445 17.683L97.9839 17.0897L96.9445 16.4912L95.9103 17.0897L96.9445 17.683Z" fill="#194FA0"/>
<path d="M94.876 18.8734L95.9102 18.2801L94.876 17.6816L93.8365 18.2801L94.876 18.8734Z" fill="#194FA0"/>
<path d="M92.8013 20.0658L93.8354 19.4725L92.8013 18.874L91.767 19.4725L92.8013 20.0658Z" fill="#194FA0"/>
<path d="M111.454 11.7304L112.488 11.1371L111.454 10.5386L110.42 11.1371L111.454 11.7304Z" fill="#132D54"/>
<path d="M109.386 12.9208L110.42 12.3275L109.386 11.729L108.347 12.3275L109.386 12.9208Z" fill="#132D54"/>
<path d="M107.312 14.1132L108.346 13.5199L107.312 12.9214L106.277 13.5199L107.312 14.1132Z" fill="#132D54"/>
<path d="M105.239 15.3056L106.279 14.7123L105.239 14.1138L104.205 14.7123L105.239 15.3056Z" fill="#132D54"/>
<path d="M103.171 16.4979L104.205 15.9046L103.171 15.3062L102.131 15.9046L103.171 16.4979Z" fill="#132D54"/>
<path d="M101.097 17.6884L102.131 17.0951L101.097 16.4966L100.063 17.0951L101.097 17.6884Z" fill="#132D54"/>
<path d="M99.0231 18.8793L100.062 18.286L99.0231 17.6875L97.9889 18.286L99.0231 18.8793Z" fill="#132D54"/>
<path d="M96.9551 20.0717L97.9893 19.4784L96.9551 18.8799L95.9209 19.4784L96.9551 20.0717Z" fill="#132D54"/>
<path d="M94.882 21.2641L95.9214 20.6708L94.882 20.0723L93.8478 20.6708L94.882 21.2641Z" fill="#132D54"/>
<path d="M113.533 12.9247L114.572 12.3314L113.533 11.7329L112.499 12.3314L113.533 12.9247Z" fill="#194FA0"/>
<path d="M111.466 14.1171L112.5 13.5238L111.466 12.9253L110.426 13.5238L111.466 14.1171Z" fill="#194FA0"/>
<path d="M109.391 15.3095L110.425 14.7162L109.391 14.1177L108.356 14.7162L109.391 15.3095Z" fill="#194FA0"/>
<path d="M107.318 16.5018L108.357 15.9086L107.318 15.3101L106.283 15.9086L107.318 16.5018Z" fill="#194FA0"/>
<path d="M105.249 17.6923L106.283 17.099L105.249 16.5005L104.215 17.099L105.249 17.6923Z" fill="#194FA0"/>
<path d="M103.176 18.8847L104.215 18.2914L103.176 17.6929L102.142 18.2914L103.176 18.8847Z" fill="#194FA0"/>
<path d="M101.107 20.077L102.142 19.4838L101.107 18.8853L100.068 19.4838L101.107 20.077Z" fill="#194FA0"/>
<path d="M99.0337 21.2694L100.068 20.6761L99.0337 20.0776L97.9995 20.6761L99.0337 21.2694Z" fill="#194FA0"/>
<path d="M96.9596 22.4603L97.999 21.867L96.9596 21.2686L95.9254 21.867L96.9596 22.4603Z" fill="#194FA0"/>
<path d="M115.612 14.1225L116.652 13.5292L115.612 12.9307L114.578 13.5292L115.612 14.1225Z" fill="#194FA0"/>
<path d="M113.543 15.3148L114.577 14.7215L113.543 14.123L112.509 14.7215L113.543 15.3148Z" fill="#194FA0"/>
<path d="M111.469 16.5053L112.509 15.912L111.469 15.3135L110.435 15.912L111.469 16.5053Z" fill="#194FA0"/>
<path d="M109.402 17.6976L110.437 17.1044L109.402 16.5059L108.363 17.1044L109.402 17.6976Z" fill="#194FA0"/>
<path d="M107.328 18.8905L108.362 18.2972L107.328 17.6987L106.294 18.2972L107.328 18.8905Z" fill="#194FA0"/>
<path d="M105.26 20.0809L106.294 19.4877L105.26 18.8892L104.221 19.4877L105.26 20.0809Z" fill="#194FA0"/>
<path d="M103.186 21.2733L104.22 20.68L103.186 20.0815L102.151 20.68L103.186 21.2733Z" fill="#194FA0"/>
<path d="M101.112 22.4638L102.152 21.8705L101.112 21.272L100.078 21.8705L101.112 22.4638Z" fill="#132D54"/>
<path d="M99.0439 23.6561L100.078 23.0629L99.0439 22.4644L98.0045 23.0629L99.0439 23.6561Z" fill="#132D54"/>
<path d="M117.696 15.3207L118.73 14.7274L117.696 14.1289L116.656 14.7274L117.696 15.3207Z" fill="#132D54"/>
<path d="M115.623 16.5111L116.657 15.9178L115.623 15.3193L114.589 15.9178L115.623 16.5111Z" fill="#132D54"/>
<path d="M113.554 17.7035L114.588 17.1102L113.554 16.5117L112.515 17.1102L113.554 17.7035Z" fill="#132D54"/>
<path d="M111.48 18.8959L112.515 18.3026L111.48 17.7041L110.446 18.3026L111.48 18.8959Z" fill="#132D54"/>
<path d="M109.407 20.0883L110.446 19.4898L109.407 18.8965L108.373 19.495L109.407 20.0883Z" fill="#132D54"/>
<path d="M107.339 21.2767L108.373 20.6783L107.339 20.085L106.299 20.6783L107.339 21.2767Z" fill="#132D54"/>
<path d="M105.265 22.4696L106.299 21.8711L105.265 21.2778L104.231 21.8711L105.265 22.4696Z" fill="#132D54"/>
<path d="M103.192 23.662L104.231 23.0635L103.192 22.4702L102.157 23.0635L103.192 23.662Z" fill="#132D54"/>
<path d="M101.123 24.8544L102.157 24.2611L101.123 23.6626L100.089 24.2611L101.123 24.8544Z" fill="#132D54"/>
<path d="M119.775 16.5165L120.81 15.9232L119.775 15.3247L118.741 15.9232L119.775 16.5165Z" fill="#194FA0"/>
<path d="M117.701 17.7089L118.74 17.1104L117.701 16.5171L116.667 17.1104L117.701 17.7089Z" fill="#194FA0"/>
<path d="M115.633 18.9013L116.667 18.3028L115.633 17.7095L114.599 18.3028L115.633 18.9013Z" fill="#194FA0"/>
<path d="M113.56 20.0941L114.6 19.4956L113.56 18.9023L112.526 19.4956L113.56 20.0941Z" fill="#194FA0"/>
<path d="M111.486 21.2846L112.526 20.6861L111.486 20.0928L110.452 20.6861L111.486 21.2846Z" fill="#194FA0"/>
<path d="M109.417 22.475L110.451 21.8765L109.417 21.2832L108.383 21.8765L109.417 22.475Z" fill="#194FA0"/>
<path d="M107.343 23.6674L108.383 23.0689L107.343 22.4756L106.309 23.0689L107.343 23.6674Z" fill="#194FA0"/>
<path d="M105.275 24.8598L106.31 24.2613L105.275 23.668L104.236 24.2613L105.275 24.8598Z" fill="#194FA0"/>
<path d="M103.203 26.0502L104.237 25.4517L103.203 24.8584L102.168 25.4517L103.203 26.0502Z" fill="#194FA0"/>
<path d="M121.854 17.7147L122.889 17.1162L121.854 16.5229L120.82 17.1162L121.854 17.7147Z" fill="#194FA0"/>
<path d="M119.785 18.9071L120.819 18.3086L119.785 17.7153L118.746 18.3086L119.785 18.9071Z" fill="#194FA0"/>
<path d="M117.713 20.0976L118.747 19.4991L117.713 18.9058L116.679 19.4991L117.713 20.0976Z" fill="#194FA0"/>
<path d="M115.638 21.2899L116.678 20.6914L115.638 20.0981L114.604 20.6914L115.638 21.2899Z" fill="#132D54"/>
<path d="M113.57 22.4823L114.604 21.8838L113.57 21.2905L112.53 21.8838L113.57 22.4823Z" fill="#132D54"/>
<path d="M111.495 23.6732L112.529 23.0747L111.495 22.4814L110.461 23.0747L111.495 23.6732Z" fill="#132D54"/>
<path d="M109.422 24.8656L110.461 24.2671L109.422 23.6738L108.388 24.2671L109.422 24.8656Z" fill="#132D54"/>
<path d="M107.354 26.056L108.389 25.4575L107.354 24.8643L106.32 25.4575L107.354 26.056Z" fill="#132D54"/>
<path d="M105.281 27.2484L106.32 26.6499L105.281 26.0566L104.247 26.6499L105.281 27.2484Z" fill="#132D54"/>
<path d="M123.932 18.9105L124.972 18.312L123.932 17.7188L122.898 18.312L123.932 18.9105Z" fill="#132D54"/>
<path d="M121.865 20.1015L122.899 19.503L121.865 18.9097L120.825 19.503L121.865 20.1015Z" fill="#132D54"/>
<path d="M119.791 21.2938L120.825 20.6953L119.791 20.1021L118.757 20.6953L119.791 21.2938Z" fill="#132D54"/>
<path d="M117.722 22.4882L118.756 21.8897L117.722 21.2964L116.683 21.8897L117.722 22.4882Z" fill="#132D54"/>
<path d="M115.648 23.6806L116.683 23.0821L115.648 22.4888L114.614 23.0821L115.648 23.6806Z" fill="#132D54"/>
<path d="M113.575 24.869L114.614 24.2705L113.575 23.6772L112.541 24.2705L113.575 24.869Z" fill="#132D54"/>
<path d="M111.507 26.0614L112.542 25.4629L111.507 24.8696L110.468 25.4629L111.507 26.0614Z" fill="#132D54"/>
<path d="M109.433 27.2538L110.467 26.6553L109.433 26.062L108.398 26.6553L109.433 27.2538Z" fill="#132D54"/>
<path d="M107.365 28.4462L108.399 27.8477L107.365 27.2544L106.325 27.8477L107.365 28.4462Z" fill="#132D54"/>
<path d="M126.018 20.1068L127.052 19.5083L126.018 18.915L124.978 19.5083L126.018 20.1068Z" fill="#132D54"/>
<path d="M123.943 21.2992L124.978 20.7007L123.943 20.1074L122.909 20.7007L123.943 21.2992Z" fill="#132D54"/>
<path d="M121.87 22.4916L122.909 21.8931L121.87 21.2998L120.836 21.8931L121.87 22.4916Z" fill="#132D54"/>
<path d="M119.801 23.684L120.835 23.0855L119.801 22.4922L118.762 23.0855L119.801 23.684Z" fill="#132D54"/>
<path d="M117.728 24.8749L118.762 24.2764L117.728 23.6831L116.693 24.2764L117.728 24.8749Z" fill="#132D54"/>
<path d="M115.659 26.0653L116.693 25.4668L115.659 24.8735L114.619 25.4668L115.659 26.0653Z" fill="#132D54"/>
<path d="M113.586 27.2577L114.62 26.6592L113.586 26.0659L112.552 26.6592L113.586 27.2577Z" fill="#132D54"/>
<path d="M111.511 28.452L112.551 27.8535L111.511 27.2603L110.477 27.8535L111.511 28.452Z" fill="#132D54"/>
<path d="M109.444 29.6425L110.478 29.044L109.444 28.4507L108.404 29.044L109.444 29.6425Z" fill="#132D54"/>
<path d="M70.5978 72.3354L104.019 53.1074L70.5978 33.8848L37.1771 53.1074L70.5978 72.3354Z" fill="#CCDDF2"/>
<path style="mix-blend-mode:multiply" d="M70.5976 70.6014L101.011 53.1063L70.5976 35.6113L40.1899 53.1063L70.5976 70.6014Z" fill="url(#paint3_linear_195_475)"/>
<path d="M70.5978 146.134L104.019 126.906L70.5978 107.684L37.1771 126.912L70.5978 146.134Z" fill="white"/>
<path d="M37.1769 53.1074V126.911L70.5977 146.133V72.3354L37.1769 53.1074Z" fill="#213F75"/>
<path d="M104.019 53.1074V126.905L70.5978 146.133V72.3354L104.019 53.1074Z" fill="#3D5583"/>
<path d="M101.755 58.0029V124.336L72.8616 140.962V74.6288L101.755 58.0029Z" fill="#5689BF"/>
<path d="M42.1912 70.9399V72.8915L65.583 86.3501V84.3985L42.1912 70.9399Z" fill="#132D54"/>
<path d="M42.1912 79.188V81.1396L65.583 94.5981V92.6465L42.1912 79.188Z" fill="#132D54"/>
<path d="M42.1912 87.4355V89.3871L65.583 102.84V100.894L42.1912 87.4355Z" fill="#132D54"/>
<path d="M42.1912 95.6855V97.6318L65.583 111.09V109.139L42.1912 95.6855Z" fill="#132D54"/>
<path d="M42.1912 103.927V105.879L65.583 119.337V117.386L42.1912 103.927Z" fill="#132D54"/>
<path d="M42.1912 112.179V114.131L65.583 127.589V125.638L42.1912 112.179Z" fill="#132D54"/>
<path d="M70.5978 71.7112L103.478 52.7979L104.019 53.1071L70.5978 72.3351L37.1771 53.1071L37.723 52.7979L70.5978 71.7112Z" fill="white"/>
<g style="mix-blend-mode:multiply">
<path style="mix-blend-mode:multiply" d="M104.019 115.243L70.5983 95.1403V72.3344L104.019 53.1064V115.243Z" fill="url(#paint4_linear_195_475)"/>
</g>
<path d="M70.5978 57.9707L104.019 38.7427L70.5978 19.52L37.1771 38.748L70.5978 57.9707Z" fill="#E4EDF8"/>
<path d="M70.5988 52.7249L94.895 38.7438L70.5988 24.7734L46.3025 38.7492L70.5988 52.7249Z" fill="#D7E6EF"/>
<path d="M70.5988 25.7172L47.1267 39.2184L46.3025 38.7492L70.5988 24.7734L94.895 38.7438L94.0709 39.2184L70.5988 25.7172Z" fill="white"/>
<path d="M37.1769 38.749V49.6427L70.5977 68.8707V57.9717L37.1769 38.749Z" fill="#CCDDF2"/>
<path d="M104.019 38.7427V49.6417L70.5978 68.8697V57.9707L104.019 38.7427Z" fill="url(#paint5_linear_195_475)"/>
<path d="M101.755 43.6426V47.0712L72.8616 63.6917V60.2631L101.755 43.6426Z" fill="#9AB3D1"/>
<path d="M70.5978 57.3465L103.478 38.4331L104.019 38.7424L70.5978 57.9704L37.1771 38.7477L37.723 38.4331L70.5978 57.3465Z" fill="white"/>
<path d="M42.1912 46.3838V48.3354L65.583 61.7886V59.8423L42.1912 46.3838Z" fill="#132D54"/>
<path d="M80.3546 57.398L86.4072 53.916V54.6305L80.3546 58.1125V57.398Z" fill="#132D54"/>
<path d="M87.278 53.4174L88.9209 52.4736V53.1935L87.278 54.1373V53.4174Z" fill="#132D54"/>
<path d="M94.9644 48.9942L98.3198 47.064V47.7838L94.9644 49.7141V48.9942Z" fill="#132D54"/>
<path d="M91.8965 50.7623L94.3262 49.3652V50.0851L91.9019 51.4821L91.8965 50.7623Z" fill="#132D54"/>
<path d="M89.6217 52.0673L91.2646 51.1235V51.8434L89.6217 52.7872V52.0673Z" fill="#132D54"/>
<path d="M70.5659 29.5658L71.6255 28.9579L70.5659 28.3447L69.5063 28.9579L70.5659 29.5658Z" fill="#194FA0"/>
<path d="M68.4419 30.7923L69.5068 30.1791L68.4419 29.5659L67.3823 30.1791L68.4419 30.7923Z" fill="#194FA0"/>
<path d="M66.3217 32.0072L67.3813 31.3994L66.3217 30.7915L65.2568 31.3994L66.3217 32.0072Z" fill="#194FA0"/>
<path d="M64.1972 33.2299L65.2568 32.622L64.1972 32.0088L63.1376 32.622L64.1972 33.2299Z" fill="#194FA0"/>
<path d="M62.0718 34.4511L63.1367 33.8432L62.0718 33.23L61.0121 33.8432L62.0718 34.4511Z" fill="#194FA0"/>
<path d="M59.9545 35.6723L61.0142 35.0644L59.9545 34.4512L58.8949 35.0644L59.9545 35.6723Z" fill="#194FA0"/>
<path d="M57.8286 36.8934L58.8936 36.2856L57.8286 35.6724L56.769 36.2856L57.8286 36.8934Z" fill="#194FA0"/>
<path d="M55.7094 38.1127L56.769 37.5048L55.7094 36.8916L54.6445 37.5048L55.7094 38.1127Z" fill="#194FA0"/>
<path d="M53.5839 39.3339L54.6436 38.726L53.5839 38.1128L52.5243 38.726L53.5839 39.3339Z" fill="#194FA0"/>
<path d="M72.6958 30.7933L73.7554 30.1855L72.6958 29.5723L71.6361 30.1855L72.6958 30.7933Z" fill="#132D54"/>
<path d="M70.5761 32.0126L71.6357 31.4047L70.5761 30.7915L69.5112 31.4047L70.5761 32.0126Z" fill="#132D54"/>
<path d="M68.4506 33.2362L69.5103 32.6283L68.4506 32.0151L67.391 32.6283L68.4506 33.2362Z" fill="#132D54"/>
<path d="M66.3281 34.4574L67.3931 33.8495L66.3281 33.2363L65.2685 33.8495L66.3281 34.4574Z" fill="#132D54"/>
<path d="M64.2089 35.6786L65.2686 35.0707L64.2089 34.4575L63.144 35.0707L64.2089 35.6786Z" fill="#132D54"/>
<path d="M62.0839 36.8978L63.1436 36.29L62.0839 35.6768L61.0243 36.29L62.0839 36.8978Z" fill="#132D54"/>
<path d="M59.9585 38.119L61.0234 37.5112L59.9585 36.8979L58.8989 37.5112L59.9585 38.119Z" fill="#132D54"/>
<path d="M57.8403 39.3402L58.8999 38.7323L57.8403 38.1191L56.7807 38.7323L57.8403 39.3402Z" fill="#132D54"/>
<path d="M55.7153 40.5614L56.7803 39.9535L55.7153 39.3403L54.6557 39.9535L55.7153 40.5614Z" fill="#132D54"/>
<path d="M74.8257 32.017L75.8906 31.4091L74.8257 30.7959L73.766 31.4091L74.8257 32.017Z" fill="#194FA0"/>
<path d="M72.707 33.2382L73.7666 32.6303L72.707 32.0171L71.642 32.6303L72.707 33.2382Z" fill="#194FA0"/>
<path d="M70.5815 34.4613L71.6411 33.8534L70.5815 33.2402L69.5219 33.8534L70.5815 34.4613Z" fill="#194FA0"/>
<path d="M68.457 35.683L69.522 35.0751L68.457 34.4619L67.3974 35.0751L68.457 35.683Z" fill="#194FA0"/>
<path d="M66.3378 36.9017L67.3975 36.2939L66.3378 35.6807L65.2782 36.2939L66.3378 36.9017Z" fill="#194FA0"/>
<path d="M64.2138 38.1234L65.2788 37.5156L64.2138 36.9023L63.1542 37.5156L64.2138 38.1234Z" fill="#194FA0"/>
<path d="M62.0947 39.3466L63.1543 38.7387L62.0947 38.1255L61.0297 38.7387L62.0947 39.3466Z" fill="#194FA0"/>
<path d="M59.9692 40.5678L61.0288 39.9599L59.9692 39.3467L58.9096 39.9599L59.9692 40.5678Z" fill="#194FA0"/>
<path d="M57.8442 41.787L58.9092 41.1791L57.8442 40.5659L56.7846 41.1791L57.8442 41.787Z" fill="#194FA0"/>
<path d="M76.9555 33.2445L78.0205 32.6366L76.9555 32.0234L75.8959 32.6366L76.9555 33.2445Z" fill="#194FA0"/>
<path d="M74.8349 34.4657L75.8945 33.8578L74.8349 33.2446L73.7753 33.8578L74.8349 34.4657Z" fill="#194FA0"/>
<path d="M72.7114 35.6869L73.7764 35.079L72.7114 34.4658L71.6518 35.079L72.7114 35.6869Z" fill="#194FA0"/>
<path d="M70.5932 36.9081L71.6528 36.3002L70.5932 35.687L69.5282 36.3002L70.5932 36.9081Z" fill="#194FA0"/>
<path d="M68.4687 38.1298L69.5283 37.5219L68.4687 36.9087L67.4091 37.5219L68.4687 38.1298Z" fill="#194FA0"/>
<path d="M66.3491 39.3485L67.4087 38.7406L66.3491 38.1274L65.2841 38.7406L66.3491 39.3485Z" fill="#194FA0"/>
<path d="M64.2236 40.5722L65.2832 39.9643L64.2236 39.3511L63.164 39.9643L64.2236 40.5722Z" fill="#194FA0"/>
<path d="M62.0991 41.7914L63.1641 41.1835L62.0991 40.5703L61.0395 41.1835L62.0991 41.7914Z" fill="#132D54"/>
<path d="M59.9794 43.0126L61.0391 42.4047L59.9794 41.7915L58.9145 42.4047L59.9794 43.0126Z" fill="#132D54"/>
<path d="M79.0908 34.4721L80.1504 33.8642L79.0908 33.251L78.0258 33.8642L79.0908 34.4721Z" fill="#132D54"/>
<path d="M76.9667 35.6913L78.0264 35.0834L76.9667 34.4702L75.9071 35.0834L76.9667 35.6913Z" fill="#132D54"/>
<path d="M74.8466 36.9144L75.9062 36.3066L74.8466 35.6934L73.7817 36.3066L74.8466 36.9144Z" fill="#132D54"/>
<path d="M72.7221 38.1361L73.7817 37.5282L72.7221 36.915L71.6625 37.5282L72.7221 38.1361Z" fill="#132D54"/>
<path d="M70.5981 39.3573L71.6631 38.7441L70.5981 38.1362L69.5385 38.7494L70.5981 39.3573Z" fill="#132D54"/>
<path d="M68.479 40.5741L69.5386 39.9609L68.479 39.353L67.414 39.9609L68.479 40.5741Z" fill="#132D54"/>
<path d="M66.3545 41.7977L67.4141 41.1845L66.3545 40.5767L65.2948 41.1845L66.3545 41.7977Z" fill="#132D54"/>
<path d="M64.23 43.0189L65.2949 42.4057L64.23 41.7979L63.1703 42.4057L64.23 43.0189Z" fill="#132D54"/>
<path d="M62.1103 44.2401L63.1699 43.6322L62.1103 43.019L61.0507 43.6322L62.1103 44.2401Z" fill="#132D54"/>
<path d="M81.2207 35.6976L82.2803 35.0898L81.2207 34.4766L80.161 35.0898L81.2207 35.6976Z" fill="#194FA0"/>
<path d="M79.0957 36.9188L80.1606 36.3056L79.0957 35.6978L78.0361 36.3056L79.0957 36.9188Z" fill="#194FA0"/>
<path d="M76.9775 38.142L78.0371 37.5288L76.9775 36.9209L75.9179 37.5288L76.9775 38.142Z" fill="#194FA0"/>
<path d="M74.853 39.3637L75.918 38.7505L74.853 38.1426L73.7934 38.7505L74.853 39.3637Z" fill="#194FA0"/>
<path d="M72.728 40.5824L73.793 39.9692L72.728 39.3613L71.6684 39.9692L72.728 40.5824Z" fill="#194FA0"/>
<path d="M70.6079 41.8017L71.6675 41.1884L70.6079 40.5806L69.5483 41.1884L70.6079 41.8017Z" fill="#194FA0"/>
<path d="M68.4843 43.0253L69.5493 42.4121L68.4843 41.8042L67.4247 42.4121L68.4843 43.0253Z" fill="#194FA0"/>
<path d="M66.3652 44.2465L67.4248 43.6333L66.3652 43.0254L65.3002 43.6333L66.3652 44.2465Z" fill="#194FA0"/>
<path d="M64.2402 45.4657L65.2998 44.8525L64.2402 44.2446L63.1806 44.8525L64.2402 45.4657Z" fill="#194FA0"/>
<path d="M83.3515 36.9252L84.4111 36.312L83.3515 35.7041L82.2919 36.312L83.3515 36.9252Z" fill="#194FA0"/>
<path d="M81.2309 38.1464L82.2905 37.5332L81.2309 36.9253L80.1659 37.5332L81.2309 38.1464Z" fill="#194FA0"/>
<path d="M79.1074 39.3676L80.167 38.7544L79.1074 38.1465L78.0478 38.7544L79.1074 39.3676Z" fill="#194FA0"/>
<path d="M76.9829 40.5888L78.0479 39.9755L76.9829 39.3677L75.9233 39.9755L76.9829 40.5888Z" fill="#132D54"/>
<path d="M74.8632 41.8104L75.9229 41.1972L74.8632 40.5894L73.7983 41.1972L74.8632 41.8104Z" fill="#132D54"/>
<path d="M72.7377 43.0292L73.7974 42.416L72.7377 41.8081L71.6781 42.416L72.7377 43.0292Z" fill="#132D54"/>
<path d="M70.6128 44.2509L71.6777 43.6377L70.6128 43.0298L69.5532 43.6377L70.6128 44.2509Z" fill="#132D54"/>
<path d="M68.4951 45.4721L69.5547 44.8588L68.4951 44.251L67.4355 44.8588L68.4951 45.4721Z" fill="#132D54"/>
<path d="M66.3701 46.6932L67.4351 46.08L66.3701 45.4722L65.3105 46.08L66.3701 46.6932Z" fill="#132D54"/>
<path d="M85.4799 38.1508L86.5449 37.5376L85.4799 36.9297L84.4203 37.5376L85.4799 38.1508Z" fill="#132D54"/>
<path d="M83.3618 39.3695L84.4214 38.7563L83.3618 38.1484L82.2968 38.7563L83.3618 39.3695Z" fill="#132D54"/>
<path d="M81.2373 40.5931L82.2969 39.9799L81.2373 39.3721L80.1776 39.9799L81.2373 40.5931Z" fill="#132D54"/>
<path d="M79.1167 41.8168L80.1763 41.2036L79.1167 40.5957L78.0517 41.2036L79.1167 41.8168Z" fill="#132D54"/>
<path d="M76.9921 43.038L78.0518 42.4248L76.9921 41.8169L75.9325 42.4248L76.9921 43.038Z" fill="#132D54"/>
<path d="M74.8686 44.2548L75.9336 43.6416L74.8686 43.0337L73.809 43.6416L74.8686 44.2548Z" fill="#132D54"/>
<path d="M72.7504 45.476L73.8101 44.8628L72.7504 44.2549L71.6855 44.8628L72.7504 45.476Z" fill="#132D54"/>
<path d="M70.625 46.6996L71.6846 46.0864L70.625 45.4785L69.5653 46.0864L70.625 46.6996Z" fill="#132D54"/>
<path d="M68.5053 47.9208L69.5649 47.3076L68.5053 46.6997L67.4404 47.3076L68.5053 47.9208Z" fill="#132D54"/>
<path d="M87.6171 39.3759L88.6768 38.7627L87.6171 38.1548L86.5522 38.7627L87.6171 39.3759Z" fill="#132D54"/>
<path d="M85.4907 40.5975L86.5503 39.9843L85.4907 39.3765L84.4311 39.9843L85.4907 40.5975Z" fill="#132D54"/>
<path d="M83.3672 41.8187L84.4321 41.2055L83.3672 40.5977L82.3075 41.2055L83.3672 41.8187Z" fill="#132D54"/>
<path d="M81.248 43.0419L82.3076 42.4287L81.248 41.8208L80.183 42.4287L81.248 43.0419Z" fill="#132D54"/>
<path d="M79.123 44.2611L80.1826 43.6479L79.123 43.04L78.0634 43.6479L79.123 44.2611Z" fill="#132D54"/>
<path d="M77.0029 45.4804L78.0625 44.8671L77.0029 44.2593L75.9379 44.8671L77.0029 45.4804Z" fill="#132D54"/>
<path d="M74.8793 46.7035L75.939 46.0903L74.8793 45.4824L73.8197 46.0903L74.8793 46.7035Z" fill="#132D54"/>
<path d="M72.7544 47.9271L73.8193 47.3139L72.7544 46.7061L71.6948 47.3139L72.7544 47.9271Z" fill="#132D54"/>
<path d="M70.6352 49.1464L71.6948 48.5332L70.6352 47.9253L69.5702 48.5332L70.6352 49.1464Z" fill="#132D54"/>
<path d="M96.4048 109.254L78.2407 119.571V95.1514L96.4048 84.8394V109.254Z" fill="#BCBEFF"/>
<path d="M95.3946 85.4131V108.793L78.2407 118.537V119.571L96.4048 109.254V84.8394L95.3946 85.4131Z" fill="#8FAFD6"/>
<path d="M107.347 115.555L106.373 116.068L96.5987 110.515C96.4976 110.468 96.3867 110.446 96.2752 110.451C96.1638 110.455 96.0551 110.486 95.9581 110.54L79.1271 120.099C78.9657 120.007 78.2314 119.664 78.2314 119.664L78.5855 120.576C78.6049 120.622 78.6399 120.66 78.6846 120.683L88.9644 126.518C89.0625 126.568 89.1714 126.594 89.282 126.594C89.3926 126.594 89.5016 126.568 89.5997 126.518L106.826 116.739C106.89 116.706 106.94 116.651 106.967 116.585V116.585L107.347 115.555Z" fill="#1D4A90"/>
<path d="M107.196 115.713L89.542 125.739C89.4423 125.793 89.331 125.824 89.217 125.828C89.1031 125.833 88.9896 125.811 88.8858 125.764L78.3717 119.781C78.1999 119.689 78.2208 119.52 78.4186 119.412L96.0672 109.387C96.1666 109.332 96.2777 109.301 96.3916 109.295C96.5055 109.29 96.619 109.311 96.7233 109.356L107.258 115.339C107.409 115.437 107.389 115.601 107.196 115.713Z" fill="#CCDDF2"/>
<path d="M84.2134 123.565V123.376C84.2134 123.376 84.2134 123.35 84.2395 123.376L84.9217 123.76C84.9299 123.766 84.9366 123.773 84.9411 123.782C84.9457 123.791 84.9478 123.801 84.9476 123.811V124.001C84.9476 124.001 84.9477 124.001 84.9217 124.001L84.2395 123.616C84.2312 123.611 84.2245 123.603 84.22 123.594C84.2155 123.585 84.2132 123.575 84.2134 123.565Z" fill="#5689BF"/>
<path d="M85.2358 124.15V123.971C85.2358 123.971 85.2359 123.971 85.2619 123.971L85.9441 124.36C85.9527 124.364 85.9598 124.371 85.9645 124.379C85.9691 124.387 85.9712 124.397 85.9702 124.406V124.596C85.9702 124.596 85.9702 124.621 85.9441 124.596L85.2619 124.206C85.2461 124.192 85.2367 124.171 85.2358 124.15V124.15Z" fill="#5689BF"/>
<path d="M81.0998 119.223L95.7696 110.888C95.8179 110.861 95.8728 110.846 95.9285 110.846C95.9843 110.846 96.039 110.861 96.0873 110.888L101.295 113.864C101.311 113.875 101.324 113.889 101.333 113.905C101.343 113.922 101.347 113.94 101.347 113.959C101.347 113.978 101.343 113.997 101.333 114.013C101.324 114.03 101.311 114.044 101.295 114.054L86.6303 122.383C86.5821 122.411 86.5272 122.425 86.4714 122.425C86.4157 122.425 86.3609 122.411 86.3126 122.383L81.105 119.412C81.0886 119.403 81.075 119.389 81.0654 119.373C81.0557 119.356 81.0504 119.338 81.0498 119.319C81.0493 119.3 81.0536 119.281 81.0623 119.265C81.071 119.248 81.084 119.233 81.0998 119.223Z" fill="url(#paint6_linear_195_475)"/>
<path d="M81.1006 119.412L81.1527 119.443L95.7703 111.139C95.8194 111.114 95.874 111.101 95.9293 111.101C95.9846 111.101 96.039 111.114 96.0881 111.139L101.259 114.085L101.311 114.054C101.327 114.044 101.341 114.03 101.35 114.013C101.359 113.997 101.364 113.978 101.364 113.959C101.364 113.94 101.359 113.922 101.35 113.905C101.341 113.889 101.327 113.875 101.311 113.864L96.1037 110.888C96.0554 110.861 96.0007 110.846 95.9449 110.846C95.8891 110.846 95.8343 110.861 95.786 110.888L81.1162 119.223C81.0992 119.232 81.0846 119.245 81.074 119.26C81.0634 119.276 81.0571 119.294 81.0556 119.313C81.054 119.332 81.0572 119.351 81.0651 119.368C81.073 119.386 81.0852 119.401 81.1006 119.412Z" fill="#5689BF"/>
<path d="M96.5051 111.62L83.7621 118.858L83.1997 118.535L95.9375 111.297L96.5051 111.62Z" fill="#5689BF"/>
<path d="M97.8951 112.409L85.9436 119.197L85.376 118.879L97.3274 112.086L97.8951 112.409Z" fill="#5689BF"/>
<path d="M98.8017 112.922L84.7255 120.919L84.1631 120.596L98.234 112.604L98.8017 112.922Z" fill="#5689BF"/>
<path d="M99.7068 113.439L85.6306 121.43L85.063 121.108L99.1391 113.116L99.7068 113.439Z" fill="#5689BF"/>
<path d="M100.608 113.951L86.5374 121.942L85.9697 121.625L100.046 113.628L100.608 113.951Z" fill="#5689BF"/>
<path d="M82.9904 119.294L82.428 119.616L81.8604 119.294L82.428 118.976L82.9904 119.294Z" fill="#5689BF"/>
<path d="M84.9692 119.759L83.7922 120.43L83.2246 120.107L84.4015 119.441L84.9692 119.759Z" fill="#5689BF"/>
<path d="M96.3325 121.234L100.29 118.99C100.323 118.978 100.352 118.956 100.372 118.928C100.392 118.9 100.403 118.866 100.403 118.831C100.403 118.796 100.392 118.763 100.372 118.734C100.352 118.706 100.323 118.684 100.29 118.672L97.5875 117.135C97.5002 117.093 97.404 117.07 97.3064 117.07C97.2088 117.07 97.1125 117.093 97.0252 117.135L93.0674 119.379C92.9163 119.472 92.9163 119.61 93.0674 119.697L95.7753 121.234C95.8617 121.276 95.9572 121.299 96.054 121.299C96.1507 121.299 96.2461 121.276 96.3325 121.234V121.234Z" fill="url(#paint7_linear_195_475)"/>
<path d="M93.0676 119.512L97.0254 117.264C97.1128 117.221 97.2091 117.198 97.3067 117.198C97.4043 117.198 97.5004 117.221 97.5878 117.264L100.291 118.8C100.331 118.823 100.365 118.855 100.39 118.893C100.426 118.816 100.39 118.734 100.291 118.672L97.5878 117.135C97.5004 117.093 97.4043 117.07 97.3067 117.07C97.2091 117.07 97.1128 117.093 97.0254 117.135L93.0676 119.379C92.9635 119.441 92.9323 119.528 92.9739 119.605C92.9938 119.564 93.0268 119.532 93.0676 119.512V119.512Z" fill="#5689BF"/>
<path d="M95.3946 85.4121L78.2407 95.1504V118.536L95.3946 108.792V85.4121Z" fill="#24126A"/>
<path d="M95.3946 85.4121L78.2407 95.1504V118.536L95.3946 108.792V85.4121Z" fill="#1D396E"/>
<g opacity="0.51">
<path opacity="0.51" d="M94.9046 108.613V86.2988L78.709 95.4992V117.809L94.9046 108.613Z" fill="#1D4A90"/>
</g>
<g opacity="0.5">
<g opacity="0.11">
<path opacity="0.3" d="M96.0771 109.354L78.5067 119.334C78.4071 119.385 78.2962 119.412 78.1837 119.412C78.0712 119.412 77.9605 119.385 77.8609 119.334L67.3727 113.381C67.2061 113.289 67.227 113.12 67.4197 113.012L84.9901 103.033C85.0894 102.98 85.1997 102.95 85.3125 102.946C85.4254 102.941 85.5378 102.963 85.6411 103.007L96.124 108.96C96.3115 109.083 96.2906 109.247 96.0771 109.354Z" fill="#42B7E5"/>
<path opacity="0.11" d="M78.4757 111.167L82.4127 108.929C82.4458 108.917 82.4744 108.895 82.4946 108.867C82.5148 108.838 82.5256 108.805 82.5256 108.77C82.5256 108.735 82.5148 108.701 82.4946 108.673C82.4744 108.645 82.4458 108.623 82.4127 108.611L79.7204 107.074C79.634 107.032 79.5385 107.009 79.4417 107.009C79.345 107.009 79.2496 107.032 79.1632 107.074L75.2262 109.308C75.1931 109.32 75.1645 109.341 75.1443 109.37C75.1241 109.398 75.1133 109.432 75.1133 109.467C75.1133 109.501 75.1241 109.535 75.1443 109.564C75.1645 109.592 75.1931 109.614 75.2262 109.625L77.9185 111.162C78.0045 111.206 78.0998 111.229 78.1965 111.23C78.2933 111.231 78.3889 111.209 78.4757 111.167V111.167Z" fill="url(#paint8_linear_195_475)"/>
<path opacity="0.11" d="M75.2468 109.432L79.1838 107.193C79.2702 107.15 79.3656 107.128 79.4624 107.128C79.5591 107.128 79.6545 107.15 79.7409 107.193L82.4333 108.73C82.4745 108.751 82.5088 108.783 82.5322 108.822C82.5739 108.745 82.5323 108.658 82.4333 108.596L79.7409 107.06C79.6545 107.017 79.5591 106.995 79.4624 106.995C79.3656 106.995 79.2702 107.017 79.1838 107.06L75.2468 109.293C75.1427 109.355 75.1115 109.442 75.1531 109.519C75.1739 109.48 75.2068 109.45 75.2468 109.432V109.432Z" fill="#9198DB"/>
<path opacity="0.11" d="M73.4968 114.642L88.0781 106.348C88.1255 106.321 88.1794 106.306 88.2344 106.306C88.2893 106.306 88.3433 106.321 88.3906 106.348L93.5982 109.309C93.6157 109.318 93.6302 109.332 93.6403 109.349C93.6505 109.365 93.6558 109.384 93.6558 109.404C93.6558 109.423 93.6505 109.442 93.6403 109.459C93.6302 109.476 93.6157 109.489 93.5982 109.499L79.017 117.787C78.9696 117.815 78.9157 117.829 78.8607 117.829C78.8057 117.829 78.7518 117.815 78.7044 117.787L73.4968 114.831C73.4807 114.821 73.4675 114.807 73.4583 114.791C73.4491 114.774 73.4443 114.756 73.4443 114.737C73.4443 114.718 73.4491 114.699 73.4583 114.683C73.4675 114.666 73.4807 114.652 73.4968 114.642V114.642Z" fill="#ADB1F2"/>
<path opacity="0.11" d="M73.4963 114.831L73.5484 114.862L88.0985 106.599C88.1458 106.572 88.1998 106.557 88.2547 106.557C88.3097 106.557 88.3636 106.572 88.411 106.599L93.556 109.529L93.6081 109.499C93.6256 109.489 93.6401 109.476 93.6502 109.459C93.6604 109.442 93.6657 109.423 93.6657 109.404C93.6657 109.384 93.6604 109.365 93.6502 109.349C93.6401 109.332 93.6256 109.318 93.6081 109.309L88.4005 106.348C88.3532 106.321 88.2992 106.306 88.2443 106.306C88.1893 106.306 88.1354 106.321 88.088 106.348L73.5067 114.642C73.49 114.651 73.4761 114.664 73.4659 114.68C73.4558 114.697 73.4499 114.715 73.4489 114.734C73.4479 114.753 73.4517 114.771 73.46 114.789C73.4683 114.806 73.4807 114.82 73.4963 114.831V114.831Z" fill="#9198DB"/>
<path opacity="0.11" d="M92.2554 109.108L79.5332 116.331L80.0383 116.618L92.7553 109.395L92.2554 109.108Z" fill="#24126A"/>
<path opacity="0.11" d="M90.9111 108.346L78.8242 115.216L79.3241 115.498L91.4162 108.633L90.9111 108.346Z" fill="#24126A"/>
<path opacity="0.11" d="M77.9172 115.727L76.7871 116.367L77.2922 116.654L78.4223 116.008L77.9172 115.727Z" fill="#24126A"/>
<path opacity="0.11" d="M78.9182 116.681L78.1318 117.126L78.637 117.413L79.4181 116.968L78.9182 116.681Z" fill="#24126A"/>
<path opacity="0.11" d="M90.0732 107.868L75.9502 115.89L76.4553 116.177L90.5784 108.155L90.0732 107.868Z" fill="#24126A"/>
<path opacity="0.11" d="M89.2353 107.393L75.1123 115.415L75.6174 115.697L89.7353 107.679L89.2353 107.393Z" fill="#24126A"/>
<path opacity="0.11" d="M88.3908 106.917L74.2729 114.939L74.7729 115.22L88.8959 107.203L88.3908 106.917Z" fill="#24126A"/>
</g>
</g>
<path d="M90.375 78.5473L96.779 74.8426L96.7803 73.4302L90.3763 77.1394L90.375 78.5473Z" fill="#42B7E5"/>
<path d="M87.0896 80.4443L89.3932 79.1112L89.3945 77.6987L87.0909 79.0364L87.0896 80.4443Z" fill="#42B7E5"/>
<path d="M84.5415 81.9194L86.112 81.0126L86.1133 79.6001L84.5428 80.507L84.5415 81.9194Z" fill="#42B7E5"/>
<path d="M93.2866 80.0896L96.776 78.0673L96.7773 76.6548L93.288 78.6772L93.2866 80.0896Z" fill="#42B7E5"/>
<path d="M88.0319 83.1246L92.3088 80.6488L92.3101 79.2363L88.0332 81.7121L88.0319 83.1246Z" fill="#42B7E5"/>
<path d="M85.485 84.5996L87.0509 83.6927L87.0522 82.2803L85.4863 83.1872L85.485 84.5996Z" fill="#42B7E5"/>
<path d="M83.0651 86L84.631 85.0931L84.6323 83.6807L83.0664 84.5876L83.0651 86Z" fill="#42B7E5"/>
<path d="M80.1833 84.4442L75.7389 87.0107L75.7403 85.5982L80.1846 83.0317L80.1833 84.4442Z" fill="#42B7E5"/>
<path d="M79.2306 88.2172L75.7367 90.235L75.738 88.8225L79.2319 86.8047L79.2306 88.2172Z" fill="#42B7E5"/>
<path d="M33.2716 97.1523L65.8906 78.3856L33.2716 59.624L0.65254 78.3856L33.2716 97.1523Z" fill="#CCDDF2"/>
<path style="mix-blend-mode:multiply" d="M33.2715 95.4612L62.9551 78.3859L33.2715 61.3105L3.59313 78.3859L33.2715 95.4612Z" fill="url(#paint9_linear_195_475)"/>
<path d="M33.2716 169.182L65.8906 150.415L33.2716 131.654L0.65254 150.421L33.2716 169.182Z" fill="white"/>
<path d="M0.651952 78.3862V150.419L33.271 169.181V97.153L0.651952 78.3862Z" fill="#213F75"/>
<path d="M65.8906 78.3862V150.414L33.2716 169.181V97.153L65.8906 78.3862Z" fill="#3D5583"/>
<path d="M63.6816 83.1631V147.905L35.4814 164.132V99.3901L63.6816 83.1631Z" fill="#5689BF"/>
<path d="M5.54623 95.79V97.6948L28.377 110.83V108.926L5.54623 95.79Z" fill="#132D54"/>
<path d="M5.54623 103.84V105.745L28.377 118.881V116.976L5.54623 103.84Z" fill="#132D54"/>
<path d="M5.54623 111.891V113.796L28.377 126.926V125.027L5.54623 111.891Z" fill="#132D54"/>
<path d="M5.54623 119.942V121.841L28.377 134.977V133.072L5.54623 119.942Z" fill="#132D54"/>
<path d="M5.54623 127.987V129.892L28.377 143.027V141.122L5.54623 127.987Z" fill="#132D54"/>
<path d="M5.54623 136.04V137.944L28.377 151.08V149.175L5.54623 136.04Z" fill="#132D54"/>
<path d="M33.2716 96.5442L65.3631 78.0845L65.8906 78.3863L33.2716 97.1531L0.65254 78.3863L1.18531 78.0845L33.2716 96.5442Z" fill="white"/>
<g style="mix-blend-mode:multiply">
<path style="mix-blend-mode:multiply" d="M65.8906 139.033L33.2716 119.412V97.1535L65.8906 78.3867V139.033Z" fill="url(#paint10_linear_195_475)"/>
</g>
<path d="M33.2716 83.1323L65.8906 64.3655L33.2716 45.604L0.65254 64.3708L33.2716 83.1323Z" fill="#E4EDF8"/>
<path d="M33.2719 78.0124L56.9854 64.3667L33.2719 50.7314L9.55848 64.3719L33.2719 78.0124Z" fill="#D7E6EF"/>
<path d="M33.2719 51.6526L10.3629 64.8299L9.55848 64.3719L33.2719 50.7314L56.9854 64.3667L56.181 64.8299L33.2719 51.6526Z" fill="white"/>
<path d="M0.651952 64.3716V75.004L33.271 93.7707V83.1331L0.651952 64.3716Z" fill="#CCDDF2"/>
<path d="M65.8906 64.3657V75.0033L33.2716 93.7701V83.1325L65.8906 64.3657Z" fill="url(#paint11_linear_195_475)"/>
<path d="M63.6816 69.147V72.4933L35.4814 88.7152V85.3688L63.6816 69.147Z" fill="#9AB3D1"/>
<path d="M33.2716 82.5237L65.3631 64.064L65.8906 64.3658L33.2716 83.1326L0.65254 64.371L1.18531 64.064L33.2716 82.5237Z" fill="white"/>
<path d="M5.54623 71.8242V73.729L28.377 86.8595V84.9599L5.54623 71.8242Z" fill="#132D54"/>
<path d="M42.7937 82.5727L48.7012 79.1743V79.8717L42.7937 83.2701V82.5727Z" fill="#132D54"/>
<path d="M49.5522 78.6887L51.1558 77.7676V78.4702L49.5522 79.3913V78.6887Z" fill="#132D54"/>
<path d="M57.0532 74.3713L60.3281 72.4873V73.1899L57.0532 75.0738V74.3713Z" fill="#132D54"/>
<path d="M54.0598 76.096L56.4312 74.7324V75.435L54.065 76.7985L54.0598 76.096Z" fill="#132D54"/>
<path d="M51.8389 77.3714L53.4424 76.4502V77.1528L51.8389 78.0739V77.3714Z" fill="#132D54"/>
<path d="M33.2402 55.4091L34.2744 54.8158L33.2402 54.2173L32.206 54.8158L33.2402 55.4091Z" fill="#194FA0"/>
<path d="M31.1666 56.6067L32.2061 56.0082L31.1666 55.4097L30.1324 56.0082L31.1666 56.6067Z" fill="#194FA0"/>
<path d="M29.0976 57.7925L30.1318 57.1992L29.0976 56.606L28.0582 57.1992L29.0976 57.7925Z" fill="#194FA0"/>
<path d="M27.0239 58.9848L28.0581 58.3915L27.0239 57.793L25.9897 58.3915L27.0239 58.9848Z" fill="#194FA0"/>
<path d="M24.9498 60.1771L25.9893 59.5838L24.9498 58.9854L23.9156 59.5838L24.9498 60.1771Z" fill="#194FA0"/>
<path d="M22.8828 61.3695L23.917 60.7762L22.8828 60.1777L21.8486 60.7762L22.8828 61.3695Z" fill="#194FA0"/>
<path d="M20.8087 62.56L21.8481 61.9667L20.8087 61.3682L19.7745 61.9667L20.8087 62.56Z" fill="#194FA0"/>
<path d="M18.7402 63.7504L19.7744 63.1571L18.7402 62.5586L17.7008 63.1571L18.7402 63.7504Z" fill="#194FA0"/>
<path d="M16.6655 64.9428L17.6997 64.3495L16.6655 63.751L15.6313 64.3495L16.6655 64.9428Z" fill="#194FA0"/>
<path d="M35.3183 56.6073L36.3525 56.014L35.3183 55.4155L34.2841 56.014L35.3183 56.6073Z" fill="#132D54"/>
<path d="M33.2505 57.7977L34.2847 57.2045L33.2505 56.606L32.211 57.2045L33.2505 57.7977Z" fill="#132D54"/>
<path d="M31.1758 58.9901L32.21 58.3968L31.1758 57.7983L30.1416 58.3968L31.1758 58.9901Z" fill="#132D54"/>
<path d="M29.1037 60.1825L30.1431 59.5892L29.1037 58.9907L28.0695 59.5892L29.1037 60.1825Z" fill="#132D54"/>
<path d="M27.0351 61.3749L28.0693 60.7816L27.0351 60.1831L25.9957 60.7816L27.0351 61.3749Z" fill="#132D54"/>
<path d="M24.9614 62.5653L25.9956 61.972L24.9614 61.3735L23.9272 61.972L24.9614 62.5653Z" fill="#132D54"/>
<path d="M22.8873 63.7562L23.9268 63.163L22.8873 62.5645L21.8532 63.163L22.8873 63.7562Z" fill="#132D54"/>
<path d="M20.8193 64.9486L21.8535 64.3553L20.8193 63.7568L19.7851 64.3553L20.8193 64.9486Z" fill="#132D54"/>
<path d="M18.7462 66.141L19.7856 65.5477L18.7462 64.9492L17.712 65.5477L18.7462 66.141Z" fill="#132D54"/>
<path d="M37.3971 57.8017L38.4365 57.2084L37.3971 56.6099L36.3629 57.2084L37.3971 57.8017Z" fill="#194FA0"/>
<path d="M35.3301 58.994L36.3643 58.4007L35.3301 57.8022L34.2906 58.4007L35.3301 58.994Z" fill="#194FA0"/>
<path d="M33.2549 60.1864L34.2891 59.5931L33.2549 58.9946L32.2207 59.5931L33.2549 60.1864Z" fill="#194FA0"/>
<path d="M31.1818 61.3788L32.2212 60.7855L31.1818 60.187L30.1476 60.7855L31.1818 61.3788Z" fill="#194FA0"/>
<path d="M29.1133 62.5692L30.1475 61.9759L29.1133 61.3774L28.0791 61.9759L29.1133 62.5692Z" fill="#194FA0"/>
<path d="M27.0402 63.7616L28.0796 63.1683L27.0402 62.5698L26.006 63.1683L27.0402 63.7616Z" fill="#194FA0"/>
<path d="M24.9717 64.954L26.0059 64.3607L24.9717 63.7622L23.9322 64.3607L24.9717 64.954Z" fill="#194FA0"/>
<path d="M22.8979 66.1464L23.9321 65.5531L22.8979 64.9546L21.8637 65.5531L22.8979 66.1464Z" fill="#194FA0"/>
<path d="M20.8239 67.3373L21.8633 66.744L20.8239 66.1455L19.7897 66.744L20.8239 67.3373Z" fill="#194FA0"/>
<path d="M39.4767 58.9994L40.5161 58.4061L39.4767 57.8076L38.4425 58.4061L39.4767 58.9994Z" fill="#194FA0"/>
<path d="M37.4072 60.1918L38.4414 59.5985L37.4072 59L36.373 59.5985L37.4072 60.1918Z" fill="#194FA0"/>
<path d="M35.3336 61.3822L36.373 60.7889L35.3336 60.1904L34.2994 60.7889L35.3336 61.3822Z" fill="#194FA0"/>
<path d="M33.2666 62.5746L34.3008 61.9813L33.2666 61.3828L32.2272 61.9813L33.2666 62.5746Z" fill="#194FA0"/>
<path d="M31.1924 63.7675L32.2266 63.1742L31.1924 62.5757L30.1582 63.1742L31.1924 63.7675Z" fill="#194FA0"/>
<path d="M29.1245 64.9579L30.1587 64.3646L29.1245 63.7661L28.0851 64.3646L29.1245 64.9579Z" fill="#194FA0"/>
<path d="M27.0498 66.1503L28.084 65.557L27.0498 64.9585L26.0156 65.557L27.0498 66.1503Z" fill="#194FA0"/>
<path d="M24.9767 67.3407L26.0161 66.7474L24.9767 66.1489L23.9425 66.7474L24.9767 67.3407Z" fill="#132D54"/>
<path d="M22.9082 68.5331L23.9424 67.9398L22.9082 67.3413L21.8688 67.9398L22.9082 68.5331Z" fill="#132D54"/>
<path d="M41.56 60.1976L42.5942 59.6044L41.56 59.0059L40.5206 59.6044L41.56 60.1976Z" fill="#132D54"/>
<path d="M39.4873 61.3881L40.5215 60.7948L39.4873 60.1963L38.4531 60.7948L39.4873 61.3881Z" fill="#132D54"/>
<path d="M37.4184 62.5805L38.4526 61.9872L37.4184 61.3887L36.379 61.9872L37.4184 62.5805Z" fill="#132D54"/>
<path d="M35.3447 63.7728L36.3789 63.1796L35.3447 62.5811L34.3105 63.1796L35.3447 63.7728Z" fill="#132D54"/>
<path d="M33.2711 64.9652L34.3105 64.3667L33.2711 63.7734L32.2369 64.3719L33.2711 64.9652Z" fill="#132D54"/>
<path d="M31.2031 66.1537L32.2373 65.5552L31.2031 64.9619L30.1637 65.5552L31.2031 66.1537Z" fill="#132D54"/>
<path d="M29.1294 67.3466L30.1636 66.7481L29.1294 66.1548L28.0952 66.7481L29.1294 67.3466Z" fill="#132D54"/>
<path d="M27.0558 68.539L28.0952 67.9405L27.0558 67.3472L26.0216 67.9405L27.0558 68.539Z" fill="#132D54"/>
<path d="M24.9873 69.7313L26.0215 69.138L24.9873 68.5396L23.9531 69.138L24.9873 69.7313Z" fill="#132D54"/>
<path d="M43.6396 61.3934L44.6738 60.8002L43.6396 60.2017L42.6054 60.8002L43.6396 61.3934Z" fill="#194FA0"/>
<path d="M41.5651 62.5858L42.6045 61.9873L41.5651 61.394L40.5309 61.9873L41.5651 62.5858Z" fill="#194FA0"/>
<path d="M39.4975 63.7782L40.5317 63.1797L39.4975 62.5864L38.4633 63.1797L39.4975 63.7782Z" fill="#194FA0"/>
<path d="M37.4244 64.9711L38.4639 64.3726L37.4244 63.7793L36.3902 64.3726L37.4244 64.9711Z" fill="#194FA0"/>
<path d="M35.3507 66.1615L36.3901 65.563L35.3507 64.9697L34.3165 65.563L35.3507 66.1615Z" fill="#194FA0"/>
<path d="M33.2812 67.3519L34.3154 66.7535L33.2812 66.1602L32.247 66.7535L33.2812 67.3519Z" fill="#194FA0"/>
<path d="M31.2076 68.5443L32.2471 67.9458L31.2076 67.3525L30.1735 67.9458L31.2076 68.5443Z" fill="#194FA0"/>
<path d="M29.1396 69.7367L30.1738 69.1382L29.1396 68.5449L28.1002 69.1382L29.1396 69.7367Z" fill="#194FA0"/>
<path d="M27.0669 70.9271L28.1011 70.3286L27.0669 69.7354L26.0327 70.3286L27.0669 70.9271Z" fill="#194FA0"/>
<path d="M45.7187 62.5917L46.7529 61.9932L45.7187 61.3999L44.6845 61.9932L45.7187 62.5917Z" fill="#194FA0"/>
<path d="M43.6494 63.7841L44.6836 63.1856L43.6494 62.5923L42.61 63.1856L43.6494 63.7841Z" fill="#194FA0"/>
<path d="M41.5771 64.9745L42.6113 64.376L41.5771 63.7827L40.5429 64.376L41.5771 64.9745Z" fill="#194FA0"/>
<path d="M39.5026 66.1669L40.542 65.5684L39.5026 64.9751L38.4684 65.5684L39.5026 66.1669Z" fill="#132D54"/>
<path d="M37.4341 67.3593L38.4683 66.7608L37.4341 66.1675L36.3946 66.7608L37.4341 67.3593Z" fill="#132D54"/>
<path d="M35.3594 68.5502L36.3936 67.9517L35.3594 67.3584L34.3252 67.9517L35.3594 68.5502Z" fill="#132D54"/>
<path d="M33.2863 69.7426L34.3257 69.1441L33.2863 68.5508L32.2521 69.1441L33.2863 69.7426Z" fill="#132D54"/>
<path d="M31.2187 70.933L32.2529 70.3345L31.2187 69.7412L30.1845 70.3345L31.2187 70.933Z" fill="#132D54"/>
<path d="M29.1451 72.1254L30.1846 71.5269L29.1451 70.9336L28.1109 71.5269L29.1451 72.1254Z" fill="#132D54"/>
<path d="M47.7965 63.7875L48.8359 63.189L47.7965 62.5957L46.7623 63.189L47.7965 63.7875Z" fill="#132D54"/>
<path d="M45.729 64.9784L46.7632 64.3799L45.729 63.7866L44.6896 64.3799L45.729 64.9784Z" fill="#132D54"/>
<path d="M43.6553 66.1708L44.6895 65.5723L43.6553 64.979L42.6211 65.5723L43.6553 66.1708Z" fill="#132D54"/>
<path d="M41.5864 67.3651L42.6206 66.7666L41.5864 66.1733L40.547 66.7666L41.5864 67.3651Z" fill="#132D54"/>
<path d="M39.5127 68.5575L40.5469 67.959L39.5127 67.3657L38.4785 67.959L39.5127 68.5575Z" fill="#132D54"/>
<path d="M37.4391 69.746L38.4785 69.1475L37.4391 68.5542L36.4049 69.1475L37.4391 69.746Z" fill="#132D54"/>
<path d="M35.3716 70.9384L36.4058 70.3399L35.3716 69.7466L34.3321 70.3399L35.3716 70.9384Z" fill="#132D54"/>
<path d="M33.2969 72.1308L34.3311 71.5323L33.2969 70.939L32.2627 71.5323L33.2969 72.1308Z" fill="#132D54"/>
<path d="M31.229 73.3231L32.2632 72.7246L31.229 72.1313L30.1896 72.7246L31.229 73.3231Z" fill="#132D54"/>
<path d="M49.8818 64.9838L50.916 64.3853L49.8818 63.792L48.8424 64.3853L49.8818 64.9838Z" fill="#132D54"/>
<path d="M47.8076 66.1762L48.8418 65.5777L47.8076 64.9844L46.7734 65.5777L47.8076 66.1762Z" fill="#132D54"/>
<path d="M45.734 67.3685L46.7734 66.77L45.734 66.1768L44.6998 66.77L45.734 67.3685Z" fill="#132D54"/>
<path d="M43.6655 68.5609L44.6997 67.9624L43.6655 67.3691L42.6261 67.9624L43.6655 68.5609Z" fill="#132D54"/>
<path d="M41.5918 69.7518L42.626 69.1534L41.5918 68.5601L40.5576 69.1534L41.5918 69.7518Z" fill="#132D54"/>
<path d="M39.5229 70.9423L40.5571 70.3438L39.5229 69.7505L38.4835 70.3438L39.5229 70.9423Z" fill="#132D54"/>
<path d="M37.4502 72.1347L38.4844 71.5362L37.4502 70.9429L36.416 71.5362L37.4502 72.1347Z" fill="#132D54"/>
<path d="M35.3756 73.329L36.415 72.7305L35.3756 72.1372L34.3414 72.7305L35.3756 73.329Z" fill="#132D54"/>
<path d="M33.3081 74.5194L34.3423 73.9209L33.3081 73.3276L32.2687 73.9209L33.3081 74.5194Z" fill="#132D54"/>
<path d="M129.82 61.854L135.738 58.4688V57.1802L129.82 60.5654V61.854Z" fill="#42B7E5"/>
<path d="M126.784 63.5893L128.913 62.3711V61.0825L126.784 62.3007V63.5893Z" fill="#42B7E5"/>
<path d="M124.429 64.9342L125.88 64.1055V62.8169L124.429 63.6456V64.9342Z" fill="#42B7E5"/>
<path d="M132.513 63.2541L135.738 61.4102V60.1216L132.513 61.9654V63.2541Z" fill="#42B7E5"/>
<path d="M127.658 66.0319L131.61 63.7696V62.481L127.658 64.7433V66.0319Z" fill="#42B7E5"/>
<path d="M125.303 67.3754L126.75 66.5467V65.2622L125.303 66.0909V67.3754Z" fill="#42B7E5"/>
<path d="M123.066 68.6566L124.513 67.8279V66.5435L123.066 67.3722V68.6566Z" fill="#42B7E5"/>
<path d="M133.404 65.6858L135.738 64.3516V63.063L133.404 64.3972V65.6858Z" fill="#42B7E5"/>
<path d="M131.702 66.659L132.5 66.2032V64.9146L131.702 65.3703V66.659Z" fill="#42B7E5"/>
<path d="M129.347 68.0045L130.798 67.1758V65.8872L129.347 66.7159V68.0045Z" fill="#42B7E5"/>
<path d="M127.123 72.2196L135.738 67.293V66.0044L127.123 70.931V72.2196Z" fill="#42B7E5"/>
<path d="M124.091 73.9565L126.219 72.7383V71.4497L124.091 72.6679V73.9565Z" fill="#42B7E5"/>
<path d="M133.404 71.5686L135.738 70.2344V68.9458L133.404 70.28V71.5686Z" fill="#42B7E5"/>
<path d="M127.925 74.7005L132.5 72.086V70.7974L127.925 73.4119V74.7005Z" fill="#42B7E5"/>
<path d="M125.575 76.0475L127.022 75.2188V73.9302L125.575 74.7589V76.0475Z" fill="#42B7E5"/>
<path d="M130.962 75.9064L135.738 73.1758V71.8872L130.962 74.6178V75.9064Z" fill="#42B7E5"/>
<path d="M126.604 78.4023L130.058 76.4258V75.1372L126.604 77.1136V78.4023Z" fill="#42B7E5"/>
<path d="M123.367 80.2561L125.701 78.9219V77.6333L123.367 78.9675V80.2561Z" fill="#42B7E5"/>
<path d="M134.124 77.0412L135.738 76.1172V74.8286L134.124 75.7526V77.0412Z" fill="#42B7E5"/>
<path d="M131.092 78.7807L133.22 77.5625V76.2739L131.092 77.4921V78.7807Z" fill="#42B7E5"/>
<path d="M126.751 81.2609L130.184 79.2969V78.0083L126.751 79.9723V81.2609Z" fill="#42B7E5"/>
<path d="M130.799 81.8884L135.738 79.0625V77.7739L130.799 80.5998V81.8884Z" fill="#42B7E5"/>
<path d="M125.265 85.054L129.895 82.4063V81.1177L125.265 83.7654V85.054Z" fill="#42B7E5"/>
<path d="M122.912 86.3991L124.363 85.5704V84.2817L122.912 85.1104V86.3991Z" fill="#42B7E5"/>
<path d="M120.657 87.6879L122.104 86.8592V85.5747L120.657 86.4034V87.6879Z" fill="#42B7E5"/>
<path d="M132.777 83.6986L135.738 82.004V80.7153L132.777 82.41V83.6986Z" fill="#42B7E5"/>
<path d="M120.402 67.2383L116.295 69.5877V68.2991L120.402 65.9497V67.2383Z" fill="#42B7E5"/>
<path d="M119.52 70.6875L116.296 72.5314V71.2428L119.52 69.3989V70.6875Z" fill="#42B7E5"/>
<path d="M118.628 74.1368L116.295 75.471V74.1823L118.628 72.8481V74.1368Z" fill="#42B7E5"/>
<path d="M119.691 76.4727L116.295 78.416V77.1274L119.691 75.1841V76.4727Z" fill="#42B7E5"/>
<path d="M118.628 80.0235L116.295 81.3577V80.0691L118.628 78.7349V80.0235Z" fill="#42B7E5"/>
<path d="M119.256 82.6053L116.295 84.3V83.0113L119.256 81.3208V82.6053Z" fill="#42B7E5"/>
<path d="M117.91 86.3162L116.295 87.2402V85.9516L117.91 85.0317V86.3162Z" fill="#42B7E5"/>
<path d="M119.419 88.3946L116.295 90.1804V88.8918L119.419 87.106V88.3946Z" fill="#42B7E5"/>
<path d="M119.256 91.4336L116.295 93.1242V91.8356L119.256 90.145V91.4336Z" fill="#42B7E5"/>
<path d="M130.615 84.9317L131.874 84.2149V82.9263L130.615 83.6472V84.9317Z" fill="#42B7E5"/>
<path d="M126.88 87.0694L129.711 85.4493V84.1606L126.88 85.7807V87.0694Z" fill="#42B7E5"/>
<path d="M124.534 96.9691L129.314 94.2344V92.9458L124.534 95.6805V96.9691Z" fill="#42B7E5"/>
<path d="M121.259 98.843L123.141 97.7657V96.4771L121.259 97.5544V98.843Z" fill="#42B7E5"/>
<path d="M53.7147 105.784L59.6323 102.398V101.11L53.7147 104.495V105.784Z" fill="#42B7E5"/>
<path d="M50.6784 107.519L52.8071 106.301V105.012L50.6784 106.23V107.519Z" fill="#42B7E5"/>
<path d="M48.3237 108.864L49.7749 108.035V106.747L48.3237 107.575V108.864Z" fill="#42B7E5"/>
<path d="M56.4079 107.184L59.6323 105.34V104.051L56.4079 105.895V107.184Z" fill="#42B7E5"/>
<path d="M51.5523 109.962L55.5044 107.699V106.411L51.5523 108.673V109.962Z" fill="#42B7E5"/>
<path d="M49.198 111.305L50.645 110.476V109.192L49.198 110.021V111.305Z" fill="#42B7E5"/>
<path d="M46.9607 112.586L48.4077 111.758V110.473L46.9607 111.302V112.586Z" fill="#42B7E5"/>
<path d="M57.2987 109.615L59.6323 108.281V106.993L57.2987 108.327V109.615Z" fill="#42B7E5"/>
<path d="M55.5962 110.589L56.395 110.133V108.844L55.5962 109.3V110.589Z" fill="#42B7E5"/>
<path d="M53.2417 111.934L54.6929 111.106V109.817L53.2417 110.646V111.934Z" fill="#42B7E5"/>
<path d="M51.0172 116.149L59.6323 111.223V109.934L51.0172 114.861V116.149Z" fill="#42B7E5"/>
<path d="M47.9851 117.886L50.1138 116.668V115.379L47.9851 116.598V117.886Z" fill="#42B7E5"/>
<path d="M57.2987 115.498L59.6323 114.164V112.875L57.2987 114.21V115.498Z" fill="#42B7E5"/>
<path d="M51.8198 118.63L56.395 116.016V114.727L51.8198 117.342V118.63Z" fill="#42B7E5"/>
<path d="M49.4695 119.977L50.9165 119.148V117.86L49.4695 118.689V119.977Z" fill="#42B7E5"/>
<path d="M54.8564 119.836L59.6323 117.106V115.817L54.8564 118.547V119.836Z" fill="#42B7E5"/>
<path d="M50.4982 122.332L53.9526 120.356V119.067L50.4982 121.043V122.332Z" fill="#42B7E5"/>
<path d="M47.2616 124.186L49.5952 122.852V121.563L47.2616 122.897V124.186Z" fill="#42B7E5"/>
<path d="M58.018 120.971L59.6323 120.047V118.758L58.018 119.682V120.971Z" fill="#42B7E5"/>
<path d="M54.9861 122.71L57.1147 121.492V120.204L54.9861 121.422V122.71Z" fill="#42B7E5"/>
<path d="M50.6451 125.191L54.0786 123.227V121.938L50.6451 123.902V125.191Z" fill="#42B7E5"/>
<path d="M54.6933 125.818L59.6323 122.992V121.704L54.6933 124.529V125.818Z" fill="#42B7E5"/>
<path d="M49.16 128.984L53.7896 126.336V125.047L49.16 127.695V128.984Z" fill="#42B7E5"/>
<path d="M46.8061 130.329L48.2573 129.5V128.211L46.8061 129.04V130.329Z" fill="#42B7E5"/>
<path d="M44.5515 131.618L45.9985 130.789V129.504L44.5515 130.333V131.618Z" fill="#42B7E5"/>
<path d="M56.6714 127.628L59.6323 125.934V124.645L56.6714 126.34V127.628Z" fill="#42B7E5"/>
<path d="M44.2964 111.168L40.1896 113.517V112.229L44.2964 109.879V111.168Z" fill="#42B7E5"/>
<path d="M43.4146 114.617L40.1901 116.461V115.172L43.4146 113.329V114.617Z" fill="#42B7E5"/>
<path d="M42.5229 118.066L40.1893 119.401V118.112L42.5229 116.778V118.066Z" fill="#42B7E5"/>
<path d="M43.5854 120.402L40.1896 122.346V121.057L43.5854 119.114V120.402Z" fill="#42B7E5"/>
<path d="M42.5229 123.953L40.1893 125.287V123.999L42.5229 122.665V123.953Z" fill="#42B7E5"/>
<path d="M43.1509 126.535L40.19 128.23V126.941L43.1509 125.25V126.535Z" fill="#42B7E5"/>
<path d="M41.8042 130.246L40.1899 131.17V129.881L41.8042 128.961V130.246Z" fill="#42B7E5"/>
<path d="M43.314 132.324L40.1899 134.11V132.821L43.314 131.036V132.324Z" fill="#42B7E5"/>
<path d="M43.1509 135.363L40.19 137.054V135.765L43.1509 134.075V135.363Z" fill="#42B7E5"/>
<path d="M54.5093 128.861L55.7681 128.145V126.856L54.5093 127.577V128.861Z" fill="#42B7E5"/>
<path d="M50.7747 130.999L53.606 129.379V128.09L50.7747 129.71V130.999Z" fill="#42B7E5"/>
<path d="M48.4284 140.899L53.2085 138.164V136.875L48.4284 139.61V140.899Z" fill="#42B7E5"/>
<path d="M45.1537 142.773L47.0356 141.695V140.407L45.1537 141.484V142.773Z" fill="#42B7E5"/>
<defs>
<linearGradient id="paint0_linear_195_475" x1="-5315.68" y1="2167.59" x2="-12062.2" y2="2167.59" gradientUnits="userSpaceOnUse">
<stop stop-color="white"/>
<stop offset="0.16" stop-color="#E9F0F7"/>
<stop offset="0.51" stop-color="#B0C8E1"/>
<stop offset="1" stop-color="#5689BF"/>
</linearGradient>
<linearGradient id="paint1_linear_195_475" x1="-3690.38" y1="10920.7" x2="-3690.38" y2="3853.59" gradientUnits="userSpaceOnUse">
<stop stop-color="white"/>
<stop offset="0.16" stop-color="#E9F0F7"/>
<stop offset="0.51" stop-color="#B0C8E1"/>
<stop offset="1" stop-color="#5689BF"/>
</linearGradient>
<linearGradient id="paint2_linear_195_475" x1="-2672.02" y1="1910.19" x2="-4709.08" y2="1910.19" gradientUnits="userSpaceOnUse">
<stop stop-color="white"/>
<stop offset="0.16" stop-color="#E9F0F7"/>
<stop offset="0.51" stop-color="#B0C8E1"/>
<stop offset="1" stop-color="#5689BF"/>
</linearGradient>
<linearGradient id="paint3_linear_195_475" x1="-5487.82" y1="2239.63" x2="-12400.1" y2="2239.63" gradientUnits="userSpaceOnUse">
<stop stop-color="white"/>
<stop offset="0.16" stop-color="#E9F0F7"/>
<stop offset="0.51" stop-color="#B0C8E1"/>
<stop offset="1" stop-color="#5689BF"/>
</linearGradient>
<linearGradient id="paint4_linear_195_475" x1="-3822.58" y1="11207.8" x2="-3822.58" y2="3967.08" gradientUnits="userSpaceOnUse">
<stop stop-color="white"/>
<stop offset="0.16" stop-color="#E9F0F7"/>
<stop offset="0.51" stop-color="#B0C8E1"/>
<stop offset="1" stop-color="#5689BF"/>
</linearGradient>
<linearGradient id="paint5_linear_195_475" x1="-2779.19" y1="1975.91" x2="-4866.31" y2="1975.91" gradientUnits="userSpaceOnUse">
<stop stop-color="white"/>
<stop offset="0.16" stop-color="#E9F0F7"/>
<stop offset="0.51" stop-color="#B0C8E1"/>
<stop offset="1" stop-color="#5689BF"/>
</linearGradient>
<linearGradient id="paint6_linear_195_475" x1="81.0426" y1="116.636" x2="101.368" y2="116.636" gradientUnits="userSpaceOnUse">
<stop stop-color="#B9D4E6"/>
<stop offset="0.27" stop-color="#BED6E8"/>
<stop offset="0.59" stop-color="#CCDCEF"/>
<stop offset="0.94" stop-color="#E4E7FB"/>
<stop offset="1" stop-color="#E9E9FD"/>
</linearGradient>
<linearGradient id="paint7_linear_195_475" x1="19565.1" y1="11080.1" x2="19671.7" y2="11080.1" gradientUnits="userSpaceOnUse">
<stop stop-color="#B9D4E6"/>
<stop offset="0.27" stop-color="#BED6E8"/>
<stop offset="0.59" stop-color="#CCDCEF"/>
<stop offset="0.94" stop-color="#E4E7FB"/>
<stop offset="1" stop-color="#E9E9FD"/>
</linearGradient>
<linearGradient id="paint8_linear_195_475" x1="19197" y1="10966.6" x2="19302.5" y2="10966.6" gradientUnits="userSpaceOnUse">
<stop stop-color="#C0BFF6"/>
<stop offset="0.29" stop-color="#C5C4F7"/>
<stop offset="0.64" stop-color="#D3D2F9"/>
<stop offset="1" stop-color="#E9E9FD"/>
</linearGradient>
<linearGradient id="paint9_linear_195_475" x1="-5391.81" y1="2212.46" x2="-12138.3" y2="2212.46" gradientUnits="userSpaceOnUse">
<stop stop-color="white"/>
<stop offset="0.16" stop-color="#E9F0F7"/>
<stop offset="0.51" stop-color="#B0C8E1"/>
<stop offset="1" stop-color="#5689BF"/>
</linearGradient>
<linearGradient id="paint10_linear_195_475" x1="-3766.52" y1="10965.5" x2="-3766.52" y2="3898.47" gradientUnits="userSpaceOnUse">
<stop stop-color="white"/>
<stop offset="0.16" stop-color="#E9F0F7"/>
<stop offset="0.51" stop-color="#B0C8E1"/>
<stop offset="1" stop-color="#5689BF"/>
</linearGradient>
<linearGradient id="paint11_linear_195_475" x1="-2748.15" y1="1955.07" x2="-4785.21" y2="1955.07" gradientUnits="userSpaceOnUse">
<stop stop-color="white"/>
<stop offset="0.16" stop-color="#E9F0F7"/>
<stop offset="0.51" stop-color="#B0C8E1"/>
<stop offset="1" stop-color="#5689BF"/>
</linearGradient>
</defs>
</svg>
