<svg width="24" height="25" viewBox="0 0 24 25" fill="none" xmlns="http://www.w3.org/2000/svg">
<path d="M13.6897 12.4019L23.1671 1.10481C23.326 0.917062 23.1924 0.631836 22.9469 0.631836H20.0658C19.8961 0.631836 19.7336 0.707655 19.6217 0.837632L11.805 10.1562L3.98838 0.837632C3.88007 0.707655 3.7176 0.631836 3.5443 0.631836H0.66315C0.417638 0.631836 0.284051 0.917062 0.442911 1.10481L9.92037 12.4019L0.442911 23.6991C0.407325 23.7409 0.384495 23.7921 0.377131 23.8465C0.369767 23.901 0.378178 23.9564 0.401367 24.0062C0.424556 24.056 0.461548 24.0981 0.50795 24.1275C0.554353 24.1569 0.608218 24.1723 0.66315 24.172H3.5443C3.71399 24.172 3.87646 24.0962 3.98838 23.9662L11.805 14.6476L19.6217 23.9662C19.73 24.0962 19.8925 24.172 20.0658 24.172H22.9469C23.1924 24.172 23.326 23.8868 23.1671 23.6991L13.6897 12.4019Z" fill="#B0B0B0"/>
</svg>
