<svg width="12" height="18" viewBox="0 0 12 18" fill="none" xmlns="http://www.w3.org/2000/svg">
<path d="M0.638673 5.81894C0.638673 5.05559 0.779291 4.33241 1.06053 3.6494C1.34176 2.9664 1.74353 2.36376 2.26582 1.84146C2.74794 1.35934 3.3305 0.977665 4.01351 0.69643C4.69651 0.415194 5.43978 0.274576 6.24331 0.274576C7.85037 0.274576 9.19628 0.796872 10.2811 1.84146C11.3658 2.92623 11.9082 4.53329 11.9082 6.66265C11.9082 8.55095 11.3056 10.4593 10.1003 12.3878C8.89496 14.3565 6.96648 16.1041 4.31483 17.6309L3.29033 16.4858C4.81704 15.3207 5.60048 14.256 5.64066 13.2918C5.68083 12.3275 5.03801 11.5039 3.71218 10.8209C2.86847 10.379 2.14529 9.75625 1.54265 8.95272C0.939997 8.18936 0.638673 7.14477 0.638673 5.81894Z" fill="white"/>
</svg>
