<svg width="70" height="16" viewBox="0 0 70 16" fill="none" xmlns="http://www.w3.org/2000/svg">
<path d="M54.2128 15.2948L50.8488 9.76723C52.4887 9.10992 53.6575 7.73906 53.6575 5.85521C53.6575 3.01701 51.6924 1.22803 48.5007 1.22803H43.1257V15.2948H46.1115V10.3843H48.284L51.0081 15.2948H54.2128ZM48.1212 3.65643C49.5152 3.65643 50.8488 4.02538 50.8488 5.70663C50.8488 7.18389 50.005 7.87627 48.1347 7.87627H46.1115V3.65643H48.1212Z" fill="#4496E4"/>
<path d="M55.6023 15.2943H58.4993V6.57229H58.7309L60.7214 9.6476L62.5655 12.6931L64.563 9.84665L66.7127 6.57229H66.9317V15.2943H69.3809V1.20605H66.4839L62.5655 7.72193H62.4113L58.4993 1.20605H55.6023V15.2943Z" fill="#4496E4"/>
<circle cx="33.9397" cy="8.19408" r="6.09515" stroke="#4496E4" stroke-width="2.4"/>
<path fill-rule="evenodd" clip-rule="evenodd" d="M23.5564 10.6982C22.7023 12.1301 21.1378 13.0892 19.3493 13.0892C16.6458 13.0892 14.4542 10.8976 14.4542 8.19408C14.4542 5.49056 16.6458 3.29893 19.3493 3.29893C21.0722 3.29893 22.5872 4.18897 23.4596 5.53433L25.4496 4.19183C24.1457 2.20838 21.9004 0.898926 19.3493 0.898926C15.3203 0.898926 12.0542 4.16508 12.0542 8.19408C12.0542 12.2231 15.3203 15.4892 19.3493 15.4892C21.9512 15.4892 24.2349 14.1271 25.5263 12.0771L23.5564 10.6982Z" fill="#4496E4"/>
<path fill-rule="evenodd" clip-rule="evenodd" d="M5.22572 3.0507C4.22098 3.1668 3.65634 3.78889 3.57521 4.2757C3.48959 4.78943 3.52178 5.1257 3.58944 5.35016C3.65274 5.56018 3.76673 5.73979 3.96979 5.91836C4.44073 6.3325 5.31414 6.68545 6.81563 7.06082C8.13125 7.38972 9.21688 7.89575 9.97645 8.68428C10.7726 9.51075 11.0903 10.5211 11.0903 11.5873C11.0903 14.0315 8.96935 15.9025 6.12688 15.9025C3.14538 15.9025 1.0696 13.6753 0.338867 12.1327L2.64143 11.0419C3.10727 12.0254 4.44954 13.3547 6.12688 13.3547C7.87131 13.3547 8.54247 12.334 8.54247 11.5873C8.54247 11.0581 8.40193 10.7222 8.14147 10.4518C7.84447 10.1435 7.27523 9.80196 6.19769 9.53258C4.70773 9.16008 3.2707 8.69643 2.28729 7.83164C1.76316 7.37073 1.36398 6.79529 1.15002 6.08547C0.94042 5.3901 0.93124 4.64174 1.06204 3.85687C1.37977 1.95032 3.13351 0.727677 4.93326 0.519715C6.84328 0.299012 8.95292 1.14574 10.374 3.38313L8.22335 4.74915C7.30114 3.29722 6.12019 2.94735 5.22572 3.0507Z" fill="#4496E4"/>
</svg>
