<svg width="68" height="28" viewBox="0 0 68 28" fill="none" xmlns="http://www.w3.org/2000/svg">
<g clip-path="url(#clip0_181_2112)">
<path d="M66.8252 4.77267C66.5963 3.95543 66.1483 3.21032 65.5262 2.61183C64.904 2.01334 64.1295 1.58244 63.28 1.36222C60.1533 0.556156 47.6152 0.556152 47.6152 0.556152C47.6152 0.556152 35.0772 0.556156 31.9498 1.36222C31.1002 1.58215 30.3256 2.01297 29.7035 2.61151C29.0814 3.21005 28.6337 3.95532 28.4053 4.77267C27.5674 7.78045 27.5674 14.0558 27.5674 14.0558C27.5674 14.0558 27.5674 20.334 28.4053 23.3404C28.6339 24.1576 29.0816 24.9027 29.7036 25.5011C30.3257 26.0995 31.1003 26.5302 31.9498 26.7501C35.0772 27.5562 47.6152 27.5562 47.6152 27.5562C47.6152 27.5562 60.1533 27.5562 63.28 26.7501C64.1294 26.5299 64.9039 26.0991 65.526 25.5008C66.1482 24.9024 66.5961 24.1575 66.8252 23.3404C67.6631 20.3319 67.6631 14.0558 67.6631 14.0558C67.6631 14.0558 67.6631 7.77757 66.8252 4.77267Z" fill="#ED2224"/>
<path d="M10.5622 21.8034C9.99907 21.4382 9.59899 20.8705 9.36194 20.1003C9.12489 19.3301 9.00612 18.3056 9.00562 17.0269V14.486C9.00562 13.1943 9.14114 12.1568 9.4122 11.3736C9.68325 10.5904 10.1071 10.0193 10.6837 9.66041C11.2608 9.302 12.0172 9.12255 12.9529 9.12207C13.8756 9.12207 14.615 9.30488 15.1711 9.67051C15.7272 10.0361 16.1343 10.607 16.3924 11.383C16.6499 12.1599 16.7787 13.1943 16.7787 14.486V17.0269C16.7787 18.3066 16.6537 19.3342 16.4036 20.1097C16.1536 20.8852 15.7467 21.4529 15.1831 21.8128C14.62 22.1721 13.8569 22.3518 12.8937 22.3518C11.903 22.3518 11.1263 22.169 10.5637 21.8034H10.5622ZM13.7143 19.9271C13.8704 19.5355 13.9484 18.8959 13.9484 18.0083V13.4685C13.9484 12.6068 13.8704 11.9771 13.7143 11.5792C13.5583 11.1814 13.2832 10.9822 12.8892 10.9817C12.5086 10.9817 12.2405 11.1809 12.085 11.5792C11.9295 11.9776 11.8517 12.6073 11.8517 13.4685V18.0054C11.8517 18.893 11.9267 19.5326 12.0767 19.9242C12.2268 20.3158 12.4981 20.5114 12.8907 20.5109C13.2837 20.5109 13.5588 20.3154 13.7158 19.9242" fill="black"/>
<path d="M3.85799 15.9678L0.663086 4.86835H3.44916L4.56989 9.89671C4.85495 11.1365 5.06524 12.1934 5.20077 13.0676H5.28253C5.37705 12.4422 5.5871 11.3917 5.91266 9.91619L7.07315 4.86475H9.86072L6.62531 15.9642V22.2194H3.85799V15.9678Z" fill="black"/>
<path d="M25.5554 9.20605V22.0923H23.3574L23.1129 20.6238H23.0521C22.455 21.7332 21.5596 22.2879 20.3658 22.2879C19.5387 22.2879 18.9283 22.0269 18.5347 21.5049C18.1411 20.9829 17.9443 20.1672 17.9443 19.0578V9.20605H20.7529V18.8983C20.7529 19.4333 20.8139 19.8151 20.9359 20.0436C21.058 20.2721 21.2615 20.3861 21.5466 20.3856C21.7977 20.3832 22.0422 20.3077 22.248 20.1691C22.464 20.0345 22.6368 19.8446 22.7468 19.6207V9.20605H25.5554Z" fill="black"/>
<path d="M59.3124 16.8182V17.4337C59.3041 18.0206 59.3292 18.6074 59.3874 19.1917C59.4354 19.5828 59.5374 19.8671 59.6875 20.0461C59.8375 20.225 60.0731 20.3145 60.3896 20.3145C60.8167 20.3145 61.1093 20.1555 61.2673 19.8375C61.4253 19.5195 61.5114 18.9903 61.5254 18.2499L63.9829 18.3892C63.9982 18.533 64.005 18.6776 64.0031 18.8222C64.0031 19.9479 63.6833 20.7898 63.0437 21.3479C62.404 21.906 61.4988 22.184 60.3281 22.1821C58.9238 22.1821 57.9394 21.7583 57.3748 20.9106C56.8101 20.0629 56.5278 18.7519 56.5278 16.9777V14.8525C56.5278 13.0243 56.8204 11.69 57.4055 10.8495C57.9906 10.0091 58.9908 9.58836 60.4061 9.5874C61.3843 9.5874 62.1345 9.75964 62.6566 10.1041C63.1787 10.4486 63.547 10.985 63.7616 11.7133C63.9746 12.4422 64.0814 13.4486 64.0819 14.7327V16.8189L59.3124 16.8182ZM59.6732 11.6946C59.5292 11.8663 59.4329 12.1475 59.3844 12.5382C59.326 13.1291 59.3009 13.7227 59.3094 14.3163V15.1909H61.3948V14.3163C61.4043 13.7225 61.3768 13.1288 61.3123 12.5382C61.2568 12.135 61.1568 11.8505 61.0122 11.6845C60.8677 11.5185 60.6439 11.4358 60.3409 11.4362C60.0378 11.4362 59.8128 11.5224 59.6657 11.6946" fill="white"/>
<path d="M46.3504 9.70654V22.1988H44.1202L43.8726 20.3947H43.8074C43.2012 21.5204 42.2928 22.1988 41.0813 22.1988C40.7178 22.2046 40.3583 22.1247 40.0344 21.9659C39.7105 21.8071 39.4319 21.5744 39.2232 21.2881C38.8231 20.7589 38.623 19.9312 38.623 18.8049V9.70654H41.4736V18.6462C41.4736 19.1888 41.5354 19.5761 41.6589 19.808C41.7824 20.0399 41.989 20.1558 42.2785 20.1558C42.5333 20.1544 42.7817 20.0789 42.9912 19.9393C43.2103 19.8028 43.3854 19.6101 43.4968 19.383V9.70654H46.3504Z" fill="white"/>
<path d="M39.1752 7.70411H36.3464V22.1657H33.5588V7.70411H30.73V5.49951H39.1752V7.70411Z" fill="white"/>
<path d="M55.2285 11.6536C55.0559 10.8839 54.7771 10.3275 54.392 9.98448C54.0069 9.64146 53.4768 9.46947 52.8017 9.4685C52.2799 9.46808 51.7697 9.61678 51.3359 9.89572C50.889 10.174 50.5267 10.5612 50.2857 11.0179H50.2587V4.60107H47.5161V22.183H49.8693L50.1589 20.7318H50.2212C50.441 21.1424 50.771 21.5877 51.2121 21.8258C51.6598 22.0672 52.1655 22.1916 52.6787 22.1866C53.6419 22.1866 54.3505 21.7597 54.8046 20.9057C55.2592 20.0513 55.4865 18.5965 55.4865 16.7823V14.8555C55.4865 13.4916 55.4005 12.4255 55.2285 11.6572V11.6536ZM52.6164 16.6242C52.6164 17.5119 52.5784 18.207 52.5024 18.7098C52.4264 19.2125 52.2991 19.5702 52.1206 19.7828C52.0344 19.8865 51.9241 19.9692 51.7986 20.0243C51.6732 20.0795 51.536 20.1055 51.3982 20.1004C51.1708 20.1022 50.9467 20.0475 50.7478 19.9416C50.5422 19.8302 50.3738 19.6647 50.2624 19.4646V12.5521C50.3456 12.2415 50.5171 11.9594 50.7575 11.7373C50.959 11.5389 51.2337 11.4249 51.5219 11.4198C51.6535 11.4146 51.7842 11.4419 51.9016 11.4991C52.019 11.5564 52.1192 11.6416 52.1926 11.7467C52.3506 11.9651 52.4609 12.3329 52.5234 12.8501C52.5952 13.5828 52.6262 14.3188 52.6164 15.0547V16.6242Z" fill="white"/>
</g>
<defs>
<clipPath id="clip0_181_2112">
<rect width="67" height="27" fill="white" transform="translate(0.663086 0.552734)"/>
</clipPath>
</defs>
</svg>
