<svg width="69" height="20" viewBox="0 0 69 20" fill="none" xmlns="http://www.w3.org/2000/svg">
<g clip-path="url(#clip0_181_1998)">
<path fill-rule="evenodd" clip-rule="evenodd" d="M68.8172 11.1248C68.6972 9.456 68.0036 7.82753 66.4459 7.08203C65.0142 6.39817 62.302 6.57951 60.8583 7.20055C55.6512 9.61719 55.9548 13.9989 55.7604 15.0229C54.8339 15.6357 53.2642 16.0896 51.8433 16.2745C50.5941 16.4404 49.238 16.3776 48.4735 15.7909C51.0681 14.7728 57.4861 11.6214 55.386 7.94012C53.323 4.18658 41.6547 7.89864 43.5196 16.086C42.4503 16.745 42.0243 16.5601 41.7627 15.5349C41.7171 13.7227 42.1887 12.3278 42.4539 10.7277C42.5427 10.1932 42.6543 9.61837 42.5979 9.04947C42.5019 8.0705 41.7915 7.09744 40.697 7.00144C37.5768 7.00144 35.9207 9.24622 35.1383 9.7606C34.8274 9.02103 35.9147 7.03463 32.7477 7.03463C30.3331 6.88648 28.7274 8.48532 27.5634 9.48089C27.4038 8.89895 27.3486 8.22813 27.1025 7.68886C26.8973 7.23967 26.4929 6.7407 25.9793 6.66484C25.4656 6.58899 24.8836 6.93863 24.5104 7.2053C23.3655 8.02783 22.2026 9.11229 21.4286 10.1351C21.8498 10.9055 23.0499 10.3722 23.8191 10.2773C23.7867 11.0335 23.7255 11.8181 23.6175 12.5814C23.4483 13.7666 23.4147 14.8001 22.3502 15.5444C21.7106 15.99 20.8129 16.374 20.4781 15.4022C20.1553 14.4647 20.4313 13.3612 20.6161 12.4226C20.8477 11.2516 20.9701 10.0687 21.1406 8.88828C21.2318 8.25657 21.3458 7.76234 20.8837 7.229C20.7048 7.01943 20.4783 6.85459 20.2226 6.7479C19.9669 6.64121 19.6893 6.59569 19.4124 6.61506C17.9424 6.75373 17.2523 8.07761 16.2154 8.71999C16.7399 6.66247 15.073 6.07817 13.4025 6.32943C12.74 6.42899 10.4983 7.40678 9.73502 9.744C11.0863 9.64208 11.7944 9.84001 11.6647 11.3085C11.6107 11.9248 11.2963 12.598 10.9447 13.2427C10.5391 13.9882 9.77822 15.4484 8.78456 14.3959C7.8869 13.4478 7.95531 11.6344 7.75009 10.4267C7.63008 9.74874 7.51008 8.90606 7.28926 8.20798C7.09605 7.60827 6.65202 6.88647 6.10839 6.72884C5.52515 6.56054 4.8039 6.82484 4.38028 7.07018C3.03139 7.8536 2.00412 8.96651 0.837646 9.88623V9.97156C1.06806 10.1896 1.13047 10.5488 1.47129 10.5974C2.27414 10.7159 3.03979 9.85778 3.57262 10.7491C3.89784 11.2931 3.99985 11.8892 4.20746 12.4759C4.48588 13.2581 4.7007 14.1079 4.92751 15.0063C5.31274 16.5281 5.78436 18.799 7.11645 19.3584C7.79689 19.6428 8.81696 19.2636 9.33419 18.9602C10.7359 18.1412 11.8268 16.9548 12.7616 15.7459C13.7487 14.4805 14.6164 13.1284 15.3538 11.7067C15.8026 10.8261 16.1014 10.0794 17.3699 10.256C17.2871 12.0907 16.7075 13.6481 16.3618 15.2339C16.2418 15.7933 16.0822 16.4025 16.0738 16.969C16.0582 17.9835 16.4879 18.9779 17.2547 19.1877C17.8223 19.343 18.6132 19.2837 19.1556 19.2446C20.9929 19.113 22.6046 17.9148 23.6031 16.9299C24.1551 17.5889 24.8536 19.2742 27.459 19.2742C26.2589 16.6881 27.0317 10.4859 30.2443 10.768C31.1852 11.1236 30.7616 12.6833 30.5612 13.5556C30.4232 14.1601 29.1679 19.7258 34.0414 19.3015C34.0414 18.2455 33.6166 12.387 36.8148 10.832C37.1016 10.6851 38.1048 10.6779 38.16 11.1662C38.4097 13.3778 37.3764 15.3583 37.4112 17.5948C37.4376 21.1231 42.964 18.1601 44.1796 17.4763C44.8769 17.9835 46.9398 19.9877 51.6681 18.927C52.4904 18.7426 53.2914 18.4757 54.0587 18.1305C54.8123 17.7749 55.5108 17.3767 56.2764 17.1349C56.172 17.1681 57.1789 18.3604 57.2905 18.4446C57.7895 18.7984 58.3459 19.0657 58.9358 19.2351C60.2787 19.6594 61.7044 19.5042 63.0581 19.1877C65.7882 18.5489 67.6352 16.5151 68.48 13.9301C68.7687 13.024 68.8831 12.0725 68.8172 11.1248ZM50.0684 9.79615C50.6601 9.49629 51.6429 9.36948 51.8385 10.3603C52.0618 11.4851 50.2028 13.667 47.6083 14.6922C46.6194 12.9061 48.4675 10.64 50.0684 9.79615ZM64.1921 14.6555C63.6773 15.5681 62.7844 16.4748 61.7176 16.7047C59.6306 17.1563 59.789 14.1577 60.1383 12.9121C60.2799 12.425 60.4814 11.9569 60.7383 11.5183C61.2027 10.704 61.8532 9.80919 62.7856 9.49274C62.8488 9.47141 62.9136 9.45245 62.98 9.43585C63.9305 9.20592 64.6086 9.86845 64.9098 10.7111C65.3982 12.0634 64.8618 13.4715 64.1885 14.6602L64.1921 14.6555ZM21.2138 3.76465C22.1834 3.00256 22.481 1.77943 21.8798 1.03868C21.2786 0.297927 20.0041 0.305037 19.0344 1.06712C18.0648 1.82921 17.7671 3.05352 18.3684 3.79902C18.9696 4.54451 20.2429 4.52792 21.2138 3.76465Z" fill="#12B8EA"/>
</g>
<defs>
<clipPath id="clip0_181_1998">
<rect width="68" height="19" fill="white" transform="translate(0.835449 0.48291)"/>
</clipPath>
</defs>
</svg>
