<svg width="60" height="20" viewBox="0 0 60 20" fill="none" xmlns="http://www.w3.org/2000/svg">
<g clip-path="url(#clip0_181_2005)">
<path d="M3.03343 9.56468H0.671875V6.46797H3.09081V5.6822C3.09081 1.87781 4.71797 0.557617 7.92868 0.557617C8.61847 0.567173 9.30569 0.64891 9.98042 0.801645L9.74632 3.84223C9.33704 3.69623 8.9063 3.6301 8.47489 3.64701C7.44903 3.64701 7.04969 4.43034 7.04969 5.6822V6.46797H9.90238V9.56468H7.0474V19.2599H3.03343V9.56468Z" fill="#3782FF"/>
<path d="M16.007 0.848145H11.9954V19.2576H16.007V0.848145Z" fill="#3782FF"/>
<path d="M23.4521 1.14062H19.4404V4.38131H23.4521V1.14062Z" fill="#3782FF"/>
<path d="M23.4521 6.46777H19.4404V19.2573H23.4521V6.46777Z" fill="#3782FF"/>
<path d="M35.5101 10.1259C34.7852 9.63533 33.9386 9.38713 33.0797 9.41339C31.3424 9.41339 30.0044 10.7409 30.0044 12.9493C30.0044 14.987 31.565 16.312 33.3046 16.312C34.1706 16.3265 35.0269 16.1162 35.7993 15.6995L35.8888 18.989C34.8313 19.3599 33.7251 19.5501 32.6115 19.5527C28.7789 19.5527 25.8596 17.0978 25.8596 12.8761C25.8596 8.65446 28.7789 6.17513 32.6115 6.17513C33.7115 6.14051 34.8036 6.38213 35.7993 6.88038L35.5101 10.1259Z" fill="#3782FF"/>
<path d="M37.5618 0.848145H41.5734V11.844H41.617L44.9609 6.4681H49.3535L45.3189 12.3345L49.6863 19.2576H44.8278L41.617 12.9251H41.5734V19.2576H37.5618V0.848145Z" fill="#3782FF"/>
<path d="M59.4723 10.0041C59.0283 9.88198 58.5693 9.83261 58.1113 9.85767C56.2386 9.85767 55.1921 11.3536 55.1921 13.8573V19.2576H51.1804V6.46813H54.8341V8.83275H54.88C55.5685 7.21241 56.5737 6.18262 58.3225 6.18262C58.7784 6.19164 59.2328 6.24061 59.6811 6.32903L59.4723 10.0041Z" fill="#FF40A0"/>
</g>
<defs>
<clipPath id="clip0_181_2005">
<rect width="59" height="19" fill="white" transform="translate(0.671875 0.552734)"/>
</clipPath>
</defs>
</svg>
