<svg width="128" height="22" viewBox="0 0 128 22" fill="none" xmlns="http://www.w3.org/2000/svg">
<path d="M37.9723 4.05886C37.4837 4.05886 37.0151 4.24477 36.6696 4.57571C36.3241 4.90664 36.13 5.35548 36.13 5.82348V11.9013L29.4354 4.63915C29.1879 4.37056 28.8608 4.18053 28.4977 4.09432C28.1346 4.00811 27.7528 4.02981 27.4029 4.15653C27.053 4.28325 26.7517 4.50898 26.539 4.80372C26.3263 5.09845 26.2123 5.44822 26.2122 5.80652V16.5477C26.2122 16.7794 26.2598 17.0089 26.3524 17.2229C26.445 17.437 26.5807 17.6316 26.7518 17.7954C26.9228 17.9593 27.1259 18.0893 27.3494 18.178C27.5729 18.2666 27.8125 18.3123 28.0544 18.3123C28.2964 18.3123 28.5359 18.2666 28.7595 18.178C28.983 18.0893 29.1861 17.9593 29.3571 17.7954C29.5282 17.6316 29.6639 17.437 29.7565 17.2229C29.8491 17.0089 29.8967 16.7794 29.8967 16.5477V10.4692L36.5913 17.7354C36.8389 18.004 37.1659 18.194 37.529 18.2802C37.8921 18.3664 38.2739 18.3447 38.6238 18.218C38.9737 18.0913 39.275 17.8656 39.4877 17.5708C39.7004 17.2761 39.8144 16.9263 39.8146 16.568V5.82348C39.8146 5.35548 39.6205 4.90664 39.275 4.57571C38.9295 4.24477 38.4609 4.05886 37.9723 4.05886Z" fill="#01E787"/>
<path d="M50.186 4.58824C50.0399 4.2801 49.8044 4.01869 49.5076 3.83518C49.2107 3.65166 48.865 3.55379 48.5117 3.55322V3.55322C48.1574 3.55362 47.8108 3.65186 47.5133 3.83615C47.2158 4.02045 46.9802 4.28299 46.8345 4.59232L41.4791 15.9742C41.3797 16.1854 41.3247 16.4134 41.3173 16.645C41.3098 16.8767 41.3501 17.1075 41.4358 17.3242C41.5214 17.5409 41.6508 17.7394 41.8165 17.9082C41.9823 18.0771 42.1811 18.213 42.4017 18.3082C42.6223 18.4034 42.8603 18.4561 43.1021 18.4633C43.3439 18.4704 43.5849 18.4318 43.8112 18.3498C44.0374 18.2677 44.2446 18.1438 44.4209 17.985C44.5971 17.8263 44.739 17.6358 44.8385 17.4245L45.8446 15.286H51.2042L52.2175 17.4279C52.4192 17.8543 52.7895 18.1864 53.2469 18.3512C53.7043 18.516 54.2113 18.5001 54.6564 18.3069C55.1015 18.1136 55.4482 17.7589 55.6203 17.3208C55.7924 16.8827 55.7757 16.3971 55.574 15.9708L50.186 4.58824ZM47.3071 12.1639L48.5117 9.60182L49.7241 12.1639H47.3071Z" fill="#01E787"/>
<path d="M67.9377 3.88448C67.4988 3.67883 66.9925 3.6486 66.5304 3.80045C66.0682 3.95229 65.688 4.27377 65.4733 4.69417L61.3763 12.7151L57.115 4.52992C57.0084 4.32027 56.8596 4.13291 56.677 3.97869C56.4944 3.82447 56.2817 3.70644 56.0512 3.63142C55.8207 3.5564 55.577 3.52588 55.3341 3.54163C55.0912 3.55737 54.854 3.61907 54.6362 3.72315C54.4183 3.82723 54.2242 3.97163 54.0649 4.14801C53.9057 4.32439 53.7846 4.52925 53.7085 4.75075C53.6324 4.97224 53.6029 5.20599 53.6217 5.43847C53.6405 5.67095 53.7072 5.89755 53.818 6.10519L59.7431 17.487C59.8959 17.7806 60.1311 18.0276 60.4224 18.2003C60.7136 18.3729 61.0494 18.4644 61.3919 18.4644H61.399C61.743 18.4634 62.0798 18.3702 62.3713 18.1953C62.6629 18.0204 62.8974 17.7708 63.0485 17.4748L68.7837 6.245C68.89 6.0368 68.9524 5.81059 68.9674 5.57928C68.9824 5.34797 68.9497 5.11609 68.8711 4.89689C68.7926 4.67769 68.6697 4.47546 68.5095 4.30175C68.3494 4.12804 68.155 3.98625 67.9377 3.88448V3.88448Z" fill="#01E787"/>
<path d="M81.7892 14.9958H74.1572V12.828H79.9512C80.3834 12.828 80.7979 12.6636 81.1036 12.3708C81.4092 12.0781 81.5809 11.681 81.5809 11.267C81.5809 10.853 81.4092 10.456 81.1036 10.1632C80.7979 9.87047 80.3834 9.70601 79.9512 9.70601H74.1572V7.53755H81.5355C82.0241 7.53755 82.4927 7.35164 82.8382 7.0207C83.1837 6.68977 83.3778 6.24093 83.3778 5.77293C83.3778 5.30492 83.1837 4.85608 82.8382 4.52515C82.4927 4.19422 82.0241 4.0083 81.5355 4.0083H72.3149C71.8263 4.0083 71.3577 4.19422 71.0122 4.52515C70.6668 4.85608 70.4727 5.30492 70.4727 5.77293V16.7604C70.4727 17.2284 70.6668 17.6773 71.0122 18.0082C71.3577 18.3391 71.8263 18.5251 72.3149 18.5251H81.7892C82.2778 18.5251 82.7464 18.3391 83.0919 18.0082C83.4374 17.6773 83.6315 17.2284 83.6315 16.7604C83.6315 16.2924 83.4374 15.8436 83.0919 15.5127C82.7464 15.1817 82.2778 14.9958 81.7892 14.9958V14.9958Z" fill="#01E787"/>
<path d="M91.8657 4.31689H85.4553C85.2311 4.31689 85.016 4.40218 84.8573 4.55401C84.6987 4.70583 84.6095 4.91178 84.6093 5.12659V11.7826C84.5982 11.8584 84.5926 11.9348 84.5923 12.0113V16.9591C84.5923 17.3821 84.7677 17.7878 85.08 18.0869C85.3923 18.386 85.8158 18.554 86.2574 18.554C86.699 18.554 87.1226 18.386 87.4348 18.0869C87.7471 17.7878 87.9226 17.3821 87.9226 16.9591V13.6063H89.3978L93.2418 17.8231C93.5322 18.1418 93.9429 18.3369 94.3836 18.3655C94.8242 18.3942 95.2587 18.254 95.5914 17.9758C95.9241 17.6976 96.1278 17.3042 96.1577 16.8821C96.1876 16.4601 96.0413 16.0439 95.7508 15.7252L93.3948 13.14C94.2913 12.8369 95.0675 12.275 95.6166 11.5317C96.1657 10.7884 96.4607 9.90032 96.4608 8.98976V8.71828C96.4609 8.14026 96.3421 7.56788 96.1112 7.03384C95.8803 6.4998 95.5419 6.01456 95.1152 5.60583C94.6884 5.19711 94.1818 4.87291 93.6243 4.65175C93.0668 4.43059 92.4692 4.31681 91.8657 4.31689V4.31689ZM87.9396 7.5068H91.8657C92.201 7.50698 92.5225 7.63458 92.7596 7.86159C92.9968 8.0886 93.1302 8.39647 93.1305 8.7176V8.98908C93.1302 9.31022 92.9968 9.61808 92.7596 9.84509C92.5225 10.0721 92.201 10.1997 91.8657 10.1999H87.9396V7.5068Z" fill="#01E787"/>
<path d="M126.203 3.68944C126.003 3.60472 125.787 3.55858 125.569 3.55366C125.35 3.54874 125.132 3.58514 124.929 3.66077C124.725 3.73641 124.538 3.8498 124.38 3.99446C124.222 4.13912 124.095 4.31223 124.006 4.50388L120.526 12.0857L116.938 4.57175C116.806 4.29392 116.593 4.05844 116.324 3.89334C116.056 3.72825 115.744 3.64052 115.425 3.64058H101.957C101.516 3.64058 101.092 3.80861 100.78 4.10772C100.467 4.40683 100.292 4.81252 100.292 5.23553C100.292 5.65853 100.467 6.06422 100.78 6.36333C101.092 6.66244 101.516 6.83048 101.957 6.83048H107.295V15.8918C107.295 16.3148 107.471 16.7205 107.783 17.0196C108.095 17.3187 108.519 17.4868 108.961 17.4868C109.402 17.4868 109.826 17.3187 110.138 17.0196C110.45 16.7205 110.626 16.3148 110.626 15.8918V6.83319H114.356L119.044 16.6465C119.177 16.9248 119.39 17.1605 119.659 17.3256C119.928 17.4907 120.241 17.5782 120.561 17.5777H120.573C120.894 17.5756 121.207 17.4848 121.475 17.3162C121.744 17.1477 121.955 16.9085 122.085 16.6275L127.06 5.79206C127.148 5.6001 127.196 5.3934 127.2 5.1838C127.205 4.97419 127.166 4.76577 127.087 4.57049C127.007 4.3752 126.888 4.19686 126.736 4.04568C126.585 3.89451 126.403 3.77345 126.203 3.68944Z" fill="url(#paint0_linear_195_9)"/>
<path d="M6.81784 18.6494C6.81683 19.4131 6.49311 20.1453 5.91736 20.6863C5.34162 21.2273 4.56061 21.5331 3.74485 21.5369C2.9291 21.5331 2.14809 21.2273 1.57234 20.6863C0.996596 20.1453 0.672885 19.4131 0.671875 18.6494V3.46773C0.671865 2.70347 0.995128 1.97029 1.57098 1.42852C2.14684 0.886756 2.92843 0.580481 3.74485 0.57666C4.56128 0.580481 5.34287 0.886756 5.91873 1.42852C6.49459 1.97029 6.81785 2.70347 6.81784 3.46773V18.6494Z" fill="url(#paint1_linear_195_9)"/>
<path d="M5.4473 21.1112C4.75609 21.5167 3.92158 21.6497 3.12596 21.4813C2.33035 21.3128 1.63823 20.8565 1.20071 20.2121C0.769032 19.5632 0.629443 18.7807 0.812482 18.0357C0.99552 17.2908 1.48629 16.644 2.17743 16.2369L14.9604 8.72008C15.6516 8.31461 16.4861 8.1816 17.2818 8.35005C18.0774 8.51851 18.7695 8.97474 19.207 9.6192C19.6386 10.2682 19.7781 11.0508 19.5949 11.7957C19.4117 12.5407 18.9208 13.1874 18.2295 13.5944L5.4473 21.1112Z" fill="url(#paint2_linear_195_9)"/>
<path d="M5.4473 0.994525C4.75609 0.589048 3.92158 0.456005 3.12596 0.62446C2.33035 0.792915 1.63823 1.24918 1.20071 1.89364C0.769032 2.54252 0.629443 3.32499 0.812482 4.06996C0.99552 4.81492 1.48629 5.46173 2.17743 5.86886L14.9573 13.3856C15.6485 13.7911 16.483 13.9241 17.2787 13.7557C18.0743 13.5872 18.7664 13.131 19.2039 12.4865C19.6355 11.8376 19.775 11.055 19.5918 10.31C19.4086 9.56503 18.9177 8.91831 18.2264 8.5113L5.4473 0.994525Z" fill="#09EF93"/>
<defs>
<linearGradient id="paint0_linear_195_9" x1="100.292" y1="5.17798" x2="123.021" y2="13.2155" gradientUnits="userSpaceOnUse">
<stop stop-color="#1AC7E2"/>
<stop offset="1" stop-color="#01D64D"/>
</linearGradient>
<linearGradient id="paint1_linear_195_9" x1="3.74486" y1="0.698808" x2="3.74486" y2="21.5001" gradientUnits="userSpaceOnUse">
<stop stop-color="#0CABC1"/>
<stop offset="1" stop-color="#35C3E0"/>
</linearGradient>
<linearGradient id="paint2_linear_195_9" x1="-1.95477" y1="17.3095" x2="16.9829" y2="17.3095" gradientUnits="userSpaceOnUse">
<stop stop-color="#3DBCDA"/>
<stop offset="0.16" stop-color="#3CBCD9"/>
<stop offset="0.61" stop-color="#1FD6C3"/>
<stop offset="0.74" stop-color="#06EEAF"/>
</linearGradient>
</defs>
</svg>
