<svg width="41" height="19" viewBox="0 0 41 19" fill="none" xmlns="http://www.w3.org/2000/svg">
<g clip-path="url(#clip0_181_2137)">
<g style="mix-blend-mode:multiply">
<path d="M8.0917 15.5568C7.16555 15.5567 6.26519 15.2597 5.52961 14.7118C4.79403 14.1639 4.26413 13.3954 4.02173 12.525H15.1733C15.2329 12.1606 15.263 11.7921 15.2632 11.423C15.2632 10.507 15.0779 9.59989 14.7179 8.75358C14.3578 7.90727 13.8301 7.13829 13.1648 6.49058C12.4996 5.84286 11.7098 5.32909 10.8406 4.97858C9.97135 4.62807 9.03975 4.44769 8.09895 4.44775C7.15819 4.44775 6.22664 4.62818 5.3575 4.97872C4.48835 5.32926 3.69862 5.84305 3.0334 6.49076C2.36818 7.13847 1.84051 7.90742 1.48049 8.7537C1.12048 9.59998 0.935181 10.507 0.935181 11.423C0.935181 12.339 1.12048 13.246 1.48049 14.0923C1.84051 14.9386 2.36818 15.7076 3.0334 16.3553C3.69862 17.003 4.48835 17.5168 5.3575 17.8673C6.22664 18.2178 7.15819 18.3983 8.09895 18.3983C9.50057 18.3984 10.8715 17.9983 12.0419 17.2475C13.2123 16.4967 14.131 15.4281 14.684 14.1741H11.2459C10.8509 14.6091 10.3654 14.9574 9.82155 15.1958C9.27774 15.4341 8.68808 15.5572 8.0917 15.5568ZM8.0917 7.34622C8.99486 7.34626 9.87417 7.62857 10.6002 8.15162C11.3263 8.67466 11.8607 9.41083 12.1249 10.2518H4.05896C4.3229 9.41069 4.85719 8.67434 5.58317 8.15111C6.30915 7.62788 7.18847 7.3454 8.0917 7.34528V7.34622Z" fill="#EB2F7A"/>
</g>
<g style="mix-blend-mode:multiply">
<path d="M25.5421 15.5567V0.48291H20.6986V3.40917H22.6881V5.99835C21.4632 5.10161 19.9717 4.61773 18.4392 4.61995C16.5612 4.61995 14.7601 5.34637 13.4322 6.63939C12.1042 7.93241 11.3582 9.6861 11.3582 11.5147C11.3585 13.3428 12.1045 15.096 13.4322 16.3886C14.7598 17.6813 16.5603 18.4077 18.4378 18.4081C19.9704 18.4104 21.4619 17.9263 22.6866 17.0292V18.4815H27.8759V15.5553L25.5421 15.5567ZM18.4392 15.5378C17.3438 15.5366 16.2936 15.1123 15.519 14.3581C14.7444 13.6039 14.3087 12.5813 14.3074 11.5147C14.3087 10.4481 14.7444 9.42553 15.519 8.67132C16.2936 7.91711 17.3438 7.49284 18.4392 7.49159C19.5347 7.49284 20.5849 7.91711 21.3595 8.67132C22.1341 9.42553 22.5698 10.4481 22.5711 11.5147C22.5694 12.5813 22.1333 13.6038 21.3585 14.3577C20.5836 15.1117 19.5332 15.5356 18.4378 15.5364L18.4392 15.5378Z" fill="#989898"/>
</g>
<g style="mix-blend-mode:multiply">
<path d="M39.1791 3.47224H40.9351V0.48291H33.6703V3.47224H35.1449L32.3349 6.87113L29.5254 3.47224H31.0972V0.48291H23.8324V3.47224H25.6933L25.5705 3.56875L30.3178 9.31108L25.2074 15.4936H23.8324V18.4829H31.0972V15.4936H29.2416L32.3349 11.7515L35.4283 15.4936H33.6703V18.4829H40.9351V15.4936H39.4625L34.352 9.31108L39.1791 3.47224Z" fill="#57B2F1"/>
</g>
</g>
<defs>
<clipPath id="clip0_181_2137">
<rect width="40" height="18" fill="white" transform="translate(0.935181 0.48291)"/>
</clipPath>
</defs>
</svg>
