<svg width="86" height="32" viewBox="0 0 86 32" fill="none" xmlns="http://www.w3.org/2000/svg">
<g clip-path="url(#clip0_181_2067)">
<path d="M16.2818 6.16856C17.5969 6.16496 18.8998 6.41979 20.1149 6.91828C21.33 7.41677 22.4332 8.14906 23.3606 9.07271C24.293 9.99142 25.0323 11.0842 25.5355 12.2877C26.0388 13.4913 26.2961 14.7818 26.2925 16.0845C26.2964 17.3876 26.0392 18.6785 25.5359 19.8824C25.0327 21.0864 24.2933 22.1795 23.3606 23.0984C22.4332 24.0221 21.33 24.7543 20.1149 25.2528C18.8998 25.7513 17.5969 26.0062 16.2818 26.0026C14.9667 26.0062 13.6639 25.7514 12.4489 25.2529C11.2339 24.7544 10.1308 24.0221 9.20345 23.0984C8.27089 22.1799 7.53153 21.0873 7.02818 19.8838C6.52483 18.6803 6.26747 17.3898 6.27103 16.0871C6.26743 14.7844 6.52476 13.4939 7.02812 12.2903C7.53147 11.0867 8.27085 9.99393 9.20345 9.07531C10.1308 8.15163 11.2339 7.41933 12.4489 6.92083C13.6639 6.42233 14.9667 6.16754 16.2818 6.17119V6.16856ZM16.2818 5.12598C10.1705 5.12598 5.21582 10.0332 5.21582 16.0871C5.21582 22.141 10.1705 27.0478 16.2818 27.0478C22.393 27.0478 27.3477 22.1405 27.3477 16.0871C27.3477 10.0338 22.3935 5.12598 16.2818 5.12598Z" fill="#4A7BFF"/>
<path d="M16.2817 7.89782C17.3675 7.89471 18.443 8.10494 19.4462 8.51633C20.4494 8.92772 21.3602 9.53209 22.126 10.2945C22.8958 11.053 23.5061 11.9552 23.9216 12.9488C24.3371 13.9425 24.5495 15.0079 24.5466 16.0834C24.5495 17.1588 24.3371 18.2242 23.9216 19.2177C23.5061 20.2113 22.8958 21.1134 22.126 21.8718C21.3603 22.6344 20.4495 23.239 19.4463 23.6505C18.4432 24.0621 17.3675 24.2725 16.2817 24.2695C15.196 24.2726 14.1204 24.0622 13.1174 23.6506C12.1143 23.239 11.2036 22.6344 10.438 21.8718C9.66814 21.1135 9.05779 20.2114 8.64228 19.2178C8.22678 18.2242 8.01437 17.1589 8.01736 16.0834C8.01433 15.0079 8.22671 13.9424 8.64222 12.9488C9.05772 11.9551 9.6681 11.0529 10.438 10.2945C11.2036 9.53187 12.1143 8.92726 13.1174 8.51569C14.1204 8.10411 15.196 7.89376 16.2817 7.89678V7.89782ZM16.2817 6.85156C15.0578 6.85156 13.8459 7.09035 12.7152 7.5543C11.5844 8.01825 10.557 8.69828 9.69161 9.55554C8.8262 10.4128 8.13974 11.4305 7.67142 12.5506C7.2031 13.6706 6.96209 14.8711 6.96216 16.0834C6.96216 18.5317 7.94403 20.8797 9.6918 22.6109C11.4396 24.3422 13.81 25.3148 16.2817 25.3148C18.7535 25.3148 21.124 24.3422 22.8719 22.611C24.6197 20.8798 25.6017 18.5318 25.6018 16.0834C25.6018 13.635 24.6199 11.2868 22.872 9.55549C21.1242 7.82418 18.7536 6.85156 16.2817 6.85156Z" fill="#4A7BFF"/>
<path d="M16.2818 9.70942C17.1273 9.7071 17.965 9.87095 18.7462 10.1915C19.5274 10.512 20.2366 10.9828 20.8329 11.5767C21.4324 12.1673 21.9078 12.8698 22.2313 13.6436C22.5549 14.4174 22.7203 15.2472 22.718 16.0847C22.72 16.9218 22.5544 17.751 22.2308 18.5244C21.9073 19.2977 21.4321 19.9998 20.8329 20.5901C20.2366 21.184 19.5274 21.6548 18.7462 21.9753C17.965 22.2959 17.1273 22.4597 16.2818 22.4574C15.4362 22.4596 14.5986 22.2958 13.8174 21.9753C13.0362 21.6548 12.3269 21.1839 11.7307 20.5901C11.1312 19.9996 10.6559 19.2971 10.3323 18.5234C10.0087 17.7497 9.84326 16.9201 9.84553 16.0826C9.84319 15.2451 10.0086 14.4154 10.3322 13.6415C10.6558 12.8677 11.1311 12.1652 11.7307 11.5746C12.3269 10.9808 13.0362 10.51 13.8174 10.1895C14.5986 9.86894 15.4362 9.70506 16.2818 9.70732V9.70942ZM16.2818 8.66211C14.2948 8.66211 12.3892 9.44399 10.9841 10.8357C9.57912 12.2274 8.78979 14.115 8.78979 16.0831C8.78979 18.0513 9.57912 19.9389 10.9841 21.3306C12.3892 22.7223 14.2948 23.5042 16.2818 23.5042C18.2688 23.5042 20.1744 22.7223 21.5794 21.3306C22.9844 19.9389 23.7737 18.0513 23.7737 16.0831C23.7737 14.115 22.9844 12.2274 21.5794 10.8357C20.1744 9.44399 18.2688 8.66211 16.2818 8.66211Z" fill="#4A7BFF"/>
<path d="M21.7086 16.0848C21.7104 14.9347 21.3379 13.8146 20.6465 12.8906V19.2784C21.3379 18.3546 21.7103 17.2348 21.7086 16.0848Z" fill="#4A7BFF"/>
<path d="M18.2166 11.0615V21.1081C18.6613 20.9396 19.0817 20.7138 19.467 20.4366V11.7325C19.0818 11.4552 18.6614 11.2296 18.2166 11.0615Z" fill="#4A7BFF"/>
<path d="M16.2818 10.709C16.1145 10.709 15.9494 10.7168 15.7864 10.7314V21.4371C15.9494 21.4517 16.1145 21.4595 16.2818 21.4595C16.5344 21.4594 16.7866 21.4419 17.0368 21.4073V10.7607C16.7866 10.7263 16.5344 10.709 16.2818 10.709Z" fill="#4A7BFF"/>
<path d="M10.8547 16.0844C10.8528 17.3757 11.3222 18.624 12.1764 19.5995V12.5688C11.3221 13.5444 10.8528 14.793 10.8547 16.0844Z" fill="#4A7BFF"/>
<path d="M13.3567 11.5561V20.6123C13.7464 20.8598 14.1667 21.0567 14.6071 21.1981V10.9702C14.1667 11.1116 13.7464 11.3085 13.3567 11.5561Z" fill="#4A7BFF"/>
<path d="M15.3796 0.596771L15.559 3.91949C16.0143 3.87354 16.4734 3.87811 16.9276 3.93309L17.1276 0.603558C16.547 0.53749 15.9608 0.535217 15.3796 0.596771Z" fill="#4A7BFF"/>
<path d="M12.1553 1.12427L13.0279 4.33725C13.4639 4.19857 13.9141 4.10849 14.3701 4.06865L13.8663 0.770996C13.2845 0.825575 12.7106 0.944051 12.1553 1.12427Z" fill="#4A7BFF"/>
<path d="M9.11206 2.30464L10.6421 5.26783C11.0393 5.04235 11.4607 4.86146 11.8983 4.72851L10.7133 1.60645C10.1552 1.78003 9.61822 2.01418 9.11206 2.30464Z" fill="#4A7BFF"/>
<path d="M6.38379 4.08554L8.50053 6.6693C8.84159 6.36681 9.2157 6.10301 9.61589 5.88279L7.80198 3.07324C7.29294 3.35773 6.81731 3.69724 6.38379 4.08554Z" fill="#4A7BFF"/>
<path d="M4.08838 6.38944L6.7016 8.47986C6.97172 8.11383 7.28228 7.77886 7.62753 7.48117L5.26335 5.10645C4.82537 5.49013 4.43135 5.92038 4.08838 6.38944Z" fill="#4A7BFF"/>
<path d="M2.32983 9.11585L5.32451 10.6236C5.51201 10.2098 5.7456 9.81797 6.02094 9.45554L3.20987 7.61963C2.86149 8.08455 2.56633 8.58636 2.32983 9.11585Z" fill="#4A7BFF"/>
<path d="M1.17651 12.1452L4.42233 13.0033C4.51865 12.56 4.66483 12.1287 4.85813 11.7177L1.72312 10.5005C1.48017 11.027 1.29684 11.5786 1.17651 12.1452Z" fill="#4A7BFF"/>
<path d="M0.686785 15.3455L4.04181 15.5159C4.04385 15.0623 4.09694 14.6104 4.20009 14.1686L0.876187 13.624C0.749063 14.1892 0.685547 14.7665 0.686785 15.3455Z" fill="#4A7BFF"/>
<path d="M0.879426 18.5771L4.19699 18.0545C4.10304 17.6107 4.05951 17.1579 4.0672 16.7046L0.70373 16.8556C0.698159 17.4341 0.757084 18.0114 0.879426 18.5771Z" fill="#4A7BFF"/>
<path d="M1.74629 21.6977L4.88132 20.5015C4.69646 20.0867 4.55879 19.6529 4.47084 19.208L1.21289 20.0484C1.32859 20.616 1.50748 21.1692 1.74629 21.6977Z" fill="#4A7BFF"/>
<path d="M3.24876 24.5718L6.06458 22.7568C5.79658 22.3892 5.57094 21.993 5.39189 21.5757L2.38086 23.0688C2.6136 23.5998 2.90466 24.1038 3.24876 24.5718Z" fill="#4A7BFF"/>
<path d="M5.3223 27.074L7.69652 24.7181C7.3572 24.4139 7.05335 24.0729 6.79063 23.7017L4.15894 25.7827C4.49777 26.2541 4.88791 26.6871 5.3223 27.074Z" fill="#4A7BFF"/>
<path d="M7.87587 29.0939L9.70243 26.3011C9.30653 26.0734 8.93771 25.8024 8.6029 25.4932L6.46558 28.0707C6.89614 28.4622 7.36913 28.8054 7.87587 29.0939Z" fill="#4A7BFF"/>
<path d="M10.7972 30.5439L11.9975 27.4359C11.5626 27.2947 11.145 27.1057 10.7524 26.8726L9.20337 29.8331C9.70648 30.1277 10.241 30.3661 10.7972 30.5439Z" fill="#4A7BFF"/>
<path d="M13.9591 31.3608L14.4809 28.0736C14.0259 28.025 13.5778 27.9262 13.145 27.7788L12.2507 30.9939C12.8048 31.1784 13.3777 31.3014 13.9591 31.3608Z" fill="#4A7BFF"/>
<path d="M17.2235 31.5087L17.0442 28.186C16.5887 28.2319 16.1295 28.2273 15.675 28.1724L15.4756 31.5019C16.0562 31.568 16.6424 31.5702 17.2235 31.5087Z" fill="#4A7BFF"/>
<path d="M20.4478 30.9811L19.5746 27.7681C19.1389 27.9068 18.6888 27.9969 18.2329 28.0367L18.7368 31.3343C19.3186 31.2797 19.8924 31.1612 20.4478 30.9811Z" fill="#4A7BFF"/>
<path d="M23.4904 29.8011L21.9603 26.8379C21.5631 27.0634 21.1418 27.2443 20.7041 27.3772L21.8886 30.4993C22.4469 30.3258 22.9841 30.0917 23.4904 29.8011Z" fill="#4A7BFF"/>
<path d="M26.2192 28.0198L24.1024 25.436C23.7613 25.7384 23.3872 26.0022 22.9871 26.2226L24.801 29.0321C25.3101 28.7478 25.7858 28.4083 26.2192 28.0198Z" fill="#4A7BFF"/>
<path d="M28.5147 25.7164L25.9015 23.626C25.6311 23.9918 25.3206 24.3267 24.9756 24.6247L27.3397 26.9994C27.7777 26.6157 28.1717 26.1855 28.5147 25.7164Z" fill="#4A7BFF"/>
<path d="M30.2758 22.9897L27.2812 21.4819C27.0937 21.8958 26.8601 22.2875 26.5847 22.65L29.3958 24.4859C29.744 24.0208 30.0391 23.519 30.2758 22.9897Z" fill="#4A7BFF"/>
<path d="M31.4265 19.9631L28.1807 19.105C28.0841 19.5482 27.9379 19.9794 27.7449 20.3906L30.8799 21.6078C31.1226 21.0811 31.3059 20.5296 31.4265 19.9631Z" fill="#4A7BFF"/>
<path d="M31.9162 16.7597L28.5611 16.5894C28.5591 17.0429 28.506 17.4948 28.4028 17.9366L31.7267 18.4812C31.8536 17.916 31.9171 17.3387 31.9162 16.7597Z" fill="#4A7BFF"/>
<path d="M31.7236 13.5283L28.406 14.0509C28.4997 14.4947 28.5432 14.9475 28.5358 15.4008L31.8993 15.2498C31.9048 14.6713 31.8459 14.094 31.7236 13.5283Z" fill="#4A7BFF"/>
<path d="M30.8567 10.4082L27.7217 11.6039C27.9066 12.0186 28.0441 12.4524 28.1316 12.8974L31.3901 12.057C31.2743 11.4896 31.0954 10.9366 30.8567 10.4082Z" fill="#4A7BFF"/>
<path d="M29.3536 7.53369L26.5383 9.3487C26.8063 9.71631 27.032 10.1125 27.211 10.5298L30.2215 9.03672C29.9892 8.50547 29.6981 8.00137 29.3536 7.53369Z" fill="#4A7BFF"/>
<path d="M27.2802 5.03125L24.906 7.38717C25.2453 7.69144 25.5492 8.03238 25.8119 8.40362L28.4462 6.32261C28.1068 5.85093 27.7157 5.41785 27.2802 5.03125Z" fill="#4A7BFF"/>
<path d="M24.727 3.01172L22.9004 5.80453C23.2962 6.03234 23.665 6.30335 23.9999 6.61248L26.1373 4.03499C25.7066 3.64356 25.2336 3.30039 24.727 3.01172Z" fill="#4A7BFF"/>
<path d="M21.8058 1.56152L20.605 4.66945C21.04 4.81061 21.4576 4.99959 21.8501 5.23283L23.3997 2.27227C22.8964 1.97791 22.3619 1.73954 21.8058 1.56152Z" fill="#4A7BFF"/>
<path d="M18.6439 0.744629L18.1216 4.03185C18.5768 4.08032 19.025 4.17917 19.458 4.32658L20.3549 1.1115C19.8 0.92691 19.2262 0.803866 18.6439 0.744629Z" fill="#4A7BFF"/>
<path d="M43.733 8.51318C47.156 8.51318 49.1145 10.6303 49.1145 13.6185C49.1145 16.6214 47.1239 18.7019 43.6644 18.7019H40.9609V23.6212H37.8391V8.51318H43.733ZM43.16 16.1715C45.0108 16.1715 45.9072 15.1309 45.9072 13.6185C45.9072 12.1061 45.0103 11.0881 43.1526 11.0881H40.9636V16.1715H43.16Z" fill="#4A7BFF"/>
<path d="M82.5076 23.7301V12.5547H85.5856V23.7301H82.5076Z" fill="#4A7BFF"/>
<path d="M63.8136 12.2804C56.9943 12.4675 56.329 23.1094 63.1055 24.0595C68.2729 24.7843 69.6884 21.1616 69.6884 21.1616L67.4234 20.1096C67.4234 20.1096 66.2669 22.1666 64.2146 21.933C62.1622 21.6994 61.6193 20.0866 61.3829 19.1982H70.0425C70.0425 19.1982 70.6323 12.0949 63.8136 12.2804ZM61.4067 17.2353C61.4067 17.2353 61.5011 14.454 64.3085 14.4075C67.1158 14.3609 67.3754 17.2353 67.3754 17.2353H61.4067Z" fill="#4A7BFF"/>
<path d="M80.6361 23.8046V21.467H74.7375L80.6599 12.4692H71.057V14.8528H76.2006L70.4434 23.8276L80.6361 23.8046Z" fill="#4A7BFF"/>
<path d="M84.019 11.1441C84.9395 11.1441 85.6857 10.405 85.6857 9.4932C85.6857 8.58143 84.9395 7.84229 84.019 7.84229C83.0985 7.84229 82.3523 8.58143 82.3523 9.4932C82.3523 10.405 83.0985 11.1441 84.019 11.1441Z" fill="#4A7BFF"/>
<path d="M53.7051 14.4439V12.4319H50.7236V23.761H53.7051V17.3183C53.7051 17.3183 54.4913 14.9017 57.6094 14.8751V12.3248C57.6094 12.3248 55.5122 12.0154 53.7051 14.4439Z" fill="#4A7BFF"/>
</g>
<defs>
<clipPath id="clip0_181_2067">
<rect width="85" height="31" fill="white" transform="translate(0.685791 0.552734)"/>
</clipPath>
</defs>
</svg>
