<svg width="94" height="24" viewBox="0 0 94 24" fill="none" xmlns="http://www.w3.org/2000/svg">
<path d="M19.8903 12.1652C19.8903 13.8911 21.1765 15.3052 22.8396 15.5057C23.1168 14.4367 23.261 13.3121 23.261 12.1652C23.261 11.0072 23.1168 9.89366 22.8396 8.82471C21.1765 9.02514 19.8903 10.4504 19.8903 12.1652Z" fill="#E02B26"/>
<path d="M3.98499 12.1652C3.98499 13.8911 2.69879 15.3052 1.0356 15.5057C0.758401 14.4367 0.614259 13.3121 0.614259 12.1652C0.614259 11.0072 0.758401 9.89366 1.0356 8.82471C2.69879 9.02514 3.98499 10.4504 3.98499 12.1652Z" fill="#E02B26"/>
<path d="M17.9407 11.1099C17.353 11.1099 16.8873 11.5887 16.8873 12.1677C16.8873 12.7467 17.3641 13.2255 17.9407 13.2255C18.5172 13.2255 18.994 12.7467 18.994 12.1677C18.994 11.5887 18.5283 11.1099 17.9407 11.1099Z" fill="#E02B26"/>
<path d="M5.93457 11.1099C6.52222 11.1099 6.98792 11.5887 6.98792 12.1677C6.98792 12.7467 6.51114 13.2255 5.93457 13.2255C5.358 13.2255 4.88122 12.7467 4.88122 12.1677C4.88122 11.5887 5.34691 11.1099 5.93457 11.1099Z" fill="#E02B26"/>
<path d="M11.6199 20.4829C9.90132 20.4829 8.49316 21.7746 8.29358 23.4448C9.35802 23.7232 10.4779 23.8679 11.631 23.8679C12.7842 23.8679 13.893 23.7232 14.9574 23.4448C14.7578 21.7746 13.3386 20.4829 11.6199 20.4829Z" fill="#E02B26"/>
<path d="M11.6204 17.4673C11.0327 17.4673 10.567 17.9461 10.567 18.5251C10.567 19.1041 11.0327 19.5829 11.6204 19.5829C12.1969 19.5829 12.6737 19.1041 12.6737 18.5251C12.6737 17.9461 12.208 17.4673 11.6204 17.4673Z" fill="#E02B26"/>
<path d="M11.6183 3.90504C13.337 3.90504 14.7451 2.61339 14.9447 0.943148C13.8803 0.664774 12.7604 0.52002 11.6183 0.52002C10.4652 0.52002 9.35641 0.664774 8.28088 0.943148C8.49155 2.61339 9.9108 3.90504 11.6183 3.90504Z" fill="#E02B26"/>
<path d="M11.6204 4.81885C11.0327 4.81885 10.567 5.29765 10.567 5.87667C10.567 6.45569 11.0327 6.93449 11.6204 6.93449C12.1969 6.93449 12.6737 6.45569 12.6737 5.87667C12.6737 5.28652 12.208 4.81885 11.6204 4.81885Z" fill="#E02B26"/>
<path d="M17.464 18.0354C16.2554 19.2491 16.1667 21.1643 17.1868 22.4894C19.1272 21.3425 20.7571 19.7056 21.8991 17.757C20.5908 16.7326 18.6837 16.8217 17.464 18.0354Z" fill="#E02B26"/>
<path d="M6.41125 18.0354C7.61983 19.2491 7.70854 21.1643 6.68845 22.4894C4.74807 21.3425 3.11815 19.7056 1.97609 17.757C3.28447 16.7326 5.19158 16.8217 6.41125 18.0354Z" fill="#E02B26"/>
<path d="M15.3444 15.8954C14.9342 16.3074 14.9342 16.9755 15.3444 17.3875C15.7547 17.7995 16.42 17.7995 16.8302 17.3875C17.2405 16.9755 17.2405 16.3074 16.8302 15.8954C16.42 15.4834 15.7547 15.4834 15.3444 15.8954Z" fill="#E02B26"/>
<path d="M8.53081 15.8954C8.94106 16.3074 8.94106 16.9755 8.53081 17.3875C8.12056 17.7995 7.45529 17.7995 7.04504 17.3875C6.63479 16.9755 6.63479 16.3074 7.04504 15.8954C7.45529 15.4834 8.12056 15.4834 8.53081 15.8954Z" fill="#E02B26"/>
<path d="M17.4635 6.30994C18.672 7.52364 20.5792 7.61272 21.8986 6.58831C20.7566 4.63969 19.1266 3.00286 17.1863 1.85596C16.1551 3.18102 16.2438 5.09623 17.4635 6.30994Z" fill="#E02B26"/>
<path d="M6.41178 6.30994C5.2032 7.52364 3.29608 7.61272 1.97662 6.58831C3.11868 4.63969 4.7486 3.00286 6.68898 1.85596C7.72015 3.18102 7.63145 5.09623 6.41178 6.30994Z" fill="#E02B26"/>
<path d="M16.8195 8.44805C17.2297 8.03606 17.2297 7.36796 16.8195 6.95597C16.4092 6.54397 15.7439 6.54397 15.3337 6.95597C14.9234 7.36796 14.9234 8.03606 15.3337 8.44805C15.7439 8.86004 16.4092 8.86004 16.8195 8.44805Z" fill="#E02B26"/>
<path d="M7.05577 8.44805C6.64552 8.03606 6.64552 7.36796 7.05577 6.95597C7.46602 6.54397 8.1313 6.54397 8.54155 6.95597C8.95181 7.36796 8.95181 8.03606 8.54155 8.44805C8.1313 8.86004 7.46602 8.86004 7.05577 8.44805Z" fill="#E02B26"/>
<path d="M38.6623 17.1116C38.6623 19.3942 37.1876 20.2516 34.9479 20.2516H34.9035C32.6638 20.2516 31.1891 19.4276 31.1891 17.1116V8.21476C31.1891 6.01004 32.6638 5.07471 34.9035 5.07471H34.9479C37.1876 5.07471 38.6623 6.01004 38.6623 8.21476V9.97408H36.2119V8.59335C36.2119 7.5578 35.7019 7.23489 34.9257 7.23489C34.1496 7.23489 33.6395 7.5578 33.6395 8.59335V16.7219C33.6395 17.7574 34.1496 18.0803 34.9257 18.0803C35.7019 18.0803 36.2119 17.7574 36.2119 16.7219V14.9848H38.6623V17.1116Z" fill="#E02B26"/>
<path d="M47.333 16.7634H44.6387L44.1065 20.0705H41.7448L44.4835 5.23877H47.5659L50.349 20.0705H47.8653L47.333 16.7634ZM47.0226 14.7369L45.9914 8.14499L44.9602 14.7369H47.0226Z" fill="#E02B26"/>
<path d="M53.6862 20.0705V5.23877H56.1366L59.2412 14.414V5.23877H61.4699V20.0705H59.1525L55.9259 10.4277V20.0705H53.6862Z" fill="#E02B26"/>
<path d="M70.2856 20.0705H67.5913L64.8082 5.23877H67.2919L68.9994 16.2401L70.707 5.23877H73.0687L70.2856 20.0705Z" fill="#E02B26"/>
<path d="M80.375 16.7634H77.6807L77.1485 20.0705H74.7867L77.5255 5.23877H80.6079L83.3909 20.0705H80.9073L80.375 16.7634ZM80.0535 14.7369L79.0223 8.14499L77.9911 14.7369H80.0535Z" fill="#E02B26"/>
<path d="M91.0974 9.58377V8.45914C91.0974 7.52381 90.5652 7.18976 89.8556 7.18976C89.1348 7.18976 88.6137 7.52381 88.6137 8.45914V9.47242C88.6137 10.2296 88.8687 10.5748 89.5673 10.9756L91.297 11.9555C92.7051 12.7572 93.5589 13.4142 93.5589 15.0065V17.1444C93.5589 19.4271 92.1508 20.2399 89.911 20.2399H89.8666C87.6269 20.2399 86.2187 19.4605 86.2187 17.1444V15.5744H88.6248V16.8103C88.6248 17.7234 89.157 18.1243 89.8888 18.1243C90.6317 18.1243 91.1528 17.7234 91.1528 16.8103V15.6412C91.1528 14.8729 90.92 14.4943 90.1771 14.0934L88.4696 13.1135C87.0392 12.2896 86.2076 11.6103 86.2076 10.0626V8.11396C86.2076 5.90924 87.8154 5.06299 89.8334 5.06299H89.8777C91.9068 5.06299 93.5035 5.90924 93.5035 8.11396V9.57264H91.0974V9.58377Z" fill="#E02B26"/>
</svg>
