<svg width="79" height="21" viewBox="0 0 79 21" fill="none" xmlns="http://www.w3.org/2000/svg">
<g clip-path="url(#clip0_181_2143)">
<path d="M18.7354 20.2267V13.3583C18.7354 11.9225 18.1409 11.1997 16.9618 11.1997C15.7826 11.1997 15.1816 11.916 15.1816 13.3583V20.2267H11.6899V13.3583C11.6899 11.9225 11.1052 11.1997 9.93915 11.1997C8.77307 11.1997 8.16554 11.916 8.16554 13.3583V20.2267H4.67383V12.9495C4.67383 11.4515 5.19317 10.3134 6.23187 9.54802C7.14644 8.86119 8.38765 8.51123 9.94569 8.51123C11.5037 8.51123 12.6894 8.92006 13.4374 9.73118C14.0907 8.92006 15.2655 8.51341 16.9618 8.51123C18.5187 8.51123 19.7545 8.85683 20.6691 9.54802C21.7077 10.3134 22.2271 11.4515 22.2271 12.9495V20.2267H18.7354Z" fill="#F98012"/>
<path d="M61.5439 20.1942V0.570312H65.0389V20.1942H61.5439Z" fill="#F98012"/>
<path d="M57.0888 20.194V19.0395C56.6708 19.526 56.1167 19.8757 55.4981 20.0436C54.8865 20.2556 54.2443 20.3661 53.5971 20.3707C52.843 20.4017 52.0915 20.2636 51.3976 19.9665C50.7036 19.6695 50.0847 19.2209 49.586 18.6536C48.5664 17.4766 48.0255 15.9591 48.0705 14.4017C48.0293 12.8783 48.5582 11.3945 49.5534 10.2415C50.0564 9.69832 50.668 9.26733 51.3484 8.97656C52.0288 8.68578 52.7627 8.54174 53.5024 8.55381C55.3511 8.55381 56.4421 9.25373 57.0953 10.0518V0.566895H60.4989V20.1908L57.0888 20.194ZM57.0888 13.6527C57.0709 13.3086 56.9829 12.9717 56.8301 12.6629C56.6773 12.3541 56.463 12.0799 56.2004 11.8572C55.7288 11.3411 55.0723 11.033 54.3745 11.0003C53.9574 10.989 53.5443 11.0832 53.1732 11.2742C52.8021 11.4651 52.4851 11.7466 52.2514 12.0927C51.7816 12.792 51.5428 13.6214 51.5687 14.4639C51.5421 15.2973 51.7812 16.1175 52.2514 16.8057C52.4797 17.1593 52.7947 17.4484 53.1664 17.6454C53.5381 17.8424 53.9541 17.9406 54.3745 17.9307C55.0327 17.8832 55.6549 17.612 56.1383 17.1622C56.772 16.6541 57.0888 16.1275 57.0888 15.5824V13.6527Z" fill="#F98012"/>
<path d="M41.4855 20.5046C40.6787 20.5318 39.8746 20.3965 39.1211 20.1066C38.3675 19.8167 37.6798 19.3781 37.0988 18.8169C35.9875 17.6446 35.3679 16.0899 35.3679 14.4735C35.3679 12.8572 35.9875 11.3024 37.0988 10.1301C38.3043 9.04389 39.8686 8.44287 41.4904 8.44287C43.1121 8.44287 44.6764 9.04389 45.8819 10.1301C47.0029 11.2975 47.6291 12.8541 47.6291 14.4735C47.6291 16.093 47.0029 17.6496 45.8819 18.8169C45.2978 19.3766 44.6082 19.814 43.8533 20.1038C43.0985 20.3936 42.2935 20.5298 41.4855 20.5046ZM41.4855 11.2552C41.1044 11.2349 40.7244 11.3122 40.3815 11.4799C40.0385 11.6476 39.744 11.9001 39.5257 12.2135C39.0639 12.8857 38.8271 13.6874 38.8495 14.503C38.8215 15.2937 39.0433 16.073 39.4832 16.7303C39.7078 17.0495 40.0058 17.31 40.352 17.4898C40.6982 17.6696 41.0824 17.7634 41.4724 17.7634C41.8624 17.7634 42.2466 17.6696 42.5928 17.4898C42.939 17.31 43.237 17.0495 43.4616 16.7303C43.9143 16.0782 44.1435 15.2966 44.1149 14.503C44.1428 13.7123 43.9211 12.9329 43.4812 12.2756C43.2596 11.9527 42.961 11.6903 42.6125 11.5121C42.264 11.3339 41.8766 11.2456 41.4855 11.2552Z" fill="#F98012"/>
<path d="M28.8448 20.5048C28.0381 20.5318 27.2341 20.3964 26.4805 20.1065C25.727 19.8166 25.0393 19.3782 24.4582 18.8171C23.3469 17.6448 22.7273 16.0901 22.7273 14.4737C22.7273 12.8574 23.3469 11.3027 24.4582 10.1303C25.0397 9.56992 25.7275 9.13186 26.4809 8.842C27.2344 8.55214 28.0381 8.41636 28.8448 8.44266C29.6528 8.4178 30.4577 8.55422 31.2125 8.84396C31.9673 9.13371 32.657 9.57099 33.2413 10.1303C34.3646 11.2965 34.9922 12.8535 34.9922 14.4737C34.9922 16.0939 34.3646 17.651 33.2413 18.8171C32.6577 19.3775 31.9682 19.8155 31.2132 20.1053C30.4582 20.3951 29.653 20.5309 28.8448 20.5048ZM28.8448 11.2554C28.4637 11.2351 28.0838 11.3124 27.7408 11.4801C27.3979 11.6478 27.1034 11.9003 26.885 12.2137C26.4209 12.8849 26.1828 13.687 26.2056 14.5032C26.1792 15.2937 26.4008 16.0726 26.8393 16.7305C27.0643 17.0497 27.3626 17.3102 27.709 17.4899C28.0554 17.6697 28.4399 17.7635 28.8301 17.7635C29.2203 17.7635 29.6048 17.6697 29.9513 17.4899C30.2977 17.3102 30.596 17.0497 30.821 16.7305C31.2737 16.0784 31.5029 15.2968 31.4742 14.5032C31.5032 13.7128 31.2826 12.9335 30.8438 12.2759C30.6223 11.952 30.3233 11.689 29.9741 11.5107C29.6249 11.3325 29.2367 11.2447 28.8448 11.2554Z" fill="#F98012"/>
<path d="M69.1774 15.5368C69.2558 16.3675 70.3304 18.1533 72.1171 18.1533C73.845 18.1533 74.6615 17.1525 74.7073 16.7469L78.3884 16.7142C77.9899 17.944 76.3535 20.5605 72.0517 20.5605C70.2651 20.5605 68.6221 20.0012 67.4527 18.8892C66.8683 18.3288 66.409 17.6509 66.105 16.9C65.801 16.1492 65.6592 15.3424 65.6889 14.5327C65.6889 12.6771 66.2769 11.2021 67.4527 10.1075C68.6286 9.01837 70.1507 8.47217 72.0256 8.47217C74.0682 8.47217 75.6589 9.14919 76.7977 10.5032C77.856 11.7526 78.3862 13.4294 78.3884 15.5335L69.1774 15.5368ZM74.8869 13.3814C74.7718 12.6835 74.4444 12.0382 73.9495 11.5335C73.7041 11.2855 73.4121 11.0888 73.0902 10.9546C72.7684 10.8204 72.4232 10.7515 72.0746 10.7518C71.735 10.7431 71.3974 10.8051 71.083 10.9341C70.7687 11.063 70.4846 11.256 70.2487 11.5008C69.75 12.0215 69.4101 12.6739 69.2688 13.3814H74.8869Z" fill="#F98012"/>
<path d="M11.4549 7.98486L14.9204 5.44684L14.878 5.29639C8.62294 6.06499 5.77797 6.60465 0.385254 9.73793L0.434249 9.87856H0.865405C0.786076 10.9147 0.778436 11.955 0.84254 12.9922C0.248068 14.7257 0.84254 15.9064 1.37495 17.1885C1.51002 15.7629 1.39954 14.3247 1.04832 12.9366C0.987291 11.919 0.996022 10.8983 1.07445 9.88183L4.64782 9.91454C4.63865 10.6161 4.67465 11.3174 4.75561 12.0143C7.95008 13.1394 11.1641 12.0143 12.8692 9.24079C12.4263 8.79092 11.9538 8.37133 11.4549 7.98486Z" fill="#333333"/>
</g>
<defs>
<clipPath id="clip0_181_2143">
<rect width="78" height="20" fill="white" transform="translate(0.385254 0.566895)"/>
</clipPath>
</defs>
</svg>
