<svg width="43" height="15" viewBox="0 0 43 15" fill="none" xmlns="http://www.w3.org/2000/svg">
<path d="M25.2186 14.8161L20.1971 0.342773H16.8644L11.6272 14.8161H14.6422L15.5313 12.0229H21.4667L22.3626 14.8161H25.2186ZM18.5054 3.47422H18.6136L20.4946 9.06983H16.6244L18.5054 3.47422Z" fill="#E85D59"/>
<path d="M0.971289 4.43701L4.27827 9.62651L0.898926 14.816H3.66319L5.99327 11.0725L8.3523 14.816H11.0876L7.68656 9.62651L11.037 4.43701H8.27993L5.99327 8.27507L3.74278 4.43701H0.971289Z" fill="#E85D59"/>
<path d="M26.9941 0.311035V14.8158H29.7829V9.70061H32.5131C35.7908 9.70061 37.3053 7.73261 37.3053 5.00929C37.3053 2.29982 35.566 0.311035 32.3022 0.311035H26.9941ZM29.7829 7.3251V2.69099H32.1597C34.0861 2.69099 34.6074 3.70669 34.6074 5.00929C34.6074 6.51993 34.0861 7.3251 32.1736 7.3251H29.7829Z" fill="#E85D59"/>
<path d="M39.6907 0.342285V14.816H42.1739V0.342285H39.6907Z" fill="#E85D59"/>
</svg>
