<svg width="44" height="45" viewBox="0 0 44 45" fill="none" xmlns="http://www.w3.org/2000/svg">
<rect x="0.111328" y="0.28418" width="43.7477" height="43.7477" rx="14" fill="#146BBC"/>
<mask id="mask0_5_15415" style="mask-type:alpha" maskUnits="userSpaceOnUse" x="0" y="0" width="44" height="45">
<rect x="0.111328" y="0.28418" width="43.7477" height="43.7477" rx="14" fill="#115CA2"/>
</mask>
<g mask="url(#mask0_5_15415)">
<path d="M28.6368 17.0381L46.3068 35.084L46.8867 38.295L36.8384 44.689L27.338 46.9438L10.8301 28.6928L12.2656 17.8242L17.8024 17.0381L22.3139 20.7293L23.0658 17.0381H28.6368Z" fill="#115CA2"/>
</g>
<path d="M10.7325 15.2404V27.9697H13.3741V23.824H15.6614C18.5889 23.824 20.2732 22.0712 20.2732 19.5415C20.2732 17.0243 18.6137 15.2404 15.7173 15.2404H10.7325ZM13.3741 21.6921V17.4096H15.2263C16.7988 17.4096 17.5571 18.2612 17.5571 19.5415C17.5571 20.8157 16.7988 21.6921 15.2325 21.6921H13.3741ZM31.948 27.9697L29.2381 23.016C30.6925 22.3944 31.4881 21.1327 31.4881 19.3862C31.4881 16.8751 29.8286 15.2404 26.9322 15.2404H21.9473V27.9697H24.5889V23.4449H26.6027L29.0206 27.9697H31.948ZM26.4411 17.4096C28.0136 17.4096 28.7719 18.112 28.7719 19.3862C28.7719 20.6603 28.0136 21.3067 26.4473 21.3067H24.5889V17.4096H26.4411Z" fill="white"/>
</svg>
