<svg width="46" height="46" viewBox="0 0 46 46" fill="none" xmlns="http://www.w3.org/2000/svg">
<rect x="0.0839844" y="0.656738" width="44.9986" height="45" rx="14" fill="#146BBC"/>
<path fill-rule="evenodd" clip-rule="evenodd" d="M45.0826 29.5915V31.6567C45.0826 39.3887 38.8146 45.6567 31.0826 45.6567H22.2267L8.82715 32.4059L10.3125 30.5942L11.1875 20.7192L33.9375 19.2817L45.0826 29.5915Z" fill="#115CA1"/>
<path fill-rule="evenodd" clip-rule="evenodd" d="M23.011 8.97628C24.2126 8.54883 25.5176 8.49811 26.7493 8.83095C27.7835 9.14019 28.5966 9.57312 29.8116 8.85877V12.9964C28.6122 13.7912 27.4627 13.9829 26.1979 13.3057C25.1169 12.7212 23.8801 12.7398 22.9985 13.4418V8.97628H23.011ZM21.2134 15.86V8.97009H22.4595V15.86H21.2134ZM8.82715 32.3581H16.6652V30.5831H17.3318V32.3581H26.3225V30.5831H26.9923V32.3581H34.8272V30.5831H33.7056V20.743H34.1979V19.3792H26.2228V17.7217H26.743V16.361H16.9268V17.7217H17.4471V19.3792H9.47201V20.743H9.96423V30.5831H8.83961V32.3581H8.82715ZM30.1013 25.9073H32.1605V28.9348H30.1013V25.9073ZM27.0047 25.9073H29.0639V28.9348H27.0047V25.9073ZM14.6184 25.9073H16.6776V28.9348H14.6184V25.9073ZM11.5219 25.9073H13.581V28.9348H11.5219V25.9073ZM30.1013 21.5161H32.1605V24.5436H30.1013V21.5161ZM27.0047 21.5161H29.0639V24.5436H27.0047V21.5161ZM23.9082 21.5161H25.9673V24.5436H23.9082V21.5161ZM20.8116 21.5161H22.8708V24.5436H20.8116V21.5161ZM17.715 21.5161H19.7742V24.5436H17.715V21.5161ZM14.6184 21.5161H16.6776V24.5436H14.6184V21.5161ZM11.5219 21.5161H13.581V24.5436H11.5219V21.5161ZM22.2259 26.5011H24.9954V30.5924H22.2259V26.4918V26.5011ZM18.687 26.5011H21.4564V30.5924H18.687V26.4918V26.5011ZM15.8832 35.6145H27.7804V34.5352H15.8926V35.6052L15.8832 35.6145ZM16.6683 34.0281H26.9954V32.9581H16.6776L16.6683 34.0281Z" fill="white"/>
</svg>
