<svg width="46" height="46" viewBox="0 0 46 46" fill="none" xmlns="http://www.w3.org/2000/svg">
<rect x="0.0837402" y="0.656738" width="44.9986" height="45" rx="14" fill="#146BBC"/>
<path fill-rule="evenodd" clip-rule="evenodd" d="M45.0823 25.8407V31.6567C45.0823 39.3887 38.8143 45.6567 31.0823 45.6567H27.0219L13.1873 32.4059V24.1567L11.8748 22.4692L20.4998 13.6567L27.8123 17.1567L29.5623 12.7817L45.0823 25.8407Z" fill="#115CA1"/>
<path fill-rule="evenodd" clip-rule="evenodd" d="M13.0097 22.9404L21.8285 15.6699L30.6472 22.9404V32.5907H12.9968V22.9404H13.0097ZM11.8425 22.6236L21.8337 14.3822L31.8248 22.6236V19.7185L21.8337 11.4771L11.8425 19.7185V22.6133V22.6236Z" fill="white"/>
<path d="M29.5522 12.8364H27.8611V18.5462H29.5522V12.8364Z" fill="white"/>
<path fill-rule="evenodd" clip-rule="evenodd" d="M35.3719 31.59L37.9008 33.9929L36.4716 35.4119L35.0476 36.849L32.6095 34.356L30.7109 38.0029L26.6257 25.7153L39.0291 29.679L35.3719 31.59Z" fill="#115CA1"/>
<path fill-rule="evenodd" clip-rule="evenodd" d="M28.3171 27.4009L36.3578 29.9686L33.6577 31.38L36.3604 33.9451L35.6626 34.6379L34.9727 35.3333L32.366 32.6728L30.9654 35.3642L28.3171 27.4009Z" fill="white"/>
<path d="M18.5434 22.9478H16.7341V24.7511H18.5434V22.9478Z" fill="#146BBC"/>
<path d="M18.5434 25.7153H16.7341V27.5187H18.5434V25.7153Z" fill="#146BBC"/>
<path d="M20.8705 22.9478H19.0613V24.7511H20.8705V22.9478Z" fill="#146BBC"/>
<path d="M20.8705 25.7153H19.0613V27.5187H20.8705V25.7153Z" fill="#146BBC"/>
<path d="M23.9975 22.9478H22.1882V24.7511H23.9975V22.9478Z" fill="#146BBC"/>
<path d="M23.9975 25.7153H22.1882V27.5187H23.9975V25.7153Z" fill="#146BBC"/>
<path d="M26.3246 22.9478H24.5154V24.7511H26.3246V22.9478Z" fill="#146BBC"/>
<path d="M26.3246 25.7153H24.5154V27.5187H26.3246V25.7153Z" fill="#146BBC"/>
</svg>
