<svg width="46" height="46" viewBox="0 0 46 46" fill="none" xmlns="http://www.w3.org/2000/svg">
<rect x="0.84375" y="0.986816" width="45" height="45" rx="14" fill="#146BBC"/>
<path fill-rule="evenodd" clip-rule="evenodd" d="M45.8438 27.144V31.9868C45.8438 38.9991 40.6883 44.8072 33.961 45.8278H26.457L12.292 31.82L34.4059 15.7661L45.8438 27.144Z" fill="#115CA1"/>
<g clip-path="url(#clip0_5_15345)">
<path d="M34.8437 16.3478C34.843 16.1031 34.7485 15.8686 34.5809 15.6956C34.4133 15.5226 34.1862 15.4251 33.9491 15.4243H12.7384C12.5013 15.4251 12.2742 15.5226 12.1066 15.6956C11.939 15.8686 11.8445 16.1031 11.8438 16.3478V28.9028H34.8437V16.3478Z" fill="white"/>
<path d="M33.9502 16.3516H12.7375V27.9753H33.9502V16.3516Z" fill="#146BBC"/>
<path d="M11.8438 29.1387V30.8449C11.8445 31.0896 11.939 31.3241 12.1066 31.4971C12.2742 31.6701 12.5013 31.7677 12.7384 31.7684H33.9491C34.1862 31.7677 34.4133 31.6701 34.5809 31.4971C34.7485 31.3241 34.843 31.0896 34.8437 30.8449V29.1387H11.8438Z" fill="white"/>
<path d="M23.3438 30.8667C23.5648 30.8667 23.744 30.6818 23.744 30.4536C23.744 30.2255 23.5648 30.0405 23.3438 30.0405C23.1228 30.0405 22.9436 30.2255 22.9436 30.4536C22.9436 30.6818 23.1228 30.8667 23.3438 30.8667Z" fill="#146BBC"/>
<path d="M26.8718 33.9527H26.175L25.7771 32.0049H20.9103L20.5124 33.9527H19.8156C19.7549 33.9527 19.6968 33.9775 19.6539 34.0218C19.611 34.0661 19.5869 34.1261 19.5869 34.1887C19.5869 34.2513 19.611 34.3114 19.6539 34.3557C19.6968 34.3999 19.7549 34.4248 19.8156 34.4248H26.8718C26.9325 34.4248 26.9907 34.3999 27.0335 34.3557C27.0764 34.3114 27.1005 34.2513 27.1005 34.1887C27.1005 34.1261 27.0764 34.0661 27.0335 34.0218C26.9907 33.9775 26.9325 33.9527 26.8718 33.9527Z" fill="white"/>
<rect x="12.7109" y="16.4497" width="21.2393" height="11.5254" fill="#115CA1"/>
<path opacity="0.4" d="M32.5334 16.1405L31.9577 15.7467L12.2765 15.9529L12.2764 28.2901L22.7158 28.6828L32.5334 16.1405Z" fill="white"/>
</g>
<defs>
<clipPath id="clip0_5_15345">
<rect width="23" height="19" fill="white" transform="translate(11.8438 15.4243)"/>
</clipPath>
</defs>
</svg>
