<svg width="46" height="46" viewBox="0 0 46 46" fill="none" xmlns="http://www.w3.org/2000/svg">
<rect x="0.090332" y="0.151367" width="44.9989" height="45" rx="14" fill="#146BBC"/>
<mask id="mask0_5_15432" style="mask-type:alpha" maskUnits="userSpaceOnUse" x="0" y="0" width="46" height="46">
<rect x="0.0913086" y="0.151367" width="44.9989" height="45" rx="14" fill="#8EDCF9"/>
</mask>
<g mask="url(#mask0_5_15432)">
<mask id="mask1_5_15432" style="mask-type:alpha" maskUnits="userSpaceOnUse" x="0" y="-1" width="46" height="47">
<rect x="0.39502" y="-0.129883" width="44.9989" height="45.2813" rx="14" fill="#146BBC"/>
</mask>
<g mask="url(#mask1_5_15432)">
<path d="M31.8106 16.6826L48.5083 33.417V38.9698L38.1726 45.5469L30.9668 47.6201L11.8423 27.9326L12.7563 25.7529L15.8148 28.9873L18.9788 27.9326L12.3696 22.3428L13.1079 18.0186L18.9788 17.3857L26.1505 25.7529V22.9404L22.1875 18.4104L31.8106 16.6826Z" fill="#115CA1"/>
</g>
<path d="M20.7309 19.3339C20.6936 17.0777 18.8352 15.5176 16.0134 15.5176C13.2351 15.5176 11.1902 17.0528 11.2026 19.3587C11.1964 21.2358 12.5203 22.3049 14.6646 22.827L16.0569 23.1688C17.4429 23.5107 18.2261 23.9147 18.2323 24.7786C18.2261 25.7358 17.3311 26.376 15.945 26.376C14.5403 26.376 13.521 25.7358 13.434 24.4554H10.867C10.9416 27.1778 12.9057 28.6011 15.9761 28.6011C19.0776 28.6011 20.8925 27.1156 20.905 24.7911C20.8925 22.6654 19.2703 21.5528 17.0949 21.0618L15.945 20.7821C14.8449 20.5273 13.8939 20.117 13.9126 19.1847C13.9126 18.3456 14.6584 17.7303 15.9947 17.7303C17.2876 17.7303 18.0894 18.3208 18.1888 19.3339H20.7309ZM25.6736 17.8795V28.4209H28.2903V17.8795H32.1874V15.6916H21.7641V17.8795H25.6736Z" fill="white"/>
</g>
</svg>
