<svg width="46" height="46" viewBox="0 0 46 46" fill="none" xmlns="http://www.w3.org/2000/svg">
<rect x="0.879883" y="0.657227" width="45" height="45" rx="14" fill="#146BBC"/>
<mask id="mask0_5_15423" style="mask-type:alpha" maskUnits="userSpaceOnUse" x="0" y="0" width="46" height="46">
<rect x="0.574219" y="0.657227" width="45" height="45" rx="14" fill="#FE7CA6"/>
</mask>
<g mask="url(#mask0_5_15423)">
</g>
<mask id="mask1_5_15423" style="mask-type:alpha" maskUnits="userSpaceOnUse" x="0" y="0" width="46" height="46">
<rect x="0.879883" y="0.657227" width="45" height="45" rx="14" fill="#0B94EE"/>
</mask>
<g mask="url(#mask1_5_15423)">
<path d="M31.7349 18.1719L49.5942 34.625L48.9955 39.756L38.6595 46.333L33.1411 50.375L10.9224 29.9844L17.6724 17.3281L24.4927 24.2891V17.8906L31.7349 18.1719Z" fill="#115CA1"/>
<path d="M23.1337 29.4351L18.7332 16.7058H15.3333L10.9328 29.4351H13.767L14.7242 26.5014H19.3423L20.2995 29.4351H23.1337ZM16.9804 19.5773H17.0799L18.6648 24.4316H15.3955L16.9804 19.5773ZM28.5585 16.7058H24.0275V29.4351H28.515C32.3935 29.4351 34.7367 27.0359 34.7367 23.058C34.7367 19.0925 32.3935 16.7058 28.5585 16.7058ZM26.669 27.1664V18.9744H28.4156C30.821 18.9744 32.0951 20.2237 32.0951 23.058C32.0951 25.9109 30.821 27.1664 28.4032 27.1664H26.669Z" fill="white"/>
</g>
</svg>
