<svg width="46" height="46" viewBox="0 0 46 46" fill="none" xmlns="http://www.w3.org/2000/svg">
<rect x="0.84375" y="0.986816" width="45" height="45" rx="14" fill="#146BBC"/>
<path fill-rule="evenodd" clip-rule="evenodd" d="M45.8438 28.6068V31.9868C45.8438 38.9972 40.6911 44.8041 33.9664 45.8269H29.3417L16.9199 33.2245L29.3417 13.5552L45.8438 28.6068Z" fill="#115CA1"/>
<rect x="17.3203" y="14.8149" width="11.9581" height="16.2205" fill="#115CA1"/>
<path opacity="0.4" d="M29.4857 18.2893L29.4858 14.7414L17.0922 14.5063L17.4017 20.055L17.4015 32.0814L29.4857 18.2893Z" fill="white"/>
<path d="M28.7109 13.2173H17.9701C17.6339 13.2191 17.312 13.348 17.0743 13.576C16.8366 13.804 16.7021 14.1127 16.7002 14.435V32.5366C16.7021 32.859 16.8366 33.1676 17.0743 33.3956C17.312 33.6236 17.6339 33.7525 17.9701 33.7544H28.7109C29.0484 33.7544 29.3722 33.6263 29.6115 33.3981C29.8509 33.1699 29.9863 32.8602 29.9882 32.5366V14.435C29.9863 14.1114 29.8509 13.8017 29.6115 13.5735C29.3722 13.3453 29.0484 13.2173 28.7109 13.2173ZM23.3449 13.8065C23.3967 13.8065 23.4474 13.8212 23.4906 13.8489C23.5337 13.8765 23.5673 13.9158 23.5871 13.9617C23.607 14.0076 23.6121 14.0582 23.602 14.107C23.5919 14.1557 23.5669 14.2005 23.5303 14.2357C23.4936 14.2709 23.4469 14.2948 23.396 14.3045C23.3452 14.3142 23.2925 14.3092 23.2446 14.2902C23.1967 14.2712 23.1557 14.2389 23.1269 14.1976C23.0981 14.1563 23.0827 14.1076 23.0827 14.0579C23.0822 14.0248 23.0887 13.9919 23.1017 13.9612C23.1148 13.9305 23.1341 13.9026 23.1585 13.8792C23.1829 13.8557 23.212 13.8372 23.244 13.8248C23.276 13.8123 23.3103 13.8061 23.3449 13.8065ZM23.3449 33.2902C23.1513 33.291 22.9618 33.2367 22.8004 33.1342C22.639 33.0317 22.5129 32.8856 22.4381 32.7143C22.3633 32.5431 22.3431 32.3545 22.3801 32.1723C22.4171 31.99 22.5096 31.8224 22.6459 31.6906C22.7822 31.5588 22.9562 31.4687 23.146 31.4317C23.3357 31.3948 23.5325 31.4126 23.7117 31.4829C23.8909 31.5533 24.0443 31.6729 24.1525 31.8269C24.2607 31.9808 24.3189 32.1621 24.3197 32.3477C24.3204 32.4711 24.2957 32.5934 24.2471 32.7076C24.1985 32.8218 24.1269 32.9257 24.0363 33.0134C23.9458 33.101 23.8381 33.1707 23.7195 33.2184C23.6008 33.2662 23.4735 33.291 23.3449 33.2915V33.2902ZM29.1701 30.9494H17.5197V14.8973H29.1701V30.9494Z" fill="white"/>
</svg>
