<svg width="46" height="46" viewBox="0 0 46 46" fill="none" xmlns="http://www.w3.org/2000/svg">
<rect x="0.322266" y="0.150879" width="44.9986" height="45" rx="14" fill="#146BBC"/>
<mask id="mask0_5_15443" style="mask-type:alpha" maskUnits="userSpaceOnUse" x="0" y="0" width="46" height="46">
<rect x="0.323242" y="0.150879" width="44.9986" height="45" rx="14" fill="#8EDCF9"/>
</mask>
<g mask="url(#mask0_5_15443)">
<mask id="mask1_5_15443" style="mask-type:alpha" maskUnits="userSpaceOnUse" x="0" y="-1" width="46" height="47">
<rect x="0.626465" y="-0.130371" width="44.9986" height="45.2813" rx="14" fill="#146BBC"/>
</mask>
<g mask="url(#mask1_5_15443)">
<path d="M31.5277 17.2595L48.2253 33.9939V39.5467L37.8897 46.1238L30.684 48.197L11.5596 28.5095L12.4736 26.3298L13.6911 26.7662L14.0768 24.8376L12.0869 22.9196L12.8252 18.5954L14.0768 16.8657H19.2841L25.8677 26.3298L27.9949 27.152L24.0413 21.3338L24.877 17.2595H31.5277Z" fill="#115CA1"/>
</g>
<path d="M21.5223 28.4204L18.8123 23.4667C20.2667 22.8451 21.0623 21.5834 21.0623 19.8368C21.0623 17.3258 19.4028 15.6911 16.5064 15.6911H11.5216V28.4204H14.1631V23.8955H16.177L18.5948 28.4204H21.5223ZM16.0153 17.8603C17.5879 17.8603 18.3462 18.5627 18.3462 19.8368C18.3462 21.111 17.5879 21.7574 16.0216 21.7574H14.1631V17.8603H16.0153ZM32.3359 19.3334C32.2986 17.0772 30.4402 15.5171 27.6184 15.5171C24.8401 15.5171 22.7952 17.0523 22.8076 19.3583C22.8014 21.2353 24.1253 22.3044 26.2696 22.8265L27.6619 23.1683C29.0479 23.5102 29.8311 23.9142 29.8373 24.7781C29.8311 25.7353 28.936 26.3755 27.55 26.3755C26.1453 26.3755 25.126 25.7353 25.0389 24.4549H22.472C22.5465 27.1773 24.5106 28.6007 27.5811 28.6007C30.6826 28.6007 32.4975 27.1152 32.5099 24.7906C32.4975 22.6649 30.8753 21.5523 28.6999 21.0613L27.55 20.7816C26.4499 20.5268 25.4989 20.1165 25.5175 19.1842C25.5175 18.3451 26.2634 17.7298 27.5997 17.7298C28.8925 17.7298 29.6943 18.3203 29.7938 19.3334H32.3359Z" fill="white"/>
</g>
</svg>
