<svg width="46" height="46" viewBox="0 0 46 46" fill="none" xmlns="http://www.w3.org/2000/svg">
<rect x="0.84375" y="0.986816" width="45" height="45" rx="14" fill="#146BBC"/>
<path fill-rule="evenodd" clip-rule="evenodd" d="M45.8438 26.6729V31.9868C45.8438 39.7188 39.5757 45.9868 31.8438 45.9868H27.2755L15.3936 34.2368L31.4633 12.6841L45.8438 26.6729Z" fill="#115CA1"/>
<rect x="15.8672" y="14.0513" width="15.6067" height="18.1034" fill="#115CA1"/>
<path d="M30.2707 11.9868H17.0705C16.0281 11.9868 15.1709 12.8868 15.1709 14.0015V32.9715C15.1709 34.0787 16.0269 34.9868 17.0705 34.9868H30.2707C31.3132 34.9868 32.1703 34.0787 32.1703 32.9715V14.0015C32.1703 12.8868 31.3143 11.9868 30.2707 11.9868ZM23.6683 12.783C23.74 12.7788 23.8112 12.7962 23.8729 12.8331C23.9345 12.87 23.9837 12.9245 24.0141 12.9897C24.0444 13.0549 24.0545 13.1277 24.0431 13.1987C24.0316 13.2698 23.9992 13.3357 23.9499 13.388C23.9006 13.4403 23.8368 13.4766 23.7667 13.4922C23.6967 13.5078 23.6235 13.5019 23.5568 13.4754C23.4901 13.4488 23.4329 13.4028 23.3925 13.3433C23.3522 13.2838 23.3306 13.2135 23.3306 13.1416C23.3293 13.0956 23.337 13.0498 23.3533 13.0069C23.3697 12.9639 23.3944 12.9246 23.426 12.8913C23.4576 12.8579 23.4955 12.8312 23.5375 12.8126C23.5795 12.794 23.6247 12.7839 23.6706 12.783H23.6683ZM24.8996 33.8878C24.9006 33.9411 24.8911 33.9941 24.8716 34.0438C24.8522 34.0935 24.8231 34.1388 24.7862 34.1772C24.7492 34.2156 24.7051 34.2464 24.6563 34.2677C24.6075 34.2891 24.5549 34.3005 24.5017 34.3015H22.8349C22.7816 34.3005 22.7291 34.2891 22.6803 34.2677C22.6315 34.2464 22.5874 34.2156 22.5504 34.1772C22.5135 34.1388 22.4844 34.0935 22.465 34.0438C22.4455 33.9941 22.436 33.9411 22.437 33.8878V33.1073C22.4359 33.0539 22.4454 33.0008 22.4648 32.9511C22.4842 32.9014 22.5132 32.8559 22.5502 32.8175C22.5871 32.779 22.6313 32.7482 22.6802 32.7268C22.729 32.7054 22.7816 32.6939 22.8349 32.693H24.5017C24.555 32.6939 24.6076 32.7054 24.6564 32.7268C24.7053 32.7482 24.7494 32.779 24.7864 32.8175C24.8234 32.8559 24.8524 32.9014 24.8718 32.9511C24.8912 33.0008 24.9007 33.0539 24.8996 33.1073V33.8878ZM31.3045 32.0082H16.0367V14.2963H31.3091L31.3045 32.0082Z" fill="white"/>
<path opacity="0.4" d="M15.7617 27.0669C19.2079 22.7618 26.1522 14.1516 26.3584 14.1509H26.1329H15.7617V27.0669Z" fill="white"/>
</svg>
