<svg width="49" height="77" viewBox="0 0 49 77" fill="none" xmlns="http://www.w3.org/2000/svg">
<g clip-path="url(#clip0_5_15498)">
<path d="M27.4397 43.4804C19.0287 43.4804 9.98511 41.7786 9.98511 38.0258C9.98511 34.2731 19.0287 32.5713 27.4397 32.5713C35.8506 32.5713 44.8942 34.2731 44.8942 38.0258C44.8942 41.7786 35.8506 43.4804 27.4397 43.4804ZM27.4397 34.7531C17.3597 34.7531 12.1669 37.044 12.1669 38.0258C12.1669 39.0077 17.3597 41.2986 27.4397 41.2986C37.5197 41.2986 42.7124 39.0077 42.7124 38.0258C42.7124 37.044 37.5197 34.7531 27.4397 34.7531Z" fill="white"/>
<path d="M27.4397 54.3896C19.0287 54.3896 9.98511 52.6878 9.98511 48.9351V42.3896H12.1669V48.9351C12.1669 49.9169 17.3597 52.2078 27.4397 52.2078C37.5197 52.2078 42.7124 49.9169 42.7124 48.9351V42.3896H44.8942V48.9351C44.8942 52.6878 35.8506 54.3896 27.4397 54.3896Z" fill="white"/>
<path d="M27.4397 65.2983C19.0287 65.2983 9.98511 63.5965 9.98511 59.8438V53.2983H12.1669V59.8438C12.1669 60.8256 17.3597 63.1165 27.4397 63.1165C37.5197 63.1165 42.7124 60.8256 42.7124 59.8438V53.2983H44.8942V59.8438C44.8942 63.5965 35.8506 65.2983 27.4397 65.2983Z" fill="white"/>
<path d="M27.4397 76.2075C19.0287 76.2075 9.98511 74.5057 9.98511 70.753V64.2075H12.1669V70.753C12.1669 71.7348 17.3597 74.0257 27.4397 74.0257C37.5197 74.0257 42.7124 71.7348 42.7124 70.753V64.2075H44.8942V70.753C44.8942 74.5057 35.8506 76.2075 27.4397 76.2075Z" fill="white"/>
<path d="M28.5305 46.7529H26.3486V48.9347H28.5305V46.7529Z" fill="white"/>
<path d="M24.1669 46.7529H21.9851V48.9347H24.1669V46.7529Z" fill="white"/>
<path d="M32.8942 46.7529H30.7124V48.9347H32.8942V46.7529Z" fill="white"/>
<path d="M28.5305 57.6621H26.3486V59.8439H28.5305V57.6621Z" fill="white"/>
<path d="M24.1669 57.6621H21.9851V59.8439H24.1669V57.6621Z" fill="white"/>
<path d="M32.8942 57.6621H30.7124V59.8439H32.8942V57.6621Z" fill="white"/>
<path d="M28.5305 68.5713H26.3486V70.7531H28.5305V68.5713Z" fill="white"/>
<path d="M24.1669 68.5713H21.9851V70.7531H24.1669V68.5713Z" fill="white"/>
<path d="M32.8942 68.5713H30.7124V70.7531H32.8942V68.5713Z" fill="white"/>
</g>
<path d="M21.7031 11.73H20.5918V12.8461H21.7031V11.73Z" fill="white" stroke="white" stroke-width="0.5"/>
<path d="M24.7001 11.73H23.5889V12.8461H24.7001V11.73Z" fill="white" stroke="white" stroke-width="0.5"/>
<path d="M27.6972 11.73H26.5859V12.8461H27.6972V11.73Z" fill="white" stroke="white" stroke-width="0.5"/>
<path d="M27.697 20.6597H26.5857V21.7757H27.697V20.6597Z" fill="white" stroke="white" stroke-width="0.5"/>
<path d="M30.5651 20.6597H29.4539V21.7757H30.5651V20.6597Z" fill="white" stroke="white" stroke-width="0.5"/>
<path d="M33.4333 20.6597H32.322V21.7757H33.4333V20.6597Z" fill="white" stroke="white" stroke-width="0.5"/>
<path d="M37.0962 11.729H29.3174V12.8451H37.0962V11.729Z" fill="white" stroke="white" stroke-width="0.5"/>
<path d="M24.8724 20.6587H17.0935V21.7748H24.8724V20.6587Z" fill="white" stroke="white" stroke-width="0.5"/>
<path d="M17.649 28.4713C17.5759 28.4717 17.5034 28.4576 17.4357 28.4299C17.368 28.4021 17.3064 28.3612 17.2545 28.3094L9.47563 20.4969C9.42355 20.445 9.38222 20.3833 9.35401 20.3153C9.3258 20.2473 9.31128 20.1744 9.31128 20.1007C9.31128 20.027 9.3258 19.9541 9.35401 19.8861C9.38222 19.8181 9.42355 19.7564 9.47563 19.7045L17.2545 11.892C17.3326 11.8145 17.4319 11.7621 17.5396 11.7412C17.6474 11.7204 17.759 11.732 17.8601 11.7748C17.9616 11.8166 18.0485 11.8877 18.1098 11.9791C18.1711 12.0704 18.2041 12.178 18.2046 12.2882V16.1944H36.5405C36.6879 16.1944 36.8292 16.2532 36.9334 16.3579C37.0376 16.4625 37.0961 16.6045 37.0961 16.7525V19.8719L43.5359 13.4042L37.0961 6.93657V10.056H35.9849V5.5917C35.9854 5.48153 36.0184 5.37398 36.0797 5.28262C36.141 5.19126 36.2279 5.12016 36.3294 5.0783C36.4306 5.03556 36.5421 5.02389 36.6499 5.04475C36.7577 5.0656 36.8569 5.11806 36.935 5.1955L44.7139 13.008C44.766 13.0599 44.8073 13.1216 44.8355 13.1896C44.8637 13.2576 44.8782 13.3306 44.8782 13.4042C44.8782 13.4779 44.8637 13.5508 44.8355 13.6188C44.8073 13.6868 44.766 13.7486 44.7139 13.8004L36.935 21.613C36.8569 21.6904 36.7577 21.7429 36.6499 21.7637C36.5421 21.7846 36.4306 21.7729 36.3294 21.7302C36.2279 21.6883 36.141 21.6172 36.0797 21.5259C36.0184 21.4345 35.9854 21.3269 35.9849 21.2168V17.3105H17.649C17.5016 17.3105 17.3603 17.2517 17.2561 17.147C17.1519 17.0424 17.0934 16.9005 17.0934 16.7525V13.633L10.6536 20.1007L17.0934 26.5684V23.4489H18.2046V27.9132C18.2041 28.0234 18.1711 28.1309 18.1098 28.2223C18.0485 28.3137 17.9616 28.3848 17.8601 28.4266C17.7942 28.4579 17.7219 28.4732 17.649 28.4713Z" fill="white" stroke="white" stroke-width="0.5"/>
<defs>
<clipPath id="clip0_5_15498">
<rect width="34.9091" height="43.6364" fill="white" transform="translate(9.98511 32.5713)"/>
</clipPath>
</defs>
</svg>
