<svg width="65" height="65" viewBox="0 0 65 65" fill="none" xmlns="http://www.w3.org/2000/svg">
<path d="M33.5 43.5674H31.5V48.5674H33.5V43.5674Z" fill="white"/>
<path d="M7.5 56.5674H5.5V58.5674H7.5V56.5674Z" fill="white"/>
<path d="M11.5 56.5674H9.5V58.5674H11.5V56.5674Z" fill="white"/>
<path d="M15.5 56.5674H13.5V58.5674H15.5V56.5674Z" fill="white"/>
<path d="M29.5 56.5674H27.5V58.5674H29.5V56.5674Z" fill="white"/>
<path d="M33.5 56.5674H31.5V58.5674H33.5V56.5674Z" fill="white"/>
<path d="M37.5 56.5674H35.5V58.5674H37.5V56.5674Z" fill="white"/>
<path d="M51.5 56.5674H49.5V58.5674H51.5V56.5674Z" fill="white"/>
<path d="M55.5 56.5674H53.5V58.5674H55.5V56.5674Z" fill="white"/>
<path d="M59.5 56.5674H57.5V58.5674H59.5V56.5674Z" fill="white"/>
<path d="M58.5 38.5674H10.5C9.43913 38.5674 8.42172 38.146 7.67157 37.3958C6.92142 36.6457 6.5 35.6283 6.5 34.5674V0.567383H22.91L25.91 3.56738H54.5V7.56738H58.5V38.5674ZM13.96 36.5674H56.5V9.56738H14.5V34.5674C14.4988 35.2699 14.3125 35.9597 13.96 36.5674ZM8.5 2.56738V34.5674C8.5 35.0978 8.71071 35.6065 9.08578 35.9816C9.46086 36.3567 9.96957 36.5674 10.5 36.5674C11.0304 36.5674 11.5391 36.3567 11.9142 35.9816C12.2893 35.6065 12.5 35.0978 12.5 34.5674V7.56738H52.5V5.56738H25.09L22.09 2.56738H8.5Z" fill="white"/>
<path d="M19.5 64.5674H1.5C1.23478 64.5674 0.980444 64.462 0.792908 64.2745C0.605371 64.087 0.5 63.8326 0.5 63.5674V49.5674C0.5 49.3022 0.605371 49.0478 0.792908 48.8603C0.980444 48.6728 1.23478 48.5674 1.5 48.5674H6.5C6.63161 48.5666 6.76207 48.5919 6.88391 48.6416C7.00575 48.6914 7.11655 48.7647 7.20999 48.8574L8.91 50.5674H19.5C19.7652 50.5674 20.0196 50.6728 20.2071 50.8603C20.3946 51.0478 20.5 51.3022 20.5 51.5674V63.5674C20.5 63.8326 20.3946 64.087 20.2071 64.2745C20.0196 64.462 19.7652 64.5674 19.5 64.5674ZM2.5 62.5674H18.5V52.5674H8.5C8.36839 52.5682 8.23793 52.5429 8.11609 52.4932C7.99425 52.4434 7.88345 52.3701 7.79001 52.2774L6.09 50.5674H2.5V62.5674Z" fill="white"/>
<path d="M41.5 64.5674H23.5C23.2348 64.5674 22.9804 64.462 22.7929 64.2745C22.6054 64.087 22.5 63.8326 22.5 63.5674V49.5674C22.5 49.3022 22.6054 49.0478 22.7929 48.8603C22.9804 48.6728 23.2348 48.5674 23.5 48.5674H28.5C28.6316 48.5666 28.7621 48.5919 28.8839 48.6416C29.0057 48.6914 29.1166 48.7647 29.21 48.8574L30.91 50.5674H41.5C41.7652 50.5674 42.0196 50.6728 42.2071 50.8603C42.3946 51.0478 42.5 51.3022 42.5 51.5674V63.5674C42.5 63.8326 42.3946 64.087 42.2071 64.2745C42.0196 64.462 41.7652 64.5674 41.5 64.5674ZM24.5 62.5674H40.5V52.5674H30.5C30.3684 52.5682 30.2379 52.5429 30.1161 52.4932C29.9943 52.4434 29.8834 52.3701 29.79 52.2774L28.09 50.5674H24.5V62.5674Z" fill="white"/>
<path d="M63.5 64.5674H45.5C45.2348 64.5674 44.9804 64.462 44.7929 64.2745C44.6054 64.087 44.5 63.8326 44.5 63.5674V49.5674C44.5 49.3022 44.6054 49.0478 44.7929 48.8603C44.9804 48.6728 45.2348 48.5674 45.5 48.5674H50.5C50.6316 48.5666 50.7621 48.5919 50.8839 48.6416C51.0057 48.6914 51.1166 48.7647 51.21 48.8574L52.91 50.5674H63.5C63.7652 50.5674 64.0196 50.6728 64.2071 50.8603C64.3946 51.0478 64.5 51.3022 64.5 51.5674V63.5674C64.5 63.8326 64.3946 64.087 64.2071 64.2745C64.0196 64.462 63.7652 64.5674 63.5 64.5674ZM46.5 62.5674H62.5V52.5674H52.5C52.3684 52.5682 52.2379 52.5429 52.1161 52.4932C51.9943 52.4434 51.8834 52.3701 51.79 52.2774L50.09 50.5674H46.5V62.5674Z" fill="white"/>
<path d="M55.5 48.5674H53.5V44.5674H11.5V48.5674H9.5V42.5674H55.5V48.5674Z" fill="white"/>
<path d="M35.4996 31.5674C33.2951 31.5679 31.1645 30.7725 29.4996 29.3274V31.5674H27.4996V26.5674C27.4919 26.3416 27.5608 26.1199 27.6952 25.9383C27.8296 25.7567 28.0214 25.626 28.2396 25.5674C28.4534 25.5095 28.6804 25.5243 28.8849 25.6093C29.0894 25.6944 29.2599 25.845 29.3696 26.0374C29.9929 27.1109 30.8872 28.002 31.9629 28.6215C33.0387 29.241 34.2582 29.5671 35.4996 29.5674C37.3561 29.5674 39.1366 28.8299 40.4494 27.5171C41.7621 26.2044 42.4996 24.4239 42.4996 22.5674H44.4996C44.4996 24.9543 43.5514 27.2435 41.8636 28.9314C40.1757 30.6192 37.8866 31.5674 35.4996 31.5674Z" fill="white"/>
<path d="M28.5 22.5674H26.5C26.5 20.1804 27.4482 17.8912 29.136 16.2034C30.8239 14.5156 33.1131 13.5674 35.5 13.5674C37.7045 13.5669 39.8352 14.3623 41.5 15.8074V13.5674H43.5V18.5674C43.5077 18.7931 43.4388 19.0149 43.3044 19.1965C43.1701 19.378 42.9782 19.5088 42.76 19.5674C42.5462 19.6253 42.3192 19.6105 42.1147 19.5254C41.9102 19.4404 41.7397 19.2898 41.63 19.0974C41.0067 18.0238 40.1124 17.1328 39.0367 16.5133C37.9609 15.8938 36.7414 15.5676 35.5 15.5674C33.6435 15.5674 31.863 16.3049 30.5503 17.6176C29.2375 18.9304 28.5 20.7109 28.5 22.5674Z" fill="white"/>
<path d="M32.5 25.5674H28.5V27.5674H32.5V25.5674Z" fill="white"/>
<path d="M42.5 17.5674H38.5V19.5674H42.5V17.5674Z" fill="white"/>
<path d="M22.5 37.5674H20.5V43.5674H22.5V37.5674Z" fill="white"/>
<path d="M44.5 37.5674H42.5V43.5674H44.5V37.5674Z" fill="white"/>
</svg>
