<svg width="66" height="24" viewBox="0 0 66 24" fill="none" xmlns="http://www.w3.org/2000/svg">
<g clip-path="url(#clip0_181_1638)">
<path d="M12.1098 4.34769C13.131 4.3449 14.1426 4.54219 15.0861 4.92812C16.0296 5.31405 16.8862 5.88098 17.6063 6.59606C18.3303 7.30732 18.9043 8.15332 19.2951 9.08512C19.6858 10.0169 19.8856 11.016 19.8828 12.0246C19.8858 13.0334 19.6862 14.0328 19.2954 14.9649C18.9046 15.897 18.3305 16.7432 17.6063 17.4547C16.8862 18.1698 16.0296 18.7367 15.0861 19.1226C14.1426 19.5085 13.131 19.7058 12.1098 19.703C11.0886 19.7059 10.0771 19.5086 9.13367 19.1227C8.19026 18.7367 7.33373 18.1698 6.61369 17.4547C5.88958 16.7436 5.31549 15.8976 4.92465 14.9659C4.53382 14.0342 4.33399 13.0351 4.33675 12.0266C4.33396 11.018 4.53377 10.0189 4.9246 9.08707C5.31544 8.15526 5.88955 7.30926 6.61369 6.59808C7.33373 5.88297 8.19026 5.31603 9.13367 4.93009C10.0771 4.54416 11.0886 4.3469 12.1098 4.34973V4.34769ZM12.1098 3.54053C7.3646 3.54053 3.51741 7.3397 3.51741 12.0266C3.51741 16.7135 7.3646 20.5122 12.1098 20.5122C16.855 20.5122 20.7022 16.7131 20.7022 12.0266C20.7022 7.34011 16.8554 3.54053 12.1098 3.54053V3.54053Z" fill="#4A7BFF"/>
<path d="M12.1098 5.68647C12.9528 5.68406 13.788 5.84682 14.5669 6.16531C15.3458 6.48381 16.0531 6.95171 16.6477 7.54196C17.2454 8.12918 17.7193 8.82763 18.0419 9.59692C18.3646 10.3662 18.5295 11.191 18.5272 12.0237C18.5295 12.8563 18.3645 13.6811 18.0419 14.4503C17.7193 15.2195 17.2454 15.9179 16.6477 16.505C16.0531 17.0954 15.3459 17.5635 14.567 17.8821C13.7881 18.2008 12.9529 18.3637 12.1098 18.3613C11.2667 18.3637 10.4316 18.2008 9.65274 17.8822C8.87387 17.5635 8.16674 17.0954 7.5723 16.505C6.97453 15.9179 6.50061 15.2196 6.17798 14.4503C5.85535 13.6811 5.69043 12.8563 5.69275 12.0237C5.6904 11.191 5.8553 10.3662 6.17793 9.59688C6.50056 8.82758 6.9745 8.12912 7.5723 7.54196C8.16674 6.95154 8.87387 6.48346 9.65274 6.16482C10.4316 5.84618 11.2667 5.68332 12.1098 5.68566V5.68647ZM12.1098 4.87646C11.1595 4.87646 10.2184 5.06133 9.34046 5.42052C8.46247 5.77971 7.66472 6.30618 6.99276 6.96987C6.32079 7.63356 5.78777 8.42147 5.42413 9.28861C5.0605 10.1558 4.87336 11.0851 4.87341 12.0237C4.87341 13.9192 5.63581 15.737 6.9929 17.0773C8.34998 18.4176 10.1906 19.1705 12.1098 19.1705C14.029 19.1705 15.8697 18.4176 17.2268 17.0773C18.584 15.737 19.3465 13.9192 19.3466 12.0237C19.3466 10.1281 18.5841 8.3102 17.227 6.96983C15.8698 5.62946 14.0291 4.87646 12.1098 4.87646V4.87646Z" fill="#4A7BFF"/>
<path d="M12.1098 7.08914C12.7663 7.08734 13.4167 7.2142 14.0233 7.46235C14.6299 7.71049 15.1806 8.07499 15.6436 8.53477C16.1091 8.99201 16.4782 9.53592 16.7295 10.135C16.9807 10.7341 17.1091 11.3764 17.1073 12.0249C17.1089 12.6729 16.9803 13.3149 16.7291 13.9136C16.4778 14.5123 16.1089 15.0559 15.6436 15.5129C15.1806 15.9727 14.6299 16.3372 14.0233 16.5853C13.4167 16.8335 12.7663 16.9603 12.1098 16.9585C11.4532 16.9603 10.8029 16.8334 10.1963 16.5853C9.58971 16.3371 9.03898 15.9726 8.57599 15.5129C8.11049 15.0557 7.74145 14.5119 7.4902 13.9129C7.23894 13.3139 7.11048 12.6716 7.11224 12.0232C7.11042 11.3748 7.23886 10.7324 7.49012 10.1334C7.74137 9.5343 8.11045 8.99041 8.57599 8.53317C9.03898 8.07343 9.58971 7.70893 10.1963 7.46078C10.8029 7.21264 11.4532 7.08577 12.1098 7.08752V7.08914ZM12.1098 6.27832C10.5669 6.27832 9.08729 6.88365 7.99634 7.9611C6.90539 9.03855 6.2925 10.4999 6.2925 12.0236C6.2925 13.5474 6.90539 15.0087 7.99634 16.0862C9.08729 17.1636 10.5669 17.7689 12.1098 17.7689C13.6526 17.7689 15.1323 17.1636 16.2232 16.0862C17.3142 15.0087 17.9271 13.5474 17.9271 12.0236C17.9271 10.4999 17.3142 9.03855 16.2232 7.9611C15.1323 6.88365 13.6526 6.27832 12.1098 6.27832Z" fill="#4A7BFF"/>
<path d="M16.3236 12.0247C16.325 11.1343 16.0359 10.2671 15.499 9.55176V14.4972C16.0358 13.782 16.325 12.915 16.3236 12.0247V12.0247Z" fill="#4A7BFF"/>
<path d="M13.612 8.13574V15.9138C13.9574 15.7833 14.2838 15.6085 14.583 15.3938V8.65524C14.2839 8.44056 13.9575 8.26588 13.612 8.13574V8.13574Z" fill="#4A7BFF"/>
<path d="M12.1098 7.86279C11.9799 7.86279 11.8517 7.86885 11.7251 7.88018V16.1684C11.8517 16.1797 11.9799 16.1858 12.1098 16.1858C12.3059 16.1857 12.5018 16.1721 12.696 16.1453V7.90284C12.5018 7.87616 12.3059 7.86279 12.1098 7.86279V7.86279Z" fill="#4A7BFF"/>
<path d="M7.89596 12.0245C7.89447 13.0241 8.25893 13.9906 8.92217 14.7458V9.30273C8.25887 10.058 7.89441 11.0247 7.89596 12.0245V12.0245Z" fill="#4A7BFF"/>
<path d="M9.83861 8.51898V15.5303C10.1412 15.7219 10.4675 15.8743 10.8095 15.9838V8.06543C10.4675 8.17491 10.1412 8.32734 9.83861 8.51898V8.51898Z" fill="#4A7BFF"/>
<path d="M11.4093 0.0339823L11.5485 2.60641C11.9021 2.57083 12.2585 2.57437 12.6112 2.61694L12.7665 0.0392374C12.3157 -0.0119125 11.8605 -0.0136717 11.4093 0.0339823V0.0339823Z" fill="#4A7BFF"/>
<path d="M8.90578 0.442444L9.58337 2.92992C9.92186 2.82255 10.2714 2.75281 10.6256 2.72197L10.2343 0.168945C9.78258 0.2112 9.33699 0.302923 8.90578 0.442444V0.442444Z" fill="#4A7BFF"/>
<path d="M6.54282 1.35597L7.73085 3.65005C8.03926 3.47548 8.36643 3.33544 8.70628 3.23251L7.78615 0.81543C7.35281 0.949817 6.93583 1.13109 6.54282 1.35597V1.35597Z" fill="#4A7BFF"/>
<path d="M4.42442 2.73488L6.06801 4.73522C6.33283 4.50103 6.62332 4.2968 6.93405 4.1263L5.52561 1.95117C5.13035 2.17142 4.76104 2.43427 4.42442 2.73488V2.73488Z" fill="#4A7BFF"/>
<path d="M2.64195 4.51867L4.67104 6.13707C4.88078 5.85369 5.12192 5.59436 5.39 5.36389L3.55428 3.52539C3.21421 3.82244 2.90826 4.15553 2.64195 4.51867Z" fill="#4A7BFF"/>
<path d="M1.27652 6.62955L3.6018 7.79683C3.74738 7.47645 3.92876 7.17314 4.14256 6.89254L1.95984 5.47119C1.68933 5.83113 1.46015 6.21963 1.27652 6.62955Z" fill="#4A7BFF"/>
<path d="M0.380981 8.97496L2.90126 9.63931C2.97605 9.29609 3.08956 8.96223 3.23965 8.64398L0.805402 7.70166C0.616759 8.10931 0.474414 8.53635 0.380981 8.97496V8.97496Z" fill="#4A7BFF"/>
<path d="M0.000837765 11.4524L2.60591 11.5843C2.6075 11.2332 2.64872 10.8833 2.72881 10.5412L0.147902 10.1196C0.0491944 10.5572 -0.000123713 11.0041 0.000837765 11.4524V11.4524Z" fill="#4A7BFF"/>
<path d="M0.150344 13.9541L2.72634 13.5495C2.65339 13.2059 2.61959 12.8554 2.62556 12.5044L0.0139217 12.6213C0.00959593 13.0692 0.0553495 13.5162 0.150344 13.9541V13.9541Z" fill="#4A7BFF"/>
<path d="M0.823425 16.3704L3.25768 15.4443C3.11415 15.1232 3.00725 14.7873 2.93896 14.4429L0.409256 15.0935C0.499091 15.5329 0.637993 15.9612 0.823425 16.3704V16.3704Z" fill="#4A7BFF"/>
<path d="M1.99017 18.5954L4.17657 17.1903C3.96847 16.9057 3.79327 16.599 3.65425 16.2759L1.31627 17.4318C1.49699 17.8429 1.72298 18.2332 1.99017 18.5954Z" fill="#4A7BFF"/>
<path d="M3.60016 20.5327L5.44367 18.7088C5.1802 18.4733 4.94427 18.2093 4.74027 17.9219L2.69684 19.533C2.95994 19.8979 3.26286 20.2332 3.60016 20.5327V20.5327Z" fill="#4A7BFF"/>
<path d="M5.58297 22.0963L7.00123 19.9341C6.69383 19.7578 6.40745 19.548 6.14748 19.3086L4.48792 21.3041C4.82224 21.6072 5.1895 21.8729 5.58297 22.0963V22.0963Z" fill="#4A7BFF"/>
<path d="M7.85128 23.2193L8.78327 20.8131C8.44556 20.7037 8.12127 20.5575 7.81645 20.377L6.61368 22.669C7.00433 22.8971 7.4194 23.0816 7.85128 23.2193Z" fill="#4A7BFF"/>
<path d="M10.3064 23.8517L10.7116 21.3068C10.3583 21.2692 10.0104 21.1927 9.67431 21.0786L8.97992 23.5677C9.4101 23.7105 9.85498 23.8058 10.3064 23.8517Z" fill="#4A7BFF"/>
<path d="M12.841 23.9658L12.7018 21.3933C12.3481 21.4289 11.9915 21.4254 11.6387 21.3828L11.4838 23.9605C11.9346 24.0117 12.3898 24.0134 12.841 23.9658V23.9658Z" fill="#4A7BFF"/>
<path d="M15.3445 23.5573L14.6665 21.0698C14.3282 21.1772 13.9788 21.247 13.6247 21.2778L14.016 23.8308C14.4677 23.7885 14.9133 23.6968 15.3445 23.5573V23.5573Z" fill="#4A7BFF"/>
<path d="M17.7071 22.6437L16.5191 20.3496C16.2106 20.5242 15.8835 20.6642 15.5436 20.7672L16.4633 23.1842C16.8969 23.0499 17.314 22.8687 17.7071 22.6437V22.6437Z" fill="#4A7BFF"/>
<path d="M19.8259 21.265L18.1823 19.2646C17.9174 19.4987 17.6269 19.703 17.3163 19.8736L18.7247 22.0487C19.1201 21.8286 19.4894 21.5658 19.8259 21.265V21.265Z" fill="#4A7BFF"/>
<path d="M21.6083 19.4817L19.5793 17.8633C19.3693 18.1465 19.1282 18.4058 18.8603 18.6365L20.696 20.475C21.0361 20.1779 21.342 19.8448 21.6083 19.4817V19.4817Z" fill="#4A7BFF"/>
<path d="M22.9758 17.3709L20.6505 16.2036C20.5049 16.524 20.3236 16.8273 20.1098 17.1079L22.2925 18.5292C22.5628 18.1692 22.792 17.7807 22.9758 17.3709V17.3709Z" fill="#4A7BFF"/>
<path d="M23.8693 15.0271L21.349 14.3628C21.2741 14.706 21.1606 15.0398 21.0107 15.3581L23.4449 16.3004C23.6334 15.8927 23.7757 15.4657 23.8693 15.0271V15.0271Z" fill="#4A7BFF"/>
<path d="M24.2495 12.5474L21.6444 12.4155C21.6428 12.7666 21.6016 13.1165 21.5215 13.4586L24.1024 13.8802C24.2009 13.4426 24.2503 12.9957 24.2495 12.5474V12.5474Z" fill="#4A7BFF"/>
<path d="M24.1 10.0459L21.524 10.4505C21.5967 10.7941 21.6305 11.1446 21.6247 11.4956L24.2364 11.3786C24.2407 10.9308 24.1949 10.4838 24.1 10.0459V10.0459Z" fill="#4A7BFF"/>
<path d="M23.4269 7.62988L20.9926 8.5556C21.1362 8.87662 21.243 9.21251 21.3109 9.55698L23.8411 8.9064C23.7511 8.46711 23.6122 8.03899 23.4269 7.62988Z" fill="#4A7BFF"/>
<path d="M22.2597 5.40479L20.0737 6.80996C20.2818 7.09456 20.457 7.40127 20.5961 7.72435L22.9336 6.56842C22.7532 6.15713 22.5272 5.76686 22.2597 5.40479Z" fill="#4A7BFF"/>
<path d="M20.6497 3.46729L18.8062 5.29122C19.0697 5.52679 19.3056 5.79074 19.5096 6.07815L21.5551 4.46705C21.2915 4.10187 20.9879 3.76659 20.6497 3.46729V3.46729Z" fill="#4A7BFF"/>
<path d="M18.6674 1.90381L17.2491 4.06598C17.5564 4.24236 17.8428 4.45216 18.1028 4.69149L19.7624 2.69602C19.428 2.39298 19.0608 2.1273 18.6674 1.90381Z" fill="#4A7BFF"/>
<path d="M16.399 0.780762L15.4666 3.1869C15.8044 3.29619 16.1287 3.44249 16.4334 3.62307L17.6366 1.33102C17.2459 1.10312 16.8308 0.918581 16.399 0.780762V0.780762Z" fill="#4A7BFF"/>
<path d="M13.9439 0.148438L13.5383 2.69338C13.8917 2.73091 14.2398 2.80743 14.576 2.92156L15.2724 0.432467C14.8416 0.289558 14.396 0.194299 13.9439 0.148438V0.148438Z" fill="#4A7BFF"/>
<path d="M33.4248 6.16309C36.0827 6.16309 37.6034 7.80211 37.6034 10.1156C37.6034 12.4404 36.0578 14.0511 33.3716 14.0511H31.2724V17.8596H28.8484V6.16309H33.4248ZM32.9799 12.0921C34.417 12.0921 35.1131 11.2865 35.1131 10.1156C35.1131 8.9447 34.4166 8.15654 32.9742 8.15654H31.2745V12.0921H32.9799Z" fill="#4A7BFF"/>
<path d="M63.5322 17.9439V9.29199H65.9221V17.9439H63.5322Z" fill="#4A7BFF"/>
<path d="M49.0168 9.07943C43.7218 9.22427 43.2053 17.4631 48.467 18.1987C52.4793 18.7599 53.5785 15.9552 53.5785 15.9552L51.8198 15.1407C51.8198 15.1407 50.9218 16.7332 49.3281 16.5524C47.7345 16.3715 47.313 15.1229 47.1295 14.4351H53.8533C53.8533 14.4351 54.3114 8.93579 49.0168 9.07943ZM47.1479 12.9154C47.1479 12.9154 47.2212 10.7622 49.4011 10.7262C51.5809 10.6901 51.7825 12.9154 51.7825 12.9154H47.1479Z" fill="#4A7BFF"/>
<path d="M62.0791 18.0013V16.1916H57.499L62.0975 9.22559H54.6411V11.071H58.635L54.1647 18.0191L62.0791 18.0013Z" fill="#4A7BFF"/>
<path d="M64.7059 8.19981C65.4206 8.19981 66 7.62757 66 6.92168C66 6.21579 65.4206 5.64355 64.7059 5.64355C63.9911 5.64355 63.4117 6.21579 63.4117 6.92168C63.4117 7.62757 63.9911 8.19981 64.7059 8.19981Z" fill="#4A7BFF"/>
<path d="M41.168 10.7545V9.19682H38.8529V17.9677H41.168V12.9798C41.168 12.9798 41.7784 11.1089 44.1995 11.0883V9.11388C44.1995 9.11388 42.5711 8.87435 41.168 10.7545Z" fill="#4A7BFF"/>
</g>
<defs>
<clipPath id="clip0_181_1638">
<rect width="66" height="24" fill="white"/>
</clipPath>
</defs>
</svg>
