<svg width="52" height="22" viewBox="0 0 52 22" fill="none" xmlns="http://www.w3.org/2000/svg">
<g clip-path="url(#clip0_181_1570)">
<path d="M51.2598 3.30637C51.0855 2.67074 50.7445 2.09121 50.271 1.62571C49.7974 1.16022 49.2078 0.825081 48.5612 0.653799C46.1812 0.0268579 36.6373 0.0268555 36.6373 0.0268555C36.6373 0.0268555 27.0934 0.0268579 24.7128 0.653799C24.0661 0.824856 23.4765 1.15993 23.0029 1.62547C22.5294 2.091 22.1887 2.67065 22.0148 3.30637C21.377 5.64575 21.377 10.5266 21.377 10.5266C21.377 10.5266 21.377 15.4096 22.0148 17.7479C22.1887 18.3835 22.5296 18.9631 23.0031 19.4285C23.4766 19.8939 24.0662 20.2289 24.7128 20.3999C27.0934 21.0269 36.6373 21.0269 36.6373 21.0269C36.6373 21.0269 46.1812 21.0269 48.5612 20.3999C49.2077 20.2287 49.7973 19.8936 50.2709 19.4282C50.7444 18.9629 51.0854 18.3834 51.2598 17.7479C51.8976 15.408 51.8976 10.5266 51.8976 10.5266C51.8976 10.5266 51.8976 5.64351 51.2598 3.30637Z" fill="#ED2224"/>
<path d="M8.43265 16.5522C8.00401 16.2682 7.69947 15.8267 7.51903 15.2276C7.33859 14.6285 7.24818 13.8317 7.2478 12.8371V10.8609C7.2478 9.85622 7.35096 9.0493 7.55729 8.44013C7.76362 7.83096 8.08624 7.38681 8.52516 7.10767C8.96446 6.82891 9.54023 6.68934 10.2525 6.68896C10.9548 6.68896 11.5176 6.83115 11.941 7.11553C12.3643 7.39991 12.6741 7.84387 12.8706 8.44743C13.0666 9.05173 13.1646 9.85622 13.1646 10.8609V12.8371C13.1646 13.8325 13.0695 14.6317 12.8791 15.2349C12.6888 15.8381 12.3791 16.2796 11.9501 16.5595C11.5215 16.839 10.9405 16.9788 10.2074 16.9788C9.45324 16.9788 8.86205 16.8366 8.4338 16.5522H8.43265ZM10.832 15.0929C10.9508 14.7883 11.0102 14.2908 11.0102 13.6005V10.0695C11.0102 9.39935 10.9508 8.90954 10.832 8.60009C10.7133 8.29064 10.5039 8.13574 10.2039 8.13536C9.91424 8.13536 9.7102 8.29027 9.59181 8.60009C9.47342 8.90991 9.41422 9.39972 9.41422 10.0695V13.5982C9.41422 14.2886 9.47133 14.7861 9.58553 15.0906C9.69973 15.3952 9.90625 15.5473 10.2051 15.547C10.5043 15.547 10.7137 15.3949 10.8332 15.0906" fill="white"/>
<path d="M3.32953 12.0132L0.897583 3.38024H3.01832L3.87142 7.29119C4.0884 8.25546 4.24848 9.07753 4.35164 9.75742H4.41388C4.48583 9.27098 4.64571 8.45396 4.89353 7.30635L5.77689 3.37744H7.89877L5.43599 12.0104V16.8755H3.32953V12.0132Z" fill="white"/>
<path d="M19.8455 6.75391V16.7765H18.1724L17.9863 15.6344H17.94C17.4855 16.4972 16.8039 16.9286 15.8952 16.9286C15.2656 16.9286 14.801 16.7256 14.5014 16.3197C14.2018 15.9137 14.052 15.2792 14.052 14.4164V6.75391H16.1899V14.2923C16.1899 14.7084 16.2363 15.0054 16.3292 15.1831C16.4221 15.3608 16.577 15.4495 16.794 15.4491C16.9852 15.4472 17.1713 15.3885 17.3279 15.2807C17.4924 15.176 17.6238 15.0283 17.7076 14.8542V6.75391H19.8455Z" fill="white"/>
<path d="M45.5411 12.6752V13.154C45.5348 13.6104 45.5538 14.0669 45.5982 14.5212C45.6347 14.8255 45.7124 15.0466 45.8266 15.1858C45.9408 15.325 46.1201 15.3946 46.3611 15.3946C46.6861 15.3946 46.9088 15.2709 47.0291 15.0236C47.1494 14.7763 47.2149 14.3647 47.2256 13.7888L49.0962 13.8971C49.1079 14.009 49.113 14.1214 49.1116 14.2339C49.1116 15.1095 48.8682 15.7643 48.3813 16.1983C47.8944 16.6324 47.2054 16.8487 46.3142 16.8472C45.2453 16.8472 44.4959 16.5175 44.0662 15.8582C43.6364 15.1989 43.4215 14.1792 43.4215 12.7993V11.1463C43.4215 9.72443 43.6442 8.68663 44.0896 8.03293C44.535 7.37924 45.2963 7.05202 46.3736 7.05127C47.1182 7.05127 47.6892 7.18523 48.0867 7.45314C48.4841 7.72106 48.7644 8.13827 48.9278 8.70478C49.0899 9.27167 49.1712 10.0545 49.1716 11.0531V12.6758L45.5411 12.6752ZM45.8157 8.69019C45.7061 8.82377 45.6328 9.04248 45.5959 9.34631C45.5514 9.80595 45.5323 10.2676 45.5388 10.7293V11.4096H47.1262V10.7293C47.1334 10.2675 47.1125 9.80566 47.0634 9.34631C47.0211 9.03275 46.945 8.81142 46.835 8.68233C46.725 8.55324 46.5546 8.48887 46.3239 8.48925C46.0932 8.48925 45.9219 8.55623 45.81 8.69019" fill="white"/>
<path d="M35.6745 7.14355V16.8597H33.9769L33.7885 15.4566H33.7388C33.2774 16.3321 32.5859 16.8597 31.6637 16.8597C31.3871 16.8643 31.1134 16.8021 30.8669 16.6786C30.6203 16.5551 30.4083 16.3741 30.2494 16.1514C29.9448 15.7398 29.7925 15.096 29.7925 14.2201V7.14355H31.9624V14.0966C31.9624 14.5187 32.0094 14.8199 32.1034 15.0002C32.1975 15.1806 32.3547 15.2708 32.5751 15.2708C32.769 15.2696 32.9581 15.211 33.1175 15.1024C33.2843 14.9962 33.4176 14.8463 33.5024 14.6697V7.14355H35.6745Z" fill="white"/>
<path d="M30.2128 5.58627H28.0595V16.8342H25.9376V5.58627H23.7843V3.87158H30.2128V5.58627Z" fill="white"/>
<path d="M42.4325 8.65816C42.3011 8.05947 42.0889 7.62673 41.7958 7.35994C41.5027 7.09315 41.0992 6.95938 40.5852 6.95863C40.1881 6.9583 39.7997 7.07395 39.4695 7.29091C39.1293 7.50737 38.8535 7.8085 38.6701 8.16369H38.6495V3.17285H36.5619V16.8477H38.3532L38.5736 15.719H38.621C38.7883 16.0383 39.0395 16.3846 39.3753 16.5699C39.7161 16.7576 40.1009 16.8544 40.4916 16.8505C41.2248 16.8505 41.7642 16.5184 42.1099 15.8542C42.4559 15.1897 42.6289 14.0582 42.6289 12.6471V11.1485C42.6289 10.0877 42.5634 9.25854 42.4325 8.66097V8.65816ZM40.4442 12.5242C40.4442 13.2146 40.4153 13.7553 40.3574 14.1463C40.2995 14.5373 40.2027 14.8155 40.0668 14.9809C40.0012 15.0615 39.9172 15.1258 39.8217 15.1687C39.7262 15.2116 39.6218 15.2319 39.5169 15.2279C39.3438 15.2293 39.1733 15.1868 39.0218 15.1044C38.8653 15.0177 38.7371 14.889 38.6524 14.7334V9.35695C38.7157 9.11543 38.8462 8.89601 39.0292 8.72327C39.1826 8.56897 39.3917 8.48025 39.6111 8.47631C39.7112 8.47225 39.8107 8.49349 39.9001 8.538C39.9894 8.58252 40.0657 8.64882 40.1216 8.73057C40.2419 8.90045 40.3258 9.18651 40.3734 9.58876C40.428 10.1587 40.4517 10.731 40.4442 11.3034V12.5242Z" fill="white"/>
</g>
<defs>
<clipPath id="clip0_181_1570">
<rect width="51" height="21" fill="white" transform="translate(0.897583 0.0239258)"/>
</clipPath>
</defs>
</svg>
