<svg width="55" height="16" viewBox="0 0 55 16" fill="none" xmlns="http://www.w3.org/2000/svg">
<g clip-path="url(#clip0_181_1588)">
<path fill-rule="evenodd" clip-rule="evenodd" d="M54.9768 9.20798C54.8815 7.89053 54.3307 6.60489 53.0937 6.01635C51.9568 5.47646 49.803 5.61962 48.6565 6.10992C44.5214 8.01778 44.7625 11.477 44.6082 12.2855C43.8724 12.7692 42.6259 13.1276 41.4976 13.2735C40.5055 13.4045 39.4286 13.3549 38.8215 12.8918C40.8819 12.088 45.9786 9.60003 44.3108 6.69378C42.6726 3.73046 33.4066 6.66104 34.8875 13.1248C34.0384 13.645 33.7001 13.499 33.4923 12.6897C33.4561 11.259 33.8307 10.1577 34.0413 8.89452C34.1118 8.47253 34.2004 8.01872 34.1556 7.56959C34.0794 6.79671 33.5152 6.02851 32.6461 5.95272C30.1683 5.95272 28.8531 7.72491 28.2318 8.131C27.9849 7.54713 28.8484 5.97892 26.3334 5.97892C24.4159 5.86196 23.1408 7.1242 22.2164 7.91018C22.0897 7.45076 22.0458 6.92116 21.8505 6.49542C21.6875 6.14079 21.3663 5.74687 20.9584 5.68699C20.5506 5.6271 20.0884 5.90313 19.792 6.11366C18.8828 6.76303 17.9593 7.61918 17.3447 8.42668C17.6792 9.03488 18.6322 8.61381 19.243 8.53896C19.2173 9.13593 19.1687 9.75535 19.0829 10.3579C18.9486 11.2936 18.9219 12.1095 18.0766 12.6972C17.5686 13.049 16.8558 13.3521 16.5899 12.5849C16.3335 11.8447 16.5527 10.9736 16.6995 10.2326C16.8834 9.3081 16.9806 8.37428 17.1159 7.44233C17.1884 6.94361 17.2789 6.55343 16.912 6.13237C16.7699 5.96692 16.59 5.83678 16.387 5.75255C16.1839 5.66832 15.9635 5.63239 15.7436 5.64769C14.5762 5.75716 14.0282 6.80233 13.2048 7.30947C13.6213 5.68511 12.2976 5.22382 10.971 5.42218C10.4449 5.50078 8.66471 6.27272 8.0586 8.1179C9.13168 8.03743 9.69396 8.19369 9.59103 9.35301C9.54815 9.83957 9.29846 10.371 9.01923 10.8801C8.69711 11.4686 8.09291 12.6214 7.30383 11.7905C6.59098 11.0419 6.6453 9.61032 6.48234 8.65686C6.38704 8.12164 6.29174 7.45637 6.11638 6.90525C5.96295 6.43179 5.61034 5.86196 5.17863 5.73751C4.71547 5.60464 4.14272 5.8133 3.80631 6.00699C2.73513 6.62548 1.91936 7.50409 0.993042 8.23018V8.29755C1.17602 8.46972 1.22557 8.75323 1.49623 8.7916C2.13379 8.88517 2.7418 8.20773 3.16493 8.91136C3.4232 9.34085 3.5042 9.8115 3.66907 10.2747C3.89017 10.8922 4.06076 11.5631 4.24087 12.2724C4.54679 13.4738 4.92132 15.2666 5.97915 15.7082C6.5195 15.9328 7.32956 15.6333 7.7403 15.3938C8.85341 14.7472 9.71969 13.8106 10.4621 12.8562C11.246 11.8572 11.935 10.7898 12.5206 9.6674C12.877 8.97218 13.1143 8.3827 14.1216 8.52212C14.0558 9.97056 13.5955 11.2001 13.3211 12.452C13.2258 12.8937 13.099 13.3746 13.0924 13.8219C13.08 14.6228 13.4211 15.4078 14.0301 15.5735C14.4809 15.696 15.1089 15.6492 15.5397 15.6184C16.9987 15.5145 18.2786 14.5685 19.0715 13.791C19.5099 14.3112 20.0645 15.6418 22.1335 15.6418C21.1805 13.6001 21.7942 8.70364 24.3454 8.92634C25.0926 9.20704 24.7562 10.4384 24.597 11.1271C24.4874 11.6043 23.4906 15.9983 27.3607 15.6633C27.3607 14.8296 27.0234 10.2045 29.5631 8.97686C29.7909 8.86084 30.5876 8.85522 30.6314 9.24073C30.8296 10.9867 30.0091 12.5503 30.0367 14.3159C30.0577 17.1014 34.4463 14.7622 35.4117 14.2223C35.9654 14.6228 37.6036 16.205 41.3584 15.3676C42.0114 15.222 42.6475 15.0113 43.2568 14.7388C43.8553 14.4581 44.4099 14.1437 45.018 13.9528C44.935 13.979 45.7346 14.9203 45.8232 14.9868C46.2195 15.2661 46.6614 15.4772 47.1298 15.6109C48.1962 15.9459 49.3284 15.8233 50.4034 15.5735C52.5715 15.0691 54.0381 13.4635 54.709 11.4227C54.9383 10.7074 55.0291 9.95618 54.9768 9.20798V9.20798ZM40.0881 8.15907C40.5579 7.92234 41.3384 7.82222 41.4937 8.60446C41.671 9.49243 40.1948 11.215 38.1344 12.0244C37.3491 10.6143 38.8168 8.82528 40.0881 8.15907ZM51.304 11.9954C50.8951 12.7159 50.1861 13.4317 49.3389 13.6132C47.6816 13.9697 47.8074 11.6024 48.0847 10.619C48.1971 10.2345 48.3572 9.86492 48.5612 9.51862C48.93 8.87581 49.4466 8.16936 50.187 7.91954C50.2372 7.90269 50.2887 7.88772 50.3414 7.87462C51.0962 7.6931 51.6346 8.21615 51.8739 8.88142C52.2617 9.94904 51.8357 11.0606 51.3011 11.9991L51.304 11.9954ZM17.1741 3.39736C17.9441 2.79571 18.1804 1.83008 17.703 1.24528C17.2255 0.660473 16.2134 0.666086 15.4434 1.26773C14.6734 1.86938 14.437 2.83594 14.9145 3.42449C15.392 4.01304 16.4031 3.99994 17.1741 3.39736Z" fill="#12B8EA"/>
</g>
<defs>
<clipPath id="clip0_181_1588">
<rect width="54" height="15" fill="white" transform="translate(0.991211 0.806641)"/>
</clipPath>
</defs>
</svg>
