<svg width="46" height="29" viewBox="0 0 46 29" fill="none" xmlns="http://www.w3.org/2000/svg">
<path d="M14.5266 10.4433C14.5261 12.0045 14.9652 13.5343 15.7936 14.8575C16.622 16.1807 17.8063 17.244 19.2109 17.9255L15.2466 7.06125C14.7707 8.12522 14.5253 9.27778 14.5266 10.4433V10.4433ZM28.4507 10.0234C28.4394 9.21103 28.2025 8.41777 27.7663 7.73235C27.344 7.0457 26.9485 6.46787 26.9485 5.78122C26.9389 5.40041 27.0807 5.03132 27.3426 4.75477C27.6046 4.47822 27.9655 4.31683 28.3462 4.30578C28.3818 4.30578 28.4173 4.30578 28.4529 4.30578C26.9215 2.90052 24.9181 2.12163 22.8397 2.12354C21.462 2.12315 20.1058 2.46538 18.8932 3.11939C17.6806 3.7734 16.6497 4.71874 15.8932 5.87019C16.0887 5.87019 16.2732 5.87019 16.4287 5.87019C17.2976 5.87019 18.6509 5.76343 18.6509 5.76343C18.7409 5.75835 18.8292 5.78876 18.897 5.84806C18.9649 5.90736 19.0068 5.99087 19.0137 6.08069C19.0207 6.17051 18.9922 6.25946 18.9344 6.32852C18.8765 6.39758 18.7939 6.44127 18.7042 6.45015C18.7042 6.45015 18.2598 6.50128 17.7532 6.52795L20.7797 15.5322L22.5997 10.0767L21.3042 6.52122C20.8598 6.49455 20.4331 6.44342 20.4331 6.44342C20.3441 6.43405 20.2622 6.39039 20.2048 6.32168C20.1474 6.25297 20.119 6.16465 20.1257 6.07538C20.1323 5.9861 20.1735 5.90285 20.2404 5.84339C20.3073 5.78393 20.3948 5.7529 20.4842 5.75681C20.4842 5.75681 21.8575 5.86347 22.6753 5.86347C23.5441 5.86347 24.8974 5.75681 24.8974 5.75681C24.9874 5.75173 25.0757 5.78214 25.1435 5.84144C25.2114 5.90074 25.2533 5.98426 25.2602 6.07407C25.2672 6.16389 25.2387 6.25284 25.1809 6.3219C25.123 6.39096 25.0404 6.43455 24.9508 6.44342C24.9508 6.44342 24.5063 6.49455 23.9975 6.52122L27.0018 15.4588L27.8329 12.6877C28.2448 11.6241 28.4507 10.736 28.4507 10.0234V10.0234ZM22.9864 11.17L20.4909 18.4187C21.2535 18.6435 22.0446 18.7573 22.8397 18.7565C23.7797 18.757 24.713 18.5977 25.5996 18.2854C25.577 18.249 25.557 18.2112 25.5396 18.1721L22.9864 11.17ZM30.1351 6.4546C30.1726 6.73823 30.1911 7.02406 30.1907 7.31015C30.1764 8.3346 29.9612 9.34627 29.5573 10.2878L27.0196 17.621C28.2771 16.8895 29.3207 15.8408 30.046 14.5797C30.7713 13.3186 31.1529 11.8892 31.1528 10.4344C31.1533 9.04336 30.8033 7.67467 30.1351 6.4546V6.4546Z" fill="white"/>
<path d="M13.1488 10.4433C13.1518 13.0126 14.1737 15.4758 15.9905 17.2925C17.8072 19.1093 20.2704 20.1313 22.8397 20.1342C25.409 20.1313 27.8722 19.1093 29.689 17.2925C31.5057 15.4758 32.5276 13.0126 32.5306 10.4433C32.5271 7.87419 31.5049 5.41134 29.6883 3.59471C27.8717 1.77808 25.4088 0.755969 22.8397 0.752441C20.2704 0.755382 17.8072 1.77731 15.9905 3.59406C14.1737 5.41082 13.1518 7.87401 13.1488 10.4433V10.4433ZM13.5933 10.4433C13.5962 7.99188 14.5713 5.64181 16.3047 3.9084C18.0381 2.17499 20.3883 1.19982 22.8397 1.19688C25.2911 1.19982 27.6413 2.17499 29.3747 3.9084C31.1081 5.64181 32.0832 7.99188 32.0861 10.4433C32.0832 12.8947 31.1081 15.2449 29.3747 16.9783C27.6413 18.7117 25.2911 19.6869 22.8397 19.6898C20.3881 19.6875 18.0376 18.7125 16.3041 16.9789C14.5706 15.2454 13.5956 12.8949 13.5933 10.4433V10.4433Z" fill="white"/>
<path d="M20.6948 23.8509H18.3978V24.095C19.1164 24.095 19.2332 24.2466 19.2332 25.1563V26.7984C19.2332 27.7081 19.1164 27.8764 18.3978 27.8764C17.8474 27.799 17.4744 27.5034 16.9604 26.9394L16.3706 26.2981C17.1666 26.1571 17.5836 25.6567 17.5836 25.0851C17.5836 24.3801 16.9771 23.8403 15.8521 23.8403H13.593V24.0844C14.3116 24.0844 14.4269 24.236 14.4269 25.1457V26.7878C14.4269 27.6975 14.3116 27.8658 13.593 27.8658V28.1099H16.1462V27.8658C15.4275 27.8658 15.3123 27.699 15.3123 26.7878V26.3253H15.5306L16.9543 28.1099H20.6887C22.5248 28.1099 23.3208 27.135 23.3208 25.966C23.3208 24.7971 22.5309 23.8509 20.6948 23.8509ZM15.3184 25.9432V24.236H15.8445C16.4222 24.236 16.6784 24.6348 16.6784 25.0957C16.6784 25.5566 16.4222 25.9432 15.8445 25.9432H15.3184ZM20.7342 27.7263H20.6448C20.1899 27.7263 20.1186 27.6111 20.1186 27.0213V24.236H20.7342C22.0684 24.236 22.3126 25.211 22.3126 25.9691C22.3126 26.756 22.0684 27.7308 20.7342 27.7308V27.7263Z" fill="white"/>
<path d="M6.4517 26.4282L7.33717 23.8098C7.59341 23.0517 7.47818 22.8348 6.6564 22.8348V22.5786H9.06865V22.8348C8.26052 22.8348 8.06797 23.0274 7.74805 23.9644L6.28493 28.3538H6.11815L4.80816 24.3359L3.47393 28.3538H3.30713L1.88343 23.9644C1.58019 23.0274 1.36945 22.8348 0.625 22.8348V22.5786H3.47393V22.8348C2.71583 22.8348 2.51113 23.0153 2.78102 23.8098L3.6407 26.4282L4.93703 22.5786H5.18114L6.4517 26.4282Z" fill="white"/>
<path d="M10.8138 28.2961C9.40222 28.2961 8.24841 27.2561 8.24841 25.9855C8.24841 24.7149 9.40222 23.6885 10.8138 23.6885C12.2254 23.6885 13.3807 24.7286 13.3807 25.9855C13.3807 27.2424 12.2254 28.2961 10.8138 28.2961ZM10.8138 24.0872C9.6342 24.0872 9.22331 25.1486 9.22331 25.9855C9.22331 26.8224 9.6342 27.8852 10.8138 27.8852C11.9934 27.8852 12.4179 26.833 12.4179 25.9855C12.4179 25.1379 12.0085 24.0872 10.8138 24.0872V24.0872Z" fill="white"/>
<path d="M26.4957 27.8719V28.1296H23.5573V27.8719C24.417 27.8719 24.5701 27.6551 24.5701 26.3709V24.3179C24.5701 23.0352 24.4185 22.829 23.5573 22.829V22.5728H26.2137C27.5358 22.5728 28.2666 23.252 28.2666 24.1633C28.2666 25.0487 27.5358 25.7416 26.2137 25.7416H25.4874V26.3709C25.4874 27.6551 25.6391 27.8719 26.4957 27.8719ZM26.2137 23.0352H25.4874V25.267H26.2198C26.9384 25.267 27.272 24.7667 27.272 24.1633C27.272 23.5598 26.9324 23.0352 26.2137 23.0352V23.0352Z" fill="white"/>
<path d="M37.0817 26.9226L37.0181 27.1546C36.9028 27.5776 36.7618 27.7307 35.8506 27.7307H35.6702C35.0031 27.7307 34.8878 27.5791 34.8878 26.6694V26.0796C35.8885 26.0796 35.9658 26.1691 35.9658 26.8377H36.2099V24.9258H35.9658C35.9658 25.5929 35.8885 25.6838 34.8878 25.6838V24.2465H35.5944C36.5041 24.2465 36.6466 24.3981 36.7618 24.8242L36.8255 25.0683H37.0317L36.9407 23.8553H33.1685V24.0995C33.8871 24.0995 34.0024 24.2511 34.0024 25.1608V26.8028C34.0024 27.6368 33.9038 27.8459 33.3383 27.8762C32.8 27.7944 32.4286 27.5002 31.9237 26.9438L31.3339 26.3025C32.1299 26.1615 32.5468 25.6611 32.5468 25.0895C32.5468 24.3845 31.9403 23.8447 30.8138 23.8447H28.5562V24.0888C29.2749 24.0888 29.3901 24.2404 29.3901 25.1501V26.7922C29.3901 27.7019 29.2749 27.8702 28.5562 27.8702V28.1143H31.1095V27.8702C30.3908 27.8702 30.2756 27.7034 30.2756 26.7922V26.3298H30.4939L31.9176 28.1143H37.1924L37.2682 26.9014L37.0817 26.9226ZM30.2816 25.9477V24.2404H30.8078C31.3854 24.2404 31.6417 24.6393 31.6417 25.1002C31.6417 25.5611 31.3854 25.9477 30.8078 25.9477H30.2816Z" fill="white"/>
<path d="M39.6881 28.2961C39.2651 28.2834 38.8584 28.1297 38.5328 27.8595C38.4264 27.9841 38.3553 28.1348 38.3266 28.2961H38.084V26.5253H38.3402C38.4433 27.3713 39.0331 27.8716 39.7897 27.8716C40.2006 27.8716 40.5341 27.6411 40.5341 27.256C40.5341 26.9225 40.24 26.6662 39.7139 26.4221L38.9815 26.0765C38.4691 25.8324 38.084 25.4078 38.084 24.8438C38.084 24.2282 38.6601 23.7021 39.4561 23.7021C39.8178 23.6966 40.1707 23.8142 40.4568 24.0357C40.5433 23.9373 40.6015 23.8173 40.6251 23.6885H40.8677V25.2047H40.5993C40.5084 24.5982 40.1748 24.1008 39.4955 24.1008C39.1362 24.1008 38.8026 24.3071 38.8026 24.627C38.8026 24.9469 39.071 25.141 39.6881 25.423L40.3931 25.7686C41.0087 26.0643 41.2528 26.5389 41.2528 26.924C41.2558 27.7306 40.5478 28.2961 39.6881 28.2961Z" fill="white"/>
<path d="M43.6393 28.2961C43.2168 28.2832 42.8107 28.1295 42.4855 27.8595C42.3786 27.9838 42.3074 28.1346 42.2793 28.2961H42.0352V26.5253H42.2929C42.3945 27.3713 42.9858 27.8716 43.7424 27.8716C44.1533 27.8716 44.4868 27.6411 44.4868 27.256C44.4868 26.9225 44.1836 26.6662 43.6651 26.4221L42.9342 26.0765C42.4203 25.8324 42.0352 25.4078 42.0352 24.8438C42.0352 24.2282 42.6128 23.7021 43.4088 23.7021C43.7705 23.6972 44.1231 23.8148 44.4095 24.0357C44.4955 23.9372 44.5531 23.8172 44.5763 23.6885H44.8204V25.2047H44.5505C44.4611 24.5982 44.1275 24.1008 43.4467 24.1008C43.0874 24.1008 42.7538 24.3071 42.7538 24.627C42.7538 24.9469 43.0237 25.141 43.6393 25.423L44.3458 25.7686C44.9614 26.0643 45.2055 26.5389 45.2055 26.924C45.2055 27.7306 44.499 28.2961 43.6393 28.2961Z" fill="white"/>
</svg>
