<svg width="26" height="25" viewBox="0 0 26 25" fill="none" xmlns="http://www.w3.org/2000/svg">
<g clip-path="url(#clip0_5_16239)">
<path d="M20.3191 0.287598H5.4445C4.18703 0.289783 2.98183 0.800822 2.09362 1.70847C1.2054 2.61613 0.706799 3.84617 0.707337 5.12841V19.4468C0.707071 20.0824 0.829618 20.7118 1.06797 21.2991C1.30632 21.8864 1.65581 22.4201 2.09647 22.8696C2.53714 23.3192 3.06034 23.6758 3.63619 23.9191C4.21204 24.1624 4.82926 24.2876 5.45259 24.2876H20.9601C22.2191 24.2876 23.4266 23.7776 24.3169 22.8697C25.2072 21.9619 25.7073 20.7306 25.7073 19.4468V5.69331L24.4639 5.19234L20.3191 0.287598Z" fill="#DB4243"/>
<path d="M9.87029 15.7028C9.454 15.4661 8.9729 15.3757 8.50122 15.4454C8.02953 15.5152 7.59345 15.7412 7.26024 16.0888C6.92704 16.4363 6.71521 16.8859 6.65743 17.3683C6.59966 17.8508 6.69915 18.3392 6.94056 18.7582C7.18197 19.1773 7.55188 19.5037 7.99325 19.6872C8.43461 19.8706 8.92291 19.9009 9.38282 19.7733C9.84273 19.6458 10.2487 19.3674 10.5381 18.9813C10.8276 18.5951 10.9843 18.1226 10.9843 17.6366V17.6036V7.45605H9.87029V15.7028Z" fill="white"/>
<path d="M18.1901 6.70166H17.0842V14.9484C16.6679 14.7117 16.1868 14.6213 15.7151 14.691C15.2434 14.7608 14.8073 14.9869 14.4741 15.3344C14.1409 15.6819 13.9291 16.1315 13.8713 16.614C13.8135 17.0964 13.913 17.5848 14.1544 18.0038C14.3958 18.4229 14.7657 18.7493 15.2071 18.9328C15.6485 19.1162 16.1368 19.1465 16.5967 19.019C17.0566 18.8914 17.4626 18.6131 17.752 18.2269C18.0414 17.8408 18.1982 17.3682 18.1982 16.8822V16.8492L18.1901 6.70166Z" fill="white"/>
<path d="M18.1901 8.76541L9.87231 10.1344V7.45831L18.1901 6.08936V8.76541Z" fill="white"/>
<path d="M20.3191 0.287598L25.6992 5.69331H20.3191V0.287598Z" fill="#8C2828"/>
</g>
<defs>
<clipPath id="clip0_5_16239">
<rect width="25" height="24" fill="white" transform="translate(0.699219 0.287598)"/>
</clipPath>
</defs>
</svg>
