<svg width="26" height="26" viewBox="0 0 26 26" fill="none" xmlns="http://www.w3.org/2000/svg">
<g clip-path="url(#clip0_5_16215)">
<path d="M25.8672 6.96729H6.64844V2.29932C6.64844 1.67432 7.15625 1.1665 7.78125 1.1665H24.7148C25.3398 1.1665 25.8477 1.67432 25.8477 2.29932V6.96729H25.8672Z" fill="#41A5ED"/>
<path d="M25.8672 6.96729H6.64844V12.7876H25.8672V6.96729Z" fill="#2C7BD5"/>
<path d="M25.8672 12.7876H6.64844V18.6079H25.8672V12.7876Z" fill="#195ABE"/>
<path d="M24.7344 24.4087H7.80078C7.17578 24.4087 6.66797 23.9009 6.66797 23.2759V18.6079H25.8672V23.2759C25.8672 23.9009 25.3594 24.4087 24.7344 24.4087Z" fill="#103E91"/>
<path d="M12.4883 19.1353H2.13672C1.45313 19.1353 0.886719 18.5688 0.886719 17.8853V7.68994C0.886719 7.00635 1.45313 6.43994 2.13672 6.43994H12.4883C13.1719 6.43994 13.7383 7.00635 13.7383 7.68994V17.8853C13.7383 18.5688 13.1914 19.1353 12.4883 19.1353Z" fill="#2166C3"/>
<path d="M4.63672 16.3813L2.89844 9.36963H4.28516L4.96875 12.5532C5.14453 13.4126 5.32031 14.2915 5.4375 14.9946H5.45703C5.57422 14.2524 5.76953 13.4321 5.96484 12.5337L6.72656 9.36963H8.09375L8.79687 12.5923C8.97266 13.4321 9.12891 14.1938 9.22656 14.9556H9.24609C9.36328 14.1743 9.53906 13.3931 9.73437 12.5337L10.4766 9.36963H11.8047L9.89062 16.3813H8.48437L7.74219 13.0806C7.56641 12.2993 7.42969 11.6353 7.33203 10.8735H7.3125C7.19531 11.6157 7.05859 12.2993 6.84375 13.1001L6.02344 16.4009H4.63672V16.3813Z" fill="white"/>
<path opacity="0.2" d="M13.7383 7.57275C13.7383 7.61182 13.7383 7.65088 13.7383 7.68994V17.8853C13.7383 18.5688 13.1719 19.1353 12.4883 19.1353H6.66797V20.2485H13.543C14.2266 20.2485 14.793 19.6821 14.793 18.9985V8.80322C14.793 8.17822 14.3438 7.65088 13.7383 7.57275Z" fill="black"/>
</g>
<defs>
<clipPath id="clip0_5_16215">
<rect width="25" height="25" fill="white" transform="translate(0.867188 0.287598)"/>
</clipPath>
</defs>
</svg>
