<svg width="26" height="25" viewBox="0 0 26 25" fill="none" xmlns="http://www.w3.org/2000/svg">
<path d="M19.9653 0.787598H5.09068C3.83321 0.789783 2.62801 1.30082 1.7398 2.20847C0.851579 3.11613 0.352978 4.34617 0.353516 5.62841V19.9468C0.35325 20.5824 0.475797 21.2118 0.714149 21.7991C0.952501 22.3864 1.30199 22.9201 1.74265 23.3696C2.18332 23.8192 2.70652 24.1758 3.28237 24.4191C3.85822 24.6624 4.47544 24.7876 5.09877 24.7876H20.6063C21.8653 24.7876 23.0728 24.2776 23.9631 23.3697C24.8534 22.4619 25.3535 21.2306 25.3535 19.9468V6.19331L24.1101 5.69234L19.9653 0.787598Z" fill="#21A366"/>
<path d="M9.55365 9.78576L9.94408 8.04814C9.97149 7.92561 10.0382 7.81633 10.1334 7.73814C10.2286 7.65996 10.3465 7.61749 10.468 7.61768H14.1916C14.3131 7.61749 14.4311 7.65996 14.5262 7.73814C14.6214 7.81633 14.6881 7.92561 14.7156 8.04814L15.106 9.78501" fill="white"/>
<path d="M18.6232 9.23584H6.2232C6.15469 9.23574 6.08683 9.24965 6.02352 9.27677C5.96022 9.30389 5.90271 9.34368 5.85429 9.39387C5.80588 9.44406 5.76752 9.50364 5.74141 9.56922C5.7153 9.63479 5.70196 9.70506 5.70215 9.77598V17.4184C5.70205 17.4892 5.71547 17.5594 5.74162 17.6249C5.76777 17.6904 5.80615 17.7499 5.85455 17.8C5.90295 17.8501 5.96043 17.8898 6.02369 17.9169C6.08695 17.944 6.15475 17.9579 6.2232 17.9578H18.6232C18.6917 17.9579 18.7595 17.944 18.8228 17.9169C18.886 17.8898 18.9435 17.8501 18.9919 17.8C19.0403 17.7499 19.0787 17.6904 19.1048 17.6249C19.131 17.5594 19.1444 17.4892 19.1443 17.4184V9.77598C19.1445 9.70506 19.1311 9.63479 19.105 9.56922C19.0789 9.50364 19.0406 9.44406 18.9922 9.39387C18.9437 9.34368 18.8862 9.30389 18.8229 9.27677C18.7596 9.24965 18.6918 9.23574 18.6232 9.23584ZM12.4236 17.0826C11.7921 17.0826 11.1747 16.8887 10.6496 16.5255C10.1245 16.1623 9.71524 15.6461 9.47356 15.0421C9.23189 14.4381 9.16865 13.7734 9.29186 13.1322C9.41507 12.491 9.71918 11.9021 10.1657 11.4398C10.6123 10.9775 11.1813 10.6627 11.8006 10.5352C12.42 10.4076 13.0621 10.4731 13.6455 10.7233C14.229 10.9734 14.7277 11.3971 15.0785 11.9407C15.4294 12.4843 15.6167 13.1233 15.6167 13.7771C15.6167 14.6538 15.2803 15.4945 14.6814 16.1144C14.0826 16.7343 13.2704 17.0826 12.4236 17.0826Z" fill="white"/>
<path d="M19.9658 0.787598L25.3459 6.19331H19.9658V0.787598Z" fill="#107C41"/>
</svg>
