<svg width="26" height="25" viewBox="0 0 26 25" fill="none" xmlns="http://www.w3.org/2000/svg">
<path d="M19.6382 0.287598H4.76353C3.50606 0.289783 2.30086 0.800822 1.41265 1.70847C0.524431 2.61613 0.02583 3.84617 0.0263676 5.12841V19.4468C0.026102 20.0824 0.148649 20.7118 0.387001 21.2991C0.625353 21.8864 0.97484 22.4201 1.4155 22.8696C1.85617 23.3192 2.37937 23.6758 2.95522 23.9191C3.53107 24.1624 4.14829 24.2876 4.77162 24.2876H20.2791C21.5382 24.2876 22.7456 23.7776 23.6359 22.8697C24.5262 21.9619 25.0264 20.7306 25.0264 19.4468V5.69331L23.7829 5.19234L19.6382 0.287598Z" fill="#41A5ED"/>
<g clip-path="url(#clip0_5_16245)">
<path d="M16.2125 8.2876H6.17023C5.80007 8.2876 5.5 8.60954 5.5 9.00667V16.5685C5.5 16.9657 5.80007 17.2876 6.17023 17.2876H16.2125C16.5826 17.2876 16.8827 16.9657 16.8827 16.5685V9.00667C16.8827 8.60954 16.5826 8.2876 16.2125 8.2876Z" fill="white"/>
<path d="M20.0632 15.58L17.8828 14.0409C17.8437 14.0136 17.8115 13.9762 17.7892 13.9322C17.767 13.8881 17.7553 13.8388 17.7553 13.7887V11.581C17.7553 11.5309 17.767 11.4816 17.7892 11.4376C17.8115 11.3935 17.8437 11.3561 17.8828 11.3288L20.0632 9.78975C20.106 9.75968 20.1556 9.74264 20.2067 9.74047C20.2578 9.7383 20.3085 9.75107 20.3533 9.77741C20.3982 9.80376 20.4355 9.8427 20.4614 9.89005C20.4872 9.9374 20.5005 9.99139 20.5 10.0463V15.326C20.5001 15.3807 20.4864 15.4343 20.4604 15.4813C20.4344 15.5283 20.397 15.5669 20.3523 15.5929C20.3075 15.6189 20.257 15.6315 20.2061 15.6292C20.1552 15.6269 20.1058 15.6099 20.0632 15.58Z" fill="white"/>
</g>
<path d="M19.6387 0.287598L25.0188 5.69331H19.6387V0.287598Z" fill="#2C7BD5"/>
<defs>
<clipPath id="clip0_5_16245">
<rect width="15" height="9" fill="white" transform="translate(5.5 8.2876)"/>
</clipPath>
</defs>
</svg>
