<svg width="45" height="14" viewBox="0 0 45 14" fill="none" xmlns="http://www.w3.org/2000/svg">
<g clip-path="url(#clip0_181_1630)">
<path d="M1.80119 6.6402H0V4.35841H1.84495V3.77943C1.84495 0.97619 3.086 0.00341797 5.53485 0.00341797C6.06096 0.0104593 6.58512 0.0706864 7.09974 0.183228L6.92119 2.42366C6.60902 2.31608 6.2805 2.26735 5.95145 2.27981C5.16901 2.27981 4.86444 2.857 4.86444 3.77943V4.35841H7.04022V6.6402H4.86269V13.7841H1.80119V6.6402Z" fill="#3782FF"/>
<path d="M11.6964 0.217773H8.63661V13.7826H11.6964V0.217773Z" fill="#3782FF"/>
<path d="M17.3748 0.433105H14.315V2.82098H17.3748V0.433105Z" fill="#3782FF"/>
<path d="M17.3748 4.3584H14.315V13.7822H17.3748V4.3584Z" fill="#3782FF"/>
<path d="M26.5715 7.05415C26.0186 6.69265 25.3729 6.50976 24.7178 6.52911C23.3927 6.52911 22.3722 7.50727 22.3722 9.13455C22.3722 10.636 23.5625 11.6123 24.8893 11.6123C25.5499 11.623 26.2029 11.468 26.7921 11.161L26.8603 13.5848C26.0537 13.8581 25.21 13.9983 24.3607 14.0002C21.4375 14.0002 19.2109 12.1913 19.2109 9.08061C19.2109 5.9699 21.4375 4.14303 24.3607 4.14303C25.1997 4.11752 26.0326 4.29555 26.7921 4.66268L26.5715 7.05415Z" fill="#3782FF"/>
<path d="M28.1364 0.217773H31.1961V8.32001H31.2294L33.7798 4.3588H37.1301L34.0528 8.68143L37.3839 13.7826H33.6782L31.2294 9.11657H31.1961V13.7826H28.1364V0.217773Z" fill="#3782FF"/>
<path d="M44.8477 6.96426C44.5091 6.87429 44.159 6.83791 43.8097 6.85637C42.3814 6.85637 41.5832 7.95861 41.5832 9.80346V13.7826H38.5234V4.35881H41.3101V6.10117H41.3451C41.8702 4.90723 42.6369 4.14844 43.9707 4.14844C44.3185 4.15509 44.665 4.19117 45.007 4.25632L44.8477 6.96426Z" fill="#FF40A0"/>
</g>
<defs>
<clipPath id="clip0_181_1630">
<rect width="45" height="14" fill="white"/>
</clipPath>
</defs>
</svg>
