<svg width="38" height="14" viewBox="0 0 38 14" fill="none" xmlns="http://www.w3.org/2000/svg">
<path d="M22.3917 13.7228L17.9673 0.970215H15.0307L10.4162 13.7228H13.0728L13.8561 11.2617H19.0859L19.8753 13.7228H22.3917ZM16.4766 3.72937H16.572L18.2294 8.65972H14.8193L16.4766 3.72937Z" fill="#E85D59"/>
<path d="M1.02714 4.57764L3.94096 9.15016L0.963379 13.7227H3.399L5.45206 10.4243L7.53063 13.7227H9.94074L6.94404 9.15016L9.89611 4.57764H7.46687L5.45206 7.9594L3.46913 4.57764H1.02714Z" fill="#E85D59"/>
<path d="M23.9561 0.942383V13.7227H26.4132V9.21564H28.8189C31.7069 9.21564 33.0414 7.48161 33.0414 5.08206C33.0414 2.69473 31.5088 0.942383 28.633 0.942383H23.9561ZM26.4132 7.12255V3.03939H28.5075C30.2049 3.03939 30.6642 3.93433 30.6642 5.08206C30.6642 6.41311 30.2049 7.12255 28.5197 7.12255H26.4132Z" fill="#E85D59"/>
<path d="M35.1432 0.969727V13.7227H37.3312V0.969727H35.1432Z" fill="#E85D59"/>
</svg>
