<svg width="27" height="26" viewBox="0 0 27 26" fill="none" xmlns="http://www.w3.org/2000/svg">
<path d="M16.162 14.3188L14.3311 0.912598H14.1942C10.9978 0.918029 7.9335 2.18867 5.67117 4.44679C3.40885 6.7049 2.13249 9.76681 2.12109 12.9632V13.1001L16.162 14.3188Z" fill="#ED6C47"/>
<path d="M14.4679 0.912598H14.3311V13.1001L20.4351 15.5376L26.5401 13.1001V12.9632C26.5287 9.76697 25.2525 6.7052 22.9904 4.44712C20.7282 2.18903 17.6642 0.918276 14.4679 0.912598Z" fill="#FF8F6B"/>
<path d="M26.5402 13.1001V13.2342C26.5283 16.431 25.2516 19.4932 22.989 21.7517C20.7265 24.0102 17.662 25.2814 14.4652 25.2876H14.1961C10.9994 25.2809 7.93519 24.0096 5.67275 21.7512C3.41031 19.4928 2.13347 16.4309 2.12109 13.2342V13.1001H26.5402Z" fill="#D35230"/>
<path opacity="0.1" d="M14.9414 6.90229V19.9063C14.9397 20.1276 14.8728 20.3434 14.7491 20.5269C14.6254 20.7103 14.4503 20.8532 14.2458 20.9376C14.1123 20.9939 13.9688 21.0229 13.8239 21.0229H5.00298C4.83235 20.8279 4.66735 20.6207 4.51454 20.4135C2.9595 18.3435 2.11948 15.8241 2.1211 13.2351V12.967C2.11816 10.6316 2.80181 8.34689 4.08704 6.39697C4.2211 6.18979 4.36173 5.9826 4.51454 5.7876H13.8239C14.1192 5.78955 14.4019 5.90753 14.611 6.11608C14.82 6.32462 14.9387 6.607 14.9414 6.90229Z" fill="black"/>
<path opacity="0.2" d="M14.3311 7.5126V20.5167C14.3311 20.661 14.302 20.8038 14.2458 20.9367C14.1612 21.141 14.0183 21.3159 13.8349 21.4394C13.6514 21.563 13.4357 21.6297 13.2145 21.6313H5.55891C5.36579 21.4351 5.18048 21.232 5.00298 21.022C4.83235 20.827 4.66735 20.6198 4.51454 20.4126C2.95949 18.3426 2.11948 15.8232 2.1211 13.2342V12.966C2.11834 10.631 2.80198 8.34662 4.08704 6.39697H13.2136C13.5091 6.39893 13.7919 6.51704 14.001 6.72578C14.2101 6.93453 14.3286 7.21715 14.3311 7.5126Z" fill="black"/>
<path opacity="0.2" d="M14.3311 7.5126V19.2979C14.3284 19.5932 14.2097 19.8756 14.0006 20.0841C13.7916 20.2927 13.5089 20.4106 13.2136 20.4126H4.51454C2.95949 18.3426 2.11948 15.8232 2.1211 13.2342V12.966C2.11834 10.631 2.80198 8.34662 4.08704 6.39697H13.2136C13.5091 6.39893 13.7919 6.51704 14.001 6.72578C14.2101 6.93453 14.3286 7.21715 14.3311 7.5126Z" fill="black"/>
<path opacity="0.2" d="M13.7208 7.5126V19.2979C13.7181 19.5932 13.5994 19.8756 13.3903 20.0841C13.1813 20.2927 12.8986 20.4106 12.6033 20.4126H4.51454C2.95949 18.3426 2.11948 15.8232 2.1211 13.2342V12.966C2.11834 10.631 2.80198 8.34662 4.08704 6.39697H12.6033C12.8987 6.39893 13.1816 6.51704 13.3907 6.72578C13.5997 6.93453 13.7183 7.21715 13.7208 7.5126Z" fill="black"/>
<path d="M1.40941 6.39697H12.6013C12.8978 6.39673 13.1822 6.51419 13.3921 6.72356C13.602 6.93293 13.7202 7.21707 13.7207 7.51354V18.6867C13.7202 18.9831 13.602 19.2673 13.3921 19.4766C13.1822 19.686 12.8978 19.8035 12.6013 19.8032H1.40941C1.26258 19.8035 1.11714 19.7748 0.981406 19.7188C0.845669 19.6628 0.722297 19.5806 0.618341 19.4769C0.514386 19.3732 0.431884 19.2501 0.375552 19.1145C0.31922 18.9789 0.290162 18.8335 0.290039 18.6867V7.51354C0.290162 7.36671 0.31922 7.22134 0.375552 7.08574C0.431884 6.95015 0.514386 6.82698 0.618341 6.72329C0.722297 6.61959 0.845669 6.5374 0.981406 6.48141C1.11714 6.42542 1.26258 6.39673 1.40941 6.39697Z" fill="url(#paint0_linear_5_16226)"/>
<path d="M7.12688 9.37658C7.85544 9.32758 8.57773 9.53888 9.165 9.97283C9.40647 10.1878 9.5958 10.4549 9.71861 10.754C9.84141 11.053 9.89447 11.3761 9.87375 11.6988C9.88195 12.1532 9.76066 12.6007 9.52406 12.9888C9.28469 13.3707 8.93987 13.6751 8.53125 13.8653C8.06437 14.0818 7.55422 14.1889 7.03969 14.1785H5.62125V16.8035H4.17188V9.37658H7.12688ZM5.62031 13.0441H6.86813C7.26376 13.0726 7.65618 12.9556 7.97156 12.715C8.10053 12.592 8.20095 12.4422 8.26574 12.2762C8.33053 12.1101 8.35812 11.9319 8.34656 11.7541C8.34656 10.936 7.87 10.5266 6.91688 10.526H5.62031V13.0441Z" fill="white"/>
<defs>
<linearGradient id="paint0_linear_5_16226" x1="2.62816" y1="5.51947" x2="11.3825" y2="20.6807" gradientUnits="userSpaceOnUse">
<stop stop-color="#CA4C28"/>
<stop offset="0.5" stop-color="#C5401E"/>
<stop offset="1" stop-color="#B62F14"/>
</linearGradient>
</defs>
</svg>
