<svg width="46" height="13" viewBox="0 0 46 13" fill="none" xmlns="http://www.w3.org/2000/svg">
<g clip-path="url(#clip0_181_1579)">
<path d="M40.1668 0.785645V2.85511H41.1803V3.98223H39.2736C39.1047 3.98223 36.2803 4.86697 36.2803 8.07076C36.2803 11.2234 39.0623 11.9601 39.2736 12.0305C39.6169 12.1441 43.0221 12.0473 43.0221 12.0473C42.7147 11.5937 42.5528 11.0514 42.5593 10.497C42.5593 9.54187 43.3884 8.9683 43.3884 8.9683V0.785645H40.1668ZM41.1803 10.065H39.7063C39.7063 10.065 38.5093 9.73065 38.5093 8.02996C38.5093 6.67005 39.6146 5.96691 39.6146 5.96691H41.1803V10.065Z" fill="white"/>
<path d="M24.971 3.95459V10.1342H24.0408V12.0477H27.2046V3.95459H24.971Z" fill="white"/>
<path d="M27.2046 0.785645H24.971V2.85511H27.2046V0.785645Z" fill="white"/>
<path d="M17.0229 4.0066V6.00646H18.0634V10.123H17.0229V12.0429H21.4709V10.123H20.3657V7.17118L21.3421 6.10165L21.5627 6.06406C21.5627 6.06406 21.9599 6.57042 22.4466 6.67522C22.8932 6.77041 23.8472 6.54162 23.8472 5.3001C23.8472 4.05859 22.786 3.9202 22.1342 4.00499C21.4401 4.09539 20.4374 4.99293 20.4374 4.99293L20.1798 5.33771V4.00499L17.0229 4.0066Z" fill="white"/>
<path d="M15.8252 10.0677V12.0476C15.8252 12.0476 12.4994 12.1188 12.0767 12.0476C11.7497 11.9924 8.85355 11.4524 8.85355 8.00466C8.85355 4.3537 11.9279 3.76093 13.2306 3.93852C15.9185 4.3065 16.9852 7.56629 15.0978 7.99426C13.9224 8.26144 13.3239 7.09031 13.5869 6.17997C13.6825 5.8512 13.0285 5.78 12.6668 5.78C12.1708 5.78 10.9699 6.17998 10.9699 8.00626C10.9699 9.73494 12.5356 10.0693 12.5356 10.0693L15.8252 10.0677Z" fill="white"/>
<path d="M6.46411 5.71409C6.87289 5.99168 8.83194 7.27638 7.88327 9.82822C7.29092 11.4201 5.53317 12.2393 3.30186 12.0681C1.77086 11.9521 0 10.7186 0 9.44425C0 9.02667 0.0115685 8.21153 1.01886 7.85315C1.60966 7.64196 2.95864 8.04354 2.63855 9.82662C2.57916 10.1594 5.53703 10.6546 5.844 9.06267C6.16408 7.40278 2.7743 6.60443 2.7743 6.60443C2.59227 6.54044 0.416492 6.06047 0.416492 3.50304C0.416492 0.143261 4.07391 -0.00392947 5.02567 0.117662C7.86553 0.480038 9.01705 3.61743 6.886 4.1054C5.66583 4.38458 5.03492 3.20146 5.31258 2.29032C5.41208 1.96234 4.30992 1.86635 3.76308 2.04233C3.26946 2.20232 2.66478 2.76229 2.66478 3.40224C2.66478 4.22699 4.55442 4.86375 4.55442 4.86375C4.55442 4.86375 6.06073 5.43971 6.46411 5.71409Z" fill="white"/>
<path d="M46 10.6524C46 11.4443 45.4038 12.0867 44.668 12.0867C43.9322 12.0867 43.336 11.4467 43.336 10.6524C43.336 9.85804 43.933 9.21729 44.668 9.21729C45.403 9.21729 46 9.85964 46 10.6524Z" fill="url(#paint0_linear_181_1579)"/>
<path d="M32.1547 4.00143H30.589V0.785645H28.3785V12.0473H32.2481C32.2481 12.0473 35.4535 11.6473 35.4535 7.72758C35.4535 3.80784 32.1547 4.00143 32.1547 4.00143ZM32.1177 10.0674H30.6446V5.9693H32.2103C32.2103 5.9693 33.3155 6.67646 33.3155 8.03237C33.3155 9.73305 32.1177 10.0674 32.1177 10.0674V10.0674Z" fill="white"/>
</g>
<defs>
<linearGradient id="paint0_linear_181_1579" x1="44.668" y1="12.0867" x2="44.668" y2="9.21729" gradientUnits="userSpaceOnUse">
<stop stop-color="#00ADEE"/>
<stop offset="1" stop-color="#30F0FC"/>
</linearGradient>
<clipPath id="clip0_181_1579">
<rect width="46" height="12" fill="white" transform="translate(0 0.0922852)"/>
</clipPath>
</defs>
</svg>
