<svg width="19" height="26" viewBox="0 0 19 26" fill="none" xmlns="http://www.w3.org/2000/svg">
<g clip-path="url(#clip0_181_1563)">
<path d="M18.99 19.2223V1.7121C18.99 1.49645 18.9462 1.2829 18.861 1.08365C18.7757 0.884403 18.6508 0.703352 18.4933 0.550849C18.3358 0.398346 18.1488 0.277377 17.943 0.194841C17.7372 0.112306 17.5166 0.0698242 17.2938 0.0698242H2.5646C2.11466 0.0698242 1.68315 0.242848 1.365 0.550835C1.04684 0.858822 0.868103 1.27654 0.868103 1.7121V23.3786C0.868103 23.8141 1.04684 24.2318 1.365 24.5398C1.68315 24.8478 2.11466 25.0208 2.5646 25.0208H13.1453C13.2484 25.0208 13.3505 25.0009 13.4456 24.9623C13.5406 24.9237 13.6268 24.8671 13.699 24.7959L18.7327 19.8321C18.8977 19.6693 18.9901 19.4504 18.99 19.2223V19.2223Z" fill="#EF5451"/>
<path d="M13.155 25.069C13.2582 25.069 13.3603 25.049 13.4553 25.0104C13.5504 24.9717 13.6366 24.9151 13.7088 24.8438L18.7424 19.8802C18.9076 19.7175 19.0001 19.4985 19 19.2704V19.2212H14.1493C13.8339 19.2212 13.5314 19.3425 13.3083 19.5584C13.0852 19.7743 12.9599 20.0671 12.9598 20.3724V25.0695L13.155 25.069Z" fill="#C52928"/>
<path d="M15.4164 5.84863H0.936914C0.419471 5.84863 0 6.2547 0 6.7556V11.6195C0 12.1204 0.419471 12.5265 0.936914 12.5265H15.4164C15.9339 12.5265 16.3534 12.1204 16.3534 11.6195V6.7556C16.3534 6.2547 15.9339 5.84863 15.4164 5.84863Z" fill="#C52928"/>
<path d="M5.23652 7.57861C6.01405 7.57861 6.45927 8.04207 6.45927 8.69625C6.45927 9.35043 6.00728 9.80903 5.22152 9.80903H4.6075V10.8862H3.8985V7.57861H5.23652ZM5.10625 9.2562C5.52677 9.2562 5.73027 9.02846 5.73027 8.69739C5.73027 8.36631 5.52677 8.14341 5.10478 8.14341H4.6075V9.2562H5.10625Z" fill="white"/>
<path d="M9.78436 9.22915C9.78436 10.2628 9.15534 10.8862 8.11433 10.8862H6.90863V7.57861H8.12491C9.15534 7.57861 9.78436 8.19863 9.78436 9.22915ZM8.08433 10.2967C8.73335 10.2967 9.07535 9.97044 9.07535 9.22915C9.07535 8.4927 8.73335 8.16817 8.08786 8.16817H7.61881V10.2967H8.08433Z" fill="white"/>
<path d="M10.2952 10.8862V7.57861H12.5475V8.14796H11.0042V8.94903H12.3972V9.51582H11.0042V10.8871L10.2952 10.8862Z" fill="white"/>
</g>
<defs>
<clipPath id="clip0_181_1563">
<rect width="19" height="25" fill="white" transform="translate(0 0.0688477)"/>
</clipPath>
</defs>
</svg>
