<svg width="55" height="13" viewBox="0 0 55 13" fill="none" xmlns="http://www.w3.org/2000/svg">
<path d="M43.0938 12.2907L40.4531 7.95166C41.7404 7.43568 42.6579 6.35958 42.6579 4.88079C42.6579 2.65285 41.1153 1.24854 38.6099 1.24854H34.3906V12.2907H36.7344V8.43604H38.4397L40.5781 12.2907H43.0938ZM38.312 3.15479C39.4062 3.15479 40.4531 3.4444 40.4531 4.76416C40.4531 5.92378 39.7908 6.46729 38.3226 6.46729H36.7344V3.15479H38.312Z" fill="#4496E4"/>
<path d="M44.1848 12.2905H46.4589V5.44385H46.6406L48.2031 7.85791L49.6507 10.2485L51.2188 8.01416L52.9062 5.44385H53.0781V12.2905H55.0007V1.23145H52.7266L49.6507 6.34629H49.5297L46.4589 1.23145H44.1848V12.2905Z" fill="#4496E4"/>
<circle cx="27.1797" cy="6.7168" r="4.52656" stroke="#4496E4" stroke-width="2.4"/>
<path fill-rule="evenodd" clip-rule="evenodd" d="M18.6049 8.38553C18.029 9.37684 16.9556 10.0434 15.7266 10.0434C13.8894 10.0434 12.4 8.55401 12.4 6.7168C12.4 4.87959 13.8894 3.39023 15.7266 3.39023C16.9009 3.39023 17.9331 3.99876 18.5251 4.91769L20.5152 3.57516C19.4916 2.01816 17.7291 0.990234 15.7266 0.990234C12.5639 0.990234 10 3.5541 10 6.7168C10 9.87949 12.5639 12.4434 15.7266 12.4434C17.769 12.4434 19.5617 11.3741 20.5754 9.76487L18.6049 8.38553Z" fill="#4496E4"/>
<path fill-rule="evenodd" clip-rule="evenodd" d="M4.63986 2.67939C3.85116 2.77052 3.40793 3.25885 3.34424 3.64099C3.27704 4.04426 3.3023 4.30822 3.35541 4.48442C3.40511 4.64928 3.49458 4.79028 3.65398 4.93045C4.02366 5.25554 4.70927 5.5326 5.88792 5.82726C6.92065 6.08544 7.77285 6.48266 8.3691 7.10165C8.99404 7.75041 9.24346 8.5435 9.24346 9.38046C9.24346 11.2991 7.57854 12.7678 5.34726 12.7678C3.00683 12.7678 1.37739 11.0195 0.803772 9.80856L2.61124 8.95237C2.97692 9.72434 4.03058 10.7678 5.34726 10.7678C6.7166 10.7678 7.24346 9.9666 7.24346 9.38046C7.24346 8.96503 7.13314 8.70141 6.92868 8.48916C6.69554 8.24712 6.2487 7.979 5.40284 7.76754C4.23325 7.47514 3.10521 7.11118 2.33325 6.43233C1.92182 6.07053 1.60847 5.61882 1.44052 5.06163C1.27598 4.51577 1.26877 3.92833 1.37145 3.31222C1.62086 1.8156 2.99752 0.855854 4.41029 0.692607C5.90962 0.519359 7.56565 1.18403 8.68119 2.94034L6.99295 4.01264C6.26903 2.8729 5.34201 2.59825 4.63986 2.67939Z" fill="#4496E4"/>
</svg>
