<svg width="29" height="30" viewBox="0 0 29 30" fill="none" xmlns="http://www.w3.org/2000/svg">
<path d="M17.3277 14.6983L7.64233 12.9312V25.9893C7.64245 26.1312 7.66954 26.2716 7.72206 26.4026C7.77458 26.5337 7.85151 26.6527 7.94844 26.7529C8.04537 26.8531 8.16042 26.9326 8.287 26.9868C8.41359 27.0409 8.54924 27.0688 8.68621 27.0687H25.3987C25.5358 27.069 25.6717 27.0414 25.7985 26.9873C25.9252 26.9332 26.0405 26.8538 26.1376 26.7535C26.2347 26.6533 26.3118 26.5342 26.3644 26.4031C26.4171 26.2719 26.4442 26.1313 26.4443 25.9893V21.178L17.3277 14.6983Z" fill="#185C37"/>
<path d="M17.3277 3.50635H8.68621C8.54924 3.50623 8.41359 3.53405 8.287 3.58823C8.16042 3.64241 8.04537 3.72188 7.94844 3.82211C7.85151 3.92233 7.77458 4.04135 7.72206 4.17237C7.66954 4.30338 7.64245 4.44383 7.64233 4.58569V9.39697L17.3277 15.2876L22.4561 17.0548L26.4443 15.2876V9.39697L17.3277 3.50635Z" fill="#21A366"/>
<path d="M7.64233 9.39697H17.3277V15.2876H7.64233V9.39697Z" fill="#107C41"/>
<path opacity="0.1" d="M14.5741 8.21875H7.64233V22.9453H14.5741C14.8503 22.9439 15.1148 22.8298 15.3104 22.6278C15.5059 22.4257 15.6168 22.152 15.6188 21.866V9.29809C15.6168 9.01203 15.5059 8.73832 15.3104 8.53629C15.1148 8.33426 14.8503 8.22017 14.5741 8.21875Z" fill="black"/>
<path opacity="0.2" d="M14.0045 8.80811H7.64233V23.5347H14.0045C14.2807 23.5332 14.5452 23.4192 14.7408 23.2171C14.9363 23.0151 15.0471 22.7414 15.0492 22.4553V9.88745C15.0471 9.60138 14.9363 9.32768 14.7408 9.12565C14.5452 8.92362 14.2807 8.80953 14.0045 8.80811Z" fill="black"/>
<path opacity="0.2" d="M14.0045 8.80811H7.64233V22.3565H14.0045C14.2807 22.3551 14.5452 22.241 14.7408 22.039C14.9363 21.837 15.0471 21.5633 15.0492 21.2772V9.88745C15.0471 9.60138 14.9363 9.32768 14.7408 9.12565C14.5452 8.92362 14.2807 8.80953 14.0045 8.80811Z" fill="black"/>
<path opacity="0.2" d="M13.4348 8.80811H7.64233V22.3565H13.4348C13.711 22.3551 13.9756 22.241 14.1711 22.039C14.3667 21.837 14.4775 21.5633 14.4796 21.2772V9.88745C14.4775 9.60138 14.3667 9.32768 14.1711 9.12565C13.9756 8.92362 13.711 8.80953 13.4348 8.80811Z" fill="black"/>
<path d="M2.98909 8.80811H13.4348C13.7115 8.80787 13.977 8.92142 14.1729 9.12381C14.3688 9.3262 14.4791 9.60087 14.4796 9.88745V20.6881C14.4791 20.9747 14.3688 21.2494 14.1729 21.4518C13.977 21.6542 13.7115 21.7677 13.4348 21.7675H2.98909C2.85204 21.7677 2.7163 21.74 2.58961 21.6859C2.46292 21.6317 2.34778 21.5523 2.25075 21.452C2.15373 21.3518 2.07672 21.2327 2.02415 21.1017C1.97157 20.9706 1.94445 20.8301 1.94434 20.6881V9.88745C1.94445 9.74551 1.97157 9.60499 2.02415 9.47392C2.07672 9.34284 2.15373 9.22378 2.25075 9.12354C2.34778 9.0233 2.46292 8.94385 2.58961 8.88973C2.7163 8.8356 2.85204 8.80787 2.98909 8.80811Z" fill="url(#paint0_linear_5_16203)"/>
<path d="M5.18182 18.7976L7.37895 15.2778L5.36645 11.7778H6.98257L8.0807 14.019C8.1822 14.2311 8.2557 14.3887 8.28895 14.4939H8.30382C8.37557 14.3235 8.4517 14.1595 8.53132 13.9991L9.70557 11.7815H11.1931L9.12895 15.2615L11.2456 18.8004H9.6627L8.39395 16.3435C8.33504 16.2379 8.28498 16.1272 8.24432 16.0127H8.22332C8.18633 16.1243 8.137 16.231 8.07632 16.3308L6.76995 18.7976H5.18182Z" fill="white"/>
<path d="M25.3996 3.50635H17.3277V9.39697H26.4443V4.58569C26.4442 4.44376 26.4171 4.30323 26.3645 4.17216C26.3119 4.04108 26.2349 3.92202 26.1379 3.82179C26.0409 3.72155 25.9257 3.6421 25.799 3.58797C25.6724 3.53385 25.5366 3.50611 25.3996 3.50635Z" fill="#33C481"/>
<path d="M17.3277 15.2876H26.4443V21.1782H17.3277V15.2876Z" fill="#107C41"/>
<defs>
<linearGradient id="paint0_linear_5_16203" x1="4.12659" y1="7.95986" x2="12.7349" y2="22.3541" gradientUnits="userSpaceOnUse">
<stop stop-color="#18884F"/>
<stop offset="0.5" stop-color="#117E43"/>
<stop offset="1" stop-color="#0B6631"/>
</linearGradient>
</defs>
</svg>
