<svg width="182" height="69" viewBox="0 0 182 69" fill="none" xmlns="http://www.w3.org/2000/svg">
<g clip-path="url(#clip0_156_381)">
<path d="M47.5119 10.2197V17.038C47.5119 17.038 46.1786 16.1765 39.7541 16.1003C33.4139 16.0253 29.1582 20.1155 29.0838 22.8347C29.0007 25.8207 29.0838 35.5348 29.0838 35.5348C29.0838 35.5348 28.6894 41.8703 41.5095 41.8423C41.5095 41.8423 53.4437 41.4865 53.5143 35.5348V10.2197H47.5119ZM47.493 34.1333C47.493 34.1333 46.2996 35.4586 41.5095 35.5768C37.6596 35.6721 35.3206 34.1333 35.3206 34.1333V24.0952C35.3206 24.0952 36.015 22.282 41.5095 22.3163C46.4244 22.3455 47.493 24.0952 47.493 24.0952V34.1333Z" fill="#D32027"/>
<path d="M57.1212 16.4969V33.8539C57.1212 33.8539 56.7835 40.3609 64.7291 41.4969C64.7291 41.4969 72.4164 42.1043 75.3528 41.3546C78.0736 40.6608 80.628 38.5337 81.4119 35.8717C81.4119 35.8717 81.6085 35.3889 81.6639 33.9657C81.6639 33.9657 81.7483 16.4918 81.6639 16.4918H75.4889V34.0788C75.4889 34.0788 75.6149 35.7548 69.5658 35.7548C63.353 35.7548 63.0568 34.0788 63.0568 34.0788V16.4893" fill="#D32027"/>
<path d="M26.8854 26.8652L20.8124 30.2273C20.2088 34.0265 18.1357 36.4929 14.2593 36.4929C12.3009 36.4929 10.427 35.8385 9.24363 34.5462L21.3555 27.7127L26.4166 24.8207C24.7178 19.2298 19.6442 15.1777 13.6493 15.1777C6.26197 15.1777 0.273438 21.334 0.273438 28.9287C0.273438 36.5234 6.26197 42.6796 13.6493 42.6796C21.0367 42.6796 27.0252 36.5221 27.0252 28.9249C27.0187 28.2361 26.972 27.5484 26.8854 26.8652V26.8652ZM13.5271 21.0507C15.5762 21.2324 16.5516 21.9401 17.9505 23.1244L6.4258 29.6314C6.38925 29.3175 6.38295 28.4065 6.38295 28.0824C6.38421 23.6631 9.83719 20.719 13.5284 21.0456L13.5271 21.0507Z" fill="#D32027"/>
<path d="M127.792 26.7561L121.743 30.2224C121.14 34.0216 119.068 36.488 115.19 36.488C113.231 36.488 111.358 35.8336 110.173 34.5413L122.285 27.7078L127.348 24.8158C125.647 19.225 120.574 15.1729 114.579 15.1729C107.192 15.1729 101.203 21.3291 101.203 28.9238C101.203 36.5185 107.192 42.6748 114.579 42.6748C121.966 42.6748 127.955 36.5185 127.955 28.9238C127.941 28.1987 127.887 27.475 127.792 26.7561V26.7561ZM114.463 21.0458C116.512 21.2275 117.488 21.9352 118.888 23.1195L107.362 29.6265C107.325 29.3126 107.32 28.4016 107.32 28.0776C107.32 23.6633 110.772 20.7192 114.463 21.0458Z" fill="#060406"/>
<path d="M130.602 23.1485V34.437C130.602 34.437 131.128 41.6352 140.257 41.8614H145.254C145.254 41.8614 154.985 42.1269 155.135 33.1117H149.425C149.425 33.1117 149.047 35.9147 144.385 35.7254C139.722 35.5361 136.682 35.8385 136.419 33.1485V24.4738C136.419 24.4738 135.931 21.7458 143.896 22.0494C143.896 22.0494 148.405 22.0113 149.188 24.6251H155.012C155.012 24.6251 156.328 17.7305 146.821 16.4052C137.313 15.0799 130.865 17.9579 130.602 23.1485Z" fill="#060406"/>
<path d="M157.127 10.1914V41.4074H163.326V23.7543C163.326 23.7543 164.334 22.2791 169.601 22.3146C175.19 22.3515 175.536 23.7543 175.536 23.7543V41.3312H181.999V23.4506C181.999 23.4506 181.999 17.2384 172.568 16.2524C172.568 16.2524 169.449 15.7225 163.288 16.9728V10.2295L157.127 10.1914Z" fill="#060406"/>
<path d="M133.352 7.82087V0.105469H134.108V4.19698H134.186L137.854 0.105469H138.837L135.587 3.66328L138.826 7.82593H137.903L135.12 4.19062L134.111 5.3342V7.82847L133.352 7.82087Z" fill="#231F20"/>
<path d="M146.47 7.93312C144.527 7.93312 143.145 6.38421 143.145 3.96998C143.145 1.55575 144.531 0.00683594 146.47 0.00683594C148.41 0.00683594 149.795 1.55067 149.795 3.96998C149.795 6.38929 148.406 7.93312 146.47 7.93312ZM146.47 0.71838C144.991 0.71838 143.877 1.9128 143.877 3.96998C143.877 6.02716 144.983 7.22028 146.47 7.22028C147.957 7.22028 149.062 6.02335 149.059 3.96998C149.055 1.91661 147.954 0.712021 146.47 0.712021V0.71838Z" fill="#231F20"/>
<path d="M160.502 7.82087H159.631L157.972 4.72047C157.887 4.72047 157.797 4.7281 157.704 4.7281H155.94V7.82087H155.184V0.105469H157.684C159.335 0.105469 160.175 1.07371 160.175 2.42949C160.175 3.46253 159.69 4.25288 158.734 4.57309L160.502 7.82087ZM157.674 4.03815C158.87 4.03815 159.438 3.42059 159.438 2.42949C159.438 1.43838 158.867 0.777646 157.664 0.777646H155.941V4.03179L157.674 4.03815Z" fill="#231F20"/>
<path d="M165.598 7.82087V0.105469H170.081V0.784006H166.349V3.6201H169.848V4.29482H166.355V7.14233H170.155V7.82087H165.598Z" fill="#231F20"/>
<path d="M180.464 7.82087L179.658 5.52607H176.478L175.668 7.82087H174.879L177.66 0.105469H178.471L181.254 7.82087H180.464ZM176.714 4.85262H179.424L178.099 1.08516H178.038L176.714 4.85262Z" fill="#231F20"/>
<path d="M1.29753 61.1535C1.29822 62.5022 1.47491 63.845 1.82304 65.1472C2.20718 66.537 2.84294 67.8431 3.69824 68.9998H2.57665C1.70068 67.9513 1.03936 66.7382 0.63088 65.4305C0.198902 64.0167 -0.0136451 62.5439 0.000772843 61.0646V60.3581C-0.0145491 58.8845 0.198038 57.4175 0.63088 56.01C1.04164 54.7068 1.7028 53.4979 2.57665 52.4521H3.69824C2.86428 53.5696 2.23793 54.8301 1.84951 56.1726C1.47765 57.5039 1.29187 58.881 1.29753 60.2641V61.1535Z" fill="#231F20"/>
<path d="M7.44959 60.5879C7.69312 60.3167 7.91557 60.027 8.11498 59.7213C8.26987 59.4816 8.39913 59.2261 8.50061 58.9589C8.59411 58.7055 8.65592 58.4412 8.6846 58.1724C8.71576 57.8612 8.73048 57.5486 8.72871 57.2359V53.4354H10.0091V57.147C10.0091 57.4858 10.0204 57.7823 10.0431 58.0364C10.064 58.2811 10.1096 58.5229 10.1792 58.7582C10.2538 58.9983 10.3597 59.2273 10.4943 59.4392C10.6625 59.7004 10.8499 59.9485 11.0551 60.1813C11.4054 60.593 11.8347 61.0589 12.343 61.579C12.8513 62.0991 13.4394 62.6586 14.1073 63.2575L13.3008 64.1063C12.7395 63.5752 12.2224 63.0711 11.7494 62.5942C11.2764 62.1173 10.8648 61.6904 10.5144 61.3134C10.2447 61.0305 10.0024 60.7594 9.78729 60.5002C9.63105 60.3306 9.49835 60.1404 9.39284 59.9348H9.3752C9.34314 60.0331 9.29594 60.1257 9.23531 60.2092C9.1534 60.3363 9.05006 60.471 8.92782 60.6235C8.80558 60.7759 8.67578 60.9399 8.53337 61.1101C8.39097 61.2804 8.25865 61.4367 8.13011 61.579C7.97888 61.7425 7.79489 61.9369 7.57813 62.1622C7.36138 62.3875 7.13076 62.623 6.88628 62.8687C6.64095 63.1161 6.38387 63.3702 6.11503 63.6311C5.84534 63.8852 5.58322 64.1317 5.32613 64.3554L4.50195 63.49C5.09005 62.9716 5.6248 62.4765 6.1062 62.0047C6.5876 61.5328 7.0354 61.0606 7.44959 60.5879ZM17.0549 58.2715H19.7367V59.3858H17.0549V68.3986H15.8098V52.2461H17.0549V58.2715Z" fill="#231F20"/>
<path d="M22.7164 60.269C22.7217 58.8858 22.5355 57.5087 22.1632 56.1775C21.7748 54.835 21.1484 53.5745 20.3145 52.457H21.436C22.3102 53.5025 22.9714 54.7115 23.3818 56.0148C23.8153 57.4223 24.0279 58.8894 24.0119 60.363V61.0695C24.027 62.5489 23.8144 64.0217 23.3818 65.4354C22.9739 66.7433 22.3125 67.9565 21.436 69.0047H20.3145C21.1698 67.848 21.8055 66.5419 22.1897 65.1521C22.5382 63.8499 22.7153 62.5072 22.7164 61.1584V60.269Z" fill="#231F20"/>
<path d="M31.2704 54.1546H35.2842V55.2321H26.0645V54.1546H30.043V52.0859H31.2704V54.1546ZM34.3378 59.6183C34.3379 59.9867 34.2515 60.3498 34.0857 60.6781C33.9096 61.0296 33.6618 61.3396 33.3586 61.5878C33.0146 61.869 32.6225 62.0843 32.2017 62.2232C31.1976 62.5416 30.1208 62.5416 29.1167 62.2232C28.6961 62.0838 28.3041 61.8685 27.9598 61.5878C27.657 61.3392 27.4093 61.0293 27.2327 60.6781C27.0669 60.3498 26.9805 59.9867 26.9806 59.6183V58.9462C26.9805 58.5778 27.0669 58.2147 27.2327 57.8864C27.4096 57.5351 27.6572 57.2248 27.9598 56.9754C28.3048 56.6957 28.6966 56.4805 29.1167 56.3401C30.121 56.0233 31.1974 56.0233 32.2017 56.3401C32.6221 56.48 33.014 56.6952 33.3586 56.9754C33.6615 57.2244 33.9092 57.5348 34.0857 57.8864C34.2515 58.2147 34.3379 58.5778 34.3378 58.9462V59.6183ZM30.6567 61.3973C31.0115 61.4029 31.3646 61.3462 31.7001 61.2295C31.9852 61.1311 32.2519 60.985 32.489 60.7975C32.6938 60.6353 32.8651 60.4341 32.9931 60.2054C33.1044 60.0085 33.1646 59.7865 33.1683 59.5599V58.9945C33.1646 58.7679 33.1044 58.5459 32.9931 58.349C32.8654 58.12 32.6941 57.9188 32.489 57.7569C32.2517 57.5694 31.9851 57.4229 31.7001 57.3235C31.0226 57.0999 30.292 57.0999 29.6145 57.3235C29.3293 57.4224 29.0626 57.5689 28.8256 57.7569C28.6203 57.9186 28.4489 58.1198 28.3215 58.349C28.2102 58.5459 28.15 58.7679 28.1463 58.9945V59.5599C28.15 59.7865 28.2102 60.0085 28.3215 60.2054C28.4492 60.4343 28.6205 60.6355 28.8256 60.7975C29.0624 60.9856 29.3291 61.1316 29.6145 61.2295C29.9494 61.3471 30.3021 61.4048 30.6567 61.3998V61.3973ZM30.1665 67.1063H38.9653V68.2016H28.9214V63.7301H30.1665V67.1063ZM38.475 57.1736H40.9287V58.2689H38.475V63.9957H37.2476V52.2435H38.475V57.1736Z" fill="#231F20"/>
<path d="M43.6273 63.0446H48.4161V59.8807H41.7168V58.821H52.4614C52.6299 58.1495 52.7528 57.4673 52.8294 56.779C52.8983 56.1541 52.9337 55.526 52.9352 54.8972V54.0484H43.6626V52.9531H54.1601V54.9684C54.1595 55.6033 54.1216 56.2376 54.0467 56.868C53.9694 57.5101 53.8669 58.1611 53.7392 58.821H56.4386V59.8807H49.6335V63.0446H54.3126V68.5237H53.0864V64.1221H43.6273V63.0446Z" fill="#231F20"/>
<path d="M61.4528 64.3337C60.285 64.3337 59.4235 63.9305 58.8682 63.1241C58.3128 62.3177 58.0352 61.1537 58.0352 59.6323V58.2499C58.0352 56.7251 58.3128 55.5616 58.8682 54.7594C59.4235 53.9572 60.285 53.5536 61.4528 53.5485C62.6206 53.5485 63.4826 53.9522 64.0388 54.7594C64.595 55.5667 64.8726 56.7302 64.8718 58.2499V58.3376H67.0267V52.5765H68.2542V67.5993H67.0267V59.4507H64.8718V59.6273C64.8718 61.1521 64.5941 62.316 64.0388 63.119C63.4835 63.9221 62.6215 64.327 61.4528 64.3337ZM61.4528 54.7023C60.6698 54.7023 60.1032 55.0144 59.7528 55.6387C59.4025 56.263 59.2273 57.1821 59.2273 58.396V59.4913C59.2273 60.7052 59.4025 61.6243 59.7528 62.2486C60.1032 62.8729 60.6698 63.1851 61.4528 63.1851C62.2359 63.1851 62.8025 62.8729 63.1529 62.2486C63.5032 61.6243 63.6788 60.7052 63.6796 59.4913V58.396C63.6796 57.1821 63.504 56.263 63.1529 55.6387C62.8017 55.0144 62.235 54.7023 61.4528 54.7023ZM71.3392 68.3986H70.1117V52.2461H71.3392V68.3986Z" fill="#231F20"/>
<path d="M88.1325 61.6476V62.7263H84.2057V68.382H82.9619V62.7263H78.5789V68.382H77.335V62.7263H73.4082V61.6476H88.1325ZM86.1515 59.2791H75.5468V53.2168H85.9763V54.2956H76.7919V58.2016H86.1515V59.2791Z" fill="#231F20"/>
<path d="M96.0896 53.6591V54.7721H91.2516V58.1482H95.1432V59.2448H91.2516V63.0263H92.5119C92.8899 63.0263 93.2503 63.0263 93.607 63.0174C93.9636 63.0085 94.3253 62.997 94.6945 62.9729C95.0638 62.9487 95.4419 62.9208 95.8287 62.8852C96.2156 62.8496 96.6378 62.7963 97.0814 62.7264L97.2213 63.8217C96.3651 63.9573 95.5023 64.0459 94.6366 64.0872C93.8233 64.122 93.0315 64.1394 92.2611 64.1394H90.0078V53.6591H96.0896ZM98.6466 58.0783V52.5815H99.874V67.6044H98.6466V59.2092H96.1955V58.0783H98.6466ZM102.994 68.3986H101.767V52.2461H102.994V68.3986Z" fill="#231F20"/>
<path d="M119.818 65.042V66.1195H105.1V65.042H119.818ZM116.382 58.3965C116.394 58.1601 116.402 57.9225 116.409 57.6811C116.415 57.4397 116.418 57.1881 116.418 56.9289V54.8082H107.039V53.7129H117.697V56.2758C117.697 57.0178 117.682 57.7099 117.653 58.352C117.623 58.9941 117.581 59.607 117.527 60.1906C117.474 60.7743 117.409 61.3427 117.334 61.8958C117.258 62.449 117.167 63.0085 117.062 63.5744L115.782 63.4333C115.911 62.7497 116.019 62.0839 116.106 61.4359C116.194 60.7879 116.267 60.128 116.326 59.4562L106.808 59.6328L106.773 58.5198L116.382 58.3965Z" fill="#231F20"/>
<path d="M125.59 57.9963C125.566 58.15 125.43 58.3584 125.178 58.6239C124.925 58.8895 124.608 59.2097 124.222 59.5871C123.918 59.8819 123.53 60.2322 123.057 60.6379C122.584 61.0437 122.102 61.4414 121.611 61.8311L120.84 60.9302C121.319 60.577 121.812 60.1852 122.321 59.7548C122.829 59.3245 123.282 58.909 123.679 58.5083C123.915 58.2765 124.135 58.0286 124.337 57.7663C124.484 57.5724 124.607 57.3617 124.705 57.1386C124.794 56.9247 124.85 56.6985 124.871 56.4677C124.894 56.2262 124.907 55.9403 124.907 55.61V53.0128H126.167V55.5744C126.164 55.8548 126.176 56.1351 126.202 56.4143C126.224 56.6369 126.28 56.8548 126.368 57.0598C126.469 57.2797 126.599 57.4849 126.754 57.6697C126.967 57.9195 127.198 58.1527 127.446 58.3673C127.878 58.7451 128.316 59.1132 128.762 59.4715C129.207 59.8298 129.621 60.1508 130.005 60.4346L129.269 61.2999C128.801 60.9467 128.378 60.6138 127.999 60.3012C127.62 59.9886 127.278 59.7031 126.973 59.4448C126.144 58.7366 125.688 58.2533 125.606 57.995L125.59 57.9963ZM125.151 67.1157H133.973V68.211H123.911V62.8031H125.155L125.151 67.1157ZM133.46 56.9009H135.915V57.9963H133.46V63.7752H132.233V52.2529H133.46V56.9009Z" fill="#231F20"/>
<path d="M137.352 56.0631C137.354 55.6519 137.45 55.2466 137.633 54.8789C137.825 54.4828 138.096 54.1307 138.429 53.8446C138.796 53.532 139.214 53.2868 139.665 53.1203C140.176 52.9317 140.717 52.8387 141.261 52.8458C141.789 52.84 142.313 52.9259 142.812 53.1C143.256 53.2544 143.668 53.4881 144.029 53.7899C144.358 54.0652 144.631 54.4006 144.836 54.7785C145.029 55.1301 145.143 55.5207 145.169 55.9221H148.816V52.2461H150.042V60.4989H148.816V57.0174H145.169C145.145 57.4222 145.034 57.8171 144.845 58.1749C144.644 58.5559 144.37 58.8925 144.038 59.1648C143.674 59.4644 143.263 59.7002 142.821 59.8623C142.321 60.0448 141.792 60.1347 141.261 60.1279C140.717 60.135 140.176 60.042 139.665 59.8535C139.214 59.6879 138.795 59.4427 138.429 59.1292C138.097 58.8454 137.826 58.4966 137.633 58.1038C137.448 57.7336 137.352 57.325 137.352 56.9106V56.0631ZM143.978 56.1902C143.978 55.8984 143.909 55.6108 143.776 55.3515C143.636 55.0792 143.442 54.8384 143.207 54.6438C142.947 54.4302 142.654 54.263 142.338 54.1495C141.64 53.9021 140.88 53.9021 140.182 54.1495C139.867 54.263 139.574 54.4302 139.315 54.6438C139.079 54.8377 138.885 55.0786 138.745 55.3515C138.612 55.6106 138.543 55.8983 138.544 56.1902V56.7912C138.543 57.0834 138.612 57.3715 138.745 57.6311C138.885 57.9034 139.079 58.1439 139.315 58.3376C139.574 58.5516 139.867 58.7193 140.182 58.8331C140.88 59.0805 141.64 59.0805 142.338 58.8331C142.654 58.7193 142.947 58.5516 143.207 58.3376C143.442 58.1432 143.635 57.9029 143.776 57.6311C143.909 57.3713 143.978 57.0834 143.978 56.7912V56.1902ZM150.042 61.457V68.3858H140.261V61.457H141.471V63.6845H148.832V61.457H150.042ZM148.832 67.2715V64.7797H141.471V67.2715H148.832Z" fill="#231F20"/>
<path d="M157.946 54.0487H162.066V55.1274H152.775V54.0487H156.719V52.0156H157.946V54.0487ZM157.35 61.4362C156.805 61.4467 156.261 61.3721 155.738 61.2151C155.33 61.0915 154.946 60.8972 154.604 60.6408C154.32 60.4292 154.089 60.1538 153.93 59.8365C153.788 59.5544 153.713 59.243 153.71 58.9267V58.3968C153.713 58.0805 153.788 57.7691 153.93 57.487C154.089 57.1697 154.32 56.8943 154.604 56.6827C154.946 56.4268 155.33 56.2325 155.738 56.1084C156.793 55.8136 157.908 55.8136 158.963 56.1084C159.371 56.2326 159.755 56.4269 160.097 56.6827C160.382 56.8944 160.614 57.1702 160.774 57.4883C160.916 57.7704 160.991 58.0818 160.993 58.3981V58.928C160.991 59.2443 160.916 59.5557 160.774 59.8377C160.614 60.1551 160.383 60.4305 160.1 60.6421C159.758 60.8983 159.374 61.0927 158.966 61.2164C158.441 61.3732 157.897 61.4474 157.35 61.4362V61.4362ZM157.35 56.9292C156.98 56.9228 156.611 56.9707 156.255 57.0715C155.982 57.1475 155.724 57.27 155.492 57.4337C155.309 57.5636 155.157 57.7323 155.045 57.928C154.951 58.0923 154.899 58.2781 154.896 58.468V58.8555C154.899 59.0454 154.951 59.2313 155.045 59.3956C155.156 59.5915 155.309 59.7602 155.492 59.8898C155.724 60.0535 155.982 60.176 156.255 60.252C156.973 60.4417 157.727 60.4417 158.445 60.252C158.718 60.1757 158.976 60.0533 159.209 59.8898C159.391 59.7598 159.544 59.5911 159.655 59.3956C159.749 59.2313 159.8 59.0454 159.804 58.8555V58.468C159.8 58.2781 159.749 58.0923 159.655 57.928C159.543 57.7326 159.391 57.564 159.209 57.4337C158.976 57.2703 158.718 57.1478 158.445 57.0715C158.089 56.9707 157.72 56.9228 157.35 56.9292V56.9292ZM165.94 62.2317V68.3994H156.158V62.2317H157.368V64.1376H164.73V62.2317H165.94ZM164.73 67.2863V65.2393H157.371V67.2888L164.73 67.2863ZM164.73 56.1516V52.2469H165.94V61.2774H164.73V60.0398H162.013V58.9623H164.73V57.2342H162.013V56.1554L164.73 56.1516Z" fill="#231F20"/>
<path d="M179.645 64.9173C178.921 64.9885 178.207 65.0503 177.503 65.1028C176.799 65.1553 176.032 65.2007 175.203 65.2388C174.379 65.2735 173.461 65.2968 172.45 65.3087C171.44 65.3205 170.264 65.3264 168.922 65.3264V64.2312H171.384C172.14 64.2312 172.85 64.2193 173.514 64.1956V62.1803C173.052 62.1399 172.598 62.036 172.164 61.8716C171.783 61.7287 171.428 61.5225 171.113 61.2616C170.837 61.0345 170.608 60.7553 170.438 60.4395C170.283 60.149 170.201 59.8242 170.201 59.4942V58.8233C170.203 58.4625 170.3 58.1087 170.482 57.7979C170.679 57.4569 170.944 57.1616 171.262 56.9313C171.63 56.6676 172.039 56.4675 172.472 56.3392C173.489 56.0461 174.567 56.0461 175.583 56.3392C176.013 56.469 176.418 56.6691 176.783 56.9313C177.101 57.1612 177.367 57.4566 177.563 57.7979C177.745 58.1087 177.842 58.4625 177.844 58.8233V59.4942C177.844 59.8136 177.769 60.1284 177.625 60.4129C177.471 60.7168 177.26 60.9872 177.002 61.2083C176.71 61.4594 176.382 61.665 176.029 61.8182C175.625 61.9961 175.197 62.1126 174.759 62.1638V64.16C175.683 64.1371 176.528 64.099 177.292 64.0457C178.057 63.9923 178.807 63.9245 179.544 63.8423L179.645 64.9173ZM174.614 54.1168H178.576V55.2121H169.321V54.1168H173.388V52.1016H174.614V54.1168ZM174.019 57.174C173.646 57.1694 173.273 57.22 172.914 57.3239C172.617 57.4101 172.337 57.5445 172.082 57.7216C171.873 57.8677 171.694 58.0537 171.556 58.2693C171.438 58.454 171.374 58.6685 171.372 58.8881V59.4192C171.375 59.6411 171.439 59.8578 171.556 60.0456C171.692 60.266 171.871 60.4559 172.082 60.6035C172.337 60.7806 172.617 60.9149 172.914 61.0012C173.637 61.2011 174.4 61.2011 175.123 61.0012C175.42 60.9147 175.702 60.7804 175.956 60.6035C176.167 60.4555 176.346 60.2656 176.482 60.0456C176.599 59.8578 176.663 59.6411 176.666 59.4192V58.8855C176.663 58.6659 176.6 58.4514 176.482 58.2667C176.344 58.0515 176.165 57.8655 175.956 57.7191C175.702 57.5422 175.42 57.4078 175.123 57.3214C174.764 57.2192 174.392 57.1704 174.019 57.1765V57.174ZM181.994 68.3964H180.75V52.2464H181.994V68.3964Z" fill="#231F20"/>
<path d="M100.582 22.9267V16.6383H91.1521V7.0957H85.0274V34.6319C85.0274 34.6319 84.8775 42.0944 98.1021 41.792V35.731C98.1021 35.731 91.4898 36.1122 91.2642 33.8746V22.9267H100.582Z" fill="#060406"/>
</g>
<defs>
<clipPath id="clip0_156_381">
<rect width="182" height="69" fill="white"/>
</clipPath>
</defs>
</svg>
