<svg width="244" height="36" viewBox="0 0 244 36" fill="none" xmlns="http://www.w3.org/2000/svg">
<path d="M135.264 5.94629H137.333V20.7905H135.264V5.94629Z" fill="#768388"/>
<path d="M147.762 14.3213H149.603V15.7118H155.789V14.3213H157.664V20.8393H147.762V14.3213ZM155.789 17.4814H149.603V19.0554H155.789V17.4814ZM155.757 6.32109L157.664 6.30176V14.8379L155.762 16.3274L155.757 6.32109Z" fill="#768388"/>
<path d="M177.621 16.9475V20.6725H175.765V18.8378L167 18.7315V16.9475H177.621ZM177.621 12.0156V16.0857H175.872V6.27246H177.621V10.6927" fill="#768388"/>
<path d="M190.031 20.7843V15.6374H191.967V18.7758H200.88V20.7722L190.031 20.7843ZM198.654 15.5554V6.03906H200.749V15.5554H198.654Z" fill="#768388"/>
<path d="M126.012 6.60582L126.079 8.64332H130.692C130.692 8.64332 131.096 14.3936 126.174 16.9019L127.038 18.8186C127.038 18.8186 133.64 16.04 132.882 6.50684L126.012 6.60582Z" fill="#768388"/>
<path d="M154.357 12.4366C155.144 12.4366 155.782 11.8 155.782 11.0147C155.782 10.2294 155.144 9.59277 154.357 9.59277C153.57 9.59277 152.932 10.2294 152.932 11.0147C152.932 11.8 153.57 12.4366 154.357 12.4366Z" fill="#768388"/>
<path d="M148.999 8.14122C149.879 8.14122 150.598 9.00063 150.598 10.0725C150.598 11.1443 149.872 12.0037 148.999 12.0037C148.125 12.0037 147.399 11.1419 147.399 10.0725C147.399 9.00305 148.125 8.14122 148.999 8.14122ZM148.999 6.20996C147.046 6.20996 145.463 7.93361 145.463 10.0725C145.463 12.2114 147.046 13.935 148.999 13.935C150.951 13.935 152.534 12.2114 152.534 10.0725C152.534 7.93361 150.951 6.20996 148.999 6.20996Z" fill="#768388"/>
<path d="M170.123 6.31671L169.6 8.14416H166.318V9.84367H174.902V8.18037H171.403L171.955 6.2998L170.123 6.31671Z" fill="#768388"/>
<path d="M170.393 10.4563C171.69 10.4563 172.484 11.0984 172.484 11.4509C172.484 11.8033 171.69 12.443 170.393 12.443C169.096 12.443 168.3 11.8009 168.3 11.4509C168.3 11.1008 169.093 10.4563 170.393 10.4563ZM170.393 9.00781C168.435 9.00781 166.848 10.1014 166.848 11.4509C166.848 12.8003 168.435 13.8915 170.393 13.8915C172.351 13.8915 173.936 12.7979 173.936 11.4509C173.936 10.1038 172.351 9.00781 170.393 9.00781Z" fill="#768388"/>
<path d="M175.245 14.3242H166.01V16.2313H175.245V14.3242Z" fill="#768388"/>
<path d="M171.567 13.3174H169.672V15.169H171.567V13.3174Z" fill="#768388"/>
<path d="M192.18 8.08556C193.073 8.08556 193.799 8.94739 193.799 10.0168C193.799 11.0863 193.073 11.9481 192.18 11.9481C191.287 11.9481 190.563 11.0887 190.563 10.0168C190.563 8.94497 191.289 8.08556 192.18 8.08556ZM192.18 6.1543C190.219 6.1543 188.627 7.87795 188.627 10.0168C188.627 12.1557 190.219 13.8794 192.18 13.8794C194.14 13.8794 195.735 12.1557 195.735 10.0168C195.735 7.87795 194.142 6.1543 192.18 6.1543Z" fill="#768388"/>
<path d="M218.141 6.0752H220.21V20.9145H218.141V6.0752Z" fill="#768388"/>
<path d="M236.914 12.7595V14.6908H228.644V12.7595H236.914ZM235.074 13.7855V8.32006H228.635V6.56985H236.916V13.7855H235.074ZM229.637 20.866V15.7289H231.764V18.7151H240.464L240.483 20.8564L229.637 20.866ZM240.478 11.8808V19.7218H238.482V6.27051H240.478V10.6569" fill="#768388"/>
<path d="M241.586 12.5782C242.373 12.5782 243.011 11.9416 243.011 11.1563C243.011 10.371 242.373 9.73438 241.586 9.73438C240.798 9.73438 240.16 10.371 240.16 11.1563C240.16 11.9416 240.798 12.5782 241.586 12.5782Z" fill="#768388"/>
<path d="M233.179 10.8164H231.34V13.3343H233.179V10.8164Z" fill="#768388"/>
<path d="M86.4823 18.8207V15.4941H84.6406V20.7737H96.1937V18.8207H86.4823Z" fill="#768388"/>
<path d="M89.472 11.03H90.5803V15.3078H92.4486V5.91699H90.5803V9.06976H89.472V6.226H87.4295V8.34315H85.508V6.226H83.4316V14.0862H89.4817L89.472 11.03ZM87.4295 12.056H85.508V10.2744H87.4295V12.056Z" fill="#768388"/>
<path d="M96.169 5.91602H94.3008V15.3092H96.169V5.91602Z" fill="#768388"/>
<path d="M115.688 5.90332V11.8154C115.588 11.5433 115.406 11.3085 115.168 11.1423C114.929 10.9762 114.646 10.8867 114.355 10.886C114.168 10.886 113.983 10.9228 113.81 10.9942C113.637 11.0657 113.48 11.1704 113.347 11.3025C113.215 11.4345 113.11 11.5912 113.038 11.7637C112.967 11.9363 112.93 12.1212 112.93 12.3079C112.93 12.4946 112.967 12.6795 113.038 12.852C113.11 13.0245 113.215 13.1813 113.347 13.3133C113.48 13.4454 113.637 13.5501 113.81 13.6215C113.983 13.693 114.168 13.7298 114.355 13.7298C114.646 13.7295 114.929 13.6406 115.168 13.4749C115.406 13.3092 115.588 13.0746 115.688 12.8028V20.7475H117.77V5.90332H115.688Z" fill="#768388"/>
<path d="M110.373 9.97804H113.335V8.06127H110.303L110.923 6.01172H109.033L108.413 8.06127H105.202V9.97804H108.149C108.169 10.8761 108.009 14.4344 104.541 17.5896L105.92 18.7774C105.92 18.7774 108.302 16.6988 109.308 13.8382C110.079 15.6898 111.23 17.3599 112.687 18.7412L113.933 17.4183C113.933 17.4183 110.126 14.1013 110.373 9.97804Z" fill="#768388"/>
<path d="M178.691 12.5782C179.478 12.5782 180.116 11.9416 180.116 11.1563C180.116 10.371 179.478 9.73438 178.691 9.73438C177.904 9.73438 177.266 10.371 177.266 11.1563C177.266 11.9416 177.904 12.5782 178.691 12.5782Z" fill="#768388"/>
<path d="M85.9901 29.1726C84.8333 29.1726 83.9863 28.3107 83.9863 26.8937C83.9863 25.4766 84.8333 24.6172 85.9901 24.6172C87.1469 24.6172 87.9963 25.4766 87.9963 26.8937C87.9963 28.3107 87.142 29.1726 85.9901 29.1726ZM85.9901 25.2304C85.2278 25.2304 84.6567 25.817 84.6567 26.8937C84.6567 27.9704 85.2278 28.5594 85.9901 28.5594C86.7524 28.5594 87.3235 27.9728 87.3235 26.8937C87.3235 25.8146 86.7548 25.2304 85.9901 25.2304Z" fill="#768388"/>
<path d="M89.1445 29.1224V25.7958H89.7786V26.3269H89.8149C89.875 26.1516 89.99 26.0001 90.1429 25.8949C90.2958 25.7897 90.4786 25.7364 90.6643 25.7427C90.7573 25.7431 90.8502 25.7487 90.9426 25.7596V26.3824C90.8303 26.3589 90.7161 26.3459 90.6014 26.3438C90.4991 26.3375 90.3965 26.3522 90.3001 26.387C90.2038 26.4218 90.1155 26.476 90.0409 26.5461C89.9663 26.6162 89.9069 26.7009 89.8664 26.7948C89.8258 26.8887 89.805 26.9899 89.8052 27.0922V29.12L89.1445 29.1224Z" fill="#768388"/>
<path d="M91.7096 29.4354H92.38C92.4429 29.7517 92.7381 29.9182 93.1737 29.9182C93.694 29.9182 94.0231 29.6913 94.0231 29.1723V28.5181H93.9796C93.892 28.6964 93.7532 28.8447 93.5808 28.9441C93.4084 29.0434 93.2102 29.0892 93.0116 29.0757C92.2227 29.0757 91.6152 28.4891 91.6152 27.4269C91.6152 26.3647 92.213 25.7539 93.0164 25.7539C93.2176 25.745 93.4169 25.7957 93.5892 25.8997C93.7615 26.0036 93.899 26.1562 93.9844 26.3381H94.028V25.7974H94.6669V29.1964C94.6669 30.051 94.0231 30.4421 93.164 30.4421C92.3049 30.4421 91.7701 30.0583 91.7096 29.4354ZM94.0304 27.4269C94.0304 26.7558 93.7231 26.2995 93.1616 26.2995C92.6002 26.2995 92.2832 26.7823 92.2832 27.4269C92.2832 28.0714 92.5832 28.5229 93.1616 28.5229C93.74 28.5229 94.0304 28.1149 94.0304 27.4317V27.4269Z" fill="#768388"/>
<path d="M98.5297 26.9038V29.1223H97.8932V28.6685H97.8666C97.7697 28.8408 97.6256 28.982 97.4511 29.0756C97.2767 29.1693 97.0792 29.2114 96.8816 29.1972C96.2452 29.1972 95.7539 28.835 95.7539 28.1832C95.7539 27.4276 96.4 27.2321 97.0002 27.1886C97.2253 27.1742 97.7262 27.1476 97.8763 27.1428V26.8724C97.8763 26.4982 97.6343 26.281 97.1962 26.281C97.0508 26.2623 96.9034 26.2941 96.7787 26.371C96.654 26.4479 96.5596 26.5653 96.5114 26.7034H95.858C95.9185 26.153 96.4363 25.7523 97.2204 25.7523C97.7528 25.7426 98.5297 25.9382 98.5297 26.9038ZM97.8787 27.9129V27.6111C97.7286 27.6111 97.2519 27.6521 97.0922 27.6618C96.6662 27.6932 96.3952 27.8549 96.3952 28.1808C96.3952 28.5067 96.659 28.6636 97.0268 28.6636C97.1326 28.6732 97.2393 28.6612 97.3402 28.6283C97.4412 28.5954 97.5344 28.5423 97.6141 28.4723C97.6939 28.4022 97.7584 28.3167 97.8039 28.221C97.8494 28.1252 97.8748 28.0212 97.8787 27.9153V27.9129Z" fill="#768388"/>
<path d="M100.423 29.1219H99.7676V25.7953H100.397V26.3385H100.438C100.521 26.1514 100.66 25.9946 100.836 25.8895C101.012 25.7845 101.216 25.7364 101.42 25.7519C102.105 25.7519 102.558 26.1864 102.558 27.0072V29.1219H101.902V27.0868C101.902 26.604 101.638 26.3167 101.198 26.3167C101.09 26.313 100.982 26.3324 100.883 26.3738C100.783 26.4152 100.693 26.4775 100.62 26.5565C100.546 26.6355 100.491 26.7294 100.457 26.8317C100.423 26.9341 100.412 27.0425 100.423 27.1496V29.1219Z" fill="#768388"/>
<path d="M103.711 24.8879C103.713 24.8352 103.724 24.7834 103.746 24.7354C103.768 24.6874 103.799 24.6441 103.837 24.608C103.876 24.5719 103.921 24.5437 103.97 24.5251C104.019 24.5064 104.072 24.4976 104.125 24.4992C104.231 24.4966 104.334 24.536 104.411 24.6089C104.488 24.6817 104.533 24.782 104.536 24.8879C104.535 24.9402 104.523 24.9917 104.501 25.0394C104.48 25.0872 104.449 25.1302 104.411 25.1661C104.372 25.2019 104.328 25.2299 104.279 25.2485C104.229 25.267 104.177 25.2758 104.125 25.2741C104.019 25.2774 103.915 25.2386 103.838 25.1662C103.76 25.0938 103.715 24.9937 103.711 24.8879V24.8879ZM103.793 29.1125V25.7859H104.459V29.1222L103.793 29.1125Z" fill="#768388"/>
<path d="M105.617 29.1215V28.6725L107.42 26.3912V26.3598H105.668V25.7949H108.231V26.2777L106.498 28.5325V28.5639H108.291V29.1215H105.617Z" fill="#768388"/>
<path d="M112.051 26.9038V29.1223H111.412V28.6685H111.388C111.291 28.8412 111.146 28.9827 110.972 29.0763C110.797 29.17 110.599 29.2119 110.401 29.1972C109.767 29.1972 109.275 28.8351 109.275 28.1833C109.275 27.4277 109.922 27.2321 110.522 27.1887C110.747 27.1742 111.248 27.1476 111.398 27.1428V26.8724C111.398 26.4982 111.156 26.281 110.718 26.281C110.333 26.281 110.101 26.4572 110.033 26.7034H109.379C109.44 26.153 109.955 25.7523 110.742 25.7523C111.274 25.7426 112.051 25.9382 112.051 26.9038ZM111.4 27.9129V27.6111C111.25 27.6111 110.773 27.6522 110.614 27.6618C110.185 27.6932 109.917 27.8549 109.917 28.1808C109.917 28.5067 110.18 28.6637 110.546 28.6637C110.652 28.6736 110.759 28.6618 110.86 28.6291C110.961 28.5963 111.055 28.5433 111.135 28.4732C111.215 28.4032 111.28 28.3175 111.325 28.2216C111.371 28.1257 111.396 28.0214 111.4 27.9153V27.9129Z" fill="#768388"/>
<path d="M114.892 28.5635V29.1211C114.757 29.1427 114.621 29.1524 114.485 29.1501C113.97 29.1501 113.517 28.8676 113.517 28.2617V26.3015H113.033V25.7801H113.517V24.9834H114.173V25.7801H114.853V26.3015H114.173V28.129C114.173 28.5031 114.359 28.5707 114.572 28.5731C114.659 28.578 114.805 28.5683 114.892 28.5635Z" fill="#768388"/>
<path d="M115.846 24.8879C115.847 24.8352 115.859 24.7834 115.881 24.7354C115.903 24.6874 115.933 24.6441 115.972 24.608C116.01 24.5719 116.055 24.5437 116.105 24.5251C116.154 24.5064 116.207 24.4976 116.26 24.4992C116.366 24.4966 116.469 24.536 116.546 24.6089C116.623 24.6817 116.668 24.782 116.671 24.8879C116.669 24.9402 116.657 24.9917 116.636 25.0394C116.614 25.0872 116.584 25.1302 116.545 25.1661C116.507 25.2019 116.462 25.2299 116.413 25.2485C116.364 25.267 116.312 25.2758 116.26 25.2741C116.153 25.2774 116.05 25.2386 115.973 25.1662C115.895 25.0938 115.849 24.9937 115.846 24.8879V24.8879ZM115.928 29.1125V25.7859H116.584V29.1222L115.928 29.1125Z" fill="#768388"/>
<path d="M117.676 27.4634C117.676 26.4302 118.29 25.7422 119.234 25.7422C120.178 25.7422 120.788 26.4302 120.788 27.4634C120.788 28.4967 120.173 29.1798 119.234 29.1798C118.295 29.1798 117.676 28.4942 117.676 27.4634ZM120.13 27.4634C120.13 26.8309 119.839 26.2878 119.237 26.2878C118.634 26.2878 118.334 26.8309 118.334 27.4634C118.334 28.0959 118.627 28.6367 119.237 28.6367C119.847 28.6367 120.13 28.0983 120.13 27.461V27.4634Z" fill="#768388"/>
<path d="M122.536 29.1213H121.885V25.7947H122.516V26.3379H122.558C122.638 26.1496 122.776 25.9911 122.951 25.8842C123.126 25.7774 123.33 25.7275 123.535 25.7416C124.22 25.7416 124.67 26.1761 124.67 26.9969V29.1213H124.014V27.0862C124.014 26.6034 123.753 26.3161 123.313 26.3161C123.204 26.312 123.097 26.3312 122.997 26.3724C122.896 26.4136 122.807 26.4759 122.733 26.5549C122.659 26.634 122.603 26.728 122.569 26.8305C122.535 26.933 122.524 27.0417 122.536 27.149V29.1213Z" fill="#768388"/>
<path d="M127.934 29.1222V24.6875H130.697V25.2669H128.611V26.6115H130.499V27.1909H128.611V29.1222H127.934Z" fill="#768388"/>
<path d="M131.447 27.4634C131.447 26.4302 132.062 25.7422 133.006 25.7422C133.95 25.7422 134.559 26.4302 134.559 27.4634C134.559 28.4967 133.945 29.1798 133.006 29.1798C132.067 29.1798 131.447 28.4942 131.447 27.4634ZM133.899 27.4634C133.899 26.8309 133.611 26.2878 133.008 26.2878C132.406 26.2878 132.106 26.8309 132.106 27.4634C132.106 28.0959 132.398 28.6391 133.015 28.6391C133.633 28.6391 133.899 28.0983 133.899 27.461V27.4634Z" fill="#768388"/>
<path d="M135.65 29.1228V25.7962H136.284V26.3273H136.321C136.381 26.1532 136.495 26.0029 136.647 25.8982C136.799 25.7935 136.981 25.74 137.165 25.7455C137.259 25.7459 137.353 25.7515 137.446 25.7624V26.3852C137.334 26.362 137.22 26.349 137.105 26.3466C137.002 26.34 136.9 26.3545 136.803 26.3891C136.706 26.4237 136.618 26.4778 136.543 26.548C136.468 26.6181 136.408 26.7029 136.368 26.797C136.327 26.8911 136.306 26.9925 136.306 27.095V29.1228H135.65Z" fill="#768388"/>
<path d="M140.8 24.6777L142.031 28.2844H142.08L143.316 24.6777H144.042L142.453 29.1221H141.666L140.066 24.6874L140.8 24.6777Z" fill="#768388"/>
<path d="M147.536 27.6469H145.164C145.181 28.2818 145.554 28.6415 146.106 28.6415C146.249 28.6541 146.392 28.6267 146.521 28.5623C146.649 28.4979 146.757 28.3991 146.832 28.277H147.497C147.347 28.8201 146.836 29.1798 146.103 29.1798C145.121 29.1798 144.516 28.5039 144.516 27.4707C144.516 26.4375 145.13 25.7422 146.057 25.7422C146.817 25.7422 147.538 26.225 147.538 27.4152L147.536 27.6469ZM146.892 27.1641C146.9 27.0509 146.885 26.9373 146.847 26.8304C146.809 26.7235 146.749 26.6257 146.671 26.5432C146.593 26.4607 146.498 26.3954 146.393 26.3515C146.289 26.3075 146.176 26.2858 146.062 26.2878C145.827 26.2877 145.602 26.3795 145.435 26.5434C145.267 26.7073 145.171 26.9301 145.167 27.1641H146.892Z" fill="#768388"/>
<path d="M149.289 29.1219H148.633V25.7953H149.262V26.3385H149.303C149.386 26.1514 149.525 25.9946 149.701 25.8895C149.877 25.7845 150.081 25.7364 150.286 25.7519C150.971 25.7519 151.423 26.1864 151.423 27.0072V29.1219H150.767V27.0868C150.767 26.604 150.503 26.3167 150.063 26.3167C149.955 26.313 149.848 26.3324 149.748 26.3738C149.648 26.4152 149.558 26.4775 149.485 26.5565C149.411 26.6355 149.356 26.7294 149.322 26.8317C149.288 26.9341 149.277 27.0425 149.289 27.1496V29.1219Z" fill="#768388"/>
<path d="M154.265 28.5635V29.1211C154.13 29.1428 153.994 29.1525 153.858 29.1501C153.343 29.1501 152.89 28.8676 152.89 28.2617V26.3015H152.406V25.7801H152.89V24.9834H153.546V25.7801H154.226V26.3015H153.546V28.129C153.546 28.5031 153.732 28.5707 153.945 28.5731C154.032 28.578 154.178 28.5683 154.265 28.5635Z" fill="#768388"/>
<path d="M157.418 25.7852H158.069V29.1214H157.43V28.5468H157.394C157.311 28.7388 157.171 28.9008 156.992 29.0112C156.814 29.1217 156.607 29.1753 156.397 29.1649C155.756 29.1649 155.301 28.7351 155.301 27.9119V25.7948H155.957V27.8299C155.946 27.9242 155.956 28.0196 155.986 28.1098C156.015 28.2 156.064 28.2829 156.128 28.353C156.192 28.4231 156.27 28.4788 156.357 28.5164C156.445 28.554 156.539 28.5726 156.634 28.571C156.741 28.5712 156.847 28.5495 156.946 28.5072C157.044 28.4649 157.133 28.4029 157.206 28.3251C157.28 28.2473 157.337 28.1553 157.373 28.0547C157.41 27.9542 157.425 27.8473 157.418 27.7405V25.7852Z" fill="#768388"/>
<path d="M159.312 29.1228V25.7962H159.947V26.3273H159.983C160.043 26.1532 160.158 26.0029 160.309 25.8982C160.461 25.7935 160.643 25.74 160.827 25.7455C160.921 25.7459 161.015 25.7515 161.108 25.7624V26.3852C160.996 26.362 160.882 26.349 160.767 26.3466C160.664 26.34 160.562 26.3545 160.465 26.3891C160.368 26.4237 160.28 26.4778 160.205 26.548C160.13 26.6181 160.07 26.7029 160.03 26.797C159.989 26.8911 159.968 26.9925 159.968 27.095V29.1228H159.312Z" fill="#768388"/>
<path d="M164.803 27.6469H162.429C162.446 28.2818 162.821 28.6415 163.373 28.6415C163.516 28.6544 163.66 28.6271 163.788 28.5626C163.917 28.4982 164.024 28.3993 164.099 28.277H164.765C164.617 28.8201 164.104 29.1798 163.373 29.1798C162.388 29.1798 161.783 28.5039 161.783 27.4707C161.783 26.4375 162.398 25.7422 163.325 25.7422C164.085 25.7422 164.808 26.225 164.808 27.4152L164.803 27.6469ZM164.157 27.1641C164.166 27.0511 164.15 26.9377 164.112 26.831C164.075 26.7242 164.015 26.6265 163.937 26.5441C163.859 26.4617 163.765 26.3963 163.66 26.3522C163.556 26.3081 163.443 26.2861 163.33 26.2878C163.095 26.2883 162.87 26.3802 162.702 26.5439C162.534 26.7076 162.437 26.9301 162.432 27.1641H164.157Z" fill="#768388"/>
<path d="M167.924 29.1222V24.6875H170.717V25.2669H168.589V26.6115H170.562V27.1909H168.589V28.5428H170.731V29.1222H167.924Z" fill="#768388"/>
<path d="M172.586 29.1219H171.93V25.7953H172.559V26.3385H172.6C172.683 26.1514 172.822 25.9946 172.998 25.8895C173.174 25.7845 173.378 25.7364 173.583 25.7519C174.267 25.7519 174.72 26.1864 174.72 27.0072V29.1219H174.064V27.0868C174.064 26.604 173.8 26.3167 173.36 26.3167C173.252 26.313 173.144 26.3324 173.045 26.3738C172.945 26.4152 172.855 26.4775 172.782 26.5565C172.708 26.6355 172.653 26.7294 172.619 26.8317C172.585 26.9341 172.574 27.0425 172.586 27.1496V29.1219Z" fill="#768388"/>
<path d="M177.562 28.5635V29.1211C177.427 29.1428 177.291 29.1525 177.155 29.1501C176.642 29.1501 176.187 28.8676 176.187 28.2617V26.3015H175.703V25.7801H176.187V24.9834H176.843V25.7801H177.523V26.3015H176.843V28.129C176.843 28.5031 177.032 28.5707 177.245 28.5731C177.329 28.578 177.475 28.5683 177.562 28.5635Z" fill="#768388"/>
<path d="M181.437 27.6469H179.063C179.082 28.2818 179.455 28.6415 180.006 28.6415C180.149 28.6538 180.293 28.6262 180.421 28.5619C180.549 28.4975 180.657 28.3989 180.732 28.277H181.396C181.248 28.8201 180.735 29.1798 180.004 29.1798C179.021 29.1798 178.414 28.5039 178.414 27.4707C178.414 26.4375 179.029 25.7422 179.956 25.7422C180.715 25.7422 181.439 26.225 181.439 27.4152L181.437 27.6469ZM180.793 27.1641C180.801 27.051 180.785 26.9375 180.747 26.8308C180.709 26.7241 180.649 26.6264 180.571 26.544C180.493 26.4616 180.399 26.3963 180.294 26.3522C180.189 26.3081 180.076 26.2861 179.963 26.2878C179.728 26.2883 179.503 26.3802 179.335 26.5439C179.168 26.7076 179.071 26.9301 179.065 27.1641H180.793Z" fill="#768388"/>
<path d="M182.529 29.1228V25.7962H183.163V26.3273H183.2C183.26 26.1532 183.374 26.0029 183.526 25.8982C183.678 25.7935 183.86 25.74 184.044 25.7455C184.137 25.7458 184.23 25.7514 184.323 25.7624V26.3852C184.21 26.3617 184.096 26.3487 183.981 26.3466C183.879 26.3403 183.776 26.355 183.68 26.3898C183.584 26.4246 183.495 26.4788 183.421 26.5489C183.346 26.619 183.287 26.7036 183.246 26.7976C183.206 26.8915 183.185 26.9927 183.185 27.095V29.1228H182.529Z" fill="#768388"/>
<path d="M185.254 30.3595V25.7727H185.895V26.3135H185.948C186.031 26.1298 186.168 25.9755 186.341 25.8712C186.514 25.7668 186.715 25.7174 186.916 25.7293C187.722 25.7293 188.313 26.3618 188.313 27.4433C188.313 28.5248 187.73 29.1645 186.921 29.1645C186.72 29.1743 186.521 29.1243 186.348 29.0206C186.176 28.917 186.039 28.7646 185.953 28.5827H185.915V30.3474L185.254 30.3595ZM186.764 28.619C187.342 28.619 187.642 28.1144 187.642 27.4481C187.642 26.7818 187.35 26.299 186.764 26.299C186.178 26.299 185.895 26.7553 185.895 27.4481C185.895 28.1409 186.207 28.619 186.764 28.619Z" fill="#768388"/>
<path d="M189.402 29.1228V25.7962H190.036V26.3273H190.073C190.133 26.1532 190.247 26.0029 190.399 25.8982C190.551 25.7935 190.733 25.74 190.917 25.7455C191.01 25.7458 191.103 25.7514 191.196 25.7624V26.3852C191.084 26.3618 190.971 26.3488 190.857 26.3466C190.754 26.34 190.651 26.3545 190.555 26.3891C190.458 26.4237 190.37 26.4778 190.295 26.548C190.22 26.6181 190.16 26.7029 190.12 26.797C190.079 26.8911 190.058 26.9925 190.058 27.095V29.1228H189.402Z" fill="#768388"/>
<path d="M192.042 24.8876C192.037 24.805 192.056 24.7228 192.098 24.6515C192.14 24.5802 192.203 24.5232 192.278 24.4878C192.353 24.4525 192.437 24.4404 192.519 24.4532C192.601 24.466 192.677 24.5031 192.738 24.5596C192.798 24.6161 192.84 24.6895 192.859 24.7702C192.877 24.851 192.87 24.9353 192.84 25.0123C192.809 25.0893 192.757 25.1553 192.688 25.202C192.62 25.2486 192.539 25.2737 192.456 25.2739C192.35 25.2771 192.246 25.2383 192.169 25.1659C192.091 25.0935 192.046 24.9935 192.042 24.8876V24.8876ZM192.124 29.1122V25.7856H192.79V29.1219L192.124 29.1122Z" fill="#768388"/>
<path d="M195.893 26.6939C195.86 26.5565 195.777 26.436 195.66 26.3558C195.544 26.2756 195.402 26.2412 195.261 26.2594C194.888 26.2594 194.617 26.4525 194.62 26.7036C194.62 26.9016 194.777 27.0416 195.143 27.1261L195.675 27.2492C196.285 27.3892 196.585 27.6813 196.585 28.1496C196.585 28.7507 196.074 29.1805 195.222 29.1805C194.424 29.1805 193.949 28.8256 193.867 28.2148H194.538C194.593 28.519 194.823 28.6687 195.215 28.6687C195.607 28.6687 195.915 28.4924 195.915 28.2124C195.915 28 195.755 27.8599 195.399 27.7803L194.879 27.6668C194.279 27.5365 193.964 27.2154 193.964 26.7543C193.964 26.1628 194.482 25.7549 195.256 25.7549C196.031 25.7549 196.466 26.1339 196.522 26.706L195.893 26.6939Z" fill="#768388"/>
<path d="M200.546 27.6469H198.174C198.191 28.2818 198.564 28.6415 199.115 28.6415C199.258 28.6541 199.402 28.6267 199.53 28.5623C199.659 28.4979 199.766 28.3991 199.841 28.277H200.504C200.357 28.8201 199.846 29.1798 199.113 29.1798C198.13 29.1798 197.525 28.5039 197.525 27.4707C197.525 26.4375 198.14 25.7422 199.067 25.7422C199.827 25.7422 200.548 26.225 200.548 27.4152L200.546 27.6469ZM199.902 27.1641C199.91 27.0509 199.895 26.9373 199.857 26.8304C199.819 26.7235 199.759 26.6257 199.681 26.5432C199.603 26.4607 199.508 26.3954 199.403 26.3515C199.298 26.3075 199.185 26.2858 199.072 26.2878C198.837 26.2877 198.612 26.3795 198.445 26.5434C198.277 26.7073 198.181 26.9301 198.176 27.1641H199.902Z" fill="#768388"/>
<path d="M206.679 26.1212C206.629 25.859 206.485 25.624 206.273 25.4601C206.062 25.2962 205.799 25.2145 205.532 25.2304C204.764 25.2304 204.196 25.8194 204.196 26.8937C204.196 27.9679 204.767 28.5594 205.532 28.5594C205.796 28.5748 206.058 28.4948 206.268 28.3339C206.479 28.173 206.625 27.9421 206.679 27.6831H207.361C207.293 28.1139 207.068 28.5044 206.729 28.7794C206.39 29.0545 205.961 29.1945 205.524 29.1726C204.368 29.1726 203.525 28.3107 203.525 26.8937C203.525 25.4766 204.372 24.6172 205.524 24.6172C206.466 24.6172 207.218 25.17 207.361 26.1212H206.679Z" fill="#768388"/>
<path d="M211.355 27.6469H208.981C208.998 28.2818 209.373 28.6415 209.924 28.6415C210.067 28.6538 210.211 28.6262 210.339 28.5619C210.467 28.4975 210.575 28.3989 210.65 28.277H211.313C211.166 28.8201 210.653 29.1798 209.922 29.1798C208.939 29.1798 208.332 28.5039 208.332 27.4707C208.332 26.4375 208.947 25.7422 209.874 25.7422C210.633 25.7422 211.357 26.225 211.357 27.4152L211.355 27.6469ZM210.711 27.1641C210.719 27.051 210.703 26.9375 210.665 26.8308C210.627 26.7241 210.567 26.6264 210.489 26.544C210.411 26.4616 210.316 26.3963 210.212 26.3522C210.107 26.3081 209.994 26.2861 209.881 26.2878C209.646 26.2883 209.421 26.3802 209.253 26.5439C209.086 26.7076 208.989 26.9301 208.983 27.1641H210.711Z" fill="#768388"/>
<path d="M212.447 29.1228V25.7962H213.081V26.3273H213.118C213.178 26.1532 213.292 26.0029 213.444 25.8982C213.596 25.7935 213.778 25.74 213.962 25.7455C214.055 25.7458 214.148 25.7514 214.24 25.7624V26.3852C214.128 26.3617 214.014 26.3487 213.899 26.3466C213.797 26.3403 213.694 26.355 213.598 26.3898C213.502 26.4246 213.413 26.4788 213.339 26.5489C213.264 26.619 213.205 26.7036 213.164 26.7976C213.124 26.8915 213.103 26.9927 213.103 27.095V29.1228H212.447Z" fill="#768388"/>
<path d="M216.97 28.5635V29.1211C216.836 29.1428 216.699 29.1525 216.563 29.1501C216.048 29.1501 215.595 28.8676 215.595 28.2617V26.3015H215.111V25.7801H215.595V24.9834H216.251V25.7801H216.931V26.3015H216.251V28.129C216.251 28.5031 216.438 28.5707 216.65 28.5731C216.747 28.578 216.883 28.5683 216.97 28.5635Z" fill="#768388"/>
<path d="M217.923 24.8876C217.917 24.805 217.937 24.7228 217.979 24.6515C218.021 24.5802 218.084 24.5232 218.159 24.4878C218.234 24.4525 218.318 24.4404 218.4 24.4532C218.482 24.466 218.558 24.5031 218.618 24.5596C218.679 24.6161 218.721 24.6895 218.739 24.7702C218.758 24.851 218.751 24.9353 218.721 25.0123C218.69 25.0893 218.637 25.1553 218.569 25.202C218.5 25.2486 218.42 25.2737 218.337 25.2739C218.23 25.2771 218.127 25.2383 218.05 25.1659C217.972 25.0935 217.927 24.9935 217.923 24.8876V24.8876ZM218.005 29.1122V25.7856H218.661V29.1219L218.005 29.1122Z" fill="#768388"/>
<path d="M220.777 25.5006V25.7903H221.503V26.3118H220.777V29.1218H220.121V26.3166H219.605V25.7952H220.121V25.4113C220.121 24.815 220.501 24.4795 221.116 24.4795C221.265 24.4792 221.414 24.4938 221.561 24.5229V25.0661C221.47 25.0515 221.377 25.0443 221.285 25.0444C220.939 25.0347 220.777 25.1723 220.777 25.5006Z" fill="#768388"/>
<path d="M222.444 24.8876C222.439 24.805 222.459 24.7228 222.501 24.6515C222.543 24.5802 222.605 24.5232 222.68 24.4878C222.755 24.4525 222.839 24.4404 222.921 24.4532C223.003 24.466 223.079 24.5031 223.14 24.5596C223.2 24.6161 223.243 24.6895 223.261 24.7702C223.279 24.851 223.273 24.9353 223.242 25.0123C223.212 25.0893 223.159 25.1553 223.09 25.202C223.022 25.2486 222.941 25.2737 222.858 25.2739C222.752 25.2771 222.649 25.2383 222.571 25.1659C222.494 25.0935 222.448 24.9935 222.444 24.8876V24.8876ZM222.526 29.1122V25.7856H223.182V29.1219L222.526 29.1122Z" fill="#768388"/>
<path d="M224.273 27.4634C224.273 26.4495 224.883 25.7422 225.825 25.7422C226.582 25.7422 227.134 26.1888 227.202 26.8623H226.565C226.532 26.6963 226.441 26.5474 226.308 26.4425C226.175 26.3375 226.009 26.2835 225.839 26.2902C225.297 26.2902 224.937 26.7392 224.937 27.4489C224.937 28.1587 225.292 28.6246 225.839 28.6246C226.008 28.6324 226.174 28.5795 226.308 28.4754C226.441 28.3713 226.532 28.2229 226.565 28.0573H227.202C227.131 28.7067 226.618 29.1798 225.832 29.1798C224.861 29.1798 224.273 28.4677 224.273 27.4634Z" fill="#768388"/>
<path d="M230.885 26.9038V29.1223H230.249V28.6685H230.222C230.125 28.8412 229.98 28.9827 229.806 29.0763C229.631 29.17 229.433 29.2119 229.235 29.1972C228.601 29.1972 228.109 28.8351 228.109 28.1833C228.109 27.4277 228.756 27.2321 229.356 27.1887C229.581 27.1742 230.082 27.1476 230.232 27.1428V26.8724C230.232 26.4982 229.99 26.281 229.552 26.281C229.406 26.2623 229.259 26.2941 229.134 26.371C229.009 26.4479 228.915 26.5653 228.867 26.7034H228.213C228.274 26.153 228.789 25.7523 229.576 25.7523C230.108 25.7426 230.885 25.9382 230.885 26.9038ZM230.234 27.9129V27.6111C230.084 27.6111 229.607 27.6522 229.448 27.6618C229.022 27.6932 228.751 27.8549 228.751 28.1808C228.751 28.5067 229.014 28.6637 229.382 28.6637C229.488 28.6732 229.595 28.6612 229.696 28.6283C229.797 28.5954 229.89 28.5423 229.97 28.4723C230.049 28.4023 230.114 28.3167 230.159 28.221C230.205 28.1252 230.23 28.0212 230.234 27.9153V27.9129Z" fill="#768388"/>
<path d="M233.73 28.5635V29.1211C233.595 29.1427 233.459 29.1524 233.323 29.1501C232.808 29.1501 232.355 28.8676 232.355 28.2617V26.3015H231.871V25.7801H232.355V24.9834H233.011V25.7801H233.689V26.3015H233.009V28.129C233.009 28.5031 233.195 28.5707 233.408 28.5731C233.497 28.578 233.643 28.5683 233.73 28.5635Z" fill="#768388"/>
<path d="M234.684 24.8876C234.679 24.805 234.699 24.7228 234.741 24.6515C234.783 24.5802 234.846 24.5232 234.921 24.4878C234.996 24.4525 235.079 24.4404 235.161 24.4532C235.243 24.466 235.32 24.5031 235.38 24.5596C235.441 24.6161 235.483 24.6895 235.501 24.7702C235.519 24.851 235.513 24.9353 235.482 25.0123C235.452 25.0893 235.399 25.1553 235.331 25.202C235.262 25.2486 235.181 25.2737 235.098 25.2739C234.992 25.2771 234.889 25.2383 234.811 25.1659C234.734 25.0935 234.688 24.9935 234.684 24.8876V24.8876ZM234.767 29.1122V25.7856H235.423V29.1219L234.767 29.1122Z" fill="#768388"/>
<path d="M236.512 27.4634C236.512 26.4302 237.129 25.7422 238.07 25.7422C239.012 25.7422 239.624 26.4302 239.624 27.4634C239.624 28.4967 239.009 29.1798 238.07 29.1798C237.131 29.1798 236.512 28.4942 236.512 27.4634ZM238.966 27.4634C238.966 26.8309 238.675 26.2878 238.073 26.2878C237.47 26.2878 237.172 26.8309 237.172 27.4634C237.172 28.0959 237.463 28.6367 238.073 28.6367C238.682 28.6367 238.966 28.0983 238.966 27.461V27.4634Z" fill="#768388"/>
<path d="M241.375 29.1219H240.719V25.7953H241.348V26.3385H241.389C241.472 26.1514 241.611 25.9946 241.787 25.8895C241.963 25.7845 242.167 25.7364 242.372 25.7519C243.056 25.7519 243.507 26.1864 243.507 27.0072V29.1219H242.853V27.0868C242.853 26.604 242.589 26.3167 242.149 26.3167C242.041 26.313 241.933 26.3324 241.834 26.3738C241.734 26.4152 241.644 26.4775 241.571 26.5565C241.497 26.6355 241.442 26.7294 241.408 26.8317C241.374 26.9341 241.363 27.0425 241.375 27.1496V29.1219Z" fill="#768388"/>
<path d="M209.02 6.67093V8.76637H213.567C213.567 8.76637 213.971 14.5143 209.046 17.0249L209.913 18.9417C209.913 18.9417 216.514 16.1607 215.757 6.62988L209.02 6.67093Z" fill="#768388"/>
<path d="M46.6174 33.61C46.6174 33.61 70.0212 26.9334 71.9973 17.7485C73.9734 8.5635 65.7293 5.92623 65.7293 5.92623C58.4861 3.34959 53.4705 8.63778 52.2867 13.3439C50.1872 21.718 45.1685 30.6453 38.5073 31.923C38.5073 31.923 36.9563 32.1352 34.4592 31.9579C27.7127 30.806 22.6346 21.8029 20.5107 13.3485C19.3269 8.64231 14.3112 3.34505 7.06809 5.93078C7.06809 5.93078 -1.17604 8.57411 0.800052 17.753C2.77615 26.9319 26.1708 33.61 26.1708 33.61C26.1708 33.61 37.2367 37.1187 46.6174 33.61Z" fill="url(#paint0_linear_156_306)"/>
<path d="M35.5339 5.48694C36.4607 5.48694 37.3667 5.76108 38.1373 6.27471C38.9079 6.78834 39.5085 7.51839 39.8631 8.37253C40.2178 9.22666 40.3106 10.1665 40.1298 11.0733C39.949 11.98 39.5027 12.8129 38.8473 13.4666C38.192 14.1204 37.3571 14.5655 36.4481 14.7459C35.5391 14.9263 34.597 14.8337 33.7407 14.4799C32.8845 14.1261 32.1527 13.527 31.6378 12.7583C31.1229 11.9896 30.8481 11.0858 30.8481 10.1613C30.8497 8.9221 31.3439 7.7341 32.2223 6.85784C33.1007 5.98157 34.2917 5.48857 35.5339 5.48694V5.48694ZM35.5339 0.112306C33.5419 0.113217 31.5949 0.703242 29.939 1.80779C28.2831 2.91235 26.9927 4.48183 26.2308 6.31786C25.4689 8.15389 25.2698 10.1741 25.6586 12.1229C26.0475 14.0718 27.0068 15.862 28.4154 17.2671C29.8239 18.6722 31.6185 19.6292 33.5721 20.017C35.5258 20.4049 37.5509 20.2063 39.3915 19.4463C41.232 18.6863 42.8053 17.399 43.9126 15.7471C45.0199 14.0953 45.6113 12.1531 45.6123 10.1659C45.6129 8.84551 45.3526 7.5379 44.8463 6.31786C44.3401 5.09782 43.5977 3.98928 42.6617 3.05559C41.7258 2.1219 40.6145 1.38139 39.3915 0.876362C38.1684 0.371333 36.8576 0.1117 35.5339 0.112306V0.112306Z" fill="url(#paint1_linear_156_306)"/>
<path d="M25.4863 10.8613C25.4956 10.9903 25.5048 11.1208 25.5187 11.2498C25.5187 11.302 25.5325 11.3542 25.5387 11.4034C25.5541 11.5308 25.571 11.6567 25.591 11.7811C25.591 11.8303 25.6079 11.8763 25.6172 11.9255C25.6403 12.0545 25.6649 12.185 25.6926 12.3124L25.7203 12.4322C25.7526 12.5689 25.785 12.704 25.8234 12.8392C25.8234 12.8699 25.8404 12.9006 25.8496 12.9328C25.8912 13.0756 25.9343 13.2185 25.982 13.3597C25.982 13.3812 25.9959 13.4027 26.0036 13.4227C26.0559 13.5763 26.1113 13.7298 26.1713 13.8726C26.1745 13.8842 26.1786 13.8955 26.1837 13.9064C26.2483 14.06 26.3161 14.2243 26.3884 14.3794L30.8526 9.84011C30.9366 8.64 31.4814 7.51843 32.3735 6.7089C33.2656 5.89938 34.4363 5.46428 35.6419 5.49416C36.8475 5.52404 37.9951 6.01661 38.8458 6.86933C39.6966 7.72204 40.1848 8.86919 40.209 10.072L44.6408 5.88438C44.6024 5.80145 44.5623 5.72161 44.5208 5.64176C44.4992 5.59876 44.4777 5.55577 44.4546 5.51277C44.4145 5.43445 44.3714 5.35921 44.3283 5.27936C44.3083 5.2425 44.2868 5.20565 44.2652 5.1688C44.1836 5.02598 44.0974 4.88471 44.0082 4.7465C43.9851 4.70965 43.962 4.67278 43.9373 4.63592C43.8896 4.56375 43.8404 4.49313 43.7911 4.42095L43.7018 4.29656C43.651 4.22746 43.6018 4.15836 43.5479 4.08926L43.4894 4.01555C43.3878 3.88502 43.2831 3.75603 43.1815 3.63011C43.1446 3.58711 43.1076 3.54411 43.0691 3.50264C43.0306 3.46118 42.9614 3.38288 42.9075 3.32453L42.7813 3.19093C42.6966 3.10494 42.6119 3.01894 42.5242 2.93601L42.3595 2.78245L42.1963 2.63656L42.0424 2.50144L41.8792 2.36477L41.6652 2.19738L41.4466 2.03461C41.3773 1.98547 41.3081 1.9348 41.2373 1.88105C41.1665 1.8273 41.131 1.80887 41.0833 1.77355C41.0356 1.73823 40.9402 1.68142 40.8694 1.63536L40.7154 1.54474C40.6015 1.47717 40.4876 1.41116 40.3721 1.3482L40.2336 1.27601C40.1505 1.23148 40.0673 1.18849 39.9827 1.14702L39.8287 1.07486L39.5209 0.936646L39.4316 0.896719C39.3038 0.842973 39.173 0.792298 39.0421 0.743158L38.9036 0.69249L38.6065 0.592671L38.4756 0.551207C38.3386 0.509745 38.2001 0.469817 38.06 0.432962L37.9769 0.412998C37.8599 0.383822 37.7413 0.356195 37.6213 0.331625L37.4858 0.303976C37.3688 0.280942 37.2503 0.259438 37.1317 0.241011L37.0378 0.225658C36.8839 0.202624 36.7407 0.184198 36.5914 0.168842L36.476 0.158101C36.359 0.147351 36.2404 0.138129 36.1219 0.130451H35.9895C35.8356 0.130451 35.6816 0.118173 35.5277 0.118173C34.0158 0.116138 32.5229 0.454708 31.1605 1.10863L31.1389 1.11939C30.8911 1.23917 30.6494 1.37122 30.4139 1.50943C30.1553 1.66299 29.9043 1.8268 29.6611 2.00083C29.3388 2.23016 29.0304 2.47833 28.7375 2.74406C28.5641 2.90377 28.3958 3.0691 28.2326 3.24006C28.0786 3.39362 27.937 3.55947 27.7969 3.72686C27.4275 4.16702 27.0969 4.63814 26.8087 5.135C26.6809 5.35613 26.5577 5.58033 26.4469 5.81067C26.3361 6.04101 26.2314 6.28672 26.139 6.53242C25.9951 6.89952 25.8732 7.27487 25.7742 7.65648C25.7326 7.81004 25.6941 7.97896 25.6618 8.14173C25.5941 8.46933 25.5428 8.80205 25.5079 9.13988C25.473 9.47771 25.456 9.82015 25.4571 10.1672C25.4571 10.3499 25.4571 10.5296 25.4709 10.7093C25.4771 10.7584 25.4832 10.8075 25.4863 10.8613Z" fill="url(#paint2_linear_156_306)"/>
<defs>
<linearGradient id="paint0_linear_156_306" x1="-0.220234" y1="9.22853" x2="59.2879" y2="32.5662" gradientUnits="userSpaceOnUse">
<stop stop-color="#0F295B"/>
<stop offset="1" stop-color="#2264B0"/>
</linearGradient>
<linearGradient id="paint1_linear_156_306" x1="26.7073" y1="13.6785" x2="44.709" y2="17.8595" gradientUnits="userSpaceOnUse">
<stop stop-color="#289AD8"/>
<stop offset="1" stop-color="#B9DDF5"/>
</linearGradient>
<linearGradient id="paint2_linear_156_306" x1="25.457" y1="5.34479" x2="40.129" y2="8.34158" gradientUnits="userSpaceOnUse">
<stop stop-color="#E45008"/>
<stop offset="1" stop-color="#EB8F00"/>
</linearGradient>
</defs>
</svg>
