<svg width="223" height="47" viewBox="0 0 223 47" fill="none" xmlns="http://www.w3.org/2000/svg">
<g clip-path="url(#clip0_5_13213)">
<path d="M34.6829 22.4504C30.7806 19.7168 25.7787 20.8431 23.1523 24.927C22.3092 26.2834 21.0994 27.3596 19.67 28.0246C18.2405 28.6896 16.6532 28.9148 15.1011 28.6726C13.549 28.4305 12.0991 27.7315 10.9279 26.6608C9.75662 25.59 8.91454 24.1937 8.50411 22.6417C8.50411 22.6089 8.50411 22.5816 8.50411 22.5543C8.5061 22.5197 8.5061 22.485 8.50411 22.4504C8.19598 21.3865 8.05366 20.2795 8.08239 19.1701C8.08239 11.7294 15.5559 3.44682 26.2698 3.44682C37.2666 3.44682 43.5551 12.0192 45.1832 16.781C45.1459 16.6936 45.1245 16.6115 45.0978 16.5295C43.345 11.188 39.7918 6.66033 35.0752 3.75823C30.3587 0.856127 24.787 -0.230723 19.359 0.692491C13.9309 1.61571 9.00142 4.48862 5.45399 8.79629C1.90655 13.104 -0.0268703 18.5648 0.000282146 24.1998C0.000282146 35.9213 8.24254 45.9206 19.6771 45.9206C28.7948 45.9206 34.9231 40.6886 37.7257 33.472C39.2738 29.5193 38.1794 24.8832 34.6829 22.4504Z" fill="#003863"/>
<path d="M45.2731 17.2241C43.9171 12.5771 37.586 3.43066 26.2209 3.43066C15.5123 3.43066 8.03878 11.7133 8.03878 19.154C8.01005 20.2633 8.15237 21.3703 8.4605 22.4342C8.32237 21.8821 8.25066 21.3148 8.24697 20.7449C8.24697 12.9926 15.8219 7.62391 23.6051 7.62391C26.1113 7.62463 28.5928 8.13088 30.9079 9.11377C33.2231 10.0966 35.3265 11.5369 37.0981 13.3523C38.8698 15.1677 40.2749 17.3227 41.2334 19.6943C42.1918 22.0659 42.6847 24.6075 42.684 27.1742C42.6867 31.1841 41.597 35.1153 39.5373 38.5256C37.4777 41.936 34.5298 44.6901 31.0253 46.4784C35.4979 44.8172 39.3624 41.7854 42.0931 37.7954C44.8239 33.8053 46.2883 29.0508 46.2873 24.1782C46.2927 21.8211 45.9508 19.4767 45.2731 17.2241Z" fill="#E4032E"/>
<path d="M66.466 26.3542V24.9383H57.2949V22.407H78.5625V24.9383H69.3647V26.3542C69.6316 26.4362 69.9252 26.5182 70.1921 26.6276C70.8627 26.9087 71.4818 27.3043 72.0231 27.7975C72.5471 28.2958 72.9792 28.8866 73.299 29.5415C73.5971 30.2167 73.7518 30.9491 73.7527 31.6901C73.7546 32.4244 73.5997 33.1502 73.299 33.8168C72.9934 34.4869 72.5595 35.0874 72.0231 35.5827C71.4886 36.0865 70.8679 36.485 70.1921 36.7581C69.4724 37.0525 68.7037 37.201 67.9287 37.1954C67.1552 37.2034 66.3879 37.0548 65.6706 36.7581C64.9875 36.4968 64.3629 36.097 63.8343 35.5827C63.3012 35.0906 62.8755 34.4889 62.5851 33.8168C62.2652 33.1562 62.1024 32.4275 62.11 31.6901C62.1053 30.9461 62.2679 30.2109 62.5851 29.5415C62.8895 28.8842 63.3135 28.2923 63.8343 27.7975C64.3767 27.2922 65.0068 26.8953 65.692 26.6276C65.9375 26.5182 66.2258 26.4362 66.466 26.3542ZM77.0785 15.2178H69.2579L77.5002 19.7117L76.1977 21.8986L67.9287 17.3828L59.6598 21.8876L58.3572 19.7008L66.5995 15.2069H58.7843V12.7139H77.0785V15.2178ZM70.9075 31.6901C70.9102 31.2941 70.834 30.9017 70.6834 30.537C70.5329 30.1722 70.3112 29.8428 70.032 29.5689C69.4686 29.0084 68.7142 28.6946 67.9287 28.6941C67.5441 28.6922 67.163 28.7685 66.8074 28.9187C66.4518 29.0689 66.129 29.2899 65.8575 29.5689C65.5687 29.8366 65.3389 30.1642 65.1833 30.53C65.0278 30.8957 64.95 31.2912 64.9553 31.6901C64.9482 32.0861 65.0252 32.4789 65.181 32.8414C65.3368 33.2039 65.5676 33.5273 65.8575 33.7895C66.1249 34.0754 66.4466 34.3025 66.8027 34.4566C67.1589 34.6108 67.5421 34.6889 67.9287 34.6861C68.3198 34.6867 68.7071 34.6078 69.0682 34.4539C69.4293 34.3 69.7569 34.0741 70.032 33.7895C70.313 33.5215 70.536 33.1963 70.6868 32.8347C70.8376 32.4731 70.9127 32.0832 70.9075 31.6901Z" fill="#575756"/>
<path d="M90.1848 31.7721V24.9875H93.0835V31.7721H102.281V34.3854H81.0137V31.7721H90.1848ZM91.6475 17.3336L83.939 27.2016L81.7076 25.485L91.6475 12.7686L101.593 25.485L99.3612 27.2016L91.6475 17.3336Z" fill="#575756"/>
<path d="M115.686 25.5341H105.666V12.9598H108.399V16.3658H112.995V12.9598H115.665L115.686 25.5341ZM106.648 35.6646V27.7209H109.52V33.0294H126.015V35.6427L106.648 35.6646ZM113.001 18.8697H108.399V22.981H112.995L113.001 18.8697ZM118.638 12.4404H121.35V27.4749H118.638V20.231H116.22V17.6451H118.638V12.4404ZM123.047 12.4404H125.818V27.6061H123.047V12.4404Z" fill="#575756"/>
<path d="M134.802 14.917V12.4131H137.888V14.9443H143.418V17.4811H137.546L143.899 32.0454L141.502 33.1388L136.345 21.1112L131.242 33.2973L128.797 32.2039L135.149 17.4756H129.037V14.917H134.802ZM146.931 24.4407H142.463V21.8329H146.931V12.4131H149.798V36.1293H146.931V24.4407Z" fill="#575756"/>
<path d="M164.851 33.024H161.979V16.5243H153.102V13.8837H164.846L164.851 33.024ZM170.643 12.4131H173.526V36.1293H170.643V12.4131Z" fill="#575756"/>
<path d="M190.48 18.6237C190.49 19.4298 190.328 20.2286 190.004 20.9636C189.669 21.6783 189.209 22.3248 188.649 22.8716C188.088 23.4227 187.428 23.8571 186.705 24.1509C185.939 24.4771 185.117 24.6426 184.287 24.6375C183.466 24.6452 182.652 24.4796 181.896 24.1509C181.161 23.87 180.491 23.4341 179.931 22.8716C179.362 22.3382 178.909 21.6881 178.602 20.9636C178.26 20.234 178.088 19.4329 178.1 18.6237C178.092 17.8014 178.262 16.9874 178.597 16.24C178.914 15.5249 179.368 14.8818 179.931 14.3484C180.497 13.7839 181.167 13.3398 181.901 13.0418C182.662 12.7331 183.474 12.5754 184.293 12.5771C185.12 12.578 185.94 12.7356 186.711 13.0418C187.43 13.3534 188.089 13.7961 188.654 14.3484C189.205 14.8962 189.662 15.5358 190.004 16.24C190.323 16.9922 190.485 17.804 190.48 18.6237ZM179.632 25.6489H182.451V27.8795H194.948V25.6489H197.766V35.6646H179.616L179.632 25.6489ZM187.714 18.6237C187.718 17.698 187.365 16.8083 186.732 16.1471C186.417 15.8172 186.041 15.5553 185.626 15.3768C185.21 15.1984 184.764 15.1071 184.314 15.1084C183.406 15.1169 182.538 15.49 181.896 16.1474C181.254 16.8048 180.89 17.694 180.881 18.6237C180.867 19.0828 180.95 19.5396 181.126 19.9625C181.301 20.3854 181.563 20.7643 181.896 21.0729C182.205 21.41 182.58 21.6763 182.997 21.8544C183.414 22.0325 183.862 22.1183 184.314 22.1062C185.216 22.1062 186.081 21.7393 186.718 21.0862C187.356 20.4331 187.714 19.5473 187.714 18.6237ZM194.948 30.274H182.451V33.2153H194.948V30.274ZM191.211 17.3444H194.878V12.4131H197.75V24.9874H194.878V19.9303H191.211V17.3444Z" fill="#575756"/>
<path d="M201.732 27.4149H223V30.0336H213.802V36.1294H210.893V30.0336H201.732V27.4149ZM206.275 15.8192H218.452V12.8232H221.297V24.233H203.419V12.8232H206.265L206.275 15.8192ZM218.452 18.3778H206.275V21.658H218.452V18.3778Z" fill="#575756"/>
</g>
<defs>
<clipPath id="clip0_5_13213">
<rect width="223" height="46" fill="white" transform="translate(0 0.5)"/>
</clipPath>
</defs>
</svg>
