<svg width="241" height="47" viewBox="0 0 241 47" fill="none" xmlns="http://www.w3.org/2000/svg">
<g clip-path="url(#clip0_156_216)">
<path d="M70.6277 38.8667C70.6277 40.1433 70.428 40.9871 70.0231 41.3928C69.4658 41.8482 68.753 42.0676 68.0367 42.004C67.6952 42.0355 67.3509 41.9976 67.0244 41.8926C66.6979 41.7876 66.3959 41.6176 66.1365 41.3928C65.7371 40.9871 65.532 40.1433 65.532 38.8667C65.532 37.5901 65.7371 36.8274 66.1365 36.4163C66.3972 36.1936 66.6994 36.025 67.0255 35.92C67.3517 35.8151 67.6953 35.776 68.0367 35.8051C68.3874 35.7781 68.74 35.8215 69.0737 35.933C69.4074 36.0445 69.7155 36.2217 69.9799 36.4542C70.4118 36.8869 70.6277 37.6929 70.6277 38.8667V38.8667ZM59.9882 27.5073H67.7505C69.5697 27.5073 70.2228 28.3025 70.2228 30.0767V32.0403C69.0677 31.9753 67.9071 31.9862 66.7519 31.9862C64.7061 31.9862 63.0327 32.4405 61.4943 33.8253C59.2973 35.8105 59.2865 39.056 60.0044 41.7336C60.5118 43.5997 62.4551 45.1576 64.3228 45.7797C65.586 46.0831 66.884 46.2159 68.1824 46.1745C70.957 46.1096 71.7451 45.8067 73.4832 43.8323C74.023 43.1941 75.799 43.3455 76.5169 43.5943V28.1077C76.5169 25.1381 74.1148 23.2394 71.2215 23.2394H59.9882V27.5182V27.5073ZM44.5768 41.3225H38.272V23.2178H44.5768V41.3117V41.3225ZM23.4544 45.0224H16.0051L6.28871 34.2039V41.2954H0V18.6957H6.28871V30.4175L11.9782 23.2286H18.7041L11.514 32.0403L23.4544 45.0224ZM44.5768 21.4706H38.272V15.5205H44.5768V21.4706ZM58.493 41.3171H50.8278C50.2703 41.3172 49.7184 41.206 49.2042 40.9901C48.6901 40.7743 48.224 40.458 47.8331 40.0597C47.4422 39.6614 47.1343 39.1892 46.9274 38.6704C46.7205 38.1517 46.6188 37.5969 46.6281 37.0384V18.7011H52.9276V23.2232H58.493V27.5019H52.9276V34.9612C52.9276 36.5083 53.6293 37.2818 55.0328 37.2818H58.493V41.3171ZM22.866 41.2359C25.6509 41.7553 28.5075 41.7553 31.2923 41.2359C33.7322 40.695 35.8429 38.1148 36.3989 35.7726C36.994 33.286 37.0161 30.6962 36.4636 28.1997C35.9562 26.036 33.8402 23.8291 31.7296 23.1096C29.3275 22.282 24.8309 22.282 22.4288 23.1096C20.3182 23.8291 18.2021 26.0414 17.6947 28.1997C17.1422 30.6962 17.1644 33.286 17.7595 35.7726C18.2993 38.1148 20.4261 40.6788 22.866 41.2359V41.2359ZM30.8281 32.0403C30.8281 34.0272 30.5528 35.3363 30.0022 35.9674C29.4624 36.6056 28.5447 36.9194 27.3032 36.9194C26.0616 36.9194 25.2519 36.6056 24.7013 35.9674C24.1507 35.3291 23.8755 34.0254 23.8755 32.0403C23.8755 30.1362 24.1507 28.8741 24.7013 28.2538C25.2411 27.6155 26.121 27.3018 27.3032 27.3018C27.7929 27.2641 28.2849 27.3352 28.744 27.5101C29.2031 27.6849 29.6179 27.9592 29.959 28.3133C30.5348 28.9949 30.8227 30.2372 30.8227 32.0403H30.8281Z" fill="#4B5EAA"/>
<path fill-rule="evenodd" clip-rule="evenodd" d="M61.2614 7.78531C62.0833 7.78748 62.8825 8.05587 63.5397 8.5504C64.1969 9.04494 64.677 9.73912 64.9083 10.5294C65.1396 11.3197 65.1098 12.1638 64.8232 12.9358C64.5366 13.7077 64.0087 14.3661 63.3182 14.8127C62.6277 15.2594 61.8115 15.4704 60.9915 15.4142C60.1716 15.3581 59.3917 15.0378 58.7682 14.5012C58.1447 13.9645 57.7111 13.2403 57.532 12.4365C57.3528 11.6327 57.4378 10.7924 57.7743 10.041C51.3333 4.92241 43.1461 2.53904 34.9708 3.40276C26.7956 4.26648 19.2844 8.30839 14.0503 14.6604L12.2852 13.2054C17.9159 6.37589 25.9999 2.03795 34.7935 1.12722C43.5871 0.216485 52.3856 2.80595 59.2911 8.33706C59.8848 7.9751 60.5665 7.78418 61.2614 7.78531V7.78531Z" fill="#EF4123"/>
<path fill-rule="evenodd" clip-rule="evenodd" d="M150.443 12.3344H156.354C156.726 12.3263 157.095 12.3954 157.44 12.5374C157.784 12.6794 158.095 12.8911 158.353 13.1593C158.612 13.4276 158.812 13.7464 158.942 14.096C159.072 14.4455 159.128 14.8181 159.107 15.1904V29.0975H156.58V15.3473C156.58 15.2445 156.56 15.1428 156.521 15.0479C156.481 14.9531 156.424 14.867 156.351 14.7946C156.278 14.7222 156.192 14.6649 156.097 14.6261C156.002 14.5873 155.9 14.5677 155.798 14.5684H150.47V12.3344H150.443ZM106.228 11.6582H114.735C115.46 11.6638 116.153 11.9544 116.666 12.4674C117.179 12.9803 117.47 13.6746 117.477 14.4007V20.8917H112.813V25.0082H114.47C115.977 25.0082 117.477 26.1279 117.477 27.6154V32.8569H114.956V28.1401C114.917 27.9037 114.8 27.6872 114.624 27.5247C114.448 27.3622 114.223 27.2628 113.985 27.2422H106.228V25.0082H110.546V20.908H106.228V18.6794H114.956V14.6116C114.952 14.5114 114.928 14.413 114.885 14.3224C114.842 14.2318 114.781 14.1509 114.706 14.0846C114.63 14.0184 114.543 13.9681 114.447 13.9369C114.352 13.9057 114.252 13.8941 114.152 13.903H106.228V11.6636V11.6582ZM195.219 32.8515H188.985C188.627 32.8573 188.271 32.7915 187.939 32.6582C187.606 32.5248 187.304 32.3266 187.048 32.0748C186.793 31.8231 186.59 31.523 186.452 31.192C186.314 30.861 186.243 30.5058 186.243 30.1469V24.6133H188.742V29.8386C188.745 30.0471 188.83 30.246 188.978 30.392C189.127 30.5379 189.327 30.619 189.535 30.6175H195.219V32.8515ZM178.75 32.8515H170.281C169.923 32.8573 169.567 32.7915 169.235 32.6582C168.902 32.5248 168.599 32.3266 168.344 32.0748C168.089 31.8231 167.886 31.523 167.748 31.192C167.61 30.861 167.538 30.5058 167.538 30.1469V26.6525H176.229V25.2299H167.538V23.0067H171.889V21.4813H167.107V19.2527H179.182V21.4813H174.415V23.0067H178.734V28.892H170.049V29.8386C170.051 30.0471 170.136 30.246 170.285 30.392C170.434 30.5379 170.634 30.619 170.842 30.6175H178.734V32.8515H178.75ZM132.451 32.8515H126.303C125.945 32.8573 125.589 32.7915 125.257 32.6582C124.924 32.5248 124.622 32.3266 124.366 32.0748C124.111 31.8231 123.909 31.523 123.77 31.192C123.632 30.861 123.561 30.5058 123.561 30.1469V24.6133H126.087V29.8386C126.09 30.0471 126.175 30.246 126.324 30.392C126.472 30.5379 126.672 30.619 126.881 30.6175H132.451V32.8515ZM103.021 32.8515H96.8568C96.4987 32.8573 96.1431 32.7915 95.8106 32.6582C95.4781 32.5248 95.1755 32.3266 94.9203 32.0748C94.6651 31.8231 94.4624 31.523 94.3241 31.192C94.1857 30.861 94.1145 30.5058 94.1146 30.1469V24.6133H96.6408V29.8386C96.6437 30.0471 96.7287 30.246 96.8774 30.392C97.026 30.5379 97.2262 30.619 97.4343 30.6175H103V32.8515H103.021ZM171.441 11.6582L166.426 17.9437H169.698L173.147 13.665L176.591 17.9437H179.862L174.847 11.6582H171.441ZM162.027 11.6582V32.8515H164.553V11.6582H162.027ZM90.0876 11.6582H95.5504V13.6488H90.066V11.6582H90.0876ZM102.897 11.6582H100.371V28.5999H102.897V17.8518H105.369V15.6178H102.897V11.6582V11.6582ZM87.9824 14.1897H97.6125V16.4237H96.3655C96.9204 17.1279 97.2227 17.9986 97.2238 18.8957C97.1556 20.025 96.6598 21.0857 95.8377 21.8611C95.0156 22.6366 93.9292 23.0684 92.8001 23.0684C91.6711 23.0684 90.5846 22.6366 89.7625 21.8611C88.9404 21.0857 88.4447 20.025 88.3765 18.8957C88.3782 17.9996 88.6783 17.1296 89.2294 16.4237H87.9824V14.1897V14.1897ZM92.7974 16.7591C92.3751 16.7782 91.9675 16.9211 91.6255 17.1701C91.2834 17.4192 91.0218 17.7634 90.8732 18.16C90.7246 18.5567 90.6954 18.9883 90.7894 19.4014C90.8834 19.8145 91.0963 20.1909 91.4018 20.4838C91.7073 20.7768 92.0919 20.9734 92.5078 21.0493C92.9238 21.1252 93.3529 21.077 93.7418 20.9108C94.1307 20.7445 94.4623 20.4675 94.6956 20.1141C94.9288 19.7607 95.0534 19.3465 95.0538 18.9228C95.0482 18.632 94.9853 18.3452 94.8688 18.0789C94.7522 17.8125 94.5842 17.5719 94.3745 17.3709C94.1648 17.1698 93.9176 17.0123 93.6469 16.9073C93.3763 16.8023 93.0876 16.7519 92.7974 16.7591V16.7591ZM149.072 11.6961H146.519V15.6232H145.11C144.835 14.404 144.122 13.3289 143.106 12.6036C142.091 11.8784 140.844 11.5538 139.604 11.6921C138.365 11.8304 137.219 12.4217 136.388 13.3531C135.556 14.2844 135.096 15.4904 135.096 16.7402C135.096 17.99 135.556 19.1959 136.388 20.1272C137.219 21.0586 138.365 21.65 139.604 21.7882C140.844 21.9265 142.091 21.602 143.106 20.8767C144.122 20.1514 144.835 19.0764 145.11 17.8572H146.519V25.5491H142.708V24.1373H140.16V30.1685C140.168 30.8907 140.461 31.5802 140.975 32.0868C141.488 32.5934 142.181 32.8761 142.902 32.8731H149.05V11.6907L149.072 11.6961ZM146.519 27.6641V30.6229H143.501C143.293 30.6244 143.093 30.5433 142.944 30.3974C142.795 30.2514 142.71 30.0525 142.708 29.844V27.6803L146.519 27.6641ZM140.095 13.995C140.636 14.0014 141.163 14.1681 141.61 14.4742C142.057 14.7802 142.403 15.2119 142.606 15.7149C142.808 16.2178 142.857 16.7695 142.748 17.3005C142.638 17.8316 142.373 18.3182 141.988 18.699C141.603 19.0798 141.114 19.3379 140.582 19.4407C140.051 19.5435 139.501 19.4865 139.002 19.2768C138.503 19.067 138.077 18.714 137.778 18.2621C137.478 17.8103 137.319 17.2798 137.32 16.7375C137.326 16.0053 137.621 15.3053 138.142 14.7912C138.662 14.277 139.364 13.9907 140.095 13.995ZM213.308 11.6636H218.766V13.6488H213.308V11.6582V11.6636ZM204.132 16.6779C204.563 16.7022 204.978 16.8527 205.326 17.1107C205.673 17.3687 205.937 17.7229 206.086 18.1297C206.234 18.5365 206.261 18.978 206.162 19.3997C206.063 19.8214 205.843 20.2048 205.529 20.5026C205.215 20.8005 204.821 20.9997 204.396 21.0756C203.97 21.1516 203.532 21.101 203.134 20.9301C202.737 20.7592 202.398 20.4755 202.16 20.114C201.922 19.7524 201.795 19.3289 201.794 18.8957C201.813 18.2917 202.069 17.7195 202.507 17.3039C202.945 16.8884 203.529 16.6634 204.132 16.6779ZM216.196 16.7591C216.619 16.7771 217.027 16.9192 217.37 17.1676C217.713 17.416 217.975 17.7599 218.124 18.1565C218.274 18.5531 218.304 18.985 218.21 19.3985C218.117 19.8119 217.904 20.1888 217.599 20.4823C217.294 20.7758 216.909 20.9729 216.493 21.0492C216.077 21.1255 215.648 21.0776 215.258 20.9115C214.869 20.7454 214.537 20.4683 214.304 20.1148C214.07 19.7612 213.946 19.3467 213.945 18.9228C213.95 18.6323 214.012 18.3456 214.128 18.0793C214.244 17.813 214.412 17.5723 214.621 17.3712C214.83 17.1701 215.077 17.0124 215.348 16.9074C215.618 16.8023 215.906 16.7519 216.196 16.7591V16.7591ZM232.169 16.7591C232.591 16.7782 232.999 16.9211 233.341 17.1701C233.683 17.4192 233.945 17.7634 234.093 18.16C234.242 18.5567 234.271 18.9883 234.177 19.4014C234.083 19.8145 233.87 20.1909 233.565 20.4838C233.259 20.7768 232.875 20.9734 232.459 21.0493C232.043 21.1252 231.613 21.077 231.225 20.9108C230.836 20.7445 230.504 20.4675 230.271 20.1141C230.038 19.7607 229.913 19.3465 229.913 18.9228C229.917 18.6318 229.98 18.3447 230.096 18.078C230.213 17.8114 230.38 17.5704 230.59 17.3692C230.8 17.168 231.048 17.0105 231.319 16.9058C231.59 16.8011 231.879 16.7512 232.169 16.7591V16.7591ZM238.49 32.8569H241.016V11.6582H238.49V25.6735H233.427V22.904C234.319 22.6727 235.111 22.1552 235.682 21.4305C236.253 20.7057 236.572 19.8136 236.59 18.8903C236.589 17.9932 236.286 17.1225 235.732 16.4183H236.984V14.1897H227.349V16.4237H228.601C228.046 17.1279 227.744 17.9986 227.743 18.8957C227.76 19.819 228.079 20.7112 228.65 21.4359C229.221 22.1606 230.014 22.6781 230.906 22.9094V25.6789H227.349V27.9129H238.49V32.8569ZM229.438 11.6636H234.895V13.6488H229.438V11.6582V11.6636ZM197.352 22.1846V24.4185H200.223C199.744 24.88 199.362 25.4335 199.101 26.0459C198.839 26.6583 198.703 27.3171 198.701 27.9832C198.777 29.3758 199.383 30.6862 200.393 31.6451C201.404 32.604 202.743 33.1384 204.134 33.1384C205.526 33.1384 206.865 32.604 207.875 31.6451C208.886 30.6862 209.491 29.3758 209.567 27.9832C209.565 27.3171 209.429 26.6583 209.168 26.0459C208.906 25.4335 208.525 24.88 208.045 24.4185H210.917V22.1846H207.138C207.637 21.793 208.041 21.2942 208.322 20.7249C208.602 20.1556 208.751 19.5305 208.758 18.8957C208.755 18.005 208.468 17.1384 207.937 16.4237H209.794V14.1897H198.458V16.4237H200.342C199.81 17.1374 199.522 18.0046 199.522 18.8957C199.529 19.5304 199.679 20.1552 199.959 20.7244C200.239 21.2935 200.643 21.7925 201.141 22.1846H197.352ZM204.132 25.2949C204.658 25.3234 205.165 25.5059 205.589 25.8199C206.014 26.1339 206.337 26.5656 206.519 27.0616C206.701 27.5577 206.734 28.0963 206.614 28.611C206.494 29.1256 206.226 29.5938 205.844 29.9576C205.461 30.3213 204.98 30.5648 204.461 30.6579C203.942 30.7509 203.407 30.6895 202.922 30.4812C202.437 30.2729 202.024 29.9268 201.734 29.4858C201.443 29.0447 201.288 28.528 201.287 27.9995C201.296 27.6346 201.377 27.275 201.525 26.9415C201.673 26.6079 201.885 26.3069 202.149 26.0557C202.413 25.8044 202.725 25.6079 203.065 25.4773C203.405 25.3468 203.767 25.2848 204.132 25.2949ZM123.005 11.6636L118.649 22.3576H121.58L123.674 17.2297L126.773 21.4867C127.123 21.9976 127.587 22.4192 128.129 22.7179C128.671 23.0165 129.275 23.184 129.893 23.2069V28.6161H132.414V17.8518H134.621V15.6178H132.414V11.6582H129.903V20.7295C129.137 20.6159 128.867 20.3995 128.322 19.6476L124.748 14.6224L125.947 11.6636H123.005ZM219.154 25.5491V24.1373H216.628V30.1685C216.628 30.5274 216.699 30.8827 216.838 31.2137C216.976 31.5447 217.179 31.8447 217.434 32.0965C217.689 32.3482 217.992 32.5465 218.324 32.6798C218.657 32.8132 219.012 32.8789 219.37 32.8731H225.513V11.6582H222.965V14.1897H211.349V16.4237H212.617C212.062 17.1279 211.76 17.9986 211.759 18.8957C211.827 20.025 212.323 21.0857 213.145 21.8611C213.967 22.6366 215.054 23.0684 216.183 23.0684C217.312 23.0684 218.398 22.6366 219.22 21.8611C220.042 21.0857 220.538 20.025 220.606 18.8957C220.605 17.9986 220.303 17.1279 219.748 16.4237H222.987V19.3176H220.876V21.5517H222.987V25.5491H219.154ZM222.965 27.6749V30.6338H219.948C219.74 30.6352 219.539 30.5541 219.391 30.4082C219.242 30.2622 219.157 30.0633 219.154 29.8548V27.6911L222.965 27.6749ZM181.455 12.3506V14.5846H184.342L181.136 22.3685H184.067L186.113 17.2297L189.276 21.6815C190.356 23.2015 191.846 23.1582 192.672 23.2177V28.6269H195.219V11.6582H192.693V20.5672C192.326 20.5933 191.959 20.5215 191.629 20.359C191.299 20.1965 191.018 19.9491 190.815 19.6422L187.209 14.5684H190.82V12.3344L181.455 12.3506ZM201.373 11.6744H206.836V13.6488H201.373V11.6744Z" fill="#231F20"/>
<path d="M93.8345 36.1891H92.1179L90.2448 39.77V36.1891H88.7441V44.7573H90.2448V42.1609L90.7846 41.2142L92.2637 44.7573H93.9478L91.7346 39.7429L93.8345 36.1891ZM95.9073 38.1472C95.585 38.1105 95.2587 38.1585 94.9606 38.2866C94.6624 38.4146 94.4027 38.6183 94.2069 38.8775C93.8831 39.3643 93.7265 40.2568 93.7265 41.5442C93.7265 42.8316 93.8831 43.7079 94.2069 44.2109C94.4274 44.4388 94.6912 44.62 94.9828 44.7437C95.2745 44.8674 95.5879 44.9312 95.9046 44.9312C96.2213 44.9312 96.5347 44.8674 96.8264 44.7437C97.118 44.62 97.3819 44.4388 97.6023 44.2109C97.9262 43.7241 98.0881 42.837 98.0881 41.5442C98.0881 40.2514 97.9262 39.3805 97.6023 38.8775C97.4064 38.617 97.1459 38.4125 96.8466 38.2844C96.5473 38.1562 96.2197 38.1089 95.8965 38.1472H95.9073ZM96.6199 41.5821V41.8417C96.6544 42.3875 96.6015 42.9354 96.4633 43.4645C96.412 43.5621 96.3339 43.6429 96.2383 43.6976C96.1427 43.7522 96.0334 43.7783 95.9235 43.7728C95.8103 43.7817 95.6973 43.7545 95.6004 43.6953C95.5034 43.6361 95.4276 43.5477 95.3837 43.4428C95.2537 42.8409 95.2065 42.2239 95.2433 41.6091V41.0141C95.1983 40.5441 95.2366 40.0697 95.3567 39.6131C95.41 39.518 95.4888 39.4396 95.5842 39.3871C95.6796 39.3345 95.7878 39.3097 95.8965 39.3156C96.0097 39.3067 96.1228 39.3339 96.2197 39.3931C96.3166 39.4523 96.3924 39.5407 96.4363 39.6456C96.5745 40.1618 96.6274 40.6971 96.5928 41.2305L96.6199 41.5821ZM99.9828 39.3697V38.3203H98.5955V44.7573H100.053V40.9708C100.041 40.6912 100.138 40.4178 100.323 40.2081C100.417 40.1115 100.531 40.036 100.657 39.9865C100.782 39.9371 100.917 39.9149 101.052 39.9214H101.295H101.451V38.1093C101.154 38.1106 100.866 38.2137 100.636 38.4014C100.349 38.6712 100.126 39.0021 99.9828 39.3697V39.3697ZM105.451 38.8775C105.253 38.6269 104.996 38.4293 104.703 38.3019C104.41 38.1745 104.09 38.1214 103.772 38.1472C103.537 38.1094 103.296 38.1185 103.065 38.1739C102.833 38.2293 102.614 38.33 102.421 38.4701C102.228 38.6103 102.064 38.7872 101.94 38.9907C101.815 39.1943 101.731 39.4205 101.694 39.6564C101.599 40.2082 101.561 40.7683 101.581 41.3278C101.562 42.0135 101.603 42.6996 101.705 43.3779C101.763 43.7218 101.91 44.0445 102.131 44.3137C102.296 44.5249 102.517 44.6859 102.768 44.7789C103.08 44.8903 103.409 44.9417 103.74 44.9304C104.032 44.9552 104.327 44.9201 104.605 44.8271C104.884 44.7341 105.14 44.5852 105.359 44.3895C105.733 43.9356 105.913 43.3527 105.861 42.7667C105.863 42.7271 105.863 42.6873 105.861 42.6477C105.861 42.5882 105.861 42.5449 105.861 42.5179H104.512C104.536 42.8512 104.479 43.1855 104.344 43.4915C104.289 43.5838 104.209 43.6593 104.114 43.7098C104.019 43.7603 103.912 43.7839 103.805 43.7782C103.688 43.7847 103.572 43.7529 103.474 43.6875C103.377 43.6221 103.303 43.5268 103.265 43.4158C103.129 43.0009 103.073 42.5642 103.097 42.1284V41.8687C103.092 41.8184 103.092 41.7676 103.097 41.7173H105.91V41.2305C105.923 40.7039 105.89 40.1773 105.813 39.6564C105.747 39.3747 105.623 39.1096 105.451 38.8775ZM104.442 40.7274H103.049V40.6138C103.054 40.5598 103.054 40.5055 103.049 40.4515C103.024 40.1397 103.08 39.8268 103.211 39.5428C103.277 39.4642 103.36 39.401 103.453 39.3577C103.546 39.3144 103.648 39.2919 103.751 39.2919C103.853 39.2919 103.955 39.3144 104.048 39.3577C104.141 39.401 104.224 39.4642 104.29 39.5428C104.42 39.827 104.474 40.1401 104.447 40.4515L104.442 40.7274ZM110.536 40.1865C110.6 39.9056 110.591 39.6131 110.512 39.3363C110.432 39.0596 110.283 38.8076 110.08 38.6039C109.877 38.4002 109.625 38.2515 109.349 38.1716C109.073 38.0917 108.781 38.0833 108.501 38.1472C107.919 38.0997 107.341 38.2735 106.881 38.634C106.695 38.8503 106.553 39.1021 106.466 39.3745C106.379 39.6469 106.348 39.9341 106.374 40.2189H107.772V40.0945C107.752 39.8502 107.814 39.606 107.95 39.4021C108.025 39.3263 108.116 39.2681 108.215 39.2316C108.315 39.1951 108.422 39.1813 108.528 39.1912C108.615 39.1743 108.705 39.1792 108.79 39.2054C108.874 39.2316 108.951 39.2783 109.014 39.3414C109.076 39.4045 109.122 39.4821 109.147 39.5672C109.173 39.6523 109.177 39.7424 109.159 39.8295C109.159 40.1649 108.884 40.457 108.328 40.7112L108.161 40.7815L108.031 40.8356C107.508 41.0424 107.039 41.3662 106.66 41.7822C106.414 42.1545 106.295 42.5967 106.32 43.0426C106.29 43.5349 106.431 44.0225 106.72 44.4219C106.849 44.5828 107.013 44.7112 107.201 44.7967C107.388 44.8822 107.593 44.9224 107.799 44.9141C108.093 44.9222 108.384 44.8512 108.641 44.7086C108.88 44.563 109.077 44.3581 109.213 44.1136C109.227 44.2521 109.251 44.3895 109.284 44.5247C109.301 44.6 109.329 44.6726 109.365 44.741H110.757C110.616 44.4553 110.544 44.1403 110.547 43.8215L110.536 40.1865ZM109.154 42.3935C109.154 43.2968 108.906 43.7512 108.409 43.7512C107.913 43.7512 107.778 43.4753 107.778 42.9181C107.771 42.6309 107.871 42.3515 108.058 42.1338C108.182 41.9982 108.321 41.8783 108.474 41.7768C108.691 41.6266 108.919 41.491 109.154 41.3711V42.3935ZM113.931 44.741H115.464V36.1891H113.931V44.741ZM118.941 38.131C118.669 38.132 118.404 38.2096 118.175 38.3551C117.946 38.5005 117.762 38.7079 117.645 38.9532V38.3041H116.242V44.741H117.678V40.6409C117.657 40.3127 117.708 39.9839 117.829 39.678C117.88 39.5822 117.959 39.5041 118.055 39.4539C118.152 39.4037 118.261 39.3838 118.368 39.3967C118.459 39.3883 118.549 39.4045 118.631 39.4435C118.713 39.4826 118.782 39.543 118.833 39.6185C118.946 39.8712 118.994 40.1483 118.973 40.4245V44.7519H120.35V39.6943C120.38 39.2799 120.254 38.8691 119.999 38.5421C119.863 38.4012 119.698 38.2925 119.514 38.2242C119.331 38.1558 119.135 38.1295 118.941 38.1472V38.131ZM123.653 38.8504C123.548 38.6198 123.374 38.427 123.156 38.2984C122.938 38.1697 122.686 38.1113 122.433 38.131C122.175 38.1136 121.917 38.1751 121.695 38.3074C121.472 38.4397 121.295 38.6366 121.186 38.872C120.893 39.7417 120.774 40.6608 120.835 41.5767C120.775 42.465 120.899 43.3561 121.197 44.1947C121.312 44.43 121.493 44.626 121.719 44.7579C121.945 44.8898 122.205 44.9517 122.466 44.9358C122.739 44.9504 123.009 44.8762 123.237 44.7241C123.465 44.572 123.637 44.3503 123.729 44.092V44.7627H125.089V36.1891H123.653V38.8504ZM123.529 43.3401C123.48 43.45 123.398 43.5419 123.295 43.603C123.191 43.6641 123.071 43.6913 122.951 43.6809C122.833 43.6867 122.716 43.6533 122.618 43.5858C122.521 43.5183 122.448 43.4206 122.412 43.3076C122.294 42.6875 122.251 42.0556 122.282 41.4252C122.249 40.8642 122.296 40.3013 122.422 39.7538C122.46 39.6418 122.533 39.5452 122.631 39.4788C122.728 39.4124 122.844 39.3798 122.962 39.3859C123.093 39.3736 123.224 39.4097 123.331 39.4874C123.437 39.5651 123.511 39.679 123.54 39.8078C123.693 40.5072 123.749 41.2243 123.707 41.9391C123.74 42.4186 123.68 42.9 123.529 43.3563V43.3401ZM128.42 42.4151C128.455 42.7494 128.409 43.0873 128.285 43.3996C128.234 43.488 128.16 43.5602 128.07 43.6081C127.98 43.6559 127.879 43.6774 127.777 43.67C127.684 43.6779 127.59 43.6592 127.507 43.6161C127.424 43.5731 127.355 43.5074 127.308 43.4266C127.189 43.1469 127.139 42.8426 127.162 42.5395V38.3365H125.78V43.3996C125.751 43.8147 125.879 44.2255 126.136 44.5517C126.268 44.6889 126.428 44.7958 126.605 44.8649C126.782 44.934 126.972 44.9637 127.162 44.952C127.434 44.9567 127.702 44.8826 127.934 44.7388C128.166 44.5949 128.351 44.3872 128.468 44.1406V44.7789H129.872V38.342H128.436L128.42 42.4151ZM132.781 40.9817L132.587 40.8518C132.539 40.8233 132.494 40.7907 132.452 40.7544C132.313 40.6636 132.179 40.5642 132.052 40.4569C131.967 40.3863 131.887 40.3085 131.815 40.2244C131.761 40.1641 131.722 40.0917 131.702 40.0134C131.682 39.9431 131.673 39.8701 131.675 39.797C131.671 39.7222 131.683 39.6475 131.71 39.5777C131.737 39.5079 131.778 39.4444 131.831 39.3913C131.95 39.2861 132.105 39.2317 132.263 39.2399C132.363 39.2319 132.464 39.2467 132.557 39.2832C132.651 39.3198 132.735 39.3771 132.803 39.4508C132.934 39.6546 132.993 39.8965 132.97 40.1378V40.2784H134.222V40.154C134.222 38.8161 133.594 38.1472 132.339 38.1472C131.803 38.1077 131.272 38.2697 130.849 38.6016C130.672 38.7672 130.535 38.9702 130.448 39.1958C130.36 39.4213 130.323 39.6637 130.341 39.9052C130.341 40.6246 130.881 41.3657 131.917 42.1176L131.988 42.1609C132.029 42.187 132.069 42.2159 132.106 42.2474L132.258 42.3556C132.722 42.6747 132.949 42.956 132.949 43.1994C132.954 43.2835 132.942 43.3677 132.913 43.4468C132.884 43.526 132.839 43.5982 132.781 43.6592C132.651 43.7749 132.48 43.8351 132.306 43.8269C132.203 43.8357 132.1 43.8185 132.006 43.7769C131.912 43.7353 131.829 43.6707 131.766 43.5889C131.638 43.3468 131.581 43.0725 131.604 42.7991V42.6152H130.309C130.311 42.6585 130.311 42.7018 130.309 42.745C130.307 42.7865 130.307 42.828 130.309 42.8695C130.259 43.4335 130.431 43.9947 130.789 44.4327C130.996 44.6133 131.237 44.7504 131.497 44.8359C131.758 44.9214 132.033 44.9535 132.306 44.9304C132.849 44.9663 133.386 44.7985 133.812 44.4598C133.993 44.2928 134.135 44.0881 134.229 43.86C134.322 43.632 134.364 43.3861 134.352 43.1399C134.341 42.4259 133.818 41.7119 132.781 40.9979V40.9817ZM136.333 36.5515H134.897V38.3041H134.357V39.3859H134.897V43.2481C134.846 43.6765 134.937 44.1099 135.156 44.4814C135.295 44.5946 135.455 44.6791 135.626 44.7302C135.797 44.7812 135.977 44.7978 136.155 44.7789H136.441L136.921 44.7302V43.5672H136.77C136.699 43.5799 136.626 43.5799 136.554 43.5672C136.526 43.5579 136.5 43.5431 136.478 43.5236C136.456 43.5041 136.438 43.4803 136.425 43.4536C136.385 43.3802 136.361 43.2991 136.355 43.2156C136.345 43.077 136.345 42.9378 136.355 42.7991V39.413H136.921V38.3311H136.333V36.5515ZM138.633 39.3535V38.3041H137.262V44.741H138.719V40.9546C138.707 40.6749 138.804 40.4016 138.989 40.1919C139.083 40.0953 139.197 40.0197 139.323 39.9703C139.448 39.9209 139.583 39.8987 139.718 39.9052H139.923H140.079V38.0931C139.782 38.0944 139.495 38.1975 139.264 38.3852C138.983 38.6619 138.767 38.9983 138.633 39.3697V39.3535ZM140.398 37.5089H141.823V36.1729H140.398V37.5089ZM140.398 44.741H141.823V38.3041H140.398V44.741ZM146.622 40.1865C146.685 39.9056 146.677 39.6131 146.597 39.3363C146.518 39.0596 146.369 38.8076 146.166 38.6039C145.963 38.4002 145.711 38.2515 145.435 38.1716C145.159 38.0917 144.867 38.0833 144.587 38.1472C144.005 38.0997 143.427 38.2735 142.967 38.634C142.78 38.8503 142.639 39.1021 142.552 39.3745C142.465 39.6469 142.433 39.9341 142.46 40.2189H143.847V40.0945C143.828 39.8496 143.893 39.6053 144.031 39.4021C144.105 39.3263 144.196 39.2681 144.296 39.2316C144.396 39.1951 144.502 39.1813 144.608 39.1912C144.695 39.1743 144.785 39.1792 144.87 39.2054C144.955 39.2316 145.032 39.2783 145.094 39.3414C145.156 39.4045 145.202 39.4821 145.228 39.5672C145.253 39.6523 145.257 39.7424 145.24 39.8295C145.24 40.1649 144.965 40.457 144.409 40.7112L144.236 40.7815L144.112 40.8356C143.589 41.0424 143.12 41.3662 142.741 41.7822C142.494 42.1545 142.375 42.5967 142.4 43.0426C142.371 43.5339 142.51 44.0204 142.795 44.4219C142.924 44.5819 143.089 44.7096 143.277 44.795C143.464 44.8803 143.668 44.9211 143.874 44.9141C144.168 44.9214 144.459 44.8505 144.716 44.7086C144.945 44.5614 145.132 44.3561 145.256 44.1136C145.274 44.2519 145.299 44.3891 145.332 44.5247C145.344 44.6014 145.372 44.6748 145.413 44.741H146.805C146.664 44.4553 146.592 44.1403 146.595 43.8215L146.622 40.1865ZM145.24 42.3935C145.24 43.2968 144.992 43.7512 144.495 43.7512C143.998 43.7512 143.863 43.4753 143.863 42.9181C143.857 42.6309 143.957 42.3515 144.144 42.1338C144.267 41.9982 144.407 41.8783 144.56 41.7768C144.777 41.6266 145.004 41.491 145.24 41.3711V42.3935ZM147.269 44.741H148.695V36.1891H147.269V44.741ZM156.592 36.1729H151.529V37.5846H153.294V44.741H154.827V37.6009H156.592V36.1729ZM159.518 38.8775C159.319 38.6269 159.062 38.4293 158.769 38.3019C158.477 38.1745 158.157 38.1214 157.839 38.1472C157.52 38.1169 157.198 38.1623 156.9 38.2798C156.602 38.3973 156.335 38.5835 156.122 38.8233C155.94 39.0702 155.814 39.3548 155.755 39.6564C155.666 40.2088 155.63 40.7685 155.647 41.3278C155.628 42.0135 155.67 42.6996 155.771 43.3779C155.827 43.7226 155.974 44.0459 156.198 44.3137C156.362 44.5235 156.581 44.6843 156.829 44.7789C157.143 44.8892 157.474 44.9406 157.806 44.9304C158.099 44.9534 158.393 44.9173 158.671 44.8244C158.949 44.7315 159.206 44.5836 159.426 44.3895C159.799 43.9356 159.98 43.3527 159.928 42.7667C159.93 42.7271 159.93 42.6873 159.928 42.6477C159.928 42.5882 159.928 42.5449 159.928 42.5179H158.578C158.603 42.8512 158.545 43.1855 158.411 43.4915C158.355 43.5834 158.275 43.6585 158.18 43.709C158.085 43.7594 157.979 43.7833 157.871 43.7782C157.754 43.7847 157.638 43.7529 157.541 43.6875C157.443 43.6221 157.37 43.5268 157.331 43.4158C157.193 43.0015 157.136 42.5643 157.164 42.1284V41.8687C157.161 41.8183 157.161 41.7677 157.164 41.7173H159.982V41.2305C159.995 40.7039 159.962 40.1773 159.885 39.6564C159.815 39.3751 159.69 39.1104 159.518 38.8775V38.8775ZM158.508 40.7274H157.115V40.6138C157.12 40.5598 157.12 40.5055 157.115 40.4515C157.091 40.1397 157.147 39.8268 157.277 39.5428C157.337 39.456 157.418 39.3868 157.513 39.3421C157.608 39.2974 157.713 39.2789 157.817 39.2886C157.922 39.2795 158.026 39.2982 158.121 39.3428C158.216 39.3875 158.297 39.4565 158.357 39.5428C158.484 39.8277 158.538 40.1402 158.514 40.4515L158.508 40.7274ZM163.048 42.2312V42.3664C163.073 42.7456 163.024 43.1261 162.902 43.4861C162.861 43.5834 162.791 43.6652 162.7 43.7197C162.61 43.7741 162.505 43.7984 162.4 43.789C162.304 43.7978 162.208 43.7778 162.123 43.7316C162.039 43.6854 161.97 43.615 161.925 43.5294C161.812 43.235 161.764 42.9193 161.785 42.6044V40.3812C161.763 40.0969 161.815 39.8119 161.936 39.5536C161.983 39.4708 162.053 39.4031 162.137 39.3581C162.221 39.3132 162.316 39.2928 162.411 39.2994C162.506 39.2924 162.601 39.3132 162.684 39.3593C162.768 39.4054 162.836 39.4748 162.881 39.559C162.996 39.8225 163.046 40.1103 163.026 40.3975V40.5435H164.392V40.3163C164.439 39.7343 164.268 39.1558 163.912 38.6935C163.713 38.5004 163.475 38.3522 163.214 38.2589C162.954 38.1656 162.676 38.1294 162.4 38.1526C162.09 38.1239 161.778 38.1761 161.494 38.3041C161.211 38.4321 160.965 38.6315 160.781 38.8829C160.478 39.3643 160.322 40.2514 160.322 41.5496C160.322 42.8478 160.478 43.7133 160.781 44.2164C160.966 44.4654 161.213 44.6624 161.496 44.7884C161.78 44.9144 162.091 44.9651 162.4 44.9358C162.677 44.9617 162.956 44.9266 163.218 44.8332C163.48 44.7398 163.719 44.5902 163.917 44.3949C164.281 43.8785 164.453 43.2508 164.403 42.6206V42.3989C164.408 42.3522 164.408 42.3049 164.403 42.2582L163.048 42.2312ZM167.615 38.1472C167.349 38.1412 167.088 38.2127 166.863 38.3529C166.638 38.4932 166.458 38.6961 166.346 38.937V36.1891H164.921V44.7573H166.346V40.6571C166.322 40.3295 166.377 40.0009 166.508 39.6996C166.566 39.6101 166.646 39.5375 166.741 39.4891C166.836 39.4406 166.942 39.4181 167.048 39.4238C167.132 39.4162 167.216 39.4312 167.292 39.4674C167.368 39.5035 167.433 39.5595 167.48 39.6294C167.585 39.886 167.628 40.1642 167.604 40.4407V44.7681H168.986V39.7105C169.016 39.2961 168.891 38.8853 168.635 38.5583C168.505 38.4199 168.346 38.3114 168.17 38.2405C167.994 38.1695 167.804 38.1377 167.615 38.1472V38.1472ZM172.386 38.1472C172.115 38.1482 171.85 38.2259 171.62 38.3713C171.391 38.5168 171.208 38.7241 171.091 38.9694V38.3203H169.687V44.7573H171.123V40.6571C171.102 40.3289 171.154 40.0001 171.274 39.6943C171.326 39.5984 171.405 39.5203 171.501 39.4702C171.597 39.42 171.707 39.4 171.814 39.413C171.904 39.4046 171.995 39.4207 172.077 39.4598C172.159 39.4988 172.228 39.5593 172.278 39.6347C172.392 39.8874 172.44 40.1645 172.419 40.4407V44.7681H173.795V39.7105C173.825 39.2961 173.7 38.8853 173.444 38.5583C173.31 38.4145 173.146 38.3028 172.962 38.2316C172.779 38.1604 172.582 38.1316 172.386 38.1472ZM176.451 38.1472C176.129 38.1105 175.803 38.1585 175.504 38.2866C175.206 38.4146 174.947 38.6183 174.751 38.8775C174.432 39.3643 174.27 40.2568 174.27 41.5442C174.27 42.8316 174.432 43.7079 174.751 44.2109C174.948 44.4678 175.208 44.669 175.506 44.7951C175.804 44.9212 176.13 44.9678 176.451 44.9304C176.772 44.9651 177.097 44.9173 177.394 44.7915C177.692 44.6656 177.952 44.4658 178.152 44.2109C178.47 43.7241 178.632 42.837 178.632 41.5442C178.632 40.2514 178.47 39.3805 178.152 38.8775C177.955 38.6191 177.695 38.416 177.397 38.288C177.099 38.1601 176.773 38.1116 176.451 38.1472V38.1472ZM177.164 41.5821V41.8417C177.198 42.3875 177.145 42.9354 177.007 43.4645C176.956 43.5621 176.878 43.6429 176.782 43.6976C176.687 43.7522 176.577 43.7783 176.467 43.7728C176.354 43.7817 176.241 43.7545 176.144 43.6953C176.047 43.6361 175.971 43.5477 175.928 43.4428C175.798 42.8409 175.75 42.2239 175.787 41.6091V41.0141C175.75 40.5311 175.802 40.0453 175.938 39.5807C175.992 39.4855 176.07 39.4072 176.166 39.3546C176.261 39.302 176.369 39.2773 176.478 39.2832C176.591 39.2743 176.704 39.3014 176.801 39.3606C176.898 39.4199 176.974 39.5082 177.018 39.6131C177.156 40.1293 177.209 40.6647 177.174 41.198L177.164 41.5821ZM179.134 44.7573H180.559V36.1891H179.134V44.7573ZM183.247 38.1472C182.925 38.1105 182.599 38.1585 182.301 38.2866C182.002 38.4146 181.743 38.6183 181.547 38.8775C181.223 39.3643 181.066 40.2568 181.066 41.5442C181.066 42.8316 181.223 43.7079 181.547 44.2109C181.767 44.4388 182.031 44.62 182.323 44.7437C182.614 44.8674 182.928 44.9312 183.245 44.9312C183.561 44.9312 183.875 44.8674 184.166 44.7437C184.458 44.62 184.722 44.4388 184.942 44.2109C185.266 43.7241 185.428 42.837 185.428 41.5442C185.428 40.2514 185.266 39.3805 184.942 38.8775C184.747 38.6187 184.489 38.4153 184.191 38.2872C183.894 38.1592 183.569 38.1109 183.247 38.1472V38.1472ZM183.96 41.5821V41.8417C183.994 42.3875 183.941 42.9354 183.803 43.4645C183.752 43.5621 183.674 43.6429 183.578 43.6976C183.483 43.7522 183.373 43.7783 183.263 43.7728C183.15 43.7817 183.037 43.7545 182.94 43.6953C182.843 43.6361 182.768 43.5477 182.724 43.4428C182.591 42.8413 182.543 42.2239 182.583 41.6091V41.0141C182.547 40.5311 182.598 40.0453 182.734 39.5807C182.788 39.4855 182.867 39.4072 182.962 39.3546C183.057 39.302 183.166 39.2773 183.274 39.2832C183.387 39.2743 183.5 39.3014 183.597 39.3606C183.694 39.4199 183.77 39.5082 183.814 39.6131C183.952 40.1293 184.005 40.6647 183.971 41.198L183.96 41.5821ZM188.661 38.991C188.57 38.7327 188.397 38.511 188.17 38.3589C187.942 38.2068 187.672 38.1325 187.398 38.1472C187.137 38.1313 186.878 38.1932 186.652 38.3251C186.426 38.457 186.245 38.653 186.13 38.8883C185.833 39.7291 185.71 40.6217 185.768 41.5117C185.703 42.4286 185.826 43.3491 186.13 44.2164C186.246 44.4513 186.43 44.6457 186.659 44.774C186.887 44.9024 187.148 44.9587 187.409 44.9358C187.654 44.9462 187.896 44.8832 188.104 44.7551C188.313 44.627 188.479 44.4394 188.58 44.2164V44.6599C188.608 44.9859 188.552 45.3135 188.419 45.6119C188.354 45.7019 188.268 45.7733 188.167 45.8189C188.067 45.8644 187.956 45.8826 187.846 45.8716C187.512 45.8716 187.339 45.7364 187.307 45.4713H185.881C185.873 45.6776 185.913 45.8829 185.999 46.0708C186.084 46.2586 186.212 46.4239 186.373 46.5531C186.791 46.8273 187.288 46.9565 187.787 46.921C188.715 46.921 189.342 46.6667 189.66 46.1582C189.788 45.9526 189.878 45.7253 189.925 45.4875C189.989 45.0761 190.014 44.6596 190 44.2434V38.3203H188.645L188.661 38.991ZM188.462 43.2535C188.433 43.3833 188.358 43.4981 188.251 43.5759C188.143 43.6537 188.011 43.6892 187.879 43.6754C187.763 43.6827 187.648 43.6524 187.551 43.5891C187.454 43.5258 187.379 43.4328 187.339 43.3238C187.21 42.7749 187.162 42.2098 187.199 41.647C187.168 41.0184 187.212 40.3884 187.328 39.77C187.362 39.654 187.433 39.5526 187.531 39.482C187.629 39.4115 187.748 39.3757 187.868 39.3805C187.989 39.3689 188.11 39.3955 188.214 39.4567C188.319 39.5178 188.402 39.6104 188.451 39.7213C188.594 40.1737 188.651 40.6489 188.618 41.1223C188.662 41.8365 188.609 42.5534 188.462 43.2535V43.2535ZM192.57 42.9722L191.717 38.3203H190.205L191.792 44.9628C191.827 45.0824 191.845 45.2062 191.846 45.3307C191.846 45.6173 191.657 45.7634 191.269 45.7634H191.037V46.8777C191.122 46.8938 191.209 46.9047 191.296 46.9101C191.378 46.9155 191.461 46.9155 191.544 46.9101C191.947 46.9487 192.349 46.8348 192.672 46.591C192.969 46.2437 193.156 45.8167 193.212 45.3631L194.831 38.3311H193.385L192.57 42.9722ZM199.047 36.1891L197.196 44.7573H198.767L199.161 42.5936H200.926L201.331 44.7573H202.982L201.109 36.1891H199.047ZM199.398 41.317L200.046 37.7307L200.704 41.317H199.398ZM205.406 40.9979C205.344 40.9509 205.279 40.9075 205.212 40.868C205.164 40.8395 205.119 40.8069 205.077 40.7707C204.938 40.6798 204.804 40.5805 204.677 40.4732C204.592 40.4025 204.512 40.3247 204.44 40.2406C204.386 40.1803 204.347 40.108 204.327 40.0296C204.318 39.9577 204.318 39.8851 204.327 39.8132C204.323 39.7384 204.335 39.6638 204.362 39.5939C204.389 39.5241 204.43 39.4606 204.483 39.4076C204.603 39.3015 204.76 39.2471 204.92 39.2561C205.02 39.2473 205.121 39.2617 205.215 39.2983C205.308 39.3349 205.392 39.3926 205.46 39.467C205.591 39.6708 205.65 39.9127 205.627 40.154V40.2947H206.891V40.154C206.891 38.8161 206.263 38.1472 205.007 38.1472C204.471 38.1077 203.94 38.2697 203.517 38.6016C203.341 38.7672 203.204 38.9702 203.116 39.1958C203.028 39.4213 202.992 39.6637 203.009 39.9052C203.009 40.6246 203.549 41.3657 204.591 42.1176L204.656 42.1609C204.698 42.1856 204.738 42.2146 204.775 42.2474L204.926 42.3556C205.39 42.6747 205.617 42.956 205.617 43.1994C205.622 43.2835 205.61 43.3677 205.581 43.4468C205.552 43.526 205.507 43.5982 205.449 43.6592C205.319 43.7759 205.149 43.8363 204.974 43.8269C204.872 43.8357 204.768 43.8185 204.674 43.7769C204.58 43.7353 204.497 43.6707 204.434 43.5889C204.306 43.3468 204.249 43.0725 204.273 42.7991V42.6152H202.977C202.979 42.6585 202.979 42.7018 202.977 42.745C202.975 42.7865 202.975 42.828 202.977 42.8695C202.927 43.4335 203.099 43.9947 203.457 44.4327C203.664 44.6133 203.905 44.7504 204.165 44.8359C204.426 44.9214 204.701 44.9535 204.974 44.9304C205.517 44.9663 206.054 44.7985 206.48 44.4598C206.661 44.2928 206.803 44.0881 206.897 43.86C206.99 43.632 207.032 43.3861 207.02 43.1399C206.963 42.4259 206.416 41.7119 205.379 40.9979H205.406ZM209.681 40.9979L209.487 40.868C209.439 40.8395 209.394 40.8069 209.352 40.7707C209.213 40.6798 209.08 40.5805 208.953 40.4732C208.867 40.4025 208.788 40.3247 208.715 40.2406C208.661 40.1803 208.622 40.108 208.602 40.0296C208.591 39.9579 208.591 39.885 208.602 39.8132C208.598 39.7384 208.611 39.6638 208.638 39.5939C208.665 39.5241 208.706 39.4606 208.758 39.4076C208.877 39.3023 209.032 39.248 209.19 39.2561C209.29 39.2481 209.391 39.2629 209.484 39.2995C209.578 39.336 209.662 39.3933 209.73 39.467C209.861 39.6708 209.92 39.9127 209.897 40.154V40.2947H211.16V40.154C211.16 38.818 210.529 38.1472 209.277 38.1472C208.739 38.1063 208.206 38.2684 207.781 38.6016C207.608 38.7691 207.473 38.9725 207.386 39.1977C207.3 39.4229 207.263 39.6644 207.279 39.9052C207.279 40.6246 207.819 41.3657 208.855 42.1176L208.926 42.1609C208.967 42.187 209.007 42.2159 209.044 42.2474L209.196 42.3556C209.66 42.6747 209.887 42.956 209.887 43.1994C209.892 43.2835 209.88 43.3677 209.851 43.4468C209.822 43.526 209.777 43.5982 209.719 43.6592C209.587 43.7758 209.415 43.8359 209.239 43.8269C209.136 43.8367 209.032 43.82 208.938 43.7783C208.843 43.7366 208.761 43.6714 208.699 43.5889C208.57 43.3468 208.514 43.0725 208.537 42.7991V42.6152H207.241C207.244 42.6585 207.244 42.7018 207.241 42.745C207.239 42.7865 207.239 42.828 207.241 42.8695C207.191 43.4335 207.364 43.9947 207.722 44.4327C207.928 44.6129 208.168 44.7497 208.427 44.8352C208.687 44.9207 208.961 44.9531 209.233 44.9304C209.778 44.9671 210.317 44.7994 210.745 44.4598C210.926 44.2928 211.068 44.0881 211.161 43.86C211.254 43.632 211.297 43.3861 211.285 43.1399C211.234 42.4259 210.691 41.7119 209.654 40.9979H209.681ZM213.714 38.1472C213.391 38.1105 213.065 38.1585 212.767 38.2866C212.469 38.4146 212.209 38.6183 212.013 38.8775C211.695 39.3643 211.533 40.2568 211.533 41.5442C211.533 42.8316 211.695 43.7079 212.013 44.2109C212.211 44.4678 212.471 44.669 212.769 44.7951C213.067 44.9212 213.392 44.9678 213.714 44.9304C214.035 44.9651 214.359 44.9173 214.657 44.7915C214.954 44.6656 215.215 44.4658 215.414 44.2109C215.733 43.7241 215.895 42.837 215.895 41.5442C215.895 40.2514 215.733 39.3805 215.414 38.8775C215.216 38.6144 214.951 38.4084 214.648 38.2802C214.345 38.152 214.013 38.1061 213.687 38.1472H213.714ZM214.426 41.5821V41.8417C214.459 42.3872 214.408 42.9344 214.275 43.4645C214.221 43.567 214.138 43.651 214.036 43.7059C213.934 43.7608 213.818 43.7841 213.703 43.7728C213.59 43.7817 213.477 43.7545 213.38 43.6953C213.283 43.6361 213.207 43.5477 213.163 43.4428C213.033 42.8409 212.986 42.2239 213.023 41.6091V41.0141C212.986 40.5311 213.037 40.0453 213.174 39.5807C213.227 39.4855 213.306 39.4072 213.401 39.3546C213.497 39.302 213.605 39.2773 213.714 39.2832C213.826 39.2789 213.937 39.3079 214.033 39.3666C214.129 39.4253 214.206 39.511 214.253 39.6131C214.386 40.1303 214.437 40.665 214.405 41.198L214.426 41.5821ZM218.961 42.2312V42.3664C218.987 42.7452 218.939 43.1255 218.82 43.4861C218.773 43.5736 218.705 43.6474 218.621 43.7003C218.537 43.7532 218.44 43.7832 218.341 43.7876C218.242 43.792 218.144 43.7705 218.055 43.7252C217.967 43.6799 217.892 43.6124 217.838 43.5294C217.726 43.2346 217.68 42.9189 217.703 42.6044V40.3812C217.683 40.0975 217.733 39.8134 217.849 39.5536C217.899 39.4725 217.97 39.4062 218.055 39.3615C218.139 39.3168 218.234 39.2954 218.329 39.2994C218.424 39.2931 218.519 39.3142 218.602 39.3602C218.685 39.4062 218.753 39.4752 218.799 39.559C218.912 39.8231 218.96 40.1107 218.939 40.3975V40.5435H220.31V40.3163C220.354 39.7346 220.183 39.157 219.83 38.6935C219.631 38.5007 219.393 38.3527 219.132 38.2594C218.872 38.1661 218.594 38.1297 218.318 38.1526C218.008 38.1229 217.696 38.1745 217.412 38.3026C217.128 38.4307 216.882 38.6307 216.699 38.8829C216.391 39.3643 216.24 40.2514 216.24 41.5496C216.24 42.8478 216.391 43.7133 216.699 44.2164C216.884 44.4658 217.131 44.6631 217.414 44.7891C217.698 44.9151 218.009 44.9657 218.318 44.9358C218.595 44.9617 218.874 44.9266 219.136 44.8332C219.398 44.7398 219.637 44.5902 219.835 44.3949C220.199 43.8785 220.371 43.2508 220.321 42.6206V42.3989C220.326 42.3522 220.326 42.3049 220.321 42.2582L218.961 42.2312ZM220.828 37.5252H222.21V36.1891H220.785L220.828 37.5252ZM220.828 44.7573H222.21V38.3203H220.785L220.828 44.7573ZM227.052 40.2027C227.116 39.9213 227.108 39.6281 227.028 39.3508C226.948 39.0735 226.799 38.8211 226.595 38.6172C226.391 38.4134 226.139 38.2648 225.862 38.1854C225.585 38.106 225.292 38.0985 225.012 38.1634C224.43 38.1154 223.852 38.2893 223.392 38.6503C223.204 38.866 223.062 39.1177 222.974 39.3901C222.886 39.6625 222.854 39.95 222.88 40.2352H224.272V40.1107C224.249 39.8654 224.315 39.6201 224.456 39.4184C224.53 39.343 224.619 39.285 224.718 39.2485C224.817 39.212 224.923 39.198 225.028 39.2074C225.115 39.1895 225.206 39.1936 225.291 39.2193C225.377 39.2451 225.455 39.2917 225.518 39.3549C225.581 39.4181 225.627 39.4961 225.653 39.5817C225.679 39.6674 225.683 39.7581 225.665 39.8457C225.665 40.1811 225.39 40.4732 224.834 40.7274L224.661 40.7977L224.537 40.8518C224.013 41.0571 223.544 41.3811 223.166 41.7984C222.919 42.1707 222.8 42.6129 222.826 43.0588C222.793 43.5504 222.933 44.038 223.22 44.4381C223.349 44.5984 223.514 44.7263 223.701 44.8118C223.889 44.8972 224.093 44.9378 224.299 44.9304C224.595 44.9376 224.887 44.8667 225.147 44.7248C225.376 44.5776 225.562 44.3723 225.686 44.1298C225.703 44.2679 225.726 44.4051 225.757 44.5409C225.773 44.6173 225.803 44.6904 225.843 44.7573H227.23C227.093 44.4702 227.023 44.1558 227.025 43.8377L227.052 40.2027ZM225.67 42.4097C225.67 43.313 225.422 43.7674 224.925 43.7674C224.429 43.7674 224.288 43.4915 224.288 42.9344C224.284 42.6465 224.386 42.3672 224.575 42.15C224.697 42.0131 224.836 41.8931 224.99 41.793C225.208 41.6428 225.435 41.5073 225.67 41.3873V42.4097ZM229.222 36.5677H227.786V38.3203H227.247V39.4021H227.786V43.2643C227.734 43.6935 227.827 44.128 228.051 44.4976C228.188 44.6112 228.347 44.696 228.517 44.7471C228.688 44.7982 228.867 44.8145 229.044 44.7951H229.33L229.816 44.7465V43.5835H229.659C229.59 43.5962 229.519 43.5962 229.449 43.5835C229.42 43.5751 229.393 43.5607 229.369 43.5411C229.346 43.5215 229.327 43.4973 229.314 43.4699C229.276 43.3954 229.253 43.3148 229.244 43.2319C229.234 43.0932 229.234 42.954 229.244 42.8154V39.4292H229.838V38.3473H229.244L229.222 36.5677ZM230.129 37.5252H231.554V36.1891H230.129V37.5252ZM230.129 44.7573H231.554V38.3203H230.129V44.7573ZM234.242 38.1472C233.92 38.1105 233.594 38.1585 233.296 38.2866C232.997 38.4146 232.738 38.6183 232.542 38.8775C232.224 39.3643 232.062 40.2568 232.062 41.5442C232.062 42.8316 232.224 43.7079 232.542 44.2109C232.762 44.4388 233.026 44.62 233.318 44.7437C233.61 44.8674 233.923 44.9312 234.24 44.9312C234.556 44.9312 234.87 44.8674 235.161 44.7437C235.453 44.62 235.717 44.4388 235.937 44.2109C236.261 43.7241 236.423 42.837 236.423 41.5442C236.423 40.2514 236.261 39.3805 235.937 38.8775C235.74 38.6144 235.477 38.4083 235.174 38.2801C234.872 38.1518 234.541 38.106 234.215 38.1472H234.242ZM234.955 41.5821V41.8417C234.989 42.3875 234.937 42.9354 234.798 43.4645C234.747 43.5621 234.669 43.6429 234.573 43.6976C234.478 43.7522 234.368 43.7783 234.259 43.7728C234.145 43.7817 234.032 43.7545 233.935 43.6953C233.838 43.6361 233.763 43.5477 233.719 43.4428C233.589 42.8409 233.542 42.2239 233.578 41.6091V41.0141C233.542 40.5311 233.593 40.0453 233.73 39.5807C233.783 39.4855 233.862 39.4072 233.957 39.3546C234.052 39.302 234.161 39.2773 234.269 39.2832C234.383 39.2743 234.496 39.3014 234.593 39.3606C234.689 39.4199 234.765 39.5082 234.809 39.6131C234.947 40.1293 235 40.6647 234.966 41.198L234.955 41.5821ZM240.677 38.5475C240.543 38.409 240.38 38.3015 240.2 38.2324C240.02 38.1633 239.827 38.1342 239.635 38.1472C239.364 38.1482 239.098 38.2259 238.869 38.3713C238.64 38.5168 238.456 38.7241 238.339 38.9694V38.3203H236.936V44.7573H238.372V40.6571C238.35 40.3284 238.404 39.9991 238.528 39.6943C238.58 39.5984 238.659 39.5203 238.755 39.4702C238.851 39.42 238.96 39.4 239.068 39.413C239.158 39.4046 239.249 39.4207 239.331 39.4598C239.412 39.4988 239.482 39.5593 239.532 39.6347C239.646 39.8874 239.694 40.1645 239.673 40.4407V44.7681H241.055V39.7105C241.074 39.2802 240.929 38.8587 240.65 38.5313L240.677 38.5475Z" fill="#939598"/>
</g>
<defs>
<clipPath id="clip0_156_216">
<rect width="241" height="46" fill="white" transform="translate(0 0.920898)"/>
</clipPath>
</defs>
</svg>
