<svg width="165" height="61" viewBox="0 0 165 61" fill="none" xmlns="http://www.w3.org/2000/svg">
<path d="M0.576172 1.03125H3.9922V35.644H0.576172V1.03125Z" fill="#4F4E4D"/>
<path d="M85.7356 0.19157C90.9566 0.19157 95.3261 1.93563 98.8442 5.42369C102.362 8.91175 104.122 13.2104 104.124 18.3198C104.124 23.3751 102.369 27.6649 98.8581 31.1894C95.3476 34.7138 91.0671 36.4743 86.0164 36.4709C80.9025 36.4709 76.587 34.7159 73.0697 31.2059C69.5525 27.6958 67.793 23.4525 67.7914 18.476C67.7718 15.2441 68.6009 12.0641 70.1952 9.25572C71.7469 6.49394 74.0054 4.19777 76.7373 2.60434C79.4692 1.01091 82.5755 0.177984 85.7356 0.19157V0.19157ZM85.8861 3.53494C83.3182 3.55818 80.8006 4.25152 78.5807 5.54677C76.3609 6.84202 74.5153 8.69458 73.2253 10.9223C71.9374 13.1817 71.2925 15.6996 71.2909 18.476C71.2909 22.5809 72.718 26.0503 75.5723 28.8843C78.4266 31.7182 81.8645 33.1339 85.8861 33.1314C88.5021 33.1477 91.0764 32.4736 93.3507 31.1767C95.5885 29.9204 97.4397 28.072 98.7025 25.8329C99.9829 23.5735 100.624 21.0704 100.624 18.3034C100.624 15.568 99.9829 13.0827 98.7025 10.8639C97.4221 8.64517 95.6167 6.86687 93.2925 5.53283C91.0436 4.22059 88.4877 3.53113 85.8861 3.53494V3.53494Z" fill="#EA5C3F"/>
<path d="M109.314 1.03125H116.134C118.877 1.03125 120.985 1.35534 122.46 2.00353C123.899 2.62707 125.117 3.6743 125.95 5.00673C126.757 6.30269 127.199 7.79327 127.23 9.32073C127.261 10.8482 126.88 12.3557 126.128 13.6837C125.39 14.939 124.308 15.9685 122.882 16.7427C124.654 17.3571 126.009 18.0717 126.961 18.9006C127.912 19.7213 128.672 20.7412 129.187 21.8885C129.722 23.0857 129.993 24.3846 129.981 25.6964C129.981 28.4745 128.969 30.8265 126.945 32.7525C124.921 34.6785 122.204 35.6406 118.796 35.6389H109.318L109.314 1.03125ZM112.73 4.45838V15.5014H114.721C117.131 15.5014 118.905 15.2796 120.043 14.8362C121.138 14.4203 122.08 13.6779 122.742 12.7089C123.396 11.7724 123.743 10.6549 123.735 9.5115C123.735 7.93756 123.18 6.69998 122.069 5.79878C120.958 4.89757 119.187 4.44822 116.755 4.45076L112.73 4.45838ZM112.73 18.9285V32.2143H117.016C119.546 32.2143 121.396 31.9719 122.572 31.4743C123.725 30.9994 124.712 30.1924 125.409 29.1553C126.174 28.043 126.548 26.7066 126.471 25.3573C126.394 24.0081 125.871 22.7231 124.984 21.7057C123.987 20.5557 122.613 19.7764 120.869 19.3512C119.685 19.0656 117.628 18.9285 114.695 18.9285H112.73Z" fill="#4F4E4D"/>
<path d="M136.291 1.03125H139.707V35.644H136.291V1.03125Z" fill="#4F4E4D"/>
<path d="M146.401 4.45838V1.03125H164.482L150.162 32.2131H163.731V35.6402H144.811L159.222 4.45838H146.401Z" fill="#4F4E4D"/>
<path d="M59.2271 1.04882V27.3667L36.3993 1.04882L35.6465 1.02344L35.7768 32.7117L38.1895 35.6362H39.2308V9.53669L61.8676 35.6362H62.6444V1.02344L59.2271 1.04882Z" fill="#4F4E4D"/>
<path d="M36.4103 1.03994L35.5917 1.04882V27.3667L12.7664 1.04882L12.0098 1.02344V35.6362H15.5941V9.53669L38.2321 35.6362H39.009L38.9495 4.15355L36.4103 1.03994Z" fill="#4F4E4D"/>
<path d="M82.4576 51.9382C81.6851 52.2111 80.8693 52.3467 80.0485 52.3383C78.8073 52.3792 77.5818 52.0556 76.5286 51.4086C75.7722 50.9568 75.209 50.2492 74.9446 49.4188C74.8196 49.0207 74.7814 48.6013 74.8326 48.1876C74.8838 47.774 75.0232 47.3758 75.2416 47.0188C75.816 46.2097 76.6877 45.6515 77.6727 45.4619H74.9227V43.6125H78.7506V42.5312H81.4565V43.6125H85.1745V45.4619H82.4025C82.745 45.5554 83.0797 45.6742 83.4035 45.8182C83.6856 45.9349 83.9486 46.0917 84.1845 46.2833H87.3084V42.5856H90.0145V52.8246H87.3084V51.7433H84.0745V50.9868C83.6091 51.4116 83.0583 51.7356 82.4576 51.9382V51.9382ZM78.1676 47.2131C77.974 47.3707 77.819 47.5692 77.7143 47.7938C77.6095 48.0184 77.5577 48.2637 77.5626 48.5107C77.5641 48.76 77.6187 49.0058 77.7229 49.233C77.8271 49.4602 77.9786 49.6634 78.1676 49.8295C78.6815 50.2764 79.3521 50.5092 80.0375 50.4784C80.7328 50.5087 81.4137 50.2765 81.9406 49.8295C82.1378 49.6682 82.2969 49.4671 82.4071 49.2393C82.5172 49.0115 82.5758 48.7629 82.5786 48.5107C82.582 48.2606 82.5261 48.0132 82.4154 47.788C82.3047 47.5628 82.1421 47.3658 81.9406 47.2131C81.401 46.7939 80.7243 46.5827 80.0375 46.6186C79.3605 46.5805 78.6936 46.7924 78.1676 47.2131V47.2131ZM85.2625 48.7267C85.2528 48.9593 85.2234 49.191 85.1745 49.4188L85.0755 49.6353C85.046 49.7176 85.0092 49.7969 84.9656 49.8728H87.3084V48.1106H85.2296C85.264 48.3141 85.275 48.5207 85.2625 48.7267V48.7267Z" fill="#4F4E4D"/>
<path d="M9.35404 43.0405V48.4466C9.4332 50.7737 8.71246 53.059 7.30808 54.934C5.80886 56.6902 3.86681 58.0285 1.67616 58.8155L0.576172 57.3346C2.21159 56.6986 3.67041 55.6905 4.83311 54.3934C6.05938 52.9369 6.70802 51.0936 6.65913 49.2037V45.0298H1.01619V43.0621L9.35404 43.0405ZM15.6681 42.6836V60.0698H12.962V42.6947L15.6681 42.6836Z" fill="#4F4E4D"/>
<path d="M30.7383 45.5716C32.1864 46.1791 33.7402 46.506 35.3143 46.534L34.4233 48.1775C32.8069 48.0507 31.2117 47.7348 29.6714 47.2367C28.6886 46.9819 27.8187 46.4159 27.1964 45.6259C26.565 46.4062 25.6987 46.9698 24.7215 47.2367C23.2393 47.7268 21.7032 48.0427 20.1455 48.1775L19.3535 46.534C20.8319 46.4957 22.2872 46.1648 23.6325 45.561C24.2261 45.3583 24.7484 44.9929 25.1381 44.5083C25.5278 44.0237 25.7688 43.4397 25.8325 42.8252H28.5384C28.5877 43.4455 28.8231 44.0374 29.2147 44.5262C29.6063 45.0151 30.1365 45.3789 30.7383 45.5716V45.5716ZM35.1383 51.1614H28.5384V52.5024H34.2254V57.1082H22.9175V57.898H34.3684V59.8656H22.6864C22.0278 59.9083 21.3747 59.7248 20.8385 59.3467C20.6308 59.1669 20.4674 58.943 20.3607 58.692C20.254 58.441 20.2067 58.1696 20.2224 57.898V55.1622H31.5193V54.4484H20.2775V52.5024H25.9094V51.1509H19.3864V49.2587H35.1823L35.1383 51.1614Z" fill="#4F4E4D"/>
<path d="M45.6427 52.015C44.8755 52.2932 44.0623 52.429 43.2447 52.4151C42.001 52.4594 40.7721 52.1394 39.7137 51.496C38.9593 51.0419 38.3968 50.3357 38.1297 49.5067C38.0078 49.1063 37.9713 48.6857 38.0224 48.2708C38.0735 47.8559 38.2112 47.4558 38.4267 47.0956C39.0063 46.2938 39.8761 45.7404 40.8576 45.5492H38.1187V43.7004H41.9466V42.6191H44.6417V43.7004H48.3596V45.5492H45.5766C45.915 45.6444 46.2459 45.7638 46.5666 45.9061C46.8529 46.0211 47.1198 46.1781 47.3586 46.3712H50.4715V42.6624H53.1776V52.9019H50.4715V51.8207H47.2817V51.0636C46.8098 51.491 46.2512 51.8151 45.6427 52.015V52.015ZM53.1996 53.6801V60.0703H50.4935V55.6588H39.3507V53.7234L53.1996 53.6801ZM41.3637 47.2904C41.1691 47.4502 41.0129 47.6502 40.9064 47.8764C40.7999 48.1026 40.7456 48.3494 40.7477 48.5986C40.7514 48.8469 40.8082 49.0918 40.9143 49.3172C41.0204 49.5425 41.1736 49.7434 41.3637 49.9069C41.6158 50.1326 41.9107 50.3068 42.2317 50.42C42.5526 50.5332 42.8931 50.583 43.2336 50.5663C43.9279 50.5987 44.6073 50.362 45.1256 49.9069C45.3225 49.7477 45.4817 49.5479 45.5919 49.3219C45.7021 49.0959 45.7608 48.8492 45.7637 48.5986C45.7663 48.3471 45.7101 48.0985 45.5995 47.8717C45.4888 47.6448 45.3267 47.4459 45.1256 47.2904C44.5879 46.8755 43.9165 46.6641 43.2336 46.6954C42.5571 46.6604 41.8912 46.8725 41.3637 47.2904V47.2904ZM48.4586 48.804C48.4457 49.037 48.4127 49.2687 48.3596 49.4961L48.2715 49.7232C48.2306 49.7968 48.1939 49.8725 48.1616 49.9502H50.4935V48.1768H48.4145C48.4535 48.3835 48.4683 48.594 48.4586 48.804V48.804Z" fill="#4F4E4D"/>
<path d="M64.9145 48.6631C65.6824 49.8161 66.7811 50.7191 68.0715 51.2579L66.7846 52.7821C65.751 52.2543 64.7868 51.6048 63.9136 50.8472C63.1737 50.2498 62.5607 49.515 62.1096 48.6847C61.6179 49.5062 60.9851 50.2378 60.2396 50.8472C59.3894 51.5866 58.4514 52.2219 57.4457 52.7393L56.3457 51.2796C57.535 50.6627 58.5483 49.7633 59.2936 48.6631C60.3496 46.8982 60.8618 44.8695 60.7677 42.824H63.4956C63.3924 44.8634 63.8846 46.8897 64.9145 48.6631V48.6631ZM61.1306 57.929H72.1305V59.875H60.8556C60.2036 59.928 59.5514 59.7729 58.9966 59.4321C58.8055 59.2392 58.6594 59.0076 58.5682 58.7537C58.4771 58.4998 58.4431 58.2293 58.4686 57.9612V54.2746H61.1747L61.1306 57.929ZM71.9655 42.6836V55.2043H69.2595V42.6836H71.9655Z" fill="#4F4E4D"/>
<path d="M108.473 52.5018H101.873V53.7667C103.363 53.8123 104.816 54.2291 106.097 54.9778C106.504 55.1847 106.849 55.4935 107.096 55.8732C107.344 56.2529 107.485 56.6899 107.505 57.1403C107.47 57.6483 107.29 58.1366 106.987 58.5493C106.683 58.9621 106.268 59.2831 105.789 59.4759C104.173 60.268 102.378 60.6403 100.575 60.5571C98.7503 60.6418 96.9336 60.2698 95.2951 59.4759C94.8177 59.2815 94.405 58.9594 94.1038 58.5467C93.8025 58.134 93.6246 57.6471 93.5902 57.1403C93.6073 56.6945 93.7421 56.2608 93.9812 55.8816C94.2203 55.5025 94.5556 55.1911 94.9541 54.9778C96.2403 54.2409 97.6905 53.825 99.178 53.7667V52.5018H92.5781V50.5557H108.418L108.473 52.5018ZM107.373 43.0088V45.0086H101.796C101.796 45.7547 102.423 46.4037 103.71 46.9552C105.209 47.5433 106.795 47.8866 108.407 47.9715L107.241 49.5389C105.785 49.4117 104.345 49.1475 102.94 48.7497C102.029 48.5146 101.184 48.0825 100.465 47.4847C99.7139 48.0836 98.8394 48.5151 97.902 48.7497C96.5496 49.1315 95.1657 49.3956 93.7662 49.5389L92.7431 47.9498C94.3292 47.8951 95.8914 47.5541 97.352 46.9441C98.529 46.4143 99.1121 45.7655 99.1121 45.0086H93.7771V43.0088H107.373ZM97.3412 56.1673C96.6592 56.4159 96.3181 56.7402 96.3181 57.1186C96.3181 57.4971 96.6592 57.8108 97.3412 58.0811C98.3827 58.4041 99.4725 58.5503 100.564 58.5134C101.641 58.55 102.717 58.4038 103.743 58.0811C104.436 57.8108 104.777 57.4971 104.777 57.1186C104.777 56.7402 104.436 56.4159 103.743 56.1673C102.718 55.8365 101.642 55.6863 100.564 55.7238C99.4698 55.6972 98.3792 55.8582 97.3412 56.1995V56.1673Z" fill="#4F4E4D"/>
<path d="M84.3318 53.7666C85.8229 53.8025 87.2787 54.22 88.5557 54.9777C88.9653 55.1819 89.3119 55.4902 89.5595 55.8705C89.8071 56.2507 89.9466 56.689 89.9637 57.1402C89.9275 57.6466 89.7475 58.133 89.4442 58.544C89.1408 58.9549 88.7264 59.2738 88.2478 59.4647C86.6322 60.2568 84.8372 60.6291 83.0338 60.5459C81.2091 60.6306 79.3924 60.2586 77.7539 59.4647C77.278 59.2711 76.8665 58.9514 76.5654 58.5408C76.2642 58.1302 76.0853 57.6451 76.0488 57.1402C76.0638 56.6939 76.1978 56.2594 76.4372 55.88C76.6765 55.5005 77.0129 55.1894 77.4128 54.9777C78.6947 54.2312 80.1476 53.8145 81.6368 53.7666H84.3318ZM79.7998 56.1561C79.1178 56.4048 78.7769 56.729 78.7769 57.1074C78.7769 57.4859 79.1178 57.7996 79.7998 58.0699C80.8401 58.3983 81.9311 58.5445 83.0228 58.5023C84.1002 58.5442 85.1766 58.3979 86.2018 58.0699C86.8948 57.7996 87.2357 57.4859 87.2357 57.1074C87.2357 56.729 86.8948 56.4048 86.2018 56.1561C85.1762 55.8297 84.1001 55.6834 83.0228 55.7237C81.9312 55.6839 80.8407 55.8301 79.7998 56.1561V56.1561Z" fill="#4F4E4D"/>
<path d="M122.578 48.479C123.902 49.7776 125.541 50.7229 127.34 51.2254L126.142 52.7612C124.666 52.305 123.257 51.6616 121.951 50.8474C120.882 50.1472 119.972 49.2379 119.278 48.1765C118.609 49.2385 117.707 50.1399 116.638 50.8146C115.316 51.6304 113.893 52.2738 112.403 52.7284L111.303 51.1932C113.054 50.6721 114.641 49.7192 115.912 48.4252C117.3 46.8741 118.025 44.856 117.936 42.792H120.631C120.515 44.8629 121.212 46.8982 122.578 48.479V48.479ZM117.903 56.9018V52.0796H120.598V56.9018H127.197V58.794H111.391V56.9018H117.903Z" fill="#4F4E4D"/>
<path d="M138.92 43.0405V48.4466C138.998 50.7717 138.281 53.0554 136.885 54.934C135.384 56.6929 133.438 58.0316 131.243 58.8155L130.143 57.3346C131.778 56.6986 133.237 55.6905 134.4 54.3934C135.617 52.933 136.262 51.0915 136.215 49.2037V45.0298H130.583V43.0621L138.92 43.0405ZM145.234 42.6836V60.0698H142.539V42.6947L145.234 42.6836Z" fill="#4F4E4D"/>
<path d="M157.533 51.0311C156.57 51.6985 155.411 52.0362 154.233 51.993C153.527 52.0367 152.819 51.9323 152.157 51.6862C151.495 51.4402 150.894 51.0582 150.394 50.5659C149.605 49.6485 149.172 48.4857 149.172 47.2842C149.172 46.0828 149.605 44.9205 150.394 44.0031C150.899 43.5181 151.501 43.1423 152.162 42.9002C152.823 42.6581 153.529 42.5548 154.233 42.5972C155.56 42.527 156.863 42.9606 157.874 43.8083C158.686 44.5772 159.183 45.6119 159.271 46.7167H161.317V42.6837H164.012V52.5552H161.317V48.7276H159.117C158.872 49.6507 158.313 50.4639 157.533 51.0311V51.0311ZM153.133 53.1175V54.3397H161.273V53.1175H163.968V59.8968H152.275C152.032 59.9043 151.79 59.8603 151.566 59.767C151.342 59.6736 151.141 59.5332 150.977 59.3562C150.651 58.9512 150.484 58.4452 150.504 57.9292V53.1175H153.133ZM152.363 45.3219C151.977 45.9052 151.792 46.5954 151.835 47.2901C151.797 47.9774 151.982 48.6588 152.363 49.2361C152.578 49.5076 152.856 49.7248 153.174 49.8696C153.491 50.0144 153.839 50.0827 154.189 50.0686C154.537 50.0885 154.884 50.0229 155.199 49.8775C155.514 49.7321 155.787 49.5115 155.993 49.2361C156.387 48.6634 156.58 47.9803 156.543 47.2901C156.58 46.593 156.387 45.9026 155.993 45.3219C155.783 45.0518 155.509 44.8366 155.194 44.6952C154.88 44.5538 154.534 44.4906 154.189 44.511C153.847 44.4995 153.506 44.5671 153.195 44.7079C152.884 44.8487 152.61 45.0588 152.396 45.3219H152.363ZM153.133 56.2751V57.9075H161.273V56.2424L153.133 56.2751Z" fill="#4F4E4D"/>
</svg>
