<svg width="261" height="58" viewBox="0 0 261 58" fill="none" xmlns="http://www.w3.org/2000/svg">
<g clip-path="url(#clip0_5_13230)">
<path d="M79.1022 40.2597L76.0319 44.3623L79.3076 49.0961H77.3906L74.4046 44.3623L77.2853 40.2334L79.1022 40.2597ZM72.8984 40.2597H74.3941V49.1014H72.909L72.8984 40.2597Z" fill="#595757"/>
<path d="M83.5579 48.1339C82.0464 48.1339 81.4513 46.8663 81.4513 44.5941C81.4513 42.4902 82.0148 41.2699 83.4999 41.2699C85.0799 41.2699 85.5328 42.6217 85.5328 44.7834C85.5328 47.1608 84.8534 48.1339 83.5368 48.1339H83.5579ZM83.5737 49.2437C85.8803 49.2437 87.2127 47.4554 87.2127 44.694C87.2127 42.1115 86.0067 40.1338 83.5263 40.1338C81.3144 40.1338 79.8398 41.7696 79.8398 44.6835C79.8398 47.3134 81.0827 49.2437 83.6 49.2437" fill="#595757"/>
<path d="M91.5042 41.4483C92.8102 41.4483 93.3 41.9059 93.3 42.8053C93.309 43.1947 93.1654 43.5722 92.8998 43.8573C92.6312 44.1255 92.2204 44.2255 91.4568 44.2255H90.6984V41.4273L91.5042 41.4483ZM95.3065 49.1013L94.0004 46.9974C93.6483 46.3361 93.1851 45.7402 92.6312 45.2353C94.0162 45.2353 94.8325 44.0729 94.8325 42.8053C94.8325 41.4273 93.9372 40.2754 91.9518 40.2754H89.2344V49.117H90.6774V45.2985C90.7876 45.2984 90.8966 45.3224 90.9966 45.3687C91.0967 45.415 91.1854 45.4826 91.2567 45.5667C91.8574 46.2232 92.3642 46.9595 92.7628 47.7548L93.5317 49.117L95.3065 49.1013Z" fill="#595757"/>
<path d="M97.2031 49.1014V40.2598H102.117L101.927 41.459H98.6724V43.8785H101.4V45.0935H98.6988V47.8496H102.248V49.1014H97.2031Z" fill="#595757"/>
<path d="M107.94 45.5512H105.765C105.966 44.9622 106.877 41.78 106.877 41.78C106.94 42.1271 107.84 45.3619 107.93 45.5512H107.94ZM110.589 49.1016L107.761 40.2441H106.087L103.18 49.1016H104.702L105.418 46.7768H108.288L109.004 49.1016H110.589Z" fill="#595757"/>
<path d="M118.342 49.243C117.808 49.2589 117.278 49.1519 116.792 48.9303C116.306 48.7086 115.878 48.3783 115.54 47.9649C114.843 47.0641 114.485 45.9469 114.529 44.809C114.5 43.8798 114.702 42.958 115.119 42.1265C115.423 41.5198 115.888 41.0086 116.464 40.6494C117.041 40.2902 117.705 40.097 118.384 40.091C119.174 40.0707 119.948 40.3131 120.585 40.7801L119.906 41.7794C119.471 41.4522 118.94 41.2767 118.395 41.2797C118.032 41.2765 117.676 41.373 117.365 41.5585C117.054 41.744 116.799 42.0115 116.63 42.3317C116.276 43.0532 116.116 43.8545 116.167 44.6565C116.117 45.4061 116.236 46.1573 116.514 46.8551C116.677 47.2393 116.952 47.5653 117.303 47.7898C117.655 48.0143 118.067 48.1267 118.484 48.1122C119.062 48.1257 119.625 47.9252 120.064 47.5494L120.759 48.4803C120.063 49.0055 119.209 49.2798 118.337 49.2588" fill="#595757"/>
<path d="M125.473 48.1339C123.962 48.1339 123.367 46.8663 123.367 44.5941C123.367 42.4902 123.93 41.2699 125.415 41.2699C126.995 41.2699 127.448 42.6217 127.448 44.7834C127.448 47.1608 126.769 48.1339 125.452 48.1339H125.473ZM125.489 49.2437C127.796 49.2437 129.123 47.4554 129.123 44.694C129.123 42.1115 127.922 40.1338 125.436 40.1338C123.225 40.1338 121.75 41.7696 121.75 44.6835C121.75 47.3134 122.988 49.2437 125.51 49.2437" fill="#595757"/>
<path d="M133.688 41.4485C133.912 41.4293 134.137 41.4578 134.348 41.5322C134.56 41.6065 134.753 41.725 134.915 41.8798C135.173 42.1918 135.302 42.591 135.273 42.9948C135.273 44.0468 134.778 44.5728 133.694 44.5728H132.54V41.4695L133.688 41.4485ZM136.901 42.9054C136.917 42.4596 136.812 42.0177 136.598 41.6262C136.384 41.2347 136.068 40.908 135.684 40.6806C135.2 40.386 134.726 40.2598 133.43 40.2598H131.076V49.1067H132.535V45.7299H134.036C134.414 45.7492 134.792 45.6896 135.146 45.5549C135.5 45.4203 135.822 45.2136 136.091 44.9479C136.361 44.6822 136.572 44.3634 136.711 44.0118C136.851 43.6601 136.915 43.2834 136.901 42.9054Z" fill="#595757"/>
<path d="M141.661 45.5349V49.101H140.134V45.5244L137.348 40.2646H139.122L140.455 43.0366C140.723 43.5993 140.929 44.1779 140.929 44.1779C140.929 44.1779 141.187 43.5467 141.413 43.0628L142.772 40.2646H144.489L141.661 45.5349Z" fill="#595757"/>
<path d="M147.801 41.4483C149.108 41.4483 149.592 41.9059 149.592 42.8053C149.602 43.194 149.461 43.5713 149.197 43.8573C148.928 44.1255 148.518 44.2255 147.754 44.2255H146.996V41.4273L147.801 41.4483ZM151.604 49.1013L150.298 46.9974C149.834 46.2557 149.244 45.4194 148.928 45.2353C150.314 45.2353 151.13 44.0729 151.13 42.8053C151.13 41.4273 150.235 40.2754 148.249 40.2754H145.553V49.117H146.996V45.2985C147.105 45.2985 147.213 45.3225 147.313 45.3688C147.412 45.4152 147.5 45.4827 147.57 45.5667C148.174 46.2214 148.683 46.958 149.081 47.7548L149.85 49.117L151.604 49.1013Z" fill="#595757"/>
<path d="M154.974 40.2598H153.463V49.1067H154.974V40.2598Z" fill="#595757"/>
<path d="M160.794 49.2169C160.247 49.2509 159.7 49.1552 159.198 48.9376C158.695 48.72 158.252 48.3868 157.903 47.9651C157.194 47.0472 156.844 45.903 156.918 44.7461C156.918 42.9315 157.445 41.6534 158.577 40.8328C159.206 40.3588 159.98 40.1155 160.768 40.1438C161.73 40.123 162.666 40.4541 163.401 41.0748L162.658 41.9952C162.134 41.558 161.472 41.3196 160.789 41.322C159.151 41.322 158.551 42.7527 158.551 44.8197C158.551 46.061 158.777 46.9236 159.204 47.4496C159.419 47.673 159.68 47.8481 159.969 47.9632C160.258 48.0784 160.568 48.131 160.878 48.1176C161.289 48.1228 161.695 48.0252 162.058 47.8336V45.514H160.547L160.341 44.3095H163.554V48.4753C162.716 48.9685 161.761 49.2248 160.789 49.2169" fill="#595757"/>
<path d="M170.495 49.1014V45.0146H167.472V49.1014H166.014V40.2598H167.472V43.8154H170.495V40.2598H171.98V49.1014H170.495Z" fill="#595757"/>
<path d="M179.569 41.4853H177.342V49.1067H175.867V41.4853H173.629V40.2598H179.759L179.569 41.4853Z" fill="#595757"/>
<path d="M187.41 49.2431C186.876 49.2598 186.346 49.1532 185.86 48.9315C185.374 48.7098 184.946 48.379 184.609 47.965C183.911 47.0642 183.553 45.947 183.597 44.8091C183.568 43.8799 183.771 42.9581 184.187 42.1266C184.491 41.5199 184.957 41.0087 185.533 40.6495C186.109 40.2903 186.773 40.0971 187.452 40.0911C188.241 40.07 189.014 40.3125 189.648 40.7801L188.974 41.7795C188.539 41.4516 188.008 41.276 187.463 41.2798C187.1 41.2768 186.743 41.3733 186.431 41.5588C186.119 41.7442 185.864 42.0116 185.693 42.3318C185.344 43.0548 185.186 43.8553 185.235 44.6566C185.185 45.4062 185.304 46.1574 185.583 46.8552C185.745 47.2394 186.02 47.5654 186.372 47.7899C186.724 48.0144 187.135 48.1268 187.552 48.1122C188.13 48.1228 188.692 47.9227 189.132 47.5495L189.822 48.4804C189.126 49.0063 188.272 49.2807 187.4 49.2589" fill="#595757"/>
<path d="M194.561 48.1339C193.05 48.1339 192.455 46.8663 192.455 44.5941C192.455 42.4902 193.013 41.2699 194.498 41.2699C196.078 41.2699 196.536 42.6217 196.536 44.7834C196.536 47.1608 195.857 48.1339 194.54 48.1339H194.561ZM194.577 49.2437C196.884 49.2437 198.211 47.4554 198.211 44.694C198.211 42.1115 197.01 40.1338 194.524 40.1338C192.312 40.1338 190.838 41.7696 190.838 44.6835C190.838 47.3134 192.086 49.2437 194.603 49.2437" fill="#595757"/>
<path d="M207.348 49.1014L206.937 43.6208C206.9 43.058 206.874 42.3952 206.874 42.127C206.811 42.4163 206.695 42.9422 206.526 43.505L204.915 49.1014H203.661L202.192 43.747C202.023 43.1579 201.86 42.4058 201.802 42.1112C201.802 42.4058 201.755 43.2105 201.718 43.7628L201.334 49.1014H199.891L200.696 40.2598H202.65L204.009 45.2671C204.214 46.0087 204.288 46.4715 204.341 46.7398C204.42 46.2537 204.528 45.7725 204.662 45.2986L206.058 40.2598H208.017L208.78 49.1014H207.348Z" fill="#595757"/>
<path d="M218.15 49.1014L217.734 43.6208C217.692 43.058 217.665 42.3952 217.665 42.127C217.602 42.4163 217.486 42.9422 217.318 43.505L215.706 49.1014H214.453L212.994 43.747C212.826 43.1579 212.662 42.4058 212.61 42.1112C212.61 42.4058 212.557 43.2105 212.52 43.7628L212.136 49.1014H210.688L211.493 40.2598H213.452L214.811 45.2671C215.016 46.0087 215.09 46.4715 215.143 46.7398C215.222 46.2537 215.33 45.7725 215.464 45.2986L216.86 40.2598H218.813L219.598 49.1014H218.15Z" fill="#595757"/>
<path d="M223.427 40.2598H221.916V49.1067H223.427V40.2598Z" fill="#595757"/>
<path d="M228.093 49.2694C227.072 49.2722 226.069 48.9977 225.191 48.4752L225.75 47.3548C226.465 47.8156 227.295 48.067 228.146 48.0807C229.236 48.0807 229.884 47.5547 229.884 46.6763C229.884 46.0241 229.478 45.6244 228.567 45.3614L227.619 45.0931C226.942 44.956 226.335 44.5832 225.908 44.0412C225.653 43.6582 225.523 43.2066 225.534 42.7473C225.534 41.1693 226.766 40.1174 228.541 40.1174C229.538 40.1086 230.515 40.402 231.343 40.9589L230.679 42.0109C230.06 41.5799 229.327 41.3436 228.572 41.3324C227.703 41.3324 227.124 41.8005 227.124 42.5316C227.124 43.0576 227.435 43.3627 228.304 43.6204L229.357 43.9254C230.637 44.2936 231.537 45.1142 231.537 46.4449C231.537 47.9123 230.347 49.2799 228.077 49.2799" fill="#595757"/>
<path d="M235.746 49.2695C234.724 49.2724 233.721 48.9979 232.844 48.4753L233.407 47.355C234.119 47.8201 234.948 48.0753 235.798 48.0914C236.888 48.0914 237.536 47.5654 237.536 46.687C237.536 46.0348 237.131 45.6351 236.219 45.3721L235.272 45.1038C234.593 44.9653 233.986 44.5929 233.555 44.0519C233.302 43.6683 233.174 43.2168 233.186 42.758C233.186 41.18 234.418 40.1281 236.193 40.1281C237.192 40.1202 238.171 40.4135 239 40.9696L238.331 42.0216C237.713 41.5901 236.979 41.3537 236.225 41.3431C235.356 41.3431 234.782 41.8112 234.782 42.5423C234.782 43.0683 235.087 43.3734 235.956 43.6311L237.009 43.9362C238.289 44.3043 239.184 45.1249 239.184 46.4556C239.184 47.9231 238 49.2906 235.73 49.2906" fill="#595757"/>
<path d="M242.807 40.2598H241.301V49.1067H242.807V40.2598Z" fill="#595757"/>
<path d="M248.495 48.1339C246.983 48.1339 246.388 46.8663 246.388 44.5941C246.388 42.4902 246.952 41.2699 248.437 41.2699C250.017 41.2699 250.47 42.6217 250.47 44.7834C250.47 47.1608 249.79 48.1339 248.474 48.1339H248.495ZM248.511 49.2437C250.812 49.2437 252.144 47.4554 252.144 44.694C252.144 42.1115 250.944 40.1338 248.458 40.1338C246.241 40.1338 244.771 41.7696 244.771 44.6835C244.771 47.3134 246.014 49.2437 248.532 49.2437" fill="#595757"/>
<path d="M258.553 49.1014L256.568 44.9357C256.147 44.0795 255.773 43.2017 255.446 42.3058L255.404 42.3426C255.467 43.0843 255.483 44.0152 255.493 44.7937L255.546 49.0751H254.098V40.2598H255.762L257.916 44.578C258.273 45.314 258.576 46.0752 258.822 46.8555L258.858 46.8187C258.822 46.3663 258.732 45.104 258.732 44.2993L258.706 40.2598H260.101V49.1014H258.553Z" fill="#595757"/>
<path d="M185.251 8.91699V23.0657H181.117V25.2748H185.251V28.6095H188.295V8.91699H185.251Z" fill="#595757"/>
<path d="M170.016 9.2373V11.4411H178.979V19.7147H182.018V9.2373H170.016Z" fill="#595757"/>
<path d="M186.672 18.668H169.209V20.8771H175.692V26.0895H178.609V20.8771H186.672V18.668Z" fill="#595757"/>
<path d="M234.329 20.7041H217.061V22.9079H223.522V27.3261H226.435V22.9079H234.329V20.7041Z" fill="#595757"/>
<path d="M233.085 8.91699V24.5648H228.945V26.7739H233.085V28.6095H236.123V8.91699H233.085Z" fill="#595757"/>
<path d="M218.582 14.1665C218.582 11.1211 221.321 8.6543 224.702 8.6543C228.083 8.6543 230.821 11.1211 230.821 14.1665C230.821 17.2119 228.077 19.6893 224.702 19.6893C221.326 19.6893 218.582 17.2224 218.582 14.177V14.1665ZM224.702 17.4065C225.351 17.453 226 17.303 226.564 16.9759C227.127 16.6488 227.579 16.1599 227.86 15.5728C228.141 14.9858 228.239 14.3277 228.14 13.6845C228.041 13.0412 227.751 12.4425 227.307 11.9663C226.863 11.4901 226.285 11.1586 225.65 11.0148C225.014 10.8711 224.35 10.9218 223.744 11.1604C223.138 11.3989 222.618 11.8143 222.251 12.3524C221.885 12.8904 221.689 13.5263 221.689 14.177C221.674 14.5867 221.741 14.9953 221.884 15.3793C222.027 15.7634 222.245 16.1155 222.525 16.4154C222.805 16.7154 223.141 16.9573 223.515 17.1274C223.888 17.2974 224.291 17.3923 224.702 17.4065Z" fill="#595757"/>
<path d="M212.23 8.91699H209.191V33.0908H212.23V8.91699Z" fill="#595757"/>
<path d="M210.909 22.6396H192.566V24.8487H198.718V33.0908H201.761V24.8487H210.909V22.6396Z" fill="#595757"/>
<path d="M193.803 14.6241C193.803 11.3263 196.694 8.6543 200.254 8.6543C203.814 8.6543 206.705 11.3263 206.705 14.6241C206.705 17.922 203.819 20.6045 200.254 20.6045C196.689 20.6045 193.803 17.922 193.803 14.6241ZM200.254 18.306C202.097 18.306 203.593 16.6597 203.593 14.6241C203.593 12.5886 202.097 10.9423 200.254 10.9423C198.411 10.9423 196.915 12.5939 196.915 14.6241C196.915 16.6544 198.411 18.306 200.254 18.306Z" fill="#595757"/>
<path d="M260.091 8.91699H257.047V33.0908H260.091V8.91699Z" fill="#595757"/>
<path d="M249.796 25.2328V21.2617H246.752V25.2328H240.996V27.4314H258.006V25.2328H249.796Z" fill="#595757"/>
<path d="M249.795 10.9367V8.38574H246.751V10.9367H241.553V13.1458H254.992V10.9367H249.795Z" fill="#595757"/>
<path d="M242.191 17.3588C242.191 14.2818 244.914 11.7939 248.269 11.7939C251.623 11.7939 254.346 14.2818 254.346 17.3588C254.346 20.4357 251.629 22.9236 248.269 22.9236C244.909 22.9236 242.191 20.4305 242.191 17.3588ZM248.269 20.5146C248.91 20.5687 249.553 20.4279 250.112 20.1107C250.672 19.7935 251.123 19.3148 251.405 18.7372C251.687 18.1597 251.788 17.5104 251.695 16.8745C251.601 16.2387 251.317 15.646 250.88 15.1741C250.443 14.7023 249.874 14.3735 249.246 14.2307C248.619 14.088 247.963 14.138 247.364 14.3743C246.766 14.6105 246.253 15.0219 245.893 15.5545C245.532 16.0872 245.342 16.7161 245.346 17.3588C245.319 18.1632 245.611 18.9459 246.158 19.5368C246.705 20.1277 247.464 20.4791 248.269 20.5146Z" fill="#595757"/>
<path d="M132.588 9.2373H119.801V11.4411H132.588V9.2373Z" fill="#595757"/>
<path d="M135.789 8.91699V15.2655H131.312V17.4746H135.789V33.0908H138.833V8.91699H135.789Z" fill="#595757"/>
<path d="M119.252 25.2324V22.876C121.606 22.045 124.581 19.8675 124.581 13.7451H126.967V18.784C126.667 19.9674 124.771 23.9333 119.252 25.2324Z" fill="#595757"/>
<path d="M133.135 25.2324V22.876C130.78 22.045 127.81 19.8675 127.81 13.7451H125.414V18.784C125.72 19.9674 127.615 23.9333 133.135 25.2324Z" fill="#595757"/>
<path d="M127.811 10.4688H124.572V13.7456H127.811V10.4688Z" fill="#595757"/>
<path d="M166.281 13.1616H163.147V8.91699H160.104V21.7771H163.147V15.3707H166.281V13.1616Z" fill="#595757"/>
<path d="M146.605 23.4971V25.7062H160.103V33.0909H163.147V23.4971H146.605Z" fill="#595757"/>
<path d="M157.597 9.2373H144.674V11.4411H157.597V9.2373Z" fill="#595757"/>
<path d="M144.184 21.1192V18.7628C147.206 17.9002 149.513 16.1855 149.513 11.8936H151.841V15.7437C151.493 17.1218 149.666 19.9988 144.184 21.1192Z" fill="#595757"/>
<path d="M152.752 9.91602H149.514V12.1567H152.752V9.91602Z" fill="#595757"/>
<path d="M158.077 21.1192V18.7628C155.054 17.9002 152.748 16.1855 152.748 11.8936H150.42V15.7437C150.768 17.1218 152.605 19.9988 158.077 21.1192Z" fill="#595757"/>
<path d="M115.82 18.2109H93.959V20.4148H115.82V18.2109Z" fill="#595757"/>
<path d="M96.2441 9.2373V11.4411H110.221V18.9573H113.27V9.2373H96.2441Z" fill="#595757"/>
<path d="M96.834 23.7285V25.9324H109.642V33.0909H112.675V23.7285H96.834Z" fill="#595757"/>
<path d="M105.849 19.2842H102.811V24.8122H105.849V19.2842Z" fill="#595757"/>
<path d="M70.1914 17.138C70.1914 13.9243 72.951 11.3154 76.3531 11.3154C79.7551 11.3154 82.5147 13.9453 82.5147 17.138C82.5147 20.3307 79.7551 22.9553 76.3531 22.9553C72.951 22.9553 70.1914 20.3517 70.1914 17.138ZM76.3531 20.7146C78.0594 20.7146 79.4391 19.1367 79.4391 17.138C79.4391 15.1393 78.0594 13.5561 76.3531 13.5561C74.6468 13.5561 73.267 15.1603 73.267 17.138C73.267 19.1157 74.6468 20.7146 76.3531 20.7146Z" fill="#595757"/>
<path d="M83.0731 10.4053H69.6387V12.6144H83.0731V10.4053Z" fill="#595757"/>
<path d="M92.0781 14.1973H86.9961V16.4064H92.0781V14.1973Z" fill="#595757"/>
<path d="M77.8799 7.85938H74.8359V11.031H77.8799V7.85938Z" fill="#595757"/>
<path d="M88.9404 8.92188H85.8965V25.4638H88.9404V8.92188Z" fill="#595757"/>
<path d="M76.5951 30.8864V25.29H73.5459V31.1757C73.5236 31.4273 73.5558 31.6808 73.6402 31.9189C73.7246 32.157 73.8593 32.3742 74.0351 32.5558C74.2109 32.7373 74.4237 32.879 74.6592 32.9712C74.8946 33.0635 75.1472 33.1041 75.3997 33.0903H89.2976V30.8864H76.5951Z" fill="#595757"/>
<path d="M188.521 30.8866H174.249V24.2383H171.337V31.1759C171.315 31.428 171.347 31.6819 171.432 31.9204C171.516 32.1589 171.651 32.3764 171.828 32.5581C172.004 32.7397 172.218 32.8813 172.454 32.9732C172.69 33.065 172.943 33.105 173.196 33.0905H188.521V30.8866Z" fill="#595757"/>
<path d="M236.344 30.8865H222.078V25.248H219.166V31.1758C219.142 31.4271 219.174 31.6805 219.258 31.9186C219.341 32.1567 219.476 32.374 219.651 32.5557C219.826 32.7374 220.039 32.8792 220.274 32.9714C220.509 33.0637 220.762 33.1043 221.014 33.0904H236.344V30.8865Z" fill="#595757"/>
<path d="M25.5384 37.3145C25.5415 36.6624 25.5802 36.011 25.6543 35.3631C24.4736 35.638 23.2644 35.7722 22.0521 35.7629C14.8424 35.7629 9.26011 30.6136 9.26011 22.7871C9.2358 20.9641 9.53536 19.1512 10.1449 17.4326L1.19206 26.3742C0.496127 27.073 0.105469 28.0185 0.105469 29.0041C0.105469 29.9897 0.496127 30.9352 1.19206 31.634L26.0019 56.4127C26.7022 57.1065 27.6486 57.4958 28.635 57.4958C29.6214 57.4958 30.5679 57.1065 31.2682 56.4127L37.4509 50.2377C30.6626 49.838 25.5279 44.8097 25.5279 37.304" fill="#E95504"/>
<path d="M56.0887 26.3794L31.3052 1.60064C30.6049 0.906855 29.6584 0.517578 28.672 0.517578C27.6856 0.517578 26.7392 0.906855 26.0388 1.60064L17.086 10.4844C18.6596 9.86951 20.3363 9.56065 22.0259 9.57443C26.3706 9.57443 29.8517 11.3522 32.6902 13.9085L29.2566 17.3957C26.8077 15.3865 24.6906 14.3398 22.0364 14.3398C18.0498 14.3398 14.832 17.543 14.832 22.6449C14.832 27.5628 17.8233 31.0869 22.2049 31.0869C24.9592 31.0869 27.0184 29.8613 28.909 27.9836C30.1205 26.7239 31.5794 25.7276 33.1942 25.057C34.809 24.3864 36.5451 24.0558 38.2937 24.0861C42.6384 24.0861 46.1195 25.8692 48.9633 28.4307L45.5244 31.9179C43.086 29.9139 40.9637 28.8672 38.3095 28.8672C34.3228 28.8672 31.1051 32.0599 31.1051 37.1671C31.1051 42.0797 34.1016 45.6143 38.478 45.6143C41.2375 45.6143 43.2862 44.3783 45.182 42.511L56.0623 31.6444C56.757 30.9449 57.1468 29.9997 57.1468 29.0145C57.1468 28.0293 56.757 27.0841 56.0623 26.3846" fill="#E95504"/>
</g>
<defs>
<clipPath id="clip0_5_13230">
<rect width="260" height="57" fill="white" transform="translate(0.101562 0.511719)"/>
</clipPath>
</defs>
</svg>
