<svg width="198" height="59" viewBox="0 0 198 59" fill="none" xmlns="http://www.w3.org/2000/svg">
<g clip-path="url(#clip0_5_13202)">
<path d="M84.0419 38.9857V31.5647H86.9638V38.9857H97.6102V41.5822H75.377V38.9857H84.0419ZM92.8134 34.781V23.319H77.1632V20.6699H95.8003V34.781H92.8134Z" fill="#575756"/>
<path d="M104.91 30.5581V28.3359H107.702V30.5581H114.362V28.3359H117.124V30.5581H122.134V33.0727H99.8945V30.5581H104.91ZM116.74 39.2072C116.742 39.9075 116.584 40.5992 116.278 41.2306C115.977 41.8554 115.553 42.4141 115.03 42.8739C113.95 43.8921 112.513 44.4578 111.02 44.4528C110.259 44.4566 109.506 44.3115 108.802 44.0259C108.121 43.7519 107.497 43.3553 106.963 42.8563C106.452 42.3923 106.038 41.8341 105.744 41.2131C105.44 40.5809 105.283 39.8897 105.283 39.1897C105.283 38.4897 105.44 37.7985 105.744 37.1663C106.042 36.5391 106.455 35.972 106.963 35.4938C107.497 34.9942 108.121 34.5976 108.802 34.3242C109.508 34.0479 110.261 33.907 111.02 33.909C111.777 33.9061 112.528 34.047 113.232 34.3242C113.893 34.5992 114.495 34.9962 115.007 35.4938C115.526 35.9677 115.95 36.5354 116.255 37.1663C116.576 37.8059 116.744 38.5104 116.745 39.2248L116.74 39.2072ZM116.686 23.4178C116.69 24.1125 116.533 24.7989 116.225 25.4236C115.919 26.05 115.495 26.6135 114.977 27.0844C113.905 28.0795 112.491 28.6354 111.02 28.64C110.263 28.6423 109.513 28.4952 108.814 28.2072C108.156 27.9479 107.553 27.5668 107.039 27.0844C106.525 26.6118 106.104 26.0486 105.797 25.4236C105.494 24.7996 105.336 24.116 105.336 23.4236C105.336 22.7312 105.494 22.0476 105.797 21.4236C106.1 20.7933 106.522 20.2257 107.039 19.7511C108.117 18.7489 109.541 18.1924 111.02 18.1955C111.773 18.1889 112.52 18.3342 113.214 18.6224C113.872 18.8847 114.475 19.2677 114.989 19.7511C115.51 20.2239 115.934 20.7918 116.237 21.4236C116.545 22.0561 116.701 22.7507 116.692 23.4528L116.686 23.4178ZM113.812 39.1371C113.817 38.7868 113.75 38.4391 113.615 38.1153C113.48 37.7915 113.279 37.4984 113.025 37.254C112.762 36.9983 112.451 36.7968 112.109 36.6613C111.766 36.5258 111.4 36.4589 111.032 36.4645C110.666 36.4573 110.302 36.5235 109.962 36.6592C109.623 36.7949 109.315 36.9972 109.056 37.254C108.794 37.5006 108.585 37.7983 108.445 38.1285C108.304 38.4586 108.235 38.814 108.24 39.1721C108.236 39.5319 108.306 39.8888 108.446 40.2207C108.586 40.5526 108.794 40.8525 109.056 41.102C109.313 41.3614 109.621 41.5663 109.961 41.7041C110.3 41.8418 110.665 41.9096 111.032 41.9031C111.403 41.9059 111.77 41.8349 112.113 41.6942C112.455 41.5536 112.765 41.3462 113.025 41.0844C113.282 40.8357 113.484 40.5378 113.621 40.209C113.757 39.8802 113.824 39.5274 113.818 39.1721L113.812 39.1371ZM113.759 23.4178C113.759 23.0669 113.688 22.7196 113.548 22.3969C113.409 22.0742 113.205 21.7829 112.948 21.5406C112.695 21.2832 112.391 21.0794 112.056 20.9417C111.72 20.8039 111.36 20.7351 110.996 20.7394C110.275 20.7394 109.583 21.0228 109.073 21.5273C108.562 22.0318 108.276 22.716 108.276 23.4294C108.276 24.1429 108.562 24.8271 109.073 25.3316C109.583 25.8361 110.275 26.1195 110.996 26.1195C111.723 26.118 112.421 25.8338 112.937 25.3283C113.454 24.8228 113.749 24.1365 113.759 23.4178Z" fill="#575756"/>
<path d="M146.792 38.9561V41.5818H124.582V38.9561H134.17V33.2017H126.374V20.4824H129.379V30.5584H145.348V33.1842H137.18V38.9386L146.792 38.9561Z" fill="#575756"/>
<path d="M159.189 30.0969V27.8689H151.394V19.7285H170.055V22.249H154.369V25.3835H170.108V27.8689H162.2V30.0969H171.811V32.6116H149.602V30.0969H159.189ZM166.642 38.8221C166.645 39.5575 166.483 40.2844 166.169 40.9507C165.866 41.6114 165.436 42.2073 164.903 42.7051C164.34 43.1992 163.696 43.5948 162.998 43.8747C161.531 44.4675 159.887 44.4675 158.42 43.8747C157.721 43.5948 157.075 43.1993 156.51 42.7051C155.978 42.2071 155.55 41.6111 155.25 40.9507C154.938 40.2834 154.777 39.5571 154.777 38.8221C154.777 38.087 154.938 37.3607 155.25 36.6934C155.553 36.0432 155.981 35.4573 156.51 34.9683C157.074 34.4724 157.72 34.0767 158.42 33.7987C159.889 33.2139 161.53 33.2139 162.998 33.7987C163.697 34.0767 164.341 34.4724 164.903 34.9683C165.434 35.457 165.863 36.0429 166.169 36.6934C166.482 37.3602 166.643 38.0868 166.642 38.8221ZM163.744 38.7695C163.748 38.3776 163.672 37.989 163.518 37.6278C163.364 37.2666 163.137 36.9406 162.85 36.67C162.281 36.1115 161.511 35.7981 160.709 35.7981C159.907 35.7981 159.138 36.1115 158.568 36.67C158.283 36.937 158.057 37.2591 157.903 37.6163C157.75 37.9734 157.672 38.358 157.675 38.7461C157.664 39.1405 157.738 39.5328 157.892 39.8968C158.046 40.2608 158.276 40.5882 158.568 40.8572C159.141 41.4087 159.91 41.7173 160.709 41.7173C161.509 41.7173 162.277 41.4087 162.85 40.8572C163.141 40.5873 163.371 40.2597 163.525 39.8959C163.679 39.5321 163.753 39.1403 163.744 38.7461V38.7695Z" fill="#575756"/>
<path d="M174.898 34.5465H197.108V37.1722H187.497V43.3301H184.486V37.1722H174.898V34.5465ZM179.63 22.8506H192.341V19.8447H195.298V31.336H176.685V19.8447H179.642L179.63 22.8506ZM192.329 25.4178H179.642V28.7161H192.341L192.329 25.4178Z" fill="#575756"/>
<path d="M45.3962 28.1787C40.3037 24.7576 33.7798 26.1553 30.3552 31.3015C29.2525 33.0103 27.6717 34.3658 25.8049 35.2034C23.938 36.041 21.8653 36.3247 19.8384 36.02C17.8116 35.7154 15.9179 34.8354 14.3871 33.487C12.8564 32.1387 11.7545 30.3799 11.2153 28.4243C11.218 28.3892 11.218 28.354 11.2153 28.319C11.2062 28.2735 11.1943 28.2286 11.1798 28.1845C10.7828 26.8346 10.6012 25.4318 10.6416 24.0266C10.6416 14.6699 20.3712 4.20204 34.3949 4.20204C48.7498 4.20204 56.9653 15.0091 59.0828 21.0149L58.9763 20.6933C56.6717 13.9764 52.0267 8.2886 45.8713 4.64598C39.7159 1.00336 32.4511 -0.35672 25.3749 0.808758C18.2987 1.97424 11.8721 5.58933 7.24344 11.0081C2.61474 16.427 0.0854817 23.2964 0.107565 30.3892C0.107565 45.1436 10.8723 57.7752 25.8009 57.7752C37.7071 57.7752 45.7097 51.1728 49.3827 42.0792C51.3937 37.1026 49.9683 31.2547 45.3962 28.1787Z" fill="#003863"/>
<path d="M59.2296 21.594C57.4552 15.746 49.1747 4.20215 34.3585 4.20215C20.3348 4.20215 10.6051 14.6466 10.6051 24.0267C10.5647 25.4319 10.7463 26.8348 11.1434 28.1846C10.9649 27.4866 10.8715 26.77 10.8654 26.0501C10.8654 16.284 20.7547 9.50624 30.9279 9.50624C37.5389 9.50624 43.8791 12.1024 48.5543 16.7237C53.2294 21.3451 55.8567 27.6132 55.8583 34.1495C55.8625 39.2067 54.4385 44.1647 51.7466 48.4649C49.0547 52.7651 45.2019 56.2367 40.6221 58.4887C46.4631 56.3955 51.5101 52.574 55.0765 47.5442C58.643 42.5143 60.5557 36.5203 60.5545 30.3776C60.5643 27.4003 60.1176 24.4388 59.2296 21.594Z" fill="#E4032E"/>
</g>
<defs>
<clipPath id="clip0_5_13202">
<rect width="197" height="58" fill="white" transform="translate(0.107422 0.5)"/>
</clipPath>
</defs>
</svg>
