<svg width="226" height="54" viewBox="0 0 226 54" fill="none" xmlns="http://www.w3.org/2000/svg">
<g clip-path="url(#clip0_5_13182)">
<path d="M41.0725 25.7937C36.4663 22.666 30.5615 23.9416 27.4676 28.6438C26.4706 30.2058 25.041 31.4451 23.3524 32.2111C21.6638 32.977 19.7888 33.2367 17.9552 32.9586C16.1217 32.6805 14.4084 31.8766 13.0236 30.6445C11.6387 29.4123 10.6419 27.805 10.1541 26.0178V25.9164L10.1221 25.7937C9.75865 24.5607 9.59273 23.2782 9.63045 21.9935C9.63045 13.4217 18.4314 3.88381 31.1173 3.88381C44.1024 3.88381 51.5301 13.7526 53.4484 19.2447C53.411 19.1487 53.3843 19.0526 53.3469 18.9512C51.2493 12.8331 47.0462 7.65704 41.4858 4.3442C35.9254 1.03136 29.3685 -0.203265 22.9821 0.860085C16.5958 1.92344 10.7944 5.21577 6.61059 10.1511C2.42678 15.0863 0.132024 21.3444 0.134768 27.8112C0.134768 41.2934 9.87091 52.8381 23.3743 52.8381C34.1471 52.8381 41.3825 46.8015 44.7062 38.4913C46.5017 33.9438 45.2085 28.6011 41.0725 25.7937Z" fill="#003863"/>
<path d="M53.5865 19.7731C51.9834 14.4358 44.5023 3.88379 31.0897 3.88379C18.4039 3.88379 9.6029 13.4216 9.6029 21.9935C9.56518 23.2782 9.7311 24.5607 10.0945 25.7937C9.93031 25.1572 9.84594 24.5028 9.84336 23.8455C9.84336 14.9214 18.7886 8.73545 28.0118 8.73545C33.9911 8.73545 39.7254 11.1079 43.9534 15.3309C48.1814 19.5539 50.5567 25.2815 50.5567 31.2538C50.5597 35.8748 49.2713 40.4048 46.8366 44.3341C44.4018 48.2634 40.9174 51.4359 36.7754 53.4946C42.0591 51.5813 46.6248 48.0892 49.8516 43.493C53.0784 38.8968 54.8097 33.4195 54.8102 27.8058C54.8109 25.0819 54.3983 22.3736 53.5865 19.7731Z" fill="#E4032E"/>
<path d="M74.1702 16.8213L80.9086 27.5654L78.7711 28.9371L74.1862 21.4648L69.6815 29.1506L67.4746 27.7522L74.1702 16.8213ZM71.5518 31.04V35.9344H86.2522V38.3415H68.8319V31.04H71.5518ZM85.6858 30.9173H83.014V16.9441H85.6858V21.9612H88.8225V24.6299H85.6858V30.9173Z" fill="#575756"/>
<path d="M102.272 22.4045C102.277 23.101 102.128 23.7901 101.834 24.422C101.547 25.0407 101.147 25.6001 100.653 26.0712C100.14 26.5523 99.5424 26.9341 98.8899 27.1974C97.52 27.7568 95.985 27.7568 94.615 27.1974C93.9632 26.9328 93.3655 26.5511 92.8516 26.0712C92.3597 25.5999 91.961 25.0404 91.676 24.422C91.3808 23.7904 91.2293 23.1014 91.2325 22.4045C91.2298 21.7024 91.3812 21.0082 91.676 20.3709C91.9571 19.7533 92.3564 19.1967 92.8516 18.7323C93.641 17.9721 94.6353 17.4586 95.7127 17.2548C96.7901 17.0509 97.9036 17.1656 98.9167 17.5848C99.5733 17.8498 100.172 18.2395 100.68 18.7323C101.177 19.1964 101.578 19.753 101.861 20.3709C102.145 21.0107 102.285 21.7048 102.272 22.4045ZM92.8409 28.8413H95.5127V30.9763H107.344V28.8413H110.015V38.3418H92.8409V28.8413ZM99.6755 22.4045C99.6727 21.6333 99.3651 20.8945 98.8197 20.3488C98.2743 19.803 97.5352 19.4945 96.7632 19.4903C96.3811 19.4843 96.0019 19.5576 95.6496 19.7055C95.2974 19.8534 94.9796 20.0727 94.7165 20.3496C94.4443 20.6175 94.2291 20.9376 94.084 21.2908C93.9389 21.6439 93.8669 22.0228 93.8722 22.4045C93.8708 22.784 93.9446 23.1602 94.0894 23.5111C94.2342 23.8621 94.4471 24.181 94.7158 24.4494C94.9846 24.7178 95.3038 24.9304 95.6552 25.075C96.0066 25.2197 96.3831 25.2934 96.7632 25.292C97.1453 25.2973 97.5246 25.2254 97.8782 25.0804C98.2317 24.9355 98.5523 24.7206 98.8205 24.4487C99.0964 24.1852 99.3148 23.8676 99.4619 23.5158C99.609 23.164 99.6818 22.7857 99.6755 22.4045ZM107.344 33.1219H95.5127V36.1321H107.344V33.1219ZM107.296 16.9443H110.015V27.3202H107.296V23.2104H103.598V20.8353H107.296V16.9443Z" fill="#575756"/>
<path d="M133.827 29.4227H113.74V27.197H122.429V25.7773H115.354V17.1895H132.187V19.4151H118.004V20.4826H132.187V22.5161H118.004V23.6156H132.235V25.7506H125.101V27.1703H133.822L133.827 29.4227ZM129.151 34.76C129.155 35.4302 129.007 36.0926 128.719 36.6975C128.445 37.2881 128.058 37.8194 127.58 38.2614C127.085 38.7144 126.514 39.0759 125.892 39.3288C125.241 39.6028 124.541 39.7408 123.834 39.7345C123.123 39.7403 122.418 39.6023 121.761 39.3288C121.135 39.0786 120.559 38.7169 120.062 38.2614C119.584 37.8194 119.197 37.2881 118.924 36.6975C118.635 36.0926 118.487 35.4302 118.491 34.76C118.486 34.0966 118.634 33.4411 118.924 32.8439C119.199 32.2574 119.585 31.7299 120.062 31.2908C120.559 30.8352 121.135 30.4736 121.761 30.2233C122.418 29.9498 123.123 29.8118 123.834 29.8177C124.541 29.8113 125.241 29.9493 125.892 30.2233C126.514 30.4762 127.085 30.8377 127.58 31.2908C128.057 31.7299 128.443 32.2574 128.719 32.8439C129.011 33.4475 129.159 34.1108 129.151 34.7814V34.76ZM126.528 34.76C126.532 34.4075 126.465 34.0576 126.33 33.7318C126.195 33.4061 125.995 33.1112 125.742 32.8653C125.497 32.6075 125.201 32.4037 124.872 32.2667C124.544 32.1298 124.19 32.0628 123.834 32.07C123.476 32.0632 123.12 32.1303 122.789 32.2671C122.458 32.404 122.159 32.6076 121.911 32.8653C121.654 33.1093 121.452 33.4036 121.315 33.7296C121.178 34.0557 121.109 34.4065 121.114 34.76C121.109 35.1121 121.177 35.4615 121.314 35.7858C121.451 36.1102 121.654 36.4025 121.911 36.6441C122.161 36.8984 122.461 37.099 122.792 37.2339C123.123 37.3688 123.477 37.435 123.834 37.4287C124.543 37.4287 125.223 37.1476 125.724 36.6471C126.225 36.1466 126.506 35.4678 126.506 34.76H126.528Z" fill="#575756"/>
<path d="M146.957 27.7367L142.399 21.1077L137.868 27.9075L135.688 26.4665L142.399 16.6777L149.148 26.2423L146.957 27.7367ZM152.98 34.1416C152.984 34.8547 152.83 35.5599 152.531 36.2071C152.236 36.8396 151.832 37.4158 151.339 37.9098C150.806 38.4033 150.189 38.7974 149.517 39.0733C148.82 39.3575 148.074 39.5026 147.321 39.5003C146.566 39.5016 145.818 39.3566 145.119 39.0733C144.44 38.8015 143.817 38.407 143.281 37.9098C142.774 37.4223 142.363 36.8449 142.068 36.2071C141.769 35.5586 141.614 34.853 141.614 34.1389C141.614 33.4248 141.769 32.7192 142.068 32.0707C142.356 31.422 142.764 30.8335 143.27 30.336C143.803 29.8352 144.427 29.4403 145.108 29.1725C145.808 28.8892 146.555 28.7442 147.31 28.7455C148.063 28.7432 148.809 28.8883 149.506 29.1725C150.184 29.4433 150.806 29.8378 151.339 30.336C151.832 30.828 152.236 31.4024 152.531 32.0333C152.834 32.6888 152.987 33.4035 152.98 34.1256V34.1416ZM150.334 34.1416C150.339 33.7471 150.26 33.3562 150.103 32.994C149.947 32.6318 149.716 32.3063 149.426 32.0387C149.147 31.7559 148.814 31.5322 148.447 31.3808C148.08 31.2295 147.686 31.1537 147.289 31.158C146.891 31.1519 146.496 31.2268 146.129 31.3782C145.761 31.5297 145.429 31.7544 145.151 32.0387C144.869 32.3132 144.644 32.6414 144.491 33.004C144.338 33.3665 144.259 33.7561 144.259 34.1496C144.259 34.5431 144.338 34.9326 144.491 35.2952C144.644 35.6578 144.869 35.986 145.151 36.2605C145.431 36.5406 145.765 36.7616 146.132 36.9101C146.499 37.0587 146.892 37.1318 147.289 37.1252C147.684 37.13 148.077 37.056 148.444 36.9076C148.811 36.7591 149.145 36.5392 149.426 36.2605C149.724 35.9867 149.96 35.6518 150.116 35.2787C150.273 34.9057 150.348 34.5032 150.334 34.0989V34.1416ZM154.075 20.8782H157.206V23.5469H154.075V28.1744H151.376V16.9659H154.075V20.8782Z" fill="#575756"/>
<path d="M158.91 20.6912V18.2947H171.943V20.6912H166.455L172.531 34.9579L170.153 35.9827L165.477 24.8276L160.871 36.1535L158.418 35.1394L164.494 20.7285L158.91 20.6912ZM176.966 38.7741H174.294V16.9443H176.966V25.4147H180.097V28.1314H176.966V38.7741Z" fill="#575756"/>
<path d="M190.54 29.5245V32.4707H187.841V29.5352H181.889V27.2828H196.466V29.5352L190.54 29.5245ZM185.982 31.43V35.9827H201.585V38.3418H183.262V31.43H185.982ZM194.238 21.5719C194.24 22.2275 194.094 22.8752 193.81 23.4666C193.248 24.6708 192.244 25.6129 191.005 26.0979C189.699 26.6175 188.244 26.6175 186.938 26.0979C186.316 25.8422 185.743 25.4811 185.244 25.0305C184.785 24.5644 184.409 24.0228 184.133 23.4293C183.845 22.8393 183.697 22.1909 183.7 21.5345C183.697 20.8815 183.845 20.2365 184.133 19.6504C184.414 19.0694 184.789 18.539 185.244 18.0812C185.737 17.6219 186.311 17.2598 186.938 17.0137C188.247 16.5084 189.697 16.5084 191.005 17.0137C191.624 17.2564 192.189 17.6192 192.667 18.0812C193.137 18.5337 193.524 19.0647 193.81 19.6504C194.101 20.2489 194.247 20.9069 194.238 21.5719ZM191.668 21.5719C191.672 21.2233 191.604 20.8776 191.469 20.5562C191.334 20.2348 191.134 19.9447 190.882 19.7038C190.37 19.2072 189.685 18.9294 188.972 18.9294C188.258 18.9294 187.573 19.2072 187.061 19.7038C186.813 19.9477 186.616 20.2384 186.482 20.5591C186.347 20.8799 186.278 21.2241 186.278 21.5719C186.278 21.9196 186.347 22.2639 186.482 22.5846C186.616 22.9053 186.813 23.1961 187.061 23.4399C187.573 23.9365 188.258 24.2143 188.972 24.2143C189.685 24.2143 190.37 23.9365 190.882 23.4399C191.131 23.2013 191.33 22.9146 191.465 22.5971C191.6 22.2797 191.669 21.9381 191.668 21.5932V21.5719ZM198.31 25.3614H195.2V23.1357H198.31V16.9444H200.982V32.7056H198.31V25.3614Z" fill="#575756"/>
<path d="M205.016 30.7305H225.102V33.1323H216.408V38.7579H213.688V33.1323H205.016V30.7305ZM209.291 20.0558H220.785V17.291H223.457V27.7896H206.635V17.2964H209.307L209.291 20.0558ZM220.785 22.4095H209.301V25.4145H220.795L220.785 22.4095Z" fill="#575756"/>
</g>
<defs>
<clipPath id="clip0_5_13182">
<rect width="225" height="53" fill="white" transform="translate(0.107422 0.5)"/>
</clipPath>
</defs>
</svg>
