<svg width="147" height="126" viewBox="0 0 147 126" fill="none" xmlns="http://www.w3.org/2000/svg">
<path d="M1.55557 1.2647C1.30167 1.26266 1.05174 1.32745 0.831284 1.45248C0.610825 1.57751 0.427708 1.7583 0.300553 1.97644C0.173398 2.19459 0.106749 2.44228 0.107427 2.6943C0.108105 2.94632 0.176044 3.19368 0.304371 3.41115L36.5492 64.6997L49.2383 86.1641L71.705 124.171C71.8693 124.441 72.1186 124.649 72.4143 124.764C72.71 124.879 73.0356 124.894 73.3408 124.807C73.6459 124.72 73.9136 124.535 74.1023 124.281C74.2911 124.028 74.3904 123.72 74.3849 123.404V44.5615C74.3916 44.3042 74.4665 44.0532 74.6021 43.8339C74.7377 43.6145 74.9292 43.4345 75.1572 43.3119L112.46 22.4915L145.67 3.93242C145.946 3.77741 146.164 3.53563 146.287 3.24496C146.411 2.95428 146.434 2.63114 146.353 2.32612C146.271 2.0211 146.09 1.75144 145.838 1.55937C145.586 1.3673 145.277 1.26366 144.959 1.2647H1.55557Z" fill="url(#paint0_linear_201_3501)"/>
<path d="M1.55557 1.2647C1.30167 1.26266 1.05174 1.32745 0.831284 1.45248C0.610825 1.57751 0.427708 1.7583 0.300553 1.97644C0.173398 2.19459 0.106749 2.44228 0.107427 2.6943C0.108105 2.94632 0.176044 3.19368 0.304371 3.41115L36.5492 64.6997L49.2383 86.1641L71.705 124.171C71.8693 124.441 72.1186 124.649 72.4143 124.764C72.71 124.879 73.0356 124.894 73.3408 124.807C73.6459 124.72 73.9136 124.535 74.1023 124.281C74.2911 124.028 74.3904 123.72 74.3849 123.404V44.5615C74.3916 44.3042 74.4665 44.0532 74.6021 43.8339C74.7377 43.6145 74.9292 43.4345 75.1572 43.3119L112.46 22.4915L145.67 3.93242C145.946 3.77741 146.164 3.53563 146.287 3.24496C146.411 2.95428 146.434 2.63114 146.353 2.32612C146.271 2.0211 146.09 1.75144 145.838 1.55937C145.586 1.3673 145.277 1.26366 144.959 1.2647H1.55557Z" fill="url(#paint1_radial_201_3501)" fill-opacity="0.2"/>
<path fill-rule="evenodd" clip-rule="evenodd" d="M0.216797 2.14497C0.240894 2.08721 0.268869 2.03091 0.300616 1.97644C0.427771 1.7583 0.610888 1.57751 0.831347 1.45248C1.0518 1.32745 1.30173 1.26266 1.55563 1.2647H144.959C145.277 1.26366 145.586 1.3673 145.838 1.55937C146.09 1.75144 146.271 2.0211 146.353 2.32612C146.434 2.63114 146.411 2.95428 146.287 3.24496C146.164 3.53563 145.946 3.77741 145.67 3.93242L112.46 22.4915L75.1573 43.3119C74.9293 43.4345 74.7378 43.6145 74.6022 43.8339C74.5318 43.9476 74.4778 44.0699 74.4412 44.1971L0.216797 2.14497Z" fill="url(#paint2_radial_201_3501)" fill-opacity="0.2"/>
<defs>
<linearGradient id="paint0_linear_201_3501" x1="107.792" y1="63.064" x2="-18.208" y2="-10.0752" gradientUnits="userSpaceOnUse">
<stop stop-color="#0633A6"/>
<stop offset="0.9998" stop-color="#456DDE"/>
<stop offset="0.9999" stop-color="#5F5E61"/>
<stop offset="1" stop-color="#2358BE"/>
</linearGradient>
<radialGradient id="paint1_radial_201_3501" cx="0" cy="0" r="1" gradientUnits="userSpaceOnUse" gradientTransform="translate(76.5973 44.247) rotate(-151.488) scale(90.0441 106.577)">
<stop/>
<stop offset="1" stop-opacity="0"/>
</radialGradient>
<radialGradient id="paint2_radial_201_3501" cx="0" cy="0" r="1" gradientUnits="userSpaceOnUse" gradientTransform="translate(76.5973 44.247) rotate(-151.648) scale(112.075 132.653)">
<stop/>
<stop offset="1" stop-opacity="0"/>
</radialGradient>
</defs>
</svg>
