<svg width="266" height="75" viewBox="0 0 266 75" fill="none" xmlns="http://www.w3.org/2000/svg">
<path d="M64.8401 56.1103C64.9476 56.1113 65.0534 56.083 65.1468 56.0282C65.2402 55.9734 65.3179 55.894 65.3721 55.7982C65.4262 55.7024 65.4548 55.5935 65.4551 55.4826C65.4553 55.3716 65.4271 55.2626 65.3734 55.1666L49.7178 27.6404L44.2326 18.0063L34.5193 0.940048C34.4535 0.817207 34.3497 0.720619 34.2246 0.665627C34.0995 0.610638 33.9602 0.600403 33.8289 0.63657C33.6975 0.672737 33.5816 0.753231 33.4996 0.865227C33.4176 0.977219 33.3743 1.11429 33.3765 1.25464V36.6454C33.3738 36.7608 33.3404 36.8732 33.2799 36.9703C33.2194 37.0674 33.1343 37.1455 33.0337 37.1959L16.921 46.5548L2.59848 54.8913C2.47948 54.9592 2.38589 55.0663 2.33262 55.1954C2.27935 55.3246 2.26946 55.4684 2.30449 55.604C2.33953 55.7397 2.41745 55.8593 2.52594 55.9439C2.63443 56.0285 2.76721 56.0733 2.90316 56.071L64.8401 56.1103Z" fill="#E34049"/>
<path d="M0.802513 18.8851L0.802502 18.8851L0.80427 18.8882L16.4599 46.4144L16.46 46.4146L21.9451 56.0487L21.9452 56.0487L31.6558 73.1101C31.7735 73.3265 31.9591 73.4998 32.1865 73.5997L32.3877 73.142L32.1865 73.5997C32.4164 73.7008 32.6736 73.7199 32.9161 73.6531C33.1584 73.5864 33.3689 73.4389 33.5162 73.2377C33.6624 73.038 33.7387 72.7959 33.7358 72.5496V37.1702C33.7371 37.1448 33.7447 37.1211 33.7568 37.1016C33.7695 37.0813 33.786 37.067 33.8029 37.0586L33.8165 37.0517L33.8297 37.0441L49.9425 27.6852L49.9429 27.6849L64.2617 19.3506C64.2624 19.3502 64.2631 19.3498 64.2638 19.3494C64.4803 19.2251 64.6474 19.0319 64.7419 18.8028C64.8366 18.5733 64.8539 18.3187 64.7919 18.0785C64.7299 17.8383 64.591 17.6232 64.3939 17.4695L64.3939 17.4694C64.1977 17.3165 63.9557 17.2336 63.7058 17.2366L1.77682 17.1973L1.77217 17.6973L1.77249 17.1973L1.77432 17.1973C1.57645 17.1959 1.38261 17.2484 1.21247 17.3482C1.04176 17.4484 0.901692 17.5922 0.804918 17.7634C0.70817 17.9347 0.65765 18.128 0.657229 18.324C0.656809 18.52 0.706544 18.7136 0.802513 18.8851Z" fill="#E34049" stroke="white"/>
<path d="M97.4565 12.3103C95.7936 11.3545 93.912 10.8791 92.0094 10.934C90.1192 10.8803 88.25 11.3559 86.6004 12.3103C84.9825 13.2041 83.6571 14.5724 82.7912 16.2426C81.9263 18.0644 81.4954 20.0732 81.5342 22.1017V30.7135C81.4907 32.7551 81.9217 34.7777 82.7912 36.6119C83.6679 38.2738 84.9905 39.6392 86.6004 40.5442C88.2567 41.4809 90.1212 41.9553 92.0094 41.9205C93.9168 41.9326 95.7942 41.4312 97.4565 40.4656C99.0081 39.5468 100.266 38.18 101.075 36.5333C101.975 34.7089 102.421 32.6816 102.37 30.6348V22.1017C102.416 20.068 101.971 18.0546 101.075 16.2426C100.277 14.5876 99.0166 13.2179 97.4565 12.3103ZM98.1421 30.8708C98.1594 32.1209 97.8988 33.3585 97.3804 34.4885C96.9098 35.4974 96.1523 36.3342 95.2091 36.8872C94.2249 37.431 93.1258 37.7156 92.0094 37.7156C90.8931 37.7156 89.794 37.431 88.8098 36.8872C87.8866 36.3205 87.1448 35.4864 86.6766 34.4885C86.1474 33.3623 85.8862 32.1221 85.9148 30.8708V21.9837C85.8739 20.7312 86.1358 19.488 86.6766 18.366C87.1448 17.3681 87.8866 16.534 88.8098 15.9673C89.7863 15.3988 90.8884 15.1001 92.0094 15.1001C93.1305 15.1001 94.2326 15.3988 95.2091 15.9673C96.1523 16.5203 96.9098 17.3571 97.3804 18.366C97.9096 19.4922 98.1707 20.7324 98.1421 21.9837V30.8708Z" fill="black"/>
<path d="M133.151 27.4497C132.239 26.766 131.181 26.3207 130.066 26.152C131.157 25.9595 132.189 25.5011 133.075 24.815C133.855 24.213 134.471 23.414 134.865 22.495C135.247 21.562 135.442 20.5586 135.437 19.5457C135.486 18.018 135.159 16.5024 134.484 15.1415C133.857 13.8917 132.855 12.8848 131.627 12.271C130.126 11.5502 128.483 11.2002 126.828 11.2486H115.172V41.8026H127.171C128.756 41.8422 130.326 41.4776 131.742 40.7409C133.018 40.1087 134.079 39.0948 134.789 37.831C135.506 36.4966 135.874 34.9921 135.856 33.4661C135.851 32.2984 135.604 31.1453 135.132 30.0843C134.69 29.0525 134.01 28.1481 133.151 27.4497ZM126.066 15.2202C127.425 15.1355 128.771 15.5384 129.875 16.3606C130.33 16.7908 130.683 17.3229 130.908 17.9159C131.132 18.5089 131.222 19.1472 131.17 19.7817C131.214 20.3841 131.135 20.9893 130.938 21.5582C130.741 22.1271 130.431 22.6471 130.028 23.0848C129.047 23.8876 127.81 24.2806 126.561 24.1859H119.21V15.2202H126.066ZM131.742 33.1122C131.772 33.7647 131.657 34.4157 131.406 35.0155C131.155 35.6152 130.775 36.1478 130.294 36.5726C128.94 37.5174 127.315 37.9609 125.685 37.831H119.362V28.0395H126.714C127.7 28.0176 128.678 28.233 129.57 28.6687C130.283 29.0294 130.859 29.6242 131.208 30.3596C131.575 31.1995 131.757 32.1125 131.742 33.0335V33.1122Z" fill="black"/>
<path d="M150.558 11.248H148.577V41.6055H152.691V41.2909C152.691 41.3743 152.723 41.4543 152.78 41.5133C152.837 41.5723 152.915 41.6055 152.996 41.6055H163.433H163.661L166.861 38.263C166.917 38.2163 166.958 38.1525 166.977 38.0808C166.996 38.009 166.992 37.9329 166.967 37.8632C166.942 37.7935 166.896 37.7339 166.836 37.6927C166.776 37.6515 166.705 37.6309 166.633 37.6338H152.996C152.918 37.6424 152.845 37.6783 152.789 37.7355C152.734 37.7928 152.699 37.8679 152.691 37.9484V28.6682H165.261V24.7359H152.691V15.2983H167.471V11.366H150.558V11.248Z" fill="black"/>
<path d="M197.639 33.9377L183.736 11.209H180.003V41.6057H184.079V19.2309L197.944 41.6057H201.753V11.209H197.639V33.9377Z" fill="black"/>
<path d="M219.769 37.5554V28.6684H232.339V24.7361H219.769V15.2986H230.778L234.092 11.8382C234.133 11.7824 234.158 11.7164 234.166 11.6469C234.174 11.5773 234.164 11.5069 234.137 11.4428C234.11 11.3786 234.067 11.3231 234.012 11.2821C233.957 11.241 233.892 11.2157 233.825 11.209H215.541V41.5664H234.587V37.6341L219.769 37.5554Z" fill="black"/>
<path d="M265.785 15.3376V11.248H251.31H249.215H247.158V41.7627H251.31V28.9434H263.538V24.8538H251.31V15.3376H265.785Z" fill="black"/>
<path d="M87.1795 53.8548C86.738 53.6504 86.2514 53.5439 85.7581 53.5439C85.2648 53.5439 84.7781 53.6504 84.3366 53.8548C83.9392 54.0655 83.62 54.3831 83.4211 54.7658C83.1919 55.2012 83.0797 55.6817 83.0941 56.1662V58.1846C83.0792 58.6714 83.1914 59.1543 83.4211 59.5922C83.6203 59.9728 83.9396 60.2881 84.3366 60.496C84.7767 60.7048 85.2639 60.8137 85.7581 60.8137C86.2523 60.8137 86.7394 60.7048 87.1795 60.496C87.5804 60.2905 87.903 59.9748 88.1028 59.5922C88.3279 59.1531 88.4374 58.6707 88.4221 58.1846V56.1662C88.437 55.6824 88.3276 55.2024 88.1028 54.7658C87.9032 54.3812 87.5808 54.0631 87.1795 53.8548ZM87.5065 58.2203C87.5144 58.5463 87.4434 58.8699 87.2988 59.167C87.1635 59.4234 86.9527 59.6389 86.6909 59.7886C86.4025 59.9248 86.0836 59.9958 85.76 59.9958C85.4365 59.9958 85.1175 59.9248 84.829 59.7886C84.5673 59.6389 84.3566 59.4234 84.2212 59.167C84.0753 58.8703 84.0043 58.5465 84.0135 58.2203V56.1305C84.0059 55.8045 84.0768 55.481 84.2212 55.1837C84.3558 54.9297 84.567 54.7175 84.829 54.5729C85.1152 54.43 85.4351 54.3552 85.76 54.3552C86.0849 54.3552 86.4048 54.43 86.6909 54.5729C86.953 54.7175 87.1642 54.9297 87.2988 55.1837C87.4414 55.4815 87.5123 55.8046 87.5065 56.1305V58.2203Z" fill="black"/>
<path d="M103.029 53.8727C102.664 53.6885 102.252 53.5973 101.837 53.6083H98.8975V60.7282H99.813V57.9631H101.837C102.253 57.9718 102.664 57.8782 103.029 57.6916C103.373 57.5184 103.653 57.2516 103.829 56.9271C104.026 56.5758 104.123 56.1834 104.11 55.7875C104.121 55.3895 104.025 54.9952 103.829 54.6408C103.651 54.3166 103.372 54.0492 103.029 53.8727ZM103.029 56.5056C102.926 56.7072 102.764 56.8771 102.56 56.995C102.349 57.1064 102.11 57.1631 101.867 57.1593H99.8053V54.4085H101.867C102.111 54.4 102.353 54.4598 102.56 54.58C102.764 54.6943 102.927 54.8621 103.029 55.0623C103.138 55.2867 103.192 55.5307 103.187 55.7768C103.198 56.0273 103.147 56.2768 103.037 56.5056H103.029Z" fill="black"/>
<path d="M114.82 53.6084H114.305V60.7283H114.82H115.209H119.171V59.9245H115.209V57.5952H118.598V56.795H115.209V54.4086H119.171V53.6084H115.209H114.82Z" fill="black"/>
<path d="M134.243 59.2421L130.404 53.6084H129.546V60.7283H130.45V55.1624L134.281 60.7283H135.143V53.6084H134.243V59.2421Z" fill="black"/>
<path d="M173.958 57.3845C173.729 57.218 173.455 57.1129 173.166 57.0809C173.446 57.0364 173.71 56.9284 173.935 56.7665C174.132 56.6201 174.291 56.4329 174.397 56.2199C174.496 56.0031 174.546 55.7696 174.543 55.534C174.557 55.1753 174.473 54.819 174.3 54.498C174.13 54.2155 173.873 53.9866 173.562 53.8407C173.176 53.6721 172.753 53.5924 172.327 53.6085H169.342V60.7283H172.419C172.827 60.7379 173.231 60.6557 173.596 60.489C173.918 60.335 174.185 60.0981 174.366 59.8066C174.547 59.4926 174.638 59.1409 174.631 58.7849C174.633 58.5146 174.574 58.247 174.458 57.999C174.349 57.759 174.177 57.5479 173.958 57.3845ZM172.154 54.3944C172.549 54.3649 172.943 54.4661 173.266 54.6802C173.498 54.9136 173.629 55.2182 173.635 55.5357C173.64 55.8533 173.52 56.1617 173.296 56.4021C173.015 56.6104 172.659 56.7124 172.3 56.6879H170.25V54.3944H172.154ZM173.739 58.7421C173.749 58.9088 173.717 59.0753 173.646 59.2285C173.574 59.3817 173.465 59.5173 173.327 59.6245C172.95 59.8659 172.494 59.9772 172.038 59.9388H170.25V57.4631H172.3C172.582 57.4529 172.863 57.5043 173.119 57.6132C173.322 57.7089 173.485 57.8631 173.585 58.0526C173.689 58.2631 173.742 58.4925 173.739 58.7242V58.7421Z" fill="black"/>
<path d="M185.611 53.6084H185.1V60.7283H185.611H186.004H189.97V59.9245H186.004V57.5952H189.389V56.795H186.004V54.4086H189.97V53.6084H186.004H185.611Z" fill="black"/>
<path d="M205.038 59.2421L201.199 53.6084H200.345V60.7283H201.237V55.1624L205.065 60.7283H205.942V53.6084H205.038V59.2421Z" fill="black"/>
<path d="M217.19 53.6084H216.675V60.7283H217.19H217.59H221.545V59.9245H217.59V57.5952H220.976V56.795H217.59V54.4086H221.545V53.6084H217.59H217.19Z" fill="black"/>
<path d="M232.436 53.6084H231.921V60.7283H232.825V57.656H236.118V56.8522H232.825V54.4086H236.691V53.6084H232.825H232.436Z" fill="black"/>
<path d="M247.843 53.6084H246.928V60.7283H247.843V53.6084Z" fill="black"/>
<path d="M263.389 53.6084H258.042V54.4086H260.25V60.7283H261.166V54.4086H263.389V53.6084Z" fill="black"/>
<path d="M162.688 60.4785H141.803V60.75H162.688V60.4785Z" fill="black"/>
</svg>
