<svg width="26" height="26" viewBox="0 0 26 26" fill="none" xmlns="http://www.w3.org/2000/svg">
<path fill-rule="evenodd" clip-rule="evenodd" d="M23.9155 1.88301H2.97359C2.6005 1.88301 2.29805 2.18546 2.29805 2.55855V23.5005C2.29805 23.8736 2.6005 24.176 2.97359 24.176H23.9155C24.2886 24.176 24.5911 23.8736 24.5911 23.5005V2.55855C24.5911 2.18546 24.2886 1.88301 23.9155 1.88301ZM2.97359 0.583008H23.9155C25.0066 0.583008 25.8911 1.46749 25.8911 2.55855V23.5005C25.8911 24.5916 25.0066 25.476 23.9155 25.476H2.97359C1.88253 25.476 0.998047 24.5916 0.998047 23.5005V2.55855C0.998047 1.46749 1.88253 0.583008 2.97359 0.583008Z" fill="#5A5A5A"/>
<mask id="mask0_156_593" style="mask-type:alpha" maskUnits="userSpaceOnUse" x="7" y="5" width="12" height="16">
<path fill-rule="evenodd" clip-rule="evenodd" d="M7.51562 10.7334C7.51562 7.67768 10.0005 5.20959 13.0736 5.20959C16.3129 5.16154 18.9025 7.96137 18.6183 11.2394C18.4996 12.5832 17.7938 13.7272 16.9127 14.7201C15.4288 16.3904 14.2564 18.2291 13.5547 20.358L13.5517 20.3671C13.4777 20.5915 13.3919 20.8519 13.0817 20.8599C12.7922 20.8669 12.6921 20.6283 12.6243 20.4182C11.8763 18.0919 10.5048 16.1536 8.9416 14.3125C8.08301 13.3028 7.51562 12.1194 7.51562 10.7334ZM13.0775 12.6394C14.1699 12.6394 15.0554 11.7539 15.0554 10.6615C15.0554 9.56913 14.1699 8.68359 13.0775 8.68359C11.9851 8.68359 11.0996 9.56913 11.0996 10.6615C11.0996 11.7539 11.9851 12.6394 13.0775 12.6394Z" fill="white"/>
</mask>
<g mask="url(#mask0_156_593)">
<path fill-rule="evenodd" clip-rule="evenodd" d="M7.51562 10.7334C7.51562 7.67768 10.0005 5.20959 13.0736 5.20959C16.3129 5.16154 18.9025 7.96137 18.6183 11.2394C18.4996 12.5832 17.7938 13.7272 16.9127 14.7201C15.4288 16.3904 14.2564 18.2291 13.5547 20.358L13.5517 20.3671C13.4777 20.5915 13.3919 20.8519 13.0817 20.8599C12.7922 20.8669 12.6921 20.6283 12.6243 20.4182C11.8763 18.0919 10.5048 16.1536 8.9416 14.3125C8.08301 13.3028 7.51562 12.1194 7.51562 10.7334ZM13.0775 12.6394C14.1699 12.6394 15.0554 11.7539 15.0554 10.6615C15.0554 9.56913 14.1699 8.68359 13.0775 8.68359C11.9851 8.68359 11.0996 9.56913 11.0996 10.6615C11.0996 11.7539 11.9851 12.6394 13.0775 12.6394Z" fill="#5A5A5A"/>
<path d="M13.0736 5.2096V6.2096H13.081L13.0884 6.20949L13.0736 5.2096ZM18.6183 11.2394L19.6144 11.3274L19.6145 11.3258L18.6183 11.2394ZM16.9127 14.7201L17.6603 15.3843L17.6606 15.3839L16.9127 14.7201ZM13.5547 20.358L14.5044 20.6711L14.5045 20.671L13.5547 20.358ZM13.5517 20.3671L12.602 20.0539V20.054L13.5517 20.3671ZM13.0817 20.8599L13.1057 21.8596H13.1075L13.0817 20.8599ZM12.6243 20.4182L11.6723 20.7243L11.6726 20.725L12.6243 20.4182ZM8.9416 14.3125L9.70391 13.6653L9.70341 13.6647L8.9416 14.3125ZM13.0736 4.2096C9.45422 4.2096 6.51562 7.11942 6.51562 10.7334H8.51562C8.51562 8.23596 10.5468 6.2096 13.0736 6.2096V4.2096ZM19.6145 11.3258C19.9491 7.46789 16.9004 4.15272 13.0588 4.20971L13.0884 6.20949C15.7253 6.17038 17.856 8.45487 17.622 11.153L19.6145 11.3258ZM17.6606 15.3839C18.6079 14.3165 19.4688 12.9762 19.6144 11.3274L17.6222 11.1514C17.5304 12.1902 16.9798 13.1379 16.1647 14.0563L17.6606 15.3839ZM14.5045 20.671C15.1544 18.6992 16.2457 16.9765 17.6603 15.3843L16.1651 14.0559C14.6119 15.8042 13.3584 17.7591 12.605 20.0449L14.5045 20.671ZM14.5014 20.6803L14.5044 20.6711L12.605 20.0448L12.602 20.0539L14.5014 20.6803ZM13.1075 21.8596C13.6033 21.8468 13.9775 21.6034 14.2099 21.2884C14.3917 21.042 14.4757 20.7583 14.5014 20.6802L12.602 20.054C12.5815 20.116 12.5736 20.1385 12.5672 20.1541C12.5615 20.1677 12.5704 20.1419 12.6006 20.1009C12.6342 20.0554 12.6962 19.9885 12.7937 19.9349C12.8939 19.8798 12.9893 19.862 13.0559 19.8603L13.1075 21.8596ZM11.6726 20.725C11.7079 20.8346 11.796 21.1098 11.9965 21.3544C12.243 21.6552 12.6251 21.8712 13.1057 21.8596L13.0577 19.8602C13.1292 19.8585 13.2277 19.8724 13.332 19.9226C13.434 19.9718 13.5027 20.0371 13.5433 20.0866C13.5628 20.1104 13.5756 20.1303 13.5832 20.143C13.5907 20.1557 13.5943 20.1637 13.5948 20.1646C13.5952 20.1656 13.5936 20.1622 13.5901 20.1527C13.5866 20.1431 13.5822 20.1302 13.5761 20.1114L11.6726 20.725ZM8.17931 14.9597C9.7108 16.7635 10.9838 18.583 11.6723 20.7243L13.5763 20.1121C12.7689 17.6009 11.2988 15.5437 9.70391 13.6653L8.17931 14.9597ZM6.51562 10.7334C6.51562 12.4156 7.21039 13.8203 8.17979 14.9603L9.70341 13.6647C8.95563 12.7853 8.51562 11.8233 8.51562 10.7334H6.51562ZM14.0554 10.6615C14.0554 11.2016 13.6176 11.6394 13.0775 11.6394V13.6394C14.7222 13.6394 16.0554 12.3062 16.0554 10.6615H14.0554ZM13.0775 9.6836C13.6176 9.6836 14.0554 10.1214 14.0554 10.6615H16.0554C16.0554 9.01686 14.7222 7.6836 13.0775 7.6836V9.6836ZM12.0996 10.6615C12.0996 10.1214 12.5374 9.6836 13.0775 9.6836V7.6836C11.4329 7.6836 10.0996 9.01686 10.0996 10.6615H12.0996ZM13.0775 11.6394C12.5374 11.6394 12.0996 11.2016 12.0996 10.6615H10.0996C10.0996 12.3062 11.4329 13.6394 13.0775 13.6394V11.6394Z" fill="#5A5A5A"/>
</g>
</svg>
