<svg width="406" height="135" viewBox="0 0 406 135" fill="none" xmlns="http://www.w3.org/2000/svg">
<path d="M227.707 111.591C227.707 111.497 227.701 111.411 227.687 111.331C227.674 111.237 227.641 111.151 227.587 111.071C227.547 111.004 227.494 110.937 227.427 110.871C227.374 110.804 227.314 110.744 227.247 110.691C227.181 110.624 227.101 110.564 227.007 110.511C226.914 110.457 226.821 110.404 226.727 110.351C226.634 110.297 226.534 110.251 226.427 110.211C226.321 110.157 226.227 110.117 226.147 110.091C226.081 110.064 226.001 110.031 225.907 109.991C225.827 109.937 225.787 109.884 225.787 109.831C225.787 109.751 225.841 109.691 225.947 109.651C226.067 109.611 226.194 109.591 226.327 109.591C226.407 109.591 226.567 109.611 226.807 109.651C227.047 109.691 227.254 109.737 227.427 109.791C227.587 109.831 227.781 109.884 228.007 109.951C228.234 110.017 228.407 110.077 228.527 110.131C228.634 110.184 228.727 110.237 228.807 110.291C228.901 110.344 228.947 110.424 228.947 110.531C228.947 110.584 228.934 110.651 228.907 110.731C228.894 110.797 228.874 110.877 228.847 110.971C228.834 111.051 228.821 111.164 228.807 111.311C228.794 111.444 228.787 111.544 228.787 111.611V117.511C228.787 117.764 228.781 118.064 228.767 118.411C228.754 118.757 228.741 119.037 228.727 119.251C228.714 119.624 228.694 119.944 228.667 120.211C228.641 120.464 228.614 120.644 228.587 120.751C228.561 120.911 228.527 121.044 228.487 121.151C228.461 121.257 228.434 121.344 228.407 121.411C228.381 121.464 228.341 121.524 228.287 121.591C228.247 121.644 228.194 121.671 228.127 121.671C228.061 121.671 228.007 121.651 227.967 121.611C227.941 121.557 227.914 121.504 227.887 121.451C227.874 121.397 227.854 121.331 227.827 121.251C227.814 121.157 227.801 121.064 227.787 120.971C227.774 120.811 227.761 120.664 227.747 120.531C227.747 120.397 227.741 120.224 227.727 120.011C227.714 119.744 227.707 119.391 227.707 118.951C227.707 118.497 227.707 118.204 227.707 118.071V117.051H225.007V118.091C225.007 118.304 225.001 118.597 224.987 118.971C224.974 119.344 224.954 119.644 224.927 119.871C224.914 120.124 224.894 120.344 224.867 120.531C224.841 120.704 224.814 120.844 224.787 120.951C224.774 121.044 224.747 121.144 224.707 121.251C224.667 121.344 224.634 121.417 224.607 121.471C224.581 121.524 224.547 121.571 224.507 121.611C224.467 121.651 224.421 121.671 224.367 121.671C224.327 121.671 224.287 121.657 224.247 121.631C224.221 121.591 224.194 121.544 224.167 121.491C224.154 121.451 224.134 121.404 224.107 121.351C224.094 121.284 224.081 121.211 224.067 121.131C224.054 121.011 224.041 120.884 224.027 120.751C224.014 120.617 224.001 120.464 223.987 120.291C223.974 120.104 223.967 119.851 223.967 119.531C223.967 119.197 223.967 118.911 223.967 118.671V112.111C223.967 112.004 223.954 111.904 223.927 111.811C223.914 111.717 223.887 111.644 223.847 111.591C223.807 111.524 223.761 111.464 223.707 111.411C223.667 111.357 223.607 111.304 223.527 111.251C223.461 111.197 223.387 111.151 223.307 111.111C223.227 111.057 223.147 111.011 223.067 110.971C223.014 110.944 222.941 110.911 222.847 110.871C222.767 110.831 222.687 110.797 222.607 110.771C222.541 110.744 222.461 110.711 222.367 110.671C222.287 110.631 222.247 110.584 222.247 110.531C222.247 110.437 222.294 110.377 222.387 110.351C222.494 110.311 222.594 110.291 222.687 110.291C222.754 110.291 222.881 110.304 223.067 110.331C223.254 110.357 223.434 110.391 223.607 110.431C223.794 110.471 223.994 110.524 224.207 110.591C224.434 110.644 224.614 110.697 224.747 110.751C224.827 110.777 224.914 110.824 225.007 110.891C225.101 110.944 225.147 111.011 225.147 111.091C225.147 111.157 225.134 111.244 225.107 111.351C225.081 111.444 225.061 111.524 225.047 111.591C225.034 111.644 225.021 111.731 225.007 111.851C225.007 111.971 225.007 112.064 225.007 112.131V116.351H227.707V111.591ZM227.647 123.031H222.407C221.954 123.031 221.514 123.044 221.087 123.071C220.674 123.084 220.327 123.104 220.047 123.131C219.874 123.144 219.714 123.171 219.567 123.211C219.434 123.237 219.301 123.271 219.167 123.311C219.074 123.337 218.967 123.377 218.847 123.431C218.727 123.484 218.634 123.531 218.567 123.571C218.527 123.571 218.427 123.544 218.267 123.491C218.107 123.437 217.967 123.384 217.847 123.331C217.687 123.264 217.501 123.184 217.287 123.091C217.074 122.997 216.901 122.911 216.767 122.831C216.661 122.764 216.547 122.697 216.427 122.631C216.321 122.551 216.267 122.464 216.267 122.371C216.267 122.304 216.287 122.257 216.327 122.231C216.381 122.191 216.454 122.177 216.547 122.191C216.694 122.204 216.874 122.224 217.087 122.251C217.301 122.277 217.481 122.297 217.627 122.311C217.827 122.324 218.141 122.344 218.567 122.371C219.007 122.384 219.574 122.391 220.267 122.391H227.307L227.667 122.111C227.827 122.124 227.961 122.137 228.067 122.151C228.187 122.151 228.287 122.157 228.367 122.171C228.474 122.184 228.587 122.211 228.707 122.251C228.827 122.291 228.887 122.351 228.887 122.431C228.887 122.524 228.861 122.637 228.807 122.771C228.754 122.904 228.727 123.071 228.727 123.271V124.971C228.727 125.104 228.721 125.297 228.707 125.551C228.707 125.791 228.701 126.004 228.687 126.191C228.674 126.337 228.661 126.524 228.647 126.751C228.634 126.977 228.614 127.151 228.587 127.271C228.574 127.391 228.554 127.497 228.527 127.591C228.514 127.697 228.494 127.784 228.467 127.851C228.454 127.917 228.427 127.984 228.387 128.051C228.361 128.131 228.334 128.191 228.307 128.231C228.281 128.284 228.247 128.324 228.207 128.351C228.167 128.377 228.127 128.391 228.087 128.391C228.047 128.391 228.007 128.371 227.967 128.331C227.927 128.304 227.894 128.264 227.867 128.211C227.841 128.144 227.814 128.071 227.787 127.991C227.774 127.911 227.761 127.837 227.747 127.771C227.734 127.717 227.721 127.631 227.707 127.511C227.707 127.404 227.701 127.297 227.687 127.191C227.674 127.071 227.661 126.857 227.647 126.551C227.647 126.244 227.647 125.984 227.647 125.771V123.031ZM215.907 120.091C215.907 120.117 215.907 120.157 215.907 120.211C215.907 120.251 215.901 120.291 215.887 120.331C215.874 120.477 215.854 120.604 215.827 120.711C215.801 120.817 215.767 120.924 215.727 121.031C215.687 121.124 215.641 121.204 215.587 121.271C215.534 121.324 215.474 121.351 215.407 121.351C215.327 121.351 215.261 121.297 215.207 121.191C215.167 121.084 215.134 120.984 215.107 120.891C215.094 120.797 215.074 120.684 215.047 120.551C215.034 120.404 215.021 120.244 215.007 120.071C214.994 119.871 214.981 119.604 214.967 119.271C214.967 118.937 214.967 118.671 214.967 118.471V113.811C214.967 113.704 214.947 113.611 214.907 113.531C214.867 113.437 214.801 113.344 214.707 113.251C214.654 113.197 214.587 113.144 214.507 113.091C214.427 113.037 214.354 112.991 214.287 112.951C214.207 112.897 214.114 112.851 214.007 112.811C213.914 112.771 213.847 112.744 213.807 112.731C213.767 112.704 213.707 112.677 213.627 112.651C213.561 112.624 213.527 112.584 213.527 112.531C213.527 112.437 213.574 112.377 213.667 112.351C213.761 112.311 213.854 112.291 213.947 112.291C214.014 112.291 214.141 112.304 214.327 112.331C214.514 112.357 214.681 112.384 214.827 112.411C214.974 112.437 215.134 112.477 215.307 112.531C215.494 112.571 215.647 112.611 215.767 112.651C215.847 112.677 215.927 112.717 216.007 112.771C216.101 112.824 216.147 112.884 216.147 112.951C216.147 113.004 216.134 113.071 216.107 113.151C216.094 113.217 216.081 113.284 216.067 113.351C216.054 113.404 216.041 113.471 216.027 113.551C216.027 113.631 216.027 113.704 216.027 113.771V115.111H220.807V113.011C220.807 112.864 220.781 112.751 220.727 112.671C220.674 112.577 220.614 112.497 220.547 112.431C220.494 112.377 220.421 112.324 220.327 112.271C220.247 112.204 220.174 112.151 220.107 112.111C220.041 112.071 219.954 112.031 219.847 111.991C219.754 111.937 219.674 111.897 219.607 111.871C219.541 111.844 219.467 111.811 219.387 111.771C219.307 111.731 219.267 111.684 219.267 111.631C219.267 111.537 219.314 111.477 219.407 111.451C219.514 111.411 219.621 111.391 219.727 111.391C219.794 111.391 219.914 111.404 220.087 111.431C220.274 111.457 220.454 111.491 220.627 111.531C220.774 111.557 220.941 111.597 221.127 111.651C221.327 111.704 221.494 111.757 221.627 111.811C221.734 111.851 221.821 111.897 221.887 111.951C221.954 111.991 221.987 112.044 221.987 112.111C221.987 112.164 221.981 112.224 221.967 112.291C221.954 112.357 221.941 112.411 221.927 112.451C221.914 112.531 221.901 112.624 221.887 112.731C221.874 112.837 221.867 112.924 221.867 112.991V117.991C221.867 118.164 221.861 118.371 221.847 118.611C221.847 118.837 221.834 119.104 221.807 119.411C221.794 119.544 221.781 119.684 221.767 119.831C221.767 119.964 221.754 120.097 221.727 120.231C221.714 120.377 221.694 120.504 221.667 120.611C221.641 120.717 221.607 120.824 221.567 120.931C221.527 121.024 221.481 121.104 221.427 121.171C221.374 121.224 221.314 121.251 221.247 121.251C221.167 121.251 221.101 121.197 221.047 121.091C221.007 120.984 220.974 120.884 220.947 120.791C220.934 120.711 220.914 120.611 220.887 120.491C220.874 120.371 220.861 120.237 220.847 120.091H215.907ZM220.807 119.431C220.807 119.244 220.807 119.057 220.807 118.871C220.807 118.671 220.807 118.504 220.807 118.371V115.771H216.027V118.091C216.027 118.251 216.021 118.444 216.007 118.671C216.007 118.897 215.994 119.151 215.967 119.431H220.807Z" fill="#282828"/>
<path d="M245.17 121.931L245.55 121.651C245.737 121.664 245.904 121.677 246.05 121.691C246.197 121.691 246.35 121.704 246.51 121.731C246.617 121.744 246.71 121.771 246.79 121.811C246.884 121.851 246.93 121.911 246.93 121.991C246.93 122.044 246.897 122.144 246.83 122.291C246.764 122.437 246.71 122.591 246.67 122.751L246.21 126.591C246.357 126.644 246.497 126.724 246.63 126.831C246.777 126.937 246.85 127.037 246.85 127.131C246.85 127.211 246.817 127.271 246.75 127.311C246.684 127.364 246.577 127.391 246.43 127.391H237.15C237.137 127.551 237.117 127.684 237.09 127.791C237.077 127.897 237.057 127.984 237.03 128.051C236.99 128.157 236.944 128.237 236.89 128.291C236.837 128.357 236.79 128.391 236.75 128.391C236.684 128.391 236.624 128.364 236.57 128.311C236.53 128.271 236.497 128.211 236.47 128.131C236.444 128.064 236.417 127.984 236.39 127.891C236.377 127.797 236.357 127.684 236.33 127.551C236.317 127.444 236.297 127.251 236.27 126.971C236.244 126.704 236.224 126.471 236.21 126.271L236.01 122.891C235.997 122.784 235.957 122.704 235.89 122.651C235.824 122.584 235.75 122.524 235.67 122.471C235.577 122.417 235.457 122.371 235.31 122.331C235.177 122.277 235.057 122.244 234.95 122.231C234.857 122.204 234.75 122.177 234.63 122.151C234.51 122.111 234.45 122.064 234.45 122.011C234.45 121.904 234.517 121.817 234.65 121.751C234.797 121.671 234.99 121.631 235.23 121.631C235.377 121.631 235.617 121.644 235.95 121.671C236.297 121.684 236.557 121.704 236.73 121.731C236.85 121.744 236.957 121.764 237.05 121.791C237.144 121.817 237.21 121.864 237.25 121.931H245.17ZM245.23 126.751L245.47 126.531V122.571H237.17L237.21 125.871C237.21 126.031 237.21 126.184 237.21 126.331C237.21 126.491 237.204 126.631 237.19 126.751H245.23ZM245.13 115.631C244.797 115.631 244.497 115.657 244.23 115.711C243.977 115.751 243.784 115.797 243.65 115.851C243.517 115.904 243.41 115.951 243.33 115.991C243.25 116.031 243.164 116.084 243.07 116.151C243.017 116.151 242.917 116.117 242.77 116.051C242.637 115.971 242.517 115.904 242.41 115.851C242.277 115.784 242.144 115.711 242.01 115.631C241.89 115.537 241.784 115.464 241.69 115.411C241.61 115.357 241.524 115.297 241.43 115.231C241.35 115.151 241.31 115.084 241.31 115.031C241.31 114.964 241.33 114.917 241.37 114.891C241.424 114.851 241.49 114.837 241.57 114.851C241.757 114.864 241.93 114.884 242.09 114.911C242.25 114.924 242.41 114.937 242.57 114.951C242.73 114.964 242.95 114.977 243.23 114.991C243.51 114.991 243.837 114.991 244.21 114.991H245.61V111.691C245.61 111.557 245.59 111.437 245.55 111.331C245.524 111.211 245.484 111.117 245.43 111.051C245.377 110.984 245.317 110.917 245.25 110.851C245.184 110.784 245.11 110.724 245.03 110.671C244.937 110.604 244.83 110.544 244.71 110.491C244.604 110.424 244.51 110.371 244.43 110.331C244.337 110.291 244.237 110.251 244.13 110.211C244.024 110.157 243.93 110.117 243.85 110.091C243.784 110.064 243.704 110.031 243.61 109.991C243.517 109.951 243.47 109.897 243.47 109.831C243.47 109.751 243.524 109.691 243.63 109.651C243.737 109.611 243.857 109.591 243.99 109.591C244.07 109.591 244.244 109.611 244.51 109.651C244.777 109.691 245.017 109.737 245.23 109.791C245.404 109.831 245.577 109.877 245.75 109.931C245.937 109.984 246.124 110.044 246.31 110.111C246.444 110.164 246.57 110.224 246.69 110.291C246.81 110.357 246.87 110.444 246.87 110.551C246.87 110.604 246.857 110.671 246.83 110.751C246.804 110.831 246.777 110.917 246.75 111.011C246.737 111.091 246.724 111.197 246.71 111.331C246.697 111.464 246.69 111.564 246.69 111.631V117.391C246.69 117.577 246.684 117.791 246.67 118.031C246.67 118.257 246.664 118.464 246.65 118.651C246.637 118.864 246.624 119.091 246.61 119.331C246.597 119.557 246.584 119.711 246.57 119.791C246.557 119.884 246.537 120.017 246.51 120.191C246.497 120.364 246.477 120.491 246.45 120.571C246.437 120.664 246.41 120.757 246.37 120.851C246.33 120.944 246.297 121.017 246.27 121.071C246.244 121.124 246.204 121.171 246.15 121.211C246.11 121.237 246.077 121.251 246.05 121.251C246.01 121.251 245.97 121.237 245.93 121.211C245.89 121.171 245.857 121.124 245.83 121.071C245.804 121.004 245.777 120.931 245.75 120.851C245.737 120.771 245.724 120.691 245.71 120.611C245.697 120.544 245.684 120.464 245.67 120.371C245.67 120.264 245.664 120.124 245.65 119.951C245.637 119.737 245.624 119.471 245.61 119.151C245.61 118.817 245.61 118.557 245.61 118.371V115.631H245.13ZM234.23 119.611C234.23 119.651 234.224 119.684 234.21 119.711C234.21 119.737 234.21 119.764 234.21 119.791C234.197 119.911 234.17 120.037 234.13 120.171C234.104 120.291 234.077 120.391 234.05 120.471C234.01 120.564 233.964 120.644 233.91 120.711C233.857 120.777 233.797 120.811 233.73 120.811C233.637 120.811 233.564 120.764 233.51 120.671C233.47 120.577 233.437 120.491 233.41 120.411C233.397 120.331 233.377 120.217 233.35 120.071C233.337 119.911 233.324 119.757 233.31 119.611C233.297 119.504 233.284 119.271 233.27 118.911C233.27 118.551 233.27 118.304 233.27 118.171V112.911C233.27 112.804 233.244 112.711 233.19 112.631C233.15 112.537 233.09 112.451 233.01 112.371C232.957 112.304 232.877 112.244 232.77 112.191C232.677 112.124 232.597 112.071 232.53 112.031C232.45 111.991 232.37 111.951 232.29 111.911C232.21 111.871 232.137 111.837 232.07 111.811C232.004 111.784 231.924 111.751 231.83 111.711C231.75 111.671 231.71 111.624 231.71 111.571C231.71 111.491 231.757 111.431 231.85 111.391C231.944 111.351 232.044 111.331 232.15 111.331C232.217 111.331 232.357 111.351 232.57 111.391C232.784 111.417 232.97 111.451 233.13 111.491C233.264 111.517 233.424 111.557 233.61 111.611C233.797 111.664 233.957 111.717 234.09 111.771C234.197 111.811 234.284 111.857 234.35 111.911C234.43 111.964 234.47 112.024 234.47 112.091C234.47 112.144 234.45 112.251 234.41 112.411C234.37 112.571 234.35 112.737 234.35 112.911V114.311H240.09V112.151C240.09 112.044 240.064 111.944 240.01 111.851C239.957 111.757 239.89 111.677 239.81 111.611C239.73 111.544 239.637 111.477 239.53 111.411C239.424 111.344 239.337 111.291 239.27 111.251C239.19 111.211 239.104 111.171 239.01 111.131C238.93 111.091 238.844 111.051 238.75 111.011C238.684 110.984 238.604 110.951 238.51 110.911C238.43 110.871 238.39 110.824 238.39 110.771C238.39 110.691 238.437 110.631 238.53 110.591C238.624 110.551 238.724 110.531 238.83 110.531C238.897 110.531 239.03 110.544 239.23 110.571C239.444 110.597 239.677 110.644 239.93 110.711C240.05 110.737 240.21 110.784 240.41 110.851C240.61 110.904 240.777 110.957 240.91 111.011C241.03 111.064 241.124 111.117 241.19 111.171C241.27 111.224 241.31 111.284 241.31 111.351C241.31 111.417 241.284 111.524 241.23 111.671C241.19 111.804 241.17 111.977 241.17 112.191V117.391C241.17 117.564 241.164 117.764 241.15 117.991C241.15 118.204 241.144 118.397 241.13 118.571C241.117 118.771 241.104 118.991 241.09 119.231C241.077 119.471 241.057 119.644 241.03 119.751C241.017 119.884 240.99 120.011 240.95 120.131C240.924 120.251 240.897 120.351 240.87 120.431C240.83 120.524 240.777 120.604 240.71 120.671C240.657 120.737 240.597 120.771 240.53 120.771C240.45 120.771 240.384 120.724 240.33 120.631C240.29 120.537 240.257 120.444 240.23 120.351C240.217 120.257 240.197 120.157 240.17 120.051C240.157 119.931 240.144 119.817 240.13 119.711C240.13 119.697 240.13 119.684 240.13 119.671C240.13 119.644 240.124 119.624 240.11 119.611H234.23ZM240.09 118.951C240.09 118.804 240.09 118.657 240.09 118.511C240.09 118.364 240.09 118.251 240.09 118.171V114.971H234.35V117.491C234.35 117.651 234.344 117.851 234.33 118.091C234.33 118.317 234.324 118.504 234.31 118.651C234.31 118.691 234.304 118.737 234.29 118.791C234.29 118.844 234.29 118.897 234.29 118.951H240.09Z" fill="#282828"/>
<path d="M269.37 121.591L269.75 121.311C269.936 121.324 270.103 121.337 270.25 121.351C270.396 121.351 270.55 121.364 270.71 121.391C270.816 121.404 270.91 121.431 270.99 121.471C271.083 121.511 271.13 121.571 271.13 121.651C271.13 121.704 271.096 121.804 271.03 121.951C270.963 122.097 270.91 122.251 270.87 122.411L270.41 126.591C270.556 126.644 270.696 126.724 270.83 126.831C270.976 126.937 271.05 127.037 271.05 127.131C271.05 127.211 271.016 127.271 270.95 127.311C270.883 127.364 270.776 127.391 270.63 127.391H261.31C261.296 127.551 261.276 127.684 261.25 127.791C261.236 127.897 261.216 127.984 261.19 128.051C261.15 128.157 261.103 128.237 261.05 128.291C260.996 128.357 260.95 128.391 260.91 128.391C260.856 128.391 260.803 128.364 260.75 128.311C260.71 128.271 260.676 128.211 260.65 128.131C260.623 128.064 260.596 127.977 260.57 127.871C260.556 127.777 260.536 127.664 260.51 127.531C260.496 127.397 260.476 127.191 260.45 126.911C260.423 126.631 260.403 126.391 260.39 126.191L260.17 122.551C260.156 122.444 260.116 122.364 260.05 122.311C259.983 122.244 259.91 122.184 259.83 122.131C259.736 122.077 259.616 122.031 259.47 121.991C259.336 121.937 259.216 121.904 259.11 121.891C259.016 121.864 258.91 121.837 258.79 121.811C258.67 121.771 258.61 121.724 258.61 121.671C258.61 121.564 258.676 121.477 258.81 121.411C258.956 121.331 259.15 121.291 259.39 121.291C259.536 121.291 259.776 121.304 260.11 121.331C260.456 121.344 260.716 121.364 260.89 121.391C261.01 121.404 261.116 121.424 261.21 121.451C261.303 121.477 261.37 121.524 261.41 121.591H269.37ZM269.43 126.751L269.67 126.531V122.231H261.33L261.37 125.871C261.37 126.031 261.37 126.184 261.37 126.331C261.37 126.491 261.363 126.631 261.35 126.751H269.43ZM270.89 117.051C270.89 117.237 270.883 117.451 270.87 117.691C270.87 117.917 270.863 118.124 270.85 118.311C270.836 118.524 270.823 118.751 270.81 118.991C270.796 119.217 270.783 119.371 270.77 119.451C270.756 119.544 270.736 119.677 270.71 119.851C270.696 120.024 270.676 120.151 270.65 120.231C270.636 120.324 270.61 120.417 270.57 120.511C270.53 120.604 270.496 120.677 270.47 120.731C270.443 120.784 270.403 120.831 270.35 120.871C270.31 120.897 270.276 120.911 270.25 120.911C270.21 120.911 270.17 120.897 270.13 120.871C270.09 120.831 270.056 120.784 270.03 120.731C270.003 120.664 269.976 120.591 269.95 120.511C269.936 120.431 269.923 120.351 269.91 120.271C269.896 120.204 269.883 120.124 269.87 120.031C269.87 119.924 269.863 119.784 269.85 119.611C269.836 119.397 269.823 119.131 269.81 118.811C269.81 118.477 269.81 118.217 269.81 118.031V111.691C269.81 111.557 269.79 111.437 269.75 111.331C269.723 111.211 269.683 111.117 269.63 111.051C269.576 110.984 269.516 110.917 269.45 110.851C269.383 110.784 269.31 110.724 269.23 110.671C269.136 110.604 269.03 110.544 268.91 110.491C268.803 110.424 268.71 110.371 268.63 110.331C268.536 110.291 268.436 110.251 268.33 110.211C268.223 110.157 268.13 110.117 268.05 110.091C267.983 110.064 267.903 110.031 267.81 109.991C267.716 109.951 267.67 109.897 267.67 109.831C267.67 109.751 267.723 109.691 267.83 109.651C267.936 109.611 268.056 109.591 268.19 109.591C268.27 109.591 268.443 109.611 268.71 109.651C268.976 109.691 269.216 109.737 269.43 109.791C269.603 109.831 269.776 109.877 269.95 109.931C270.136 109.984 270.323 110.044 270.51 110.111C270.643 110.164 270.77 110.224 270.89 110.291C271.01 110.357 271.07 110.444 271.07 110.551C271.07 110.604 271.056 110.671 271.03 110.751C271.003 110.831 270.976 110.917 270.95 111.011C270.936 111.091 270.923 111.197 270.91 111.331C270.896 111.464 270.89 111.564 270.89 111.631V117.051ZM266.07 112.451C266.016 112.624 265.943 112.811 265.85 113.011C265.77 113.197 265.69 113.377 265.61 113.551C265.516 113.764 265.41 113.971 265.29 114.171C265.183 114.357 265.076 114.544 264.97 114.731C264.836 114.944 264.696 115.151 264.55 115.351C264.403 115.537 264.25 115.724 264.09 115.911C263.916 116.124 263.703 116.351 263.45 116.591C263.196 116.831 262.95 117.044 262.71 117.231C262.483 117.417 262.243 117.604 261.99 117.791C261.736 117.964 261.483 118.131 261.23 118.291C260.976 118.464 260.69 118.644 260.37 118.831C260.05 119.004 259.77 119.157 259.53 119.291C259.263 119.437 258.963 119.591 258.63 119.751C258.296 119.911 258.023 120.044 257.81 120.151C257.596 120.244 257.363 120.351 257.11 120.471C256.856 120.577 256.596 120.684 256.33 120.791C256.156 120.844 256.023 120.817 255.93 120.711C255.836 120.604 255.876 120.511 256.05 120.431C256.29 120.297 256.543 120.157 256.81 120.011C257.09 119.851 257.35 119.704 257.59 119.571C257.816 119.424 258.043 119.284 258.27 119.151C258.51 119.004 258.75 118.851 258.99 118.691C259.216 118.544 259.463 118.377 259.73 118.191C259.996 118.004 260.25 117.824 260.49 117.651C260.716 117.477 260.95 117.297 261.19 117.111C261.43 116.911 261.656 116.717 261.87 116.531C262.03 116.384 262.216 116.211 262.43 116.011C262.643 115.797 262.823 115.604 262.97 115.431C263.116 115.271 263.263 115.091 263.41 114.891C263.57 114.691 263.71 114.504 263.83 114.331C263.936 114.184 264.036 114.017 264.13 113.831C264.236 113.631 264.33 113.451 264.41 113.291C264.49 113.131 264.563 112.964 264.63 112.791C264.71 112.617 264.776 112.464 264.83 112.331H262.21C261.57 112.331 261.07 112.351 260.71 112.391C260.363 112.417 260.096 112.444 259.91 112.471C259.776 112.484 259.636 112.511 259.49 112.551C259.356 112.591 259.243 112.631 259.15 112.671C259.083 112.697 259.023 112.731 258.97 112.771C258.916 112.797 258.863 112.824 258.81 112.851C258.783 112.851 258.723 112.837 258.63 112.811C258.55 112.771 258.476 112.737 258.41 112.711C258.343 112.684 258.256 112.651 258.15 112.611C258.056 112.557 257.956 112.504 257.85 112.451C257.716 112.384 257.596 112.324 257.49 112.271C257.383 112.204 257.276 112.144 257.17 112.091C257.09 112.037 257.003 111.971 256.91 111.891C256.816 111.811 256.77 111.744 256.77 111.691C256.77 111.624 256.796 111.577 256.85 111.551C256.916 111.524 256.983 111.517 257.05 111.531C257.13 111.544 257.243 111.557 257.39 111.571C257.536 111.584 257.67 111.597 257.79 111.611C257.99 111.624 258.27 111.644 258.63 111.671C258.99 111.684 259.416 111.691 259.91 111.691H264.69L265.07 111.431C265.203 111.444 265.33 111.457 265.45 111.471C265.583 111.471 265.703 111.477 265.81 111.491C265.943 111.504 266.076 111.531 266.21 111.571C266.356 111.611 266.43 111.691 266.43 111.811C266.43 111.877 266.39 111.971 266.31 112.091C266.23 112.197 266.15 112.317 266.07 112.451Z" fill="#282828"/>
<path d="M283.313 124.131C283.313 124.331 283.306 124.571 283.293 124.851C283.293 125.117 283.286 125.364 283.273 125.591C283.259 125.777 283.246 125.984 283.233 126.211C283.233 126.437 283.219 126.631 283.193 126.791C283.179 126.897 283.159 127.031 283.133 127.191C283.119 127.364 283.099 127.497 283.073 127.591C283.059 127.684 283.033 127.791 282.993 127.911C282.953 128.031 282.919 128.117 282.893 128.171C282.866 128.224 282.826 128.271 282.773 128.311C282.733 128.364 282.693 128.391 282.653 128.391C282.599 128.391 282.553 128.371 282.513 128.331C282.473 128.291 282.439 128.244 282.413 128.191C282.399 128.151 282.379 128.097 282.353 128.031C282.339 127.964 282.326 127.891 282.313 127.811C282.299 127.691 282.286 127.557 282.273 127.411C282.259 127.277 282.246 127.144 282.233 127.011C282.219 126.824 282.206 126.537 282.193 126.151C282.193 125.751 282.193 125.457 282.193 125.271V119.511H280.573C279.773 119.511 279.106 119.544 278.573 119.611C278.053 119.664 277.646 119.724 277.353 119.791C277.193 119.831 277.039 119.877 276.893 119.931C276.759 119.984 276.639 120.044 276.533 120.111C276.479 120.111 276.346 120.071 276.133 119.991C275.919 119.897 275.739 119.817 275.593 119.751C275.419 119.671 275.253 119.591 275.093 119.511C274.946 119.431 274.806 119.351 274.673 119.271C274.553 119.204 274.439 119.131 274.333 119.051C274.226 118.957 274.173 118.871 274.173 118.791C274.173 118.711 274.199 118.657 274.253 118.631C274.319 118.604 274.399 118.597 274.493 118.611C274.639 118.624 274.833 118.651 275.073 118.691C275.326 118.717 275.533 118.737 275.693 118.751C275.919 118.764 276.286 118.784 276.793 118.811C277.313 118.824 277.853 118.831 278.413 118.831H285.333C285.599 118.831 285.839 118.831 286.053 118.831C286.279 118.831 286.479 118.824 286.653 118.811C286.706 118.544 286.759 118.244 286.813 117.911C286.866 117.564 286.906 117.304 286.933 117.131C286.973 116.877 287.019 116.557 287.073 116.171C287.139 115.784 287.186 115.477 287.213 115.251C287.239 115.024 287.279 114.677 287.333 114.211C287.386 113.744 287.419 113.437 287.433 113.291C287.459 113.117 287.486 112.857 287.513 112.511C287.539 112.164 287.559 111.884 287.573 111.671H282.213C281.786 111.671 281.326 111.691 280.833 111.731C280.339 111.757 279.999 111.784 279.813 111.811C279.639 111.837 279.473 111.871 279.313 111.911C279.153 111.951 279.019 111.991 278.913 112.031C278.819 112.071 278.726 112.111 278.633 112.151C278.553 112.191 278.479 112.231 278.413 112.271C278.386 112.271 278.313 112.251 278.193 112.211C278.073 112.157 277.973 112.117 277.893 112.091C277.799 112.051 277.699 112.011 277.593 111.971C277.486 111.917 277.379 111.864 277.273 111.811C277.166 111.757 277.053 111.704 276.933 111.651C276.813 111.584 276.699 111.524 276.593 111.471C276.499 111.404 276.386 111.331 276.253 111.251C276.133 111.171 276.073 111.091 276.073 111.011C276.073 110.917 276.113 110.857 276.193 110.831C276.273 110.804 276.339 110.797 276.393 110.811C276.473 110.824 276.606 110.844 276.793 110.871C276.993 110.884 277.159 110.897 277.293 110.911C277.493 110.924 277.813 110.944 278.253 110.971C278.706 110.984 279.313 110.991 280.073 110.991H287.213L287.593 110.691C287.779 110.704 287.959 110.717 288.133 110.731C288.319 110.731 288.486 110.744 288.633 110.771C288.739 110.784 288.839 110.817 288.933 110.871C289.039 110.911 289.093 110.977 289.093 111.071C289.093 111.164 289.053 111.277 288.973 111.411C288.906 111.531 288.859 111.657 288.833 111.791C288.819 111.924 288.779 112.184 288.713 112.571C288.646 112.957 288.599 113.237 288.573 113.411C288.533 113.664 288.473 113.991 288.393 114.391C288.326 114.777 288.259 115.091 288.193 115.331C288.139 115.584 288.059 115.897 287.953 116.271C287.859 116.644 287.779 116.944 287.713 117.171C287.659 117.371 287.579 117.631 287.473 117.951C287.379 118.257 287.293 118.531 287.213 118.771C287.373 118.757 287.513 118.744 287.633 118.731C287.753 118.704 287.846 118.684 287.913 118.671C288.099 118.617 288.253 118.564 288.373 118.511C288.506 118.457 288.619 118.391 288.713 118.311C288.833 118.324 289.006 118.337 289.233 118.351C289.473 118.364 289.679 118.384 289.853 118.411C290.053 118.424 290.239 118.451 290.413 118.491C290.586 118.517 290.746 118.551 290.893 118.591C290.999 118.617 291.106 118.671 291.213 118.751C291.319 118.831 291.373 118.964 291.373 119.151C291.373 119.271 291.339 119.391 291.273 119.511C291.219 119.631 291.099 119.684 290.913 119.671C290.806 119.657 290.646 119.644 290.433 119.631C290.233 119.617 290.059 119.604 289.913 119.591C289.699 119.577 289.393 119.564 288.993 119.551C288.593 119.524 288.226 119.511 287.893 119.511H283.313V124.131Z" fill="#282828"/>
<path d="M227.707 111.591C227.707 111.497 227.701 111.411 227.687 111.331C227.674 111.237 227.641 111.151 227.587 111.071C227.547 111.004 227.494 110.937 227.427 110.871C227.374 110.804 227.314 110.744 227.247 110.691C227.181 110.624 227.101 110.564 227.007 110.511C226.914 110.457 226.821 110.404 226.727 110.351C226.634 110.297 226.534 110.251 226.427 110.211C226.321 110.157 226.227 110.117 226.147 110.091C226.081 110.064 226.001 110.031 225.907 109.991C225.827 109.937 225.787 109.884 225.787 109.831C225.787 109.751 225.841 109.691 225.947 109.651C226.067 109.611 226.194 109.591 226.327 109.591C226.407 109.591 226.567 109.611 226.807 109.651C227.047 109.691 227.254 109.737 227.427 109.791C227.587 109.831 227.781 109.884 228.007 109.951C228.234 110.017 228.407 110.077 228.527 110.131C228.634 110.184 228.727 110.237 228.807 110.291C228.901 110.344 228.947 110.424 228.947 110.531C228.947 110.584 228.934 110.651 228.907 110.731C228.894 110.797 228.874 110.877 228.847 110.971C228.834 111.051 228.821 111.164 228.807 111.311C228.794 111.444 228.787 111.544 228.787 111.611V117.511C228.787 117.764 228.781 118.064 228.767 118.411C228.754 118.757 228.741 119.037 228.727 119.251C228.714 119.624 228.694 119.944 228.667 120.211C228.641 120.464 228.614 120.644 228.587 120.751C228.561 120.911 228.527 121.044 228.487 121.151C228.461 121.257 228.434 121.344 228.407 121.411C228.381 121.464 228.341 121.524 228.287 121.591C228.247 121.644 228.194 121.671 228.127 121.671C228.061 121.671 228.007 121.651 227.967 121.611C227.941 121.557 227.914 121.504 227.887 121.451C227.874 121.397 227.854 121.331 227.827 121.251C227.814 121.157 227.801 121.064 227.787 120.971C227.774 120.811 227.761 120.664 227.747 120.531C227.747 120.397 227.741 120.224 227.727 120.011C227.714 119.744 227.707 119.391 227.707 118.951C227.707 118.497 227.707 118.204 227.707 118.071V117.051H225.007V118.091C225.007 118.304 225.001 118.597 224.987 118.971C224.974 119.344 224.954 119.644 224.927 119.871C224.914 120.124 224.894 120.344 224.867 120.531C224.841 120.704 224.814 120.844 224.787 120.951C224.774 121.044 224.747 121.144 224.707 121.251C224.667 121.344 224.634 121.417 224.607 121.471C224.581 121.524 224.547 121.571 224.507 121.611C224.467 121.651 224.421 121.671 224.367 121.671C224.327 121.671 224.287 121.657 224.247 121.631C224.221 121.591 224.194 121.544 224.167 121.491C224.154 121.451 224.134 121.404 224.107 121.351C224.094 121.284 224.081 121.211 224.067 121.131C224.054 121.011 224.041 120.884 224.027 120.751C224.014 120.617 224.001 120.464 223.987 120.291C223.974 120.104 223.967 119.851 223.967 119.531C223.967 119.197 223.967 118.911 223.967 118.671V112.111C223.967 112.004 223.954 111.904 223.927 111.811C223.914 111.717 223.887 111.644 223.847 111.591C223.807 111.524 223.761 111.464 223.707 111.411C223.667 111.357 223.607 111.304 223.527 111.251C223.461 111.197 223.387 111.151 223.307 111.111C223.227 111.057 223.147 111.011 223.067 110.971C223.014 110.944 222.941 110.911 222.847 110.871C222.767 110.831 222.687 110.797 222.607 110.771C222.541 110.744 222.461 110.711 222.367 110.671C222.287 110.631 222.247 110.584 222.247 110.531C222.247 110.437 222.294 110.377 222.387 110.351C222.494 110.311 222.594 110.291 222.687 110.291C222.754 110.291 222.881 110.304 223.067 110.331C223.254 110.357 223.434 110.391 223.607 110.431C223.794 110.471 223.994 110.524 224.207 110.591C224.434 110.644 224.614 110.697 224.747 110.751C224.827 110.777 224.914 110.824 225.007 110.891C225.101 110.944 225.147 111.011 225.147 111.091C225.147 111.157 225.134 111.244 225.107 111.351C225.081 111.444 225.061 111.524 225.047 111.591C225.034 111.644 225.021 111.731 225.007 111.851C225.007 111.971 225.007 112.064 225.007 112.131V116.351H227.707V111.591ZM227.647 123.031H222.407C221.954 123.031 221.514 123.044 221.087 123.071C220.674 123.084 220.327 123.104 220.047 123.131C219.874 123.144 219.714 123.171 219.567 123.211C219.434 123.237 219.301 123.271 219.167 123.311C219.074 123.337 218.967 123.377 218.847 123.431C218.727 123.484 218.634 123.531 218.567 123.571C218.527 123.571 218.427 123.544 218.267 123.491C218.107 123.437 217.967 123.384 217.847 123.331C217.687 123.264 217.501 123.184 217.287 123.091C217.074 122.997 216.901 122.911 216.767 122.831C216.661 122.764 216.547 122.697 216.427 122.631C216.321 122.551 216.267 122.464 216.267 122.371C216.267 122.304 216.287 122.257 216.327 122.231C216.381 122.191 216.454 122.177 216.547 122.191C216.694 122.204 216.874 122.224 217.087 122.251C217.301 122.277 217.481 122.297 217.627 122.311C217.827 122.324 218.141 122.344 218.567 122.371C219.007 122.384 219.574 122.391 220.267 122.391H227.307L227.667 122.111C227.827 122.124 227.961 122.137 228.067 122.151C228.187 122.151 228.287 122.157 228.367 122.171C228.474 122.184 228.587 122.211 228.707 122.251C228.827 122.291 228.887 122.351 228.887 122.431C228.887 122.524 228.861 122.637 228.807 122.771C228.754 122.904 228.727 123.071 228.727 123.271V124.971C228.727 125.104 228.721 125.297 228.707 125.551C228.707 125.791 228.701 126.004 228.687 126.191C228.674 126.337 228.661 126.524 228.647 126.751C228.634 126.977 228.614 127.151 228.587 127.271C228.574 127.391 228.554 127.497 228.527 127.591C228.514 127.697 228.494 127.784 228.467 127.851C228.454 127.917 228.427 127.984 228.387 128.051C228.361 128.131 228.334 128.191 228.307 128.231C228.281 128.284 228.247 128.324 228.207 128.351C228.167 128.377 228.127 128.391 228.087 128.391C228.047 128.391 228.007 128.371 227.967 128.331C227.927 128.304 227.894 128.264 227.867 128.211C227.841 128.144 227.814 128.071 227.787 127.991C227.774 127.911 227.761 127.837 227.747 127.771C227.734 127.717 227.721 127.631 227.707 127.511C227.707 127.404 227.701 127.297 227.687 127.191C227.674 127.071 227.661 126.857 227.647 126.551C227.647 126.244 227.647 125.984 227.647 125.771V123.031ZM215.907 120.091C215.907 120.117 215.907 120.157 215.907 120.211C215.907 120.251 215.901 120.291 215.887 120.331C215.874 120.477 215.854 120.604 215.827 120.711C215.801 120.817 215.767 120.924 215.727 121.031C215.687 121.124 215.641 121.204 215.587 121.271C215.534 121.324 215.474 121.351 215.407 121.351C215.327 121.351 215.261 121.297 215.207 121.191C215.167 121.084 215.134 120.984 215.107 120.891C215.094 120.797 215.074 120.684 215.047 120.551C215.034 120.404 215.021 120.244 215.007 120.071C214.994 119.871 214.981 119.604 214.967 119.271C214.967 118.937 214.967 118.671 214.967 118.471V113.811C214.967 113.704 214.947 113.611 214.907 113.531C214.867 113.437 214.801 113.344 214.707 113.251C214.654 113.197 214.587 113.144 214.507 113.091C214.427 113.037 214.354 112.991 214.287 112.951C214.207 112.897 214.114 112.851 214.007 112.811C213.914 112.771 213.847 112.744 213.807 112.731C213.767 112.704 213.707 112.677 213.627 112.651C213.561 112.624 213.527 112.584 213.527 112.531C213.527 112.437 213.574 112.377 213.667 112.351C213.761 112.311 213.854 112.291 213.947 112.291C214.014 112.291 214.141 112.304 214.327 112.331C214.514 112.357 214.681 112.384 214.827 112.411C214.974 112.437 215.134 112.477 215.307 112.531C215.494 112.571 215.647 112.611 215.767 112.651C215.847 112.677 215.927 112.717 216.007 112.771C216.101 112.824 216.147 112.884 216.147 112.951C216.147 113.004 216.134 113.071 216.107 113.151C216.094 113.217 216.081 113.284 216.067 113.351C216.054 113.404 216.041 113.471 216.027 113.551C216.027 113.631 216.027 113.704 216.027 113.771V115.111H220.807V113.011C220.807 112.864 220.781 112.751 220.727 112.671C220.674 112.577 220.614 112.497 220.547 112.431C220.494 112.377 220.421 112.324 220.327 112.271C220.247 112.204 220.174 112.151 220.107 112.111C220.041 112.071 219.954 112.031 219.847 111.991C219.754 111.937 219.674 111.897 219.607 111.871C219.541 111.844 219.467 111.811 219.387 111.771C219.307 111.731 219.267 111.684 219.267 111.631C219.267 111.537 219.314 111.477 219.407 111.451C219.514 111.411 219.621 111.391 219.727 111.391C219.794 111.391 219.914 111.404 220.087 111.431C220.274 111.457 220.454 111.491 220.627 111.531C220.774 111.557 220.941 111.597 221.127 111.651C221.327 111.704 221.494 111.757 221.627 111.811C221.734 111.851 221.821 111.897 221.887 111.951C221.954 111.991 221.987 112.044 221.987 112.111C221.987 112.164 221.981 112.224 221.967 112.291C221.954 112.357 221.941 112.411 221.927 112.451C221.914 112.531 221.901 112.624 221.887 112.731C221.874 112.837 221.867 112.924 221.867 112.991V117.991C221.867 118.164 221.861 118.371 221.847 118.611C221.847 118.837 221.834 119.104 221.807 119.411C221.794 119.544 221.781 119.684 221.767 119.831C221.767 119.964 221.754 120.097 221.727 120.231C221.714 120.377 221.694 120.504 221.667 120.611C221.641 120.717 221.607 120.824 221.567 120.931C221.527 121.024 221.481 121.104 221.427 121.171C221.374 121.224 221.314 121.251 221.247 121.251C221.167 121.251 221.101 121.197 221.047 121.091C221.007 120.984 220.974 120.884 220.947 120.791C220.934 120.711 220.914 120.611 220.887 120.491C220.874 120.371 220.861 120.237 220.847 120.091H215.907ZM220.807 119.431C220.807 119.244 220.807 119.057 220.807 118.871C220.807 118.671 220.807 118.504 220.807 118.371V115.771H216.027V118.091C216.027 118.251 216.021 118.444 216.007 118.671C216.007 118.897 215.994 119.151 215.967 119.431H220.807Z" stroke="#282828" stroke-width="0.5"/>
<path d="M245.17 121.931L245.55 121.651C245.737 121.664 245.904 121.677 246.05 121.691C246.197 121.691 246.35 121.704 246.51 121.731C246.617 121.744 246.71 121.771 246.79 121.811C246.884 121.851 246.93 121.911 246.93 121.991C246.93 122.044 246.897 122.144 246.83 122.291C246.764 122.437 246.71 122.591 246.67 122.751L246.21 126.591C246.357 126.644 246.497 126.724 246.63 126.831C246.777 126.937 246.85 127.037 246.85 127.131C246.85 127.211 246.817 127.271 246.75 127.311C246.684 127.364 246.577 127.391 246.43 127.391H237.15C237.137 127.551 237.117 127.684 237.09 127.791C237.077 127.897 237.057 127.984 237.03 128.051C236.99 128.157 236.944 128.237 236.89 128.291C236.837 128.357 236.79 128.391 236.75 128.391C236.684 128.391 236.624 128.364 236.57 128.311C236.53 128.271 236.497 128.211 236.47 128.131C236.444 128.064 236.417 127.984 236.39 127.891C236.377 127.797 236.357 127.684 236.33 127.551C236.317 127.444 236.297 127.251 236.27 126.971C236.244 126.704 236.224 126.471 236.21 126.271L236.01 122.891C235.997 122.784 235.957 122.704 235.89 122.651C235.824 122.584 235.75 122.524 235.67 122.471C235.577 122.417 235.457 122.371 235.31 122.331C235.177 122.277 235.057 122.244 234.95 122.231C234.857 122.204 234.75 122.177 234.63 122.151C234.51 122.111 234.45 122.064 234.45 122.011C234.45 121.904 234.517 121.817 234.65 121.751C234.797 121.671 234.99 121.631 235.23 121.631C235.377 121.631 235.617 121.644 235.95 121.671C236.297 121.684 236.557 121.704 236.73 121.731C236.85 121.744 236.957 121.764 237.05 121.791C237.144 121.817 237.21 121.864 237.25 121.931H245.17ZM245.23 126.751L245.47 126.531V122.571H237.17L237.21 125.871C237.21 126.031 237.21 126.184 237.21 126.331C237.21 126.491 237.204 126.631 237.19 126.751H245.23ZM245.13 115.631C244.797 115.631 244.497 115.657 244.23 115.711C243.977 115.751 243.784 115.797 243.65 115.851C243.517 115.904 243.41 115.951 243.33 115.991C243.25 116.031 243.164 116.084 243.07 116.151C243.017 116.151 242.917 116.117 242.77 116.051C242.637 115.971 242.517 115.904 242.41 115.851C242.277 115.784 242.144 115.711 242.01 115.631C241.89 115.537 241.784 115.464 241.69 115.411C241.61 115.357 241.524 115.297 241.43 115.231C241.35 115.151 241.31 115.084 241.31 115.031C241.31 114.964 241.33 114.917 241.37 114.891C241.424 114.851 241.49 114.837 241.57 114.851C241.757 114.864 241.93 114.884 242.09 114.911C242.25 114.924 242.41 114.937 242.57 114.951C242.73 114.964 242.95 114.977 243.23 114.991C243.51 114.991 243.837 114.991 244.21 114.991H245.61V111.691C245.61 111.557 245.59 111.437 245.55 111.331C245.524 111.211 245.484 111.117 245.43 111.051C245.377 110.984 245.317 110.917 245.25 110.851C245.184 110.784 245.11 110.724 245.03 110.671C244.937 110.604 244.83 110.544 244.71 110.491C244.604 110.424 244.51 110.371 244.43 110.331C244.337 110.291 244.237 110.251 244.13 110.211C244.024 110.157 243.93 110.117 243.85 110.091C243.784 110.064 243.704 110.031 243.61 109.991C243.517 109.951 243.47 109.897 243.47 109.831C243.47 109.751 243.524 109.691 243.63 109.651C243.737 109.611 243.857 109.591 243.99 109.591C244.07 109.591 244.244 109.611 244.51 109.651C244.777 109.691 245.017 109.737 245.23 109.791C245.404 109.831 245.577 109.877 245.75 109.931C245.937 109.984 246.124 110.044 246.31 110.111C246.444 110.164 246.57 110.224 246.69 110.291C246.81 110.357 246.87 110.444 246.87 110.551C246.87 110.604 246.857 110.671 246.83 110.751C246.804 110.831 246.777 110.917 246.75 111.011C246.737 111.091 246.724 111.197 246.71 111.331C246.697 111.464 246.69 111.564 246.69 111.631V117.391C246.69 117.577 246.684 117.791 246.67 118.031C246.67 118.257 246.664 118.464 246.65 118.651C246.637 118.864 246.624 119.091 246.61 119.331C246.597 119.557 246.584 119.711 246.57 119.791C246.557 119.884 246.537 120.017 246.51 120.191C246.497 120.364 246.477 120.491 246.45 120.571C246.437 120.664 246.41 120.757 246.37 120.851C246.33 120.944 246.297 121.017 246.27 121.071C246.244 121.124 246.204 121.171 246.15 121.211C246.11 121.237 246.077 121.251 246.05 121.251C246.01 121.251 245.97 121.237 245.93 121.211C245.89 121.171 245.857 121.124 245.83 121.071C245.804 121.004 245.777 120.931 245.75 120.851C245.737 120.771 245.724 120.691 245.71 120.611C245.697 120.544 245.684 120.464 245.67 120.371C245.67 120.264 245.664 120.124 245.65 119.951C245.637 119.737 245.624 119.471 245.61 119.151C245.61 118.817 245.61 118.557 245.61 118.371V115.631H245.13ZM234.23 119.611C234.23 119.651 234.224 119.684 234.21 119.711C234.21 119.737 234.21 119.764 234.21 119.791C234.197 119.911 234.17 120.037 234.13 120.171C234.104 120.291 234.077 120.391 234.05 120.471C234.01 120.564 233.964 120.644 233.91 120.711C233.857 120.777 233.797 120.811 233.73 120.811C233.637 120.811 233.564 120.764 233.51 120.671C233.47 120.577 233.437 120.491 233.41 120.411C233.397 120.331 233.377 120.217 233.35 120.071C233.337 119.911 233.324 119.757 233.31 119.611C233.297 119.504 233.284 119.271 233.27 118.911C233.27 118.551 233.27 118.304 233.27 118.171V112.911C233.27 112.804 233.244 112.711 233.19 112.631C233.15 112.537 233.09 112.451 233.01 112.371C232.957 112.304 232.877 112.244 232.77 112.191C232.677 112.124 232.597 112.071 232.53 112.031C232.45 111.991 232.37 111.951 232.29 111.911C232.21 111.871 232.137 111.837 232.07 111.811C232.004 111.784 231.924 111.751 231.83 111.711C231.75 111.671 231.71 111.624 231.71 111.571C231.71 111.491 231.757 111.431 231.85 111.391C231.944 111.351 232.044 111.331 232.15 111.331C232.217 111.331 232.357 111.351 232.57 111.391C232.784 111.417 232.97 111.451 233.13 111.491C233.264 111.517 233.424 111.557 233.61 111.611C233.797 111.664 233.957 111.717 234.09 111.771C234.197 111.811 234.284 111.857 234.35 111.911C234.43 111.964 234.47 112.024 234.47 112.091C234.47 112.144 234.45 112.251 234.41 112.411C234.37 112.571 234.35 112.737 234.35 112.911V114.311H240.09V112.151C240.09 112.044 240.064 111.944 240.01 111.851C239.957 111.757 239.89 111.677 239.81 111.611C239.73 111.544 239.637 111.477 239.53 111.411C239.424 111.344 239.337 111.291 239.27 111.251C239.19 111.211 239.104 111.171 239.01 111.131C238.93 111.091 238.844 111.051 238.75 111.011C238.684 110.984 238.604 110.951 238.51 110.911C238.43 110.871 238.39 110.824 238.39 110.771C238.39 110.691 238.437 110.631 238.53 110.591C238.624 110.551 238.724 110.531 238.83 110.531C238.897 110.531 239.03 110.544 239.23 110.571C239.444 110.597 239.677 110.644 239.93 110.711C240.05 110.737 240.21 110.784 240.41 110.851C240.61 110.904 240.777 110.957 240.91 111.011C241.03 111.064 241.124 111.117 241.19 111.171C241.27 111.224 241.31 111.284 241.31 111.351C241.31 111.417 241.284 111.524 241.23 111.671C241.19 111.804 241.17 111.977 241.17 112.191V117.391C241.17 117.564 241.164 117.764 241.15 117.991C241.15 118.204 241.144 118.397 241.13 118.571C241.117 118.771 241.104 118.991 241.09 119.231C241.077 119.471 241.057 119.644 241.03 119.751C241.017 119.884 240.99 120.011 240.95 120.131C240.924 120.251 240.897 120.351 240.87 120.431C240.83 120.524 240.777 120.604 240.71 120.671C240.657 120.737 240.597 120.771 240.53 120.771C240.45 120.771 240.384 120.724 240.33 120.631C240.29 120.537 240.257 120.444 240.23 120.351C240.217 120.257 240.197 120.157 240.17 120.051C240.157 119.931 240.144 119.817 240.13 119.711C240.13 119.697 240.13 119.684 240.13 119.671C240.13 119.644 240.124 119.624 240.11 119.611H234.23ZM240.09 118.951C240.09 118.804 240.09 118.657 240.09 118.511C240.09 118.364 240.09 118.251 240.09 118.171V114.971H234.35V117.491C234.35 117.651 234.344 117.851 234.33 118.091C234.33 118.317 234.324 118.504 234.31 118.651C234.31 118.691 234.304 118.737 234.29 118.791C234.29 118.844 234.29 118.897 234.29 118.951H240.09Z" stroke="#282828" stroke-width="0.5"/>
<path d="M269.37 121.591L269.75 121.311C269.936 121.324 270.103 121.337 270.25 121.351C270.396 121.351 270.55 121.364 270.71 121.391C270.816 121.404 270.91 121.431 270.99 121.471C271.083 121.511 271.13 121.571 271.13 121.651C271.13 121.704 271.096 121.804 271.03 121.951C270.963 122.097 270.91 122.251 270.87 122.411L270.41 126.591C270.556 126.644 270.696 126.724 270.83 126.831C270.976 126.937 271.05 127.037 271.05 127.131C271.05 127.211 271.016 127.271 270.95 127.311C270.883 127.364 270.776 127.391 270.63 127.391H261.31C261.296 127.551 261.276 127.684 261.25 127.791C261.236 127.897 261.216 127.984 261.19 128.051C261.15 128.157 261.103 128.237 261.05 128.291C260.996 128.357 260.95 128.391 260.91 128.391C260.856 128.391 260.803 128.364 260.75 128.311C260.71 128.271 260.676 128.211 260.65 128.131C260.623 128.064 260.596 127.977 260.57 127.871C260.556 127.777 260.536 127.664 260.51 127.531C260.496 127.397 260.476 127.191 260.45 126.911C260.423 126.631 260.403 126.391 260.39 126.191L260.17 122.551C260.156 122.444 260.116 122.364 260.05 122.311C259.983 122.244 259.91 122.184 259.83 122.131C259.736 122.077 259.616 122.031 259.47 121.991C259.336 121.937 259.216 121.904 259.11 121.891C259.016 121.864 258.91 121.837 258.79 121.811C258.67 121.771 258.61 121.724 258.61 121.671C258.61 121.564 258.676 121.477 258.81 121.411C258.956 121.331 259.15 121.291 259.39 121.291C259.536 121.291 259.776 121.304 260.11 121.331C260.456 121.344 260.716 121.364 260.89 121.391C261.01 121.404 261.116 121.424 261.21 121.451C261.303 121.477 261.37 121.524 261.41 121.591H269.37ZM269.43 126.751L269.67 126.531V122.231H261.33L261.37 125.871C261.37 126.031 261.37 126.184 261.37 126.331C261.37 126.491 261.363 126.631 261.35 126.751H269.43ZM270.89 117.051C270.89 117.237 270.883 117.451 270.87 117.691C270.87 117.917 270.863 118.124 270.85 118.311C270.836 118.524 270.823 118.751 270.81 118.991C270.796 119.217 270.783 119.371 270.77 119.451C270.756 119.544 270.736 119.677 270.71 119.851C270.696 120.024 270.676 120.151 270.65 120.231C270.636 120.324 270.61 120.417 270.57 120.511C270.53 120.604 270.496 120.677 270.47 120.731C270.443 120.784 270.403 120.831 270.35 120.871C270.31 120.897 270.276 120.911 270.25 120.911C270.21 120.911 270.17 120.897 270.13 120.871C270.09 120.831 270.056 120.784 270.03 120.731C270.003 120.664 269.976 120.591 269.95 120.511C269.936 120.431 269.923 120.351 269.91 120.271C269.896 120.204 269.883 120.124 269.87 120.031C269.87 119.924 269.863 119.784 269.85 119.611C269.836 119.397 269.823 119.131 269.81 118.811C269.81 118.477 269.81 118.217 269.81 118.031V111.691C269.81 111.557 269.79 111.437 269.75 111.331C269.723 111.211 269.683 111.117 269.63 111.051C269.576 110.984 269.516 110.917 269.45 110.851C269.383 110.784 269.31 110.724 269.23 110.671C269.136 110.604 269.03 110.544 268.91 110.491C268.803 110.424 268.71 110.371 268.63 110.331C268.536 110.291 268.436 110.251 268.33 110.211C268.223 110.157 268.13 110.117 268.05 110.091C267.983 110.064 267.903 110.031 267.81 109.991C267.716 109.951 267.67 109.897 267.67 109.831C267.67 109.751 267.723 109.691 267.83 109.651C267.936 109.611 268.056 109.591 268.19 109.591C268.27 109.591 268.443 109.611 268.71 109.651C268.976 109.691 269.216 109.737 269.43 109.791C269.603 109.831 269.776 109.877 269.95 109.931C270.136 109.984 270.323 110.044 270.51 110.111C270.643 110.164 270.77 110.224 270.89 110.291C271.01 110.357 271.07 110.444 271.07 110.551C271.07 110.604 271.056 110.671 271.03 110.751C271.003 110.831 270.976 110.917 270.95 111.011C270.936 111.091 270.923 111.197 270.91 111.331C270.896 111.464 270.89 111.564 270.89 111.631V117.051ZM266.07 112.451C266.016 112.624 265.943 112.811 265.85 113.011C265.77 113.197 265.69 113.377 265.61 113.551C265.516 113.764 265.41 113.971 265.29 114.171C265.183 114.357 265.076 114.544 264.97 114.731C264.836 114.944 264.696 115.151 264.55 115.351C264.403 115.537 264.25 115.724 264.09 115.911C263.916 116.124 263.703 116.351 263.45 116.591C263.196 116.831 262.95 117.044 262.71 117.231C262.483 117.417 262.243 117.604 261.99 117.791C261.736 117.964 261.483 118.131 261.23 118.291C260.976 118.464 260.69 118.644 260.37 118.831C260.05 119.004 259.77 119.157 259.53 119.291C259.263 119.437 258.963 119.591 258.63 119.751C258.296 119.911 258.023 120.044 257.81 120.151C257.596 120.244 257.363 120.351 257.11 120.471C256.856 120.577 256.596 120.684 256.33 120.791C256.156 120.844 256.023 120.817 255.93 120.711C255.836 120.604 255.876 120.511 256.05 120.431C256.29 120.297 256.543 120.157 256.81 120.011C257.09 119.851 257.35 119.704 257.59 119.571C257.816 119.424 258.043 119.284 258.27 119.151C258.51 119.004 258.75 118.851 258.99 118.691C259.216 118.544 259.463 118.377 259.73 118.191C259.996 118.004 260.25 117.824 260.49 117.651C260.716 117.477 260.95 117.297 261.19 117.111C261.43 116.911 261.656 116.717 261.87 116.531C262.03 116.384 262.216 116.211 262.43 116.011C262.643 115.797 262.823 115.604 262.97 115.431C263.116 115.271 263.263 115.091 263.41 114.891C263.57 114.691 263.71 114.504 263.83 114.331C263.936 114.184 264.036 114.017 264.13 113.831C264.236 113.631 264.33 113.451 264.41 113.291C264.49 113.131 264.563 112.964 264.63 112.791C264.71 112.617 264.776 112.464 264.83 112.331H262.21C261.57 112.331 261.07 112.351 260.71 112.391C260.363 112.417 260.096 112.444 259.91 112.471C259.776 112.484 259.636 112.511 259.49 112.551C259.356 112.591 259.243 112.631 259.15 112.671C259.083 112.697 259.023 112.731 258.97 112.771C258.916 112.797 258.863 112.824 258.81 112.851C258.783 112.851 258.723 112.837 258.63 112.811C258.55 112.771 258.476 112.737 258.41 112.711C258.343 112.684 258.256 112.651 258.15 112.611C258.056 112.557 257.956 112.504 257.85 112.451C257.716 112.384 257.596 112.324 257.49 112.271C257.383 112.204 257.276 112.144 257.17 112.091C257.09 112.037 257.003 111.971 256.91 111.891C256.816 111.811 256.77 111.744 256.77 111.691C256.77 111.624 256.796 111.577 256.85 111.551C256.916 111.524 256.983 111.517 257.05 111.531C257.13 111.544 257.243 111.557 257.39 111.571C257.536 111.584 257.67 111.597 257.79 111.611C257.99 111.624 258.27 111.644 258.63 111.671C258.99 111.684 259.416 111.691 259.91 111.691H264.69L265.07 111.431C265.203 111.444 265.33 111.457 265.45 111.471C265.583 111.471 265.703 111.477 265.81 111.491C265.943 111.504 266.076 111.531 266.21 111.571C266.356 111.611 266.43 111.691 266.43 111.811C266.43 111.877 266.39 111.971 266.31 112.091C266.23 112.197 266.15 112.317 266.07 112.451Z" stroke="#282828" stroke-width="0.5"/>
<path d="M283.313 124.131C283.313 124.331 283.306 124.571 283.293 124.851C283.293 125.117 283.286 125.364 283.273 125.591C283.259 125.777 283.246 125.984 283.233 126.211C283.233 126.437 283.219 126.631 283.193 126.791C283.179 126.897 283.159 127.031 283.133 127.191C283.119 127.364 283.099 127.497 283.073 127.591C283.059 127.684 283.033 127.791 282.993 127.911C282.953 128.031 282.919 128.117 282.893 128.171C282.866 128.224 282.826 128.271 282.773 128.311C282.733 128.364 282.693 128.391 282.653 128.391C282.599 128.391 282.553 128.371 282.513 128.331C282.473 128.291 282.439 128.244 282.413 128.191C282.399 128.151 282.379 128.097 282.353 128.031C282.339 127.964 282.326 127.891 282.313 127.811C282.299 127.691 282.286 127.557 282.273 127.411C282.259 127.277 282.246 127.144 282.233 127.011C282.219 126.824 282.206 126.537 282.193 126.151C282.193 125.751 282.193 125.457 282.193 125.271V119.511H280.573C279.773 119.511 279.106 119.544 278.573 119.611C278.053 119.664 277.646 119.724 277.353 119.791C277.193 119.831 277.039 119.877 276.893 119.931C276.759 119.984 276.639 120.044 276.533 120.111C276.479 120.111 276.346 120.071 276.133 119.991C275.919 119.897 275.739 119.817 275.593 119.751C275.419 119.671 275.253 119.591 275.093 119.511C274.946 119.431 274.806 119.351 274.673 119.271C274.553 119.204 274.439 119.131 274.333 119.051C274.226 118.957 274.173 118.871 274.173 118.791C274.173 118.711 274.199 118.657 274.253 118.631C274.319 118.604 274.399 118.597 274.493 118.611C274.639 118.624 274.833 118.651 275.073 118.691C275.326 118.717 275.533 118.737 275.693 118.751C275.919 118.764 276.286 118.784 276.793 118.811C277.313 118.824 277.853 118.831 278.413 118.831H285.333C285.599 118.831 285.839 118.831 286.053 118.831C286.279 118.831 286.479 118.824 286.653 118.811C286.706 118.544 286.759 118.244 286.813 117.911C286.866 117.564 286.906 117.304 286.933 117.131C286.973 116.877 287.019 116.557 287.073 116.171C287.139 115.784 287.186 115.477 287.213 115.251C287.239 115.024 287.279 114.677 287.333 114.211C287.386 113.744 287.419 113.437 287.433 113.291C287.459 113.117 287.486 112.857 287.513 112.511C287.539 112.164 287.559 111.884 287.573 111.671H282.213C281.786 111.671 281.326 111.691 280.833 111.731C280.339 111.757 279.999 111.784 279.813 111.811C279.639 111.837 279.473 111.871 279.313 111.911C279.153 111.951 279.019 111.991 278.913 112.031C278.819 112.071 278.726 112.111 278.633 112.151C278.553 112.191 278.479 112.231 278.413 112.271C278.386 112.271 278.313 112.251 278.193 112.211C278.073 112.157 277.973 112.117 277.893 112.091C277.799 112.051 277.699 112.011 277.593 111.971C277.486 111.917 277.379 111.864 277.273 111.811C277.166 111.757 277.053 111.704 276.933 111.651C276.813 111.584 276.699 111.524 276.593 111.471C276.499 111.404 276.386 111.331 276.253 111.251C276.133 111.171 276.073 111.091 276.073 111.011C276.073 110.917 276.113 110.857 276.193 110.831C276.273 110.804 276.339 110.797 276.393 110.811C276.473 110.824 276.606 110.844 276.793 110.871C276.993 110.884 277.159 110.897 277.293 110.911C277.493 110.924 277.813 110.944 278.253 110.971C278.706 110.984 279.313 110.991 280.073 110.991H287.213L287.593 110.691C287.779 110.704 287.959 110.717 288.133 110.731C288.319 110.731 288.486 110.744 288.633 110.771C288.739 110.784 288.839 110.817 288.933 110.871C289.039 110.911 289.093 110.977 289.093 111.071C289.093 111.164 289.053 111.277 288.973 111.411C288.906 111.531 288.859 111.657 288.833 111.791C288.819 111.924 288.779 112.184 288.713 112.571C288.646 112.957 288.599 113.237 288.573 113.411C288.533 113.664 288.473 113.991 288.393 114.391C288.326 114.777 288.259 115.091 288.193 115.331C288.139 115.584 288.059 115.897 287.953 116.271C287.859 116.644 287.779 116.944 287.713 117.171C287.659 117.371 287.579 117.631 287.473 117.951C287.379 118.257 287.293 118.531 287.213 118.771C287.373 118.757 287.513 118.744 287.633 118.731C287.753 118.704 287.846 118.684 287.913 118.671C288.099 118.617 288.253 118.564 288.373 118.511C288.506 118.457 288.619 118.391 288.713 118.311C288.833 118.324 289.006 118.337 289.233 118.351C289.473 118.364 289.679 118.384 289.853 118.411C290.053 118.424 290.239 118.451 290.413 118.491C290.586 118.517 290.746 118.551 290.893 118.591C290.999 118.617 291.106 118.671 291.213 118.751C291.319 118.831 291.373 118.964 291.373 119.151C291.373 119.271 291.339 119.391 291.273 119.511C291.219 119.631 291.099 119.684 290.913 119.671C290.806 119.657 290.646 119.644 290.433 119.631C290.233 119.617 290.059 119.604 289.913 119.591C289.699 119.577 289.393 119.564 288.993 119.551C288.593 119.524 288.226 119.511 287.893 119.511H283.313V124.131Z" stroke="#282828" stroke-width="0.5"/>
<path d="M8.27401 34.791C8.62401 35.341 8.87401 36.041 8.92401 36.941L9.47401 50.341C9.52401 51.191 10.424 51.791 12.124 51.641C13.624 51.541 15.074 50.991 16.474 49.941H33.024C34.524 49.941 35.474 49.391 35.524 48.291C35.574 47.241 34.824 46.691 33.724 46.491C34.424 43.291 35.524 38.591 35.924 35.991C36.024 35.491 36.024 35.041 36.024 34.591C36.024 31.491 34.324 30.091 31.274 30.091C29.224 30.091 27.974 30.591 27.024 31.441H15.924C13.624 30.241 9.57401 30.341 7.97401 30.941C6.57401 31.491 6.57401 32.341 6.97401 33.041C7.32401 33.691 7.87401 34.191 8.27401 34.791ZM16.724 47.341V34.091H27.274V47.341H16.724ZM40.974 59.591C39.974 59.591 38.874 59.791 38.124 60.091C37.574 60.291 36.724 60.691 35.624 60.741C33.974 60.841 30.474 60.941 26.474 60.991V55.391C26.474 54.141 26.424 53.341 25.524 52.791C23.424 51.591 19.524 51.591 18.024 51.991C16.824 52.341 16.574 53.491 16.924 54.291C17.224 54.941 17.574 55.341 18.024 56.091C18.374 56.691 18.574 57.341 18.574 58.291V61.091C13.874 61.091 9.67401 61.091 7.87401 61.041C5.67401 60.941 3.32401 60.791 1.12401 60.391C0.124009 60.241 -0.0759916 60.991 0.324008 61.941C0.674008 62.741 1.52401 63.891 2.82401 64.491C3.87401 64.991 5.47401 65.191 6.67401 64.791C7.42401 64.541 7.92401 64.391 8.87401 64.291C14.624 63.841 27.174 63.491 41.774 63.891C43.274 63.941 44.374 63.141 44.424 62.191C44.524 60.791 43.124 59.591 40.974 59.591Z" fill="#284EB7"/>
<path d="M86.8236 47.491C85.8236 47.491 84.7236 47.691 83.9736 47.991C83.4236 48.191 82.5736 48.591 81.4736 48.641C76.8736 48.941 58.0236 49.091 53.7236 48.941C51.5236 48.841 49.1736 48.691 46.9736 48.291C45.9736 48.141 45.7736 48.891 46.1736 49.841C46.5236 50.641 47.3736 51.791 48.6736 52.391C49.7236 52.891 51.3236 53.091 52.5236 52.691C53.2736 52.441 53.7736 52.291 54.7236 52.191C60.4736 51.741 73.0236 51.391 87.6236 51.791C89.1236 51.841 90.2236 51.041 90.2736 50.091C90.3736 48.691 88.9736 47.491 86.8236 47.491ZM79.3736 65.141C78.6736 65.141 77.9236 65.291 77.2236 65.491C76.5736 65.691 75.9236 66.091 75.2736 66.291C74.7736 66.441 74.2736 66.491 73.7736 66.541C73.2736 66.591 72.7236 66.641 72.2236 66.691H70.5736H64.4236C63.5236 66.691 63.0736 66.191 63.0736 65.391V59.741C63.0736 58.941 63.0736 58.191 62.4736 57.541C60.8736 55.741 56.6736 55.491 54.6236 56.041C53.4236 56.341 53.0736 57.491 53.3736 58.191C53.6236 58.841 54.1736 59.341 54.6236 60.091C54.9736 60.691 55.1736 61.241 55.1736 62.191V64.891C55.1736 68.141 57.6736 69.591 61.8236 69.591H80.8236C82.3736 69.591 83.1736 68.741 83.2736 67.991C83.4736 66.341 81.9236 65.141 79.3736 65.141ZM53.8236 32.541C54.1736 33.091 54.4236 33.691 54.4236 34.641V39.341C54.4236 42.591 56.8736 44.041 61.0236 44.041H79.5236C81.0736 44.041 81.8736 43.291 81.9736 42.541C82.1736 40.891 80.5736 39.841 78.0236 39.841C77.3236 39.841 76.6236 40.041 75.9236 40.241C75.2736 40.441 74.6236 40.791 73.9736 40.991C73.4736 41.141 72.9736 41.191 72.4736 41.241C71.9736 41.291 71.3736 41.341 70.8736 41.391C70.6736 41.391 69.9736 41.441 69.2736 41.441H63.6736C62.7736 41.441 62.3236 40.941 62.3236 40.141V32.091H78.5236C80.0236 32.091 80.8736 31.291 80.9236 30.591C81.0236 28.941 79.6236 28.041 77.0736 28.041C76.3736 28.041 75.6736 28.191 74.9736 28.391C74.3236 28.591 73.7236 28.891 73.0736 29.091C72.5736 29.241 72.1736 29.291 71.6736 29.341C71.1736 29.391 70.6736 29.391 70.1736 29.441C69.9736 29.441 69.3236 29.491 68.6236 29.491H62.0236C59.9236 27.991 55.2236 28.041 53.5736 28.691C52.2236 29.241 52.2236 30.091 52.5736 30.791C52.9236 31.441 53.4236 31.941 53.8236 32.541Z" fill="#284EB7"/>
<path d="M143.683 65.891C143.633 64.991 143.333 64.141 142.783 63.441C141.733 62.091 139.883 60.941 138.083 60.091C135.433 58.891 132.833 58.091 130.483 57.691C130.733 57.291 130.983 56.891 131.183 56.541C132.383 54.441 132.433 53.491 131.583 52.291C130.733 51.141 128.433 50.041 126.233 49.791C124.533 49.591 123.083 50.191 122.833 51.241C122.533 52.491 124.033 53.441 123.433 54.741C121.683 58.491 116.183 64.441 111.183 68.341C110.183 69.141 109.733 69.691 110.083 70.241C110.433 70.841 111.233 71.041 113.183 70.341C118.883 68.291 125.933 63.391 129.683 58.691C134.033 61.391 134.333 63.841 135.083 66.941C135.583 68.991 137.333 70.491 139.483 70.391C141.883 70.291 143.783 68.291 143.683 65.891ZM124.383 41.491C124.583 41.841 124.833 42.191 125.133 42.441C125.283 42.591 125.433 42.691 125.583 42.791C126.083 43.141 126.683 43.341 127.283 43.391C127.833 43.441 128.383 43.391 128.883 43.241C129.383 43.091 129.733 42.891 130.283 42.791C131.133 42.591 131.733 42.541 132.433 42.491C132.783 42.441 133.383 42.441 133.883 42.391V49.641C133.883 50.441 134.383 51.591 135.683 51.591C138.933 51.591 141.783 49.491 141.783 44.641V29.791C141.783 28.891 141.583 27.791 140.983 27.191C139.333 25.441 136.533 24.791 133.683 24.991C132.433 25.091 131.383 25.841 132.083 27.541C132.433 28.341 132.733 28.641 133.283 29.491C133.633 30.091 133.883 31.141 133.883 32.641V39.691C132.583 39.741 131.283 39.741 129.733 39.741C128.233 39.741 126.883 39.741 125.683 39.641C126.633 38.091 127.333 36.441 127.783 34.791C128.383 32.491 127.133 29.941 123.533 29.941C121.833 29.941 120.333 30.441 119.483 31.491C117.383 31.691 114.783 31.891 112.683 31.841C110.633 31.791 108.783 31.591 106.633 31.141C105.983 30.991 105.683 31.791 106.133 32.841C106.483 33.641 107.133 34.341 108.133 34.891C108.933 35.341 110.233 35.741 111.383 35.491C112.183 35.341 112.883 34.991 113.583 34.841C115.133 34.491 116.733 34.341 119.083 34.541C116.383 40.941 110.633 47.041 104.133 51.191C103.533 51.591 103.283 52.091 103.633 52.691C103.933 53.141 105.033 53.191 105.833 52.991C113.233 50.941 120.233 46.841 124.383 41.491Z" fill="#284EB7"/>
<path d="M181.732 65.141C181.032 65.141 180.282 65.291 179.582 65.491C178.932 65.691 178.282 66.091 177.632 66.291C177.132 66.441 176.632 66.491 176.132 66.541C175.632 66.591 175.082 66.641 174.582 66.691H172.932H166.782C165.882 66.691 165.432 66.191 165.432 65.391V59.891C165.432 59.091 165.432 58.341 164.832 57.691C163.232 55.891 159.032 55.591 156.982 56.141C155.782 56.441 155.432 57.641 155.732 58.341C155.982 58.991 156.532 59.441 156.982 60.191C157.332 60.791 157.532 61.391 157.532 62.341V64.891C157.532 68.141 160.032 69.591 164.182 69.591H183.182C184.732 69.591 185.532 68.741 185.632 67.991C185.832 66.341 184.282 65.141 181.732 65.141ZM189.182 47.791C188.182 47.791 187.082 47.941 186.332 48.241C185.782 48.441 184.932 48.891 183.832 48.941C179.232 49.241 160.382 49.391 156.082 49.191C153.882 49.091 151.532 48.991 149.332 48.591C148.332 48.441 148.132 49.141 148.532 50.091C148.882 50.891 149.732 52.041 151.032 52.641C152.082 53.141 153.682 53.341 154.882 52.941C155.632 52.691 156.132 52.541 157.082 52.441C162.832 51.991 175.382 51.691 189.982 52.091C191.482 52.141 192.582 51.341 192.632 50.391C192.732 48.991 191.332 47.791 189.182 47.791ZM170.482 45.791C178.532 45.791 183.382 42.641 183.382 37.341C183.382 32.591 179.482 29.591 172.832 29.041C173.082 28.741 173.282 28.291 173.182 27.841C172.932 26.891 170.932 26.091 168.782 26.241C168.532 26.241 168.232 26.291 168.032 26.391C167.732 26.541 167.632 26.891 167.582 27.191C167.532 27.591 167.832 27.941 168.032 28.241C168.182 28.491 168.382 28.741 168.482 28.991C161.582 29.491 157.582 32.491 157.582 37.341C157.582 42.641 162.432 45.791 170.482 45.791ZM170.482 31.591C173.782 31.591 175.482 33.191 175.482 37.341C175.482 41.491 173.782 43.141 170.482 43.141C167.182 43.141 165.482 41.491 165.482 37.341C165.482 33.191 167.182 31.591 170.482 31.591Z" fill="#284EB7"/>
<path d="M228.985 51.691C226.085 52.191 221.835 52.741 219.735 52.741C219.085 52.741 218.635 52.241 218.635 51.491V37.491C218.635 36.691 218.635 35.941 218.035 35.291C216.535 33.691 212.635 33.291 210.685 33.791C209.485 34.091 209.135 35.241 209.435 35.941C209.685 36.591 210.235 37.091 210.685 37.841C211.035 38.441 211.285 38.991 211.285 39.941V53.741C211.285 56.191 212.635 58.041 215.085 58.041C220.385 58.041 226.185 55.841 228.935 54.041C229.985 53.341 230.535 52.541 230.335 51.991C230.185 51.641 229.785 51.541 228.985 51.691ZM246.985 27.241C245.385 25.541 242.935 24.791 240.285 24.991C239.035 25.091 237.885 25.891 238.685 27.541C239.035 28.341 239.385 28.641 239.885 29.541C240.235 30.141 240.435 31.191 240.435 32.691V44.891H238.435V32.991C238.435 32.091 238.235 30.891 237.635 30.291C236.085 28.691 233.685 28.091 231.185 28.291C229.935 28.391 228.885 29.441 229.585 30.941C229.935 31.741 230.335 32.041 230.835 32.941C231.185 33.541 231.285 34.591 231.285 36.091V65.941C231.285 66.641 231.735 67.641 232.935 67.641C235.885 67.641 238.435 65.741 238.435 60.691V47.491H240.435V69.791C240.435 70.541 240.835 71.591 242.085 71.591C245.135 71.591 247.785 69.641 247.785 64.391V29.841C247.785 28.941 247.585 27.891 246.985 27.241Z" fill="#284EB7"/>
<path d="M294.141 51.391C292.791 48.891 289.691 46.191 284.591 45.091C285.841 42.391 286.741 39.391 287.291 36.141C288.591 36.191 289.991 36.241 291.491 36.391C292.941 36.541 293.941 35.791 293.991 34.841C294.091 33.441 292.791 32.341 290.741 32.341C289.791 32.341 288.741 32.541 288.041 32.791C287.341 33.041 286.841 33.241 285.791 33.341C283.541 33.541 280.391 33.641 277.991 33.491C275.891 33.391 273.791 33.391 271.641 32.891C270.691 32.691 270.391 33.441 270.791 34.391C271.141 35.191 271.941 36.091 273.191 36.691C274.191 37.191 275.691 37.391 276.841 36.991C277.341 36.841 277.791 36.741 278.341 36.641C277.491 43.691 274.091 50.541 268.241 56.791C267.391 57.691 267.141 58.291 267.491 58.841C267.841 59.341 269.441 59.491 271.141 58.691C276.841 56.041 281.141 51.741 283.991 46.291C285.241 46.841 286.241 47.891 286.541 49.341C286.991 51.541 286.041 52.891 286.291 54.941C286.591 57.341 288.741 59.041 291.141 58.741C293.541 58.441 295.241 56.291 294.941 53.891C294.841 53.091 294.541 52.141 294.141 51.391ZM312.741 42.091C311.291 42.091 309.991 42.841 309.241 43.991C308.291 45.391 307.391 46.041 306.091 46.041V29.791C306.091 28.891 305.891 27.791 305.291 27.191C303.641 25.441 300.841 24.791 297.991 24.991C296.741 25.091 295.691 25.841 296.391 27.541C296.741 28.341 297.041 28.641 297.591 29.491C297.941 30.091 298.191 31.141 298.191 32.641V69.691C298.191 70.491 298.691 71.591 299.991 71.591C303.241 71.591 306.091 69.491 306.091 63.891V47.441C308.691 49.991 310.691 50.541 312.741 50.541C315.091 50.541 316.941 48.641 316.941 46.291C316.941 43.941 315.091 42.091 312.741 42.091Z" fill="#284EB7"/>
<path d="M348.208 29.491C348.558 30.091 348.808 31.141 348.808 32.641V57.541C348.808 58.341 349.308 59.491 350.608 59.491C353.858 59.491 356.708 57.391 356.708 52.541V29.791C356.708 28.891 356.508 27.791 355.908 27.191C354.258 25.441 351.508 24.791 348.658 24.991C347.408 25.091 346.358 25.841 347.058 27.541C347.408 28.341 347.658 28.641 348.208 29.491ZM355.158 65.141C354.458 65.141 353.758 65.291 353.058 65.491C352.408 65.691 351.758 66.091 351.108 66.291C350.608 66.441 350.108 66.491 349.608 66.541C349.108 66.591 348.508 66.641 348.008 66.691H346.408H338.858C337.958 66.691 337.508 66.191 337.508 65.391V58.041C337.508 57.241 337.508 56.491 336.908 55.841C335.308 54.041 331.058 53.791 329.008 54.341C327.808 54.641 327.508 55.791 327.808 56.491C328.058 57.141 328.608 57.641 329.058 58.391C329.408 58.991 329.608 59.541 329.608 60.491V64.891C329.608 68.141 332.058 69.591 336.208 69.591H356.658C358.208 69.591 359.008 68.741 359.108 67.991C359.308 66.341 357.708 65.141 355.158 65.141ZM333.808 41.391C334.508 41.691 335.808 42.291 336.158 43.591C336.608 45.291 336.058 45.891 336.058 47.841C336.058 50.241 338.008 52.141 340.408 52.141C342.808 52.141 344.708 50.241 344.708 47.841C344.708 43.291 339.358 40.891 334.458 40.441C335.508 38.841 336.358 37.241 336.958 35.691C337.858 33.441 338.058 31.891 336.558 30.691C335.508 29.891 333.908 29.041 331.308 28.741C329.608 28.541 327.958 28.841 327.708 30.041C327.408 31.441 329.058 32.641 328.758 33.941C327.758 38.491 323.858 45.341 319.158 50.091C318.258 50.991 318.008 51.641 318.408 52.191C318.758 52.691 319.758 52.991 321.458 52.191C326.258 49.891 330.708 45.791 333.808 41.391Z" fill="#284EB7"/>
<path d="M404.272 27.241C402.672 25.541 400.222 24.791 397.572 24.991C396.322 25.091 395.172 25.891 395.972 27.541C396.322 28.341 396.672 28.641 397.172 29.541C397.522 30.141 397.672 31.191 397.672 32.691V69.791C397.672 70.541 398.122 71.591 399.372 71.591C402.422 71.591 405.072 69.641 405.072 64.391V29.841C405.072 28.941 404.872 27.891 404.272 27.241ZM388.722 28.291C387.472 28.391 386.422 29.441 387.122 30.941C387.472 31.741 387.872 32.041 388.372 32.941C388.722 33.541 388.822 34.591 388.822 36.091V44.141H387.522H386.372C385.772 39.741 382.822 36.441 377.672 35.741C377.872 35.441 378.022 35.041 377.922 34.641C377.722 33.741 375.972 33.041 374.072 33.141C373.872 33.141 373.622 33.191 373.422 33.291C373.172 33.441 373.072 33.741 373.022 34.041C372.972 34.441 373.222 34.741 373.422 35.041C373.572 35.241 373.722 35.491 373.822 35.741C367.972 36.441 364.872 40.591 364.872 45.791C364.872 51.541 368.622 55.891 375.672 55.891C382.122 55.891 385.822 52.241 386.422 47.191C386.572 47.191 386.672 47.191 386.822 47.141C387.272 47.041 387.572 46.841 388.022 46.741C388.322 46.691 388.572 46.641 388.822 46.591V65.941C388.822 66.641 389.272 67.641 390.472 67.641C393.422 67.641 395.972 65.741 395.972 60.691V32.991C395.972 32.091 395.772 30.891 395.172 30.291C393.622 28.691 391.222 28.091 388.722 28.291ZM375.672 53.291C373.322 53.291 372.272 50.991 372.272 45.791C372.272 40.591 373.322 38.241 375.672 38.241C378.022 38.241 379.122 40.591 379.122 45.791C379.122 50.991 378.022 53.291 375.672 53.291Z" fill="#284EB7"/>
<path d="M26.3485 101.891C26.1985 101.441 25.7485 101.241 24.9485 101.341C20.9485 101.741 16.5985 101.941 11.5985 101.941C10.5985 101.941 10.1485 101.291 10.1485 100.391V92.391H20.0985C21.5985 92.391 22.3985 91.591 22.4485 90.891C22.5485 89.241 21.1985 88.341 18.6485 88.341C17.9485 88.341 17.2485 88.491 16.5485 88.691C15.8985 88.891 15.2485 89.141 14.5985 89.341C14.0985 89.491 13.6985 89.591 13.1985 89.641C12.6985 89.691 12.1985 89.691 11.6985 89.741H10.1485H9.84852C7.74852 88.241 3.04853 88.341 1.39853 88.991C0.0485259 89.541 0.0485261 90.391 0.398526 91.091C0.748526 91.741 1.24853 92.2409 1.64853 92.841C1.99853 93.3909 2.24853 93.991 2.24853 94.941V102.391C2.24853 105.141 3.74852 107.241 6.99852 107.241C13.4985 107.241 20.3485 105.991 24.8985 103.841C26.0985 103.241 26.5985 102.641 26.3485 101.891ZM34.1985 123.391C33.4985 123.391 32.7485 123.591 32.0485 123.791C31.3985 123.991 30.7485 124.341 30.0985 124.541C29.5985 124.691 29.0985 124.741 28.5985 124.791C28.0985 124.841 27.5485 124.891 27.0485 124.941C26.8485 124.941 26.0985 124.991 25.3985 124.991H18.9485C18.0485 124.991 17.5985 124.641 17.5985 123.941V120.291H33.4985C34.9985 120.291 35.9485 119.741 35.9985 118.641C36.0485 117.591 35.3485 116.991 34.2485 116.791C34.6485 116.141 34.9985 115.491 35.2985 114.841C35.4485 114.491 35.6985 113.591 35.6985 112.991C35.6985 110.291 34.0985 108.941 31.2485 108.941C29.4985 108.941 28.0985 109.491 27.2985 110.541C23.5985 110.741 17.2485 110.891 15.2485 110.841C13.1985 110.791 11.2985 110.641 9.14852 110.191C8.49852 110.041 8.19852 110.841 8.64852 111.891C8.99852 112.691 9.69852 113.341 10.6985 113.891C11.4985 114.341 12.7485 114.741 13.8985 114.491C14.6985 114.341 15.3985 113.991 16.0985 113.841C17.6485 113.491 23.9485 113.341 27.5485 113.541V117.641H17.2985C15.0485 116.491 10.1485 116.741 8.74852 117.141C7.59852 117.441 7.39852 118.391 7.84852 119.191C8.19852 119.791 8.59852 120.041 9.09852 120.641C9.49852 121.091 9.69852 121.741 9.69852 122.441V123.541C9.69852 126.091 12.1485 127.591 16.2985 127.591H35.6485C37.1985 127.591 37.9985 126.841 38.0985 126.091C38.2985 124.441 36.7485 123.391 34.1985 123.391ZM42.1485 94.591C40.6985 94.591 39.3985 95.341 38.6485 96.491C37.6985 97.891 36.7485 98.541 35.4485 98.541V87.791C35.4485 86.891 35.2985 85.791 34.6985 85.191C33.0485 83.441 30.2485 82.791 27.3985 82.991C26.1485 83.091 25.0985 83.841 25.7985 85.541C26.1485 86.341 26.3985 86.641 26.9485 87.491C27.2985 88.0909 27.5485 89.141 27.5485 90.641V106.341C27.5485 107.141 28.0985 107.991 29.3985 107.991C32.7985 107.991 35.4485 106.341 35.4485 101.641V99.941C38.0485 102.491 40.0985 103.041 42.1485 103.041C44.4985 103.041 46.3485 101.141 46.3485 98.791C46.3485 96.441 44.4985 94.591 42.1485 94.591Z" fill="#284EB7"/>
<path d="M85.702 85.191C84.052 83.441 81.302 82.791 78.452 82.991C77.202 83.091 76.102 83.841 76.802 85.541C77.152 86.341 77.452 86.641 78.002 87.491C78.352 88.0909 78.602 89.141 78.602 90.641V95.291H75.852C74.052 95.291 72.452 95.241 71.152 95.091H71.102C71.102 95.041 71.152 95.091 71.152 95.041C71.252 94.691 71.402 93.7909 71.402 93.1909C71.402 90.491 69.652 89.141 66.802 89.141C65.002 89.141 63.552 89.7409 62.702 90.841C61.052 90.991 59.252 91.091 57.652 91.041C55.602 90.991 53.702 90.841 51.552 90.391C50.902 90.241 50.602 91.041 51.052 92.091C51.402 92.891 52.102 93.541 53.102 94.091C53.902 94.541 55.202 94.941 56.352 94.691C57.152 94.541 57.802 94.191 58.502 94.041C59.852 93.741 61.302 93.5909 63.002 93.6909V101.391H59.602C57.452 100.141 52.902 100.291 51.252 100.891C49.902 101.391 49.9021 102.291 50.2521 102.991C50.5521 103.541 51.102 104.041 51.502 104.641C51.852 105.191 52.102 105.641 52.102 106.591V112.141C52.102 114.891 53.602 116.941 56.852 116.941C63.352 116.941 69.452 115.341 74.002 112.941C75.102 112.341 75.652 111.791 75.402 111.041C75.252 110.591 74.802 110.441 74.002 110.591C68.502 111.441 65.402 111.691 61.452 111.691C60.452 111.691 60.002 110.991 60.002 110.091V104.041H68.802C70.302 104.041 71.252 103.491 71.302 102.391C71.352 101.241 70.502 100.641 69.252 100.491C69.702 99.341 70.102 98.091 70.502 96.991C70.702 97.341 70.952 97.741 71.252 97.991C71.402 98.141 71.552 98.241 71.702 98.341C72.202 98.691 72.802 98.891 73.402 98.941C73.952 98.991 74.502 98.941 75.002 98.791C75.502 98.641 75.852 98.441 76.402 98.341C77.252 98.141 77.852 98.091 78.552 98.041H78.602V105.091H75.702C73.902 105.091 72.302 105.041 71.002 104.891C70.402 104.841 69.952 105.191 70.052 105.841C70.152 106.591 70.552 107.291 71.102 107.791C71.252 107.941 71.452 108.041 71.602 108.141C72.102 108.491 72.652 108.691 73.252 108.741C73.802 108.791 74.352 108.741 74.852 108.591C75.352 108.441 75.752 108.241 76.302 108.141C77.152 107.941 77.752 107.891 78.452 107.841H78.602V127.691C78.602 128.491 79.102 129.591 80.402 129.591C83.652 129.591 86.502 127.491 86.502 121.891V87.791C86.502 86.891 86.302 85.791 85.702 85.191Z" fill="#284EB7"/>
<path d="M118.858 107.591C126.608 107.591 130.758 103.541 130.758 98.241C130.758 93.491 127.408 89.691 121.108 88.991C121.308 88.691 121.408 88.291 121.308 87.891C121.058 86.941 119.208 86.191 117.158 86.341C116.958 86.341 116.707 86.391 116.507 86.491C116.257 86.641 116.108 86.9409 116.058 87.241C116.008 87.6409 116.307 88.041 116.507 88.341C116.657 88.541 116.758 88.741 116.858 88.991C110.408 89.641 107.007 93.441 107.007 98.241C107.007 103.541 111.108 107.591 118.858 107.591ZM118.858 91.541C121.608 91.541 122.808 93.591 122.808 98.241C122.808 102.891 121.608 104.941 118.858 104.941C116.108 104.941 114.908 102.891 114.908 98.241C114.908 93.591 116.108 91.541 118.858 91.541ZM135.557 87.491C135.907 88.0909 136.158 89.141 136.158 90.641V106.341C136.158 107.141 136.658 108.241 137.958 108.241C141.208 108.241 144.058 106.191 144.058 101.341V87.791C144.058 86.891 143.858 85.791 143.258 85.191C141.608 83.441 138.808 82.791 135.958 82.991C134.708 83.091 133.657 83.841 134.357 85.541C134.707 86.341 135.007 86.641 135.557 87.491ZM139.557 118.791C140.257 117.491 140.758 116.241 141.008 115.141C141.208 114.241 141.458 113.191 141.208 112.241C140.608 110.041 137.408 109.341 135.458 109.291C133.808 109.241 132.557 109.541 132.357 110.641C132.157 111.791 133.658 112.791 133.458 114.091C133.158 116.141 132.058 118.791 130.408 121.491C129.157 119.991 126.808 118.941 124.408 118.491C125.058 117.491 125.608 116.541 125.908 115.691C126.658 113.741 126.258 112.491 125.108 111.641C124.308 111.041 122.508 110.241 120.208 110.041C118.558 109.891 117.558 110.491 117.458 111.391C117.358 112.491 118.508 113.441 118.308 114.541C117.758 117.641 114.608 122.441 110.208 126.491C109.308 127.341 109.158 127.841 109.408 128.241C109.658 128.641 110.757 128.691 112.507 128.091C117.358 126.491 121.408 122.741 123.808 119.391C125.158 120.791 124.958 121.941 125.058 124.191C125.108 125.191 125.608 126.091 126.408 126.641L125.808 127.241C124.908 128.141 124.758 128.791 125.208 129.291C125.508 129.641 126.508 129.691 128.258 129.091C132.708 127.491 136.557 123.691 138.857 119.991C140.558 121.491 140.708 122.941 140.958 125.591C141.158 127.541 142.758 129.041 144.758 129.041C146.858 129.041 148.557 127.291 148.557 125.191C148.557 121.791 144.407 119.541 139.557 118.791Z" fill="#284EB7"/>
<path d="M178.074 110.091C172.574 110.941 168.674 111.141 164.724 111.141C163.724 111.141 163.274 110.491 163.274 109.591V94.491H173.224C174.724 94.491 175.524 93.691 175.574 92.991C175.674 91.341 174.324 90.391 171.774 90.391C171.074 90.391 170.374 90.591 169.674 90.791C169.024 90.991 168.374 91.241 167.724 91.441C167.224 91.591 166.824 91.641 166.324 91.691L164.824 91.841H163.274H162.974C160.874 90.341 156.174 90.391 154.524 91.041C153.174 91.591 153.174 92.441 153.524 93.141C153.874 93.791 154.374 94.291 154.774 94.891C155.124 95.441 155.374 96.091 155.374 97.041V111.591C155.374 114.341 156.874 116.441 160.124 116.441C166.624 116.441 173.474 114.841 178.024 112.441C179.124 111.841 179.724 111.241 179.474 110.491C179.324 110.041 178.874 109.941 178.074 110.091ZM195.274 100.091C193.824 100.091 192.524 100.841 191.774 101.991C190.824 103.391 189.874 104.041 188.574 104.041V87.791C188.574 86.891 188.424 85.791 187.824 85.191C186.174 83.441 183.374 82.791 180.524 82.991C179.274 83.091 178.224 83.841 178.924 85.541C179.274 86.341 179.524 86.641 180.074 87.491C180.424 88.0909 180.674 89.141 180.674 90.641V127.691C180.674 128.491 181.224 129.591 182.524 129.591C185.774 129.591 188.574 127.491 188.574 121.891V105.441C191.174 107.991 193.224 108.541 195.274 108.541C197.624 108.541 199.474 106.641 199.474 104.291C199.474 101.941 197.624 100.091 195.274 100.091Z" fill="#284EB7"/>
<path d="M17.4256 11.2511C17.4256 11.9689 17.2934 12.6489 17.0289 13.2912C16.7644 13.9335 16.3866 14.5002 15.8955 14.9913C15.4421 15.4447 14.8943 15.8036 14.252 16.0681C13.6097 16.3326 12.9108 16.4648 12.1552 16.4648C10.644 16.4648 9.37832 15.9736 8.35824 14.9913C7.33816 13.9713 6.82812 12.46 6.82812 10.4577C6.82812 8.68198 7.39483 6.8874 8.52825 5.07393C9.66167 3.22268 11.4751 1.57922 13.9687 0.143555L14.9321 1.2203C13.4964 2.31594 12.7597 3.31713 12.7219 4.22386C12.6841 5.1306 13.2886 5.9051 14.5354 6.54737C15.3288 6.96296 16.0088 7.54856 16.5755 8.30417C17.1422 9.022 17.4256 10.0043 17.4256 11.2511Z" fill="#284EB7"/>
<path d="M31.1561 11.2511C31.1561 11.9689 31.0238 12.6489 30.7594 13.2912C30.4949 13.9335 30.1171 14.5002 29.6259 14.9913C29.1726 15.4447 28.6248 15.8036 27.9825 16.0681C27.3402 16.3326 26.6413 16.4648 25.8857 16.4648C24.3744 16.4648 23.1088 15.9736 22.0887 14.9913C21.0686 13.9713 20.5586 12.46 20.5586 10.4577C20.5586 8.68198 21.1253 6.8874 22.2587 5.07393C23.3921 3.22268 25.2056 1.57922 27.6991 0.143555L28.6625 1.2203C27.2269 2.31594 26.4902 3.31713 26.4524 4.22386C26.4146 5.1306 27.0191 5.9051 28.2658 6.54737C29.0592 6.96296 29.7393 7.54856 30.306 8.30417C30.8727 9.022 31.1561 10.0043 31.1561 11.2511Z" fill="#284EB7"/>
</svg>
