<svg width="26" height="17" viewBox="0 0 26 17" fill="none" xmlns="http://www.w3.org/2000/svg">
<path d="M11.4471 11.1534C11.4471 11.8712 11.3148 12.5513 11.0504 13.1936C10.7859 13.8358 10.4081 14.4025 9.91696 14.8937C9.46359 15.3471 8.91578 15.706 8.2735 15.9704C7.63123 16.2349 6.93229 16.3671 6.17668 16.3671C4.66545 16.3671 3.3998 15.876 2.37973 14.8937C1.35965 13.8736 0.849609 12.3624 0.849609 10.36C0.849609 8.58432 1.41632 6.78974 2.54974 4.97627C3.68316 3.12502 5.49663 1.48156 7.99015 0.0458984L8.95356 1.12264C7.51789 2.21828 6.78117 3.21947 6.74339 4.12621C6.70561 5.03294 7.3101 5.80745 8.55686 6.44972C9.35025 6.8653 10.0303 7.4509 10.597 8.20651C11.1637 8.92435 11.4471 9.90665 11.4471 11.1534Z" fill="#1443BC"/>
<path d="M25.1775 11.1534C25.1775 11.8712 25.0453 12.5513 24.7808 13.1936C24.5164 13.8358 24.1386 14.4025 23.6474 14.8937C23.1941 15.3471 22.6462 15.706 22.004 15.9704C21.3617 16.2349 20.6628 16.3671 19.9071 16.3671C18.3959 16.3671 17.1303 15.876 16.1102 14.8937C15.0901 13.8736 14.5801 12.3624 14.5801 10.36C14.5801 8.58432 15.1468 6.78974 16.2802 4.97627C17.4136 3.12502 19.2271 1.48156 21.7206 0.0458984L22.684 1.12264C21.2484 2.21828 20.5116 3.21947 20.4739 4.12621C20.4361 5.03294 21.0406 5.80745 22.2873 6.44972C23.0807 6.8653 23.7608 7.4509 24.3275 8.20651C24.8942 8.92435 25.1775 9.90665 25.1775 11.1534Z" fill="#1443BC"/>
</svg>
