<svg width="14" height="9" viewBox="0 0 14 9" fill="none" xmlns="http://www.w3.org/2000/svg">
<path d="M7.58956 3.0776C7.58956 2.70067 7.659 2.34357 7.79787 2.00631C7.93674 1.66906 8.13513 1.37148 8.39303 1.11358C8.63109 0.875515 8.91875 0.687048 9.25601 0.548177C9.59327 0.409307 9.96028 0.339872 10.3571 0.339872C11.1506 0.339872 11.8152 0.597774 12.3508 1.11358C12.8865 1.64922 13.1543 2.44277 13.1543 3.49421C13.1543 4.42663 12.8567 5.36896 12.2616 6.32122C11.6664 7.29331 10.7141 8.15629 9.4048 8.91016L8.89891 8.34476C9.65278 7.76944 10.0396 7.24371 10.0595 6.76758C10.0793 6.29146 9.76189 5.88477 9.10722 5.54751C8.69061 5.32928 8.33351 5.02179 8.03593 4.62501C7.73835 4.24808 7.58956 3.73227 7.58956 3.0776Z" fill="#313131"/>
<path d="M0.378627 3.0776C0.378627 2.70067 0.448062 2.34357 0.586932 2.00631C0.725803 1.66906 0.924189 1.37148 1.18209 1.11358C1.42015 0.875515 1.70781 0.687048 2.04507 0.548177C2.38233 0.409307 2.74934 0.339872 3.14611 0.339872C3.93966 0.339872 4.60425 0.597774 5.1399 1.11358C5.67554 1.64922 5.94336 2.44277 5.94336 3.49421C5.94336 4.42663 5.64578 5.36896 5.05062 6.32122C4.45546 7.29331 3.50321 8.15629 2.19386 8.91016L1.68797 8.34476C2.44184 7.76944 2.8287 7.24371 2.84853 6.76758C2.86837 6.29146 2.55096 5.88477 1.89628 5.54751C1.47967 5.32928 1.12257 5.02179 0.824995 4.62501C0.527416 4.24808 0.378627 3.73227 0.378627 3.0776Z" fill="#313131"/>
</svg>
