<svg width="14" height="10" viewBox="0 0 14 10" fill="none" xmlns="http://www.w3.org/2000/svg">
<path d="M6.21903 6.28898C6.21903 6.66591 6.14959 7.02301 6.01072 7.36026C5.87185 7.69752 5.67347 7.9951 5.41557 8.253C5.1775 8.49106 4.88984 8.67953 4.55259 8.8184C4.21533 8.95727 3.84831 9.0267 3.45154 9.0267C2.658 9.0267 1.9934 8.7688 1.45776 8.253C0.922118 7.71736 0.654297 6.92381 0.654297 5.87236C0.654297 4.93995 0.951876 3.99762 1.54703 3.04536C2.14219 2.07327 3.09445 1.21029 4.4038 0.456421L4.90968 1.02182C4.15581 1.59714 3.76896 2.12287 3.74912 2.59899C3.72928 3.07512 4.0467 3.48181 4.70138 3.81907C5.11799 4.03729 5.47508 4.34479 5.77266 4.74156C6.07024 5.1185 6.21903 5.6343 6.21903 6.28898Z" fill="#313131"/>
<path d="M13.428 6.28898C13.428 6.66591 13.3586 7.02301 13.2197 7.36026C13.0808 7.69752 12.8825 7.9951 12.6246 8.253C12.3865 8.49106 12.0988 8.67953 11.7616 8.8184C11.4243 8.95727 11.0573 9.0267 10.6605 9.0267C9.86698 9.0267 9.20239 8.7688 8.66675 8.253C8.1311 7.71736 7.86328 6.92381 7.86328 5.87236C7.86328 4.93995 8.16086 3.99762 8.75602 3.04536C9.35118 2.07327 10.3034 1.21029 11.6128 0.456421L12.1187 1.02182C11.3648 1.59714 10.9779 2.12287 10.9581 2.59899C10.9383 3.07512 11.2557 3.48181 11.9104 3.81907C12.327 4.03729 12.6841 4.34479 12.9816 4.74156C13.2792 5.1185 13.428 5.6343 13.428 6.28898Z" fill="#313131"/>
</svg>
