<svg width="6" height="8" viewBox="0 0 6 8" fill="none" xmlns="http://www.w3.org/2000/svg">
<path d="M0.699707 2.84407C0.699707 2.54769 0.754303 2.26691 0.863496 2.00172C0.972689 1.73654 1.12088 1.51035 1.30807 1.32317C1.51086 1.12038 1.74484 0.96439 2.01002 0.855197C2.27521 0.746004 2.56379 0.691406 2.87577 0.691406C3.49973 0.691406 4.02229 0.901992 4.44347 1.32317C4.86464 1.72874 5.07523 2.3449 5.07523 3.17165C5.07523 3.9048 4.84124 4.64575 4.37327 5.39451C3.9053 6.15886 3.15655 6.83741 2.12702 7.43018L1.72924 6.9856C2.322 6.53323 2.62618 6.11986 2.64178 5.74548C2.65738 5.37111 2.4078 5.05133 1.89303 4.78614C1.56545 4.61456 1.28467 4.37277 1.05068 4.06079C0.8167 3.76441 0.699707 3.35884 0.699707 2.84407Z" fill="white"/>
</svg>
