<svg width="211" height="156" viewBox="0 0 211 156" fill="none" xmlns="http://www.w3.org/2000/svg">
<g clip-path="url(#clip0_1087_540)">
<path d="M22.7091 126.368L70.3694 139.887L109.546 120.099L104.239 71.2267L60.3059 47.8521L26.3577 77.5038L22.7091 126.368Z" stroke="white" stroke-miterlimit="10"/>
<path d="M109.12 119.804L23.1338 126.062L60.0883 48.4747L109.12 119.804Z" stroke="white" stroke-miterlimit="10"/>
<path d="M42.0786 87.4133L84.5898 84.2628L66.1461 122.691L42.0786 87.4133Z" stroke="white" stroke-miterlimit="10"/>
<path d="M48.6456 133.471L66.0024 123.1L88.1112 130.842L48.6456 133.471Z" stroke="white" stroke-linejoin="round"/>
<path d="M106.674 93.5857L84.8119 84.0732L83.0578 60.0489L106.674 93.5857Z" stroke="white" stroke-linejoin="round"/>
<path d="M24.8682 99.2958L41.7538 87.2467L42.7383 63.2227L24.8682 99.2958Z" stroke="white" stroke-linejoin="round"/>
<path d="M104.119 71.6027L153.457 33.3711" stroke="white" stroke-linejoin="round"/>
<path d="M168.249 44.377L153.348 33.2068L150.629 17.3492L166.858 8.34784L183.042 16.0177L181.671 32.8293L168.249 44.377Z" stroke="white" stroke-linejoin="round"/>
<path d="M168.005 44.2777L183.039 16.0193L150.626 17.3508L168.005 44.2777Z" stroke="white" stroke-linejoin="round"/>
<path d="M159.14 30.9584L166.887 16.8352C166.887 16.8352 175.659 30.4366 175.487 30.5063C175.315 30.576 159.14 30.9584 159.14 30.9584Z" stroke="white" stroke-linejoin="round"/>
<path d="M159.762 38.1273L159.328 30.5278L152.043 26.1129L159.762 38.1273Z" stroke="white" stroke-linejoin="round"/>
<path d="M175.37 38.3647L175.02 30.4783L182.082 24.9414L175.37 38.3647Z" stroke="white" stroke-linejoin="round"/>
<path d="M174.127 11.8572L166.886 16.8167L158.741 12.7954L174.127 11.8572Z" stroke="white" stroke-linejoin="round"/>
</g>
<defs>
<clipPath id="clip0_1087_540">
<rect width="191" height="90" fill="white" transform="matrix(-0.926705 0.37579 0.37579 0.926705 177 0)"/>
</clipPath>
</defs>
</svg>
