<svg width="390" height="185" viewBox="0 0 390 185" fill="none" xmlns="http://www.w3.org/2000/svg">
<g clip-path="url(#clip0_422_1044)">
<path d="M388.755 121.539L309.148 184.106L220.063 176.674L192.675 79.4781L257.703 1.01562L344.47 31.2755L388.755 121.539Z" stroke="white" stroke-miterlimit="10"/>
<path d="M220.646 175.779L387.724 121.28L258.595 2.0293L220.646 175.779Z" stroke="white" stroke-miterlimit="10"/>
<path d="M322.387 62.291L239.741 89.1275L303.962 148.082L322.387 62.291Z" stroke="white" stroke-miterlimit="10"/>
<path d="M345.242 155.102L304.545 148.754L268.743 180.579L345.242 155.102Z" stroke="white" stroke-linejoin="round"/>
<path d="M205.192 123.947L239.174 88.9391L224.098 41.8203L205.192 123.947Z" stroke="white" stroke-linejoin="round"/>
<path d="M363.959 71.6324L322.868 61.7235L302.623 16.7207L363.959 71.6324Z" stroke="white" stroke-linejoin="round"/>
<path d="M193.19 80.0963L70.8096 45.3809" stroke="white" stroke-linejoin="round"/>
<path d="M51.3196 77.7745L70.8949 44.9858L63.889 12.6787L26.3696 8.06836L1.69434 35.1801L17.1486 66.1454L51.3196 77.7745Z" stroke="white" stroke-linejoin="round"/>
<path d="M51.6973 77.3951L1.69434 35.1791L63.889 12.6777L51.6973 77.3951Z" stroke="white" stroke-linejoin="round"/>
<path d="M58.2395 45.1746L32.8088 24.2559C32.8088 24.2559 26.6614 56.9414 27.0392 56.9414C27.417 56.9414 58.2395 45.1746 58.2395 45.1746Z" stroke="white" stroke-linejoin="round"/>
<path d="M62.5496 59.3161L57.5527 44.5044L67.9242 30.4668L62.5496 59.3161Z" stroke="white" stroke-linejoin="round"/>
<path d="M33.273 71.8229L27.8983 56.5296L10.332 51.4375L33.273 71.8229Z" stroke="white" stroke-linejoin="round"/>
<path d="M15.3281 20.3676L32.7914 24.2211L45.0861 10.2695L15.3281 20.3676Z" stroke="white" stroke-linejoin="round"/>
</g>
<defs>
<clipPath id="clip0_422_1044">
<rect width="389" height="185" fill="white" transform="translate(0.835938)"/>
</clipPath>
</defs>
</svg>
