<svg width="457" height="395" viewBox="0 0 457 395" fill="none" xmlns="http://www.w3.org/2000/svg">
<g clip-path="url(#clip0_423_1410)">
<path d="M449.486 189.277L444.499 188.633L433.905 184.063L417.455 176.895L399.516 163.434L381.99 146.067L362.519 127.827L348.884 115.217L342.407 105.225L342.18 97.6426" stroke="white" stroke-miterlimit="10"/>
<path d="M434.339 184.5L414.434 199.498L417.455 177.332L396.908 187.99L398.646 163.227L375.927 172.118L381.99 146.068L356.456 153.879L362.519 127.828L340.027 137.156L348.883 115.218L330.509 123.694L341.972 105.662L326.826 114.138" stroke="white" stroke-linejoin="round"/>
<path d="M437.154 205.791L428.505 205.355L414.435 199.497L395.833 187.323L375.287 171.909L356.25 154.313L339.801 136.718L330.51 123.484L327.055 113.264" stroke="white" stroke-linejoin="round"/>
<path d="M420.269 218.381L407.088 215.141L391.073 209.054L370.961 195.364L352.359 177.768L336.778 161.274L324.012 148.227L317.742 134.766L330.509 123.693L324.012 148.227L340.461 137.383L336.985 161.71L355.815 153.878L353.001 177.997L376.589 171.91L370.961 195.364L396.267 187.553L391.508 208.825L413.999 199.061L408.371 214.912L428.069 205.356L419.42 217.509" stroke="white" stroke-linejoin="round"/>
<path d="M401.025 224.469L407.957 215.785L386.107 221.436L391.507 209.054L367.919 212.523L370.526 194.928L349.979 197.545L352.359 177.769L337.647 181.466L336.778 161.274L325.087 171.038L324.674 148.02L316.004 159.093L317.101 134.559" stroke="white" stroke-linejoin="round"/>
<path d="M405.786 224.468L386.543 222.079L368.148 213.188L349.981 197.545L337.214 181.674L324.675 171.474L316.005 159.529L312.984 148.664" stroke="white" stroke-linejoin="round"/>
<path d="M385.239 227.294L386.108 221.435L366.844 223.16L367.486 212.959L346.505 210.134L349.981 197.545L332.455 193.203L337.214 181.674" stroke="white" stroke-linejoin="round"/>
<path d="M324.447 170.392L332.455 193.202L346.07 209.925L367.072 223.823L385.446 227.729L404.275 224.675L419.421 218.609L436.926 206.02L449.052 189.276L454.887 170.829L455.549 149.328L447.748 125.874L435.416 108.05L418.552 93.5078L401.234 86.133L399.289 90.0385L380.914 84.8242L401.027 85.9045" stroke="white" stroke-linejoin="round"/>
<path d="M368.147 224.031L347.6 218.173L347.373 210.133L331.151 203.61L332.227 193.618L319.688 182.981L324.674 171.473" stroke="white" stroke-linejoin="round"/>
<path d="M347.601 218.381L330.51 203.839L318.819 182.545L314.929 159.964L312.777 149.328L316.667 135.638L326.392 113.493L341.745 97.642L360.14 87.8574" stroke="white" stroke-linejoin="round"/>
<path d="M444.934 188.84L428.07 205.355L433.036 184.727" stroke="white" stroke-linejoin="round"/>
<path d="M445.367 188.196L447.54 168.004L434.546 184.291L433.697 161.917L418.323 176.251L417.889 156.703L400.156 163.662L404.915 140.416L381.989 146.067L387.183 122.177L363.594 127.599L371.602 108.05L349.752 115.01L357.966 100.447L342.406 104.581L359.497 88.7305" stroke="white" stroke-linejoin="round"/>
<path d="M359.27 89.6035L358.629 100.24L370.961 107.407L387.618 121.741L405.143 139.544L417.455 156.704L434.132 161.71L448.182 167.361L454.451 171.474" stroke="white" stroke-linejoin="round"/>
<path d="M454.886 149.1L448.617 167.36L443.216 143.678L434.132 161.71L427.408 139.107L418.117 155.831" stroke="white" stroke-linejoin="round"/>
<path d="M427.408 139.108L405.785 139.773L412.489 119.144L388.052 121.533L394.094 102.421L371.603 108.051L377.024 92.8652L358.629 100.24" stroke="white" stroke-linejoin="round"/>
<path d="M359.271 90.0391L376.797 92.4281L394.323 101.756L411.849 118.707L427.202 138.256L443.652 143.47L455.549 150.408" stroke="white" stroke-linejoin="round"/>
<path d="M427.202 138.255L432.83 121.096L412.283 119.579L417.042 102.628L394.095 102.42L398.647 90.2462L377.025 92.8638L380.687 84.5957L359.934 88.0857" stroke="white" stroke-linejoin="round"/>
<path d="M444.066 143.47L447.314 126.31L432.83 121.096L434.341 107.842L416.815 102.192L417.891 94.1523L399.289 90.0391L417.456 102.42L432.83 120.431L444.066 143.034" stroke="white" stroke-linejoin="round"/>
<path d="M146.583 281.057L161.77 264.729L167.626 238.761L157.363 223.866L142.092 220.812L125.663 224.406L118.049 232.114L111.655 251.911L122.415 271.896L146.583 281.057Z" stroke="white" stroke-miterlimit="10"/>
<path d="M146.148 281.639L161.873 273.869L166.219 269.423L171.971 249.335L167.915 239.363L146.024 236.684L121.877 242.168L111.345 251.932" stroke="white" stroke-miterlimit="10"/>
<path d="M122.415 271.894L129.864 265.828L148.176 262.463L161.77 264.727L166.219 269.422" stroke="white" stroke-miterlimit="10"/>
<path d="M147.617 281.409L129.864 265.828L121.132 242.748L126.118 224.301" stroke="white" stroke-miterlimit="10"/>
<path d="M142.093 220.812L146.169 236.206L147.783 262.714L146.583 281.057" stroke="white" stroke-miterlimit="10"/>
<path d="M122.001 271.459L126.843 277.753L146.727 281.514" stroke="white" stroke-miterlimit="10"/>
<path d="M270.918 37.2933L271.973 21.6504L263.697 4.92736L251.53 1.375L241.867 6.50618L234.521 15.7714L233.756 23.3539L239.032 36.9817L253.702 43.0684L270.918 37.2933Z" stroke="white" stroke-miterlimit="10"/>
<path d="M270.918 37.8135L276.05 26.5956L276.464 22.233L270.732 8.72991L264.111 5.11523L251.013 13.3833L240.295 27.1149L238.867 37.1072" stroke="white" stroke-miterlimit="10"/>
<path d="M253.703 43.0684L255.089 36.4415L263.552 26.47L271.974 21.6504L276.464 22.2321" stroke="white" stroke-miterlimit="10"/>
<path d="M271.622 37.0238L255.089 36.4422L240.15 27.7586L234.729 15.502" stroke="white" stroke-miterlimit="10"/>
<path d="M241.867 6.50781L250.889 13.0724L263.469 26.7833L270.918 37.2949" stroke="white" stroke-miterlimit="10"/>
<path d="M253.289 43.0064L258.69 44.2736L271.187 37.4805" stroke="white" stroke-miterlimit="10"/>
<path d="M166.219 356.882L146.169 280.08" stroke="white" stroke-miterlimit="10"/>
<path d="M188.296 383.494L187.013 383.369L184.22 382.226L180.02 380.294L175.426 376.846L170.833 372.38L165.743 367.643L162.308 364.319L160.528 361.764V359.832" stroke="white" stroke-width="0.75" stroke-miterlimit="10"/>
<path d="M184.344 382.351L179.254 386.194L180.02 380.419L174.661 383.244L175.178 376.846L169.322 379.152L170.833 372.38L164.211 374.415L165.743 367.643L160.011 370.074L162.308 364.319L157.466 366.625L160.528 361.889L156.576 364.049" stroke="white" stroke-width="0.75" stroke-linejoin="round"/>
<path d="M185.11 387.855L182.813 387.71L179.254 386.193L174.412 382.994L169.053 379.026L164.211 374.539L159.887 369.948L157.466 366.479L156.576 363.799" stroke="white" stroke-width="0.75" stroke-linejoin="round"/>
<path d="M180.785 391.055L177.33 390.287L173.129 388.604L167.915 385.155L163.197 380.564L159.121 376.326L155.811 372.878L154.155 369.43L157.466 366.625L155.811 372.878L160.011 370.073L159.121 376.326L164.087 374.415L163.322 380.564L169.446 379.027L167.915 385.155L174.536 383.12L173.254 388.604L179.13 386.049L177.599 390.141L182.689 387.711L180.516 390.785" stroke="white" stroke-width="0.75" stroke-linejoin="round"/>
<path d="M175.82 392.697L177.599 390.411L171.868 391.803L173.254 388.604L167.15 389.518L167.916 385.031L162.556 385.675L163.198 380.565L159.37 381.458L159.122 376.327L156.059 378.757L155.935 372.878L153.783 375.703L154.032 369.43" stroke="white" stroke-width="0.75" stroke-linejoin="round"/>
<path d="M176.958 392.571L171.992 392.073L167.274 389.767L162.556 385.674L159.246 381.582L156.059 378.902L153.783 375.827L153.018 373.002" stroke="white" stroke-width="0.75" stroke-linejoin="round"/>
<path d="M171.619 393.34L171.867 391.803L166.901 392.322L167.026 389.642L161.666 388.874L162.556 385.675L157.983 384.511L159.246 381.582" stroke="white" stroke-width="0.75" stroke-linejoin="round"/>
<path d="M155.935 378.632L157.983 384.511L161.542 388.874L167.025 392.447L171.743 393.465L176.585 392.696L180.516 391.18L184.986 387.856L188.172 383.493L189.703 378.757L189.827 373.272L187.903 367.123L184.737 362.532L180.268 358.814L175.819 356.778L175.302 357.92L170.584 356.508L175.695 356.778" stroke="white" stroke-width="0.75" stroke-linejoin="round"/>
<path d="M167.274 392.572L161.936 391.055V388.999L157.715 387.212L157.983 384.657L154.673 381.831L156.059 378.902" stroke="white" stroke-width="0.75" stroke-linejoin="round"/>
<path d="M161.936 391.054L157.466 387.335L154.549 381.83L153.39 375.951L152.894 373.271L153.907 369.677L156.453 363.923L160.405 359.831L165.246 357.275" stroke="white" stroke-width="0.75" stroke-linejoin="round"/>
<path d="M187.159 383.368L182.689 387.709L184.096 382.35" stroke="white" stroke-width="0.75" stroke-linejoin="round"/>
<path d="M187.282 383.244L187.779 378.009L184.468 382.226L184.22 376.472L180.268 380.17L180.144 375.059L175.55 376.846L176.709 370.842L170.833 372.38L172.116 366.106L166.136 367.518L168.163 362.533L162.432 364.319L164.605 360.601L160.528 361.639L164.977 357.547" stroke="white" stroke-width="0.75" stroke-linejoin="round"/>
<path d="M164.977 357.67L164.729 360.474L168.039 362.386L172.24 365.98L176.833 370.716L180.02 375.058L184.344 376.325L187.903 377.862L189.579 378.901" stroke="white" stroke-width="0.75" stroke-linejoin="round"/>
<path d="M189.704 373.148L188.049 377.864L186.642 371.736L184.345 376.327L182.565 370.572L180.145 374.935" stroke="white" stroke-width="0.75" stroke-linejoin="round"/>
<path d="M182.565 370.572L176.957 370.717L178.737 365.337L172.364 365.981L173.895 361.12L168.163 362.532L169.57 358.564L164.729 360.476" stroke="white" stroke-width="0.75" stroke-linejoin="round"/>
<path d="M164.977 357.795L169.446 358.418L174.039 360.869L178.612 365.336L182.564 370.322L186.765 371.61L189.827 373.521" stroke="white" stroke-width="0.75" stroke-linejoin="round"/>
<path d="M182.564 370.323L183.971 365.856L178.612 365.461L179.895 361.12H173.894L175.177 357.92L169.57 358.564L170.46 356.508L165.121 357.276" stroke="white" stroke-width="0.75" stroke-linejoin="round"/>
<path d="M186.89 371.735L187.78 367.247L183.972 365.856L184.345 362.532L179.896 360.994L180.145 358.938L175.303 357.92L180.02 360.994L183.972 365.731L186.89 371.61" stroke="white" stroke-width="0.75" stroke-linejoin="round"/>
<path d="M26.8196 176.46L25.8885 176.376L23.8194 175.525L20.7363 174.112L17.3843 171.578L14.0116 168.295L10.2871 164.826L7.76273 162.396L6.43848 160.505V159.113" stroke="white" stroke-width="0.25" stroke-miterlimit="10"/>
<path d="M23.923 175.608L20.1778 178.433L20.7365 174.216L16.8258 176.273L17.1982 171.578L12.8944 173.261L14.0117 168.296L9.14921 169.791L10.2872 164.826L6.06618 166.613L7.76288 162.396L4.20394 164.079L6.43862 160.609L3.5625 162.209" stroke="white" stroke-width="0.25" stroke-linejoin="round"/>
<path d="M24.4816 179.659L22.8056 179.555L20.1778 178.433L16.6395 176.085L12.7082 173.177L9.14921 169.895L5.98341 166.509L4.20394 163.974L3.5625 162.021" stroke="white" stroke-width="0.25" stroke-linejoin="round"/>
<path d="M21.316 181.985L18.7916 181.424L15.7086 180.22L11.86 177.685L8.40449 174.299L5.42491 171.204L2.98331 168.669L1.7832 166.135L4.20411 164.078L2.98331 168.669L6.06635 166.613L5.42491 171.204L9.06662 169.791L8.50795 174.299L12.998 173.177L11.86 177.685L16.7225 176.189L15.7914 180.22L20.0952 178.329L18.9779 181.341L22.7023 179.555L21.1298 181.798" stroke="white" stroke-width="0.25" stroke-linejoin="round"/>
<path d="M17.6533 183.211L18.9775 181.528L14.7564 182.567L15.791 180.22L11.301 180.864L11.8596 177.581L7.94892 178.059L8.40414 174.299L5.61078 174.964L5.42456 171.204L3.16918 172.99L3.08641 168.669L1.49316 170.747L1.67939 166.135" stroke="white" stroke-width="0.25" stroke-linejoin="round"/>
<path d="M18.5017 183.128L14.86 182.754L11.4045 181.051L7.949 178.059L5.5074 175.047L3.16926 173.074L1.49324 170.83L0.93457 168.773" stroke="white" stroke-width="0.25" stroke-linejoin="round"/>
<path d="M14.5702 183.689L14.7564 182.567L11.1147 182.941L11.2182 180.967L7.28676 180.407L7.94889 178.059L4.57617 177.207L5.50729 175.047" stroke="white" stroke-width="0.25" stroke-linejoin="round"/>
<path d="M3.08691 172.907L4.5767 177.208L7.20453 180.407L11.2187 183.024L14.6742 183.772L18.2331 183.211L21.1299 182.089L24.3992 179.659L26.7166 176.46L27.8547 172.99L27.9374 168.96L26.5304 164.452L24.213 161.066L20.9437 158.345L17.6538 156.849L17.2813 157.701L13.8258 156.662L17.571 156.849" stroke="white" stroke-width="0.25" stroke-linejoin="round"/>
<path d="M11.4044 183.127L7.473 181.984V180.489L4.38996 179.18L4.57618 177.31L2.15527 175.233L3.16916 173.072" stroke="white" stroke-width="0.25" stroke-linejoin="round"/>
<path d="M7.47285 181.985L4.20359 179.285L2.05167 175.234L1.22401 170.934L0.851562 168.96L1.59646 166.322L3.4587 162.105L6.35551 159.113L9.91445 157.223" stroke="white" stroke-width="0.25" stroke-linejoin="round"/>
<path d="M25.9714 176.376L22.7021 179.554L23.7367 175.607" stroke="white" stroke-width="0.25" stroke-linejoin="round"/>
<path d="M26.0747 176.273L26.4472 172.43L24.0056 175.525L23.8194 171.308L20.9432 174.029L20.8398 170.269L17.4671 171.578L18.3154 167.174L14.0116 168.296L14.9634 163.705L10.5561 164.723L12.0459 161.066L7.8455 162.396L9.43875 159.675L6.43848 160.422L9.72843 157.41" stroke="white" stroke-width="0.25" stroke-linejoin="round"/>
<path d="M9.72822 157.514L9.54199 159.57L11.9629 160.983L15.0459 163.6L18.4187 167.07L20.7361 170.269L23.9226 171.204L26.5297 172.326L27.7505 173.073" stroke="white" stroke-width="0.25" stroke-linejoin="round"/>
<path d="M27.8543 168.856L26.6335 172.325L25.5989 167.838L23.9229 171.203L22.6193 166.986L20.8398 170.186" stroke="white" stroke-width="0.25" stroke-linejoin="round"/>
<path d="M22.619 166.985L18.5014 167.068L19.805 163.142L15.1494 163.599L16.2667 160.047L12.0457 161.065L13.0802 158.156L9.54199 159.569" stroke="white" stroke-width="0.25" stroke-linejoin="round"/>
<path d="M9.72852 157.596L12.9978 158.074L16.3498 159.86L19.7225 163.142L22.6193 166.799L25.7024 167.733L27.9371 169.146" stroke="white" stroke-width="0.25" stroke-linejoin="round"/>
<path d="M22.6196 166.8L23.6335 163.518L19.7228 163.227L20.6539 160.048H16.2673L17.1984 157.701L13.0808 158.158L13.7429 156.662L9.81152 157.223" stroke="white" stroke-width="0.25" stroke-linejoin="round"/>
<path d="M25.7855 167.837L26.4476 164.534L23.6336 163.516L23.9232 161.065L20.654 159.943L20.8402 158.447L17.2812 157.699L20.7367 159.943L23.6336 163.412L25.7855 167.733" stroke="white" stroke-width="0.25" stroke-linejoin="round"/>
<path d="M26.2607 178.434L118.048 232.114" stroke="white" stroke-miterlimit="10"/>
<path d="M168.764 239.281L318.819 182.547" stroke="white" stroke-miterlimit="10"/>
<path d="M335.082 104.353L271.477 37.0039" stroke="white" stroke-miterlimit="10"/>
</g>
<defs>
<clipPath id="clip0_423_1410">
<rect width="456" height="394" fill="white" transform="translate(0.583008 0.253906)"/>
</clipPath>
</defs>
</svg>
