<svg width="153" height="172" viewBox="0 0 153 172" fill="none" xmlns="http://www.w3.org/2000/svg">
<g clip-path="url(#clip0_423_1481)">
<path d="M95.2192 144.077L91.8086 143.618L84.5463 140.507L73.2964 135.611L60.9946 126.397L48.9982 114.531L35.6613 102.054L26.3118 93.4518L21.8662 86.6179L21.7305 81.416" stroke="white" stroke-miterlimit="10"/>
<path d="M84.8524 140.813L71.21 151.047L73.2971 135.9L59.2136 143.176L60.4014 126.261L44.8417 132.347L48.9988 114.531L31.5048 119.869L35.6619 102.054L20.238 108.445L26.3125 93.4517L13.7222 99.2316L21.5784 86.9238L11.2109 92.7037" stroke="white" stroke-linejoin="round"/>
<path d="M86.7688 155.348L80.8469 155.059L71.2091 151.047L58.466 142.734L44.3995 132.195L31.3511 120.176L20.1012 108.14L13.7212 99.0963L11.3457 92.1094" stroke="white" stroke-linejoin="round"/>
<path d="M75.2152 163.967L66.1882 161.74L55.2099 157.575L41.4318 148.226L28.6888 136.207L18.0159 124.919L9.2773 116.011L4.98438 106.814L13.7229 99.2324L9.2773 116.011L20.5441 108.599L18.1686 125.225L31.0643 119.87L29.1299 136.343L45.2835 132.195L41.4318 148.226L58.7732 142.888L55.5153 157.439L70.9223 150.759L67.0706 161.587L80.5602 155.059L74.6213 163.372" stroke="white" stroke-linejoin="round"/>
<path d="M62.0293 168.114L66.7634 162.181L51.7976 166.04L55.5136 157.574L39.36 159.954L41.1417 147.935L27.0582 149.703L28.6871 136.206L18.608 138.722L18.0142 124.918L10.0222 131.599L9.71678 115.857L3.79492 123.439L4.54152 106.66" stroke="white" stroke-linejoin="round"/>
<path d="M65.289 168.115L52.1048 166.483L39.5145 160.397L27.0599 149.704L18.3213 138.875L9.71852 131.888L3.79667 123.728L1.72656 116.316" stroke="white" stroke-linejoin="round"/>
<path d="M51.2045 170.052L51.7984 166.041L38.6142 167.231L39.0554 160.261L24.6834 158.323L27.0589 149.704L15.0625 146.746L18.3204 138.875" stroke="white" stroke-linejoin="round"/>
<path d="M9.58203 131.158L15.0627 146.747L24.3952 158.171L38.7671 167.673L51.3574 170.342L64.2532 168.268L74.6207 164.103L86.6341 155.502L94.9314 144.078L98.9189 131.447L99.3771 116.759L94.0321 100.729L85.599 88.5568L74.0268 78.612L62.1831 73.5631L60.8426 76.232L48.2523 72.6621L62.0304 73.4101" stroke="white" stroke-linejoin="round"/>
<path d="M39.5132 167.826L25.4297 163.814L25.2769 158.323L14.1629 153.869L14.9095 147.035L6.30664 139.76L9.71722 131.889" stroke="white" stroke-linejoin="round"/>
<path d="M25.4294 163.966L13.7214 154.021L5.71248 139.469L3.04849 124.034L1.57227 116.758L4.23625 107.408L10.9047 92.2611L21.4249 81.4153L34.0322 74.7344" stroke="white" stroke-linejoin="round"/>
<path d="M92.1139 143.771L80.5586 155.059L83.9522 140.949" stroke="white" stroke-linejoin="round"/>
<path d="M92.4035 143.329L93.8967 129.525L84.9884 140.66L84.4115 125.36L73.8913 135.169L73.5859 121.807L61.4367 126.55L64.6946 110.672L48.9991 114.531L52.5455 98.1947L36.3919 101.918L41.8725 88.5558L26.9067 93.2988L32.5401 83.3539L21.8672 86.1759L33.5752 75.3301" stroke="white" stroke-linejoin="round"/>
<path d="M33.4216 75.9258L32.9805 83.2017L41.4306 88.0976L52.8331 97.9064L64.8465 110.078L73.2966 121.808L84.6992 125.225L94.337 129.084L98.6299 131.889" stroke="white" stroke-linejoin="round"/>
<path d="M98.9189 116.605L94.626 129.083L90.9269 112.899L84.6997 125.224L80.1013 109.771L73.7383 121.212" stroke="white" stroke-linejoin="round"/>
<path d="M80.1008 109.772L65.2877 110.214L69.886 96.121L53.1385 97.753L57.2957 84.6802L41.8717 88.5562L45.5877 78.1523L32.9805 83.2013" stroke="white" stroke-linejoin="round"/>
<path d="M33.4219 76.2305L45.4353 77.8624L57.4317 84.2373L69.4451 95.8311L79.9653 109.176L91.2151 112.746L99.3768 117.489" stroke="white" stroke-linejoin="round"/>
<path d="M79.9661 109.176L83.8179 97.4634L69.7344 96.4094L72.9923 84.8326L57.2968 84.6796L60.402 76.3667L45.5888 78.1517L48.1001 72.5078L33.8809 74.8878" stroke="white" stroke-linejoin="round"/>
<path d="M91.5201 112.746L93.7429 101.016L83.8166 97.4631L84.8516 88.4023L72.8382 84.5433L73.5848 79.0524L60.8418 76.2305L73.2964 84.6793L83.8166 97.0041L91.5201 112.44" stroke="white" stroke-linejoin="round"/>
<path d="M78.4375 83.0656L126.61 29.6016" stroke="white" stroke-miterlimit="10"/>
<path d="M134.484 32.6093L142.918 31.6233L149.416 25.9624L152.165 17.7515L149.976 8.86067L144.631 3.72676L136.283 0.632812L126.934 3.62476L120.961 12.1926L121.097 22.9704L126.611 30.0083L134.484 32.6093Z" stroke="white" stroke-width="0.5" stroke-miterlimit="10"/>
<path d="M142.918 31.6235L138.692 28.2916L132.618 19.4517L127.935 9.5239L126.934 3.625" stroke="white" stroke-width="0.5" stroke-miterlimit="10"/>
<path d="M136.283 0.632812L134.569 3.48876L128.121 9.57466L120.961 12.1926" stroke="white" stroke-width="0.5" stroke-miterlimit="10"/>
<path d="M144.479 3.91406L138.93 10.187L132.855 19.5028L127.884 27.3907L126.934 29.9066" stroke="white" stroke-width="0.5" stroke-miterlimit="10"/>
<path d="M134.484 32.6097L138.692 28.2918L148.229 24.1608L152.165 17.752" stroke="white" stroke-width="0.5" stroke-miterlimit="10"/>
<path d="M150.214 9.09961L148.602 13.2815L142.731 19.6394L138.557 28.5303L128.172 27.5273L124.049 18.6874L132.855 19.5034L142.782 19.9284" stroke="white" stroke-width="0.5" stroke-miterlimit="10"/>
<path d="M149.416 25.9638L148.177 23.7879L142.731 19.64L139.116 10.3411L134.569 3.49023L127.035 3.91523" stroke="white" stroke-width="0.5" stroke-miterlimit="10"/>
<path d="M121.096 11.8534L124.048 18.6533L127.934 9.89844" stroke="white" stroke-width="0.5" stroke-miterlimit="10"/>
<path d="M124.048 18.6523L121.52 22.7323L134.619 32.3711" stroke="white" stroke-width="0.5" stroke-miterlimit="10"/>
<path d="M127.883 10.1362L139.116 10.1022L148.601 13.2811L144.528 4.25428L135.043 3.4043" stroke="white" stroke-width="0.5" stroke-miterlimit="10"/>
<path d="M152.403 17.9387L148.466 13.0938L148.415 23.9736L143.02 31.0964" stroke="white" stroke-width="0.5" stroke-miterlimit="10"/>
</g>
<defs>
<clipPath id="clip0_423_1481">
<rect width="152" height="171" fill="white" transform="translate(0.724609 0.191406)"/>
</clipPath>
</defs>
</svg>
