<svg width="155" height="170" viewBox="0 0 155 170" fill="none" xmlns="http://www.w3.org/2000/svg">
<g clip-path="url(#clip0_422_1003)">
<path d="M59.1279 143.94L1.23792 122.048L38.0425 71.6609L54.1396 103.825L59.1279 143.94Z" stroke="white" stroke-miterlimit="10"/>
<path d="M1.23827 122.048L41.6088 114.953L37.8095 72.4374" stroke="white" stroke-miterlimit="10"/>
<path d="M58.3566 143.294L41.2598 114.494" stroke="white" stroke-miterlimit="10"/>
<path d="M128.958 50.7417L128.223 50.3564L127.375 48.9614L125.778 47.174L124.461 44.2892L123.387 40.9092L122.333 37.5228L121.379 35.1389L121.276 33.5127L121.543 32.4082" stroke="white" stroke-width="0.25" stroke-miterlimit="10"/>
<path d="M127.246 49.2059L123.866 49.6289L125.777 47.1745L122.667 47.1166L124.461 44.2896L120.974 43.7237L123.386 40.9096L119.907 40.3302L122.332 37.5232L118.718 37.2013L121.378 35.1393L118.627 34.9587L121.031 33.3847L118.655 33.7122" stroke="white" stroke-width="0.25" stroke-linejoin="round"/>
<path d="M126.443 51.9307L125.204 51.2814L123.866 49.6295L122.422 46.9887L120.974 43.7243L119.527 40.4599L118.718 37.2019L118.627 34.9593L118.783 33.4688" stroke="white" stroke-width="0.25" stroke-linejoin="round"/>
<path d="M123.449 52.245L122.093 51.2232L120.497 49.4357L118.921 46.4153L117.868 43.0289L116.924 40.0285L115.956 37.6375L116.123 35.5304L118.626 34.959L115.956 37.6375L118.963 37.33L116.924 40.0285L119.662 40.202L117.868 43.0289L121.219 43.8524L118.921 46.4153L122.421 46.9884L120.497 49.4357L123.866 49.6292L122.093 51.2232L125.204 51.281L123.449 52.245Z" stroke="white" stroke-width="0.25" stroke-linejoin="round"/>
<path d="M120.826 51.8207L122.093 51.2235L118.987 50.5285L120.497 49.4361L117.401 48.1246L118.921 46.4157L116.084 45.2397L117.868 43.0293L115.631 42.4962L116.924 40.0289L114.78 40.4776L116.329 37.5222L114.329 38.3577L116.123 35.5308" stroke="white" stroke-width="0.25" stroke-linejoin="round"/>
<path d="M121.33 52.0845L119.232 50.6567L117.266 48.3819L116.084 45.2395L115.631 42.496L114.78 40.4774L114.329 38.3575L114.717 36.9883" stroke="white" stroke-width="0.25" stroke-linejoin="round"/>
<path d="M118.596 51.2724L118.987 50.5267L116.619 49.6141L117.266 48.3804L115.051 46.5801L116.084 45.238L114.352 43.7082L115.631 42.4945" stroke="white" stroke-width="0.25" stroke-linejoin="round"/>
<path d="M114.908 40.2325L114.352 43.7088L114.806 46.4523L116.619 49.6147L118.596 51.273L121.071 51.9481L123.449 52.2442L126.443 51.9296L128.957 50.7417L130.871 48.9108L132.293 46.1995L132.848 42.7232L132.394 39.9796L131.458 36.9657L129.609 35.0634L129.108 35.423L127.259 33.5207L129.609 35.0634" stroke="white" stroke-width="0.25" stroke-linejoin="round"/>
<path d="M116.62 49.6153L114.533 47.571L115.051 46.5813L113.461 44.8146L114.353 43.7094L113.27 41.5695L114.78 40.4771" stroke="white" stroke-width="0.25" stroke-linejoin="round"/>
<path d="M114.533 47.5711L113.461 44.8147L113.27 41.5696L114.329 38.3573L114.717 36.9881L116.123 35.5304L118.783 33.4684L121.543 32.4088L124.294 32.5894" stroke="white" stroke-width="0.25" stroke-linejoin="round"/>
<path d="M128.468 50.4843L125.205 51.2798L127.247 49.205" stroke="white" stroke-width="0.25" stroke-linejoin="round"/>
<path d="M128.603 50.2271L130.134 47.9018L127.375 48.9613L128.796 46.2499L125.906 46.9299L127.064 44.7201L124.461 44.2891L126.631 41.9702L123.387 40.9091L125.557 38.5902L122.333 37.5227L124.471 35.8267L121.378 35.1387L123.261 33.9308L121.276 33.5126L124.294 32.5887" stroke="white" stroke-width="0.25" stroke-linejoin="round"/>
<path d="M124.294 32.5898L123.519 34.0675L124.606 35.5703L125.684 38.3473L126.759 41.7273L127.064 44.7213L128.796 46.2511L130.134 47.903L130.627 48.7835" stroke="white" stroke-width="0.25" stroke-linejoin="round"/>
<path d="M132.293 46.1987L130.134 47.9011L131.193 44.6888L128.796 46.2493L129.468 43.1454L127.192 44.4754" stroke="white" stroke-width="0.25" stroke-linejoin="round"/>
<path d="M129.468 43.1456L126.759 41.7256L128.787 39.6436L125.684 38.3456L127.585 36.5076L124.471 35.8261L126.257 34.2393L123.519 34.0658" stroke="white" stroke-width="0.25" stroke-linejoin="round"/>
<path d="M124.166 32.832L126.257 34.2392L127.713 36.2635L128.787 39.6435L129.468 43.1455L131.193 44.6889L132.165 46.4427" stroke="white" stroke-width="0.25" stroke-linejoin="round"/>
<path d="M129.468 43.1471L131.375 41.3298L128.787 39.6451L130.553 38.0646L127.585 36.5091L129.108 35.4238L126.257 34.2408L127.259 33.5215L124.294 32.5896" stroke="white" stroke-width="0.25" stroke-linejoin="round"/>
<path d="M131.193 44.6904L132.721 42.968L131.375 41.3297L132.285 39.5945L130.553 38.0646L131.072 37.075L129.108 35.4238L130.553 38.0646L131.375 41.3297L131.193 44.6904Z" stroke="white" stroke-width="0.25" stroke-linejoin="round"/>
<path d="M112.132 126.549L111.614 126.278L111.02 125.293L109.901 124.05L108.968 122.023L108.22 119.643L107.471 117.263L106.807 115.584L106.731 114.438L106.916 113.654" stroke="white" stroke-width="0.25" stroke-miterlimit="10"/>
<path d="M110.929 125.469L108.554 125.762L109.902 124.05L107.705 124.004L108.969 122.023L106.524 121.623L108.221 119.643L105.775 119.243L107.472 117.264L104.934 117.04L106.808 115.585L104.88 115.456L106.554 114.346L104.888 114.579" stroke="white" stroke-width="0.25" stroke-linejoin="round"/>
<path d="M110.359 127.383L109.502 126.933L108.554 125.762L107.528 123.912L106.524 121.623L105.506 119.326L104.934 117.04L104.88 115.456L104.98 114.402" stroke="white" stroke-width="0.25" stroke-linejoin="round"/>
<path d="M108.267 127.599L107.304 126.887L106.193 125.63L105.083 123.51L104.334 121.131L103.67 119.02L103.006 117.341L103.107 115.856L104.88 115.455L103.006 117.341L105.098 117.124L103.67 119.02L105.598 119.149L104.334 121.131L106.687 121.707L105.083 123.51L107.528 123.911L106.193 125.63L108.553 125.762L107.304 126.887L109.502 126.933L108.267 127.599Z" stroke="white" stroke-width="0.25" stroke-linejoin="round"/>
<path d="M106.424 127.308L107.304 126.888L105.114 126.397L106.192 125.631L104.017 124.716L105.082 123.511L103.084 122.688L104.334 121.132L102.767 120.743L103.67 119.021L102.167 119.339L103.254 117.265L101.856 117.846L103.107 115.857" stroke="white" stroke-width="0.25" stroke-linejoin="round"/>
<path d="M106.764 127.486L105.291 126.489L103.924 124.891L103.084 122.688L102.767 120.742L102.167 119.339L101.856 117.845L102.134 116.885" stroke="white" stroke-width="0.25" stroke-linejoin="round"/>
<path d="M104.844 126.911L105.114 126.396L103.47 125.759L103.924 124.891L102.366 123.626L103.083 122.688L101.866 121.601L102.767 120.742" stroke="white" stroke-width="0.25" stroke-linejoin="round"/>
<path d="M102.26 119.161L101.867 121.599L102.19 123.531L103.47 125.758L104.845 126.91L106.588 127.392L108.267 127.598L110.36 127.381L112.133 126.548L113.467 125.26L114.469 123.348L114.862 120.91L114.552 118.985L113.888 116.874L112.6 115.525L112.238 115.785L110.942 114.449L112.6 115.525" stroke="white" stroke-width="0.25" stroke-linejoin="round"/>
<path d="M103.47 125.758L102.004 124.316L102.367 123.624L101.248 122.381L101.866 121.599L101.109 120.097L102.167 119.338" stroke="white" stroke-width="0.25" stroke-linejoin="round"/>
<path d="M102.004 124.316L101.248 122.381L101.109 120.097L101.856 117.844L102.134 116.884L103.107 115.856L104.98 114.401L106.916 113.653L108.844 113.782" stroke="white" stroke-width="0.25" stroke-linejoin="round"/>
<path d="M111.778 126.363L109.502 126.933L110.928 125.468" stroke="white" stroke-width="0.25" stroke-linejoin="round"/>
<path d="M111.871 126.187L112.957 124.544L111.021 125.292L112.016 123.394L109.995 123.873L110.812 122.313L108.969 122.022L110.488 120.381L108.22 119.642L109.74 118.002L107.472 117.262L108.983 116.067L106.807 115.583L108.134 114.741L106.731 114.437L108.845 113.783" stroke="white" stroke-width="0.25" stroke-linejoin="round"/>
<path d="M108.845 113.783L108.298 114.827L109.076 115.892L109.832 117.826L110.581 120.206L110.812 122.314L112.016 123.394L112.957 124.545L113.303 125.175" stroke="white" stroke-width="0.25" stroke-linejoin="round"/>
<path d="M114.469 123.348L112.957 124.543L113.704 122.291L112.016 123.393L112.5 121.211L110.897 122.15" stroke="white" stroke-width="0.25" stroke-linejoin="round"/>
<path d="M112.5 121.211L110.581 120.205L112 118.754L109.832 117.825L111.16 116.551L108.984 116.067L110.226 114.955L108.298 114.826" stroke="white" stroke-width="0.25" stroke-linejoin="round"/>
<path d="M108.752 113.959L110.225 114.956L111.251 116.375L112 118.755L112.5 121.211L113.704 122.292L114.376 123.525" stroke="white" stroke-width="0.25" stroke-linejoin="round"/>
<path d="M112.5 121.211L113.835 119.923L112 118.754L113.256 117.65L111.16 116.551L112.238 115.785L110.226 114.955L110.942 114.449L108.845 113.782" stroke="white" stroke-width="0.25" stroke-linejoin="round"/>
<path d="M113.704 122.291L114.769 121.087L113.834 119.923L114.467 118.716L113.256 117.65L113.618 116.958L112.237 115.785L113.256 117.65L113.834 119.923L113.704 122.291Z" stroke="white" stroke-width="0.25" stroke-linejoin="round"/>
<path d="M101.723 119.191L54.918 103.697L115.512 47.7203" stroke="white" stroke-miterlimit="10"/>
</g>
<defs>
<clipPath id="clip0_422_1003">
<rect width="102" height="138" fill="white" transform="translate(64.0869 0.185547) rotate(27.6606)"/>
</clipPath>
</defs>
</svg>
