<svg width="542" height="264" viewBox="0 0 542 264" fill="none" xmlns="http://www.w3.org/2000/svg">
<g clip-path="url(#clip0_420_7853)">
<path d="M62.7411 72.3486L110.821 90.5286L71.6711 122.369L62.7411 72.3686V72.3486ZM61.4512 70.8086L70.9811 124.229L112.801 90.2286L61.4512 70.8086Z" fill="white"/>
<path d="M112.201 90.2687C112.201 90.2687 92.7014 68.1387 92.5314 68.1387C92.3614 68.1387 61.8713 71.2087 61.8713 71.2087L56.3613 97.3687L71.1313 123.649L99.4814 114.259L112.201 90.2687Z" stroke="white" stroke-miterlimit="10"/>
<path d="M66.8211 97.6589L58.6211 85.8789" stroke="white" stroke-linejoin="round"/>
<path d="M58.7109 86.0996L63.0009 109.18" stroke="white" stroke-linejoin="round"/>
<path d="M66.6517 96.8496L63.0117 109.41" stroke="white" stroke-linejoin="round"/>
<path d="M86.9121 81.0684L101.752 78.3184" stroke="white" stroke-linejoin="round"/>
<path d="M101.591 78.1984L78.7012 69.5684" stroke="white" stroke-linejoin="round"/>
<path d="M87.492 81.1092L78.502 69.4492" stroke="white" stroke-linejoin="round"/>
<path d="M92.3309 105.789L85.8809 118.799" stroke="white" stroke-linejoin="round"/>
<path d="M85.7207 118.959L103.541 106.779" stroke="white" stroke-linejoin="round"/>
<path d="M91.9512 106.219L103.841 106.699" stroke="white" stroke-linejoin="round"/>
<path d="M66.4004 97.4287L87.1104 81.1387L92.0604 106.459L66.4004 97.4287Z" stroke="white" stroke-linejoin="bevel"/>
<path d="M137.532 244.86L135.262 244.56L130.302 242.51L122.772 239.2L114.462 233.01L106.302 225L97.3616 216.58L91.0616 210.73L88.0016 206.14L87.9316 202.68" stroke="white" stroke-miterlimit="10"/>
<path d="M130.531 242.698L121.361 249.588L122.701 239.378L113.201 244.298L114.051 232.898L103.541 236.958L106.301 224.998L94.5605 228.608L97.3605 216.578L86.9605 220.898L91.0605 210.728L82.5605 214.708L87.8505 206.328L80.8105 210.278" stroke="white" stroke-linejoin="round"/>
<path d="M131.872 252.428L127.842 252.318L121.362 249.588L112.712 243.928L103.212 236.848L94.4119 228.798L86.8519 220.678L82.4919 214.528L80.9219 209.828" stroke="white" stroke-linejoin="round"/>
<path d="M124.081 258.319L117.891 256.749L110.511 253.959L101.201 247.659L92.6206 239.569L85.4706 231.969L79.5806 225.999L76.6406 219.779L82.5606 214.709L79.5806 225.999L87.1106 220.969L85.5106 232.149L94.2306 228.579L92.9206 239.679L103.801 236.889L101.201 247.659L112.971 244.119L110.701 253.839L121.131 249.329L118.531 256.709L127.621 252.239L123.671 257.869" stroke="white" stroke-linejoin="round"/>
<path d="M115.17 261.11L118.3 257.12L108.24 259.69L110.7 253.99L99.8203 255.59L101.05 247.47L91.5403 248.7L92.6203 239.57L85.8003 241.25L85.4703 231.97L80.0303 236.48L79.8403 225.86L75.8203 231L76.3403 219.67" stroke="white" stroke-linejoin="round"/>
<path d="M117.37 261.039L108.39 259.989L99.8904 255.889L91.5404 248.699L85.6604 241.399L79.8804 236.659L75.8204 231.219L74.4004 226.189" stroke="white" stroke-linejoin="round"/>
<path d="M107.831 262.378L108.241 259.688L99.3309 260.478L99.6309 255.818L89.9409 254.438L91.5409 248.698L83.4609 246.688L85.6609 241.398" stroke="white" stroke-linejoin="round"/>
<path d="M79.7305 236.139L83.4605 246.689L89.7505 254.399L99.4405 260.739L107.98 262.529L116.66 261.219L123.59 258.389L131.72 252.579L137.38 244.859L139.99 236.329L140.29 226.489L136.75 215.679L131.05 207.449L123.26 200.809L115.28 197.349L114.31 199.209L105.85 196.789L115.1 197.309" stroke="white" stroke-linejoin="round"/>
<path d="M99.8922 260.848L90.4622 258.128L90.3522 254.508L82.8222 251.498L83.3422 246.838L77.4922 241.958L79.8822 236.658" stroke="white" stroke-linejoin="round"/>
<path d="M90.422 258.279L82.492 251.609L77.162 241.809L75.302 231.329L74.332 226.489L76.112 220.149L80.622 210.019L87.702 202.639L96.282 198.199" stroke="white" stroke-linejoin="round"/>
<path d="M135.481 244.64L127.621 252.24L129.971 242.77" stroke="white" stroke-linejoin="round"/>
<path d="M135.672 244.378L136.602 235.058L130.642 242.548L130.262 232.298L123.112 238.898L122.922 229.838L114.762 233.048L116.922 222.348L106.302 224.998L108.722 213.968L97.8419 216.428L101.532 207.448L91.392 210.648L95.2719 204.018L88.002 205.838L95.902 198.578" stroke="white" stroke-linejoin="round"/>
<path d="M95.8712 198.949L95.5312 203.829L101.271 207.219L108.951 213.739L117.001 221.979L122.741 229.839L130.411 232.149L136.901 234.759L139.801 236.699" stroke="white" stroke-linejoin="round"/>
<path d="M140.03 226.339L137.08 234.799L134.66 223.879L130.41 232.149L127.36 221.789L123.07 229.509" stroke="white" stroke-linejoin="round"/>
<path d="M127.361 221.789L117.301 222.049L120.421 212.549L109.171 213.709L111.931 204.909L101.531 207.449L104.031 200.439L95.5312 203.829" stroke="white" stroke-linejoin="round"/>
<path d="M95.832 199.17L103.922 200.29L112.002 204.61L120.162 212.4L127.212 221.38L134.812 223.73L140.362 227.01" stroke="white" stroke-linejoin="round"/>
<path d="M127.212 221.379L129.822 213.479L120.312 212.809L122.552 204.949L111.932 204.909L114.052 199.319L104.032 200.439L105.702 196.709L96.0918 198.239" stroke="white" stroke-linejoin="round"/>
<path d="M135.071 223.809L136.531 215.869L129.821 213.479L130.531 207.409L122.401 204.729L122.961 201.069L114.311 199.209L122.701 204.869L129.851 213.149L135.031 223.549" stroke="white" stroke-linejoin="round"/>
<path d="M52.6009 216.549L52.0509 216.469L50.8609 215.979L49.0409 215.179L47.0409 213.689L45.0709 211.749L42.9109 209.719L41.3909 208.309L40.6509 207.209L40.6309 206.369" stroke="white" stroke-width="0.4" stroke-miterlimit="10"/>
<path d="M50.9119 216.018L48.7019 217.688L49.0219 215.218L46.7319 216.408L46.9419 213.658L44.4019 214.638L45.0719 211.748L42.2319 212.628L42.9119 209.718L40.4019 210.768L41.3919 208.308L39.3419 209.268L40.6219 207.248L38.9219 208.198" stroke="white" stroke-width="0.4" stroke-linejoin="round"/>
<path d="M51.2314 218.37L50.2614 218.34L48.7014 217.69L46.6114 216.32L44.3214 214.61L42.2014 212.67L40.3714 210.71L39.3214 209.23L38.9414 208.1" stroke="white" stroke-width="0.4" stroke-linejoin="round"/>
<path d="M49.3621 219.79L47.8621 219.41L46.0821 218.74L43.8321 217.22L41.7721 215.27L40.0421 213.44L38.6221 212L37.9121 210.5L39.3421 209.27L38.6221 212L40.4421 210.78L40.0521 213.48L42.1521 212.62L41.8421 215.3L44.4621 214.62L43.8321 217.22L46.6821 216.37L46.1321 218.71L48.6421 217.62L48.0121 219.4L50.2121 218.33L49.2621 219.68" stroke="white" stroke-width="0.4" stroke-linejoin="round"/>
<path d="M47.2109 220.469L47.9609 219.499L45.5309 220.119L46.1309 218.749L43.5009 219.139L43.8009 217.179L41.5109 217.469L41.7709 215.269L40.1209 215.669L40.0409 213.439L38.7309 214.519L38.6809 211.959L37.7109 213.199L37.8409 210.469" stroke="white" stroke-width="0.4" stroke-linejoin="round"/>
<path d="M47.7411 220.449L45.5711 220.199L43.5211 219.209L41.5111 217.469L40.0911 215.709L38.6911 214.569L37.7111 213.259L37.3711 212.039" stroke="white" stroke-width="0.4" stroke-linejoin="round"/>
<path d="M45.4405 220.769L45.5305 220.119L43.3805 220.309L43.4605 219.189L41.1205 218.859L41.5105 217.469L39.5605 216.989L40.0905 215.709" stroke="white" stroke-width="0.4" stroke-linejoin="round"/>
<path d="M38.6621 214.439L39.5621 216.989L41.0821 218.849L43.4121 220.379L45.4721 220.809L47.5721 220.489L49.2421 219.809L51.2021 218.409L52.5621 216.549L53.1921 214.489L53.2621 212.109L52.4121 209.509L51.0421 207.519L49.1621 205.919L47.2321 205.079L47.0021 205.529L44.9621 204.949L47.1921 205.079" stroke="white" stroke-width="0.4" stroke-linejoin="round"/>
<path d="M43.5211 220.398L41.2511 219.748L41.2211 218.868L39.4011 218.148L39.5311 217.018L38.1211 215.838L38.6911 214.568" stroke="white" stroke-width="0.4" stroke-linejoin="round"/>
<path d="M41.2416 219.779L39.3216 218.169L38.0416 215.809L37.5916 213.279L37.3516 212.109L37.7916 210.589L38.8716 208.139L40.5816 206.359L42.6516 205.289" stroke="white" stroke-width="0.4" stroke-linejoin="round"/>
<path d="M52.1109 216.489L50.2109 218.329L50.7709 216.039" stroke="white" stroke-width="0.4" stroke-linejoin="round"/>
<path d="M52.1504 216.429L52.3704 214.179L50.9404 215.989L50.8504 213.519L49.1204 215.109L49.0804 212.919L47.1104 213.699L47.6304 211.119L45.0704 211.749L45.6504 209.089L43.0304 209.689L43.9204 207.519L41.4704 208.289L42.4104 206.689L40.6504 207.129L42.5604 205.379" stroke="white" stroke-width="0.4" stroke-linejoin="round"/>
<path d="M42.5507 205.469L42.4707 206.649L43.8507 207.469L45.7007 209.039L47.6507 211.029L49.0307 212.919L50.8807 213.479L52.4507 214.109L53.1507 214.579" stroke="white" stroke-width="0.4" stroke-linejoin="round"/>
<path d="M53.2013 212.079L52.4913 214.119L51.9113 211.489L50.8813 213.479L50.1513 210.979L49.1113 212.839" stroke="white" stroke-width="0.4" stroke-linejoin="round"/>
<path d="M50.1507 210.978L47.7207 211.048L48.4707 208.748L45.7607 209.028L46.4207 206.908L43.9207 207.518L44.5207 205.828L42.4707 206.648" stroke="white" stroke-width="0.4" stroke-linejoin="round"/>
<path d="M42.541 205.52L44.491 205.8L46.441 206.84L48.411 208.72L50.111 210.88L51.941 211.45L53.281 212.24" stroke="white" stroke-width="0.4" stroke-linejoin="round"/>
<path d="M50.1116 210.88L50.7416 208.98L48.4516 208.81L48.9916 206.92L46.4216 206.91L46.9416 205.56L44.5216 205.83L44.9216 204.93L42.6016 205.3" stroke="white" stroke-width="0.4" stroke-linejoin="round"/>
<path d="M52.012 211.469L52.362 209.549L50.742 208.979L50.912 207.509L48.952 206.859L49.082 205.979L47.002 205.529L49.022 206.899L50.752 208.899L52.002 211.399" stroke="white" stroke-width="0.4" stroke-linejoin="round"/>
<path d="M475.941 159.599L474.941 159.469L472.761 158.569L469.451 157.109L465.801 154.389L462.211 150.869L458.281 147.169L455.511 144.589L454.171 142.579L454.131 141.059" stroke="white" stroke-width="0.75" stroke-miterlimit="10"/>
<path d="M472.862 158.648L468.832 161.678L469.422 157.188L465.242 159.358L465.622 154.338L461.002 156.128L462.212 150.868L457.052 152.458L458.282 147.168L453.712 149.068L455.512 144.588L451.772 146.348L454.102 142.658L451.002 144.398" stroke="white" stroke-width="0.75" stroke-linejoin="round"/>
<path d="M473.451 162.929L471.681 162.879L468.831 161.679L465.031 159.189L460.851 156.079L456.981 152.539L453.661 148.969L451.741 146.269L451.051 144.199" stroke="white" stroke-width="0.75" stroke-linejoin="round"/>
<path d="M470.022 165.52L467.302 164.83L464.062 163.6L459.972 160.83L456.202 157.27L453.052 153.93L450.462 151.31L449.172 148.58L451.772 146.35L450.462 151.31L453.772 149.1L453.072 154.02L456.902 152.44L456.332 157.32L461.112 156.09L459.972 160.83L465.142 159.27L464.142 163.55L468.732 161.57L467.582 164.81L471.582 162.84L469.842 165.32" stroke="white" stroke-width="0.75" stroke-linejoin="round"/>
<path d="M466.111 166.739L467.481 164.989L463.061 166.119L464.141 163.619L459.361 164.319L459.901 160.749L455.721 161.289L456.201 157.269L453.201 158.009L453.051 153.929L450.661 155.919L450.581 151.249L448.811 153.509L449.041 148.529" stroke="white" stroke-width="0.75" stroke-linejoin="round"/>
<path d="M467.081 166.709L463.131 166.249L459.391 164.449L455.721 161.289L453.131 158.079L450.591 155.999L448.811 153.609L448.191 151.389" stroke="white" stroke-width="0.75" stroke-linejoin="round"/>
<path d="M462.882 167.298L463.062 166.118L459.152 166.458L459.282 164.418L455.022 163.808L455.722 161.288L452.172 160.398L453.132 158.078" stroke="white" stroke-width="0.75" stroke-linejoin="round"/>
<path d="M450.531 155.769L452.171 160.399L454.941 163.799L459.201 166.579L462.951 167.369L466.761 166.789L469.811 165.549L473.381 162.989L475.871 159.599L477.021 155.849L477.151 151.519L475.591 146.769L473.091 143.149L469.661 140.239L466.161 138.709L465.731 139.529L462.011 138.469L466.081 138.699" stroke="white" stroke-width="0.75" stroke-linejoin="round"/>
<path d="M459.391 166.628L455.251 165.428L455.201 163.838L451.891 162.518L452.121 160.468L449.551 158.318L450.591 155.998" stroke="white" stroke-width="0.75" stroke-linejoin="round"/>
<path d="M455.23 165.5L451.74 162.57L449.4 158.26L448.58 153.65L448.15 151.52L448.94 148.74L450.92 144.28L454.03 141.04L457.8 139.09" stroke="white" stroke-width="0.75" stroke-linejoin="round"/>
<path d="M475.042 159.5L471.582 162.84L472.612 158.68" stroke="white" stroke-width="0.75" stroke-linejoin="round"/>
<path d="M475.122 159.388L475.532 155.288L472.912 158.588L472.742 154.078L469.602 156.978L469.522 152.998L465.932 154.408L466.882 149.708L462.212 150.868L463.272 146.018L458.492 147.098L460.112 143.148L455.662 144.558L457.362 141.648L454.172 142.448L457.642 139.248" stroke="white" stroke-width="0.75" stroke-linejoin="round"/>
<path d="M457.621 139.42L457.471 141.56L460.001 143.05L463.371 145.92L466.911 149.54L469.431 153L472.811 154.02L475.661 155.16L476.941 156.01" stroke="white" stroke-width="0.75" stroke-linejoin="round"/>
<path d="M477.032 151.459L475.742 155.179L474.682 150.379L472.812 154.019L471.472 149.459L469.582 152.849" stroke="white" stroke-width="0.75" stroke-linejoin="round"/>
<path d="M471.471 149.458L467.041 149.578L468.421 145.398L463.471 145.898L464.681 142.038L460.111 143.148L461.211 140.068L457.471 141.558" stroke="white" stroke-width="0.75" stroke-linejoin="round"/>
<path d="M457.611 139.52L461.161 140.01L464.721 141.91L468.301 145.33L471.401 149.28L474.741 150.31L477.181 151.75" stroke="white" stroke-width="0.75" stroke-linejoin="round"/>
<path d="M471.401 149.28L472.551 145.81L468.371 145.51L469.351 142.06L464.681 142.04L465.621 139.58L461.211 140.07L461.951 138.43L457.721 139.11" stroke="white" stroke-width="0.75" stroke-linejoin="round"/>
<path d="M474.86 150.339L475.5 146.859L472.55 145.809L472.86 143.139L469.29 141.959L469.53 140.349L465.73 139.529L469.42 142.019L472.56 145.659L474.84 150.229" stroke="white" stroke-width="0.75" stroke-linejoin="round"/>
<path d="M5.13227 216.328L4.95227 216.308L4.57227 216.148L4.00227 215.898L3.36227 215.418L2.73227 214.808L2.05227 214.168L1.56227 213.718L1.33227 213.358L1.32227 213.098" stroke="white" stroke-width="0.2" stroke-miterlimit="10"/>
<path d="M4.59125 216.169L3.89125 216.699L3.99125 215.909L3.26125 216.289L3.33125 215.419L2.52125 215.729L2.73125 214.809L1.83125 215.089L2.05125 214.169L1.25125 214.499L1.56125 213.719L0.91125 214.019L1.32125 213.379L0.78125 213.679" stroke="white" stroke-width="0.2" stroke-linejoin="round"/>
<path d="M4.69102 216.918L4.39102 216.908L3.89102 216.698L3.22102 216.258L2.50102 215.718L1.82102 215.098L1.24102 214.478L0.911016 214.008L0.791016 213.648" stroke="white" stroke-width="0.2" stroke-linejoin="round"/>
<path d="M4.10094 217.368L3.62094 217.248L3.06094 217.028L2.34094 216.548L1.68094 215.928L1.13094 215.348L0.680937 214.888L0.460938 214.408L0.910938 214.018L0.680937 214.888L1.26094 214.498L1.14094 215.358L1.81094 215.078L1.71094 215.938L2.54094 215.718L2.34094 216.548L3.24094 216.278L3.07094 217.018L3.87094 216.678L3.67094 217.238L4.37094 216.898L4.06094 217.328" stroke="white" stroke-width="0.2" stroke-linejoin="round"/>
<path d="M3.41258 217.578L3.65258 217.268L2.88258 217.468L3.07258 217.038L2.24258 217.158L2.33258 216.538L1.60258 216.628L1.68258 215.928L1.16258 216.058L1.13258 215.348L0.722578 215.688L0.702578 214.878L0.392578 215.268L0.432578 214.398" stroke="white" stroke-width="0.2" stroke-linejoin="round"/>
<path d="M3.58102 217.568L2.89102 217.488L2.24102 217.178L1.60102 216.628L1.15102 216.068L0.711016 215.708L0.391016 215.288L0.291016 214.898" stroke="white" stroke-width="0.2" stroke-linejoin="round"/>
<path d="M2.85242 217.678L2.88242 217.468L2.20242 217.528L2.22242 217.168L1.48242 217.068L1.60242 216.628L0.982422 216.478L1.15242 216.068" stroke="white" stroke-width="0.2" stroke-linejoin="round"/>
<path d="M0.701172 215.668L0.981172 216.478L1.46117 217.068L2.21117 217.548L2.86117 217.688L3.53117 217.588L4.06117 217.368L4.68117 216.928L5.12117 216.328L5.32117 215.678L5.34117 214.918L5.07117 214.098L4.63117 213.458L4.03117 212.948L3.42117 212.688L3.35117 212.828L2.70117 212.648L3.41117 212.688" stroke="white" stroke-width="0.2" stroke-linejoin="round"/>
<path d="M2.24148 217.559L1.52148 217.349L1.51148 217.069L0.931484 216.839L0.971484 216.489L0.521484 216.109L0.711484 215.709" stroke="white" stroke-width="0.2" stroke-linejoin="round"/>
<path d="M1.51125 217.358L0.91125 216.848L0.50125 216.098L0.35125 215.298L0.28125 214.918L0.42125 214.438L0.76125 213.658L1.31125 213.098L1.96125 212.758" stroke="white" stroke-width="0.2" stroke-linejoin="round"/>
<path d="M4.97109 216.318L4.37109 216.898L4.55109 216.168" stroke="white" stroke-width="0.2" stroke-linejoin="round"/>
<path d="M4.99203 216.299L5.06203 215.579L4.60203 216.159L4.57203 215.369L4.02203 215.879L4.01203 215.179L3.38203 215.429L3.55203 214.609L2.73203 214.809L2.92203 213.969L2.08203 214.149L2.37203 213.459L1.59203 213.709L1.89203 213.199L1.33203 213.339L1.93203 212.779" stroke="white" stroke-width="0.2" stroke-linejoin="round"/>
<path d="M1.93211 212.809L1.91211 213.189L2.35211 213.449L2.94211 213.949L3.55211 214.579L3.99211 215.179L4.58211 215.359L5.08211 215.559L5.30211 215.709" stroke="white" stroke-width="0.2" stroke-linejoin="round"/>
<path d="M5.32148 214.908L5.09148 215.558L4.91148 214.728L4.58148 215.358L4.35148 214.568L4.02148 215.158" stroke="white" stroke-width="0.2" stroke-linejoin="round"/>
<path d="M4.35211 214.568L3.58211 214.578L3.82211 213.858L2.95211 213.948L3.16211 213.268L2.37211 213.458L2.56211 212.928L1.91211 213.188" stroke="white" stroke-width="0.2" stroke-linejoin="round"/>
<path d="M1.93164 212.828L2.55164 212.918L3.17164 213.248L3.80164 213.848L4.34164 214.528L4.92164 214.708L5.35164 214.968" stroke="white" stroke-width="0.2" stroke-linejoin="round"/>
<path d="M4.34117 214.529L4.54117 213.929L3.81117 213.879L3.98117 213.269H3.16117L3.33117 212.839L2.56117 212.929L2.69117 212.639L1.95117 212.759" stroke="white" stroke-width="0.2" stroke-linejoin="round"/>
<path d="M4.94156 214.718L5.05156 214.108L4.54156 213.928L4.59156 213.458L3.97156 213.258L4.01156 212.978L3.35156 212.828L3.99156 213.268L4.54156 213.898L4.94156 214.698" stroke="white" stroke-width="0.2" stroke-linejoin="round"/>
<path d="M48.0216 193.458L47.7816 193.428L47.2516 193.208L46.4416 192.848L45.5416 192.178L44.6616 191.318L43.7016 190.408L43.0216 189.778L42.6916 189.288L42.6816 188.908" stroke="white" stroke-width="0.25" stroke-miterlimit="10"/>
<path d="M47.2721 193.229L46.2821 193.969L46.4321 192.869L45.4021 193.399L45.5021 192.169L44.3621 192.609L44.6621 191.319L43.4021 191.709L43.7021 190.409L42.5821 190.879L43.0221 189.779L42.1021 190.209L42.6721 189.309L41.9121 189.729" stroke="white" stroke-width="0.25" stroke-linejoin="round"/>
<path d="M47.4116 194.27L46.9816 194.26L46.2816 193.97L45.3516 193.36L44.3316 192.6L43.3816 191.73L42.5616 190.85L42.0916 190.19L41.9316 189.68" stroke="white" stroke-width="0.25" stroke-linejoin="round"/>
<path d="M46.5809 194.909L45.9109 194.739L45.1109 194.439L44.1109 193.759L43.1909 192.889L42.4209 192.069L41.7809 191.429L41.4609 190.759L42.1009 190.209L41.7809 191.429L42.5909 190.889L42.4209 192.089L43.3609 191.709L43.2209 192.899L44.3909 192.599L44.1109 193.759L45.3809 193.379L45.1309 194.429L46.2609 193.939L45.9809 194.739L46.9609 194.249L46.5309 194.859" stroke="white" stroke-width="0.25" stroke-linejoin="round"/>
<path d="M45.6209 195.208L45.9509 194.778L44.8709 195.058L45.1309 194.438L43.9609 194.618L44.0909 193.738L43.0709 193.868L43.1909 192.888L42.4509 193.068L42.4209 192.068L41.8309 192.558L41.8109 191.408L41.3809 191.968L41.4309 190.738" stroke="white" stroke-width="0.25" stroke-linejoin="round"/>
<path d="M45.8507 195.199L44.8807 195.089L43.9707 194.649L43.0707 193.869L42.4407 193.089L41.8107 192.579L41.3807 191.989L41.2207 191.449" stroke="white" stroke-width="0.25" stroke-linejoin="round"/>
<path d="M44.8312 195.35L44.8712 195.06L43.9112 195.14L43.9412 194.64L42.9012 194.49L43.0712 193.87L42.2012 193.66L42.4412 193.09" stroke="white" stroke-width="0.25" stroke-linejoin="round"/>
<path d="M41.8008 192.519L42.2008 193.659L42.8808 194.489L43.9208 195.169L44.8408 195.359L45.7808 195.219L46.5208 194.919L47.4008 194.289L48.0108 193.459L48.2908 192.539L48.3208 191.479L47.9408 190.319L47.3308 189.429L46.4908 188.709L45.6308 188.339L45.5208 188.539L44.6108 188.279L45.6108 188.339" stroke="white" stroke-width="0.25" stroke-linejoin="round"/>
<path d="M43.9705 195.178L42.9505 194.888L42.9405 194.498L42.1305 194.168L42.1905 193.668L41.5605 193.148L41.8105 192.578" stroke="white" stroke-width="0.25" stroke-linejoin="round"/>
<path d="M42.9507 194.9L42.0907 194.19L41.5207 193.13L41.3207 192L41.2207 191.48L41.4107 190.8L41.8907 189.71L42.6607 188.91L43.5807 188.43" stroke="white" stroke-width="0.25" stroke-linejoin="round"/>
<path d="M47.8009 193.429L46.9609 194.249L47.2109 193.229" stroke="white" stroke-width="0.25" stroke-linejoin="round"/>
<path d="M47.8214 193.409L47.9214 192.399L47.2814 193.209L47.2414 192.109L46.4714 192.819L46.4514 191.839L45.5714 192.189L45.8014 191.029L44.6614 191.319L44.9214 190.129L43.7514 190.399L44.1514 189.429L43.0514 189.769L43.4714 189.059L42.6914 189.259L43.5414 188.469" stroke="white" stroke-width="0.25" stroke-linejoin="round"/>
<path d="M43.542 188.51L43.502 189.04L44.122 189.4L44.942 190.11L45.812 190.99L46.432 191.84L47.262 192.09L47.962 192.37L48.272 192.58" stroke="white" stroke-width="0.25" stroke-linejoin="round"/>
<path d="M48.2907 191.459L47.9807 192.369L47.7207 191.199L47.2607 192.089L46.9307 190.969L46.4707 191.799" stroke="white" stroke-width="0.25" stroke-linejoin="round"/>
<path d="M46.932 190.97L45.842 191L46.182 189.98L44.972 190.1L45.272 189.15L44.152 189.43L44.412 188.67L43.502 189.04" stroke="white" stroke-width="0.25" stroke-linejoin="round"/>
<path d="M43.5312 188.539L44.4012 188.659L45.2713 189.119L46.1512 189.959L46.9113 190.929L47.7313 191.179L48.3312 191.539" stroke="white" stroke-width="0.25" stroke-linejoin="round"/>
<path d="M46.9105 190.93L47.1905 190.08L46.1705 190.01L46.4105 189.16L45.2705 189.15L45.5005 188.55L44.4105 188.67L44.6005 188.27L43.5605 188.44" stroke="white" stroke-width="0.25" stroke-linejoin="round"/>
<path d="M47.7615 191.189L47.9215 190.339L47.1915 190.079L47.2715 189.419L46.3915 189.139L46.4515 188.739L45.5215 188.539L46.4315 189.149L47.2015 190.039L47.7615 191.159" stroke="white" stroke-width="0.25" stroke-linejoin="round"/>
<path d="M178.081 70.9688L112.211 90.2787" stroke="white" stroke-linejoin="round"/>
<path d="M217.732 182.18L138.432 219.89" stroke="white" stroke-linejoin="round"/>
<path d="M76.5406 220.81L53.0605 215.27" stroke="white" stroke-linejoin="round"/>
<path d="M44.8418 195.359L44.9218 204.929" stroke="white" stroke-linejoin="round"/>
<path d="M37.3503 212.109C36.2903 212.419 5.15039 214.589 5.15039 214.589" stroke="white" stroke-linejoin="round"/>
<path d="M448.049 151.672L401.051 126.889" stroke="white" stroke-miterlimit="10"/>
<path d="M475.502 146.859L517.212 121.639" stroke="white" stroke-miterlimit="10"/>
<path d="M523.221 128.118L525.261 125.998L524.361 119.958L521.541 113.788L517.461 110.738" stroke="white" stroke-miterlimit="10"/>
<path d="M525.26 125.998L535.401 125.468L534.481 116.938L529.901 108.498L524.561 104.648" stroke="white" stroke-miterlimit="10"/>
<path d="M540.291 114.148L534.451 117.108L524.361 119.958L517.291 121.298" stroke="white" stroke-miterlimit="10"/>
<path d="M536.831 108.22L529.701 108.31L521.401 113.9L517.431 121.22L517.501 121.3L523.411 128.15L531.991 128.49L535.491 125.8L540.851 119.96L540.241 114.01L536.831 108.33L532.941 105.6L524.531 104.84L517.571 111.13L516.201 113.59L517.851 121.64" stroke="white" stroke-miterlimit="10"/>
<path d="M314.772 208.269L401.382 127.169L363.972 9.25898L265.732 1.20898L245.752 9.99898L178.082 70.969L218.622 182.919L314.772 208.269Z" stroke="white" stroke-linejoin="round"/>
<path d="M178.231 70.3789L213.111 139.839L218.621 182.919L99.5215 114.259" stroke="white" stroke-linejoin="round"/>
<path d="M314.771 208.269L327.361 156.269L373.901 113.879L401.382 127.169" stroke="white" stroke-linejoin="bevel"/>
<path d="M373.901 113.879L359.691 166.519L327.361 156.269" stroke="white" stroke-linejoin="bevel"/>
<path d="M382.971 69.108L373.661 114.728L353.381 50.998L382.971 69.108Z" stroke="white" stroke-linejoin="bevel"/>
<path d="M363.891 9.62984L353.751 51.1498L307.621 9.85984L313.211 5.08984" stroke="white" stroke-linejoin="bevel"/>
<path d="M363.961 9.25977C363.741 9.47977 246.271 9.62976 246.271 9.62976L292.861 53.6298L353.861 51.4697" stroke="white" stroke-linejoin="bevel"/>
<path d="M307.621 9.85938L292.861 53.6794" stroke="white" stroke-linejoin="bevel"/>
<path d="M307.99 9.47938L257.23 4.85938L312.39 5.15937" stroke="white" stroke-linejoin="bevel"/>
<path d="M216.132 162.499L198.952 129.629L194.102 102.799" stroke="white" stroke-linejoin="bevel"/>
<path d="M194.252 103.17L215.422 160.12" stroke="white" stroke-linejoin="bevel"/>
<path d="M229.282 74.399L210.132 41.909L194.252 103.169L229.432 74.549L246.572 9.70898" stroke="white" stroke-linejoin="bevel"/>
<path d="M265.881 175.078L264.841 195.148L216.131 162.498L266.031 175.168L314.181 208.268" stroke="white" stroke-linejoin="bevel"/>
<path d="M266.031 175.17L328.491 156.09" stroke="white" stroke-linejoin="bevel"/>
<path d="M354.651 52.9395L328.931 157.139L265.881 175.249L213.031 139.469L230.331 74.1795L292.931 53.1595L343.021 100.789L374.031 114.729" stroke="#BCBCBC" stroke-linejoin="bevel"/>
<path d="M343.021 100.789L212.881 140.139" stroke="#BCBCBC" stroke-linejoin="bevel"/>
<path d="M292.931 53.1582L277.281 120.238L265.881 175.248" stroke="#BCBCBC" stroke-linejoin="bevel"/>
<path d="M328.262 156.24L276.392 121.13L230.332 74.1797" stroke="#BCBCBC" stroke-linejoin="bevel"/>
</g>
<defs>
<clipPath id="clip0_420_7853">
<rect width="541.09" height="262.32" fill="white" transform="translate(0.28125 0.708984)"/>
</clipPath>
</defs>
</svg>
