<svg width="136" height="150" viewBox="0 0 136 150" fill="none" xmlns="http://www.w3.org/2000/svg">
<g clip-path="url(#clip0_1087_554)">
<path d="M83.7549 126.342L134.632 107.102L102.286 62.819L88.139 91.0868L83.7549 126.342Z" stroke="white" stroke-miterlimit="10"/>
<path d="M134.636 107.102L99.1556 100.866L102.495 63.5008" stroke="white" stroke-miterlimit="10"/>
<path d="M84.4351 125.774L99.4609 100.463" stroke="white" stroke-miterlimit="10"/>
<path d="M22.3855 44.433L23.0316 44.0944L23.7769 42.8684L25.1803 41.2975L26.3375 38.7621L27.2818 35.7916L28.208 32.8153L29.0468 30.7202L29.1366 29.291L28.9023 28.3203" stroke="white" stroke-width="0.25" stroke-miterlimit="10"/>
<path d="M23.8889 43.082L26.8596 43.4538L25.1799 41.2966L27.9138 41.2458L26.3371 38.7613L29.4013 38.2639L27.2814 35.7907L30.3394 35.2814L28.2075 32.8145L31.3842 32.5316L29.0464 30.7193L31.4645 30.5606L29.3515 29.1773L31.4394 29.4651" stroke="white" stroke-width="0.25" stroke-linejoin="round"/>
<path d="M24.5959 45.4756L25.6847 44.9049L26.8608 43.4532L28.1304 41.1323L29.4025 38.2633L30.6746 35.3943L31.3853 32.531L31.4657 30.56L31.3281 29.25" stroke="white" stroke-width="0.25" stroke-linejoin="round"/>
<path d="M27.226 45.7522L28.4178 44.8542L29.8212 43.2833L31.2057 40.6288L32.1318 37.6525L32.9612 35.0156L33.8121 32.9142L33.6651 31.0624L31.4648 30.5601L33.8121 32.9142L31.1691 32.644L32.9612 35.0156L30.5551 35.168L32.1318 37.6525L29.1863 38.3763L31.2057 40.6288L28.1295 41.1324L29.8212 43.2833L26.8599 43.4533L28.4178 44.8542L25.6838 44.905L27.226 45.7522Z" stroke="white" stroke-width="0.25" stroke-linejoin="round"/>
<path d="M29.5302 45.3788L28.4162 44.8539L31.1465 44.2431L29.8197 43.283L32.5404 42.1303L31.2042 40.6285L33.6976 39.595L32.1303 37.6523L34.0963 37.1838L32.9597 35.0153L34.8441 35.4097L33.4828 32.8123L35.2403 33.5466L33.6635 31.0621" stroke="white" stroke-width="0.25" stroke-linejoin="round"/>
<path d="M29.0905 45.6113L30.9341 44.3565L32.6621 42.3572L33.7006 39.5955L34.0993 37.1843L34.8471 35.4102L35.2433 33.5471L34.9023 32.3438" stroke="white" stroke-width="0.25" stroke-linejoin="round"/>
<path d="M31.49 44.8997L31.1465 44.2444L33.2274 43.4423L32.6592 42.3581L34.6057 40.7759L33.6977 39.5963L35.2198 38.2518L34.0964 37.1852" stroke="white" stroke-width="0.25" stroke-linejoin="round"/>
<path d="M34.7336 35.1963L35.2215 38.2515L34.8229 40.6627L33.2292 43.442L31.4918 44.8995L29.3167 45.4927L27.2263 45.753L24.5954 45.4765L22.3857 44.4325L20.7035 42.8234L19.4545 40.4405L18.9665 37.3853L19.3652 34.9741L20.1884 32.3252L21.8134 30.6533L22.2536 30.9694L23.8786 29.2975L21.8134 30.6533" stroke="white" stroke-width="0.25" stroke-linejoin="round"/>
<path d="M33.2293 43.4422L35.0635 41.6455L34.6076 40.7757L36.0053 39.223L35.2216 38.2516L36.1729 36.371L34.8461 35.4109" stroke="white" stroke-width="0.25" stroke-linejoin="round"/>
<path d="M35.0617 41.6442L36.0035 39.2217L36.1711 36.3696L35.2405 33.5465L34.8996 32.3431L33.6638 31.062L31.326 29.2497L28.9009 28.3185L26.4828 28.4773" stroke="white" stroke-width="0.25" stroke-linejoin="round"/>
<path d="M22.8157 44.2056L25.6834 44.9048L23.8888 43.0812" stroke="white" stroke-width="0.25" stroke-linejoin="round"/>
<path d="M22.6969 43.98L21.3512 41.9363L23.7763 42.8675L22.5273 40.4845L25.0673 41.0821L24.0494 39.14L26.3369 38.7612L24.4298 36.7232L27.2812 35.7906L25.3742 33.7526L28.2073 32.8144L26.3279 31.3239L29.0462 30.7193L27.3916 29.6576L29.136 29.2901L26.4836 28.4781" stroke="white" stroke-width="0.25" stroke-linejoin="round"/>
<path d="M26.4844 28.4785L27.1651 29.7772L26.2101 31.0979L25.2625 33.5386L24.3182 36.5091L24.0502 39.1404L22.5281 40.485L21.352 41.9367L20.9188 42.7106" stroke="white" stroke-width="0.25" stroke-linejoin="round"/>
<path d="M19.4558 40.4396L21.3534 41.9358L20.4227 39.1127L22.5294 40.4841L21.9385 37.7562L23.9391 38.9251" stroke="white" stroke-width="0.25" stroke-linejoin="round"/>
<path d="M21.9389 37.7559L24.32 36.5079L22.5373 34.6781L25.2643 33.5374L23.594 31.922L26.3305 31.3231L24.7607 29.9285L27.1668 29.776" stroke="white" stroke-width="0.25" stroke-linejoin="round"/>
<path d="M26.5977 28.6934L24.7598 29.93L23.4807 31.7091L22.5364 34.6797L21.9381 37.7575L20.4222 39.1139L19.5677 40.6554" stroke="white" stroke-width="0.25" stroke-linejoin="round"/>
<path d="M21.9354 37.7563L20.2595 36.1592L22.5338 34.6786L20.9822 33.2896L23.5905 31.9225L22.2518 30.9687L24.7572 29.9289L23.8768 29.2968L26.4826 28.4778" stroke="white" stroke-width="0.25" stroke-linejoin="round"/>
<path d="M20.4218 39.1129L19.0793 37.5991L20.2616 36.1593L19.4623 34.6342L20.9843 33.2897L20.5284 32.4199L22.2539 30.9688L20.9843 33.2897L20.2616 36.1593L20.4218 39.1129Z" stroke="white" stroke-width="0.25" stroke-linejoin="round"/>
<path d="M37.174 111.056L37.6287 110.817L38.1509 109.951L39.134 108.859L39.9542 107.077L40.612 104.986L41.2698 102.895L41.8538 101.419L41.9208 100.412L41.7578 99.7227" stroke="white" stroke-width="0.25" stroke-miterlimit="10"/>
<path d="M38.2315 110.107L40.3188 110.365L39.1334 108.86L41.0646 108.82L39.9536 107.079L42.1027 106.727L40.6114 104.987L42.7605 104.635L41.2692 102.896L43.4995 102.699L41.8532 101.42L43.5477 101.307L42.0757 100.332L43.5403 100.536" stroke="white" stroke-width="0.25" stroke-linejoin="round"/>
<path d="M38.7296 111.789L39.4834 111.394L40.3167 110.365L41.2181 108.738L42.1007 106.726L42.9952 104.708L43.4974 102.699L43.5456 101.306L43.457 100.381" stroke="white" stroke-width="0.25" stroke-linejoin="round"/>
<path d="M40.5708 111.98L41.4172 111.354L42.394 110.25L43.3697 108.386L44.0275 106.295L44.611 104.44L45.195 102.965L45.1059 101.66L43.5482 101.307L45.195 102.965L43.3564 102.774L44.611 104.44L42.9165 104.554L44.0275 106.295L41.9596 106.802L43.3697 108.386L41.2206 108.738L42.394 110.25L40.3193 110.365L41.4172 111.354L39.486 111.394L40.5708 111.98Z" stroke="white" stroke-width="0.25" stroke-linejoin="round"/>
<path d="M42.1909 111.723L41.4177 111.354L43.3421 110.922L42.3946 110.249L44.3064 109.445L43.3703 108.386L45.1266 107.663L44.0281 106.295L45.4047 105.953L44.6116 104.44L45.9325 104.719L44.9771 102.897L46.2055 103.407L45.1064 101.659" stroke="white" stroke-width="0.25" stroke-linejoin="round"/>
<path d="M41.8913 111.879L43.1861 111.003L44.3872 109.599L45.1262 107.663L45.4043 105.953L45.9321 104.719L46.2051 103.407L45.9609 102.562" stroke="white" stroke-width="0.25" stroke-linejoin="round"/>
<path d="M43.5785 111.374L43.3412 110.921L44.7864 110.361L44.3867 109.599L45.7558 108.486L45.1257 107.662L46.1957 106.706L45.4038 105.952" stroke="white" stroke-width="0.25" stroke-linejoin="round"/>
<path d="M45.8512 104.564L46.1964 106.707L45.9121 108.405L44.7871 110.362L43.5792 111.374L42.0471 111.798L40.5712 111.979L38.7326 111.788L37.1743 111.056L36.0015 109.924L35.1209 108.244L34.7757 106.101L35.048 104.409L35.6315 102.554L36.7639 101.369L37.0818 101.597L38.2205 100.423L36.7639 101.369" stroke="white" stroke-width="0.25" stroke-linejoin="round"/>
<path d="M44.7868 110.361L46.0747 109.094L45.7562 108.486L46.7394 107.394L46.1961 106.707L46.8613 105.386L45.932 104.719" stroke="white" stroke-width="0.25" stroke-linejoin="round"/>
<path d="M46.0721 109.095L46.7367 107.395L46.8587 105.387L46.2023 103.407L45.9582 102.563L45.1033 101.66L43.457 100.381L41.7551 99.7239L40.0607 99.8375" stroke="white" stroke-width="0.25" stroke-linejoin="round"/>
<path d="M37.4859 110.894L39.4868 111.394L38.2328 110.107" stroke="white" stroke-width="0.25" stroke-linejoin="round"/>
<path d="M37.4014 110.738L36.4465 109.295L38.1483 109.952L37.2741 108.284L39.0503 108.705L38.3321 107.335L39.9516 107.078L38.6164 105.636L40.6094 104.987L39.2742 103.545L41.2672 102.895L39.9389 101.845L41.8513 101.42L40.6853 100.679L41.9182 100.413L40.0608 99.8369" stroke="white" stroke-width="0.25" stroke-linejoin="round"/>
<path d="M40.0625 99.8359L40.5434 100.753L39.8594 101.689L39.1947 103.389L38.5369 105.48L38.3338 107.334L37.2757 108.283L36.4482 109.294L36.1439 109.848" stroke="white" stroke-width="0.25" stroke-linejoin="round"/>
<path d="M35.1213 108.245L36.4497 109.295L35.7934 107.316L37.2773 108.284L36.8514 106.366L38.2604 107.192" stroke="white" stroke-width="0.25" stroke-linejoin="round"/>
<path d="M36.8516 106.365L38.5386 105.481L37.2909 104.206L39.1964 103.39L38.0298 102.27L39.9422 101.845L38.8506 100.868L40.5451 100.754" stroke="white" stroke-width="0.25" stroke-linejoin="round"/>
<path d="M40.1445 99.9922L38.8497 100.868L37.9478 102.116L37.29 104.207L36.8507 106.366L35.7927 107.315L35.2018 108.4" stroke="white" stroke-width="0.25" stroke-linejoin="round"/>
<path d="M36.8497 106.366L35.6769 105.234L37.289 104.207L36.1854 103.236L38.028 102.27L37.0805 101.597L38.8488 100.868L38.2192 100.423L40.0624 99.8369" stroke="white" stroke-width="0.25" stroke-linejoin="round"/>
<path d="M35.7932 107.316L34.8571 106.257L35.6784 105.234L35.1226 104.174L36.1869 103.236L35.8684 102.629L37.082 101.598L36.1869 103.236L35.6784 105.234L35.7932 107.316Z" stroke="white" stroke-width="0.25" stroke-linejoin="round"/>
<path d="M46.3202 104.59L87.4552 90.9731L34.2012 41.7769" stroke="white" stroke-miterlimit="10"/>
</g>
<defs>
<clipPath id="clip0_1087_554">
<rect width="89.6444" height="121.284" fill="white" transform="matrix(-0.885713 0.464233 0.464233 0.885713 79.3984 0)"/>
</clipPath>
</defs>
</svg>
